#N struct text float x float y text t;
#N canvas 956 273 706 703 10;
#X obj 342 59 inlet gui;
#X obj 482 57 inlet memory;
#X obj 120 70 inlet metro;
#X obj 120 92 unpack f f f f;
#X floatatom 120 131 5 0 0 0 - - -, f 5;
#X floatatom 165 131 5 0 0 0 - - -, f 5;
#X floatatom 204 131 5 0 0 0 - - -, f 5;
#X floatatom 250 131 5 0 0 0 - - -, f 5;
#X obj 147 250 f;
#X obj 173 251 + 1;
#X floatatom 147 272 5 0 0 0 - - -, f 5;
#X obj 210 166 sel 0;
#X msg 209 188 0;
#X msg 118 385 \$2 \$1;
#X floatatom 228 452 5 0 0 2 ms_bar - -, f 5;
#X scalar text 356 492 \; \;;
#N canvas 307 272 434 688 get_items_in_micro 0;
#X obj 94 178 until;
#X msg 94 154 100;
#X obj 94 201 f;
#X obj 123 202 + 1;
#X obj 93 226 +;
#X obj 77 56 t a a;
#X obj 93 296 t a a;
#X obj 160 337 unpack f f;
#X obj 160 358 ==;
#X obj 229 338 unpack f f;
#X obj 206 359 ==;
#X obj 160 379 +;
#X obj 160 400 == 2;
#X obj 160 421 sel 0;
#X obj 93 477 spigot;
#X obj 76 126 t f b 0 f 1;
#X msg 160 442 0;
#X obj 77 25 inlet;
#X obj 93 546 outlet;
#X obj 168 28 unpack f f;
#X floatatom 168 50 5 0 0 0 - - -, f 5;
#X floatatom 220 50 5 0 0 0 - - -, f 5;
#X obj 76 100 route -1;
#X text 38 570 cent midibar midimicro midicent vol row;
#X obj 262 28 inlet text_len;
#X obj 93 248 moses;
#X floatatom 262 50 5 0 0 0 - - -, f 5;
#X obj 76 78 text search 2 3;
#X obj 93 272 text get;
#X msg 93 517 \$5 \$6 \$7 \$8 \$9 \$2;
#X msg 160 316 \$3 \$4;
#X obj 148 248 r \$0-mem_sym;
#X obj 182 77 r \$0-mem_sym;
#X connect 0 0 2 0;
#X connect 1 0 0 0;
#X connect 2 0 3 0;
#X connect 2 0 4 0;
#X connect 3 0 2 1;
#X connect 4 0 25 0;
#X connect 5 0 27 0;
#X connect 5 1 9 0;
#X connect 6 0 14 0;
#X connect 6 1 30 0;
#X connect 7 0 8 0;
#X connect 7 1 10 0;
#X connect 8 0 11 0;
#X connect 9 0 8 1;
#X connect 9 1 10 1;
#X connect 10 0 11 1;
#X connect 11 0 12 0;
#X connect 12 0 13 0;
#X connect 13 0 0 1;
#X connect 13 0 16 0;
#X connect 14 0 29 0;
#X connect 15 1 1 0;
#X connect 15 2 2 1;
#X connect 15 3 4 1;
#X connect 15 4 14 1;
#X connect 16 0 14 1;
#X connect 17 0 5 0;
#X connect 17 0 19 0;
#X connect 19 0 20 0;
#X connect 19 1 21 0;
#X connect 22 1 15 0;
#X connect 24 0 26 0;
#X connect 25 0 28 0;
#X connect 26 0 25 1;
#X connect 27 0 22 0;
#X connect 28 0 6 0;
#X connect 29 0 18 0;
#X connect 30 0 7 0;
#X connect 31 0 28 3;
#X connect 32 0 27 1;
#X restore 117 412 pd get_items_in_micro;
#X text 364 514 seq_nr row auswahl len beatnr micronr an;
#X text 62 526 cent midibar midimicro midicent vol row;
#N canvas 2048 320 384 436 calc_pos_and_len 0;
#X obj 65 40 inlet list;
#X obj 247 103 inlet ms_micro;
#X obj 65 76 unpack f f f f f f;
#X floatatom 100 104 3 0 0 3 bar - -, f 3;
#X floatatom 123 104 3 0 0 3 micro - -, f 3;
#X floatatom 146 104 5 0 0 3 cent - -, f 5;
#X floatatom 204 104 3 0 0 3 row - -, f 3;
#X floatatom 181 104 3 0 0 3 vol - -, f 3;
#X floatatom 65 104 5 0 0 3 cent - -, f 5;
#X obj 65 166 *;
#X obj 65 188 / 100;
#X obj 105 185 *;
#X obj 105 207 +;
#X obj 132 185 *;
#X obj 105 229 +;
#X obj 159 186 *;
#X obj 159 208 / 100;
#X floatatom 65 210 5 0 0 0 delay - -, f 5;
#X floatatom 105 251 5 0 0 0 len - -, f 5;
#X obj 65 294 pack 0 f f f f;
#X obj 65 269 t b f;
#X obj 65 360 pack f f f;
#X obj 65 382 outlet;
#X msg 65 315 \$2 \$3 \$4 \$5;
#X obj 65 338 pipe f f f 100;
#X connect 0 0 2 0;
#X connect 1 0 13 1;
#X connect 1 0 15 1;
#X connect 1 0 9 1;
#X connect 1 0 11 1;
#X connect 2 0 8 0;
#X connect 2 1 3 0;
#X connect 2 2 4 0;
#X connect 2 3 5 0;
#X connect 2 4 7 0;
#X connect 2 5 6 0;
#X connect 3 0 11 0;
#X connect 4 0 13 0;
#X connect 5 0 15 0;
#X connect 6 0 19 1;
#X connect 7 0 19 3;
#X connect 8 0 9 0;
#X connect 9 0 10 0;
#X connect 10 0 17 0;
#X connect 11 0 12 0;
#X connect 12 0 14 0;
#X connect 13 0 12 1;
#X connect 14 0 18 0;
#X connect 15 0 16 0;
#X connect 16 0 14 1;
#X connect 17 0 20 0;
#X connect 18 0 19 2;
#X connect 19 0 23 0;
#X connect 20 0 19 0;
#X connect 20 1 19 4;
#X connect 21 0 22 0;
#X connect 23 0 24 0;
#X connect 24 0 21 0;
#X connect 24 1 21 1;
#X connect 24 2 21 2;
#X restore 117 473 pd calc_pos_and_len;
#X obj 117 551 outlet;
#X obj 120 150 + 1;
#X obj 147 297 + 1;
#X scalar text 346 394 \; \;;
#X scalar text 309 419 \; \;;
#X obj 217 249 sel 4;
#X msg 217 269 0;
#X obj 147 223 sel 1;
#X obj 120 169 t f f;
#X obj 395 485 outlet metro_bars;
#X floatatom 283 411 5 0 0 0 - - -, f 5;
#X floatatom 262 230 5 0 0 0 - - -, f 5;
#X obj 342 118 route amount_bars;
#X obj 119 362 pack f f f f f f;
#X msg 395 461 \$2 \$1 \$3 \$4 \$5 \$6;
#X obj 283 387 text size;
#X symbolatom 482 143 14 0 0 0 - - -, f 14;
#X obj 482 164 s \$0-mem_sym;
#X obj 334 364 r \$0-mem_sym;
#X obj 482 89 route dollar_null size_change;
#X msg 482 121 symbol \$1-memory;
#X floatatom 601 120 5 0 0 0 - - -, f 5;
#X obj 117 504 spigot;
#X symbolatom 351 387 10 0 0 0 - - -, f 10;
#X connect 0 0 32 0;
#X connect 1 0 39 0;
#X connect 2 0 3 0;
#X connect 3 0 4 0;
#X connect 3 1 5 0;
#X connect 3 2 6 0;
#X connect 3 3 7 0;
#X connect 4 0 21 0;
#X connect 5 0 14 0;
#X connect 5 0 33 2;
#X connect 6 0 11 0;
#X connect 6 0 33 3;
#X connect 6 0 42 1;
#X connect 7 0 33 4;
#X connect 8 0 9 0;
#X connect 8 0 10 0;
#X connect 9 0 8 1;
#X connect 10 0 22 0;
#X connect 11 0 12 0;
#X connect 12 0 8 1;
#X connect 13 0 16 0;
#X connect 14 0 19 1;
#X connect 16 0 19 0;
#X connect 19 0 42 0;
#X connect 21 0 28 0;
#X connect 22 0 25 0;
#X connect 22 0 33 1;
#X connect 25 0 26 0;
#X connect 26 0 8 1;
#X connect 27 0 8 0;
#X connect 28 0 33 0;
#X connect 28 1 27 0;
#X connect 31 0 25 1;
#X connect 31 0 33 5;
#X connect 32 0 31 0;
#X connect 33 0 13 0;
#X connect 33 0 34 0;
#X connect 34 0 29 0;
#X connect 35 0 16 1;
#X connect 35 0 30 0;
#X connect 36 0 37 0;
#X connect 38 0 35 1;
#X connect 38 0 43 0;
#X connect 39 0 40 0;
#X connect 39 0 41 0;
#X connect 39 1 35 0;
#X connect 40 0 36 0;
#X connect 42 0 20 0;
