#N struct text float x float y text t;
#N canvas 207 261 823 588 10;
#X obj 342 59 inlet gui;
#X obj 503 59 inlet memory;
#X obj 120 70 inlet metro;
#X obj 581 148 text define \$0-seq_mem;
#X obj 503 266 ../math/list_sort 3;
#X msg 503 229 \$3 \$4 \$5 \$6 \$7 \$8 \$9 \$2 \$1;
#X floatatom 641 277 5 0 0 0 - - -, f 5;
#X text 512 247 bar beat cent len0 len1 len2 vol row id;
#X msg 542 206 sort;
#X obj 120 92 unpack f f f f;
#X floatatom 120 131 5 0 0 0 - - -, f 5;
#X floatatom 157 131 5 0 0 0 - - -, f 5;
#X floatatom 194 131 5 0 0 0 - - -, f 5;
#X floatatom 231 131 5 0 0 0 - - -, f 5;
#X obj 147 250 f;
#X obj 173 251 + 1;
#X floatatom 147 272 5 0 0 0 - - -, f 5;
#X obj 194 166 sel 0;
#X obj 194 188 del 10;
#X msg 194 210 0;
#X msg 118 385 \$2 \$1;
#X floatatom 236 387 5 0 0 2 ms_bar - -, f 5;
#X obj 503 393 text set \$0-seq_mem;
#X msg 540 369 1e+007;
#X obj 539 347 loadbang;
#X msg 581 122 clear;
#X scalar text 356 492 \; \;;
#N canvas 986 407 527 596 get_items_in_micro 0;
#X obj 76 78 text search \$0-seq_mem 0 1;
#X obj 94 178 until;
#X msg 94 154 100;
#X obj 94 201 f;
#X obj 123 202 + 1;
#X obj 93 226 +;
#X obj 93 272 text get \$0-seq_mem;
#X obj 77 56 t a a;
#X obj 93 292 t a a;
#X obj 120 312 unpack f f;
#X obj 120 334 ==;
#X obj 200 313 unpack f f;
#X obj 177 334 ==;
#X obj 120 356 +;
#X obj 120 378 == 2;
#X obj 120 400 sel 0;
#X floatatom 175 374 5 0 0 0 - - -, f 5;
#X obj 93 446 spigot;
#X obj 76 126 t f b 0 f 1;
#X msg 120 421 0;
#X obj 77 25 inlet;
#X obj 93 515 outlet;
#X obj 168 28 unpack f f;
#X floatatom 168 50 5 0 0 0 - - -, f 5;
#X floatatom 220 50 5 0 0 0 - - -, f 5;
#X obj 76 100 route -1;
#X msg 93 486 \$3 \$4 \$5 \$6 \$7 \$8;
#X text 38 539 cent midibar midimicro midicent vol row;
#X obj 333 26 inlet text_len;
#X obj 93 248 moses;
#X floatatom 333 48 5 0 0 0 - - -, f 5;
#X connect 0 0 25 0;
#X connect 1 0 3 0;
#X connect 2 0 1 0;
#X connect 3 0 4 0;
#X connect 3 0 5 0;
#X connect 4 0 3 1;
#X connect 5 0 29 0;
#X connect 6 0 8 0;
#X connect 7 0 0 0;
#X connect 7 1 11 0;
#X connect 8 0 17 0;
#X connect 8 1 9 0;
#X connect 9 0 10 0;
#X connect 9 1 12 0;
#X connect 10 0 13 0;
#X connect 11 0 10 1;
#X connect 11 1 12 1;
#X connect 12 0 13 1;
#X connect 13 0 14 0;
#X connect 13 0 16 0;
#X connect 14 0 15 0;
#X connect 15 0 1 1;
#X connect 15 0 19 0;
#X connect 17 0 26 0;
#X connect 18 1 2 0;
#X connect 18 2 3 1;
#X connect 18 3 5 1;
#X connect 18 4 17 1;
#X connect 19 0 17 1;
#X connect 20 0 7 0;
#X connect 20 0 22 0;
#X connect 22 0 23 0;
#X connect 22 1 24 0;
#X connect 25 1 18 0;
#X connect 26 0 21 0;
#X connect 28 0 30 0;
#X connect 29 0 6 0;
#X connect 30 0 29 1;
#X restore 117 412 pd get_items_in_micro;
#X text 410 517 seq_nr row auswahl len beatnr micronr an;
#X text 170 468 cent midibar midimicro midicent vol row;
#N canvas 1279 358 473 511 calc_pos_and_len 0;
#X obj 65 40 inlet list;
#X obj 357 103 inlet ms_bar;
#X obj 247 103 inlet ms_micro;
#X obj 65 76 unpack f f f f f f;
#X floatatom 100 104 3 0 0 3 bar - -, f 3;
#X floatatom 123 104 3 0 0 3 micro - -, f 3;
#X floatatom 146 104 5 0 0 3 cent - -, f 5;
#X floatatom 204 104 3 0 0 3 row - -, f 3;
#X floatatom 181 104 3 0 0 3 vol - -, f 3;
#X floatatom 65 104 5 0 0 3 cent - -, f 5;
#X obj 65 166 *;
#X obj 65 188 / 100;
#X obj 105 185 *;
#X obj 105 207 +;
#X obj 132 185 *;
#X obj 105 229 +;
#X obj 159 186 *;
#X obj 159 208 / 100;
#X floatatom 65 210 5 0 0 0 delay - -, f 5;
#X floatatom 105 251 5 0 0 0 len - -, f 5;
#X obj 65 294 pack 0 f f f f;
#X obj 65 269 t b f;
#X obj 65 360 pack f f f;
#X obj 65 382 outlet;
#X msg 65 315 \$2 \$3 \$4 \$5;
#X obj 65 338 pipe f f f 100;
#X connect 0 0 3 0;
#X connect 1 0 12 1;
#X connect 2 0 14 1;
#X connect 2 0 16 1;
#X connect 2 0 10 1;
#X connect 3 0 9 0;
#X connect 3 1 4 0;
#X connect 3 2 5 0;
#X connect 3 3 6 0;
#X connect 3 4 8 0;
#X connect 3 5 7 0;
#X connect 4 0 12 0;
#X connect 5 0 14 0;
#X connect 6 0 16 0;
#X connect 7 0 20 1;
#X connect 8 0 20 3;
#X connect 9 0 10 0;
#X connect 10 0 11 0;
#X connect 11 0 18 0;
#X connect 12 0 13 0;
#X connect 13 0 15 0;
#X connect 14 0 13 1;
#X connect 15 0 19 0;
#X connect 16 0 17 0;
#X connect 17 0 15 1;
#X connect 18 0 21 0;
#X connect 19 0 20 2;
#X connect 20 0 24 0;
#X connect 21 0 20 0;
#X connect 21 1 20 4;
#X connect 22 0 23 0;
#X connect 24 0 25 0;
#X connect 25 0 22 0;
#X connect 25 1 22 1;
#X connect 25 2 22 2;
#X restore 117 443 pd calc_pos_and_len;
#X obj 503 86 route set sort clear;
#X obj 117 488 outlet;
#X obj 120 150 + 1;
#X obj 147 297 + 1;
#X scalar text 346 394 \; \;;
#X scalar text 309 419 \; \;;
#X obj 283 387 text size \$0-seq_mem;
#X obj 284 365 t b;
#X obj 217 249 sel 4;
#X msg 219 272 0;
#X obj 147 223 sel 1;
#X obj 120 169 t f f;
#X obj 506 483 outlet metro_bars;
#X obj 119 362 pack f f f f f;
#X msg 506 459 \$2 \$1 \$3 \$4 \$5;
#X connect 1 0 31 0;
#X connect 2 0 9 0;
#X connect 4 0 22 0;
#X connect 5 0 4 0;
#X connect 6 0 4 1;
#X connect 8 0 4 0;
#X connect 8 0 38 0;
#X connect 9 0 10 0;
#X connect 9 1 11 0;
#X connect 9 2 12 0;
#X connect 9 3 13 0;
#X connect 10 0 33 0;
#X connect 11 0 21 0;
#X connect 11 0 44 2;
#X connect 12 0 17 0;
#X connect 12 0 44 3;
#X connect 13 0 39 1;
#X connect 13 0 44 4;
#X connect 14 0 15 0;
#X connect 14 0 16 0;
#X connect 15 0 14 1;
#X connect 16 0 34 0;
#X connect 17 0 18 0;
#X connect 18 0 19 0;
#X connect 20 0 27 0;
#X connect 21 0 30 2;
#X connect 21 0 30 1;
#X connect 23 0 22 1;
#X connect 24 0 23 0;
#X connect 25 0 3 0;
#X connect 27 0 30 0;
#X connect 30 0 32 0;
#X connect 31 0 5 0;
#X connect 31 1 8 0;
#X connect 31 2 25 0;
#X connect 33 0 42 0;
#X connect 34 0 39 0;
#X connect 34 0 44 1;
#X connect 37 0 27 1;
#X connect 38 0 37 0;
#X connect 39 0 40 0;
#X connect 40 0 14 1;
#X connect 41 0 14 0;
#X connect 42 0 44 0;
#X connect 42 1 41 0;
#X connect 44 0 20 0;
#X connect 44 0 45 0;
#X connect 45 0 43 0;
