#N canvas 855 95 963 773 10;
#X obj 73 302 cnv 15 140 18 empty empty empty 20 12 0 14 -135168 -66577
0;
#X floatatom 531 441 8 0 0 0 - - -, f 8;
#X obj 93 304 tgl 15 0 \$0-start \$0-start-rec empty 17 7 0 10 -262144
-1 -1 0 1;
#X obj 235 614 outlet~;
#X obj 75 304 bng 15 250 50 0 \$0-rec \$0-rec-rec empty 17 7 0 10 -262144
-262144 -262144;
#X floatatom 196 304 2 0 6 0 - #0-ch-rec #0-ch, f 2;
#X obj 683 55 inlet~ mono-sound;
#X obj 235 55 inlet sync;
#X obj 726 416 array define \$0-sound;
#X obj 552 55 inlet tempo;
#X obj 552 105 expr 60000 / $f1;
#X floatatom 552 127 5 0 0 0 - - -, f 5;
#X floatatom 552 208 8 0 0 0 milli-sec - -, f 8;
#N canvas 968 282 493 292 pos 0;
#X obj 175 183 moonlib/mknob 16 -1 0 1 0 0 \$0-wqe \$0-yxcyxc empty
-2 -7 0 10 -262144 -65553 -193896 17950 1;
#X obj 168 47 hsl 128 15 0 1 0 0 empty empty empty -2 -8 0 10 -262144
-1 -1 0 1;
#X obj 168 67 + 0.5;
#X obj 168 88 moses 1;
#X floatatom 168 110 5 0 0 0 - - -, f 5;
#X floatatom 213 115 5 0 0 0 - - -, f 5;
#X obj 213 136 - 1;
#X obj 168 12 inlet;
#X msg 233 157 size 16 -1;
#X obj 82 17 r \$0-pos;
#X connect 1 0 2 0;
#X connect 2 0 3 0;
#X connect 3 0 4 0;
#X connect 3 1 5 0;
#X connect 4 0 0 0;
#X connect 5 0 6 0;
#X connect 6 0 0 0;
#X connect 7 0 1 0;
#X connect 8 0 0 0;
#X connect 9 0 1 0;
#X coords 0 -1 1 1 16 16 2 175 183;
#X restore 111 304 pd pos;
#X obj 590 133 r \$0-amount-beats;
#X floatatom 167 304 3 1 1000 0 - #0-amount-beats-rec #0-amount-beats
, f 3;
#X floatatom 628 155 5 0 0 0 - - -, f 5;
#X obj 590 155 t b f;
#X obj 552 183 * 8;
#X obj 823 55 inlet latency;
#X floatatom 823 109 5 0 0 0 - - -, f 5;
#X obj 726 442 array define \$0-temp;
#N canvas 3035 203 667 688 rec-loop 0;
#X obj 204 378 del;
#X msg 204 405 stop;
#X obj 182 404 bng 15 250 50 0 empty empty empty 17 7 0 10 -262144
-1 -1;
#X obj 306 345 adc~ 1 2 3 4 5 6;
#X obj 288 394 mux~ . . . . . . .;
#X floatatom 288 322 5 0 0 0 - - -, f 5;
#X obj 288 298 r \$0-ch;
#X obj 327 232 r \$0-rec;
#N canvas 1266 495 450 346 let-zero-pass-once 0;
#X obj 145 87 spigot;
#X msg 177 61 1;
#X obj 145 109 == 0;
#X obj 145 131 sel 1;
#X msg 206 61 0;
#X obj 145 18 inlet waiting-for-zero;
#X obj 342 23 inlet on;
#X obj 145 198 outlet;
#X connect 0 0 2 0;
#X connect 1 0 0 1;
#X connect 2 0 3 0;
#X connect 3 0 4 0;
#X connect 3 0 7 0;
#X connect 4 0 0 1;
#X connect 5 0 0 0;
#X connect 6 0 1 0;
#X restore 204 259 pd let-zero-pass-once;
#N canvas 909 231 785 698 change-rec-btn-col 0;
#N canvas 798 335 439 567 flash-time 0;
#X obj 96 521 outlet;
#X obj 162 230 t b f;
#X obj 96 268 +;
#X obj 96 293 t b f;
#X obj 96 324 +;
#X obj 19 208 * -65536;
#X obj 96 208 * -256;
#X obj 162 208 * -1;
#X obj 96 355 - 1;
#X obj 96 385 list prepend 0;
#X obj 96 410 route 0 1 2;
#X obj 96 497 pack 0 0 0;
#X obj 115 456 t b a;
#X obj 168 455 t b a;
#X obj 104 124 vradio 15 1 0 3 empty empty empty 0 -8 0 10 -262144
-1 -1 0;
#X text 120 120 1.bg;
#X text 120 137 2.front;
#X text 120 153 3.label;
#X obj 103 105 nbx 3 14 0 255 0 0 \$0-dummy \$0-r empty 0 -8 0 10 -262144
-258113 -1 0 256 0;
#X obj 133 105 nbx 3 14 0 255 0 0 \$0-dummy \$0-g empty 0 -8 0 10 -262144
-13381 -1 0 256 0;
#X obj 163 105 nbx 3 14 0 255 0 0 \$0-dummy \$0-b empty 0 -8 0 10 -262144
-4160 -1 0 256 0;
#X obj 98 34 inlet;
#X obj 137 34 inlet;
#X obj 176 34 inlet;
#X connect 1 0 2 0;
#X connect 1 1 2 1;
#X connect 2 0 3 0;
#X connect 3 0 4 0;
#X connect 3 1 4 1;
#X connect 4 0 8 0;
#X connect 5 0 4 0;
#X connect 6 0 2 0;
#X connect 7 0 1 0;
#X connect 8 0 9 0;
#X connect 9 0 10 0;
#X connect 10 0 11 0;
#X connect 10 1 12 0;
#X connect 10 2 13 0;
#X connect 11 0 0 0;
#X connect 12 0 11 0;
#X connect 12 1 11 1;
#X connect 13 0 11 0;
#X connect 13 1 11 2;
#X connect 14 0 9 1;
#X connect 18 0 5 0;
#X connect 19 0 6 0;
#X connect 20 0 7 0;
#X connect 21 0 18 0;
#X connect 22 0 19 0;
#X connect 23 0 20 0;
#X coords 0 -1 1 1 102 74 2 100 100;
#X restore 88 422 pd flash-time;
#X obj 88 554 s \$0-rec-rec;
#X obj 200 61 bng 15 250 50 0 empty empty empty 17 7 0 10 -262144 -1
-1;
#X floatatom 153 391 5 0 0 0 - - -, f 5;
#X msg 270 200 255 500;
#X msg 270 296 0 500;
#X msg 88 526 color \$1 \$2 \$3;
#X obj 153 325 line 0 20;
#X obj 270 222 t b;
#X obj 270 318 t b;
#X obj 270 244 del 750;
#X obj 204 245 del 750;
#X obj 200 81 t b b;
#X obj 268 168 spigot;
#X msg 301 143 1;
#X obj 153 369 spigot;
#X msg 186 348 1;
#X msg 244 127 0;
#X obj 111 13 inlet start;
#X obj 234 13 inlet rec;
#X obj 340 13 inlet stop;
#X msg 377 341 0;
#X msg 108 136 255;
#X msg 421 341 255;
#X connect 0 0 6 0;
#X connect 2 0 12 0;
#X connect 3 0 0 2;
#X connect 3 0 0 1;
#X connect 4 0 7 0;
#X connect 4 0 8 0;
#X connect 5 0 7 0;
#X connect 5 0 9 0;
#X connect 6 0 1 0;
#X connect 7 0 15 0;
#X connect 8 0 10 0;
#X connect 9 0 11 0;
#X connect 10 0 5 0;
#X connect 11 0 13 0;
#X connect 12 0 13 0;
#X connect 12 1 14 0;
#X connect 12 1 16 0;
#X connect 13 0 4 0;
#X connect 14 0 13 1;
#X connect 15 0 3 0;
#X connect 16 0 15 1;
#X connect 17 0 15 1;
#X connect 17 0 13 1;
#X connect 18 0 2 0;
#X connect 18 0 22 0;
#X connect 19 0 21 0;
#X connect 19 0 17 0;
#X connect 20 0 23 0;
#X connect 21 0 0 1;
#X connect 21 0 0 2;
#X connect 22 0 0 0;
#X connect 23 0 0 0;
#X connect 23 0 0 1;
#X connect 23 0 0 2;
#X restore 27 449 pd change-rec-btn-col;
#X obj 27 424 r \$0-rec;
#X obj 288 437 tabwrite~ \$0-temp;
#X obj 204 514 array get \$0-temp;
#X obj 204 475 bng 15 250 50 0 empty empty empty 17 7 0 10 -262144
-1 -1;
#X floatatom 204 494 5 0 0 0 - - -, f 5;
#X obj 204 535 array set \$0-sound;
#X floatatom 232 154 11 0 0 0 - - -, f 11;
#X obj 232 132 / 44.1;
#X obj 217 199 +;
#X obj 232 175 + 2;
#X obj 83 48 inlet sync;
#X obj 217 46 inlet tempo;
#X obj 420 46 inlet~ mono-sound;
#X obj 305 46 inlet latency;
#X floatatom 316 133 5 0 0 0 - - -, f 5;
#X obj 487 534 outlet amount-samples;
#X floatatom 488 469 8 0 0 0 - - -, f 8;
#X obj 488 445 * 44.1;
#X floatatom 235 226 9 0 0 0 - - -, f 9;
#X floatatom 167 94 8 0 0 0 - - -, f 8;
#X floatatom 254 201 9 0 0 0 - - -, f 9;
#X obj 204 348 t b b b;
#X connect 0 0 1 0;
#X connect 0 0 2 0;
#X connect 1 0 9 2;
#X connect 1 0 11 0;
#X connect 1 0 13 0;
#X connect 3 0 4 1;
#X connect 3 1 4 2;
#X connect 3 2 4 3;
#X connect 3 3 4 4;
#X connect 3 4 4 5;
#X connect 3 5 4 6;
#X connect 4 0 11 0;
#X connect 5 0 4 0;
#X connect 6 0 5 0;
#X connect 7 0 8 1;
#X connect 8 0 9 1;
#X connect 8 0 31 0;
#X connect 10 0 9 0;
#X connect 12 0 15 0;
#X connect 13 0 14 0;
#X connect 14 0 12 0;
#X connect 16 0 19 0;
#X connect 17 0 16 0;
#X connect 18 0 0 1;
#X connect 18 0 28 0;
#X connect 19 0 18 1;
#X connect 19 0 30 0;
#X connect 20 0 8 0;
#X connect 21 0 18 0;
#X connect 21 0 27 0;
#X connect 21 0 29 0;
#X connect 22 0 4 0;
#X connect 23 0 17 0;
#X connect 23 0 24 0;
#X connect 24 0 14 0;
#X connect 26 0 25 0;
#X connect 27 0 26 0;
#X connect 31 0 0 0;
#X connect 31 1 11 0;
#X connect 31 2 18 0;
#X restore 531 412 pd rec-loop;
#N canvas 0 50 450 300 init 0;
#X obj 334 239 outlet;
#X obj 118 43 loadbang;
#X msg 118 114 0;
#X msg 149 115 8;
#X obj 149 140 s \$0-amount-beats-rec;
#X msg 183 115 1;
#X obj 183 162 s \$0-ch-rec;
#X obj 118 68 t b b b b;
#X msg 216 114 set 500;
#X obj 116 163 s \$0-pos;
#X connect 1 0 7 0;
#X connect 2 0 9 0;
#X connect 3 0 4 0;
#X connect 5 0 6 0;
#X connect 7 0 2 0;
#X connect 7 1 3 0;
#X connect 7 2 5 0;
#X connect 7 3 8 0;
#X connect 8 0 0 0;
#X restore 501 82 pd init;
#X obj 319 86 s \$0-start-rec;
#X obj 319 55 inlet start;
#X obj 406 55 inlet beats;
#X obj 374 117 s \$0-amount-beats-rec;
#X obj 148 304 moonlib/mknob 16 100 -1 1 0 0 \$0-pan \$0-yxcyxc empty
-2 -7 0 10 -262144 -65553 -193896 4950 1;
#X obj 130 304 moonlib/mknob 16 100 0 1 0 0 \$0-vol \$0-yxcyxc empty
-2 -7 0 10 -262144 -65553 -193896 9900 1;
#X obj 340 526 r \$0-pan;
#X floatatom 340 548 5 0 0 0 - - -, f 5;
#X text 108 278 Pos;
#X text 127 278 Vol;
#X text 147 278 Pan;
#X text 167 278 Beat;
#X text 194 278 Ch;
#X text 93 278 Pl;
#X text 70 278 Rec;
#X obj 340 614 outlet~;
#X obj 235 577 ../effects/panning;
#N canvas 454 406 396 329 vol 0;
#X obj 103 22 inlet~;
#X obj 103 244 outlet~;
#X floatatom 118 100 5 0 0 0 - - -, f 5;
#X obj 118 78 r \$0-vol;
#X obj 118 143 line~;
#X obj 118 121 pack f 10;
#X obj 103 173 *~;
#X connect 0 0 6 0;
#X connect 2 0 5 0;
#X connect 3 0 2 0;
#X connect 4 0 6 1;
#X connect 5 0 4 0;
#X connect 6 0 1 0;
#X restore 235 480 pd vol;
#X obj 127 224 loadbang;
#X msg 127 246 1;
#X msg 160 247 0;
#X obj 608 208 bng 15 250 50 0 empty empty empty 17 7 0 10 -262144
-1 -1;
#N canvas 2958 30 450 415 resize-arrays 0;
#X floatatom 191 159 8 0 0 0 - - -, f 8;
#X obj 191 290 array size \$0-sound;
#X obj 191 131 * 44.1;
#X obj 235 185 +;
#X floatatom 235 207 8 0 0 0 - - -, f 8;
#X obj 235 228 array size \$0-temp;
#X obj 250 159 + 100;
#X obj 119 135 bng 15 250 50 0 empty empty empty 17 7 0 10 -262144
-1 -1;
#X floatatom 191 269 5 0 0 0 - - -, f 5;
#X obj 191 41 inlet ms;
#X obj 250 41 inlet latency;
#X obj 48 41 inlet trigger-resize;
#X floatatom 250 63 5 0 0 0 - - -, f 5;
#X connect 0 0 3 0;
#X connect 0 0 8 0;
#X connect 2 0 0 0;
#X connect 3 0 4 0;
#X connect 4 0 5 0;
#X connect 6 0 3 1;
#X connect 7 0 0 0;
#X connect 8 0 1 0;
#X connect 9 0 2 0;
#X connect 10 0 12 0;
#X connect 11 0 0 0;
#X connect 12 0 6 0;
#X restore 727 382 pd resize-arrays;
#X obj 727 352 r \$0-rec;
#N canvas 1241 310 637 510 test 0;
#N canvas 0 0 450 300 (subpatch) 0;
#X array \$0-array1 100 float 3 black black;
#A 0 0 0 0 0 0 0 0 0 0 0 0 0 0 0 0 0 0 0 0 0 0 0 0 0 0 0 0 0 0 0 0
0 0 0 0 0 0 0 0 0 0 0 0 0 0 0 0 0 0 0 0 0 0 0 0 0 0 0 0 0 0 0 0 0 0
0 0 0 0 0 0 0 0 0 0 0 0 0 0 0 0 0 0 0 0 0 0 0 0 0 0 0 0 0 0 0 0 0 0
0;
#X coords 0 1 100 -1 200 140 1;
#X restore 30 30 graph;
#X obj 357 224 array get \$0-sound;
#X obj 358 312 array set \$0-array1;
#X obj 359 66 inlet;
#X obj 359 88 - 100;
#X obj 359 156 -;
#X floatatom 455 91 5 0 0 0 - - -, f 5;
#X obj 545 240 s \$0-array1;
#X obj 457 126 t b b f;
#X msg 462 181 normalize;
#X floatatom 296 205 8 0 0 0 - - -, f 8;
#X connect 1 0 2 0;
#X connect 3 0 4 0;
#X connect 4 0 5 0;
#X connect 5 0 1 0;
#X connect 5 0 10 0;
#X connect 6 0 8 0;
#X connect 8 1 5 0;
#X connect 8 2 5 1;
#X connect 9 0 7 0;
#X restore 532 525 pd test;
#X obj 590 461 bng 15 250 50 0 empty empty empty 17 7 0 10 -262144
-1 -1;
#N canvas 1978 72 551 747 play-loop 0;
#X obj 60 624 outlet~;
#X obj 60 48 inlet sync;
#X obj 238 45 inlet tempo-in-ms;
#X obj 60 404 vline~;
#X obj 60 511 tabread4~ \$0-sound;
#X floatatom 238 272 10 0 0 0 - - -, f 10;
#X obj 381 45 inlet amount-samples;
#X floatatom 381 248 9 0 0 0 - - -, f 9;
#X obj 60 358 pack f f;
#X obj 60 306 t b b;
#X obj 381 275 - 2;
#X msg 129 356 1;
#X obj 224 502 vline~;
#X obj 60 577 *~;
#X obj 224 448 f;
#X msg 273 501 1;
#N canvas 1197 202 518 588 sync 0;
#X obj 112 81 inlet beat-nr;
#X obj 259 213 r \$0-amount-beats;
#X floatatom 259 235 5 0 0 0 - - -, f 5;
#X obj 278 106 r \$0-start;
#X floatatom 112 170 5 0 0 0 - - -, f 5;
#N canvas 388 370 450 323 start-at-zero 0;
#X obj 143 181 outlet;
#X obj 144 70 spigot;
#X obj 144 92 sel 0;
#X obj 143 114 bng 15 250 50 0 empty empty empty 17 7 0 10 -262144
-1 -1;
#X obj 143 134 t b b;
#X msg 209 128 0;
#X obj 143 25 inlet nr;
#X obj 222 21 inlet start;
#X connect 1 0 2 0;
#X connect 2 0 3 0;
#X connect 3 0 4 0;
#X connect 4 0 0 0;
#X connect 4 1 5 0;
#X connect 5 0 1 1;
#X connect 6 0 1 0;
#X connect 7 0 1 1;
#X restore 185 175 pd start-at-zero;
#X obj 185 197 bng 15 250 50 0 empty empty empty 17 7 0 10 -262144
-1 -1;
#X msg 185 216 1;
#X obj 112 103 t f f;
#N canvas 382 339 484 467 trigger-every-nth-beat 0;
#X obj 281 42 inlet amount-beats;
#X obj 94 42 inlet beat;
#X obj 187 42 inlet start;
#X floatatom 281 64 5 0 0 0 - - -, f 5;
#X obj 187 64 bng 15 250 50 0 empty empty empty 17 7 0 10 -262144 -1
-1;
#X floatatom 94 64 5 0 0 0 - - -, f 5;
#X obj 173 227 f;
#X obj 204 227 + 1;
#X floatatom 124 295 5 0 0 0 - - -, f 5;
#X obj 251 229 sel 1;
#X msg 251 251 0;
#X obj 173 249 >=;
#X obj 94 85 t b;
#X obj 281 85 - 1;
#X obj 93 118 spigot;
#X msg 187 96 0;
#X msg 154 96 1;
#X obj 124 316 sel 0;
#X obj 124 364 outlet;
#X obj 124 338 bng 15 250 50 0 empty empty empty 17 7 0 10 -262144
-1 -1;
#X connect 0 0 3 0;
#X connect 1 0 5 0;
#X connect 2 0 4 0;
#X connect 3 0 13 0;
#X connect 4 0 15 0;
#X connect 4 0 16 0;
#X connect 5 0 12 0;
#X connect 6 0 7 0;
#X connect 6 0 8 0;
#X connect 6 0 11 0;
#X connect 7 0 6 1;
#X connect 8 0 17 0;
#X connect 9 0 10 0;
#X connect 10 0 6 1;
#X connect 11 0 9 0;
#X connect 12 0 14 0;
#X connect 13 0 11 1;
#X connect 14 0 6 0;
#X connect 15 0 6 1;
#X connect 16 0 14 1;
#X connect 17 0 19 0;
#X connect 19 0 18 0;
#X restore 112 262 pd trigger-every-nth-beat;
#X obj 112 437 bng 15 250 50 0 empty empty empty 17 7 0 10 -262144
-1 -1;
#X obj 112 338 spigot;
#X floatatom 145 314 5 0 0 0 - - -, f 5;
#X obj 112 468 outlet sync;
#X obj 246 422 bng 15 250 50 0 empty empty sync 17 7 0 10 -262144 -1
-1;
#X obj 292 468 outlet stop;
#X obj 292 422 bng 15 250 50 0 empty empty stop 17 7 0 10 -262144 -1
-1;
#N canvas 391 479 501 379 trigger-stop 0;
#X obj 145 218 spigot;
#X msg 178 192 1;
#X obj 297 29 inlet start;
#X obj 46 29 inlet sync;
#X obj 145 269 outlet stop;
#X obj 145 240 bng 15 250 50 0 empty empty empty 17 7 0 10 -262144
-1 -1;
#X obj 145 28 inlet nth-beat;
#X obj 297 52 sel 0;
#X obj 145 107 spigot;
#X msg 297 75 1;
#X obj 145 130 t b b;
#X msg 201 117 0;
#X connect 0 0 5 0;
#X connect 1 0 0 1;
#X connect 2 0 7 0;
#X connect 3 0 1 0;
#X connect 5 0 4 0;
#X connect 6 0 8 0;
#X connect 7 0 9 0;
#X connect 8 0 10 0;
#X connect 9 0 8 1;
#X connect 10 0 0 0;
#X connect 10 1 11 0;
#X connect 11 0 8 1;
#X restore 292 376 pd trigger-stop;
#X connect 0 0 8 0;
#X connect 1 0 2 0;
#X connect 2 0 9 2;
#X connect 3 0 5 1;
#X connect 3 0 12 0;
#X connect 3 0 17 2;
#X connect 4 0 9 0;
#X connect 5 0 6 0;
#X connect 6 0 7 0;
#X connect 7 0 9 1;
#X connect 8 0 4 0;
#X connect 8 1 5 0;
#X connect 9 0 11 0;
#X connect 9 0 17 1;
#X connect 10 0 13 0;
#X connect 10 0 14 0;
#X connect 11 0 10 0;
#X connect 11 0 17 0;
#X connect 12 0 11 1;
#X connect 16 0 15 0;
#X connect 17 0 16 0;
#X coords 0 -1 1 1 102 34 1 236 406;
#X restore 60 203 pd sync;
#N canvas 886 264 450 323 gui 0;
#N canvas 641 425 409 457 show-pos 0;
#X obj 131 258 bng 15 100 50 0 empty empty empty 17 7 0 10 -262144
-1 -1;
#X obj 131 309 f;
#X obj 165 309 +;
#X floatatom 131 331 12 0 0 0 - - -, f 12;
#X msg 162 204 0;
#X obj 131 236 metro 100;
#X obj 181 288 expr 1 / $f1 * 100;
#X obj 131 363 s \$0-pos;
#X obj 230 41 inlet length;
#X msg 131 205 1;
#X obj 159 41 inlet stop;
#X obj 88 41 inlet sync;
#X msg 95 279 0;
#X connect 0 0 1 0;
#X connect 1 0 2 0;
#X connect 1 0 3 0;
#X connect 2 0 1 1;
#X connect 3 0 7 0;
#X connect 4 0 5 0;
#X connect 5 0 0 0;
#X connect 6 0 2 1;
#X connect 8 0 6 0;
#X connect 9 0 5 0;
#X connect 10 0 4 0;
#X connect 10 0 12 0;
#X connect 11 0 9 0;
#X connect 11 0 12 0;
#X connect 12 0 1 0;
#X restore 170 223 pd show-pos;
#N canvas 942 111 785 721 change-play-btn-col 0;
#N canvas 798 335 439 567 flash-time 0;
#X obj 96 521 outlet;
#X obj 162 230 t b f;
#X obj 96 268 +;
#X obj 96 293 t b f;
#X obj 96 324 +;
#X obj 19 208 * -65536;
#X obj 96 208 * -256;
#X obj 162 208 * -1;
#X obj 96 355 - 1;
#X obj 96 385 list prepend 0;
#X obj 96 410 route 0 1 2;
#X obj 96 497 pack 0 0 0;
#X obj 115 456 t b a;
#X obj 168 455 t b a;
#X obj 104 124 vradio 15 1 0 3 empty empty empty 0 -8 0 10 -262144
-1 -1 0;
#X text 120 120 1.bg;
#X text 120 137 2.front;
#X text 120 153 3.label;
#X obj 103 105 nbx 3 14 0 255 0 0 \$0-dummy \$0-r empty 0 -8 0 10 -262144
-258113 -1 255 256 0;
#X obj 133 105 nbx 3 14 0 255 0 0 \$0-dummy \$0-g empty 0 -8 0 10 -262144
-13381 -1 255 256 0;
#X obj 163 105 nbx 3 14 0 255 0 0 \$0-dummy \$0-b empty 0 -8 0 10 -262144
-4160 -1 255 256 0;
#X obj 98 34 inlet;
#X obj 137 34 inlet;
#X obj 176 34 inlet;
#X connect 1 0 2 0;
#X connect 1 1 2 1;
#X connect 2 0 3 0;
#X connect 3 0 4 0;
#X connect 3 1 4 1;
#X connect 4 0 8 0;
#X connect 5 0 4 0;
#X connect 6 0 2 0;
#X connect 7 0 1 0;
#X connect 8 0 9 0;
#X connect 9 0 10 0;
#X connect 10 0 11 0;
#X connect 10 1 12 0;
#X connect 10 2 13 0;
#X connect 11 0 0 0;
#X connect 12 0 11 0;
#X connect 12 1 11 1;
#X connect 13 0 11 0;
#X connect 13 1 11 2;
#X connect 14 0 9 1;
#X connect 18 0 5 0;
#X connect 19 0 6 0;
#X connect 20 0 7 0;
#X connect 21 0 18 0;
#X connect 22 0 19 0;
#X connect 23 0 20 0;
#X coords 0 -1 1 1 102 74 2 100 100;
#X restore 228 530 pd flash-time;
#X obj 328 114 bng 15 250 50 0 empty empty empty 17 7 0 10 -262144
-1 -1;
#X floatatom 281 444 5 0 0 0 - - -, f 5;
#X msg 398 253 255 500;
#X msg 398 349 0 500;
#X obj 281 378 line 0 20;
#X obj 398 275 t b;
#X obj 398 371 t b;
#X obj 398 297 del 750;
#X obj 332 298 del 750;
#X obj 328 134 t b b;
#X obj 396 221 spigot;
#X msg 429 196 1;
#X obj 281 422 spigot;
#X msg 314 401 1;
#X msg 461 196 0;
#X obj 232 33 inlet start;
#X msg 560 391 255;
#X obj 232 67 sel 0 1;
#X obj 228 662 s \$0-start-rec;
#X obj 490 27 inlet play;
#X obj 597 29 inlet stop;
#X obj 592 362 spigot;
#X obj 625 336 == 0;
#X obj 492 159 spigot;
#X obj 525 133 == 1;
#X msg 127 358 0;
#X msg 487 390 255;
#X msg 227 634 color \$1 -1 -1;
#X connect 0 0 28 0;
#X connect 1 0 10 0;
#X connect 2 0 0 1;
#X connect 3 0 5 0;
#X connect 3 0 6 0;
#X connect 4 0 5 0;
#X connect 4 0 7 0;
#X connect 5 0 13 0;
#X connect 6 0 8 0;
#X connect 7 0 9 0;
#X connect 8 0 4 0;
#X connect 9 0 11 0;
#X connect 10 0 11 0;
#X connect 10 1 12 0;
#X connect 10 1 14 0;
#X connect 11 0 3 0;
#X connect 12 0 11 1;
#X connect 13 0 2 0;
#X connect 14 0 13 1;
#X connect 15 0 13 1;
#X connect 15 0 11 1;
#X connect 16 0 18 0;
#X connect 16 0 23 0;
#X connect 16 0 25 0;
#X connect 17 0 0 0;
#X connect 17 0 0 1;
#X connect 17 0 0 2;
#X connect 18 1 1 0;
#X connect 18 1 26 0;
#X connect 20 0 24 0;
#X connect 21 0 22 0;
#X connect 22 0 17 0;
#X connect 23 0 22 1;
#X connect 24 0 27 0;
#X connect 24 0 15 0;
#X connect 25 0 24 1;
#X connect 26 0 0 1;
#X connect 26 0 0 0;
#X connect 26 0 0 2;
#X connect 27 0 0 1;
#X connect 28 0 19 0;
#X restore 339 220 pd change-play-btn-col;
#X obj 339 190 r \$0-start;
#X obj 165 71 inlet sync;
#X obj 253 71 inlet stop;
#X obj 341 71 inlet tempo-in-ms;
#X connect 2 0 1 0;
#X connect 3 0 0 0;
#X connect 3 0 1 1;
#X connect 4 0 0 1;
#X connect 4 0 1 2;
#X connect 5 0 0 2;
#X coords 0 -1 1 1 81 33 1 100 100;
#X restore 118 255 pd gui;
#X obj 254 214 bng 15 250 50 0 empty empty empty 17 7 0 10 -262144
-1 -1;
#X obj 238 419 - 4;
#X msg 224 475 1 2 \, 0 2 \$1;
#X text 313 452 fade in \, fade out 2 msecs at beginning and end,
f 22;
#X connect 1 0 16 0;
#X connect 2 0 5 0;
#X connect 2 0 17 2;
#X connect 3 0 4 0;
#X connect 4 0 13 0;
#X connect 5 0 8 1;
#X connect 5 0 19 0;
#X connect 6 0 7 0;
#X connect 7 0 10 0;
#X connect 8 0 3 0;
#X connect 9 0 8 0;
#X connect 9 1 11 0;
#X connect 9 1 14 0;
#X connect 10 0 8 0;
#X connect 11 0 3 0;
#X connect 12 0 13 1;
#X connect 13 0 0 0;
#X connect 14 0 20 0;
#X connect 15 0 12 0;
#X connect 16 0 9 0;
#X connect 16 0 17 0;
#X connect 16 1 17 1;
#X connect 18 0 5 0;
#X connect 19 0 14 1;
#X connect 20 0 12 0;
#X restore 235 411 pd play-loop;
#X connect 1 0 50 2;
#X connect 1 0 48 0;
#X connect 6 0 22 3;
#X connect 7 0 50 0;
#X connect 7 0 22 0;
#X connect 9 0 10 0;
#X connect 10 0 11 0;
#X connect 11 0 18 0;
#X connect 12 0 50 1;
#X connect 12 0 22 1;
#X connect 12 0 46 1;
#X connect 14 0 16 0;
#X connect 14 0 17 0;
#X connect 17 0 11 0;
#X connect 17 1 18 1;
#X connect 18 0 12 0;
#X connect 19 0 20 0;
#X connect 20 0 22 2;
#X connect 20 0 46 2;
#X connect 22 0 1 0;
#X connect 23 0 11 0;
#X connect 25 0 24 0;
#X connect 26 0 27 0;
#X connect 30 0 31 0;
#X connect 31 0 40 1;
#X connect 40 0 3 0;
#X connect 40 1 39 0;
#X connect 41 0 40 0;
#X connect 42 0 43 0;
#X connect 42 0 44 0;
#X connect 43 0 29 0;
#X connect 44 0 28 0;
#X connect 45 0 12 0;
#X connect 47 0 46 0;
#X connect 49 0 1 0;
#X connect 50 0 41 0;
#X coords 0 -1 1 1 140 20 2 73 302;
