#N canvas 741 178 928 558 10;
#X obj 71 118 inlet~;
#X obj 161 118 inlet~;
#X obj 251 118 inlet~;
#X obj 341 118 inlet~;
#X obj 116 118 inlet~;
#X obj 206 118 inlet~;
#X obj 296 118 inlet~;
#X obj 386 118 inlet~;
#X obj 455 117 inlet~;
#X obj 545 117 inlet~;
#X obj 635 117 inlet~;
#X obj 725 117 inlet~;
#X obj 500 117 inlet~;
#X obj 590 117 inlet~;
#X obj 680 117 inlet~;
#X obj 770 117 inlet~;
#X obj 425 430 outlet~;
#X obj 481 430 outlet~;
#X obj 337 242 ../routing/routing_stereo_8ch;
#X obj 337 269 ../analyse/peak_meter;
#X obj 423 363 pd_outlet;
#X obj 419 286 ../effects/limiter_zexy;
#X connect 0 0 18 0;
#X connect 1 0 18 2;
#X connect 2 0 18 4;
#X connect 3 0 18 6;
#X connect 4 0 18 1;
#X connect 5 0 18 3;
#X connect 6 0 18 5;
#X connect 7 0 18 7;
#X connect 8 0 18 8;
#X connect 9 0 18 10;
#X connect 10 0 18 12;
#X connect 11 0 18 14;
#X connect 12 0 18 9;
#X connect 13 0 18 11;
#X connect 14 0 18 13;
#X connect 15 0 18 15;
#X connect 18 0 21 0;
#X connect 18 1 21 1;
#X connect 21 0 16 0;
#X connect 21 0 20 0;
#X connect 21 0 19 0;
#X connect 21 1 17 0;
#X connect 21 1 20 1;
#X connect 21 1 19 1;
#X coords 0 -1 1 1 217 164 2 337 242;
