#N canvas 790 72 571 762 10;
#X obj 100 117 loops/metronom;
#X obj 100 548 tools/out;
#N canvas 671 51 667 657 line 0;
#X obj 141 36 inlet sync;
#X obj 319 36 inlet tempo;
#X obj 247 297 sampler/one-sample;
#X obj 247 142 r \$0-sync;
#X obj 141 58 s \$0-sync;
#X obj 319 58 s \$0-tempo;
#X obj 247 541 outlet~;
#X obj 527 34 inlet latency;
#X floatatom 527 56 5 0 0 0 - - -, f 5;
#X obj 527 77 s \$0-latency;
#X obj 247 320 sampler/one-sample;
#X obj 247 343 sampler/one-sample;
#X obj 247 366 sampler/one-sample;
#X obj 247 389 sampler/one-sample;
#X obj 247 412 sampler/one-sample;
#X obj 247 435 sampler/one-sample;
#X obj 247 458 sampler/one-sample;
#X obj 466 304 s \$0-start-all;
#X obj 250 255 bng 15 250 50 0 empty empty Play 0 -8 0 10 -262144 -1
-1;
#X obj 285 255 bng 15 250 50 0 empty empty Stop 0 -8 0 10 -262144 -1
-1;
#X obj 273 164 r \$0-start-all;
#X msg 475 253 0;
#X msg 466 276 1;
#X obj 338 255 nbx 2 14 -1e+037 1e+037 0 1 empty empty Beats 0 -8 0
10 -262144 -1 -1 4 256 0;
#X obj 380 210 r \$0-latency;
#X obj 325 187 r \$0-tempo;
#X obj 380 541 outlet~;
#X text 281 279 Pos;
#X text 300 279 Vol;
#X text 320 279 Pan;
#X text 340 279 Beat;
#X text 367 279 Ch;
#X text 266 279 Pl;
#X text 246 279 Rec;
#X connect 0 0 4 0;
#X connect 1 0 5 0;
#X connect 2 0 6 0;
#X connect 2 1 26 0;
#X connect 3 0 2 0;
#X connect 3 0 10 0;
#X connect 3 0 15 0;
#X connect 3 0 14 0;
#X connect 3 0 13 0;
#X connect 3 0 12 0;
#X connect 3 0 11 0;
#X connect 3 0 16 0;
#X connect 7 0 8 0;
#X connect 8 0 9 0;
#X connect 10 0 6 0;
#X connect 10 1 26 0;
#X connect 11 0 6 0;
#X connect 11 1 26 0;
#X connect 12 0 6 0;
#X connect 12 1 26 0;
#X connect 13 0 6 0;
#X connect 13 1 26 0;
#X connect 14 0 6 0;
#X connect 14 1 26 0;
#X connect 15 0 6 0;
#X connect 15 1 26 0;
#X connect 16 0 6 0;
#X connect 16 1 26 0;
#X connect 18 0 22 0;
#X connect 19 0 21 0;
#X connect 20 0 2 1;
#X connect 20 0 10 1;
#X connect 20 0 15 1;
#X connect 20 0 14 1;
#X connect 20 0 13 1;
#X connect 20 0 12 1;
#X connect 20 0 11 1;
#X connect 20 0 16 1;
#X connect 21 0 17 0;
#X connect 22 0 17 0;
#X connect 23 0 2 2;
#X connect 23 0 16 2;
#X connect 23 0 15 2;
#X connect 23 0 14 2;
#X connect 23 0 13 2;
#X connect 23 0 12 2;
#X connect 23 0 11 2;
#X connect 23 0 10 2;
#X connect 24 0 2 5;
#X connect 24 0 16 5;
#X connect 24 0 15 5;
#X connect 24 0 14 5;
#X connect 24 0 13 5;
#X connect 24 0 12 5;
#X connect 24 0 11 5;
#X connect 24 0 10 5;
#X connect 25 0 2 3;
#X connect 25 0 16 3;
#X connect 25 0 15 3;
#X connect 25 0 14 3;
#X connect 25 0 13 3;
#X connect 25 0 12 3;
#X connect 25 0 11 3;
#X connect 25 0 10 3;
#X coords 0 -1 1 1 150 252 2 242 237;
#X restore 100 253 pd line;
#X obj 100 81 pipe 10;
#X obj 308 177 analyse/latency-tester;
#X floatatom 308 199 5 0 0 0 samples - -, f 5;
#X floatatom 437 202 8 0 0 0 ms - -, f 8;
#X obj 100 60 nbx 5 14 -1e+037 1e+037 0 1 empty empty empty 0 -8 0
10 -262144 -1 -1 92 256 0;
#X obj 308 154 bng 15 250 50 0 empty empty test_again 17 7 0 10 -262144
-1 -1;
#X msg 437 155 440;
#X text 467 153 custom latency;
#X connect 0 1 2 0;
#X connect 0 2 2 1;
#X connect 2 0 1 0;
#X connect 2 1 1 1;
#X connect 3 0 0 0;
#X connect 4 0 5 0;
#X connect 4 1 6 0;
#X connect 5 0 2 2;
#X connect 7 0 3 0;
#X connect 8 0 4 0;
#X connect 9 0 4 1;
