#N canvas 1450 201 317 288 10;
#X obj 106 145 until;
#X obj 106 167 f;
#X obj 137 167 + 1;
#X msg 72 126 0;
#X obj 84 36 inlet;
#X obj 106 189 outlet;
#X obj 83 87 t b f b;
#X obj 195 188 outlet;
#X obj 84 58 - 1;
#X connect 0 0 1 0;
#X connect 1 0 2 0;
#X connect 1 0 5 0;
#X connect 2 0 1 1;
#X connect 3 0 1 0;
#X connect 4 0 8 0;
#X connect 6 0 7 0;
#X connect 6 1 0 0;
#X connect 6 2 3 0;
#X connect 8 0 6 0;
