#N struct text float x float y text t;
#N struct 1642-hlines float x float y float w;
#N struct 1642-one_line1 float x float y float nr float w float h;
#N struct 1642-one_line0 float x float y float nr float w float h;
#N struct 1796-element float x float y float h float w;
#N struct 1795-element float x float y float h float w;
#N struct 1794-element float x float y float h float w;
#N struct 1793-element float x float y float h float w;
#N struct 1792-element float x float y float h float w;
#N struct 1791-element float x float y float h float w;
#N struct 1790-element float x float y float h float w;
#N struct 1789-element float x float y float h float w;
#N struct 1788-element float x float y float h float w;
#N struct 1787-element float x float y float h float w;
#N struct 1786-element float x float y float h float w;
#N struct 1785-element float x float y float h float w;
#N struct 1784-element float x float y float h float w;
#N struct 1783-element float x float y float h float w;
#N struct 1782-element float x float y float h float w;
#N struct 1781-element float x float y float h float w;
#N struct 1780-element float x float y float h float w;
#N struct 1779-element float x float y float h float w;
#N struct 1778-element float x float y float h float w;
#N struct 1777-element float x float y float h float w;
#N struct 1776-element float x float y float h float w;
#N struct 1775-element float x float y float h float w;
#N struct 1774-element float x float y float h float w;
#N struct 1773-element float x float y float h float w;
#N struct 1772-element float x float y float h float w;
#N struct 1771-element float x float y float h float w;
#N struct 1770-element float x float y float h float w;
#N struct 1769-element float x float y float h float w;
#N struct 1768-element float x float y float h float w;
#N struct 1767-element float x float y float h float w;
#N struct 1766-element float x float y float h float w;
#N struct 1765-element float x float y float h float w;
#N struct 1764-element float x float y float h float w;
#N struct 1763-element float x float y float h float w;
#N struct 1762-element float x float y float h float w;
#N struct 1761-element float x float y float h float w;
#N struct 1760-element float x float y float h float w;
#N struct 1759-element float x float y float h float w;
#N struct 1758-element float x float y float h float w;
#N struct 1757-element float x float y float h float w;
#N struct 1756-element float x float y float h float w;
#N struct 1755-element float x float y float h float w;
#N struct 1754-element float x float y float h float w;
#N struct 1753-element float x float y float h float w;
#N struct 1752-element float x float y float h float w;
#N struct 1751-element float x float y float h float w;
#N struct 1750-element float x float y float h float w;
#N struct 1749-element float x float y float h float w;
#N struct 1748-element float x float y float h float w;
#N struct 1747-element float x float y float h float w;
#N struct 1746-element float x float y float h float w;
#N struct 1745-element float x float y float h float w;
#N struct 1744-element float x float y float h float w;
#N struct 1743-element float x float y float h float w;
#N struct 1742-element float x float y float h float w;
#N struct 1741-element float x float y float h float w;
#N struct 1740-element float x float y float h float w;
#N struct 1739-element float x float y float h float w;
#N struct 1738-element float x float y float h float w;
#N struct 1737-element float x float y float h float w;
#N struct 1736-element float x float y float h float w;
#N struct 1735-element float x float y float h float w;
#N struct 1734-element float x float y float h float w;
#N struct 1733-element float x float y float h float w;
#N struct 1732-element float x float y float h float w;
#N struct 1731-element float x float y float h float w;
#N struct 1730-element float x float y float h float w;
#N struct 1729-element float x float y float h float w;
#N struct 1728-element float x float y float h float w;
#N struct 1727-element float x float y float h float w;
#N struct 1726-element float x float y float h float w;
#N struct 1725-element float x float y float h float w;
#N struct 1724-element float x float y float h float w;
#N struct 1723-element float x float y float h float w;
#N struct 1722-element float x float y float h float w;
#N struct 1721-element float x float y float h float w;
#N struct 1720-element float x float y float h float w;
#N struct 1719-element float x float y float h float w;
#N struct 1718-element float x float y float h float w;
#N struct 1717-element float x float y float h float w;
#N struct 1716-element float x float y float h float w;
#N struct 1715-element float x float y float h float w;
#N struct 1714-element float x float y float h float w;
#N struct 1713-element float x float y float h float w;
#N struct 1712-element float x float y float h float w;
#N struct 1711-element float x float y float h float w;
#N struct 1710-element float x float y float h float w;
#N struct 1709-element float x float y float h float w;
#N struct 1708-element float x float y float h float w;
#N struct 1707-element float x float y float h float w;
#N struct 1706-element float x float y float h float w;
#N struct 1705-element float x float y float h float w;
#N struct 1704-element float x float y float h float w;
#N struct 1703-element float x float y float h float w;
#N struct 1702-element float x float y float h float w;
#N struct 1701-element float x float y float h float w;
#N struct 1700-element float x float y float h float w;
#N struct 1699-element float x float y float h float w;
#N struct 1698-element float x float y float h float w;
#N struct 1697-element float x float y float h float w;
#N struct 1696-element float x float y float h float w;
#N struct 1695-element float x float y float h float w;
#N struct 1694-element float x float y float h float w;
#N struct 1693-element float x float y float h float w;
#N struct 1692-element float x float y float h float w;
#N struct 1691-element float x float y float h float w;
#N struct 1690-element float x float y float h float w;
#N struct 1689-element float x float y float h float w;
#N struct 1688-element float x float y float h float w;
#N struct 1687-element float x float y float h float w;
#N struct 1686-element float x float y float h float w;
#N struct 1685-element float x float y float h float w;
#N struct 1684-element float x float y float h float w;
#N struct 1683-element float x float y float h float w;
#N struct 1682-element float x float y float h float w;
#N struct 1681-element float x float y float h float w;
#N struct 1680-element float x float y float h float w;
#N struct 1679-element float x float y float h float w;
#N struct 1678-element float x float y float h float w;
#N struct 1677-element float x float y float h float w;
#N struct 1676-element float x float y float h float w;
#N struct 1675-element float x float y float h float w;
#N struct 1674-element float x float y float h float w;
#N struct 1673-element float x float y float h float w;
#N struct 1672-element float x float y float h float w;
#N struct 1671-element float x float y float h float w;
#N struct 1670-element float x float y float h float w;
#N struct 1669-element float x float y float h float w;
#N struct 1668-element float x float y float h float w;
#N struct 1667-element float x float y float h float w;
#N struct 1666-element float x float y float h float w;
#N struct 1665-element float x float y float h float w;
#N struct 1664-element float x float y float h float w;
#N struct 1663-element float x float y float h float w;
#N struct 1662-element float x float y float h float w;
#N struct 1661-element float x float y float h float w;
#N struct 1660-element float x float y float h float w;
#N struct 1659-element float x float y float h float w;
#N struct 1658-element float x float y float h float w;
#N struct 1657-element float x float y float h float w;
#N struct 1656-element float x float y float h float w;
#N struct 1655-element float x float y float h float w;
#N struct 1654-element float x float y float h float w;
#N struct 1653-element float x float y float h float w;
#N struct 1652-element float x float y float h float w;
#N struct 1651-element float x float y float h float w;
#N struct 1650-element float x float y float h float w;
#N struct 1649-element float x float y float h float w;
#N struct 1648-element float x float y float h float w;
#N struct 1647-element float x float y float h float w;
#N struct 1646-element float x float y float h float w;
#N struct 1645-element float x float y float h float w;
#N struct 1644-element float x float y float h float w;
#N struct 1643-element float x float y float h float w;
#N struct 2144-col_0 float x float y float col;
#N struct 2146-col_0 float x float y float col;
#N struct 2148-col_0 float x float y float col;
#N struct 2150-col_0 float x float y float col;
#N struct 2152-col_0 float x float y float col;
#N struct 2154-col_0 float x float y float col;
#N struct 2156-col_0 float x float y float col;
#N struct 2158-col_0 float x float y float col;
#N struct 2160-col_0 float x float y float col;
#N struct 2162-col_0 float x float y float col;
#N struct 2164-col_0 float x float y float col;
#N struct 2166-col_0 float x float y float col;
#N struct 2168-col_0 float x float y float col;
#N struct 2170-col_0 float x float y float col;
#N struct 2172-col_0 float x float y float col;
#N struct 2174-col_0 float x float y float col;
#N struct 2176-col_0 float x float y float col;
#N struct 2178-col_0 float x float y float col;
#N struct 2180-col_0 float x float y float col;
#N struct 2182-col_0 float x float y float col;
#N canvas 434 211 482 601 10;
#N canvas 852 174 743 511 manager 0;
#X obj 95 407 outlet to_gui;
#X obj 421 407 outlet to_memory;
#X obj 237 407 outlet to_player;
#X msg 89 257 init;
#X msg 130 257 show_seq;
#X msg 421 247 save;
#X msg 237 177 load;
#X obj 237 199 t b a b;
#X msg 237 244 sort;
#X msg 276 244 clear;
#X obj 547 407 outlet to_pointer;
#X obj 162 102 tgl 13 0 empty empty pointer 17 7 0 10 -262144 -1 -1
0 1;
#X obj 232 76 bng 13 250 50 0 empty empty load 17 7 0 10 -262144 -1
-1;
#X obj 232 89 bng 13 250 50 0 empty empty save 17 7 0 10 -262144 -1
-1;
#X obj 162 76 bng 13 250 50 0 empty empty init_seq 17 7 0 10 -262144
-1 -1;
#X obj 162 89 bng 13 250 50 0 empty empty open_gui 17 7 0 10 -262144
-1 -1;
#X msg 421 191 pre_name \$1;
#X symbolatom 232 105 10 0 0 0 - - -, f 10;
#X obj 378 66 loadbang;
#X obj 421 360 t a;
#X obj 455 39 inlet pre_name;
#X obj 455 63 symbol;
#X obj 564 39 inlet load;
#X msg 378 93 symbol perc;
#X obj 519 102 route init prename load;
#X connect 3 0 0 0;
#X connect 4 0 0 0;
#X connect 5 0 19 0;
#X connect 6 0 7 0;
#X connect 7 0 8 0;
#X connect 7 1 19 0;
#X connect 7 2 9 0;
#X connect 8 0 2 0;
#X connect 9 0 2 0;
#X connect 9 0 0 0;
#X connect 9 0 19 0;
#X connect 11 0 10 0;
#X connect 12 0 6 0;
#X connect 13 0 5 0;
#X connect 14 0 3 0;
#X connect 15 0 4 0;
#X connect 16 0 19 0;
#X connect 17 0 16 0;
#X connect 18 0 23 0;
#X connect 19 0 1 0;
#X connect 20 0 21 0;
#X connect 21 0 17 0;
#X connect 22 0 24 0;
#X connect 23 0 17 0;
#X connect 24 0 14 0;
#X connect 24 1 21 0;
#X connect 24 2 12 0;
#X coords 0 -1 1 1 138 65 1 159 58;
#X restore 77 99 pd manager;
#X obj 53 545 tools/pd_outlet;
#N canvas 964 158 709 693 metronome 0;
#X obj 101 101 cnv 15 230 28 empty empty empty 20 12 0 14 -2293 -66577
0;
#X obj 149 113 tgl 15 0 \$0-start empty on 0 -8 0 10 -262144 -1 -1
1 1;
#X obj 105 112 bng 15 150 15 0 empty \$0-metro_tick empty 17 7 0 10
-2292 -186725 -262144;
#X floatatom 125 112 3 0 0 0 - #0-beat_nr -, f 3;
#X obj 168 113 bng 15 250 50 0 empty empty tap 0 -8 0 10 -262144 -1
-1;
#X obj 312 113 tgl 15 0 empty empty snd 0 -8 0 10 -262144 -1 -1 0 1
;
#X obj 106 42 inlet metro_start_and_tempo;
#X obj 291 42 inlet tempo;
#X obj 363 41 inlet beats;
#X obj 149 257 metro;
#X obj 149 208 tgl 15 0 empty empty empty 17 7 0 10 -262144 -1 -1 1
1;
#X floatatom 399 166 5 0 0 0 - - -, f 5;
#X obj 399 184 expr 60000 / $f1;
#X obj 149 279 bng 15 50 50 0 empty empty empty 17 7 0 10 -262144 -1
-1;
#X floatatom 525 120 5 0 0 0 - - -, f 5;
#X obj 525 98 expr 1 / $f1 * 60000;
#X msg 399 260 set \$1;
#X obj 149 436 pack 0 f f f f;
#X obj 149 301 t b b;
#X obj 254 329 f;
#X obj 283 330 + 1;
#X obj 149 228 t f f 0;
#X floatatom 254 349 5 0 0 0 - - -, f 5;
#X obj 254 368 %;
#X floatatom 254 388 5 0 0 0 - - -, f 5;
#X obj 395 470 del 1;
#X obj 395 449 t b;
#X msg 395 491 update -1;
#N canvas 2575 324 748 561 beeps 0;
#X obj 57 41 inlet notes;
#N canvas 172 286 622 516 metro_beep 0;
#X obj 303 114 bng 15 50 20 0 empty empty empty 17 7 0 10 -262144 -1
-1;
#X obj 303 226 line~;
#X msg 303 138 1 1;
#X msg 303 204 0 1;
#X obj 288 251 *~;
#X obj 215 339 *~;
#X obj 340 328 sig~;
#X obj 215 361 dac~;
#X floatatom 339 159 5 0 0 0 - - -, f 5;
#X obj 380 300 hsl 128 15 0 1 0 0 empty empty empty -2 -8 0 10 -262144
-1 -1 635 1;
#X floatatom 415 343 5 0 0 0 - - -, f 5;
#X obj 242 181 osc~ 330;
#X obj 303 182 delay;
#X obj 303 160 t b;
#X obj 164 227 line~;
#X msg 164 139 1 1;
#X msg 164 205 0 1;
#X obj 149 252 *~;
#X floatatom 200 160 5 0 0 0 - - -, f 5;
#X obj 164 183 delay;
#X obj 164 161 t b;
#X obj 215 287 +~;
#X obj 163 114 bng 15 50 20 0 empty empty empty 17 7 0 10 -262144 -1
-1;
#X obj 103 181 osc~ 440;
#X floatatom 345 72 5 0 0 0 - - -, f 5;
#X obj 346 47 nbx 5 14 -1e+037 1e+037 0 1 empty empty empty 0 -8 0
10 -262144 -1 -1 50 256 0;
#X obj 153 21 inlet;
#X obj 163 62 sel 0;
#X floatatom 475 280 5 0 0 0 - - -, f 5;
#X obj 475 27 inlet;
#X obj 407 26 inlet vol;
#X obj 485 358 + 100;
#X connect 0 0 2 0;
#X connect 1 0 4 1;
#X connect 2 0 1 0;
#X connect 2 0 13 0;
#X connect 3 0 1 0;
#X connect 4 0 21 1;
#X connect 5 0 7 0;
#X connect 6 0 5 1;
#X connect 8 0 12 1;
#X connect 9 0 6 0;
#X connect 9 0 10 0;
#X connect 11 0 4 0;
#X connect 12 0 3 0;
#X connect 13 0 12 0;
#X connect 14 0 17 1;
#X connect 15 0 14 0;
#X connect 15 0 20 0;
#X connect 16 0 14 0;
#X connect 17 0 21 0;
#X connect 18 0 19 1;
#X connect 19 0 16 0;
#X connect 20 0 19 0;
#X connect 21 0 5 0;
#X connect 22 0 15 0;
#X connect 23 0 17 0;
#X connect 24 0 18 0;
#X connect 24 0 8 0;
#X connect 25 0 24 0;
#X connect 26 0 27 0;
#X connect 27 0 22 0;
#X connect 27 1 0 0;
#X connect 28 0 11 0;
#X connect 28 0 31 0;
#X connect 29 0 28 0;
#X connect 30 0 9 0;
#X connect 31 0 23 0;
#X coords 0 -1 1 1 140 41 1 377 277;
#X restore 57 149 pd metro_beep;
#X obj 189 102 bng 15 250 50 0 empty empty empty 17 7 0 10 -262144
-1 -1;
#X obj 139 61 loadbang;
#X obj 280 72 tgl 15 0 empty empty empty 17 7 0 10 -262144 -1 -1 0
1;
#X obj 298 94 switch~;
#X msg 190 122 440;
#X obj 243 24 inlet on;
#X msg 57 92 \$2;
#X msg 123 119 0.05;
#X obj 275 225 t b b;
#X obj 274 275 nbx 8 19 -1e+037 1e+037 0 0 empty empty empty 0 -8 0
15 -262144 -1 -1 0 256 0;
#X obj 273 248 realtime;
#X obj 316 338 f;
#X obj 276 307 t f f b;
#X obj 302 364 -;
#X floatatom 304 443 17 0 0 0 - - -, f 17;
#X obj 302 386 int;
#X obj 275 202 spigot;
#X obj 310 177 tgl 15 0 empty empty empty 17 7 0 10 -262144 -1 -1 0
1;
#X connect 0 0 8 0;
#X connect 2 0 6 0;
#X connect 3 0 9 0;
#X connect 3 0 2 0;
#X connect 4 0 5 0;
#X connect 6 0 1 2;
#X connect 7 0 4 0;
#X connect 8 0 1 0;
#X connect 8 0 18 0;
#X connect 9 0 1 1;
#X connect 10 0 12 0;
#X connect 10 1 12 1;
#X connect 11 0 14 0;
#X connect 12 0 11 0;
#X connect 13 0 15 1;
#X connect 14 0 13 1;
#X connect 14 1 15 0;
#X connect 14 2 13 0;
#X connect 15 0 17 0;
#X connect 17 0 16 0;
#X connect 18 0 10 0;
#X connect 19 0 18 1;
#X coords 0 -1 1 1 92 38 1 274 53;
#X restore 242 492 pd beeps;
#X msg 241 468 \$2 \$3;
#X obj 396 539 outlet info;
#X obj 278 113 nbx 2 15 1 50 0 1 empty empty beats 0 -8 0 10 -262144
-1 -1 4 256 0;
#N canvas 198 450 550 461 tap 0;
#X obj 216 87 t b b;
#X obj 216 129 nbx 8 19 -1e+037 1e+037 0 0 empty empty empty 0 -8 0
15 -262144 -1 -1 0 256 0;
#X obj 216 108 realtime;
#X floatatom 216 194 5 0 0 0 - - -, f 5;
#X obj 216 152 expr 1 / $f1 * 60000;
#X obj 216 173 int;
#X obj 216 221 t 1 f;
#X obj 215 55 inlet;
#X obj 215 285 outlet;
#X obj 264 286 outlet;
#X connect 0 0 2 0;
#X connect 0 1 2 1;
#X connect 1 0 4 0;
#X connect 2 0 1 0;
#X connect 3 0 6 0;
#X connect 4 0 5 0;
#X connect 5 0 3 0;
#X connect 6 0 8 0;
#X connect 6 1 9 0;
#X connect 7 0 0 0;
#X restore 168 144 pd tap;
#X obj 194 113 nbx 3 15 1 500 0 1 empty empty bpm 0 -8 0 10 -262144
-1 -1 80 256 0;
#X obj 231 113 nbx 4 15 1 10000 0 0 empty empty ms 0 -8 0 10 -262144
-1 -1 750 256 0;
#X obj 463 366 s \$0-beat_nr;
#X obj 548 251 s \$0-metro_tick;
#N canvas 303 135 410 324 colors 0;
#X obj 68 207 s \$0-metro_tick;
#X msg 69 179 color \$1 \$2 0;
#X msg 132 120 -101584;
#X obj 132 147 pack f f;
#X obj 132 93 t b b;
#X obj 132 72 bng 15 250 50 0 empty empty empty 17 7 0 10 -262144 -1
-1;
#X msg 185 122 -1.19661e+007;
#X obj 134 52 loadbang;
#X connect 1 0 0 0;
#X connect 2 0 3 0;
#X connect 3 0 1 0;
#X connect 4 0 2 0;
#X connect 4 1 6 0;
#X connect 5 0 4 0;
#X connect 6 0 3 1;
#X connect 7 0 5 0;
#X restore 548 284 pd colors;
#X obj 548 229 r \$0-beat_nr;
#X msg 149 497 \$3 \$2 \$4 \$5;
#X obj 149 541 outlet beat_nr-ms-on-amount_beats;
#X obj 85 247 sel 0;
#X obj 85 292 t b 0;
#X msg 234 197;
#X obj 399 241 int;
#X obj 399 203 t b f;
#X obj 399 222 del 100;
#X connect 1 0 10 0;
#X connect 4 0 32 0;
#X connect 5 0 28 1;
#X connect 9 0 13 0;
#X connect 10 0 41 0;
#X connect 10 0 21 0;
#X connect 11 0 12 0;
#X connect 12 0 45 0;
#X connect 13 0 18 0;
#X connect 14 0 34 0;
#X connect 15 0 14 0;
#X connect 16 0 33 0;
#X connect 17 0 29 0;
#X connect 17 0 39 0;
#X connect 18 0 17 0;
#X connect 18 1 19 0;
#X connect 19 0 20 0;
#X connect 19 0 22 0;
#X connect 20 0 19 1;
#X connect 21 0 9 0;
#X connect 21 1 17 3;
#X connect 21 2 19 1;
#X connect 22 0 23 0;
#X connect 23 0 24 0;
#X connect 24 0 17 2;
#X connect 24 0 35 0;
#X connect 25 0 27 0;
#X connect 26 0 25 0;
#X connect 27 0 30 0;
#X connect 29 0 28 0;
#X connect 31 0 17 4;
#X connect 31 0 23 1;
#X connect 32 0 10 0;
#X connect 32 1 33 0;
#X connect 33 0 26 0;
#X connect 33 0 15 0;
#X connect 34 0 17 1;
#X connect 34 0 9 1;
#X connect 34 0 11 0;
#X connect 38 0 36 0;
#X connect 39 0 40 0;
#X connect 41 0 42 0;
#X connect 42 0 17 0;
#X connect 42 1 17 3;
#X connect 44 0 16 0;
#X connect 45 0 46 0;
#X connect 45 1 44 1;
#X connect 46 0 44 0;
#X coords 0 -1 1 1 232 30 1 100 100;
#X restore 53 11 pd metronome;
#X msg 193 82 cm_chords;
#N canvas 1259 493 546 428 val2midi 0;
#X obj 88 53 t a a;
#X msg 89 151 \$1;
#X obj 89 172 +;
#X floatatom 304 78 5 0 100 0 midi+ - -, f 5;
#X msg 134 190 \$3;
#X obj 89 234 pack f f;
#X obj 89 294 t a;
#X obj 87 24 inlet;
#X obj 89 321 outlet;
#X obj 383 54 loadbang;
#X msg 383 76 56;
#X msg 256 117 \$1 \$2;
#X obj 256 201 pipe;
#X obj 309 240 mtof;
#X floatatom 309 261 7 0 0 0 - - -, f 7;
#X obj 255 223 +;
#X obj 255 286 pack f 0;
#X obj 256 139 unpack f f;
#X floatatom 323 199 8 0 0 0 - - -, f 8;
#X obj 290 172 - 2;
#X connect 0 0 1 0;
#X connect 0 1 4 0;
#X connect 0 1 11 0;
#X connect 1 0 2 0;
#X connect 2 0 5 0;
#X connect 3 0 2 1;
#X connect 3 0 15 1;
#X connect 4 0 5 1;
#X connect 5 0 6 0;
#X connect 6 0 8 0;
#X connect 7 0 0 0;
#X connect 9 0 10 0;
#X connect 10 0 3 0;
#X connect 11 0 17 0;
#X connect 12 0 15 0;
#X connect 13 0 14 0;
#X connect 15 0 13 0;
#X connect 15 0 16 0;
#X connect 16 0 6 0;
#X connect 17 0 12 0;
#X connect 17 1 19 0;
#X connect 19 0 12 1;
#X connect 19 0 18 0;
#X coords 0 -1 1 1 83 39 1 259 58;
#X restore 53 184 pd val2midi;
#X obj 53 230 instr/tri_ops_v2/tri_ops_v2;
#X obj 53 164 sequencer;
#N canvas 1090 460 377 458 remote 0;
#X obj 59 144 f;
#X obj 85 144 + 1;
#X floatatom 59 166 5 0 0 0 - - -, f 5;
#X obj 59 124 bng 15 250 50 0 empty empty empty 17 7 0 10 -262144 -1
-1;
#X obj 59 103 route 0;
#X msg 112 120 0;
#X obj 59 258 t b b;
#X obj 99 258 t b b;
#X obj 59 187 % 4;
#X floatatom 93 203 5 0 0 0 - - -, f 5;
#X obj 59 226 sel 0 2;
#X obj 59 5 inlet;
#X obj 43 350 outlet pre_name;
#X obj 204 349 outlet load;
#X obj 60 79 spigot;
#X obj 171 54 tgl 15 0 empty empty on 17 7 0 10 -262144 -1 -1 0 1;
#X obj 212 54 bng 15 250 50 0 empty empty reset 17 7 0 10 -262144 -1
-1;
#X msg 80 288 cm_chords;
#X msg 127 287 cm_chords2;
#X connect 0 0 1 0;
#X connect 0 0 2 0;
#X connect 1 0 0 1;
#X connect 2 0 8 0;
#X connect 3 0 0 0;
#X connect 4 0 3 0;
#X connect 5 0 0 1;
#X connect 6 0 13 0;
#X connect 6 1 17 0;
#X connect 7 0 13 0;
#X connect 7 1 18 0;
#X connect 8 0 9 0;
#X connect 8 0 10 0;
#X connect 10 0 6 0;
#X connect 10 1 7 0;
#X connect 11 0 14 0;
#X connect 14 0 4 0;
#X connect 15 0 14 1;
#X connect 16 0 5 0;
#X connect 17 0 12 0;
#X connect 18 0 12 0;
#X coords 0 -1 1 1 98 35 1 168 36;
#X restore 80 64 pd remote;
#X obj 53 44 t a a;
#X obj 313 21 loadbang;
#X obj 280 180 loadbang;
#X msg 279 201 voices 3;
#N canvas 790 95 917 552 reverb 0;
#X obj 518 224 cnv 15 96 103 empty empty empty 20 12 0 14 -199729 -66577
0;
#X obj 186 236 rev3~ 112 74 3000 80;
#X obj 523 39 inlet;
#X obj 523 61 route lvl live cross damp on;
#X obj 655 98 sel 0 1;
#X obj 655 120 del 20;
#X msg 655 142 0;
#X obj 647 209 switch~;
#X msg 688 140 1;
#X msg 403 105 74;
#X msg 337 105 80;
#X msg 367 105 3000;
#X obj 337 48 loadbang;
#X obj 337 70 bng 15 250 50 0 empty empty empty 17 7 0 10 -262144 -1
-1;
#X obj 84 27 inlet~;
#X obj 602 225 tgl 10 0 empty empty empty 17 7 0 10 -262144 -1 -1 1
1;
#X obj 84 506 outlet~;
#X floatatom 319 292 5 0 0 0 - - -, f 5;
#X obj 84 459 *~;
#X floatatom 319 335 5 0 0 0 - - -, f 5;
#X obj 182 462 *~;
#X obj 319 313 expr 1 - $f1;
#X obj 197 440 line~;
#X msg 197 419 \$1 20;
#X obj 100 437 line~;
#X msg 101 415 \$1 20;
#X msg 198 380 0;
#X msg 102 382 1;
#X obj 102 320 loadbang;
#X obj 523 237 hsl 80 8 0 100 0 0 empty empty mix\ 20 2 -8 1 10 -99865
-260097 -1 1600 1;
#X obj 523 256 hsl 80 8 0 120 0 0 empty empty lvl\ 100 2 -8 1 10 -99865
-260097 -1 6583 1;
#X obj 523 275 hsl 80 8 0 98 0 0 empty empty live\ 74 2 -8 1 10 -99865
-260097 -1 5965 1;
#X obj 523 294 hsl 80 8 160 16000 1 0 empty empty cross\ 2999 2 -8
1 10 -99865 -260097 -1 5028 1;
#X obj 523 313 hsl 80 8 0 100 0 0 empty empty damp\ 80 2 -8 1 10 -99865
-260097 -1 6320 1;
#X obj 319 272 / 100;
#X obj 720 236 l2s;
#X msg 670 236 mix \$1;
#X msg 749 236 label \$1;
#X obj 645 236 int;
#X obj 719 260 l2s;
#X msg 748 260 label \$1;
#X obj 644 260 int;
#X msg 669 260 lvl \$1;
#X obj 720 286 l2s;
#X msg 749 286 label \$1;
#X obj 645 286 int;
#X msg 670 286 live \$1;
#X obj 720 311 l2s;
#X msg 749 311 label \$1;
#X obj 645 311 int;
#X msg 670 311 cross \$1;
#X obj 721 336 l2s;
#X msg 750 336 label \$1;
#X obj 646 336 int;
#X msg 671 336 damp \$1;
#X msg 433 105 100;
#X connect 1 0 20 0;
#X connect 2 0 3 0;
#X connect 3 0 30 0;
#X connect 3 1 31 0;
#X connect 3 2 32 0;
#X connect 3 3 33 0;
#X connect 3 4 4 0;
#X connect 4 0 5 0;
#X connect 4 1 8 0;
#X connect 5 0 6 0;
#X connect 6 0 15 0;
#X connect 8 0 15 0;
#X connect 9 0 31 0;
#X connect 10 0 33 0;
#X connect 11 0 32 0;
#X connect 12 0 13 0;
#X connect 13 0 55 0;
#X connect 13 0 11 0;
#X connect 13 0 10 0;
#X connect 13 0 9 0;
#X connect 14 0 1 0;
#X connect 14 0 18 0;
#X connect 15 0 7 0;
#X connect 17 0 21 0;
#X connect 17 0 23 0;
#X connect 18 0 16 0;
#X connect 19 0 25 0;
#X connect 20 0 16 0;
#X connect 21 0 19 0;
#X connect 22 0 20 1;
#X connect 23 0 22 0;
#X connect 24 0 18 1;
#X connect 25 0 24 0;
#X connect 26 0 23 0;
#X connect 27 0 25 0;
#X connect 28 0 27 0;
#X connect 29 0 34 0;
#X connect 29 0 38 0;
#X connect 30 0 41 0;
#X connect 30 0 1 2;
#X connect 31 0 45 0;
#X connect 31 0 1 3;
#X connect 32 0 49 0;
#X connect 32 0 1 4;
#X connect 33 0 53 0;
#X connect 33 0 1 5;
#X connect 34 0 17 0;
#X connect 35 0 37 0;
#X connect 36 0 35 0;
#X connect 37 0 29 0;
#X connect 38 0 36 0;
#X connect 39 0 40 0;
#X connect 40 0 30 0;
#X connect 41 0 42 0;
#X connect 42 0 39 0;
#X connect 43 0 44 0;
#X connect 44 0 31 0;
#X connect 45 0 46 0;
#X connect 46 0 43 0;
#X connect 47 0 48 0;
#X connect 48 0 32 0;
#X connect 49 0 50 0;
#X connect 50 0 47 0;
#X connect 51 0 52 0;
#X connect 52 0 33 0;
#X connect 53 0 54 0;
#X connect 54 0 51 0;
#X connect 55 0 30 0;
#X coords 0 -1 1 1 98 105 2 517 223;
#X restore 53 430 pd reverb;
#X msg 212 200 preset 13;
#X msg 207 57 init \, prename tramp \, load;
#X msg 259 81 super;
#X connect 0 0 6 1;
#X connect 0 1 6 2;
#X connect 0 2 6 3;
#X connect 0 3 6 4;
#X connect 2 0 8 0;
#X connect 3 0 0 0;
#X connect 4 0 5 0;
#X connect 5 0 12 0;
#X connect 6 0 4 0;
#X connect 7 0 0 0;
#X connect 7 1 0 1;
#X connect 8 0 6 0;
#X connect 8 1 7 0;
#X connect 9 0 14 0;
#X connect 10 0 11 0;
#X connect 11 0 5 1;
#X connect 12 0 1 0;
#X connect 12 0 1 1;
#X connect 13 0 5 1;
#X connect 14 0 0 1;
#X connect 15 0 0 0;
