#N struct text float x float y text t;
#N struct 1043-hlines float x float y float w;
#N struct 1043-one_line1 float x float y float nr float w float h;
#N struct 1043-one_line0 float x float y float nr float w float h;
#N struct 1075-element float x float y float h float w;
#N struct 1074-element float x float y float h float w;
#N struct 1065-element float x float y float h float w;
#N struct 1064-element float x float y float h float w;
#N struct 1063-element float x float y float h float w;
#N struct 1062-element float x float y float h float w;
#N struct 1061-element float x float y float h float w;
#N struct 1060-element float x float y float h float w;
#N struct 1059-element float x float y float h float w;
#N struct 1058-element float x float y float h float w;
#N struct 1057-element float x float y float h float w;
#N struct 1056-element float x float y float h float w;
#N struct 1055-element float x float y float h float w;
#N struct 1054-element float x float y float h float w;
#N struct 1053-element float x float y float h float w;
#N struct 1052-element float x float y float h float w;
#N struct 1051-element float x float y float h float w;
#N struct 1050-element float x float y float h float w;
#N struct 1049-element float x float y float h float w;
#N struct 1048-element float x float y float h float w;
#N struct 1047-element float x float y float h float w;
#N struct 1046-element float x float y float h float w;
#N struct 1045-element float x float y float h float w;
#N struct 1044-element float x float y float h float w;
#N struct 1545-col_0 float x float y float col;
#N struct 1547-col_0 float x float y float col;
#N struct 1549-col_0 float x float y float col;
#N struct 1551-col_0 float x float y float col;
#N struct 1553-col_0 float x float y float col;
#N struct 1555-col_0 float x float y float col;
#N struct 1557-col_0 float x float y float col;
#N struct 1559-col_0 float x float y float col;
#N struct 1561-col_0 float x float y float col;
#N struct 1563-col_0 float x float y float col;
#N struct 1565-col_0 float x float y float col;
#N struct 1567-col_0 float x float y float col;
#N struct 1569-col_0 float x float y float col;
#N struct 1571-col_0 float x float y float col;
#N struct 1573-col_0 float x float y float col;
#N struct 1575-col_0 float x float y float col;
#N struct 1577-col_0 float x float y float col;
#N struct 1579-col_0 float x float y float col;
#N struct 1581-col_0 float x float y float col;
#N struct 1583-col_0 float x float y float col;
#N canvas 2041 55 469 409 10;
#N canvas 882 209 1001 615 beeps 0;
#X obj 65 24 inlet notes;
#X obj 323 186 bng 15 250 50 0 empty empty empty 17 7 0 10 -262144
-1 -1;
#X obj 285 157 loadbang;
#X obj 413 57 tgl 15 0 empty empty on 17 7 0 10 -262144 -1 -1 1 1;
#X obj 479 90 switch~;
#X obj 413 10 inlet on;
#X obj 279 78 hsl 80 9 0 0.1 0 1 empty empty vol 2 -8 0 10 -262144
-1 -1 2300 1;
#N canvas 536 255 741 752 scales 0;
#X msg 369 102 0 1 2 3 4 5 6 7 8 9 10 11 12 13 14 15 16 17 18 19 20
21 22 23 24 25 26 27 28 29 30 31 32 33 34 35;
#X obj 368 164 t l l;
#X obj 368 201 list length;
#X floatatom 368 223 5 0 0 0 - - -, f 5;
#X obj 368 244 t f b;
#X obj 368 266 until;
#X obj 368 288 f;
#X obj 395 287 + 1;
#X msg 409 265 0;
#X obj 421 356 list split;
#X obj 421 334 list;
#X msg 449 381 \$1;
#X floatatom 255 81 5 0 0 0 - - -, f 5;
#X obj 449 403 +;
#X floatatom 449 425 5 0 0 0 - - -, f 5;
#X obj 255 38 inlet basetone;
#X obj 254 151 f;
#X obj 255 102 t b f;
#X obj 254 126 del 50;
#X obj 254 173 t b f;
#X obj 368 463 pack f f;
#X obj 368 310 t f b f;
#X obj 368 518 outlet;
#X obj 374 37 inlet scale;
#X obj 374 59 t b a;
#X connect 0 0 1 0;
#X connect 1 0 2 0;
#X connect 1 1 10 1;
#X connect 2 0 3 0;
#X connect 3 0 4 0;
#X connect 4 0 5 0;
#X connect 4 1 8 0;
#X connect 5 0 6 0;
#X connect 6 0 7 0;
#X connect 6 0 21 0;
#X connect 7 0 6 1;
#X connect 8 0 6 1;
#X connect 9 1 11 0;
#X connect 10 0 9 0;
#X connect 11 0 13 0;
#X connect 12 0 17 0;
#X connect 13 0 14 0;
#X connect 14 0 20 1;
#X connect 15 0 12 0;
#X connect 16 0 19 0;
#X connect 17 0 18 0;
#X connect 17 1 16 1;
#X connect 18 0 16 0;
#X connect 19 0 0 0;
#X connect 19 1 13 1;
#X connect 20 0 22 0;
#X connect 21 0 20 0;
#X connect 21 1 10 0;
#X connect 21 2 9 1;
#X connect 23 0 24 0;
#X connect 24 0 0 0;
#X connect 24 1 0 0;
#X restore 357 233 pd scales;
#X msg 324 206 54;
#X floatatom 372 89 5 0 0 2 tone - -, f 5;
#X floatatom 284 213 5 0 0 0 - - -, f 5;
#X floatatom 263 277 5 0 0 0 - - -, f 5;
#X msg 296 309 all \$1;
#X msg 323 328 all \$1;
#X msg 185 327 vis 3 1;
#X msg 571 336 set 0 2 3 5 7 8 10 12 14 15 17 19;
#X msg 571 171 set 0 2 4 5 7 9 11 12 14 16 17 19;
#X msg 571 204 set 0 2 3 5 7 9 10 12 14 15 17 19;
#X msg 571 270 set 0 2 4 6 7 8 10 12 14 16 18 19;
#X msg 571 303 set 0 2 4 5 7 9 10 12 14 16 17 19;
#X msg 571 369 set 0 1 3 5 6 8 10 12 13 15 17 18;
#X obj 176 135 hradio 12 0 1 7 empty empty empty 0 -8 0 6 -262144 -1
-1 5;
#X obj 449 143 sel 0 1 2 3 4 5 6;
#X msg 574 76 set 0 5 9 12 15 17 21 24 27 29 33 36;
#X msg 284 186 0;
#X msg 571 237 set 0 1 3 5 7 8 10 12 13 15 17 19;
#X msg 644 479 set 0 1 3 5 6 8 10 12 13 15 17 18;
#X msg 505 451 36;
#X obj 505 482 until;
#X obj 505 504 f;
#X obj 536 505 + 1;
#X msg 506 536 add2 \$1;
#X msg 567 478 0;
#X msg 571 403 set 0 1 2 3 4 5 6 7 8 9 10 11 12 13 14 15 16 17 18 19
20 21 22 23 24 25 26 27 28 29 30 31 32 33 34 35;
#X msg 162 289 vis 25 1;
#X obj 794 379 loadbang;
#N canvas 665 116 1057 742 \$0-tones 0;
#X obj 133 268 list split;
#X floatatom 133 54 5 0 0 0 - - -, f 5;
#X msg 161 297 \$1;
#X obj 133 75 t b f;
#X obj 161 319 symbol;
#X msg 133 100 ..A ..Ais ..H .C .Cis .D .Dis .E .F .Fis .G .Gis .A
.Ais .H C Cis D Dis E F Fis G Gis A Ais H c cis d dis e f fis g gis
a ais h c' cis' d' dis' e' f' fis' g' gis' a' ais' h' c'' cis'' d''
dis'' e'' f'' fis'' g'' gis'' a'' ais'' h'' c''' cis''' d''' dis'''
e''' f''' fis''' g''' gis''' a''' ais''' h''' c'''' cis'''' d'''' dis''''
e'''' f'''' fis'''' g'''' gis'''' a'''' ais'''' h'''';
#X obj 133 22 inlet;
#X obj 161 341 outlet;
#X connect 0 1 2 0;
#X connect 1 0 3 0;
#X connect 2 0 4 0;
#X connect 3 0 5 0;
#X connect 3 1 0 1;
#X connect 4 0 7 0;
#X connect 5 0 0 0;
#X connect 6 0 1 0;
#X restore 374 119 pd \$0-tones;
#X symbolatom 279 91 10 0 0 0 - - -, f 10;
#X floatatom 408 89 5 0 0 2 cents - -, f 5;
#X msg 400 328 all \$1;
#X obj 402 301 / 10;
#X obj 271 360 clone player/beeper 37;
#X obj 272 472 outlet~;
#X connect 0 0 41 0;
#X connect 1 0 8 0;
#X connect 2 0 1 0;
#X connect 2 0 24 0;
#X connect 3 0 4 0;
#X connect 5 0 3 0;
#X connect 6 0 10 0;
#X connect 7 0 41 3;
#X connect 8 0 7 0;
#X connect 9 0 7 0;
#X connect 9 0 36 0;
#X connect 10 0 13 0;
#X connect 11 0 12 0;
#X connect 12 0 41 1;
#X connect 13 0 41 2;
#X connect 14 0 41 0;
#X connect 15 0 7 1;
#X connect 16 0 7 1;
#X connect 17 0 7 1;
#X connect 18 0 7 1;
#X connect 19 0 7 1;
#X connect 20 0 7 1;
#X connect 21 0 22 0;
#X connect 22 0 16 0;
#X connect 22 1 17 0;
#X connect 22 2 25 0;
#X connect 22 3 18 0;
#X connect 22 4 19 0;
#X connect 22 5 15 0;
#X connect 22 6 20 0;
#X connect 23 0 7 1;
#X connect 24 0 10 0;
#X connect 25 0 7 1;
#X connect 27 0 28 0;
#X connect 28 0 29 0;
#X connect 29 0 30 0;
#X connect 29 0 31 0;
#X connect 30 0 29 1;
#X connect 32 0 29 1;
#X connect 33 0 7 1;
#X connect 34 0 41 0;
#X connect 35 0 33 0;
#X connect 36 0 37 0;
#X connect 38 0 40 0;
#X connect 39 0 41 4;
#X connect 40 0 39 0;
#X connect 41 0 42 0;
#X coords 0 -1 1 1 170 56 1 274 53;
#X restore 53 226 pd beeps;
#N canvas 852 174 743 511 manager 0;
#X obj 103 412 outlet to_gui;
#X obj 429 412 outlet to_memory;
#X obj 245 412 outlet to_player;
#X msg 97 262 init;
#X msg 138 262 show_seq;
#X msg 429 252 save;
#X msg 245 182 load;
#X obj 245 204 t b a b;
#X msg 245 249 sort;
#X msg 284 249 clear;
#X obj 555 412 outlet to_pointer;
#X obj 170 123 tgl 15 0 empty empty show\ pointer 17 7 0 10 -262144
-1 -1 1 1;
#X obj 290 81 bng 15 250 50 0 empty empty load 17 7 0 10 -262144 -1
-1;
#X obj 290 99 bng 15 250 50 0 empty empty save 17 7 0 10 -262144 -1
-1;
#X obj 170 81 bng 15 250 50 0 empty empty init_seq 17 7 0 10 -262144
-1 -1;
#X obj 170 99 bng 15 250 50 0 empty empty open_gui 17 7 0 10 -262144
-1 -1;
#X msg 429 196 pre_name \$1;
#X symbolatom 290 122 10 0 0 0 - - -, f 10;
#X msg 386 98 symbol test;
#X obj 386 71 loadbang;
#X obj 429 365 t a;
#X connect 3 0 0 0;
#X connect 4 0 0 0;
#X connect 5 0 20 0;
#X connect 6 0 7 0;
#X connect 7 0 8 0;
#X connect 7 1 20 0;
#X connect 7 2 9 0;
#X connect 8 0 2 0;
#X connect 9 0 2 0;
#X connect 9 0 0 0;
#X connect 9 0 20 0;
#X connect 11 0 10 0;
#X connect 12 0 6 0;
#X connect 13 0 5 0;
#X connect 14 0 3 0;
#X connect 15 0 4 0;
#X connect 16 0 20 0;
#X connect 17 0 16 0;
#X connect 18 0 17 0;
#X connect 19 0 18 0;
#X connect 20 0 1 0;
#X coords 0 -1 1 1 203 87 1 159 58;
#X restore 86 86 pd manager;
#N canvas 1022 256 706 502 sequencer_and_player 0;
#N canvas 2837 88 722 884 memory 0;
#X obj 204 315 text define \$0-memory;
#X msg 204 292 clear;
#X obj 90 46 inlet;
#X obj 89 235 text set \$0-memory;
#X msg 124 210 1500;
#X obj 124 187 loadbang;
#X obj 165 158 text delete \$0-memory;
#X obj 165 138 text search \$0-memory;
#X obj 90 80 route new change del clear save load pre_name;
#N canvas 434 344 450 323 change 0;
#X obj 253 75 text search \$0-memory;
#X obj 83 87 t a a;
#X msg 253 52 \$1;
#X obj 83 120 list split 1;
#X obj 117 143 list trim;
#X obj 253 121 text get \$0-memory;
#X obj 253 97 t f f;
#N canvas 1037 524 395 441 change_vol 0;
#X obj 77 54 inlet vol;
#X obj 214 54 inlet text_line_nr;
#X obj 143 54 inlet list;
#X obj 77 146 list;
#X obj 77 221 text set \$0-memory;
#X obj 77 195 list append;
#X obj 77 93 t b f;
#X obj 77 171 list split 8;
#X connect 0 0 6 0;
#X connect 1 0 4 1;
#X connect 2 0 3 1;
#X connect 3 0 7 0;
#X connect 5 0 4 0;
#X connect 6 0 3 0;
#X connect 6 1 5 1;
#X connect 7 0 5 0;
#X restore 118 196 pd change_vol;
#N canvas 1153 425 578 487 change_row 0;
#X obj 77 54 inlet vol;
#X obj 214 54 inlet text_line_nr;
#X obj 143 54 inlet list;
#X obj 77 146 list;
#X obj 77 305 text set \$0-memory;
#X obj 77 237 list append;
#X obj 77 276 list append;
#X obj 77 171 list split 2;
#X msg 77 199 \$1;
#X obj 77 93 t b f;
#X connect 0 0 9 0;
#X connect 1 0 4 1;
#X connect 2 0 3 1;
#X connect 3 0 7 0;
#X connect 5 0 6 0;
#X connect 6 0 4 0;
#X connect 7 0 8 0;
#X connect 7 1 6 1;
#X connect 8 0 5 0;
#X connect 9 0 3 0;
#X connect 9 1 5 1;
#X restore 148 221 pd change_row;
#X obj 118 168 route vol row pos len;
#N canvas 2422 490 578 487 change_pos 0;
#X obj 214 54 inlet text_line_nr;
#X obj 143 54 inlet list;
#X obj 77 146 list;
#X obj 77 305 text set \$0-memory;
#X obj 77 237 list append;
#X obj 77 276 list append;
#X obj 77 54 inlet pos;
#X obj 77 171 list split 5;
#X msg 77 199 \$1 \$2;
#X obj 77 93 t b a;
#X connect 0 0 3 1;
#X connect 1 0 2 1;
#X connect 2 0 7 0;
#X connect 4 0 5 0;
#X connect 5 0 3 0;
#X connect 6 0 9 0;
#X connect 7 0 8 0;
#X connect 7 1 5 1;
#X connect 8 0 4 0;
#X connect 9 0 2 0;
#X connect 9 1 4 1;
#X restore 179 245 pd change_pos;
#N canvas 2069 476 578 510 change_len 0;
#X obj 214 54 inlet text_line_nr;
#X obj 143 54 inlet list;
#X obj 77 146 list;
#X obj 77 305 text set \$0-memory;
#X obj 77 237 list append;
#X obj 77 276 list append;
#X obj 77 54 inlet pos;
#X obj 77 171 list split 5;
#X obj 77 93 t b a;
#X msg 110 195 \$4;
#X connect 0 0 3 1;
#X connect 1 0 2 1;
#X connect 2 0 7 0;
#X connect 4 0 5 0;
#X connect 5 0 3 0;
#X connect 6 0 8 0;
#X connect 7 0 4 0;
#X connect 7 1 9 0;
#X connect 8 0 2 0;
#X connect 8 1 4 1;
#X connect 9 0 5 1;
#X restore 210 269 pd change_len;
#X obj 83 27 inlet;
#X connect 0 0 6 0;
#X connect 1 0 3 0;
#X connect 1 1 2 0;
#X connect 2 0 0 0;
#X connect 3 1 4 0;
#X connect 4 0 9 0;
#X connect 5 0 7 1;
#X connect 5 0 8 1;
#X connect 5 0 10 1;
#X connect 5 0 11 1;
#X connect 6 0 5 0;
#X connect 6 1 7 2;
#X connect 6 1 8 2;
#X connect 6 1 10 2;
#X connect 6 1 11 2;
#X connect 9 0 7 0;
#X connect 9 1 8 0;
#X connect 9 2 10 0;
#X connect 9 3 11 0;
#X connect 12 0 1 0;
#X restore 128 112 pd change;
#X obj 456 118 symbol;
#X symbolatom 456 140 10 0 0 0 - - -, f 10;
#X obj 423 184 symbol;
#X msg 423 204 write presets/\$1.txt;
#X obj 423 234 symbol;
#X msg 423 254 read presets/\$1.txt;
#X obj 423 276 text define \$0-memory_temp;
#X obj 395 348 text sequence \$0-memory;
#X msg 422 322 line 0;
#X obj 395 299 t b b;
#X msg 474 434 1500;
#X obj 474 411 loadbang;
#X obj 395 369 list split 1;
#X obj 429 388 list trim;
#X obj 429 459 text set \$0-memory_temp;
#X msg 373 468 line 0;
#X obj 346 445 t b b 0;
#X obj 346 519 t a b;
#X obj 346 494 text sequence \$0-memory_temp;
#X obj 373 545 f;
#X obj 402 545 + 1;
#X obj 346 574 list prepend;
#X obj 346 596 list trim;
#X obj 346 668 text set \$0-memory;
#X msg 381 643 1500;
#X obj 381 620 loadbang;
#X obj 129 702 outlet loaded_values;
#X text 87 339 id row pos0 pos1 pos2 len0 len1 len2 vol;
#X text 440 297 row pos0 pos1 pos2 len0 len1 len2 vol;
#X msg 476 234 clear;
#X obj 345 200 t b b b;
#X obj 395 142 t b b b;
#X obj 423 163 del 5;
#X obj 129 668 list trim;
#X obj 129 647 list prepend set;
#X connect 1 0 0 0;
#X connect 2 0 8 0;
#X connect 4 0 3 1;
#X connect 5 0 4 0;
#X connect 7 0 6 0;
#X connect 8 0 3 0;
#X connect 8 1 9 0;
#X connect 8 2 7 0;
#X connect 8 3 1 0;
#X connect 8 4 41 0;
#X connect 8 5 40 0;
#X connect 8 6 10 0;
#X connect 10 0 11 0;
#X connect 11 0 12 1;
#X connect 11 0 14 1;
#X connect 12 0 13 0;
#X connect 13 0 16 0;
#X connect 14 0 15 0;
#X connect 15 0 16 0;
#X connect 17 0 22 0;
#X connect 18 0 17 0;
#X connect 19 0 17 0;
#X connect 19 1 18 0;
#X connect 20 0 24 1;
#X connect 21 0 20 0;
#X connect 22 1 23 0;
#X connect 23 0 24 0;
#X connect 25 0 28 0;
#X connect 26 0 28 0;
#X connect 26 1 25 0;
#X connect 26 2 29 1;
#X connect 27 0 31 0;
#X connect 27 1 29 0;
#X connect 28 0 27 0;
#X connect 29 0 30 0;
#X connect 29 0 31 1;
#X connect 30 0 29 1;
#X connect 31 0 32 0;
#X connect 31 0 44 0;
#X connect 32 0 33 0;
#X connect 34 0 33 1;
#X connect 35 0 34 0;
#X connect 39 0 16 0;
#X connect 40 0 26 0;
#X connect 40 1 14 0;
#X connect 40 2 39 0;
#X connect 40 2 1 0;
#X connect 41 0 19 0;
#X connect 41 1 42 0;
#X connect 41 2 39 0;
#X connect 42 0 12 0;
#X connect 43 0 36 0;
#X connect 44 0 43 0;
#X restore 370 170 pd memory;
#X obj 116 228 player/sequencer_player;
#X obj 183 168 gui/sequencer_gui;
#N canvas 2672 118 649 771 calc_position_pointer 0;
#X obj 147 62 inlet;
#X obj 221 223 tgl 15 0 empty empty empty 17 7 0 10 -262144 -1 -1 0
1;
#X floatatom 147 163 5 0 0 0 - - -, f 5;
#X floatatom 184 163 5 0 0 0 - - -, f 5;
#X floatatom 221 163 5 0 0 0 - - -, f 5;
#X floatatom 258 163 5 0 0 0 - - -, f 5;
#X obj 220 262 metro;
#X obj 248 230 /;
#X floatatom 298 209 5 1 50 0 - - -, f 5;
#X obj 77 218 - 1;
#X floatatom 78 260 5 0 0 0 - - -, f 5;
#X obj 77 240 * 100;
#X obj 78 281 +;
#X obj 147 136 unpack f f f f f;
#X floatatom 293 164 5 0 0 0 - - -, f 5;
#X obj 122 235 * 100;
#X obj 122 216 - 1;
#X obj 122 257 /;
#X floatatom 78 303 5 0 0 0 - - -, f 5;
#X obj 173 662 outlet pos;
#X msg 176 638 pos_pointer pos \$1 0;
#X obj 177 533 *;
#X obj 220 320 f;
#X obj 247 321 + 1;
#X floatatom 220 342 5 0 0 0 - - -, f 5;
#X msg 171 287 0;
#X obj 184 184 t f b;
#X obj 353 265 expr 100 / $f1;
#X floatatom 353 287 5 0 0 0 - - -, f 5;
#X obj 353 308 /;
#X floatatom 353 330 5 0 0 0 - - -, f 5;
#X obj 220 363 *;
#X floatatom 220 385 5 0 0 0 - - -, f 5;
#X obj 177 496 +;
#X obj 177 565 max 1;
#X obj 177 587 min 1599;
#X obj 371 61 inlet on;
#X obj 147 84 spigot;
#X obj 371 83 t f f;
#X floatatom 271 259 5 0 0 0 - - -, f 5;
#X obj 373 187 loadbang;
#X msg 373 209 32;
#X obj 208 473 r \$0-scale;
#X floatatom 208 495 5 0 0 0 - - -, f 5;
#X connect 0 0 37 0;
#X connect 1 0 6 0;
#X connect 2 0 9 0;
#X connect 3 0 26 0;
#X connect 4 0 7 0;
#X connect 5 0 1 0;
#X connect 6 0 22 0;
#X connect 7 0 6 1;
#X connect 7 0 39 0;
#X connect 8 0 7 1;
#X connect 8 0 29 1;
#X connect 9 0 11 0;
#X connect 10 0 12 0;
#X connect 11 0 10 0;
#X connect 12 0 18 0;
#X connect 13 0 2 0;
#X connect 13 1 3 0;
#X connect 13 2 4 0;
#X connect 13 3 5 0;
#X connect 13 4 14 0;
#X connect 14 0 17 1;
#X connect 14 0 27 0;
#X connect 15 0 17 0;
#X connect 16 0 15 0;
#X connect 17 0 12 1;
#X connect 18 0 33 1;
#X connect 20 0 19 0;
#X connect 21 0 34 0;
#X connect 22 0 23 0;
#X connect 22 0 24 0;
#X connect 23 0 22 1;
#X connect 24 0 31 0;
#X connect 25 0 22 1;
#X connect 26 0 16 0;
#X connect 26 1 25 0;
#X connect 27 0 28 0;
#X connect 28 0 29 0;
#X connect 29 0 30 0;
#X connect 30 0 31 1;
#X connect 31 0 32 0;
#X connect 32 0 33 0;
#X connect 33 0 21 0;
#X connect 34 0 35 0;
#X connect 35 0 20 0;
#X connect 36 0 38 0;
#X connect 37 0 13 0;
#X connect 38 0 1 0;
#X connect 38 1 37 1;
#X connect 40 0 41 0;
#X connect 41 0 8 0;
#X connect 42 0 43 0;
#X connect 43 0 21 1;
#X restore 367 228 pd calc_position_pointer;
#X obj 507 204 tgl 15 0 empty empty empty 17 7 0 10 -262144 -1 -1 1
1;
#X obj 183 73 inlet gui;
#X obj 251 73 inlet player;
#X obj 370 73 inlet memory;
#X obj 507 73 inlet pointer;
#X obj 116 301 outlet;
#X obj 116 42 inlet metronome;
#X obj 221 293 s \$0-scale;
#X obj 221 271 route scale;
#X connect 0 0 2 0;
#X connect 0 0 1 2;
#X connect 1 0 9 0;
#X connect 1 1 3 0;
#X connect 2 0 0 0;
#X connect 2 0 1 1;
#X connect 2 0 12 0;
#X connect 3 0 2 0;
#X connect 4 0 3 1;
#X connect 5 0 2 0;
#X connect 6 0 1 2;
#X connect 7 0 0 0;
#X connect 8 0 4 0;
#X connect 10 0 1 0;
#X connect 12 0 11 0;
#X restore 53 186 pd sequencer_and_player;
#X obj 53 319 tools/pd_outlet;
#N canvas 1151 265 709 693 metronome 0;
#X obj 101 101 cnv 15 230 28 empty empty empty 20 12 0 14 -2293 -66577
0;
#X obj 149 113 tgl 15 0 \$0-start empty on 0 -8 0 10 -262144 -1 -1
0 1;
#X obj 105 112 bng 15 150 15 0 empty \$0-metro_tick empty 17 7 0 10
-2292 -186725 -262144;
#X floatatom 125 112 3 0 0 0 - #0-beat_nr -, f 3;
#X obj 168 113 bng 15 250 50 0 empty empty tap 0 -8 0 10 -262144 -1
-1;
#X obj 312 113 tgl 15 0 empty empty snd 0 -8 0 10 -262144 -1 -1 0 1
;
#X obj 106 42 inlet metro_start_and_tempo;
#X obj 291 42 inlet tempo;
#X obj 363 41 inlet beats;
#X obj 149 257 metro;
#X obj 149 208 tgl 15 0 empty empty empty 17 7 0 10 -262144 -1 -1 0
1;
#X floatatom 399 166 5 0 0 0 - - -, f 5;
#X obj 399 186 expr 60000 / $f1;
#X obj 149 279 bng 15 50 50 0 empty empty empty 17 7 0 10 -262144 -1
-1;
#X floatatom 525 120 5 0 0 0 - - -, f 5;
#X obj 525 98 expr 1 / $f1 * 60000;
#X msg 400 208 set \$1;
#X obj 149 436 pack 0 f f f f;
#X obj 149 301 t b b;
#X obj 254 329 f;
#X obj 283 330 + 1;
#X obj 149 228 t f f 0;
#X floatatom 254 349 5 0 0 0 - - -, f 5;
#X obj 254 368 %;
#X floatatom 254 388 5 0 0 0 - - -, f 5;
#X obj 395 470 del 1;
#X obj 395 449 t b;
#X msg 395 491 update -1;
#N canvas 2575 324 748 561 beeps 0;
#X obj 57 41 inlet notes;
#N canvas 172 286 622 516 metro_beep 0;
#X obj 303 114 bng 15 50 20 0 empty empty empty 17 7 0 10 -262144 -1
-1;
#X obj 303 226 line~;
#X msg 303 138 1 1;
#X msg 303 204 0 1;
#X obj 288 251 *~;
#X obj 215 339 *~;
#X obj 340 328 sig~;
#X obj 215 361 dac~;
#X floatatom 339 159 5 0 0 0 - - -, f 5;
#X obj 380 300 hsl 128 15 0 1 0 0 empty empty empty -2 -8 0 10 -262144
-1 -1 635 1;
#X floatatom 415 343 5 0 0 0 - - -, f 5;
#X obj 242 181 osc~ 330;
#X obj 303 182 delay;
#X obj 303 160 t b;
#X obj 164 227 line~;
#X msg 164 139 1 1;
#X msg 164 205 0 1;
#X obj 149 252 *~;
#X floatatom 200 160 5 0 0 0 - - -, f 5;
#X obj 164 183 delay;
#X obj 164 161 t b;
#X obj 215 287 +~;
#X obj 163 114 bng 15 50 20 0 empty empty empty 17 7 0 10 -262144 -1
-1;
#X obj 103 181 osc~ 440;
#X floatatom 345 72 5 0 0 0 - - -, f 5;
#X obj 346 47 nbx 5 14 -1e+037 1e+037 0 1 empty empty empty 0 -8 0
10 -262144 -1 -1 50 256 0;
#X obj 153 21 inlet;
#X obj 163 62 sel 0;
#X floatatom 475 280 5 0 0 0 - - -, f 5;
#X obj 475 27 inlet;
#X obj 407 26 inlet vol;
#X obj 485 358 + 100;
#X connect 0 0 2 0;
#X connect 1 0 4 1;
#X connect 2 0 1 0;
#X connect 2 0 13 0;
#X connect 3 0 1 0;
#X connect 4 0 21 1;
#X connect 5 0 7 0;
#X connect 6 0 5 1;
#X connect 8 0 12 1;
#X connect 9 0 6 0;
#X connect 9 0 10 0;
#X connect 11 0 4 0;
#X connect 12 0 3 0;
#X connect 13 0 12 0;
#X connect 14 0 17 1;
#X connect 15 0 14 0;
#X connect 15 0 20 0;
#X connect 16 0 14 0;
#X connect 17 0 21 0;
#X connect 18 0 19 1;
#X connect 19 0 16 0;
#X connect 20 0 19 0;
#X connect 21 0 5 0;
#X connect 22 0 15 0;
#X connect 23 0 17 0;
#X connect 24 0 18 0;
#X connect 24 0 8 0;
#X connect 25 0 24 0;
#X connect 26 0 27 0;
#X connect 27 0 22 0;
#X connect 27 1 0 0;
#X connect 28 0 11 0;
#X connect 28 0 31 0;
#X connect 29 0 28 0;
#X connect 30 0 9 0;
#X connect 31 0 23 0;
#X coords 0 -1 1 1 140 41 1 377 277;
#X restore 57 149 pd metro_beep;
#X obj 189 102 bng 15 250 50 0 empty empty empty 17 7 0 10 -262144
-1 -1;
#X obj 139 61 loadbang;
#X obj 280 72 tgl 15 0 empty empty empty 17 7 0 10 -262144 -1 -1 0
1;
#X obj 298 94 switch~;
#X msg 190 122 440;
#X obj 243 24 inlet on;
#X msg 57 92 \$2;
#X msg 123 119 0.05;
#X obj 275 225 t b b;
#X obj 274 275 nbx 8 19 -1e+037 1e+037 0 0 empty empty empty 0 -8 0
15 -262144 -1 -1 0 256 0;
#X obj 273 248 realtime;
#X obj 316 338 f;
#X obj 276 307 t f f b;
#X obj 302 364 -;
#X floatatom 304 443 17 0 0 0 - - -, f 17;
#X obj 302 386 int;
#X obj 275 202 spigot;
#X obj 310 177 tgl 15 0 empty empty empty 17 7 0 10 -262144 -1 -1 0
1;
#X connect 0 0 8 0;
#X connect 2 0 6 0;
#X connect 3 0 9 0;
#X connect 3 0 2 0;
#X connect 4 0 5 0;
#X connect 6 0 1 2;
#X connect 7 0 4 0;
#X connect 8 0 1 0;
#X connect 8 0 18 0;
#X connect 9 0 1 1;
#X connect 10 0 12 0;
#X connect 10 1 12 1;
#X connect 11 0 14 0;
#X connect 12 0 11 0;
#X connect 13 0 15 1;
#X connect 14 0 13 1;
#X connect 14 1 15 0;
#X connect 14 2 13 0;
#X connect 15 0 17 0;
#X connect 17 0 16 0;
#X connect 18 0 10 0;
#X connect 19 0 18 1;
#X coords 0 -1 1 1 92 38 1 274 53;
#X restore 242 492 pd beeps;
#X msg 241 468 \$2 \$3;
#X obj 396 539 outlet info;
#X obj 278 113 nbx 2 15 1 50 0 1 empty empty beats 0 -8 0 10 -262144
-1 -1 4 256 0;
#N canvas 198 450 550 461 tap 0;
#X obj 216 87 t b b;
#X obj 216 129 nbx 8 19 -1e+037 1e+037 0 0 empty empty empty 0 -8 0
15 -262144 -1 -1 0 256 0;
#X obj 216 108 realtime;
#X floatatom 216 194 5 0 0 0 - - -, f 5;
#X obj 216 152 expr 1 / $f1 * 60000;
#X obj 216 173 int;
#X obj 216 221 t 1 f;
#X obj 215 55 inlet;
#X obj 215 285 outlet;
#X obj 264 286 outlet;
#X connect 0 0 2 0;
#X connect 0 1 2 1;
#X connect 1 0 4 0;
#X connect 2 0 1 0;
#X connect 3 0 6 0;
#X connect 4 0 5 0;
#X connect 5 0 3 0;
#X connect 6 0 8 0;
#X connect 6 1 9 0;
#X connect 7 0 0 0;
#X restore 168 144 pd tap;
#X obj 194 113 nbx 3 15 1 500 0 1 empty empty bpm 0 -8 0 10 -262144
-1 -1 90 256 0;
#X obj 231 113 nbx 4 15 1 10000 0 0 empty empty ms 0 -8 0 10 -262144
-1 -1 666.667 256 0;
#X obj 463 366 s \$0-beat_nr;
#X obj 548 251 s \$0-metro_tick;
#N canvas 303 135 410 324 colors 0;
#X obj 68 207 s \$0-metro_tick;
#X msg 69 179 color \$1 \$2 0;
#X msg 132 120 -101584;
#X obj 132 147 pack f f;
#X obj 132 93 t b b;
#X obj 132 72 bng 15 250 50 0 empty empty empty 17 7 0 10 -262144 -1
-1;
#X msg 185 122 -1.19661e+007;
#X obj 134 52 loadbang;
#X connect 1 0 0 0;
#X connect 2 0 3 0;
#X connect 3 0 1 0;
#X connect 4 0 2 0;
#X connect 4 1 6 0;
#X connect 5 0 4 0;
#X connect 6 0 3 1;
#X connect 7 0 5 0;
#X restore 548 284 pd colors;
#X obj 548 229 r \$0-beat_nr;
#X msg 149 497 \$3 \$2 \$4 \$5;
#X obj 149 541 outlet beat_nr-ms-on-amount_beats;
#X obj 85 247 sel 0;
#X obj 85 292 t b 0;
#X msg 234 197;
#X connect 1 0 10 0;
#X connect 4 0 32 0;
#X connect 5 0 28 1;
#X connect 9 0 13 0;
#X connect 10 0 21 0;
#X connect 10 0 41 0;
#X connect 11 0 12 0;
#X connect 12 0 16 0;
#X connect 13 0 18 0;
#X connect 14 0 34 0;
#X connect 15 0 14 0;
#X connect 16 0 33 0;
#X connect 17 0 29 0;
#X connect 17 0 39 0;
#X connect 18 0 17 0;
#X connect 18 1 19 0;
#X connect 19 0 20 0;
#X connect 19 0 22 0;
#X connect 20 0 19 1;
#X connect 21 0 9 0;
#X connect 21 1 17 3;
#X connect 21 2 19 1;
#X connect 22 0 23 0;
#X connect 23 0 24 0;
#X connect 24 0 17 2;
#X connect 24 0 35 0;
#X connect 25 0 27 0;
#X connect 26 0 25 0;
#X connect 27 0 30 0;
#X connect 29 0 28 0;
#X connect 31 0 17 4;
#X connect 31 0 23 1;
#X connect 32 0 10 0;
#X connect 32 1 33 0;
#X connect 33 0 26 0;
#X connect 33 0 15 0;
#X connect 34 0 17 1;
#X connect 34 0 9 1;
#X connect 38 0 36 0;
#X connect 39 0 40 0;
#X connect 41 0 42 0;
#X connect 42 0 17 0;
#X connect 42 1 17 3;
#X coords 0 -1 1 1 232 30 1 100 100;
#X restore 53 27 pd metronome;
#X msg 282 215 \; seq_gui vis 1;
#X text 183 311 1) init_seq \; 2) open_gui \; 3) load test \;
5) start metronome \, beeps and set volume;
#X connect 0 0 3 0;
#X connect 0 0 3 1;
#X connect 1 0 2 1;
#X connect 1 1 2 2;
#X connect 1 2 2 3;
#X connect 1 3 2 4;
#X connect 2 0 0 0;
#X connect 4 0 2 0;
