#N struct text float x float y text t;
#N struct 1109-hlines float x float y float w;
#N struct 1109-one_line1 float x float y float nr float w float h;
#N struct 1109-one_line0 float x float y float nr float w float h;
#N struct 1203-element float x float y float h float w;
#N struct 1202-element float x float y float h float w;
#N struct 1201-element float x float y float h float w;
#N struct 1200-element float x float y float h float w;
#N struct 1199-element float x float y float h float w;
#N struct 1198-element float x float y float h float w;
#N struct 1197-element float x float y float h float w;
#N struct 1196-element float x float y float h float w;
#N struct 1195-element float x float y float h float w;
#N struct 1194-element float x float y float h float w;
#N struct 1193-element float x float y float h float w;
#N struct 1192-element float x float y float h float w;
#N struct 1191-element float x float y float h float w;
#N struct 1190-element float x float y float h float w;
#N struct 1189-element float x float y float h float w;
#N struct 1188-element float x float y float h float w;
#N struct 1187-element float x float y float h float w;
#N struct 1186-element float x float y float h float w;
#N struct 1185-element float x float y float h float w;
#N struct 1184-element float x float y float h float w;
#N struct 1183-element float x float y float h float w;
#N struct 1182-element float x float y float h float w;
#N struct 1181-element float x float y float h float w;
#N struct 1180-element float x float y float h float w;
#N struct 1179-element float x float y float h float w;
#N struct 1178-element float x float y float h float w;
#N struct 1177-element float x float y float h float w;
#N struct 1176-element float x float y float h float w;
#N struct 1175-element float x float y float h float w;
#N struct 1174-element float x float y float h float w;
#N struct 1173-element float x float y float h float w;
#N struct 1172-element float x float y float h float w;
#N struct 1171-element float x float y float h float w;
#N struct 1170-element float x float y float h float w;
#N struct 1169-element float x float y float h float w;
#N struct 1168-element float x float y float h float w;
#N struct 1167-element float x float y float h float w;
#N struct 1166-element float x float y float h float w;
#N struct 1165-element float x float y float h float w;
#N struct 1164-element float x float y float h float w;
#N struct 1163-element float x float y float h float w;
#N struct 1162-element float x float y float h float w;
#N struct 1161-element float x float y float h float w;
#N struct 1160-element float x float y float h float w;
#N struct 1159-element float x float y float h float w;
#N struct 1158-element float x float y float h float w;
#N struct 1157-element float x float y float h float w;
#N struct 1156-element float x float y float h float w;
#N struct 1155-element float x float y float h float w;
#N struct 1154-element float x float y float h float w;
#N struct 1153-element float x float y float h float w;
#N struct 1152-element float x float y float h float w;
#N struct 1151-element float x float y float h float w;
#N struct 1150-element float x float y float h float w;
#N struct 1149-element float x float y float h float w;
#N struct 1148-element float x float y float h float w;
#N struct 1147-element float x float y float h float w;
#N struct 1146-element float x float y float h float w;
#N struct 1145-element float x float y float h float w;
#N struct 1144-element float x float y float h float w;
#N struct 1143-element float x float y float h float w;
#N struct 1142-element float x float y float h float w;
#N struct 1141-element float x float y float h float w;
#N struct 1140-element float x float y float h float w;
#N struct 1139-element float x float y float h float w;
#N struct 1138-element float x float y float h float w;
#N struct 1137-element float x float y float h float w;
#N struct 1136-element float x float y float h float w;
#N struct 1135-element float x float y float h float w;
#N struct 1134-element float x float y float h float w;
#N struct 1133-element float x float y float h float w;
#N struct 1132-element float x float y float h float w;
#N struct 1131-element float x float y float h float w;
#N struct 1130-element float x float y float h float w;
#N struct 1129-element float x float y float h float w;
#N struct 1128-element float x float y float h float w;
#N struct 1127-element float x float y float h float w;
#N struct 1126-element float x float y float h float w;
#N struct 1125-element float x float y float h float w;
#N struct 1124-element float x float y float h float w;
#N struct 1123-element float x float y float h float w;
#N struct 1122-element float x float y float h float w;
#N struct 1121-element float x float y float h float w;
#N struct 1120-element float x float y float h float w;
#N struct 1119-element float x float y float h float w;
#N struct 1118-element float x float y float h float w;
#N struct 1117-element float x float y float h float w;
#N struct 1116-element float x float y float h float w;
#N struct 1115-element float x float y float h float w;
#N struct 1114-element float x float y float h float w;
#N struct 1113-element float x float y float h float w;
#N struct 1112-element float x float y float h float w;
#N struct 1111-element float x float y float h float w;
#N struct 1110-element float x float y float h float w;
#N struct 1611-col_0 float x float y float col;
#N struct 1613-col_0 float x float y float col;
#N struct 1615-col_0 float x float y float col;
#N struct 1617-col_0 float x float y float col;
#N struct 1619-col_0 float x float y float col;
#N struct 1621-col_0 float x float y float col;
#N struct 1623-col_0 float x float y float col;
#N struct 1625-col_0 float x float y float col;
#N struct 1627-col_0 float x float y float col;
#N struct 1629-col_0 float x float y float col;
#N struct 1631-col_0 float x float y float col;
#N struct 1633-col_0 float x float y float col;
#N struct 1635-col_0 float x float y float col;
#N struct 1637-col_0 float x float y float col;
#N struct 1639-col_0 float x float y float col;
#N struct 1641-col_0 float x float y float col;
#N struct 1643-col_0 float x float y float col;
#N struct 1645-col_0 float x float y float col;
#N struct 1647-col_0 float x float y float col;
#N struct 1649-col_0 float x float y float col;
#N canvas 969 127 634 480 10;
#N canvas 1060 314 796 660 memory 0;
#X obj 57 35 inlet;
#X obj 160 171 text delete \$0-memory;
#X obj 160 151 text search \$0-memory;
#X obj 57 69 route new change del clear save load pre_name;
#N canvas 1370 37 550 413 change 0;
#X obj 253 85 text search \$0-memory;
#X msg 253 62 \$1;
#X obj 83 158 list split 1;
#X obj 117 181 list trim;
#X obj 253 159 text get \$0-memory;
#X obj 253 135 t f f;
#N canvas 1037 524 395 441 change_vol 0;
#X obj 77 54 inlet vol;
#X obj 214 54 inlet text_line_nr;
#X obj 143 54 inlet list;
#X obj 77 146 list;
#X obj 77 221 text set \$0-memory;
#X obj 77 195 list append;
#X obj 77 93 t b f;
#X obj 77 171 list split 8;
#X connect 0 0 6 0;
#X connect 1 0 4 1;
#X connect 2 0 3 1;
#X connect 3 0 7 0;
#X connect 5 0 4 0;
#X connect 6 0 3 0;
#X connect 6 1 5 1;
#X connect 7 0 5 0;
#X restore 118 234 pd change_vol;
#N canvas 1153 425 578 487 change_row 0;
#X obj 77 54 inlet vol;
#X obj 214 54 inlet text_line_nr;
#X obj 143 54 inlet list;
#X obj 77 146 list;
#X obj 77 305 text set \$0-memory;
#X obj 77 237 list append;
#X obj 77 276 list append;
#X obj 77 171 list split 2;
#X msg 77 199 \$1;
#X obj 77 93 t b f;
#X connect 0 0 9 0;
#X connect 1 0 4 1;
#X connect 2 0 3 1;
#X connect 3 0 7 0;
#X connect 5 0 6 0;
#X connect 6 0 4 0;
#X connect 7 0 8 0;
#X connect 7 1 6 1;
#X connect 8 0 5 0;
#X connect 9 0 3 0;
#X connect 9 1 5 1;
#X restore 148 259 pd change_row;
#X obj 118 206 route vol row pos len;
#N canvas 2499 505 456 431 change_pos 0;
#X obj 214 54 inlet text_line_nr;
#X obj 143 54 inlet list;
#X obj 96 169 list;
#X obj 96 346 text set \$0-memory;
#X obj 96 260 list append;
#X obj 96 299 list append;
#X obj 77 54 inlet pos;
#X obj 96 194 list split 5;
#X msg 96 222 \$1 \$2;
#X obj 143 91 t a a;
#N canvas 2065 147 586 660 exchange_pos_of_values_in_memory 0;
#X obj 142 70 inlet new_values;
#X obj 219 114 inlet text_line_nr;
#X floatatom 204 209 5 0 0 0 - - -, f 5;
#X obj 57 229 - 1;
#X obj 57 252 text get \$0-memory;
#X obj 58 272 route bang;
#N canvas 714 144 826 747 compare 0;
#X obj 119 41 inlet list1;
#X obj 298 41 inlet list2;
#X obj 119 88 unpack f f f f;
#X obj 297 92 unpack f f f f;
#X obj 119 608 outlet;
#X floatatom 119 188 5 0 0 0 - - -, f 5;
#X floatatom 157 188 5 0 0 0 - - -, f 5;
#X floatatom 216 188 5 0 0 0 - - -, f 5;
#X floatatom 253 188 5 0 0 0 - - -, f 5;
#X floatatom 312 188 5 0 0 0 - - -, f 5;
#X floatatom 349 188 5 0 0 0 - - -, f 5;
#X floatatom 412 188 5 0 0 0 - - -, f 5;
#X floatatom 449 188 5 0 0 0 - - -, f 5;
#X msg 119 565 1;
#X msg 162 565 0;
#X floatatom 580 186 5 0 0 0 - - -, f 5;
#N canvas 2994 267 614 490 comp 0;
#X obj 94 41 inlet trigger;
#X obj 195 41 inlet nr1;
#X obj 272 41 inlet nr2;
#X obj 349 41 inlet amount;
#X obj 139 199 f;
#X obj 176 199 f;
#X obj 139 178 t b b;
#X obj 139 221 <;
#N canvas 1473 691 290 262 mucks 0;
#X obj 83 9 inlet;
#X obj 83 117 outlet;
#X obj 134 117 outlet;
#X obj 128 9 inlet;
#X obj 83 89 sel 0;
#X obj 83 61 f;
#X floatatom 118 62 5 0 0 0 - - -, f 5;
#X obj 83 31 bng 15 250 50 0 empty empty empty 17 7 0 10 -262144 -1
-1;
#X connect 0 0 7 0;
#X connect 3 0 5 1;
#X connect 3 0 6 0;
#X connect 4 0 1 0;
#X connect 4 1 2 0;
#X connect 5 0 4 0;
#X connect 7 0 5 0;
#X restore 94 158 pd mucks;
#X obj 139 137 > 1;
#X obj 139 248 sel 1;
#X obj 164 292 f;
#X obj 193 293 f;
#X obj 164 314 ==;
#X obj 165 271 t b b;
#X obj 164 336 sel 0;
#X obj 444 41 inlet order;
#X obj 87 424 outlet one;
#X obj 166 425 outlet zero;
#X obj 258 425 outlet next;
#X connect 0 0 8 0;
#X connect 1 0 4 1;
#X connect 1 0 11 1;
#X connect 2 0 5 1;
#X connect 2 0 12 1;
#X connect 3 0 9 0;
#X connect 4 0 7 0;
#X connect 5 0 7 1;
#X connect 6 0 4 0;
#X connect 6 1 5 0;
#X connect 7 0 10 0;
#X connect 8 0 18 0;
#X connect 8 1 6 0;
#X connect 9 0 8 1;
#X connect 10 0 17 0;
#X connect 10 1 14 0;
#X connect 11 0 13 0;
#X connect 12 0 13 1;
#X connect 13 0 15 0;
#X connect 14 0 11 0;
#X connect 14 1 12 0;
#X connect 15 0 18 0;
#X connect 15 1 19 0;
#X connect 16 0 9 1;
#X restore 202 275 pd comp;
#X msg 258 247 1;
#N canvas 1233 401 614 559 comp 0;
#X obj 94 41 inlet trigger;
#X obj 195 41 inlet nr1;
#X obj 272 41 inlet nr2;
#X obj 349 41 inlet amount;
#X obj 139 199 f;
#X obj 176 199 f;
#X obj 139 178 t b b;
#X obj 139 221 <;
#N canvas 1473 691 290 262 mucks 0;
#X obj 83 9 inlet;
#X obj 83 117 outlet;
#X obj 134 117 outlet;
#X obj 128 9 inlet;
#X obj 83 89 sel 0;
#X obj 83 61 f;
#X floatatom 118 62 5 0 0 0 - - -, f 5;
#X obj 83 31 bng 15 250 50 0 empty empty empty 17 7 0 10 -262144 -1
-1;
#X connect 0 0 7 0;
#X connect 3 0 5 1;
#X connect 3 0 6 0;
#X connect 4 0 1 0;
#X connect 4 1 2 0;
#X connect 5 0 4 0;
#X connect 7 0 5 0;
#X restore 94 158 pd mucks;
#X obj 139 137 > 1;
#X obj 139 248 sel 1;
#X obj 164 292 f;
#X obj 193 293 f;
#X obj 164 314 ==;
#X obj 165 271 t b b;
#X obj 164 336 sel 0;
#X obj 444 41 inlet order;
#X obj 87 424 outlet one;
#X obj 166 425 outlet zero;
#X obj 258 425 outlet next;
#X connect 0 0 8 0;
#X connect 1 0 4 1;
#X connect 1 0 11 1;
#X connect 2 0 5 1;
#X connect 2 0 12 1;
#X connect 3 0 9 0;
#X connect 4 0 7 0;
#X connect 5 0 7 1;
#X connect 6 0 4 0;
#X connect 6 1 5 0;
#X connect 7 0 10 0;
#X connect 8 0 18 0;
#X connect 8 1 6 0;
#X connect 9 0 8 1;
#X connect 10 0 17 0;
#X connect 10 1 14 0;
#X connect 11 0 13 0;
#X connect 12 0 13 1;
#X connect 13 0 15 0;
#X connect 14 0 11 0;
#X connect 14 1 12 0;
#X connect 15 0 18 0;
#X connect 15 1 19 0;
#X connect 16 0 9 1;
#X restore 298 310 pd comp;
#X msg 355 287 2;
#N canvas 873 296 614 536 comp 0;
#X obj 94 41 inlet trigger;
#X obj 215 40 inlet nr1;
#X obj 302 40 inlet nr2;
#X obj 389 40 inlet amount;
#X obj 139 199 f;
#X obj 176 199 f;
#X obj 139 178 t b b;
#X obj 139 221 <;
#N canvas 1473 691 290 262 mucks 0;
#X obj 83 9 inlet;
#X obj 83 117 outlet;
#X obj 134 117 outlet;
#X obj 128 9 inlet;
#X obj 83 89 sel 0;
#X obj 83 61 f;
#X floatatom 118 62 5 0 0 0 - - -, f 5;
#X obj 83 31 bng 15 250 50 0 empty empty empty 17 7 0 10 -262144 -1
-1;
#X connect 0 0 7 0;
#X connect 3 0 5 1;
#X connect 3 0 6 0;
#X connect 4 0 1 0;
#X connect 4 1 2 0;
#X connect 5 0 4 0;
#X connect 7 0 5 0;
#X restore 94 158 pd mucks;
#X obj 139 248 sel 1;
#X obj 164 292 f;
#X obj 193 293 f;
#X obj 164 314 ==;
#X obj 165 271 t b b;
#X obj 164 336 sel 0;
#X obj 484 40 inlet order;
#X obj 87 424 outlet one;
#X obj 166 425 outlet zero;
#X obj 258 425 outlet next;
#X obj 139 137 > 0;
#X connect 0 0 8 0;
#X connect 1 0 4 1;
#X connect 1 0 10 1;
#X connect 2 0 5 1;
#X connect 2 0 11 1;
#X connect 3 0 19 0;
#X connect 4 0 7 0;
#X connect 5 0 7 1;
#X connect 6 0 4 0;
#X connect 6 1 5 0;
#X connect 7 0 9 0;
#X connect 8 0 17 0;
#X connect 8 1 6 0;
#X connect 9 0 16 0;
#X connect 9 1 13 0;
#X connect 10 0 12 0;
#X connect 11 0 12 1;
#X connect 12 0 14 0;
#X connect 13 0 10 0;
#X connect 13 1 11 0;
#X connect 14 0 17 0;
#X connect 14 1 18 0;
#X connect 15 0 19 1;
#X connect 19 0 8 1;
#X restore 119 243 pd comp;
#X obj 119 209 t b f;
#X obj 581 137 bng 15 250 50 0 empty empty empty 17 7 0 10 -262144
-1 -1;
#X obj 581 114 loadbang;
#X msg 581 159 3;
#X connect 0 0 2 0;
#X connect 1 0 3 0;
#X connect 2 0 5 0;
#X connect 2 1 7 0;
#X connect 2 2 9 0;
#X connect 2 3 11 0;
#X connect 3 0 6 0;
#X connect 3 1 8 0;
#X connect 3 2 10 0;
#X connect 3 3 12 0;
#X connect 5 0 21 0;
#X connect 6 0 20 2;
#X connect 7 0 16 1;
#X connect 8 0 16 2;
#X connect 9 0 18 1;
#X connect 10 0 18 2;
#X connect 13 0 4 0;
#X connect 14 0 4 0;
#X connect 15 0 16 3;
#X connect 15 0 18 3;
#X connect 15 0 20 3;
#X connect 16 0 13 0;
#X connect 16 1 14 0;
#X connect 16 2 18 0;
#X connect 17 0 16 4;
#X connect 18 0 13 0;
#X connect 18 1 14 0;
#X connect 18 2 14 0;
#X connect 19 0 18 4;
#X connect 20 0 13 0;
#X connect 20 1 14 0;
#X connect 20 2 16 0;
#X connect 21 0 20 0;
#X connect 21 1 20 1;
#X connect 22 0 17 0;
#X connect 22 0 19 0;
#X connect 23 0 22 0;
#X connect 23 0 24 0;
#X connect 24 0 15 0;
#X restore 115 315 pd compare;
#X msg 115 294 \$3 \$4 \$5;
#X msg 173 294 \$3 \$4 \$5;
#X floatatom 115 337 5 0 0 0 - - -, f 5;
#X obj 115 357 sel 0;
#X obj 115 443 list;
#X obj 189 450 text get \$0-memory;
#X obj 189 404 f;
#X obj 115 378 t b b b;
#X obj 189 492 text set \$0-memory;
#X obj 189 426 t f f;
#X obj 224 471 - 1;
#X obj 115 513 text set \$0-memory;
#X obj 204 378 t f;
#X obj 134 405 f;
#X obj 121 149 t b a;
#X obj 204 177 f;
#X obj 121 37 inlet trigger;
#X obj 121 125 list;
#X obj 278 260 text get \$0-memory;
#X obj 279 280 route bang;
#N canvas 714 144 826 747 compare 0;
#X obj 119 41 inlet list1;
#X obj 298 41 inlet list2;
#X obj 119 88 unpack f f f f;
#X obj 297 92 unpack f f f f;
#X obj 119 608 outlet;
#X floatatom 119 188 5 0 0 0 - - -, f 5;
#X floatatom 157 188 5 0 0 0 - - -, f 5;
#X floatatom 216 188 5 0 0 0 - - -, f 5;
#X floatatom 253 188 5 0 0 0 - - -, f 5;
#X floatatom 312 188 5 0 0 0 - - -, f 5;
#X floatatom 349 188 5 0 0 0 - - -, f 5;
#X floatatom 412 188 5 0 0 0 - - -, f 5;
#X floatatom 449 188 5 0 0 0 - - -, f 5;
#X msg 119 565 1;
#X msg 162 565 0;
#X floatatom 580 186 5 0 0 0 - - -, f 5;
#N canvas 2994 267 614 490 comp 0;
#X obj 94 41 inlet trigger;
#X obj 195 41 inlet nr1;
#X obj 272 41 inlet nr2;
#X obj 349 41 inlet amount;
#X obj 139 199 f;
#X obj 176 199 f;
#X obj 139 178 t b b;
#X obj 139 221 <;
#N canvas 1473 691 290 262 mucks 0;
#X obj 83 9 inlet;
#X obj 83 117 outlet;
#X obj 134 117 outlet;
#X obj 128 9 inlet;
#X obj 83 89 sel 0;
#X obj 83 61 f;
#X floatatom 118 62 5 0 0 0 - - -, f 5;
#X obj 83 31 bng 15 250 50 0 empty empty empty 17 7 0 10 -262144 -1
-1;
#X connect 0 0 7 0;
#X connect 3 0 5 1;
#X connect 3 0 6 0;
#X connect 4 0 1 0;
#X connect 4 1 2 0;
#X connect 5 0 4 0;
#X connect 7 0 5 0;
#X restore 94 158 pd mucks;
#X obj 139 137 > 1;
#X obj 139 248 sel 1;
#X obj 164 292 f;
#X obj 193 293 f;
#X obj 164 314 ==;
#X obj 165 271 t b b;
#X obj 164 336 sel 0;
#X obj 444 41 inlet order;
#X obj 87 424 outlet one;
#X obj 166 425 outlet zero;
#X obj 258 425 outlet next;
#X connect 0 0 8 0;
#X connect 1 0 4 1;
#X connect 1 0 11 1;
#X connect 2 0 5 1;
#X connect 2 0 12 1;
#X connect 3 0 9 0;
#X connect 4 0 7 0;
#X connect 5 0 7 1;
#X connect 6 0 4 0;
#X connect 6 1 5 0;
#X connect 7 0 10 0;
#X connect 8 0 18 0;
#X connect 8 1 6 0;
#X connect 9 0 8 1;
#X connect 10 0 17 0;
#X connect 10 1 14 0;
#X connect 11 0 13 0;
#X connect 12 0 13 1;
#X connect 13 0 15 0;
#X connect 14 0 11 0;
#X connect 14 1 12 0;
#X connect 15 0 18 0;
#X connect 15 1 19 0;
#X connect 16 0 9 1;
#X restore 202 275 pd comp;
#X msg 258 247 1;
#N canvas 1233 401 614 559 comp 0;
#X obj 94 41 inlet trigger;
#X obj 195 41 inlet nr1;
#X obj 272 41 inlet nr2;
#X obj 349 41 inlet amount;
#X obj 139 199 f;
#X obj 176 199 f;
#X obj 139 178 t b b;
#X obj 139 221 <;
#N canvas 1473 691 290 262 mucks 0;
#X obj 83 9 inlet;
#X obj 83 117 outlet;
#X obj 134 117 outlet;
#X obj 128 9 inlet;
#X obj 83 89 sel 0;
#X obj 83 61 f;
#X floatatom 118 62 5 0 0 0 - - -, f 5;
#X obj 83 31 bng 15 250 50 0 empty empty empty 17 7 0 10 -262144 -1
-1;
#X connect 0 0 7 0;
#X connect 3 0 5 1;
#X connect 3 0 6 0;
#X connect 4 0 1 0;
#X connect 4 1 2 0;
#X connect 5 0 4 0;
#X connect 7 0 5 0;
#X restore 94 158 pd mucks;
#X obj 139 137 > 1;
#X obj 139 248 sel 1;
#X obj 164 292 f;
#X obj 193 293 f;
#X obj 164 314 ==;
#X obj 165 271 t b b;
#X obj 164 336 sel 0;
#X obj 444 41 inlet order;
#X obj 87 424 outlet one;
#X obj 166 425 outlet zero;
#X obj 258 425 outlet next;
#X connect 0 0 8 0;
#X connect 1 0 4 1;
#X connect 1 0 11 1;
#X connect 2 0 5 1;
#X connect 2 0 12 1;
#X connect 3 0 9 0;
#X connect 4 0 7 0;
#X connect 5 0 7 1;
#X connect 6 0 4 0;
#X connect 6 1 5 0;
#X connect 7 0 10 0;
#X connect 8 0 18 0;
#X connect 8 1 6 0;
#X connect 9 0 8 1;
#X connect 10 0 17 0;
#X connect 10 1 14 0;
#X connect 11 0 13 0;
#X connect 12 0 13 1;
#X connect 13 0 15 0;
#X connect 14 0 11 0;
#X connect 14 1 12 0;
#X connect 15 0 18 0;
#X connect 15 1 19 0;
#X connect 16 0 9 1;
#X restore 298 310 pd comp;
#X msg 355 287 2;
#N canvas 873 296 614 536 comp 0;
#X obj 94 41 inlet trigger;
#X obj 215 40 inlet nr1;
#X obj 302 40 inlet nr2;
#X obj 389 40 inlet amount;
#X obj 139 199 f;
#X obj 176 199 f;
#X obj 139 178 t b b;
#X obj 139 221 <;
#N canvas 1473 691 290 262 mucks 0;
#X obj 83 9 inlet;
#X obj 83 117 outlet;
#X obj 134 117 outlet;
#X obj 128 9 inlet;
#X obj 83 89 sel 0;
#X obj 83 61 f;
#X floatatom 118 62 5 0 0 0 - - -, f 5;
#X obj 83 31 bng 15 250 50 0 empty empty empty 17 7 0 10 -262144 -1
-1;
#X connect 0 0 7 0;
#X connect 3 0 5 1;
#X connect 3 0 6 0;
#X connect 4 0 1 0;
#X connect 4 1 2 0;
#X connect 5 0 4 0;
#X connect 7 0 5 0;
#X restore 94 158 pd mucks;
#X obj 139 248 sel 1;
#X obj 164 292 f;
#X obj 193 293 f;
#X obj 164 314 ==;
#X obj 165 271 t b b;
#X obj 164 336 sel 0;
#X obj 484 40 inlet order;
#X obj 87 424 outlet one;
#X obj 166 425 outlet zero;
#X obj 258 425 outlet next;
#X obj 139 137 > 0;
#X connect 0 0 8 0;
#X connect 1 0 4 1;
#X connect 1 0 10 1;
#X connect 2 0 5 1;
#X connect 2 0 11 1;
#X connect 3 0 19 0;
#X connect 4 0 7 0;
#X connect 5 0 7 1;
#X connect 6 0 4 0;
#X connect 6 1 5 0;
#X connect 7 0 9 0;
#X connect 8 0 17 0;
#X connect 8 1 6 0;
#X connect 9 0 16 0;
#X connect 9 1 13 0;
#X connect 10 0 12 0;
#X connect 11 0 12 1;
#X connect 12 0 14 0;
#X connect 13 0 10 0;
#X connect 13 1 11 0;
#X connect 14 0 17 0;
#X connect 14 1 18 0;
#X connect 15 0 19 1;
#X connect 19 0 8 1;
#X restore 119 243 pd comp;
#X obj 119 209 t b f;
#X obj 581 137 bng 15 250 50 0 empty empty empty 17 7 0 10 -262144
-1 -1;
#X obj 581 114 loadbang;
#X msg 581 159 3;
#X connect 0 0 2 0;
#X connect 1 0 3 0;
#X connect 2 0 5 0;
#X connect 2 1 7 0;
#X connect 2 2 9 0;
#X connect 2 3 11 0;
#X connect 3 0 6 0;
#X connect 3 1 8 0;
#X connect 3 2 10 0;
#X connect 3 3 12 0;
#X connect 5 0 21 0;
#X connect 6 0 20 2;
#X connect 7 0 16 1;
#X connect 8 0 16 2;
#X connect 9 0 18 1;
#X connect 10 0 18 2;
#X connect 13 0 4 0;
#X connect 14 0 4 0;
#X connect 15 0 16 3;
#X connect 15 0 18 3;
#X connect 15 0 20 3;
#X connect 16 0 13 0;
#X connect 16 1 14 0;
#X connect 16 2 18 0;
#X connect 17 0 16 4;
#X connect 18 0 13 0;
#X connect 18 1 14 0;
#X connect 18 2 14 0;
#X connect 19 0 18 4;
#X connect 20 0 13 0;
#X connect 20 1 14 0;
#X connect 20 2 16 0;
#X connect 21 0 20 0;
#X connect 21 1 20 1;
#X connect 22 0 17 0;
#X connect 22 0 19 0;
#X connect 23 0 22 0;
#X connect 23 0 24 0;
#X connect 24 0 15 0;
#X restore 336 323 pd compare;
#X msg 336 302 \$3 \$4 \$5;
#X msg 394 302 \$3 \$4 \$5;
#X floatatom 336 345 5 0 0 0 - - -, f 5;
#X obj 336 451 list;
#X obj 410 458 text get \$0-memory;
#X obj 410 412 f;
#X obj 336 386 t b b b;
#X obj 410 500 text set \$0-memory;
#X obj 410 434 t f f;
#X obj 336 521 text set \$0-memory;
#X obj 425 386 t f;
#X obj 355 413 f;
#X obj 278 237 + 1;
#X obj 445 479 + 1;
#X obj 336 365 sel 1;
#X connect 0 0 24 1;
#X connect 1 0 22 1;
#X connect 2 0 3 0;
#X connect 2 0 19 0;
#X connect 2 0 40 0;
#X connect 2 0 38 0;
#X connect 3 0 4 0;
#X connect 4 0 5 0;
#X connect 4 0 11 1;
#X connect 5 1 7 0;
#X connect 6 0 9 0;
#X connect 7 0 6 0;
#X connect 8 0 6 1;
#X connect 9 0 10 0;
#X connect 10 0 14 0;
#X connect 11 0 18 0;
#X connect 12 0 15 0;
#X connect 13 0 16 0;
#X connect 14 0 11 0;
#X connect 14 1 20 0;
#X connect 14 2 13 0;
#X connect 16 0 12 0;
#X connect 16 1 17 0;
#X connect 17 0 15 1;
#X connect 19 0 13 1;
#X connect 19 0 20 1;
#X connect 20 0 18 1;
#X connect 21 0 22 0;
#X connect 21 1 8 0;
#X connect 21 1 29 0;
#X connect 22 0 2 0;
#X connect 23 0 24 0;
#X connect 24 0 21 0;
#X connect 25 0 26 0;
#X connect 25 0 31 1;
#X connect 26 1 28 0;
#X connect 27 0 30 0;
#X connect 28 0 27 0;
#X connect 29 0 27 1;
#X connect 30 0 42 0;
#X connect 31 0 37 0;
#X connect 32 0 35 0;
#X connect 33 0 36 0;
#X connect 34 0 31 0;
#X connect 34 1 39 0;
#X connect 34 2 33 0;
#X connect 36 0 32 0;
#X connect 36 1 41 0;
#X connect 38 0 33 1;
#X connect 38 0 39 1;
#X connect 39 0 37 1;
#X connect 40 0 25 0;
#X connect 41 0 35 1;
#X connect 42 0 34 0;
#X restore 77 141 pd exchange_pos_of_values_in_memory;
#X obj 77 93 t b b a;
#X connect 0 0 3 1;
#X connect 0 0 10 2;
#X connect 1 0 9 0;
#X connect 2 0 7 0;
#X connect 4 0 5 0;
#X connect 5 0 3 0;
#X connect 6 0 11 0;
#X connect 7 0 8 0;
#X connect 7 1 5 1;
#X connect 8 0 4 0;
#X connect 9 0 10 1;
#X connect 9 1 2 1;
#X connect 11 0 10 0;
#X connect 11 1 2 0;
#X connect 11 2 4 1;
#X restore 179 283 pd change_pos;
#N canvas 879 365 578 533 change_len 0;
#X obj 214 54 inlet text_line_nr;
#X obj 143 54 inlet list;
#X obj 77 146 list;
#X obj 77 305 text set \$0-memory;
#X obj 77 237 list append;
#X obj 77 276 list append;
#X obj 77 54 inlet pos;
#X obj 77 171 list split 5;
#X obj 77 93 t b a;
#X msg 110 195 \$4;
#X connect 0 0 3 1;
#X connect 1 0 2 1;
#X connect 2 0 7 0;
#X connect 4 0 5 0;
#X connect 5 0 3 0;
#X connect 6 0 8 0;
#X connect 7 0 4 0;
#X connect 7 1 9 0;
#X connect 8 0 2 0;
#X connect 8 1 4 1;
#X connect 9 0 5 1;
#X restore 210 307 pd change_len;
#X obj 83 27 inlet;
#X obj 83 125 spigot;
#X obj 122 101 tgl 15 0 empty empty empty 17 7 0 10 -262144 -1 -1 1
1;
#X obj 83 49 t a a 1;
#X obj 253 107 route -1;
#X msg 137 81 0;
#X connect 0 0 15 0;
#X connect 1 0 0 0;
#X connect 2 1 3 0;
#X connect 3 0 8 0;
#X connect 4 0 6 1;
#X connect 4 0 7 1;
#X connect 4 0 9 1;
#X connect 4 0 10 1;
#X connect 5 0 4 0;
#X connect 5 1 6 2;
#X connect 5 1 7 2;
#X connect 5 1 9 2;
#X connect 5 1 10 2;
#X connect 8 0 6 0;
#X connect 8 1 7 0;
#X connect 8 2 9 0;
#X connect 8 3 10 0;
#X connect 11 0 14 0;
#X connect 12 0 2 0;
#X connect 13 0 12 1;
#X connect 14 0 12 0;
#X connect 14 1 1 0;
#X connect 14 2 13 0;
#X connect 15 0 16 0;
#X connect 15 1 5 0;
#X connect 16 0 13 0;
#X restore 95 101 pd change;
#X obj 423 107 symbol;
#X symbolatom 423 129 10 0 0 0 - - -, f 10;
#X obj 390 151 symbol;
#X msg 342 271 line 0;
#X obj 315 397 outlet loaded_values;
#X text 225 426 id row pos0 pos1 pos2 len0 len1 len2 vol;
#X obj 315 363 list trim;
#X obj 315 342 list prepend set;
#X msg 137 28 clear;
#X obj 171 283 text define \$0-memory;
#X msg 171 260 clear;
#N canvas 1323 41 461 836 insert_new_item 0;
#X obj 61 17 inlet new_item;
#N canvas 714 144 826 747 compare 0;
#X obj 119 41 inlet list1;
#X obj 298 41 inlet list2;
#X obj 119 88 unpack f f f f;
#X obj 297 92 unpack f f f f;
#X obj 119 608 outlet;
#X floatatom 119 188 5 0 0 0 - - -, f 5;
#X floatatom 157 188 5 0 0 0 - - -, f 5;
#X floatatom 216 188 5 0 0 0 - - -, f 5;
#X floatatom 253 188 5 0 0 0 - - -, f 5;
#X floatatom 312 188 5 0 0 0 - - -, f 5;
#X floatatom 349 188 5 0 0 0 - - -, f 5;
#X floatatom 412 188 5 0 0 0 - - -, f 5;
#X floatatom 449 188 5 0 0 0 - - -, f 5;
#X msg 119 565 1;
#X msg 162 565 0;
#X floatatom 580 186 5 0 0 0 - - -, f 5;
#N canvas 2994 267 614 490 comp 0;
#X obj 94 41 inlet trigger;
#X obj 195 41 inlet nr1;
#X obj 272 41 inlet nr2;
#X obj 349 41 inlet amount;
#X obj 139 199 f;
#X obj 176 199 f;
#X obj 139 178 t b b;
#X obj 139 221 <;
#N canvas 1473 691 290 262 mucks 0;
#X obj 83 9 inlet;
#X obj 83 117 outlet;
#X obj 134 117 outlet;
#X obj 128 9 inlet;
#X obj 83 89 sel 0;
#X obj 83 61 f;
#X floatatom 118 62 5 0 0 0 - - -, f 5;
#X obj 83 31 bng 15 250 50 0 empty empty empty 17 7 0 10 -262144 -1
-1;
#X connect 0 0 7 0;
#X connect 3 0 5 1;
#X connect 3 0 6 0;
#X connect 4 0 1 0;
#X connect 4 1 2 0;
#X connect 5 0 4 0;
#X connect 7 0 5 0;
#X restore 94 158 pd mucks;
#X obj 139 137 > 1;
#X obj 139 248 sel 1;
#X obj 164 292 f;
#X obj 193 293 f;
#X obj 164 314 ==;
#X obj 165 271 t b b;
#X obj 164 336 sel 0;
#X obj 444 41 inlet order;
#X obj 87 424 outlet one;
#X obj 166 425 outlet zero;
#X obj 258 425 outlet next;
#X connect 0 0 8 0;
#X connect 1 0 4 1;
#X connect 1 0 11 1;
#X connect 2 0 5 1;
#X connect 2 0 12 1;
#X connect 3 0 9 0;
#X connect 4 0 7 0;
#X connect 5 0 7 1;
#X connect 6 0 4 0;
#X connect 6 1 5 0;
#X connect 7 0 10 0;
#X connect 8 0 18 0;
#X connect 8 1 6 0;
#X connect 9 0 8 1;
#X connect 10 0 17 0;
#X connect 10 1 14 0;
#X connect 11 0 13 0;
#X connect 12 0 13 1;
#X connect 13 0 15 0;
#X connect 14 0 11 0;
#X connect 14 1 12 0;
#X connect 15 0 18 0;
#X connect 15 1 19 0;
#X connect 16 0 9 1;
#X restore 202 275 pd comp;
#X msg 258 247 1;
#N canvas 1233 401 614 559 comp 0;
#X obj 94 41 inlet trigger;
#X obj 195 41 inlet nr1;
#X obj 272 41 inlet nr2;
#X obj 349 41 inlet amount;
#X obj 139 199 f;
#X obj 176 199 f;
#X obj 139 178 t b b;
#X obj 139 221 <;
#N canvas 1473 691 290 262 mucks 0;
#X obj 83 9 inlet;
#X obj 83 117 outlet;
#X obj 134 117 outlet;
#X obj 128 9 inlet;
#X obj 83 89 sel 0;
#X obj 83 61 f;
#X floatatom 118 62 5 0 0 0 - - -, f 5;
#X obj 83 31 bng 15 250 50 0 empty empty empty 17 7 0 10 -262144 -1
-1;
#X connect 0 0 7 0;
#X connect 3 0 5 1;
#X connect 3 0 6 0;
#X connect 4 0 1 0;
#X connect 4 1 2 0;
#X connect 5 0 4 0;
#X connect 7 0 5 0;
#X restore 94 158 pd mucks;
#X obj 139 137 > 1;
#X obj 139 248 sel 1;
#X obj 164 292 f;
#X obj 193 293 f;
#X obj 164 314 ==;
#X obj 165 271 t b b;
#X obj 164 336 sel 0;
#X obj 444 41 inlet order;
#X obj 87 424 outlet one;
#X obj 166 425 outlet zero;
#X obj 258 425 outlet next;
#X connect 0 0 8 0;
#X connect 1 0 4 1;
#X connect 1 0 11 1;
#X connect 2 0 5 1;
#X connect 2 0 12 1;
#X connect 3 0 9 0;
#X connect 4 0 7 0;
#X connect 5 0 7 1;
#X connect 6 0 4 0;
#X connect 6 1 5 0;
#X connect 7 0 10 0;
#X connect 8 0 18 0;
#X connect 8 1 6 0;
#X connect 9 0 8 1;
#X connect 10 0 17 0;
#X connect 10 1 14 0;
#X connect 11 0 13 0;
#X connect 12 0 13 1;
#X connect 13 0 15 0;
#X connect 14 0 11 0;
#X connect 14 1 12 0;
#X connect 15 0 18 0;
#X connect 15 1 19 0;
#X connect 16 0 9 1;
#X restore 298 310 pd comp;
#X msg 355 287 2;
#N canvas 873 296 614 536 comp 0;
#X obj 94 41 inlet trigger;
#X obj 215 40 inlet nr1;
#X obj 302 40 inlet nr2;
#X obj 389 40 inlet amount;
#X obj 139 199 f;
#X obj 176 199 f;
#X obj 139 178 t b b;
#X obj 139 221 <;
#N canvas 1473 691 290 262 mucks 0;
#X obj 83 9 inlet;
#X obj 83 117 outlet;
#X obj 134 117 outlet;
#X obj 128 9 inlet;
#X obj 83 89 sel 0;
#X obj 83 61 f;
#X floatatom 118 62 5 0 0 0 - - -, f 5;
#X obj 83 31 bng 15 250 50 0 empty empty empty 17 7 0 10 -262144 -1
-1;
#X connect 0 0 7 0;
#X connect 3 0 5 1;
#X connect 3 0 6 0;
#X connect 4 0 1 0;
#X connect 4 1 2 0;
#X connect 5 0 4 0;
#X connect 7 0 5 0;
#X restore 94 158 pd mucks;
#X obj 139 248 sel 1;
#X obj 164 292 f;
#X obj 193 293 f;
#X obj 164 314 ==;
#X obj 165 271 t b b;
#X obj 164 336 sel 0;
#X obj 484 40 inlet order;
#X obj 87 424 outlet one;
#X obj 166 425 outlet zero;
#X obj 258 425 outlet next;
#X obj 139 137 > 0;
#X connect 0 0 8 0;
#X connect 1 0 4 1;
#X connect 1 0 10 1;
#X connect 2 0 5 1;
#X connect 2 0 11 1;
#X connect 3 0 19 0;
#X connect 4 0 7 0;
#X connect 5 0 7 1;
#X connect 6 0 4 0;
#X connect 6 1 5 0;
#X connect 7 0 9 0;
#X connect 8 0 17 0;
#X connect 8 1 6 0;
#X connect 9 0 16 0;
#X connect 9 1 13 0;
#X connect 10 0 12 0;
#X connect 11 0 12 1;
#X connect 12 0 14 0;
#X connect 13 0 10 0;
#X connect 13 1 11 0;
#X connect 14 0 17 0;
#X connect 14 1 18 0;
#X connect 15 0 19 1;
#X connect 19 0 8 1;
#X restore 119 243 pd comp;
#X obj 119 209 t b f;
#X obj 581 137 bng 15 250 50 0 empty empty empty 17 7 0 10 -262144
-1 -1;
#X obj 581 114 loadbang;
#X msg 581 159 3;
#X connect 0 0 2 0;
#X connect 1 0 3 0;
#X connect 2 0 5 0;
#X connect 2 1 7 0;
#X connect 2 2 9 0;
#X connect 2 3 11 0;
#X connect 3 0 6 0;
#X connect 3 1 8 0;
#X connect 3 2 10 0;
#X connect 3 3 12 0;
#X connect 5 0 21 0;
#X connect 6 0 20 2;
#X connect 7 0 16 1;
#X connect 8 0 16 2;
#X connect 9 0 18 1;
#X connect 10 0 18 2;
#X connect 13 0 4 0;
#X connect 14 0 4 0;
#X connect 15 0 16 3;
#X connect 15 0 18 3;
#X connect 15 0 20 3;
#X connect 16 0 13 0;
#X connect 16 1 14 0;
#X connect 16 2 18 0;
#X connect 17 0 16 4;
#X connect 18 0 13 0;
#X connect 18 1 14 0;
#X connect 18 2 14 0;
#X connect 19 0 18 4;
#X connect 20 0 13 0;
#X connect 20 1 14 0;
#X connect 20 2 16 0;
#X connect 21 0 20 0;
#X connect 21 1 20 1;
#X connect 22 0 17 0;
#X connect 22 0 19 0;
#X connect 23 0 22 0;
#X connect 23 0 24 0;
#X connect 24 0 15 0;
#X restore 154 372 pd compare;
#X floatatom 154 393 5 0 0 0 - - -, f 5;
#X obj 127 269 text sequence \$0-memory;
#X msg 154 243 line 0;
#X obj 127 221 t b b;
#X obj 154 455 list;
#X obj 154 476 list trim;
#X obj 112 747 text set \$0-memory;
#X msg 147 722 1500;
#X obj 147 699 loadbang;
#X obj 219 240 text define \$0-txt_tmp;
#X msg 162 527 1500;
#X obj 162 504 loadbang;
#X obj 127 552 text set \$0-txt_tmp;
#X msg 220 219 clear;
#X obj 154 330 spigot;
#X obj 154 434 t b 0;
#X floatatom 187 309 5 0 0 0 - - -, f 5;
#X obj 127 291 t a a a;
#X obj 154 413 sel 0;
#X msg 149 602 clear;
#X obj 149 624 s \$0-memory;
#X msg 129 649 line 0;
#X obj 112 670 text sequence \$0-txt_tmp;
#X obj 112 167 t b b a a 1 b;
#X obj 112 65 text size \$0-memory;
#X floatatom 112 85 5 0 0 0 - - -, f 5;
#X obj 112 104 > 0;
#X obj 61 126 demux . .;
#X obj 61 39 t a b;
#X obj 112 578 t b b b b;
#X floatatom 344 452 5 0 0 0 - - -, f 5;
#X obj 328 517 list;
#X obj 328 473 f;
#X obj 328 495 sel 1;
#X msg 154 351 \$3 \$4 \$5;
#X msg 212 351 \$3 \$4 \$5;
#X connect 0 0 30 0;
#X connect 1 0 2 0;
#X connect 2 0 20 0;
#X connect 3 0 19 0;
#X connect 4 0 3 0;
#X connect 5 0 3 0;
#X connect 5 1 4 0;
#X connect 6 0 7 0;
#X connect 7 0 14 0;
#X connect 9 0 8 1;
#X connect 10 0 9 0;
#X connect 12 0 14 1;
#X connect 13 0 12 0;
#X connect 15 0 11 0;
#X connect 16 0 36 0;
#X connect 17 0 6 0;
#X connect 17 1 18 0;
#X connect 18 0 16 1;
#X connect 18 0 32 0;
#X connect 19 0 14 0;
#X connect 19 1 16 0;
#X connect 20 0 17 0;
#X connect 21 0 22 0;
#X connect 23 0 24 0;
#X connect 24 0 8 0;
#X connect 25 0 31 0;
#X connect 25 1 5 0;
#X connect 25 2 37 0;
#X connect 25 3 6 1;
#X connect 25 3 33 1;
#X connect 25 4 18 0;
#X connect 25 5 15 0;
#X connect 26 0 27 0;
#X connect 27 0 28 0;
#X connect 28 0 29 1;
#X connect 29 0 8 0;
#X connect 29 1 25 0;
#X connect 30 0 29 0;
#X connect 30 1 26 0;
#X connect 31 0 24 0;
#X connect 31 1 23 0;
#X connect 31 2 21 0;
#X connect 31 3 34 0;
#X connect 32 0 34 1;
#X connect 33 0 14 0;
#X connect 34 0 35 0;
#X connect 35 0 33 0;
#X connect 36 0 1 0;
#X connect 37 0 1 1;
#X restore 84 204 pd insert_new_item;
#X obj 315 297 text sequence \$0-memory;
#X obj 390 201 symbol;
#X msg 390 221 read presets/\$1.txt;
#X obj 315 248 t b b;
#X obj 315 161 t b b;
#X obj 442 340 loadbang;
#X msg 442 362 dollar_null \$0;
#X msg 57 326 size_change;
#X obj 57 173 t b a;
#X obj 133 129 t b a;
#X obj 171 231 t b a;
#N canvas 157 355 606 635 save 0;
#X obj 118 176 text define \$0-mem_temp;
#X obj 118 55 inlet symbol;
#X msg 118 119 write presets/\$1.txt;
#X msg 382 154 line 0;
#X obj 355 180 text sequence \$0-memory;
#X obj 355 131 t b b;
#X obj 355 232 math/list_sort;
#X scalar text 327 206 \; \;;
#X obj 506 182 loadbang;
#X msg 506 204 3;
#X msg 316 204 sort;
#X obj 355 280 t a b;
#X obj 383 306 f;
#X obj 415 307 + 1;
#X obj 318 106 t b b 0;
#X obj 355 332 list prepend;
#X obj 355 412 text set \$0-mem_temp;
#X obj 395 367 loadbang;
#X msg 395 389 10000;
#X obj 118 87 t a b b;
#X msg 157 146 clear;
#X msg 355 204 \$3 \$4 \$5 \$6 \$7 \$8 \$9 \$2;
#X msg 355 256 \$8 \$1 \$2 \$3 \$4 \$5 \$6 \$7;
#X connect 1 0 19 0;
#X connect 2 0 0 0;
#X connect 3 0 4 0;
#X connect 4 0 21 0;
#X connect 5 0 4 0;
#X connect 5 1 3 0;
#X connect 6 0 22 0;
#X connect 8 0 9 0;
#X connect 9 0 6 1;
#X connect 10 0 6 0;
#X connect 11 0 15 0;
#X connect 11 1 12 0;
#X connect 12 0 13 0;
#X connect 12 0 15 1;
#X connect 13 0 12 1;
#X connect 14 0 10 0;
#X connect 14 1 5 0;
#X connect 14 2 12 1;
#X connect 15 0 16 0;
#X connect 17 0 18 0;
#X connect 18 0 16 1;
#X connect 19 0 2 0;
#X connect 19 1 14 0;
#X connect 19 2 20 0;
#X connect 20 0 0 0;
#X connect 21 0 6 0;
#X connect 22 0 11 0;
#X restore 390 174 pd save;
#X connect 0 0 3 0;
#X connect 2 0 1 0;
#X connect 3 0 25 0;
#X connect 3 1 4 0;
#X connect 3 2 26 0;
#X connect 3 3 27 0;
#X connect 3 4 7 0;
#X connect 3 5 21 0;
#X connect 3 6 5 0;
#X connect 5 0 6 0;
#X connect 6 0 7 1;
#X connect 6 0 18 1;
#X connect 7 0 28 0;
#X connect 8 0 17 0;
#X connect 11 0 9 0;
#X connect 12 0 11 0;
#X connect 13 0 3 0;
#X connect 15 0 14 0;
#X connect 17 0 12 0;
#X connect 17 1 24 0;
#X connect 18 0 19 0;
#X connect 19 0 14 0;
#X connect 20 0 17 0;
#X connect 20 1 8 0;
#X connect 21 0 20 0;
#X connect 21 1 18 0;
#X connect 22 0 23 0;
#X connect 23 0 9 0;
#X connect 24 0 9 0;
#X connect 25 0 24 0;
#X connect 25 1 16 0;
#X connect 26 0 24 0;
#X connect 26 1 2 0;
#X connect 27 0 24 0;
#X connect 27 1 15 0;
#X restore 327 195 pd memory;
#X obj 73 253 player/sequencer_player;
#X obj 140 164 gui/sequencer_gui;
#N canvas 2915 100 649 794 calc_position_pointer 0;
#X obj 147 62 inlet;
#X obj 221 223 tgl 15 0 empty empty empty 17 7 0 10 -262144 -1 -1 0
1;
#X floatatom 147 163 5 0 0 0 - - -, f 5;
#X floatatom 184 163 5 0 0 0 - - -, f 5;
#X floatatom 221 163 5 0 0 0 - - -, f 5;
#X floatatom 258 163 5 0 0 0 - - -, f 5;
#X obj 220 262 metro;
#X obj 248 230 /;
#X floatatom 298 209 5 1 50 0 - - -, f 5;
#X obj 77 218 - 1;
#X floatatom 78 260 5 0 0 0 - - -, f 5;
#X obj 77 240 * 100;
#X obj 78 281 +;
#X floatatom 293 164 5 0 0 2 micro - -, f 5;
#X obj 122 235 * 100;
#X obj 122 216 - 1;
#X obj 122 257 /;
#X floatatom 78 303 5 0 0 0 - - -, f 5;
#X obj 173 710 outlet pos;
#X msg 176 686 pos_pointer pos \$1 0;
#X obj 177 606 *;
#X obj 220 320 f;
#X obj 247 321 + 1;
#X floatatom 220 342 5 0 0 0 - - -, f 5;
#X msg 171 287 0;
#X obj 184 184 t f b;
#X obj 353 265 expr 100 / $f1;
#X floatatom 353 287 5 0 0 0 - - -, f 5;
#X obj 353 308 /;
#X floatatom 353 330 5 0 0 0 - - -, f 5;
#X obj 220 363 *;
#X floatatom 220 385 5 0 0 0 - - -, f 5;
#X obj 177 496 +;
#X obj 177 660 min 1599;
#X obj 371 61 inlet on;
#X obj 147 84 spigot;
#X obj 371 83 t f f;
#X floatatom 271 259 5 0 0 0 - - -, f 5;
#X obj 373 187 loadbang;
#X msg 373 209 32;
#X obj 208 546 r \$0-scale;
#X floatatom 208 568 5 0 0 0 - - -, f 5;
#X obj 147 136 unpack f f f f f f;
#X floatatom 330 164 5 0 0 2 bars - -, f 5;
#X obj 177 518 *;
#X obj 177 638 max 2;
#X obj 210 495 /;
#X connect 0 0 35 0;
#X connect 1 0 6 0;
#X connect 2 0 9 0;
#X connect 3 0 25 0;
#X connect 4 0 7 0;
#X connect 5 0 1 0;
#X connect 6 0 21 0;
#X connect 7 0 6 1;
#X connect 7 0 37 0;
#X connect 8 0 7 1;
#X connect 8 0 28 1;
#X connect 9 0 11 0;
#X connect 10 0 12 0;
#X connect 11 0 10 0;
#X connect 12 0 17 0;
#X connect 13 0 16 1;
#X connect 13 0 26 0;
#X connect 13 0 46 0;
#X connect 14 0 16 0;
#X connect 15 0 14 0;
#X connect 16 0 12 1;
#X connect 17 0 32 1;
#X connect 19 0 18 0;
#X connect 20 0 45 0;
#X connect 21 0 22 0;
#X connect 21 0 23 0;
#X connect 22 0 21 1;
#X connect 23 0 30 0;
#X connect 24 0 21 1;
#X connect 25 0 15 0;
#X connect 25 1 24 0;
#X connect 26 0 27 0;
#X connect 27 0 28 0;
#X connect 28 0 29 0;
#X connect 29 0 30 1;
#X connect 30 0 31 0;
#X connect 31 0 32 0;
#X connect 32 0 44 0;
#X connect 33 0 19 0;
#X connect 34 0 36 0;
#X connect 35 0 42 0;
#X connect 36 0 1 0;
#X connect 36 1 35 1;
#X connect 38 0 39 0;
#X connect 39 0 8 0;
#X connect 40 0 41 0;
#X connect 41 0 20 1;
#X connect 42 0 2 0;
#X connect 42 1 3 0;
#X connect 42 2 4 0;
#X connect 42 3 5 0;
#X connect 42 4 13 0;
#X connect 42 5 43 0;
#X connect 43 0 46 1;
#X connect 44 0 20 0;
#X connect 45 0 33 0;
#X connect 46 0 44 1;
#X restore 324 253 pd calc_position_pointer;
#X obj 464 229 tgl 15 0 empty empty empty 17 7 0 10 -262144 -1 -1 1
1;
#X obj 140 98 inlet gui;
#X obj 208 98 inlet player;
#X obj 327 98 inlet memory;
#X obj 464 98 inlet pointer;
#X obj 73 326 outlet;
#X obj 73 67 inlet metronome;
#X obj 156 309 s \$0-scale;
#X obj 156 287 route scale;
#N canvas 272 400 450 300 \$0-midi 0;
#X obj 125 94 midi/midi-recorder;
#X restore 535 186 pd \$0-midi;
#X connect 0 0 1 2;
#X connect 0 0 2 0;
#X connect 1 0 9 0;
#X connect 1 1 3 0;
#X connect 2 0 0 0;
#X connect 2 0 1 1;
#X connect 2 0 12 0;
#X connect 3 0 2 0;
#X connect 4 0 3 1;
#X connect 5 0 2 0;
#X connect 7 0 0 0;
#X connect 8 0 4 0;
#X connect 10 0 1 0;
#X connect 12 0 11 0;
