#N canvas 562 50 1123 823 10;
#X obj 240 16 cnv 15 470 149 empty empty Remote 20 12 0 14 -256605
-66577 0;
#X obj 173 546 cnv 15 353 140 empty empty One_Preset 20 12 0 14 -233017
-66577 0;
#X obj 759 99 cnv 15 324 592 empty empty Definitions 20 12 0 14 -225266
-66577 0;
#X obj 28 392 cnv 15 699 132 empty empty Actions 20 12 0 14 -262130
-66577 0;
#X obj 361 223 cnv 15 176 99 empty empty empty 32 19 0 20 -228856 -66577
0;
#N canvas 1323 144 420 583 banks 0;
#X obj 165 215 cnv 15 113 65 empty empty empty 20 12 0 14 -228856 -66577
0;
#X obj 169 220 hradio 15 0 0 7 empty empty empty 0 -8 0 10 -262144
-1 -1 0;
#X obj 169 239 hradio 15 0 0 7 empty empty empty 0 -8 0 10 -262144
-1 -1 0;
#X symbolatom 169 258 15 0 0 0 - - -, f 15;
#X obj 92 350 t b f;
#X obj 62 398 +;
#X obj 62 471 outlet nummer;
#X obj 312 114 inlet name;
#X obj 169 471 outlet name;
#X obj 52 37 inlet nr;
#X floatatom 52 164 5 0 0 0 - - -, f 5;
#X floatatom 169 163 5 0 0 0 - - -, f 5;
#X floatatom 62 419 5 0 0 0 - - -, f 5;
#X msg 52 184 set \$1;
#X msg 169 184 set \$1;
#X msg 312 136 set \$1;
#X msg 309 221 set \$1;
#X msg 310 198 symbol;
#X obj 310 175 loadbang;
#X obj 110 65 v \$0-amount-banks;
#X obj 169 89 v \$0-amount-presets-per-bank;
#X obj 52 113 expr $f1 % $f2 \; int($f1 / $f3) \;, f 20;
#X obj 138 18 loadbang;
#X obj 62 351 *;
#X obj 77 327 v \$0-amount-banks;
#X obj 138 40 del 10;
#X connect 1 0 23 0;
#X connect 2 0 4 0;
#X connect 3 0 8 0;
#X connect 4 0 5 0;
#X connect 4 1 5 1;
#X connect 5 0 12 0;
#X connect 7 0 15 0;
#X connect 9 0 21 0;
#X connect 10 0 13 0;
#X connect 11 0 14 0;
#X connect 12 0 6 0;
#X connect 13 0 2 0;
#X connect 14 0 1 0;
#X connect 15 0 3 0;
#X connect 16 0 3 0;
#X connect 17 0 16 0;
#X connect 18 0 17 0;
#X connect 19 0 21 1;
#X connect 20 0 21 2;
#X connect 21 0 10 0;
#X connect 21 1 11 0;
#X connect 22 0 25 0;
#X connect 23 0 5 0;
#X connect 24 0 23 1;
#X connect 25 0 19 0;
#X connect 25 0 20 0;
#X connect 25 0 24 0;
#X coords 0 -1 1 1 113 63 2 165 215;
#X restore 364 227 pd banks;
#X obj 487 229 bng 15 250 50 0 \$0-write-preset empty write 17 7 0
10 -262144 -1 -1;
#X msg 780 466 clear;
#X obj 780 491 text define \$0-props-temp;
#X obj 780 443 r \$0-clear-props-temp;
#X symbolatom 364 302 21 0 0 0 - - -, f 21;
#X obj 487 283 bng 15 250 50 0 \$0-load-preset empty load 17 7 0 10
-262144 -1 -1;
#X obj 262 46 inlet remote;
#X obj 487 265 bng 15 250 50 0 \$0-paste-preset empty paste 17 7 0
10 -262144 -1 -1;
#X msg 780 551 clear;
#X obj 780 576 text define \$0-props-clipboard;
#X obj 780 528 r \$0-clear-clipboard;
#X obj 487 247 bng 15 250 50 0 \$0-copy-preset empty copy 17 7 0 10
-262144 -1 -1;
#X obj 262 68 route nr write_to_preset copy_preset load_preset preset-name
textfile, f 70;
#X msg 270 226 set \$1;
#X obj 331 90 s \$0-write-preset;
#X obj 401 111 s \$0-copy-preset;
#X obj 470 90 s \$0-load-preset;
#X obj 87 28 inlet props;
#X obj 781 197 text define \$0-current-preset-name;
#X obj 780 318 text define \$0-current-filename;
#X obj 262 90 s \$0-nr;
#X obj 364 200 r \$0-nr;
#X obj 835 351 nbx 5 14 0 1 0 1 empty empty empty 0 -8 0 10 -262144
-1 -1 0 256;
#X obj 780 391 text set \$0-current-filename;
#X obj 364 330 s \$0-filename;
#X obj 609 113 s \$0-filename;
#X obj 270 203 r \$0-filename;
#X obj 209 333 s \$0-nr;
#X obj 780 368 r \$0-filename;
#X obj 842 221 nbx 5 14 0 1 0 1 empty empty empty 0 -8 0 10 -262144
-1 -1 0 256;
#X obj 781 261 text set \$0-current-preset-name;
#X obj 781 238 r \$0-preset-name;
#X obj 780 657 v \$0-current-preset-nr;
#X obj 780 635 r \$0-nr;
#X obj 153 728 outlet set-preset;
#X obj 279 728 outlet get props from surface;
#X obj 480 728 outlet clicked;
#X obj 259 333 s \$0-pre-change;
#X obj 209 305 t f b;
#X obj 480 706 r \$0-pre-change;
#N canvas 83 202 807 772 write-to-preset 0;
#X obj 52 16 inlet bang;
#X obj 621 15 inlet props;
#X obj 358 157 bng 15 250 50 0 empty empty empty 17 7 0 10 -262144
-1 -1;
#X obj 358 177 t b b b b;
#X obj 246 678 outlet props;
#X obj 664 336 loadbang;
#X msg 664 361 1e+006;
#X obj 621 316 list;
#X obj 621 388 text set \$0-props-temp;
#X obj 621 286 spigot;
#X msg 674 233 1;
#X obj 676 260 nbx 2 14 0 1 0 1 empty empty empty 0 -8 0 11 -262144
-1 -1 0 256;
#X obj 418 226 s \$0-clear-props-temp;
#X obj 392 299 s \$0-get-props-from-surface;
#X obj 315 516 v \$0-current-preset-nr;
#X obj 409 274 s \$0-clear-one-preset;
#X obj 409 251 v \$0-current-preset-nr;
#X obj 52 38 t b b;
#X obj 188 433 text sequence \$0-props-temp;
#X obj 394 376 text get \$0-current-preset-name;
#X obj 394 398 sel bang;
#X obj 375 457 list prepend preset-name;
#X obj 375 432 list;
#X obj 375 340 t b 0 b;
#X obj 246 538 list prepend;
#X obj 188 373 t b b;
#X msg 227 403 line 0;
#X msg 188 403 auto;
#X obj 53 678 outlet trigger-write-to-disk;
#X connect 0 0 17 0;
#X connect 1 0 9 0;
#X connect 2 0 3 0;
#X connect 3 0 25 0;
#X connect 3 1 23 0;
#X connect 3 1 11 0;
#X connect 3 2 13 0;
#X connect 3 3 12 0;
#X connect 3 3 10 0;
#X connect 3 3 16 0;
#X connect 3 3 14 0;
#X connect 5 0 6 0;
#X connect 6 0 8 1;
#X connect 7 0 8 0;
#X connect 9 0 7 0;
#X connect 10 0 9 1;
#X connect 11 0 9 1;
#X connect 14 0 24 1;
#X connect 16 0 15 0;
#X connect 17 0 28 0;
#X connect 17 1 2 0;
#X connect 18 0 24 0;
#X connect 19 0 20 0;
#X connect 20 1 22 1;
#X connect 21 0 24 0;
#X connect 22 0 21 0;
#X connect 23 0 22 0;
#X connect 23 1 19 0;
#X connect 23 2 22 1;
#X connect 24 0 4 0;
#X connect 25 0 27 0;
#X connect 25 1 26 0;
#X connect 26 0 18 0;
#X connect 27 0 18 0;
#X restore 48 442 pd write-to-preset;
#N canvas 935 184 499 423 copy-preset 0;
#X obj 42 23 inlet bang;
#X obj 42 118 bng 15 250 50 0 empty empty empty 17 7 0 10 -262144 -1
-1;
#X obj 89 219 s \$0-clear-clipboard;
#X obj 42 138 t b b b b b;
#X obj 73 290 list prepend preset-name;
#X msg 73 246 0;
#X obj 328 320 loadbang;
#X msg 328 345 1e+006;
#X obj 275 346 list;
#X obj 275 321 spigot;
#X obj 317 295 nbx 1 16 0 1 0 1 empty empty empty 0 -8 0 12 -262144
-1 -1 0 256;
#X msg 308 270 1;
#X obj 275 372 text set \$0-props-clipboard;
#X obj 73 268 text get \$0-current-preset-name;
#X obj 275 23 inlet props from surface;
#X obj 57 321 s \$0-get-props-from-surface;
#X connect 0 0 1 0;
#X connect 1 0 3 0;
#X connect 3 0 10 0;
#X connect 3 1 15 0;
#X connect 3 2 5 0;
#X connect 3 3 2 0;
#X connect 3 4 11 0;
#X connect 4 0 9 0;
#X connect 5 0 13 0;
#X connect 6 0 7 0;
#X connect 7 0 12 1;
#X connect 8 0 12 0;
#X connect 9 0 8 0;
#X connect 10 0 9 1;
#X connect 11 0 9 1;
#X connect 13 0 4 0;
#X connect 14 0 9 0;
#X restore 198 442 pd copy-preset;
#N canvas 283 370 410 371 change-preset 0;
#X obj 58 47 inlet preset-nr;
#X obj 58 162 r \$0-one-preset-out;
#X obj 77 100 s \$0-get-one-preset;
#X obj 58 192 spigot;
#X obj 58 285 outlet preset to outlet;
#X obj 248 209 list split 1;
#X obj 248 231 list trim;
#X obj 248 253 route preset-name;
#X obj 248 302 s \$0-preset-name;
#X obj 248 275 symbol;
#X obj 247 164 s \$0-preset-name;
#X msg 247 138 symbol;
#X obj 58 231 list split 1;
#X obj 58 257 list trim;
#X msg 118 136 1;
#X msg 78 135 0;
#X obj 58 69 t b f b;
#X connect 0 0 16 0;
#X connect 1 0 3 0;
#X connect 3 0 5 0;
#X connect 3 0 12 0;
#X connect 5 1 6 0;
#X connect 6 0 7 0;
#X connect 7 0 9 0;
#X connect 9 0 8 0;
#X connect 11 0 10 0;
#X connect 12 1 13 0;
#X connect 13 0 4 0;
#X connect 14 0 3 1;
#X connect 15 0 3 1;
#X connect 16 0 15 0;
#X connect 16 1 2 0;
#X connect 16 2 11 0;
#X connect 16 2 14 0;
#X restore 458 442 pd change-preset;
#N canvas 256 207 580 490 write-to-disk 0;
#X obj 101 23 inlet bang;
#X obj 101 62 bng 15 250 50 0 empty empty empty 17 7 0 10 -262144 -1
-1;
#X obj 409 317 loadbang;
#X msg 409 342 1e+006;
#X obj 368 297 list;
#X msg 163 167 clear;
#X obj 162 372 text define \$0-all-props;
#X obj 368 369 text set \$0-all-props;
#X msg 120 167 25;
#X obj 120 190 patches/schleife;
#X obj 101 254 text get \$0-current-filename;
#X obj 120 213 s \$0-get-one-preset;
#X obj 368 120 r \$0-one-preset-out;
#X obj 368 231 spigot;
#X obj 410 192 nbx 1 16 0 1 0 1 empty empty empty 0 -8 0 12 -262144
-1 -1 0 256;
#X msg 401 167 1;
#X msg 101 278 write presets/\$1;
#X obj 101 81 t b b b;
#X msg 101 233 0;
#X connect 0 0 1 0;
#X connect 1 0 17 0;
#X connect 2 0 3 0;
#X connect 3 0 7 1;
#X connect 4 0 7 0;
#X connect 5 0 6 0;
#X connect 8 0 9 0;
#X connect 9 0 11 0;
#X connect 10 0 16 0;
#X connect 12 0 13 0;
#X connect 13 0 4 0;
#X connect 14 0 13 1;
#X connect 15 0 13 1;
#X connect 16 0 6 0;
#X connect 17 0 14 0;
#X connect 17 0 18 0;
#X connect 17 1 8 0;
#X connect 17 2 5 0;
#X connect 17 2 15 0;
#X connect 18 0 10 0;
#X restore 48 485 pd write-to-disk;
#N canvas 197 401 701 497 load-from-disk 1;
#X obj 189 23 inlet bang;
#X obj 189 67 bng 15 250 50 0 empty empty empty 17 7 0 10 -262144 -1
-1;
#X msg 139 332 line 0;
#X msg 100 333 auto;
#X obj 100 405 outlet;
#X obj 100 277 spigot;
#X obj 100 303 t b b b, f 9;
#X obj 208 289 patches/schleife;
#X obj 375 244 symbol;
#X obj 375 303 text define \$0-textfile-on-disk;
#X obj 100 368 text sequence \$0-textfile-on-disk;
#X obj 123 206 text size \$0-textfile-on-disk;
#X obj 375 175 text get \$0-current-filename;
#X obj 208 313 s \$0-clear-one-preset;
#X obj 189 87 t b b 0;
#X msg 375 197 presets/\$1;
#X msg 375 266 read \$1;
#X obj 123 239 > 1;
#X obj 440 73 v \$0-amount-banks;
#X obj 412 100 v \$0-amount-presets-per-bank;
#X obj 412 52 t b b;
#X obj 412 127 *;
#X obj 469 27 bng 15 250 50 0 empty empty empty 17 7 0 10 -262144 -1
-1;
#X obj 412 5 loadbang;
#X floatatom 208 251 5 0 0 0 - - -, f 5;
#X obj 412 27 pipe 10;
#X msg 376 154 0;
#X obj 77 182 t b b b;
#X obj 34 276 s \$0-nr;
#X msg 34 252 0;
#X obj 34 229 pipe 15;
#X connect 0 0 1 0;
#X connect 1 0 14 0;
#X connect 2 0 10 0;
#X connect 3 0 10 0;
#X connect 5 0 6 0;
#X connect 6 0 3 0;
#X connect 6 1 2 0;
#X connect 7 0 13 0;
#X connect 8 0 16 0;
#X connect 10 0 4 0;
#X connect 11 0 17 0;
#X connect 12 0 15 0;
#X connect 14 0 27 0;
#X connect 14 1 24 0;
#X connect 14 2 26 0;
#X connect 15 0 8 0;
#X connect 16 0 9 0;
#X connect 17 0 5 1;
#X connect 18 0 21 1;
#X connect 19 0 21 0;
#X connect 20 0 19 0;
#X connect 20 1 18 0;
#X connect 21 0 24 0;
#X connect 22 0 20 0;
#X connect 23 0 25 0;
#X connect 24 0 7 0;
#X connect 25 0 20 0;
#X connect 26 0 12 0;
#X connect 27 0 30 0;
#X connect 27 1 5 0;
#X connect 27 2 11 0;
#X connect 29 0 28 0;
#X connect 30 0 29 0;
#X restore 590 442 pd load-from-disk;
#X obj 198 421 r \$0-copy-preset;
#X obj 48 422 r \$0-write-preset;
#X obj 279 706 r \$0-get-props-from-surface;
#X obj 272 601 r \$0-clear-one-preset;
#X obj 352 580 r \$0-get-one-preset;
#X obj 193 580 r \$0-set-one-preset;
#X obj 470 330 s \$0-preset-name;
#X obj 54 464 s \$0-set-one-preset;
#X obj 540 133 s \$0-preset-name;
#X obj 193 644 s \$0-one-preset-out;
#X obj 114 204 loadbang;
#X msg 114 226 set default_presets.txt;
#X msg 893 368 symbol default_presets.txt;
#N canvas 1002 98 426 568 paste-preset 0;
#X obj 109 395 list prepend;
#X obj 109 425 outlet props;
#X obj 90 35 inlet bang;
#X obj 163 245 s \$0-clear-one-preset;
#X obj 163 219 v \$0-current-preset-nr;
#X obj 90 62 t b b;
#X obj 90 131 spigot;
#X obj 117 106 > 0;
#X obj 117 85 text size \$0-props-clipboard;
#X obj 90 467 s \$0-clear-clipboard;
#X obj 109 289 t b b;
#X msg 148 319 line 0;
#X msg 109 319 auto;
#X obj 109 349 text sequence \$0-props-clipboard;
#X obj 178 373 v \$0-current-preset-nr;
#X obj 90 168 t b b b;
#X connect 0 0 1 0;
#X connect 2 0 5 0;
#X connect 4 0 3 0;
#X connect 5 0 6 0;
#X connect 5 1 8 0;
#X connect 6 0 15 0;
#X connect 7 0 6 1;
#X connect 8 0 7 0;
#X connect 10 0 12 0;
#X connect 10 1 11 0;
#X connect 11 0 13 0;
#X connect 12 0 13 0;
#X connect 13 0 0 0;
#X connect 14 0 0 1;
#X connect 15 0 9 0;
#X connect 15 1 10 0;
#X connect 15 2 4 0;
#X connect 15 2 14 0;
#X restore 318 442 pd paste-preset;
#X obj 318 421 r \$0-paste-preset;
#X obj 458 421 r \$0-nr;
#X obj 153 703 r \$0-preset-outlet;
#X obj 458 464 s \$0-preset-outlet;
#X obj 470 200 r \$0-preset-name;
#X obj 590 420 r \$0-load-preset;
#X obj 318 464 s \$0-set-one-preset;
#X obj 590 464 s \$0-set-one-preset;
#X obj 782 153 v \$0-amount-banks;
#X obj 782 133 nbx 5 14 7 8 0 1 empty empty empty 0 -8 0 10 -262144
-1 -1 7 256;
#X obj 896 132 nbx 5 14 7 8 0 1 empty empty empty 0 -8 0 10 -262144
-1 -1 7 256;
#X obj 896 152 v \$0-amount-presets-per-bank;
#X obj 893 345 loadbang;
#X obj 193 621 clone patches/one_preset 49;
#X obj 609 90 symbol;
#X obj 540 113 symbol;
#X connect 5 0 44 0;
#X connect 5 1 57 0;
#X connect 7 0 8 0;
#X connect 9 0 7 0;
#X connect 10 0 30 0;
#X connect 12 0 18 0;
#X connect 14 0 15 0;
#X connect 16 0 14 0;
#X connect 18 0 26 0;
#X connect 18 1 20 0;
#X connect 18 2 21 0;
#X connect 18 3 22 0;
#X connect 18 4 80 0;
#X connect 18 5 79 0;
#X connect 19 0 10 0;
#X connect 23 0 46 1;
#X connect 23 0 47 1;
#X connect 27 0 5 0;
#X connect 28 0 29 1;
#X connect 32 0 19 0;
#X connect 34 0 29 0;
#X connect 35 0 36 1;
#X connect 37 0 36 0;
#X connect 39 0 38 0;
#X connect 44 0 33 0;
#X connect 44 1 43 0;
#X connect 45 0 42 0;
#X connect 46 0 49 0;
#X connect 46 1 58 0;
#X connect 48 0 68 0;
#X connect 50 0 72 0;
#X connect 51 0 47 0;
#X connect 52 0 46 0;
#X connect 53 0 41 0;
#X connect 54 0 78 1;
#X connect 55 0 78 2;
#X connect 56 0 78 0;
#X connect 61 0 62 0;
#X connect 62 0 10 0;
#X connect 63 0 29 0;
#X connect 64 0 71 0;
#X connect 65 0 64 0;
#X connect 66 0 48 0;
#X connect 67 0 40 0;
#X connect 69 0 5 1;
#X connect 70 0 50 0;
#X connect 74 0 73 0;
#X connect 75 0 76 0;
#X connect 77 0 63 0;
#X connect 78 0 60 0;
#X connect 79 0 31 0;
#X connect 80 0 59 0;
#X coords 0 -1 1 1 176 99 2 361 223;
