#N canvas 0 22 1021 571 10;
#X obj 106 105 cnv 15 90 190 empty empty empty 7 28 1 14 -233017 -66577
0;
#X obj 112 149 knob 32 32 0 127 0 1 \$0-2vca-env1-s \$0-2vca-env1-r
ENV1 0 -8 1 8 -258113 -1 -1 24 1;
#X obj 112 248 knob 32 32 0 127 0 1 \$0-2vca-cv1-knob-s \$0-2vca-cv1-knob-r
CV1 0 -8 1 8 -75392 -4160 -1 24 1;
#X obj 108 285 cnv 10 10 10 empty empty OUT-1 0 5 1 7 -228856 -66577
0;
#X obj 110 199 knob 32 32 0 127 0 1 \$0-2vca-vca1-s \$0-2vca-vca1-r
VCA1 0 -8 1 8 -258113 -1 -1 24 1;
#X obj 157 149 knob 32 32 0 127 0 1 \$0-2vca-env2-s \$0-2vca-env2-r
ENV2 0 -8 1 8 -258113 -1 -1 24 1;
#X obj 157 248 knob 32 32 0 127 0 1 \$0-2vca-cv2-knob-s \$0-2vca-cv2-knob-r
CV2 0 -8 1 8 -75392 -4160 -1 24 1;
#X obj 157 199 knob 32 32 0 127 0 1 \$0-2vca-vca2-s \$0-2vca-vca2-r
VCA2+LP 0 -8 1 8 -258113 -1 -1 24 1;
#X obj 304 123 inlet~;
#X obj 304 390 *~;
#X obj 304 478 outlet~;
#X obj 320 225 r \$0-2vca-vca1-s;
#X obj 320 298 / 127;
#X obj 320 320 pack f 50;
#X obj 320 342 line~;
#N canvas 635 58 549 577 envelope-contour 0;
#X obj 102 353 vline~;
#X msg 102 324 1 \$1 \, 0 \$2 \$1;
#X obj 102 297 pack f f;
#X obj 102 271 f;
#X obj 117 31 r \$0-2vca-env1-s;
#X obj 117 75 moses 64;
#X obj 117 110 / 64;
#X obj 117 132 * 1990;
#X obj 117 154 + 10;
#X text 147 155 DECAY;
#X obj 188 125 / 63.5;
#X obj 188 147 - 1.032;
#X obj 188 192 + 1;
#X text 216 192 ATTACK;
#X obj -2 32 inlet~;
#X obj -1 155 threshold~ 1 0 1 0;
#X obj 102 447 outlet~;
#X obj 118 201 t f f;
#X msg 118 231 1;
#X obj 188 170 * 1999;
#X obj 102 381 *~;
#X obj 102 418 *~;
#X connect 0 0 20 0;
#X connect 0 0 20 1;
#X connect 1 0 0 0;
#X connect 2 0 1 0;
#X connect 3 0 2 0;
#X connect 4 0 5 0;
#X connect 5 0 6 0;
#X connect 5 1 10 0;
#X connect 6 0 7 0;
#X connect 7 0 8 0;
#X connect 8 0 17 0;
#X connect 10 0 11 0;
#X connect 11 0 19 0;
#X connect 12 0 3 1;
#X connect 14 0 15 0;
#X connect 15 0 3 0;
#X connect 17 0 18 0;
#X connect 17 1 2 1;
#X connect 18 0 3 1;
#X connect 19 0 12 0;
#X connect 20 0 21 0;
#X connect 20 0 21 1;
#X connect 21 0 16 0;
#X restore 437 166 pd envelope-contour;
#X obj 437 120 inlet~;
#X text 304 108 VCA1;
#X text 434 102 TRIG1;
#X obj 437 323 *~;
#X obj 483 122 inlet~;
#X text 484 105 CV1;
#X obj 482 197 r \$0-2vca-cv1-knob-s;
#X obj 482 219 / 127;
#X obj 482 241 pack f 50;
#X obj 482 263 line~;
#X obj 640 102 inlet~;
#X obj 639 411 *~;
#X obj 656 277 / 127;
#X obj 656 299 pack f 50;
#X obj 656 321 line~;
#N canvas 635 58 545 555 envelope-contour 0;
#X obj 102 353 vline~;
#X msg 102 324 1 \$1 \, 0 \$2 \$1;
#X obj 102 297 pack f f;
#X obj 102 271 f;
#X obj 117 75 moses 64;
#X obj 117 110 / 64;
#X obj 117 132 * 1990;
#X obj 117 154 + 10;
#X text 147 155 DECAY;
#X obj 188 125 / 63.5;
#X obj 188 147 - 1.032;
#X obj 188 192 + 1;
#X text 216 192 ATTACK;
#X obj -2 32 inlet~;
#X obj -1 155 threshold~ 1 0 1 0;
#X obj 102 467 outlet~;
#X obj 118 201 t f f;
#X msg 118 231 1;
#X floatatom 198 230 5 0 0 0 - - -;
#X obj 188 170 * 1999;
#X obj 117 31 r \$0-2vca-env2-s;
#X obj 102 375 *~;
#X obj 102 397 *~;
#X connect 0 0 21 0;
#X connect 0 0 21 1;
#X connect 1 0 0 0;
#X connect 2 0 1 0;
#X connect 3 0 2 0;
#X connect 4 0 5 0;
#X connect 4 1 9 0;
#X connect 5 0 6 0;
#X connect 6 0 7 0;
#X connect 7 0 16 0;
#X connect 9 0 10 0;
#X connect 10 0 19 0;
#X connect 11 0 3 1;
#X connect 11 0 18 0;
#X connect 13 0 14 0;
#X connect 14 0 3 0;
#X connect 16 0 17 0;
#X connect 16 1 2 1;
#X connect 17 0 3 1;
#X connect 19 0 11 0;
#X connect 20 0 4 0;
#X connect 21 0 22 0;
#X connect 21 0 22 1;
#X connect 22 0 15 0;
#X restore 773 145 pd envelope-contour;
#X obj 773 99 inlet~;
#X obj 773 302 *~;
#X obj 819 101 inlet~;
#X obj 818 198 / 127;
#X obj 818 220 pack f 50;
#X obj 818 242 line~;
#X text 640 84 VCA2;
#X text 770 81 TRIG2;
#X text 822 84 CV2;
#X obj 818 176 r \$0-2vca-cv2-knob-s;
#X obj 653 173 r \$0-2vca-vca2-s;
#X obj 640 477 outlet~;
#X obj 368 477 outlet~;
#X obj 700 476 outlet~;
#X obj 109 127 cnv 5 5 5 empty empty 2ENV+2VCA 0 0 1 14 -233017 -66577
0;
#X obj 107 106 cnv 5 10 10 empty empty IN1 0 5 1 7 -228856 -66577 0
;
#X obj 121 106 cnv 5 10 10 empty empty T1 0 5 1 7 -228856 -258113 0
;
#X obj 135 106 cnv 5 10 10 empty empty CV1 0 5 1 7 -228856 -66577 0
;
#X obj 154 106 cnv 5 10 10 empty empty IN2 0 5 1 7 -228856 -66577 0
;
#X obj 171 106 cnv 5 10 10 empty empty T2 0 5 1 7 -228856 -258113 0
;
#X obj 184 106 cnv 5 10 10 empty empty CV2 0 5 1 7 -228856 -66577 0
;
#X obj 132 285 cnv 10 10 10 empty empty ENV1 0 5 1 7 -228856 -66577
0;
#X obj 153 285 cnv 10 10 10 empty empty OUT-2 0 5 1 7 -228856 -66577
0;
#X obj 178 285 cnv 10 10 10 empty empty ENV2 0 5 1 7 -228856 -66577
0;
#N canvas 588 32 522 657 lopass-filter 0;
#X obj -111 301 lop~;
#X obj 14 107 / 127;
#X obj -114 7 inlet~;
#X obj -111 488 outlet~;
#X obj 14 11 inlet;
#X text -117 -15 SIGNAL IN;
#X text 13 -10 CUT OFF IN;
#X obj 14 136 * 9900;
#X obj 14 190 t f f f f f;
#N canvas 506 107 491 425 bandpass-series 0;
#X obj 65 30 inlet~;
#X obj 65 208 vcf~ 10;
#X obj 84 179 sig~;
#X obj 84 150 inlet;
#X obj 201 178 sig~;
#X obj 201 121 inlet;
#X obj 179 207 vcf~ 7.5;
#X obj 284 177 sig~;
#X obj 268 206 vcf~ 5;
#X obj 284 113 inlet;
#X obj 353 177 sig~;
#X obj 353 113 inlet;
#X obj 331 206 vcf~ 2.5;
#X obj 284 147 - 50;
#X obj 201 148 - 25;
#X obj 353 147 - 75;
#X obj 181 379 outlet~;
#X obj 181 344 *~ 0.125;
#X connect 0 0 1 0;
#X connect 0 0 6 0;
#X connect 0 0 8 0;
#X connect 0 0 12 0;
#X connect 1 0 17 0;
#X connect 2 0 1 1;
#X connect 3 0 2 0;
#X connect 4 0 6 1;
#X connect 5 0 14 0;
#X connect 6 0 17 0;
#X connect 7 0 8 1;
#X connect 8 0 17 0;
#X connect 9 0 13 0;
#X connect 10 0 12 1;
#X connect 11 0 15 0;
#X connect 12 0 17 0;
#X connect 13 0 7 0;
#X connect 14 0 4 0;
#X connect 15 0 10 0;
#X connect 17 0 16 0;
#X restore -25 248 pd bandpass-series;
#X obj -111 405 *~;
#X obj 14 34 t f f;
#X obj 126 241 / 127;
#X obj 126 263 * 1;
#X obj 126 285 + 1;
#X obj 126 307 pack f 50;
#X obj 126 329 line~;
#X msg 126 192 127 \$1;
#X obj 126 214 -;
#X obj 14 158 + 100;
#X obj 14 82 line;
#X msg 14 60 \$1 50;
#X obj -111 449 *~ 0.5;
#X connect 0 0 10 0;
#X connect 1 0 7 0;
#X connect 2 0 0 0;
#X connect 2 0 9 0;
#X connect 4 0 11 0;
#X connect 7 0 19 0;
#X connect 8 0 0 1;
#X connect 8 1 9 1;
#X connect 8 2 9 2;
#X connect 8 3 9 3;
#X connect 8 4 9 4;
#X connect 9 0 0 0;
#X connect 10 0 22 0;
#X connect 11 0 21 0;
#X connect 11 1 17 0;
#X connect 12 0 13 0;
#X connect 13 0 14 0;
#X connect 14 0 15 0;
#X connect 15 0 16 0;
#X connect 16 0 10 1;
#X connect 17 0 18 0;
#X connect 18 0 12 0;
#X connect 19 0 8 0;
#X connect 20 0 1 0;
#X connect 21 0 20 0;
#X connect 22 0 3 0;
#X restore 544 375 pd lopass-filter;
#X obj 774 351 snapshot~;
#X obj 761 385 * 127;
#X obj 653 241 t f f;
#X obj 637 351 +;
#X obj 767 417 t b f;
#X obj 320 247 - 0;
#X obj 804 316 bang~;
#X connect 8 0 9 0;
#X connect 9 0 10 0;
#X connect 11 0 62 0;
#X connect 12 0 13 0;
#X connect 13 0 14 0;
#X connect 14 0 9 1;
#X connect 15 0 44 0;
#X connect 15 0 19 0;
#X connect 16 0 15 0;
#X connect 19 0 9 1;
#X connect 20 0 19 0;
#X connect 22 0 23 0;
#X connect 23 0 24 0;
#X connect 24 0 25 0;
#X connect 25 0 19 1;
#X connect 26 0 56 0;
#X connect 27 0 43 0;
#X connect 28 0 29 0;
#X connect 29 0 30 0;
#X connect 30 0 27 1;
#X connect 31 0 33 0;
#X connect 31 0 45 0;
#X connect 32 0 31 0;
#X connect 33 0 27 1;
#X connect 33 0 57 0;
#X connect 34 0 33 0;
#X connect 35 0 36 0;
#X connect 36 0 37 0;
#X connect 37 0 33 1;
#X connect 41 0 35 0;
#X connect 42 0 59 0;
#X connect 56 0 27 0;
#X connect 57 0 58 0;
#X connect 58 0 61 0;
#X connect 59 0 60 0;
#X connect 59 1 28 0;
#X connect 60 0 56 1;
#X connect 61 0 60 0;
#X connect 61 1 60 1;
#X connect 62 0 12 0;
#X connect 63 0 57 0;
#X coords 0 -1 1 1 100 200 2 100 100;
