#N canvas 0 22 1089 747 10;
#X obj 21 54 loadbang;
#X obj 21 195 loadbang;
#X obj 21 141 table ionian;
#X obj 21 269 table aeolian;
#X msg 21 222 \; aeolian 0 0 2 3 5 7 8 10 12 14 15 17 19 20 22 24 26
27 29 31 32 34 36 38 39 41 43 44 46 48;
#X msg 21 91 \; ionian 0 0 2 4 5 7 9 11 12 14 16 17 19 21 23 24 26
28 29 31 33 35 36 38 40 41 43 45 47 48;
#N canvas 254 81 674 602 hex-random-scales 0;
#X obj 24 444 loadbang;
#X obj 23 17 loadbang;
#X obj 22 84 table 8va;
#X msg 23 48 \; 8va 0 0 12 24 36 48 60 72 84 96 108 120;
#X obj 23 111 loadbang;
#X obj 22 192 table 4ths;
#X msg 23 142 \; 4ths 0 0 5 10 15 20 25 30 35 40 45 50 55 60 65 70
75 80 85 90 95 100 105 110 115 120 125;
#X obj 24 216 loadbang;
#X obj 23 297 table 5ths;
#X msg 24 247 \; 5ths 0 0 7 14 21 28 35 42 49 56 64 71 78 85 92 99
106 113 120 127;
#X obj 25 321 loadbang;
#X obj 24 413 table dim;
#X msg 25 352 \; dim 0 0 3 6 9 12 15 18 21 24 27 30 33 36 39 42 45
48 51 54 57 60 63 66 69 72 75 78 81 84 87 90 93 96 99 102 105 108 111
114 117 120 123 126;
#X obj 23 548 table whole;
#X msg 24 468 \; whole 0 0 2 4 6 8 10 12 14 16 18 20 22 24 26 28 30
32 34 36 38 40 42 44 46 48 50 52 54 56 58 60 62 64 66 68 70 72 74 76
78 80 82 84 86 88 90 92 94 96 98 100 102 104 106 108 110 112 114 116
118 120 122 124 126;
#X obj 429 14 loadbang;
#X obj 429 155 loadbang;
#X obj 429 131 table major;
#X obj 429 257 table minor;
#X msg 429 51 \; major 0 0 2 4 5 7 9 11 12 14 16 17 19 21 23 24 26
28 29 31 33 35 36 38 40 41 43 45 47 48 50 52 53 55 57 59 60 62 64 65
67 69 71 72 74 76 77 79 81 81 83 84 86 88 89 91 93 95 96 98 100 101
103 105 107 108 110 112 113 115 117 119 120;
#X msg 429 182 \; minor 0 0 2 3 5 7 8 10 12 14 15 17 19 20 22 24 26
27 29 31 32 34 36 38 39 41 43 44 46 48 50 51 53 55 56 58 60 62 63 65
67 68 70 72 74 75 77 79 80 82 84 86 87 89 91 92 94 96 98 99 101 103
104 106 108 110 111 113 115 116 118 120;
#X connect 0 0 14 0;
#X connect 1 0 3 0;
#X connect 4 0 6 0;
#X connect 7 0 9 0;
#X connect 10 0 12 0;
#X connect 15 0 19 0;
#X connect 16 0 20 0;
#X restore 22 28 pd hex-random-scales;
#X obj 26 292 loadbang;
#X obj 26 366 table dorian;
#X msg 26 319 \; dorian 0 0 2 3 5 7 9 10 12 14 15 17 19 21 22 24 26
27 29 31 33 34 36 38 39 41 43 45 46 48;
#X obj 27 393 loadbang;
#X obj 27 467 table phrygian;
#X msg 27 420 \; phrygian 0 0 1 3 5 7 8 10 12 13 15 17 19 20 22 24
25 27 29 31 32 34 36 37 39 41 43 44 46 48;
#X obj 28 489 loadbang;
#X obj 28 563 table lydian;
#X msg 28 510 \; lydian 0 0 2 4 6 7 9 11 12 14 16 18 19 21 23 24 26
28 30 31 33 35 36 38 40 42 43 45 47 48;
#X obj 437 29 loadbang;
#X msg 437 50 \; chromatic 0 0 1 2 3 4 5 6 7 8 9 10 11 12 13 14 15
16 17 18 19 20 21 22 23 24 25 26 27 28 29 30 31 32 33 34 35 36 37 38
39 40 41 42 43 44 45 46 47 48;
#X obj 437 113 table chromatic;
#X obj 438 140 loadbang;
#X obj 440 237 loadbang;
#X obj 440 310 table tetra;
#X msg 440 258 \; tetra 0 0 1 1.75 2 3 3.75 4 5 12 13 13.75 14 15 15.75
16 17 24 25 25.75 26 27 27.75 28 29 36;
#X obj 441 339 loadbang;
#X obj 441 448 table indian;
#X msg 441 360 \; indian 0 0 0.9 1.14 1.8 2.04 2.94 3.18 3.84 4.08
4.9 5.22 5.88 6.12 7.02 7.92 8.16 8.82 9.06 9.96 10.2 10.86 11.1 12
12.9 13.14 13.8 14.04 14.94 15.18 15.84 16.08 16.9 17.22 17.88 18.12
19.02 19.92 20.16 20.82 21.06 21.96 22.2 22.86 23.1 24;
#X obj 440 474 loadbang;
#X obj 438 548 table siga;
#X msg 440 495 \; siga 0 0 1.5 3.5 5.5 7 8.5 10.5 12 13.5 15.5 17.5
19 20.5 22.5 24 25.5 27.5 29.5 31 32.5 34.5 36;
#X obj 29 588 loadbang;
#X obj 29 662 table lyd-minor;
#X msg 29 609 \; lyd-minor 0 0 2 3 6 7 9 11 12 14 15 18 19 21 23 24
26 27 30 31 33 35 36 38 39 42 43 45 47 48;
#X obj 443 586 loadbang;
#X obj 443 673 table harm-major;
#X msg 443 623 \; harm-major 0 0 2 4 5 7 8 11 12 14 16 17 19 20 23
24 26 28 29 31 32 35 36 38 40 41 43 44 47 48;
#X obj 832 22 loadbang;
#X obj 832 106 table pelog;
#X msg 832 43 \; pelog 0 0 1.5 2.5 3.5 7 8 10.5 12 13.5 14.5 15.5 19
20 22.5 24 25.5 26.5 27.5 31 32 34.5 36;
#X obj 832 134 loadbang;
#X obj 832 218 table slendro;
#X msg 832 155 \; slendro 0 0 2.5 5 7 9.5 12 14.5 17 19 21.5 24 26.5
29 31 33.5 36;
#X obj 438 213 table ancient;
#X msg 438 161 \; ancient 0 0 0.5 1 5 7 7.5 8 12 12.5 13 17 19 19.5
20 24 24.5 25 29 31 31.5 32 36;
#N canvas 643 64 401 257 cv_conversion 0;
#X obj 235 38 loadbang;
#X obj 235 69 metro 1;
#X obj 27 34 bang~;
#X obj 27 162 spigot;
#X obj 105 45 loadbang;
#X obj 105 67 t b b;
#X msg 105 90 0;
#X obj 132 112 delay 100;
#X msg 132 134 1;
#X obj 27 188 s bang~;
#X obj 235 119 s metro 1;
#X connect 0 0 1 0;
#X connect 1 0 10 0;
#X connect 2 0 3 0;
#X connect 3 0 9 0;
#X connect 4 0 5 0;
#X connect 5 0 6 0;
#X connect 5 1 7 0;
#X connect 6 0 3 1;
#X connect 7 0 8 0;
#X connect 8 0 3 1;
#X restore 832 245 pd cv_conversion;
#X connect 0 0 5 0;
#X connect 1 0 4 0;
#X connect 7 0 9 0;
#X connect 10 0 12 0;
#X connect 13 0 15 0;
#X connect 16 0 17 0;
#X connect 19 0 42 0;
#X connect 20 0 22 0;
#X connect 23 0 25 0;
#X connect 26 0 28 0;
#X connect 29 0 31 0;
#X connect 32 0 34 0;
#X connect 35 0 37 0;
#X connect 38 0 40 0;
