#N canvas 0 22 1211 680 10;
#X obj 106 105 cnv 15 140 190 empty empty empty 12 12 1 14 -233017
-66577 0;
#X obj 295 101 metro;
#X obj 295 38 loadbang;
#X obj 289 254 random 1000;
#X msg 312 356 1 0 \, 0 1 1;
#X obj 312 378 vline~;
#X obj 312 405 outlet~;
#X obj 111 277 bng 15 50 50 0 empty empty FLUX -2 -7 1 10 -1 -258113
-1;
#X obj 295 70 tgl 15 0 empty empty empty 17 7 0 10 -262144 -1 -1 0
1;
#X obj 295 123 t b b b;
#X obj 111 136 knob 32 32 0 127 0 1 empty empty FLUX-CLK 0 -8 1 8 -262144
-1 -1 24 1;
#X obj 113 395 / 127;
#X obj 113 417 * 990;
#X obj 113 439 + 10;
#X msg 112 350 127 \$1;
#X obj 112 372 -;
#X obj 290 163 random 127;
#X obj 290 192 moses 63.5;
#X obj 111 186 knob 32 32 0 127 0 1 empty empty FLUX.PROB' 0 -8 1 8
-262144 -1 -1 24 1;
#X obj 526 424 metro 250;
#X obj 526 391 tgl 15 0 empty empty empty 17 7 0 10 -262144 -1 -1 0
1;
#X obj 526 360 loadbang;
#X obj 166 225 knob 32 32 0 127 0 1 empty empty SYNC-CLK 0 -8 1 8 -262144
-1 -1 24 1;
#X obj 577 290 / 127;
#X msg 577 244 127 \$1;
#X obj 577 266 -;
#X obj 577 311 * 1990;
#X msg 552 478 1 0 \, 0 1 1;
#X obj 552 500 vline~;
#X obj 552 527 outlet~;
#X obj 170 277 bng 15 50 50 0 empty empty SYN -2 -7 1 10 -1 -258113
-1;
#X obj 577 334 + 10;
#X obj 135 277 bng 15 50 50 0 empty \$0-fluxgate-b1-s B1 0 -7 1 10
-1 -258113 -1;
#X obj 205 277 bng 15 50 50 0 empty \$0-fluxgate-b2-s B2 0 -7 1 10
-1 -258113 -1;
#X obj 166 183 bng 25 250 50 0 \$0-fluxgate-b2-s empty B2 0 -7 1 10
-262144 -1 -1;
#X obj 112 234 bng 25 250 50 0 \$0-fluxgate-b1-s \$0-fluxgate-b1-r
B1 0 -7 1 10 -262144 -1 -1;
#X obj 438 229 spigot;
#X msg 471 202 1;
#X obj 411 94 t b b;
#X obj 411 151 delay 5;
#X msg 501 203 0;
#X obj 502 158 loadbang;
#X msg 438 299 1 0 \, 0 1 1;
#X obj 438 328 vline~;
#X obj 441 457 outlet~;
#X text 310 431 FLUX GATE OUT;
#X text 415 478 MANUAL GATE 1 OUT;
#X text 556 549 SYNC CLK OUT;
#X obj 661 243 spigot;
#X msg 694 216 1;
#X obj 634 108 t b b;
#X obj 634 165 delay 5;
#X msg 724 217 0;
#X obj 725 172 loadbang;
#X msg 661 313 1 0 \, 0 1 1;
#X obj 661 342 vline~;
#X obj 664 471 outlet~;
#X text 638 492 MANUAL GATE 2 OUT;
#X obj 290 214 t b b b;
#X text 405 497 (SYNCED TO FLUX GATE);
#X text 636 510 ( SYNCED TO SYNC-CLK);
#X obj 790 548 outlet~;
#X obj 228 277 bng 15 50 50 0 empty \$0-fluxgate-divbang-r DIV 0 -7
1 10 -1 -258113 -1;
#X floatatom 209 241 2 0 0 2 - #0-fluxgate-counter-r -;
#X obj 224 168 vsl 15 64 0 127 0 1 \$0-fluxgate-div-s \$0-fluxgate-div-r
/DIV 0 -9 1 10 -262144 -1 -1 426 1;
#X obj 818 94 r \$0-fluxgate-div-s;
#X obj 803 161 / 127;
#X obj 803 183 * 64;
#X obj 803 205 i;
#X text 943 97 CLK-DIVIDER;
#X obj 153 183 cnv 5 5 75 empty empty empty 20 12 0 14 -191407 -66577
0;
#X obj 211 160 cnv 5 5 75 empty empty empty 20 12 0 14 -191407 -66577
0;
#X obj 854 231 s \$0-fluxgate-div-gui-r;
#X obj 526 446 t b b b b;
#X obj 790 265 f;
#X obj 819 264 + 1;
#X obj 790 287 % 4;
#X floatatom 790 309 5 0 0 0 - - -;
#X floatatom 227 241 2 0 0 2 - #0-fluxgate-div-gui-r -;
#X obj 790 330 t f f;
#X obj 817 379 s \$0-fluxgate-counter-r;
#X obj 790 405 sel 0;
#X msg 790 499 1 0 \, 0 1 1;
#X obj 790 521 vline~;
#X text 785 565 CLK DIVISION OUT;
#X obj 790 427 t b b;
#X obj 817 450 s \$0-fluxgate-divbang-r;
#X obj 817 353 + 1;
#X obj 170 117 cnv 5 5 5 empty empty FLUXGATE 0 0 1 14 -233017 -66577
0;
#X obj 211 133 bng 15 250 50 0 \$0-fluxgate-(!)-s empty (!) 17 7 1
10 -262144 -1 -1;
#X obj 803 135 f;
#X obj 803 7 r \$0-fluxgate-(!)-s;
#X obj 803 237 t f;
#X obj 853 160 / 127;
#X obj 853 182 * 64;
#X obj 853 204 i;
#X obj 818 115 t f f;
#X obj 803 73 spigot;
#X obj 650 9 r \$0-fluxgate-divbang-r;
#X msg 803 29 1;
#X obj 650 31 t b b;
#X obj 677 63 delay 5;
#X msg 677 85 0;
#X obj 212 51 loadbang;
#X obj 212 73 delay 10;
#X obj 289 276 + 10;
#X connect 1 0 9 0;
#X connect 2 0 8 0;
#X connect 3 0 105 0;
#X connect 4 0 5 0;
#X connect 5 0 6 0;
#X connect 8 0 1 0;
#X connect 9 0 16 0;
#X connect 10 0 14 0;
#X connect 11 0 12 0;
#X connect 12 0 13 0;
#X connect 13 0 3 1;
#X connect 14 0 15 0;
#X connect 15 0 11 0;
#X connect 16 0 17 0;
#X connect 17 0 58 0;
#X connect 18 0 17 1;
#X connect 19 0 73 0;
#X connect 20 0 19 0;
#X connect 21 0 20 0;
#X connect 22 0 24 0;
#X connect 23 0 26 0;
#X connect 24 0 25 0;
#X connect 25 0 23 0;
#X connect 26 0 31 0;
#X connect 27 0 28 0;
#X connect 28 0 29 0;
#X connect 31 0 19 1;
#X connect 34 0 49 0;
#X connect 35 0 37 0;
#X connect 36 0 42 0;
#X connect 37 0 36 1;
#X connect 38 0 39 0;
#X connect 38 1 36 0;
#X connect 39 0 40 0;
#X connect 40 0 36 1;
#X connect 41 0 40 0;
#X connect 42 0 43 0;
#X connect 43 0 44 0;
#X connect 48 0 54 0;
#X connect 49 0 48 1;
#X connect 50 0 51 0;
#X connect 50 1 48 0;
#X connect 51 0 52 0;
#X connect 52 0 48 1;
#X connect 53 0 52 0;
#X connect 54 0 55 0;
#X connect 55 0 56 0;
#X connect 58 0 3 0;
#X connect 58 0 7 0;
#X connect 58 1 4 0;
#X connect 58 2 38 0;
#X connect 65 0 96 0;
#X connect 66 0 67 0;
#X connect 67 0 68 0;
#X connect 68 0 92 0;
#X connect 73 0 30 0;
#X connect 73 1 27 0;
#X connect 73 2 50 0;
#X connect 73 3 74 0;
#X connect 74 0 75 0;
#X connect 74 0 76 0;
#X connect 75 0 74 1;
#X connect 76 0 77 0;
#X connect 77 0 79 0;
#X connect 79 0 81 0;
#X connect 79 1 87 0;
#X connect 81 0 85 0;
#X connect 82 0 83 0;
#X connect 83 0 61 0;
#X connect 85 0 82 0;
#X connect 85 1 86 0;
#X connect 87 0 80 0;
#X connect 90 0 66 0;
#X connect 91 0 99 0;
#X connect 92 0 76 1;
#X connect 93 0 94 0;
#X connect 94 0 95 0;
#X connect 95 0 72 0;
#X connect 96 0 90 1;
#X connect 96 1 93 0;
#X connect 97 0 90 0;
#X connect 98 0 100 0;
#X connect 99 0 97 1;
#X connect 100 0 97 0;
#X connect 100 1 101 0;
#X connect 101 0 102 0;
#X connect 102 0 97 1;
#X connect 103 0 104 0;
#X connect 104 0 89 0;
#X connect 105 0 1 1;
#X coords 0 -1 1 1 150 200 2 100 100;
