#N canvas 0 22 1049 574 10;
#X obj 105 105 cnv 15 240 190 empty empty empty 20 24 1 14 -233017
-66577 0;
#X obj 663 419 phasor~;
#X obj 526 579 hip~ 50;
#X obj 526 556 lop~ 2200;
#X obj 526 465 *~;
#X obj 663 502 *~;
#X obj 655 326 line~;
#X msg 826 292 127 \$1;
#X obj 826 316 -;
#X obj 826 340 / 127;
#X obj 826 395 line~;
#X obj 655 302 pack 0 100;
#X obj 826 369 pack 0 100;
#X text 478 21 PITCH;
#X obj 121 233 knob 32 32 0 127 0 1 \$0-flux-modulator-s \$0-flux-modulator-r
MODULATOR 0 -8 1 8 -262144 -1 -1 24 1;
#X obj 188 232 knob 48 48 0 127 0 1 \$0-flux-index-s \$0-flux-index-r
FM-INDEX 0 -8 1 8 -2112 -1 -1 37 1;
#X text 652 18 TIMBRE;
#N canvas 253 23 970 733 wavetable-flux 0;
#X obj 268 146 random 127;
#X obj 268 168 / 127;
#X obj 270 73 bng 15 250 50 0 empty empty empty 17 7 0 10 -262144 -1
-1;
#X obj 270 48 t b;
#X obj 139 125 metro 10000;
#X obj 139 96 tgl 15 0 empty empty empty 17 7 0 10 -262144 -1 -1 1
1;
#X obj 503 64 / 127;
#X obj 268 210 - 1;
#X obj 342 143 random 127;
#X obj 342 165 / 127;
#X obj 342 207 - 1;
#X obj 420 141 random 127;
#X obj 420 163 / 127;
#X obj 420 205 - 1;
#X obj 494 138 random 127;
#X obj 494 160 / 127;
#X obj 494 202 - 1;
#X obj -31 284 random 127;
#X obj -31 306 / 127;
#X obj -31 348 - 1;
#X obj 43 281 random 127;
#X obj 43 303 / 127;
#X obj 43 345 - 1;
#X obj 121 279 random 127;
#X obj 121 301 / 127;
#X obj 121 343 - 1;
#X obj 195 276 random 127;
#X obj 195 298 / 127;
#X obj 195 340 - 1;
#X obj 434 277 random 127;
#X obj 434 299 / 127;
#X obj 434 341 - 1;
#X obj 508 274 random 127;
#X obj 508 296 / 127;
#X obj 508 338 - 1;
#X obj 586 272 random 127;
#X obj 586 294 / 127;
#X obj 586 336 - 1;
#X obj 660 269 random 127;
#X obj 660 291 / 127;
#X obj 660 333 - 1;
#X obj 691 413 random 127;
#X obj 691 435 / 127;
#X obj 765 410 random 127;
#X obj 765 432 / 127;
#X obj 765 474 - 1;
#X obj 843 408 random 127;
#X obj 843 430 / 127;
#X obj 843 472 - 1;
#X obj 609 406 random 127;
#X obj 609 428 / 127;
#X obj 609 470 - 1;
#X obj 696 481 - 1;
#X obj 503 115 + 150;
#X obj 139 67 loadbang;
#X obj 503 4 inlet;
#X text 546 0 RANDOM PARTIALS SWEEP RATE;
#X obj 452 50 t b;
#X obj 317 500 osc~;
#X obj 356 499 osc~;
#X obj 396 497 osc~;
#X obj 435 496 osc~;
#X obj 317 522 *~;
#X obj 356 521 *~;
#X obj 396 519 *~;
#X obj 435 518 *~;
#X obj 316 440 mtof;
#X obj 316 462 * 9;
#X obj 356 441 mtof;
#X obj 356 463 * 10;
#X obj 394 441 mtof;
#X obj 394 463 * 11;
#X obj 436 439 mtof;
#X obj 436 461 * 12;
#X obj 480 616 osc~;
#X obj 519 615 osc~;
#X obj 559 613 osc~;
#X obj 598 612 osc~;
#X obj 480 638 *~;
#X obj 519 637 *~;
#X obj 559 635 *~;
#X obj 598 634 *~;
#X obj 479 556 mtof;
#X obj 519 557 mtof;
#X obj 550 559 mtof;
#X obj 592 557 mtof;
#X obj 479 578 * 13;
#X obj 550 581 * 15;
#X obj 519 579 * 14;
#X obj 592 579 * 16;
#X obj 434 383 line~;
#X obj 508 380 line~;
#X obj 586 378 line~;
#X obj 660 375 line~;
#X obj 609 512 line~;
#X obj 691 525 line~;
#X obj 765 516 line~;
#X obj 843 514 line~;
#X obj -7 507 osc~;
#X obj 32 506 osc~;
#X obj 72 504 osc~;
#X obj 111 503 osc~;
#X obj -7 529 *~;
#X obj 32 528 *~;
#X obj 72 526 *~;
#X obj 111 525 *~;
#X obj -8 447 mtof;
#X obj 32 448 mtof;
#X obj 70 448 mtof;
#X obj 112 446 mtof;
#X obj 156 623 osc~;
#X obj 195 622 osc~;
#X obj 235 620 osc~;
#X obj 274 619 osc~;
#X obj 156 645 *~;
#X obj 195 644 *~;
#X obj 235 642 *~;
#X obj 274 641 *~;
#X obj 155 563 mtof;
#X obj 195 564 mtof;
#X obj 226 566 mtof;
#X obj 268 564 mtof;
#X obj -31 390 line~;
#X obj 43 387 line~;
#X obj 121 385 line~;
#X obj 195 382 line~;
#X obj 268 252 line~;
#X obj 342 249 line~;
#X obj 420 247 line~;
#X obj 494 244 line~;
#X obj -8 469 * 1;
#X obj 32 470 * 2;
#X obj 70 470 * 3;
#X obj 112 468 * 4;
#X obj 155 585 * 5;
#X obj 195 586 * 6;
#X obj 226 588 * 7;
#X obj 268 586 * 8;
#X obj 366 710 outlet~;
#X obj 268 230 pack 0 10;
#X obj 342 227 pack 0 10;
#X obj 420 225 pack 0 10;
#X obj 494 222 pack 0 10;
#X obj 193 359 pack 0 10;
#X obj 121 363 pack 0 10;
#X obj 43 365 pack 0 10;
#X obj -33 368 pack 0 10;
#X obj 434 361 pack 0 10;
#X obj 508 358 pack 0 10;
#X obj 586 356 pack 0 10;
#X obj 660 353 pack 0 10;
#X obj 608 490 pack 0 10;
#X obj 691 503 pack 0 10;
#X obj 765 494 pack 0 10;
#X obj 843 492 pack 0 10;
#X obj 503 93 * 5000;
#X obj -31 327 * 2;
#X obj 43 324 * 2;
#X obj 121 322 * 2;
#X obj 195 319 * 2;
#X obj 268 189 * 2;
#X obj 342 186 * 2;
#X obj 420 184 * 2;
#X obj 494 181 * 2;
#X obj 434 320 * 2;
#X obj 508 317 * 2;
#X obj 586 315 * 2;
#X obj 660 312 * 2;
#X obj 609 449 * 2;
#X obj 694 460 * 2;
#X obj 765 453 * 2;
#X obj 843 451 * 2;
#X obj 366 677 *~ 0.66;
#X obj -8 410 r \$0-flux-pitch2-s;
#X obj 155 526 r \$0-flux-pitch2-s;
#X obj 316 403 r \$0-flux-pitch2-s;
#X obj 479 519 r \$0-flux-pitch2-s;
#X connect 0 0 1 0;
#X connect 1 0 160 0;
#X connect 2 0 0 0;
#X connect 2 0 8 0;
#X connect 2 0 11 0;
#X connect 2 0 14 0;
#X connect 2 0 17 0;
#X connect 2 0 20 0;
#X connect 2 0 23 0;
#X connect 2 0 26 0;
#X connect 2 0 29 0;
#X connect 2 0 32 0;
#X connect 2 0 35 0;
#X connect 2 0 38 0;
#X connect 2 0 41 0;
#X connect 2 0 43 0;
#X connect 2 0 46 0;
#X connect 2 0 49 0;
#X connect 3 0 2 0;
#X connect 4 0 3 0;
#X connect 5 0 4 0;
#X connect 6 0 155 0;
#X connect 7 0 139 0;
#X connect 8 0 9 0;
#X connect 9 0 161 0;
#X connect 10 0 140 0;
#X connect 11 0 12 0;
#X connect 12 0 162 0;
#X connect 13 0 141 0;
#X connect 14 0 15 0;
#X connect 15 0 163 0;
#X connect 16 0 142 0;
#X connect 17 0 18 0;
#X connect 18 0 156 0;
#X connect 19 0 146 0;
#X connect 20 0 21 0;
#X connect 21 0 157 0;
#X connect 22 0 145 0;
#X connect 23 0 24 0;
#X connect 24 0 158 0;
#X connect 25 0 144 0;
#X connect 26 0 27 0;
#X connect 27 0 159 0;
#X connect 28 0 143 0;
#X connect 29 0 30 0;
#X connect 30 0 164 0;
#X connect 31 0 147 0;
#X connect 32 0 33 0;
#X connect 33 0 165 0;
#X connect 34 0 148 0;
#X connect 35 0 36 0;
#X connect 36 0 166 0;
#X connect 37 0 149 0;
#X connect 38 0 39 0;
#X connect 39 0 167 0;
#X connect 40 0 150 0;
#X connect 41 0 42 0;
#X connect 42 0 169 0;
#X connect 43 0 44 0;
#X connect 44 0 170 0;
#X connect 45 0 153 0;
#X connect 46 0 47 0;
#X connect 47 0 171 0;
#X connect 48 0 154 0;
#X connect 49 0 50 0;
#X connect 50 0 168 0;
#X connect 51 0 151 0;
#X connect 52 0 152 0;
#X connect 53 0 4 1;
#X connect 53 0 139 1;
#X connect 53 0 140 1;
#X connect 53 0 141 1;
#X connect 53 0 142 1;
#X connect 53 0 143 1;
#X connect 53 0 144 1;
#X connect 53 0 145 1;
#X connect 53 0 146 1;
#X connect 53 0 147 1;
#X connect 53 0 148 1;
#X connect 53 0 149 1;
#X connect 53 0 150 1;
#X connect 53 0 151 1;
#X connect 53 0 152 1;
#X connect 53 0 153 1;
#X connect 53 0 154 1;
#X connect 54 0 5 0;
#X connect 55 0 6 0;
#X connect 55 0 57 0;
#X connect 57 0 4 0;
#X connect 58 0 62 0;
#X connect 59 0 63 0;
#X connect 60 0 64 0;
#X connect 61 0 65 0;
#X connect 62 0 172 0;
#X connect 63 0 172 0;
#X connect 64 0 172 0;
#X connect 65 0 172 0;
#X connect 66 0 67 0;
#X connect 67 0 58 0;
#X connect 68 0 69 0;
#X connect 69 0 59 0;
#X connect 70 0 71 0;
#X connect 71 0 60 0;
#X connect 72 0 73 0;
#X connect 73 0 61 0;
#X connect 74 0 78 0;
#X connect 75 0 79 0;
#X connect 76 0 80 0;
#X connect 77 0 81 0;
#X connect 78 0 172 0;
#X connect 79 0 172 0;
#X connect 80 0 172 0;
#X connect 81 0 172 0;
#X connect 82 0 86 0;
#X connect 83 0 88 0;
#X connect 84 0 87 0;
#X connect 85 0 89 0;
#X connect 86 0 74 0;
#X connect 87 0 76 0;
#X connect 88 0 75 0;
#X connect 89 0 77 0;
#X connect 90 0 62 1;
#X connect 91 0 63 1;
#X connect 92 0 64 1;
#X connect 93 0 65 1;
#X connect 94 0 78 1;
#X connect 95 0 79 1;
#X connect 96 0 80 1;
#X connect 97 0 81 1;
#X connect 98 0 102 0;
#X connect 99 0 103 0;
#X connect 100 0 104 0;
#X connect 101 0 105 0;
#X connect 102 0 172 0;
#X connect 103 0 172 0;
#X connect 104 0 172 0;
#X connect 105 0 172 0;
#X connect 106 0 130 0;
#X connect 107 0 131 0;
#X connect 108 0 132 0;
#X connect 109 0 133 0;
#X connect 110 0 114 0;
#X connect 111 0 115 0;
#X connect 112 0 116 0;
#X connect 113 0 117 0;
#X connect 114 0 172 0;
#X connect 115 0 172 0;
#X connect 116 0 172 0;
#X connect 117 0 172 0;
#X connect 118 0 134 0;
#X connect 119 0 135 0;
#X connect 120 0 136 0;
#X connect 121 0 137 0;
#X connect 122 0 102 1;
#X connect 123 0 103 1;
#X connect 124 0 104 1;
#X connect 125 0 105 1;
#X connect 126 0 114 1;
#X connect 127 0 115 1;
#X connect 128 0 116 1;
#X connect 129 0 117 1;
#X connect 130 0 98 0;
#X connect 131 0 99 0;
#X connect 132 0 100 0;
#X connect 133 0 101 0;
#X connect 134 0 110 0;
#X connect 135 0 111 0;
#X connect 136 0 112 0;
#X connect 137 0 113 0;
#X connect 139 0 126 0;
#X connect 140 0 127 0;
#X connect 141 0 128 0;
#X connect 142 0 129 0;
#X connect 143 0 125 0;
#X connect 144 0 124 0;
#X connect 145 0 123 0;
#X connect 146 0 122 0;
#X connect 147 0 90 0;
#X connect 148 0 91 0;
#X connect 149 0 92 0;
#X connect 150 0 93 0;
#X connect 151 0 94 0;
#X connect 152 0 95 0;
#X connect 153 0 96 0;
#X connect 154 0 97 0;
#X connect 155 0 53 0;
#X connect 156 0 19 0;
#X connect 157 0 22 0;
#X connect 158 0 25 0;
#X connect 159 0 28 0;
#X connect 160 0 7 0;
#X connect 161 0 10 0;
#X connect 162 0 13 0;
#X connect 163 0 16 0;
#X connect 164 0 31 0;
#X connect 165 0 34 0;
#X connect 166 0 37 0;
#X connect 167 0 40 0;
#X connect 168 0 51 0;
#X connect 169 0 52 0;
#X connect 170 0 45 0;
#X connect 171 0 48 0;
#X connect 172 0 138 0;
#X connect 173 0 106 0;
#X connect 173 0 107 0;
#X connect 173 0 108 0;
#X connect 173 0 109 0;
#X connect 174 0 118 0;
#X connect 174 0 119 0;
#X connect 174 0 120 0;
#X connect 174 0 121 0;
#X connect 175 0 66 0;
#X connect 175 0 68 0;
#X connect 175 0 70 0;
#X connect 175 0 72 0;
#X connect 176 0 82 0;
#X connect 176 0 83 0;
#X connect 176 0 84 0;
#X connect 176 0 85 0;
#X restore 846 613 pd wavetable-flux;
#X obj 113 168 knob 48 48 0 127 0 1 \$0-flux-pitch-s \$0-flux-pitch-r
PITCH 0 -8 1 8 -262144 -1 -1 37 1;
#X obj 170 168 knob 32 32 0 127 0 1 \$0-flux-timbre-s \$0-flux-timbre-r
TIMBRE 0 -8 1 8 -262144 -1 -1 24 1;
#X obj 211 168 knob 32 32 0 127 0 1 \$0-flux-flux-s \$0-flux-flux-r
FLUX 0 -8 1 8 -262144 -1 -1 24 1;
#X obj 255 204 knob 32 32 0 127 0 0 \$0-preset-scan-s \$0-preset-scan-r
P-SCAN 0 -8 1 8 -262144 -1 -1 24 1;
#X obj 478 42 r \$0-flux-pitch-s;
#X obj 654 39 r \$0-flux-timbre-s;
#N canvas 438 226 842 548 fm-oscillator 0;
#X obj 174 230 +~;
#X obj 174 336 *~;
#X obj 454 210 / 127;
#X obj 454 232 pack 0 50;
#X obj 454 254 line~;
#X obj 174 395 cos~;
#N canvas 501 202 450 300 modulator+index 0;
#X obj 70 -37 inlet;
#X obj 70 39 mtof~;
#X obj 69 125 *~;
#X obj 69 166 outlet~;
#X obj 209 13 inlet;
#X obj 209 35 / 127;
#X obj 209 57 pack 0 100;
#X obj 209 79 line~;
#X obj 70 15 line~;
#X obj 70 82 osc~;
#X obj 209 101 *~ 1;
#X msg 70 -12 \$1 10;
#X connect 0 0 11 0;
#X connect 1 0 9 0;
#X connect 2 0 3 0;
#X connect 4 0 5 0;
#X connect 5 0 6 0;
#X connect 6 0 7 0;
#X connect 7 0 10 0;
#X connect 8 0 1 0;
#X connect 9 0 2 0;
#X connect 10 0 2 1;
#X connect 11 0 8 0;
#X restore 189 203 pd modulator+index;
#X obj 189 14 r \$0-flux-modulator-s;
#X obj 294 59 r \$0-flux-index-s;
#X obj 453 29 r \$0-flux-index-s;
#X obj 173 -39 inlet~;
#X obj 174 425 outlet~;
#X obj 189 42 +;
#X obj 325 -41 inlet~;
#X obj 325 -19 *~ 127;
#X obj 325 3 snapshot~;
#X obj 325 25 t b f;
#X obj 286 -18 bang~;
#X obj 294 180 +;
#X obj 388 97 inlet~;
#X obj 388 119 *~ 127;
#X obj 388 141 snapshot~;
#X obj 388 163 t b f;
#X obj 454 184 +;
#X obj 351 121 bang~;
#X obj 533 193 r \$0-flux-timbre-s;
#X obj 536 248 pack 0 50;
#X obj 536 270 line~;
#X obj 536 226 / 256;
#X obj 174 264 cos~;
#X obj 68 173 phasor~;
#X connect 0 0 29 0;
#X connect 1 0 5 0;
#X connect 2 0 3 0;
#X connect 3 0 4 0;
#X connect 4 0 1 1;
#X connect 5 0 11 0;
#X connect 6 0 0 1;
#X connect 7 0 12 0;
#X connect 8 0 18 0;
#X connect 9 0 23 0;
#X connect 10 0 30 0;
#X connect 12 0 6 0;
#X connect 13 0 14 0;
#X connect 14 0 15 0;
#X connect 15 0 16 0;
#X connect 16 0 12 0;
#X connect 16 1 12 1;
#X connect 17 0 15 0;
#X connect 18 0 6 1;
#X connect 19 0 20 0;
#X connect 20 0 21 0;
#X connect 21 0 22 0;
#X connect 22 0 18 0;
#X connect 22 0 23 0;
#X connect 22 1 18 1;
#X connect 22 1 23 1;
#X connect 23 0 2 0;
#X connect 24 0 21 0;
#X connect 25 0 28 0;
#X connect 26 0 27 0;
#X connect 27 0 1 1;
#X connect 28 0 26 0;
#X connect 29 0 1 0;
#X connect 30 0 0 0;
#X restore 380 500 pd fm-oscillator;
#X obj 526 649 outlet~;
#X obj 846 521 r \$0-flux-flux-s;
#X text 845 498 FLUX;
#N canvas 70 22 912 596 preset-waveform-section 0;
#N canvas 362 22 1055 663 preset-waveform-1 0;
#X obj 127 104 r \$0-flux-pitch-s;
#X obj 112 130 f;
#X obj 97 228 f;
#X obj 112 80 r \$0-set-preset-1;
#X obj 24 186 r \$0-flux-pw1;
#X obj 112 163 knob 32 32 0 127 0 1 empty empty empty 0 -8 0 8 -262144
-1 -1 705 1;
#X obj 349 127 f;
#X obj 334 225 f;
#X obj 349 77 r \$0-set-preset-1;
#X obj 261 183 r \$0-flux-pw1;
#X obj 349 160 knob 32 32 0 127 0 1 empty empty empty 0 -8 0 8 -262144
-1 -1 0 1;
#X obj 364 101 r \$0-flux-timbre-s;
#X obj 597 116 f;
#X obj 582 214 f;
#X obj 597 66 r \$0-set-preset-1;
#X obj 509 172 r \$0-flux-pw1;
#X obj 597 149 knob 32 32 0 127 0 1 empty empty empty 0 -8 0 8 -262144
-1 -1 1700 1;
#X obj 612 90 r \$0-flux-modulator-s;
#X obj 198 387 f;
#X obj 183 485 f;
#X obj 198 337 r \$0-set-preset-1;
#X obj 110 443 r \$0-flux-pw1;
#X obj 198 420 knob 32 32 0 127 0 1 empty empty empty 0 -8 0 8 -262144
-1 -1 528 1;
#X obj 213 361 r \$0-flux-index-s;
#X obj 524 379 f;
#X obj 509 477 f;
#X obj 524 329 r \$0-set-preset-1;
#X obj 436 435 r \$0-flux-pw1;
#X obj 524 412 knob 32 32 0 127 0 1 empty empty empty 0 -8 0 8 -262144
-1 -1 3100 1;
#X obj 539 353 r \$0-flux-flux-s;
#X obj 97 296 s \$0-flux-pitch-r;
#X obj 334 293 s \$0-flux-timbre-r;
#X obj 582 282 s \$0-flux-modulator-r;
#X obj 509 545 s \$0-flux-flux-r;
#X obj 183 553 s \$0-flux-index-r;
#X connect 0 0 1 1;
#X connect 1 0 5 0;
#X connect 2 0 30 0;
#X connect 3 0 1 0;
#X connect 4 0 2 0;
#X connect 5 0 2 1;
#X connect 6 0 10 0;
#X connect 7 0 31 0;
#X connect 8 0 6 0;
#X connect 9 0 7 0;
#X connect 10 0 7 1;
#X connect 11 0 6 1;
#X connect 12 0 16 0;
#X connect 13 0 32 0;
#X connect 14 0 12 0;
#X connect 15 0 13 0;
#X connect 16 0 13 1;
#X connect 17 0 12 1;
#X connect 18 0 22 0;
#X connect 19 0 34 0;
#X connect 20 0 18 0;
#X connect 21 0 19 0;
#X connect 22 0 19 1;
#X connect 23 0 18 1;
#X connect 24 0 28 0;
#X connect 25 0 33 0;
#X connect 26 0 24 0;
#X connect 27 0 25 0;
#X connect 28 0 25 1;
#X connect 29 0 24 1;
#X restore 114 445 pd preset-waveform-1;
#X obj -101 23 r \$0-preset-scan-s;
#X obj -101 285 / 127;
#X obj -53 368 s \$0-flux-active-preset-r;
#X obj -101 307 * 4;
#X obj -101 351 i;
#X obj -101 533 s \$0-flux-pw1;
#X obj -86 508 s \$0-flux-pw2;
#X obj -56 454 s \$0-flux-pw4;
#X obj -71 481 s \$0-flux-pw3;
#X obj -41 426 s \$0-flux-pw5;
#X obj -101 398 sel 1 2 3 4 5;
#N canvas 362 22 1055 663 preset-waveform-2 0;
#X obj 127 104 r \$0-flux-pitch-s;
#X obj 112 130 f;
#X obj 97 228 f;
#X obj 112 163 knob 32 32 0 127 0 1 empty empty empty 0 -8 0 8 -262144
-1 -1 285 1;
#X obj 349 127 f;
#X obj 334 225 f;
#X obj 349 160 knob 32 32 0 127 0 1 empty empty empty 0 -8 0 8 -262144
-1 -1 0 1;
#X obj 364 101 r \$0-flux-timbre-s;
#X obj 597 116 f;
#X obj 582 214 f;
#X obj 612 90 r \$0-flux-modulator-s;
#X obj 198 387 f;
#X obj 183 485 f;
#X obj 198 420 knob 32 32 0 127 0 1 empty empty empty 0 -8 0 8 -262144
-1 -1 594 1;
#X obj 213 361 r \$0-flux-index-s;
#X obj 524 379 f;
#X obj 509 477 f;
#X obj 524 412 knob 32 32 0 127 0 1 empty empty empty 0 -8 0 8 -262144
-1 -1 3100 1;
#X obj 539 353 r \$0-flux-flux-s;
#X obj 112 80 r \$0-set-preset-2;
#X obj 349 77 r \$0-set-preset-2;
#X obj 597 66 r \$0-set-preset-2;
#X obj 524 329 r \$0-set-preset-2;
#X obj 198 337 r \$0-set-preset-2;
#X obj 24 186 r \$0-flux-pw2;
#X obj 261 183 r \$0-flux-pw2;
#X obj 509 172 r \$0-flux-pw2;
#X obj 436 435 r \$0-flux-pw2;
#X obj 110 443 r \$0-flux-pw2;
#X obj 597 149 knob 32 32 0 127 0 1 empty empty empty 0 -8 0 8 -262144
-1 -1 1700 1;
#X obj 97 296 s \$0-flux-pitch-r;
#X obj 334 293 s \$0-flux-timbre-r;
#X obj 582 282 s \$0-flux-modulator-r;
#X obj 183 553 s \$0-flux-index-r;
#X obj 509 545 s \$0-flux-flux-r;
#X connect 0 0 1 1;
#X connect 1 0 3 0;
#X connect 2 0 30 0;
#X connect 3 0 2 1;
#X connect 4 0 6 0;
#X connect 5 0 31 0;
#X connect 6 0 5 1;
#X connect 7 0 4 1;
#X connect 8 0 29 0;
#X connect 9 0 32 0;
#X connect 10 0 8 1;
#X connect 11 0 13 0;
#X connect 12 0 33 0;
#X connect 13 0 12 1;
#X connect 14 0 11 1;
#X connect 15 0 17 0;
#X connect 16 0 34 0;
#X connect 17 0 16 1;
#X connect 18 0 15 1;
#X connect 19 0 1 0;
#X connect 20 0 4 0;
#X connect 21 0 8 0;
#X connect 22 0 15 0;
#X connect 23 0 11 0;
#X connect 24 0 2 0;
#X connect 25 0 5 0;
#X connect 26 0 9 0;
#X connect 27 0 16 0;
#X connect 28 0 12 0;
#X connect 29 0 9 1;
#X restore 114 468 pd preset-waveform-2;
#N canvas 362 22 1055 663 preset-waveform-3 0;
#X obj 127 104 r \$0-flux-pitch-s;
#X obj 112 130 f;
#X obj 97 228 f;
#X obj 112 163 knob 32 32 0 127 0 1 empty empty empty 0 -8 0 8 -262144
-1 -1 1716 1;
#X obj 349 127 f;
#X obj 334 225 f;
#X obj 349 160 knob 32 32 0 127 0 1 empty empty empty 0 -8 0 8 -262144
-1 -1 0 1;
#X obj 364 101 r \$0-flux-timbre-s;
#X obj 597 116 f;
#X obj 582 214 f;
#X obj 597 149 knob 32 32 0 127 0 1 empty empty empty 0 -8 0 8 -262144
-1 -1 1384 1;
#X obj 612 90 r \$0-flux-modulator-s;
#X obj 198 387 f;
#X obj 183 485 f;
#X obj 198 420 knob 32 32 0 127 0 1 empty empty empty 0 -8 0 8 -262144
-1 -1 1516 1;
#X obj 213 361 r \$0-flux-index-s;
#X obj 524 379 f;
#X obj 509 477 f;
#X obj 524 412 knob 32 32 0 127 0 1 empty empty empty 0 -8 0 8 -262144
-1 -1 3100 1;
#X obj 539 353 r \$0-flux-flux-s;
#X obj 112 80 r \$0-set-preset-3;
#X obj 349 77 r \$0-set-preset-3;
#X obj 597 66 r \$0-set-preset-3;
#X obj 524 329 r \$0-set-preset-3;
#X obj 198 337 r \$0-set-preset-3;
#X obj 110 443 r \$0-flux-pw3;
#X obj 436 435 r \$0-flux-pw3;
#X obj 509 172 r \$0-flux-pw3;
#X obj 261 183 r \$0-flux-pw3;
#X obj 24 186 r \$0-flux-pw3;
#X obj 97 296 s \$0-flux-pitch-r;
#X obj 334 293 s \$0-flux-timbre-r;
#X obj 582 282 s \$0-flux-modulator-r;
#X obj 509 545 s \$0-flux-flux-r;
#X obj 183 553 s \$0-flux-index-r;
#X connect 0 0 1 1;
#X connect 1 0 3 0;
#X connect 2 0 30 0;
#X connect 3 0 2 1;
#X connect 4 0 6 0;
#X connect 5 0 31 0;
#X connect 6 0 5 1;
#X connect 7 0 4 1;
#X connect 8 0 10 0;
#X connect 9 0 32 0;
#X connect 10 0 9 1;
#X connect 11 0 8 1;
#X connect 12 0 14 0;
#X connect 13 0 34 0;
#X connect 14 0 13 1;
#X connect 15 0 12 1;
#X connect 16 0 18 0;
#X connect 17 0 33 0;
#X connect 18 0 17 1;
#X connect 19 0 16 1;
#X connect 20 0 1 0;
#X connect 21 0 4 0;
#X connect 22 0 8 0;
#X connect 23 0 16 0;
#X connect 24 0 12 0;
#X connect 25 0 13 0;
#X connect 26 0 17 0;
#X connect 27 0 9 0;
#X connect 28 0 5 0;
#X connect 29 0 2 0;
#X restore 113 493 pd preset-waveform-3;
#N canvas 362 22 1055 663 preset-waveform-4 0;
#X obj 127 104 r \$0-flux-pitch-s;
#X obj 112 130 f;
#X obj 97 228 f;
#X obj 112 163 knob 32 32 0 127 0 1 empty empty empty 0 -8 0 8 -262144
-1 -1 1057 1;
#X obj 349 127 f;
#X obj 334 225 f;
#X obj 349 160 knob 32 32 0 127 0 1 empty empty empty 0 -8 0 8 -262144
-1 -1 0 1;
#X obj 364 101 r \$0-flux-timbre-s;
#X obj 597 116 f;
#X obj 582 214 f;
#X obj 597 149 knob 32 32 0 127 0 1 empty empty empty 0 -8 0 8 -262144
-1 -1 884 1;
#X obj 612 90 r \$0-flux-modulator-s;
#X obj 198 387 f;
#X obj 183 485 f;
#X obj 198 420 knob 32 32 0 127 0 1 empty empty empty 0 -8 0 8 -262144
-1 -1 1516 1;
#X obj 213 361 r \$0-flux-index-s;
#X obj 524 379 f;
#X obj 509 477 f;
#X obj 524 412 knob 32 32 0 127 0 1 empty empty empty 0 -8 0 8 -262144
-1 -1 3100 1;
#X obj 539 353 r \$0-flux-flux-s;
#X obj 112 80 r \$0-set-preset-4;
#X obj 349 77 r \$0-set-preset-4;
#X obj 597 66 r \$0-set-preset-4;
#X obj 524 329 r \$0-set-preset-4;
#X obj 198 337 r \$0-set-preset-4;
#X obj 24 186 r \$0-flux-pw4;
#X obj 261 183 r \$0-flux-pw4;
#X obj 509 172 r \$0-flux-pw4;
#X obj 436 435 r \$0-flux-pw4;
#X obj 110 443 r \$0-flux-pw4;
#X obj 97 296 s \$0-flux-pitch-r;
#X obj 333 294 s \$0-flux-timbre-r;
#X obj 582 282 s \$0-flux-modulator-r;
#X obj 183 553 s \$0-flux-index-r;
#X obj 509 545 s \$0-flux-flux-r;
#X connect 0 0 1 1;
#X connect 1 0 3 0;
#X connect 2 0 30 0;
#X connect 3 0 2 1;
#X connect 4 0 6 0;
#X connect 5 0 31 0;
#X connect 6 0 5 1;
#X connect 7 0 4 1;
#X connect 8 0 10 0;
#X connect 9 0 32 0;
#X connect 10 0 9 1;
#X connect 11 0 8 1;
#X connect 12 0 14 0;
#X connect 13 0 33 0;
#X connect 14 0 13 1;
#X connect 15 0 12 1;
#X connect 16 0 18 0;
#X connect 17 0 34 0;
#X connect 18 0 17 1;
#X connect 19 0 16 1;
#X connect 20 0 1 0;
#X connect 21 0 4 0;
#X connect 22 0 8 0;
#X connect 23 0 16 0;
#X connect 24 0 12 0;
#X connect 25 0 2 0;
#X connect 26 0 5 0;
#X connect 27 0 9 0;
#X connect 28 0 17 0;
#X connect 29 0 13 0;
#X restore 113 518 pd preset-waveform-4;
#N canvas 362 22 1055 663 preset-waveform-5 0;
#X obj 127 104 r \$0-flux-pitch-s;
#X obj 112 130 f;
#X obj 97 228 f;
#X obj 112 163 knob 32 32 0 127 0 1 empty empty empty 0 -8 0 8 -262144
-1 -1 2094 1;
#X obj 349 127 f;
#X obj 334 225 f;
#X obj 349 160 knob 32 32 0 127 0 1 empty empty empty 0 -8 0 8 -262144
-1 -1 2500 1;
#X obj 364 101 r \$0-flux-timbre-s;
#X obj 597 116 f;
#X obj 582 214 f;
#X obj 597 149 knob 32 32 0 127 0 1 empty empty empty 0 -8 0 8 -262144
-1 -1 1600 1;
#X obj 612 90 r \$0-flux-modulator-s;
#X obj 198 387 f;
#X obj 183 485 f;
#X obj 198 420 knob 32 32 0 127 0 1 empty empty empty 0 -8 0 8 -262144
-1 -1 1517 1;
#X obj 213 361 r \$0-flux-index-s;
#X obj 524 379 f;
#X obj 509 477 f;
#X obj 524 412 knob 32 32 0 127 0 1 empty empty empty 0 -8 0 8 -262144
-1 -1 1700 1;
#X obj 539 353 r \$0-flux-flux-s;
#X obj 112 80 r \$0-set-preset-5;
#X obj 349 77 r \$0-set-preset-5;
#X obj 597 66 r \$0-set-preset-5;
#X obj 524 329 r \$0-set-preset-5;
#X obj 198 337 r \$0-set-preset-5;
#X obj 110 443 r \$0-flux-pw5;
#X obj 432 435 r \$0-flux-pw5;
#X obj 509 172 r \$0-flux-pw5;
#X obj 261 183 r \$0-flux-pw5;
#X obj 24 186 r \$0-flux-pw5;
#X obj 97 296 s \$0-flux-pitch-r;
#X obj 334 293 s \$0-flux-timbre-r;
#X obj 582 282 s \$0-flux-modulator-r;
#X obj 183 553 s \$0-flux-index-r;
#X obj 509 545 s \$0-flux-flux-r;
#X connect 0 0 1 1;
#X connect 1 0 3 0;
#X connect 2 0 30 0;
#X connect 3 0 2 1;
#X connect 4 0 6 0;
#X connect 5 0 31 0;
#X connect 6 0 5 1;
#X connect 7 0 4 1;
#X connect 8 0 10 0;
#X connect 9 0 32 0;
#X connect 10 0 9 1;
#X connect 11 0 8 1;
#X connect 12 0 14 0;
#X connect 13 0 33 0;
#X connect 14 0 13 1;
#X connect 15 0 12 1;
#X connect 16 0 18 0;
#X connect 17 0 34 0;
#X connect 18 0 17 1;
#X connect 19 0 16 1;
#X connect 20 0 1 0;
#X connect 21 0 4 0;
#X connect 22 0 8 0;
#X connect 23 0 16 0;
#X connect 24 0 12 0;
#X connect 25 0 13 0;
#X connect 26 0 17 0;
#X connect 27 0 9 0;
#X connect 28 0 5 0;
#X connect 29 0 2 0;
#X restore 113 541 pd preset-waveform-5;
#X obj -226 390 s \$0-flux-seq-gui-r;
#X obj 164 265 inlet~;
#X obj 164 316 f;
#X obj 193 316 + 1;
#X obj 282 221 inlet~;
#X obj 164 291 threshold~ 1 0 1 0;
#X obj 164 338 % 5;
#X obj 164 360 + 1;
#X floatatom 164 382 5 0 0 0 - - -;
#X obj 282 250 threshold~ 1 0 1 0;
#X msg 282 277 0;
#X obj 282 299 t b f;
#X text 161 246 STEP PRESET;
#X text 281 202 RST STEP;
#X obj 225 355 s \$0-flux-seq-gui-r;
#X obj 321 324 s \$0-flux-reset-gui-r;
#X obj -226 368 - 1;
#X obj 225 379 s \$0-flux-active-preset-r;
#X obj -25 308 s \$0-flux-step-gui-r;
#X obj 30 35 inlet~;
#X obj 30 58 *~ 127;
#X obj 30 93 snapshot~;
#X obj 32 217 t b f;
#X floatatom -159 346 5 0 0 0 - - -;
#X obj -101 329 + 1.5;
#X obj -101 234 +;
#X obj -23 46 bang~;
#X obj -23 76 spigot;
#X obj 104 98 env~;
#X msg 131 198 0;
#X obj 131 174 sel 0;
#X obj 104 143 > 0;
#X obj 104 120 t f f;
#X obj -101 257 moses 127;
#X obj 436 19 r \$0-flux-save-s;
#X floatatom 436 41 5 0 0 0 - - -;
#X obj 436 62 sel 0 1 2 3 4;
#X obj 436 226 s \$0-set-preset-1;
#X obj 496 100 s \$0-set-preset-5;
#X obj 451 195 s \$0-set-preset-2;
#X obj 466 158 s \$0-set-preset-3;
#X obj 481 128 s \$0-set-preset-4;
#X obj 450 347 r \$0-flux-seq-gui-s;
#X obj 450 507 s \$0-flux-pw1;
#X obj 465 482 s \$0-flux-pw2;
#X obj 495 428 s \$0-flux-pw4;
#X obj 480 455 s \$0-flux-pw3;
#X obj 510 400 s \$0-flux-pw5;
#X obj 450 372 sel 0 1 2 3 4;
#X connect 1 0 41 0;
#X connect 2 0 4 0;
#X connect 4 0 40 0;
#X connect 5 0 3 0;
#X connect 5 0 11 0;
#X connect 5 0 32 0;
#X connect 11 0 6 0;
#X connect 11 1 7 0;
#X connect 11 2 9 0;
#X connect 11 3 8 0;
#X connect 11 4 10 0;
#X connect 17 0 21 0;
#X connect 18 0 19 0;
#X connect 18 0 22 0;
#X connect 19 0 18 1;
#X connect 20 0 25 0;
#X connect 21 0 18 0;
#X connect 21 0 34 0;
#X connect 22 0 23 0;
#X connect 22 0 30 0;
#X connect 23 0 24 0;
#X connect 23 0 33 0;
#X connect 24 0 11 0;
#X connect 25 0 26 0;
#X connect 25 0 31 0;
#X connect 26 0 27 0;
#X connect 27 0 18 0;
#X connect 27 1 18 1;
#X connect 32 0 16 0;
#X connect 35 0 36 0;
#X connect 35 0 44 0;
#X connect 36 0 37 0;
#X connect 37 0 38 0;
#X connect 38 0 41 0;
#X connect 38 1 41 1;
#X connect 40 0 5 0;
#X connect 40 0 39 0;
#X connect 41 0 49 0;
#X connect 42 0 43 0;
#X connect 43 0 37 0;
#X connect 44 0 48 0;
#X connect 45 0 43 1;
#X connect 46 0 45 0;
#X connect 47 0 43 1;
#X connect 48 0 47 0;
#X connect 48 1 46 0;
#X connect 49 0 2 0;
#X connect 50 0 51 0;
#X connect 51 0 52 0;
#X connect 52 0 53 0;
#X connect 52 1 55 0;
#X connect 52 2 56 0;
#X connect 52 3 57 0;
#X connect 52 4 54 0;
#X connect 58 0 64 0;
#X connect 64 0 59 0;
#X connect 64 1 60 0;
#X connect 64 2 62 0;
#X connect 64 3 61 0;
#X connect 64 4 63 0;
#X restore 916 301 pd preset-waveform-section;
#X obj 326 116 bng 15 250 50 0 empty \$0-flux-reset-gui-r empty 17
7 1 10 -1 -4032 -1;
#X obj 846 589 +;
#X obj 528 131 inlet~;
#X text 573 131 PITCH CV IN;
#X obj 655 170 +;
#X obj 701 87 inlet~;
#X obj 701 109 *~ 127;
#X obj 701 131 snapshot~;
#X obj 701 153 t b f;
#X text 691 71 TIMBRE CV IN;
#X obj 811 87 inlet~;
#X text 789 68 MODULATOR CV IN;
#X obj 870 109 inlet~;
#X text 853 92 FM-INDEX CV IN;
#X obj 992 116 inlet~;
#X text 981 96 STEP PRESET;
#X text 1066 130 RST STEP;
#X obj 1069 148 inlet~;
#X obj 526 490 cos~;
#X obj 526 520 *~ 0.33;
#X obj 664 448 *~ 2;
#X obj 664 470 -~ 1;
#X msg 846 543 127 \$1;
#X obj 846 565 -;
#X obj 655 276 / 64;
#X obj 213 500 tgl 30 1 empty empty empty 17 7 0 10 -262144 -1 -1 1
1;
#X obj 251 500 bng 30 250 50 0 empty empty empty 17 7 0 10 -262144
-1 -1;
#X obj 213 532 cnv 15 75 10 empty empty XODULAR 0 12 1 14 -228856 -66577
0;
#X obj 212 550 cnv 15 75 10 empty empty ECOSYSTEM 0 12 1 11 -228856
-66577 0;
#X obj 292 116 bng 15 250 50 0 empty \$0-flux-step-gui-r empty 17 7
1 10 -1 -258113 -1;
#X obj 105 105 cnv 5 10 10 empty empty PITCH 0 5 1 7 -228856 -66577
0;
#X obj 130 105 cnv 5 10 10 empty empty TIMBRE 0 5 1 7 -228856 -66577
0;
#X obj 178 105 cnv 5 10 10 empty empty MOD 0 5 1 7 -228856 -66577 0
;
#X obj 217 105 cnv 5 10 10 empty empty INDEX 0 5 1 7 -228856 -66577
0;
#X obj 293 105 cnv 5 10 10 empty empty P-STEP 0 5 1 7 -228856 -258113
0;
#X obj 329 105 cnv 5 10 10 empty empty RST 0 5 1 7 -228856 -258113
0;
#X obj 107 285 cnv 5 10 10 empty empty OUT 0 5 1 7 -228856 -66577 0
;
#X obj 478 221 mtof~;
#X obj 478 191 +~;
#X obj 528 155 *~ 127;
#X obj 380 529 *~ 0.5;
#X obj 916 146 inlet~;
#X text 918 129 P-SCAN;
#X obj 102 311 r \$0-flux-active-preset-r;
#X floatatom 256 243 5 0 0 0 - - -;
#X obj 102 339 moses 5.5;
#X obj 102 363 moses 1;
#X obj 248 105 cnv 5 10 10 empty empty P-SCAN 0 5 1 7 -228856 -66577
0;
#X obj 526 433 osc~;
#X obj 575 207 snapshot~;
#X obj 574 227 s \$0-flux-pitch2-s;
#X obj 304 204 vradio 15 1 0 5 \$0-flux-save-s \$0-flux-save-r SAVE/
-13 -8 1 10 -261234 -1 -1 0;
#X obj 319 204 vradio 15 1 0 5 \$0-flux-seq-gui-s \$0-flux-seq-gui-r
LOAD 0 -8 1 10 -204786 -1 -1 0;
#X obj 255 168 tgl 15 1 empty empty P-MOD 17 7 1 10 -262144 -1 -1 1
1;
#X obj 916 210 *~;
#X obj 992 210 *~;
#X obj 1069 210 *~;
#X obj 526 620 *~ 0.5;
#X obj 110 145 cnv 5 5 5 empty empty FLUX-PRESET-WAVEFORMS 0 0 1 14
-233017 -66577 0;
#X obj 478 86 line~;
#X obj 478 64 pack f 100;
#N canvas 333 145 498 383 square 0;
#X obj 115 57 sig~;
#X obj 115 89 +~;
#X obj 115 116 mtof~;
#X obj 115 19 inlet;
#X obj 115 332 outlet~;
#X obj 178 24 inlet~;
#X obj 178 64 *~ 127;
#X obj 115 169 phasor~;
#N canvas 0 22 450 278 (subpatch) 0;
#X array hej 512 float 1;
#A 0 1 1 1 1 1 1 1 1 1 1 1 1 1 1 1 1 1 1 1 1 1 1 1 1 1 1 1 1 1 1 1
1 1 1 1 1 1 1 1 1 1 1 1 1 1 1 1 1 1 1 1 1 1 1 1 1 1 1 1 1 1 1 1 1 1
1 1 1 1 1 1 1 1 1 1 1 1 1 1 1 1 1 1 1 1 1 1 1 1 1 1 1 1 1 1 1 1 1 1
1 1 1 1 1 1 1 1 1 1 1 1 1 1 1 1 1 1 1 1 1 1 1 1 1 1 1 1 1 1 1 1 1 1
1 1 1 1 1 1 1 1 1 1 1 1 1 1 1 1 1 1 1 1 1 1 1 1 1 1 1 1 1 1 1 1 1 1
1 1 1 1 1 1 1 1 1 1 1 1 1 1 1 1 1 1 1 1 1 1 1 1 1 1 1 1 1 1 1 1 1 1
1 1 1 1 1 1 1 1 1 1 1 1 1 1 1 1 1 1 1 1 1 1 1 1 1 1 1 1 1 1 1 1 1 1
1 1 1 1 1 1 1 1 1 1 1 1 1 1 1 1 1 1 1 1 1 1 1 1 1 1 1 1 1 1 1 1 1 1
1 1 1 1 1 1 1 1 1 1 1 1 1 1 1 1 1 1 1 1 1 1 1 1 1 1 1 1 1 1 1 1 1 1
1 1 1 1 1 1 1 1 1 1 1 1 1 1 1 1 1 1 1 1 1 1 1 1 1 1 1 1 1 1 1 1 1 1
1 1 1 1 1 1 1 1 1 1 1 1 1 1 1 1 1 1 1 1 1 1 1 1 1 1 1 1 1 1 1 1 1 1
1 1 1 1 1 1 1 1 1 1 1 1 1 1 1 1 1 1 1 1 1 1 1 1 1 1 1 1 1 1 1 1 1 1
1 1 1 1 1 1 1 1 1 1 1 1 1 1 1 1 1 1 1 1 1 1 1 1 1 1 1 1 1 1 1 1 1 1
1 1 1 1 1 1 1 1 1 1 1 1 1 1 1 1 1 1 1 1 1 1 1 1 1 1 1 1 1 1 1 1 1 1
1 1 1 1 1 1 1 1 1 1 1 1 1 1 1 1 1 1 1 1 1 1 1 1 1 1 1 1 1 1 1 1 1 1
1 1 1 1 1;
#X coords 0 1 511 -1 200 140 1 0 0;
#X restore 286 22 graph;
#X obj 115 236 *~ 2;
#X obj 115 258 -~ 1;
#X obj 115 197 expr~ $v1 > $v2;
#X obj 202 125 loadbang;
#X msg 202 147 0.5;
#X obj 202 169 sig~;
#X connect 0 0 1 0;
#X connect 1 0 2 0;
#X connect 2 0 7 0;
#X connect 3 0 0 0;
#X connect 5 0 6 0;
#X connect 6 0 1 1;
#X connect 7 0 11 0;
#X connect 9 0 10 0;
#X connect 10 0 4 0;
#X connect 11 0 9 0;
#X connect 12 0 13 0;
#X connect 13 0 14 0;
#X connect 14 0 11 1;
#X restore 1032 469 pd square;
#X obj 1031 421 r \$0-flux-pitch-s;
#X obj 1033 605 outlet~;
#X text 1024 626 PULSE OUT;
#X obj 321 285 cnv 5 10 10 empty empty PULSE 0 5 1 7 -228856 -258113
0;
#X obj 575 166 bang~;
#X obj 646 114 bang~;
#X connect 1 0 49 0;
#X connect 2 0 86 0;
#X connect 3 0 2 0;
#X connect 4 0 47 0;
#X connect 5 0 48 0;
#X connect 6 0 4 1;
#X connect 7 0 8 0;
#X connect 8 0 9 0;
#X connect 9 0 12 0;
#X connect 10 0 5 1;
#X connect 11 0 6 0;
#X connect 12 0 10 0;
#X connect 17 0 48 0;
#X connect 22 0 89 0;
#X connect 23 0 33 0;
#X connect 24 0 69 0;
#X connect 26 0 51 0;
#X connect 30 0 17 0;
#X connect 31 0 68 0;
#X connect 31 0 90 1;
#X connect 33 0 7 0;
#X connect 33 0 53 0;
#X connect 34 0 35 0;
#X connect 35 0 36 0;
#X connect 36 0 37 0;
#X connect 37 0 33 0;
#X connect 37 1 33 1;
#X connect 39 0 24 1;
#X connect 41 0 24 2;
#X connect 43 0 84 0;
#X connect 46 0 85 0;
#X connect 47 0 48 0;
#X connect 48 0 3 0;
#X connect 49 0 50 0;
#X connect 50 0 5 0;
#X connect 51 0 52 0;
#X connect 52 0 30 0;
#X connect 53 0 11 0;
#X connect 66 0 1 0;
#X connect 66 0 24 0;
#X connect 66 0 77 0;
#X connect 67 0 66 0;
#X connect 67 0 78 0;
#X connect 68 0 67 1;
#X connect 69 0 86 0;
#X connect 70 0 83 0;
#X connect 72 0 74 0;
#X connect 74 0 75 0;
#X connect 75 1 73 0;
#X connect 77 0 4 0;
#X connect 78 0 79 0;
#X connect 82 0 83 1;
#X connect 82 0 84 1;
#X connect 82 0 85 1;
#X connect 83 0 28 0;
#X connect 84 0 28 1;
#X connect 85 0 28 2;
#X connect 86 0 25 0;
#X connect 88 0 67 0;
#X connect 89 0 88 0;
#X connect 90 0 92 0;
#X connect 91 0 90 0;
#X connect 95 0 78 0;
#X connect 96 0 36 0;
#X coords 0 -1 1 1 250 200 2 100 100;
