#N canvas 0 22 1214 669 10;
#X obj 106 105 cnv 15 190 190 empty empty empty 20 24 1 14 -233017
-66577 0;
#X obj 393 414 poly 4 1;
#X obj 554 152 notein;
#X obj 206 433 s \$0-attack;
#X obj 225 334 s \$0-release;
#X obj 393 376 t f f;
#X obj 554 315 spigot;
#X obj 600 315 spigot;
#X obj 202 120 tgl 15 1 empty empty MIDIKEY 17 7 1 10 -262144 -1 -1
0 1;
#X obj 110 332 s \$0-midi-switch;
#X obj 587 248 r \$0-midi-switch;
#X obj 111 219 knob 32 32 0 127 0 1 \$0-poly-param3 empty C 0 -8 1
8 -262144 -1 -1 24 1;
#X obj 156 219 knob 32 32 1.27 127 1 1 \$0-poly-param4 empty D 0 -8
1 8 -262144 -1 -1 0 1;
#X obj 305 29 inlet~;
#X obj 306 190 snapshot~;
#X obj 417 26 inlet~;
#X obj 417 50 threshold~ 1 0 1 0;
#X floatatom 492 209 5 0 0 0 - - -;
#X obj 492 368 bng 15 250 50 0 empty empty empty 17 7 0 10 -262144
-1 -1;
#X obj 492 239 sel 0;
#X obj 554 184 t f;
#X obj 585 195 t f f;
#X obj 417 132 spigot;
#X obj 450 80 r \$0-midi-switch;
#X obj 450 102 == 0;
#X obj 572 358 r \$0-midi-switch;
#X obj 572 380 sel 1;
#X obj 204 189 knob 32 32 0 127 0 1 empty empty ATTACK 0 -8 1 8 -262144
-1 -1 24 1;
#X obj 204 245 knob 32 32 0 127 0 1 empty empty RELEASE 0 -8 1 8 -262144
-1 -1 24 1;
#X obj 255 245 knob 32 32 0 127 0 1 empty empty AMP 0 -8 1 8 -262144
-1 -1 24 1;
#X obj 254 508 line~;
#X obj 254 482 pack f 50;
#X obj 394 596 *~;
#X obj 492 592 *~;
#X obj 241 189 knob 32 32 0 127 0 1 empty empty OFFSET 0 -8 1 8 -262144
-259828 -1 24 1;
#X text 303 12 PITCH;
#X text 420 7 GATE;
#X obj 704 33 inlet~;
#X obj 704 55 *~ 127;
#X obj 704 77 snapshot~;
#X obj 752 53 bang~;
#X text 705 19 FOLD;
#X obj 803 33 inlet~;
#X obj 803 55 *~ 127;
#X obj 803 77 snapshot~;
#X obj 843 53 bang~;
#X text 804 19 PWM;
#X obj 815 134 inlet~;
#X obj 815 156 *~ 127;
#X obj 815 178 snapshot~;
#X obj 863 154 bang~;
#X text 816 120 MOD;
#X obj 862 234 inlet~;
#X obj 862 256 *~ 127;
#X obj 862 278 snapshot~;
#X obj 910 254 bang~;
#X text 863 220 INDEX;
#X obj 206 164 cnv 5 1 1 empty empty POLYPHON 0 0 1 14 -233017 -66577
0;
#X obj 108 158 cnv 5 5 5 empty empty empty 20 12 0 14 -261234 -66577
0;
#X obj 114 118 cnv 5 5 45 empty empty empty 20 12 0 14 -261234 -66577
0;
#X obj 119 118 cnv 5 5 5 empty empty empty 20 12 0 14 -261234 -66577
0;
#X obj 125 118 cnv 5 5 45 empty empty empty 20 12 0 14 -261234 -66577
0;
#X obj 130 158 cnv 5 5 5 empty empty empty 20 12 0 14 -261234 -66577
0;
#X obj 136 118 cnv 5 5 45 empty empty empty 20 12 0 14 -261234 -66577
0;
#X obj 141 118 cnv 5 5 5 empty empty empty 20 12 0 14 -261234 -66577
0;
#X obj 147 118 cnv 5 5 45 empty empty empty 20 12 0 14 -261234 -66577
0;
#X obj 153 158 cnv 5 5 5 empty empty empty 20 12 0 14 -261234 -66577
0;
#X obj 157 118 cnv 5 5 45 empty empty empty 20 12 0 14 -261234 -66577
0;
#X obj 162 118 cnv 5 5 5 empty empty empty 20 12 0 14 -261234 -66577
0;
#X obj 168 118 cnv 5 5 45 empty empty empty 20 12 0 14 -261234 -66577
0;
#X obj 170 158 cnv 5 5 5 empty empty empty 20 12 0 14 -261234 -66577
0;
#X obj 176 118 cnv 5 5 45 empty empty empty 20 12 0 14 -261234 -66577
0;
#X obj 181 118 cnv 5 5 5 empty empty empty 20 12 0 14 -261234 -66577
0;
#X obj 187 118 cnv 5 5 45 empty empty empty 20 12 0 14 -261234 -66577
0;
#X obj 193 158 cnv 5 5 5 empty empty empty 20 12 0 14 -261234 -66577
0;
#X obj 107 106 cnv 5 10 10 empty empty P1 0 5 1 7 -228856 -66577 0
;
#X obj 144 105 cnv 5 10 10 empty empty TRIG 0 5 1 7 -228856 -258113
0;
#X obj 196 105 cnv 5 10 10 empty empty A 0 5 1 7 -228856 -66577 0;
#X obj 223 105 cnv 5 10 10 empty empty B 0 5 1 7 -228856 -66577 0;
#X obj 246 105 cnv 5 10 10 empty empty C 0 5 1 7 -228856 -66577 0;
#X obj 269 105 cnv 5 10 10 empty empty D 0 5 1 7 -228856 -66577 0;
#X obj 110 285 cnv 5 10 10 empty empty L-OUT 0 5 1 7 -228856 -66577
0;
#X obj 272 285 cnv 5 10 10 empty empty R-OUT 0 5 1 7 -228856 -66577
0;
#X obj 393 450 pack f f f;
#X obj 393 310 +;
#X obj 439 224 / 127;
#X obj 439 268 + 36;
#X obj 393 342 moses 127;
#X floatatom 393 240 5 0 0 0 - - -;
#X obj 305 97 *~ 127;
#X obj 368 28 inlet~;
#X obj 368 190 snapshot~;
#X text 366 11 PITCH;
#X obj 368 96 *~ 127;
#X obj 127 105 cnv 5 10 10 empty empty P2 0 5 1 7 -228856 -66577 0
;
#X obj 544 20 inlet~;
#X obj 544 44 threshold~ 1 0 1 0;
#X obj 496 138 spigot;
#X obj 578 74 r \$0-midi-switch;
#X obj 577 96 == 0;
#X text 547 1 GATE;
#X obj 168 105 cnv 5 10 10 empty empty TRIG2 0 5 1 7 -228856 -258113
0;
#X obj 156 119 bng 15 50 50 0 empty empty empty 17 7 0 10 -1 -258113
-1;
#X obj 182 119 bng 15 50 50 0 empty empty empty 17 7 0 10 -1 -258113
-1;
#X symbolatom 110 187 7 0 0 0 - #0-poly-A-gui-r -;
#X symbolatom 157 187 7 0 0 0 - #0-poly-B-gui-r -;
#X obj 111 150 knob 32 32 0 127 0 1 \$0-poly-param1 empty A 0 -8 1
8 -262144 -1 -1 24 1;
#X obj 201 139 hradio 15 1 1 2 \$0-poly-choose-synth-s \$0-poly-choose-synth-r
empty 0 -8 0 10 -262144 -1 -1 0;
#X obj 156 150 knob 32 32 1.27 127 0 1 \$0-poly-param2 empty B 0 -8
1 8 -262144 -1 -1 0 1;
#X symbolatom 111 257 7 0 0 0 - #0-poly-C-gui-r -;
#X symbolatom 158 257 7 0 0 0 - #0-poly-D-gui-r -;
#X symbolatom 237 138 7 0 0 0 - #0-poly-synth-gui-r -;
#N canvas 546 229 483 422 pwm-poly-synth 0;
#X obj 55 129 route 1 2 3 4;
#N canvas 588 32 522 657 lopass-filter 0;
#X obj -111 301 lop~;
#X obj 14 107 / 127;
#X obj -114 7 inlet~;
#X obj -111 488 outlet~;
#X obj 14 11 inlet;
#X text -117 -15 SIGNAL IN;
#X text 13 -10 CUT OFF IN;
#X obj 14 136 * 9900;
#X obj 14 190 t f f f f f;
#N canvas 506 107 472 378 bandpass-series 0;
#X obj 65 30 inlet~;
#X obj 65 208 vcf~ 10;
#X obj 84 179 sig~;
#X obj 84 150 inlet;
#X obj 201 178 sig~;
#X obj 201 121 inlet;
#X obj 179 207 vcf~ 7.5;
#X obj 284 177 sig~;
#X obj 268 206 vcf~ 5;
#X obj 284 113 inlet;
#X obj 353 177 sig~;
#X obj 353 113 inlet;
#X obj 331 206 vcf~ 2.5;
#X obj 284 147 - 50;
#X obj 201 148 - 25;
#X obj 353 147 - 75;
#X obj 181 344 *~ 0.125;
#X obj 181 366 outlet~;
#X connect 0 0 1 0;
#X connect 0 0 6 0;
#X connect 0 0 8 0;
#X connect 0 0 12 0;
#X connect 1 0 16 0;
#X connect 2 0 1 1;
#X connect 3 0 2 0;
#X connect 4 0 6 1;
#X connect 5 0 14 0;
#X connect 6 0 16 0;
#X connect 7 0 8 1;
#X connect 8 0 16 0;
#X connect 9 0 13 0;
#X connect 10 0 12 1;
#X connect 11 0 15 0;
#X connect 12 0 16 0;
#X connect 13 0 7 0;
#X connect 14 0 4 0;
#X connect 15 0 10 0;
#X connect 16 0 17 0;
#X restore -25 248 pd bandpass-series;
#X obj -111 405 *~;
#X obj 14 34 t f f;
#X obj 126 241 / 127;
#X obj 126 263 * 1;
#X obj 126 285 + 1;
#X obj 126 307 pack f 50;
#X obj 126 329 line~;
#X msg 126 192 127 \$1;
#X obj 126 214 -;
#X floatatom 201 309 5 0 0 0 - - -;
#X obj 14 158 + 100;
#X obj 14 82 line;
#X msg 14 60 \$1 50;
#X obj -111 449 *~ 0.5;
#X connect 0 0 10 0;
#X connect 1 0 7 0;
#X connect 2 0 0 0;
#X connect 2 0 9 0;
#X connect 4 0 11 0;
#X connect 7 0 20 0;
#X connect 8 0 0 1;
#X connect 8 1 9 1;
#X connect 8 2 9 2;
#X connect 8 3 9 3;
#X connect 8 4 9 4;
#X connect 9 0 0 0;
#X connect 10 0 23 0;
#X connect 11 0 22 0;
#X connect 11 1 17 0;
#X connect 12 0 13 0;
#X connect 13 0 14 0;
#X connect 14 0 15 0;
#X connect 14 0 19 0;
#X connect 15 0 16 0;
#X connect 16 0 10 1;
#X connect 17 0 18 0;
#X connect 18 0 12 0;
#X connect 20 0 8 0;
#X connect 21 0 1 0;
#X connect 22 0 21 0;
#X connect 23 0 3 0;
#X restore 54 313 pd lopass-filter;
#N canvas 706 233 503 478 synth1 0;
#N canvas 173 24 955 720 pwm 0;
#X obj 85 31 inlet;
#X obj 150 35 inlet;
#X text 85 14 PITCH;
#X obj 83 549 *~;
#X obj 158 253 / 127;
#X obj 158 275 * 1999;
#X obj 158 297 + 1;
#X obj 262 179 / 127;
#X obj 146 376 vline~;
#X obj 83 575 *~;
#X obj 83 685 outlet~;
#X msg 247 334 0 \$1;
#X obj 247 300 f;
#X obj 143 318 f;
#X obj 150 115 / 127;
#X obj 85 150 phasor~;
#X obj 150 184 pack 50;
#X text 118 628 normalize (-1 - 1);
#X msg 404 394 1 \$1 \, 0 \$2 \$1;
#X obj 404 369 pack f f;
#X obj 404 338 f;
#X obj 405 423 vline~;
#X text 450 424 XODULAR ENVELOPE;
#X text 186 376 NOTEIN ENVELOPE;
#X obj 419 197 r \$0-attack;
#X obj 449 269 r \$0-release;
#X obj 449 296 / 127;
#X obj 419 221 / 127;
#X obj 419 243 * 1999;
#X obj 419 265 + 1;
#X obj 146 432 *~;
#X obj 406 532 *~;
#X obj 161 405 r \$0-midi-switch;
#X obj 421 510 == 0;
#X obj 158 231 r \$0-attack;
#X obj 262 157 r \$0-release;
#X msg 146 342 1 \$1;
#X obj 574 333 r \$0-midi-switch;
#X obj 574 372 t f b;
#X obj 601 406 delay 1;
#X obj 559 444 f;
#X obj 150 77 +;
#X obj 222 60 t b f;
#X text 148 15 PWM;
#X obj 222 38 r \$0-pwm-cv;
#X obj 85 105 mtof;
#X obj 86 129 sig~;
#X obj 262 201 * 4999;
#X obj 262 223 + 10;
#X obj 449 318 * 4999;
#X obj 449 340 + 10;
#X obj -20 321 / 127;
#X obj -70 254 - 12;
#X obj -70 278 mtof~;
#X obj -70 300 phasor~;
#X obj -70 419 *~;
#X obj -20 343 pack f 50;
#X obj -20 365 line~;
#X obj 85 65 t a b b a;
#X obj 83 596 *~ 2;
#X obj 83 623 -~ 1;
#X obj -20 299 r \$0-poly-B-s;
#X obj -70 322 *~ 2;
#X obj -70 344 -~ 1;
#X obj 83 656 *~ 0.5;
#X obj 317 330 bng 15 250 50 0 empty empty empty 17 7 0 10 -262144
-1 -1;
#X obj 247 271 r \$0-env-off;
#X obj -5 424 expr~ $v1 > $v2;
#X obj 149 206 line~;
#X obj 150 161 + 0.25;
#X obj 150 137 * 0.5;
#X connect 0 0 58 0;
#X connect 1 0 41 0;
#X connect 3 0 9 0;
#X connect 3 0 9 1;
#X connect 4 0 5 0;
#X connect 5 0 6 0;
#X connect 6 0 13 1;
#X connect 7 0 47 0;
#X connect 8 0 30 0;
#X connect 9 0 59 0;
#X connect 11 0 8 0;
#X connect 12 0 11 0;
#X connect 13 0 36 0;
#X connect 14 0 70 0;
#X connect 15 0 67 0;
#X connect 16 0 68 0;
#X connect 18 0 21 0;
#X connect 19 0 18 0;
#X connect 20 0 19 0;
#X connect 21 0 31 0;
#X connect 24 0 27 0;
#X connect 25 0 26 0;
#X connect 26 0 49 0;
#X connect 27 0 28 0;
#X connect 28 0 29 0;
#X connect 29 0 20 1;
#X connect 30 0 3 1;
#X connect 31 0 3 1;
#X connect 32 0 30 1;
#X connect 33 0 31 1;
#X connect 34 0 4 0;
#X connect 35 0 7 0;
#X connect 36 0 8 0;
#X connect 37 0 38 0;
#X connect 38 0 40 1;
#X connect 38 1 39 0;
#X connect 39 0 40 0;
#X connect 40 0 33 0;
#X connect 41 0 14 0;
#X connect 42 0 41 0;
#X connect 42 1 41 1;
#X connect 44 0 42 0;
#X connect 45 0 46 0;
#X connect 46 0 15 0;
#X connect 47 0 48 0;
#X connect 48 0 12 1;
#X connect 49 0 50 0;
#X connect 50 0 19 1;
#X connect 51 0 56 0;
#X connect 52 0 53 0;
#X connect 53 0 54 0;
#X connect 54 0 62 0;
#X connect 55 0 3 0;
#X connect 56 0 57 0;
#X connect 57 0 55 1;
#X connect 58 0 45 0;
#X connect 58 1 13 0;
#X connect 58 2 20 0;
#X connect 58 3 52 0;
#X connect 59 0 60 0;
#X connect 60 0 64 0;
#X connect 61 0 51 0;
#X connect 62 0 63 0;
#X connect 63 0 55 0;
#X connect 64 0 10 0;
#X connect 66 0 12 0;
#X connect 66 0 65 0;
#X connect 67 0 3 0;
#X connect 68 0 67 1;
#X connect 69 0 16 0;
#X connect 70 0 69 0;
#X restore 56 336 pd pwm;
#X obj 56 11 inlet;
#X obj 56 410 outlet~;
#X obj 89 190 osc~;
#X obj 89 164 mtof~;
#X obj 89 229 snapshot~;
#X obj 89 251 + 1;
#X obj 89 273 / 2;
#X obj 89 295 * 127;
#X obj 89 140 - 96;
#X obj 56 42 t f;
#X obj 89 117 r \$0-poly-A-s;
#X obj 133 189 bang~;
#X connect 0 0 2 0;
#X connect 1 0 10 0;
#X connect 3 0 5 0;
#X connect 4 0 3 0;
#X connect 5 0 6 0;
#X connect 6 0 7 0;
#X connect 7 0 8 0;
#X connect 8 0 0 1;
#X connect 9 0 4 0;
#X connect 10 0 0 0;
#X connect 11 0 9 0;
#X connect 12 0 5 0;
#X restore 55 231 pd synth1;
#N canvas 522 56 609 650 chorus 0;
#X obj 66 23 inlet~;
#X obj 66 45 delwrite~ \$0-poly-phase1 100;
#X obj 30 261 phasor~;
#X obj 30 283 +~;
#X obj 30 305 cos~;
#X obj 30 327 +~ 1;
#X obj 30 349 *~ 0.5;
#X obj 30 393 vd~ \$0-poly-phase1;
#X obj 30 214 mtof~;
#X obj 200 537 outlet~;
#X obj 30 165 t f f;
#X obj 99 197 / 127;
#X obj 99 246 pack f 50;
#X obj 99 268 line~;
#X obj 30 371 *~;
#X obj 455 263 phasor~;
#X obj 455 307 cos~;
#X obj 455 329 +~ 1;
#X obj 455 351 *~ 0.5;
#X obj 455 395 vd~ \$0-poly-phase1;
#X obj 455 373 *~;
#X obj 456 232 mtof~;
#X obj 456 186 t f f;
#X obj 455 285 +~ 0.25;
#X obj 520 230 / 127;
#X obj 520 279 pack f 50;
#X obj 520 301 line~;
#X obj 167 257 phasor~;
#X obj 167 301 cos~;
#X obj 167 323 +~ 1;
#X obj 167 345 *~ 0.5;
#X obj 167 389 vd~ \$0-poly-phase1;
#X obj 167 210 mtof~;
#X obj 340 536 outlet~;
#X obj 167 161 t f f;
#X obj 236 193 / 127;
#X obj 236 242 pack f 50;
#X obj 236 264 line~;
#X obj 167 367 *~;
#X obj 319 254 phasor~;
#X obj 319 298 cos~;
#X obj 319 320 +~ 1;
#X obj 319 342 *~ 0.5;
#X obj 319 386 vd~ \$0-poly-phase1;
#X obj 319 364 *~;
#X obj 320 223 mtof~;
#X obj 320 177 t f f;
#X obj 384 221 / 127;
#X obj 384 270 pack f 50;
#X obj 384 292 line~;
#X obj 167 279 +~ 0.5;
#X obj 319 276 +~ 0.75;
#X obj 30 91 / 127;
#X obj 30 113 * 64;
#X obj 167 94 / 127;
#X obj 167 116 * 64;
#X obj 320 108 / 127;
#X obj 320 130 * 64;
#X obj 456 113 / 127;
#X obj 456 135 * 64;
#X obj 99 224 * 5;
#X obj 236 220 * 5;
#X obj 384 248 * 5;
#X obj 520 257 * 5;
#X obj 30 135 - 64;
#X obj 167 138 - 64;
#X obj 320 152 - 64;
#X obj 456 157 - 64;
#X obj 30 69 r \$0-poly-C-s;
#X obj 167 65 r \$0-poly-C-s;
#X obj 320 78 r \$0-poly-C-s;
#X obj 456 87 r \$0-poly-C-s;
#X obj 205 501 +~ 0.5;
#X obj 338 497 +~ 0.5;
#X obj 203 456 *~ 2;
#X obj 340 447 *~ 2;
#X connect 0 0 1 0;
#X connect 2 0 3 0;
#X connect 3 0 4 0;
#X connect 4 0 5 0;
#X connect 5 0 6 0;
#X connect 6 0 14 0;
#X connect 7 0 74 0;
#X connect 8 0 2 0;
#X connect 10 0 8 0;
#X connect 11 0 60 0;
#X connect 12 0 13 0;
#X connect 13 0 14 1;
#X connect 14 0 7 0;
#X connect 15 0 23 0;
#X connect 16 0 17 0;
#X connect 17 0 18 0;
#X connect 18 0 20 0;
#X connect 19 0 75 0;
#X connect 20 0 19 0;
#X connect 21 0 15 0;
#X connect 22 0 21 0;
#X connect 23 0 16 0;
#X connect 24 0 63 0;
#X connect 25 0 26 0;
#X connect 26 0 20 1;
#X connect 27 0 50 0;
#X connect 28 0 29 0;
#X connect 29 0 30 0;
#X connect 30 0 38 0;
#X connect 31 0 75 0;
#X connect 32 0 27 0;
#X connect 34 0 32 0;
#X connect 35 0 61 0;
#X connect 36 0 37 0;
#X connect 37 0 38 1;
#X connect 38 0 31 0;
#X connect 39 0 51 0;
#X connect 40 0 41 0;
#X connect 41 0 42 0;
#X connect 42 0 44 0;
#X connect 43 0 74 0;
#X connect 44 0 43 0;
#X connect 45 0 39 0;
#X connect 46 0 45 0;
#X connect 47 0 62 0;
#X connect 48 0 49 0;
#X connect 49 0 44 1;
#X connect 50 0 28 0;
#X connect 51 0 40 0;
#X connect 52 0 53 0;
#X connect 53 0 64 0;
#X connect 54 0 55 0;
#X connect 55 0 65 0;
#X connect 56 0 57 0;
#X connect 57 0 66 0;
#X connect 58 0 59 0;
#X connect 59 0 67 0;
#X connect 60 0 12 0;
#X connect 61 0 36 0;
#X connect 62 0 48 0;
#X connect 63 0 25 0;
#X connect 64 0 10 0;
#X connect 65 0 34 0;
#X connect 66 0 46 0;
#X connect 67 0 22 0;
#X connect 68 0 52 0;
#X connect 68 0 11 0;
#X connect 69 0 54 0;
#X connect 69 0 35 0;
#X connect 70 0 56 0;
#X connect 70 0 47 0;
#X connect 71 0 58 0;
#X connect 71 0 24 0;
#X connect 72 0 9 0;
#X connect 73 0 33 0;
#X connect 74 0 72 0;
#X connect 75 0 73 0;
#X restore 54 342 pd chorus;
#X obj 55 91 inlet;
#X obj 54 374 outlet~;
#X obj 105 374 outlet~;
#X obj 147 204 r \$0-poly-D-s;
#N canvas 706 233 503 478 synth1 0;
#N canvas 173 24 955 720 pwm 0;
#X obj 85 31 inlet;
#X obj 150 35 inlet;
#X text 85 14 PITCH;
#X obj 83 549 *~;
#X obj 158 253 / 127;
#X obj 158 275 * 1999;
#X obj 158 297 + 1;
#X obj 262 179 / 127;
#X obj 146 376 vline~;
#X obj 83 575 *~;
#X obj 83 685 outlet~;
#X msg 262 350 0 \$1;
#X obj 247 300 f;
#X obj 143 318 f;
#X obj 150 115 / 127;
#X obj 85 150 phasor~;
#X obj 150 184 pack 50;
#X obj 149 206 line;
#X text 118 628 normalize (-1 - 1);
#X msg 404 394 1 \$1 \, 0 \$2 \$1;
#X obj 404 369 pack f f;
#X obj 404 338 f;
#X obj 405 423 vline~;
#X text 450 424 XODULAR ENVELOPE;
#X text 186 376 NOTEIN ENVELOPE;
#X obj 419 197 r \$0-attack;
#X obj 449 269 r \$0-release;
#X obj 449 296 / 127;
#X obj 419 221 / 127;
#X obj 419 243 * 1999;
#X obj 419 265 + 1;
#X obj 146 432 *~;
#X obj 406 532 *~;
#X obj 161 405 r \$0-midi-switch;
#X obj 421 510 == 0;
#X obj 158 231 r \$0-attack;
#X obj 262 157 r \$0-release;
#X msg 146 342 1 \$1;
#X obj 574 333 r \$0-midi-switch;
#X obj 574 372 t f b;
#X obj 601 406 delay 1;
#X obj 559 444 f;
#X obj 150 77 +;
#X obj 222 60 t b f;
#X text 148 15 PWM;
#X obj 222 38 r \$0-pwm-cv;
#X obj 85 105 mtof;
#X obj 86 129 sig~;
#X obj 262 201 * 4999;
#X obj 262 223 + 10;
#X obj 449 318 * 4999;
#X obj 449 340 + 10;
#X obj -20 321 / 127;
#X obj -70 254 - 12;
#X obj -70 278 mtof~;
#X obj -70 300 phasor~;
#X obj -70 419 *~;
#X obj -20 343 pack f 50;
#X obj -20 365 line~;
#X obj 85 65 t a b b a;
#X obj 83 596 *~ 2;
#X obj 83 623 -~ 1;
#X obj -20 299 r \$0-poly-B-s;
#X obj -70 322 *~ 2;
#X obj -70 344 -~ 1;
#X obj 83 651 *~ 0.5;
#X obj 247 271 r \$0-env-off;
#X obj 8 414 expr~ $v1 > $v2;
#X obj 150 161 + 0.25;
#X obj 150 137 * 0.5;
#X connect 0 0 59 0;
#X connect 1 0 42 0;
#X connect 3 0 9 0;
#X connect 3 0 9 1;
#X connect 4 0 5 0;
#X connect 5 0 6 0;
#X connect 6 0 13 1;
#X connect 7 0 48 0;
#X connect 8 0 31 0;
#X connect 9 0 60 0;
#X connect 11 0 8 0;
#X connect 12 0 11 0;
#X connect 13 0 37 0;
#X connect 14 0 69 0;
#X connect 15 0 67 0;
#X connect 16 0 17 0;
#X connect 17 0 67 1;
#X connect 19 0 22 0;
#X connect 20 0 19 0;
#X connect 21 0 20 0;
#X connect 22 0 32 0;
#X connect 25 0 28 0;
#X connect 26 0 27 0;
#X connect 27 0 50 0;
#X connect 28 0 29 0;
#X connect 29 0 30 0;
#X connect 30 0 21 1;
#X connect 31 0 3 1;
#X connect 32 0 3 1;
#X connect 33 0 31 1;
#X connect 34 0 32 1;
#X connect 35 0 4 0;
#X connect 36 0 7 0;
#X connect 37 0 8 0;
#X connect 38 0 39 0;
#X connect 39 0 41 1;
#X connect 39 1 40 0;
#X connect 40 0 41 0;
#X connect 41 0 34 0;
#X connect 42 0 14 0;
#X connect 43 0 42 0;
#X connect 43 1 42 1;
#X connect 45 0 43 0;
#X connect 46 0 47 0;
#X connect 47 0 15 0;
#X connect 48 0 49 0;
#X connect 49 0 12 1;
#X connect 50 0 51 0;
#X connect 51 0 20 1;
#X connect 52 0 57 0;
#X connect 53 0 54 0;
#X connect 54 0 55 0;
#X connect 55 0 63 0;
#X connect 56 0 3 0;
#X connect 57 0 58 0;
#X connect 58 0 56 1;
#X connect 59 0 46 0;
#X connect 59 1 13 0;
#X connect 59 2 21 0;
#X connect 59 3 53 0;
#X connect 60 0 61 0;
#X connect 61 0 65 0;
#X connect 62 0 52 0;
#X connect 63 0 64 0;
#X connect 64 0 56 0;
#X connect 65 0 10 0;
#X connect 66 0 12 0;
#X connect 67 0 3 0;
#X connect 68 0 16 0;
#X connect 69 0 68 0;
#X restore 56 336 pd pwm;
#X obj 56 11 inlet;
#X obj 56 410 outlet~;
#X obj 89 190 osc~;
#X obj 89 164 mtof~;
#X obj 89 229 snapshot~;
#X obj 89 251 + 1;
#X obj 89 273 / 2;
#X obj 89 295 * 127;
#X obj 89 140 - 96;
#X obj 56 42 t f;
#X obj 89 117 r \$0-poly-A-s;
#X obj 133 189 bang~;
#X connect 0 0 2 0;
#X connect 1 0 10 0;
#X connect 3 0 5 0;
#X connect 4 0 3 0;
#X connect 5 0 6 0;
#X connect 6 0 7 0;
#X connect 7 0 8 0;
#X connect 8 0 0 1;
#X connect 9 0 4 0;
#X connect 10 0 0 0;
#X connect 11 0 9 0;
#X connect 12 0 5 0;
#X restore 69 203 pd synth1;
#N canvas 706 233 503 478 synth1 0;
#N canvas 173 24 955 720 pwm 0;
#X obj 85 31 inlet;
#X obj 150 35 inlet;
#X text 85 14 PITCH;
#X obj 83 549 *~;
#X obj 158 253 / 127;
#X obj 158 275 * 1999;
#X obj 158 297 + 1;
#X obj 262 179 / 127;
#X obj 146 376 vline~;
#X obj 83 575 *~;
#X obj 83 685 outlet~;
#X msg 262 350 0 \$1;
#X obj 247 300 f;
#X obj 143 318 f;
#X obj 150 115 / 127;
#X obj 85 150 phasor~;
#X obj 150 184 pack 50;
#X obj 149 206 line;
#X text 118 628 normalize (-1 - 1);
#X msg 404 394 1 \$1 \, 0 \$2 \$1;
#X obj 404 369 pack f f;
#X obj 404 338 f;
#X obj 405 423 vline~;
#X text 450 424 XODULAR ENVELOPE;
#X text 186 376 NOTEIN ENVELOPE;
#X obj 419 197 r \$0-attack;
#X obj 449 269 r \$0-release;
#X obj 449 296 / 127;
#X obj 419 221 / 127;
#X obj 419 243 * 1999;
#X obj 419 265 + 1;
#X obj 146 432 *~;
#X obj 406 532 *~;
#X obj 161 405 r \$0-midi-switch;
#X obj 421 510 == 0;
#X obj 158 231 r \$0-attack;
#X obj 262 157 r \$0-release;
#X msg 146 342 1 \$1;
#X obj 574 333 r \$0-midi-switch;
#X obj 574 372 t f b;
#X obj 601 406 delay 1;
#X obj 559 444 f;
#X obj 150 77 +;
#X obj 222 60 t b f;
#X text 148 15 PWM;
#X obj 222 38 r \$0-pwm-cv;
#X obj 85 105 mtof;
#X obj 86 129 sig~;
#X obj 262 201 * 4999;
#X obj 262 223 + 10;
#X obj 449 318 * 4999;
#X obj 449 340 + 10;
#X obj -20 321 / 127;
#X obj -70 254 - 12;
#X obj -70 278 mtof~;
#X obj -70 300 phasor~;
#X obj -70 419 *~;
#X obj -20 343 pack f 50;
#X obj -20 365 line~;
#X obj 85 65 t a b b a;
#X obj 83 596 *~ 2;
#X obj 83 623 -~ 1;
#X obj -20 299 r \$0-poly-B-s;
#X obj -70 322 *~ 2;
#X obj -70 344 -~ 1;
#X obj 85 659 *~ 0.5;
#X obj 247 271 r \$0-env-off;
#X obj 2 415 expr~ $v1 > $v2;
#X obj 150 161 + 0.25;
#X obj 150 137 * 0.5;
#X connect 0 0 59 0;
#X connect 1 0 42 0;
#X connect 3 0 9 0;
#X connect 3 0 9 1;
#X connect 4 0 5 0;
#X connect 5 0 6 0;
#X connect 6 0 13 1;
#X connect 7 0 48 0;
#X connect 8 0 31 0;
#X connect 9 0 60 0;
#X connect 11 0 8 0;
#X connect 12 0 11 0;
#X connect 13 0 37 0;
#X connect 14 0 69 0;
#X connect 15 0 67 0;
#X connect 16 0 17 0;
#X connect 17 0 67 1;
#X connect 19 0 22 0;
#X connect 20 0 19 0;
#X connect 21 0 20 0;
#X connect 22 0 32 0;
#X connect 25 0 28 0;
#X connect 26 0 27 0;
#X connect 27 0 50 0;
#X connect 28 0 29 0;
#X connect 29 0 30 0;
#X connect 30 0 21 1;
#X connect 31 0 3 1;
#X connect 32 0 3 1;
#X connect 33 0 31 1;
#X connect 34 0 32 1;
#X connect 35 0 4 0;
#X connect 36 0 7 0;
#X connect 37 0 8 0;
#X connect 38 0 39 0;
#X connect 39 0 41 1;
#X connect 39 1 40 0;
#X connect 40 0 41 0;
#X connect 41 0 34 0;
#X connect 42 0 14 0;
#X connect 43 0 42 0;
#X connect 43 1 42 1;
#X connect 45 0 43 0;
#X connect 46 0 47 0;
#X connect 47 0 15 0;
#X connect 48 0 49 0;
#X connect 49 0 12 1;
#X connect 50 0 51 0;
#X connect 51 0 20 1;
#X connect 52 0 57 0;
#X connect 53 0 54 0;
#X connect 54 0 55 0;
#X connect 55 0 63 0;
#X connect 56 0 3 0;
#X connect 57 0 58 0;
#X connect 58 0 56 1;
#X connect 59 0 46 0;
#X connect 59 1 13 0;
#X connect 59 2 21 0;
#X connect 59 3 53 0;
#X connect 60 0 61 0;
#X connect 61 0 65 0;
#X connect 62 0 52 0;
#X connect 63 0 64 0;
#X connect 64 0 56 0;
#X connect 65 0 10 0;
#X connect 66 0 12 0;
#X connect 67 0 3 0;
#X connect 68 0 16 0;
#X connect 69 0 68 0;
#X restore 56 336 pd pwm;
#X obj 56 11 inlet;
#X obj 56 410 outlet~;
#X obj 89 190 osc~;
#X obj 89 164 mtof~;
#X obj 89 229 snapshot~;
#X obj 89 251 + 1;
#X obj 89 273 / 2;
#X obj 89 295 * 127;
#X obj 89 140 - 96;
#X obj 56 42 t f;
#X obj 89 117 r \$0-poly-A-s;
#X obj 133 189 bang~;
#X connect 0 0 2 0;
#X connect 1 0 10 0;
#X connect 3 0 5 0;
#X connect 4 0 3 0;
#X connect 5 0 6 0;
#X connect 6 0 7 0;
#X connect 7 0 8 0;
#X connect 8 0 0 1;
#X connect 9 0 4 0;
#X connect 10 0 0 0;
#X connect 11 0 9 0;
#X connect 12 0 5 0;
#X restore 89 175 pd synth1;
#N canvas 706 233 503 478 synth1 0;
#N canvas 173 24 955 720 pwm 0;
#X obj 85 31 inlet;
#X obj 150 35 inlet;
#X text 85 14 PITCH;
#X obj 83 549 *~;
#X obj 158 253 / 127;
#X obj 158 275 * 1999;
#X obj 158 297 + 1;
#X obj 262 179 / 127;
#X obj 146 376 vline~;
#X obj 83 575 *~;
#X obj 83 685 outlet~;
#X msg 262 350 0 \$1;
#X obj 247 300 f;
#X obj 143 318 f;
#X obj 150 115 / 127;
#X obj 85 150 phasor~;
#X obj 150 184 pack 50;
#X obj 149 206 line;
#X text 118 628 normalize (-1 - 1);
#X msg 404 394 1 \$1 \, 0 \$2 \$1;
#X obj 404 369 pack f f;
#X obj 404 338 f;
#X obj 405 423 vline~;
#X text 450 424 XODULAR ENVELOPE;
#X text 186 376 NOTEIN ENVELOPE;
#X obj 419 197 r \$0-attack;
#X obj 449 269 r \$0-release;
#X obj 449 296 / 127;
#X obj 419 221 / 127;
#X obj 419 243 * 1999;
#X obj 419 265 + 1;
#X obj 146 432 *~;
#X obj 406 532 *~;
#X obj 161 405 r \$0-midi-switch;
#X obj 421 510 == 0;
#X obj 158 231 r \$0-attack;
#X obj 262 157 r \$0-release;
#X msg 146 342 1 \$1;
#X obj 574 333 r \$0-midi-switch;
#X obj 574 372 t f b;
#X obj 601 406 delay 1;
#X obj 559 444 f;
#X obj 150 77 +;
#X obj 222 60 t b f;
#X text 148 15 PWM;
#X obj 222 38 r \$0-pwm-cv;
#X obj 85 105 mtof;
#X obj 86 129 sig~;
#X obj 262 201 * 4999;
#X obj 262 223 + 10;
#X obj 449 318 * 4999;
#X obj 449 340 + 10;
#X obj -20 321 / 127;
#X obj -70 254 - 12;
#X obj -70 278 mtof~;
#X obj -70 300 phasor~;
#X obj -70 419 *~;
#X obj -20 343 pack f 50;
#X obj -20 365 line~;
#X obj 85 65 t a b b a;
#X obj 83 596 *~ 2;
#X obj 83 623 -~ 1;
#X obj -20 299 r \$0-poly-B-s;
#X obj -70 322 *~ 2;
#X obj -70 344 -~ 1;
#X obj 83 656 *~ 0.5;
#X obj 247 271 r \$0-env-off;
#X obj -1 431 expr~ $v1 > $v2;
#X obj 150 161 + 0.25;
#X obj 150 137 * 0.5;
#X connect 0 0 59 0;
#X connect 1 0 42 0;
#X connect 3 0 9 0;
#X connect 3 0 9 1;
#X connect 4 0 5 0;
#X connect 5 0 6 0;
#X connect 6 0 13 1;
#X connect 7 0 48 0;
#X connect 8 0 31 0;
#X connect 9 0 60 0;
#X connect 11 0 8 0;
#X connect 12 0 11 0;
#X connect 13 0 37 0;
#X connect 14 0 69 0;
#X connect 15 0 67 0;
#X connect 16 0 17 0;
#X connect 17 0 67 1;
#X connect 19 0 22 0;
#X connect 20 0 19 0;
#X connect 21 0 20 0;
#X connect 22 0 32 0;
#X connect 25 0 28 0;
#X connect 26 0 27 0;
#X connect 27 0 50 0;
#X connect 28 0 29 0;
#X connect 29 0 30 0;
#X connect 30 0 21 1;
#X connect 31 0 3 1;
#X connect 32 0 3 1;
#X connect 33 0 31 1;
#X connect 34 0 32 1;
#X connect 35 0 4 0;
#X connect 36 0 7 0;
#X connect 37 0 8 0;
#X connect 38 0 39 0;
#X connect 39 0 41 1;
#X connect 39 1 40 0;
#X connect 40 0 41 0;
#X connect 41 0 34 0;
#X connect 42 0 14 0;
#X connect 43 0 42 0;
#X connect 43 1 42 1;
#X connect 45 0 43 0;
#X connect 46 0 47 0;
#X connect 47 0 15 0;
#X connect 48 0 49 0;
#X connect 49 0 12 1;
#X connect 50 0 51 0;
#X connect 51 0 20 1;
#X connect 52 0 57 0;
#X connect 53 0 54 0;
#X connect 54 0 55 0;
#X connect 55 0 63 0;
#X connect 56 0 3 0;
#X connect 57 0 58 0;
#X connect 58 0 56 1;
#X connect 59 0 46 0;
#X connect 59 1 13 0;
#X connect 59 2 21 0;
#X connect 59 3 53 0;
#X connect 60 0 61 0;
#X connect 61 0 65 0;
#X connect 62 0 52 0;
#X connect 63 0 64 0;
#X connect 64 0 56 0;
#X connect 65 0 10 0;
#X connect 66 0 12 0;
#X connect 67 0 3 0;
#X connect 68 0 16 0;
#X connect 69 0 68 0;
#X restore 56 336 pd pwm;
#X obj 56 11 inlet;
#X obj 56 410 outlet~;
#X obj 89 190 osc~;
#X obj 89 164 mtof~;
#X obj 89 229 snapshot~;
#X obj 89 251 + 1;
#X obj 89 273 / 2;
#X obj 89 295 * 127;
#X obj 89 140 - 96;
#X obj 56 42 t f;
#X obj 89 117 r \$0-poly-A-s;
#X obj 133 189 bang~;
#X connect 0 0 2 0;
#X connect 1 0 10 0;
#X connect 3 0 5 0;
#X connect 4 0 3 0;
#X connect 5 0 6 0;
#X connect 6 0 7 0;
#X connect 7 0 8 0;
#X connect 8 0 0 1;
#X connect 9 0 4 0;
#X connect 10 0 0 0;
#X connect 11 0 9 0;
#X connect 12 0 5 0;
#X restore 110 155 pd synth1;
#X obj 147 257 spigot;
#X obj 237 144 r \$0-poly-choose-synth-s;
#X obj 237 166 sel 0 1 2;
#X msg 237 190 1;
#X msg 254 213 0;
#X msg 271 240 0;
#X obj 54 289 *~ 0.125;
#X connect 0 0 2 0;
#X connect 0 1 8 0;
#X connect 0 2 9 0;
#X connect 0 3 10 0;
#X connect 1 0 3 0;
#X connect 2 0 17 0;
#X connect 3 0 5 0;
#X connect 3 1 6 0;
#X connect 4 0 0 0;
#X connect 7 0 11 0;
#X connect 8 0 17 0;
#X connect 9 0 17 0;
#X connect 10 0 17 0;
#X connect 11 0 1 1;
#X connect 12 0 13 0;
#X connect 13 0 14 0;
#X connect 13 1 15 0;
#X connect 13 2 16 0;
#X connect 14 0 11 1;
#X connect 15 0 11 1;
#X connect 16 0 11 1;
#X connect 17 0 1 0;
#X restore 393 481 pd pwm-poly-synth;
#N canvas 583 186 525 309 cv-inputs-param-A-B-C_D 0;
#X obj 23 40 r \$0-poly-param1;
#X obj 243 39 r \$0-poly-param3;
#X obj 354 40 r \$0-poly-param4;
#X obj 133 41 r \$0-poly-param2;
#X obj 23 164 +;
#X obj 133 165 +;
#X obj 243 163 +;
#X obj 354 164 +;
#X obj 40 79 r \$0-poly-param1-cv;
#X obj 40 101 t b f;
#X obj 23 186 moses 127;
#X obj 23 208 s \$0-poly-A-s;
#X obj 133 187 moses 127;
#X obj 133 209 s \$0-poly-B-s;
#X obj 243 205 s \$0-poly-C-s;
#X obj 243 185 moses 127;
#X obj 354 186 moses 127;
#X obj 163 100 t b f;
#X obj 163 79 r \$0-poly-param2-cv;
#X obj 287 99 t b f;
#X obj 287 78 r \$0-poly-param3-cv;
#X obj 375 123 t b f;
#X obj 375 102 r \$0-poly-param4-cv;
#X obj 354 207 s \$0-poly-D-s;
#X connect 0 0 4 0;
#X connect 1 0 6 0;
#X connect 2 0 7 0;
#X connect 3 0 5 0;
#X connect 4 0 10 0;
#X connect 5 0 12 0;
#X connect 6 0 15 0;
#X connect 7 0 16 0;
#X connect 8 0 9 0;
#X connect 9 0 4 0;
#X connect 9 1 4 1;
#X connect 10 0 11 0;
#X connect 12 0 13 0;
#X connect 15 0 14 0;
#X connect 16 0 23 0;
#X connect 17 0 5 0;
#X connect 17 1 5 1;
#X connect 18 0 17 0;
#X connect 19 0 6 0;
#X connect 19 1 6 1;
#X connect 20 0 19 0;
#X connect 21 0 7 0;
#X connect 21 1 7 1;
#X connect 22 0 21 0;
#X restore 42 392 pd cv-inputs-param-A-B-C_D;
#X obj 705 227 s \$0-poly-param1-cv;
#X obj 803 99 s \$0-poly-param2-cv;
#X obj 815 201 s \$0-poly-param3-cv;
#X obj 862 301 s \$0-poly-param4-cv;
#N canvas 339 133 577 475 parameter-messages 0;
#X obj 79 22 r \$0-poly-choose-synth-s;
#X obj 79 63 sel 0 1 2;
#X obj 79 390 s \$0-poly-A-gui-r;
#X obj 94 343 s \$0-poly-B-gui-r;
#X obj 110 291 s \$0-poly-C-gui-r;
#X obj 126 237 s \$0-poly-D-gui-r;
#X obj 79 110 t b b b b b;
#X obj 142 158 s \$0-poly-synth-gui-r;
#X msg 142 135 set A-JUNO;
#X obj 279 393 s \$0-poly-A-gui-r;
#X obj 294 346 s \$0-poly-B-gui-r;
#X obj 310 294 s \$0-poly-C-gui-r;
#X obj 326 240 s \$0-poly-D-gui-r;
#X obj 279 113 t b b b b b;
#X obj 342 161 s \$0-poly-synth-gui-r;
#X msg 342 138 set P-MOD;
#X msg 294 322 set INDEX;
#X msg 279 371 set MOD;
#X msg 79 368 set PWM-R;
#X msg 94 319 set SUB;
#X msg 110 267 set CHORUS;
#X msg 310 270 set TIMBRE;
#X msg 326 208 set FOLD;
#X msg 126 205 set CUTOFF;
#X connect 0 0 1 0;
#X connect 1 0 6 0;
#X connect 1 1 13 0;
#X connect 6 0 18 0;
#X connect 6 1 19 0;
#X connect 6 2 20 0;
#X connect 6 3 23 0;
#X connect 6 4 8 0;
#X connect 8 0 7 0;
#X connect 13 0 17 0;
#X connect 13 1 16 0;
#X connect 13 2 21 0;
#X connect 13 3 22 0;
#X connect 13 4 15 0;
#X connect 15 0 14 0;
#X connect 16 0 10 0;
#X connect 17 0 9 0;
#X connect 18 0 2 0;
#X connect 19 0 3 0;
#X connect 20 0 4 0;
#X connect 21 0 11 0;
#X connect 22 0 12 0;
#X connect 23 0 5 0;
#X restore 41 369 pd parameter-messages;
#X obj 687 321 r \$0-poly-choose-synth-s;
#X obj 687 343 sel 0 1 2;
#X msg 687 367 1 0 0;
#X obj 687 389 unpack f f f;
#X obj 704 439 unpack f f f;
#X msg 704 417 0 1 0;
#X obj 721 497 unpack f f f;
#X msg 721 475 0 0 1;
#N canvas 542 114 526 554 phase-modulation-additive-synth 0;
#X obj 55 129 route 1 2 3 4;
#X obj 55 91 inlet;
#X obj 56 511 outlet~;
#N canvas 568 198 450 300 PMOD-SYNTH 0;
#X obj 68 20 inlet;
#X obj 68 42 t f f;
#N canvas 173 24 955 720 PMOD 0;
#X obj 252 29 inlet;
#X text 252 12 PITCH;
#X obj 250 547 *~;
#X obj 325 251 / 127;
#X obj 325 273 * 1999;
#X obj 325 295 + 1;
#X obj 429 177 / 127;
#X obj 313 374 vline~;
#X obj 250 573 *~;
#X obj 250 683 outlet~;
#X msg 429 348 0 \$1;
#X obj 414 298 f;
#X obj 310 316 f;
#X obj 253 186 phasor~;
#X obj 250 408 cos~;
#X msg 571 392 1 \$1 \, 0 \$2 \$1;
#X obj 571 367 pack f f;
#X obj 571 336 f;
#X obj 572 421 vline~;
#X text 617 422 XODULAR ENVELOPE;
#X text 353 374 NOTEIN ENVELOPE;
#X obj 586 195 r \$0-attack;
#X obj 616 267 r \$0-release;
#X obj 616 294 / 127;
#X obj 586 219 / 127;
#X obj 586 241 * 1999;
#X obj 586 263 + 1;
#X obj 313 430 *~;
#X obj 573 530 *~;
#X obj 328 403 r \$0-midi-switch;
#X obj 588 508 == 0;
#X obj 325 229 r \$0-attack;
#X obj 429 155 r \$0-release;
#X msg 313 340 1 \$1;
#X obj 741 331 r \$0-midi-switch;
#X obj 741 370 t f b;
#X obj 768 404 delay 1;
#X obj 726 442 f;
#X obj 253 103 mtof;
#X obj 253 127 sig~;
#X obj 429 199 * 4999;
#X obj 429 221 + 10;
#X obj 616 316 * 4999;
#X obj 616 338 + 10;
#X obj 250 379 +~;
#X obj 49 97 phasor~;
#X obj 50 198 cos~;
#X obj 49 23 r \$0-poly-A-s;
#X obj 49 73 mtof;
#X text 58 1 MODULATOR 1;
#X obj 50 232 *~;
#X obj 144 34 r \$0-poly-B-s;
#X obj 144 56 / 127;
#X obj 144 128 pack f 50;
#X obj 144 150 line~;
#X text 152 18 INDEX 1;
#X obj 144 78 * 1;
#X obj 252 63 t a b b;
#X obj 49 119 +~;
#X obj 49 51 - 32;
#X obj 414 269 r \$0-env-off;
#X connect 0 0 57 0;
#X connect 2 0 8 0;
#X connect 2 0 8 1;
#X connect 3 0 4 0;
#X connect 4 0 5 0;
#X connect 5 0 12 1;
#X connect 6 0 40 0;
#X connect 7 0 27 0;
#X connect 8 0 9 0;
#X connect 10 0 7 0;
#X connect 11 0 10 0;
#X connect 12 0 33 0;
#X connect 13 0 44 0;
#X connect 14 0 2 0;
#X connect 15 0 18 0;
#X connect 16 0 15 0;
#X connect 17 0 16 0;
#X connect 18 0 28 0;
#X connect 21 0 24 0;
#X connect 22 0 23 0;
#X connect 23 0 42 0;
#X connect 24 0 25 0;
#X connect 25 0 26 0;
#X connect 26 0 17 1;
#X connect 27 0 2 1;
#X connect 28 0 2 1;
#X connect 29 0 27 1;
#X connect 30 0 28 1;
#X connect 31 0 3 0;
#X connect 32 0 6 0;
#X connect 33 0 7 0;
#X connect 34 0 35 0;
#X connect 35 0 37 1;
#X connect 35 1 36 0;
#X connect 36 0 37 0;
#X connect 37 0 30 0;
#X connect 38 0 39 0;
#X connect 39 0 13 0;
#X connect 40 0 41 0;
#X connect 41 0 11 1;
#X connect 42 0 43 0;
#X connect 43 0 16 1;
#X connect 44 0 14 0;
#X connect 45 0 58 0;
#X connect 46 0 50 0;
#X connect 47 0 59 0;
#X connect 48 0 45 0;
#X connect 50 0 44 1;
#X connect 51 0 52 0;
#X connect 52 0 56 0;
#X connect 53 0 54 0;
#X connect 54 0 50 1;
#X connect 56 0 53 0;
#X connect 57 0 38 0;
#X connect 57 1 12 0;
#X connect 57 2 17 0;
#X connect 58 0 46 0;
#X connect 59 0 48 0;
#X connect 60 0 11 0;
#X restore 68 140 pd PMOD;
#X obj 68 199 outlet~;
#N canvas 325 22 901 730 SINEFOLD 0;
#X obj 80 171 osc~;
#X obj 80 235 cos~;
#X obj 80 197 *~;
#X obj 238 156 pack f 50;
#X obj 238 180 line~;
#X obj 238 107 + 10;
#X obj 238 129 / 32;
#X obj 80 24 inlet;
#X obj 238 15 inlet;
#X text 80 7 PITCH;
#X text 236 -5 TIMBRE;
#X obj 81 633 *~;
#X obj 156 269 / 127;
#X obj 156 291 * 1999;
#X obj 156 313 + 1;
#X obj 215 269 / 127;
#X obj 141 442 vline~;
#X obj 82 659 *~;
#X obj 82 699 outlet~;
#X msg 244 407 0 \$1;
#X obj 245 366 f;
#X obj 141 357 f;
#X msg 409 461 1 \$1 \, 0 \$2 \$1;
#X obj 409 436 pack f f;
#X obj 409 405 f;
#X obj 409 499 vline~;
#X text 454 500 XODULAR ENVELOPE;
#X text 186 443 NOTEIN ENVELOPE;
#X obj 424 263 r \$0-attack;
#X obj 454 335 r \$0-release;
#X obj 454 362 / 127;
#X obj 424 287 / 127;
#X obj 424 309 * 1999;
#X obj 424 331 + 1;
#X obj 140 557 *~;
#X obj 156 225 r \$0-attack;
#X obj 215 247 r \$0-release;
#X obj 155 530 r \$0-midi-switch;
#X obj 409 619 *~;
#X obj 424 589 == 0;
#X msg 141 409 1 \$1;
#X obj 531 360 r \$0-midi-switch;
#X obj 531 399 t f b;
#X obj 558 433 delay 1;
#X obj 516 471 f;
#X obj 80 118 mtof;
#X obj 80 139 sig~;
#X obj 215 291 * 4999;
#X obj 215 313 + 10;
#X obj 454 384 * 4999;
#X obj 454 406 + 10;
#X obj 378 34 inlet;
#X obj 80 58 t a b b a;
#X text 378 14 SHAPE;
#X obj 18 176 phasor~;
#X obj 18 127 mtof;
#X obj 18 149 sig~;
#X obj 81 549 *~;
#X obj 378 56 t f f;
#X obj 378 78 / 127;
#X obj 378 100 pack f 50;
#X obj 378 122 line~;
#X msg 447 93 127 \$1;
#X obj 447 115 -;
#X obj 447 137 / 127;
#X obj 447 159 pack f 50;
#X obj 447 181 line~;
#X obj 18 548 *~;
#X obj 238 37 t f f;
#X obj 19 454 *~;
#X obj 19 476 cos~;
#X obj 16 290 min~;
#X obj 36 210 *~ -1;
#X obj 37 234 +~ 1;
#X obj 16 324 *~ 4;
#X obj 13 354 -~ 1;
#X obj 18 105 - 24;
#X obj 80 90 - 12;
#X obj 245 337 r \$0-env-off;
#X connect 0 0 2 0;
#X connect 1 0 57 0;
#X connect 2 0 1 0;
#X connect 3 0 4 0;
#X connect 4 0 2 1;
#X connect 4 0 69 1;
#X connect 5 0 6 0;
#X connect 6 0 3 0;
#X connect 7 0 52 0;
#X connect 8 0 68 0;
#X connect 11 0 17 0;
#X connect 11 0 17 1;
#X connect 12 0 13 0;
#X connect 13 0 14 0;
#X connect 14 0 21 1;
#X connect 15 0 47 0;
#X connect 16 0 34 0;
#X connect 17 0 18 0;
#X connect 19 0 16 0;
#X connect 20 0 19 0;
#X connect 21 0 40 0;
#X connect 22 0 25 0;
#X connect 23 0 22 0;
#X connect 24 0 23 0;
#X connect 25 0 38 0;
#X connect 28 0 31 0;
#X connect 29 0 30 0;
#X connect 30 0 49 0;
#X connect 31 0 32 0;
#X connect 32 0 33 0;
#X connect 33 0 24 1;
#X connect 34 0 11 1;
#X connect 35 0 12 0;
#X connect 36 0 15 0;
#X connect 37 0 34 1;
#X connect 38 0 11 1;
#X connect 39 0 38 1;
#X connect 40 0 16 0;
#X connect 41 0 42 0;
#X connect 42 0 44 1;
#X connect 42 1 43 0;
#X connect 43 0 44 0;
#X connect 44 0 39 0;
#X connect 45 0 46 0;
#X connect 46 0 0 0;
#X connect 47 0 48 0;
#X connect 48 0 20 1;
#X connect 49 0 50 0;
#X connect 50 0 23 1;
#X connect 51 0 58 0;
#X connect 52 0 77 0;
#X connect 52 1 21 0;
#X connect 52 2 24 0;
#X connect 52 3 76 0;
#X connect 54 0 71 0;
#X connect 54 0 72 0;
#X connect 55 0 56 0;
#X connect 56 0 54 0;
#X connect 57 0 11 0;
#X connect 58 0 59 0;
#X connect 58 1 62 0;
#X connect 59 0 60 0;
#X connect 60 0 61 0;
#X connect 61 0 57 1;
#X connect 62 0 63 0;
#X connect 63 0 64 0;
#X connect 64 0 65 0;
#X connect 65 0 66 0;
#X connect 66 0 67 1;
#X connect 67 0 11 0;
#X connect 68 0 5 0;
#X connect 69 0 70 0;
#X connect 70 0 67 0;
#X connect 71 0 74 0;
#X connect 72 0 73 0;
#X connect 73 0 71 1;
#X connect 74 0 75 0;
#X connect 75 0 69 0;
#X connect 76 0 55 0;
#X connect 77 0 45 0;
#X connect 78 0 20 0;
#X restore 127 139 pd SINEFOLD;
#X obj 127 198 outlet~;
#X obj 158 82 r \$0-poly-D-s;
#X obj 190 106 r \$0-poly-C-s;
#X connect 0 0 1 0;
#X connect 1 0 2 0;
#X connect 1 1 4 0;
#X connect 2 0 3 0;
#X connect 4 0 5 0;
#X connect 6 0 4 1;
#X connect 7 0 4 2;
#X restore 55 245 pd PMOD-SYNTH;
#X obj 131 509 outlet~;
#N canvas 568 198 450 300 PMOD-SYNTH 0;
#X obj 68 20 inlet;
#X obj 68 42 t f f;
#N canvas 173 24 955 720 PMOD 0;
#X obj 252 29 inlet;
#X text 252 12 PITCH;
#X obj 250 547 *~;
#X obj 325 251 / 127;
#X obj 325 273 * 1999;
#X obj 325 295 + 1;
#X obj 429 177 / 127;
#X obj 313 374 vline~;
#X obj 250 573 *~;
#X obj 250 683 outlet~;
#X msg 429 348 0 \$1;
#X obj 414 298 f;
#X obj 310 316 f;
#X obj 253 186 phasor~;
#X obj 250 408 cos~;
#X msg 571 392 1 \$1 \, 0 \$2 \$1;
#X obj 571 367 pack f f;
#X obj 571 336 f;
#X obj 572 421 vline~;
#X text 617 422 XODULAR ENVELOPE;
#X text 353 374 NOTEIN ENVELOPE;
#X obj 586 195 r \$0-attack;
#X obj 616 267 r \$0-release;
#X obj 616 294 / 127;
#X obj 586 219 / 127;
#X obj 586 241 * 1999;
#X obj 586 263 + 1;
#X obj 313 430 *~;
#X obj 573 530 *~;
#X obj 328 403 r \$0-midi-switch;
#X obj 588 508 == 0;
#X obj 325 229 r \$0-attack;
#X obj 429 155 r \$0-release;
#X msg 313 340 1 \$1;
#X obj 741 331 r \$0-midi-switch;
#X obj 741 370 t f b;
#X obj 768 404 delay 1;
#X obj 726 442 f;
#X obj 253 103 mtof;
#X obj 253 127 sig~;
#X obj 429 199 * 4999;
#X obj 429 221 + 10;
#X obj 616 316 * 4999;
#X obj 616 338 + 10;
#X obj 250 379 +~;
#X obj 49 97 phasor~;
#X obj 50 198 cos~;
#X obj 49 23 r \$0-poly-A-s;
#X obj 49 73 mtof;
#X text 58 1 MODULATOR 1;
#X obj 50 232 *~;
#X obj 144 34 r \$0-poly-B-s;
#X obj 144 56 / 127;
#X obj 144 128 pack f 50;
#X obj 144 150 line~;
#X text 152 18 INDEX 1;
#X obj 144 78 * 1;
#X obj 252 63 t a b b;
#X obj 49 119 +~;
#X obj 49 51 - 32;
#X obj 414 269 r \$0-env-off;
#X connect 0 0 57 0;
#X connect 2 0 8 0;
#X connect 2 0 8 1;
#X connect 3 0 4 0;
#X connect 4 0 5 0;
#X connect 5 0 12 1;
#X connect 6 0 40 0;
#X connect 7 0 27 0;
#X connect 8 0 9 0;
#X connect 10 0 7 0;
#X connect 11 0 10 0;
#X connect 12 0 33 0;
#X connect 13 0 44 0;
#X connect 14 0 2 0;
#X connect 15 0 18 0;
#X connect 16 0 15 0;
#X connect 17 0 16 0;
#X connect 18 0 28 0;
#X connect 21 0 24 0;
#X connect 22 0 23 0;
#X connect 23 0 42 0;
#X connect 24 0 25 0;
#X connect 25 0 26 0;
#X connect 26 0 17 1;
#X connect 27 0 2 1;
#X connect 28 0 2 1;
#X connect 29 0 27 1;
#X connect 30 0 28 1;
#X connect 31 0 3 0;
#X connect 32 0 6 0;
#X connect 33 0 7 0;
#X connect 34 0 35 0;
#X connect 35 0 37 1;
#X connect 35 1 36 0;
#X connect 36 0 37 0;
#X connect 37 0 30 0;
#X connect 38 0 39 0;
#X connect 39 0 13 0;
#X connect 40 0 41 0;
#X connect 41 0 11 1;
#X connect 42 0 43 0;
#X connect 43 0 16 1;
#X connect 44 0 14 0;
#X connect 45 0 58 0;
#X connect 46 0 50 0;
#X connect 47 0 59 0;
#X connect 48 0 45 0;
#X connect 50 0 44 1;
#X connect 51 0 52 0;
#X connect 52 0 56 0;
#X connect 53 0 54 0;
#X connect 54 0 50 1;
#X connect 56 0 53 0;
#X connect 57 0 38 0;
#X connect 57 1 12 0;
#X connect 57 2 17 0;
#X connect 58 0 46 0;
#X connect 59 0 48 0;
#X connect 60 0 11 0;
#X restore 68 140 pd PMOD;
#X obj 68 199 outlet~;
#N canvas 325 22 901 730 SINEFOLD 0;
#X obj 80 171 osc~;
#X obj 80 235 cos~;
#X obj 80 197 *~;
#X obj 238 156 pack f 50;
#X obj 238 180 line~;
#X obj 238 107 + 10;
#X obj 238 129 / 32;
#X obj 80 24 inlet;
#X obj 238 15 inlet;
#X text 80 7 PITCH;
#X text 236 -5 TIMBRE;
#X obj 81 633 *~;
#X obj 156 269 / 127;
#X obj 156 291 * 1999;
#X obj 156 313 + 1;
#X obj 215 269 / 127;
#X obj 141 442 vline~;
#X obj 82 659 *~;
#X obj 82 699 outlet~;
#X msg 244 407 0 \$1;
#X obj 245 366 f;
#X obj 141 357 f;
#X msg 409 461 1 \$1 \, 0 \$2 \$1;
#X obj 409 436 pack f f;
#X obj 409 405 f;
#X obj 409 499 vline~;
#X text 454 500 XODULAR ENVELOPE;
#X text 186 443 NOTEIN ENVELOPE;
#X obj 424 263 r \$0-attack;
#X obj 454 335 r \$0-release;
#X obj 454 362 / 127;
#X obj 424 287 / 127;
#X obj 424 309 * 1999;
#X obj 424 331 + 1;
#X obj 140 557 *~;
#X obj 156 225 r \$0-attack;
#X obj 215 247 r \$0-release;
#X obj 155 530 r \$0-midi-switch;
#X obj 409 619 *~;
#X obj 424 589 == 0;
#X msg 141 409 1 \$1;
#X obj 531 360 r \$0-midi-switch;
#X obj 531 399 t f b;
#X obj 558 433 delay 1;
#X obj 516 471 f;
#X obj 80 118 mtof;
#X obj 80 139 sig~;
#X obj 215 291 * 4999;
#X obj 215 313 + 10;
#X obj 454 384 * 4999;
#X obj 454 406 + 10;
#X obj 378 34 inlet;
#X obj 80 58 t a b b a;
#X text 378 14 SHAPE;
#X obj 18 176 phasor~;
#X obj 18 127 mtof;
#X obj 18 149 sig~;
#X obj 81 549 *~;
#X obj 378 56 t f f;
#X obj 378 78 / 127;
#X obj 378 100 pack f 50;
#X obj 378 122 line~;
#X msg 447 93 127 \$1;
#X obj 447 115 -;
#X obj 447 137 / 127;
#X obj 447 159 pack f 50;
#X obj 447 181 line~;
#X obj 18 548 *~;
#X obj 238 37 t f f;
#X obj 19 454 *~;
#X obj 19 476 cos~;
#X obj 16 290 min~;
#X obj 36 210 *~ -1;
#X obj 37 234 +~ 1;
#X obj 16 324 *~ 4;
#X obj 13 354 -~ 1;
#X obj 18 105 - 24;
#X obj 80 90 - 12;
#X obj 245 337 r \$0-env-off;
#X connect 0 0 2 0;
#X connect 1 0 57 0;
#X connect 2 0 1 0;
#X connect 3 0 4 0;
#X connect 4 0 2 1;
#X connect 4 0 69 1;
#X connect 5 0 6 0;
#X connect 6 0 3 0;
#X connect 7 0 52 0;
#X connect 8 0 68 0;
#X connect 11 0 17 0;
#X connect 11 0 17 1;
#X connect 12 0 13 0;
#X connect 13 0 14 0;
#X connect 14 0 21 1;
#X connect 15 0 47 0;
#X connect 16 0 34 0;
#X connect 17 0 18 0;
#X connect 19 0 16 0;
#X connect 20 0 19 0;
#X connect 21 0 40 0;
#X connect 22 0 25 0;
#X connect 23 0 22 0;
#X connect 24 0 23 0;
#X connect 25 0 38 0;
#X connect 28 0 31 0;
#X connect 29 0 30 0;
#X connect 30 0 49 0;
#X connect 31 0 32 0;
#X connect 32 0 33 0;
#X connect 33 0 24 1;
#X connect 34 0 11 1;
#X connect 35 0 12 0;
#X connect 36 0 15 0;
#X connect 37 0 34 1;
#X connect 38 0 11 1;
#X connect 39 0 38 1;
#X connect 40 0 16 0;
#X connect 41 0 42 0;
#X connect 42 0 44 1;
#X connect 42 1 43 0;
#X connect 43 0 44 0;
#X connect 44 0 39 0;
#X connect 45 0 46 0;
#X connect 46 0 0 0;
#X connect 47 0 48 0;
#X connect 48 0 20 1;
#X connect 49 0 50 0;
#X connect 50 0 23 1;
#X connect 51 0 58 0;
#X connect 52 0 77 0;
#X connect 52 1 21 0;
#X connect 52 2 24 0;
#X connect 52 3 76 0;
#X connect 54 0 71 0;
#X connect 54 0 72 0;
#X connect 55 0 56 0;
#X connect 56 0 54 0;
#X connect 57 0 11 0;
#X connect 58 0 59 0;
#X connect 58 1 62 0;
#X connect 59 0 60 0;
#X connect 60 0 61 0;
#X connect 61 0 57 1;
#X connect 62 0 63 0;
#X connect 63 0 64 0;
#X connect 64 0 65 0;
#X connect 65 0 66 0;
#X connect 66 0 67 1;
#X connect 67 0 11 0;
#X connect 68 0 5 0;
#X connect 69 0 70 0;
#X connect 70 0 67 0;
#X connect 71 0 74 0;
#X connect 72 0 73 0;
#X connect 73 0 71 1;
#X connect 74 0 75 0;
#X connect 75 0 69 0;
#X connect 76 0 55 0;
#X connect 77 0 45 0;
#X connect 78 0 20 0;
#X restore 127 139 pd SINEFOLD;
#X obj 127 198 outlet~;
#X obj 158 82 r \$0-poly-D-s;
#X obj 190 106 r \$0-poly-C-s;
#X connect 0 0 1 0;
#X connect 1 0 2 0;
#X connect 1 1 4 0;
#X connect 2 0 3 0;
#X connect 4 0 5 0;
#X connect 6 0 4 1;
#X connect 7 0 4 2;
#X restore 75 218 pd PMOD-SYNTH;
#N canvas 568 198 450 300 PMOD-SYNTH 0;
#X obj 68 20 inlet;
#X obj 68 42 t f f;
#N canvas 173 24 955 720 PMOD 0;
#X obj 252 29 inlet;
#X text 252 12 PITCH;
#X obj 250 547 *~;
#X obj 325 251 / 127;
#X obj 325 273 * 1999;
#X obj 325 295 + 1;
#X obj 429 177 / 127;
#X obj 313 374 vline~;
#X obj 250 573 *~;
#X obj 250 683 outlet~;
#X msg 429 348 0 \$1;
#X obj 414 298 f;
#X obj 310 316 f;
#X obj 253 186 phasor~;
#X obj 250 408 cos~;
#X msg 571 392 1 \$1 \, 0 \$2 \$1;
#X obj 571 367 pack f f;
#X obj 571 336 f;
#X obj 572 421 vline~;
#X text 617 422 XODULAR ENVELOPE;
#X text 353 374 NOTEIN ENVELOPE;
#X obj 586 195 r \$0-attack;
#X obj 616 267 r \$0-release;
#X obj 616 294 / 127;
#X obj 586 219 / 127;
#X obj 586 241 * 1999;
#X obj 586 263 + 1;
#X obj 313 430 *~;
#X obj 573 530 *~;
#X obj 328 403 r \$0-midi-switch;
#X obj 588 508 == 0;
#X obj 325 229 r \$0-attack;
#X obj 429 155 r \$0-release;
#X msg 313 340 1 \$1;
#X obj 741 331 r \$0-midi-switch;
#X obj 741 370 t f b;
#X obj 768 404 delay 1;
#X obj 726 442 f;
#X obj 253 103 mtof;
#X obj 253 127 sig~;
#X obj 429 199 * 4999;
#X obj 429 221 + 10;
#X obj 616 316 * 4999;
#X obj 616 338 + 10;
#X obj 250 379 +~;
#X obj 49 97 phasor~;
#X obj 50 198 cos~;
#X obj 49 23 r \$0-poly-A-s;
#X obj 49 73 mtof;
#X text 58 1 MODULATOR 1;
#X obj 50 232 *~;
#X obj 144 34 r \$0-poly-B-s;
#X obj 144 56 / 127;
#X obj 144 128 pack f 50;
#X obj 144 150 line~;
#X text 152 18 INDEX 1;
#X obj 144 78 * 1;
#X obj 252 63 t a b b;
#X obj 49 119 +~;
#X obj 49 51 - 32;
#X obj 414 269 r \$0-env-off;
#X connect 0 0 57 0;
#X connect 2 0 8 0;
#X connect 2 0 8 1;
#X connect 3 0 4 0;
#X connect 4 0 5 0;
#X connect 5 0 12 1;
#X connect 6 0 40 0;
#X connect 7 0 27 0;
#X connect 8 0 9 0;
#X connect 10 0 7 0;
#X connect 11 0 10 0;
#X connect 12 0 33 0;
#X connect 13 0 44 0;
#X connect 14 0 2 0;
#X connect 15 0 18 0;
#X connect 16 0 15 0;
#X connect 17 0 16 0;
#X connect 18 0 28 0;
#X connect 21 0 24 0;
#X connect 22 0 23 0;
#X connect 23 0 42 0;
#X connect 24 0 25 0;
#X connect 25 0 26 0;
#X connect 26 0 17 1;
#X connect 27 0 2 1;
#X connect 28 0 2 1;
#X connect 29 0 27 1;
#X connect 30 0 28 1;
#X connect 31 0 3 0;
#X connect 32 0 6 0;
#X connect 33 0 7 0;
#X connect 34 0 35 0;
#X connect 35 0 37 1;
#X connect 35 1 36 0;
#X connect 36 0 37 0;
#X connect 37 0 30 0;
#X connect 38 0 39 0;
#X connect 39 0 13 0;
#X connect 40 0 41 0;
#X connect 41 0 11 1;
#X connect 42 0 43 0;
#X connect 43 0 16 1;
#X connect 44 0 14 0;
#X connect 45 0 58 0;
#X connect 46 0 50 0;
#X connect 47 0 59 0;
#X connect 48 0 45 0;
#X connect 50 0 44 1;
#X connect 51 0 52 0;
#X connect 52 0 56 0;
#X connect 53 0 54 0;
#X connect 54 0 50 1;
#X connect 56 0 53 0;
#X connect 57 0 38 0;
#X connect 57 1 12 0;
#X connect 57 2 17 0;
#X connect 58 0 46 0;
#X connect 59 0 48 0;
#X connect 60 0 11 0;
#X restore 68 140 pd PMOD;
#X obj 68 199 outlet~;
#N canvas 325 22 901 730 SINEFOLD 0;
#X obj 80 171 osc~;
#X obj 80 235 cos~;
#X obj 80 197 *~;
#X obj 238 156 pack f 50;
#X obj 238 180 line~;
#X obj 238 107 + 10;
#X obj 238 129 / 32;
#X obj 80 24 inlet;
#X obj 238 15 inlet;
#X text 80 7 PITCH;
#X text 236 -5 TIMBRE;
#X obj 81 633 *~;
#X obj 156 269 / 127;
#X obj 156 291 * 1999;
#X obj 156 313 + 1;
#X obj 215 269 / 127;
#X obj 141 442 vline~;
#X obj 82 659 *~;
#X obj 82 699 outlet~;
#X msg 244 407 0 \$1;
#X obj 245 366 f;
#X obj 141 357 f;
#X msg 409 461 1 \$1 \, 0 \$2 \$1;
#X obj 409 436 pack f f;
#X obj 409 405 f;
#X obj 409 499 vline~;
#X text 454 500 XODULAR ENVELOPE;
#X text 186 443 NOTEIN ENVELOPE;
#X obj 424 263 r \$0-attack;
#X obj 454 335 r \$0-release;
#X obj 454 362 / 127;
#X obj 424 287 / 127;
#X obj 424 309 * 1999;
#X obj 424 331 + 1;
#X obj 140 557 *~;
#X obj 156 225 r \$0-attack;
#X obj 215 247 r \$0-release;
#X obj 155 530 r \$0-midi-switch;
#X obj 409 619 *~;
#X obj 424 589 == 0;
#X msg 141 409 1 \$1;
#X obj 531 360 r \$0-midi-switch;
#X obj 531 399 t f b;
#X obj 558 433 delay 1;
#X obj 516 471 f;
#X obj 80 118 mtof;
#X obj 80 139 sig~;
#X obj 215 291 * 4999;
#X obj 215 313 + 10;
#X obj 454 384 * 4999;
#X obj 454 406 + 10;
#X obj 378 34 inlet;
#X obj 80 58 t a b b a;
#X text 378 14 SHAPE;
#X obj 18 176 phasor~;
#X obj 18 127 mtof;
#X obj 18 149 sig~;
#X obj 81 549 *~;
#X obj 378 56 t f f;
#X obj 378 78 / 127;
#X obj 378 100 pack f 50;
#X obj 378 122 line~;
#X msg 447 93 127 \$1;
#X obj 447 115 -;
#X obj 447 137 / 127;
#X obj 447 159 pack f 50;
#X obj 447 181 line~;
#X obj 18 548 *~;
#X obj 238 37 t f f;
#X obj 19 454 *~;
#X obj 19 476 cos~;
#X obj 16 290 min~;
#X obj 36 210 *~ -1;
#X obj 37 234 +~ 1;
#X obj 16 324 *~ 4;
#X obj 13 354 -~ 1;
#X obj 18 105 - 24;
#X obj 80 90 - 12;
#X obj 245 337 r \$0-env-off;
#X connect 0 0 2 0;
#X connect 1 0 57 0;
#X connect 2 0 1 0;
#X connect 3 0 4 0;
#X connect 4 0 2 1;
#X connect 4 0 69 1;
#X connect 5 0 6 0;
#X connect 6 0 3 0;
#X connect 7 0 52 0;
#X connect 8 0 68 0;
#X connect 11 0 17 0;
#X connect 11 0 17 1;
#X connect 12 0 13 0;
#X connect 13 0 14 0;
#X connect 14 0 21 1;
#X connect 15 0 47 0;
#X connect 16 0 34 0;
#X connect 17 0 18 0;
#X connect 19 0 16 0;
#X connect 20 0 19 0;
#X connect 21 0 40 0;
#X connect 22 0 25 0;
#X connect 23 0 22 0;
#X connect 24 0 23 0;
#X connect 25 0 38 0;
#X connect 28 0 31 0;
#X connect 29 0 30 0;
#X connect 30 0 49 0;
#X connect 31 0 32 0;
#X connect 32 0 33 0;
#X connect 33 0 24 1;
#X connect 34 0 11 1;
#X connect 35 0 12 0;
#X connect 36 0 15 0;
#X connect 37 0 34 1;
#X connect 38 0 11 1;
#X connect 39 0 38 1;
#X connect 40 0 16 0;
#X connect 41 0 42 0;
#X connect 42 0 44 1;
#X connect 42 1 43 0;
#X connect 43 0 44 0;
#X connect 44 0 39 0;
#X connect 45 0 46 0;
#X connect 46 0 0 0;
#X connect 47 0 48 0;
#X connect 48 0 20 1;
#X connect 49 0 50 0;
#X connect 50 0 23 1;
#X connect 51 0 58 0;
#X connect 52 0 77 0;
#X connect 52 1 21 0;
#X connect 52 2 24 0;
#X connect 52 3 76 0;
#X connect 54 0 71 0;
#X connect 54 0 72 0;
#X connect 55 0 56 0;
#X connect 56 0 54 0;
#X connect 57 0 11 0;
#X connect 58 0 59 0;
#X connect 58 1 62 0;
#X connect 59 0 60 0;
#X connect 60 0 61 0;
#X connect 61 0 57 1;
#X connect 62 0 63 0;
#X connect 63 0 64 0;
#X connect 64 0 65 0;
#X connect 65 0 66 0;
#X connect 66 0 67 1;
#X connect 67 0 11 0;
#X connect 68 0 5 0;
#X connect 69 0 70 0;
#X connect 70 0 67 0;
#X connect 71 0 74 0;
#X connect 72 0 73 0;
#X connect 73 0 71 1;
#X connect 74 0 75 0;
#X connect 75 0 69 0;
#X connect 76 0 55 0;
#X connect 77 0 45 0;
#X connect 78 0 20 0;
#X restore 127 139 pd SINEFOLD;
#X obj 127 198 outlet~;
#X obj 158 82 r \$0-poly-D-s;
#X obj 190 106 r \$0-poly-C-s;
#X connect 0 0 1 0;
#X connect 1 0 2 0;
#X connect 1 1 4 0;
#X connect 2 0 3 0;
#X connect 4 0 5 0;
#X connect 6 0 4 1;
#X connect 7 0 4 2;
#X restore 90 193 pd PMOD-SYNTH;
#N canvas 568 198 450 300 PMOD-SYNTH 0;
#X obj 68 20 inlet;
#X obj 68 42 t f f;
#N canvas 173 24 955 720 PMOD 0;
#X obj 252 29 inlet;
#X text 252 12 PITCH;
#X obj 250 547 *~;
#X obj 325 251 / 127;
#X obj 325 273 * 1999;
#X obj 325 295 + 1;
#X obj 429 177 / 127;
#X obj 313 374 vline~;
#X obj 250 573 *~;
#X obj 250 683 outlet~;
#X msg 429 348 0 \$1;
#X obj 414 298 f;
#X obj 310 316 f;
#X obj 253 186 phasor~;
#X obj 250 408 cos~;
#X msg 571 392 1 \$1 \, 0 \$2 \$1;
#X obj 571 367 pack f f;
#X obj 571 336 f;
#X obj 572 421 vline~;
#X text 617 422 XODULAR ENVELOPE;
#X text 353 374 NOTEIN ENVELOPE;
#X obj 586 195 r \$0-attack;
#X obj 616 267 r \$0-release;
#X obj 616 294 / 127;
#X obj 586 219 / 127;
#X obj 586 241 * 1999;
#X obj 586 263 + 1;
#X obj 313 430 *~;
#X obj 573 530 *~;
#X obj 328 403 r \$0-midi-switch;
#X obj 588 508 == 0;
#X obj 325 229 r \$0-attack;
#X obj 429 155 r \$0-release;
#X msg 313 340 1 \$1;
#X obj 741 331 r \$0-midi-switch;
#X obj 741 370 t f b;
#X obj 768 404 delay 1;
#X obj 726 442 f;
#X obj 253 103 mtof;
#X obj 253 127 sig~;
#X obj 429 199 * 4999;
#X obj 429 221 + 10;
#X obj 616 316 * 4999;
#X obj 616 338 + 10;
#X obj 250 379 +~;
#X obj 49 97 phasor~;
#X obj 50 198 cos~;
#X obj 49 23 r \$0-poly-A-s;
#X obj 49 73 mtof;
#X text 58 1 MODULATOR 1;
#X obj 50 232 *~;
#X obj 144 34 r \$0-poly-B-s;
#X obj 144 56 / 127;
#X obj 144 128 pack f 50;
#X obj 144 150 line~;
#X text 152 18 INDEX 1;
#X obj 144 78 * 1;
#X obj 252 63 t a b b;
#X obj 49 119 +~;
#X obj 49 51 - 32;
#X obj 414 269 r \$0-env-off;
#X connect 0 0 57 0;
#X connect 2 0 8 0;
#X connect 2 0 8 1;
#X connect 3 0 4 0;
#X connect 4 0 5 0;
#X connect 5 0 12 1;
#X connect 6 0 40 0;
#X connect 7 0 27 0;
#X connect 8 0 9 0;
#X connect 10 0 7 0;
#X connect 11 0 10 0;
#X connect 12 0 33 0;
#X connect 13 0 44 0;
#X connect 14 0 2 0;
#X connect 15 0 18 0;
#X connect 16 0 15 0;
#X connect 17 0 16 0;
#X connect 18 0 28 0;
#X connect 21 0 24 0;
#X connect 22 0 23 0;
#X connect 23 0 42 0;
#X connect 24 0 25 0;
#X connect 25 0 26 0;
#X connect 26 0 17 1;
#X connect 27 0 2 1;
#X connect 28 0 2 1;
#X connect 29 0 27 1;
#X connect 30 0 28 1;
#X connect 31 0 3 0;
#X connect 32 0 6 0;
#X connect 33 0 7 0;
#X connect 34 0 35 0;
#X connect 35 0 37 1;
#X connect 35 1 36 0;
#X connect 36 0 37 0;
#X connect 37 0 30 0;
#X connect 38 0 39 0;
#X connect 39 0 13 0;
#X connect 40 0 41 0;
#X connect 41 0 11 1;
#X connect 42 0 43 0;
#X connect 43 0 16 1;
#X connect 44 0 14 0;
#X connect 45 0 58 0;
#X connect 46 0 50 0;
#X connect 47 0 59 0;
#X connect 48 0 45 0;
#X connect 50 0 44 1;
#X connect 51 0 52 0;
#X connect 52 0 56 0;
#X connect 53 0 54 0;
#X connect 54 0 50 1;
#X connect 56 0 53 0;
#X connect 57 0 38 0;
#X connect 57 1 12 0;
#X connect 57 2 17 0;
#X connect 58 0 46 0;
#X connect 59 0 48 0;
#X connect 60 0 11 0;
#X restore 68 140 pd PMOD;
#X obj 68 199 outlet~;
#N canvas 325 22 901 730 SINEFOLD 0;
#X obj 80 171 osc~;
#X obj 80 235 cos~;
#X obj 80 197 *~;
#X obj 238 156 pack f 50;
#X obj 238 180 line~;
#X obj 238 107 + 10;
#X obj 238 129 / 32;
#X obj 80 24 inlet;
#X obj 238 15 inlet;
#X text 80 7 PITCH;
#X text 236 -5 TIMBRE;
#X obj 81 633 *~;
#X obj 156 269 / 127;
#X obj 156 291 * 1999;
#X obj 156 313 + 1;
#X obj 215 269 / 127;
#X obj 141 442 vline~;
#X obj 82 659 *~;
#X obj 82 699 outlet~;
#X msg 244 407 0 \$1;
#X obj 245 366 f;
#X obj 141 357 f;
#X msg 409 461 1 \$1 \, 0 \$2 \$1;
#X obj 409 436 pack f f;
#X obj 409 405 f;
#X obj 409 499 vline~;
#X text 454 500 XODULAR ENVELOPE;
#X text 186 443 NOTEIN ENVELOPE;
#X obj 424 263 r \$0-attack;
#X obj 454 335 r \$0-release;
#X obj 454 362 / 127;
#X obj 424 287 / 127;
#X obj 424 309 * 1999;
#X obj 424 331 + 1;
#X obj 140 557 *~;
#X obj 156 225 r \$0-attack;
#X obj 215 247 r \$0-release;
#X obj 155 530 r \$0-midi-switch;
#X obj 409 619 *~;
#X obj 424 589 == 0;
#X msg 141 409 1 \$1;
#X obj 531 360 r \$0-midi-switch;
#X obj 531 399 t f b;
#X obj 558 433 delay 1;
#X obj 516 471 f;
#X obj 80 118 mtof;
#X obj 80 139 sig~;
#X obj 215 291 * 4999;
#X obj 215 313 + 10;
#X obj 454 384 * 4999;
#X obj 454 406 + 10;
#X obj 378 34 inlet;
#X obj 80 58 t a b b a;
#X text 378 14 SHAPE;
#X obj 18 176 phasor~;
#X obj 18 127 mtof;
#X obj 18 149 sig~;
#X obj 81 549 *~;
#X obj 378 56 t f f;
#X obj 378 78 / 127;
#X obj 378 100 pack f 50;
#X obj 378 122 line~;
#X msg 447 93 127 \$1;
#X obj 447 115 -;
#X obj 447 137 / 127;
#X obj 447 159 pack f 50;
#X obj 447 181 line~;
#X obj 18 548 *~;
#X obj 238 37 t f f;
#X obj 19 454 *~;
#X obj 19 476 cos~;
#X obj 16 290 min~;
#X obj 36 210 *~ -1;
#X obj 37 234 +~ 1;
#X obj 16 324 *~ 4;
#X obj 13 354 -~ 1;
#X obj 18 105 - 24;
#X obj 80 90 - 12;
#X obj 245 337 r \$0-env-off;
#X connect 0 0 2 0;
#X connect 1 0 57 0;
#X connect 2 0 1 0;
#X connect 3 0 4 0;
#X connect 4 0 2 1;
#X connect 4 0 69 1;
#X connect 5 0 6 0;
#X connect 6 0 3 0;
#X connect 7 0 52 0;
#X connect 8 0 68 0;
#X connect 11 0 17 0;
#X connect 11 0 17 1;
#X connect 12 0 13 0;
#X connect 13 0 14 0;
#X connect 14 0 21 1;
#X connect 15 0 47 0;
#X connect 16 0 34 0;
#X connect 17 0 18 0;
#X connect 19 0 16 0;
#X connect 20 0 19 0;
#X connect 21 0 40 0;
#X connect 22 0 25 0;
#X connect 23 0 22 0;
#X connect 24 0 23 0;
#X connect 25 0 38 0;
#X connect 28 0 31 0;
#X connect 29 0 30 0;
#X connect 30 0 49 0;
#X connect 31 0 32 0;
#X connect 32 0 33 0;
#X connect 33 0 24 1;
#X connect 34 0 11 1;
#X connect 35 0 12 0;
#X connect 36 0 15 0;
#X connect 37 0 34 1;
#X connect 38 0 11 1;
#X connect 39 0 38 1;
#X connect 40 0 16 0;
#X connect 41 0 42 0;
#X connect 42 0 44 1;
#X connect 42 1 43 0;
#X connect 43 0 44 0;
#X connect 44 0 39 0;
#X connect 45 0 46 0;
#X connect 46 0 0 0;
#X connect 47 0 48 0;
#X connect 48 0 20 1;
#X connect 49 0 50 0;
#X connect 50 0 23 1;
#X connect 51 0 58 0;
#X connect 52 0 77 0;
#X connect 52 1 21 0;
#X connect 52 2 24 0;
#X connect 52 3 76 0;
#X connect 54 0 71 0;
#X connect 54 0 72 0;
#X connect 55 0 56 0;
#X connect 56 0 54 0;
#X connect 57 0 11 0;
#X connect 58 0 59 0;
#X connect 58 1 62 0;
#X connect 59 0 60 0;
#X connect 60 0 61 0;
#X connect 61 0 57 1;
#X connect 62 0 63 0;
#X connect 63 0 64 0;
#X connect 64 0 65 0;
#X connect 65 0 66 0;
#X connect 66 0 67 1;
#X connect 67 0 11 0;
#X connect 68 0 5 0;
#X connect 69 0 70 0;
#X connect 70 0 67 0;
#X connect 71 0 74 0;
#X connect 72 0 73 0;
#X connect 73 0 71 1;
#X connect 74 0 75 0;
#X connect 75 0 69 0;
#X connect 76 0 55 0;
#X connect 77 0 45 0;
#X connect 78 0 20 0;
#X restore 127 139 pd SINEFOLD;
#X obj 127 198 outlet~;
#X obj 158 82 r \$0-poly-D-s;
#X obj 190 106 r \$0-poly-C-s;
#X connect 0 0 1 0;
#X connect 1 0 2 0;
#X connect 1 1 4 0;
#X connect 2 0 3 0;
#X connect 4 0 5 0;
#X connect 6 0 4 1;
#X connect 7 0 4 2;
#X restore 110 166 pd PMOD-SYNTH;
#X obj 136 449 -~ 0.5;
#X obj 55 431 -~ 0.5;
#X obj 55 345 *~ 0.25;
#X obj 130 344 *~ 0.25;
#X obj 55 372 *~ 1.5;
#X obj 130 374 *~ 1.5;
#X connect 0 0 3 0;
#X connect 0 1 5 0;
#X connect 0 2 6 0;
#X connect 0 3 7 0;
#X connect 1 0 0 0;
#X connect 3 0 10 0;
#X connect 3 1 11 0;
#X connect 5 0 11 0;
#X connect 5 1 10 0;
#X connect 6 0 10 0;
#X connect 6 1 11 0;
#X connect 7 0 11 0;
#X connect 7 1 10 0;
#X connect 8 0 4 0;
#X connect 9 0 2 0;
#X connect 10 0 12 0;
#X connect 11 0 13 0;
#X connect 12 0 9 0;
#X connect 13 0 8 0;
#X restore 605 534 pd phase-modulation-additive-synth;
#X obj 393 557 *~;
#X obj 492 551 *~;
#X obj 408 510 pack f 50;
#X obj 408 533 line~;
#X obj 507 505 pack f 50;
#X obj 507 528 line~;
#X obj 605 606 *~;
#X obj 806 600 *~;
#X obj 620 559 pack f 50;
#X obj 620 582 line~;
#X obj 821 554 pack f 50;
#X obj 821 577 line~;
#X obj 439 310 i;
#X obj 254 460 / 127;
#X msg 299 395 0;
#X obj 604 651 *~;
#X obj 807 661 *~;
#X obj 615 386 tgl 15 0 empty empty empty 17 7 0 10 -262144 -1 -1 0
1;
#X obj 492 264 delay 1;
#X floatatom 319 258 5 0 0 0 - - -;
#X obj 439 246 * 36;
#X floatatom 276 206 3 0 0 0 - - -;
#X obj 316 291 - 48;
#X obj 392 645 -~ 0.25;
#X obj 491 642 -~ 0.25;
#X obj 491 666 hip~ 40;
#X obj 392 669 hip~ 40;
#X obj 392 620 *~ 0.25;
#X obj 491 615 *~ 0.25;
#X obj 494 436 s \$0-env-off;
#X obj 392 729 outlet~;
#X obj 491 731 outlet~;
#X obj 981 74 inlet~;
#X obj 981 96 threshold~ 1 0 1 0;
#X text 975 56 MODE;
#X obj 964 147 f;
#X obj 992 146 + 1;
#X obj 964 169 % 2;
#X floatatom 964 191 5 0 0 0 - - -;
#X obj 276 105 cnv 5 10 10 empty empty MODE 0 5 1 7 -228856 -258113
0;
#X obj 604 673 *~ 0.25;
#X obj 808 684 *~ 0.25;
#X obj 501 111 delay 1;
#X connect 1 0 83 0;
#X connect 1 1 83 1;
#X connect 1 2 83 2;
#X connect 2 0 20 0;
#X connect 2 1 21 0;
#X connect 5 0 1 0;
#X connect 5 1 1 1;
#X connect 6 0 1 0;
#X connect 7 0 1 1;
#X connect 8 0 9 0;
#X connect 10 0 6 1;
#X connect 10 0 7 1;
#X connect 13 0 89 0;
#X connect 14 0 88 0;
#X connect 15 0 16 0;
#X connect 16 0 22 0;
#X connect 16 0 102 0;
#X connect 16 1 142 0;
#X connect 17 0 19 0;
#X connect 18 0 157 0;
#X connect 19 0 146 0;
#X connect 20 0 6 0;
#X connect 21 0 7 0;
#X connect 21 1 17 0;
#X connect 22 0 14 0;
#X connect 23 0 24 0;
#X connect 24 0 22 1;
#X connect 25 0 26 0;
#X connect 25 0 145 0;
#X connect 26 0 157 0;
#X connect 27 0 3 0;
#X connect 28 0 4 0;
#X connect 29 0 141 0;
#X connect 30 0 32 1;
#X connect 30 0 33 1;
#X connect 30 0 143 1;
#X connect 30 0 144 1;
#X connect 31 0 30 0;
#X connect 32 0 155 0;
#X connect 33 0 156 0;
#X connect 34 0 85 0;
#X connect 37 0 38 0;
#X connect 38 0 39 0;
#X connect 39 0 114 0;
#X connect 40 0 39 0;
#X connect 42 0 43 0;
#X connect 43 0 44 0;
#X connect 44 0 115 0;
#X connect 45 0 44 0;
#X connect 47 0 48 0;
#X connect 48 0 49 0;
#X connect 49 0 116 0;
#X connect 50 0 49 0;
#X connect 52 0 53 0;
#X connect 53 0 54 0;
#X connect 54 0 117 0;
#X connect 55 0 54 0;
#X connect 83 0 112 0;
#X connect 83 0 127 0;
#X connect 84 0 87 0;
#X connect 85 0 148 0;
#X connect 86 0 140 0;
#X connect 87 0 5 0;
#X connect 88 0 84 0;
#X connect 89 0 14 0;
#X connect 90 0 93 0;
#X connect 91 0 88 0;
#X connect 93 0 91 0;
#X connect 95 0 96 0;
#X connect 96 0 103 0;
#X connect 96 0 170 0;
#X connect 97 0 91 0;
#X connect 98 0 99 0;
#X connect 99 0 97 1;
#X connect 112 0 128 0;
#X connect 112 1 129 0;
#X connect 119 0 120 0;
#X connect 120 0 121 0;
#X connect 120 1 124 0;
#X connect 120 2 126 0;
#X connect 121 0 122 0;
#X connect 122 0 130 0;
#X connect 122 0 132 0;
#X connect 122 1 136 0;
#X connect 122 1 138 0;
#X connect 123 0 130 0;
#X connect 123 0 132 0;
#X connect 123 1 136 0;
#X connect 123 1 138 0;
#X connect 124 0 123 0;
#X connect 126 0 125 0;
#X connect 127 0 134 0;
#X connect 127 1 135 0;
#X connect 128 0 32 0;
#X connect 129 0 33 0;
#X connect 130 0 131 0;
#X connect 131 0 128 1;
#X connect 132 0 133 0;
#X connect 133 0 129 1;
#X connect 134 0 143 0;
#X connect 135 0 144 0;
#X connect 136 0 137 0;
#X connect 137 0 134 1;
#X connect 138 0 139 0;
#X connect 139 0 135 1;
#X connect 140 0 84 1;
#X connect 140 0 147 0;
#X connect 141 0 31 0;
#X connect 142 0 32 1;
#X connect 142 0 33 1;
#X connect 142 0 143 1;
#X connect 142 0 144 1;
#X connect 143 0 168 0;
#X connect 144 0 169 0;
#X connect 146 0 18 0;
#X connect 147 0 150 0;
#X connect 148 0 86 0;
#X connect 150 0 149 0;
#X connect 151 0 154 0;
#X connect 152 0 153 0;
#X connect 153 0 159 0;
#X connect 154 0 158 0;
#X connect 155 0 151 0;
#X connect 156 0 152 0;
#X connect 160 0 161 0;
#X connect 161 0 163 0;
#X connect 163 0 164 0;
#X connect 163 0 165 0;
#X connect 164 0 163 1;
#X connect 165 0 166 0;
#X connect 166 0 107 0;
#X connect 168 0 158 0;
#X connect 169 0 159 0;
#X connect 170 0 97 0;
#X coords 0 -1 1 1 200 200 2 100 100;
