#N canvas 69 40 1130 713 10;
#X obj 105 105 cnv 15 210 190 empty empty empty 20 30 1 14 -237178
-66577 0;
#X obj 108 126 cnv 5 5 120 empty empty empty 20 12 0 14 -261234 -66577
0;
#X obj 108 120 cnv 5 120 5 empty empty empty 20 12 0 14 -261234 -66577
0;
#X obj 223 126 cnv 5 5 120 empty empty empty 20 12 0 14 -261234 -66577
0;
#X obj 108 247 cnv 5 120 5 empty empty empty 20 12 0 14 -261234 -66577
0;
#X obj 125 164 cnv 5 5 120 empty empty empty 20 12 0 14 -261234 -66577
0;
#X obj 125 158 cnv 5 120 5 empty empty empty 20 12 0 14 -261234 -66577
0;
#X obj 240 164 cnv 5 5 120 empty empty empty 20 12 0 14 -261234 -66577
0;
#X obj 124 285 cnv 5 120 5 empty empty empty 20 12 0 14 -261234 -66577
0;
#X obj 151 216 knob 48 48 0 127 0 1 \$0-dry/wet-knob-s \$0-dry/wet-r
DRY/WET 0 -8 1 8 -262144 -1 -1 0 1;
#X obj 7 48 inlet~;
#X text 5 31 LEFT IN;
#X obj 148 53 inlet~;
#X text 148 32 RIGHT IN;
#X obj 109 161 knob 32 32 0 127 0 1 \$0-rate-knob-left-s \$0-rate-left-r
RATE-LEFT 0 -8 1 8 -262144 -1 -1 0 1;
#X obj 204 161 knob 32 32 0 127 0 1 \$0-rate-knob-right-s \$0-rate-right-r
RATE-RIGHT 0 -8 1 8 -262144 -1 -1 0 1;
#X obj 111 244 knob 32 32 0 127 0 1 \$0-space-s \$0-space-r SPACE 0
-8 1 8 -262144 -1 -1 0 1;
#X obj 204 210 knob 32 32 0 127 0 1 \$0-eq-s \$0-eq-r LOWPASS 0 -8
1 8 -262144 -1 -1 0 1;
#N canvas 308 22 694 733 space-knob 0;
#X obj 35 3 r \$0-space-s;
#X obj 35 27 / 127;
#X obj 35 71 i;
#X floatatom 35 93 5 0 0 0 - - -;
#X msg 35 137 1 0 0 0 0;
#X msg 49 162 1 1 0 0 0;
#X msg 62 191 1 1 1 0 0;
#X msg 76 216 1 1 1 1 0;
#X msg 90 242 1 1 1 1 1;
#X msg 104 265 0 1 1 1 1;
#X msg 118 291 0 0 1 1 1;
#X msg 133 314 0 0 0 1 1;
#X msg 144 179 0 0 0 0 1;
#X obj 35 114 sel 0 1 2 3 4 5 6 7 8;
#X obj 35 337 s \$0-reflex-space-knob-s;
#X obj 35 49 * 5;
#X connect 0 0 1 0;
#X connect 1 0 15 0;
#X connect 2 0 3 0;
#X connect 3 0 13 0;
#X connect 4 0 14 0;
#X connect 5 0 14 0;
#X connect 6 0 14 0;
#X connect 7 0 14 0;
#X connect 8 0 14 0;
#X connect 9 0 14 0;
#X connect 10 0 14 0;
#X connect 11 0 14 0;
#X connect 12 0 14 0;
#X connect 13 0 4 0;
#X connect 13 1 5 0;
#X connect 13 2 6 0;
#X connect 13 3 7 0;
#X connect 13 4 8 0;
#X connect 13 5 9 0;
#X connect 13 6 10 0;
#X connect 13 7 11 0;
#X connect 13 8 12 0;
#X connect 15 0 2 0;
#X restore 6 300 pd space-knob;
#N canvas 184 23 798 521 mixing-wet-and-dry-section 0;
#X obj 215 240 *~;
#X obj 116 271 *~;
#X obj 292 261 *~;
#X msg 150 166 127 \$1;
#X obj 150 188 -;
#X obj 150 210 / 127;
#X obj 150 232 pack 0 50;
#X obj 150 254 line~;
#X obj 307 130 / 127;
#X obj 307 151 pack 0 50;
#X obj 307 173 line~;
#X text 260 265 WET;
#X obj 215 317 outlet~;
#X text 215 337 LEFT OUT;
#X obj 292 373 outlet~;
#X text 292 392 RIGHT OUT;
#X obj 404 270 *~;
#X msg 438 165 127 \$1;
#X obj 438 187 -;
#X obj 438 209 / 127;
#X obj 438 231 pack 0 50;
#X obj 438 253 line~;
#X obj 267 -82 / 127;
#X obj 267 -16 pack 0 50;
#X obj 267 6 line~;
#X obj 267 28 lop~ 5;
#X obj 267 50 snapshot~;
#X obj 267 -38 + 250;
#X obj 267 -61 * 9750;
#X obj 215 292 lop~;
#X obj 292 319 lop~;
#X obj 115 113 r~ \$0-reflex-LEFT-in;
#X obj 403 112 r~ \$0-reflex-RIGHT-in;
#X obj 150 136 r \$0-reflex-dry/wet-s;
#X obj 307 74 r \$0-reflex-dry/wet-s;
#X obj 292 226 r~ \$0-RIGHT-DLY;
#X obj 215 173 r~ \$0-LEFT-DLY;
#X obj 438 135 r \$0-reflex-dry/wet-s;
#X obj 404 299 *~ 0.5;
#X obj 116 301 *~ 0.5;
#X obj 267 -104 r \$0-reflex-lowpass-s;
#X obj 215 267 *~ 0.5;
#X obj 292 290 *~ 0.5;
#X obj 317 29 bang~;
#X connect 0 0 41 0;
#X connect 1 0 39 0;
#X connect 2 0 42 0;
#X connect 3 0 4 0;
#X connect 4 0 5 0;
#X connect 5 0 6 0;
#X connect 6 0 7 0;
#X connect 7 0 1 1;
#X connect 8 0 9 0;
#X connect 9 0 10 0;
#X connect 10 0 0 1;
#X connect 10 0 2 1;
#X connect 16 0 38 0;
#X connect 17 0 18 0;
#X connect 18 0 19 0;
#X connect 19 0 20 0;
#X connect 20 0 21 0;
#X connect 21 0 16 1;
#X connect 22 0 28 0;
#X connect 23 0 24 0;
#X connect 24 0 25 0;
#X connect 25 0 26 0;
#X connect 26 0 29 1;
#X connect 26 0 30 1;
#X connect 27 0 23 0;
#X connect 28 0 27 0;
#X connect 29 0 12 0;
#X connect 30 0 14 0;
#X connect 31 0 1 0;
#X connect 32 0 16 0;
#X connect 33 0 3 0;
#X connect 34 0 8 0;
#X connect 35 0 2 0;
#X connect 36 0 0 0;
#X connect 37 0 17 0;
#X connect 38 0 14 0;
#X connect 39 0 12 0;
#X connect 40 0 22 0;
#X connect 41 0 29 0;
#X connect 42 0 30 0;
#X connect 43 0 26 0;
#X restore 329 601 pd mixing-wet-and-dry-section;
#X obj 329 644 outlet~;
#X obj 500 637 outlet~;
#X obj 196 350 r \$0-rate-knob-left-s;
#X obj 196 457 +;
#X obj 247 60 inlet~;
#X obj 246 381 *~ 127;
#X obj 246 418 snapshot~;
#X obj 246 440 t b f;
#X obj 497 244 +;
#X obj 547 77 inlet~;
#X obj 547 183 *~ 127;
#X obj 547 205 snapshot~;
#X obj 547 227 t b f;
#X obj 497 137 r \$0-rate-knob-right-s;
#X obj 401 435 +;
#X obj 451 73 inlet~;
#X obj 451 374 *~ 127;
#X obj 451 396 snapshot~;
#X obj 451 418 t b f;
#X obj 401 328 r \$0-feedback-knob-s;
#X obj 622 403 +;
#X obj 672 71 inlet~;
#X obj 672 342 *~ 127;
#X obj 672 364 snapshot~;
#X obj 672 386 t b f;
#X obj 622 296 r \$0-dry/wet-knob-s;
#X obj 401 473 moses 127;
#X obj 115 137 cnv 5 1 1 empty empty PRESET-REFLEXOR 0 0 1 14 -233017
-66577 0;
#X obj 250 238 knob 32 32 0 127 0 0 \$0-reflex-pscan-s \$0-reflex-pscan-r
P-SCAN 0 -8 1 8 -262144 -1 -1 0 1;
#X obj 270 148 vradio 15 1 0 5 \$0-reflex-save-s \$0-reflex-save-r
SAVE/ -13 -8 1 10 -261234 -1 -1 0;
#X obj 285 148 vradio 15 1 0 5 \$0-reflex-load-s \$0-reflex-load-r
LOAD 0 -8 1 10 -204786 -1 -1 0;
#N canvas 411 188 927 593 preset-fuction 0;
#N canvas 77 115 1190 560 preset-1 0;
#X obj 39 186 f;
#X obj 24 319 f;
#X obj 39 138 sel 0;
#X obj 24 95 sel 0;
#X obj 24 73 r \$0-reflex-load-s;
#X obj 39 116 r \$0-reflex-save-s;
#X obj 54 160 r \$0-rate-knob-left-s;
#X text 26 53 LEFT RATE;
#X text 195 48 RIGHT RATE;
#X obj 207 185 f;
#X obj 192 287 f;
#X obj 207 137 sel 0;
#X obj 192 94 sel 0;
#X obj 192 72 r \$0-reflex-load-s;
#X obj 207 115 r \$0-reflex-save-s;
#X obj 222 159 r \$0-rate-knob-right-s;
#X obj 383 178 f;
#X obj 368 306 f;
#X obj 383 130 sel 0;
#X obj 368 87 sel 0;
#X obj 368 65 r \$0-reflex-load-s;
#X obj 383 108 r \$0-reflex-save-s;
#X obj 398 152 r \$0-feedback-knob-s;
#X obj 555 185 f;
#X obj 539 346 f;
#X obj 555 137 sel 0;
#X obj 540 94 sel 0;
#X obj 540 72 r \$0-reflex-load-s;
#X obj 555 115 r \$0-reflex-save-s;
#X obj 570 159 r \$0-space-s;
#X obj 695 179 f;
#X obj 680 339 f;
#X obj 695 131 sel 0;
#X obj 680 88 sel 0;
#X obj 680 66 r \$0-reflex-load-s;
#X obj 695 109 r \$0-reflex-save-s;
#X obj 710 153 r \$0-dry/wet-knob-s;
#X obj 851 184 f;
#X obj 836 341 f;
#X obj 851 136 sel 0;
#X obj 836 93 sel 0;
#X obj 836 71 r \$0-reflex-load-s;
#X obj 851 114 r \$0-reflex-save-s;
#X obj 866 158 r \$0-eq-s;
#X text 380 39 FEEDBACK;
#X text 555 46 SPACE;
#X text 703 44 DRY/WET;
#X text 866 43 EQ;
#X obj 27 512 s \$0-rate-left-r;
#X obj 196 472 s \$0-rate-right-r;
#X obj 372 465 s \$0-feedback-r;
#X obj 544 472 s \$0-space-r;
#X obj 684 466 s \$0-dry/wet-r;
#X obj 840 471 s \$0-eq-r;
#X obj 69 194 r \$0-reflex-morph-s;
#X msg 69 216 127 \$1;
#X obj 69 238 -;
#X obj 39 258 knob 32 32 0 127 0 1 empty empty empty 0 -8 0 8 -262144
-1 -1 400 1;
#X obj 204 237 knob 32 32 0 127 0 1 empty empty empty 0 -8 0 8 -262144
-1 -1 423 1;
#X obj 378 237 knob 32 32 0 127 0 1 empty empty empty 0 -8 0 8 -262144
-1 -1 3100 1;
#X obj 554 261 knob 32 32 0 127 0 1 empty empty empty 0 -8 0 8 -262144
-1 -1 900 1;
#X obj 700 248 knob 32 32 0 127 0 1 empty empty empty 0 -8 0 8 -262144
-1 -1 3100 1;
#X obj 857 262 knob 32 32 0 127 0 1 empty empty empty 0 -8 0 8 -262144
-1 -1 3100 1;
#X connect 0 0 57 0;
#X connect 1 0 48 0;
#X connect 2 0 0 0;
#X connect 3 0 1 0;
#X connect 4 0 3 0;
#X connect 5 0 2 0;
#X connect 6 0 0 1;
#X connect 9 0 58 0;
#X connect 10 0 49 0;
#X connect 11 0 9 0;
#X connect 12 0 10 0;
#X connect 13 0 12 0;
#X connect 14 0 11 0;
#X connect 15 0 9 1;
#X connect 16 0 59 0;
#X connect 17 0 50 0;
#X connect 18 0 16 0;
#X connect 19 0 17 0;
#X connect 20 0 19 0;
#X connect 21 0 18 0;
#X connect 22 0 16 1;
#X connect 23 0 60 0;
#X connect 24 0 51 0;
#X connect 25 0 23 0;
#X connect 26 0 24 0;
#X connect 27 0 26 0;
#X connect 28 0 25 0;
#X connect 29 0 23 1;
#X connect 30 0 61 0;
#X connect 31 0 52 0;
#X connect 32 0 30 0;
#X connect 33 0 31 0;
#X connect 34 0 33 0;
#X connect 35 0 32 0;
#X connect 36 0 30 1;
#X connect 37 0 62 0;
#X connect 38 0 53 0;
#X connect 39 0 37 0;
#X connect 40 0 38 0;
#X connect 41 0 40 0;
#X connect 42 0 39 0;
#X connect 43 0 37 1;
#X connect 54 0 55 0;
#X connect 55 0 56 0;
#X connect 57 0 1 1;
#X connect 58 0 10 1;
#X connect 59 0 17 1;
#X connect 60 0 24 1;
#X connect 61 0 31 1;
#X connect 62 0 38 1;
#X restore 14 42 pd preset-1;
#N canvas 77 115 1190 560 preset-2 0;
#X obj 39 186 f;
#X obj 21 389 f;
#X obj 24 73 r \$0-reflex-load-s;
#X obj 39 116 r \$0-reflex-save-s;
#X obj 54 160 r \$0-rate-knob-left-s;
#X text 26 53 LEFT RATE;
#X text 195 48 RIGHT RATE;
#X obj 19 519 s \$0-rate-left-r;
#X obj 207 185 f;
#X obj 189 388 f;
#X obj 192 72 r \$0-reflex-load-s;
#X obj 207 115 r \$0-reflex-save-s;
#X obj 222 159 r \$0-rate-knob-right-s;
#X obj 189 415 s \$0-rate-right-r;
#X obj 383 178 f;
#X obj 365 381 f;
#X obj 368 65 r \$0-reflex-load-s;
#X obj 383 108 r \$0-reflex-save-s;
#X obj 365 408 s \$0-feedback-r;
#X obj 398 152 r \$0-feedback-knob-s;
#X obj 555 185 f;
#X obj 537 388 f;
#X obj 540 72 r \$0-reflex-load-s;
#X obj 555 115 r \$0-reflex-save-s;
#X obj 570 159 r \$0-space-s;
#X obj 537 415 s \$0-space-r;
#X obj 694 211 f;
#X obj 677 382 f;
#X obj 680 66 r \$0-reflex-load-s;
#X obj 695 109 r \$0-reflex-save-s;
#X obj 710 153 r \$0-dry/wet-knob-s;
#X obj 677 409 s \$0-dry/wet-r;
#X obj 851 184 f;
#X obj 833 387 f;
#X obj 836 71 r \$0-reflex-load-s;
#X obj 851 114 r \$0-reflex-save-s;
#X obj 866 158 r \$0-eq-s;
#X obj 833 414 s \$0-eq-r;
#X text 380 39 FEEDBACK;
#X text 555 46 SPACE;
#X text 703 44 DRY/WET;
#X text 866 43 EQ;
#X obj 24 95 sel 1;
#X obj 39 138 sel 1;
#X obj 192 94 sel 1;
#X obj 207 137 sel 1;
#X obj 368 87 sel 1;
#X obj 383 130 sel 1;
#X obj 540 94 sel 1;
#X obj 555 137 sel 1;
#X obj 680 88 sel 1;
#X obj 695 131 sel 1;
#X obj 836 93 sel 1;
#X obj 851 136 sel 1;
#X obj 59 278 knob 32 32 0 127 0 1 empty empty empty 0 -8 0 8 -262144
-1 -1 0 1;
#X obj 224 257 knob 32 32 0 127 0 1 empty empty empty 0 -8 0 8 -262144
-1 -1 0 1;
#X obj 398 257 knob 32 32 0 127 0 1 empty empty empty 0 -8 0 8 -262144
-1 -1 3100 1;
#X obj 574 281 knob 32 32 0 127 0 1 empty empty empty 0 -8 0 8 -262144
-1 -1 1200 1;
#X obj 720 268 knob 32 32 0 127 0 1 empty empty empty 0 -8 0 8 -262144
-1 -1 2968 1;
#X obj 877 282 knob 32 32 0 127 0 1 empty empty empty 0 -8 0 8 -262144
-1 -1 1000 1;
#X connect 0 0 54 0;
#X connect 1 0 7 0;
#X connect 2 0 42 0;
#X connect 3 0 43 0;
#X connect 4 0 0 1;
#X connect 8 0 55 0;
#X connect 9 0 13 0;
#X connect 10 0 44 0;
#X connect 11 0 45 0;
#X connect 12 0 8 1;
#X connect 14 0 56 0;
#X connect 15 0 18 0;
#X connect 16 0 46 0;
#X connect 17 0 47 0;
#X connect 19 0 14 1;
#X connect 20 0 57 0;
#X connect 21 0 25 0;
#X connect 22 0 48 0;
#X connect 23 0 49 0;
#X connect 24 0 20 1;
#X connect 26 0 58 0;
#X connect 27 0 31 0;
#X connect 28 0 50 0;
#X connect 29 0 51 0;
#X connect 30 0 26 1;
#X connect 32 0 59 0;
#X connect 33 0 37 0;
#X connect 34 0 52 0;
#X connect 35 0 53 0;
#X connect 36 0 32 1;
#X connect 42 0 1 0;
#X connect 43 0 0 0;
#X connect 44 0 9 0;
#X connect 45 0 8 0;
#X connect 46 0 15 0;
#X connect 47 0 14 0;
#X connect 48 0 21 0;
#X connect 49 0 20 0;
#X connect 50 0 27 0;
#X connect 51 0 26 0;
#X connect 52 0 33 0;
#X connect 53 0 32 0;
#X connect 54 0 1 1;
#X connect 55 0 9 1;
#X connect 56 0 15 1;
#X connect 57 0 21 1;
#X connect 58 0 27 1;
#X connect 59 0 33 1;
#X restore 14 73 pd preset-2;
#N canvas 77 115 1190 560 preset-3 0;
#X obj 39 186 f;
#X obj 24 446 f;
#X obj 24 73 r \$0-reflex-load-s;
#X obj 39 116 r \$0-reflex-save-s;
#X obj 54 160 r \$0-rate-knob-left-s;
#X text 26 53 LEFT RATE;
#X text 195 48 RIGHT RATE;
#X obj 24 473 s \$0-rate-left-r;
#X obj 207 185 f;
#X obj 192 445 f;
#X obj 192 72 r \$0-reflex-load-s;
#X obj 207 115 r \$0-reflex-save-s;
#X obj 222 159 r \$0-rate-knob-right-s;
#X obj 192 472 s \$0-rate-right-r;
#X obj 383 178 f;
#X obj 368 438 f;
#X obj 368 65 r \$0-reflex-load-s;
#X obj 383 108 r \$0-reflex-save-s;
#X obj 368 465 s \$0-feedback-r;
#X obj 398 152 r \$0-feedback-knob-s;
#X obj 555 185 f;
#X obj 540 445 f;
#X obj 540 72 r \$0-reflex-load-s;
#X obj 555 115 r \$0-reflex-save-s;
#X obj 570 159 r \$0-space-s;
#X obj 540 472 s \$0-space-r;
#X obj 695 179 f;
#X obj 680 439 f;
#X obj 680 66 r \$0-reflex-load-s;
#X obj 695 109 r \$0-reflex-save-s;
#X obj 710 153 r \$0-dry/wet-knob-s;
#X obj 680 466 s \$0-dry/wet-r;
#X obj 851 184 f;
#X obj 836 444 f;
#X obj 836 71 r \$0-reflex-load-s;
#X obj 851 114 r \$0-reflex-save-s;
#X obj 866 158 r \$0-eq-s;
#X obj 836 471 s \$0-eq-r;
#X text 380 39 FEEDBACK;
#X text 555 46 SPACE;
#X text 703 44 DRY/WET;
#X text 866 43 EQ;
#X obj 24 95 sel 2;
#X obj 39 138 sel 2;
#X obj 192 94 sel 2;
#X obj 207 137 sel 2;
#X obj 368 87 sel 2;
#X obj 383 130 sel 2;
#X obj 540 94 sel 2;
#X obj 555 137 sel 2;
#X obj 680 88 sel 2;
#X obj 695 131 sel 2;
#X obj 836 93 sel 2;
#X obj 851 136 sel 2;
#X obj 69 288 knob 32 32 0 127 0 1 empty empty empty 0 -8 0 8 -262144
-1 -1 1500 1;
#X obj 234 267 knob 32 32 0 127 0 1 empty empty empty 0 -8 0 8 -262144
-1 -1 1700 1;
#X obj 408 267 knob 32 32 0 127 0 1 empty empty empty 0 -8 0 8 -262144
-1 -1 3100 1;
#X obj 584 291 knob 32 32 0 127 0 1 empty empty empty 0 -8 0 8 -262144
-1 -1 3100 1;
#X obj 730 278 knob 32 32 0 127 0 1 empty empty empty 0 -8 0 8 -262144
-1 -1 2968 1;
#X obj 887 292 knob 32 32 0 127 0 1 empty empty empty 0 -8 0 8 -262144
-1 -1 3100 1;
#X connect 0 0 54 0;
#X connect 1 0 7 0;
#X connect 2 0 42 0;
#X connect 3 0 43 0;
#X connect 4 0 0 1;
#X connect 8 0 55 0;
#X connect 9 0 13 0;
#X connect 10 0 44 0;
#X connect 11 0 45 0;
#X connect 12 0 8 1;
#X connect 14 0 56 0;
#X connect 15 0 18 0;
#X connect 16 0 46 0;
#X connect 17 0 47 0;
#X connect 19 0 14 1;
#X connect 20 0 57 0;
#X connect 21 0 25 0;
#X connect 22 0 48 0;
#X connect 23 0 49 0;
#X connect 24 0 20 1;
#X connect 26 0 58 0;
#X connect 27 0 31 0;
#X connect 28 0 50 0;
#X connect 29 0 51 0;
#X connect 30 0 26 1;
#X connect 32 0 59 0;
#X connect 33 0 37 0;
#X connect 34 0 52 0;
#X connect 35 0 53 0;
#X connect 36 0 32 1;
#X connect 42 0 1 0;
#X connect 43 0 0 0;
#X connect 44 0 9 0;
#X connect 45 0 8 0;
#X connect 46 0 15 0;
#X connect 47 0 14 0;
#X connect 48 0 21 0;
#X connect 49 0 20 0;
#X connect 50 0 27 0;
#X connect 51 0 26 0;
#X connect 52 0 33 0;
#X connect 53 0 32 0;
#X connect 54 0 1 1;
#X connect 55 0 9 1;
#X connect 56 0 15 1;
#X connect 57 0 21 1;
#X connect 58 0 27 1;
#X connect 59 0 33 1;
#X restore 15 101 pd preset-3;
#N canvas 77 115 1190 560 preset-4 0;
#X obj 39 186 f;
#X obj 26 458 f;
#X obj 24 73 r \$0-reflex-load-s;
#X obj 39 116 r \$0-reflex-save-s;
#X obj 54 160 r \$0-rate-knob-left-s;
#X text 26 53 LEFT RATE;
#X text 195 48 RIGHT RATE;
#X obj 26 485 s \$0-rate-left-r;
#X obj 207 185 f;
#X obj 194 457 f;
#X obj 192 72 r \$0-reflex-load-s;
#X obj 207 115 r \$0-reflex-save-s;
#X obj 222 159 r \$0-rate-knob-right-s;
#X obj 194 484 s \$0-rate-right-r;
#X obj 383 178 f;
#X obj 370 450 f;
#X obj 368 65 r \$0-reflex-load-s;
#X obj 383 108 r \$0-reflex-save-s;
#X obj 370 477 s \$0-feedback-r;
#X obj 398 152 r \$0-feedback-knob-s;
#X obj 555 185 f;
#X obj 542 457 f;
#X obj 540 72 r \$0-reflex-load-s;
#X obj 555 115 r \$0-reflex-save-s;
#X obj 570 159 r \$0-space-s;
#X obj 542 484 s \$0-space-r;
#X obj 695 179 f;
#X obj 682 451 f;
#X obj 680 66 r \$0-reflex-load-s;
#X obj 695 109 r \$0-reflex-save-s;
#X obj 710 153 r \$0-dry/wet-knob-s;
#X obj 682 478 s \$0-dry/wet-r;
#X obj 851 184 f;
#X obj 838 456 f;
#X obj 836 71 r \$0-reflex-load-s;
#X obj 851 114 r \$0-reflex-save-s;
#X obj 866 158 r \$0-eq-s;
#X obj 838 483 s \$0-eq-r;
#X text 380 39 FEEDBACK;
#X text 555 46 SPACE;
#X text 703 44 DRY/WET;
#X text 866 43 EQ;
#X obj 24 95 sel 3;
#X obj 39 138 sel 3;
#X obj 192 94 sel 3;
#X obj 207 137 sel 3;
#X obj 368 87 sel 3;
#X obj 383 130 sel 3;
#X obj 540 94 sel 3;
#X obj 555 137 sel 3;
#X obj 680 88 sel 3;
#X obj 695 131 sel 3;
#X obj 836 93 sel 3;
#X obj 851 136 sel 3;
#X obj 79 298 knob 32 32 0 127 0 1 empty empty empty 0 -8 0 8 -262144
-1 -1 1500 1;
#X obj 244 277 knob 32 32 0 127 0 1 empty empty empty 0 -8 0 8 -262144
-1 -1 1700 1;
#X obj 418 277 knob 32 32 0 127 0 1 empty empty empty 0 -8 0 8 -262144
-1 -1 3100 1;
#X obj 594 301 knob 32 32 0 127 0 1 empty empty empty 0 -8 0 8 -262144
-1 -1 3100 1;
#X obj 740 288 knob 32 32 0 127 0 1 empty empty empty 0 -8 0 8 -262144
-1 -1 2968 1;
#X obj 897 302 knob 32 32 0 127 0 1 empty empty empty 0 -8 0 8 -262144
-1 -1 0 1;
#X connect 0 0 54 0;
#X connect 1 0 7 0;
#X connect 2 0 42 0;
#X connect 3 0 43 0;
#X connect 4 0 0 1;
#X connect 8 0 55 0;
#X connect 9 0 13 0;
#X connect 10 0 44 0;
#X connect 11 0 45 0;
#X connect 12 0 8 1;
#X connect 14 0 56 0;
#X connect 15 0 18 0;
#X connect 16 0 46 0;
#X connect 17 0 47 0;
#X connect 19 0 14 1;
#X connect 20 0 57 0;
#X connect 21 0 25 0;
#X connect 22 0 48 0;
#X connect 23 0 49 0;
#X connect 24 0 20 1;
#X connect 26 0 58 0;
#X connect 27 0 31 0;
#X connect 28 0 50 0;
#X connect 29 0 51 0;
#X connect 30 0 26 1;
#X connect 32 0 59 0;
#X connect 33 0 37 0;
#X connect 34 0 52 0;
#X connect 35 0 53 0;
#X connect 36 0 32 1;
#X connect 42 0 1 0;
#X connect 43 0 0 0;
#X connect 44 0 9 0;
#X connect 45 0 8 0;
#X connect 46 0 15 0;
#X connect 47 0 14 0;
#X connect 48 0 21 0;
#X connect 49 0 20 0;
#X connect 50 0 27 0;
#X connect 51 0 26 0;
#X connect 52 0 33 0;
#X connect 53 0 32 0;
#X connect 54 0 1 1;
#X connect 55 0 9 1;
#X connect 56 0 15 1;
#X connect 57 0 21 1;
#X connect 58 0 27 1;
#X connect 59 0 33 1;
#X restore 16 128 pd preset-4;
#N canvas 77 115 1190 560 preset-5 0;
#X obj 39 186 f;
#X obj 21 468 f;
#X obj 24 73 r \$0-reflex-load-s;
#X obj 39 116 r \$0-reflex-save-s;
#X obj 54 160 r \$0-rate-knob-left-s;
#X text 26 53 LEFT RATE;
#X text 195 48 RIGHT RATE;
#X obj 21 495 s \$0-rate-left-r;
#X obj 207 185 f;
#X obj 189 467 f;
#X obj 192 72 r \$0-reflex-load-s;
#X obj 207 115 r \$0-reflex-save-s;
#X obj 222 159 r \$0-rate-knob-right-s;
#X obj 189 494 s \$0-rate-right-r;
#X obj 383 178 f;
#X obj 365 460 f;
#X obj 368 65 r \$0-reflex-load-s;
#X obj 383 108 r \$0-reflex-save-s;
#X obj 365 487 s \$0-feedback-r;
#X obj 398 152 r \$0-feedback-knob-s;
#X obj 555 185 f;
#X obj 537 467 f;
#X obj 540 72 r \$0-reflex-load-s;
#X obj 555 115 r \$0-reflex-save-s;
#X obj 570 159 r \$0-space-s;
#X obj 537 494 s \$0-space-r;
#X obj 695 179 f;
#X obj 677 461 f;
#X obj 680 66 r \$0-reflex-load-s;
#X obj 695 109 r \$0-reflex-save-s;
#X obj 710 153 r \$0-dry/wet-knob-s;
#X obj 677 488 s \$0-dry/wet-r;
#X obj 851 184 f;
#X obj 833 466 f;
#X obj 836 71 r \$0-reflex-load-s;
#X obj 851 114 r \$0-reflex-save-s;
#X obj 866 158 r \$0-eq-s;
#X obj 833 493 s \$0-eq-r;
#X text 380 39 FEEDBACK;
#X text 555 46 SPACE;
#X text 703 44 DRY/WET;
#X text 866 43 EQ;
#X obj 24 95 sel 4;
#X obj 39 138 sel 4;
#X obj 192 94 sel 4;
#X obj 207 137 sel 4;
#X obj 368 87 sel 4;
#X obj 383 130 sel 4;
#X obj 540 94 sel 4;
#X obj 555 137 sel 4;
#X obj 680 88 sel 4;
#X obj 695 131 sel 4;
#X obj 836 93 sel 4;
#X obj 851 136 sel 4;
#X obj 89 308 knob 32 32 0 127 0 1 empty empty empty 0 -8 0 8 -262144
-1 -1 0 1;
#X obj 254 287 knob 32 32 0 127 0 1 empty empty empty 0 -8 0 8 -262144
-1 -1 0 1;
#X obj 428 287 knob 32 32 0 127 0 1 empty empty empty 0 -8 0 8 -262144
-1 -1 3100 1;
#X obj 604 311 knob 32 32 0 127 0 1 empty empty empty 0 -8 0 8 -262144
-1 -1 1900 1;
#X obj 750 298 knob 32 32 0 127 0 1 empty empty empty 0 -8 0 8 -262144
-1 -1 2968 1;
#X obj 907 312 knob 32 32 0 127 0 1 empty empty empty 0 -8 0 8 -262144
-1 -1 2100 1;
#X connect 0 0 54 0;
#X connect 1 0 7 0;
#X connect 2 0 42 0;
#X connect 3 0 43 0;
#X connect 4 0 0 1;
#X connect 8 0 55 0;
#X connect 9 0 13 0;
#X connect 10 0 44 0;
#X connect 11 0 45 0;
#X connect 12 0 8 1;
#X connect 14 0 56 0;
#X connect 15 0 18 0;
#X connect 16 0 46 0;
#X connect 17 0 47 0;
#X connect 19 0 14 1;
#X connect 20 0 57 0;
#X connect 21 0 25 0;
#X connect 22 0 48 0;
#X connect 23 0 49 0;
#X connect 24 0 20 1;
#X connect 26 0 58 0;
#X connect 27 0 31 0;
#X connect 28 0 50 0;
#X connect 29 0 51 0;
#X connect 30 0 26 1;
#X connect 32 0 59 0;
#X connect 33 0 37 0;
#X connect 34 0 52 0;
#X connect 35 0 53 0;
#X connect 36 0 32 1;
#X connect 42 0 1 0;
#X connect 43 0 0 0;
#X connect 44 0 9 0;
#X connect 45 0 8 0;
#X connect 46 0 15 0;
#X connect 47 0 14 0;
#X connect 48 0 21 0;
#X connect 49 0 20 0;
#X connect 50 0 27 0;
#X connect 51 0 26 0;
#X connect 52 0 33 0;
#X connect 53 0 32 0;
#X connect 54 0 1 1;
#X connect 55 0 9 1;
#X connect 56 0 15 1;
#X connect 57 0 21 1;
#X connect 58 0 27 1;
#X connect 59 0 33 1;
#X restore 15 156 pd preset-5;
#X obj 105 44 r \$0-reflex-pscan-s;
#X obj 105 66 / 127;
#X obj 105 88 * 4;
#X obj 105 110 i;
#X floatatom 105 132 5 0 0 0 - - -;
#X obj 105 198 s \$0-reflex-load-r;
#X obj 105 164 t f f;
#X obj 242 225 s \$0-reflex-load-gui-r;
#X obj 242 189 + 1;
#X connect 5 0 6 0;
#X connect 6 0 7 0;
#X connect 7 0 8 0;
#X connect 8 0 9 0;
#X connect 9 0 11 0;
#X connect 11 0 10 0;
#X connect 11 1 13 0;
#X connect 13 0 12 0;
#X restore 6 326 pd preset-fuction;
#X obj 107 105 cnv 5 10 10 empty empty IN-L 0 5 1 7 -228856 -66577
0;
#X obj 401 369 + 10;
#X obj 478 196 loadbang;
#N canvas 420 84 828 654 delay/reverb-LEFT 0;
#N canvas 518 58 640 578 delay-left-1 0;
#X obj 345 326 / 127;
#X obj 345 382 pack 0 50;
#X obj 209 263 pack 0 50;
#X obj 209 239 + 10;
#X obj 209 286 line~;
#X obj 209 313 lop~ 5;
#X obj 209 196 / 127;
#X obj 209 218 * 90;
#X obj 47 216 inlet~;
#X text 42 192 AUDIO IN;
#X obj 172 466 outlet~;
#X obj 209 19 inlet;
#X obj 345 126 inlet;
#X text 395 124 FEEDBACK;
#X text 249 18 RATE-LEFT;
#X obj 209 389 hip~ 100;
#X obj 345 358 * 0.97;
#X obj 47 244 delwrite~ \$0-delay1 100;
#X obj 209 365 vd~ \$0-delay1 100;
#X obj 209 421 *~ 0.97;
#X obj 345 404 line;
#X connect 0 0 16 0;
#X connect 1 0 20 0;
#X connect 2 0 4 0;
#X connect 3 0 2 0;
#X connect 4 0 5 0;
#X connect 5 0 18 0;
#X connect 6 0 7 0;
#X connect 7 0 3 0;
#X connect 8 0 17 0;
#X connect 11 0 6 0;
#X connect 12 0 0 0;
#X connect 15 0 19 0;
#X connect 16 0 1 0;
#X connect 18 0 15 0;
#X connect 19 0 10 0;
#X connect 19 0 17 0;
#X connect 20 0 19 1;
#X restore 21 101 pd delay-left-1;
#N canvas 250 128 640 578 delay-left-2 0;
#X obj 345 326 / 127;
#X obj 345 382 pack 0 50;
#X obj 209 263 pack 0 50;
#X obj 209 239 + 10;
#X obj 209 286 line~;
#X obj 209 313 lop~ 5;
#X obj 209 196 / 127;
#X obj 47 216 inlet~;
#X text 42 192 AUDIO IN;
#X obj 205 478 outlet~;
#X obj 209 19 inlet;
#X obj 345 126 inlet;
#X text 395 124 FEEDBACK;
#X text 249 18 RATE-LEFT;
#X obj 209 389 hip~ 100;
#X obj 345 358 * 0.97;
#X obj 209 218 * 246;
#X obj 47 243 delwrite~ \$0-delay2 256;
#X obj 209 365 vd~ \$0-delay2 256;
#X obj 209 421 *~ 0.97;
#X obj 345 404 line;
#X connect 0 0 15 0;
#X connect 1 0 20 0;
#X connect 2 0 4 0;
#X connect 3 0 2 0;
#X connect 4 0 5 0;
#X connect 5 0 18 0;
#X connect 6 0 16 0;
#X connect 7 0 17 0;
#X connect 10 0 6 0;
#X connect 11 0 0 0;
#X connect 14 0 19 0;
#X connect 15 0 1 0;
#X connect 16 0 3 0;
#X connect 18 0 14 0;
#X connect 19 0 9 0;
#X connect 19 0 17 0;
#X connect 20 0 19 1;
#X restore 126 181 pd delay-left-2;
#N canvas 250 128 640 578 delay-left-3 0;
#X obj 345 326 / 127;
#X obj 345 382 pack 0 50;
#X obj 209 263 pack 0 50;
#X obj 209 239 + 10;
#X obj 209 286 line~;
#X obj 209 313 lop~ 5;
#X obj 209 196 / 127;
#X obj 47 216 inlet~;
#X text 42 192 AUDIO IN;
#X obj 198 462 outlet~;
#X obj 209 19 inlet;
#X obj 345 126 inlet;
#X text 395 124 FEEDBACK;
#X text 249 18 RATE-LEFT;
#X obj 209 389 hip~ 100;
#X obj 345 358 * 0.97;
#X obj 209 218 * 502;
#X obj 47 243 delwrite~ \$0-delay3 512;
#X obj 209 365 vd~ \$0-delay3 512;
#X obj 209 421 *~ 0.97;
#X obj 345 404 line;
#X connect 0 0 15 0;
#X connect 1 0 20 0;
#X connect 2 0 4 0;
#X connect 3 0 2 0;
#X connect 4 0 5 0;
#X connect 5 0 18 0;
#X connect 6 0 16 0;
#X connect 7 0 17 0;
#X connect 10 0 6 0;
#X connect 11 0 0 0;
#X connect 14 0 19 0;
#X connect 15 0 1 0;
#X connect 16 0 3 0;
#X connect 18 0 14 0;
#X connect 19 0 9 0;
#X connect 19 0 17 0;
#X connect 20 0 19 1;
#X restore 213 279 pd delay-left-3;
#X obj 21 177 *~;
#X obj 36 151 line~;
#X obj 126 256 *~;
#X obj 141 230 line~;
#X obj 213 357 *~;
#X obj 228 331 line~;
#X obj 310 456 *~;
#X obj 325 430 line~;
#N canvas 250 128 640 578 delay-left-4 0;
#X obj 345 326 / 127;
#X obj 345 382 pack 0 50;
#X obj 209 263 pack 0 50;
#X obj 209 239 + 10;
#X obj 209 286 line~;
#X obj 209 313 lop~ 5;
#X obj 209 196 / 127;
#X obj 47 216 inlet~;
#X text 42 192 AUDIO IN;
#X obj 179 456 outlet~;
#X obj 209 19 inlet;
#X obj 345 126 inlet;
#X text 395 124 FEEDBACK;
#X text 249 18 RATE-LEFT;
#X obj 209 389 hip~ 100;
#X obj 345 358 * 0.97;
#X obj 209 218 * 1014;
#X obj 47 243 delwrite~ \$0-delay4 1024;
#X obj 209 365 vd~ \$0-delay4 1024;
#X obj 209 421 *~ 0.97;
#X obj 345 404 line;
#X connect 0 0 15 0;
#X connect 1 0 20 0;
#X connect 2 0 4 0;
#X connect 3 0 2 0;
#X connect 4 0 5 0;
#X connect 5 0 18 0;
#X connect 6 0 16 0;
#X connect 7 0 17 0;
#X connect 10 0 6 0;
#X connect 11 0 0 0;
#X connect 14 0 19 0;
#X connect 15 0 1 0;
#X connect 16 0 3 0;
#X connect 18 0 14 0;
#X connect 19 0 9 0;
#X connect 19 0 17 0;
#X connect 20 0 19 1;
#X restore 310 378 pd delay-left-4;
#X obj 421 540 *~;
#X obj 436 514 line~;
#N canvas 250 128 640 578 delay-left-5 0;
#X obj 345 326 / 127;
#X obj 345 382 pack 0 50;
#X obj 209 263 pack 0 50;
#X obj 209 239 + 10;
#X obj 209 286 line~;
#X obj 209 313 lop~ 5;
#X obj 209 196 / 127;
#X obj 47 216 inlet~;
#X text 42 192 AUDIO IN;
#X obj 211 455 outlet~;
#X obj 209 19 inlet;
#X obj 345 126 inlet;
#X text 395 124 FEEDBACK;
#X text 249 18 RATE-LEFT;
#X obj 209 389 hip~ 100;
#X obj 345 358 * 0.97;
#X obj 209 218 * 2038;
#X obj 47 243 delwrite~ \$0-delay5 2048;
#X obj 209 365 vd~ \$0-delay5 2048;
#X obj 209 421 *~ 0.97;
#X obj 345 404 line;
#X connect 0 0 15 0;
#X connect 1 0 20 0;
#X connect 2 0 4 0;
#X connect 3 0 2 0;
#X connect 4 0 5 0;
#X connect 5 0 18 0;
#X connect 6 0 16 0;
#X connect 7 0 17 0;
#X connect 10 0 6 0;
#X connect 11 0 0 0;
#X connect 14 0 19 0;
#X connect 15 0 1 0;
#X connect 16 0 3 0;
#X connect 18 0 14 0;
#X connect 19 0 9 0;
#X connect 19 0 17 0;
#X connect 20 0 19 1;
#X restore 421 462 pd delay-left-5;
#X obj 21 26 r~ \$0-reflex-LEFT-in;
#X obj 126 101 r~ \$0-reflex-LEFT-in;
#X obj 213 203 r~ \$0-reflex-LEFT-in;
#X obj 310 302 r~ \$0-reflex-LEFT-in;
#X obj 421 386 r~ \$0-reflex-LEFT-in;
#X obj 64 46 r \$0-reflex-rate-left-s;
#X obj 108 68 r \$0-reflex-feedback-s;
#X obj 169 126 r \$0-reflex-rate-left-s;
#X obj 213 148 r \$0-reflex-feedback-s;
#X obj 256 224 r \$0-reflex-rate-left-s;
#X obj 300 246 r \$0-reflex-feedback-s;
#X obj 353 323 r \$0-reflex-rate-left-s;
#X obj 397 345 r \$0-reflex-feedback-s;
#X obj 464 407 r \$0-reflex-rate-left-s;
#X obj 508 429 r \$0-reflex-feedback-s;
#X obj 343 25 r \$0-reflex-space-knob-s;
#X obj 343 47 unpack f f f f f;
#X obj 343 74 pack f 50;
#X obj 366 100 pack f 50;
#X obj 390 124 pack f 50;
#X obj 413 150 pack f 50;
#X obj 435 174 pack f 50;
#X obj 26 611 s~ \$0-LEFT-DLY;
#X connect 0 0 3 0;
#X connect 1 0 5 0;
#X connect 2 0 7 0;
#X connect 3 0 37 0;
#X connect 4 0 3 1;
#X connect 5 0 37 0;
#X connect 6 0 5 1;
#X connect 7 0 37 0;
#X connect 8 0 7 1;
#X connect 9 0 37 0;
#X connect 10 0 9 1;
#X connect 11 0 9 0;
#X connect 12 0 37 0;
#X connect 13 0 12 1;
#X connect 14 0 12 0;
#X connect 15 0 0 0;
#X connect 16 0 1 0;
#X connect 17 0 2 0;
#X connect 18 0 11 0;
#X connect 19 0 14 0;
#X connect 20 0 0 1;
#X connect 21 0 0 2;
#X connect 22 0 1 1;
#X connect 23 0 1 2;
#X connect 24 0 2 1;
#X connect 25 0 2 2;
#X connect 26 0 11 1;
#X connect 27 0 11 2;
#X connect 28 0 14 1;
#X connect 29 0 14 2;
#X connect 30 0 31 0;
#X connect 31 0 32 0;
#X connect 31 1 33 0;
#X connect 31 2 34 0;
#X connect 31 3 35 0;
#X connect 31 4 36 0;
#X connect 32 0 4 0;
#X connect 33 0 6 0;
#X connect 34 0 8 0;
#X connect 35 0 10 0;
#X connect 36 0 13 0;
#X restore 310 572 pd delay/reverb-LEFT;
#X obj 7 77 s~ \$0-reflex-LEFT-in;
#X obj 148 79 s~ \$0-reflex-RIGHT-in;
#X obj 497 266 s \$0-reflex-rate-right-s;
#X obj 401 505 s \$0-reflex-feedback-s;
#X obj 196 506 s \$0-reflex-rate-left-s;
#X obj 622 425 s \$0-reflex-dry/wet-s;
#X obj 138 412 loadbang;
#X text 246 42 LEFT-RATE;
#X text 439 51 FEEDBACK CV;
#X text 544 52 RIGHT-RATE;
#X text 665 51 DRY/WET CV;
#X obj 552 346 loadbang;
#N canvas 327 63 828 654 delay/reverb-RIGHT 0;
#X obj 21 177 *~;
#X obj 36 151 line~;
#X obj 126 256 *~;
#X obj 141 230 line~;
#X obj 213 357 *~;
#X obj 228 331 line~;
#X obj 310 456 *~;
#X obj 325 430 line~;
#X obj 421 540 *~;
#X obj 436 514 line~;
#X obj 108 68 r \$0-reflex-feedback-s;
#X obj 213 148 r \$0-reflex-feedback-s;
#X obj 300 246 r \$0-reflex-feedback-s;
#X obj 397 345 r \$0-reflex-feedback-s;
#X obj 508 429 r \$0-reflex-feedback-s;
#X obj 343 25 r \$0-reflex-space-knob-s;
#X obj 343 47 unpack f f f f f;
#X obj 343 74 pack f 50;
#X obj 366 100 pack f 50;
#X obj 390 124 pack f 50;
#X obj 413 150 pack f 50;
#X obj 435 174 pack f 50;
#X obj 26 611 s~ \$0-RIGHT-DLY;
#X obj 21 26 r~ \$0-reflex-RIGHT-in;
#X obj 64 46 r \$0-reflex-rate-right-s;
#N canvas 250 128 640 578 delay-right-1 0;
#X obj 345 326 / 127;
#X obj 345 382 pack 0 50;
#X obj 209 263 pack 0 50;
#X obj 209 239 + 10;
#X obj 209 286 line~;
#X obj 209 313 lop~ 5;
#X obj 209 196 / 127;
#X obj 209 218 * 90;
#X obj 47 216 inlet~;
#X text 42 192 AUDIO IN;
#X obj 172 466 outlet~;
#X obj 209 19 inlet;
#X obj 345 126 inlet;
#X text 395 124 FEEDBACK;
#X text 249 18 RATE-LEFT;
#X obj 209 389 hip~ 100;
#X obj 345 358 * 0.97;
#X obj 47 244 delwrite~ \$0-delay6 100;
#X obj 209 365 vd~ \$0-delay6 100;
#X obj 209 421 *~ 0.97;
#X obj 345 404 line;
#X connect 0 0 16 0;
#X connect 1 0 20 0;
#X connect 2 0 4 0;
#X connect 3 0 2 0;
#X connect 4 0 5 0;
#X connect 5 0 18 0;
#X connect 6 0 7 0;
#X connect 7 0 3 0;
#X connect 8 0 17 0;
#X connect 11 0 6 0;
#X connect 12 0 0 0;
#X connect 15 0 19 0;
#X connect 16 0 1 0;
#X connect 18 0 15 0;
#X connect 19 0 10 0;
#X connect 19 0 17 0;
#X connect 20 0 19 1;
#X restore 21 101 pd delay-right-1;
#N canvas 250 128 640 578 delay-right-2 0;
#X obj 345 326 / 127;
#X obj 345 382 pack 0 50;
#X obj 209 263 pack 0 50;
#X obj 209 239 + 10;
#X obj 209 286 line~;
#X obj 209 313 lop~ 5;
#X obj 209 196 / 127;
#X obj 47 216 inlet~;
#X text 42 192 AUDIO IN;
#X obj 205 478 outlet~;
#X obj 209 19 inlet;
#X obj 345 126 inlet;
#X text 395 124 FEEDBACK;
#X text 249 18 RATE-LEFT;
#X obj 209 389 hip~ 100;
#X obj 345 358 * 0.97;
#X obj 209 218 * 246;
#X obj 47 243 delwrite~ \$0-delay7 256;
#X obj 209 365 vd~ \$0-delay7 256;
#X obj 209 421 *~ 0.97;
#X obj 345 404 line;
#X connect 0 0 15 0;
#X connect 1 0 20 0;
#X connect 2 0 4 0;
#X connect 3 0 2 0;
#X connect 4 0 5 0;
#X connect 5 0 18 0;
#X connect 6 0 16 0;
#X connect 7 0 17 0;
#X connect 10 0 6 0;
#X connect 11 0 0 0;
#X connect 14 0 19 0;
#X connect 15 0 1 0;
#X connect 16 0 3 0;
#X connect 18 0 14 0;
#X connect 19 0 9 0;
#X connect 19 0 17 0;
#X connect 20 0 19 1;
#X restore 126 181 pd delay-right-2;
#N canvas 250 128 640 578 delay-right-3 0;
#X obj 345 326 / 127;
#X obj 345 382 pack 0 50;
#X obj 209 263 pack 0 50;
#X obj 209 239 + 10;
#X obj 209 286 line~;
#X obj 209 313 lop~ 5;
#X obj 209 196 / 127;
#X obj 47 216 inlet~;
#X text 42 192 AUDIO IN;
#X obj 198 462 outlet~;
#X obj 209 19 inlet;
#X obj 345 126 inlet;
#X text 395 124 FEEDBACK;
#X text 249 18 RATE-LEFT;
#X obj 209 389 hip~ 100;
#X obj 345 358 * 0.97;
#X obj 209 218 * 502;
#X obj 47 243 delwrite~ \$0-delay8 512;
#X obj 209 365 vd~ \$0-delay8 512;
#X obj 209 421 *~ 0.97;
#X obj 345 404 line;
#X connect 0 0 15 0;
#X connect 1 0 20 0;
#X connect 2 0 4 0;
#X connect 3 0 2 0;
#X connect 4 0 5 0;
#X connect 5 0 18 0;
#X connect 6 0 16 0;
#X connect 7 0 17 0;
#X connect 10 0 6 0;
#X connect 11 0 0 0;
#X connect 14 0 19 0;
#X connect 15 0 1 0;
#X connect 16 0 3 0;
#X connect 18 0 14 0;
#X connect 19 0 9 0;
#X connect 19 0 17 0;
#X connect 20 0 19 1;
#X restore 213 279 pd delay-right-3;
#N canvas 250 128 640 578 delay-right-4 0;
#X obj 345 326 / 127;
#X obj 345 382 pack 0 50;
#X obj 209 263 pack 0 50;
#X obj 209 239 + 10;
#X obj 209 286 line~;
#X obj 209 313 lop~ 5;
#X obj 209 196 / 127;
#X obj 47 216 inlet~;
#X text 42 192 AUDIO IN;
#X obj 179 456 outlet~;
#X obj 209 19 inlet;
#X obj 345 126 inlet;
#X text 395 124 FEEDBACK;
#X text 249 18 RATE-LEFT;
#X obj 209 389 hip~ 100;
#X obj 345 358 * 0.97;
#X obj 209 218 * 1014;
#X obj 46 243 delwrite~ \$0-delay9 1024;
#X obj 209 365 vd~ \$0-delay9 1024;
#X obj 209 421 *~ 0.97;
#X obj 346 404 line;
#X connect 0 0 15 0;
#X connect 1 0 20 0;
#X connect 2 0 4 0;
#X connect 3 0 2 0;
#X connect 4 0 5 0;
#X connect 5 0 18 0;
#X connect 6 0 16 0;
#X connect 7 0 17 0;
#X connect 10 0 6 0;
#X connect 11 0 0 0;
#X connect 14 0 19 0;
#X connect 15 0 1 0;
#X connect 16 0 3 0;
#X connect 18 0 14 0;
#X connect 19 0 9 0;
#X connect 19 0 17 0;
#X connect 20 0 19 1;
#X restore 310 378 pd delay-right-4;
#N canvas 250 128 640 578 delay-right-5 0;
#X obj 345 326 / 127;
#X obj 345 382 pack 0 50;
#X obj 209 263 pack 0 50;
#X obj 209 239 + 10;
#X obj 209 286 line~;
#X obj 209 313 lop~ 5;
#X obj 209 196 / 127;
#X obj 47 216 inlet~;
#X text 42 192 AUDIO IN;
#X obj 211 455 outlet~;
#X obj 209 19 inlet;
#X obj 345 126 inlet;
#X text 395 124 FEEDBACK;
#X text 249 18 RATE-LEFT;
#X obj 209 389 hip~ 100;
#X obj 345 358 * 0.97;
#X obj 209 218 * 2038;
#X obj 47 243 delwrite~ \$0-delay10 2048;
#X obj 209 363 vd~ \$0-delay10 2048;
#X obj 209 421 *~ 0.97;
#X obj 345 404 line;
#X connect 0 0 15 0;
#X connect 1 0 20 0;
#X connect 2 0 4 0;
#X connect 3 0 2 0;
#X connect 4 0 5 0;
#X connect 5 0 18 0;
#X connect 6 0 16 0;
#X connect 7 0 17 0;
#X connect 10 0 6 0;
#X connect 11 0 0 0;
#X connect 14 0 19 0;
#X connect 15 0 1 0;
#X connect 16 0 3 0;
#X connect 18 0 14 0;
#X connect 19 0 9 0;
#X connect 19 0 17 0;
#X connect 20 0 19 1;
#X restore 421 462 pd delay-right-5;
#X obj 126 101 r~ \$0-reflex-RIGHT-in;
#X obj 213 203 r~ \$0-reflex-RIGHT-in;
#X obj 169 126 r \$0-reflex-rate-right-s;
#X obj 256 224 r \$0-reflex-rate-right-s;
#X obj 310 302 r~ \$0-reflex-RIGHT-in;
#X obj 353 323 r \$0-reflex-rate-right-s;
#X obj 421 386 r~ \$0-reflex-RIGHT-in;
#X obj 464 407 r \$0-reflex-rate-right-s;
#X connect 0 0 22 0;
#X connect 1 0 0 1;
#X connect 2 0 22 0;
#X connect 3 0 2 1;
#X connect 4 0 22 0;
#X connect 5 0 4 1;
#X connect 6 0 22 0;
#X connect 7 0 6 1;
#X connect 8 0 22 0;
#X connect 9 0 8 1;
#X connect 10 0 25 2;
#X connect 11 0 26 2;
#X connect 12 0 27 2;
#X connect 13 0 28 2;
#X connect 14 0 29 2;
#X connect 15 0 16 0;
#X connect 16 0 17 0;
#X connect 16 1 18 0;
#X connect 16 2 19 0;
#X connect 16 3 20 0;
#X connect 16 4 21 0;
#X connect 17 0 1 0;
#X connect 18 0 3 0;
#X connect 19 0 5 0;
#X connect 20 0 7 0;
#X connect 21 0 9 0;
#X connect 23 0 25 0;
#X connect 24 0 25 1;
#X connect 25 0 0 0;
#X connect 26 0 2 0;
#X connect 27 0 4 0;
#X connect 28 0 6 0;
#X connect 29 0 8 0;
#X connect 30 0 26 0;
#X connect 31 0 27 0;
#X connect 32 0 26 1;
#X connect 33 0 27 1;
#X connect 34 0 28 0;
#X connect 35 0 28 1;
#X connect 36 0 29 0;
#X connect 37 0 29 1;
#X restore 439 572 pd delay/reverb-RIGHT;
#X obj 813 389 +;
#X obj 863 57 inlet~;
#X obj 863 328 *~ 127;
#X obj 863 350 snapshot~;
#X obj 863 372 t b f;
#X obj 743 332 loadbang;
#X text 856 37 LOWPASS CV;
#X obj 813 282 r \$0-eq-s;
#X obj 813 411 s \$0-reflex-lowpass-s;
#X obj 125 105 cnv 5 10 10 empty empty IN-R 0 5 1 7 -228856 -66577
0;
#X obj 144 105 cnv 5 10 10 empty empty R-LEFT 0 5 1 7 -228856 -66577
0;
#X obj 198 105 cnv 5 10 10 empty empty R-RIGHT 0 5 1 7 -228856 -66577
0;
#X obj 261 105 cnv 5 10 10 empty empty LP 0 5 1 7 -228856 -66577 0
;
#X obj 283 105 cnv 5 10 10 empty empty P-S 0 5 1 7 -228856 -66577 0
;
#X obj 172 105 cnv 5 10 10 empty empty FBACK 0 5 1 7 -228856 -66577
0;
#X obj 301 105 cnv 5 10 10 empty empty P-S 0 5 1 7 -228856 -258113
0;
#X obj 260 118 tgl 15 1 empty empty P-MOD 17 7 1 10 -262144 -1 -1 1
1;
#X floatatom 250 273 5 0 0 0 - #0-reflex-load-gui-r -;
#X obj 781 481 inlet~;
#X obj 900 467 inlet~;
#X text 900 448 P-STEP;
#X text 740 482 P-SCAN;
#X obj 781 572 *~;
#X obj 826 505 pack f 50;
#X obj 826 527 line~;
#X obj 826 477 t f f;
#N canvas 549 95 626 630 p-scan_modulation 0;
#X obj -22 410 / 127;
#X obj -22 432 * 4;
#X obj -22 476 i;
#X obj 112 282 snapshot~;
#X obj 111 342 t b f;
#X obj -22 359 +;
#X obj 71 211 bang~;
#X obj 71 241 spigot;
#X obj 262 111 env~;
#X msg 316 225 0;
#X obj 316 166 sel 0;
#X obj 262 133 t f f;
#X obj -22 382 moses 127;
#X obj 112 176 *~ 127;
#X obj 112 43 inlet~;
#X obj 262 217 sel 0;
#X obj -22 454 + 0.5;
#X obj -22 499 t f f;
#X obj 181 545 + 1;
#X obj 142 517 moses 0;
#X obj 316 197 t b;
#X obj 289 267 t f;
#X obj 396 203 inlet~;
#X obj 396 225 threshold~ 1 0 1 0;
#X obj 396 247 t b b;
#X obj 396 287 f;
#X obj 426 288 + 1;
#X obj 396 317 % 5;
#X obj 396 369 t f f;
#X obj 425 397 + 1;
#X obj -22 148 r \$0-reflex-pscan-s;
#X obj -22 593 s \$0-reflex-load-r;
#X obj 181 568 s \$0-reflex-load-gui-r;
#X obj 398 475 s \$0-reflex-load-r;
#X obj 426 419 s \$0-reflex-load-gui-r;
#X connect 0 0 1 0;
#X connect 1 0 16 0;
#X connect 2 0 17 0;
#X connect 3 0 4 0;
#X connect 4 0 5 0;
#X connect 4 1 5 1;
#X connect 5 0 12 0;
#X connect 6 0 7 0;
#X connect 7 0 3 0;
#X connect 8 0 11 0;
#X connect 9 0 7 1;
#X connect 10 0 20 0;
#X connect 11 0 15 0;
#X connect 11 1 10 0;
#X connect 12 0 0 0;
#X connect 13 0 3 0;
#X connect 14 0 13 0;
#X connect 14 0 8 0;
#X connect 15 1 21 0;
#X connect 16 0 2 0;
#X connect 17 0 31 0;
#X connect 17 1 19 0;
#X connect 18 0 32 0;
#X connect 19 1 18 0;
#X connect 20 0 9 0;
#X connect 21 0 7 1;
#X connect 22 0 23 0;
#X connect 23 0 24 0;
#X connect 24 0 25 0;
#X connect 25 0 26 0;
#X connect 25 0 27 0;
#X connect 26 0 25 1;
#X connect 27 0 28 0;
#X connect 28 0 33 0;
#X connect 28 1 29 0;
#X connect 29 0 34 0;
#X connect 30 0 5 0;
#X restore 781 606 pd p-scan_modulation;
#X obj 898 583 *~;
#X obj 920 534 pack f 50;
#X obj 920 556 line~;
#X obj 164 161 knob 32 32 0 127 0 1 \$0-feedback-knob-s \$0-feedback-r
FBACK 0 -8 1 8 -262144 -1 -1 3100 1;
#X obj 230 105 cnv 5 10 10 empty empty DRY/W 0 5 1 7 -228856 -66577
0;
#X floatatom 543 500 5 0 0 0 - - -;
#X obj 108 285 cnv 5 10 10 empty empty OUT-L 0 5 1 7 -228856 -66577
0;
#X obj 293 285 cnv 5 10 10 empty empty OUT-R 0 5 1 7 -228856 -66577
0;
#X obj 292 382 bang~;
#X obj 352 379 bang~;
#X obj 607 347 bang~;
#X obj 798 333 bang~;
#X obj 621 188 bang~;
#X connect 10 0 56 0;
#X connect 12 0 57 0;
#X connect 19 0 20 0;
#X connect 19 1 21 0;
#X connect 22 0 23 0;
#X connect 23 0 60 0;
#X connect 24 0 25 0;
#X connect 25 0 26 0;
#X connect 26 0 27 0;
#X connect 27 0 23 0;
#X connect 27 1 23 1;
#X connect 28 0 58 0;
#X connect 29 0 30 0;
#X connect 30 0 31 0;
#X connect 31 0 32 0;
#X connect 32 0 28 0;
#X connect 32 1 28 1;
#X connect 33 0 28 0;
#X connect 34 0 46 0;
#X connect 35 0 36 0;
#X connect 36 0 37 0;
#X connect 37 0 38 0;
#X connect 38 0 34 0;
#X connect 38 1 34 1;
#X connect 39 0 53 0;
#X connect 40 0 61 0;
#X connect 41 0 42 0;
#X connect 42 0 43 0;
#X connect 43 0 44 0;
#X connect 44 0 40 0;
#X connect 44 1 40 1;
#X connect 45 0 40 0;
#X connect 46 0 59 0;
#X connect 46 0 101 0;
#X connect 53 0 34 0;
#X connect 54 0 28 0;
#X connect 62 0 23 0;
#X connect 67 0 40 0;
#X connect 69 0 77 0;
#X connect 70 0 71 0;
#X connect 71 0 72 0;
#X connect 72 0 73 0;
#X connect 73 0 69 0;
#X connect 73 1 69 1;
#X connect 74 0 69 0;
#X connect 76 0 69 0;
#X connect 85 0 94 0;
#X connect 87 0 91 0;
#X connect 88 0 96 0;
#X connect 91 0 95 0;
#X connect 92 0 93 0;
#X connect 93 0 91 1;
#X connect 94 0 92 0;
#X connect 94 1 97 0;
#X connect 96 0 95 1;
#X connect 97 0 98 0;
#X connect 98 0 96 1;
#X connect 104 0 26 0;
#X connect 105 0 37 0;
#X connect 106 0 43 0;
#X connect 107 0 72 0;
#X connect 108 0 31 0;
#X coords 0 -1 1 1 220 200 2 100 100;
