#N canvas 0 22 450 300 10;
#X obj 106 105 cnv 15 90 190 empty empty empty 20 12 1 14 -233017 -66577
0;
#X obj 110 151 vsl 15 64 0 127 0 1 \$0-sinebank-1-s \$0-sinebank-1-r
1 0 -9 1 10 -262144 -1 -1 4300 1;
#X obj 125 151 vsl 15 64 0 127 0 1 \$0-sinebank-2-s \$0-sinebank-2-r
2 0 -9 1 10 -204800 -1 -1 2400 1;
#X obj 140 151 vsl 15 64 0 127 0 1 \$0-sinebank-3-s \$0-sinebank-3-r
3 0 -9 1 10 -204786 -1 -1 2197 1;
#X obj 155 151 vsl 15 64 0 127 0 1 \$0-sinebank-4-s \$0-sinebank-4-r
4 0 -9 1 10 -261234 -1 -1 4500 1;
#X obj 133 247 knob 32 32 0 127 0 1 \$0-sinebank-timbre-s \$0-sinebank-timbre-r
TIMBRE 0 -8 1 8 -262144 -1 -1 24 1;
#X obj 286 703 outlet~;
#N canvas 396 231 650 469 sine1 0;
#X obj 313 31 t f f;
#N canvas 592 252 450 300 sine 0;
#X obj 81 16 inlet;
#X obj 81 180 mtof~;
#X obj 81 202 osc~;
#X obj 81 224 outlet~;
#X obj 81 87 line~;
#X obj 81 144 +~;
#X obj 136 111 r~ \$0-sinebank-cv1;
#X obj 81 44 pack f 10;
#X connect 0 0 7 0;
#X connect 1 0 2 0;
#X connect 2 0 3 0;
#X connect 4 0 5 0;
#X connect 5 0 1 0;
#X connect 6 0 5 1;
#X connect 7 0 4 0;
#X restore 313 92 pd sine;
#X obj 314 324 *~;
#X obj 314 347 cos~;
#X obj 427 155 r \$0-sinebank-fold-s;
#X obj 427 220 / 127;
#X obj 427 285 pack f 50;
#X obj 427 307 line~;
#X obj 145 57 r \$0-sinebank-fold-s;
#X msg 145 106 127 \$1;
#X obj 145 130 -;
#X obj 145 151 / 127;
#X obj 131 376 *~;
#X obj 145 216 pack f 50;
#X obj 145 238 line~;
#X obj 314 442 outlet~;
#X obj 145 81 t f f;
#X obj 313 6 inlet;
#X obj 314 374 *~;
#X obj 145 173 pow 4;
#X obj 427 177 t f f;
#X obj 494 285 pack f 50;
#X obj 494 307 line~;
#X obj 494 220 / 64;
#X connect 0 0 1 0;
#X connect 1 0 2 0;
#X connect 1 0 12 0;
#X connect 2 0 3 0;
#X connect 3 0 18 0;
#X connect 4 0 20 0;
#X connect 5 0 6 0;
#X connect 6 0 7 0;
#X connect 7 0 18 1;
#X connect 8 0 16 0;
#X connect 9 0 10 0;
#X connect 10 0 11 0;
#X connect 11 0 19 0;
#X connect 12 0 15 0;
#X connect 13 0 14 0;
#X connect 14 0 12 1;
#X connect 16 0 9 0;
#X connect 17 0 0 0;
#X connect 18 0 15 0;
#X connect 19 0 13 0;
#X connect 20 0 5 0;
#X connect 20 1 23 0;
#X connect 21 0 22 0;
#X connect 22 0 2 1;
#X connect 23 0 21 0;
#X restore 229 524 pd sine1;
#X obj 227 129 r \$0-sinebank-1-s;
#X obj 285 279 r \$0-sinebank-2-s;
#X obj 358 329 r \$0-sinebank-3-s;
#X obj 418 402 r \$0-sinebank-4-s;
#X obj 114 128 cnv 5 5 5 empty empty SINEBANK 0 0 1 14 -233017 -66577
0;
#X obj 271 59 inlet~;
#X obj 271 81 *~ 127;
#X obj 24 682 outlet~;
#X obj 80 682 outlet~;
#X obj 135 682 outlet~;
#X obj 191 682 outlet~;
#X obj 271 103 s~ \$0-sinebank-cv1;
#X obj 403 55 inlet~;
#X obj 403 77 *~ 127;
#X obj 403 99 s~ \$0-sinebank-cv2;
#X obj 521 54 inlet~;
#X obj 521 76 *~ 127;
#X obj 521 98 s~ \$0-sinebank-cv3;
#X obj 641 53 inlet~;
#X obj 641 75 *~ 127;
#X obj 641 97 s~ \$0-sinebank-cv4;
#X obj 110 218 tgl 15 1 \$0-sinebank-lfo1-s \$0-sinebank-lfo1-r empty
17 7 1 10 -262144 -1 -1 0 1;
#X obj 125 218 tgl 15 1 \$0-sinebank-lfo2-s \$0-sinebank-lfo2-r empty
17 7 1 10 -262144 -1 -1 0 1;
#X obj 140 218 tgl 15 1 \$0-sinebank-lfo3-s \$0-sinebank-lfo3-r empty
17 7 1 10 -262144 -1 -1 0 1;
#X obj 155 218 tgl 15 1 \$0-sinebank-lfo4-s \$0-sinebank-lfo4-r LFO
17 7 1 10 -262144 -1 -1 1 1;
#X obj 343 130 r \$0-sinebank-lfo1-s;
#X obj 227 285 -;
#X obj 343 162 sel 0 1;
#X obj 240 250 t b f;
#X obj 291 455 -;
#X obj 407 243 sel 0 1;
#X obj 304 331 t b f;
#X obj 407 211 r \$0-sinebank-lfo2-s;
#X obj 481 314 sel 0 1;
#X obj 378 402 t b f;
#X obj 352 488 -;
#X obj 481 282 r \$0-sinebank-lfo3-s;
#X obj 418 491 -;
#X obj 548 372 sel 0 1;
#X obj 445 460 t b f;
#X obj 548 340 r \$0-sinebank-lfo4-s;
#X msg 343 216 0;
#X msg 362 185 96;
#X msg 407 297 0;
#X msg 426 266 96;
#X msg 482 366 0;
#X msg 500 337 96;
#X msg 548 426 0;
#X msg 567 395 96;
#N canvas 396 231 650 469 sine2 0;
#X obj 313 31 t f f;
#N canvas 592 252 450 300 sine 0;
#X obj 81 16 inlet;
#X obj 81 180 mtof~;
#X obj 81 202 osc~;
#X obj 81 224 outlet~;
#X obj 81 87 line~;
#X obj 81 144 +~;
#X obj 81 44 pack f 10;
#X obj 136 111 r~ \$0-sinebank-cv2;
#X connect 0 0 6 0;
#X connect 1 0 2 0;
#X connect 2 0 3 0;
#X connect 4 0 5 0;
#X connect 5 0 1 0;
#X connect 6 0 4 0;
#X connect 7 0 5 1;
#X restore 313 92 pd sine;
#X obj 314 324 *~;
#X obj 314 347 cos~;
#X obj 427 155 r \$0-sinebank-fold-s;
#X obj 427 220 / 127;
#X obj 427 285 pack f 50;
#X obj 427 307 line~;
#X obj 145 57 r \$0-sinebank-fold-s;
#X msg 145 106 127 \$1;
#X obj 145 130 -;
#X obj 145 151 / 127;
#X obj 131 376 *~;
#X obj 145 216 pack f 50;
#X obj 145 238 line~;
#X obj 314 442 outlet~;
#X obj 145 81 t f f;
#X obj 313 6 inlet;
#X obj 314 374 *~;
#X obj 145 173 pow 4;
#X obj 427 177 t f f;
#X obj 494 285 pack f 50;
#X obj 494 307 line~;
#X obj 494 220 / 64;
#X connect 0 0 1 0;
#X connect 1 0 2 0;
#X connect 1 0 12 0;
#X connect 2 0 3 0;
#X connect 3 0 18 0;
#X connect 4 0 20 0;
#X connect 5 0 6 0;
#X connect 6 0 7 0;
#X connect 7 0 18 1;
#X connect 8 0 16 0;
#X connect 9 0 10 0;
#X connect 10 0 11 0;
#X connect 11 0 19 0;
#X connect 12 0 15 0;
#X connect 13 0 14 0;
#X connect 14 0 12 1;
#X connect 16 0 9 0;
#X connect 17 0 0 0;
#X connect 18 0 15 0;
#X connect 19 0 13 0;
#X connect 20 0 5 0;
#X connect 20 1 23 0;
#X connect 21 0 22 0;
#X connect 22 0 2 1;
#X connect 23 0 21 0;
#X restore 291 523 pd sine2;
#N canvas 396 231 650 469 sine3 0;
#X obj 313 31 t f f;
#N canvas 592 252 450 300 sine 0;
#X obj 81 16 inlet;
#X obj 81 180 mtof~;
#X obj 81 202 osc~;
#X obj 81 224 outlet~;
#X obj 81 87 line~;
#X obj 81 144 +~;
#X obj 81 44 pack f 10;
#X obj 136 111 r~ \$0-sinebank-cv3;
#X connect 0 0 6 0;
#X connect 1 0 2 0;
#X connect 2 0 3 0;
#X connect 4 0 5 0;
#X connect 5 0 1 0;
#X connect 6 0 4 0;
#X connect 7 0 5 1;
#X restore 313 92 pd sine;
#X obj 314 324 *~;
#X obj 314 347 cos~;
#X obj 427 155 r \$0-sinebank-fold-s;
#X obj 427 220 / 127;
#X obj 427 285 pack f 50;
#X obj 427 307 line~;
#X obj 145 57 r \$0-sinebank-fold-s;
#X msg 145 106 127 \$1;
#X obj 145 130 -;
#X obj 145 151 / 127;
#X obj 131 376 *~;
#X obj 145 216 pack f 50;
#X obj 145 238 line~;
#X obj 314 442 outlet~;
#X obj 145 81 t f f;
#X obj 313 6 inlet;
#X obj 314 374 *~;
#X obj 145 173 pow 4;
#X obj 427 177 t f f;
#X obj 494 285 pack f 50;
#X obj 494 307 line~;
#X obj 494 220 / 64;
#X connect 0 0 1 0;
#X connect 1 0 2 0;
#X connect 1 0 12 0;
#X connect 2 0 3 0;
#X connect 3 0 18 0;
#X connect 4 0 20 0;
#X connect 5 0 6 0;
#X connect 6 0 7 0;
#X connect 7 0 18 1;
#X connect 8 0 16 0;
#X connect 9 0 10 0;
#X connect 10 0 11 0;
#X connect 11 0 19 0;
#X connect 12 0 15 0;
#X connect 13 0 14 0;
#X connect 14 0 12 1;
#X connect 16 0 9 0;
#X connect 17 0 0 0;
#X connect 18 0 15 0;
#X connect 19 0 13 0;
#X connect 20 0 5 0;
#X connect 20 1 23 0;
#X connect 21 0 22 0;
#X connect 22 0 2 1;
#X connect 23 0 21 0;
#X restore 352 522 pd sine3;
#N canvas 396 231 650 469 sine3 0;
#X obj 313 31 t f f;
#N canvas 592 252 450 300 sine 0;
#X obj 81 16 inlet;
#X obj 81 180 mtof~;
#X obj 81 202 osc~;
#X obj 81 224 outlet~;
#X obj 81 87 line~;
#X obj 81 144 +~;
#X obj 81 44 pack f 10;
#X obj 136 111 r~ \$0-sinebank-cv4;
#X connect 0 0 6 0;
#X connect 1 0 2 0;
#X connect 2 0 3 0;
#X connect 4 0 5 0;
#X connect 5 0 1 0;
#X connect 6 0 4 0;
#X connect 7 0 5 1;
#X restore 313 92 pd sine;
#X obj 314 324 *~;
#X obj 314 347 cos~;
#X obj 427 155 r \$0-sinebank-fold-s;
#X obj 427 220 / 127;
#X obj 427 285 pack f 50;
#X obj 427 307 line~;
#X obj 145 57 r \$0-sinebank-fold-s;
#X msg 145 106 127 \$1;
#X obj 145 130 -;
#X obj 145 151 / 127;
#X obj 131 376 *~;
#X obj 145 216 pack f 50;
#X obj 145 238 line~;
#X obj 314 442 outlet~;
#X obj 145 81 t f f;
#X obj 313 6 inlet;
#X obj 314 374 *~;
#X obj 145 173 pow 4;
#X obj 427 177 t f f;
#X obj 494 285 pack f 50;
#X obj 494 307 line~;
#X obj 494 220 / 64;
#X connect 0 0 1 0;
#X connect 1 0 2 0;
#X connect 1 0 12 0;
#X connect 2 0 3 0;
#X connect 3 0 18 0;
#X connect 4 0 20 0;
#X connect 5 0 6 0;
#X connect 6 0 7 0;
#X connect 7 0 18 1;
#X connect 8 0 16 0;
#X connect 9 0 10 0;
#X connect 10 0 11 0;
#X connect 11 0 19 0;
#X connect 12 0 15 0;
#X connect 13 0 14 0;
#X connect 14 0 12 1;
#X connect 16 0 9 0;
#X connect 17 0 0 0;
#X connect 18 0 15 0;
#X connect 19 0 13 0;
#X connect 20 0 5 0;
#X connect 20 1 23 0;
#X connect 21 0 22 0;
#X connect 22 0 2 1;
#X connect 23 0 21 0;
#X restore 418 521 pd sine3;
#X obj 286 644 *~ 0.25;
#X obj 109 105 cnv 5 10 10 empty empty CV1 0 5 1 7 -228856 -66577 0
;
#X obj 124 105 cnv 5 10 10 empty empty CV2 0 5 1 7 -228856 -66577 0
;
#X obj 145 105 cnv 5 10 10 empty empty CV3 0 5 1 7 -228856 -66577 0
;
#X obj 168 105 cnv 5 10 10 empty empty CV4 0 5 1 7 -228856 -66577 0
;
#X obj 108 286 cnv 5 10 10 empty empty S1 0 5 1 7 -228856 -66577 0
;
#X obj 125 286 cnv 5 10 10 empty empty S2 0 5 1 7 -228856 -66577 0
;
#X obj 147 286 cnv 5 10 10 empty empty S3 0 5 1 7 -228856 -66577 0
;
#X obj 169 286 cnv 5 10 10 empty empty S4 0 5 1 7 -228856 -66577 0
;
#X obj 182 286 cnv 5 10 10 empty empty SUM 0 5 1 7 -228856 -66577 0
;
#X obj 779 57 inlet~;
#X obj 779 79 *~ 127;
#X obj 779 101 snapshot~;
#X obj 779 123 t b f;
#X obj 642 145 r \$0-sinebank-timbre-s;
#X obj 642 176 +;
#X obj 642 198 s \$0-sinebank-fold-s;
#X obj 186 105 cnv 5 10 10 empty empty T 0 5 1 7 -228856 -66577 0;
#X obj 827 77 bang~;
#X connect 7 0 15 0;
#X connect 7 0 60 0;
#X connect 8 0 34 0;
#X connect 9 0 37 0;
#X connect 10 0 43 0;
#X connect 11 0 45 0;
#X connect 13 0 14 0;
#X connect 14 0 19 0;
#X connect 20 0 21 0;
#X connect 21 0 22 0;
#X connect 23 0 24 0;
#X connect 24 0 25 0;
#X connect 26 0 27 0;
#X connect 27 0 28 0;
#X connect 33 0 35 0;
#X connect 34 0 7 0;
#X connect 35 0 49 0;
#X connect 35 1 50 0;
#X connect 36 0 34 0;
#X connect 36 1 34 1;
#X connect 37 0 57 0;
#X connect 38 0 51 0;
#X connect 38 1 52 0;
#X connect 39 0 37 0;
#X connect 39 1 37 1;
#X connect 40 0 38 0;
#X connect 41 0 53 0;
#X connect 41 1 54 0;
#X connect 42 0 43 0;
#X connect 42 1 43 1;
#X connect 43 0 58 0;
#X connect 44 0 41 0;
#X connect 45 0 59 0;
#X connect 46 0 55 0;
#X connect 46 1 56 0;
#X connect 47 0 45 0;
#X connect 47 1 45 1;
#X connect 48 0 46 0;
#X connect 49 0 36 0;
#X connect 50 0 36 0;
#X connect 51 0 39 0;
#X connect 52 0 39 0;
#X connect 53 0 42 0;
#X connect 54 0 42 0;
#X connect 55 0 47 0;
#X connect 56 0 47 0;
#X connect 57 0 60 0;
#X connect 57 0 16 0;
#X connect 58 0 60 0;
#X connect 58 0 17 0;
#X connect 59 0 60 0;
#X connect 59 0 18 0;
#X connect 60 0 6 0;
#X connect 70 0 71 0;
#X connect 71 0 72 0;
#X connect 72 0 73 0;
#X connect 73 0 75 0;
#X connect 73 1 75 1;
#X connect 74 0 75 0;
#X connect 75 0 76 0;
#X connect 78 0 72 0;
#X coords 0 -1 1 1 100 200 2 100 100;
