#N canvas 0 22 1171 647 10;
#X obj 105 105 cnv 15 340 190 empty empty SPECTRAL-BANK 20 30 1 14
-233017 -66577 0;
#X obj 176 212 vsl 15 64 0 127 0 1 \$0-b2-s \$0-b2-r empty 0 -9 0 10
-262144 -1 -1 3700 1;
#N canvas 181 78 1280 678 fixed-filter-bank 0;
#X obj 615 24 inlet~;
#X obj 8 386 *~;
#X obj 23 232 / 127;
#X obj 83 386 *~;
#X obj 99 232 / 127;
#X obj 162 388 *~;
#X obj 178 234 / 127;
#X obj 237 388 *~;
#X obj 253 234 / 127;
#X obj 311 388 *~;
#X obj 327 234 / 127;
#X obj 386 388 *~;
#X obj 402 234 / 127;
#X obj 465 390 *~;
#X obj 481 236 / 127;
#X obj 596 389 *~;
#X obj 612 235 / 127;
#X obj 8 150 bp~ 100 20;
#X obj 83 150 bp~ 150 20;
#X obj 162 152 bp~ 250 20;
#X obj 237 152 bp~ 350 20;
#X obj 311 152 bp~ 500 20;
#X obj 386 152 bp~ 630 20;
#X obj 468 157 bp~ 800 20;
#X obj 596 153 bp~ 1000 20;
#X obj 23 210 r \$0-b1-s;
#X obj 99 210 r \$0-b2-s;
#X obj 178 212 r \$0-b3-s;
#X obj 253 212 r \$0-b4-s;
#X obj 327 212 r \$0-b5-s;
#X obj 402 212 r \$0-b6-s;
#X obj 481 214 r \$0-b7-s;
#X obj 612 213 r \$0-b8-s;
#X obj 672 390 *~;
#X obj 688 236 / 127;
#X obj 747 390 *~;
#X obj 763 236 / 127;
#X obj 826 392 *~;
#X obj 842 238 / 127;
#X obj 901 392 *~;
#X obj 917 238 / 127;
#X obj 975 392 *~;
#X obj 991 238 / 127;
#X obj 1050 392 *~;
#X obj 1066 238 / 127;
#X obj 1129 394 *~;
#X obj 1145 240 / 127;
#X obj 1204 394 *~;
#X obj 1220 240 / 127;
#X obj 672 154 bp~ 1300 20;
#X obj 688 214 r \$0-b9-s;
#X obj 747 154 bp~ 1600 20;
#X obj 763 214 r \$0-b10-s;
#X obj 826 156 bp~ 2000 20;
#X obj 842 216 r \$0-b11-s;
#X obj 917 216 r \$0-b12-s;
#X obj 991 216 r \$0-b13-s;
#X obj 1066 216 r \$0-b14-s;
#X obj 1145 218 r \$0-b15-s;
#X obj 901 156 bp~ 2600 20;
#X obj 975 156 bp~ 3500 20;
#X obj 1050 156 bp~ 5000 20;
#X obj 1131 154 bp~ 8000 20;
#X obj 1206 156 bp~ 10000 20;
#X obj 1220 218 r \$0-b16-s;
#X text 950 9 GLOBAL Q;
#X obj 23 315 +;
#X obj 23 340 pack 0 10;
#X obj 23 362 line~;
#X obj 39 256 r \$0-cv-1-4;
#X obj 111 314 +;
#X obj 111 339 pack 0 10;
#X obj 111 361 line~;
#X obj 126 257 r \$0-cv-1-4;
#X obj 198 309 +;
#X obj 198 334 pack 0 10;
#X obj 198 356 line~;
#X obj 213 253 r \$0-cv-1-4;
#X obj 283 307 +;
#X obj 283 332 pack 0 10;
#X obj 283 354 line~;
#X obj 298 251 r \$0-cv-1-4;
#X obj 364 305 +;
#X obj 364 330 pack 0 10;
#X obj 364 352 line~;
#X obj 379 252 r \$0-cv-5-8;
#X obj 433 308 +;
#X obj 433 333 pack 0 10;
#X obj 433 355 line~;
#X obj 448 250 r \$0-cv-5-8;
#X obj 511 308 +;
#X obj 511 333 pack 0 10;
#X obj 511 355 line~;
#X obj 526 232 r \$0-cv-5-8;
#X obj 608 309 +;
#X obj 608 334 pack 0 10;
#X obj 608 356 line~;
#X obj 624 251 r \$0-cv-5-8;
#X obj 701 302 +;
#X obj 701 327 pack 0 10;
#X obj 701 349 line~;
#X obj 716 253 r \$0-cv-9-12;
#X obj 784 312 +;
#X obj 784 337 pack 0 10;
#X obj 784 359 line~;
#X obj 799 256 r \$0-cv-9-12;
#X obj 875 306 +;
#X obj 875 331 pack 0 10;
#X obj 875 353 line~;
#X obj 892 255 r \$0-cv-9-12;
#X obj 964 306 +;
#X obj 964 331 pack 0 10;
#X obj 964 358 line~;
#X obj 1068 302 +;
#X obj 1068 327 pack 0 10;
#X obj 1068 354 line~;
#X obj 1083 259 r \$0-cv-13-16;
#X obj 1152 307 +;
#X obj 1152 332 pack 0 10;
#X obj 1152 359 line~;
#X obj 1167 255 r \$0-cv-13-16;
#X obj 985 259 r \$0-cv-13-16;
#X obj 1231 313 +;
#X obj 1231 338 pack 0 10;
#X obj 1231 365 line~;
#X obj 1246 255 r \$0-cv-13-16;
#X obj 41 283 t b f;
#X obj 127 288 t b f;
#X obj 211 284 t b f;
#X obj 299 275 t b f;
#X obj 379 274 t b f;
#X obj 448 272 t b f;
#X obj 526 254 t b f;
#X obj 624 273 t b f;
#X obj 716 275 t b f;
#X obj 799 278 t b f;
#X obj 892 277 t b f;
#X obj 985 281 t b f;
#X obj 1083 281 t b f;
#X obj 1167 277 t b f;
#X obj 1246 277 t b f;
#X obj 15 180 bp~ 100 20;
#X obj 90 180 bp~ 150 20;
#X obj 169 182 bp~ 250 20;
#X obj 244 182 bp~ 350 20;
#X obj 318 182 bp~ 500 20;
#X obj 393 182 bp~ 630 20;
#X obj 475 187 bp~ 800 20;
#X obj 603 183 bp~ 1000 20;
#X obj 679 184 bp~ 1300 20;
#X obj 754 184 bp~ 1600 20;
#X obj 833 186 bp~ 2000 20;
#X obj 908 186 bp~ 2600 20;
#X obj 982 186 bp~ 3500 20;
#X obj 1057 186 bp~ 5000 20;
#X obj 1136 188 bp~ 8000 20;
#X obj 1211 188 bp~ 10000 20;
#X msg 895 118 \$1;
#X obj 907 6 inlet;
#X obj 895 51 pack 0 100;
#X obj 895 72 line~;
#X obj 895 94 snapshot~;
#X obj 934 72 bang~;
#X obj 907 27 + 5;
#X obj 310 464 outlet~;
#X obj 667 449 outlet~;
#X obj 958 468 outlet~;
#X obj 28 490 outlet~;
#X connect 0 0 17 0;
#X connect 0 0 18 0;
#X connect 0 0 19 0;
#X connect 0 0 20 0;
#X connect 0 0 21 0;
#X connect 0 0 22 0;
#X connect 0 0 23 0;
#X connect 0 0 24 0;
#X connect 0 0 49 0;
#X connect 0 0 51 0;
#X connect 0 0 53 0;
#X connect 0 0 59 0;
#X connect 0 0 60 0;
#X connect 0 0 61 0;
#X connect 0 0 62 0;
#X connect 0 0 63 0;
#X connect 1 0 167 0;
#X connect 2 0 66 0;
#X connect 3 0 167 0;
#X connect 4 0 70 0;
#X connect 5 0 167 0;
#X connect 6 0 74 0;
#X connect 7 0 167 0;
#X connect 8 0 78 0;
#X connect 9 0 164 0;
#X connect 10 0 82 0;
#X connect 11 0 164 0;
#X connect 12 0 86 0;
#X connect 13 0 164 0;
#X connect 14 0 90 0;
#X connect 15 0 164 0;
#X connect 16 0 94 0;
#X connect 17 0 141 0;
#X connect 18 0 142 0;
#X connect 19 0 143 0;
#X connect 20 0 144 0;
#X connect 21 0 145 0;
#X connect 22 0 146 0;
#X connect 23 0 147 0;
#X connect 24 0 148 0;
#X connect 25 0 2 0;
#X connect 26 0 4 0;
#X connect 27 0 6 0;
#X connect 28 0 8 0;
#X connect 29 0 10 0;
#X connect 30 0 12 0;
#X connect 31 0 14 0;
#X connect 32 0 16 0;
#X connect 33 0 165 0;
#X connect 34 0 98 0;
#X connect 35 0 165 0;
#X connect 36 0 102 0;
#X connect 37 0 165 0;
#X connect 38 0 106 0;
#X connect 39 0 165 0;
#X connect 40 0 110 0;
#X connect 41 0 166 0;
#X connect 42 0 41 1;
#X connect 43 0 166 0;
#X connect 44 0 113 0;
#X connect 45 0 166 0;
#X connect 46 0 117 0;
#X connect 47 0 166 0;
#X connect 48 0 122 0;
#X connect 49 0 149 0;
#X connect 50 0 34 0;
#X connect 51 0 150 0;
#X connect 52 0 36 0;
#X connect 53 0 151 0;
#X connect 54 0 38 0;
#X connect 55 0 40 0;
#X connect 56 0 42 0;
#X connect 57 0 44 0;
#X connect 58 0 46 0;
#X connect 59 0 152 0;
#X connect 60 0 153 0;
#X connect 61 0 154 0;
#X connect 62 0 155 0;
#X connect 63 0 156 0;
#X connect 64 0 48 0;
#X connect 66 0 67 0;
#X connect 67 0 68 0;
#X connect 68 0 1 1;
#X connect 69 0 126 0;
#X connect 70 0 71 0;
#X connect 71 0 72 0;
#X connect 72 0 3 1;
#X connect 73 0 127 0;
#X connect 74 0 75 0;
#X connect 75 0 76 0;
#X connect 76 0 5 1;
#X connect 77 0 128 0;
#X connect 78 0 79 0;
#X connect 79 0 80 0;
#X connect 80 0 7 1;
#X connect 81 0 129 0;
#X connect 82 0 83 0;
#X connect 83 0 84 0;
#X connect 84 0 9 1;
#X connect 85 0 130 0;
#X connect 86 0 87 0;
#X connect 87 0 88 0;
#X connect 88 0 11 1;
#X connect 89 0 131 0;
#X connect 90 0 91 0;
#X connect 91 0 92 0;
#X connect 92 0 13 1;
#X connect 93 0 132 0;
#X connect 94 0 95 0;
#X connect 95 0 96 0;
#X connect 96 0 15 1;
#X connect 97 0 133 0;
#X connect 98 0 99 0;
#X connect 99 0 100 0;
#X connect 100 0 33 1;
#X connect 101 0 134 0;
#X connect 102 0 103 0;
#X connect 103 0 104 0;
#X connect 104 0 35 1;
#X connect 105 0 135 0;
#X connect 106 0 107 0;
#X connect 107 0 108 0;
#X connect 108 0 37 1;
#X connect 109 0 136 0;
#X connect 110 0 111 0;
#X connect 111 0 112 0;
#X connect 112 0 39 1;
#X connect 113 0 114 0;
#X connect 114 0 115 0;
#X connect 115 0 43 1;
#X connect 116 0 138 0;
#X connect 117 0 118 0;
#X connect 118 0 119 0;
#X connect 119 0 45 1;
#X connect 120 0 139 0;
#X connect 121 0 137 0;
#X connect 122 0 123 0;
#X connect 123 0 124 0;
#X connect 124 0 47 1;
#X connect 125 0 140 0;
#X connect 126 0 66 0;
#X connect 126 1 66 1;
#X connect 127 0 70 0;
#X connect 127 1 70 1;
#X connect 128 0 74 0;
#X connect 128 1 74 1;
#X connect 129 0 78 0;
#X connect 129 1 78 1;
#X connect 130 0 82 0;
#X connect 130 1 82 1;
#X connect 131 0 86 0;
#X connect 131 1 86 1;
#X connect 132 0 90 0;
#X connect 132 1 90 1;
#X connect 133 0 94 0;
#X connect 133 1 94 1;
#X connect 134 0 98 0;
#X connect 134 1 98 1;
#X connect 135 0 102 0;
#X connect 135 1 102 1;
#X connect 136 0 106 0;
#X connect 136 1 106 1;
#X connect 137 0 110 0;
#X connect 137 1 110 1;
#X connect 138 0 113 0;
#X connect 138 1 113 1;
#X connect 139 0 117 0;
#X connect 139 1 117 1;
#X connect 140 0 122 0;
#X connect 140 1 122 1;
#X connect 141 0 1 0;
#X connect 142 0 3 0;
#X connect 143 0 5 0;
#X connect 144 0 7 0;
#X connect 145 0 9 0;
#X connect 146 0 11 0;
#X connect 147 0 13 0;
#X connect 148 0 15 0;
#X connect 149 0 33 0;
#X connect 150 0 35 0;
#X connect 151 0 37 0;
#X connect 152 0 39 0;
#X connect 153 0 41 0;
#X connect 154 0 43 0;
#X connect 155 0 45 0;
#X connect 156 0 47 0;
#X connect 157 0 63 2;
#X connect 157 0 62 2;
#X connect 157 0 61 2;
#X connect 157 0 60 2;
#X connect 157 0 59 2;
#X connect 157 0 53 2;
#X connect 157 0 51 2;
#X connect 157 0 49 2;
#X connect 157 0 24 2;
#X connect 157 0 23 2;
#X connect 157 0 22 2;
#X connect 157 0 21 2;
#X connect 157 0 20 2;
#X connect 157 0 19 2;
#X connect 157 0 18 2;
#X connect 157 0 17 2;
#X connect 158 0 163 0;
#X connect 159 0 160 0;
#X connect 160 0 161 0;
#X connect 161 0 157 0;
#X connect 162 0 161 0;
#X connect 163 0 159 0;
#X restore 110 423 pd fixed-filter-bank;
#X obj 161 212 vsl 15 64 0 127 0 1 \$0-b1-s \$0-b1-r empty 0 -9 0 10
-262144 -1 -1 4200 1;
#X obj 206 212 vsl 15 64 0 127 0 1 \$0-b4-s \$0-b4-r empty 0 -9 0 10
-262144 -1 -1 6300 1;
#X obj 191 212 vsl 15 64 0 127 0 1 \$0-b3-s \$0-b3-r empty 0 -9 0 10
-262144 -1 -1 3000 1;
#X obj 241 212 vsl 15 64 0 127 0 1 \$0-b6-s \$0-b6-r empty 0 -9 0 10
-204800 -1 -1 1700 1;
#X obj 226 212 vsl 15 64 0 127 0 1 \$0-b5-s \$0-b5-r empty 0 -9 0 10
-204800 -1 -1 600 1;
#X obj 271 212 vsl 15 64 0 127 0 1 \$0-b8-s \$0-b8-r empty 0 -9 0 10
-204800 -1 -1 0 1;
#X obj 256 212 vsl 15 64 0 127 0 1 \$0-b7-s \$0-b7-r empty 0 -9 0 10
-204800 -1 -1 600 1;
#X obj 306 212 vsl 15 64 0 127 0 1 \$0-b10-s \$0-b10-r empty 0 -9 0
10 -204786 -1 -1 100 1;
#X obj 291 212 vsl 15 64 0 127 0 1 \$0-b9-s \$0-b9-r empty 0 -9 0 10
-204786 -1 -1 6300 1;
#X obj 336 212 vsl 15 64 0 127 0 1 \$0-b12-s \$0-b12-r empty 0 -9 0
10 -204786 -1 -1 0 1;
#X obj 321 212 vsl 15 64 0 127 0 1 \$0-b11-s \$0-b11-r empty 0 -9 0
10 -204786 -1 -1 6300 1;
#X obj 371 212 vsl 15 64 0 127 0 1 \$0-b14-s \$0-b14-r empty 0 -9 0
10 -261234 -1 -1 0 1;
#X obj 356 212 vsl 15 64 0 127 0 1 \$0-b13-s \$0-b13-r empty 0 -9 0
10 -261234 -1 -1 4900 1;
#X obj 401 212 vsl 15 64 0 127 0 1 \$0-b16-s \$0-b16-r empty 0 -9 0
10 -261234 -1 -1 300 1;
#X obj 386 212 vsl 15 64 0 127 0 1 \$0-b15-s \$0-b15-r empty 0 -9 0
10 -261234 -1 -1 0 1;
#X obj 239 377 -;
#X obj 49 292 / 127;
#X obj 110 324 inlet~;
#X obj 15 578 outlet~;
#X obj 109 154 knob 48 48 0 127 0 1 empty empty DRY/WET 0 -8 1 8 -262144
-1 -1 0 1;
#X obj 118 243 knob 32 32 0 127 0 1 empty empty NOISE 0 -8 1 8 -262144
-1 -1 0 1;
#X obj 368 337 inlet~;
#X text 152 323 SIGNAL IN;
#X obj 49 382 pack 0 50;
#X obj 49 441 line~;
#X obj 368 510 snapshot~;
#X obj 368 532 s \$0-cv-1-4;
#X obj 468 333 inlet~;
#X obj 468 506 snapshot~;
#X obj 468 528 s \$0-cv-5-8;
#X obj 573 330 inlet~;
#X obj 573 503 snapshot~;
#X obj 573 525 s \$0-cv-9-12;
#X obj 680 329 inlet~;
#X obj 680 502 snapshot~;
#X obj 680 524 s \$0-cv-13-16;
#X msg 239 351 1 \$1;
#X obj 239 322 / 127;
#X obj 49 314 * 3;
#X obj -32 301 noise~;
#X obj -31 405 *~;
#X obj -6 360 pack 0 50;
#X obj -6 382 line~;
#X obj 180 168 knob 32 32 0 127 0 1 empty empty CV1 0 -8 1 8 -262144
-4160 -1 0 1;
#X obj 245 168 knob 32 32 0 127 0 1 empty empty CV2 0 -8 1 8 -262144
-4160 -1 0 1;
#X obj 309 168 knob 32 32 0 127 0 1 empty empty CV3 0 -8 1 8 -262144
-4160 -1 0 1;
#X obj 373 168 knob 32 32 0 127 0 1 empty empty CV4 0 -8 1 8 -262144
-4160 -1 0 1;
#X obj 341 131 knob 32 32 0 127 0 1 empty empty GLOBAL-Q 0 -8 1 8 -262144
-262144 -2112 0 1;
#X obj 368 433 *~;
#X obj 399 395 pack 0 50;
#X obj 399 417 line~;
#X obj 468 430 *~;
#X obj 499 392 pack 0 50;
#X obj 499 414 line~;
#X obj 573 425 *~;
#X obj 604 387 pack 0 50;
#X obj 604 409 line~;
#X obj 676 421 *~;
#X obj 707 383 pack 0 50;
#X obj 707 405 line~;
#X obj -6 338 / 32;
#X obj 399 373 / 512;
#X obj 604 365 / 512;
#X obj 707 361 / 512;
#X obj 499 369 / 512;
#X obj 573 481 *~ 32;
#X obj 468 484 *~ 32;
#X obj 368 488 *~ 32;
#X obj 680 479 *~ 32;
#X obj 171 465 *~;
#X obj 69 578 outlet~;
#X obj 148 578 outlet~;
#X obj 202 578 outlet~;
#X obj 14 503 *~;
#X obj 68 506 *~;
#X obj 146 513 *~;
#X obj 201 516 *~;
#X obj 263 576 outlet~;
#X obj 107 107 cnv 5 10 10 empty empty SIGNAL-IN 0 5 1 7 -228856 -1
0;
#X obj 183 107 cnv 5 10 10 empty empty CV1 0 5 1 7 -228856 -4160 0
;
#X obj 269 107 cnv 5 10 10 empty empty CV2 0 5 1 7 -228856 -4160 0
;
#X obj 356 107 cnv 5 10 10 empty empty CV3 0 5 1 7 -228856 -4160 0
;
#X obj 430 107 cnv 5 10 10 empty empty CV4 0 5 1 7 -228856 -4160 0
;
#X obj 111 284 cnv 5 10 10 empty empty BAND1-4 0 5 1 7 -228856 -1 0
;
#X obj 174 284 cnv 5 10 10 empty empty BAND5-8 0 5 1 7 -228856 -1 0
;
#X obj 262 284 cnv 5 10 10 empty empty BAND9-12 0 5 1 7 -228856 -1
0;
#X obj 344 284 cnv 5 10 10 empty empty BAND13-16 0 5 1 7 -228856 -1
0;
#X obj 422 284 cnv 5 10 10 empty empty OMNI 0 5 1 7 -228856 -1 0;
#X obj 316 493 bang~;
#X obj 416 489 bang~;
#X obj 521 486 bang~;
#X obj 628 485 bang~;
#X connect 2 0 76 0;
#X connect 2 1 77 0;
#X connect 2 2 78 0;
#X connect 2 3 79 0;
#X connect 18 0 72 1;
#X connect 19 0 41 0;
#X connect 20 0 2 0;
#X connect 20 0 72 0;
#X connect 22 0 19 0;
#X connect 22 0 40 0;
#X connect 23 0 63 0;
#X connect 24 0 51 0;
#X connect 26 0 27 0;
#X connect 27 0 76 1;
#X connect 27 0 77 1;
#X connect 27 0 78 1;
#X connect 27 0 79 1;
#X connect 28 0 29 0;
#X connect 30 0 54 0;
#X connect 31 0 32 0;
#X connect 33 0 57 0;
#X connect 34 0 35 0;
#X connect 36 0 60 0;
#X connect 37 0 38 0;
#X connect 39 0 18 0;
#X connect 40 0 39 0;
#X connect 41 0 26 0;
#X connect 42 0 43 0;
#X connect 43 0 2 0;
#X connect 44 0 45 0;
#X connect 45 0 43 1;
#X connect 46 0 64 0;
#X connect 47 0 67 0;
#X connect 48 0 65 0;
#X connect 49 0 66 0;
#X connect 50 0 2 1;
#X connect 51 0 70 0;
#X connect 52 0 53 0;
#X connect 53 0 51 1;
#X connect 54 0 69 0;
#X connect 55 0 56 0;
#X connect 56 0 54 1;
#X connect 57 0 68 0;
#X connect 58 0 59 0;
#X connect 59 0 57 1;
#X connect 60 0 71 0;
#X connect 61 0 62 0;
#X connect 62 0 60 1;
#X connect 63 0 44 0;
#X connect 64 0 52 0;
#X connect 65 0 58 0;
#X connect 66 0 61 0;
#X connect 67 0 55 0;
#X connect 68 0 34 0;
#X connect 69 0 31 0;
#X connect 70 0 28 0;
#X connect 71 0 37 0;
#X connect 72 0 21 0;
#X connect 72 0 73 0;
#X connect 72 0 74 0;
#X connect 72 0 75 0;
#X connect 72 0 80 0;
#X connect 76 0 21 0;
#X connect 76 0 80 0;
#X connect 77 0 73 0;
#X connect 77 0 80 0;
#X connect 78 0 74 0;
#X connect 78 0 80 0;
#X connect 79 0 75 0;
#X connect 79 0 80 0;
#X connect 91 0 28 0;
#X connect 92 0 31 0;
#X connect 93 0 34 0;
#X connect 94 0 37 0;
#X coords 0 -1 1 1 350 200 2 100 100;
