#N canvas 6 22 1279 733 10;
#X obj 105 105 cnv 15 390 190 empty empty THE-MAESTRO 5 28 1 14 -233017
-66577 0;
#X obj 270 146 knob 48 48 0 127 0 1 empty empty MASTER 0 -8 1 8 -4160
-4160 -1 0 1;
#X obj 110 205 knob 32 32 0 127 0 1 empty empty PAN1 0 -8 1 8 -262144
-1 -1 0 1;
#X obj 151 205 knob 32 32 0 127 0 1 empty empty PAN2 0 -8 1 8 -262144
-1 -1 0 1;
#X obj 110 258 knob 32 32 0 127 0 1 empty empty CH1 0 -8 1 8 -262144
-4160 -1 0 1;
#X obj 151 258 knob 32 32 0 127 0 1 empty empty CH2 0 -8 1 8 -262144
-4160 -1 0 1;
#X obj 190 258 knob 32 32 0 127 0 1 empty empty CH3 0 -8 1 8 -262144
-4160 -1 0 1;
#X obj 230 258 knob 32 32 0 127 0 1 empty empty CH4 0 -8 1 8 -262144
-4160 -1 0 1;
#X obj 190 205 knob 32 32 0 127 0 1 empty empty PAN3 0 -8 1 8 -262144
-1 -1 0 1;
#X obj 230 205 knob 32 32 0 127 0 1 empty empty PAN4 0 -8 1 8 -262144
-1 -1 0 1;
#X obj 281 205 vu 10 80 empty empty -1 -8 0 10 -66577 -1 0 0;
#X obj 294 205 vu 10 80 empty empty -1 -8 0 10 -66577 -1 0 0;
#X obj -618 290 inlet~;
#X obj -597 354 *~;
#X obj -562 321 line~;
#X msg -562 296 \$1 100;
#X obj -477 231 inlet~;
#X obj -451 295 *~;
#X obj -416 262 line~;
#X msg -416 237 \$1 100;
#X obj -306 278 inlet~;
#X obj -280 342 *~;
#X obj -245 309 line~;
#X msg -245 284 \$1 100;
#X obj -23 342 *~;
#X obj 12 309 line~;
#X msg 12 284 \$1 100;
#X obj -50 281 inlet~;
#X obj -454 634 *~;
#X obj -410 523 / 127;
#X obj -410 591 line~;
#X msg -410 566 \$1 100;
#X obj -356 632 *~;
#N canvas 150 111 447 424 channel-one 0;
#X obj 262 274 *~;
#X obj 98 273 *~;
#X obj 277 150 / 127;
#X obj 277 199 line~;
#X msg 277 174 \$1 10;
#X obj 113 197 / 127;
#X obj 113 246 line~;
#X msg 113 221 \$1 10;
#X msg 113 148 127 \$1;
#X obj 113 173 -;
#X obj 98 35 inlet~;
#X obj 262 34 inlet~;
#X obj 113 108 inlet;
#X obj 277 108 inlet;
#X obj 98 330 outlet~;
#X obj 262 332 outlet~;
#X connect 0 0 15 0;
#X connect 1 0 14 0;
#X connect 2 0 4 0;
#X connect 3 0 0 1;
#X connect 4 0 3 0;
#X connect 5 0 7 0;
#X connect 6 0 1 1;
#X connect 7 0 6 0;
#X connect 8 0 9 0;
#X connect 9 0 5 0;
#X connect 10 0 1 0;
#X connect 11 0 0 0;
#X connect 12 0 8 0;
#X connect 13 0 2 0;
#X restore -615 451 pd channel-one;
#N canvas 150 111 447 424 channel-two 0;
#X obj 262 274 *~;
#X obj 98 273 *~;
#X obj 277 150 / 127;
#X obj 277 199 line~;
#X msg 277 174 \$1 10;
#X obj 113 197 / 127;
#X obj 113 246 line~;
#X msg 113 221 \$1 10;
#X msg 113 148 127 \$1;
#X obj 113 173 -;
#X obj 98 35 inlet~;
#X obj 262 34 inlet~;
#X obj 113 108 inlet;
#X obj 277 108 inlet;
#X obj 98 330 outlet~;
#X obj 262 332 outlet~;
#X connect 0 0 15 0;
#X connect 1 0 14 0;
#X connect 2 0 4 0;
#X connect 3 0 0 1;
#X connect 4 0 3 0;
#X connect 5 0 7 0;
#X connect 6 0 1 1;
#X connect 7 0 6 0;
#X connect 8 0 9 0;
#X connect 9 0 5 0;
#X connect 10 0 1 0;
#X connect 11 0 0 0;
#X connect 12 0 8 0;
#X connect 13 0 2 0;
#X restore -472 395 pd channel-two;
#X obj -511 651 env~;
#X obj -321 649 env~;
#N canvas 150 111 447 424 channel-three 0;
#X obj 262 274 *~;
#X obj 98 273 *~;
#X obj 277 150 / 127;
#X obj 277 199 line~;
#X msg 277 174 \$1 10;
#X obj 113 197 / 127;
#X obj 113 246 line~;
#X msg 113 221 \$1 10;
#X msg 113 148 127 \$1;
#X obj 113 173 -;
#X obj 98 35 inlet~;
#X obj 262 34 inlet~;
#X obj 113 108 inlet;
#X obj 277 108 inlet;
#X obj 98 330 outlet~;
#X obj 262 332 outlet~;
#X connect 0 0 15 0;
#X connect 1 0 14 0;
#X connect 2 0 4 0;
#X connect 3 0 0 1;
#X connect 4 0 3 0;
#X connect 5 0 7 0;
#X connect 6 0 1 1;
#X connect 7 0 6 0;
#X connect 8 0 9 0;
#X connect 9 0 5 0;
#X connect 10 0 1 0;
#X connect 11 0 0 0;
#X connect 12 0 8 0;
#X connect 13 0 2 0;
#X restore -280 449 pd channel-three;
#N canvas 150 111 447 424 channel-four 0;
#X obj 262 274 *~;
#X obj 98 273 *~;
#X obj 277 150 / 127;
#X obj 277 199 line~;
#X msg 277 174 \$1 10;
#X obj 113 197 / 127;
#X obj 113 246 line~;
#X msg 113 221 \$1 10;
#X msg 113 148 127 \$1;
#X obj 113 173 -;
#X obj 98 35 inlet~;
#X obj 262 34 inlet~;
#X obj 113 108 inlet;
#X obj 277 108 inlet;
#X obj 98 330 outlet~;
#X obj 262 332 outlet~;
#X connect 0 0 15 0;
#X connect 1 0 14 0;
#X connect 2 0 4 0;
#X connect 3 0 0 1;
#X connect 4 0 3 0;
#X connect 5 0 7 0;
#X connect 6 0 1 1;
#X connect 7 0 6 0;
#X connect 8 0 9 0;
#X connect 9 0 5 0;
#X connect 10 0 1 0;
#X connect 11 0 0 0;
#X connect 12 0 8 0;
#X connect 13 0 2 0;
#X restore 0 419 pd channel-four;
#X obj -570 137 inlet~;
#X obj -570 204 snapshot~;
#X obj -571 230 t b f;
#X obj -588 421 +;
#X obj -534 420 +;
#X obj -570 173 *~ 127;
#X obj -423 90 inlet~;
#X obj -423 157 snapshot~;
#X obj -424 183 t b f;
#X obj -423 126 *~ 127;
#X obj -445 371 +;
#X obj -391 370 +;
#X obj -200 131 inlet~;
#X obj -200 198 snapshot~;
#X obj -201 224 t b f;
#X obj -200 167 *~ 127;
#X obj -250 416 +;
#X obj -196 415 +;
#X obj 0 142 inlet~;
#X obj 0 209 snapshot~;
#X obj -1 235 t b f;
#X obj 0 178 *~ 127;
#X obj 26 386 +;
#X obj 80 385 +;
#X obj -454 719 dac~ 1 2;
#X obj 106 105 cnv 3 10 10 empty empty CH1 0 5 1 7 -228856 -66577 0
;
#X obj 123 105 cnv 3 10 10 empty empty LOP1 0 5 1 7 -228856 -66577
0;
#X obj 149 105 cnv 3 10 10 empty empty CH2 0 5 1 7 -228856 -66577 0
;
#X obj 175 105 cnv 3 10 10 empty empty LOP2 0 5 1 7 -228856 -66577
0;
#X obj 202 105 cnv 3 10 10 empty empty CH3 0 5 1 7 -228856 -66577 0
;
#X obj 228 105 cnv 3 10 10 empty empty HIP3 0 5 1 7 -228856 -66577
0;
#X obj 255 105 cnv 3 10 10 empty empty CH4 0 5 1 7 -228856 -66577 0
;
#X obj 279 105 cnv 3 10 10 empty empty HIP4 0 5 1 7 -228856 -66577
0;
#X obj -507 187 r bang~;
#X obj -362 138 r bang~;
#X obj -137 181 r bang~;
#X obj -245 260 / 64;
#X obj 12 260 / 64;
#X obj -410 546 * 1;
#X obj 325 205 knob 32 32 0 127 0 1 empty empty PAN5 0 -8 1 8 -262144
-1 -1 0 1;
#X obj 364 205 knob 32 32 0 127 0 1 empty empty PAN6 0 -8 1 8 -262144
-1 -1 0 1;
#X obj 325 258 knob 32 32 0 127 0 1 empty empty CH5 0 -8 1 8 -262144
-4160 -1 0 1;
#X obj 365 258 knob 32 32 0 127 0 1 empty empty CH6 0 -8 1 8 -262144
-4160 -1 0 1;
#X obj 405 258 knob 32 32 0 127 0 1 empty empty CH7 0 -8 1 8 -262144
-4160 -1 0 1;
#X obj 447 258 knob 32 32 0 127 0 1 empty empty CH8 0 -8 1 8 -262144
-4160 -1 0 1;
#X obj 405 205 knob 32 32 0 127 0 1 empty empty PAN7 0 -8 1 8 -262144
-1 -1 0 1;
#X obj 447 205 knob 32 32 0 127 0 1 empty empty PAN8 0 -8 1 8 -262144
-1 -1 0 1;
#X obj 47 192 r bang~;
#X obj 132 426 inlet~;
#X obj 149 549 *~;
#X obj 188 524 line~;
#X msg 188 499 \$1 100;
#X obj 180 340 inlet~;
#X obj 180 407 snapshot~;
#X obj 185 443 t b f;
#X obj 162 580 +;
#X obj 216 579 +;
#X obj 180 376 *~ 127;
#X obj 228 375 r bang~;
#X obj 188 475 / 64;
#X text 200 320 PAN 5;
#N canvas 150 111 447 424 channel-five 0;
#X obj 262 274 *~;
#X obj 98 273 *~;
#X obj 277 150 / 127;
#X obj 277 199 line~;
#X msg 277 174 \$1 10;
#X obj 113 197 / 127;
#X obj 113 246 line~;
#X msg 113 221 \$1 10;
#X msg 113 148 127 \$1;
#X obj 113 173 -;
#X obj 98 35 inlet~;
#X obj 262 34 inlet~;
#X obj 113 108 inlet;
#X obj 277 108 inlet;
#X obj 98 330 outlet~;
#X obj 262 332 outlet~;
#X connect 0 0 15 0;
#X connect 1 0 14 0;
#X connect 2 0 4 0;
#X connect 3 0 0 1;
#X connect 4 0 3 0;
#X connect 5 0 7 0;
#X connect 6 0 1 1;
#X connect 7 0 6 0;
#X connect 8 0 9 0;
#X connect 9 0 5 0;
#X connect 10 0 1 0;
#X connect 11 0 0 0;
#X connect 12 0 8 0;
#X connect 13 0 2 0;
#X restore 135 608 pd channel-five;
#X obj 135 712 throw~ sumL;
#X obj 222 709 throw~ sumR;
#X obj -493 590 catch~ sumL;
#X obj -355 584 catch~ sumR;
#X obj -94 662 throw~ sumL;
#X obj 17 658 throw~ sumR;
#X obj -279 677 throw~ sumL;
#X obj -192 668 throw~ sumR;
#X obj -472 474 throw~ sumL;
#X obj -390 478 throw~ sumR;
#X obj -615 573 throw~ sumL;
#X obj -534 572 throw~ sumR;
#X obj 321 491 inlet~;
#X obj 342 555 *~;
#X obj 377 522 line~;
#X msg 377 497 \$1 100;
#X obj 369 338 inlet~;
#X obj 369 405 snapshot~;
#X obj 368 431 t b f;
#X obj 374 559 +;
#X obj 428 558 +;
#X obj 369 374 *~ 127;
#X obj 417 373 r bang~;
#X obj 377 473 / 64;
#X obj 324 713 throw~ sumL;
#X obj 411 710 throw~ sumR;
#X text 372 318 PAN 6;
#X text 128 407 CH 5;
#X text 317 472 CH 6;
#X text -308 260 CH 3;
#X text -476 214 CH 2;
#X text -622 271 CH 1;
#X obj 485 488 inlet~;
#X obj 506 552 *~;
#X obj 541 519 line~;
#X msg 541 494 \$1 100;
#X obj 533 335 inlet~;
#X obj 533 402 snapshot~;
#X obj 532 428 t b f;
#X obj 515 619 +;
#X obj 569 618 +;
#X obj 533 371 *~ 127;
#X obj 581 370 r bang~;
#X obj 541 470 / 64;
#X obj 488 677 throw~ sumL;
#X obj 575 674 throw~ sumR;
#X text 481 469 CH 7;
#X text 536 324 PAN 7;
#X obj 628 419 inlet~;
#X obj 649 483 *~;
#X obj 684 450 line~;
#X msg 684 425 \$1 100;
#X obj 676 266 inlet~;
#X obj 676 333 snapshot~;
#X obj 675 359 t b f;
#X obj 658 550 +;
#X obj 712 549 +;
#X obj 676 302 *~ 127;
#X obj 724 301 r bang~;
#X obj 684 401 / 64;
#X obj 631 608 throw~ sumL;
#X obj 718 605 throw~ sumR;
#X text 624 401 CH 8;
#X text 679 246 PAN 8;
#X obj 407 122 tgl 30 1 empty empty empty 17 7 0 10 -262144 -1 -1 1
1;
#X obj 451 122 bng 30 250 50 0 empty empty empty 17 7 0 10 -262144
-1 -1;
#X obj 406 154 cnv 15 75 10 empty empty XODULAR 0 12 1 16 -228856 -66577
0;
#X obj 406 173 cnv 15 75 10 empty empty ECOSYSTEM 0 12 1 12 -228856
-66577 0;
#X obj 308 105 cnv 3 10 10 empty empty CH5 0 5 1 7 -228856 -66577 0
;
#X obj 331 105 cnv 3 10 10 empty empty PAN5 0 5 1 7 -228856 -66577
0;
#X obj 360 105 cnv 3 10 10 empty empty CH6 0 5 1 7 -228856 -66577 0
;
#X obj 383 105 cnv 3 10 10 empty empty PAN6 0 5 1 7 -228856 -66577
0;
#X obj 413 105 cnv 3 10 10 empty empty CH7 0 5 1 7 -228856 -66577 0
;
#X obj 434 105 cnv 3 10 10 empty empty PAN7 0 5 1 7 -228856 -66577
0;
#X obj 464 105 cnv 3 10 10 empty empty CH8 0 5 1 7 -228856 -66577 0
;
#X obj 486 105 cnv 3 10 10 empty empty P8 0 5 1 7 -228856 -66577 0
;
#X obj 190 154 knob 32 32 1.27 127 1 1 empty empty HIP3 0 -8 1 8 -262144
-1 -1 0 1;
#X obj 230 154 knob 32 32 0 127 0 1 empty empty HIP4 0 -8 1 8 -262144
-1 -1 0 1;
#N canvas 150 111 447 424 channel-six 0;
#X obj 262 274 *~;
#X obj 98 273 *~;
#X obj 277 150 / 127;
#X obj 277 199 line~;
#X msg 277 174 \$1 10;
#X obj 113 197 / 127;
#X obj 113 246 line~;
#X msg 113 221 \$1 10;
#X msg 113 148 127 \$1;
#X obj 113 173 -;
#X obj 98 35 inlet~;
#X obj 262 34 inlet~;
#X obj 113 108 inlet;
#X obj 277 108 inlet;
#X obj 98 330 outlet~;
#X obj 262 332 outlet~;
#X connect 0 0 15 0;
#X connect 1 0 14 0;
#X connect 2 0 4 0;
#X connect 3 0 0 1;
#X connect 4 0 3 0;
#X connect 5 0 7 0;
#X connect 6 0 1 1;
#X connect 7 0 6 0;
#X connect 8 0 9 0;
#X connect 9 0 5 0;
#X connect 10 0 1 0;
#X connect 11 0 0 0;
#X connect 12 0 8 0;
#X connect 13 0 2 0;
#X restore 339 599 pd channel-six;
#N canvas 150 111 447 424 channel-seven 0;
#X obj 262 274 *~;
#X obj 98 273 *~;
#X obj 277 150 / 127;
#X obj 277 199 line~;
#X msg 277 174 \$1 10;
#X obj 113 197 / 127;
#X obj 113 246 line~;
#X msg 113 221 \$1 10;
#X msg 113 148 127 \$1;
#X obj 113 173 -;
#X obj 98 35 inlet~;
#X obj 262 34 inlet~;
#X obj 113 108 inlet;
#X obj 277 108 inlet;
#X obj 98 330 outlet~;
#X obj 262 332 outlet~;
#X connect 0 0 15 0;
#X connect 1 0 14 0;
#X connect 2 0 4 0;
#X connect 3 0 0 1;
#X connect 4 0 3 0;
#X connect 5 0 7 0;
#X connect 6 0 1 1;
#X connect 7 0 6 0;
#X connect 8 0 9 0;
#X connect 9 0 5 0;
#X connect 10 0 1 0;
#X connect 11 0 0 0;
#X connect 12 0 8 0;
#X connect 13 0 2 0;
#X restore 488 649 pd channel-seven;
#N canvas 150 111 447 424 channel-eight 0;
#X obj 262 274 *~;
#X obj 98 273 *~;
#X obj 277 150 / 127;
#X obj 277 199 line~;
#X msg 277 174 \$1 10;
#X obj 113 197 / 127;
#X obj 113 246 line~;
#X msg 113 221 \$1 10;
#X msg 113 148 127 \$1;
#X obj 113 173 -;
#X obj 98 35 inlet~;
#X obj 262 34 inlet~;
#X obj 113 108 inlet;
#X obj 277 108 inlet;
#X obj 98 330 outlet~;
#X obj 262 332 outlet~;
#X connect 0 0 15 0;
#X connect 1 0 14 0;
#X connect 2 0 4 0;
#X connect 3 0 0 1;
#X connect 4 0 3 0;
#X connect 5 0 7 0;
#X connect 6 0 1 1;
#X connect 7 0 6 0;
#X connect 8 0 9 0;
#X connect 9 0 5 0;
#X connect 10 0 1 0;
#X connect 11 0 0 0;
#X connect 12 0 8 0;
#X connect 13 0 2 0;
#X restore 631 580 pd channel-eight;
#X obj 326 155 knob 32 32 0 127 0 1 empty empty DLY-MIX 0 -8 1 8 -262144
-1 -1 0 1;
#X obj 364 155 knob 32 32 0 127 0 1 empty empty DLY-RATE 0 -8 1 8 -262144
-1 -1 0 1;
#N canvas 292 279 631 396 delay-fx 0;
#X obj 574 232 inlet~;
#X obj 206 63 inlet;
#X obj 206 85 / 127;
#X obj 206 107 * 900;
#X obj 206 151 sig~;
#X obj 208 334 outlet~;
#X obj 206 208 *~;
#X obj 386 11 inlet;
#X obj 389 174 pack f 50;
#X obj 389 196 line~;
#X obj 470 351 delwrite~ CH5FX1 100;
#X obj 206 174 vd~ CH5FX1;
#X obj 471 302 *~;
#X obj 387 47 t f f;
#X obj 485 96 / 127;
#X obj 485 118 * 0.9;
#X obj 485 139 moses 0.99;
#X obj 485 161 pack f 50;
#X obj 485 183 line~;
#X obj 206 129 + 10;
#X obj 389 152 / 127;
#X connect 0 0 10 0;
#X connect 1 0 2 0;
#X connect 2 0 3 0;
#X connect 3 0 19 0;
#X connect 4 0 11 0;
#X connect 6 0 5 0;
#X connect 6 0 12 0;
#X connect 7 0 13 0;
#X connect 8 0 9 0;
#X connect 9 0 6 1;
#X connect 11 0 6 0;
#X connect 12 0 10 0;
#X connect 13 0 20 0;
#X connect 13 1 14 0;
#X connect 14 0 15 0;
#X connect 15 0 16 0;
#X connect 16 0 17 0;
#X connect 17 0 18 0;
#X connect 18 0 12 1;
#X connect 19 0 4 0;
#X connect 20 0 8 0;
#X restore 148 651 pd delay-fx;
#N canvas 125 217 631 396 delay-fx 0;
#X obj 574 232 inlet~;
#X obj 206 29 inlet;
#X obj 206 51 / 127;
#X obj 206 73 * 900;
#X obj 206 151 sig~;
#X obj 208 334 outlet~;
#X obj 206 208 *~;
#X obj 386 11 inlet;
#X obj 389 174 pack f 50;
#X obj 389 196 line~;
#X obj 471 302 *~;
#X obj 387 47 t f f;
#X obj 485 96 / 127;
#X obj 485 118 * 0.9;
#X obj 485 139 moses 0.99;
#X obj 485 161 pack f 50;
#X obj 485 183 line~;
#X obj 206 174 vd~ CH5FX2;
#X obj 470 351 delwrite~ CH5FX2 100;
#X obj 206 95 + 20;
#X obj 389 152 / 127;
#X connect 0 0 18 0;
#X connect 1 0 2 0;
#X connect 2 0 3 0;
#X connect 3 0 19 0;
#X connect 4 0 17 0;
#X connect 6 0 5 0;
#X connect 6 0 10 0;
#X connect 7 0 11 0;
#X connect 8 0 9 0;
#X connect 9 0 6 1;
#X connect 10 0 18 0;
#X connect 11 0 20 0;
#X connect 11 1 12 0;
#X connect 12 0 13 0;
#X connect 13 0 14 0;
#X connect 14 0 15 0;
#X connect 15 0 16 0;
#X connect 16 0 10 1;
#X connect 17 0 6 0;
#X connect 19 0 4 0;
#X connect 20 0 8 0;
#X restore 236 649 pd delay-fx;
#N canvas 292 279 631 396 delay-fx 0;
#X obj 574 232 inlet~;
#X obj 206 63 inlet;
#X obj 206 85 / 127;
#X obj 206 107 * 900;
#X obj 206 151 sig~;
#X obj 208 334 outlet~;
#X obj 206 208 *~;
#X obj 386 11 inlet;
#X obj 389 174 pack f 50;
#X obj 389 196 line~;
#X obj 471 302 *~;
#X obj 387 47 t f f;
#X obj 485 96 / 127;
#X obj 485 118 * 0.9;
#X obj 485 139 moses 0.99;
#X obj 485 161 pack f 50;
#X obj 485 183 line~;
#X obj 206 174 vd~ CH6FX1;
#X obj 470 351 delwrite~ CH6FX1 100;
#X obj 205 129 + 30;
#X obj 389 152 / 127;
#X connect 0 0 18 0;
#X connect 1 0 2 0;
#X connect 2 0 3 0;
#X connect 3 0 19 0;
#X connect 4 0 17 0;
#X connect 6 0 5 0;
#X connect 6 0 10 0;
#X connect 7 0 11 0;
#X connect 8 0 9 0;
#X connect 9 0 6 1;
#X connect 10 0 18 0;
#X connect 11 0 20 0;
#X connect 11 1 12 0;
#X connect 12 0 13 0;
#X connect 13 0 14 0;
#X connect 14 0 15 0;
#X connect 15 0 16 0;
#X connect 16 0 10 1;
#X connect 17 0 6 0;
#X connect 19 0 4 0;
#X connect 20 0 8 0;
#X restore 314 645 pd delay-fx;
#N canvas 292 279 631 396 delay-fx 0;
#X obj 574 232 inlet~;
#X obj 206 63 inlet;
#X obj 206 85 / 127;
#X obj 206 107 * 900;
#X obj 206 151 sig~;
#X obj 208 334 outlet~;
#X obj 206 208 *~;
#X obj 386 11 inlet;
#X obj 389 174 pack f 50;
#X obj 389 196 line~;
#X obj 471 302 *~;
#X obj 387 47 t f f;
#X obj 485 96 / 127;
#X obj 485 118 * 0.9;
#X obj 485 139 moses 0.99;
#X obj 485 161 pack f 50;
#X obj 485 183 line~;
#X obj 470 351 delwrite~ CH6FX2 100;
#X obj 206 174 vd~ CH6FX2;
#X obj 206 129 + 40;
#X obj 389 152 / 127;
#X connect 0 0 17 0;
#X connect 1 0 2 0;
#X connect 2 0 3 0;
#X connect 3 0 19 0;
#X connect 4 0 18 0;
#X connect 6 0 5 0;
#X connect 6 0 10 0;
#X connect 7 0 11 0;
#X connect 8 0 9 0;
#X connect 9 0 6 1;
#X connect 10 0 17 0;
#X connect 11 0 20 0;
#X connect 11 1 12 0;
#X connect 12 0 13 0;
#X connect 13 0 14 0;
#X connect 14 0 15 0;
#X connect 15 0 16 0;
#X connect 16 0 10 1;
#X connect 18 0 6 0;
#X connect 19 0 4 0;
#X connect 20 0 8 0;
#X restore 396 645 pd delay-fx;
#X obj 321 690 *~ 0.5;
#X obj 414 679 *~ 0.5;
#X obj -562 272 / 64;
#X obj -416 213 / 64;
#X obj -321 679 - 96;
#X obj -511 681 - 96;
#X obj 135 682 *~ 0.5;
#X obj 222 683 *~ 0.5;
#X obj 534 222 / 127;
#X msg 534 174 127 \$1;
#X obj 534 196 -;
#X obj 534 244 pack f 50;
#X obj 534 266 line~;
#X obj 112 154 knob 32 32 1.27 127 1 1 empty empty LOP1 0 -8 1 8 -262144
-1 -1 0 1;
#X obj 151 154 knob 32 32 1.27 127 1 1 empty empty LOP2 0 -8 1 8 -262144
-1 -1 0 1;
#N canvas 171 216 635 407 hipass 0;
#X obj -2 35 / 127;
#X obj -2 58 * 9999;
#X obj -19 215 vcf~ 10;
#X obj -76 287 hip~;
#X obj 0 81 + 100;
#X obj -79 78 inlet~;
#X obj -2 3 inlet;
#X obj 26 135 pack f 100;
#X obj 26 157 line~;
#X obj -76 309 *~ 0.5;
#X obj -76 346 outlet~;
#X obj 0 106 t f f;
#X msg -54 165 \$1 100;
#X obj -54 187 line;
#X connect 0 0 1 0;
#X connect 1 0 4 0;
#X connect 2 0 3 0;
#X connect 3 0 9 0;
#X connect 4 0 11 0;
#X connect 5 0 2 0;
#X connect 5 0 3 0;
#X connect 6 0 0 0;
#X connect 7 0 8 0;
#X connect 8 0 2 1;
#X connect 9 0 10 0;
#X connect 11 0 12 0;
#X connect 11 1 7 0;
#X connect 12 0 13 0;
#X connect 13 0 3 1;
#X restore -271 546 pd hipass;
#X obj -155 490 t f f;
#N canvas 171 216 635 407 hipass 0;
#X obj -2 35 / 127;
#X obj -2 58 * 9999;
#X obj -19 215 vcf~ 10;
#X obj -76 287 hip~;
#X obj 0 81 + 100;
#X obj -79 78 inlet~;
#X obj -2 3 inlet;
#X obj 26 135 pack f 100;
#X obj 26 157 line~;
#X obj -76 309 *~ 0.5;
#X obj -76 346 outlet~;
#X obj 0 106 t f f;
#X msg -54 165 \$1 100;
#X obj -54 187 line;
#X connect 0 0 1 0;
#X connect 1 0 4 0;
#X connect 2 0 3 0;
#X connect 3 0 9 0;
#X connect 4 0 11 0;
#X connect 5 0 2 0;
#X connect 5 0 3 0;
#X connect 6 0 0 0;
#X connect 7 0 8 0;
#X connect 8 0 2 1;
#X connect 9 0 10 0;
#X connect 11 0 12 0;
#X connect 11 1 7 0;
#X connect 12 0 13 0;
#X connect 13 0 3 1;
#X restore -192 537 pd hipass;
#N canvas 588 32 522 657 lopass-filter 0;
#X obj -111 301 lop~;
#X obj 14 107 / 127;
#X obj -114 7 inlet~;
#X obj -111 488 outlet~;
#X obj 14 11 inlet;
#X text -117 -15 SIGNAL IN;
#X text 13 -10 CUT OFF IN;
#X obj 14 136 * 9900;
#X obj 14 190 t f f f f f;
#N canvas 506 107 491 425 bandpass-series 0;
#X obj 65 30 inlet~;
#X obj 65 208 vcf~ 10;
#X obj 84 179 sig~;
#X obj 84 150 inlet;
#X obj 201 178 sig~;
#X obj 201 121 inlet;
#X obj 179 207 vcf~ 7.5;
#X obj 284 177 sig~;
#X obj 268 206 vcf~ 5;
#X obj 284 113 inlet;
#X obj 353 177 sig~;
#X obj 353 113 inlet;
#X obj 331 206 vcf~ 2.5;
#X obj 284 147 - 50;
#X obj 201 148 - 25;
#X obj 353 147 - 75;
#X obj 181 379 outlet~;
#X obj 181 344 *~ 0.125;
#X connect 0 0 1 0;
#X connect 0 0 6 0;
#X connect 0 0 8 0;
#X connect 0 0 12 0;
#X connect 1 0 17 0;
#X connect 2 0 1 1;
#X connect 3 0 2 0;
#X connect 4 0 6 1;
#X connect 5 0 14 0;
#X connect 6 0 17 0;
#X connect 7 0 8 1;
#X connect 8 0 17 0;
#X connect 9 0 13 0;
#X connect 10 0 12 1;
#X connect 11 0 15 0;
#X connect 12 0 17 0;
#X connect 13 0 7 0;
#X connect 14 0 4 0;
#X connect 15 0 10 0;
#X connect 17 0 16 0;
#X restore -25 248 pd bandpass-series;
#X obj -111 405 *~;
#X obj 14 34 t f f;
#X obj 126 241 / 127;
#X obj 126 263 * 1;
#X obj 126 285 + 1;
#X obj 126 307 pack f 50;
#X obj 126 329 line~;
#X msg 126 192 127 \$1;
#X obj 126 214 -;
#X obj 14 158 + 100;
#X obj 14 82 line;
#X msg 14 60 \$1 50;
#X obj -111 449 *~ 0.5;
#X connect 0 0 10 0;
#X connect 1 0 7 0;
#X connect 2 0 0 0;
#X connect 2 0 9 0;
#X connect 4 0 11 0;
#X connect 7 0 19 0;
#X connect 8 0 0 1;
#X connect 8 1 9 1;
#X connect 8 2 9 2;
#X connect 8 3 9 3;
#X connect 8 4 9 4;
#X connect 9 0 0 0;
#X connect 10 0 22 0;
#X connect 11 0 21 0;
#X connect 11 1 17 0;
#X connect 12 0 13 0;
#X connect 13 0 14 0;
#X connect 14 0 15 0;
#X connect 15 0 16 0;
#X connect 16 0 10 1;
#X connect 17 0 18 0;
#X connect 18 0 12 0;
#X connect 19 0 8 0;
#X connect 20 0 1 0;
#X connect 21 0 20 0;
#X connect 22 0 3 0;
#X restore -614 514 pd lopass-filter;
#N canvas 588 32 522 657 lopass-filter 0;
#X obj -111 301 lop~;
#X obj 14 107 / 127;
#X obj -114 7 inlet~;
#X obj -111 488 outlet~;
#X obj 14 11 inlet;
#X text -117 -15 SIGNAL IN;
#X text 13 -10 CUT OFF IN;
#X obj 14 136 * 9900;
#X obj 14 190 t f f f f f;
#N canvas 506 107 491 425 bandpass-series 0;
#X obj 65 30 inlet~;
#X obj 65 208 vcf~ 10;
#X obj 84 179 sig~;
#X obj 84 150 inlet;
#X obj 201 178 sig~;
#X obj 201 121 inlet;
#X obj 179 207 vcf~ 7.5;
#X obj 284 177 sig~;
#X obj 268 206 vcf~ 5;
#X obj 284 113 inlet;
#X obj 353 177 sig~;
#X obj 353 113 inlet;
#X obj 331 206 vcf~ 2.5;
#X obj 284 147 - 50;
#X obj 201 148 - 25;
#X obj 353 147 - 75;
#X obj 181 379 outlet~;
#X obj 181 344 *~ 0.125;
#X connect 0 0 1 0;
#X connect 0 0 6 0;
#X connect 0 0 8 0;
#X connect 0 0 12 0;
#X connect 1 0 17 0;
#X connect 2 0 1 1;
#X connect 3 0 2 0;
#X connect 4 0 6 1;
#X connect 5 0 14 0;
#X connect 6 0 17 0;
#X connect 7 0 8 1;
#X connect 8 0 17 0;
#X connect 9 0 13 0;
#X connect 10 0 12 1;
#X connect 11 0 15 0;
#X connect 12 0 17 0;
#X connect 13 0 7 0;
#X connect 14 0 4 0;
#X connect 15 0 10 0;
#X connect 17 0 16 0;
#X restore -25 248 pd bandpass-series;
#X obj -111 405 *~;
#X obj 14 34 t f f;
#X obj 126 241 / 127;
#X obj 126 263 * 1;
#X obj 126 285 + 1;
#X obj 126 307 pack f 50;
#X obj 126 329 line~;
#X msg 126 192 127 \$1;
#X obj 126 214 -;
#X obj 14 158 + 100;
#X obj 14 82 line;
#X msg 14 60 \$1 50;
#X obj -111 449 *~ 0.5;
#X connect 0 0 10 0;
#X connect 1 0 7 0;
#X connect 2 0 0 0;
#X connect 2 0 9 0;
#X connect 4 0 11 0;
#X connect 7 0 19 0;
#X connect 8 0 0 1;
#X connect 8 1 9 1;
#X connect 8 2 9 2;
#X connect 8 3 9 3;
#X connect 8 4 9 4;
#X connect 9 0 0 0;
#X connect 10 0 22 0;
#X connect 11 0 21 0;
#X connect 11 1 17 0;
#X connect 12 0 13 0;
#X connect 13 0 14 0;
#X connect 14 0 15 0;
#X connect 15 0 16 0;
#X connect 16 0 10 1;
#X connect 17 0 18 0;
#X connect 18 0 12 0;
#X connect 19 0 8 0;
#X connect 20 0 1 0;
#X connect 21 0 20 0;
#X connect 22 0 3 0;
#X restore -532 542 pd lopass-filter;
#N canvas 588 32 522 657 lopass-filter 0;
#X obj -111 301 lop~;
#X obj 14 107 / 127;
#X obj -114 7 inlet~;
#X obj -111 488 outlet~;
#X obj 14 11 inlet;
#X text -117 -15 SIGNAL IN;
#X text 13 -10 CUT OFF IN;
#X obj 14 136 * 9900;
#X obj 14 190 t f f f f f;
#N canvas 506 107 491 425 bandpass-series 0;
#X obj 65 30 inlet~;
#X obj 65 208 vcf~ 10;
#X obj 84 179 sig~;
#X obj 84 150 inlet;
#X obj 201 178 sig~;
#X obj 201 121 inlet;
#X obj 179 207 vcf~ 7.5;
#X obj 284 177 sig~;
#X obj 268 206 vcf~ 5;
#X obj 284 113 inlet;
#X obj 353 177 sig~;
#X obj 353 113 inlet;
#X obj 331 206 vcf~ 2.5;
#X obj 284 147 - 50;
#X obj 201 148 - 25;
#X obj 353 147 - 75;
#X obj 181 379 outlet~;
#X obj 181 344 *~ 0.125;
#X connect 0 0 1 0;
#X connect 0 0 6 0;
#X connect 0 0 8 0;
#X connect 0 0 12 0;
#X connect 1 0 17 0;
#X connect 2 0 1 1;
#X connect 3 0 2 0;
#X connect 4 0 6 1;
#X connect 5 0 14 0;
#X connect 6 0 17 0;
#X connect 7 0 8 1;
#X connect 8 0 17 0;
#X connect 9 0 13 0;
#X connect 10 0 12 1;
#X connect 11 0 15 0;
#X connect 12 0 17 0;
#X connect 13 0 7 0;
#X connect 14 0 4 0;
#X connect 15 0 10 0;
#X connect 17 0 16 0;
#X restore -25 248 pd bandpass-series;
#X obj -111 405 *~;
#X obj 14 34 t f f;
#X obj 126 241 / 127;
#X obj 126 263 * 1;
#X obj 126 285 + 1;
#X obj 126 307 pack f 50;
#X obj 126 329 line~;
#X msg 126 192 127 \$1;
#X obj 126 214 -;
#X obj 14 158 + 100;
#X obj 14 82 line;
#X msg 14 60 \$1 50;
#X obj -111 449 *~ 0.5;
#X connect 0 0 10 0;
#X connect 1 0 7 0;
#X connect 2 0 0 0;
#X connect 2 0 9 0;
#X connect 4 0 11 0;
#X connect 7 0 19 0;
#X connect 8 0 0 1;
#X connect 8 1 9 1;
#X connect 8 2 9 2;
#X connect 8 3 9 3;
#X connect 8 4 9 4;
#X connect 9 0 0 0;
#X connect 10 0 22 0;
#X connect 11 0 21 0;
#X connect 11 1 17 0;
#X connect 12 0 13 0;
#X connect 13 0 14 0;
#X connect 14 0 15 0;
#X connect 15 0 16 0;
#X connect 16 0 10 1;
#X connect 17 0 18 0;
#X connect 18 0 12 0;
#X connect 19 0 8 0;
#X connect 20 0 1 0;
#X connect 21 0 20 0;
#X connect 22 0 3 0;
#X restore -470 434 pd lopass-filter;
#N canvas 588 32 522 657 lopass-filter 0;
#X obj -111 301 lop~;
#X obj 14 107 / 127;
#X obj -114 7 inlet~;
#X obj -111 488 outlet~;
#X obj 14 11 inlet;
#X text -117 -15 SIGNAL IN;
#X text 13 -10 CUT OFF IN;
#X obj 14 136 * 9900;
#X obj 14 190 t f f f f f;
#N canvas 506 107 491 425 bandpass-series 0;
#X obj 65 30 inlet~;
#X obj 65 208 vcf~ 10;
#X obj 84 179 sig~;
#X obj 84 150 inlet;
#X obj 201 178 sig~;
#X obj 201 121 inlet;
#X obj 179 207 vcf~ 7.5;
#X obj 284 177 sig~;
#X obj 268 206 vcf~ 5;
#X obj 284 113 inlet;
#X obj 353 177 sig~;
#X obj 353 113 inlet;
#X obj 331 206 vcf~ 2.5;
#X obj 284 147 - 50;
#X obj 201 148 - 25;
#X obj 353 147 - 75;
#X obj 181 379 outlet~;
#X obj 181 344 *~ 0.125;
#X connect 0 0 1 0;
#X connect 0 0 6 0;
#X connect 0 0 8 0;
#X connect 0 0 12 0;
#X connect 1 0 17 0;
#X connect 2 0 1 1;
#X connect 3 0 2 0;
#X connect 4 0 6 1;
#X connect 5 0 14 0;
#X connect 6 0 17 0;
#X connect 7 0 8 1;
#X connect 8 0 17 0;
#X connect 9 0 13 0;
#X connect 10 0 12 1;
#X connect 11 0 15 0;
#X connect 12 0 17 0;
#X connect 13 0 7 0;
#X connect 14 0 4 0;
#X connect 15 0 10 0;
#X connect 17 0 16 0;
#X restore -25 248 pd bandpass-series;
#X obj -111 405 *~;
#X obj 14 34 t f f;
#X obj 126 241 / 127;
#X obj 126 263 * 1;
#X obj 126 285 + 1;
#X obj 126 307 pack f 50;
#X obj 126 329 line~;
#X msg 126 192 127 \$1;
#X obj 126 214 -;
#X obj 14 158 + 100;
#X obj 14 82 line;
#X msg 14 60 \$1 50;
#X obj -111 449 *~ 0.5;
#X connect 0 0 10 0;
#X connect 1 0 7 0;
#X connect 2 0 0 0;
#X connect 2 0 9 0;
#X connect 4 0 11 0;
#X connect 7 0 19 0;
#X connect 8 0 0 1;
#X connect 8 1 9 1;
#X connect 8 2 9 2;
#X connect 8 3 9 3;
#X connect 8 4 9 4;
#X connect 9 0 0 0;
#X connect 10 0 22 0;
#X connect 11 0 21 0;
#X connect 11 1 17 0;
#X connect 12 0 13 0;
#X connect 13 0 14 0;
#X connect 14 0 15 0;
#X connect 15 0 16 0;
#X connect 16 0 10 1;
#X connect 17 0 18 0;
#X connect 18 0 12 0;
#X connect 19 0 8 0;
#X connect 20 0 1 0;
#X connect 21 0 20 0;
#X connect 22 0 3 0;
#X restore -365 435 pd lopass-filter;
#X obj -522 482 t f f;
#X obj -359 412 t f f;
#N canvas 171 216 635 407 hipass 0;
#X obj -2 35 / 127;
#X obj -2 58 * 9999;
#X obj -19 215 vcf~ 10;
#X obj -76 287 hip~;
#X obj 0 81 + 100;
#X obj -79 78 inlet~;
#X obj -2 3 inlet;
#X obj 26 135 pack f 100;
#X obj 26 157 line~;
#X obj -76 309 *~ 0.5;
#X obj -76 346 outlet~;
#X obj 0 106 t f f;
#X msg -54 165 \$1 100;
#X obj -54 187 line;
#X connect 0 0 1 0;
#X connect 1 0 4 0;
#X connect 2 0 3 0;
#X connect 3 0 9 0;
#X connect 4 0 11 0;
#X connect 5 0 2 0;
#X connect 5 0 3 0;
#X connect 6 0 0 0;
#X connect 7 0 8 0;
#X connect 8 0 2 1;
#X connect 9 0 10 0;
#X connect 11 0 12 0;
#X connect 11 1 7 0;
#X connect 12 0 13 0;
#X connect 13 0 3 1;
#X restore -89 556 pd hipass;
#N canvas 171 216 635 407 hipass 0;
#X obj -2 35 / 127;
#X obj -2 58 * 9999;
#X obj -19 215 vcf~ 10;
#X obj -76 287 hip~;
#X obj 0 81 + 100;
#X obj -79 78 inlet~;
#X obj -2 3 inlet;
#X obj 26 135 pack f 100;
#X obj 26 157 line~;
#X obj -76 309 *~ 0.5;
#X obj -76 346 outlet~;
#X obj 0 106 t f f;
#X msg -54 165 \$1 100;
#X obj -54 187 line;
#X connect 0 0 1 0;
#X connect 1 0 4 0;
#X connect 2 0 3 0;
#X connect 3 0 9 0;
#X connect 4 0 11 0;
#X connect 5 0 2 0;
#X connect 5 0 3 0;
#X connect 6 0 0 0;
#X connect 7 0 8 0;
#X connect 8 0 2 1;
#X connect 9 0 10 0;
#X connect 11 0 12 0;
#X connect 11 1 7 0;
#X connect 12 0 13 0;
#X connect 13 0 3 1;
#X restore 6 556 pd hipass;
#X obj -18 515 t f f;
#X obj -18 490 +;
#X text -567 117 LOP CV;
#X obj -519 452 +;
#X text -420 70 LOP CV;
#X obj -347 388 +;
#X text -197 111 HIP CV;
#X obj -154 470 +;
#X text 3 122 HIP CV 4;
#X connect 1 0 29 0;
#X connect 2 0 43 0;
#X connect 2 0 42 0;
#X connect 3 0 49 0;
#X connect 3 0 50 0;
#X connect 4 0 190 0;
#X connect 5 0 191 0;
#X connect 6 0 75 0;
#X connect 7 0 76 0;
#X connect 8 0 55 0;
#X connect 8 0 56 0;
#X connect 9 0 61 0;
#X connect 9 0 62 0;
#X connect 12 0 13 0;
#X connect 13 0 33 0;
#X connect 13 0 33 2;
#X connect 14 0 13 1;
#X connect 15 0 14 0;
#X connect 16 0 17 0;
#X connect 17 0 34 0;
#X connect 17 0 34 2;
#X connect 18 0 17 1;
#X connect 19 0 18 0;
#X connect 20 0 21 0;
#X connect 21 0 37 0;
#X connect 21 0 37 2;
#X connect 22 0 21 1;
#X connect 23 0 22 0;
#X connect 24 0 38 0;
#X connect 24 0 38 2;
#X connect 25 0 24 1;
#X connect 26 0 25 0;
#X connect 27 0 24 0;
#X connect 28 0 35 0;
#X connect 28 0 63 0;
#X connect 29 0 77 0;
#X connect 30 0 28 1;
#X connect 30 0 32 1;
#X connect 31 0 30 0;
#X connect 32 0 36 0;
#X connect 32 0 63 1;
#X connect 33 0 206 0;
#X connect 33 1 207 0;
#X connect 34 0 208 0;
#X connect 34 1 209 0;
#X connect 35 0 193 0;
#X connect 36 0 192 0;
#X connect 37 0 203 0;
#X connect 37 1 205 0;
#X connect 38 0 212 0;
#X connect 38 1 213 0;
#X connect 39 0 44 0;
#X connect 40 0 41 0;
#X connect 41 0 217 0;
#X connect 41 1 217 1;
#X connect 42 0 33 1;
#X connect 43 0 33 3;
#X connect 44 0 40 0;
#X connect 45 0 48 0;
#X connect 46 0 47 0;
#X connect 47 0 219 0;
#X connect 47 1 219 1;
#X connect 48 0 46 0;
#X connect 49 0 34 1;
#X connect 50 0 34 3;
#X connect 51 0 54 0;
#X connect 52 0 53 0;
#X connect 53 0 221 0;
#X connect 53 1 221 1;
#X connect 54 0 52 0;
#X connect 55 0 37 1;
#X connect 56 0 37 3;
#X connect 57 0 60 0;
#X connect 58 0 59 0;
#X connect 59 0 215 0;
#X connect 59 1 215 1;
#X connect 60 0 58 0;
#X connect 61 0 38 1;
#X connect 62 0 38 3;
#X connect 72 0 40 0;
#X connect 73 0 46 0;
#X connect 74 0 52 0;
#X connect 75 0 23 0;
#X connect 76 0 26 0;
#X connect 77 0 31 0;
#X connect 78 0 94 0;
#X connect 78 0 95 0;
#X connect 79 0 120 0;
#X connect 79 0 121 0;
#X connect 80 0 98 0;
#X connect 81 0 124 0;
#X connect 82 0 144 0;
#X connect 83 0 160 0;
#X connect 84 0 140 0;
#X connect 84 0 141 0;
#X connect 85 0 156 0;
#X connect 85 0 157 0;
#X connect 86 0 58 0;
#X connect 87 0 88 0;
#X connect 88 0 100 0;
#X connect 88 0 100 2;
#X connect 89 0 88 1;
#X connect 90 0 89 0;
#X connect 91 0 96 0;
#X connect 92 0 93 0;
#X connect 93 0 94 0;
#X connect 93 0 95 0;
#X connect 93 1 94 1;
#X connect 93 1 95 1;
#X connect 94 0 100 1;
#X connect 95 0 100 3;
#X connect 96 0 92 0;
#X connect 97 0 92 0;
#X connect 98 0 90 0;
#X connect 100 0 184 2;
#X connect 100 0 194 0;
#X connect 100 1 185 2;
#X connect 100 1 195 0;
#X connect 103 0 28 0;
#X connect 104 0 32 0;
#X connect 113 0 114 0;
#X connect 114 0 179 0;
#X connect 114 0 179 2;
#X connect 115 0 114 1;
#X connect 116 0 115 0;
#X connect 117 0 122 0;
#X connect 118 0 119 0;
#X connect 119 0 120 0;
#X connect 119 0 121 0;
#X connect 119 1 120 1;
#X connect 119 1 121 1;
#X connect 120 0 179 1;
#X connect 121 0 179 3;
#X connect 122 0 118 0;
#X connect 123 0 118 0;
#X connect 124 0 116 0;
#X connect 133 0 134 0;
#X connect 134 0 180 0;
#X connect 134 0 180 2;
#X connect 135 0 134 1;
#X connect 136 0 135 0;
#X connect 137 0 142 0;
#X connect 138 0 139 0;
#X connect 139 0 140 0;
#X connect 139 0 141 0;
#X connect 139 1 140 1;
#X connect 139 1 141 1;
#X connect 140 0 180 1;
#X connect 141 0 180 3;
#X connect 142 0 138 0;
#X connect 143 0 138 0;
#X connect 144 0 136 0;
#X connect 149 0 150 0;
#X connect 150 0 181 0;
#X connect 150 0 181 2;
#X connect 151 0 150 1;
#X connect 152 0 151 0;
#X connect 153 0 158 0;
#X connect 154 0 155 0;
#X connect 155 0 156 0;
#X connect 155 0 157 0;
#X connect 155 1 156 1;
#X connect 155 1 157 1;
#X connect 156 0 181 1;
#X connect 157 0 181 3;
#X connect 158 0 154 0;
#X connect 159 0 154 0;
#X connect 160 0 152 0;
#X connect 177 0 221 0;
#X connect 178 0 215 0;
#X connect 179 0 186 2;
#X connect 179 0 188 0;
#X connect 179 1 187 2;
#X connect 179 1 189 0;
#X connect 180 0 145 0;
#X connect 180 1 146 0;
#X connect 181 0 161 0;
#X connect 181 1 162 0;
#X connect 182 0 184 1;
#X connect 182 0 185 1;
#X connect 182 0 186 1;
#X connect 182 0 187 1;
#X connect 182 0 197 0;
#X connect 183 0 184 0;
#X connect 183 0 185 0;
#X connect 183 0 187 0;
#X connect 183 0 186 0;
#X connect 184 0 194 0;
#X connect 185 0 195 0;
#X connect 186 0 188 0;
#X connect 187 0 189 0;
#X connect 188 0 125 0;
#X connect 189 0 126 0;
#X connect 190 0 15 0;
#X connect 191 0 19 0;
#X connect 192 0 11 0;
#X connect 193 0 10 0;
#X connect 194 0 101 0;
#X connect 195 0 102 0;
#X connect 196 0 199 0;
#X connect 197 0 198 0;
#X connect 198 0 196 0;
#X connect 199 0 200 0;
#X connect 201 0 217 0;
#X connect 202 0 219 0;
#X connect 203 0 107 0;
#X connect 204 0 203 1;
#X connect 204 1 205 1;
#X connect 205 0 108 0;
#X connect 206 0 111 0;
#X connect 207 0 112 0;
#X connect 208 0 109 0;
#X connect 209 0 110 0;
#X connect 210 0 206 1;
#X connect 210 1 207 1;
#X connect 211 0 208 1;
#X connect 211 1 209 1;
#X connect 212 0 105 0;
#X connect 213 0 106 0;
#X connect 214 0 212 1;
#X connect 214 1 213 1;
#X connect 215 0 214 0;
#X connect 217 0 210 0;
#X connect 219 0 211 0;
#X connect 221 0 204 0;
#X coords 0 -1 1 1 400 200 2 100 100;
