#N canvas 0 22 1130 709 10;
#X obj 105 105 cnv 15 140 190 empty empty empty 20 12 1 14 -233017
-66577 0;
#X obj 537 677 outlet~;
#X obj 109 207 knob 48 48 0 127 0 1 empty empty ROOT 0 -8 1 8 -262144
-1 -1 37 1;
#X obj 171 243 knob 32 32 0 127 0 1 empty empty VCA 0 -8 1 8 -262144
-1 -1 24 1;
#X obj 552 454 / 127;
#X obj 552 476 pack 0 50;
#X obj 552 498 line~;
#X obj 537 570 *~;
#X obj 109 156 knob 32 32 0 127 0 1 empty empty INTERVAL 0 -8 1 8 -262144
-1 -1 24 1;
#X obj 102 -1 inlet~;
#X obj 102 21 *~ 127;
#X obj 537 592 *~ 0.33;
#X text 102 -18 ROOT;
#X obj 219 -6 inlet~;
#X obj 219 16 *~ 127;
#X obj 219 38 snapshot~;
#X obj 219 60 t b f;
#X text 219 -23 INTERVAL;
#X obj 107 130 cnv 5 1 1 empty empty TRIAD-WAVEFORMS 0 0 1 14 -233017
-66577 0;
#X obj 105 105 cnv 5 10 10 empty empty ROOT 0 5 1 7 -228856 -66577
0;
#X obj 132 105 cnv 5 10 10 empty empty INT1 0 5 1 7 -228856 -66577
0;
#X text 535 694 MIX OUT;
#X obj 108 285 cnv 5 10 10 empty empty TRIAD 0 5 1 7 -228856 -66577
0;
#X obj 710 149 t b f;
#X obj 710 127 / 10.6;
#X obj 710 -3 inlet~;
#X obj 710 19 *~ 127;
#X obj 710 41 snapshot~;
#X obj 710 63 t b f;
#X obj 710 90 +;
#X text 709 -20 INTERVAL2;
#X obj 156 156 knob 32 32 0 127 0 1 empty empty INTERVAL2 0 -8 1 8
-262144 -1 -1 24 1;
#X obj 109 262 tgl 15 1 empty empty Q-LOCK 17 7 1 10 -262144 -1 -1
1 1;
#N canvas 588 32 522 657 lopass-filter 0;
#X obj -111 301 lop~;
#X obj 14 107 / 127;
#X obj -114 7 inlet~;
#X obj -111 488 outlet~;
#X obj 14 11 inlet;
#X text -117 -15 SIGNAL IN;
#X text 13 -10 CUT OFF IN;
#X obj 14 136 * 9900;
#X obj 14 190 t f f f f f;
#N canvas 506 107 491 425 bandpass-series 0;
#X obj 65 30 inlet~;
#X obj 65 208 vcf~ 10;
#X obj 84 179 sig~;
#X obj 84 150 inlet;
#X obj 201 178 sig~;
#X obj 201 121 inlet;
#X obj 179 207 vcf~ 7.5;
#X obj 284 177 sig~;
#X obj 268 206 vcf~ 5;
#X obj 284 113 inlet;
#X obj 353 177 sig~;
#X obj 353 113 inlet;
#X obj 331 206 vcf~ 2.5;
#X obj 284 147 - 50;
#X obj 201 148 - 25;
#X obj 353 147 - 75;
#X obj 181 379 outlet~;
#X obj 181 344 *~ 0.125;
#X connect 0 0 1 0;
#X connect 0 0 6 0;
#X connect 0 0 8 0;
#X connect 0 0 12 0;
#X connect 1 0 17 0;
#X connect 2 0 1 1;
#X connect 3 0 2 0;
#X connect 4 0 6 1;
#X connect 5 0 14 0;
#X connect 6 0 17 0;
#X connect 7 0 8 1;
#X connect 8 0 17 0;
#X connect 9 0 13 0;
#X connect 10 0 12 1;
#X connect 11 0 15 0;
#X connect 12 0 17 0;
#X connect 13 0 7 0;
#X connect 14 0 4 0;
#X connect 15 0 10 0;
#X connect 17 0 16 0;
#X restore -25 248 pd bandpass-series;
#X obj -111 405 *~;
#X obj 14 34 t f f;
#X obj 126 241 / 127;
#X obj 126 263 * 1;
#X obj 126 285 + 1;
#X obj 126 307 pack f 50;
#X obj 126 329 line~;
#X msg 126 192 127 \$1;
#X obj 126 214 -;
#X obj 14 158 + 100;
#X obj 14 82 line;
#X msg 14 60 \$1 50;
#X obj -111 449 *~ 0.5;
#X connect 0 0 10 0;
#X connect 1 0 7 0;
#X connect 2 0 0 0;
#X connect 2 0 9 0;
#X connect 4 0 11 0;
#X connect 7 0 19 0;
#X connect 8 0 0 1;
#X connect 8 1 9 1;
#X connect 8 2 9 2;
#X connect 8 3 9 3;
#X connect 8 4 9 4;
#X connect 9 0 0 0;
#X connect 10 0 22 0;
#X connect 11 0 21 0;
#X connect 11 1 17 0;
#X connect 12 0 13 0;
#X connect 13 0 14 0;
#X connect 14 0 15 0;
#X connect 15 0 16 0;
#X connect 16 0 10 1;
#X connect 17 0 18 0;
#X connect 18 0 12 0;
#X connect 19 0 8 0;
#X connect 20 0 1 0;
#X connect 21 0 20 0;
#X connect 22 0 3 0;
#X restore 537 618 pd lopass-filter;
#X obj 203 156 knob 32 32 0 127 0 1 empty empty LOWPASS 0 -8 1 8 -262144
-1 -1 24 1;
#X obj 834 4 inlet~;
#X obj 835 175 *~ 127;
#X obj 835 197 snapshot~;
#X text 833 -13 LOWPASS;
#X obj 630 561 +;
#X obj 552 431 +;
#X obj 902 370 inlet~;
#X obj 902 414 snapshot~;
#X obj 902 436 t b f;
#X text 901 353 VCA;
#X obj 203 206 knob 32 32 0 127 0 1 empty empty LP.CV-/+ 0 -8 1 8 -262144
-259828 -1 24 1;
#X obj 899 14 / 127;
#X obj 899 36 * 2;
#X obj 899 58 - 1;
#X obj 899 80 pack f 50;
#X obj 899 102 line~;
#X obj 835 143 *~;
#X obj 169 105 cnv 5 10 10 empty empty INT2 0 5 1 7 -228856 -66577
0;
#X obj 207 105 cnv 5 10 10 empty empty LP 0 5 1 7 -228856 -259828 0
;
#X obj 230 105 cnv 5 10 10 empty empty VCA 0 5 1 7 -228856 -66577 0
;
#X obj 13 544 tabread aeolian;
#X obj 13 502 r \$0-scales;
#X obj 82 463 / 127;
#X obj 82 486 * 28;
#X obj 82 413 spigot;
#X obj 139 424 spigot;
#X obj 172 375 == 0;
#X obj 82 386 t f f;
#X obj 82 362 +;
#X obj 133 338 t b f f;
#N canvas 493 178 467 418 ROOT 0;
#X obj 175 133 phasor~;
#X obj 175 183 *~ -1;
#X obj 175 206 +~ 1;
#X obj 175 228 *~ 2;
#X obj 175 256 -~ 1;
#X obj 175 101 mtof~;
#X obj 175 74 +~;
#X obj 175 41 sig~;
#X obj 175 19 inlet;
#X obj 175 278 outlet~;
#X connect 0 0 1 0;
#X connect 1 0 2 0;
#X connect 2 0 3 0;
#X connect 3 0 4 0;
#X connect 4 0 9 0;
#X connect 5 0 0 0;
#X connect 6 0 5 0;
#X connect 7 0 6 0;
#X connect 8 0 7 0;
#X restore 384 514 pd ROOT;
#N canvas 493 178 467 418 INTERVAL-1 0;
#X obj 175 133 phasor~;
#X obj 175 183 *~ -1;
#X obj 175 206 +~ 1;
#X obj 175 228 *~ 2;
#X obj 175 256 -~ 1;
#X obj 175 101 mtof~;
#X obj 175 74 +~;
#X obj 175 41 sig~;
#X obj 175 19 inlet;
#X obj 175 278 outlet~;
#X connect 0 0 1 0;
#X connect 1 0 2 0;
#X connect 2 0 3 0;
#X connect 3 0 4 0;
#X connect 4 0 9 0;
#X connect 5 0 0 0;
#X connect 6 0 5 0;
#X connect 7 0 6 0;
#X connect 8 0 7 0;
#X restore 536 365 pd INTERVAL-1;
#N canvas 493 178 467 418 INTERVAL-2 0;
#X obj 175 133 phasor~;
#X obj 175 183 *~ -1;
#X obj 175 206 +~ 1;
#X obj 175 228 *~ 2;
#X obj 175 256 -~ 1;
#X obj 175 101 mtof~;
#X obj 175 74 +~;
#X obj 175 41 sig~;
#X obj 175 19 inlet;
#X obj 175 278 outlet~;
#X connect 0 0 1 0;
#X connect 1 0 2 0;
#X connect 2 0 3 0;
#X connect 3 0 4 0;
#X connect 4 0 9 0;
#X connect 5 0 0 0;
#X connect 6 0 5 0;
#X connect 7 0 6 0;
#X connect 8 0 7 0;
#X restore 630 472 pd INTERVAL-2;
#X obj 83 330 t f f;
#X obj 290 134 / 10.6;
#X obj 290 97 +;
#X obj 484 77 t f f f;
#X obj 285 164 t b f;
#X obj 711 256 t f f;
#X obj 738 403 tabread aeolian;
#X obj 737 333 / 127;
#X obj 738 355 * 28;
#X obj 503 128 + -12.1;
#X obj 710 199 + 11.9;
#X obj 710 176 +;
#X obj 503 105 +;
#X floatatom 775 396 5 0 0 0 - - -;
#X obj 84 513 i;
#X floatatom 120 526 5 0 0 0 - - -;
#X obj 738 278 moses 127;
#X obj 737 312 spigot;
#X obj 634 339 spigot;
#X obj 503 154 t f f;
#X obj 529 233 / 127;
#X obj 531 284 i;
#X obj 531 263 * 28;
#X obj 530 176 moses 127;
#X obj 529 210 spigot;
#X obj 426 326 spigot;
#X obj 532 309 tabread aeolian;
#X obj 270 390 == 0;
#X obj 231 353 t b f f;
#X obj 737 378 i;
#X obj 25 586 + 36;
#X obj 538 337 + 36;
#X obj 688 444 + 36;
#X obj 100 48 snapshot~;
#X obj 100 70 t b f;
#X obj 63 304 +;
#X obj 153 285 cnv 5 10 10 empty empty ROOT 0 5 1 7 -228856 -66577
0;
#X obj 190 285 cnv 5 10 10 empty empty INT1 0 5 1 7 -228856 -66577
0;
#X obj 226 285 cnv 5 10 10 empty empty INT2 0 5 1 7 -228856 -66577
0;
#X obj 670 670 outlet~;
#X obj 740 671 outlet~;
#X obj 803 666 outlet~;
#X obj 585 650 lop~;
#X obj 779 547 / 127;
#X obj 779 576 * 9900;
#X obj 779 598 + 100;
#X obj 779 522 line;
#X msg 779 500 \$1 50;
#X obj 657 613 +;
#X obj 835 219 t b f b f;
#X obj 149 23 bang~;
#X obj 268 13 bang~;
#X obj 759 16 bang~;
#X obj 884 172 bang~;
#X obj 951 389 bang~;
#X obj 902 392 *~ 127;
#X floatatom 958 485 5 0 0 0 - - -;
#X connect 2 0 103 0;
#X connect 3 0 40 0;
#X connect 4 0 5 0;
#X connect 5 0 6 0;
#X connect 6 0 7 1;
#X connect 7 0 11 0;
#X connect 8 0 70 0;
#X connect 9 0 10 0;
#X connect 10 0 101 0;
#X connect 11 0 33 0;
#X connect 13 0 14 0;
#X connect 14 0 15 0;
#X connect 15 0 16 0;
#X connect 16 0 70 0;
#X connect 16 1 70 1;
#X connect 23 0 79 0;
#X connect 23 1 79 1;
#X connect 24 0 23 0;
#X connect 25 0 26 0;
#X connect 26 0 27 0;
#X connect 27 0 28 0;
#X connect 28 0 29 0;
#X connect 28 1 29 1;
#X connect 29 0 24 0;
#X connect 31 0 29 0;
#X connect 32 0 64 0;
#X connect 32 0 96 0;
#X connect 33 0 110 0;
#X connect 34 0 39 0;
#X connect 34 0 116 0;
#X connect 35 0 51 0;
#X connect 36 0 37 0;
#X connect 37 0 117 0;
#X connect 39 0 33 1;
#X connect 40 0 4 0;
#X connect 41 0 123 0;
#X connect 42 0 43 0;
#X connect 42 0 124 0;
#X connect 43 0 40 0;
#X connect 43 1 40 1;
#X connect 45 0 46 0;
#X connect 46 0 47 0;
#X connect 47 0 48 0;
#X connect 48 0 49 0;
#X connect 49 0 50 0;
#X connect 50 0 51 1;
#X connect 51 0 36 0;
#X connect 55 0 98 0;
#X connect 56 0 55 0;
#X connect 56 0 94 0;
#X connect 56 0 74 0;
#X connect 57 0 58 0;
#X connect 58 0 82 0;
#X connect 59 0 57 0;
#X connect 60 0 71 0;
#X connect 61 0 60 1;
#X connect 62 0 59 0;
#X connect 62 1 60 0;
#X connect 63 0 62 0;
#X connect 64 0 63 0;
#X connect 64 1 59 1;
#X connect 64 2 61 0;
#X connect 65 0 7 0;
#X connect 65 0 107 0;
#X connect 66 0 7 0;
#X connect 66 0 108 0;
#X connect 67 0 7 0;
#X connect 67 0 109 0;
#X connect 68 0 63 0;
#X connect 68 1 71 0;
#X connect 69 0 72 0;
#X connect 70 0 69 0;
#X connect 71 0 65 0;
#X connect 71 1 80 0;
#X connect 71 2 79 0;
#X connect 72 0 80 0;
#X connect 72 1 80 1;
#X connect 73 0 86 0;
#X connect 73 1 84 0;
#X connect 74 0 100 0;
#X connect 75 0 76 0;
#X connect 76 0 97 0;
#X connect 77 0 87 0;
#X connect 78 0 73 0;
#X connect 79 0 78 0;
#X connect 80 0 77 0;
#X connect 82 0 55 0;
#X connect 82 0 83 0;
#X connect 84 0 85 0;
#X connect 85 0 75 0;
#X connect 86 0 67 0;
#X connect 87 0 93 0;
#X connect 87 1 91 0;
#X connect 88 0 90 0;
#X connect 89 0 94 0;
#X connect 90 0 89 0;
#X connect 91 0 92 0;
#X connect 92 0 88 0;
#X connect 93 0 66 0;
#X connect 94 0 99 0;
#X connect 95 0 93 1;
#X connect 95 0 86 1;
#X connect 96 0 80 0;
#X connect 96 0 79 0;
#X connect 96 1 92 1;
#X connect 96 1 85 1;
#X connect 96 2 95 0;
#X connect 97 0 81 0;
#X connect 97 0 74 0;
#X connect 98 0 65 0;
#X connect 99 0 66 0;
#X connect 100 0 67 0;
#X connect 101 0 102 0;
#X connect 102 0 103 0;
#X connect 102 1 103 1;
#X connect 103 0 68 0;
#X connect 110 0 1 0;
#X connect 111 0 112 0;
#X connect 112 0 113 0;
#X connect 113 0 110 1;
#X connect 114 0 111 0;
#X connect 115 0 114 0;
#X connect 116 0 115 0;
#X connect 117 0 39 0;
#X connect 117 1 39 1;
#X connect 117 2 116 0;
#X connect 117 3 116 1;
#X connect 118 0 101 0;
#X connect 119 0 15 0;
#X connect 120 0 27 0;
#X connect 121 0 37 0;
#X connect 122 0 42 0;
#X connect 123 0 42 0;
#X coords 0 -1 1 1 150 200 2 100 100;
