#N canvas 0 22 1123 634 10;
#X obj 105 104 cnv 15 140 190 empty empty empty 10 20 1 14 -237178
-1 0;
#N canvas 340 197 740 464 lpg-1 0;
#X obj 119 365 lop~;
#X obj 238 311 snapshot~;
#X obj 356 56 inlet~;
#X obj 119 145 inlet~;
#X obj 119 437 outlet~;
#X obj 238 129 sig~;
#X obj 238 105 / 127;
#X obj 238 155 +~;
#X obj 238 83 - 1.27;
#X obj 356 138 *~;
#X obj 408 99 pack 0 10;
#X obj 408 121 line~;
#X text 408 14 CV ATTENUATOR;
#X obj 449 144 / 127;
#X text 115 125 SIGNAL IN;
#X text 352 38 CV IN;
#X obj 238 348 * 20000;
#X obj 449 188 + 1;
#X obj 449 166 * 19;
#X obj 238 254 lop~ 1;
#X obj 408 77 / 127;
#X obj 408 53 - 1.27;
#X obj 590 85 inlet~;
#X obj 590 138 snapshot~;
#X obj 449 237 +;
#X obj 590 220 t b f;
#X obj 590 160 * 19;
#X obj 590 182 + 1;
#X obj 238 43 inlet;
#X text 235 24 LEVEL;
#X obj 408 32 inlet;
#X obj 449 121 inlet;
#X text 495 121 RING/DAMP;
#X obj 636 87 bang~;
#X obj 265 285 bang~;
#X connect 0 0 4 0;
#X connect 1 0 16 0;
#X connect 2 0 9 0;
#X connect 3 0 0 0;
#X connect 5 0 7 0;
#X connect 6 0 5 0;
#X connect 7 0 19 0;
#X connect 8 0 6 0;
#X connect 9 0 7 1;
#X connect 10 0 11 0;
#X connect 11 0 9 1;
#X connect 13 0 18 0;
#X connect 16 0 0 1;
#X connect 17 0 24 0;
#X connect 18 0 17 0;
#X connect 19 0 1 0;
#X connect 20 0 10 0;
#X connect 21 0 20 0;
#X connect 22 0 23 0;
#X connect 23 0 26 0;
#X connect 24 0 19 1;
#X connect 25 0 24 0;
#X connect 25 1 24 1;
#X connect 26 0 27 0;
#X connect 27 0 25 0;
#X connect 28 0 8 0;
#X connect 30 0 21 0;
#X connect 31 0 13 0;
#X connect 33 0 23 0;
#X connect 34 0 1 0;
#X restore 305 349 pd lpg-1;
#X obj 111 144 knob 32 32 1.27 127 1 1 empty empty LPG1 0 -8 1 12 -262144
-1 -1 0 1;
#X obj 111 246 knob 32 32 1.27 127 1 1 empty empty R/D1 0 -8 1 12 -262144
-1 -1 0 1;
#X obj 111 195 knob 32 32 1.27 127 1 1 empty empty CV1 0 -8 1 12 -262144
-4160 -1 0 1;
#X obj 305 145 inlet~;
#X obj 327 201 inlet~;
#X obj 305 421 outlet~;
#X obj 350 303 inlet~;
#X text 304 126 SIGNAL IN;
#X text 328 178 CV IN;
#X text 350 285 RING/DAMP;
#X obj 106 104 cnv 5 10 10 empty empty IN 0 5 1 7 -228856 -66577 0
;
#X obj 117 104 cnv 5 10 10 empty empty CV 0 5 1 7 -228856 -4160 0;
#X obj 431 140 inlet~;
#X obj 453 196 inlet~;
#X obj 431 418 outlet~;
#X obj 476 298 inlet~;
#X text 430 121 SIGNAL IN;
#X text 454 173 CV IN;
#X text 476 280 RING/DAMP;
#X obj 158 144 knob 32 32 1.27 127 1 1 empty empty LPG2 0 -8 1 12 -262144
-1 -1 0 1;
#X obj 158 246 knob 32 32 1.27 127 1 1 empty empty R/D2 0 -8 1 12 -262144
-1 -1 0 1;
#X obj 158 195 knob 32 32 1.27 127 1 1 empty empty CV2 0 -8 1 12 -262144
-4160 -1 0 1;
#X obj 133 104 cnv 5 10 10 empty empty R/D 0 5 1 7 -228856 -66577 0
;
#X obj 154 104 cnv 5 10 10 empty empty IN2 0 5 1 7 -228856 -66577 0
;
#X obj 169 104 cnv 5 10 10 empty empty CV2 0 5 1 7 -228856 -4160 0
;
#X obj 187 104 cnv 5 10 10 empty empty R/D 0 5 1 7 -228856 -66577 0
;
#X text 431 438 LPG2 OUT;
#X text 305 442 LPG1 OUT;
#N canvas 340 197 740 464 lpg-2 0;
#X obj 119 365 lop~;
#X obj 238 311 snapshot~;
#X obj 356 56 inlet~;
#X obj 119 145 inlet~;
#X obj 119 437 outlet~;
#X obj 238 129 sig~;
#X obj 238 105 / 127;
#X obj 238 155 +~;
#X obj 238 83 - 1.27;
#X obj 356 138 *~;
#X obj 408 99 pack 0 10;
#X obj 408 121 line~;
#X text 408 14 CV ATTENUATOR;
#X obj 449 144 / 127;
#X text 115 125 SIGNAL IN;
#X text 352 38 CV IN;
#X obj 238 348 * 20000;
#X obj 449 188 + 1;
#X obj 449 166 * 19;
#X obj 238 254 lop~ 1;
#X obj 408 77 / 127;
#X obj 408 53 - 1.27;
#X obj 590 85 inlet~;
#X obj 590 138 snapshot~;
#X obj 449 237 +;
#X obj 590 220 t b f;
#X obj 590 160 * 19;
#X obj 590 182 + 1;
#X obj 238 43 inlet;
#X text 235 24 LEVEL;
#X obj 408 32 inlet;
#X obj 449 121 inlet;
#X text 495 121 RING/DAMP;
#X obj 265 285 bang~;
#X obj 636 87 bang~;
#X connect 0 0 4 0;
#X connect 1 0 16 0;
#X connect 2 0 9 0;
#X connect 3 0 0 0;
#X connect 5 0 7 0;
#X connect 6 0 5 0;
#X connect 7 0 19 0;
#X connect 8 0 6 0;
#X connect 9 0 7 1;
#X connect 10 0 11 0;
#X connect 11 0 9 1;
#X connect 13 0 18 0;
#X connect 16 0 0 1;
#X connect 17 0 24 0;
#X connect 18 0 17 0;
#X connect 19 0 1 0;
#X connect 20 0 10 0;
#X connect 21 0 20 0;
#X connect 22 0 23 0;
#X connect 23 0 26 0;
#X connect 24 0 19 1;
#X connect 25 0 24 0;
#X connect 25 1 24 1;
#X connect 26 0 27 0;
#X connect 27 0 25 0;
#X connect 28 0 8 0;
#X connect 30 0 21 0;
#X connect 31 0 13 0;
#X connect 33 0 1 0;
#X connect 34 0 23 0;
#X restore 431 344 pd lpg-2;
#X obj 911 477 outlet~;
#X text 919 501 SUM OUT;
#X obj 207 104 cnv 5 10 10 empty empty IN3 0 5 1 7 -228856 -66577 0
;
#X obj 220 104 cnv 5 10 10 empty empty CV3 0 5 1 7 -228856 -4160 0
;
#X obj 118 124 cnv 5 5 5 empty empty TRIO-DYNAMICS 0 0 1 14 -233017
-66577 0;
#X obj 108 284 cnv 5 10 10 empty empty LPG1 0 5 1 7 -228856 -66577
0;
#X obj 143 284 cnv 5 10 10 empty empty LPG2 0 5 1 7 -228856 -66577
0;
#X obj 193 284 cnv 5 10 10 empty empty LPG3 0 5 1 7 -228856 -66577
0;
#X obj 228 284 cnv 5 10 10 empty empty TRIO 0 5 1 7 -228856 -66577
0;
#X obj 306 389 *~ 2;
#X obj 663 150 inlet~;
#X obj 685 206 inlet~;
#X obj 663 428 outlet~;
#X obj 708 308 inlet~;
#X text 662 131 SIGNAL IN;
#X text 686 183 CV IN;
#X text 708 290 RING/DAMP;
#X text 663 448 LPG2 OUT;
#N canvas 340 197 740 464 lpg-2 0;
#X obj 119 365 lop~;
#X obj 238 311 snapshot~;
#X obj 356 56 inlet~;
#X obj 119 145 inlet~;
#X obj 119 437 outlet~;
#X obj 238 129 sig~;
#X obj 238 105 / 127;
#X obj 238 155 +~;
#X obj 238 83 - 1.27;
#X obj 356 138 *~;
#X obj 408 99 pack 0 10;
#X obj 408 121 line~;
#X text 408 14 CV ATTENUATOR;
#X obj 449 144 / 127;
#X text 115 125 SIGNAL IN;
#X text 352 38 CV IN;
#X obj 238 348 * 20000;
#X obj 449 188 + 1;
#X obj 449 166 * 19;
#X obj 238 254 lop~ 1;
#X obj 408 77 / 127;
#X obj 408 53 - 1.27;
#X obj 590 85 inlet~;
#X obj 590 138 snapshot~;
#X obj 449 237 +;
#X obj 590 220 t b f;
#X obj 590 160 * 19;
#X obj 590 182 + 1;
#X obj 238 43 inlet;
#X text 235 24 LEVEL;
#X obj 408 32 inlet;
#X obj 449 121 inlet;
#X text 495 121 RING/DAMP;
#X obj 265 285 bang~;
#X obj 636 87 bang~;
#X connect 0 0 4 0;
#X connect 1 0 16 0;
#X connect 2 0 9 0;
#X connect 3 0 0 0;
#X connect 5 0 7 0;
#X connect 6 0 5 0;
#X connect 7 0 19 0;
#X connect 8 0 6 0;
#X connect 9 0 7 1;
#X connect 10 0 11 0;
#X connect 11 0 9 1;
#X connect 13 0 18 0;
#X connect 16 0 0 1;
#X connect 17 0 24 0;
#X connect 18 0 17 0;
#X connect 19 0 1 0;
#X connect 20 0 10 0;
#X connect 21 0 20 0;
#X connect 22 0 23 0;
#X connect 23 0 26 0;
#X connect 24 0 19 1;
#X connect 25 0 24 0;
#X connect 25 1 24 1;
#X connect 26 0 27 0;
#X connect 27 0 25 0;
#X connect 28 0 8 0;
#X connect 30 0 21 0;
#X connect 31 0 13 0;
#X connect 33 0 1 0;
#X connect 34 0 23 0;
#X restore 663 354 pd lpg-2;
#X obj 429 382 *~ 2;
#X obj 661 392 *~ 2;
#X obj 206 144 knob 32 32 1.27 127 1 1 empty empty LPG3 0 -8 1 12 -262144
-1 -1 0 1;
#X obj 206 246 knob 32 32 1.27 127 1 1 empty empty R/D3 0 -8 1 12 -262144
-1 -1 0 1;
#X obj 206 195 knob 32 32 1.27 127 1 1 empty empty CV3 0 -8 1 12 -262144
-4160 -1 0 1;
#X obj 235 104 cnv 5 10 10 empty empty R/D 0 5 1 7 -228856 -66577 0
;
#X connect 1 0 31 0;
#X connect 1 0 40 0;
#X connect 2 0 1 1;
#X connect 3 0 1 4;
#X connect 4 0 1 3;
#X connect 5 0 1 0;
#X connect 6 0 1 2;
#X connect 8 0 1 5;
#X connect 14 0 30 0;
#X connect 15 0 30 2;
#X connect 17 0 30 5;
#X connect 21 0 30 1;
#X connect 22 0 30 4;
#X connect 23 0 30 3;
#X connect 30 0 31 0;
#X connect 30 0 50 0;
#X connect 40 0 7 0;
#X connect 41 0 49 0;
#X connect 42 0 49 2;
#X connect 44 0 49 5;
#X connect 49 0 51 0;
#X connect 49 0 31 0;
#X connect 50 0 16 0;
#X connect 51 0 43 0;
#X connect 52 0 49 1;
#X connect 53 0 49 4;
#X connect 54 0 49 3;
#X coords 0 -1 1 1 150 200 2 100 100;
