#N canvas 0 22 1067 644 10;
#X obj 105 105 cnv 15 215 190 empty empty empty 20 12 0 7 -233017 -1
0;
#X obj 138 229 cnv 10 150 10 empty empty empty 20 12 0 14 -261234 -66577
0;
#X obj 138 204 cnv 10 150 10 empty empty empty 20 12 0 14 -204786 -66577
0;
#X obj 138 182 cnv 10 150 10 \$0-tunnels-morph12-s empty empty 20 12
0 14 -204800 -66577 0;
#X obj 138 158 cnv 10 150 10 empty empty empty 20 12 0 14 -262144 -66577
0;
#X obj 244 126 cnv 10 10 150 empty empty empty 20 12 0 14 -261234 -66577
0;
#X obj 223 126 cnv 10 10 150 empty empty empty 20 12 0 14 -204786 -66577
0;
#X obj 199 126 cnv 10 10 150 empty empty empty 20 12 0 14 -204800 -66577
0;
#X obj 177 126 cnv 10 10 150 empty empty empty 20 12 1 14 -262144 -66577
0;
#X obj 171 151 tgl 20 1 \$0-tunnels-t1-s \$0-tunnels-t1-r empty 17
7 0 10 -262144 -1 -1 0 1;
#X obj 194 151 tgl 20 1 \$0-tunnels-t5-s \$0-tunnels-t5-r empty 17
7 0 10 -262144 -1 -1 0 1;
#X obj 218 151 tgl 20 1 \$0-tunnels-t9-s \$0-tunnels-t9-r empty 17
7 0 10 -262144 -1 -1 0 1;
#X obj 241 151 tgl 20 1 \$0-tunnels-t13-s \$0-tunnels-t13-r empty 17
7 0 10 -262144 -1 -1 0 1;
#X obj 171 175 tgl 20 1 \$0-tunnels-t2-s \$0-tunnels-t2-r empty 17
7 0 10 -204800 -1 -1 0 1;
#X obj 194 175 tgl 20 1 \$0-tunnels-t6-s \$0-tunnels-t6-r empty 17
7 0 10 -204800 -1 -1 0 1;
#X obj 218 175 tgl 20 1 \$0-tunnels-t10-s \$0-tunnels-t10-r empty 17
7 0 10 -204800 -1 -1 0 1;
#X obj 241 175 tgl 20 1 \$0-tunnels-t14-s \$0-tunnels-t14-r empty 17
7 0 10 -204800 -1 -1 0 1;
#X obj 171 199 tgl 20 1 \$0-tunnels-t3-s \$0-tunnels-t3-r empty 17
7 0 10 -204786 -1 -1 0 1;
#X obj 194 199 tgl 20 1 \$0-tunnels-t7-s \$0-tunnels-t7-r empty 17
7 0 10 -204786 -1 -1 0 1;
#X obj 218 199 tgl 20 1 \$0-tunnels-t11-s \$0-tunnels-t11-r empty 17
7 0 10 -204786 -1 -1 0 1;
#X obj 241 199 tgl 20 1 \$0-tunnels-t15-s \$0-tunnels-t15-r empty 17
7 0 10 -204786 -1 -1 0 1;
#X obj 171 223 tgl 20 1 \$0-tunnels-t4-s \$0-tunnels-t4-r empty 17
7 0 10 -261234 -1 -1 0 1;
#X obj 194 223 tgl 20 1 \$0-tunnels-t8-s \$0-tunnels-t8-r empty 17
7 0 10 -261234 -1 -1 0 1;
#X obj 218 223 tgl 20 1 \$0-tunnels-t12-s \$0-tunnels-t12-r empty 17
7 0 10 -261234 -1 -1 0 1;
#X obj 241 223 tgl 20 1 \$0-tunnels-t16-s \$0-tunnels-t16-r empty 17
7 0 10 -261234 -1 -1 0 1;
#X text 157 153 1;
#X text 157 177 2;
#X text 157 201 3;
#X text 157 225 4;
#X obj 305 29 inlet~;
#X text 288 7 TUNNEL 1 IN;
#X obj 271 588 outlet~;
#X obj 522 38 inlet~;
#X obj 842 40 inlet~;
#X obj 1080 42 inlet~;
#X text 503 18 TUNNEL 2 IN;
#X text 837 17 TUNNEL 3 IN;
#X text 1071 21 TUNNEL 4 IN;
#X obj 369 34 inlet~;
#X obj 369 56 threshold~ 1 0 1 0;
#X obj 552 63 inlet~;
#X obj 552 85 threshold~ 1 0 1 0;
#X obj 889 78 inlet~;
#X obj 889 100 threshold~ 1 0 1 0;
#X obj 1099 66 inlet~;
#X obj 1099 88 threshold~ 1 0 1 0;
#X obj 412 588 outlet~;
#N canvas 263 62 902 562 tunnel-B 0;
#X obj 325 276 *~;
#X obj 340 248 line~;
#X obj 340 220 pack f 50;
#X obj 459 247 *~;
#X obj 474 219 line~;
#X obj 474 191 pack f 50;
#X obj 605 246 *~;
#X obj 620 218 line~;
#X obj 620 190 pack f 50;
#X obj 741 244 *~;
#X obj 756 216 line~;
#X obj 756 188 pack f 50;
#X obj 457 359 outlet~;
#X obj 325 98 inlet~;
#X obj 458 98 inlet~;
#X obj 606 98 inlet~;
#X obj 740 80 inlet~;
#X obj 340 191 r \$0-tunnels-t5-s;
#X obj 474 162 r \$0-tunnels-t6-s;
#X obj 620 161 r \$0-tunnels-t7-s;
#X obj 756 159 r \$0-tunnels-t8-s;
#X obj 533 46 / 127;
#X obj 533 112 t f f f f;
#X obj 533 90 + 50;
#X obj 533 24 r \$0-tunnels-morph34-s;
#X obj 533 68 * 4950;
#X connect 0 0 12 0;
#X connect 1 0 0 1;
#X connect 2 0 1 0;
#X connect 3 0 12 0;
#X connect 4 0 3 1;
#X connect 5 0 4 0;
#X connect 6 0 12 0;
#X connect 7 0 6 1;
#X connect 8 0 7 0;
#X connect 9 0 12 0;
#X connect 10 0 9 1;
#X connect 11 0 10 0;
#X connect 13 0 0 0;
#X connect 14 0 3 0;
#X connect 15 0 6 0;
#X connect 16 0 9 0;
#X connect 17 0 2 0;
#X connect 18 0 5 0;
#X connect 19 0 8 0;
#X connect 20 0 11 0;
#X connect 21 0 25 0;
#X connect 22 0 2 1;
#X connect 22 1 5 1;
#X connect 22 2 8 1;
#X connect 22 3 11 1;
#X connect 23 0 22 0;
#X connect 24 0 21 0;
#X connect 25 0 23 0;
#X restore 412 532 pd tunnel-B;
#N canvas 482 279 549 430 tunnel-A 0;
#X obj 325 276 *~;
#X obj 340 248 line~;
#X obj 340 220 pack f 50;
#X obj 340 191 r \$0-tunnels-t1-s;
#X obj 459 247 *~;
#X obj 474 219 line~;
#X obj 474 191 pack f 50;
#X obj 474 162 r \$0-tunnels-t2-s;
#X obj 605 246 *~;
#X obj 620 218 line~;
#X obj 620 190 pack f 50;
#X obj 620 161 r \$0-tunnels-t3-s;
#X obj 741 244 *~;
#X obj 756 216 line~;
#X obj 756 188 pack f 50;
#X obj 756 159 r \$0-tunnels-t4-s;
#X obj 497 359 outlet~;
#X obj 325 98 inlet~;
#X obj 454 98 inlet~;
#X obj 606 98 inlet~;
#X obj 740 80 inlet~;
#X obj 523 36 / 127;
#X obj 523 102 t f f f f;
#X obj 523 80 + 50;
#X obj 523 14 r \$0-tunnels-morph34-s;
#X obj 523 58 * 4950;
#X connect 0 0 16 0;
#X connect 1 0 0 1;
#X connect 2 0 1 0;
#X connect 3 0 2 0;
#X connect 4 0 16 0;
#X connect 5 0 4 1;
#X connect 6 0 5 0;
#X connect 7 0 6 0;
#X connect 8 0 16 0;
#X connect 9 0 8 1;
#X connect 10 0 9 0;
#X connect 11 0 10 0;
#X connect 12 0 16 0;
#X connect 13 0 12 1;
#X connect 14 0 13 0;
#X connect 15 0 14 0;
#X connect 17 0 0 0;
#X connect 18 0 4 0;
#X connect 19 0 8 0;
#X connect 20 0 12 0;
#X connect 21 0 25 0;
#X connect 22 0 2 1;
#X connect 22 1 6 1;
#X connect 22 2 10 1;
#X connect 22 3 14 1;
#X connect 23 0 22 0;
#X connect 24 0 21 0;
#X connect 25 0 23 0;
#X restore 271 532 pd tunnel-A;
#X obj 540 586 outlet~;
#N canvas 398 219 630 430 tunnel-C 0;
#X obj 57 318 *~;
#X obj 72 290 line~;
#X obj 72 262 pack f 50;
#X obj 191 289 *~;
#X obj 206 261 line~;
#X obj 206 233 pack f 50;
#X obj 337 288 *~;
#X obj 352 260 line~;
#X obj 352 232 pack f 50;
#X obj 473 286 *~;
#X obj 488 258 line~;
#X obj 488 230 pack f 50;
#X obj 229 401 outlet~;
#X obj 57 140 inlet~;
#X obj 186 140 inlet~;
#X obj 338 140 inlet~;
#X obj 472 122 inlet~;
#X obj 72 233 r \$0-tunnels-t9-s;
#X obj 206 204 r \$0-tunnels-t10-s;
#X obj 352 203 r \$0-tunnels-t11-s;
#X obj 488 201 r \$0-tunnels-t12-s;
#X obj 285 42 / 127;
#X obj 285 86 + 50;
#X obj 285 108 t f f f f;
#X obj 285 20 r \$0-tunnels-morph34-s;
#X obj 285 64 * 4950;
#X connect 0 0 12 0;
#X connect 1 0 0 1;
#X connect 2 0 1 0;
#X connect 3 0 12 0;
#X connect 4 0 3 1;
#X connect 5 0 4 0;
#X connect 6 0 12 0;
#X connect 7 0 6 1;
#X connect 8 0 7 0;
#X connect 9 0 12 0;
#X connect 10 0 9 1;
#X connect 11 0 10 0;
#X connect 13 0 0 0;
#X connect 14 0 3 0;
#X connect 15 0 6 0;
#X connect 16 0 9 0;
#X connect 17 0 2 0;
#X connect 18 0 5 0;
#X connect 19 0 8 0;
#X connect 20 0 11 0;
#X connect 21 0 25 0;
#X connect 22 0 23 0;
#X connect 23 0 2 1;
#X connect 23 1 5 1;
#X connect 23 2 8 1;
#X connect 23 3 11 1;
#X connect 24 0 21 0;
#X connect 25 0 22 0;
#X restore 540 530 pd tunnel-C;
#X obj 640 589 outlet~;
#N canvas 539 245 549 430 tunnel-C 0;
#X obj 47 295 *~;
#X obj 62 267 line~;
#X obj 62 239 pack f 50;
#X obj 181 266 *~;
#X obj 196 238 line~;
#X obj 196 210 pack f 50;
#X obj 327 265 *~;
#X obj 342 237 line~;
#X obj 342 209 pack f 50;
#X obj 463 263 *~;
#X obj 478 235 line~;
#X obj 478 207 pack f 50;
#X obj 219 378 outlet~;
#X obj 47 117 inlet~;
#X obj 176 117 inlet~;
#X obj 328 117 inlet~;
#X obj 462 99 inlet~;
#X obj 478 178 r \$0-tunnels-t16-s;
#X obj 342 180 r \$0-tunnels-t15-s;
#X obj 196 181 r \$0-tunnels-t14-s;
#X obj 62 210 r \$0-tunnels-t13-s;
#X obj 235 32 / 127;
#X obj 235 76 + 50;
#X obj 235 98 t f f f f;
#X obj 235 10 r \$0-tunnels-morph34-s;
#X obj 235 54 * 4950;
#X connect 0 0 12 0;
#X connect 1 0 0 1;
#X connect 2 0 1 0;
#X connect 3 0 12 0;
#X connect 4 0 3 1;
#X connect 5 0 4 0;
#X connect 6 0 12 0;
#X connect 7 0 6 1;
#X connect 8 0 7 0;
#X connect 9 0 12 0;
#X connect 10 0 9 1;
#X connect 11 0 10 0;
#X connect 13 0 0 0;
#X connect 14 0 3 0;
#X connect 15 0 6 0;
#X connect 16 0 9 0;
#X connect 17 0 11 0;
#X connect 18 0 8 0;
#X connect 19 0 5 0;
#X connect 20 0 2 0;
#X connect 21 0 25 0;
#X connect 22 0 23 0;
#X connect 23 0 2 1;
#X connect 23 1 5 1;
#X connect 23 2 8 1;
#X connect 23 3 11 1;
#X connect 24 0 21 0;
#X connect 25 0 22 0;
#X restore 640 533 pd tunnel-C;
#X text 273 611 OUT A;
#X text 410 611 OUT B;
#X obj 108 106 cnv 5 10 10 empty empty 1 0 5 1 7 -228856 -66577 0;
#X obj 128 106 cnv 5 10 10 empty empty FA 0 5 1 7 -228856 -258113 0
;
#X obj 163 106 cnv 5 10 10 empty empty 2 0 5 1 7 -228856 -66577 0;
#X obj 190 106 cnv 5 10 10 empty empty FB 0 5 1 7 -228856 -258113 0
;
#X obj 226 106 cnv 5 10 10 empty empty 3 0 5 1 7 -228856 -66577 0;
#X obj 253 106 cnv 5 10 10 empty empty FC 0 5 1 7 -228856 -258113 0
;
#X obj 285 106 cnv 5 10 10 empty empty 4 0 5 1 7 -228856 -66577 0;
#X obj 306 106 cnv 5 10 10 empty empty FD 0 5 1 7 -228856 -258113 0
;
#X obj 118 165 cnv 5 5 5 empty empty T 0 0 1 14 -233017 -66577 0;
#X obj 117 179 cnv 5 5 5 empty empty U 0 0 1 14 -233017 -66577 0;
#X obj 117 192 cnv 5 5 5 empty empty N 0 0 1 14 -233017 -66577 0;
#X obj 117 206 cnv 5 5 5 empty empty N 0 0 1 14 -233017 -66577 0;
#X obj 117 219 cnv 5 5 5 empty empty E 0 0 1 14 -233017 -66577 0;
#X obj 118 231 cnv 5 5 5 empty empty L 0 0 1 14 -233017 -66577 0;
#X obj 117 244 cnv 5 5 5 empty empty S 0 0 1 14 -233017 -66577 0;
#X obj 107 285 cnv 5 10 10 empty empty A 0 5 1 7 -228856 -66577 0;
#X obj 173 285 cnv 5 10 10 empty empty B 0 5 1 7 -228856 -66577 0;
#X obj 246 285 cnv 5 10 10 empty empty C 0 5 1 7 -228856 -66577 0;
#X obj 311 285 cnv 5 10 10 empty empty D 0 5 1 7 -228856 -66577 0;
#X obj 242 126 bng 15 250 50 0 empty empty empty 17 7 1 10 -262144
-1 -1;
#X text 176 244 A;
#X text 200 244 B;
#X text 542 606 OUT MIX;
#X text 647 611 OUT FLIP;
#X obj 1095 408 s \$0-tunnels-t13-r;
#X obj 1112 384 s \$0-tunnels-t14-r;
#X obj 1129 356 s \$0-tunnels-t15-r;
#X obj 1146 332 s \$0-tunnels-t16-r;
#X obj 1095 290 t b b b b;
#X text 1159 291 FLIP;
#X floatatom 274 254 5 0 0 3 MORPHms #0-tunnels-morph34-gui-r -;
#X obj 274 152 vsl 15 96 0 127 0 0 \$0-tunnels-morph34-s empty empty
0 -9 0 10 -262144 -1 -1 0 1;
#X obj 64 464 / 127;
#X obj 64 442 r \$0-tunnels-morph34-s;
#X obj 64 530 s \$0-tunnels-morph34-gui-r;
#X obj 220 126 bng 15 250 50 0 empty empty empty 17 7 0 10 -262144
-1 -1;
#X text 224 244 C;
#X text 246 244 D;
#X obj 1003 426 t b b b b;
#X text 1067 427 FLIP;
#X obj 1003 544 s \$0-tunnels-t9-r;
#X obj 1020 520 s \$0-tunnels-t10-r;
#X obj 1037 492 s \$0-tunnels-t11-r;
#X obj 1054 468 s \$0-tunnels-t12-r;
#X obj 174 126 bng 15 250 50 0 empty empty empty 17 7 1 10 -262144
-1 -1;
#X obj 197 126 bng 15 250 50 0 empty empty empty 17 7 1 10 -262144
-1 -1;
#X obj 829 433 t b b b b;
#X text 893 434 FLIP;
#X obj 737 569 t b b b b;
#X text 801 570 FLIP;
#X obj 737 687 s \$0-tunnels-t1-r;
#X obj 754 663 s \$0-tunnels-t2-r;
#X obj 771 635 s \$0-tunnels-t3-r;
#X obj 788 611 s \$0-tunnels-t4-r;
#X obj 829 551 s \$0-tunnels-t5-r;
#X obj 846 527 s \$0-tunnels-t6-r;
#X obj 863 499 s \$0-tunnels-t7-r;
#X obj 880 475 s \$0-tunnels-t8-r;
#X text 142 126 FLIP;
#X text 263 125 FLIP;
#X obj 64 508 + 10;
#X obj 64 486 * 4990;
#X connect 29 0 48 0;
#X connect 29 0 47 0;
#X connect 29 0 50 0;
#X connect 29 0 52 0;
#X connect 32 0 48 1;
#X connect 32 0 47 1;
#X connect 32 0 50 1;
#X connect 32 0 52 1;
#X connect 33 0 48 2;
#X connect 33 0 47 2;
#X connect 33 0 50 2;
#X connect 33 0 52 2;
#X connect 34 0 48 3;
#X connect 34 0 47 3;
#X connect 34 0 50 3;
#X connect 34 0 52 3;
#X connect 38 0 39 0;
#X connect 39 0 99 0;
#X connect 40 0 41 0;
#X connect 41 0 100 0;
#X connect 42 0 43 0;
#X connect 43 0 90 0;
#X connect 44 0 45 0;
#X connect 45 0 74 0;
#X connect 47 0 46 0;
#X connect 48 0 31 0;
#X connect 50 0 49 0;
#X connect 52 0 51 0;
#X connect 74 0 83 0;
#X connect 83 0 79 0;
#X connect 83 1 80 0;
#X connect 83 2 81 0;
#X connect 83 3 82 0;
#X connect 87 0 116 0;
#X connect 88 0 87 0;
#X connect 90 0 93 0;
#X connect 93 0 95 0;
#X connect 93 1 96 0;
#X connect 93 2 97 0;
#X connect 93 3 98 0;
#X connect 99 0 103 0;
#X connect 100 0 101 0;
#X connect 101 0 109 0;
#X connect 101 1 110 0;
#X connect 101 2 111 0;
#X connect 101 3 112 0;
#X connect 103 0 105 0;
#X connect 103 1 106 0;
#X connect 103 2 107 0;
#X connect 103 3 108 0;
#X connect 115 0 89 0;
#X connect 116 0 115 0;
#X coords 0 -1 1 1 225 200 2 100 100;
