#N canvas 2053 161 515 446 10;
#X obj 63 262 outlet~;
#X obj 63 109 phasor~;
#X obj 63 70 inlet~;
#X obj 174 70 inlet;
#X text 63 44 freq;
#X text 175 54 params;
#X obj 221 72 inlet;
#X text 221 27 fm operator with parametric wavform and feedback;
#X text 217 55 fb amt;
#X obj 298 78 samplerate~;
#X obj 298 101 t b f;
#X msg 298 124 1000;
#X obj 298 147 /;
#X obj 298 55 loadbang;
#X text 298 170 1 sample delay;
#X obj 117 71 inlet~;
#X obj 63 148 +~;
#X text 119 49 phase mod;
#X obj 378 77 bng 15 250 50 0 empty empty empty 17 7 0 10 -262144 -1
-1;
#X floatatom 360 109 5 0 0 0 - - -, f 5;
#N canvas 895 58 1025 723 inner 1;
#X obj 86 51 inlet~;
#X obj 96 541 outlet~;
#X obj 276 61 inlet params;
#X obj 159 68 inlet fb_amt;
#X obj 593 235 bang~;
#X obj 581 289 snapshot~;
#X floatatom 581 311 11 0 0 0 - - -, f 11;
#X obj 590 262 spigot;
#X obj 644 230 tgl 15 0 empty empty empty 17 7 0 10 -262144 -1 -1 0
1;
#X obj 618 118 v var\$0;
#X obj 143 398 cos~;
#X obj 143 335 *~;
#X obj 143 377 +~;
#X obj 143 356 clip~;
#X obj 143 419 *~;
#X obj 143 440 -~;
#X obj 143 249 +~;
#X obj 199 217 *~;
#X obj 143 288 wrap~;
#X obj 200 271 unpack f f f f f f;
#X floatatom 202 301 5 0 0 0 - - -, f 5;
#X floatatom 239 301 5 0 0 0 - - -, f 5;
#X floatatom 276 301 5 0 0 0 - - -, f 5;
#X floatatom 313 301 5 0 0 0 - - -, f 5;
#X floatatom 350 301 5 0 0 0 - - -, f 5;
#X floatatom 389 299 5 0 0 0 - - -, f 5;
#X floatatom 219 179 5 0 0 0 - - -, f 5;
#X obj 605 506 v ind\$0;
#X obj 604 458 bang~;
#X obj 492 118 bang~;
#X obj 480 172 snapshot~;
#X floatatom 480 194 11 0 0 0 - - -, f 11;
#X obj 489 145 spigot;
#X obj 543 113 tgl 15 0 empty empty empty 17 7 0 10 -262144 -1 -1 0
1;
#X obj 531 460 bang~;
#X obj 532 508 v ind2\$0;
#N canvas 473 221 967 675 backup_fexpr 0;
#X obj 358 90 inlet params;
#X obj 241 97 inlet fb_amt;
#X obj 317 204 unpack f f f f f f;
#X floatatom 319 234 5 0 0 0 - - -, f 5;
#X floatatom 356 234 5 0 0 0 - - -, f 5;
#X floatatom 393 234 5 0 0 0 - - -, f 5;
#X floatatom 430 234 5 0 0 0 - - -, f 5;
#X floatatom 467 234 5 0 0 0 - - -, f 5;
#X floatatom 504 234 5 0 0 0 - - -, f 5;
#X floatatom 241 237 5 0 0 0 - - -, f 5;
#X obj 168 344 fexpr~ cos(6.28319 * ($f6 + min(max($f3 * fmod( ($x1+($y1[-1]*$f2))
\, 1) \, $f4) \, $f5))) * $f7 - $f8, f 89;
#X obj 648 189 switch~;
#X obj 657 127 tgl 15 0 empty empty empty 17 7 0 10 -262144 -1 -1 0
1;
#X connect 0 0 2 0;
#X connect 1 0 9 0;
#X connect 2 0 3 0;
#X connect 2 1 4 0;
#X connect 2 2 5 0;
#X connect 2 3 6 0;
#X connect 2 4 7 0;
#X connect 2 5 8 0;
#X connect 3 0 10 3;
#X connect 4 0 10 4;
#X connect 5 0 10 5;
#X connect 6 0 10 2;
#X connect 7 0 10 6;
#X connect 8 0 10 7;
#X connect 9 0 10 1;
#X connect 12 0 11 0;
#X restore 375 61 pd backup_fexpr;
#X obj 573 374 array define tab\$0 65;
#X msg 531 482 0;
#X msg 604 480 0;
#X obj 141 466 fexpr~ $x1 \; tab\$0[ind\$0] = $y1[-1] \; ind\$0 = ind\$0
+ 1 \;;
#X obj 329 534 bang~;
#X obj 317 588 snapshot~;
#X floatatom 317 610 11 0 0 0 - - -, f 11;
#X obj 326 561 spigot;
#X obj 380 529 tgl 15 0 empty empty empty 17 7 0 10 -262144 -1 -1 0
1;
#X obj 212 112 fexpr~ tab\$0[ind2\$0] \; ind2\$0 = ind2\$0 + 1 \; ind\$0
;
#X connect 0 0 16 0;
#X connect 2 0 19 0;
#X connect 3 0 26 0;
#X connect 4 0 7 0;
#X connect 5 0 6 0;
#X connect 7 0 5 0;
#X connect 8 0 7 1;
#X connect 10 0 14 0;
#X connect 11 0 13 0;
#X connect 12 0 10 0;
#X connect 13 0 12 0;
#X connect 14 0 15 0;
#X connect 15 0 40 0;
#X connect 16 0 18 0;
#X connect 17 0 16 1;
#X connect 18 0 11 0;
#X connect 19 0 20 0;
#X connect 19 1 21 0;
#X connect 19 2 22 0;
#X connect 19 3 23 0;
#X connect 19 4 24 0;
#X connect 19 5 25 0;
#X connect 20 0 13 1;
#X connect 21 0 13 2;
#X connect 22 0 12 1;
#X connect 23 0 11 1;
#X connect 24 0 14 1;
#X connect 25 0 15 1;
#X connect 26 0 17 1;
#X connect 28 0 39 0;
#X connect 29 0 32 0;
#X connect 30 0 31 0;
#X connect 32 0 30 0;
#X connect 33 0 32 1;
#X connect 34 0 38 0;
#X connect 38 0 35 0;
#X connect 39 0 27 0;
#X connect 40 0 1 0;
#X connect 40 2 42 0;
#X connect 41 0 44 0;
#X connect 42 0 43 0;
#X connect 44 0 42 0;
#X connect 45 0 44 1;
#X connect 46 0 17 0;
#X connect 46 2 30 0;
#X restore 63 199 pd inner;
#X connect 1 0 16 0;
#X connect 2 0 1 0;
#X connect 3 0 20 2;
#X connect 6 0 20 1;
#X connect 9 0 10 0;
#X connect 9 0 19 0;
#X connect 10 0 11 0;
#X connect 10 1 12 1;
#X connect 11 0 12 0;
#X connect 13 0 9 0;
#X connect 15 0 16 1;
#X connect 16 0 20 0;
#X connect 18 0 9 0;
#X connect 20 0 0 0;
