#N canvas 668 380 993 441 10;
#X obj 153 61 inlet~;
#X obj 243 61 inlet~;
#X obj 333 61 inlet~;
#X obj 423 61 inlet~;
#X obj 304 288 outlet~;
#X obj 198 61 inlet~;
#X obj 288 61 inlet~;
#X obj 378 61 inlet~;
#X obj 468 61 inlet~;
#X obj 541 289 outlet~;
#X obj 537 60 inlet~;
#X obj 627 60 inlet~;
#X obj 717 60 inlet~;
#X obj 807 60 inlet~;
#X obj 582 60 inlet~;
#X obj 672 60 inlet~;
#X obj 762 60 inlet~;
#X obj 852 60 inlet~;
#X obj 20 20 hradio 27 0 0 8 empty empty empty 0 -8 0 10 -262144 -1
-1 0;
#X floatatom 44 133 5 0 0 0 - - -, f 5;
#X obj 303 202 multiplex~ . . . . . . . .;
#X obj 541 201 multiplex~ . . . . . . . .;
#X connect 0 0 20 0;
#X connect 1 0 20 1;
#X connect 2 0 20 2;
#X connect 3 0 20 3;
#X connect 5 0 21 0;
#X connect 6 0 21 1;
#X connect 7 0 21 2;
#X connect 8 0 21 3;
#X connect 10 0 20 4;
#X connect 11 0 20 5;
#X connect 12 0 20 6;
#X connect 13 0 20 7;
#X connect 14 0 21 4;
#X connect 15 0 21 5;
#X connect 16 0 21 6;
#X connect 17 0 21 7;
#X connect 18 0 19 0;
#X connect 18 0 20 0;
#X connect 18 0 21 0;
#X connect 20 0 4 0;
#X connect 21 0 9 0;
#X coords 0 -1 1 1 217 27 2 20 20;
