#N canvas 339 141 1160 805.063 10;
#X floatatom 371 78 7 10 300 2 real-tmp - -, f 7;
#X obj 452 163 expr 60000 / $f1;
#X floatatom 452 185 5 0 0 0 - - -, f 5;
#X obj 425 209 metro;
#X obj 300 78 tgl 15 1 empty empty on 0 -9 0 10 -262144 -1 -1 1 1;
#X obj 425 231 bng 15 100 50 0 empty empty empty 17 7 0 10 -262144
-1 -1;
#X obj 425 333 f;
#X obj 451 333 + 1;
#X obj 425 364 mod 4;
#X floatatom 425 386 5 0 0 0 - - -, f 5;
#X obj 195 215 bng 15 250 50 0 empty empty empty 17 7 0 10 -262144
-1 -1;
#X msg 195 235 -1;
#X obj 316 138 hradio 22 0 0 4 empty empty beat 0 -9 0 10 -262144 -1
-1 0;
#X obj 195 168 == 0;
#X obj 195 190 sel 1;
#X msg 195 284 0;
#X obj 195 257 t b f;
#X obj 425 446 outlet;
#N canvas 970 175 686 598 sound 0;
#X obj 155 50 inlet nr;
#X obj 523 47 inlet play-sound;
#X obj 522 147 switch~;
#X obj 130 351 line~;
#X msg 130 304 0 10;
#X msg 157 261 1 10;
#X obj 106 377 *~;
#X obj 130 232 t b b;
#X obj 130 282 del 50;
#X obj 106 187 osc~ 220;
#X obj 183 455 +~;
#X obj 274 344 line~;
#X msg 274 297 0 10;
#X msg 301 254 1 10;
#X obj 250 370 *~;
#X obj 274 225 t b b;
#X obj 274 275 del 50;
#X obj 250 180 osc~ 440;
#X obj 169 205 spigot;
#X obj 201 181 > 0;
#X obj 311 194 spigot;
#X obj 345 170 == 0;
#X obj 394 44 inlet volume;
#X obj 396 289 line~;
#X msg 396 249 \$1 10;
#X obj 183 550 dac~;
#X obj 183 506 *~;
#X obj 258 551 outlet~;
#X connect 0 0 19 0;
#X connect 0 0 21 0;
#X connect 0 0 18 0;
#X connect 0 0 20 0;
#X connect 1 0 2 0;
#X connect 3 0 6 1;
#X connect 4 0 3 0;
#X connect 5 0 3 0;
#X connect 6 0 10 0;
#X connect 7 0 8 0;
#X connect 7 1 5 0;
#X connect 8 0 4 0;
#X connect 9 0 6 0;
#X connect 10 0 26 0;
#X connect 11 0 14 1;
#X connect 12 0 11 0;
#X connect 13 0 11 0;
#X connect 14 0 10 1;
#X connect 15 0 16 0;
#X connect 15 1 13 0;
#X connect 16 0 12 0;
#X connect 17 0 14 0;
#X connect 18 0 7 0;
#X connect 19 0 18 1;
#X connect 20 0 15 0;
#X connect 21 0 20 1;
#X connect 22 0 24 0;
#X connect 23 0 26 1;
#X connect 24 0 23 0;
#X connect 26 0 25 0;
#X connect 26 0 25 1;
#X connect 26 0 27 0;
#X restore 284 371 pd sound;
#X obj 300 108 tgl 15 0 empty empty sound 0 -9 0 10 -262144 -1 -1 0
1;
#X obj 323 108 hsl 90 15 0 1 0 0 empty empty volume 20 -9 0 10 -262144
-1 -1 1900 0;
#X obj 319 26 inlet;
#N canvas 1162 165 446 442 tempo 0;
#X obj 158 43 nbx 3 15 20 600 0 1 empty empty Tempo 0 -8 0 12 -262144
-1 -1 120 256 0;
#X obj 252 67 expr 60000 / $f1;
#X obj 252 88 * 44.1;
#X obj 252 109 / 64;
#X obj 252 175 -;
#X obj 252 130 t f f;
#X obj 292 150 int;
#X obj 252 196 > 0.49999;
#X obj 252 217 +;
#X obj 252 238 * 64;
#X obj 252 259 / 44.1;
#X floatatom 252 301 8 0 0 0 - - -, f 8;
#X obj 252 280 expr 60000 / $f1;
#X obj 158 64 nbx 7 12 -1e+037 1e+037 0 0 empty empty empty 0 -8 0
9 -262144 -1 -1 119.837 256 0;
#X obj 252 359 outlet;
#X obj 252 36 inlet;
#X connect 0 0 1 0;
#X connect 1 0 2 0;
#X connect 2 0 3 0;
#X connect 3 0 5 0;
#X connect 4 0 7 0;
#X connect 5 0 4 0;
#X connect 5 1 6 0;
#X connect 6 0 4 1;
#X connect 6 0 8 1;
#X connect 7 0 8 0;
#X connect 8 0 9 0;
#X connect 9 0 10 0;
#X connect 10 0 12 0;
#X connect 11 0 13 0;
#X connect 11 0 14 0;
#X connect 12 0 11 0;
#X connect 15 0 1 0;
#X coords 0 0 1 1 77 51 0;
#X restore 446 104 pd tempo;
#X obj 320 78 nbx 3 15 20 600 0 1 empty empty tempo 0 -9 0 10 -262144
-1 -1 120 256 0;
#X obj 507 445 outlet real-tempo;
#X obj 284 444 outlet~ sound;
#X connect 0 0 1 0;
#X connect 1 0 2 0;
#X connect 2 0 3 1;
#X connect 3 0 5 0;
#X connect 4 0 3 0;
#X connect 4 0 13 0;
#X connect 5 0 6 0;
#X connect 6 0 7 0;
#X connect 6 0 8 0;
#X connect 7 0 6 1;
#X connect 8 0 9 0;
#X connect 9 0 12 0;
#X connect 9 0 17 0;
#X connect 9 0 18 0;
#X connect 10 0 11 0;
#X connect 11 0 16 0;
#X connect 13 0 14 0;
#X connect 14 0 10 0;
#X connect 15 0 12 0;
#X connect 16 0 15 0;
#X connect 16 1 6 0;
#X connect 18 0 25 0;
#X connect 19 0 18 2;
#X connect 20 0 18 1;
#X connect 21 0 23 0;
#X connect 22 0 0 0;
#X connect 22 0 24 0;
#X connect 23 0 22 0;
#X coords 0 -1 1 1 127 104 2 296 64;
