#N canvas 1954 173 796 840 10;
#X obj 229 301 cnv 15 370 25 empty empty empty 20 12 0 14 -13330 -66577
0;
#X obj 188 193 route 0 1 2 3;
#X msg 233 410 0 \$1;
#X obj 204 170 route 0 1 2 3;
#X obj 219 150 route 0 1 2 3;
#X msg 251 453 1 \$1;
#X obj 235 131 route 0 1 2 3;
#X msg 270 496 2 \$1;
#X msg 290 539 3 \$1;
#X obj 304 193 route 0 1 2 3;
#X obj 318 170 route 0 1 2 3;
#X obj 336 150 route 0 1 2 3;
#X obj 352 131 route 0 1 2 3;
#X msg 333 410 4 \$1;
#X msg 352 453 5 \$1;
#X msg 373 496 6 \$1;
#X msg 396 539 7 \$1;
#X obj 418 192 route 0 1 2 3;
#X obj 434 169 route 0 1 2 3;
#X obj 449 149 route 0 1 2 3;
#X obj 465 130 route 0 1 2 3;
#X obj 534 192 route 0 1 2 3;
#X obj 548 169 route 0 1 2 3;
#X obj 566 149 route 0 1 2 3;
#X obj 582 130 route 0 1 2 3;
#X msg 439 410 8 \$1;
#X msg 457 453 9 \$1;
#X msg 476 496 10 \$1;
#X msg 496 539 11 \$1;
#X msg 538 411 12 \$1;
#X msg 553 450 13 \$1;
#X msg 578 497 14 \$1;
#X msg 601 540 15 \$1;
#X obj 244 70 route 0 1 2 3 4 5 6 7 8 9 10 11 12 13 14 15;
#X obj 244 10 inlet;
#X msg 400 694 \$1 0 \$2;
#X obj 400 716 outlet;
#X obj 65 684 outlet useless design reasons, f 16;
#X obj 231 303 ../gui/knopf2;
#X obj 324 303 ../gui/knopf2;
#X obj 255 303 ../gui/knopf2;
#X obj 278 303 ../gui/knopf2;
#X obj 301 303 ../gui/knopf2;
#X obj 347 303 ../gui/knopf2;
#X obj 370 303 ../gui/knopf2;
#X obj 393 303 ../gui/knopf2;
#X obj 485 303 ../gui/knopf2;
#X obj 416 303 ../gui/knopf2;
#X obj 462 303 ../gui/knopf2;
#X obj 508 303 ../gui/knopf2;
#X obj 577 303 ../gui/knopf2;
#X obj 531 303 ../gui/knopf2;
#X obj 554 303 ../gui/knopf2;
#X obj 439 303 ../gui/knopf2;
#X connect 1 0 38 0;
#X connect 1 1 38 1;
#X connect 1 2 38 2;
#X connect 1 3 38 3;
#X connect 2 0 35 0;
#X connect 3 0 40 0;
#X connect 3 1 40 1;
#X connect 3 2 40 2;
#X connect 3 3 40 3;
#X connect 4 0 41 0;
#X connect 4 1 41 1;
#X connect 4 2 41 2;
#X connect 4 3 41 3;
#X connect 5 0 35 0;
#X connect 6 0 42 0;
#X connect 6 1 42 1;
#X connect 6 2 42 2;
#X connect 6 3 42 3;
#X connect 7 0 35 0;
#X connect 8 0 35 0;
#X connect 9 0 39 0;
#X connect 9 1 39 1;
#X connect 9 2 39 2;
#X connect 9 3 39 3;
#X connect 10 0 43 0;
#X connect 10 1 43 1;
#X connect 10 2 43 2;
#X connect 10 3 43 3;
#X connect 11 0 44 0;
#X connect 11 1 44 1;
#X connect 11 2 44 2;
#X connect 11 3 44 3;
#X connect 12 0 45 0;
#X connect 12 1 45 1;
#X connect 12 2 45 2;
#X connect 12 3 45 3;
#X connect 13 0 35 0;
#X connect 14 0 35 0;
#X connect 15 0 35 0;
#X connect 16 0 35 0;
#X connect 17 0 47 0;
#X connect 17 1 47 1;
#X connect 17 2 47 2;
#X connect 17 3 47 3;
#X connect 18 0 53 0;
#X connect 18 1 53 1;
#X connect 18 2 53 2;
#X connect 18 3 53 3;
#X connect 19 0 48 0;
#X connect 19 1 48 1;
#X connect 19 2 48 2;
#X connect 19 3 48 3;
#X connect 20 0 46 0;
#X connect 20 1 46 1;
#X connect 20 2 46 2;
#X connect 20 3 46 3;
#X connect 21 0 49 0;
#X connect 21 1 49 1;
#X connect 21 2 49 2;
#X connect 21 3 49 3;
#X connect 22 0 51 0;
#X connect 22 1 51 1;
#X connect 22 2 51 2;
#X connect 22 3 51 3;
#X connect 23 0 52 0;
#X connect 23 1 52 1;
#X connect 23 2 52 2;
#X connect 23 3 52 3;
#X connect 24 0 50 0;
#X connect 24 1 50 1;
#X connect 24 2 50 2;
#X connect 24 3 50 3;
#X connect 25 0 35 0;
#X connect 26 0 35 0;
#X connect 27 0 35 0;
#X connect 28 0 35 0;
#X connect 29 0 35 0;
#X connect 30 0 35 0;
#X connect 31 0 35 0;
#X connect 32 0 35 0;
#X connect 33 0 1 0;
#X connect 33 1 3 0;
#X connect 33 2 4 0;
#X connect 33 3 6 0;
#X connect 33 4 9 0;
#X connect 33 5 10 0;
#X connect 33 6 11 0;
#X connect 33 7 12 0;
#X connect 33 8 17 0;
#X connect 33 9 18 0;
#X connect 33 10 19 0;
#X connect 33 11 20 0;
#X connect 33 12 21 0;
#X connect 33 13 22 0;
#X connect 33 14 23 0;
#X connect 33 15 24 0;
#X connect 34 0 33 0;
#X connect 35 0 36 0;
#X connect 38 0 2 0;
#X connect 39 0 13 0;
#X connect 40 0 5 0;
#X connect 41 0 7 0;
#X connect 42 0 8 0;
#X connect 43 0 14 0;
#X connect 44 0 15 0;
#X connect 45 0 16 0;
#X connect 46 0 28 0;
#X connect 47 0 25 0;
#X connect 48 0 27 0;
#X connect 49 0 29 0;
#X connect 50 0 32 0;
#X connect 51 0 30 0;
#X connect 52 0 31 0;
#X connect 53 0 26 0;
#X coords 0 -1 1 1 372 26 1 228 300;
