#N canvas 514 251 1221 522 10;
#X obj 621 133 print;
#X msg 635 72 open_scopes;
#X obj 142 15 inlet~;
#X msg 32 117 reload;
#X msg 33 139 \; pd dsp \$0;
#X obj 402 202 cnv 15 208 54 empty empty empty 20 12 0 14 -162280 -66577
0;
#X obj 404 206 bng 30 250 50 0 \$0-open empty Open 0 40 0 15 -83269
-86277 -1;
#X obj 495 224 hradio 13 1 1 5 \$0-scopes empty Scopes -44 7 0 10 -262144
-1 -1 2;
#X floatatom 759 249 5 0 0 1 Amount_Scopes #0-scopes2 -, f 5;
#X floatatom 757 194 6 0 0 1 Samples #0-samp -, f 6;
#X obj 918 304 until;
#X msg 918 325 add2 scope;
#X obj 576 217 tgl 15 1 \$0-top empty On_Top -7 -9 0 10 -262144 -1
-1 1 1;
#X floatatom 758 219 5 0 0 1 On_Top #0-top -, f 5;
#X msg 904 209 set \$1;
#X obj 914 238 sel 1;
#X msg 914 260 add2 on_top;
#X obj 755 43 t b b b b b b b, f 16;
#X msg 918 285 \$1;
#X obj 406 407 + 1;
#X msg 861 440 2048 on_top scope scope scope \;;
#X msg 963 409 add;
#X obj 927 409 bang;
#X floatatom 405 389 5 0 0 0 - - -, f 5;
#X obj 755 17 r \$0-open;
#X obj 845 87 s \$0-top;
#X obj 773 126 s \$0-finish;
#X obj 927 365 r \$0-finish;
#X obj 927 387 t b b;
#X obj 791 108 s \$0-scopes2;
#X obj 406 426 s \$0-scopes2;
#X obj 405 368 r \$0-scopes;
#X msg 35 209 -color 0.7 0.2 0 -bg-color 0.9 0.9 0.9;
#X obj 35 231 s \$0-msg;
#X obj 614 39 r \$0-msg;
#X obj 143 129 outlet~;
#X obj 454 207 hsl 84 13 6 13 1 1 \$0-val-samp \$0-lbl-samp Samples 2048
0 7 0 10 -262144 -1 -1 6800 1;
#X obj 551 349 r \$0-val-samp;
#X msg 551 411 label Samples \$1;
#X obj 551 432 s \$0-lbl-samp;
#X obj 566 390 s \$0-samp;
#X text 562 326 Samples;
#X obj 864 70 s \$0-samp;
#X obj 64 16 inlet;
#X obj 551 371 expr pow( 2 \, int($f1) );
#X obj 238 15 inlet~;
#X obj 334 14 inlet~;
#X obj 429 15 inlet~;
#X obj 525 14 inlet~;
#X obj 29 288 r \$0-msg_inlet;
#X obj 29 335 s \$0-reload;
#X obj 32 95 r \$0-reload;
#X obj 64 55 s \$0-msg_inlet;
#X msg 94 410 label Samples \$1;
#X obj 94 431 s \$0-lbl-samp;
#X obj 94 452 s \$0-samp;
#X obj 29 310 route reload samp color background;
#X msg 146 336 -color \$1 \$2 \$3;
#X obj 146 356 s \$0-msg;
#X obj 218 385 s \$0-msg;
#X msg 218 364 -bg-color \$1 \$2 \$3;
#X obj 345 291 switch~;
#X obj 576 236 tgl 15 1 empty empty empty 17 7 0 10 -262144 -1 -1 1
1;
#X obj 510 241 nbx 2 12 1 100 0 0 \$0-update_display \$0-xcvxcv345
upd_displ -58 7 0 10 -262144 -1 -1 1 256;
#X obj 925 14 r \$0-update_display;
#X msg 925 36 update_display \$1;
#X obj 141 96 pyext~ 1 0 5 1 H:/Dropbox/test/python/pd_drawwave Scopes
@detach 2, f 69;
#X connect 1 0 66 5;
#X connect 2 0 66 0;
#X connect 3 0 4 0;
#X connect 3 0 66 0;
#X connect 8 0 18 0;
#X connect 9 0 14 0;
#X connect 10 0 11 0;
#X connect 11 0 20 0;
#X connect 13 0 15 0;
#X connect 14 0 20 0;
#X connect 15 0 16 0;
#X connect 16 0 20 0;
#X connect 17 0 1 0;
#X connect 17 1 26 0;
#X connect 17 2 29 0;
#X connect 17 5 25 0;
#X connect 17 6 42 0;
#X connect 18 0 10 0;
#X connect 19 0 30 0;
#X connect 20 0 66 5;
#X connect 21 0 20 0;
#X connect 22 0 20 0;
#X connect 23 0 19 0;
#X connect 24 0 17 0;
#X connect 27 0 28 0;
#X connect 28 0 22 0;
#X connect 28 1 21 0;
#X connect 31 0 23 0;
#X connect 32 0 33 0;
#X connect 34 0 66 5;
#X connect 37 0 44 0;
#X connect 38 0 39 0;
#X connect 43 0 52 0;
#X connect 44 0 38 0;
#X connect 44 0 40 0;
#X connect 45 0 66 1;
#X connect 46 0 66 2;
#X connect 47 0 66 3;
#X connect 48 0 66 4;
#X connect 49 0 56 0;
#X connect 51 0 3 0;
#X connect 53 0 54 0;
#X connect 56 0 50 0;
#X connect 56 1 53 0;
#X connect 56 1 55 0;
#X connect 56 2 57 0;
#X connect 56 3 60 0;
#X connect 57 0 58 0;
#X connect 60 0 59 0;
#X connect 62 0 61 0;
#X connect 64 0 65 0;
#X connect 65 0 66 5;
#X connect 66 0 35 0;
#X connect 66 1 0 0;
#X coords 0 -1 1 1 212 58 2 400 200;
