#N canvas 112 23 954 686 10;
#X declare -path abs;
#X declare -path presets;
#N canvas 17 181 250 218 DSP 1;
#X obj 25 127 pack f f f;
#X obj 25 167 outlet~;
#X obj 178 167 outlet~;
#X obj 25 37 route list;
#X obj 25 17 inlet;
#X msg 125 54 invalid_input!;
#X obj 125 74 print;
#X obj 35 58 r \$0-clear.s;
#X msg 35 78 clear;
#X obj 25 107 poly 4 1;
#X obj 25 147 clone -s 1 -x PMvoice 4 \$0;
#X connect 0 0 10 0;
#X connect 3 0 9 0;
#X connect 3 1 5 0;
#X connect 4 0 3 0;
#X connect 5 0 6 0;
#X connect 7 0 8 0;
#X connect 8 0 9 0;
#X connect 9 0 0 0;
#X connect 9 1 0 1;
#X connect 9 2 0 2;
#X connect 10 0 1 0;
#X connect 10 1 2 0;
#X restore 637 126 pd DSP;
#X obj 757 186 declare -path abs;
#X obj 107 107 cnv 15 465 30 empty empty empty 20 12 0 14 -261682 -66577
0;
#X obj 162 112 bng 20 250 50 0 \$0-save.s \$0-save.r save 22 7 0 10
-261234 -1 -1;
#X obj 112 112 bng 20 250 50 0 \$0-load.s \$0-load.r load 22 7 0 10
-204786 -1 -1;
#N canvas 87 46 1193 739 presets 0;
#X obj 8 3 cnv 15 320 180 empty empty empty 20 12 0 14 -261234 -66577
0;
#X obj 8 193 cnv 15 320 350 empty empty empty 20 12 0 14 -204786 -66577
0;
#X obj 18 423 textfile;
#X obj 18 333 until;
#X msg 18 503 \; \$1-\$2.r \$3 \;;
#X obj 18 203 r \$0-load.s;
#X obj 18 463 list prepend \$0;
#X obj 18 483 list trim;
#X obj 18 13 r \$0-save.s;
#X obj 18 243 openpanel;
#X obj 18 360 s \$0-to.textfile;
#X obj 18 143 s \$0-to.textfile;
#X obj 63 443 s \$0-stop.loop;
#X obj 45 313 r \$0-stop.loop;
#X obj 18 403 r \$0-to.textfile;
#X msg 45 283 read \$1 \, rewind;
#X msg 52 73 clear;
#X obj 18 33 savepanel;
#X msg 158 70 write \$1;
#X msg 18 113 write \$1;
#X text 797 102 SEND: \$0-<parameter_name>.s;
#X text 797 122 RECEIVE: \$0-<parameter_name>.r;
#X text 797 12 In order for a parameter that is in the parent patch
to be saved in the preset file \, here there needs to be a 'save.param'
abstraction with the name of that parameter as the second argument
(whilst the first argument is always \$0). The send and receive symbols
for each parameter must be formated in this way:;
#X obj 35 93 s \$0-get.values;
#X text 797 152 With this method you still have to create a new 'save.param'
abstraction for every parameter to be saved in the presets \, but at
least there is no need to patch all the send and receives.;
#X obj 348 63 save.param \$0 ratio1;
#X obj 348 83 save.param \$0 ratio2;
#X obj 348 103 save.param \$0 ratio3;
#X obj 348 123 save.param \$0 offset1;
#X obj 348 143 save.param \$0 offset2;
#X obj 348 163 save.param \$0 offset3;
#X obj 348 543 save.param \$0 lev1;
#X obj 348 563 save.param \$0 lev2;
#X obj 348 583 save.param \$0 lev3;
#X obj 348 363 save.param \$0 1-1;
#X obj 348 383 save.param \$0 1-2;
#X obj 348 403 save.param \$0 1-3;
#X obj 348 423 save.param \$0 2-1;
#X obj 348 443 save.param \$0 2-2;
#X obj 348 463 save.param \$0 2-3;
#X obj 348 483 save.param \$0 3-1;
#X obj 348 503 save.param \$0 3-2;
#X obj 348 523 save.param \$0 3-3;
#X obj 118 226 r \$0-load.init.preset;
#X obj 18 263 t b a;
#X obj 18 53 t a b b a;
#X msg 118 246 symbol presets/init.txt;
#X msg 18 223 symbol presets;
#X obj 348 3 save.param \$0 wave1;
#X obj 348 23 save.param \$0 wave2;
#X obj 348 43 save.param \$0 wave3;
#X obj 348 193 save.param \$0 eg1-L1;
#X obj 348 213 save.param \$0 eg1-R1;
#X obj 348 253 save.param \$0 eg1-R2;
#X obj 348 233 save.param \$0 eg1-L2;
#X obj 348 273 save.param \$0 eg1-L3;
#X obj 348 293 save.param \$0 eg1-R3;
#X obj 348 313 save.param \$0 eg1-L4;
#X obj 348 333 save.param \$0 eg1-R4;
#X obj 488 193 save.param \$0 eg2-L1;
#X obj 488 213 save.param \$0 eg2-R1;
#X obj 488 233 save.param \$0 eg2-L2;
#X obj 488 253 save.param \$0 eg2-R2;
#X obj 488 273 save.param \$0 eg2-L3;
#X obj 488 293 save.param \$0 eg2-R3;
#X obj 488 313 save.param \$0 eg2-L4;
#X obj 488 333 save.param \$0 eg2-R4;
#X obj 628 193 save.param \$0 eg3-L1;
#X obj 628 213 save.param \$0 eg3-R1;
#X obj 628 233 save.param \$0 eg3-L2;
#X obj 628 253 save.param \$0 eg3-R2;
#X obj 628 273 save.param \$0 eg3-L3;
#X obj 628 293 save.param \$0 eg3-R3;
#X obj 628 313 save.param \$0 eg3-L4;
#X obj 628 333 save.param \$0 eg3-R4;
#X obj 488 63 save.param \$0 pan1;
#X obj 488 83 save.param \$0 pan2;
#X obj 488 103 save.param \$0 pan3;
#X obj 488 3 save.param \$0 sync1;
#X obj 488 23 save.param \$0 sync2;
#X obj 488 43 save.param \$0 sync3;
#X connect 2 0 6 0;
#X connect 2 1 12 0;
#X connect 3 0 10 0;
#X connect 5 0 47 0;
#X connect 6 0 7 0;
#X connect 7 0 4 0;
#X connect 8 0 17 0;
#X connect 9 0 44 0;
#X connect 13 0 3 1;
#X connect 14 0 2 0;
#X connect 15 0 10 0;
#X connect 16 0 11 0;
#X connect 17 0 45 0;
#X connect 18 0 11 0;
#X connect 19 0 11 0;
#X connect 43 0 46 0;
#X connect 44 0 3 0;
#X connect 44 1 15 0;
#X connect 45 0 19 0;
#X connect 45 1 23 0;
#X connect 45 2 16 0;
#X connect 45 3 18 0;
#X connect 46 0 44 0;
#X connect 47 0 9 0;
#X restore 637 246 pd presets;
#N canvas 683 391 450 300 init 0;
#X obj 59 33 loadbang;
#X obj 59 53 f \$0;
#X obj 39 38 bng 15 250 50 0 empty empty empty 17 7 0 10 -262144 -1
-1;
#X msg 59 73 \; pd dsp 1 \; \$1-create.waveforms bang \; \$1-load.init.preset
bang \;;
#X connect 0 0 1 0;
#X connect 1 0 3 0;
#X connect 2 0 1 0;
#X restore 637 206 pd init;
#X floatatom 239 182 5 0 100 1 rt1 #0-ratio1.r #0-ratio1.s, f 5;
#X floatatom 239 322 5 0 100 1 rt2 #0-ratio2.r #0-ratio2.s, f 5;
#X floatatom 239 462 5 0 100 1 rt3 #0-ratio3.r #0-ratio3.s, f 5;
#X floatatom 299 182 5 0 100 1 o1 #0-offset1.r #0-offset1.s, f 5;
#X floatatom 299 322 5 0 100 1 o2 #0-offset2.r #0-offset2.s, f 5;
#X floatatom 299 462 5 0 100 1 o3 #0-offset3.r #0-offset3.s, f 5;
#X floatatom 299 202 5 -100 100 1 pan1 #0-pan1.r #0-pan1.s, f 5;
#X floatatom 299 342 5 -100 100 1 pan2 #0-pan2.r #0-pan2.s, f 5;
#X floatatom 299 482 5 -100 100 1 pan3 #0-pan3.r #0-pan3.s, f 5;
#X obj 382 147 cnv 15 200 125 empty empty modulation_matrix 20 12 0
14 -203904 -66577 0;
#X floatatom 392 177 5 0 100 1 fb1 #0-1-1.r #0-1-1.s, f 5;
#X floatatom 392 197 5 0 1000 1 1-2 #0-1-2.r #0-1-2.s, f 5;
#X floatatom 392 217 5 0 1000 1 1-3 #0-1-3.r #0-1-3.s, f 5;
#X floatatom 452 217 5 0 1000 1 2-3 #0-2-3.r #0-2-3.s, f 5;
#X floatatom 452 197 5 0 100 1 fb2 #0-2-2.r #0-2-2.s, f 5;
#X floatatom 452 177 5 0 1000 1 2-1 #0-2-1.r #0-2-1.s, f 5;
#X floatatom 512 217 5 0 100 1 fb3 #0-3-3.r #0-3-3.s, f 5;
#X floatatom 512 197 5 0 1000 1 3-2 #0-3-2.r #0-3-2.s, f 5;
#X floatatom 512 177 5 0 1000 1 3-1 #0-3-1.r #0-3-1.s, f 5;
#X floatatom 392 247 5 0 100 1 lev1 #0-lev1.r #0-lev1.s, f 5;
#X floatatom 452 247 5 0 100 1 lev2 #0-lev2.r #0-lev2.s, f 5;
#X floatatom 512 247 5 0 100 1 lev3 #0-lev3.r #0-lev3.s, f 5;
#X obj 637 106 inlet;
#X obj 637 146 outlet~;
#X obj 687 143 outlet~;
#X obj 757 206 declare -path presets;
#X obj 757 106 inlet;
#N canvas 111 145 337 243 control.inputs 0;
#X obj 86 53 inlet;
#X msg 86 113 \; \$3-\$1.r \$2 \;;
#X text 161 73 truncate longer lists;
#X obj 86 73 unpack s f;
#X obj 86 93 pack s f \$0;
#X connect 0 0 3 0;
#X connect 3 0 4 0;
#X connect 3 1 4 1;
#X connect 4 0 1 0;
#X restore 757 126 pd control.inputs;
#X obj 239 114 bng 15 250 50 0 \$0-clear.s \$0-clear.r voice.clear
17 7 0 10 -262130 -1 -1;
#X obj 239 162 hradio 15 1 0 9 \$0-wave1.s \$0-wave1.r wave1 0 -8 0
10 -262144 -1 -1 0;
#X obj 239 302 hradio 15 1 0 9 \$0-wave2.s \$0-wave2.r wave2 0 -8 0
10 -262144 -1 -1 0;
#X obj 239 442 hradio 15 1 0 9 \$0-wave3.s \$0-wave3.r wave3 0 -8 0
10 -262144 -1 -1 0;
#X obj 107 149 vsl 15 128 0 1 0 0 \$0-eg1-L1.s \$0-eg1-L1.r empty 0
-9 0 10 -204800 -1 -1 12700 1;
#X obj 122 149 vsl 15 128 0 1 0 0 \$0-eg1-R1.s \$0-eg1-R1.r empty 0
-9 0 10 -261682 -1 -1 0 1;
#X obj 140 149 vsl 15 128 0 1 0 0 \$0-eg1-L2.s \$0-eg1-L2.r empty 0
-9 0 10 -204800 -1 -1 12700 1;
#X obj 155 149 vsl 15 128 0 1 0 0 \$0-eg1-R2.s \$0-eg1-R2.r empty 0
-9 0 10 -261682 -1 -1 0 1;
#X obj 173 149 vsl 15 128 0 1 0 0 \$0-eg1-L3.s \$0-eg1-L3.r empty 0
-9 0 10 -204800 -1 -1 12700 1;
#X obj 188 149 vsl 15 128 0 1 0 0 \$0-eg1-R3.s \$0-eg1-R3.r empty 0
-9 0 10 -261682 -1 -1 0 1;
#X obj 206 149 vsl 15 128 0 1 0 0 \$0-eg1-L4.s \$0-eg1-L4.r empty 0
-9 0 10 -204800 -1 -1 0 1;
#X obj 221 149 vsl 15 128 0 1 0 0 \$0-eg1-R4.s \$0-eg1-R4.r empty 0
-9 0 10 -261682 -1 -1 6800 1;
#X obj 107 289 vsl 15 128 0 1 0 0 \$0-eg2-L1.s \$0-eg2-L1.r empty 0
-9 0 10 -204800 -1 -1 12700 1;
#X obj 122 289 vsl 15 128 0 1 0 0 \$0-eg2-R1.s \$0-eg2-R1.r empty 0
-9 0 10 -261682 -1 -1 0 1;
#X obj 140 289 vsl 15 128 0 1 0 0 \$0-eg2-L2.s \$0-eg2-L2.r empty 0
-9 0 10 -204800 -1 -1 12700 1;
#X obj 155 289 vsl 15 128 0 1 0 0 \$0-eg2-R2.s \$0-eg2-R2.r empty 0
-9 0 10 -261682 -1 -1 0 1;
#X obj 173 289 vsl 15 128 0 1 0 0 \$0-eg2-L3.s \$0-eg2-L3.r empty 0
-9 0 10 -204800 -1 -1 12700 1;
#X obj 188 289 vsl 15 128 0 1 0 0 \$0-eg2-R3.s \$0-eg2-R3.r empty 0
-9 0 10 -261682 -1 -1 0 1;
#X obj 206 289 vsl 15 128 0 1 0 0 \$0-eg2-L4.s \$0-eg2-L4.r empty 0
-9 0 10 -204800 -1 -1 12700 1;
#X obj 221 289 vsl 15 128 0 1 0 0 \$0-eg2-R4.s \$0-eg2-R4.r empty 0
-9 0 10 -261682 -1 -1 0 1;
#X obj 107 429 vsl 15 128 0 1 0 0 \$0-eg3-L1.s \$0-eg3-L1.r empty 0
-9 0 10 -204800 -1 -1 12700 1;
#X obj 122 429 vsl 15 128 0 1 0 0 \$0-eg3-R1.s \$0-eg3-R1.r empty 0
-9 0 10 -261682 -1 -1 0 1;
#X obj 140 429 vsl 15 128 0 1 0 0 \$0-eg3-L2.s \$0-eg3-L2.r empty 0
-9 0 10 -204800 -1 -1 12700 1;
#X obj 155 429 vsl 15 128 0 1 0 0 \$0-eg3-R2.s \$0-eg3-R2.r empty 0
-9 0 10 -261682 -1 -1 0 1;
#X obj 173 429 vsl 15 128 0 1 0 0 \$0-eg3-L3.s \$0-eg3-L3.r empty 0
-9 0 10 -204800 -1 -1 12700 1;
#X obj 188 429 vsl 15 128 0 1 0 0 \$0-eg3-R3.s \$0-eg3-R3.r empty 0
-9 0 10 -261682 -1 -1 0 1;
#X obj 206 429 vsl 15 128 0 1 0 0 \$0-eg3-L4.s \$0-eg3-L4.r empty 0
-9 0 10 -204800 -1 -1 12700 1;
#X obj 221 429 vsl 15 128 0 1 0 0 \$0-eg3-R4.s \$0-eg3-R4.r empty 0
-9 0 10 -261682 -1 -1 0 1;
#X obj 239 202 tgl 15 0 \$0-sync1.s \$0-sync1.r sync1 17 7 0 10 -262144
-1 -1 1 1;
#X obj 239 342 tgl 15 0 \$0-sync2.s \$0-sync2.r sync2 17 7 0 10 -262144
-1 -1 1 1;
#X obj 239 482 tgl 15 0 \$0-sync3.s \$0-sync3.r sync3 17 7 0 10 -262144
-1 -1 1 1;
#X obj 239 232 hradio 15 1 0 3 \$0-eg1-mode.s \$0-eg1-mode.r sustain
0 -8 0 10 -262144 -1 -1 0;
#X obj 239 372 hradio 15 1 0 3 \$0-eg2-mode.s \$0-eg2-mode.r sustain
0 -8 0 10 -262144 -1 -1 0;
#X obj 239 512 hradio 15 1 0 3 \$0-eg3-mode.s \$0-eg3-mode.r sustain
0 -8 0 10 -262144 -1 -1 0;
#N canvas 0 23 450 300 labels 0;
#X obj 63 40 r \$0-eg1-mode.s;
#X obj 63 60 sel 0 1 2;
#X msg 97 130 label loop;
#X msg 63 90 label sustain;
#X msg 80 110 label release;
#X obj 63 160 s \$0-eg1-mode.r;
#X obj 173 60 sel 0 1 2;
#X msg 207 130 label loop;
#X msg 173 90 label sustain;
#X msg 190 110 label release;
#X obj 283 60 sel 0 1 2;
#X msg 317 130 label loop;
#X msg 283 90 label sustain;
#X msg 300 110 label release;
#X obj 173 40 r \$0-eg2-mode.s;
#X obj 173 160 s \$0-eg2-mode.r;
#X obj 283 40 r \$0-eg3-mode.s;
#X obj 283 160 s \$0-eg3-mode.r;
#X connect 0 0 1 0;
#X connect 1 0 3 0;
#X connect 1 1 4 0;
#X connect 1 2 2 0;
#X connect 2 0 5 0;
#X connect 3 0 5 0;
#X connect 4 0 5 0;
#X connect 6 0 8 0;
#X connect 6 1 9 0;
#X connect 6 2 7 0;
#X connect 7 0 15 0;
#X connect 8 0 15 0;
#X connect 9 0 15 0;
#X connect 10 0 12 0;
#X connect 10 1 13 0;
#X connect 10 2 11 0;
#X connect 11 0 17 0;
#X connect 12 0 17 0;
#X connect 13 0 17 0;
#X connect 14 0 6 0;
#X connect 16 0 10 0;
#X restore 637 266 pd labels;
#N canvas 256 68 648 631 random 0;
#X obj 32 137 random 1e+06;
#X obj 32 157 / 1e+06;
#X obj 32 177 t b f;
#X obj 32 97 t f b;
#X obj 32 217 f;
#X obj 72 217 + 1;
#X msg 32 77 4;
#X obj 32 237 pack f f \$0;
#X msg 32 257 \; \$3-eg1-L\$1.r \$2 \;;
#X obj 32 37 r \$0-eg1-random.s;
#X obj 32 57 t b b;
#X obj 152 137 random 1e+06;
#X obj 152 157 / 1e+06;
#X obj 152 177 t b f;
#X obj 152 97 t f b;
#X obj 152 217 f;
#X obj 192 217 + 1;
#X msg 152 77 4;
#X obj 152 237 pack f f \$0;
#X msg 152 257 \; \$3-eg1-R\$1.r \$2 \;;
#X obj 32 117 until;
#X obj 152 117 until;
#X msg 47 197 1;
#X msg 167 197 1;
#X obj 292 137 random 1e+06;
#X obj 292 157 / 1e+06;
#X obj 292 177 t b f;
#X obj 292 97 t f b;
#X obj 292 217 f;
#X obj 332 217 + 1;
#X msg 292 77 4;
#X obj 292 237 pack f f \$0;
#X obj 292 57 t b b;
#X obj 412 137 random 1e+06;
#X obj 412 157 / 1e+06;
#X obj 412 177 t b f;
#X obj 412 97 t f b;
#X obj 412 217 f;
#X obj 452 217 + 1;
#X msg 412 77 4;
#X obj 412 237 pack f f \$0;
#X obj 292 117 until;
#X obj 412 117 until;
#X msg 307 197 1;
#X msg 427 197 1;
#X obj 32 427 random 1e+06;
#X obj 32 447 / 1e+06;
#X obj 32 467 t b f;
#X obj 32 387 t f b;
#X obj 32 507 f;
#X obj 72 507 + 1;
#X msg 32 367 4;
#X obj 32 527 pack f f \$0;
#X obj 32 347 t b b;
#X obj 152 427 random 1e+06;
#X obj 152 447 / 1e+06;
#X obj 152 467 t b f;
#X obj 152 387 t f b;
#X obj 152 507 f;
#X obj 192 507 + 1;
#X msg 152 367 4;
#X obj 152 527 pack f f \$0;
#X obj 32 407 until;
#X obj 152 407 until;
#X msg 47 487 1;
#X msg 167 487 1;
#X obj 292 37 r \$0-eg2-random.s;
#X msg 412 257 \; \$3-eg2-R\$1.r \$2 \;;
#X msg 292 257 \; \$3-eg2-L\$1.r \$2 \;;
#X msg 152 547 \; \$3-eg3-R\$1.r \$2 \;;
#X msg 32 547 \; \$3-eg3-L\$1.r \$2 \;;
#X obj 32 327 r \$0-eg3-random.s;
#X connect 0 0 1 0;
#X connect 1 0 2 0;
#X connect 2 0 4 0;
#X connect 2 1 7 1;
#X connect 3 0 20 0;
#X connect 3 1 22 0;
#X connect 4 0 5 0;
#X connect 4 0 7 0;
#X connect 5 0 4 1;
#X connect 6 0 3 0;
#X connect 7 0 8 0;
#X connect 9 0 10 0;
#X connect 10 0 6 0;
#X connect 10 1 17 0;
#X connect 11 0 12 0;
#X connect 12 0 13 0;
#X connect 13 0 15 0;
#X connect 13 1 18 1;
#X connect 14 0 21 0;
#X connect 14 1 23 0;
#X connect 15 0 16 0;
#X connect 15 0 18 0;
#X connect 16 0 15 1;
#X connect 17 0 14 0;
#X connect 18 0 19 0;
#X connect 20 0 0 0;
#X connect 21 0 11 0;
#X connect 22 0 4 1;
#X connect 23 0 15 1;
#X connect 24 0 25 0;
#X connect 25 0 26 0;
#X connect 26 0 28 0;
#X connect 26 1 31 1;
#X connect 27 0 41 0;
#X connect 27 1 43 0;
#X connect 28 0 29 0;
#X connect 28 0 31 0;
#X connect 29 0 28 1;
#X connect 30 0 27 0;
#X connect 31 0 68 0;
#X connect 32 0 30 0;
#X connect 32 1 39 0;
#X connect 33 0 34 0;
#X connect 34 0 35 0;
#X connect 35 0 37 0;
#X connect 35 1 40 1;
#X connect 36 0 42 0;
#X connect 36 1 44 0;
#X connect 37 0 38 0;
#X connect 37 0 40 0;
#X connect 38 0 37 1;
#X connect 39 0 36 0;
#X connect 40 0 67 0;
#X connect 41 0 24 0;
#X connect 42 0 33 0;
#X connect 43 0 28 1;
#X connect 44 0 37 1;
#X connect 45 0 46 0;
#X connect 46 0 47 0;
#X connect 47 0 49 0;
#X connect 47 1 52 1;
#X connect 48 0 62 0;
#X connect 48 1 64 0;
#X connect 49 0 50 0;
#X connect 49 0 52 0;
#X connect 50 0 49 1;
#X connect 51 0 48 0;
#X connect 52 0 70 0;
#X connect 53 0 51 0;
#X connect 53 1 60 0;
#X connect 54 0 55 0;
#X connect 55 0 56 0;
#X connect 56 0 58 0;
#X connect 56 1 61 1;
#X connect 57 0 63 0;
#X connect 57 1 65 0;
#X connect 58 0 59 0;
#X connect 58 0 61 0;
#X connect 59 0 58 1;
#X connect 60 0 57 0;
#X connect 61 0 69 0;
#X connect 62 0 45 0;
#X connect 63 0 54 0;
#X connect 64 0 49 1;
#X connect 65 0 58 1;
#X connect 66 0 32 0;
#X connect 71 0 53 0;
#X restore 637 286 pd random;
#X obj 299 262 bng 15 250 50 0 \$0-eg1-random.s \$0-eg1-random.r eg1.rand
17 7 0 10 -261234 -1 -1;
#X obj 299 402 bng 15 250 50 0 \$0-eg2-random.s \$0-eg2-random.r eg2.rand
17 7 0 10 -261234 -1 -1;
#X obj 299 542 bng 15 250 50 0 \$0-eg3-random.s \$0-eg3-random.r eg3.rand
17 7 0 10 -261234 -1 -1;
#N canvas 73 23 373 220 copy.paste 0;
#X obj 54 102 table \$0-eg-buffer 8;
#X obj 54 32 copy.envelope \$0 1;
#X obj 54 52 copy.envelope \$0 2;
#X obj 54 72 copy.envelope \$0 3;
#X obj 194 32 paste.envelope \$0 1;
#X obj 194 72 paste.envelope \$0 3;
#X obj 194 52 paste.envelope \$0 2;
#X restore 637 306 pd copy.paste;
#X obj 299 222 bng 15 250 50 0 \$0-eg1-copy.s \$0-eg1-copy.r eg1.copy
17 7 0 10 -204786 -1 -1;
#X obj 299 242 bng 15 250 50 0 \$0-eg1-paste.s \$0-eg1-paste.r eg1.paste
17 7 0 10 -262130 -1 -1;
#X obj 299 362 bng 15 250 50 0 \$0-eg2-copy.s \$0-eg2-copy.r eg2.copy
17 7 0 10 -204786 -1 -1;
#X obj 299 382 bng 15 250 50 0 \$0-eg2-paste.s \$0-eg2-paste.r eg2.paste
17 7 0 10 -262130 -1 -1;
#X obj 299 502 bng 15 250 50 0 \$0-eg3-copy.s \$0-eg3-copy.r eg3.copy
17 7 0 10 -204786 -1 -1;
#X obj 299 522 bng 15 250 50 0 \$0-eg3-paste.s \$0-eg3-paste.r eg3.paste
17 7 0 10 -262130 -1 -1;
#N canvas 134 60 524 531 waveforms 0;
#X msg 185 96 sinesum 4096 1;
#X obj 74 76 t b b b b b b b b b;
#X obj 74 56 r \$0-create.waveforms;
#X obj 185 116 s \$0-w1;
#X obj 74 346 table \$0-w1 4099;
#X obj 74 366 table \$0-w2 4099;
#X obj 74 386 table \$0-w3 4099;
#X obj 74 406 table \$0-w4 4099;
#X obj 184 346 table \$0-w5 4099;
#X obj 184 366 table \$0-w6 4099;
#X obj 184 386 table \$0-w7 4099;
#X obj 184 406 table \$0-w8 4099;
#X obj 294 346 table \$0-w9 4099;
#N canvas 102 97 991 705 w2 0;
#X obj 148 341 f;
#X obj 179 340 + 1;
#X msg 171 311 0;
#X obj 148 286 until;
#X obj 148 246 t f b;
#X obj 148 370 t f f;
#X obj 141 466 / 1.5487;
#X obj 270 239 until;
#X obj 271 211 t f b;
#X obj 262 461 / 1.5487;
#X obj 269 267 t b b;
#X obj 248 334 f;
#X obj 280 333 - 1;
#X obj 316 333 f;
#X msg 339 303 0;
#X obj 348 332 + 1;
#X obj 424 249 until;
#X obj 425 221 t f b;
#X obj 416 471 / 1.5487;
#X obj 425 340 f;
#X obj 420 495 * -1;
#X obj 457 339 + 1;
#X msg 440 307 0;
#X obj 427 373 t f f;
#X obj 568 260 until;
#X obj 569 232 t f b;
#X obj 561 462 / 1.5487;
#X obj 567 288 t b b;
#X obj 566 359 f;
#X obj 598 358 - 1;
#X obj 647 357 f;
#X msg 670 327 0;
#X obj 679 356 + 1;
#X obj 563 490 * -1;
#X obj 304 20 inlet;
#X obj 299 102 / 4;
#X obj 276 126 t f f f f f;
#X obj 150 397 /;
#X obj 341 461 +;
#X obj 270 392 /;
#X obj 501 445 * 2;
#X obj 425 402 /;
#X obj 562 394 /;
#X obj 664 449 * 3;
#X obj 650 486 +;
#X obj 495 471 +;
#X msg 313 50 4096;
#X obj 146 435 expr asin($f1);
#X obj 266 425 expr asin($f1);
#X obj 406 435 expr asin($f1);
#X obj 556 435 expr asin($f1);
#X obj 141 498 tabwrite \$0-w2;
#X obj 262 494 tabwrite \$0-w2;
#X obj 413 523 tabwrite \$0-w2;
#X obj 559 515 tabwrite \$0-w2;
#X connect 0 0 1 0;
#X connect 0 0 5 0;
#X connect 1 0 0 1;
#X connect 2 0 0 1;
#X connect 3 0 0 0;
#X connect 4 0 3 0;
#X connect 4 1 2 0;
#X connect 5 0 37 0;
#X connect 5 1 51 1;
#X connect 6 0 51 0;
#X connect 7 0 10 0;
#X connect 8 0 7 0;
#X connect 8 1 14 0;
#X connect 9 0 52 0;
#X connect 10 0 11 0;
#X connect 10 1 13 0;
#X connect 11 0 12 0;
#X connect 11 0 39 0;
#X connect 12 0 11 1;
#X connect 13 0 15 0;
#X connect 13 0 38 0;
#X connect 14 0 13 1;
#X connect 15 0 13 1;
#X connect 16 0 19 0;
#X connect 17 0 16 0;
#X connect 17 1 22 0;
#X connect 18 0 20 0;
#X connect 19 0 21 0;
#X connect 19 0 23 0;
#X connect 20 0 53 0;
#X connect 21 0 19 1;
#X connect 22 0 19 1;
#X connect 23 0 41 0;
#X connect 23 1 45 0;
#X connect 24 0 27 0;
#X connect 25 0 24 0;
#X connect 25 1 31 0;
#X connect 26 0 33 0;
#X connect 27 0 28 0;
#X connect 27 1 30 0;
#X connect 28 0 29 0;
#X connect 28 0 42 0;
#X connect 29 0 28 1;
#X connect 30 0 32 0;
#X connect 30 0 44 0;
#X connect 31 0 30 1;
#X connect 32 0 30 1;
#X connect 33 0 54 0;
#X connect 34 0 46 0;
#X connect 35 0 36 0;
#X connect 36 0 25 0;
#X connect 36 1 17 0;
#X connect 36 2 8 0;
#X connect 36 3 4 0;
#X connect 36 4 37 1;
#X connect 36 4 38 1;
#X connect 36 4 39 1;
#X connect 36 4 11 1;
#X connect 36 4 40 0;
#X connect 36 4 41 1;
#X connect 36 4 42 1;
#X connect 36 4 43 0;
#X connect 36 4 28 1;
#X connect 37 0 47 0;
#X connect 38 0 52 1;
#X connect 39 0 48 0;
#X connect 40 0 45 1;
#X connect 41 0 49 0;
#X connect 42 0 50 0;
#X connect 43 0 44 1;
#X connect 44 0 54 1;
#X connect 45 0 53 1;
#X connect 46 0 35 0;
#X connect 47 0 6 0;
#X connect 48 0 9 0;
#X connect 49 0 18 0;
#X connect 50 0 26 0;
#X restore 171 136 pd w2;
#N canvas 0 23 448 396 w3 0;
#X obj 138 172 f;
#X obj 169 171 + 1;
#X obj 138 146 until;
#X obj 138 117 t f b;
#X msg 176 146 0;
#X obj 138 199 t f f;
#X obj 139 254 expr if($f1<=.5 \, $f1 \, 0);
#X obj 139 227 / 4099;
#X obj 139 280 * 4099;
#X obj 138 58 inlet;
#X msg 138 88 4096;
#X obj 140 337 tabwrite \$0-w3;
#X obj 139 308 tabread \$0-w1;
#X connect 0 0 1 0;
#X connect 0 0 5 0;
#X connect 1 0 0 1;
#X connect 2 0 0 0;
#X connect 3 0 2 0;
#X connect 3 1 4 0;
#X connect 4 0 0 1;
#X connect 5 0 7 0;
#X connect 5 1 11 1;
#X connect 6 0 8 0;
#X connect 7 0 6 0;
#X connect 8 0 12 0;
#X connect 9 0 10 0;
#X connect 10 0 3 0;
#X connect 12 0 11 0;
#X restore 157 156 pd w3;
#N canvas 60 23 534 640 w4 0;
#X obj 148 341 f;
#X obj 179 340 + 1;
#X msg 171 311 0;
#X obj 148 286 until;
#X obj 148 246 t f b;
#X obj 148 370 t f f;
#X obj 141 466 / 1.5487;
#X obj 270 239 until;
#X obj 271 211 t f b;
#X obj 262 461 / 1.5487;
#X obj 269 267 t b b;
#X obj 248 334 f;
#X obj 280 333 - 1;
#X obj 316 333 f;
#X msg 339 303 0;
#X obj 348 332 + 1;
#X obj 304 20 inlet;
#X obj 299 102 / 4;
#X obj 276 126 t f f f f f;
#X obj 150 397 /;
#X obj 341 461 +;
#X obj 270 392 /;
#X obj 306 74 t f b;
#X msg 399 107 const 0;
#X msg 309 45 4096;
#X obj 268 426 expr asin($f1);
#X obj 147 431 expr asin($f1);
#X obj 262 494 tabwrite \$0-w4;
#X obj 141 498 tabwrite \$0-w4;
#X obj 406 143 s \$0-w4;
#X connect 0 0 1 0;
#X connect 0 0 5 0;
#X connect 1 0 0 1;
#X connect 2 0 0 1;
#X connect 3 0 0 0;
#X connect 4 0 3 0;
#X connect 4 1 2 0;
#X connect 5 0 19 0;
#X connect 5 1 28 1;
#X connect 6 0 28 0;
#X connect 7 0 10 0;
#X connect 8 0 7 0;
#X connect 8 1 14 0;
#X connect 9 0 27 0;
#X connect 10 0 11 0;
#X connect 10 1 13 0;
#X connect 11 0 12 0;
#X connect 11 0 21 0;
#X connect 12 0 11 1;
#X connect 13 0 15 0;
#X connect 13 0 20 0;
#X connect 14 0 13 1;
#X connect 15 0 13 1;
#X connect 16 0 24 0;
#X connect 17 0 18 0;
#X connect 18 2 8 0;
#X connect 18 3 4 0;
#X connect 18 4 19 1;
#X connect 18 4 20 1;
#X connect 18 4 21 1;
#X connect 18 4 11 1;
#X connect 19 0 26 0;
#X connect 20 0 27 1;
#X connect 21 0 25 0;
#X connect 22 0 17 0;
#X connect 22 1 23 0;
#X connect 23 0 29 0;
#X connect 24 0 22 0;
#X connect 25 0 9 0;
#X connect 26 0 6 0;
#X restore 143 176 pd w4;
#N canvas 185 134 369 412 w5 0;
#X obj 125 47 inlet;
#X obj 125 178 f;
#X obj 156 177 + 1;
#X obj 125 152 until;
#X obj 125 123 t f b;
#X msg 163 152 0;
#X obj 125 205 t f f;
#X obj 126 233 / 4099;
#X obj 126 286 * 4099;
#X obj 126 260 expr if($f1<=.5 \, $f1*2 \, 0);
#X msg 125 94 4096;
#X obj 127 343 tabwrite \$0-w5;
#X obj 126 314 tabread \$0-w1;
#X connect 0 0 10 0;
#X connect 1 0 2 0;
#X connect 1 0 6 0;
#X connect 2 0 1 1;
#X connect 3 0 1 0;
#X connect 4 0 3 0;
#X connect 4 1 5 0;
#X connect 5 0 1 1;
#X connect 6 0 7 0;
#X connect 6 1 11 1;
#X connect 7 0 9 0;
#X connect 8 0 12 0;
#X connect 9 0 8 0;
#X connect 10 0 4 0;
#X connect 12 0 11 0;
#X restore 129 196 pd w5;
#N canvas 0 22 991 705 w6 0;
#X obj 148 341 f;
#X obj 179 340 + 1;
#X msg 171 311 0;
#X obj 148 286 until;
#X obj 148 246 t f b;
#X obj 148 370 t f f;
#X obj 141 466 / 1.5487;
#X obj 270 239 until;
#X obj 271 211 t f b;
#X obj 262 461 / 1.5487;
#X obj 269 267 t b b;
#X obj 248 334 f;
#X obj 280 333 - 1;
#X obj 316 333 f;
#X msg 339 303 0;
#X obj 348 332 + 1;
#X obj 424 249 until;
#X obj 425 221 t f b;
#X obj 416 471 / 1.5487;
#X obj 425 340 f;
#X obj 420 495 * -1;
#X obj 457 339 + 1;
#X msg 440 307 0;
#X obj 427 373 t f f;
#X obj 568 260 until;
#X obj 569 232 t f b;
#X obj 561 462 / 1.5487;
#X obj 567 288 t b b;
#X obj 566 359 f;
#X obj 598 358 - 1;
#X obj 647 357 f;
#X msg 670 327 0;
#X obj 679 356 + 1;
#X obj 563 490 * -1;
#X obj 304 20 inlet;
#X obj 299 102 / 4;
#X obj 276 126 t f f f f f;
#X obj 150 397 /;
#X obj 341 461 +;
#X obj 270 392 /;
#X obj 501 445 * 2;
#X obj 425 402 /;
#X obj 562 394 /;
#X obj 664 419 * 3;
#X obj 650 456 +;
#X obj 495 471 +;
#X msg 303 74 4099;
#X obj 493 497 * 0.5;
#X obj 650 482 * 0.5;
#X obj 337 491 * 0.5;
#X obj 197 493 * 0.5;
#X msg 383 82 const 0;
#X obj 299 43 t f b;
#X obj 268 426 expr asin($f1);
#X obj 147 431 expr asin($f1);
#X obj 422 436 expr asin($f1);
#X obj 559 428 expr asin($f1);
#X obj 384 109 s \$0-w6;
#X obj 135 523 tabwrite \$0-w6;
#X obj 254 516 tabwrite \$0-w6;
#X obj 413 523 tabwrite \$0-w6;
#X obj 559 515 tabwrite \$0-w6;
#X connect 0 0 1 0;
#X connect 0 0 5 0;
#X connect 1 0 0 1;
#X connect 2 0 0 1;
#X connect 3 0 0 0;
#X connect 4 0 3 0;
#X connect 4 1 2 0;
#X connect 5 0 37 0;
#X connect 5 1 50 0;
#X connect 6 0 58 0;
#X connect 7 0 10 0;
#X connect 8 0 7 0;
#X connect 8 1 14 0;
#X connect 9 0 59 0;
#X connect 10 0 11 0;
#X connect 10 1 13 0;
#X connect 11 0 12 0;
#X connect 11 0 39 0;
#X connect 12 0 11 1;
#X connect 13 0 15 0;
#X connect 13 0 38 0;
#X connect 14 0 13 1;
#X connect 15 0 13 1;
#X connect 16 0 19 0;
#X connect 17 0 16 0;
#X connect 17 1 22 0;
#X connect 18 0 20 0;
#X connect 19 0 21 0;
#X connect 19 0 23 0;
#X connect 20 0 60 0;
#X connect 21 0 19 1;
#X connect 22 0 19 1;
#X connect 23 0 41 0;
#X connect 23 1 45 0;
#X connect 24 0 27 0;
#X connect 25 0 24 0;
#X connect 25 1 31 0;
#X connect 26 0 33 0;
#X connect 27 0 28 0;
#X connect 27 1 30 0;
#X connect 28 0 29 0;
#X connect 28 0 42 0;
#X connect 29 0 28 1;
#X connect 30 0 32 0;
#X connect 30 0 44 0;
#X connect 31 0 30 1;
#X connect 32 0 30 1;
#X connect 33 0 61 0;
#X connect 34 0 52 0;
#X connect 35 0 36 0;
#X connect 36 0 25 0;
#X connect 36 1 17 0;
#X connect 36 2 8 0;
#X connect 36 3 4 0;
#X connect 36 4 37 1;
#X connect 36 4 38 1;
#X connect 36 4 39 1;
#X connect 36 4 11 1;
#X connect 36 4 40 0;
#X connect 36 4 41 1;
#X connect 36 4 42 1;
#X connect 36 4 43 0;
#X connect 36 4 28 1;
#X connect 37 0 54 0;
#X connect 38 0 49 0;
#X connect 39 0 53 0;
#X connect 40 0 45 1;
#X connect 41 0 55 0;
#X connect 42 0 56 0;
#X connect 43 0 44 1;
#X connect 44 0 48 0;
#X connect 45 0 47 0;
#X connect 46 0 35 0;
#X connect 47 0 60 1;
#X connect 48 0 61 1;
#X connect 49 0 59 1;
#X connect 50 0 58 1;
#X connect 51 0 57 0;
#X connect 52 0 46 0;
#X connect 52 1 51 0;
#X connect 53 0 9 0;
#X connect 54 0 6 0;
#X connect 55 0 18 0;
#X connect 56 0 26 0;
#X restore 115 216 pd w6;
#N canvas 185 134 479 404 w7 0;
#X obj 106 55 inlet;
#X obj 106 176 f;
#X obj 137 175 + 1;
#X obj 106 150 until;
#X obj 106 121 t f b;
#X msg 144 150 0;
#X obj 106 203 t f f;
#X obj 107 231 / 4099;
#X obj 107 284 * 4099;
#X obj 107 258 expr if($f1<=.25 \, $f1*2 \, if($f1<=.5 \, ($f1-.25)*2
\, 0));
#X msg 105 92 4096;
#X obj 108 341 tabwrite \$0-w7;
#X obj 107 312 tabread \$0-w1;
#X connect 0 0 10 0;
#X connect 1 0 2 0;
#X connect 1 0 6 0;
#X connect 2 0 1 1;
#X connect 3 0 1 0;
#X connect 4 0 3 0;
#X connect 4 1 5 0;
#X connect 5 0 1 1;
#X connect 6 0 7 0;
#X connect 6 1 11 1;
#X connect 7 0 9 0;
#X connect 8 0 12 0;
#X connect 9 0 8 0;
#X connect 10 0 4 0;
#X connect 12 0 11 0;
#X restore 101 236 pd w7;
#N canvas 0 22 991 705 w8 0;
#X obj 148 341 f;
#X obj 179 340 + 1;
#X msg 171 311 0;
#X obj 148 286 until;
#X obj 148 246 t f b;
#X obj 148 370 t f f;
#X obj 141 466 / 1.5487;
#X obj 270 239 until;
#X obj 271 211 t f b;
#X obj 262 461 / 1.5487;
#X obj 269 267 t b b;
#X obj 248 334 f;
#X obj 280 333 - 1;
#X obj 316 333 f;
#X msg 339 303 0;
#X obj 348 332 + 1;
#X obj 424 249 until;
#X obj 425 221 t f b;
#X obj 416 471 / 1.5487;
#X obj 425 340 f;
#X obj 457 339 + 1;
#X msg 440 307 0;
#X obj 427 373 t f f;
#X obj 568 260 until;
#X obj 569 232 t f b;
#X obj 561 462 / 1.5487;
#X obj 567 288 t b b;
#X obj 566 359 f;
#X obj 598 358 - 1;
#X obj 647 357 f;
#X msg 670 327 0;
#X obj 679 356 + 1;
#X obj 304 20 inlet;
#X obj 299 102 / 4;
#X obj 276 126 t f f f f f;
#X obj 150 397 /;
#X obj 341 461 +;
#X obj 270 392 /;
#X obj 501 445 * 2;
#X obj 425 402 /;
#X obj 562 394 /;
#X obj 664 419 * 3;
#X obj 650 456 +;
#X obj 495 471 +;
#X obj 493 497 * 0.5;
#X obj 650 482 * 0.5;
#X obj 337 491 * 0.5;
#X obj 197 493 * 0.5;
#X msg 383 82 const 0;
#X obj 299 43 t f b;
#X msg 303 74 4096;
#X obj 147 431 expr asin($f1);
#X obj 268 426 expr asin($f1);
#X obj 422 436 expr asin($f1);
#X obj 559 428 expr asin($f1);
#X obj 384 109 s \$0-w8;
#X obj 135 523 tabwrite \$0-w8;
#X obj 254 516 tabwrite \$0-w8;
#X obj 413 523 tabwrite \$0-w8;
#X obj 559 515 tabwrite \$0-w8;
#X connect 0 0 1 0;
#X connect 0 0 5 0;
#X connect 1 0 0 1;
#X connect 2 0 0 1;
#X connect 3 0 0 0;
#X connect 4 0 3 0;
#X connect 4 1 2 0;
#X connect 5 0 35 0;
#X connect 5 1 47 0;
#X connect 6 0 56 0;
#X connect 7 0 10 0;
#X connect 8 0 7 0;
#X connect 8 1 14 0;
#X connect 9 0 57 0;
#X connect 10 0 11 0;
#X connect 10 1 13 0;
#X connect 11 0 12 0;
#X connect 11 0 37 0;
#X connect 12 0 11 1;
#X connect 13 0 15 0;
#X connect 13 0 36 0;
#X connect 14 0 13 1;
#X connect 15 0 13 1;
#X connect 16 0 19 0;
#X connect 17 0 16 0;
#X connect 17 1 21 0;
#X connect 18 0 58 0;
#X connect 19 0 20 0;
#X connect 19 0 22 0;
#X connect 20 0 19 1;
#X connect 21 0 19 1;
#X connect 22 0 39 0;
#X connect 22 1 43 0;
#X connect 23 0 26 0;
#X connect 24 0 23 0;
#X connect 24 1 30 0;
#X connect 25 0 59 0;
#X connect 26 0 27 0;
#X connect 26 1 29 0;
#X connect 27 0 28 0;
#X connect 27 0 40 0;
#X connect 28 0 27 1;
#X connect 29 0 31 0;
#X connect 29 0 42 0;
#X connect 30 0 29 1;
#X connect 31 0 29 1;
#X connect 32 0 49 0;
#X connect 33 0 34 0;
#X connect 34 0 24 0;
#X connect 34 1 17 0;
#X connect 34 2 8 0;
#X connect 34 3 4 0;
#X connect 34 4 35 1;
#X connect 34 4 36 1;
#X connect 34 4 37 1;
#X connect 34 4 11 1;
#X connect 34 4 38 0;
#X connect 34 4 39 1;
#X connect 34 4 40 1;
#X connect 34 4 41 0;
#X connect 34 4 27 1;
#X connect 35 0 51 0;
#X connect 36 0 46 0;
#X connect 37 0 52 0;
#X connect 38 0 43 1;
#X connect 39 0 53 0;
#X connect 40 0 54 0;
#X connect 41 0 42 1;
#X connect 42 0 45 0;
#X connect 43 0 44 0;
#X connect 44 0 58 1;
#X connect 45 0 59 1;
#X connect 46 0 57 1;
#X connect 47 0 56 1;
#X connect 48 0 55 0;
#X connect 49 0 50 0;
#X connect 49 1 48 0;
#X connect 50 0 33 0;
#X connect 51 0 6 0;
#X connect 52 0 9 0;
#X connect 53 0 18 0;
#X connect 54 0 25 0;
#X restore 87 256 pd w8;
#N canvas 0 22 703 655 w9 0;
#X obj 135 104 inlet;
#X obj 133 237 f;
#X obj 171 238 + 1;
#X obj 133 211 until;
#X obj 134 182 t f b;
#X msg 171 211 0;
#X obj 130 358 t f f;
#X obj 126 447 min;
#X obj 130 414 + 1;
#X obj 130 385 * -1;
#X obj 124 472 * 4;
#X obj 125 500 - 1;
#X obj 132 290 t f f;
#X msg 133 151 4099;
#X obj 131 333 / 4099;
#X obj 126 530 tabwrite \$0-w9;
#X connect 0 0 13 0;
#X connect 1 0 2 0;
#X connect 1 0 12 0;
#X connect 2 0 1 1;
#X connect 3 0 1 0;
#X connect 4 0 3 0;
#X connect 4 1 5 0;
#X connect 5 0 1 1;
#X connect 6 0 9 0;
#X connect 6 1 7 1;
#X connect 7 0 10 0;
#X connect 8 0 7 0;
#X connect 9 0 8 0;
#X connect 10 0 11 0;
#X connect 11 0 15 0;
#X connect 12 0 14 0;
#X connect 12 1 15 1;
#X connect 13 0 4 0;
#X connect 14 0 6 0;
#X restore 74 276 pd w9;
#X connect 0 0 3 0;
#X connect 1 0 20 0;
#X connect 1 1 19 0;
#X connect 1 2 18 0;
#X connect 1 3 17 0;
#X connect 1 4 16 0;
#X connect 1 5 15 0;
#X connect 1 6 14 0;
#X connect 1 7 13 0;
#X connect 1 8 0 0;
#X connect 2 0 1 0;
#X restore 637 226 pd waveforms;
#N canvas 0 22 450 300 todo 0;
#X text 70 36 - Casio CZ-style waveforms;
#X text 70 56 - pitch envelope;
#X text 70 76 - velocity curves;
#X text 70 96 - morph bewteen two presets with;
#X obj 272 96 list-inter;
#X restore 637 186 pd todo;
#X obj 239 249 cnv 15 45 15 empty empty level 8 8 0 10 -204800 -66577
0;
#X obj 239 265 cnv 15 45 15 empty empty rate 10 8 0 10 -261682 -66577
0;
#X obj 239 389 cnv 15 45 15 empty empty level 8 8 0 10 -204800 -66577
0;
#X obj 239 405 cnv 15 45 15 empty empty rate 10 8 0 10 -261682 -66577
0;
#X obj 239 529 cnv 15 45 15 empty empty level 8 8 0 10 -204800 -66577
0;
#X obj 239 545 cnv 15 45 15 empty empty rate 10 8 0 10 -261682 -66577
0;
#X connect 0 0 30 0;
#X connect 0 1 31 0;
#X connect 29 0 0 0;
#X connect 33 0 34 0;
#X coords 0 -1 1 1 500 466 2 100 100;
