#N canvas 1273 232 647 546 10;
#X obj 63 460 outlet~;
#X obj 63 109 phasor~;
#X obj 63 70 inlet~;
#X obj 174 70 inlet;
#X text 63 44 freq;
#X text 175 44 params;
#X obj 221 70 inlet;
#X text 221 27 fm operator with parametric wavform and feedback;
#X text 217 44 fb amt;
#X obj 453 77 samplerate~;
#X obj 453 100 t b f;
#X msg 453 123 1000;
#X obj 453 146 /;
#X obj 453 54 loadbang;
#X text 453 169 1 sample delay;
#X obj 117 70 inlet~;
#X obj 63 148 +~;
#X text 108 44 phase mod;
#X obj 533 76 bng 15 250 50 0 empty empty empty 17 7 0 10 -262144 -1
-1;
#X floatatom 515 108 5 0 0 0 - - -, f 5;
#N canvas 1227 299 622 676 inner 1;
#X obj 158 337 cos~;
#X obj 158 274 *~;
#X obj 158 316 +~;
#X obj 158 295 clip~;
#X obj 158 358 *~;
#X obj 158 379 -~;
#X obj 211 229 unpack f f f f f f;
#X obj 158 188 +~;
#X obj 214 156 *~;
#X obj 158 227 wrap~;
#X obj 214 134 delread~ \$0-fmop1 0;
#X obj 223 437 delwrite~ \$0-fmop1 1;
#X obj 158 59 inlet~;
#X obj 158 470 outlet~;
#X obj 350 69 inlet params;
#X obj 233 76 inlet fb_amt;
#X obj 442 76 inlet smp_time;
#X obj 543 78 inlet on;
#X obj 498 41 block~ 1;
#X connect 0 0 4 0;
#X connect 1 0 3 0;
#X connect 2 0 0 0;
#X connect 3 0 2 0;
#X connect 4 0 5 0;
#X connect 5 0 11 0;
#X connect 5 0 13 0;
#X connect 6 0 3 1;
#X connect 6 1 3 2;
#X connect 6 2 2 1;
#X connect 6 3 1 1;
#X connect 6 4 4 1;
#X connect 6 5 5 1;
#X connect 7 0 9 0;
#X connect 8 0 7 1;
#X connect 9 0 1 0;
#X connect 10 0 8 0;
#X connect 12 0 7 0;
#X connect 14 0 6 0;
#X connect 15 0 8 1;
#X connect 16 0 10 0;
#X restore 63 292 pd inner;
#N canvas 542 268 450 323 test 0;
#X obj 240 58 inlet;
#N canvas 2882 258 622 607 inner 0;
#X obj 158 337 cos~;
#X obj 158 274 *~;
#X obj 158 316 +~;
#X obj 158 295 clip~;
#X obj 158 358 *~;
#X obj 158 379 -~;
#X obj 211 229 unpack f f f f f f;
#X obj 158 227 wrap~;
#X obj 158 59 inlet~;
#X obj 158 470 outlet~;
#X obj 214 59 inlet params;
#X obj 398 66 inlet on;
#X obj 398 88 tgl 15 0 empty empty empty 17 7 0 10 -262144 -1 -1 0
1;
#X obj 398 114 switch~ 64;
#X connect 0 0 4 0;
#X connect 1 0 3 0;
#X connect 2 0 0 0;
#X connect 3 0 2 0;
#X connect 4 0 5 0;
#X connect 5 0 9 0;
#X connect 6 0 3 1;
#X connect 6 1 3 2;
#X connect 6 2 2 1;
#X connect 6 3 1 1;
#X connect 6 4 4 1;
#X connect 6 5 5 1;
#X connect 7 0 1 0;
#X connect 8 0 7 0;
#X connect 10 0 6 0;
#X connect 11 0 12 0;
#X connect 12 0 13 0;
#X restore 210 283 pd inner;
#X obj 82 417 *~;
#X obj 117 391 line~;
#X msg 273 364 1 2;
#X msg 273 346 0 2;
#X obj 210 413 *~;
#X obj 245 387 line~;
#X msg 296 200 1;
#X msg 267 199 0;
#X obj 240 84 t f f;
#X obj 267 111 == 0;
#X obj 267 133 change;
#X obj 267 176 del 2;
#X msg 381 210 1;
#X msg 351 209 0;
#X obj 351 186 del 2;
#X obj 348 63 loadbang;
#X obj 353 159 sel 0 1;
#X msg 348 85 -2;
#X obj 267 155 sel 1 0;
#X msg 118 370 1 2;
#X msg 118 352 0 2;
#X obj 69 118 tgl 15 0 empty empty empty 17 7 0 10 -262144 -1 -1 0
1;
#X obj 69 138 switch~;
#X connect 0 0 10 0;
#X connect 1 0 6 0;
#X connect 3 0 2 1;
#X connect 4 0 7 0;
#X connect 5 0 7 0;
#X connect 7 0 6 1;
#X connect 10 1 11 0;
#X connect 11 0 12 0;
#X connect 12 0 18 0;
#X connect 12 0 20 0;
#X connect 13 0 9 0;
#X connect 14 0 1 2;
#X connect 15 0 1 2;
#X connect 16 0 15 0;
#X connect 17 0 19 0;
#X connect 18 0 16 0;
#X connect 18 0 5 0;
#X connect 18 1 14 0;
#X connect 18 1 4 0;
#X connect 19 0 12 0;
#X connect 20 0 13 0;
#X connect 20 0 22 0;
#X connect 20 1 8 0;
#X connect 20 1 21 0;
#X connect 21 0 3 0;
#X connect 22 0 3 0;
#X connect 23 0 24 0;
#X restore 383 331 pd test;
#X connect 1 0 16 0;
#X connect 2 0 1 0;
#X connect 3 0 20 2;
#X connect 6 0 20 1;
#X connect 9 0 10 0;
#X connect 9 0 19 0;
#X connect 10 0 11 0;
#X connect 10 1 12 1;
#X connect 11 0 12 0;
#X connect 12 0 20 3;
#X connect 13 0 9 0;
#X connect 15 0 16 1;
#X connect 16 0 20 0;
#X connect 18 0 9 0;
#X connect 20 0 0 0;
