#N canvas 153 172 675 656 10;
#X obj 277 446 bng 15 50 10 0 empty empty empty 0 -6 0 8 -262144 -1
-1;
#X obj 277 399 delay 1000;
#X msg 241 359 bang;
#X msg 277 359 stop;
#X floatatom 334 378 5 0 0 0 - - -, f 5;
#X obj 242 61 inlet;
#X floatatom 269 246 5 0 0 0 ms - -, f 5;
#X floatatom 340 248 6 0 0 0 beat - -, f 6;
#X floatatom 430 251 5 0 0 0 micro - -, f 5;
#X obj 242 283 tgl 15 0 empty empty empty 17 7 0 10 -262144 -1 -1 1
1;
#X obj 404 272 /;
#X obj 242 319 sel 1 0;
#X obj 277 477 f;
#X obj 308 477 + 1;
#X floatatom 277 499 5 0 0 0 - - -, f 5;
#X msg 301 447 1;
#X obj 301 424 t b;
#X obj 277 520 pack f f f;
#X obj 358 520 pack 0 f f;
#X msg 277 549 \$2 \$1 \$3;
#X obj 371 198 bng 15 50 50 0 empty empty empty 17 7 0 10 -262144 -1
-1;
#X obj 242 163 t l b;
#X obj 242 217 unpack f f f;
#X msg 242 190 \$3 \$1 \$2;
#X obj 132 163 spigot;
#X obj 132 185 print;
#X obj 169 139 tgl 15 0 empty empty empty 17 7 0 10 -262144 -1 -1 0
1;
#X obj 278 603 outlet micro_timing;
#X obj 481 53 inlet micro_settings_metro;
#X msg 481 75 set \$1;
#X connect 0 0 2 0;
#X connect 0 0 12 0;
#X connect 1 0 0 0;
#X connect 2 0 1 0;
#X connect 3 0 1 0;
#X connect 4 0 1 1;
#X connect 4 0 17 2;
#X connect 5 0 24 0;
#X connect 5 0 21 0;
#X connect 6 0 10 0;
#X connect 7 0 16 0;
#X connect 7 0 17 1;
#X connect 7 0 18 1;
#X connect 8 0 10 1;
#X connect 9 0 11 0;
#X connect 10 0 4 0;
#X connect 10 0 18 2;
#X connect 11 0 2 0;
#X connect 11 0 18 0;
#X connect 11 1 3 0;
#X connect 12 0 13 0;
#X connect 12 0 14 0;
#X connect 13 0 12 1;
#X connect 14 0 17 0;
#X connect 15 0 12 1;
#X connect 16 0 15 0;
#X connect 17 0 19 0;
#X connect 18 0 19 0;
#X connect 19 0 27 0;
#X connect 20 0 8 0;
#X connect 21 0 23 0;
#X connect 21 1 20 0;
#X connect 22 0 9 0;
#X connect 22 1 6 0;
#X connect 22 2 7 0;
#X connect 23 0 22 0;
#X connect 24 0 25 0;
#X connect 26 0 24 1;
#X connect 28 0 29 0;
#X connect 29 0 8 0;
