#N canvas 730 1 675 656 10;
#X obj 277 421 bng 15 50 10 0 empty empty empty 0 -6 0 8 -262144 -1
-1;
#X obj 277 399 delay 1000;
#X msg 241 359 bang;
#X msg 277 359 stop;
#X floatatom 334 378 5 0 0 0 - - -, f 5;
#X obj 242 61 inlet;
#X floatatom 269 246 5 0 0 0 ms - -, f 5;
#X floatatom 322 265 6 0 0 0 beat - -, f 6;
#X floatatom 358 300 5 0 0 0 micro - -, f 5;
#X obj 242 283 tgl 15 0 empty empty empty 17 7 0 10 -262144 -1 -1 1
1;
#X obj 332 321 /;
#X obj 242 319 sel 1 0;
#X obj 277 452 f;
#X obj 308 452 + 1;
#X floatatom 277 474 5 0 0 0 - - -, f 5;
#X msg 323 424 1;
#X obj 384 394 t b;
#X obj 277 495 pack f f f;
#X obj 358 495 pack 0 f f;
#X msg 277 524 \$2 \$1 \$3;
#X obj 430 153 bng 15 250 50 0 empty empty empty 17 7 0 10 -262144
-1 -1;
#X floatatom 481 97 5 0 0 0 - - -, f 5;
#X msg 481 233 symbol \$1-micro_settings;
#X msg 430 212 0;
#X obj 430 255 text get;
#X obj 242 128 spigot;
#X obj 276 105 tgl 15 0 empty empty empty 17 7 0 10 -262144 -1 -1 1
1;
#X obj 242 163 t l b;
#X floatatom 430 276 5 0 0 0 - - -, f 5;
#X obj 242 217 unpack f f f;
#X msg 242 190 \$3 \$1 \$2;
#X obj 132 163 spigot;
#X obj 132 185 print;
#X obj 169 139 tgl 15 0 empty empty empty 17 7 0 10 -262144 -1 -1 0
1;
#X obj 481 53 inlet dollar_null;
#X obj 481 75 change;
#X obj 45 522 spigot;
#X obj 45 544 print;
#X obj 82 498 tgl 15 0 empty empty empty 17 7 0 10 -262144 -1 -1 0
1;
#X obj 430 191 t 0 0;
#X obj 297 61 inlet on;
#X obj 156 579 outlet metro_beep;
#X obj 278 578 outlet micro_timing;
#X msg 130 372 \$2;
#X connect 0 0 2 0;
#X connect 0 0 12 0;
#X connect 1 0 0 0;
#X connect 2 0 1 0;
#X connect 3 0 1 0;
#X connect 4 0 1 1;
#X connect 4 0 17 2;
#X connect 5 0 31 0;
#X connect 5 0 25 0;
#X connect 6 0 10 0;
#X connect 7 0 16 0;
#X connect 7 0 17 1;
#X connect 7 0 18 1;
#X connect 8 0 10 1;
#X connect 9 0 11 0;
#X connect 10 0 4 0;
#X connect 10 0 18 2;
#X connect 11 0 2 0;
#X connect 11 0 18 0;
#X connect 11 1 3 0;
#X connect 12 0 13 0;
#X connect 12 0 14 0;
#X connect 13 0 12 1;
#X connect 14 0 17 0;
#X connect 15 0 12 1;
#X connect 16 0 15 0;
#X connect 17 0 19 0;
#X connect 18 0 19 0;
#X connect 19 0 36 0;
#X connect 19 0 42 0;
#X connect 20 0 39 0;
#X connect 21 0 22 0;
#X connect 22 0 24 3;
#X connect 23 0 24 0;
#X connect 24 0 28 0;
#X connect 25 0 27 0;
#X connect 25 0 43 0;
#X connect 26 0 25 1;
#X connect 27 0 30 0;
#X connect 27 1 20 0;
#X connect 28 0 8 0;
#X connect 29 0 9 0;
#X connect 29 1 6 0;
#X connect 29 2 7 0;
#X connect 30 0 29 0;
#X connect 31 0 32 0;
#X connect 33 0 31 1;
#X connect 34 0 35 0;
#X connect 35 0 21 0;
#X connect 36 0 37 0;
#X connect 38 0 36 1;
#X connect 39 0 23 0;
#X connect 39 1 24 1;
#X connect 40 0 26 0;
#X connect 43 0 41 0;
