#N canvas 642 5 996 983 10;
#X obj 277 422 bng 15 50 10 0 empty empty empty 0 -6 0 8 -262144 -1
-1;
#X obj 277 400 delay 1000;
#X msg 241 360 bang;
#X msg 277 360 stop;
#X floatatom 334 379 5 0 0 0 - - -, f 5;
#X obj 244 9 inlet;
#X obj 278 911 outlet;
#X floatatom 269 266 5 0 0 0 ms - -, f 5;
#X floatatom 322 285 6 0 0 0 beat - -, f 6;
#X floatatom 358 320 5 0 0 0 micro - -, f 5;
#X obj 242 303 tgl 15 0 empty empty empty 17 7 0 10 -262144 -1 -1 1
1;
#X obj 332 341 /;
#X obj 242 339 sel 1 0;
#X obj 277 453 f;
#X obj 308 453 + 1;
#X floatatom 277 475 5 0 0 0 - - -, f 5;
#X msg 323 425 1;
#X obj 384 395 t b;
#X obj 277 496 pack f f f;
#X obj 358 496 pack 0 f f;
#X msg 277 525 \$2 \$1 \$3;
#X obj 403 181 bng 15 250 50 0 empty empty empty 17 7 0 10 -262144
-1 -1;
#X floatatom 403 221 5 0 0 0 - - -, f 5;
#X obj 403 200 float \$1;
#X floatatom 440 150 5 0 0 0 - - -, f 5;
#X msg 454 261 symbol \$1-micro_settings;
#X obj 403 241 t b f;
#X msg 403 262 0;
#X obj 403 283 text get;
#X obj 242 162 spigot;
#X obj 276 139 tgl 15 0 empty empty empty 17 7 0 10 -262144 -1 -1 1
1;
#X floatatom 403 304 5 0 0 0 - - -, f 5;
#X obj 242 237 unpack f f f;
#X msg 242 210 \$3 \$1 \$2;
#X obj 430 645 array get;
#X floatatom 303 640 5 0 0 0 - - -, f 5;
#X obj 303 617 expr $f1 * $f3 + $f2;
#X msg 302 591 \$1;
#X obj 278 547 t a a a;
#X msg 342 586 \$2;
#X floatatom 430 667 5 0 0 0 - - -, f 5;
#X msg 481 623 symbol \$1-row\$2;
#X obj 481 580 pack f f;
#X msg 481 602 \$2 \$1;
#X obj 278 690 spigot;
#X obj 138 128 spigot;
#X obj 138 150 print;
#X obj 175 104 tgl 15 0 empty empty empty 17 7 0 10 -262144 -1 -1 0
1;
#X obj 244 48 list trim;
#X floatatom 305 151 5 0 0 0 - - -, f 5;
#X obj 342 109 bng 15 250 50 0 empty empty empty 17 7 0 10 -262144
-1 -1;
#X floatatom 342 151 5 0 0 0 - - -, f 5;
#X obj 342 129 float \$1;
#X obj 362 107 loadbang;
#X obj 304 172 >;
#X obj 441 174 s \$0-dollar_null;
#X obj 455 238 r \$0-dollar_null;
#X obj 526 557 r \$0-dollar_null;
#X obj 440 127 bng 15 250 50 0 empty empty empty 17 7 0 10 -262144
-1 -1;
#X obj 484 120 s \$0-amount_solo;
#X obj 278 808 spigot;
#N canvas 583 129 647 597 set_mute_and_solos 0;
#X obj 120 198 array get;
#X msg 172 177 symbol \$1-mute;
#X obj 230 205 array get;
#X msg 281 177 symbol \$1-solo;
#X obj 172 154 r \$0-dollar_null;
#X obj 281 154 r \$0-dollar_null;
#X obj 121 33 bng 15 250 50 0 empty empty empty 17 7 0 10 -262144 -1
-1;
#X floatatom 121 116 5 0 0 0 - - -, f 5;
#X obj 121 53 float \$1;
#X obj 141 31 loadbang;
#X floatatom 120 221 5 0 0 0 - - -, f 5;
#X msg 163 92 1;
#X floatatom 230 227 5 0 0 0 - - -, f 5;
#X msg 121 92 set \$1;
#X obj 398 271 r \$0-amount_solo;
#X floatatom 398 293 5 0 0 0 - - -, f 5;
#X obj 119 325 expr if($f2 == 1 || $f1 == 0 && $f3 == 0 \, 1 \, 0)
;
#X floatatom 119 352 5 0 0 0 - - -, f 5;
#X obj 121 137 t f f;
#X obj 269 96 r \$0-trigger_btn;
#X obj 269 117 t b b;
#X obj 352 428 outlet soloed;
#X obj 352 405 change;
#X obj 119 400 change;
#X obj 119 427 outlet mute;
#X obj 252 429 outlet muted;
#X obj 120 247 t f f;
#X obj 252 407 == 0;
#X obj 252 386 spigot;
#X obj 286 361 == 0;
#X msg 56 325 1;
#X obj 55 304 loadbang;
#X connect 0 0 10 0;
#X connect 1 0 0 2;
#X connect 2 0 12 0;
#X connect 3 0 2 2;
#X connect 4 0 1 0;
#X connect 5 0 3 0;
#X connect 6 0 8 0;
#X connect 7 0 18 0;
#X connect 8 0 11 0;
#X connect 8 0 13 0;
#X connect 9 0 6 0;
#X connect 10 0 26 0;
#X connect 11 0 0 1;
#X connect 11 0 2 1;
#X connect 12 0 16 1;
#X connect 12 0 22 0;
#X connect 12 0 29 0;
#X connect 13 0 7 0;
#X connect 14 0 15 0;
#X connect 15 0 16 2;
#X connect 16 0 17 0;
#X connect 17 0 23 0;
#X connect 18 0 0 0;
#X connect 18 1 2 0;
#X connect 19 0 20 0;
#X connect 20 0 7 0;
#X connect 20 1 15 0;
#X connect 22 0 21 0;
#X connect 23 0 24 0;
#X connect 23 0 28 0;
#X connect 26 0 16 0;
#X connect 27 0 25 0;
#X connect 28 0 27 0;
#X connect 29 0 28 1;
#X connect 30 0 17 0;
#X connect 31 0 30 0;
#X restore 328 778 pd set_mute_and_solos;
#X obj 515 98 s \$0-trigger_btn;
#X obj 457 95 t b f;
#X floatatom 484 140 5 0 0 0 - - -, f 5;
#X obj 278 849 list prepend notes;
#X obj 389 823 list prepend muted;
#X obj 450 800 list prepend solo;
#X floatatom 649 466 5 0 0 0 beats - -, f 5;
#X msg 649 444 \$4;
#X obj 380 641 t f f;
#X floatatom 699 466 5 0 0 1 micro - -, f 5;
#X obj 649 487 *;
#X floatatom 649 509 5 0 0 0 - - -, f 5;
#X obj 431 701 spigot;
#X obj 463 679 tgl 15 0 empty empty empty 17 7 0 10 -262144 -1 -1 1
1;
#X obj 242 183 t l l b;
#N canvas 442 190 629 567 get_full_length 0;
#X obj 37 22 inlet trigger;
#X obj 140 21 inlet nr;
#X obj 213 21 inlet total amount;
#X obj 457 23 inlet row;
#X obj 318 280 array get;
#X msg 369 258 symbol \$1-row\$2;
#X obj 369 215 pack f f;
#X msg 369 237 \$2 \$1;
#X obj 414 192 r \$0-dollar_null;
#X obj 110 114 f;
#X obj 110 94 sel 1;
#X floatatom 110 186 5 0 0 0 - - -, f 5;
#X obj 110 234 until;
#X obj 110 260 f;
#X obj 139 261 + 1;
#X msg 172 226 0;
#X floatatom 110 286 5 0 0 0 - - -, f 5;
#X obj 110 205 t f b f;
#X obj 110 309 +;
#X obj 110 136 t f f;
#X obj 334 240 nbx 2 14 1 2 0 1 empty empty empty 0 -8 0 10 -262144
-1 -1 1 256 0;
#X obj 110 353 t f f;
#X obj 331 21 inlet smpl_len;
#X floatatom 331 43 0 0 0 0 - - -;
#X obj 110 166 expr $f2 - $f1 -1;
#X floatatom 160 114 5 0 0 0 - - -, f 5;
#X floatatom 156 142 5 0 0 0 - - -, f 5;
#X obj 318 304 route 1;
#X obj 60 379 del 0;
#X obj 60 357 t b f;
#X obj 108 409 f;
#X obj 110 331 + 1;
#X floatatom 228 59 5 0 0 0 - - -, f 5;
#X obj 228 80 - 1;
#X obj 221 449 +;
#X obj 221 426 *;
#X floatatom 221 471 10 0 0 0 - - -, f 10;
#X obj 221 492 outlet;
#X obj 314 420 spigot;
#X obj 314 442 print;
#X obj 349 390 tgl 15 0 empty empty empty 17 7 0 10 -262144 -1 -1 1
1;
#X connect 0 0 10 0;
#X connect 1 0 9 1;
#X connect 1 0 25 0;
#X connect 2 0 24 1;
#X connect 2 0 32 0;
#X connect 3 0 6 0;
#X connect 4 0 27 0;
#X connect 5 0 4 2;
#X connect 6 0 7 0;
#X connect 7 0 5 0;
#X connect 8 0 6 1;
#X connect 9 0 19 0;
#X connect 10 0 9 0;
#X connect 11 0 17 0;
#X connect 12 0 13 0;
#X connect 13 0 14 0;
#X connect 13 0 16 0;
#X connect 14 0 13 1;
#X connect 15 0 13 1;
#X connect 16 0 18 0;
#X connect 16 0 29 0;
#X connect 17 0 12 0;
#X connect 17 1 15 0;
#X connect 18 0 31 0;
#X connect 19 0 24 0;
#X connect 19 1 18 1;
#X connect 19 1 26 0;
#X connect 20 0 4 1;
#X connect 21 1 4 0;
#X connect 22 0 23 0;
#X connect 23 0 34 1;
#X connect 23 0 35 1;
#X connect 24 0 11 0;
#X connect 27 0 12 1;
#X connect 29 0 28 0;
#X connect 29 0 30 0;
#X connect 29 1 30 1;
#X connect 30 0 35 0;
#X connect 31 0 21 0;
#X connect 32 0 33 0;
#X connect 34 0 36 0;
#X connect 35 0 34 0;
#X connect 36 0 37 0;
#X connect 38 0 39 0;
#X connect 40 0 38 1;
#X restore 430 724 pd get_full_length;
#X obj 620 646 tgl 15 0 empty empty empty 17 7 0 10 -262144 -1 -1 1
1;
#X obj 278 757 pack f f f;
#X obj 278 712 unpack f f f;
#X obj 346 735 mux . .;
#X obj 244 72 route values dollar_null amount_rows amount_solo trigger_btn
full, f 67;
#X connect 0 0 2 0;
#X connect 0 0 13 0;
#X connect 1 0 0 0;
#X connect 2 0 1 0;
#X connect 3 0 1 0;
#X connect 4 0 1 1;
#X connect 4 0 18 2;
#X connect 4 0 77 3;
#X connect 5 0 45 0;
#X connect 5 0 48 0;
#X connect 7 0 11 0;
#X connect 8 0 17 0;
#X connect 8 0 18 1;
#X connect 8 0 19 1;
#X connect 9 0 11 1;
#X connect 9 0 36 2;
#X connect 10 0 12 0;
#X connect 11 0 4 0;
#X connect 11 0 19 2;
#X connect 12 0 2 0;
#X connect 12 0 19 0;
#X connect 12 1 3 0;
#X connect 13 0 14 0;
#X connect 13 0 15 0;
#X connect 14 0 13 1;
#X connect 15 0 18 0;
#X connect 16 0 13 1;
#X connect 17 0 16 0;
#X connect 18 0 20 0;
#X connect 19 0 20 0;
#X connect 20 0 38 0;
#X connect 21 0 23 0;
#X connect 22 0 26 0;
#X connect 22 0 42 0;
#X connect 22 0 77 4;
#X connect 23 0 22 0;
#X connect 24 0 55 0;
#X connect 25 0 28 3;
#X connect 26 0 27 0;
#X connect 26 1 28 1;
#X connect 27 0 28 0;
#X connect 28 0 31 0;
#X connect 29 0 76 0;
#X connect 30 0 29 1;
#X connect 31 0 9 0;
#X connect 31 0 71 0;
#X connect 32 0 10 0;
#X connect 32 1 7 0;
#X connect 32 2 8 0;
#X connect 33 0 32 0;
#X connect 34 0 40 0;
#X connect 35 0 70 0;
#X connect 36 0 35 0;
#X connect 37 0 36 0;
#X connect 38 0 44 0;
#X connect 38 1 37 0;
#X connect 38 2 39 0;
#X connect 39 0 36 1;
#X connect 40 0 44 1;
#X connect 40 0 74 0;
#X connect 41 0 34 2;
#X connect 42 0 43 0;
#X connect 43 0 41 0;
#X connect 44 0 80 0;
#X connect 45 0 46 0;
#X connect 47 0 45 1;
#X connect 48 0 82 0;
#X connect 49 0 54 0;
#X connect 50 0 52 0;
#X connect 51 0 54 1;
#X connect 52 0 51 0;
#X connect 53 0 50 0;
#X connect 54 0 30 0;
#X connect 56 0 25 0;
#X connect 57 0 42 1;
#X connect 58 0 24 0;
#X connect 60 0 65 0;
#X connect 61 0 60 1;
#X connect 61 1 66 0;
#X connect 61 2 67 0;
#X connect 63 0 62 0;
#X connect 63 1 59 0;
#X connect 63 1 64 0;
#X connect 65 0 6 0;
#X connect 66 0 6 0;
#X connect 67 0 6 0;
#X connect 68 0 72 0;
#X connect 69 0 68 0;
#X connect 70 0 34 0;
#X connect 70 1 77 1;
#X connect 71 0 72 1;
#X connect 72 0 73 0;
#X connect 73 0 77 2;
#X connect 74 0 77 0;
#X connect 75 0 74 1;
#X connect 76 0 33 0;
#X connect 76 1 69 0;
#X connect 76 2 21 0;
#X connect 77 0 81 1;
#X connect 78 0 75 0;
#X connect 78 0 81 2;
#X connect 79 0 60 0;
#X connect 80 0 79 0;
#X connect 80 1 79 1;
#X connect 80 2 81 0;
#X connect 81 0 79 2;
#X connect 82 0 29 0;
#X connect 82 1 24 0;
#X connect 82 2 49 0;
#X connect 82 3 63 0;
#X connect 82 4 62 0;
#X connect 82 5 78 0;
