#N struct 1046-toggle float col float col2 float line float x float
y float w float h float col_n float col_cl float row float column;
#N canvas 91 221 738 698 10;
#X obj 333 454 filledpolygon col col2 line 0 0 w 0 w h 0 h;
#N canvas 2026 68 810 911 erstelle_gui 0;
#X obj 328 398 pointer;
#X obj 303 104 nbx 5 14 2 1e+037 0 0 empty empty height 0 -8 0 10 -262144
-1 -1 10 256 0;
#X obj 152 243 bng 15 250 50 0 empty empty empty 17 7 0 10 -262144
-1 -1;
#X obj 383 104 nbx 5 14 0 1e+037 0 0 empty empty dist_x 0 -8 0 10 -262144
-1 -1 4 256 0;
#X obj 464 104 nbx 3 14 0 1e+037 0 0 empty empty col 0 -8 0 10 -262144
-1 -1 999 256 0;
#X obj 522 104 nbx 3 14 0 1e+037 0 0 empty empty col2 0 -8 0 10 -262144
-1 -1 0 256 0;
#X obj 585 104 nbx 3 14 1 1e+037 0 0 empty empty line 0 -8 0 10 -262144
-1 -1 2 256 0;
#X obj 152 287 t b b b b;
#N canvas 79 392 450 300 until_loop 0;
#X obj 137 82 until;
#X obj 137 104 f;
#X obj 165 105 + 1;
#X msg 179 79 0;
#X obj 136 27 inlet;
#X obj 136 49 t f b;
#X obj 140 184 outlet;
#X connect 0 0 1 0;
#X connect 1 0 2 0;
#X connect 1 0 6 0;
#X connect 2 0 1 1;
#X connect 3 0 1 1;
#X connect 4 0 5 0;
#X connect 5 0 0 0;
#X connect 5 1 3 0;
#X restore 152 362 pd until_loop;
#X obj 55 19 inlet;
#X obj 222 104 nbx 5 14 10 1e+037 0 0 empty empty width_quarter 0 -8
0 10 -262144 -1 -1 100 256 0;
#X obj 142 103 nbx 5 14 1 16 0 0 empty empty microtiming 0 -8 0 10
-262144 -1 -1 4 256 0;
#X obj 66 104 nbx 5 14 1 16 0 0 empty empty beat 0 -8 0 10 -262144
-1 -1 4 256 0;
#X floatatom 221 192 5 0 0 2 width - -, f 5;
#X obj 222 158 /;
#X obj 152 125 t b f;
#X floatatom 105 284 5 0 0 2 amount - -, f 5;
#X obj 152 314 f;
#X obj 152 435 f;
#X obj 152 384 t b f;
#X obj 152 587 t 0 f;
#X obj 92 420 % 4;
#X obj 181 435 +;
#X obj 152 336 t f b;
#X msg 192 384 0;
#X obj 175 487 f;
#X obj 152 514 +;
#X obj 207 486 +;
#X obj 222 463 r \$0-dist_x;
#X obj 383 127 s \$0-dist_x;
#X obj 92 442 sel 0;
#X obj 152 542 +;
#X obj 585 126 / 2;
#X obj 585 150 + 0.5;
#X obj 221 216 s \$0-width;
#X obj 190 731 r \$0-width;
#X obj 201 409 r \$0-width;
#X obj 464 174 s \$0-col;
#X obj 522 174 s \$0-col2;
#X obj 293 710 r \$0-col;
#X obj 82 731 r \$0-col2;
#X obj 110 710 r \$0-line;
#X obj 628 148 s \$0-line;
#X obj 585 174 s \$0-line2;
#X obj 197 519 r \$0-line2;
#X obj 106 245 * 4;
#X msg 327 373 traverse pd-\$0-gui \, bang;
#X floatatom 451 613 8 0 0 0 - - -, f 8;
#X floatatom 239 436 5 0 0 0 - - -, f 5;
#X obj 451 638 +;
#X obj 437 665 f;
#X obj 481 664 f;
#X obj 437 732 pack f f;
#X obj 437 571 t b b;
#X obj 303 127 s \$0-height;
#X obj 511 615 r \$0-height;
#X obj 216 710 r \$0-height;
#X obj 435 752 outlet size;
#X obj 690 105 nbx 3 14 0 1e+037 0 0 empty empty col_clicked 0 -8 0
10 -262144 -1 -1 0 256 0;
#X obj 690 175 s \$0-col_clicked;
#X obj 314 199 nbx 2 14 -1e+037 1e+037 0 0 empty empty row 0 -8 0 10
-262144 -1 -1 0 256 0;
#X obj 509 320 f;
#X obj 509 342 *;
#X obj 525 298 r \$0-height;
#X obj 537 320 f;
#X obj 537 342 f;
#X obj 567 323 r \$0-line2;
#X obj 509 364 +;
#X floatatom 509 408 5 0 0 0 y - -, f 5;
#X obj 152 263 t b b b;
#X obj 386 162 nbx 5 14 0 1e+037 0 0 empty empty dist_y 0 -8 0 10 -262144
-1 -1 5 256 0;
#X obj 387 185 s \$0-dist_y;
#X obj 496 641 +;
#X obj 509 386 +;
#X obj 553 368 f;
#X obj 581 368 f;
#X obj 569 346 r \$0-dist_y;
#X obj 553 390 *;
#X obj 509 275 t b b b;
#X obj 323 731 r \$0-col_clicked;
#X obj 195 586 r \$0-col;
#X obj 508 431 s \$0-y;
#X obj 173 710 r \$0-y;
#X obj 497 580 r \$0-y;
#X obj 152 615 pack f f f;
#X obj 151 643 unpack f f f;
#X obj 314 216 t b f;
#X obj 54 53 route beat micro width height dist_x col col2 line col_cl
dist_y row, f 69;
#X obj 341 237 s \$0-rowA;
#X obj 263 731 r \$0-rowA;
#X obj 601 297 r \$0-rowA;
#X obj 645 346 r \$0-rowA;
#X floatatom 517 491 5 0 0 0 drawnumber_breite - -, f 5;
#X obj 437 698 +;
#X obj 201 677 +;
#X obj 53 752 append \$0-toggle col col2 line x y w h row col_n col_cl
column, f 62;
#X connect 0 0 95 11;
#X connect 1 0 54 0;
#X connect 2 0 69 0;
#X connect 3 0 29 0;
#X connect 4 0 37 0;
#X connect 5 0 38 0;
#X connect 6 0 32 0;
#X connect 6 0 42 0;
#X connect 7 0 17 0;
#X connect 7 2 46 0;
#X connect 8 0 19 0;
#X connect 9 0 87 0;
#X connect 10 0 14 0;
#X connect 11 0 15 0;
#X connect 11 0 21 1;
#X connect 12 0 45 0;
#X connect 13 0 34 0;
#X connect 14 0 13 0;
#X connect 15 0 10 0;
#X connect 15 0 12 0;
#X connect 15 1 14 1;
#X connect 15 1 45 1;
#X connect 16 0 17 1;
#X connect 17 0 23 0;
#X connect 18 0 22 0;
#X connect 18 0 26 0;
#X connect 19 0 18 0;
#X connect 19 1 21 0;
#X connect 19 1 95 10;
#X connect 20 0 84 0;
#X connect 20 1 84 2;
#X connect 21 0 30 0;
#X connect 22 0 18 1;
#X connect 23 0 8 0;
#X connect 23 1 24 0;
#X connect 24 0 18 1;
#X connect 24 0 25 1;
#X connect 25 0 27 0;
#X connect 25 0 26 1;
#X connect 26 0 31 0;
#X connect 27 0 25 1;
#X connect 28 0 27 1;
#X connect 30 0 25 0;
#X connect 31 0 20 0;
#X connect 31 0 47 0;
#X connect 32 0 33 0;
#X connect 33 0 43 0;
#X connect 35 0 95 5;
#X connect 36 0 22 1;
#X connect 36 0 48 0;
#X connect 39 0 95 8;
#X connect 40 0 95 1;
#X connect 41 0 95 2;
#X connect 44 0 31 1;
#X connect 45 0 16 0;
#X connect 46 0 0 0;
#X connect 47 0 49 0;
#X connect 48 0 49 1;
#X connect 49 0 50 1;
#X connect 50 0 93 0;
#X connect 51 0 52 1;
#X connect 52 0 57 0;
#X connect 53 0 50 0;
#X connect 53 1 51 0;
#X connect 55 0 72 1;
#X connect 56 0 95 6;
#X connect 58 0 59 0;
#X connect 60 0 86 0;
#X connect 61 0 62 0;
#X connect 62 0 67 0;
#X connect 63 0 61 1;
#X connect 64 0 62 1;
#X connect 65 0 67 1;
#X connect 66 0 65 1;
#X connect 67 0 73 0;
#X connect 68 0 81 0;
#X connect 69 0 53 0;
#X connect 69 1 7 0;
#X connect 69 2 78 0;
#X connect 70 0 71 0;
#X connect 72 0 51 1;
#X connect 73 0 68 0;
#X connect 74 0 77 0;
#X connect 75 0 77 1;
#X connect 76 0 74 1;
#X connect 77 0 73 1;
#X connect 78 0 61 0;
#X connect 78 1 64 0;
#X connect 78 1 65 0;
#X connect 78 1 74 0;
#X connect 78 2 75 0;
#X connect 79 0 95 9;
#X connect 80 0 84 1;
#X connect 82 0 95 4;
#X connect 83 0 72 0;
#X connect 84 0 85 0;
#X connect 85 1 95 0;
#X connect 85 2 94 0;
#X connect 86 0 2 0;
#X connect 86 1 88 0;
#X connect 87 0 12 0;
#X connect 87 1 11 0;
#X connect 87 2 10 0;
#X connect 87 3 1 0;
#X connect 87 4 3 0;
#X connect 87 5 4 0;
#X connect 87 6 5 0;
#X connect 87 7 6 0;
#X connect 87 8 58 0;
#X connect 87 9 70 0;
#X connect 87 10 60 0;
#X connect 89 0 95 7;
#X connect 90 0 64 1;
#X connect 91 0 75 1;
#X connect 92 0 94 1;
#X connect 92 0 93 1;
#X connect 93 0 52 0;
#X connect 94 0 95 3;
#X coords 0 -1 1 1 94 60 1 714 245;
#X restore 28 335 pd erstelle_gui;
#N canvas 493 203 509 497 gui 0;
#X text 59 362 [donecanvasdialog <x-units> <y-units> <gop> <x-from>
<y-from> <x-to> <y-to> <x-size> <y-size> <x-margin> <y-margin>( The
gop argument is 0 = gop off \; 1 = gop on \, show arguments \; and
2 = gop on \, hide arguments.;
#X msg 151 190 donecanvasdialog 0 0 2 0 0 \$1 \$2 \$1 \$2 0 0 \, dirty
0;
#X msg 27 204 editmode 0;
#X obj 152 211 s pd-\$0-gui;
#X obj 77 25 inlet size;
#X obj 35 314 s \$0-toggle_matrix;
#X obj 93 284 s \$0-toggle_matrix;
#X obj 75 70 t b a a;
#X obj 151 234 s \$0-gui;
#X msg 94 260 donecanvasdialog 0 0 2 0 0 \$1 \$2 \$1 \$2 0 0 \, dirty
0;
#X connect 1 0 3 0;
#X connect 2 0 5 0;
#X connect 2 0 8 0;
#X connect 4 0 7 0;
#X connect 7 0 2 0;
#X connect 7 1 9 0;
#X connect 7 2 1 0;
#X connect 9 0 6 0;
#X coords 0 -1 1 1 103 36 1 326 54;
#X restore 28 422 pd gui;
#N canvas 768 308 660 351 \$0-gui 0;
#X scalar 1046-toggle 999 0 2 1.5 1.5 25 10 999 0 0 0 \;;
#X scalar 1046-toggle 999 0 2 26.5 1.5 25 10 999 0 0 1 \;;
#X scalar 1046-toggle 999 0 2 51.5 1.5 25 10 999 0 0 2 \;;
#X scalar 1046-toggle 999 0 2 76.5 1.5 25 10 999 0 0 3 \;;
#X scalar 1046-toggle 999 0 2 105.5 1.5 25 10 999 0 0 4 \;;
#X scalar 1046-toggle 999 0 2 130.5 1.5 25 10 999 0 0 5 \;;
#X scalar 1046-toggle 999 0 2 155.5 1.5 25 10 999 0 0 6 \;;
#X scalar 1046-toggle 999 0 2 180.5 1.5 25 10 999 0 0 7 \;;
#X scalar 1046-toggle 999 0 2 209.5 1.5 25 10 999 0 0 8 \;;
#X scalar 1046-toggle 999 0 2 234.5 1.5 25 10 999 0 0 9 \;;
#X scalar 1046-toggle 999 0 2 259.5 1.5 25 10 999 0 0 10 \;;
#X scalar 1046-toggle 999 0 2 284.5 1.5 25 10 999 0 0 11 \;;
#X scalar 1046-toggle 0 0 2 313.5 1.5 25 10 999 0 0 12 \;;
#X scalar 1046-toggle 999 0 2 338.5 1.5 25 10 999 0 0 13 \;;
#X scalar 1046-toggle 999 0 2 363.5 1.5 25 10 999 0 0 14 \;;
#X scalar 1046-toggle 999 0 2 388.5 1.5 25 10 999 0 0 15 \;;
#X coords 0 0 413.5 11.5 413 11 2 0 0;
#X restore 0 0 pd \$0-gui;
#X obj 272 367 namecanvas \$0-toggle_matrix;
#X obj 31 219 inlet;
#X msg 31 294 \; pd-\$0-gui clear;
#X obj 31 270 route clear;
#N canvas 830 276 259 426 init 0;
#X msg 123 97 width 60;
#X msg 123 121 height 15;
#X msg 123 145 dist 8;
#X msg 123 169 dist_y 5;
#X msg 123 193 col 999;
#X msg 123 217 col2 0;
#X msg 123 241 line 2;
#X msg 123 265 col_cl 65;
#X msg 123 289 beat 4;
#X msg 123 313 micro 4;
#X obj 123 366 outlet;
#X obj 123 68 loadbang;
#X obj 123 40 bng 15 250 50 0 empty empty empty 17 7 0 10 -262144 -1
-1;
#X connect 0 0 10 0;
#X connect 1 0 10 0;
#X connect 2 0 10 0;
#X connect 3 0 10 0;
#X connect 4 0 10 0;
#X connect 5 0 10 0;
#X connect 6 0 10 0;
#X connect 7 0 10 0;
#X connect 8 0 10 0;
#X connect 9 0 10 0;
#X connect 11 0 0 0;
#X connect 11 0 9 0;
#X connect 11 0 8 0;
#X connect 11 0 7 0;
#X connect 11 0 6 0;
#X connect 11 0 5 0;
#X connect 11 0 4 0;
#X connect 11 0 3 0;
#X connect 11 0 2 0;
#X connect 11 0 1 0;
#X connect 12 0 0 0;
#X connect 12 0 9 0;
#X connect 12 0 8 0;
#X connect 12 0 7 0;
#X connect 12 0 6 0;
#X connect 12 0 5 0;
#X connect 12 0 4 0;
#X connect 12 0 3 0;
#X connect 12 0 2 0;
#X connect 12 0 1 0;
#X coords 0 -1 1 1 80 39 1 92 17;
#X restore 137 288 pd init;
#N canvas 406 58 1012 748 memorize_messages 0;
#X obj 80 28 inlet;
#X obj 198 205 list prepend;
#X obj 288 205 list;
#X obj 176 234 list;
#X obj 175 210 bng 15 250 50 0 empty empty empty 17 7 0 10 -262144
-1 -1;
#X obj 80 281 list length;
#X floatatom 80 303 5 0 0 0 - - -, f 5;
#X obj 80 412 list split;
#X obj 80 324 / 2;
#X obj 80 368 t b f;
#X obj 176 256 t l l;
#X obj 266 181 bng 15 250 50 0 empty empty empty 17 7 0 10 -262144
-1 -1;
#X obj 80 390 list;
#X obj 80 60 route clear change;
#X floatatom 149 523 5 0 0 0 - - -, f 5;
#X obj 345 129 unpack s f s f;
#X symbolatom 345 150 10 0 0 0 - - -, f 10;
#X symbolatom 416 150 10 0 0 0 - - -, f 10;
#X floatatom 376 170 5 0 0 0 - - -, f 5;
#X floatatom 488 149 5 0 0 0 - - -, f 5;
#X obj 108 435 unpack s f;
#X obj 108 479 f;
#X obj 108 501 ==;
#X obj 108 523 sel 1;
#X obj 108 545 f;
#X floatatom 108 567 5 0 0 0 - - -, f 5;
#X floatatom 370 289 5 0 0 0 - - -, f 5;
#X obj 320 107 t b a;
#X obj 370 330 / 2;
#N canvas 559 265 450 300 schleife 0;
#X obj 139 45 inlet;
#X obj 139 78 t f b;
#X obj 139 100 until;
#X obj 139 122 f;
#X msg 183 87 0;
#X obj 168 120 + 2;
#X obj 140 147 outlet;
#X connect 0 0 1 0;
#X connect 1 0 2 0;
#X connect 1 1 4 0;
#X connect 2 0 3 0;
#X connect 3 0 5 0;
#X connect 3 0 6 0;
#X connect 4 0 3 1;
#X connect 5 0 3 1;
#X restore 80 346 pd schleife;
#N canvas 559 265 450 300 schleife 0;
#X obj 139 45 inlet;
#X obj 139 78 t f b;
#X obj 139 100 until;
#X obj 139 122 f;
#X msg 183 87 0;
#X obj 168 120 + 2;
#X obj 140 147 outlet;
#X obj 210 42 inlet stop;
#X connect 0 0 1 0;
#X connect 1 0 2 0;
#X connect 1 1 4 0;
#X connect 2 0 3 0;
#X connect 3 0 5 0;
#X connect 3 0 6 0;
#X connect 4 0 3 1;
#X connect 5 0 3 1;
#X connect 7 0 2 1;
#X restore 370 351 pd schleife;
#X obj 370 444 list;
#X obj 370 395 expr $f2 - $f1;
#X obj 370 309 t f f;
#X obj 370 417 t b f;
#X obj 370 469 list split;
#X obj 399 497 unpack s f;
#X obj 399 519 sel micro;
#X text 28 252 index von nr finden;
#X text 365 247 index von micro finden \, rückwärts gehend von index
nr, f 30;
#X obj 373 558 f;
#X obj 370 373 t f f;
#X floatatom 373 580 5 0 0 0 - - -, f 5;
#X floatatom 571 364 5 0 0 0 - - -, f 5;
#X obj 590 418 list;
#X obj 590 440 list split;
#X obj 570 343 expr $f2 - $f1;
#X obj 589 509 list;
#X obj 645 469 list split 2;
#X obj 620 509 list;
#X obj 415 172 pack s f;
#X obj 571 385 t b b f;
#X obj 589 538 list append;
#X obj 672 538 list;
#X obj 651 509 list;
#X obj 571 469 t b b b b b;
#X obj 566 575 list;
#X text 556 244 micro austauschen und neue liste zusammensetzen, f
30;
#X obj 808 363 list length;
#X floatatom 808 385 5 0 0 0 - - -, f 5;
#X obj 808 406 / 2;
#X obj 808 450 t b f;
#N canvas 559 265 450 300 schleife 0;
#X obj 139 45 inlet;
#X obj 139 78 t f b;
#X obj 139 100 until;
#X obj 139 122 f;
#X msg 183 87 0;
#X obj 168 120 + 2;
#X obj 140 147 outlet;
#X connect 0 0 1 0;
#X connect 1 0 2 0;
#X connect 1 1 4 0;
#X connect 2 0 3 0;
#X connect 3 0 5 0;
#X connect 3 0 6 0;
#X connect 4 0 3 1;
#X connect 5 0 3 1;
#X restore 808 428 pd schleife;
#X obj 808 494 list split;
#X msg 836 518 \$1 \$2;
#X obj 808 472 list;
#X obj 837 659 outlet;
#X msg 860 544 clear;
#X obj 108 457 sel row;
#N canvas 699 209 450 440 set_arrays_to_old_values 0;
#X obj 207 12 inlet bang;
#X obj 234 145 pointer;
#X floatatom 234 214 5 0 0 0 - - -, f 5;
#X floatatom 288 224 5 0 0 0 - - -, f 5;
#X msg 246 115 next;
#X obj 235 302 array get;
#X msg 288 277 symbol \$0-row\$1;
#X obj 261 277 nbx 1 14 1 2 0 1 empty empty empty 0 -8 0 10 -262144
-1 -1 1 256 0;
#X msg 234 87 traverse pd-\$0-gui;
#X obj 193 84 until;
#X obj 207 45 t b b;
#X obj 235 329 sel 1;
#X obj 234 168 t p p;
#X floatatom 397 220 5 0 0 0 - - -, f 5;
#X obj 115 341 f;
#X obj 62 13 inlet new_row;
#X floatatom 62 35 5 0 0 0 - - -, f 5;
#X obj 201 273 spigot;
#X obj 239 250 !=;
#X obj 95 380 set \$0-toggle col;
#X obj 234 192 get \$0-toggle column row col_cl;
#X connect 0 0 10 0;
#X connect 1 0 12 0;
#X connect 1 1 9 1;
#X connect 2 0 17 0;
#X connect 3 0 6 0;
#X connect 3 0 18 0;
#X connect 4 0 1 0;
#X connect 5 0 11 0;
#X connect 6 0 5 2;
#X connect 7 0 5 1;
#X connect 8 0 1 0;
#X connect 9 0 4 0;
#X connect 10 0 9 0;
#X connect 10 1 8 0;
#X connect 11 0 14 0;
#X connect 12 0 20 0;
#X connect 12 1 19 1;
#X connect 13 0 14 1;
#X connect 14 0 19 0;
#X connect 15 0 16 0;
#X connect 16 0 18 1;
#X connect 17 0 5 0;
#X connect 18 0 17 1;
#X connect 20 0 2 0;
#X connect 20 1 3 0;
#X connect 20 2 13 0;
#X restore 790 203 pd set_arrays_to_old_values;
#X obj 788 328 t b l l b;
#X text 776 292 neue liste ausgeben, f 30;
#X obj 903 659 outlet clear_array;
#X connect 0 0 13 0;
#X connect 1 0 2 0;
#X connect 1 0 3 1;
#X connect 2 0 1 1;
#X connect 3 0 10 0;
#X connect 4 0 3 0;
#X connect 5 0 6 0;
#X connect 6 0 8 0;
#X connect 7 1 20 0;
#X connect 8 0 29 0;
#X connect 9 0 12 0;
#X connect 9 1 7 1;
#X connect 10 0 5 0;
#X connect 10 1 12 1;
#X connect 10 1 31 1;
#X connect 10 1 44 1;
#X connect 11 0 1 1;
#X connect 12 0 7 0;
#X connect 13 0 11 0;
#X connect 13 1 27 0;
#X connect 13 2 1 0;
#X connect 14 0 24 1;
#X connect 15 0 16 0;
#X connect 15 1 18 0;
#X connect 15 2 17 0;
#X connect 15 3 19 0;
#X connect 17 0 50 0;
#X connect 18 0 22 1;
#X connect 18 0 69 0;
#X connect 18 0 72 0;
#X connect 19 0 50 1;
#X connect 20 0 68 0;
#X connect 20 1 21 1;
#X connect 21 0 22 0;
#X connect 22 0 23 0;
#X connect 23 0 24 0;
#X connect 24 0 25 0;
#X connect 25 0 26 0;
#X connect 26 0 33 0;
#X connect 27 0 4 0;
#X connect 27 1 15 0;
#X connect 28 0 30 0;
#X connect 29 0 14 0;
#X connect 29 0 9 0;
#X connect 30 0 41 0;
#X connect 31 0 35 0;
#X connect 32 0 34 0;
#X connect 33 0 28 0;
#X connect 33 1 32 1;
#X connect 33 1 46 1;
#X connect 34 0 31 0;
#X connect 34 1 35 1;
#X connect 35 1 36 0;
#X connect 36 0 37 0;
#X connect 37 0 40 0;
#X connect 37 0 30 1;
#X connect 40 0 42 0;
#X connect 41 0 32 0;
#X connect 41 1 40 1;
#X connect 42 0 46 0;
#X connect 43 0 51 0;
#X connect 44 0 45 0;
#X connect 45 0 47 1;
#X connect 45 1 48 0;
#X connect 46 0 43 0;
#X connect 47 0 52 0;
#X connect 48 1 54 1;
#X connect 49 0 52 0;
#X connect 50 0 49 1;
#X connect 51 0 55 0;
#X connect 51 1 44 0;
#X connect 51 2 45 1;
#X connect 52 0 53 0;
#X connect 52 0 56 1;
#X connect 53 0 52 1;
#X connect 54 0 52 0;
#X connect 55 0 56 0;
#X connect 55 1 47 0;
#X connect 55 2 49 0;
#X connect 55 3 54 0;
#X connect 55 4 52 1;
#X connect 56 0 70 0;
#X connect 58 0 59 0;
#X connect 59 0 60 0;
#X connect 60 0 62 0;
#X connect 61 0 65 0;
#X connect 61 1 63 1;
#X connect 62 0 61 0;
#X connect 63 1 64 0;
#X connect 64 0 66 0;
#X connect 64 0 1 0;
#X connect 65 0 63 0;
#X connect 67 0 66 0;
#X connect 68 0 21 0;
#X connect 70 0 69 1;
#X connect 70 1 58 0;
#X connect 70 2 65 1;
#X connect 70 3 67 0;
#X connect 70 3 1 1;
#X restore 93 244 pd memorize_messages;
#X obj 33 531 iemguts/sendcanvas 1;
#X msg 33 506 editmode 0;
#X obj 32 482 del 200;
#N canvas 929 335 521 422 time_settings 0;
#X obj 128 44 inlet;
#X obj 185 130 list prepend;
#X obj 269 131 list;
#X floatatom 128 128 5 0 0 0 - - -, f 5;
#X obj 270 231 text define \$0-micro_settings;
#X obj 128 234 v \$0-amount_rows;
#X obj 128 188 + 1;
#X obj 128 66 route row micro clear;
#X obj 189 282 text set \$0-micro_settings;
#X connect 0 0 7 0;
#X connect 1 0 2 0;
#X connect 1 0 8 0;
#X connect 2 0 1 1;
#X connect 3 0 6 0;
#X connect 6 0 5 0;
#X connect 7 0 3 0;
#X connect 7 1 1 0;
#X connect 7 2 1 1;
#X coords 0 -1 1 1 100 37 1 392 49;
#X restore 351 286 pd time_settings;
#X msg 350 256 get_time_settings;
#N canvas 461 104 298 259 time_calculations 0;
#X obj 53 38 inlet metronome;
#X obj 53 191 outlet notes;
#X obj 53 78 t a b;
#X obj 109 106 \$0;
#X obj 53 150 delayer_metronom;
#X obj 165 39 inlet on;
#X obj 143 190 outlet micro_timing;
#X connect 0 0 2 0;
#X connect 2 0 4 0;
#X connect 2 1 3 0;
#X connect 3 0 4 2;
#X connect 4 0 1 0;
#X connect 4 1 6 0;
#X connect 5 0 4 1;
#X restore 547 266 pd time_calculations;
#X obj 547 214 inlet metronome;
#X obj 547 526 outlet notes;
#X obj 272 401 struct \$0-toggle float col float col2 float line float
x float y float w float h float col_n float col_cl float row float
column;
#X obj 666 236 tgl 15 1 empty empty empty 17 7 0 10 -262144 -1 -1 1
1;
#N canvas 676 44 765 788 set_metronom 0;
#X obj 235 535 pointer;
#X msg 261 487 next;
#X msg 232 465 traverse pd-\$0-gui \, next;
#X floatatom 107 648 5 0 0 0 - - -, f 5;
#X floatatom 256 649 5 0 0 0 - - -, f 5;
#X obj 107 602 t p p p;
#X obj 256 627 get \$0-toggle col_cl;
#X obj 107 625 get \$0-toggle col_n;
#X obj 107 670 set \$0-toggle col;
#X obj 111 40 inlet micro_timing;
#X obj 111 97 spigot;
#X obj 149 73 tgl 15 0 empty empty empty 17 7 0 10 -262144 -1 -1 1
1;
#X msg 169 196 0;
#X floatatom 169 239 5 0 0 0 - - -, f 5;
#X obj 169 218 text get \$0-micro_settings;
#X obj 235 443 sel 0;
#X obj 111 264 expr $f1 * $f2 + $f3;
#X obj 111 143 t a b;
#X obj 111 168 unpack f f f;
#X floatatom 111 286 5 0 0 0 - - -, f 5;
#X obj 17 67 spigot;
#X obj 16 88 print;
#X obj 55 43 tgl 15 0 empty empty empty 17 7 0 10 -262144 -1 -1 0 1
;
#X obj 107 579 pointer;
#X obj 256 583 pointer;
#X obj 256 605 t p p;
#X obj 244 64 tgl 15 0 empty empty empty 17 7 0 10 -262144 -1 -1 1
1;
#X obj 111 119 t a a;
#X obj 111 310 t b f b f;
#X obj 431 377 spigot;
#X obj 498 303 sel 1;
#X obj 238 84 t f f;
#X obj 499 281 change;
#X msg 498 326 1;
#X floatatom 467 354 5 0 0 0 - - -, f 5;
#X msg 532 325 0;
#X obj 433 452 until;
#X obj 432 422 - 1;
#X obj 432 399 t f b b b;
#X msg 430 484 traverse pd-\$0-gui \, next;
#X msg 431 508 next;
#X obj 255 39 inlet show_metronom;
#X connect 0 0 23 1;
#X connect 0 0 24 1;
#X connect 1 0 0 0;
#X connect 2 0 0 0;
#X connect 3 0 8 0;
#X connect 4 0 8 0;
#X connect 5 0 7 0;
#X connect 5 1 8 1;
#X connect 6 0 4 0;
#X connect 7 0 3 0;
#X connect 9 0 10 0;
#X connect 9 0 20 0;
#X connect 10 0 27 0;
#X connect 11 0 10 1;
#X connect 12 0 14 0;
#X connect 13 0 16 1;
#X connect 14 0 13 0;
#X connect 15 0 2 0;
#X connect 15 1 1 0;
#X connect 16 0 19 0;
#X connect 17 0 18 0;
#X connect 17 1 12 0;
#X connect 18 0 16 0;
#X connect 18 1 16 2;
#X connect 19 0 28 0;
#X connect 20 0 21 0;
#X connect 22 0 20 1;
#X connect 23 0 5 0;
#X connect 24 0 25 0;
#X connect 25 0 6 0;
#X connect 25 1 8 1;
#X connect 26 0 31 0;
#X connect 27 0 17 0;
#X connect 28 0 24 0;
#X connect 28 1 15 0;
#X connect 28 2 23 0;
#X connect 28 3 29 0;
#X connect 29 0 38 0;
#X connect 30 0 33 0;
#X connect 30 1 35 0;
#X connect 31 0 11 0;
#X connect 31 1 32 0;
#X connect 32 0 30 0;
#X connect 33 0 34 0;
#X connect 34 0 29 1;
#X connect 35 0 34 0;
#X connect 36 0 40 0;
#X connect 37 0 36 0;
#X connect 38 0 37 0;
#X connect 38 1 39 0;
#X connect 38 2 23 0;
#X connect 38 3 35 0;
#X connect 39 0 0 0;
#X connect 40 0 0 0;
#X connect 41 0 26 0;
#X restore 556 320 pd set_metronom;
#X obj 683 281 tgl 15 1 empty empty empty 17 7 0 10 -262144 -1 -1 1
1;
#X connect 1 0 2 0;
#X connect 5 0 7 0;
#X connect 5 0 13 0;
#X connect 5 0 9 0;
#X connect 7 0 6 0;
#X connect 7 0 12 0;
#X connect 7 1 1 0;
#X connect 8 0 1 0;
#X connect 9 0 7 0;
#X connect 11 0 10 0;
#X connect 12 0 11 0;
#X connect 14 0 13 0;
#X connect 15 0 17 0;
#X connect 15 1 20 0;
#X connect 16 0 15 0;
#X connect 19 0 15 1;
#X connect 21 0 20 1;
#X coords 0 0 413.5 11.5 413 11 2 0 0;
