#N struct 2146-toggle float col float col2 float line float x float
y float w float h float col_n float col_cl float row float column float
col_mute float col_solo float col2_n;
#N struct 2146-sm float x float y float w float h float col float col2
float col_off float col_on float mode float line float nr;
#N struct 2146-metro float col float col2 float line float x float
y float w float h float col_n float col_cl float row float column;
#N canvas 2202 16 776 968 10;
#X obj 193 770 filledpolygon col col2 line 0 0 w 0 w h 0 h;
#N canvas 768 308 660 351 \$0-gui 0;
#X scalar 2146-toggle 999 0 1 40 248 18 16 999 333 14 0 666 811 0 \;
;
#X scalar 2146-toggle 999 0 1 58 248 18 16 999 333 14 1 666 811 0 \;
;
#X scalar 2146-toggle 999 0 1 76 248 18 16 999 333 14 2 666 811 0 \;
;
#X scalar 2146-toggle 999 0 1 94 248 18 16 999 333 14 3 666 811 0 \;
;
#X scalar 2146-toggle 999 0 1 117 248 18 16 999 333 14 4 666 811 0
\;;
#X scalar 2146-toggle 999 0 1 135 248 18 16 999 333 14 5 666 811 0
\;;
#X scalar 2146-toggle 999 0 1 153 248 18 16 999 333 14 6 666 811 0
\;;
#X scalar 2146-toggle 999 0 1 171 248 18 16 999 333 14 7 666 811 0
\;;
#X scalar 2146-toggle 999 0 1 194 248 18 16 999 333 14 8 666 811 0
\;;
#X scalar 2146-toggle 999 0 1 212 248 18 16 999 333 14 9 666 811 0
\;;
#X scalar 2146-toggle 999 0 1 230 248 18 16 999 333 14 10 666 811 0
\;;
#X scalar 2146-toggle 999 0 1 248 248 18 16 999 333 14 11 666 811 0
\;;
#X scalar 2146-toggle 999 0 1 271 248 18 16 999 333 14 12 666 811 0
\;;
#X scalar 2146-toggle 999 0 1 289 248 18 16 999 333 14 13 666 811 0
\;;
#X scalar 2146-toggle 999 0 1 307 248 18 16 999 333 14 14 666 811 0
\;;
#X scalar 2146-toggle 999 0 1 325 248 18 16 999 333 14 15 666 811 0
\;;
#X scalar 2146-toggle 999 0 1 40 232 18 16 999 333 13 0 666 811 0 \;
;
#X scalar 2146-toggle 999 0 1 58 232 18 16 999 333 13 1 666 811 0 \;
;
#X scalar 2146-toggle 999 0 1 76 232 18 16 999 333 13 2 666 811 0 \;
;
#X scalar 2146-toggle 999 0 1 94 232 18 16 999 333 13 3 666 811 0 \;
;
#X scalar 2146-toggle 999 0 1 117 232 18 16 999 333 13 4 666 811 0
\;;
#X scalar 2146-toggle 999 0 1 135 232 18 16 999 333 13 5 666 811 0
\;;
#X scalar 2146-toggle 999 0 1 153 232 18 16 999 333 13 6 666 811 0
\;;
#X scalar 2146-toggle 999 0 1 171 232 18 16 999 333 13 7 666 811 0
\;;
#X scalar 2146-toggle 999 0 1 194 232 18 16 999 333 13 8 666 811 0
\;;
#X scalar 2146-toggle 999 0 1 212 232 18 16 999 333 13 9 666 811 0
\;;
#X scalar 2146-toggle 999 0 1 230 232 18 16 999 333 13 10 666 811 0
\;;
#X scalar 2146-toggle 999 0 1 248 232 18 16 999 333 13 11 666 811 0
\;;
#X scalar 2146-toggle 999 0 1 271 232 18 16 999 333 13 12 666 811 0
\;;
#X scalar 2146-toggle 999 0 1 289 232 18 16 999 333 13 13 666 811 0
\;;
#X scalar 2146-toggle 999 0 1 307 232 18 16 999 333 13 14 666 811 0
\;;
#X scalar 2146-toggle 999 0 1 325 232 18 16 999 333 13 15 666 811 0
\;;
#X scalar 2146-toggle 999 0 1 40 216 18 16 999 333 12 0 666 811 0 \;
;
#X scalar 2146-toggle 999 0 1 58 216 18 16 999 333 12 1 666 811 0 \;
;
#X scalar 2146-toggle 999 0 1 76 216 18 16 999 333 12 2 666 811 0 \;
;
#X scalar 2146-toggle 999 0 1 94 216 18 16 999 333 12 3 666 811 0 \;
;
#X scalar 2146-toggle 999 0 1 117 216 18 16 999 333 12 4 666 811 0
\;;
#X scalar 2146-toggle 999 0 1 135 216 18 16 999 333 12 5 666 811 0
\;;
#X scalar 2146-toggle 999 0 1 153 216 18 16 999 333 12 6 666 811 0
\;;
#X scalar 2146-toggle 999 0 1 171 216 18 16 999 333 12 7 666 811 0
\;;
#X scalar 2146-toggle 999 0 1 194 216 18 16 999 333 12 8 666 811 0
\;;
#X scalar 2146-toggle 999 0 1 212 216 18 16 999 333 12 9 666 811 0
\;;
#X scalar 2146-toggle 999 0 1 230 216 18 16 999 333 12 10 666 811 0
\;;
#X scalar 2146-toggle 999 0 1 248 216 18 16 999 333 12 11 666 811 0
\;;
#X scalar 2146-toggle 999 0 1 271 216 18 16 999 333 12 12 666 811 0
\;;
#X scalar 2146-toggle 999 0 1 289 216 18 16 999 333 12 13 666 811 0
\;;
#X scalar 2146-toggle 999 0 1 307 216 18 16 999 333 12 14 666 811 0
\;;
#X scalar 2146-toggle 999 0 1 325 216 18 16 999 333 12 15 666 811 0
\;;
#X scalar 2146-toggle 999 0 1 40 200 18 16 999 333 11 0 666 811 0 \;
;
#X scalar 2146-toggle 999 0 1 58 200 18 16 999 333 11 1 666 811 0 \;
;
#X scalar 2146-toggle 999 0 1 76 200 18 16 999 333 11 2 666 811 0 \;
;
#X scalar 2146-toggle 999 0 1 94 200 18 16 999 333 11 3 666 811 0 \;
;
#X scalar 2146-toggle 999 0 1 117 200 18 16 999 333 11 4 666 811 0
\;;
#X scalar 2146-toggle 999 0 1 135 200 18 16 999 333 11 5 666 811 0
\;;
#X scalar 2146-toggle 999 0 1 153 200 18 16 999 333 11 6 666 811 0
\;;
#X scalar 2146-toggle 999 0 1 171 200 18 16 999 333 11 7 666 811 0
\;;
#X scalar 2146-toggle 999 0 1 194 200 18 16 999 333 11 8 666 811 0
\;;
#X scalar 2146-toggle 999 0 1 212 200 18 16 999 333 11 9 666 811 0
\;;
#X scalar 2146-toggle 999 0 1 230 200 18 16 999 333 11 10 666 811 0
\;;
#X scalar 2146-toggle 999 0 1 248 200 18 16 999 333 11 11 666 811 0
\;;
#X scalar 2146-toggle 999 0 1 271 200 18 16 999 333 11 12 666 811 0
\;;
#X scalar 2146-toggle 999 0 1 289 200 18 16 999 333 11 13 666 811 0
\;;
#X scalar 2146-toggle 999 0 1 307 200 18 16 999 333 11 14 666 811 0
\;;
#X scalar 2146-toggle 999 0 1 325 200 18 16 999 333 11 15 666 811 0
\;;
#X scalar 2146-toggle 999 0 1 40 184 18 16 999 333 10 0 666 811 0 \;
;
#X scalar 2146-toggle 999 0 1 58 184 18 16 999 333 10 1 666 811 0 \;
;
#X scalar 2146-toggle 999 0 1 76 184 18 16 999 333 10 2 666 811 0 \;
;
#X scalar 2146-toggle 999 0 1 94 184 18 16 999 333 10 3 666 811 0 \;
;
#X scalar 2146-toggle 999 0 1 117 184 18 16 999 333 10 4 666 811 0
\;;
#X scalar 2146-toggle 999 0 1 135 184 18 16 999 333 10 5 666 811 0
\;;
#X scalar 2146-toggle 999 0 1 153 184 18 16 999 333 10 6 666 811 0
\;;
#X scalar 2146-toggle 999 0 1 171 184 18 16 999 333 10 7 666 811 0
\;;
#X scalar 2146-toggle 999 0 1 194 184 18 16 999 333 10 8 666 811 0
\;;
#X scalar 2146-toggle 999 0 1 212 184 18 16 999 333 10 9 666 811 0
\;;
#X scalar 2146-toggle 999 0 1 230 184 18 16 999 333 10 10 666 811 0
\;;
#X scalar 2146-toggle 999 0 1 248 184 18 16 999 333 10 11 666 811 0
\;;
#X scalar 2146-toggle 999 0 1 271 184 18 16 999 333 10 12 666 811 0
\;;
#X scalar 2146-toggle 999 0 1 289 184 18 16 999 333 10 13 666 811 0
\;;
#X scalar 2146-toggle 999 0 1 307 184 18 16 999 333 10 14 666 811 0
\;;
#X scalar 2146-toggle 999 0 1 325 184 18 16 999 333 10 15 666 811 0
\;;
#X scalar 2146-toggle 999 0 1 40 168 18 16 999 333 9 0 666 811 0 \;
;
#X scalar 2146-toggle 999 0 1 58 168 18 16 999 333 9 1 666 811 0 \;
;
#X scalar 2146-toggle 999 0 1 76 168 18 16 999 333 9 2 666 811 0 \;
;
#X scalar 2146-toggle 999 0 1 94 168 18 16 999 333 9 3 666 811 0 \;
;
#X scalar 2146-toggle 999 0 1 117 168 18 16 999 333 9 4 666 811 0 \;
;
#X scalar 2146-toggle 999 0 1 135 168 18 16 999 333 9 5 666 811 0 \;
;
#X scalar 2146-toggle 999 0 1 153 168 18 16 999 333 9 6 666 811 0 \;
;
#X scalar 2146-toggle 999 0 1 171 168 18 16 999 333 9 7 666 811 0 \;
;
#X scalar 2146-toggle 999 0 1 194 168 18 16 999 333 9 8 666 811 0 \;
;
#X scalar 2146-toggle 999 0 1 212 168 18 16 999 333 9 9 666 811 0 \;
;
#X scalar 2146-toggle 999 0 1 230 168 18 16 999 333 9 10 666 811 0
\;;
#X scalar 2146-toggle 999 0 1 248 168 18 16 999 333 9 11 666 811 0
\;;
#X scalar 2146-toggle 999 0 1 271 168 18 16 999 333 9 12 666 811 0
\;;
#X scalar 2146-toggle 999 0 1 289 168 18 16 999 333 9 13 666 811 0
\;;
#X scalar 2146-toggle 999 0 1 307 168 18 16 999 333 9 14 666 811 0
\;;
#X scalar 2146-toggle 999 0 1 325 168 18 16 999 333 9 15 666 811 0
\;;
#X scalar 2146-toggle 999 0 1 40 152 18 16 999 333 8 0 666 811 0 \;
;
#X scalar 2146-toggle 999 0 1 58 152 18 16 999 333 8 1 666 811 0 \;
;
#X scalar 2146-toggle 999 0 1 76 152 18 16 999 333 8 2 666 811 0 \;
;
#X scalar 2146-toggle 999 0 1 94 152 18 16 999 333 8 3 666 811 0 \;
;
#X scalar 2146-toggle 999 0 1 117 152 18 16 999 333 8 4 666 811 0 \;
;
#X scalar 2146-toggle 999 0 1 135 152 18 16 999 333 8 5 666 811 0 \;
;
#X scalar 2146-toggle 999 0 1 153 152 18 16 999 333 8 6 666 811 0 \;
;
#X scalar 2146-toggle 999 0 1 171 152 18 16 999 333 8 7 666 811 0 \;
;
#X scalar 2146-toggle 999 0 1 194 152 18 16 999 333 8 8 666 811 0 \;
;
#X scalar 2146-toggle 333 0 1 212 152 18 16 999 333 8 9 666 811 0 \;
;
#X scalar 2146-toggle 333 0 1 230 152 18 16 999 333 8 10 666 811 0
\;;
#X scalar 2146-toggle 999 0 1 248 152 18 16 999 333 8 11 666 811 0
\;;
#X scalar 2146-toggle 999 0 1 271 152 18 16 999 333 8 12 666 811 0
\;;
#X scalar 2146-toggle 999 0 1 289 152 18 16 999 333 8 13 666 811 0
\;;
#X scalar 2146-toggle 999 0 1 307 152 18 16 999 333 8 14 666 811 0
\;;
#X scalar 2146-toggle 999 0 1 325 152 18 16 999 333 8 15 666 811 0
\;;
#X scalar 2146-toggle 999 0 1 40 136 18 16 999 333 7 0 666 811 0 \;
;
#X scalar 2146-toggle 999 0 1 58 136 18 16 999 333 7 1 666 811 0 \;
;
#X scalar 2146-toggle 999 0 1 76 136 18 16 999 333 7 2 666 811 0 \;
;
#X scalar 2146-toggle 999 0 1 94 136 18 16 999 333 7 3 666 811 0 \;
;
#X scalar 2146-toggle 999 0 1 117 136 18 16 999 333 7 4 666 811 0 \;
;
#X scalar 2146-toggle 999 0 1 135 136 18 16 999 333 7 5 666 811 0 \;
;
#X scalar 2146-toggle 999 0 1 153 136 18 16 999 333 7 6 666 811 0 \;
;
#X scalar 2146-toggle 999 0 1 171 136 18 16 999 333 7 7 666 811 0 \;
;
#X scalar 2146-toggle 999 0 1 194 136 18 16 999 333 7 8 666 811 0 \;
;
#X scalar 2146-toggle 999 0 1 212 136 18 16 999 333 7 9 666 811 0 \;
;
#X scalar 2146-toggle 999 0 1 230 136 18 16 999 333 7 10 666 811 0
\;;
#X scalar 2146-toggle 999 0 1 248 136 18 16 999 333 7 11 666 811 0
\;;
#X scalar 2146-toggle 999 0 1 271 136 18 16 999 333 7 12 666 811 0
\;;
#X scalar 2146-toggle 999 0 1 289 136 18 16 999 333 7 13 666 811 0
\;;
#X scalar 2146-toggle 999 0 1 307 136 18 16 999 333 7 14 666 811 0
\;;
#X scalar 2146-toggle 999 0 1 325 136 18 16 999 333 7 15 666 811 0
\;;
#X scalar 2146-toggle 999 0 1 40 120 18 16 999 333 6 0 666 811 0 \;
;
#X scalar 2146-toggle 999 0 1 58 120 18 16 999 333 6 1 666 811 0 \;
;
#X scalar 2146-toggle 999 0 1 76 120 18 16 999 333 6 2 666 811 0 \;
;
#X scalar 2146-toggle 999 0 1 94 120 18 16 999 333 6 3 666 811 0 \;
;
#X scalar 2146-toggle 999 0 1 117 120 18 16 999 333 6 4 666 811 0 \;
;
#X scalar 2146-toggle 999 0 1 135 120 18 16 999 333 6 5 666 811 0 \;
;
#X scalar 2146-toggle 999 0 1 153 120 18 16 999 333 6 6 666 811 0 \;
;
#X scalar 2146-toggle 333 0 1 171 120 18 16 999 333 6 7 666 811 0 \;
;
#X scalar 2146-toggle 333 0 1 194 120 18 16 999 333 6 8 666 811 0 \;
;
#X scalar 2146-toggle 333 0 1 212 120 18 16 999 333 6 9 666 811 0 \;
;
#X scalar 2146-toggle 333 0 1 230 120 18 16 999 333 6 10 666 811 0
\;;
#X scalar 2146-toggle 999 0 1 248 120 18 16 999 333 6 11 666 811 0
\;;
#X scalar 2146-toggle 999 0 1 271 120 18 16 999 333 6 12 666 811 0
\;;
#X scalar 2146-toggle 999 0 1 289 120 18 16 999 333 6 13 666 811 0
\;;
#X scalar 2146-toggle 999 0 1 307 120 18 16 999 333 6 14 666 811 0
\;;
#X scalar 2146-toggle 999 0 1 325 120 18 16 999 333 6 15 666 811 0
\;;
#X scalar 2146-toggle 999 0 1 40 104 18 16 999 333 5 0 666 811 0 \;
;
#X scalar 2146-toggle 999 0 1 58 104 18 16 999 333 5 1 666 811 0 \;
;
#X scalar 2146-toggle 999 0 1 76 104 18 16 999 333 5 2 666 811 0 \;
;
#X scalar 2146-toggle 999 0 1 94 104 18 16 999 333 5 3 666 811 0 \;
;
#X scalar 2146-toggle 999 0 1 117 104 18 16 999 333 5 4 666 811 0 \;
;
#X scalar 2146-toggle 999 0 1 135 104 18 16 999 333 5 5 666 811 0 \;
;
#X scalar 2146-toggle 999 0 1 153 104 18 16 999 333 5 6 666 811 0 \;
;
#X scalar 2146-toggle 999 0 1 171 104 18 16 999 333 5 7 666 811 0 \;
;
#X scalar 2146-toggle 999 0 1 194 104 18 16 999 333 5 8 666 811 0 \;
;
#X scalar 2146-toggle 999 0 1 212 104 18 16 999 333 5 9 666 811 0 \;
;
#X scalar 2146-toggle 999 0 1 230 104 18 16 999 333 5 10 666 811 0
\;;
#X scalar 2146-toggle 999 0 1 248 104 18 16 999 333 5 11 666 811 0
\;;
#X scalar 2146-toggle 999 0 1 271 104 18 16 999 333 5 12 666 811 0
\;;
#X scalar 2146-toggle 999 0 1 289 104 18 16 999 333 5 13 666 811 0
\;;
#X scalar 2146-toggle 999 0 1 307 104 18 16 999 333 5 14 666 811 0
\;;
#X scalar 2146-toggle 999 0 1 325 104 18 16 999 333 5 15 666 811 0
\;;
#X scalar 2146-toggle 999 0 1 40 88 18 16 999 333 4 0 666 811 0 \;
;
#X scalar 2146-toggle 999 0 1 58 88 18 16 999 333 4 1 666 811 0 \;
;
#X scalar 2146-toggle 999 0 1 76 88 18 16 999 333 4 2 666 811 0 \;
;
#X scalar 2146-toggle 999 0 1 94 88 18 16 999 333 4 3 666 811 0 \;
;
#X scalar 2146-toggle 999 0 1 117 88 18 16 999 333 4 4 666 811 0 \;
;
#X scalar 2146-toggle 333 0 1 135 88 18 16 999 333 4 5 666 811 0 \;
;
#X scalar 2146-toggle 333 0 1 153 88 18 16 999 333 4 6 666 811 0 \;
;
#X scalar 2146-toggle 333 0 1 171 88 18 16 999 333 4 7 666 811 0 \;
;
#X scalar 2146-toggle 999 0 1 194 88 18 16 999 333 4 8 666 811 0 \;
;
#X scalar 2146-toggle 333 0 1 212 88 18 16 999 333 4 9 666 811 0 \;
;
#X scalar 2146-toggle 333 0 1 230 88 18 16 999 333 4 10 666 811 0 \;
;
#X scalar 2146-toggle 333 0 1 248 88 18 16 999 333 4 11 666 811 0 \;
;
#X scalar 2146-toggle 333 0 1 271 88 18 16 999 333 4 12 666 811 0 \;
;
#X scalar 2146-toggle 333 0 1 289 88 18 16 999 333 4 13 666 811 0 \;
;
#X scalar 2146-toggle 999 0 1 307 88 18 16 999 333 4 14 666 811 0 \;
;
#X scalar 2146-toggle 999 0 1 325 88 18 16 999 333 4 15 666 811 0 \;
;
#X scalar 2146-toggle 999 0 1 40 72 18 16 999 333 3 0 666 811 0 \;
;
#X scalar 2146-toggle 999 0 1 58 72 18 16 999 333 3 1 666 811 0 \;
;
#X scalar 2146-toggle 999 0 1 76 72 18 16 999 333 3 2 666 811 0 \;
;
#X scalar 2146-toggle 999 0 1 94 72 18 16 999 333 3 3 666 811 0 \;
;
#X scalar 2146-toggle 999 0 1 117 72 18 16 999 333 3 4 666 811 0 \;
;
#X scalar 2146-toggle 999 0 1 135 72 18 16 999 333 3 5 666 811 0 \;
;
#X scalar 2146-toggle 999 0 1 153 72 18 16 999 333 3 6 666 811 0 \;
;
#X scalar 2146-toggle 999 0 1 171 72 18 16 999 333 3 7 666 811 0 \;
;
#X scalar 2146-toggle 999 0 1 194 72 18 16 999 333 3 8 666 811 0 \;
;
#X scalar 2146-toggle 999 0 1 212 72 18 16 999 333 3 9 666 811 0 \;
;
#X scalar 2146-toggle 999 0 1 230 72 18 16 999 333 3 10 666 811 0 \;
;
#X scalar 2146-toggle 999 0 1 248 72 18 16 999 333 3 11 666 811 0 \;
;
#X scalar 2146-toggle 999 0 1 271 72 18 16 999 333 3 12 666 811 0 \;
;
#X scalar 2146-toggle 999 0 1 289 72 18 16 999 333 3 13 666 811 0 \;
;
#X scalar 2146-toggle 999 0 1 307 72 18 16 999 333 3 14 666 811 0 \;
;
#X scalar 2146-toggle 999 0 1 325 72 18 16 999 333 3 15 666 811 0 \;
;
#X scalar 2146-toggle 333 0 1 40 56 18 16 999 333 2 0 666 811 0 \;
;
#X scalar 2146-toggle 999 0 1 58 56 18 16 999 333 2 1 666 811 0 \;
;
#X scalar 2146-toggle 333 0 1 76 56 18 16 999 333 2 2 666 811 0 \;
;
#X scalar 2146-toggle 333 0 1 94 56 18 16 999 333 2 3 666 811 0 \;
;
#X scalar 2146-toggle 333 0 1 117 56 18 16 999 333 2 4 666 811 0 \;
;
#X scalar 2146-toggle 999 0 1 135 56 18 16 999 333 2 5 666 811 0 \;
;
#X scalar 2146-toggle 333 0 1 153 56 18 16 999 333 2 6 666 811 0 \;
;
#X scalar 2146-toggle 999 0 1 171 56 18 16 999 333 2 7 666 811 0 \;
;
#X scalar 2146-toggle 333 0 1 194 56 18 16 999 333 2 8 666 811 0 \;
;
#X scalar 2146-toggle 999 0 1 212 56 18 16 999 333 2 9 666 811 0 \;
;
#X scalar 2146-toggle 333 0 1 230 56 18 16 999 333 2 10 666 811 0 \;
;
#X scalar 2146-toggle 999 0 1 248 56 18 16 999 333 2 11 666 811 0 \;
;
#X scalar 2146-toggle 999 0 1 271 56 18 16 999 333 2 12 666 811 0 \;
;
#X scalar 2146-toggle 333 0 1 289 56 18 16 999 333 2 13 666 811 0 \;
;
#X scalar 2146-toggle 333 0 1 307 56 18 16 999 333 2 14 666 811 0 \;
;
#X scalar 2146-toggle 333 0 1 325 56 18 16 999 333 2 15 666 811 0 \;
;
#X scalar 2146-toggle 999 0 1 40 40 18 16 999 333 1 0 666 811 0 \;
;
#X scalar 2146-toggle 999 0 1 58 40 18 16 999 333 1 1 666 811 0 \;
;
#X scalar 2146-toggle 999 0 1 76 40 18 16 999 333 1 2 666 811 0 \;
;
#X scalar 2146-toggle 999 0 1 94 40 18 16 999 333 1 3 666 811 0 \;
;
#X scalar 2146-toggle 999 0 1 117 40 18 16 999 333 1 4 666 811 0 \;
;
#X scalar 2146-toggle 999 0 1 135 40 18 16 999 333 1 5 666 811 0 \;
;
#X scalar 2146-toggle 999 0 1 153 40 18 16 999 333 1 6 666 811 0 \;
;
#X scalar 2146-toggle 999 0 1 171 40 18 16 999 333 1 7 666 811 0 \;
;
#X scalar 2146-toggle 999 0 1 194 40 18 16 999 333 1 8 666 811 0 \;
;
#X scalar 2146-toggle 999 0 1 212 40 18 16 999 333 1 9 666 811 0 \;
;
#X scalar 2146-toggle 999 0 1 230 40 18 16 999 333 1 10 666 811 0 \;
;
#X scalar 2146-toggle 999 0 1 248 40 18 16 999 333 1 11 666 811 0 \;
;
#X scalar 2146-toggle 999 0 1 271 40 18 16 999 333 1 12 666 811 0 \;
;
#X scalar 2146-toggle 999 0 1 289 40 18 16 999 333 1 13 666 811 0 \;
;
#X scalar 2146-toggle 999 0 1 307 40 18 16 999 333 1 14 666 811 0 \;
;
#X scalar 2146-toggle 999 0 1 325 40 18 16 999 333 1 15 666 811 0 \;
;
#X scalar 2146-toggle 999 0 1 40 24 18 16 999 333 0 0 666 811 0 \;
;
#X scalar 2146-toggle 999 0 1 58 24 18 16 999 333 0 1 666 811 0 \;
;
#X scalar 2146-toggle 999 0 1 76 24 18 16 999 333 0 2 666 811 0 \;
;
#X scalar 2146-toggle 999 0 1 94 24 18 16 999 333 0 3 666 811 0 \;
;
#X scalar 2146-toggle 999 0 1 117 24 18 16 999 333 0 4 666 811 0 \;
;
#X scalar 2146-toggle 333 0 1 135 24 18 16 999 333 0 5 666 811 0 \;
;
#X scalar 2146-toggle 333 0 1 153 24 18 16 999 333 0 6 666 811 0 \;
;
#X scalar 2146-toggle 999 0 1 171 24 18 16 999 333 0 7 666 811 0 \;
;
#X scalar 2146-toggle 999 0 1 194 24 18 16 999 333 0 8 666 811 0 \;
;
#X scalar 2146-toggle 999 0 1 212 24 18 16 999 333 0 9 666 811 0 \;
;
#X scalar 2146-toggle 999 0 1 230 24 18 16 999 333 0 10 666 811 0 \;
;
#X scalar 2146-toggle 999 0 1 248 24 18 16 999 333 0 11 666 811 0 \;
;
#X scalar 2146-toggle 333 0 1 271 24 18 16 999 333 0 12 666 811 0 \;
;
#X scalar 2146-toggle 999 0 1 289 24 18 16 999 333 0 13 666 811 0 \;
;
#X scalar 2146-toggle 333 0 1 307 24 18 16 999 333 0 14 666 811 0 \;
;
#X scalar 2146-toggle 333 0 1 325 24 18 16 999 333 0 15 666 811 0 \;
;
#X scalar 2146-sm 5.4 27.2 7.2 9.6 777 0 777 333 0 1 0 \;;
#X scalar 2146-sm 17.4 27.2 7.2 9.6 777 0 777 811 1 1 0 \;;
#X scalar 2146-sm 29.4 27.2 7.2 9.6 777 0 777 9 2 1 0 \;;
#X scalar 2146-sm 5.4 43.2 7.2 9.6 777 0 777 333 0 1 1 \;;
#X scalar 2146-sm 17.4 43.2 7.2 9.6 777 0 777 811 1 1 1 \;;
#X scalar 2146-sm 29.4 43.2 7.2 9.6 777 0 777 9 2 1 1 \;;
#X scalar 2146-sm 5.4 59.2 7.2 9.6 777 0 777 333 0 1 2 \;;
#X scalar 2146-sm 17.4 59.2 7.2 9.6 777 0 777 811 1 1 2 \;;
#X scalar 2146-sm 29.4 59.2 7.2 9.6 777 0 777 9 2 1 2 \;;
#X scalar 2146-sm 5.4 75.2 7.2 9.6 777 0 777 333 0 1 3 \;;
#X scalar 2146-sm 17.4 75.2 7.2 9.6 777 0 777 811 1 1 3 \;;
#X scalar 2146-sm 29.4 75.2 7.2 9.6 777 0 777 9 2 1 3 \;;
#X scalar 2146-sm 5.4 91.2 7.2 9.6 777 0 777 333 0 1 4 \;;
#X scalar 2146-sm 17.4 91.2 7.2 9.6 777 0 777 811 1 1 4 \;;
#X scalar 2146-sm 29.4 91.2 7.2 9.6 777 0 777 9 2 1 4 \;;
#X scalar 2146-sm 5.4 107.2 7.2 9.6 777 0 777 333 0 1 5 \;;
#X scalar 2146-sm 17.4 107.2 7.2 9.6 777 0 777 811 1 1 5 \;;
#X scalar 2146-sm 29.4 107.2 7.2 9.6 777 0 777 9 2 1 5 \;;
#X scalar 2146-sm 5.4 123.2 7.2 9.6 777 0 777 333 0 1 6 \;;
#X scalar 2146-sm 17.4 123.2 7.2 9.6 777 0 777 811 1 1 6 \;;
#X scalar 2146-sm 29.4 123.2 7.2 9.6 777 0 777 9 2 1 6 \;;
#X scalar 2146-sm 5.4 139.2 7.2 9.6 777 0 777 333 0 1 7 \;;
#X scalar 2146-sm 17.4 139.2 7.2 9.6 777 0 777 811 1 1 7 \;;
#X scalar 2146-sm 29.4 139.2 7.2 9.6 777 0 777 9 2 1 7 \;;
#X scalar 2146-sm 5.4 155.2 7.2 9.6 777 0 777 333 0 1 8 \;;
#X scalar 2146-sm 17.4 155.2 7.2 9.6 777 0 777 811 1 1 8 \;;
#X scalar 2146-sm 29.4 155.2 7.2 9.6 777 0 777 9 2 1 8 \;;
#X scalar 2146-sm 5.4 171.2 7.2 9.6 777 0 777 333 0 1 9 \;;
#X scalar 2146-sm 17.4 171.2 7.2 9.6 777 0 777 811 1 1 9 \;;
#X scalar 2146-sm 29.4 171.2 7.2 9.6 777 0 777 9 2 1 9 \;;
#X scalar 2146-sm 5.4 187.2 7.2 9.6 777 0 777 333 0 1 10 \;;
#X scalar 2146-sm 17.4 187.2 7.2 9.6 777 0 777 811 1 1 10 \;;
#X scalar 2146-sm 29.4 187.2 7.2 9.6 777 0 777 9 2 1 10 \;;
#X scalar 2146-sm 5.4 203.2 7.2 9.6 777 0 777 333 0 1 11 \;;
#X scalar 2146-sm 17.4 203.2 7.2 9.6 777 0 777 811 1 1 11 \;;
#X scalar 2146-sm 29.4 203.2 7.2 9.6 777 0 777 9 2 1 11 \;;
#X scalar 2146-sm 5.4 219.2 7.2 9.6 777 0 777 333 0 1 12 \;;
#X scalar 2146-sm 17.4 219.2 7.2 9.6 777 0 777 811 1 1 12 \;;
#X scalar 2146-sm 29.4 219.2 7.2 9.6 777 0 777 9 2 1 12 \;;
#X scalar 2146-sm 5.4 235.2 7.2 9.6 777 0 777 333 0 1 13 \;;
#X scalar 2146-sm 17.4 235.2 7.2 9.6 777 0 777 811 1 1 13 \;;
#X scalar 2146-sm 29.4 235.2 7.2 9.6 777 0 777 9 2 1 13 \;;
#X scalar 2146-sm 5.4 251.2 7.2 9.6 777 0 777 333 0 1 14 \;;
#X scalar 2146-sm 17.4 251.2 7.2 9.6 777 0 777 811 1 1 14 \;;
#X scalar 2146-sm 29.4 251.2 7.2 9.6 777 0 777 9 2 1 14 \;;
#X scalar 2146-metro 999 0 2 40.5 4.5 18 10 999 0 0 0 \;;
#X scalar 2146-metro 999 0 2 58.5 4.5 18 10 999 0 0 1 \;;
#X scalar 2146-metro 0 0 2 76.5 4.5 18 10 999 0 0 2 \;;
#X scalar 2146-metro 999 0 2 94.5 4.5 18 10 999 0 0 3 \;;
#X scalar 2146-metro 999 0 2 117.5 4.5 18 10 999 0 0 4 \;;
#X scalar 2146-metro 999 0 2 135.5 4.5 18 10 999 0 0 5 \;;
#X scalar 2146-metro 999 0 2 153.5 4.5 18 10 999 0 0 6 \;;
#X scalar 2146-metro 999 0 2 171.5 4.5 18 10 999 0 0 7 \;;
#X scalar 2146-metro 999 0 2 194.5 4.5 18 10 999 0 0 8 \;;
#X scalar 2146-metro 999 0 2 212.5 4.5 18 10 999 0 0 9 \;;
#X scalar 2146-metro 999 0 2 230.5 4.5 18 10 999 0 0 10 \;;
#X scalar 2146-metro 999 0 2 248.5 4.5 18 10 999 0 0 11 \;;
#X scalar 2146-metro 999 0 2 271.5 4.5 18 10 999 0 0 12 \;;
#X scalar 2146-metro 999 0 2 289.5 4.5 18 10 999 0 0 13 \;;
#X scalar 2146-metro 999 0 2 307.5 4.5 18 10 999 0 0 14 \;;
#X scalar 2146-metro 999 0 2 325.5 4.5 18 10 999 0 0 15 \;;
#X coords 0 0 346 267 346 267 2 0 0;
#X restore 0 0 pd \$0-gui;
#X obj 183 685 namecanvas \$0-toggle_matrix;
#X obj 46 360 inlet;
#X msg 46 483 \; pd-\$0-gui clear;
#N canvas 1019 351 691 530 set_color_and_array 0;
#X obj 62 43 inlet;
#X obj 62 104 unpack p;
#X floatatom 62 210 5 0 0 0 - - -, f 5;
#X obj 62 242 expr if($f1 == $f2 \, $f3 \, $f2);
#X floatatom 186 214 5 0 0 0 - - -, f 5;
#X floatatom 305 217 5 0 0 0 - - -, f 5;
#X floatatom 427 209 5 0 0 0 - - -, f 5;
#X floatatom 477 209 5 0 0 0 - - -, f 5;
#X obj 427 258 array set, f 12;
#X msg 496 236 symbol \$0-row\$1;
#X floatatom 530 209 5 0 0 0 - - -, f 5;
#X floatatom 583 209 5 0 0 0 - - -, f 5;
#X obj 62 126 t p p p;
#X obj 427 235 ==;
#X obj 62 187 get \$0-toggle col;
#X obj 175 189 get \$0-toggle col_n;
#X obj 299 190 get \$0-toggle col_cl;
#X obj 427 186 get \$0-toggle col col_n column row;
#X obj 62 267 set \$0-toggle col;
#X obj 62 78 route click change;
#X obj 271 288 unpack p;
#X obj 286 340 r \$0-width;
#X obj 359 340 r \$0-height;
#X floatatom 286 362 5 0 0 0 - - -, f 5;
#X floatatom 359 362 5 0 0 0 - - -, f 5;
#X obj 271 386 f;
#X obj 320 388 f;
#X obj 271 310 t b b p;
#X obj 271 412 set \$0-toggle w h;
#X connect 0 0 19 0;
#X connect 1 0 12 0;
#X connect 2 0 3 0;
#X connect 3 0 18 0;
#X connect 6 0 13 0;
#X connect 7 0 13 1;
#X connect 9 0 8 2;
#X connect 10 0 8 1;
#X connect 11 0 9 0;
#X connect 12 0 14 0;
#X connect 12 1 15 0;
#X connect 12 1 16 0;
#X connect 12 1 18 1;
#X connect 12 2 17 0;
#X connect 13 0 8 0;
#X connect 14 0 2 0;
#X connect 15 0 3 1;
#X connect 15 0 4 0;
#X connect 16 0 3 2;
#X connect 16 0 5 0;
#X connect 17 0 6 0;
#X connect 17 1 7 0;
#X connect 17 2 10 0;
#X connect 17 3 11 0;
#X connect 19 0 1 0;
#X connect 19 1 20 0;
#X connect 20 0 27 0;
#X connect 21 0 23 0;
#X connect 22 0 24 0;
#X connect 23 0 25 1;
#X connect 24 0 26 1;
#X connect 25 0 28 0;
#X connect 26 0 28 1;
#X connect 27 0 25 0;
#X connect 27 1 26 0;
#X connect 27 2 28 2;
#X coords 0 0 1 1 85 60 0;
#X restore 183 812 pd set_color_and_array;
#N canvas 2019 225 1094 771 memory 0;
#X obj 395 20 array define \$0-row0 200;
#X obj 395 41 array define \$0-row1 200;
#X obj 395 64 array define \$0-row2 200;
#X obj 395 86 array define \$0-row3 200;
#X obj 395 108 array define \$0-row4 200;
#X obj 395 130 array define \$0-row5 200;
#X obj 395 152 array define \$0-row6 200;
#X obj 395 174 array define \$0-row7 200;
#X obj 395 196 array define \$0-row8 200;
#X obj 395 218 array define \$0-row9 200;
#X obj 559 19 array define \$0-row10 200;
#X obj 559 41 array define \$0-row11 200;
#X obj 559 64 array define \$0-row12 200;
#X obj 559 85 array define \$0-row13 200;
#X obj 559 107 array define \$0-row14 200;
#X obj 559 129 array define \$0-row15 200;
#X obj 559 151 array define \$0-row16 200;
#X obj 559 173 array define \$0-row17 200;
#X obj 559 195 array define \$0-row18 200;
#X obj 559 217 array define \$0-row19 200;
#X obj 721 19 array define \$0-row20 200;
#X obj 721 41 array define \$0-row21 200;
#X obj 721 63 array define \$0-row22 200;
#X obj 721 85 array define \$0-row23 200;
#X obj 721 107 array define \$0-row24 200;
#X obj 721 129 array define \$0-row25 200;
#X obj 722 151 array define \$0-row26 200;
#X obj 721 173 array define \$0-row27 200;
#X obj 721 195 array define \$0-row28 200;
#X obj 721 217 array define \$0-row29 200;
#X obj 885 19 array define \$0-row30 200;
#X obj 885 41 array define \$0-row31 200;
#X obj 885 63 array define \$0-row32 200;
#X obj 885 85 array define \$0-row33 200;
#X obj 885 107 array define \$0-row34 200;
#X obj 885 129 array define \$0-row35 200;
#X obj 886 151 array define \$0-row36 200;
#X obj 885 173 array define \$0-row37 200;
#X obj 885 195 array define \$0-row38 200;
#X obj 885 217 array define \$0-row39 200;
#X obj 20 163 until;
#X msg 20 207 \; \$0-row\$1 const 0;
#X msg 20 141 40;
#X obj 20 185 f;
#X obj 49 185 + 1;
#X msg 61 161 0;
#X obj 19 120 t b b;
#X obj 170 295 inlet info;
#X obj 213 582 text define \$0-memory;
#X obj 169 318 route load save;
#X symbolatom 170 411 0 0 0 0 - - -;
#X symbolatom 213 363 0 0 0 0 - - -;
#X obj 212 341 t s;
#X obj 169 340 t s;
#N canvas 650 126 386 386 save_preset 0;
#X obj 32 21 inlet symbol;
#X msg 60 162 40;
#X obj 60 137 t b b;
#X obj 60 184 until;
#X obj 60 206 f;
#X floatatom 60 228 5 0 0 0 - - -, f 5;
#X msg 106 181 0;
#X obj 60 106 bng 15 250 50 0 empty empty empty 17 7 0 10 -262144 -1
-1;
#X obj 60 294 array get;
#X msg 128 266 symbol \$0-row\$1;
#X obj 60 249 t b f;
#X obj 60 319 text set \$0-memory;
#X obj 92 205 + 1;
#X obj 256 187 symbol;
#X msg 257 209 write \$1.txt;
#X obj 33 70 t s b;
#X obj 255 314 outlet;
#X connect 0 0 15 0;
#X connect 1 0 3 0;
#X connect 2 0 1 0;
#X connect 2 1 6 0;
#X connect 3 0 4 0;
#X connect 4 0 5 0;
#X connect 4 0 12 0;
#X connect 5 0 10 0;
#X connect 6 0 4 1;
#X connect 7 0 2 0;
#X connect 8 0 11 0;
#X connect 9 0 8 2;
#X connect 10 0 8 0;
#X connect 10 1 9 0;
#X connect 10 1 11 1;
#X connect 12 0 4 1;
#X connect 13 0 14 0;
#X connect 14 0 16 0;
#X connect 15 0 13 0;
#X connect 15 1 7 0;
#X restore 215 556 pd save_preset;
#N canvas 323 184 791 714 load_preset 0;
#X obj 143 47 inlet symbol;
#X obj 594 210 symbol;
#X msg 594 232 read \$1.txt;
#X obj 594 598 outlet;
#X msg 429 279 40;
#X obj 429 254 t b b;
#X obj 429 301 until;
#X obj 429 323 f;
#X floatatom 429 345 5 0 0 0 - - -, f 5;
#X msg 475 298 0;
#X obj 429 223 bng 15 250 50 0 empty empty empty 17 7 0 10 -262144
-1 -1;
#X msg 479 446 symbol \$0-row\$1;
#X obj 461 322 + 1;
#X obj 429 399 text get \$0-memory;
#X obj 430 365 t f f;
#X obj 429 468 array set;
#X obj 143 69 t b b s;
#X obj 128 424 pointer;
#X floatatom 129 510 5 0 0 0 - - -, f 5;
#X floatatom 183 510 5 0 0 0 - - -, f 5;
#X obj 129 570 array get;
#X msg 183 545 symbol \$0-row\$1;
#X obj 156 545 nbx 1 14 1 2 0 1 empty empty empty 0 -8 0 10 -262144
-1 -1 1 256 0;
#X obj 145 294 until;
#X obj 129 597 sel 1;
#X obj 129 464 t p p;
#X floatatom 263 510 5 0 0 0 - - -, f 5;
#X obj 129 641 f;
#X floatatom 329 512 5 0 0 0 - - -, f 5;
#X obj 160 641 f;
#X obj 255 632 t b;
#X obj 129 488 get \$0-toggle column row col_cl col_n;
#X obj 129 666 set \$0-toggle col;
#X obj 234 47 inlet pointer_list;
#X obj 145 207 list;
#X obj 145 251 list length;
#X floatatom 145 273 5 0 0 0 - - -, f 5;
#X obj 172 355 f;
#X obj 202 355 + 1;
#X msg 187 294 0;
#X obj 145 229 t l l b;
#X obj 100 383 list split;
#X obj 100 317 list;
#X obj 145 316 t b b;
#X obj 128 404 t p;
#X msg 280 301 next;
#X obj 268 323 pointer \$0-toggle;
#X obj 241 219 t b b;
#X obj 241 269 until;
#X msg 268 241 traverse pd-\$0-gui;
#X text 221 195 alternative set pointers;
#X connect 0 0 16 0;
#X connect 1 0 2 0;
#X connect 2 0 3 0;
#X connect 4 0 6 0;
#X connect 5 0 4 0;
#X connect 5 1 9 0;
#X connect 6 0 7 0;
#X connect 7 0 8 0;
#X connect 7 0 12 0;
#X connect 8 0 14 0;
#X connect 9 0 7 1;
#X connect 10 0 5 0;
#X connect 11 0 15 2;
#X connect 12 0 7 1;
#X connect 13 0 15 0;
#X connect 14 0 13 0;
#X connect 14 1 11 0;
#X connect 16 0 34 0;
#X connect 16 1 10 0;
#X connect 16 2 1 0;
#X connect 17 0 25 0;
#X connect 18 0 20 0;
#X connect 19 0 21 0;
#X connect 20 0 24 0;
#X connect 21 0 20 2;
#X connect 22 0 20 1;
#X connect 23 0 43 0;
#X connect 24 0 27 0;
#X connect 24 1 30 0;
#X connect 25 0 31 0;
#X connect 25 1 32 1;
#X connect 26 0 27 1;
#X connect 27 0 32 0;
#X connect 28 0 29 1;
#X connect 29 0 32 0;
#X connect 30 0 29 0;
#X connect 31 0 18 0;
#X connect 31 1 19 0;
#X connect 31 2 26 0;
#X connect 31 3 28 0;
#X connect 33 0 34 1;
#X connect 34 0 40 0;
#X connect 35 0 36 0;
#X connect 36 0 23 0;
#X connect 37 0 38 0;
#X connect 37 0 41 1;
#X connect 38 0 37 1;
#X connect 39 0 37 1;
#X connect 40 0 35 0;
#X connect 40 1 42 1;
#X connect 40 2 39 0;
#X connect 41 1 44 0;
#X connect 42 0 41 0;
#X connect 43 0 42 0;
#X connect 43 1 37 0;
#X connect 44 0 17 0;
#X connect 45 0 46 0;
#X connect 46 2 48 1;
#X connect 47 0 48 0;
#X connect 47 1 49 0;
#X connect 48 0 45 0;
#X connect 49 0 46 0;
#X coords 0 -1 1 1 88 60 1 100 100;
#X restore 170 458 pd load_preset;
#X obj 253 63 inlet pointer_list;
#X msg 420 375 40;
#X obj 420 397 until;
#X obj 420 419 f;
#X obj 451 418 + 1;
#X msg 458 395 0;
#X obj 420 352 t b b b;
#X obj 387 333 bng 15 250 50 0 empty empty empty 17 7 0 10 -262144
-1 -1;
#X msg 468 552 \; 2146-row39 const 0 \;;
#X msg 484 519 add \$0-row\$1 const 0;
#X msg 484 468 set;
#X msg 493 491 addsemi;
#X obj 420 441 t b f b b;
#X obj 420 332 r \$0-clear_memory;
#X obj 19 90 r \$0-clear_memory;
#X connect 40 0 43 0;
#X connect 42 0 40 0;
#X connect 43 0 44 0;
#X connect 43 0 41 0;
#X connect 44 0 43 1;
#X connect 45 0 43 1;
#X connect 46 0 42 0;
#X connect 46 1 45 0;
#X connect 47 0 49 0;
#X connect 49 0 53 0;
#X connect 49 1 52 0;
#X connect 50 0 55 0;
#X connect 51 0 54 0;
#X connect 52 0 51 0;
#X connect 53 0 50 0;
#X connect 54 0 48 0;
#X connect 55 0 48 0;
#X connect 56 0 55 1;
#X connect 57 0 58 0;
#X connect 58 0 59 0;
#X connect 59 0 60 0;
#X connect 59 0 68 0;
#X connect 60 0 59 1;
#X connect 61 0 59 1;
#X connect 62 0 57 0;
#X connect 62 1 61 0;
#X connect 63 0 62 0;
#X connect 65 0 64 0;
#X connect 66 0 64 0;
#X connect 67 0 64 0;
#X connect 68 0 64 0;
#X connect 68 1 65 0;
#X connect 68 2 67 0;
#X connect 68 3 66 0;
#X connect 69 0 62 0;
#X connect 70 0 46 0;
#X coords 0 0 1 1 100 40 0;
#X restore 246 587 pd memory;
#X obj 41 813 iemguts/sendcanvas 1;
#X msg 41 788 editmode 0;
#X obj 40 764 del 200;
#N canvas 2982 416 521 514 time_settings 0;
#X obj 128 44 inlet;
#X obj 169 193 list prepend;
#X obj 253 194 list;
#X floatatom 54 175 5 0 0 0 - - -, f 5;
#X obj 290 236 text define \$0-micro_settings;
#X obj 54 235 + 1;
#X obj 170 279 text set \$0-micro_settings;
#X obj 54 281 s \$0-amount_rows;
#X msg 169 115 set \$1;
#X floatatom 169 137 5 0 0 0 - - -, f 5;
#X obj 131 114 t b;
#X obj 241 165 r \$0-clear;
#X obj 128 66 route row micro;
#X connect 0 0 12 0;
#X connect 1 0 2 0;
#X connect 1 0 6 0;
#X connect 2 0 1 1;
#X connect 3 0 5 0;
#X connect 5 0 7 0;
#X connect 8 0 9 0;
#X connect 9 0 1 0;
#X connect 10 0 9 0;
#X connect 11 0 1 1;
#X connect 12 0 3 0;
#X connect 12 0 10 0;
#X connect 12 1 8 0;
#X coords 0 0 1 1 100 37 0;
#X restore 315 587 pd time_settings;
#N canvas 1160 158 590 608 time_calculations 0;
#X obj 116 35 inlet metronome;
#X obj 116 291 clone delayer 40;
#X msg 49 215 vis 5 1;
#X obj 218 103 bng 15 250 50 0 empty empty empty 17 7 0 10 -262144
-1 -1;
#X obj 217 123 \$0;
#X msg 217 145 all dollar_null \$1;
#X obj 239 102 loadbang;
#X msg 49 190 vis 2 1;
#X obj 116 93 list trim;
#X obj 116 71 list prepend all values;
#X obj 116 401 outlet notes;
#X msg 49 165 vis 3 1;
#X msg 49 140 vis 4 1;
#X floatatom 211 214 5 0 0 0 - - -, f 5;
#X obj 211 232 change;
#X msg 211 251 all amount_rows \$1;
#X obj 360 86 bng 15 250 50 0 empty empty empty 17 7 0 10 -262144 -1
-1;
#X msg 339 221 all amount_solo \$1;
#X obj 340 198 r \$0-amount_solo;
#X obj 339 248 r \$0-mute;
#X obj 339 270 t b;
#X msg 339 292 all trigger_btn bang;
#X obj 210 402 outlet muted;
#X obj 297 402 outlet solo;
#X obj 411 374 spigot;
#X obj 445 343 tgl 15 0 empty empty empty 17 7 0 10 -262144 -1 -1 0
1;
#X obj 211 195 r \$0-amount_rows;
#N canvas 803 221 662 534 mux_messages 0;
#X obj 112 68 inlet msg;
#X floatatom 261 89 5 0 0 0 - - -, f 5;
#X obj 261 70 r \$0-amount_rows;
#X obj 112 397 outlet notes;
#X obj 211 398 outlet muted;
#X obj 298 398 outlet solo;
#X obj 409 367 spigot;
#X obj 409 389 print;
#X obj 443 336 tgl 15 0 empty empty empty 17 7 0 10 -262144 -1 -1 0
1;
#X obj 112 215 t l l;
#X obj 112 103 t l l;
#X obj 112 195 spigot;
#X msg 148 127 \$1;
#X obj 147 149 expr if($f1 < $f2 \, 1 \, 0);
#X msg 322 228 \$2;
#X obj 322 253 route notes muted solo;
#X msg 322 280 0;
#X msg 367 281 1;
#X msg 408 281 2;
#X obj 112 340 demux . . .;
#X floatatom 181 316 5 0 0 0 - - -, f 5;
#X floatatom 161 176 5 0 0 0 - - -, f 5;
#X connect 0 0 10 0;
#X connect 1 0 13 1;
#X connect 2 0 1 0;
#X connect 6 0 7 0;
#X connect 8 0 6 1;
#X connect 9 0 19 0;
#X connect 9 1 14 0;
#X connect 9 1 6 0;
#X connect 10 0 11 0;
#X connect 10 1 12 0;
#X connect 11 0 9 0;
#X connect 12 0 13 0;
#X connect 13 0 11 1;
#X connect 13 0 21 0;
#X connect 14 0 15 0;
#X connect 15 0 16 0;
#X connect 15 1 17 0;
#X connect 15 2 18 0;
#X connect 16 0 20 0;
#X connect 17 0 20 0;
#X connect 18 0 20 0;
#X connect 19 0 3 0;
#X connect 19 1 4 0;
#X connect 19 2 5 0;
#X connect 20 0 19 1;
#X restore 116 345 pd mux_messages;
#X obj 204 461 spigot;
#X obj 238 430 tgl 15 0 empty empty empty 17 7 0 10 -262144 -1 -1 0
1;
#X obj 204 483 print muted;
#X obj 411 396 print solo;
#X msg 346 170 \$1 full \$2;
#X obj 347 147 r \$0-full_length;
#X connect 0 0 9 0;
#X connect 1 0 27 0;
#X connect 2 0 1 0;
#X connect 3 0 4 0;
#X connect 4 0 5 0;
#X connect 5 0 1 0;
#X connect 6 0 3 0;
#X connect 7 0 1 0;
#X connect 8 0 1 0;
#X connect 9 0 8 0;
#X connect 11 0 1 0;
#X connect 12 0 1 0;
#X connect 13 0 14 0;
#X connect 14 0 15 0;
#X connect 15 0 1 0;
#X connect 16 0 3 0;
#X connect 17 0 1 0;
#X connect 18 0 17 0;
#X connect 19 0 20 0;
#X connect 20 0 21 0;
#X connect 21 0 1 0;
#X connect 24 0 31 0;
#X connect 25 0 24 1;
#X connect 26 0 13 0;
#X connect 27 0 10 0;
#X connect 27 1 22 0;
#X connect 27 1 28 0;
#X connect 27 2 23 0;
#X connect 27 2 24 0;
#X connect 28 0 30 0;
#X connect 29 0 28 1;
#X connect 32 0 1 0;
#X connect 33 0 32 0;
#X coords 0 0 1 1 118 41 0;
#X restore 500 547 pd time_calculations;
#X obj 500 442 inlet metronome;
#X obj 499 818 outlet notes;
#X obj 52 460 s \$0-clear;
#X obj 39 717 r \$0-clear;
#N canvas 960 190 702 652 metronom 0;
#X obj 112 475 filledpolygon col col2 line 0 0 w 0 w h 0 h;
#N canvas 671 71 824 884 erstelle_gui 0;
#X obj 328 398 pointer;
#X obj 303 98 nbx 5 14 2 1e+037 0 0 empty empty height 0 -8 0 10 -262144
-1 -1 10 256 0;
#X obj 152 243 bng 15 250 50 0 empty empty empty 17 7 0 10 -262144
-1 -1;
#X obj 464 98 nbx 3 14 0 1e+037 0 0 empty empty col 0 -8 0 10 -262144
-1 -1 999 256 0;
#X obj 522 98 nbx 3 14 0 1e+037 0 0 empty empty col2 0 -8 0 10 -262144
-1 -1 0 256 0;
#X obj 585 98 nbx 3 14 1 1e+037 0 0 empty empty line 0 -8 0 10 -262144
-1 -1 2 256 0;
#X obj 152 287 t b b b b;
#N canvas 79 392 450 300 until_loop 0;
#X obj 137 82 until;
#X obj 137 104 f;
#X obj 165 105 + 1;
#X msg 179 79 0;
#X obj 136 27 inlet;
#X obj 136 49 t f b;
#X obj 140 184 outlet;
#X connect 0 0 1 0;
#X connect 1 0 2 0;
#X connect 1 0 6 0;
#X connect 2 0 1 1;
#X connect 3 0 1 1;
#X connect 4 0 5 0;
#X connect 5 0 0 0;
#X connect 5 1 3 0;
#X restore 152 362 pd until_loop;
#X obj 94 8 inlet;
#X obj 188 94 nbx 5 14 10 1e+037 0 0 empty empty width_quarter 0 -8
0 10 -262144 -1 -1 72 256 0;
#X obj 92 94 nbx 5 14 1 16 0 0 empty empty microtiming 0 -8 0 10 -262144
-1 -1 4 256 0;
#X obj 16 94 nbx 5 14 1 16 0 0 empty empty beats 0 -8 0 10 -262144
-1 -1 4 256 0;
#X floatatom 188 155 5 0 0 2 width - -, f 5;
#X obj 188 121 /;
#X obj 103 118 t b f;
#X floatatom 114 286 5 0 0 2 amount - -, f 5;
#X obj 152 314 f;
#X obj 152 435 f;
#X obj 152 384 t b f;
#X obj 152 587 t 0 f;
#X obj 92 420 % 4;
#X obj 181 435 +;
#X obj 152 336 t f b;
#X msg 192 384 0;
#X obj 175 487 f;
#X obj 152 514 +;
#X obj 207 486 +;
#X obj 92 442 sel 0;
#X obj 152 535 +;
#X obj 585 127 / 2;
#X obj 585 150 + 0.5;
#X obj 115 247 * 4;
#X msg 327 373 traverse pd-\$0-gui \, bang;
#X floatatom 239 436 5 0 0 0 - - -, f 5;
#X obj 698 98 nbx 3 14 0 1e+037 0 0 empty empty col_clicked 0 -8 0
10 -262144 -1 -1 0 256 0;
#X obj 314 199 nbx 2 14 -1e+037 1e+037 0 0 empty empty row 0 -8 0 10
-262144 -1 -1 0 256 0;
#X obj 508 369 f;
#X obj 508 391 *;
#X obj 536 369 f;
#X obj 536 391 f;
#X obj 508 413 +;
#X floatatom 508 526 5 0 0 0 y - -, f 5;
#X obj 152 263 t b b b;
#X obj 387 98 nbx 5 14 0 1e+037 0 0 empty empty dist_metro 0 -8 0 10
-262144 -1 -1 10 256 0;
#X obj 508 474 +;
#X obj 552 428 f;
#X obj 580 428 f;
#X obj 552 450 *;
#X obj 508 324 t b b b;
#X obj 152 615 pack f f f;
#X obj 151 643 unpack f f f;
#X obj 314 216 t b f;
#X floatatom 348 553 5 0 0 0 versatz - -, f 5;
#X obj 333 677 +;
#X obj 185 752 append \$0-metro col col2 line x y w h row col_n col_cl
column, f 62;
#X obj 188 179 s \$0-widthm;
#X obj 303 127 s \$0-heightm;
#X obj 341 237 s \$0-rowAm;
#X obj 464 174 s \$0-colm;
#X obj 522 174 s \$0-col2m;
#X obj 585 174 s \$0-line2m;
#X obj 628 148 s \$0-linem;
#X obj 698 174 s \$0-col_clickedm;
#X obj 201 409 r \$0-widthm;
#X obj 197 519 r \$0-line2m;
#X obj 195 586 r \$0-colm;
#X obj 214 731 r \$0-col2m;
#X obj 242 710 r \$0-linem;
#X obj 305 710 r \$0-ym;
#X obj 322 731 r \$0-widthm;
#X obj 356 709 r \$0-heightm;
#X obj 395 731 r \$0-rowAm;
#X obj 433 709 r \$0-colm;
#X obj 455 731 r \$0-col_clickedm;
#X obj 507 549 s \$0-ym;
#X obj 666 397 r \$0-rowAm;
#X obj 566 372 r \$0-line2m;
#X obj 608 347 r \$0-rowAm;
#X obj 524 347 r \$0-heightm;
#X obj 348 531 / 2;
#X obj 185 809 list prepend;
#X obj 271 809 list;
#X obj 185 831 outlet;
#X obj 252 780 r \$0-clear;
#X obj 508 496 +;
#X obj 552 472 r \$0-padding;
#X obj 152 557 +;
#X obj 197 541 r \$0-padding;
#X obj 14 60 r \$0-beats;
#X obj 188 64 r \$0-width_q;
#X obj 222 463 r \$0-dist_x;
#X obj 388 127 s \$0-dist_metro;
#X obj 567 397 r \$0-dist_metro;
#X obj 92 30 route micro height col col2 line col_cl dist_metro row
, f 56;
#X connect 0 0 54 11;
#X connect 1 0 56 0;
#X connect 2 0 42 0;
#X connect 3 0 58 0;
#X connect 4 0 59 0;
#X connect 5 0 29 0;
#X connect 5 0 61 0;
#X connect 6 0 16 0;
#X connect 6 2 32 0;
#X connect 7 0 18 0;
#X connect 8 0 93 0;
#X connect 9 0 13 0;
#X connect 9 0 79 0;
#X connect 10 0 14 0;
#X connect 10 0 20 1;
#X connect 11 0 31 0;
#X connect 12 0 55 0;
#X connect 13 0 12 0;
#X connect 14 0 9 0;
#X connect 14 0 11 0;
#X connect 14 1 13 1;
#X connect 14 1 31 1;
#X connect 15 0 16 1;
#X connect 16 0 22 0;
#X connect 17 0 21 0;
#X connect 17 0 25 0;
#X connect 18 0 17 0;
#X connect 18 1 20 0;
#X connect 18 1 54 10;
#X connect 19 0 49 0;
#X connect 19 1 49 2;
#X connect 20 0 27 0;
#X connect 21 0 17 1;
#X connect 22 0 7 0;
#X connect 22 1 23 0;
#X connect 23 0 17 1;
#X connect 23 0 24 1;
#X connect 24 0 26 0;
#X connect 24 0 25 1;
#X connect 25 0 28 0;
#X connect 26 0 24 1;
#X connect 27 0 24 0;
#X connect 28 0 86 0;
#X connect 29 0 30 0;
#X connect 30 0 60 0;
#X connect 31 0 15 0;
#X connect 32 0 0 0;
#X connect 34 0 62 0;
#X connect 35 0 51 0;
#X connect 36 0 37 0;
#X connect 37 0 40 0;
#X connect 38 0 37 1;
#X connect 39 0 40 1;
#X connect 40 0 44 0;
#X connect 41 0 74 0;
#X connect 42 1 6 0;
#X connect 42 2 48 0;
#X connect 43 0 91 0;
#X connect 44 0 84 0;
#X connect 45 0 47 0;
#X connect 46 0 47 1;
#X connect 47 0 44 1;
#X connect 48 0 36 0;
#X connect 48 1 38 0;
#X connect 48 1 39 0;
#X connect 48 1 45 0;
#X connect 48 2 46 0;
#X connect 49 0 50 0;
#X connect 50 1 54 0;
#X connect 50 2 53 0;
#X connect 51 0 2 0;
#X connect 51 1 57 0;
#X connect 52 0 53 1;
#X connect 53 0 54 3;
#X connect 54 0 80 0;
#X connect 63 0 21 1;
#X connect 63 0 33 0;
#X connect 64 0 28 1;
#X connect 65 0 49 1;
#X connect 66 0 54 1;
#X connect 67 0 54 2;
#X connect 68 0 54 4;
#X connect 69 0 54 5;
#X connect 70 0 54 6;
#X connect 71 0 54 7;
#X connect 72 0 54 8;
#X connect 73 0 54 9;
#X connect 75 0 46 1;
#X connect 76 0 39 1;
#X connect 77 0 38 1;
#X connect 78 0 36 1;
#X connect 79 0 52 0;
#X connect 80 0 81 0;
#X connect 80 0 82 0;
#X connect 81 0 80 1;
#X connect 83 0 80 1;
#X connect 84 0 41 0;
#X connect 85 0 84 1;
#X connect 86 0 19 0;
#X connect 87 0 86 1;
#X connect 88 0 11 0;
#X connect 89 0 9 0;
#X connect 90 0 26 1;
#X connect 92 0 45 1;
#X connect 93 0 10 0;
#X connect 93 1 1 0;
#X connect 93 2 3 0;
#X connect 93 3 4 0;
#X connect 93 4 5 0;
#X connect 93 5 34 0;
#X connect 93 6 43 0;
#X connect 93 7 35 0;
#X coords 0 -1 1 1 94 60 1 639 638;
#X restore 61 279 pd erstelle_gui;
#X obj 60 82 inlet;
#N canvas 830 276 259 426 init 0;
#X msg 123 97 width 60;
#X msg 123 121 height 15;
#X msg 123 145 dist 8;
#X msg 123 169 dist_y 5;
#X msg 123 193 col 999;
#X msg 123 217 col2 0;
#X msg 123 241 line 2;
#X msg 123 265 col_cl 65;
#X msg 123 289 beat 4;
#X msg 123 313 micro 4;
#X obj 123 366 outlet;
#X obj 123 68 loadbang;
#X obj 123 40 bng 15 250 50 0 empty empty empty 17 7 0 10 -262144 -1
-1;
#X connect 0 0 10 0;
#X connect 1 0 10 0;
#X connect 2 0 10 0;
#X connect 3 0 10 0;
#X connect 4 0 10 0;
#X connect 5 0 10 0;
#X connect 6 0 10 0;
#X connect 7 0 10 0;
#X connect 8 0 10 0;
#X connect 9 0 10 0;
#X connect 11 0 0 0;
#X connect 11 0 9 0;
#X connect 11 0 8 0;
#X connect 11 0 7 0;
#X connect 11 0 6 0;
#X connect 11 0 5 0;
#X connect 11 0 4 0;
#X connect 11 0 3 0;
#X connect 11 0 2 0;
#X connect 11 0 1 0;
#X connect 12 0 0 0;
#X connect 12 0 9 0;
#X connect 12 0 8 0;
#X connect 12 0 7 0;
#X connect 12 0 6 0;
#X connect 12 0 5 0;
#X connect 12 0 4 0;
#X connect 12 0 3 0;
#X connect 12 0 2 0;
#X connect 12 0 1 0;
#X coords 0 -1 1 1 80 39 1 92 17;
#X restore 127 217 pd init;
#N canvas 406 58 1012 748 memorize_messages 0;
#X obj 80 28 inlet;
#X obj 198 205 list prepend;
#X obj 288 205 list;
#X obj 176 234 list;
#X obj 175 210 bng 15 250 50 0 empty empty empty 17 7 0 10 -262144
-1 -1;
#X obj 80 281 list length;
#X floatatom 80 303 5 0 0 0 - - -, f 5;
#X obj 80 412 list split;
#X obj 80 324 / 2;
#X obj 80 368 t b f;
#X obj 176 256 t l l;
#X obj 266 181 bng 15 250 50 0 empty empty empty 17 7 0 10 -262144
-1 -1;
#X obj 80 390 list;
#X obj 80 60 route clear change;
#X floatatom 149 523 5 0 0 0 - - -, f 5;
#X obj 345 129 unpack s f s f;
#X symbolatom 345 150 10 0 0 0 - - -, f 10;
#X symbolatom 416 150 10 0 0 0 - - -, f 10;
#X floatatom 376 170 5 0 0 0 - - -, f 5;
#X floatatom 488 149 5 0 0 0 - - -, f 5;
#X obj 108 435 unpack s f;
#X obj 108 479 f;
#X obj 108 501 ==;
#X obj 108 523 sel 1;
#X obj 108 545 f;
#X floatatom 108 567 5 0 0 0 - - -, f 5;
#X floatatom 370 289 5 0 0 0 - - -, f 5;
#X obj 320 107 t b a;
#X obj 370 330 / 2;
#N canvas 559 265 450 300 schleife 0;
#X obj 139 45 inlet;
#X obj 139 78 t f b;
#X obj 139 100 until;
#X obj 139 122 f;
#X msg 183 87 0;
#X obj 168 120 + 2;
#X obj 140 147 outlet;
#X connect 0 0 1 0;
#X connect 1 0 2 0;
#X connect 1 1 4 0;
#X connect 2 0 3 0;
#X connect 3 0 5 0;
#X connect 3 0 6 0;
#X connect 4 0 3 1;
#X connect 5 0 3 1;
#X restore 80 346 pd schleife;
#N canvas 559 265 450 300 schleife 0;
#X obj 139 45 inlet;
#X obj 139 78 t f b;
#X obj 139 100 until;
#X obj 139 122 f;
#X msg 183 87 0;
#X obj 168 120 + 2;
#X obj 140 147 outlet;
#X obj 210 42 inlet stop;
#X connect 0 0 1 0;
#X connect 1 0 2 0;
#X connect 1 1 4 0;
#X connect 2 0 3 0;
#X connect 3 0 5 0;
#X connect 3 0 6 0;
#X connect 4 0 3 1;
#X connect 5 0 3 1;
#X connect 7 0 2 1;
#X restore 370 351 pd schleife;
#X obj 370 444 list;
#X obj 370 395 expr $f2 - $f1;
#X obj 370 309 t f f;
#X obj 370 417 t b f;
#X obj 370 469 list split;
#X obj 399 497 unpack s f;
#X obj 399 519 sel micro;
#X text 28 252 index von nr finden;
#X text 365 247 index von micro finden \, rückwärts gehend von index
nr, f 30;
#X obj 373 558 f;
#X obj 370 373 t f f;
#X floatatom 373 580 5 0 0 0 - - -, f 5;
#X floatatom 571 364 5 0 0 0 - - -, f 5;
#X obj 590 418 list;
#X obj 590 440 list split;
#X obj 570 343 expr $f2 - $f1;
#X obj 589 509 list;
#X obj 645 469 list split 2;
#X obj 620 509 list;
#X obj 415 172 pack s f;
#X obj 571 385 t b b f;
#X obj 589 538 list append;
#X obj 672 538 list;
#X obj 651 509 list;
#X obj 571 469 t b b b b b;
#X obj 566 575 list;
#X text 556 244 micro austauschen und neue liste zusammensetzen, f
30;
#X obj 808 363 list length;
#X floatatom 808 385 5 0 0 0 - - -, f 5;
#X obj 808 406 / 2;
#X obj 808 450 t b f;
#N canvas 559 265 450 300 schleife 0;
#X obj 139 45 inlet;
#X obj 139 78 t f b;
#X obj 139 100 until;
#X obj 139 122 f;
#X msg 183 87 0;
#X obj 168 120 + 2;
#X obj 140 147 outlet;
#X connect 0 0 1 0;
#X connect 1 0 2 0;
#X connect 1 1 4 0;
#X connect 2 0 3 0;
#X connect 3 0 5 0;
#X connect 3 0 6 0;
#X connect 4 0 3 1;
#X connect 5 0 3 1;
#X restore 808 428 pd schleife;
#X obj 808 494 list split;
#X msg 836 518 \$1 \$2;
#X obj 808 472 list;
#X obj 837 659 outlet;
#X msg 860 544 clear;
#X obj 108 457 sel row;
#X obj 788 328 t b l l b;
#X text 776 292 neue liste ausgeben, f 30;
#X obj 903 659 outlet clear_array;
#X connect 0 0 13 0;
#X connect 1 0 2 0;
#X connect 1 0 3 1;
#X connect 2 0 1 1;
#X connect 3 0 10 0;
#X connect 4 0 3 0;
#X connect 5 0 6 0;
#X connect 6 0 8 0;
#X connect 7 1 20 0;
#X connect 8 0 29 0;
#X connect 9 0 12 0;
#X connect 9 1 7 1;
#X connect 10 0 5 0;
#X connect 10 1 12 1;
#X connect 10 1 31 1;
#X connect 10 1 44 1;
#X connect 11 0 1 1;
#X connect 12 0 7 0;
#X connect 13 0 11 0;
#X connect 13 1 27 0;
#X connect 13 2 1 0;
#X connect 14 0 24 1;
#X connect 15 0 16 0;
#X connect 15 1 18 0;
#X connect 15 2 17 0;
#X connect 15 3 19 0;
#X connect 17 0 50 0;
#X connect 18 0 22 1;
#X connect 18 0 71 0;
#X connect 19 0 50 1;
#X connect 20 0 68 0;
#X connect 20 1 21 1;
#X connect 21 0 22 0;
#X connect 22 0 23 0;
#X connect 23 0 24 0;
#X connect 24 0 25 0;
#X connect 25 0 26 0;
#X connect 26 0 33 0;
#X connect 27 0 4 0;
#X connect 27 1 15 0;
#X connect 28 0 30 0;
#X connect 29 0 14 0;
#X connect 29 0 9 0;
#X connect 30 0 41 0;
#X connect 31 0 35 0;
#X connect 32 0 34 0;
#X connect 33 0 28 0;
#X connect 33 1 32 1;
#X connect 33 1 46 1;
#X connect 34 0 31 0;
#X connect 34 1 35 1;
#X connect 35 1 36 0;
#X connect 36 0 37 0;
#X connect 37 0 40 0;
#X connect 37 0 30 1;
#X connect 40 0 42 0;
#X connect 41 0 32 0;
#X connect 41 1 40 1;
#X connect 42 0 46 0;
#X connect 43 0 51 0;
#X connect 44 0 45 0;
#X connect 45 0 47 1;
#X connect 45 1 48 0;
#X connect 46 0 43 0;
#X connect 47 0 52 0;
#X connect 48 1 54 1;
#X connect 49 0 52 0;
#X connect 50 0 49 1;
#X connect 51 0 55 0;
#X connect 51 1 44 0;
#X connect 51 2 45 1;
#X connect 52 0 53 0;
#X connect 52 0 56 1;
#X connect 53 0 52 1;
#X connect 54 0 52 0;
#X connect 55 0 56 0;
#X connect 55 1 47 0;
#X connect 55 2 49 0;
#X connect 55 3 54 0;
#X connect 55 4 52 1;
#X connect 56 0 69 0;
#X connect 58 0 59 0;
#X connect 59 0 60 0;
#X connect 60 0 62 0;
#X connect 61 0 65 0;
#X connect 61 1 63 1;
#X connect 62 0 61 0;
#X connect 63 1 64 0;
#X connect 64 0 66 0;
#X connect 64 0 1 0;
#X connect 65 0 63 0;
#X connect 67 0 66 0;
#X connect 68 0 21 0;
#X connect 69 1 58 0;
#X connect 69 2 65 1;
#X connect 69 3 67 0;
#X connect 69 3 1 1;
#X restore 126 188 pd memorize_messages;
#N canvas 1289 274 318 258 time_calculations 0;
#X obj 53 38 inlet metronome;
#X obj 53 186 outlet micro_timing;
#X obj 53 148 delayer_metronom2;
#X obj 152 38 inlet micro_metro;
#X connect 0 0 2 0;
#X connect 2 0 1 0;
#X connect 3 0 2 1;
#X restore 354 276 pd time_calculations;
#X obj 353 32 inlet metronome;
#N canvas 1172 195 656 841 set_metronom 0;
#X obj 281 533 pointer;
#X floatatom 207 652 5 0 0 0 - - -, f 5;
#X floatatom 356 653 5 0 0 0 - - -, f 5;
#X obj 207 606 t p p p;
#X obj 211 44 inlet micro_timing;
#X floatatom 269 243 5 0 0 0 - - -, f 5;
#X obj 211 268 expr $f1 * $f2 + $f3;
#X obj 211 147 t a b;
#X obj 211 172 unpack f f f;
#X floatatom 211 290 5 0 0 0 - - -, f 5;
#X obj 361 82 spigot;
#X obj 360 103 print;
#X obj 399 58 tgl 15 0 empty empty empty 17 7 0 10 -262144 -1 -1 0
1;
#X obj 207 583 pointer;
#X obj 356 587 pointer;
#X obj 356 609 t p p;
#X obj 207 629 get \$0-metro col_n;
#X obj 356 631 get \$0-metro col_cl;
#X obj 207 674 set \$0-metro col;
#X obj 270 215 v \$0-micro_settings_metro;
#X obj 49 45 inlet pointer;
#X obj 199 401 list;
#X obj 199 429 list split;
#X obj 210 321 t b b b f b;
#X obj 103 360 t a a;
#X obj 105 438 t p;
#X connect 0 0 13 1;
#X connect 0 0 14 1;
#X connect 1 0 18 0;
#X connect 2 0 18 0;
#X connect 3 0 16 0;
#X connect 3 1 18 1;
#X connect 4 0 10 0;
#X connect 4 0 7 0;
#X connect 5 0 6 1;
#X connect 6 0 9 0;
#X connect 7 0 8 0;
#X connect 7 1 19 0;
#X connect 8 0 6 0;
#X connect 8 1 6 2;
#X connect 9 0 23 0;
#X connect 10 0 11 0;
#X connect 12 0 10 1;
#X connect 13 0 3 0;
#X connect 14 0 15 0;
#X connect 15 0 17 0;
#X connect 15 1 18 1;
#X connect 16 0 1 0;
#X connect 17 0 2 0;
#X connect 19 0 5 0;
#X connect 20 0 24 0;
#X connect 21 0 22 0;
#X connect 22 1 0 0;
#X connect 23 1 14 0;
#X connect 23 2 21 0;
#X connect 23 3 22 1;
#X connect 23 4 13 0;
#X connect 24 0 21 1;
#X connect 24 0 25 0;
#X connect 25 0 13 1;
#X restore 267 362 pd set_metronom;
#X obj 51 422 struct \$0-metro float col float col2 float line float
x float y float w float h float col_n float col_cl float row float
column;
#X obj 269 159 route micro;
#X obj 269 185 v \$0-micro_settings_metro;
#X connect 1 0 7 0;
#X connect 2 0 9 0;
#X connect 2 0 4 0;
#X connect 2 0 1 0;
#X connect 3 0 1 0;
#X connect 4 0 1 0;
#X connect 5 0 7 1;
#X connect 6 0 5 0;
#X connect 9 0 10 0;
#X connect 9 0 5 1;
#X coords 0 0 1 1 108 37 0;
#X restore 426 587 pd metronom;
#N canvas 1250 417 575 397 color_muted_and_soloed 1;
#X obj 343 73 inlet pointer_list;
#X obj 125 74 inlet muted;
#X obj 221 74 inlet solo;
#X obj 260 196 spigot;
#X obj 294 165 tgl 15 0 empty empty empty 17 7 0 10 -262144 -1 -1 0
1;
#X obj 260 218 print solo;
#X obj 71 199 spigot;
#X obj 105 168 tgl 15 0 empty empty empty 17 7 0 10 -262144 -1 -1 0
1;
#X obj 71 221 print muted;
#N canvas 472 185 605 685 set_solo 0;
#X obj 313 40 inlet pointer_list;
#X obj 276 347 pointer;
#X floatatom 276 416 5 0 0 0 - - -, f 5;
#X floatatom 359 416 5 0 0 0 - - -, f 5;
#X obj 292 200 until;
#X obj 276 538 sel 1;
#X obj 276 370 t p p;
#X floatatom 442 416 5 0 0 0 - - -, f 5;
#X obj 276 561 f;
#X obj 304 561 f;
#X obj 292 113 list;
#X obj 292 157 list length;
#X floatatom 292 179 5 0 0 0 - - -, f 5;
#X obj 319 261 f;
#X obj 349 261 + 1;
#X msg 334 200 0;
#X obj 292 135 t l l b;
#X obj 247 289 list split;
#X obj 247 223 list;
#X obj 292 222 t b b;
#X obj 276 327 t p;
#X obj 130 43 inlet solo;
#X obj 150 109 spigot;
#X obj 184 78 tgl 15 0 empty empty empty 17 7 0 10 -262144 -1 -1 0
1;
#X obj 150 131 print solo;
#X obj 276 584 set \$0-toggle col2;
#X msg 192 244 \$1;
#X obj 312 487 ==;
#X obj 276 515 spigot;
#X obj 276 394 get \$0-toggle col_mute col_solo col2_n row;
#X floatatom 524 416 5 0 0 0 - - -, f 5;
#X msg 147 244 set \$3;
#X floatatom 276 461 5 0 0 0 - - -, f 5;
#X obj 276 438 t;
#X obj 130 210 t b l l b;
#X connect 0 0 10 1;
#X connect 1 0 6 0;
#X connect 2 0 33 0;
#X connect 3 0 8 1;
#X connect 4 0 19 0;
#X connect 5 0 8 0;
#X connect 5 1 9 0;
#X connect 6 0 29 0;
#X connect 6 1 25 1;
#X connect 7 0 9 1;
#X connect 8 0 25 0;
#X connect 9 0 25 0;
#X connect 10 0 16 0;
#X connect 11 0 12 0;
#X connect 12 0 4 0;
#X connect 13 0 14 0;
#X connect 13 0 17 1;
#X connect 14 0 13 1;
#X connect 15 0 13 1;
#X connect 16 0 11 0;
#X connect 16 1 18 1;
#X connect 16 2 15 0;
#X connect 17 1 20 0;
#X connect 18 0 17 0;
#X connect 19 0 18 0;
#X connect 19 1 13 0;
#X connect 20 0 1 0;
#X connect 21 0 22 0;
#X connect 21 0 34 0;
#X connect 22 0 24 0;
#X connect 23 0 22 1;
#X connect 26 0 27 1;
#X connect 27 0 28 1;
#X connect 28 0 5 0;
#X connect 29 0 2 0;
#X connect 29 1 3 0;
#X connect 29 2 7 0;
#X connect 29 3 30 0;
#X connect 30 0 27 0;
#X connect 31 0 32 0;
#X connect 32 0 28 0;
#X connect 33 0 32 0;
#X connect 34 0 10 0;
#X connect 34 1 31 0;
#X connect 34 2 26 0;
#X restore 326 155 pd set_solo;
#N canvas 2054 159 605 708 set_mute 0;
#X obj 313 40 inlet pointer_list;
#X obj 276 347 pointer;
#X floatatom 276 416 5 0 0 0 - - -, f 5;
#X floatatom 359 416 5 0 0 0 - - -, f 5;
#X obj 292 200 until;
#X obj 276 543 sel 1;
#X obj 276 370 t p p;
#X floatatom 442 416 5 0 0 0 - - -, f 5;
#X obj 276 566 f;
#X obj 304 566 f;
#X obj 292 113 list;
#X obj 292 157 list length;
#X floatatom 292 179 5 0 0 0 - - -, f 5;
#X obj 319 261 f;
#X obj 349 261 + 1;
#X msg 334 200 0;
#X obj 292 135 t l l b;
#X obj 247 289 list split;
#X obj 247 223 list;
#X obj 292 222 t b b;
#X obj 276 327 t p;
#X obj 150 109 spigot;
#X obj 184 78 tgl 15 0 empty empty empty 17 7 0 10 -262144 -1 -1 1
1;
#X obj 150 131 print solo;
#X obj 276 589 set \$0-toggle col2;
#X msg 199 245 \$1;
#X obj 312 492 ==;
#X obj 276 520 spigot;
#X obj 276 394 get \$0-toggle col_mute col_solo col2_n row;
#X floatatom 524 416 5 0 0 0 - - -, f 5;
#X msg 149 245 set \$3;
#X floatatom 276 466 5 0 0 0 - - -, f 5;
#X obj 130 43 inlet mute;
#X obj 276 443 t b f;
#X obj 130 210 t b l l;
#X connect 0 0 10 1;
#X connect 1 0 6 0;
#X connect 2 0 33 0;
#X connect 4 0 19 0;
#X connect 5 0 8 0;
#X connect 5 1 9 0;
#X connect 6 0 28 0;
#X connect 6 1 24 1;
#X connect 7 0 9 1;
#X connect 8 0 24 0;
#X connect 9 0 24 0;
#X connect 10 0 16 0;
#X connect 11 0 12 0;
#X connect 12 0 4 0;
#X connect 13 0 14 0;
#X connect 13 0 17 1;
#X connect 14 0 13 1;
#X connect 15 0 13 1;
#X connect 16 0 11 0;
#X connect 16 1 18 1;
#X connect 16 2 15 0;
#X connect 17 1 20 0;
#X connect 18 0 17 0;
#X connect 19 0 18 0;
#X connect 19 1 13 0;
#X connect 20 0 1 0;
#X connect 21 0 23 0;
#X connect 22 0 21 1;
#X connect 25 0 26 1;
#X connect 26 0 27 1;
#X connect 27 0 5 0;
#X connect 28 0 2 0;
#X connect 28 1 3 0;
#X connect 28 2 7 0;
#X connect 28 3 29 0;
#X connect 29 0 26 0;
#X connect 30 0 31 0;
#X connect 31 0 27 0;
#X connect 32 0 21 0;
#X connect 32 0 34 0;
#X connect 33 0 31 0;
#X connect 33 1 8 1;
#X connect 34 0 10 0;
#X connect 34 1 30 0;
#X connect 34 2 25 0;
#X restore 167 153 pd set_mute;
#X connect 0 0 9 1;
#X connect 0 0 10 1;
#X connect 1 0 6 0;
#X connect 2 0 3 0;
#X connect 3 0 5 0;
#X connect 4 0 3 1;
#X connect 6 0 8 0;
#X connect 7 0 6 1;
#X coords 0 0 1 1 144 33 0;
#X restore 557 573 pd color_muted_and_soloed;
#X obj 183 718 struct \$0-toggle float col float col2 float line float
x float y float w float h float col_n float col_cl float row float
column float col_mute float col_solo float col2_n;
#X obj 116 610 s \$0-pointer_list;
#X obj 297 563 r \$0-pointer_list;
#X obj 631 548 r \$0-pointer_list;
#X obj 46 438 route clear clear_memory;
#X obj 120 460 s \$0-clear_memory;
#N canvas 923 96 604 640 memorize_messages 0;
#X obj 71 39 inlet;
#N canvas 1250 172 471 700 set_arrays_to_old_values 0;
#X obj 213 59 inlet new_rows;
#X msg 114 283 next;
#X obj 102 305 pointer \$0-toggle;
#X obj 75 177 t b b;
#X obj 75 251 until;
#X msg 102 223 traverse pd-\$0-gui;
#X obj 74 151 bng 15 250 50 0 empty empty empty 17 7 0 10 -262144 -1
-1;
#N canvas 357 395 398 330 set_txt_tmp 0;
#X obj 181 134 text define \$0-temp_ov;
#X msg 133 206 1e+006;
#X obj 134 185 loadbang;
#X obj 96 229 text set \$0-temp_ov;
#X obj 96 135 list split 1;
#X obj 96 91 until;
#X obj 96 113 list append;
#X obj 165 157 bang;
#X obj 96 60 t b l b;
#X msg 182 109 clear;
#X obj 95 18 inlet;
#X obj 38 254 outlet clear_array;
#X connect 1 0 3 1;
#X connect 2 0 1 0;
#X connect 4 0 3 0;
#X connect 4 0 11 0;
#X connect 4 1 6 1;
#X connect 4 2 7 0;
#X connect 5 0 6 0;
#X connect 6 0 4 0;
#X connect 7 0 5 1;
#X connect 8 0 5 0;
#X connect 8 1 6 1;
#X connect 8 2 9 0;
#X connect 9 0 0 0;
#X connect 10 0 8 0;
#X coords 0 -1 1 1 102 34 1 234 36;
#X restore 249 186 pd set_txt_tmp;
#X msg 249 243 \; \$0-row\$1 const 0;
#X text 257 226 clear new arrays;
#X obj 76 62 inlet trigger;
#X obj 76 97 list;
#X obj 102 328 t p p;
#X floatatom 102 395 5 0 0 0 - - -, f 5;
#X floatatom 191 395 5 0 0 0 - - -, f 5;
#X obj 102 550 array get;
#X msg 150 529 symbol \$0-row\$1;
#X obj 125 529 nbx 1 14 1 2 0 1 empty empty empty 0 -8 0 10 -262144
-1 -1 1 256 0;
#X floatatom 283 395 5 0 0 0 - - -, f 5;
#X obj 102 598 f;
#X obj 102 506 spigot;
#X obj 102 373 get \$0-toggle column row col_cl;
#X obj 102 625 set \$0-toggle col;
#X obj 140 438 text search \$0-temp_ov;
#X obj 191 416 change;
#X obj 140 460 sel -1;
#X msg 140 482 1;
#X msg 173 482 0;
#X obj 102 574 sel 1;
#X obj 76 121 t b l;
#X connect 0 0 11 1;
#X connect 1 0 2 0;
#X connect 2 0 12 0;
#X connect 2 2 4 1;
#X connect 3 0 4 0;
#X connect 3 1 5 0;
#X connect 4 0 1 0;
#X connect 5 0 2 0;
#X connect 6 0 3 0;
#X connect 7 0 8 0;
#X connect 10 0 11 0;
#X connect 11 0 29 0;
#X connect 12 0 21 0;
#X connect 12 1 22 1;
#X connect 13 0 20 0;
#X connect 14 0 24 0;
#X connect 15 0 28 0;
#X connect 16 0 15 2;
#X connect 17 0 15 1;
#X connect 18 0 19 1;
#X connect 19 0 22 0;
#X connect 20 0 15 0;
#X connect 21 0 13 0;
#X connect 21 1 14 0;
#X connect 21 2 18 0;
#X connect 23 0 25 0;
#X connect 24 0 16 0;
#X connect 24 0 23 0;
#X connect 25 0 26 0;
#X connect 25 1 27 0;
#X connect 26 0 20 1;
#X connect 27 0 20 1;
#X connect 28 0 19 0;
#X connect 29 0 6 0;
#X connect 29 1 7 0;
#X coords 0 -1 1 1 181 31 1 237 100;
#X restore 267 301 pd set_arrays_to_old_values;
#X obj 408 572 outlet to_metronom;
#X obj 77 280 text define \$0-settings_metro;
#X msg 71 224 clear;
#X obj 69 303 text define \$0-settings_matrix;
#X obj 65 409 text define \$0-temp;
#N canvas 61 401 595 471 settings_metro 0;
#X msg 154 138 set col \$1;
#X msg 154 159 col 999;
#X msg 229 158 col2 0;
#X msg 229 139 set col2 \$1;
#X msg 305 161 line 2, f 7;
#X msg 305 140 set line \$1;
#X msg 386 159 micro 4;
#X msg 386 140 set micro \$1;
#X obj 155 343 list prepend;
#X obj 235 343 list;
#X msg 475 141 row \$1;
#X msg 186 396 1e+006;
#X obj 187 375 loadbang;
#X obj 134 394 list;
#X obj 153 40 inlet values;
#X obj 320 105 t b f b b b b b b;
#X obj 154 73 route col col2 line micro row, f 63;
#X obj 134 418 text set \$0-settings_metro;
#X connect 0 0 1 0;
#X connect 1 0 8 0;
#X connect 2 0 8 0;
#X connect 3 0 2 0;
#X connect 4 0 8 0;
#X connect 5 0 4 0;
#X connect 6 0 8 0;
#X connect 7 0 6 0;
#X connect 8 0 9 0;
#X connect 8 0 13 1;
#X connect 9 0 8 1;
#X connect 10 0 8 0;
#X connect 11 0 17 1;
#X connect 12 0 11 0;
#X connect 13 0 17 0;
#X connect 14 0 16 0;
#X connect 15 0 13 0;
#X connect 15 1 10 0;
#X connect 15 2 6 0;
#X connect 15 4 4 0;
#X connect 15 5 2 0;
#X connect 15 6 1 0;
#X connect 15 7 8 1;
#X connect 16 0 0 0;
#X connect 16 1 3 0;
#X connect 16 2 5 0;
#X connect 16 3 7 0;
#X connect 16 4 15 0;
#X coords 0 -1 1 1 98 30 1 44 76;
#X restore 302 141 pd settings_metro;
#X obj 69 328 text define \$0-settings_msf;
#X obj 302 98 route metro msf;
#N canvas 124 418 674 494 settings_msf 0;
#X msg 82 123 set col \$1;
#X msg 82 144 col 777;
#X msg 242 144 col_mute 333;
#X msg 347 144 col_solo 811, f 13;
#X obj 83 328 list prepend;
#X obj 163 328 list;
#X msg 135 378 1e+006;
#X obj 136 357 loadbang;
#X obj 83 376 list;
#X obj 81 25 inlet values;
#X msg 242 123 set col_mute \$1;
#X msg 347 123 set col_solo \$1;
#X obj 83 400 text set \$0-settings_msf;
#X msg 453 124 col__full \$1;
#X msg 453 146;
#X msg 546 122 percent \$1;
#X obj 82 58 route col col2 col_mute col_solo col_full percent, f
51;
#X msg 157 145 col2 0;
#X msg 157 124 set col2 \$1;
#X obj 334 82 t b f b b b b b b;
#X connect 0 0 1 0;
#X connect 1 0 4 0;
#X connect 2 0 4 0;
#X connect 3 0 4 0;
#X connect 4 0 5 0;
#X connect 4 0 8 1;
#X connect 5 0 4 1;
#X connect 6 0 12 1;
#X connect 7 0 6 0;
#X connect 8 0 12 0;
#X connect 9 0 16 0;
#X connect 10 0 2 0;
#X connect 11 0 3 0;
#X connect 13 0 14 0;
#X connect 14 0 4 0;
#X connect 15 0 4 0;
#X connect 16 0 0 0;
#X connect 16 1 18 0;
#X connect 16 2 10 0;
#X connect 16 3 11 0;
#X connect 16 4 13 0;
#X connect 16 5 19 0;
#X connect 17 0 4 0;
#X connect 18 0 17 0;
#X connect 19 0 8 0;
#X connect 19 1 15 0;
#X connect 19 2 14 0;
#X connect 19 3 3 0;
#X connect 19 4 2 0;
#X connect 19 5 17 0;
#X connect 19 6 1 0;
#X connect 19 7 4 1;
#X coords 0 -1 1 1 98 30 1 44 76;
#X restore 345 179 pd settings_msf;
#N canvas 1165 253 660 494 settings_matrix 0;
#X msg 154 138 set col \$1;
#X msg 154 159 col 999;
#X msg 229 158 col2 0;
#X msg 229 139 set col2 \$1;
#X msg 305 161 line 1, f 7;
#X msg 305 140 set line \$1;
#X msg 380 159 col_cl 333;
#X msg 380 140 set col_cl \$1;
#X msg 470 160 micro 4;
#X msg 470 141 set micro \$1;
#X obj 155 343 list prepend;
#X obj 235 343 list;
#X msg 559 142 row \$1;
#X obj 155 415 text set \$0-settings_matrix;
#X msg 207 393 1e+006;
#X obj 208 372 loadbang;
#X obj 155 391 list;
#X obj 153 40 inlet values;
#X obj 154 73 route col col2 line col_cl micro row, f 76;
#X obj 328 104 t b f b b b b b b;
#X connect 0 0 1 0;
#X connect 1 0 10 0;
#X connect 2 0 10 0;
#X connect 3 0 2 0;
#X connect 4 0 10 0;
#X connect 5 0 4 0;
#X connect 6 0 10 0;
#X connect 7 0 6 0;
#X connect 8 0 10 0;
#X connect 9 0 8 0;
#X connect 10 0 11 0;
#X connect 10 0 16 1;
#X connect 11 0 10 1;
#X connect 12 0 10 0;
#X connect 14 0 13 1;
#X connect 15 0 14 0;
#X connect 16 0 13 0;
#X connect 17 0 18 0;
#X connect 18 0 0 0;
#X connect 18 1 3 0;
#X connect 18 2 5 0;
#X connect 18 3 7 0;
#X connect 18 4 9 0;
#X connect 18 5 19 0;
#X connect 19 0 16 0;
#X connect 19 1 12 0;
#X connect 19 2 8 0;
#X connect 19 3 6 0;
#X connect 19 4 4 0;
#X connect 19 5 2 0;
#X connect 19 6 1 0;
#X connect 19 7 10 1;
#X coords 0 -1 1 1 98 30 1 44 76;
#X restore 389 214 pd settings_matrix;
#N canvas 338 306 452 309 change 0;
#X obj 65 28 inlet values;
#X obj 65 64 route row;
#X obj 65 86 t a a;
#N canvas 983 272 306 531 find_changed_pairs 0;
#X obj 85 55 list length;
#X floatatom 85 95 5 0 0 0 - - -, f 5;
#X obj 85 134 until;
#X obj 85 154 f;
#X obj 117 156 + 1;
#X obj 85 75 t f b;
#X msg 124 132 0;
#X obj 85 35 t l l;
#X obj 85 234 list split;
#X obj 85 194 t b f;
#X obj 85 214 list;
#X obj 178 303 bng 15 250 50 0 empty empty symbol -18 23 1 12 -262144
-1 -1;
#X obj 114 279 route float;
#X msg 113 256 \$1;
#X obj 85 174 + 1;
#X obj 85 114 - 2;
#X obj 178 364 list;
#X obj 218 365 f;
#X obj 178 338 t b b;
#X obj 178 390 list split;
#X msg 206 422 \$1 \$2;
#X obj 85 12 inlet;
#X obj 206 452 outlet;
#X connect 0 0 5 0;
#X connect 1 0 15 0;
#X connect 2 0 3 0;
#X connect 3 0 4 0;
#X connect 3 0 14 0;
#X connect 4 0 3 1;
#X connect 5 0 1 0;
#X connect 5 1 6 0;
#X connect 6 0 3 1;
#X connect 7 0 0 0;
#X connect 7 1 10 1;
#X connect 7 1 16 1;
#X connect 8 1 13 0;
#X connect 9 0 10 0;
#X connect 9 1 8 1;
#X connect 9 1 17 1;
#X connect 10 0 8 0;
#X connect 11 0 18 0;
#X connect 12 1 11 0;
#X connect 13 0 12 0;
#X connect 14 0 9 0;
#X connect 15 0 2 0;
#X connect 16 0 19 0;
#X connect 17 0 19 1;
#X connect 18 0 16 0;
#X connect 18 1 17 0;
#X connect 19 1 20 0;
#X connect 20 0 22 0;
#X connect 21 0 7 0;
#X coords 0 -1 1 1 144 33 1 100 100;
#X restore 66 157 pd find_changed_pairs;
#N canvas 715 90 432 782 get_changed_rows 0;
#X obj 83 57 inlet list;
#X obj 116 306 unpack f f;
#X floatatom 117 349 5 0 0 0 - - -, f 5;
#X floatatom 174 350 5 0 0 0 - - -, f 5;
#X floatatom 82 207 5 0 0 0 - - -, f 5;
#X obj 82 227 bng 15 250 50 0 empty empty float -4 23 1 12 -262144
-1 -1;
#X obj 145 225 bng 15 250 50 0 empty empty undefined -18 23 1 12 -262144
-1 -1;
#X msg 83 160 \$2;
#X obj 82 183 route float;
#X msg 338 291 \$1;
#X obj 83 106 t a a;
#X obj 80 265 list;
#X floatatom 338 313 5 0 0 0 - - -, f 5;
#X obj 339 269 list;
#X obj 115 684 outlet;
#X floatatom 117 424 5 0 0 0 - - -, f 5;
#X obj 117 370 t f f;
#X obj 117 467 until;
#X obj 117 489 f;
#X obj 149 488 + 1;
#X msg 159 467 0;
#X floatatom 117 511 5 0 0 0 - - -, f 5;
#X obj 117 536 +;
#X obj 117 397 expr $f2 - $f1 + 1;
#X obj 117 560 list prepend;
#X obj 201 559 list;
#X obj 96 586 list;
#X obj 98 444 t b f b;
#X connect 0 0 10 0;
#X connect 1 0 2 0;
#X connect 1 1 3 0;
#X connect 2 0 16 0;
#X connect 3 0 23 1;
#X connect 4 0 5 0;
#X connect 5 0 11 0;
#X connect 6 0 13 0;
#X connect 7 0 8 0;
#X connect 8 0 4 0;
#X connect 8 1 6 0;
#X connect 9 0 12 0;
#X connect 10 0 7 0;
#X connect 10 1 11 1;
#X connect 10 1 13 1;
#X connect 11 0 1 0;
#X connect 12 0 14 0;
#X connect 13 0 9 0;
#X connect 15 0 27 0;
#X connect 16 0 23 0;
#X connect 16 1 22 1;
#X connect 17 0 18 0;
#X connect 18 0 19 0;
#X connect 18 0 21 0;
#X connect 19 0 18 1;
#X connect 20 0 18 1;
#X connect 21 0 22 0;
#X connect 22 0 24 0;
#X connect 23 0 15 0;
#X connect 24 0 25 0;
#X connect 24 0 26 1;
#X connect 25 0 24 1;
#X connect 26 0 14 0;
#X connect 27 0 26 0;
#X connect 27 1 17 0;
#X connect 27 2 20 0;
#X connect 27 2 24 1;
#X coords 0 -1 1 1 127 36 1 100 100;
#X restore 222 156 pd get_changed_rows;
#N canvas 663 192 354 451 iterate_pairs_and_rows 0;
#X obj 88 34 inlet pair;
#X obj 208 33 inlet rows;
#X obj 187 104 list;
#X obj 187 230 list split 1;
#X obj 187 174 until;
#X obj 187 202 list append;
#X obj 187 146 t b l;
#X obj 235 146 bang;
#X obj 89 156 t b l;
#X obj 111 382 outlet;
#X obj 112 350 pack f s f;
#X obj 110 270 t s;
#X msg 163 298 \$2;
#X connect 0 0 8 0;
#X connect 1 0 2 1;
#X connect 2 0 6 0;
#X connect 3 0 10 0;
#X connect 3 1 5 1;
#X connect 3 2 7 0;
#X connect 4 0 5 0;
#X connect 5 0 3 0;
#X connect 6 0 4 0;
#X connect 6 1 5 1;
#X connect 7 0 4 1;
#X connect 8 0 2 0;
#X connect 8 1 11 0;
#X connect 8 1 12 0;
#X connect 10 0 9 0;
#X connect 11 0 10 1;
#X connect 12 0 10 2;
#X coords 0 -1 1 1 163 26 1 100 100;
#X restore 66 203 pd iterate_pairs_and_rows;
#N canvas 184 372 435 413 change-row 0;
#X obj 87 37 inlet values;
#X obj 122 199 text search \$0-settings_matrix 10 11;
#X msg 122 175 list row \$1;
#X obj 154 248 text get \$0-settings_matrix;
#X obj 121 223 sel -1;
#N canvas 729 302 298 485 index_symbol_in_list 0;
#X obj 96 140 list length;
#X obj 96 162 until;
#X obj 96 184 f;
#X msg 136 162 0;
#X obj 79 111 t b l l b;
#X obj 96 226 list;
#X obj 96 247 list split;
#X floatatom 185 164 5 0 0 0 - - -, f 5;
#X obj 127 184 + 1;
#X obj 96 206 t b f;
#X obj 124 272 list split 1;
#X obj 124 294 sel;
#X obj 123 316 f;
#X floatatom 123 338 5 0 0 0 - - -, f 5;
#X obj 70 362 f;
#X msg 86 339 -1;
#X obj 70 405 outlet;
#X obj 79 28 inlet list;
#X obj 160 28 inlet symbol;
#X connect 0 0 1 0;
#X connect 0 0 7 0;
#X connect 1 0 2 0;
#X connect 2 0 8 0;
#X connect 2 0 9 0;
#X connect 3 0 2 1;
#X connect 4 0 14 0;
#X connect 4 1 0 0;
#X connect 4 2 5 1;
#X connect 4 3 3 0;
#X connect 4 3 15 0;
#X connect 5 0 6 0;
#X connect 6 1 10 0;
#X connect 8 0 2 1;
#X connect 9 0 5 0;
#X connect 9 1 6 1;
#X connect 9 1 12 1;
#X connect 10 0 11 0;
#X connect 11 0 12 0;
#X connect 12 0 13 0;
#X connect 13 0 14 1;
#X connect 14 0 16 0;
#X connect 15 0 14 1;
#X connect 17 0 4 0;
#X connect 18 0 11 1;
#X restore 154 291 pd index_symbol_in_list;
#X obj 87 105 t l l l;
#X msg 289 268 symbol \$2;
#X obj 154 315 + 1;
#X obj 87 347 text set \$0-settings_matrix;
#X msg 122 149 \$1;
#X msg 87 151 \$3;
#X obj 87 291 spigot;
#X msg 121 245 0;
#X msg 121 266 1;
#X connect 0 0 6 0;
#X connect 1 0 4 0;
#X connect 2 0 1 0;
#X connect 3 0 5 0;
#X connect 4 0 13 0;
#X connect 4 1 3 0;
#X connect 4 1 14 0;
#X connect 5 0 8 0;
#X connect 6 0 11 0;
#X connect 6 1 10 0;
#X connect 6 2 7 0;
#X connect 7 0 5 1;
#X connect 8 0 9 2;
#X connect 10 0 2 0;
#X connect 10 0 9 1;
#X connect 11 0 12 0;
#X connect 12 0 9 0;
#X connect 13 0 12 1;
#X connect 14 0 12 1;
#X coords 0 -1 1 1 124 32 1 100 100;
#X restore 66 241 pd change-row;
#X obj 255 258 outlet changed_rows;
#X connect 0 0 1 0;
#X connect 1 0 2 0;
#X connect 2 0 3 0;
#X connect 2 1 4 0;
#X connect 3 0 5 0;
#X connect 4 0 5 1;
#X connect 4 0 7 0;
#X connect 5 0 6 0;
#X coords 0 -1 1 1 98 30 1 226 69;
#X restore 186 122 pd change;
#X obj 71 71 route clear clear_memory change refresh;
#X obj 284 569 outlet to_gui;
#N canvas 359 357 452 499 outlet_to_gui 0;
#X obj 136 64 inlet trigger;
#X obj 192 273 until;
#X obj 192 295 list append;
#X obj 261 339 bang;
#X obj 192 242 t b l b;
#X obj 135 195 text get \$0-settings_matrix;
#X obj 135 104 bng 15 250 50 0 empty empty empty 17 7 0 10 -262144
-1 -1;
#X obj 135 124 t b b;
#X obj 135 146 until;
#X obj 135 168 f;
#X obj 166 168 + 1;
#X msg 174 146 0;
#X obj 134 219 route bang;
#X obj 192 317 list split 2;
#X obj 192 444 outlet;
#X obj 192 398 list trim;
#X connect 0 0 6 0;
#X connect 1 0 2 0;
#X connect 2 0 13 0;
#X connect 3 0 1 1;
#X connect 4 0 1 0;
#X connect 4 1 2 1;
#X connect 5 0 12 0;
#X connect 6 0 7 0;
#X connect 6 0 11 0;
#X connect 7 0 8 0;
#X connect 8 0 9 0;
#X connect 9 0 10 0;
#X connect 9 0 5 0;
#X connect 10 0 9 1;
#X connect 11 0 9 1;
#X connect 12 0 8 1;
#X connect 12 1 4 0;
#X connect 13 0 15 0;
#X connect 13 1 2 1;
#X connect 13 2 3 0;
#X connect 15 0 14 0;
#X coords 0 -1 1 1 122 31 1 267 94;
#X restore 283 348 pd outlet_to_gui;
#N canvas 359 357 452 499 outlet_to_metro 0;
#X obj 136 64 inlet trigger;
#X obj 192 273 until;
#X obj 192 295 list append;
#X obj 261 339 bang;
#X obj 192 242 t b l b;
#X obj 135 104 bng 15 250 50 0 empty empty empty 17 7 0 10 -262144
-1 -1;
#X obj 135 124 t b b;
#X obj 135 146 until;
#X obj 135 168 f;
#X obj 166 168 + 1;
#X msg 174 146 0;
#X obj 134 219 route bang;
#X obj 192 317 list split 2;
#X obj 192 444 outlet;
#X obj 191 417 list trim;
#X obj 135 195 text get \$0-settings_metro;
#X obj 191 376 list prepend metro;
#X connect 0 0 5 0;
#X connect 1 0 2 0;
#X connect 2 0 12 0;
#X connect 3 0 1 1;
#X connect 4 0 1 0;
#X connect 4 1 2 1;
#X connect 5 0 6 0;
#X connect 5 0 10 0;
#X connect 6 0 7 0;
#X connect 7 0 8 0;
#X connect 8 0 9 0;
#X connect 8 0 15 0;
#X connect 9 0 8 1;
#X connect 10 0 8 1;
#X connect 11 0 7 1;
#X connect 11 1 4 0;
#X connect 12 0 16 0;
#X connect 12 1 2 1;
#X connect 12 2 3 0;
#X connect 14 0 13 0;
#X connect 15 0 11 0;
#X connect 16 0 14 0;
#X coords 0 -1 1 1 122 31 1 267 94;
#X restore 298 395 pd outlet_to_metro;
#N canvas 359 357 452 499 outlet_to_msf 0;
#X obj 136 64 inlet trigger;
#X obj 192 273 until;
#X obj 192 295 list append;
#X obj 261 339 bang;
#X obj 192 242 t b l b;
#X obj 135 104 bng 15 250 50 0 empty empty empty 17 7 0 10 -262144
-1 -1;
#X obj 135 124 t b b;
#X obj 135 146 until;
#X obj 135 168 f;
#X obj 166 168 + 1;
#X msg 174 146 0;
#X obj 134 219 route bang;
#X obj 192 317 list split 2;
#X obj 192 444 outlet;
#X obj 192 398 list trim;
#X obj 135 195 text get \$0-settings_msf;
#X obj 192 372 list prepend msf;
#X connect 0 0 5 0;
#X connect 1 0 2 0;
#X connect 2 0 12 0;
#X connect 3 0 1 1;
#X connect 4 0 1 0;
#X connect 4 1 2 1;
#X connect 5 0 6 0;
#X connect 5 0 10 0;
#X connect 6 0 7 0;
#X connect 7 0 8 0;
#X connect 8 0 9 0;
#X connect 8 0 15 0;
#X connect 9 0 8 1;
#X connect 10 0 8 1;
#X connect 11 0 7 1;
#X connect 11 1 4 0;
#X connect 12 0 16 0;
#X connect 12 1 2 1;
#X connect 12 2 3 0;
#X connect 14 0 13 0;
#X connect 15 0 11 0;
#X connect 16 0 14 0;
#X coords 0 -1 1 1 122 31 1 267 94;
#X restore 318 449 pd outlet_to_msf;
#X msg 336 511 clear;
#X obj 267 266 t b b b b b;
#X connect 0 0 13 0;
#X connect 4 0 5 0;
#X connect 4 0 3 0;
#X connect 4 0 8 0;
#X connect 9 0 7 0;
#X connect 9 1 10 0;
#X connect 9 2 11 0;
#X connect 12 0 1 1;
#X connect 13 0 4 0;
#X connect 13 2 12 0;
#X connect 13 3 19 0;
#X connect 13 4 9 0;
#X connect 15 0 14 0;
#X connect 16 0 2 0;
#X connect 17 0 14 0;
#X connect 18 0 14 0;
#X connect 19 0 1 0;
#X connect 19 1 15 0;
#X connect 19 2 16 0;
#X connect 19 3 17 0;
#X connect 19 4 18 0;
#X restore 63 396 pd memorize_messages;
#N canvas 148 386 668 354 get_overall_settings 0;
#X obj 266 156 nbx 5 14 2 1e+037 0 0 \$0-height empty height 0 -8 0
10 -262144 -1 -1 16 256 0;
#X obj 394 156 nbx 5 14 0 1e+037 0 0 \$0-dist_x empty dist_x 0 -8 0
10 -262144 -1 -1 5 256 0;
#X obj 181 156 nbx 5 14 10 1e+037 0 0 \$0-width_q empty width_quarter
0 -8 0 10 -262144 -1 -1 72 256 0;
#X obj 117 156 nbx 5 14 1 16 1 0 \$0-beats empty beats 0 -8 0 10 -262144
-1 -1 4 256 0;
#X obj 330 156 nbx 5 14 0 1e+037 0 0 \$0-padding empty padding 0 -8
0 10 -262144 -1 -1 3 256 0;
#X obj 458 156 nbx 5 14 0 1e+037 0 1 \$0-dist_y empty dist_y 0 -8 0
10 -262144 -1 -1 0 256 0;
#X obj 116 89 route beats width height padding dist_x dist_y, f 51
;
#X obj 116 57 inlet;
#X obj 272 246 route msf metro;
#X obj 165 298 outlet to_matrix;
#X obj 270 298 outlet to_msf;
#X obj 357 298 outlet to_metro;
#X connect 6 0 3 0;
#X connect 6 1 2 0;
#X connect 6 2 0 0;
#X connect 6 3 4 0;
#X connect 6 4 1 0;
#X connect 6 5 5 0;
#X connect 6 6 8 0;
#X connect 7 0 6 0;
#X connect 8 0 10 0;
#X connect 8 1 11 0;
#X connect 8 2 9 0;
#X restore 188 497 pd get_overall_settings;
#N canvas 820 43 935 957 create_gui 0;
#X obj 328 398 pointer;
#X obj 152 243 bng 15 250 50 0 empty empty empty 17 7 0 10 -262144
-1 -1;
#X obj 316 105 nbx 3 14 0 1e+037 0 0 \$0-col empty col 0 -8 0 10 -262144
-1 -1 999 256 0;
#X obj 374 105 nbx 3 14 0 1e+037 0 0 \$0-col2 empty col2 0 -8 0 10
-262144 -1 -1 0 256 0;
#X obj 426 105 nbx 3 14 1 1e+037 0 0 empty empty line 0 -8 0 10 -262144
-1 -1 1 256 0;
#X obj 152 287 t b b b b;
#N canvas 79 392 450 300 until_loop 0;
#X obj 137 82 until;
#X obj 137 104 f;
#X obj 165 105 + 1;
#X msg 179 79 0;
#X obj 136 27 inlet;
#X obj 136 49 t f b;
#X obj 140 184 outlet;
#X connect 0 0 1 0;
#X connect 1 0 2 0;
#X connect 1 0 6 0;
#X connect 2 0 1 1;
#X connect 3 0 1 1;
#X connect 4 0 5 0;
#X connect 5 0 0 0;
#X connect 5 1 3 0;
#X restore 152 362 pd until_loop;
#X obj 140 -3 inlet;
#X obj 213 105 nbx 5 14 10 1e+037 0 0 empty empty width_quarter 0 -8
0 10 -262144 -1 -1 72 256 0;
#X obj 105 105 nbx 5 14 1 16 0 0 empty empty microtiming 0 -8 0 10
-262144 -1 -1 4 256 0;
#X obj 34 105 nbx 5 14 1 16 0 0 empty empty beats 0 -8 0 10 -262144
-1 -1 4 256 0;
#X floatatom 213 160 5 0 0 2 width - -, f 5;
#X obj 213 130 /;
#X obj 115 126 t b f;
#X floatatom 105 284 5 0 0 2 amount - -, f 5;
#X obj 152 314 f;
#X obj 152 435 f;
#X obj 152 384 t b f;
#X obj 152 587 t 0 f;
#X obj 92 420 % 4;
#X obj 181 435 +;
#X obj 152 336 t f b;
#X msg 192 384 0;
#X obj 175 487 f;
#X obj 152 514 +;
#X obj 207 486 +;
#X obj 222 463 r \$0-dist_x;
#X obj 92 442 sel 0;
#X obj 152 564 +;
#X obj 426 132 / 2;
#X obj 426 156 + 0.5;
#X obj 213 183 s \$0-width;
#X obj 182 789 r \$0-width;
#X obj 201 409 r \$0-width;
#X obj 307 766 r \$0-col;
#X obj 38 789 r \$0-col2;
#X obj 102 788 r \$0-line;
#X obj 469 154 s \$0-line;
#X obj 426 180 s \$0-line2;
#X obj 180 544 r \$0-line2;
#X obj 106 245 * 4;
#X msg 327 373 traverse pd-\$0-gui \, bang;
#X floatatom 531 645 8 0 0 0 - - -, f 8;
#X floatatom 239 436 5 0 0 0 - - -, f 5;
#X obj 531 666 +;
#X obj 517 714 f;
#X obj 561 727 f;
#X obj 584 861 pack f f;
#X obj 517 603 t b b;
#X obj 591 647 r \$0-height;
#X obj 228 766 r \$0-height;
#X obj 582 881 outlet size;
#X obj 494 105 nbx 3 14 0 1e+037 0 0 empty empty col_clicked 0 -8 0
10 -262144 -1 -1 333 256 0;
#X obj 495 129 s \$0-col_clicked;
#X obj 314 199 nbx 2 14 -1e+037 1e+037 0 0 empty empty row 0 -8 0 10
-262144 -1 -1 14 256 0;
#X obj 509 320 f;
#X obj 509 342 *;
#X obj 525 298 r \$0-height;
#X obj 537 320 f;
#X obj 537 342 f;
#X obj 567 323 r \$0-line2;
#X obj 509 364 +;
#X floatatom 509 481 5 0 0 0 y - -, f 5;
#X obj 152 263 t b b b;
#X obj 576 673 +;
#X obj 509 386 +;
#X obj 553 368 f;
#X obj 581 368 f;
#X obj 569 346 r \$0-dist_y;
#X obj 553 390 *;
#X obj 509 275 t b b b;
#X obj 328 789 r \$0-col_clicked;
#X obj 195 586 r \$0-col;
#X obj 509 502 s \$0-y;
#X obj 159 766 r \$0-y;
#X obj 577 612 r \$0-y;
#X obj 152 615 pack f f f;
#X obj 151 643 unpack f f f;
#X obj 314 216 t b f;
#X obj 341 237 s \$0-rowA;
#X obj 253 789 r \$0-rowA;
#X obj 601 297 r \$0-rowA;
#X obj 645 346 r \$0-rowA;
#X floatatom 620 567 5 0 0 0 seitenabstand - -, f 5;
#X obj 517 735 +;
#X obj 201 677 +;
#X obj 584 755 t b f;
#X obj 584 799 f;
#X obj 584 777 delay 10;
#X obj 620 546 / 2;
#X obj 585 391 r \$0-heightm;
#X obj 509 408 +;
#X obj 509 430 +;
#X obj 509 452 +;
#X obj 538 435 r \$0-padding;
#X obj 576 701 +;
#X obj 608 670 r \$0-padding;
#X obj 608 692 * 1;
#X obj 152 536 +;
#X obj 184 516 r \$0-padding;
#X obj 531 688 +;
#X obj 696 907 outlet pointer_list;
#X obj 9 875 list prepend;
#X obj 94 875 list;
#X obj 79 850 r \$0-clear;
#X obj 643 105 nbx 4 14 0 1e+037 0 0 \$0-col_mute empty col_mute 0
-8 0 10 -262144 -1 -1 666 256 0;
#X obj 713 105 nbx 4 14 0 1e+037 0 0 \$0-col_solo empty col_solo 0
-8 0 10 -262144 -1 -1 811 256 0;
#X obj 372 766 r \$0-col_mute;
#X obj 434 789 r \$0-col_solo;
#X obj 9 810 append \$0-toggle col col2 line x y w h row col_n col_cl
col_mute col_solo col2_n column, f 88;
#X obj 461 766 r \$0-col2;
#X obj 32 74 r \$0-beats;
#X obj 620 523 r \$0-width_q;
#X obj 213 76 r \$0-width_q;
#X obj 139 31 route micro col col2 line col_cl col_mute col_solo row
, f 56;
#X obj 538 412 r \$0-dist_metro;
#X connect 0 0 109 14;
#X connect 1 0 63 0;
#X connect 4 0 29 0;
#X connect 4 0 37 0;
#X connect 5 0 15 0;
#X connect 5 2 41 0;
#X connect 6 0 17 0;
#X connect 7 0 114 0;
#X connect 8 0 12 0;
#X connect 9 0 13 0;
#X connect 9 0 19 1;
#X connect 10 0 40 0;
#X connect 11 0 31 0;
#X connect 12 0 11 0;
#X connect 13 0 8 0;
#X connect 13 0 10 0;
#X connect 13 1 12 1;
#X connect 13 1 40 1;
#X connect 14 0 15 1;
#X connect 15 0 21 0;
#X connect 16 0 20 0;
#X connect 16 0 24 0;
#X connect 17 0 16 0;
#X connect 17 1 19 0;
#X connect 17 1 109 13;
#X connect 18 0 76 0;
#X connect 18 1 76 2;
#X connect 19 0 27 0;
#X connect 20 0 16 1;
#X connect 21 0 6 0;
#X connect 21 1 22 0;
#X connect 22 0 16 1;
#X connect 22 0 23 1;
#X connect 23 0 25 0;
#X connect 23 0 24 1;
#X connect 24 0 98 0;
#X connect 25 0 23 1;
#X connect 26 0 25 1;
#X connect 27 0 23 0;
#X connect 28 0 18 0;
#X connect 28 0 42 0;
#X connect 29 0 30 0;
#X connect 30 0 38 0;
#X connect 32 0 109 5;
#X connect 33 0 20 1;
#X connect 33 0 43 0;
#X connect 34 0 109 8;
#X connect 35 0 109 1;
#X connect 36 0 109 2;
#X connect 39 0 28 1;
#X connect 40 0 14 0;
#X connect 41 0 0 0;
#X connect 42 0 44 0;
#X connect 43 0 44 1;
#X connect 44 0 100 0;
#X connect 45 0 84 0;
#X connect 46 0 47 1;
#X connect 47 0 51 0;
#X connect 48 0 45 0;
#X connect 48 1 46 0;
#X connect 49 0 64 1;
#X connect 50 0 109 6;
#X connect 52 0 53 0;
#X connect 54 0 78 0;
#X connect 55 0 56 0;
#X connect 56 0 61 0;
#X connect 57 0 55 1;
#X connect 58 0 56 1;
#X connect 59 0 61 1;
#X connect 60 0 59 1;
#X connect 61 0 65 0;
#X connect 62 0 73 0;
#X connect 63 0 48 0;
#X connect 63 1 5 0;
#X connect 63 2 70 0;
#X connect 64 0 95 0;
#X connect 65 0 91 0;
#X connect 66 0 69 0;
#X connect 67 0 69 1;
#X connect 68 0 66 1;
#X connect 69 0 65 1;
#X connect 70 0 55 0;
#X connect 70 1 58 0;
#X connect 70 1 59 0;
#X connect 70 1 66 0;
#X connect 70 2 67 0;
#X connect 71 0 109 9;
#X connect 72 0 76 1;
#X connect 74 0 109 4;
#X connect 75 0 64 0;
#X connect 76 0 77 0;
#X connect 77 1 109 0;
#X connect 77 2 85 0;
#X connect 78 0 1 0;
#X connect 78 1 79 0;
#X connect 80 0 109 7;
#X connect 81 0 58 1;
#X connect 82 0 67 1;
#X connect 83 0 85 1;
#X connect 83 0 84 1;
#X connect 84 0 86 0;
#X connect 85 0 109 3;
#X connect 86 0 88 0;
#X connect 86 1 87 1;
#X connect 87 0 47 0;
#X connect 88 0 87 0;
#X connect 89 0 83 0;
#X connect 90 0 91 1;
#X connect 91 0 92 0;
#X connect 92 0 93 0;
#X connect 93 0 62 0;
#X connect 94 0 93 1;
#X connect 95 0 46 1;
#X connect 96 0 97 0;
#X connect 96 0 100 1;
#X connect 97 0 95 1;
#X connect 98 0 28 0;
#X connect 99 0 98 1;
#X connect 100 0 45 1;
#X connect 102 0 103 0;
#X connect 102 0 101 0;
#X connect 103 0 102 1;
#X connect 104 0 102 1;
#X connect 107 0 109 10;
#X connect 108 0 109 11;
#X connect 109 0 102 0;
#X connect 110 0 109 12;
#X connect 111 0 10 0;
#X connect 112 0 89 0;
#X connect 113 0 8 0;
#X connect 114 0 9 0;
#X connect 114 1 2 0;
#X connect 114 2 3 0;
#X connect 114 3 4 0;
#X connect 114 4 52 0;
#X connect 114 5 105 0;
#X connect 114 6 106 0;
#X connect 114 7 54 0;
#X connect 115 0 92 1;
#X coords 0 0 1 1 94 60 0;
#X restore 42 587 pd create_gui;
#N canvas 2632 486 758 467 create_smf 0;
#X obj 406 79 filledpolygon col col2 line 0 0 w 0 w h 0 h;
#X obj 332 114 route change click;
#X obj 152 33 inlet settings;
#X obj 151 158 array define \$0-mute 40;
#X obj 151 186 array define \$0-solo 40;
#X obj 151 214 array define \$0-full_length 40;
#N canvas 74 548 334 253 keep_size 0;
#X obj 66 22 inlet;
#X obj 66 125 f;
#X obj 101 126 f;
#X obj 66 153 set \$0-sm w h;
#X obj 66 59 t b b p;
#X floatatom 81 104 5 0 0 0 - - -, f 5;
#X floatatom 151 104 5 0 0 0 - - -, f 5;
#X obj 81 82 r \$0-width_smf;
#X obj 178 80 r \$0-height_smf;
#X connect 0 0 4 0;
#X connect 1 0 3 0;
#X connect 2 0 3 1;
#X connect 4 0 1 0;
#X connect 4 1 2 0;
#X connect 4 2 3 2;
#X connect 5 0 1 1;
#X connect 6 0 2 1;
#X connect 7 0 5 0;
#X connect 8 0 6 0;
#X restore 332 144 pd keep_size;
#N canvas 2828 187 848 579 set_color_and_arrays 0;
#X floatatom 80 141 5 0 0 0 - - -, f 5;
#X floatatom 161 143 5 0 0 0 - - -, f 5;
#X floatatom 240 143 5 0 0 0 - - -, f 5;
#X obj 80 165 expr if($f1 == $f2 \, $f3 \, $f2);
#X obj 81 242 set \$0-sm col;
#X obj 42 66 t p p;
#X obj 42 23 inlet;
#X floatatom 332 137 5 0 0 0 - - -, f 5;
#X obj 80 187 t f f;
#X floatatom 217 217 5 0 0 0 - - -, f 5;
#X obj 217 238 ==;
#X floatatom 217 260 5 0 0 0 - - -, f 5;
#X obj 328 318 array set;
#X obj 379 273 mux . . .;
#X obj 332 158 t b f, f 6;
#X msg 379 207 symbol \$0-mute;
#X msg 396 227 symbol \$0-solo;
#X msg 413 250 symbol \$0-full_length;
#X obj 80 108 get \$0-sm col col_on col_off mode nr;
#X floatatom 390 137 5 0 0 0 - - -, f 5;
#N canvas 1256 280 402 313 set_soloed 0;
#X obj 74 38 inlet value;
#X obj 168 37 inlet mode;
#X floatatom 168 59 5 0 0 0 - - -, f 5;
#X floatatom 74 60 5 0 0 0 - - -, f 5;
#X obj 74 118 spigot;
#X obj 112 89 == 1;
#X obj 74 140 sel 1 0;
#X obj 74 198 t f b;
#X obj 74 233 +;
#X msg 74 162 1;
#X msg 105 162 -1;
#X obj 104 219 v \$0-amount_solo;
#X obj 74 259 v \$0-amount_solo;
#X obj 186 258 s \$0-amount_solo;
#X connect 0 0 3 0;
#X connect 1 0 2 0;
#X connect 2 0 5 0;
#X connect 3 0 4 0;
#X connect 4 0 6 0;
#X connect 5 0 4 1;
#X connect 6 0 9 0;
#X connect 6 1 10 0;
#X connect 7 0 8 0;
#X connect 7 1 11 0;
#X connect 8 0 12 0;
#X connect 8 0 13 0;
#X connect 9 0 7 0;
#X connect 10 0 7 0;
#X connect 11 0 8 1;
#X restore 217 317 pd set_soloed;
#X obj 217 281 t f f f;
#X obj 144 320 t b;
#X floatatom 144 368 5 0 0 0 - - -, f 5;
#X obj 144 346 v \$0-amount_solo;
#X obj 521 372 s \$0-mute;
#X msg 522 322 set \$1;
#X floatatom 522 344 5 0 0 0 - - -, f 5;
#X obj 493 322 t b;
#X obj 693 339 s \$0-full_length;
#X floatatom 759 271 5 0 0 0 - - -, f 5;
#X floatatom 694 242 5 0 0 0 - - -, f 5;
#X floatatom 739 241 5 0 0 0 - - -, f 5;
#X obj 694 270 pack f f;
#X obj 694 293 spigot;
#X obj 759 292 == 2;
#X msg 694 315 \$2 \$1;
#X connect 0 0 3 0;
#X connect 1 0 3 1;
#X connect 2 0 3 2;
#X connect 3 0 8 0;
#X connect 5 0 18 0;
#X connect 5 1 4 1;
#X connect 6 0 5 0;
#X connect 7 0 14 0;
#X connect 7 0 30 0;
#X connect 8 0 4 0;
#X connect 8 1 9 0;
#X connect 9 0 10 0;
#X connect 10 0 11 0;
#X connect 11 0 21 0;
#X connect 11 0 28 0;
#X connect 11 0 31 0;
#X connect 13 0 12 2;
#X connect 14 0 15 0;
#X connect 14 0 17 0;
#X connect 14 0 16 0;
#X connect 14 1 13 3;
#X connect 14 1 20 1;
#X connect 15 0 13 0;
#X connect 16 0 13 1;
#X connect 17 0 13 2;
#X connect 18 0 0 0;
#X connect 18 1 1 0;
#X connect 18 1 10 1;
#X connect 18 2 2 0;
#X connect 18 3 7 0;
#X connect 18 4 19 0;
#X connect 19 0 12 1;
#X connect 19 0 26 0;
#X connect 19 0 32 0;
#X connect 21 0 22 0;
#X connect 21 1 20 0;
#X connect 21 2 12 0;
#X connect 22 0 24 0;
#X connect 24 0 23 0;
#X connect 26 0 27 0;
#X connect 27 0 25 0;
#X connect 28 0 27 0;
#X connect 30 0 35 0;
#X connect 31 0 33 0;
#X connect 32 0 33 1;
#X connect 33 0 34 0;
#X connect 34 0 36 0;
#X connect 35 0 34 1;
#X connect 36 0 29 0;
#X restore 385 171 pd set_color_and_arrays;
#X obj 332 39 struct \$0-sm float x float y float w float h float col
float col2 float col_off float col_on float mode float line float nr
, f 62;
#X obj 151 242 v \$0-amount_solo;
#X msg 37 156 const 0;
#X obj 37 132 r \$0-clear;
#X msg 39 184 0;
#N canvas 973 267 804 557 create_smf 0;
#X obj 58 30 inlet;
#N canvas 316 159 1419 757 create_mute 0;
#X msg 1085 339 traverse pd-\$0-gui \, bang;
#X obj 480 233 r \$0-height;
#X obj 322 49 r \$0-y;
#X obj 1085 312 r \$0-clear;
#X obj 82 130 / 3;
#X obj 448 385 *;
#X obj 448 407 / 100;
#X floatatom 535 55 5 0 0 0 - - -, f 5;
#X obj 82 108 / 2;
#X floatatom 317 370 5 0 0 0 - - -, f 5;
#X msg 256 343 set \$1;
#X obj 43 240 +;
#X floatatom 82 216 5 0 0 0 - - -, f 5;
#X floatatom 82 156 5 0 0 0 - - -, f 5;
#X obj 535 21 inlet percent;
#X obj 43 212 * 0;
#X obj 344 319 +;
#X floatatom 451 317 5 0 0 0 - - -, f 5;
#X obj 470 283 expr (100 - $f2) * $f1 / 100 / 2;
#X floatatom 486 408 5 0 0 0 - - -, f 5;
#X obj 487 383 expr $f1 * $f2 / 100;
#X obj 82 192 expr (100 - $f2) * $f1 / 100 / 2;
#X floatatom 858 131 5 0 0 0 - - -, f 5;
#X floatatom 895 131 5 0 0 0 - - -, f 5;
#X floatatom 932 131 5 0 0 0 - - -, f 5;
#X floatatom 1010 198 5 0 0 0 - - -, f 5;
#X obj 494 675 s \$0-width_smf;
#X obj 495 694 s \$0-height_smf;
#X obj 317 391 +;
#X obj 178 367 r \$0-padding;
#X obj 318 628 append \$0-sm x y w h col col2 line col_off col_on mode
nr;
#X obj 625 588 f;
#X obj 652 588 + 1;
#X obj 643 541 r \$0-clear;
#X msg 643 563 0;
#X obj 1085 366 pointer;
#X obj 857 56 inlet col;
#X obj 921 56 inlet col2;
#X obj 1061 56 inlet col_mute;
#X obj 991 56 inlet line;
#X obj 82 86 r \$0-width_q;
#X obj 466 257 f;
#X obj 318 251 t b f b;
#X obj 447 362 f;
#X obj 1151 56 inlet col_solo;
#X obj 1241 56 inlet col_full;
#X floatatom 1047 198 5 0 0 0 - - -, f 5;
#X floatatom 1084 198 5 0 0 0 - - -, f 5;
#X obj 1011 255 mux . . .;
#X floatatom 1085 227 5 0 0 0 - - -, f 5;
#X obj 1011 164 t b f;
#X obj 1011 143 r \$0-mode;
#X msg 322 96 3;
#X obj 322 118 until;
#X obj 322 140 f;
#X obj 349 140 + 1;
#X msg 361 119 0;
#X obj 349 193 s \$0-mode;
#X obj 322 194 f;
#X obj 322 162 t b f;
#X obj 18 154 r \$0-mode;
#X obj 110 130 r \$0-create_bng;
#X obj 373 92 s \$0-create_bng;
#X obj 322 71 t b b f b;
#X obj 448 337 r \$0-create_bng;
#X obj 463 213 r \$0-create_bng;
#X obj 535 76 s \$0-perc;
#X obj 479 360 r \$0-perc;
#X obj 658 260 r \$0-perc;
#X obj 591 345 r \$0-perc;
#X obj 242 162 r \$0-perc;
#X obj 618 518 r \$0-create_bng;
#X obj 604 497 r \$0-mode;
#X connect 0 0 35 0;
#X connect 1 0 41 1;
#X connect 2 0 63 0;
#X connect 3 0 0 0;
#X connect 4 0 13 0;
#X connect 5 0 6 0;
#X connect 6 0 26 0;
#X connect 6 0 30 2;
#X connect 7 0 66 0;
#X connect 8 0 4 0;
#X connect 9 0 28 0;
#X connect 10 0 9 0;
#X connect 11 0 10 0;
#X connect 12 0 11 1;
#X connect 13 0 21 0;
#X connect 13 0 43 1;
#X connect 13 0 15 1;
#X connect 14 0 7 0;
#X connect 15 0 11 0;
#X connect 16 0 30 1;
#X connect 18 0 17 0;
#X connect 18 0 16 1;
#X connect 19 0 27 0;
#X connect 19 0 30 3;
#X connect 20 0 19 0;
#X connect 21 0 12 0;
#X connect 22 0 30 4;
#X connect 22 0 30 7;
#X connect 23 0 30 5;
#X connect 24 0 30 6;
#X connect 25 0 48 0;
#X connect 28 0 30 0;
#X connect 29 0 28 1;
#X connect 31 0 32 0;
#X connect 31 0 30 10;
#X connect 32 0 31 1;
#X connect 33 0 34 0;
#X connect 34 0 31 1;
#X connect 35 0 30 11;
#X connect 36 0 22 0;
#X connect 37 0 23 0;
#X connect 38 0 25 0;
#X connect 39 0 24 0;
#X connect 40 0 8 0;
#X connect 41 0 18 0;
#X connect 41 0 20 0;
#X connect 42 0 9 0;
#X connect 42 1 16 0;
#X connect 43 0 5 0;
#X connect 44 0 46 0;
#X connect 45 0 47 0;
#X connect 46 0 48 1;
#X connect 47 0 48 2;
#X connect 48 0 30 8;
#X connect 49 0 48 3;
#X connect 50 0 25 0;
#X connect 50 0 47 0;
#X connect 50 0 46 0;
#X connect 50 1 49 0;
#X connect 51 0 50 0;
#X connect 52 0 53 0;
#X connect 53 0 54 0;
#X connect 54 0 55 0;
#X connect 54 0 59 0;
#X connect 55 0 54 1;
#X connect 56 0 54 1;
#X connect 58 0 42 0;
#X connect 59 0 58 0;
#X connect 59 1 57 0;
#X connect 60 0 15 0;
#X connect 61 0 13 0;
#X connect 63 0 52 0;
#X connect 63 1 56 0;
#X connect 63 2 58 1;
#X connect 63 3 62 0;
#X connect 64 0 43 0;
#X connect 65 0 41 0;
#X connect 67 0 5 1;
#X connect 68 0 18 1;
#X connect 69 0 20 1;
#X connect 70 0 21 1;
#X connect 71 0 31 0;
#X connect 72 0 30 9;
#X restore 68 232 pd create_mute;
#X floatatom 263 150 5 0 0 0 - - -, f 5;
#X obj 58 58 route col col2 line col_mute col_solo col_full percent
;
#X connect 0 0 3 0;
#X connect 2 0 1 0;
#X connect 3 0 1 1;
#X connect 3 1 1 2;
#X connect 3 2 1 3;
#X connect 3 3 1 4;
#X connect 3 4 1 5;
#X connect 3 5 1 6;
#X connect 3 6 2 0;
#X restore 153 65 pd create_smf;
#X connect 1 0 6 0;
#X connect 1 1 7 0;
#X connect 2 0 13 0;
#X connect 8 0 1 0;
#X connect 10 0 3 0;
#X connect 10 0 4 0;
#X connect 10 0 5 0;
#X connect 11 0 10 0;
#X connect 11 0 12 0;
#X connect 12 0 9 0;
#X coords 0 0 1 1 98 34 0;
#X restore 147 587 pd create_smf;
#N canvas 1229 221 565 607 donecanvas 0;
#X text 50 487 [donecanvasdialog <x-units> <y-units> <gop> <x-from>
<y-from> <x-to> <y-to> <x-size> <y-size> <x-margin> <y-margin>( The
gop argument is 0 = gop off \; 1 = gop on \, show arguments \; and
2 = gop on \, hide arguments.;
#X msg 133 304 donecanvasdialog 0 0 2 0 0 \$1 \$2 \$1 \$2 0 0 \, dirty
0;
#X msg 56 325 editmode 0;
#X obj 134 325 s pd-\$0-gui;
#X obj 77 25 inlet size;
#X obj 56 434 s \$0-toggle_matrix;
#X obj 74 405 s \$0-toggle_matrix;
#X obj 56 245 t b a a;
#X obj 133 348 s \$0-gui;
#X msg 75 381 donecanvasdialog 0 0 2 0 0 \$1 \$2 \$1 \$2 0 0 \, dirty
0;
#X obj 164 51 unpack f f;
#X floatatom 164 73 7 0 0 0 - - -, f 7;
#X floatatom 227 75 8 0 0 0 - - -, f 8;
#X obj 56 156 list;
#X obj 164 116 del 10;
#X obj 56 210 list trim;
#N canvas 450 272 298 345 change 0;
#X floatatom 125 102 5 0 0 0 - - -, f 5;
#X obj 140 152 f;
#X obj 125 175 -;
#X obj 93 242 spigot;
#X obj 125 197 abs;
#X obj 125 219 > 0.01;
#X obj 125 123 t f b;
#X obj 93 37 inlet;
#X obj 93 59 t f f;
#X obj 94 293 outlet;
#X obj 93 264 t b;
#X connect 0 0 6 0;
#X connect 1 0 2 1;
#X connect 2 0 4 0;
#X connect 3 0 10 0;
#X connect 4 0 5 0;
#X connect 5 0 3 1;
#X connect 6 0 2 0;
#X connect 6 0 1 1;
#X connect 6 1 1 0;
#X connect 7 0 8 0;
#X connect 8 0 3 0;
#X connect 8 1 0 0;
#X connect 10 0 9 0;
#X restore 164 94 pd change;
#N canvas 450 272 298 345 change 0;
#X floatatom 125 102 5 0 0 0 - - -, f 5;
#X obj 140 152 f;
#X obj 125 175 -;
#X obj 93 242 spigot;
#X obj 125 197 abs;
#X obj 125 219 > 0.01;
#X obj 125 123 t f b;
#X obj 93 37 inlet;
#X obj 93 59 t f f;
#X obj 94 293 outlet;
#X obj 93 264 t b;
#X connect 0 0 6 0;
#X connect 1 0 2 1;
#X connect 2 0 4 0;
#X connect 3 0 10 0;
#X connect 4 0 5 0;
#X connect 5 0 3 1;
#X connect 6 0 2 0;
#X connect 6 0 1 1;
#X connect 6 1 1 0;
#X connect 7 0 8 0;
#X connect 8 0 3 0;
#X connect 8 1 0 0;
#X connect 10 0 9 0;
#X restore 227 94 pd change;
#X obj 30 462 iemguts/sendcanvas 2;
#X obj 293 191 pipe 500;
#X obj 292 214 print;
#X connect 1 0 3 0;
#X connect 2 0 5 0;
#X connect 2 0 18 0;
#X connect 4 0 10 0;
#X connect 4 0 13 1;
#X connect 7 0 2 0;
#X connect 7 1 9 0;
#X connect 7 2 1 0;
#X connect 9 0 6 0;
#X connect 10 0 11 0;
#X connect 10 1 12 0;
#X connect 11 0 16 0;
#X connect 12 0 17 0;
#X connect 13 0 15 0;
#X connect 14 0 13 0;
#X connect 15 0 7 0;
#X connect 16 0 14 0;
#X connect 17 0 14 0;
#X connect 19 0 20 0;
#X coords 0 0 1 1 103 36 0;
#X restore 42 643 pd donecanvas;
#X connect 3 0 22 0;
#X connect 3 0 24 0;
#X connect 8 0 7 0;
#X connect 9 0 8 0;
#X connect 11 0 13 0;
#X connect 11 1 17 0;
#X connect 11 2 17 1;
#X connect 12 0 11 0;
#X connect 12 0 16 1;
#X connect 18 0 5 0;
#X connect 20 0 6 1;
#X connect 21 0 17 2;
#X connect 22 0 4 0;
#X connect 22 0 14 0;
#X connect 22 1 23 0;
#X connect 22 2 10 0;
#X connect 22 2 6 0;
#X connect 22 2 25 0;
#X connect 24 0 22 0;
#X connect 24 1 22 0;
#X connect 25 0 26 0;
#X connect 25 1 27 0;
#X connect 25 2 16 0;
#X connect 26 0 28 0;
#X connect 26 1 19 0;
#X coords 0 0 346 267 346 267 2 0 0;
