#N struct tasteW float col float col2 float str float x float y float
x0 float y0 float x1 float y1 float x2 float y2 float x3 float y3 float
x4 float y4 float x5 float y5 float x6 float y6 float x7 float y7;
#N struct tasteS float x float y float w float h float col float col2
;
#N canvas 227 304 899 610 10;
#N canvas 685 78 1043 200 anzeige 0;
#X scalar tasteW 999 333 1 0 0 0 0 0 60 0 60 0 100 40 100 40 60 31
60 31 0 \;;
#X scalar tasteW 999 333 1 40 0 9 0 9 60 0 60 0 100 40 100 40 60 31
60 31 0 \;;
#X scalar tasteW 999 333 1 80 0 9 0 9 60 0 60 0 100 40 100 40 60 40
60 40 0 \;;
#X scalar tasteW 999 333 1 120 0 0 0 0 60 0 60 0 100 40 100 40 60 31
60 31 0 \;;
#X scalar tasteW 999 333 1 160 0 9 0 9 60 0 60 0 100 40 100 40 60 31
60 31 0 \;;
#X scalar tasteW 999 333 1 200 0 9 0 9 60 0 60 0 100 40 100 40 60 31
60 31 0 \;;
#X scalar tasteW 999 333 1 240 0 9 0 9 60 0 60 0 100 40 100 40 60 40
60 40 0 \;;
#X scalar tasteW 999 333 1 280 0 0 0 0 60 0 60 0 100 40 100 40 60 31
60 31 0 \;;
#X scalar tasteW 999 333 1 320 0 9 0 9 60 0 60 0 100 40 100 40 60 31
60 31 0 \;;
#X scalar tasteW 999 333 1 360 0 9 0 9 60 0 60 0 100 40 100 40 60 40
60 40 0 \;;
#X scalar tasteW 999 333 1 400 0 0 0 0 60 0 60 0 100 40 100 40 60 31
60 31 0 \;;
#X scalar tasteW 999 333 1 440 0 9 0 9 60 0 60 0 100 40 100 40 60 31
60 31 0 \;;
#X scalar tasteW 999 333 1 480 0 9 0 9 60 0 60 0 100 40 100 40 60 31
60 31 0 \;;
#X scalar tasteW 999 333 1 520 0 9 0 9 60 0 60 0 100 40 100 40 60 40
60 40 0 \;;
#X scalar tasteW 999 333 1 560 0 0 0 0 60 0 60 0 100 40 100 40 60 31
60 31 0 \;;
#X scalar tasteW 999 333 1 600 0 9 0 9 60 0 60 0 100 40 100 40 60 31
60 31 0 \;;
#X scalar tasteW 999 333 1 640 0 9 0 9 60 0 60 0 100 40 100 40 60 40
60 40 0 \;;
#X scalar tasteW 999 333 1 680 0 0 0 0 60 0 60 0 100 40 100 40 60 31
60 31 0 \;;
#X scalar tasteW 999 333 1 720 0 9 0 9 60 0 60 0 100 40 100 40 60 31
60 31 0 \;;
#X scalar tasteW 999 333 1 760 0 9 0 9 60 0 60 0 100 40 100 40 60 31
60 31 0 \;;
#X scalar tasteW 999 333 1 800 0 9 0 9 60 0 60 0 100 40 100 40 60 40
60 40 0 \;;
#X scalar tasteS 31 0 18 60 0 0 \;;
#X scalar tasteS 71 0 18 60 0 0 \;;
#X scalar tasteS 151 0 18 60 0 0 \;;
#X scalar tasteS 191 0 18 60 0 0 \;;
#X scalar tasteS 231 0 18 60 0 0 \;;
#X scalar tasteS 311 0 18 60 0 0 \;;
#X scalar tasteS 351 0 18 60 0 0 \;;
#X scalar tasteS 431 0 18 60 0 0 \;;
#X scalar tasteS 471 0 18 60 0 0 \;;
#X scalar tasteS 511 0 18 60 0 0 \;;
#X scalar tasteS 591 0 18 60 0 0 \;;
#X scalar tasteS 631 0 18 60 0 0 \;;
#X scalar tasteS 711 0 18 60 0 0 \;;
#X scalar tasteS 751 0 18 60 0 0 \;;
#X scalar tasteS 791 0 18 60 0 0 \;;
#X coords 0 0 840 100 840 100 2 0 0;
#X restore 0 26 pd anzeige;
#X obj 9 303 bng 15 250 50 0 empty empty empty 17 7 0 10 -262144 -1
-1;
#X obj 397 265 namecanvas my_piano;
#X obj 1 0 cnv 10 838 20 empty \$0-hintergrund empty 20 12 0 14 -257777
-66577 0;
#X obj 9 2 bng 15 250 50 0 empty \$0-refresh refresh 17 5 0 10 -262144
-1 -1;
#X obj 1 20 cnv 5 838 5 empty \$0-hintergrund2 empty 20 12 0 14 -1
-66577 0;
#N canvas 730 259 793 613 gui 0;
#X obj 77 25 inlet bang;
#X obj 93 408 s pd-anzeige;
#X obj 93 238 * 2;
#X obj 93 281 *;
#X floatatom 251 268 5 0 0 0 h - -, f 5;
#X floatatom 94 216 5 0 0 0 w - -, f 5;
#X floatatom 169 245 5 0 0 0 anzahl - -, f 5;
#X obj 169 222 r \$0-anzahl;
#X obj 107 172 r \$0-breite;
#X obj 251 247 r \$0-hoehe;
#X obj 77 71 bng 15 250 50 0 empty empty empty 17 7 0 10 -262144 -1
-1;
#X obj 77 91 t b b b b;
#X floatatom 93 260 5 0 0 0 - - -, f 5;
#X obj 93 313 pack f f;
#X msg 93 335 \$1 \$2;
#X msg 93 386 donecanvasdialog 0 0 2 0 0 \$1 \$2 \$1 \$2 0 0 \, dirty
0;
#X text 249 432 [donecanvasdialog <x-units> <y-units> <gop> <x-from>
<y-from> <x-to> <y-to> <x-size> <y-size> <x-margin> <y-margin>( The
gop argument is 0 = gop off \; 1 = gop on \, show arguments \; and
2 = gop on \, hide arguments.;
#X floatatom 51 314 5 0 0 0 - - -, f 5;
#X obj 435 382 s my_piano;
#X msg 435 360 donecanvasdialog 0 0 2 0 0 \$1 \$2 \$1 \$2 0 0 \, dirty
0;
#X obj 434 336 pack f f;
#X obj 484 195 s \$0-hintergrund;
#X msg 484 172 vis_size \$1 20;
#X obj 451 146 - 2;
#X msg 451 216 vis_size \$1 5;
#X obj 451 238 s \$0-hintergrund2;
#X obj 479 312 + 26;
#X msg 107 194 set \$1;
#X msg 19 355 editmode 0;
#X connect 0 0 10 0;
#X connect 2 0 12 0;
#X connect 3 0 13 0;
#X connect 3 0 17 0;
#X connect 3 0 20 0;
#X connect 3 0 23 0;
#X connect 4 0 13 1;
#X connect 4 0 26 0;
#X connect 5 0 2 0;
#X connect 6 0 3 1;
#X connect 7 0 6 0;
#X connect 8 0 27 0;
#X connect 9 0 4 0;
#X connect 10 0 11 0;
#X connect 11 0 28 0;
#X connect 11 1 5 0;
#X connect 11 2 6 0;
#X connect 11 3 4 0;
#X connect 12 0 3 0;
#X connect 13 0 14 0;
#X connect 14 0 15 0;
#X connect 15 0 1 0;
#X connect 19 0 18 0;
#X connect 20 0 19 0;
#X connect 22 0 21 0;
#X connect 23 0 22 0;
#X connect 23 0 24 0;
#X connect 24 0 25 0;
#X connect 26 0 20 1;
#X connect 27 0 5 0;
#X connect 28 0 1 0;
#X connect 28 0 18 0;
#X coords 0 -1 1 1 103 36 1 326 54;
#X restore 8 410 pd gui;
#N canvas 490 248 740 631 tasten 0;
#X obj 105 38 inlet bang;
#N canvas 747 120 1005 800 schwarze_tasten 0;
#X obj 362 375 pointer;
#X obj 216 117 bng 15 250 50 0 empty empty empty 17 7 0 10 -262144
-1 -1;
#X msg 362 351 traverse pd-anzeige \, bang;
#N canvas 687 236 450 388 zaehler 0;
#X obj 174 84 bng 15 250 50 0 empty empty empty 17 7 0 10 -262144 -1
-1;
#X obj 174 104 f;
#X floatatom 195 84 5 0 0 0 - - -, f 5;
#X obj 174 186 until;
#X obj 174 208 f;
#X obj 205 207 + 1;
#X floatatom 174 230 5 0 0 0 - - -, f 5;
#X obj 174 126 t f b;
#X msg 197 152 0;
#X obj 173 305 outlet;
#X obj 180 14 inlet;
#X obj 263 12 inlet anzahl;
#X connect 0 0 1 0;
#X connect 1 0 7 0;
#X connect 2 0 1 1;
#X connect 3 0 4 0;
#X connect 4 0 5 0;
#X connect 4 0 6 0;
#X connect 5 0 4 1;
#X connect 6 0 9 0;
#X connect 7 0 3 0;
#X connect 7 1 8 0;
#X connect 8 0 4 1;
#X connect 10 0 0 0;
#X connect 11 0 2 0;
#X coords 0 -1 1 1 69 35 2 167 74;
#X restore 218 176 pd zaehler;
#X obj 252 451 *;
#X floatatom 160 326 5 0 0 0 h - -, f 5;
#X floatatom 106 326 5 0 0 0 w - -, f 5;
#X floatatom 160 481 5 0 0 0 - - -, f 5;
#X floatatom 106 480 5 0 0 0 - - -, f 5;
#X obj 218 324 t b b f b;
#X obj 106 354 * 2;
#X obj 191 603 append tasteS w h x y;
#X obj 218 47 inlet w;
#X obj 269 47 inlet h;
#X obj 142 47 inlet bang;
#X obj 474 47 inlet anzahl;
#X msg 106 448 set \$1;
#X obj 252 478 +;
#X floatatom 287 426 5 0 0 0 w - -, f 5;
#X floatatom 334 86 5 0 0 0 % - -, f 5;
#X obj 106 376 / 100;
#X obj 106 398 *;
#X floatatom 287 504 5 0 0 0 - - -, f 5;
#X obj 252 526 -;
#X obj 334 47 inlet breite_prozent;
#X obj 218 219 t f f;
#X obj 218 301 spigot;
#X obj 273 269 expr if ($f1 == 2 | $f1 == 6 \, 0 \, 1);
#X obj 274 241 % 7;
#X obj 218 138 t b b;
#X obj 646 47 inlet active;
#X obj 605 101 filledpolygon col 50 1 0 0 w 0 w h 0 h;
#X obj 596 148 struct tasteS float x float y float w float h float
col float col2;
#X obj 194 369 v \$0-tasteS_h;
#X obj 159 349 / 100;
#X obj 160 396 * 60;
#X obj 287 482 / 2;
#X msg 283 559 0;
#X obj 544 658 outlet clicked_key;
#X obj 63 650 outlet anzahl_schw_tasten;
#X obj 63 567 f;
#X obj 93 566 + 1;
#X obj 64 541 t b;
#X floatatom 63 589 5 0 0 0 - - -, f 5;
#X msg 96 539 1;
#N canvas 678 171 483 605 color_keys 0;
#X obj 205 164 legacy_mouseclick;
#X floatatom 204 287 5 0 0 1 0=up/1=down - -, f 5;
#X obj 284 437 unpack p;
#X obj 149 142 route click;
#X msg 221 447 194;
#X obj 284 413 t b a;
#X obj 204 313 == 0;
#X obj 203 341 route 1;
#X obj 205 204 spigot;
#X obj 149 203 spigot;
#X obj 174 171 tgl 15 0 empty empty empty 17 7 0 10 -262144 -1 -1 0
1;
#X obj 203 471 set tasteS col;
#X msg 203 368 0;
#X obj 204 260 spigot;
#X msg 256 217 1;
#X obj 169 226 t b;
#X msg 287 217 0;
#X floatatom 242 240 5 0 0 0 - - -, f 5;
#X obj 149 62 inlet pointer;
#X obj 259 62 inlet clickable;
#X obj 299 534 outlet pointer;
#X obj 57 62 inlet bang;
#X connect 0 0 8 0;
#X connect 1 0 6 0;
#X connect 2 0 11 1;
#X connect 2 0 20 0;
#X connect 3 0 9 0;
#X connect 4 0 11 0;
#X connect 5 0 4 0;
#X connect 5 1 2 0;
#X connect 6 0 7 0;
#X connect 7 0 12 0;
#X connect 8 0 13 0;
#X connect 9 0 15 0;
#X connect 9 0 5 0;
#X connect 10 0 9 1;
#X connect 10 0 8 1;
#X connect 12 0 11 0;
#X connect 13 0 1 0;
#X connect 14 0 17 0;
#X connect 15 0 14 0;
#X connect 16 0 17 0;
#X connect 17 0 13 1;
#X connect 18 0 3 0;
#X connect 19 0 10 0;
#X connect 21 0 16 0;
#X coords 0 -1 1 1 111 40 1 42 318;
#X restore 544 196 pd color_keys;
#N canvas 108 323 462 598 find_clicked_key 0;
#X obj 71 511 outlet clicked_key;
#X obj 182 71 r \$0-wW;
#X floatatom 71 92 5 0 0 0 - - -, f 5;
#X floatatom 182 93 5 0 0 0 - - -, f 5;
#X obj 71 134 expr $f1 / $f2;
#X obj 188 228 until;
#X obj 188 250 f;
#X obj 218 250 + 1;
#X msg 234 227 0;
#X floatatom 188 272 5 0 0 0 - - -, f 5;
#X obj 188 293 % 7;
#X obj 355 289 == 1;
#X obj 355 313 == 2;
#X obj 355 337 == 4;
#X obj 356 360 == 5;
#X obj 356 384 == 6;
#X obj 256 251 v \$0-ton_temp;
#X obj 264 412 v \$0-ton_temp;
#X obj 264 387 t b f;
#X obj 264 437 +;
#X obj 264 462 v \$0-ton_temp;
#X obj 169 348 v \$0-ton_temp;
#X obj 169 194 t b f b;
#X floatatom 169 370 5 0 0 0 - - -, f 5;
#X floatatom 72 159 5 0 0 0 - - -, f 5;
#X obj 168 165 + 1;
#X obj 71 376 +;
#X floatatom 102 445 5 0 0 0 - - -, f 5;
#X obj 71 70 get tasteS x;
#X obj 71 113 +;
#X obj 71 408 - 1;
#X obj 72 182 t f f;
#X obj 70 26 inlet pointer;
#X obj 193 23 inlet schw_taste_breite;
#X connect 1 0 3 0;
#X connect 2 0 29 0;
#X connect 3 0 4 1;
#X connect 4 0 24 0;
#X connect 5 0 6 0;
#X connect 6 0 7 0;
#X connect 6 0 9 0;
#X connect 7 0 6 1;
#X connect 8 0 6 1;
#X connect 8 0 16 0;
#X connect 9 0 10 0;
#X connect 10 0 11 0;
#X connect 10 0 15 0;
#X connect 10 0 14 0;
#X connect 10 0 13 0;
#X connect 10 0 12 0;
#X connect 11 0 18 0;
#X connect 12 0 18 0;
#X connect 13 0 18 0;
#X connect 14 0 18 0;
#X connect 15 0 18 0;
#X connect 17 0 19 0;
#X connect 18 0 17 0;
#X connect 18 1 19 1;
#X connect 19 0 20 0;
#X connect 21 0 23 0;
#X connect 22 0 21 0;
#X connect 22 1 5 0;
#X connect 22 2 8 0;
#X connect 23 0 26 1;
#X connect 24 0 31 0;
#X connect 25 0 22 0;
#X connect 26 0 30 0;
#X connect 28 0 2 0;
#X connect 29 0 4 0;
#X connect 30 0 0 0;
#X connect 30 0 27 0;
#X connect 31 0 26 0;
#X connect 31 1 25 0;
#X connect 32 0 28 0;
#X connect 33 0 29 1;
#X coords 0 -1 1 1 116 37 1 264 116;
#X restore 544 280 pd find_clicked_key;
#N canvas 979 302 688 466 click_key 0;
#X obj 134 26 inlet keys;
#X obj 134 48 unpack f f;
#X floatatom 134 70 5 0 0 0 - - -, f 5;
#X floatatom 191 70 5 0 0 0 - - -, f 5;
#X obj 289 248 pointer;
#X obj 250 273 pointer;
#X msg 298 221 next;
#X obj 238 192 until;
#X msg 289 194 traverse pd-anzeige \, bang \, next;
#X msg 120 270 194;
#X obj 120 218 spigot;
#X obj 165 218 spigot;
#X obj 198 194 == 0;
#X obj 120 318 set tasteS col;
#X obj 250 107 r \$0-anzahl;
#X floatatom 250 136 5 0 0 0 - - -, f 5;
#X msg 153 270 0;
#X obj 236 169 +;
#X obj 134 116 t b b f b b;
#X connect 0 0 1 0;
#X connect 1 0 2 0;
#X connect 1 1 3 0;
#X connect 2 0 18 0;
#X connect 3 0 10 1;
#X connect 3 0 12 0;
#X connect 4 0 5 1;
#X connect 5 0 13 1;
#X connect 6 0 4 0;
#X connect 7 0 6 0;
#X connect 8 0 4 0;
#X connect 9 0 13 0;
#X connect 10 0 9 0;
#X connect 11 0 16 0;
#X connect 12 0 11 1;
#X connect 14 0 15 0;
#X connect 15 0 17 1;
#X connect 16 0 13 0;
#X connect 17 0 7 0;
#X connect 18 0 10 0;
#X connect 18 0 11 0;
#X connect 18 1 5 0;
#X connect 18 2 17 0;
#X connect 18 3 8 0;
#X coords 0 -1 1 1 85 60 1 32 21;
#X restore 738 258 pd click_key;
#X obj 741 47 inlet notes;
#X connect 0 0 11 4;
#X connect 1 0 29 0;
#X connect 2 0 0 0;
#X connect 3 0 25 0;
#X connect 4 0 17 0;
#X connect 5 0 34 0;
#X connect 6 0 10 0;
#X connect 7 0 11 1;
#X connect 8 0 11 0;
#X connect 8 0 42 0;
#X connect 9 0 8 0;
#X connect 9 1 7 0;
#X connect 9 2 4 0;
#X connect 9 3 33 0;
#X connect 9 3 37 0;
#X connect 10 0 20 0;
#X connect 10 0 18 0;
#X connect 12 0 6 0;
#X connect 13 0 5 0;
#X connect 14 0 1 0;
#X connect 15 0 3 1;
#X connect 16 0 8 0;
#X connect 17 0 23 0;
#X connect 18 0 4 1;
#X connect 18 0 17 1;
#X connect 19 0 21 1;
#X connect 20 0 21 0;
#X connect 21 0 16 0;
#X connect 21 0 36 0;
#X connect 22 0 23 1;
#X connect 22 0 46 1;
#X connect 23 0 11 2;
#X connect 24 0 19 0;
#X connect 25 0 26 0;
#X connect 25 1 28 0;
#X connect 26 0 9 0;
#X connect 27 0 26 1;
#X connect 28 0 27 0;
#X connect 29 0 3 0;
#X connect 29 1 2 0;
#X connect 29 1 44 0;
#X connect 29 1 45 0;
#X connect 30 0 45 2;
#X connect 32 0 45 1;
#X connect 33 0 35 1;
#X connect 34 0 35 0;
#X connect 35 0 7 0;
#X connect 36 0 22 0;
#X connect 37 0 11 3;
#X connect 40 0 41 0;
#X connect 40 0 43 0;
#X connect 41 0 40 1;
#X connect 42 0 40 0;
#X connect 43 0 39 0;
#X connect 44 0 40 1;
#X connect 45 0 46 0;
#X connect 46 0 38 0;
#X connect 48 0 47 0;
#X restore 357 370 pd schwarze_tasten;
#X floatatom 333 279 5 0 0 0 h - -, f 5;
#X floatatom 257 280 5 0 0 0 w - -, f 5;
#N canvas 449 106 1221 705 weisse_tasten 0;
#X obj 474 293 pointer;
#X obj 79 152 bng 15 250 50 0 empty empty empty 17 7 0 10 -262144 -1
-1;
#X msg 474 269 traverse pd-anzeige \, bang;
#N canvas 687 236 450 388 zaehler 0;
#X obj 174 84 bng 15 250 50 0 empty empty empty 17 7 0 10 -262144 -1
-1;
#X obj 174 104 f;
#X floatatom 195 84 5 0 0 0 - - -, f 5;
#X obj 174 186 until;
#X obj 174 208 f;
#X obj 205 207 + 1;
#X floatatom 174 230 5 0 0 0 - - -, f 5;
#X obj 174 126 t f b;
#X msg 197 152 0;
#X obj 173 305 outlet;
#X obj 180 14 inlet;
#X obj 263 12 inlet anzahl;
#X connect 0 0 1 0;
#X connect 1 0 7 0;
#X connect 2 0 1 1;
#X connect 3 0 4 0;
#X connect 4 0 5 0;
#X connect 4 0 6 0;
#X connect 5 0 4 1;
#X connect 6 0 9 0;
#X connect 7 0 3 0;
#X connect 7 1 8 0;
#X connect 8 0 4 1;
#X connect 10 0 0 0;
#X connect 11 0 2 0;
#X coords 0 -1 1 1 69 35 2 167 74;
#X restore 170 300 pd zaehler;
#X floatatom 184 80 5 0 0 0 h - -, f 5;
#X obj 133 47 inlet w;
#X obj 184 47 inlet h;
#X obj 64 47 inlet bang;
#X obj 364 47 inlet anzahl;
#X obj 79 172 t b b;
#X msg 697 171 \; pd-anzeige clear;
#N canvas 1041 362 806 763 change_color_on_click 0;
#X obj 316 54 inlet active;
#X obj 201 54 inlet struct;
#X obj 98 54 inlet bang;
#X obj 204 198 legacy_mouseclick;
#X floatatom 204 352 5 0 0 1 0=up/1=down - -, f 5;
#X obj 285 451 unpack p;
#X obj 124 198 route click;
#X obj 204 486 set tasteW col;
#X msg 204 459 194;
#X obj 285 427 t b a;
#X obj 204 378 == 0;
#X obj 204 405 route 1;
#X msg 204 432 999;
#X obj 204 238 spigot;
#X obj 124 227 spigot;
#X obj 151 132 tgl 15 0 empty empty active 17 7 0 10 -262144 -1 -1
0 1;
#X obj 204 329 spigot;
#X msg 248 285 1;
#X obj 124 249 t b;
#X msg 280 285 0;
#X floatatom 240 309 5 0 0 0 - - -, f 5;
#N canvas 83 291 682 650 get_clicked_key 0;
#X obj 211 476 outlet clicked_key;
#X obj 322 77 r \$0-wW;
#X obj 211 76 get tasteW x;
#X floatatom 211 98 5 0 0 0 - - -, f 5;
#X floatatom 322 99 5 0 0 0 - - -, f 5;
#X obj 211 140 expr $f1 / $f2;
#X obj 395 204 until;
#X obj 395 226 f;
#X obj 425 226 + 1;
#X msg 441 203 0;
#X floatatom 395 248 5 0 0 0 - - -, f 5;
#X obj 395 269 % 7;
#X obj 514 277 == 1;
#X obj 514 301 == 2;
#X obj 514 325 == 4;
#X obj 514 349 == 5;
#X obj 514 373 == 6;
#X obj 463 227 v \$0-ton_temp;
#X obj 513 423 v \$0-ton_temp;
#X obj 513 398 t b f;
#X obj 513 448 +;
#X obj 513 473 v \$0-ton_temp;
#X obj 379 352 v \$0-ton_temp;
#X obj 376 170 t b f b;
#X floatatom 379 374 5 0 0 0 - - -, f 5;
#X floatatom 212 165 5 0 0 0 - - -, f 5;
#X obj 375 141 + 1;
#X obj 212 188 t f f;
#X obj 211 382 +;
#X floatatom 221 421 5 0 0 0 - - -, f 5;
#X obj 211 44 inlet pointer;
#X connect 1 0 4 0;
#X connect 2 0 3 0;
#X connect 3 0 5 0;
#X connect 4 0 5 1;
#X connect 5 0 25 0;
#X connect 6 0 7 0;
#X connect 7 0 8 0;
#X connect 7 0 10 0;
#X connect 8 0 7 1;
#X connect 9 0 7 1;
#X connect 9 0 17 0;
#X connect 10 0 11 0;
#X connect 11 0 12 0;
#X connect 11 0 16 0;
#X connect 11 0 15 0;
#X connect 11 0 14 0;
#X connect 11 0 13 0;
#X connect 12 0 19 0;
#X connect 13 0 19 0;
#X connect 14 0 19 0;
#X connect 15 0 19 0;
#X connect 16 0 19 0;
#X connect 18 0 20 0;
#X connect 19 0 18 0;
#X connect 19 1 20 1;
#X connect 20 0 21 0;
#X connect 22 0 24 0;
#X connect 23 0 22 0;
#X connect 23 1 6 0;
#X connect 23 2 9 0;
#X connect 24 0 28 1;
#X connect 25 0 27 0;
#X connect 26 0 23 0;
#X connect 27 0 28 0;
#X connect 27 1 26 0;
#X connect 28 0 0 0;
#X connect 28 0 29 0;
#X connect 30 0 2 0;
#X coords 0 -1 1 1 112 60 1 59 38;
#X restore 487 293 pd get_clicked_key;
#X obj 487 443 outlet clicked_key;
#X connect 0 0 15 0;
#X connect 1 0 6 0;
#X connect 2 0 19 0;
#X connect 3 0 13 0;
#X connect 4 0 10 0;
#X connect 5 0 7 1;
#X connect 5 0 21 0;
#X connect 6 0 14 0;
#X connect 8 0 7 0;
#X connect 9 0 8 0;
#X connect 9 1 5 0;
#X connect 10 0 11 0;
#X connect 11 0 12 0;
#X connect 12 0 7 0;
#X connect 13 0 16 0;
#X connect 14 0 18 0;
#X connect 14 0 9 0;
#X connect 15 0 14 1;
#X connect 15 0 13 1;
#X connect 16 0 4 0;
#X connect 17 0 20 0;
#X connect 18 0 17 0;
#X connect 19 0 20 0;
#X connect 20 0 16 1;
#X connect 21 0 22 0;
#X coords 0 -1 1 1 148 60 1 100 100;
#X restore 394 171 pd change_color_on_click;
#X obj 235 47 inlet breite_schwarz;
#X obj 133 143 s \$0-wW;
#X obj 184 143 s \$0-hW;
#X obj 235 143 s \$0-bW;
#X obj 795 84 struct tasteW float col float col2 float str float x
float y float x0 float y0 float x1 float y1 float x2 float y2 float
x3 float y3 float x4 float y4 float x5 float y5 float x6 float y6 float
x7 float y7;
#X msg 125 517 999;
#X msg 156 517 1;
#X obj 130 488 t b;
#X floatatom 133 80 5 0 0 0 w - -, f 5;
#X obj 133 101 * 2;
#X floatatom 133 123 5 0 0 0 - - -, f 5;
#X floatatom 235 80 5 0 0 0 b - -, f 5;
#X obj 695 429 cnv 15 158 86 empty empty empty 20 12 0 14 -233017 -66577
0;
#X obj 730 329 cnv 15 86 101 empty empty empty 20 12 0 14 -233017 -66577
0;
#X text 725 324 x0y0;
#X text 727 422 x1y1;
#X text 690 422 x2y2;
#X text 694 503 x3y3;
#X text 827 504 x4y4;
#X text 831 426 x5y5;
#X text 792 426 x6y6;
#X text 791 324 x7y7;
#X obj 656 329 cnv 15 68 96 empty empty empty 20 12 0 14 -1 -66577
0;
#X obj 819 328 cnv 15 68 96 empty empty empty 20 12 0 14 -1 -66577
0;
#N canvas 1187 459 565 376 x0 0;
#X obj 202 156 r \$0-wW;
#X obj 153 156 r \$0-bW;
#X obj 71 304 outlet x;
#X obj 146 304 outlet y;
#X obj 71 150 spigot;
#X obj 255 150 spigot;
#X msg 255 183 0;
#X obj 71 25 inlet nr;
#X obj 71 64 t b b f;
#X obj 71 183 expr 0 + $f3 / 100 * $f2 / 2;
#X obj 288 125 == 0;
#X msg 146 268 0;
#X obj 288 88 expr if( $f1 == 1 | $f1 == 2 | $f1 == 4 | $f1 == 5 |
$f1 == 6 \, 1 \, 0), f 40;
#X obj 198 60 % 7;
#X connect 0 0 9 2;
#X connect 1 0 9 1;
#X connect 4 0 9 0;
#X connect 5 0 6 0;
#X connect 6 0 2 0;
#X connect 7 0 8 0;
#X connect 8 0 4 0;
#X connect 8 0 5 0;
#X connect 8 1 11 0;
#X connect 8 2 13 0;
#X connect 9 0 2 0;
#X connect 10 0 5 1;
#X connect 11 0 3 0;
#X connect 12 0 4 1;
#X connect 12 0 10 0;
#X connect 13 0 12 0;
#X restore 193 566 pd x0;
#N canvas 103 500 596 370 x1 0;
#X obj 202 156 r \$0-wW;
#X obj 204 253 r \$0-hW;
#X obj 153 156 r \$0-bW;
#X obj 71 304 outlet x;
#X obj 146 304 outlet y;
#X obj 71 150 spigot;
#X obj 288 124 == 0;
#X obj 255 150 spigot;
#X msg 255 183 0;
#X obj 263 252 v \$0-tasteS_h;
#X obj 146 277 expr $f2 / 100 * $f3;
#X obj 146 228 t b b;
#X obj 71 25 inlet nr;
#X obj 71 64 t b b f;
#X obj 71 183 expr 0 + $f3 / 100 * $f2 / 2;
#X obj 288 87 expr if( $f1 == 1 | $f1 == 2 | $f1 == 4 | $f1 == 5 |
$f1 == 6 \, 1 \, 0), f 40;
#X obj 199 59 % 7;
#X connect 0 0 14 2;
#X connect 1 0 10 1;
#X connect 2 0 14 1;
#X connect 5 0 14 0;
#X connect 6 0 7 1;
#X connect 7 0 8 0;
#X connect 8 0 3 0;
#X connect 9 0 10 2;
#X connect 10 0 4 0;
#X connect 11 0 10 0;
#X connect 11 1 9 0;
#X connect 12 0 13 0;
#X connect 13 0 5 0;
#X connect 13 0 7 0;
#X connect 13 1 11 0;
#X connect 13 2 16 0;
#X connect 14 0 3 0;
#X connect 15 0 5 1;
#X connect 15 0 6 0;
#X connect 16 0 15 0;
#X restore 236 566 pd x1;
#N canvas 1992 376 427 442 x2 0;
#X obj 71 304 outlet x;
#X obj 146 304 outlet y;
#X msg 71 233 0;
#X obj 204 206 r \$0-hW;
#X obj 263 205 v \$0-tasteS_h;
#X obj 146 230 expr $f2 / 100 * $f3;
#X obj 146 181 t b b;
#X obj 71 25 inlet nr;
#X obj 71 64 t b b;
#X connect 2 0 0 0;
#X connect 3 0 5 1;
#X connect 4 0 5 2;
#X connect 5 0 1 0;
#X connect 6 0 5 0;
#X connect 6 1 4 0;
#X connect 7 0 8 0;
#X connect 8 0 2 0;
#X connect 8 1 6 0;
#X restore 278 566 pd x2;
#N canvas 1982 376 289 353 x3 0;
#X obj 147 49 r \$0-hW;
#X obj 71 304 outlet x;
#X obj 146 304 outlet y;
#X obj 71 25 inlet nr;
#X msg 71 167 0;
#X msg 147 71 set \$1;
#X floatatom 147 166 5 0 0 0 - - -, f 5;
#X obj 71 111 t b;
#X connect 0 0 5 0;
#X connect 3 0 7 0;
#X connect 4 0 1 0;
#X connect 5 0 6 0;
#X connect 6 0 2 0;
#X connect 7 0 6 0;
#X connect 7 0 4 0;
#X restore 321 566 pd x3;
#N canvas 1967 351 335 376 x4 0;
#X obj 71 304 outlet x;
#X obj 190 304 outlet y;
#X obj 71 25 inlet nr;
#X obj 190 78 r \$0-hW;
#X msg 190 100 set \$1;
#X floatatom 190 195 5 0 0 0 - - -, f 5;
#X obj 138 137 t b;
#X msg 71 99 set \$1;
#X floatatom 71 194 5 0 0 0 - - -, f 5;
#X obj 71 77 r \$0-wW;
#X connect 2 0 6 0;
#X connect 3 0 4 0;
#X connect 4 0 5 0;
#X connect 5 0 1 0;
#X connect 6 0 5 0;
#X connect 6 0 8 0;
#X connect 7 0 8 0;
#X connect 8 0 0 0;
#X connect 9 0 7 0;
#X restore 363 566 pd x4;
#N canvas 822 260 393 353 x5 0;
#X obj 68 304 outlet x;
#X obj 149 304 outlet y;
#X obj 207 208 r \$0-hW;
#X obj 266 207 v \$0-tasteS_h;
#X obj 149 232 expr $f2 / 100 * $f3;
#X obj 149 183 t b b;
#X obj 68 66 t b b;
#X obj 68 25 inlet nr;
#X msg 82 187 set \$1;
#X floatatom 68 212 5 0 0 0 - - -, f 5;
#X obj 82 165 r \$0-wW;
#X connect 2 0 4 1;
#X connect 3 0 4 2;
#X connect 4 0 1 0;
#X connect 5 0 4 0;
#X connect 5 1 3 0;
#X connect 6 0 9 0;
#X connect 6 1 5 0;
#X connect 7 0 6 0;
#X connect 8 0 9 0;
#X connect 9 0 0 0;
#X connect 10 0 8 0;
#X restore 406 566 pd x5;
#N canvas 875 249 587 370 x6 0;
#X obj 202 156 r \$0-wW;
#X obj 153 156 r \$0-bW;
#X obj 71 304 outlet x;
#X obj 146 304 outlet y;
#X obj 71 150 spigot;
#X obj 306 124 == 0;
#X obj 263 150 spigot;
#X obj 297 171 r \$0-wW;
#X msg 297 193 set \$1;
#X floatatom 282 215 5 0 0 0 - - -, f 5;
#X obj 203 251 r \$0-hW;
#X obj 262 250 v \$0-tasteS_h;
#X obj 145 275 expr $f2 / 100 * $f3;
#X obj 145 226 t b b;
#X floatatom 233 307 5 0 0 0 - - -, f 5;
#X floatatom 28 217 5 0 0 0 - - -, f 5;
#X obj 71 26 inlet nr;
#X obj 71 64 t b b f;
#X obj 71 183 expr $f3 - $f3 / 100 * $f2 / 2;
#X obj 306 87 expr if( $f1 == 0 | $f1 == 1 | $f1 == 3 | $f1 == 4 |
$f1 == 5 \, 1 \, 0), f 40;
#X obj 189 57 % 7;
#X connect 0 0 18 2;
#X connect 1 0 18 1;
#X connect 4 0 18 0;
#X connect 5 0 6 1;
#X connect 6 0 9 0;
#X connect 7 0 8 0;
#X connect 8 0 9 0;
#X connect 9 0 2 0;
#X connect 10 0 12 1;
#X connect 11 0 12 2;
#X connect 12 0 3 0;
#X connect 12 0 14 0;
#X connect 13 0 12 0;
#X connect 13 1 11 0;
#X connect 16 0 17 0;
#X connect 17 0 4 0;
#X connect 17 0 6 0;
#X connect 17 1 13 0;
#X connect 17 2 20 0;
#X connect 18 0 2 0;
#X connect 18 0 15 0;
#X connect 19 0 4 1;
#X connect 19 0 5 0;
#X connect 20 0 19 0;
#X restore 448 566 pd x6;
#N canvas 237 359 582 442 x7 0;
#X obj 202 156 r \$0-wW;
#X obj 202 24 r \$0-hW;
#X obj 153 156 r \$0-bW;
#X obj 71 304 outlet x;
#X obj 146 304 outlet y;
#X obj 71 150 spigot;
#X obj 306 124 == 0;
#X obj 261 150 spigot;
#X obj 71 183 expr $f3 - $f3 / 100 * $f2 / 2;
#X msg 146 268 0;
#X obj 71 25 inlet nr;
#X obj 71 64 t b b f;
#X obj 276 176 r \$0-wW;
#X msg 276 198 set \$1;
#X floatatom 261 220 5 0 0 0 - - -, f 5;
#X obj 306 85 expr if( $f1 == 0 | $f1 == 1 | $f1 == 3 | $f1 == 4 |
$f1 == 5 \, 1 \, 0), f 39;
#X obj 216 65 % 7;
#X connect 0 0 8 2;
#X connect 2 0 8 1;
#X connect 5 0 8 0;
#X connect 6 0 7 1;
#X connect 7 0 14 0;
#X connect 8 0 3 0;
#X connect 9 0 4 0;
#X connect 10 0 11 0;
#X connect 11 0 5 0;
#X connect 11 0 7 0;
#X connect 11 1 9 0;
#X connect 11 2 16 0;
#X connect 12 0 13 0;
#X connect 13 0 14 0;
#X connect 14 0 3 0;
#X connect 15 0 5 1;
#X connect 15 0 6 0;
#X connect 16 0 15 0;
#X restore 491 566 pd x7;
#X obj 70 460 r \$0-wW;
#X msg 81 511 0;
#X obj 55 437 t f b;
#X obj 55 512 *;
#X floatatom 28 552 5 0 0 0 - - -, f 5;
#X obj 83 595 append tasteW x y col col2 str x0 y0 x1 y1 x2 y2 x3 y3
x4 y4 x5 y5 x6 y6 x7 y7, f 78;
#X obj 171 355 t b b f f;
#X obj 798 48 filledpolygon col col2 str x0 y0 x1 y1 x2 y2 x3 y3 x4
y4 x5 y5 x6 y6 x7 y7;
#X obj 70 482 + 0;
#X msg 136 539 333;
#X obj 394 416 outlet clicked_key;
#N canvas 135 444 513 419 click_key 0;
#X obj 134 26 inlet keys;
#X obj 134 48 unpack f f;
#X floatatom 134 70 5 0 0 0 - - -, f 5;
#X floatatom 191 70 5 0 0 0 - - -, f 5;
#X obj 275 251 pointer;
#X obj 236 276 pointer;
#X msg 284 224 next;
#X obj 224 195 until;
#X msg 275 197 traverse pd-anzeige \, bang \, next;
#X obj 106 321 set tasteW col;
#X msg 106 273 194;
#X obj 134 116 t b b f b;
#X msg 139 273 999;
#X obj 106 221 spigot;
#X obj 151 221 spigot;
#X obj 184 197 == 0;
#X connect 0 0 1 0;
#X connect 1 0 2 0;
#X connect 1 1 3 0;
#X connect 2 0 11 0;
#X connect 3 0 13 1;
#X connect 3 0 15 0;
#X connect 4 0 5 1;
#X connect 5 0 9 1;
#X connect 6 0 4 0;
#X connect 7 0 6 0;
#X connect 8 0 4 0;
#X connect 10 0 9 0;
#X connect 11 0 13 0;
#X connect 11 0 14 0;
#X connect 11 1 5 0;
#X connect 11 2 7 0;
#X connect 11 3 8 0;
#X connect 12 0 9 0;
#X connect 13 0 10 0;
#X connect 14 0 12 0;
#X connect 15 0 14 1;
#X coords 0 -1 1 1 85 60 1 32 21;
#X restore 580 172 pd click_key;
#X obj 556 46 inlet notes;
#X obj 450 47 inlet clickable;
#X connect 0 0 49 21;
#X connect 1 0 9 0;
#X connect 2 0 0 0;
#X connect 3 0 50 0;
#X connect 4 0 14 0;
#X connect 5 0 20 0;
#X connect 6 0 4 0;
#X connect 7 0 1 0;
#X connect 8 0 3 1;
#X connect 9 0 3 0;
#X connect 9 1 2 0;
#X connect 9 1 11 0;
#X connect 11 0 54 0;
#X connect 12 0 23 0;
#X connect 16 0 11 1;
#X connect 17 0 49 2;
#X connect 18 0 49 4;
#X connect 19 0 17 0;
#X connect 19 0 18 0;
#X connect 19 0 53 0;
#X connect 20 0 21 0;
#X connect 21 0 22 0;
#X connect 22 0 13 0;
#X connect 23 0 15 0;
#X connect 36 0 49 5;
#X connect 36 1 49 6;
#X connect 37 0 49 7;
#X connect 37 1 49 8;
#X connect 38 0 49 9;
#X connect 38 1 49 10;
#X connect 39 0 49 11;
#X connect 39 1 49 12;
#X connect 40 0 49 13;
#X connect 40 1 49 14;
#X connect 41 0 49 15;
#X connect 41 1 49 16;
#X connect 42 0 49 17;
#X connect 42 1 49 18;
#X connect 43 0 49 19;
#X connect 43 1 49 20;
#X connect 44 0 52 0;
#X connect 45 0 49 1;
#X connect 46 0 47 0;
#X connect 46 1 45 0;
#X connect 47 0 48 0;
#X connect 47 0 49 0;
#X connect 50 2 46 0;
#X connect 50 3 19 0;
#X connect 50 3 40 0;
#X connect 50 3 39 0;
#X connect 50 3 38 0;
#X connect 50 3 42 0;
#X connect 50 3 41 0;
#X connect 50 3 43 0;
#X connect 50 3 37 0;
#X connect 50 3 36 0;
#X connect 52 0 47 1;
#X connect 53 0 49 3;
#X connect 56 0 55 0;
#X connect 57 0 11 2;
#X restore 246 372 pd weisse_tasten;
#X floatatom 504 278 5 0 0 0 anzahl - -, f 5;
#X msg 222 100 \; pd-anzeige clear;
#X floatatom 417 279 5 0 0 0 breite - -, f 5;
#X obj 504 230 r \$0-anzahl;
#X obj 417 230 r \$0-breiteS;
#X obj 257 230 r \$0-breite;
#X obj 333 230 r \$0-hoehe;
#X obj 105 89 t b b b b b;
#X obj 613 278 tgl 15 0 empty empty active 17 7 0 10 -262144 -1 -1
0 1;
#X obj 246 459 outlet clicked_key;
#X obj 613 38 inlet active;
#X obj 152 114 s \$0-bngA;
#X obj 136 136 s \$0-bngB;
#X obj 160 230 r \$0-bngA;
#X obj 357 342 r \$0-bngB;
#X obj 119 157 s \$0-bngC;
#X obj 246 344 r \$0-bngC;
#X obj 339 38 inlet notes;
#N canvas 937 110 741 744 calculate_notes 0;
#X obj 184 39 inlet notes;
#X obj 81 631 outlet keysWhite;
#X obj 470 632 outlet keysBlack;
#X floatatom 82 256 5 0 0 0 - - -, f 5;
#X obj 140 307 % 12;
#X floatatom 115 117 5 0 0 0 - - -, f 5;
#X obj 115 160 expr if($f1 == 0 || $f1 == 2 ||$f1 == 4 ||$f1 == 5 ||$f1
== 7 ||$f1 == 9 ||$f1 == 11 \, 1 \, 0);
#X msg 82 235 \$1;
#X obj 471 230 spigot;
#X obj 504 206 == 0;
#X obj 184 64 t a a a;
#X obj 140 333 route 0 2 4 5 7 9 11;
#X msg 140 364 0;
#X msg 167 364 1;
#X msg 194 364 2;
#X msg 221 364 3;
#X msg 249 364 4;
#X msg 278 363 5;
#X obj 130 397 / 12;
#X obj 130 419 int;
#X obj 130 441 * 5;
#X floatatom 81 522 5 0 0 0 - - -, f 5;
#X obj 82 388 -;
#X obj 82 277 t f f;
#X floatatom 130 463 5 0 0 0 - - -, f 5;
#X floatatom 182 404 5 0 0 0 - - -, f 5;
#X obj 82 475 -;
#X obj 115 92 unpack f f;
#X obj 82 208 spigot;
#X obj 81 550 pack f f;
#X floatatom 471 283 5 0 0 0 - - -, f 5;
#X obj 529 334 % 12;
#X msg 471 262 \$1;
#X msg 528 392 1;
#X msg 555 392 2;
#X msg 584 392 4;
#X msg 614 392 5;
#X obj 519 452 / 12;
#X obj 519 474 int;
#X floatatom 470 577 5 0 0 0 - - -, f 5;
#X obj 471 443 -;
#X obj 471 304 t f f;
#X floatatom 519 518 5 0 0 0 - - -, f 5;
#X floatatom 571 459 5 0 0 0 - - -, f 5;
#X obj 471 530 -;
#X obj 470 605 pack f f;
#X obj 115 138 % 12;
#X obj 529 360 route 1 3 6 8 10;
#X msg 645 392 6;
#X obj 519 496 * 7;
#X connect 0 0 10 0;
#X connect 3 0 23 0;
#X connect 4 0 11 0;
#X connect 5 0 46 0;
#X connect 6 0 28 1;
#X connect 6 0 9 0;
#X connect 7 0 3 0;
#X connect 8 0 32 0;
#X connect 9 0 8 1;
#X connect 10 1 28 0;
#X connect 10 1 8 0;
#X connect 10 2 27 0;
#X connect 11 0 12 0;
#X connect 11 1 13 0;
#X connect 11 2 14 0;
#X connect 11 3 14 0;
#X connect 11 4 15 0;
#X connect 11 5 16 0;
#X connect 11 6 17 0;
#X connect 12 0 22 1;
#X connect 12 0 25 0;
#X connect 13 0 22 1;
#X connect 13 0 25 0;
#X connect 14 0 22 1;
#X connect 14 0 25 0;
#X connect 15 0 22 1;
#X connect 15 0 25 0;
#X connect 16 0 22 1;
#X connect 16 0 25 0;
#X connect 17 0 22 1;
#X connect 17 0 25 0;
#X connect 18 0 19 0;
#X connect 19 0 20 0;
#X connect 20 0 24 0;
#X connect 20 0 26 1;
#X connect 21 0 29 0;
#X connect 22 0 26 0;
#X connect 23 0 22 0;
#X connect 23 1 4 0;
#X connect 23 1 18 0;
#X connect 26 0 21 0;
#X connect 27 0 5 0;
#X connect 27 1 29 1;
#X connect 27 1 45 1;
#X connect 28 0 7 0;
#X connect 29 0 1 0;
#X connect 30 0 41 0;
#X connect 31 0 47 0;
#X connect 32 0 30 0;
#X connect 33 0 40 1;
#X connect 33 0 43 0;
#X connect 34 0 40 1;
#X connect 34 0 43 0;
#X connect 35 0 40 1;
#X connect 35 0 43 0;
#X connect 36 0 40 1;
#X connect 36 0 43 0;
#X connect 37 0 38 0;
#X connect 38 0 49 0;
#X connect 39 0 45 0;
#X connect 40 0 44 0;
#X connect 41 0 40 0;
#X connect 41 1 31 0;
#X connect 41 1 37 0;
#X connect 44 0 39 0;
#X connect 45 0 2 0;
#X connect 46 0 6 0;
#X connect 47 0 33 0;
#X connect 47 1 34 0;
#X connect 47 2 35 0;
#X connect 47 3 36 0;
#X connect 47 4 48 0;
#X connect 48 0 43 0;
#X connect 48 0 40 1;
#X connect 49 0 42 0;
#X connect 49 0 44 1;
#X restore 339 174 pd calculate_notes;
#X connect 0 0 12 0;
#X connect 1 1 14 0;
#X connect 2 0 1 2;
#X connect 2 0 4 2;
#X connect 3 0 1 1;
#X connect 3 0 4 1;
#X connect 4 0 14 0;
#X connect 5 0 1 4;
#X connect 5 0 4 4;
#X connect 7 0 1 3;
#X connect 7 0 4 3;
#X connect 8 0 5 0;
#X connect 9 0 7 0;
#X connect 10 0 3 0;
#X connect 11 0 2 0;
#X connect 12 1 20 0;
#X connect 12 2 17 0;
#X connect 12 3 16 0;
#X connect 12 4 6 0;
#X connect 13 0 1 5;
#X connect 13 0 4 5;
#X connect 15 0 13 0;
#X connect 18 0 7 0;
#X connect 18 0 5 0;
#X connect 18 0 2 0;
#X connect 18 0 3 0;
#X connect 19 0 1 0;
#X connect 21 0 4 0;
#X connect 22 0 23 0;
#X connect 23 0 4 6;
#X connect 23 1 1 6;
#X coords 0 -1 1 1 91 32 1 37 194;
#X restore 147 461 pd tasten;
#X obj 147 551 outlet clicked_key;
#X obj 189 265 inlet notes;
#X obj 84 2 hradio 15 0 1 3 empty empty input 48 5 0 10 -262144 -1
-1 1;
#X obj 8 323 t b b;
#X obj 174 2 bng 15 250 50 0 empty empty settings 17 5 0 10 -262144
-1 -1;
#N canvas 1190 343 657 506 note_input 0;
#X obj 250 36 inlet choice;
#X obj 250 227 tgl 15 0 empty empty clickable 17 7 0 10 -262144 -1
-1 0 1;
#X obj 169 278 spigot;
#N canvas 1974 50 1460 851 keys2 0;
#X obj 209 119 spigot;
#X obj 562 47 tgl 15 0 empty empty empty 17 7 0 10 -262144 -1 -1 1
1;
#X obj 209 53 key;
#X msg 1025 308 99 102 118 103 98 110 106 109 107 44 108 46;
#X obj 1026 228 array set \$0-oben;
#X obj 228 250 until;
#X text 228 187 obere Reihe;
#X obj 228 274 f;
#X obj 261 274 + 1;
#X floatatom 228 298 5 0 0 0 - - -, f 5;
#X msg 271 252 0;
#X obj 228 346 array get \$0-oben;
#X obj 277 325 nbx 2 13 1 2 0 1 empty empty empty 0 -8 0 10 -262144
-1 -1 1 256 0;
#X floatatom 228 368 5 0 0 0 - - -, f 5;
#X obj 228 390 ==;
#X obj 210 149 t f b f;
#X floatatom 219 426 5 0 0 0 - - -, f 5;
#X obj 254 424 sel 1;
#X floatatom 185 479 5 0 0 0 - - -, f 5;
#X obj 186 450 spigot;
#X obj 1027 416 array define \$0-oben 255;
#X obj 1029 479 array define \$0-unten 255;
#X obj 1028 439 array define \$0-obenValues 12;
#X obj 1030 503 array define \$0-untenValues 12;
#X msg 1025 204 113 50 119 51 101 114 53 116 54 122 55 117;
#X obj 228 228 t f b;
#X obj 380 249 until;
#X text 380 186 obere Reihe;
#X obj 380 273 f;
#X obj 413 273 + 1;
#X floatatom 380 297 5 0 0 0 - - -, f 5;
#X msg 423 251 0;
#X obj 380 345 array get \$0-oben;
#X obj 429 324 nbx 2 13 1 2 0 1 empty empty empty 0 -8 0 10 -262144
-1 -1 1 256 0;
#X floatatom 380 367 5 0 0 0 - - -, f 5;
#X obj 380 389 ==;
#X obj 362 148 t f b f;
#X floatatom 371 425 5 0 0 0 - - -, f 5;
#X obj 406 423 sel 1;
#X floatatom 337 478 5 0 0 0 - - -, f 5;
#X obj 338 449 spigot;
#X obj 380 227 t f b;
#X obj 203 639 array set \$0-obenValues;
#X obj 184 500 t f f;
#X obj 184 571 spigot;
#X msg 203 617 1;
#X obj 166 639 bng 15 250 50 0 empty empty empty 17 7 0 10 -262144
-1 -1;
#X obj 212 523 array get \$0-obenValues;
#X obj 215 544 == 0;
#X obj 399 614 array set \$0-obenValues;
#X obj 364 615 bng 15 250 50 0 empty empty empty 17 7 0 10 -262144
-1 -1;
#X msg 399 592 0;
#X obj 362 53 keyup;
#X msg 228 205 12;
#X msg 380 204 12;
#X obj 184 728 outlet an;
#X obj 381 728 outlet aus;
#X obj 184 593 t f b f;
#X obj 380 567 t f b f;
#X obj 362 119 spigot;
#X obj 1025 331 array set \$0-unten;
#X obj 652 115 spigot;
#X obj 671 246 until;
#X obj 671 270 f;
#X obj 704 270 + 1;
#X floatatom 671 294 5 0 0 0 - - -, f 5;
#X msg 714 248 0;
#X obj 723 320 nbx 2 13 1 2 0 1 empty empty empty 0 -8 0 10 -262144
-1 -1 1 256 0;
#X floatatom 671 364 5 0 0 0 - - -, f 5;
#X obj 671 386 ==;
#X obj 653 145 t f b f;
#X floatatom 662 422 5 0 0 0 - - -, f 5;
#X obj 697 420 sel 1;
#X floatatom 628 475 5 0 0 0 - - -, f 5;
#X obj 629 446 spigot;
#X obj 671 224 t f b;
#X obj 823 245 until;
#X obj 823 269 f;
#X obj 856 269 + 1;
#X floatatom 823 293 5 0 0 0 - - -, f 5;
#X msg 866 247 0;
#X obj 875 318 nbx 2 13 1 2 0 1 empty empty empty 0 -8 0 10 -262144
-1 -1 1 256 0;
#X floatatom 823 363 5 0 0 0 - - -, f 5;
#X obj 823 385 ==;
#X obj 805 144 t f b f;
#X floatatom 814 421 5 0 0 0 - - -, f 5;
#X obj 849 419 sel 1;
#X floatatom 780 474 5 0 0 0 - - -, f 5;
#X obj 781 445 spigot;
#X obj 823 223 t f b;
#X obj 628 499 t f f;
#X obj 628 570 spigot;
#X msg 647 616 1;
#X obj 610 638 bng 15 250 50 0 empty empty empty 17 7 0 10 -262144
-1 -1;
#X obj 659 543 == 0;
#X obj 830 607 bng 15 250 50 0 empty empty empty 17 7 0 10 -262144
-1 -1;
#X msg 865 584 0;
#X msg 671 201 12;
#X msg 823 200 12;
#X obj 628 592 t f b f;
#X obj 846 559 t f b f;
#X obj 805 115 spigot;
#X obj 671 341 array get \$0-unten;
#X obj 823 340 array get \$0-unten;
#X obj 656 522 array get \$0-untenValues;
#X obj 647 638 array set \$0-untenValues;
#X obj 865 606 array set \$0-untenValues;
#X text 671 183 untere Reihe;
#X text 823 182 untere Reihe;
#X obj 803 315 t f f;
#X obj 672 316 t f f;
#X obj 353 320 t f f;
#X obj 222 321 t f f;
#X obj 628 728 outlet unten an;
#X obj 847 728 outlet unten aus;
#X obj 1025 168 loadbang;
#X obj 1025 268 loadbang;
#X obj 21 729 outlet all;
#X msg 22 700 \$1 1;
#X msg 62 701 \$1 1;
#X obj 628 659 + 12;
#X obj 846 657 + 12;
#X msg 104 701 \$1 0;
#X msg 145 701 \$1 0;
#X obj 431 14 inlet active;
#X text 1025 186 obere Reihe deutsches Layout;
#X text 1023 287 untere Reihe deutsches Layout;
#X msg 1093 169 113 50 119 51 101 114 53 116 54 121 55 117;
#X obj 1026 118 r \$0-ge-en;
#X obj 1026 138 route 0 1;
#X connect 0 0 15 0;
#X connect 1 0 0 1;
#X connect 1 0 59 1;
#X connect 1 0 61 1;
#X connect 1 0 101 1;
#X connect 2 0 0 0;
#X connect 2 0 61 0;
#X connect 3 0 60 0;
#X connect 5 0 7 0;
#X connect 7 0 8 0;
#X connect 7 0 9 0;
#X connect 8 0 7 1;
#X connect 9 0 112 0;
#X connect 10 0 7 1;
#X connect 11 0 13 0;
#X connect 12 0 11 1;
#X connect 13 0 14 0;
#X connect 14 0 16 0;
#X connect 14 0 17 0;
#X connect 15 1 53 0;
#X connect 15 2 14 1;
#X connect 16 0 19 1;
#X connect 17 0 5 1;
#X connect 18 0 43 0;
#X connect 19 0 18 0;
#X connect 24 0 4 0;
#X connect 25 0 5 0;
#X connect 25 1 10 0;
#X connect 26 0 28 0;
#X connect 28 0 29 0;
#X connect 28 0 30 0;
#X connect 29 0 28 1;
#X connect 30 0 111 0;
#X connect 31 0 28 1;
#X connect 32 0 34 0;
#X connect 33 0 32 1;
#X connect 34 0 35 0;
#X connect 35 0 37 0;
#X connect 35 0 38 0;
#X connect 36 1 54 0;
#X connect 36 2 35 1;
#X connect 37 0 40 1;
#X connect 38 0 26 1;
#X connect 39 0 58 0;
#X connect 40 0 39 0;
#X connect 41 0 26 0;
#X connect 41 1 31 0;
#X connect 43 0 44 0;
#X connect 43 1 47 0;
#X connect 44 0 57 0;
#X connect 45 0 42 0;
#X connect 47 0 48 0;
#X connect 48 0 44 1;
#X connect 51 0 49 0;
#X connect 52 0 59 0;
#X connect 52 0 101 0;
#X connect 53 0 25 0;
#X connect 54 0 41 0;
#X connect 57 0 46 0;
#X connect 57 0 55 0;
#X connect 57 0 118 0;
#X connect 57 1 45 0;
#X connect 57 2 42 1;
#X connect 58 0 50 0;
#X connect 58 0 56 0;
#X connect 58 0 122 0;
#X connect 58 1 51 0;
#X connect 58 2 49 1;
#X connect 59 0 36 0;
#X connect 61 0 70 0;
#X connect 62 0 63 0;
#X connect 63 0 64 0;
#X connect 63 0 65 0;
#X connect 64 0 63 1;
#X connect 65 0 110 0;
#X connect 66 0 63 1;
#X connect 67 0 102 1;
#X connect 68 0 69 0;
#X connect 69 0 71 0;
#X connect 69 0 72 0;
#X connect 70 1 97 0;
#X connect 70 2 69 1;
#X connect 71 0 74 1;
#X connect 72 0 62 1;
#X connect 73 0 90 0;
#X connect 74 0 73 0;
#X connect 75 0 62 0;
#X connect 75 1 66 0;
#X connect 76 0 77 0;
#X connect 77 0 78 0;
#X connect 77 0 79 0;
#X connect 78 0 77 1;
#X connect 79 0 109 0;
#X connect 80 0 77 1;
#X connect 81 0 103 1;
#X connect 82 0 83 0;
#X connect 83 0 85 0;
#X connect 83 0 86 0;
#X connect 84 1 98 0;
#X connect 84 2 83 1;
#X connect 85 0 88 1;
#X connect 86 0 76 1;
#X connect 87 0 100 0;
#X connect 88 0 87 0;
#X connect 89 0 76 0;
#X connect 89 1 80 0;
#X connect 90 0 91 0;
#X connect 90 1 104 0;
#X connect 91 0 99 0;
#X connect 92 0 105 0;
#X connect 94 0 91 1;
#X connect 96 0 106 0;
#X connect 97 0 75 0;
#X connect 98 0 89 0;
#X connect 99 0 93 0;
#X connect 99 0 120 0;
#X connect 99 1 92 0;
#X connect 99 2 105 1;
#X connect 100 0 95 0;
#X connect 100 0 121 0;
#X connect 100 1 96 0;
#X connect 100 2 106 1;
#X connect 101 0 84 0;
#X connect 102 0 68 0;
#X connect 103 0 82 0;
#X connect 104 0 94 0;
#X connect 109 0 88 0;
#X connect 109 1 103 0;
#X connect 110 0 74 0;
#X connect 110 1 102 0;
#X connect 111 0 40 0;
#X connect 111 1 32 0;
#X connect 112 0 19 0;
#X connect 112 1 11 0;
#X connect 115 0 24 0;
#X connect 116 0 3 0;
#X connect 118 0 117 0;
#X connect 119 0 117 0;
#X connect 120 0 119 0;
#X connect 120 0 113 0;
#X connect 121 0 123 0;
#X connect 121 0 114 0;
#X connect 122 0 117 0;
#X connect 123 0 117 0;
#X connect 124 0 1 0;
#X connect 127 0 4 0;
#X connect 128 0 129 0;
#X connect 129 0 24 0;
#X connect 129 1 127 0;
#X coords 0 -1 1 1 85 60 1 530 18;
#X restore 396 173 pd keys2;
#X obj 396 265 spigot;
#X obj 202 255 == 2;
#X obj 250 198 == 0;
#X floatatom 250 119 5 0 0 0 - - -, f 5;
#X obj 429 242 == 1;
#X obj 396 146 == 1;
#X obj 169 37 inlet notes;
#X obj 396 351 outlet clicked_keys;
#X obj 169 379 outlet notes_to_keys;
#X obj 250 355 outlet clickable;
#X connect 0 0 7 0;
#X connect 1 0 13 0;
#X connect 2 0 12 0;
#X connect 3 0 4 0;
#X connect 4 0 11 0;
#X connect 4 0 12 0;
#X connect 5 0 2 1;
#X connect 6 0 1 0;
#X connect 7 0 6 0;
#X connect 7 0 9 0;
#X connect 7 0 5 0;
#X connect 7 0 8 0;
#X connect 8 0 4 1;
#X connect 9 0 3 0;
#X connect 10 0 2 0;
#X coords 0 -1 1 1 92 36 1 472 47;
#X restore 189 410 pd note_input;
#N canvas 1068 381 307 387 settings 0;
#X obj 41 69 cnv 15 200 50 empty empty empty 20 12 0 14 -233017 -66577
0;
#X obj 41 121 cnv 15 200 71 empty empty empty 20 12 0 14 -208883 -66577
0;
#X obj 41 194 cnv 15 200 80 empty empty % 150 35 0 25 -233017 -66577
0;
#X obj 41 276 cnv 15 200 51 empty empty empty 20 12 0 14 -208883 -66577
0;
#X obj 47 17 bng 15 250 50 0 \$0-refresh empty refresh 17 7 0 12 -262144
-1 -1;
#X obj 47 135 nbx 3 14 1 1e+037 0 1 \$0-breite empty width_white_keys
0 -10 0 12 -262144 -1 -1 20 256 0;
#X obj 47 171 nbx 3 14 1 1e+037 0 1 \$0-hoehe empty height_white_keys
0 -11 0 12 -262144 -1 -1 100 256 0;
#X obj 47 217 nbx 3 14 1 1e+037 0 1 \$0-breiteS empty width_black_keys
0 -10 0 12 -262144 -1 -1 45 256 0;
#X obj 47 89 nbx 3 14 1 1e+037 0 1 \$0-anzahl empty amount_white_keys
0 -10 0 12 -262144 -1 -1 21 256 0;
#X obj 47 253 nbx 3 14 1 1e+037 0 1 \$0-tasteS_h empty height_black_keys
0 -10 0 12 -262144 -1 -1 60 256 0;
#X obj 48 301 tgl 15 1 \$0-ge-en empty keyboard_layout_ge/en 0 -12
0 12 -262144 -1 -1 0 1;
#X coords 0 0 1 1 85 60 0;
#X restore 396 323 pd settings;
#X msg 172 176 \; pd-settings vis 1;
#X connect 1 0 11 0;
#X connect 4 0 1 0;
#X connect 7 0 8 0;
#X connect 9 0 13 0;
#X connect 10 0 13 1;
#X connect 11 0 6 0;
#X connect 11 1 7 0;
#X connect 12 0 15 0;
#X connect 13 0 7 1;
#X connect 13 1 7 2;
#X connect 13 2 8 0;
#X connect 13 2 7 1;
#X coords 0 0 840 126 840 126 2 0 0;
