#N canvas 958 146 639 568 10;
#X obj 102 102 cnv 15 190 150 empty empty osci 5 5 0 14 -199729 -260097
0;
#X obj 135 156 vradio 17 0 0 5 \$0-waveform_VCO \$0-waveform_VCO_in
Form -5 -10 0 11 -162280 -260097 -17 0;
#X obj 231 232 nbx 4 14 -1e+037 1e+037 0 0 empty \$0-pulse_width_VCO
empty 0 -8 0 11 -99865 -260097 -260097 0.501 256 0;
#X obj 180 232 hsl 30 15 0 0.975 0 0 \$0-pulse_width_VCO \$0-pulse_width_VCO_r
Width -2 -8 0 10 -162280 -260097 -1 1490 1;
#X obj 170 118 hsl 50 15 1.27 127 1 0 \$0-att \$0-att_r Attack 5 -8
0 10 -162280 -260097 -1 0 1;
#X obj 231 118 nbx 4 14 -1e+037 1e+037 0 0 empty \$0-attshow empty
0 -8 0 11 -99865 -260097 -260097 5.08 256 0;
#X obj 170 173 hsl 50 15 0 127 0 0 \$0-rel \$0-rel_r Release/Decay
-10 -8 0 10 -162280 -260097 -1 49 1;
#X obj 231 173 nbx 4 14 -1e+037 1e+037 0 0 empty \$0-relshow empty
0 -8 0 11 -99865 -260097 -260097 5.032 256 0;
#X obj 231 143 nbx 4 14 -1e+037 1e+037 0 0 empty \$0-susshow empty
0 -8 0 11 -99865 -260097 -260097 0.5 256 0;
#X obj 30 133 vsl 20 70 0.127 127 0 0 \$0-Freq \$0-Freq_r Frequenz
0 -9 0 12 -162280 -260097 -262144 3009 1;
#X obj 25 266 cnv 10 40 20 empty empty Input--- 0 0 0 12 -4033 -65553
0;
#X obj 22 228 nbx 5 14 -1e+037 1e+037 0 0 \$0-freqshow_s \$0-freqshow
empty 0 -8 0 11 -99865 -260097 -260097 440 256 0;
#X obj 432 227 inlet;
#X obj 412 520 outlet~;
#X obj 112 164 cnv 10 20 10 empty empty sin 0 0 0 10 -33289 -262144
0;
#X obj 112 181 cnv 10 20 10 empty empty rec 0 0 0 10 -33289 -262144
0;
#X obj 112 198 cnv 10 20 10 empty empty saw 0 0 0 10 -33289 -262144
0;
#X obj 112 216 cnv 10 20 10 empty empty tri 0 0 0 10 -33289 -262144
0;
#X obj 113 232 cnv 10 20 10 empty empty pls 0 0 0 10 -33289 -262144
0;
#N canvas 2097 175 579 744 voice 0;
#X obj 54 569 *~;
#X obj 54 74 unpack f f;
#N canvas 717 263 488 275 VCO2 0;
#X obj -210 7 inlet~;
#X obj -83 89 switch~;
#X obj -83 31 + 1;
#X obj -210 196 outlet~;
#X obj -83 62 == 2;
#X obj -210 88 phasor~;
#X obj -210 142 -~ 0.5;
#X obj -210 169 *~ 2;
#X obj -210 115 expr~ $v1 > 0.5;
#X text -38 30 Der Oscillator ist nur aktiviert \, wenn er in der GUI
ausgewählt ist;
#X text -159 137 Rechteckschwingung;
#X obj -83 7 r \$0-waveform_VCO;
#X connect 0 0 5 0;
#X connect 2 0 4 0;
#X connect 4 0 1 0;
#X connect 5 0 8 0;
#X connect 6 0 7 0;
#X connect 7 0 3 0;
#X connect 8 0 6 0;
#X connect 11 0 2 0;
#X restore 84 269 pd VCO2;
#N canvas 397 255 527 146 VCO3 0;
#X obj -182 -40 inlet~;
#X obj -24 39 switch~;
#X obj -24 -14 + 1;
#X obj -183 65 outlet~;
#X obj -182 -13 phasor~;
#X obj -182 14 -~ 0.5;
#X obj -183 42 *~ 2;
#X text 11 -12 Der Oscillator ist nur aktiviert \, wenn er in der GUI
ausgewählt ist;
#X text -145 29 Sägezahnschwingung;
#X obj -24 12 == 3;
#X obj -24 -37 r \$0-waveform_VCO;
#X connect 0 0 4 0;
#X connect 2 0 9 0;
#X connect 4 0 5 0;
#X connect 5 0 6 0;
#X connect 6 0 3 0;
#X connect 9 0 1 0;
#X connect 10 0 2 0;
#X restore 103 293 pd VCO3;
#N canvas 718 239 456 325 VCO5 0;
#X obj -181 -40 inlet~;
#X obj -99 41 switch~;
#X obj -99 -13 + 1;
#X obj -181 224 outlet~;
#X obj -181 44 phasor~;
#X obj -160 91 *~ -1;
#X obj -160 112 +~ 1;
#X obj -182 152 min~;
#X obj -182 174 *~ 4;
#X obj -182 197 -~ 1;
#X text -153 134 Dreieckschwingung;
#X text -66 -9 Der Oscillator ist nur aktiviert \, wenn er in der GUI
ausgewählt ist;
#X obj -99 14 == 4;
#X obj -99 -33 r \$0-waveform_VCO;
#N canvas 0 0 450 300 (subpatch) 0;
#X array array1 100 float 3 black black;
#A 0 -0.405573 -0.365663 -0.325754 -0.285845 -0.245935 -0.206026 -0.166117
-0.126207 -0.0862978 -0.0463884 -0.00647908 0.0334303 0.0733397 0.113249
0.153158 0.193068 0.232977 0.272887 0.312796 0.352705 0.392615 0.432524
0.472433 0.512343 0.552252 0.592162 0.632071 0.67198 0.71189 0.751799
0.791708 0.831618 0.871527 0.911437 0.951346 0.991255 0.968835 0.928926
0.889017 0.849107 0.809198 0.769288 0.729379 0.68947 0.64956 0.609651
0.569741 0.529832 0.489923 0.450013 0.410104 0.370195 0.330285 0.290376
0.250467 0.210557 0.170648 0.130738 0.0908289 0.0509195 0.0110102 -0.0288992
-0.0688086 -0.108718 -0.148627 -0.188537 -0.228446 -0.268355 -0.308265
-0.348174 -0.388083 -0.427993 -0.467902 -0.507812 -0.547721 -0.587631
-0.62754 -0.667449 -0.707359 -0.747268 -0.787177 -0.827087 -0.866996
-0.906905 -0.946815 -0.986724 -0.973366 -0.933457 -0.893548 -0.853638
-0.813729 -0.77382 -0.73391 -0.694001 -0.654091 -0.614182 -0.574273
-0.534363 -0.494454 -0.454545;
#X coords 0 1 100 -1 200 140 1;
#X restore 169 49 graph;
#X connect 0 0 4 0;
#X connect 2 0 12 0;
#X connect 4 0 5 0;
#X connect 4 0 7 0;
#X connect 5 0 6 0;
#X connect 6 0 7 1;
#X connect 7 0 8 0;
#X connect 8 0 9 0;
#X connect 9 0 3 0;
#X connect 12 0 1 0;
#X connect 13 0 2 0;
#X restore 124 319 pd VCO5;
#N canvas 258 280 557 297 VCO6 0;
#X obj -182 -40 inlet~;
#X obj -2 28 switch~;
#X obj -2 -26 + 1;
#X obj -177 224 outlet~;
#X obj -181 -11 phasor~;
#X obj -180 146 expr~ $v1 > $v2;
#X floatatom -93 85 5 0 100 0 - - -, f 5;
#X obj -93 110 + 0.02;
#X text 34 -22 Der Oscillator ist nur aktiviert \, wenn er in der GUI
ausgewählt ist;
#X text -76 146 Pulsschwingung;
#X text -53 85 Breite des Puls;
#X obj -2 1 == 5;
#X obj -93 56 r \$0-pulse_width_VCO;
#X obj -2 -46 r \$0-waveform_VCO;
#X obj -173 179 -~ 0.5;
#X obj -173 201 *~ 2;
#X connect 0 0 4 0;
#X connect 2 0 11 0;
#X connect 4 0 5 0;
#X connect 5 0 14 0;
#X connect 6 0 7 0;
#X connect 7 0 5 1;
#X connect 11 0 1 0;
#X connect 12 0 6 0;
#X connect 13 0 2 0;
#X connect 14 0 15 0;
#X connect 15 0 3 0;
#X restore 142 345 pd VCO6;
#X obj 54 49 inlet;
#X obj 54 601 outlet~;
#X obj 54 102 sig~;
#X obj 54 131 *~;
#X obj 154 20 r \$0-det;
#X floatatom 156 85 10 0 0 0 - - -, f 10;
#X obj 155 40 / 1098.71;
#X obj 156 63 + 0.942207;
#X obj 241 56 / 63.5;
#X obj 241 82 - 1;
#X obj 241 108 s \$0-detshow;
#X obj 20 27 r \$0-freqshow;
#X obj 425 317 r \$0-att;
#X obj 354 400 r \$0-rel;
#X obj 300 256 r \$0-sus;
#X obj 300 283 / 127;
#X obj 286 516 vline~;
#X obj 227 143 moses 1;
#X floatatom 227 175 5 0 0 0 - - -, f 5;
#X floatatom 285 196 5 0 0 0 - - -, f 5;
#X obj 227 473 pack f f;
#X obj 284 172 / 127;
#X obj 286 451 pack f f f f;
#X msg 286 474 \$1 \$2 \, \$3 \$4 \$2;
#X obj 354 423 * 4;
#X obj 425 343 * 4;
#X obj 425 369 s \$0-attshow;
#X obj 334 312 s \$0-susshow;
#X obj 384 452 s \$0-relshow;
#X obj 286 365 *;
#X obj 286 311 t b f;
#X obj 286 336 f;
#X obj 286 430 f;
#X obj 286 400 t b f;
#X obj 285 219 t f f;
#N canvas 934 253 625 309 voice 0;
#X obj 84 63 inlet~;
#X obj 241 224 switch~;
#X obj 240 88 + 1;
#X obj 84 242 outlet~;
#X obj 240 111 == 1;
#X obj 84 155 osc~;
#X text 125 152 Sinusschwingung;
#X text 282 93 Der Oscillator ist nur aktiviert \, wenn er in der GUI
ausgewählt ist;
#X obj 240 64 r \$0-waveform_VCO;
#X obj 411 59 inlet nr;
#X obj 84 208 *~;
#X obj 126 208 line~;
#X msg 190 186 0 2;
#X msg 191 207 1 2;
#X obj 241 158 route 0 1;
#X msg 240 133 \$1 \$1;
#X obj 241 192 pipe 3;
#X connect 0 0 5 0;
#X connect 2 0 4 0;
#X connect 4 0 15 0;
#X connect 5 0 10 0;
#X connect 8 0 2 0;
#X connect 9 0 4 1;
#X connect 10 0 3 0;
#X connect 11 0 10 1;
#X connect 12 0 11 0;
#X connect 13 0 11 0;
#X connect 14 0 12 0;
#X connect 14 0 16 0;
#X connect 14 1 13 0;
#X connect 14 1 1 0;
#X connect 15 0 14 0;
#X connect 16 0 1 0;
#X restore 55 240 pd voice;
#X obj 99 174 loadbang;
#X msg 99 196 1;
#X connect 0 0 7 0;
#X connect 1 0 8 0;
#X connect 1 1 23 0;
#X connect 2 0 0 0;
#X connect 3 0 0 0;
#X connect 4 0 0 0;
#X connect 5 0 0 0;
#X connect 6 0 1 0;
#X connect 8 0 9 0;
#X connect 9 0 41 0;
#X connect 9 0 2 0;
#X connect 9 0 3 0;
#X connect 9 0 4 0;
#X connect 9 0 5 0;
#X connect 10 0 12 0;
#X connect 10 0 14 0;
#X connect 11 0 9 1;
#X connect 12 0 13 0;
#X connect 13 0 11 0;
#X connect 14 0 15 0;
#X connect 15 0 16 0;
#X connect 17 0 8 0;
#X connect 18 0 31 0;
#X connect 19 0 30 0;
#X connect 20 0 21 0;
#X connect 21 0 33 0;
#X connect 21 0 37 1;
#X connect 22 0 0 1;
#X connect 23 0 24 0;
#X connect 23 1 27 0;
#X connect 24 0 26 0;
#X connect 25 0 40 0;
#X connect 26 0 22 0;
#X connect 27 0 25 0;
#X connect 28 0 29 0;
#X connect 29 0 22 0;
#X connect 30 0 26 1;
#X connect 30 0 28 3;
#X connect 30 0 34 0;
#X connect 31 0 28 1;
#X connect 31 0 32 0;
#X connect 35 0 39 0;
#X connect 36 0 37 0;
#X connect 36 1 35 1;
#X connect 37 0 35 0;
#X connect 38 0 28 0;
#X connect 39 0 38 0;
#X connect 39 1 28 2;
#X connect 40 0 36 0;
#X connect 40 1 38 1;
#X connect 41 0 0 0;
#X connect 42 0 43 0;
#X connect 43 0 41 1;
#X restore 411 372 pd voice 1;
#X obj 432 287 pack 0 0 0;
#X obj 432 317 route 1 2 3 4;
#X obj 432 257 poly 4 1;
#X obj 109 137 tgl 14 0 \$0-on \$0-on_r on 2 -10 0 14 -162280 -260097
-262144 0 28;
#X obj 412 87 r \$0-on;
#X obj 500 158 s \$0-freqshow;
#X obj 412 113 * 127;
#X obj 412 191 pack f f;
#X obj 412 139 t b f;
#X obj 412 165 f;
#X obj 484 193 sel 0;
#X msg 483 221 stop;
#X obj 531 230 route stop;
#X obj 526 265 bng 15 250 50 0 empty empty empty 17 7 0 10 -262144
-1 -1;
#X obj 412 495 *~ 0.25;
#X obj 164 49 inlet;
#X obj 202 49 inlet;
#X obj 240 49 inlet;
#X obj 278 49 inlet;
#X obj 126 49 inlet;
#X obj 316 49 inlet;
#X obj 175 204 hsl 40 15 0 127 0 0 \$0-det \$0-det_r detune 5 -8 0
10 -162280 -260097 -1 1950 1;
#X obj 231 204 nbx 4 14 -1e+037 1e+037 0 0 empty \$0-detshow empty
0 -8 0 11 -99865 -260097 -260097 0 256 0;
#X obj 160 205 bng 12 250 50 0 \$0-nodet \$0-nodet_r empty 17 7 0 10
-262144 -1 -1;
#X obj 171 321 r \$0-nodet;
#X msg 172 347 63.5;
#X obj 173 373 s \$0-det_r;
#X obj 354 49 inlet;
#X obj 499 33 r \$0-Freq;
#X obj 499 96 mtof;
#X obj 499 75 + 21;
#X obj 499 54 / 1.155;
#X obj 498 116 int;
#N canvas 418 123 867 821 voice 0;
#X obj 102 468 *~;
#X obj 55 74 unpack f f;
#N canvas 429 242 526 186 VCO1 0;
#X obj -215 -79 inlet~;
#X obj -59 0 switch~;
#X obj -59 -54 + 1;
#X obj -214 70 outlet~;
#X obj -59 -27 == 1;
#X obj -215 13 osc~;
#X text -174 10 Sinusschwingung;
#X text -17 -49 Der Oscillator ist nur aktiviert \, wenn er in der
GUI ausgewählt ist;
#X obj -59 -78 r \$0-waveform_VCO;
#X connect 0 0 5 0;
#X connect 2 0 4 0;
#X connect 4 0 1 0;
#X connect 5 0 3 0;
#X connect 8 0 2 0;
#X restore 55 240 pd VCO1;
#N canvas 453 243 488 252 VCO2 0;
#X obj -210 7 inlet~;
#X obj -83 89 switch~;
#X obj -83 31 + 1;
#X obj -210 196 outlet~;
#X obj -83 62 == 2;
#X obj -210 88 phasor~;
#X obj -210 142 -~ 0.5;
#X obj -210 169 *~ 2;
#X obj -210 115 expr~ $v1 > 0.5;
#X text -53 25 Der Oscillator ist nur aktiviert \, wenn er in der GUI
ausgewählt ist;
#X text -159 137 Rechteckschwingung;
#X obj -83 7 r \$0-waveform_VCO;
#X connect 0 0 5 0;
#X connect 2 0 4 0;
#X connect 4 0 1 0;
#X connect 5 0 8 0;
#X connect 6 0 7 0;
#X connect 7 0 3 0;
#X connect 8 0 6 0;
#X connect 11 0 2 0;
#X restore 110 240 pd VCO2;
#N canvas 397 255 527 146 VCO3 0;
#X obj -182 -40 inlet~;
#X obj -24 39 switch~;
#X obj -24 -14 + 1;
#X obj -183 65 outlet~;
#X obj -182 -13 phasor~;
#X obj -182 14 -~ 0.5;
#X obj -183 42 *~ 2;
#X text 11 -12 Der Oscillator ist nur aktiviert \, wenn er in der GUI
ausgewählt ist;
#X text -145 29 Sägezahnschwingung;
#X obj -24 12 == 3;
#X obj -24 -37 r \$0-waveform_VCO;
#X connect 0 0 4 0;
#X connect 2 0 9 0;
#X connect 4 0 5 0;
#X connect 5 0 6 0;
#X connect 6 0 3 0;
#X connect 9 0 1 0;
#X connect 10 0 2 0;
#X restore 167 240 pd VCO3;
#N canvas 517 238 456 302 VCO5 0;
#X obj -181 -40 inlet~;
#X obj -99 41 switch~;
#X obj -99 -13 + 1;
#X obj -181 224 outlet~;
#X obj -181 44 phasor~;
#X obj -160 91 *~ -1;
#X obj -160 112 +~ 1;
#X obj -182 152 min~;
#X obj -182 174 *~ 4;
#X obj -182 197 -~ 1;
#X text -153 134 Dreieckschwingung;
#X text -66 -9 Der Oscillator ist nur aktiviert \, wenn er in der GUI
ausgewählt ist;
#X obj -99 14 == 4;
#X obj -99 -33 r \$0-waveform_VCO;
#X connect 0 0 4 0;
#X connect 2 0 12 0;
#X connect 4 0 5 0;
#X connect 4 0 7 0;
#X connect 5 0 6 0;
#X connect 6 0 7 1;
#X connect 7 0 8 0;
#X connect 8 0 9 0;
#X connect 9 0 3 0;
#X connect 12 0 1 0;
#X connect 13 0 2 0;
#X restore 219 240 pd VCO5;
#N canvas 16 174 557 274 VCO6 0;
#X obj -182 -40 inlet~;
#X obj -2 28 switch~;
#X obj -2 -26 + 1;
#X obj -181 184 outlet~;
#X obj -181 -11 phasor~;
#X obj -180 146 expr~ $v1 > $v2;
#X floatatom -93 85 5 0 100 0 - - -, f 5;
#X obj -93 110 + 0.02;
#X text 34 -22 Der Oscillator ist nur aktiviert \, wenn er in der GUI
ausgewählt ist;
#X text -76 146 Pulsschwingung;
#X text -53 85 Breite des Puls;
#X obj -2 1 == 5;
#X obj -93 56 r \$0-pulse_width_VCO;
#X obj -2 -46 r \$0-waveform_VCO;
#X connect 0 0 4 0;
#X connect 2 0 11 0;
#X connect 4 0 5 0;
#X connect 5 0 3 0;
#X connect 6 0 7 0;
#X connect 7 0 5 1;
#X connect 11 0 1 0;
#X connect 12 0 6 0;
#X connect 13 0 2 0;
#X restore 276 240 pd VCO6;
#X obj 76 40 inlet;
#X obj 101 509 outlet~;
#X obj 55 102 sig~;
#X obj 55 131 *~;
#X obj 408 33 r \$0-det;
#X floatatom 410 98 10 0 0 0 - - -, f 10;
#X obj 409 53 / 1098.71;
#X obj 410 76 + 0.942207;
#X obj 310 30 / 63.5;
#X obj 308 56 - 1;
#X obj 301 84 s \$0-detshow;
#X obj 24 8 r \$0-freqshow;
#X obj 394 336 r \$0-att;
#X obj 528 337 r \$0-rel;
#X obj 458 155 r \$0-sus;
#X obj 458 188 / 127;
#X obj 458 605 vline~;
#X obj 694 167 moses 1;
#X floatatom 695 199 5 0 0 0 - - -, f 5;
#X floatatom 748 224 5 0 0 0 - - -, f 5;
#X obj 502 505 pack f f;
#X obj 747 200 / 127;
#X obj 390 453 pack f f f f;
#X msg 372 499 \$1 \$2 \, \$3 \$4 \$2;
#X obj 528 370 * 4;
#X obj 394 369 * 4;
#X obj 392 405 s \$0-attshow;
#X obj 370 235 s \$0-susshow;
#X obj 561 404 s \$0-relshow;
#X obj 475 269 *;
#X obj 491 210 t b f;
#X obj 461 240 f;
#X obj 356 423 f;
#X obj 443 363 t b f;
#X obj 727 255 t f f;
#X connect 0 0 8 0;
#X connect 1 0 9 0;
#X connect 1 1 24 0;
#X connect 2 0 0 0;
#X connect 3 0 0 0;
#X connect 4 0 0 0;
#X connect 5 0 0 0;
#X connect 6 0 0 0;
#X connect 7 0 1 0;
#X connect 9 0 10 0;
#X connect 10 0 2 0;
#X connect 10 0 3 0;
#X connect 10 0 4 0;
#X connect 10 0 5 0;
#X connect 10 0 6 0;
#X connect 11 0 13 0;
#X connect 11 0 15 0;
#X connect 12 0 10 1;
#X connect 13 0 14 0;
#X connect 14 0 12 0;
#X connect 15 0 16 0;
#X connect 16 0 17 0;
#X connect 18 0 9 0;
#X connect 19 0 32 0;
#X connect 20 0 31 0;
#X connect 21 0 22 0;
#X connect 22 0 34 0;
#X connect 22 0 38 1;
#X connect 23 0 0 1;
#X connect 24 0 25 0;
#X connect 24 1 28 0;
#X connect 25 0 27 0;
#X connect 26 0 41 0;
#X connect 27 0 23 0;
#X connect 28 0 26 0;
#X connect 29 0 30 0;
#X connect 30 0 23 0;
#X connect 31 0 27 1;
#X connect 31 0 29 3;
#X connect 31 0 35 0;
#X connect 32 0 29 1;
#X connect 32 0 33 0;
#X connect 36 0 40 0;
#X connect 37 0 38 0;
#X connect 37 1 36 1;
#X connect 38 0 36 0;
#X connect 39 0 29 0;
#X connect 40 0 39 0;
#X connect 40 1 29 2;
#X connect 41 0 37 0;
#X connect 41 1 39 1;
#X restore 449 394 pd voice 2;
#N canvas 418 123 867 821 voice 0;
#X obj 102 468 *~;
#X obj 55 74 unpack f f;
#N canvas 429 242 526 186 VCO1 0;
#X obj -215 -79 inlet~;
#X obj -59 0 switch~;
#X obj -59 -54 + 1;
#X obj -214 70 outlet~;
#X obj -59 -27 == 1;
#X obj -215 13 osc~;
#X text -174 10 Sinusschwingung;
#X text -17 -49 Der Oscillator ist nur aktiviert \, wenn er in der
GUI ausgewählt ist;
#X obj -59 -78 r \$0-waveform_VCO;
#X connect 0 0 5 0;
#X connect 2 0 4 0;
#X connect 4 0 1 0;
#X connect 5 0 3 0;
#X connect 8 0 2 0;
#X restore 55 240 pd VCO1;
#N canvas 453 243 488 252 VCO2 0;
#X obj -210 7 inlet~;
#X obj -83 89 switch~;
#X obj -83 31 + 1;
#X obj -210 196 outlet~;
#X obj -83 62 == 2;
#X obj -210 88 phasor~;
#X obj -210 142 -~ 0.5;
#X obj -210 169 *~ 2;
#X obj -210 115 expr~ $v1 > 0.5;
#X text -53 25 Der Oscillator ist nur aktiviert \, wenn er in der GUI
ausgewählt ist;
#X text -159 137 Rechteckschwingung;
#X obj -83 7 r \$0-waveform_VCO;
#X connect 0 0 5 0;
#X connect 2 0 4 0;
#X connect 4 0 1 0;
#X connect 5 0 8 0;
#X connect 6 0 7 0;
#X connect 7 0 3 0;
#X connect 8 0 6 0;
#X connect 11 0 2 0;
#X restore 110 240 pd VCO2;
#N canvas 397 255 527 146 VCO3 0;
#X obj -182 -40 inlet~;
#X obj -24 39 switch~;
#X obj -24 -14 + 1;
#X obj -183 65 outlet~;
#X obj -182 -13 phasor~;
#X obj -182 14 -~ 0.5;
#X obj -183 42 *~ 2;
#X text 11 -12 Der Oscillator ist nur aktiviert \, wenn er in der GUI
ausgewählt ist;
#X text -145 29 Sägezahnschwingung;
#X obj -24 12 == 3;
#X obj -24 -37 r \$0-waveform_VCO;
#X connect 0 0 4 0;
#X connect 2 0 9 0;
#X connect 4 0 5 0;
#X connect 5 0 6 0;
#X connect 6 0 3 0;
#X connect 9 0 1 0;
#X connect 10 0 2 0;
#X restore 167 240 pd VCO3;
#N canvas 517 238 456 302 VCO5 0;
#X obj -181 -40 inlet~;
#X obj -99 41 switch~;
#X obj -99 -13 + 1;
#X obj -181 224 outlet~;
#X obj -181 44 phasor~;
#X obj -160 91 *~ -1;
#X obj -160 112 +~ 1;
#X obj -182 152 min~;
#X obj -182 174 *~ 4;
#X obj -182 197 -~ 1;
#X text -153 134 Dreieckschwingung;
#X text -66 -9 Der Oscillator ist nur aktiviert \, wenn er in der GUI
ausgewählt ist;
#X obj -99 14 == 4;
#X obj -99 -33 r \$0-waveform_VCO;
#X connect 0 0 4 0;
#X connect 2 0 12 0;
#X connect 4 0 5 0;
#X connect 4 0 7 0;
#X connect 5 0 6 0;
#X connect 6 0 7 1;
#X connect 7 0 8 0;
#X connect 8 0 9 0;
#X connect 9 0 3 0;
#X connect 12 0 1 0;
#X connect 13 0 2 0;
#X restore 219 240 pd VCO5;
#N canvas 16 174 557 274 VCO6 0;
#X obj -182 -40 inlet~;
#X obj -2 28 switch~;
#X obj -2 -26 + 1;
#X obj -181 184 outlet~;
#X obj -181 -11 phasor~;
#X obj -180 146 expr~ $v1 > $v2;
#X floatatom -93 85 5 0 100 0 - - -, f 5;
#X obj -93 110 + 0.02;
#X text 34 -22 Der Oscillator ist nur aktiviert \, wenn er in der GUI
ausgewählt ist;
#X text -76 146 Pulsschwingung;
#X text -53 85 Breite des Puls;
#X obj -2 1 == 5;
#X obj -93 56 r \$0-pulse_width_VCO;
#X obj -2 -46 r \$0-waveform_VCO;
#X connect 0 0 4 0;
#X connect 2 0 11 0;
#X connect 4 0 5 0;
#X connect 5 0 3 0;
#X connect 6 0 7 0;
#X connect 7 0 5 1;
#X connect 11 0 1 0;
#X connect 12 0 6 0;
#X connect 13 0 2 0;
#X restore 276 240 pd VCO6;
#X obj 76 40 inlet;
#X obj 101 509 outlet~;
#X obj 55 102 sig~;
#X obj 55 131 *~;
#X obj 408 33 r \$0-det;
#X floatatom 410 98 10 0 0 0 - - -, f 10;
#X obj 409 53 / 1098.71;
#X obj 410 76 + 0.942207;
#X obj 310 30 / 63.5;
#X obj 308 56 - 1;
#X obj 301 84 s \$0-detshow;
#X obj 24 8 r \$0-freqshow;
#X obj 394 336 r \$0-att;
#X obj 528 337 r \$0-rel;
#X obj 458 155 r \$0-sus;
#X obj 458 188 / 127;
#X obj 458 605 vline~;
#X obj 694 167 moses 1;
#X floatatom 695 199 5 0 0 0 - - -, f 5;
#X floatatom 748 224 5 0 0 0 - - -, f 5;
#X obj 502 505 pack f f;
#X obj 747 200 / 127;
#X obj 390 453 pack f f f f;
#X msg 372 499 \$1 \$2 \, \$3 \$4 \$2;
#X obj 528 370 * 4;
#X obj 394 369 * 4;
#X obj 392 405 s \$0-attshow;
#X obj 370 235 s \$0-susshow;
#X obj 561 404 s \$0-relshow;
#X obj 475 269 *;
#X obj 491 210 t b f;
#X obj 461 240 f;
#X obj 356 423 f;
#X obj 443 363 t b f;
#X obj 727 255 t f f;
#X connect 0 0 8 0;
#X connect 1 0 9 0;
#X connect 1 1 24 0;
#X connect 2 0 0 0;
#X connect 3 0 0 0;
#X connect 4 0 0 0;
#X connect 5 0 0 0;
#X connect 6 0 0 0;
#X connect 7 0 1 0;
#X connect 9 0 10 0;
#X connect 10 0 2 0;
#X connect 10 0 3 0;
#X connect 10 0 4 0;
#X connect 10 0 5 0;
#X connect 10 0 6 0;
#X connect 11 0 13 0;
#X connect 11 0 15 0;
#X connect 12 0 10 1;
#X connect 13 0 14 0;
#X connect 14 0 12 0;
#X connect 15 0 16 0;
#X connect 16 0 17 0;
#X connect 18 0 9 0;
#X connect 19 0 32 0;
#X connect 20 0 31 0;
#X connect 21 0 22 0;
#X connect 22 0 34 0;
#X connect 22 0 38 1;
#X connect 23 0 0 1;
#X connect 24 0 25 0;
#X connect 24 1 28 0;
#X connect 25 0 27 0;
#X connect 26 0 41 0;
#X connect 27 0 23 0;
#X connect 28 0 26 0;
#X connect 29 0 30 0;
#X connect 30 0 23 0;
#X connect 31 0 27 1;
#X connect 31 0 29 3;
#X connect 31 0 35 0;
#X connect 32 0 29 1;
#X connect 32 0 33 0;
#X connect 36 0 40 0;
#X connect 37 0 38 0;
#X connect 37 1 36 1;
#X connect 38 0 36 0;
#X connect 39 0 29 0;
#X connect 40 0 39 0;
#X connect 40 1 29 2;
#X connect 41 0 37 0;
#X connect 41 1 39 1;
#X restore 468 419 pd voice 3;
#N canvas 418 123 867 821 voice 0;
#X obj 102 468 *~;
#X obj 55 74 unpack f f;
#N canvas 429 242 526 186 VCO1 0;
#X obj -215 -79 inlet~;
#X obj -59 0 switch~;
#X obj -59 -54 + 1;
#X obj -214 70 outlet~;
#X obj -59 -27 == 1;
#X obj -215 13 osc~;
#X text -174 10 Sinusschwingung;
#X text -17 -49 Der Oscillator ist nur aktiviert \, wenn er in der
GUI ausgewählt ist;
#X obj -59 -78 r \$0-waveform_VCO;
#X connect 0 0 5 0;
#X connect 2 0 4 0;
#X connect 4 0 1 0;
#X connect 5 0 3 0;
#X connect 8 0 2 0;
#X restore 55 240 pd VCO1;
#N canvas 453 243 488 252 VCO2 0;
#X obj -210 7 inlet~;
#X obj -83 89 switch~;
#X obj -83 31 + 1;
#X obj -210 196 outlet~;
#X obj -83 62 == 2;
#X obj -210 88 phasor~;
#X obj -210 142 -~ 0.5;
#X obj -210 169 *~ 2;
#X obj -210 115 expr~ $v1 > 0.5;
#X text -53 25 Der Oscillator ist nur aktiviert \, wenn er in der GUI
ausgewählt ist;
#X text -159 137 Rechteckschwingung;
#X obj -83 7 r \$0-waveform_VCO;
#X connect 0 0 5 0;
#X connect 2 0 4 0;
#X connect 4 0 1 0;
#X connect 5 0 8 0;
#X connect 6 0 7 0;
#X connect 7 0 3 0;
#X connect 8 0 6 0;
#X connect 11 0 2 0;
#X restore 110 240 pd VCO2;
#N canvas 397 255 527 146 VCO3 0;
#X obj -182 -40 inlet~;
#X obj -24 39 switch~;
#X obj -24 -14 + 1;
#X obj -183 65 outlet~;
#X obj -182 -13 phasor~;
#X obj -182 14 -~ 0.5;
#X obj -183 42 *~ 2;
#X text 11 -12 Der Oscillator ist nur aktiviert \, wenn er in der GUI
ausgewählt ist;
#X text -145 29 Sägezahnschwingung;
#X obj -24 12 == 3;
#X obj -24 -37 r \$0-waveform_VCO;
#X connect 0 0 4 0;
#X connect 2 0 9 0;
#X connect 4 0 5 0;
#X connect 5 0 6 0;
#X connect 6 0 3 0;
#X connect 9 0 1 0;
#X connect 10 0 2 0;
#X restore 167 240 pd VCO3;
#N canvas 517 238 456 302 VCO5 0;
#X obj -181 -40 inlet~;
#X obj -99 41 switch~;
#X obj -99 -13 + 1;
#X obj -181 224 outlet~;
#X obj -181 44 phasor~;
#X obj -160 91 *~ -1;
#X obj -160 112 +~ 1;
#X obj -182 152 min~;
#X obj -182 174 *~ 4;
#X obj -182 197 -~ 1;
#X text -153 134 Dreieckschwingung;
#X text -66 -9 Der Oscillator ist nur aktiviert \, wenn er in der GUI
ausgewählt ist;
#X obj -99 14 == 4;
#X obj -99 -33 r \$0-waveform_VCO;
#X connect 0 0 4 0;
#X connect 2 0 12 0;
#X connect 4 0 5 0;
#X connect 4 0 7 0;
#X connect 5 0 6 0;
#X connect 6 0 7 1;
#X connect 7 0 8 0;
#X connect 8 0 9 0;
#X connect 9 0 3 0;
#X connect 12 0 1 0;
#X connect 13 0 2 0;
#X restore 219 240 pd VCO5;
#N canvas 16 174 557 274 VCO6 0;
#X obj -182 -40 inlet~;
#X obj -2 28 switch~;
#X obj -2 -26 + 1;
#X obj -181 184 outlet~;
#X obj -181 -11 phasor~;
#X obj -180 146 expr~ $v1 > $v2;
#X floatatom -93 85 5 0 100 0 - - -, f 5;
#X obj -93 110 + 0.02;
#X text 34 -22 Der Oscillator ist nur aktiviert \, wenn er in der GUI
ausgewählt ist;
#X text -76 146 Pulsschwingung;
#X text -53 85 Breite des Puls;
#X obj -2 1 == 5;
#X obj -93 56 r \$0-pulse_width_VCO;
#X obj -2 -46 r \$0-waveform_VCO;
#X connect 0 0 4 0;
#X connect 2 0 11 0;
#X connect 4 0 5 0;
#X connect 5 0 3 0;
#X connect 6 0 7 0;
#X connect 7 0 5 1;
#X connect 11 0 1 0;
#X connect 12 0 6 0;
#X connect 13 0 2 0;
#X restore 276 240 pd VCO6;
#X obj 76 40 inlet;
#X obj 101 509 outlet~;
#X obj 55 102 sig~;
#X obj 55 131 *~;
#X obj 408 33 r \$0-det;
#X floatatom 410 98 10 0 0 0 - - -, f 10;
#X obj 409 53 / 1098.71;
#X obj 410 76 + 0.942207;
#X obj 310 30 / 63.5;
#X obj 308 56 - 1;
#X obj 301 84 s \$0-detshow;
#X obj 24 8 r \$0-freqshow;
#X obj 394 336 r \$0-att;
#X obj 528 337 r \$0-rel;
#X obj 458 155 r \$0-sus;
#X obj 458 188 / 127;
#X obj 458 605 vline~;
#X obj 694 167 moses 1;
#X floatatom 695 199 5 0 0 0 - - -, f 5;
#X floatatom 748 224 5 0 0 0 - - -, f 5;
#X obj 502 505 pack f f;
#X obj 747 200 / 127;
#X obj 390 453 pack f f f f;
#X msg 372 499 \$1 \$2 \, \$3 \$4 \$2;
#X obj 528 370 * 4;
#X obj 394 369 * 4;
#X obj 392 405 s \$0-attshow;
#X obj 370 235 s \$0-susshow;
#X obj 561 404 s \$0-relshow;
#X obj 475 269 *;
#X obj 491 210 t b f;
#X obj 461 240 f;
#X obj 356 423 f;
#X obj 443 363 t b f;
#X obj 727 255 t f f;
#X connect 0 0 8 0;
#X connect 1 0 9 0;
#X connect 1 1 24 0;
#X connect 2 0 0 0;
#X connect 3 0 0 0;
#X connect 4 0 0 0;
#X connect 5 0 0 0;
#X connect 6 0 0 0;
#X connect 7 0 1 0;
#X connect 9 0 10 0;
#X connect 10 0 2 0;
#X connect 10 0 3 0;
#X connect 10 0 4 0;
#X connect 10 0 5 0;
#X connect 10 0 6 0;
#X connect 11 0 13 0;
#X connect 11 0 15 0;
#X connect 12 0 10 1;
#X connect 13 0 14 0;
#X connect 14 0 12 0;
#X connect 15 0 16 0;
#X connect 16 0 17 0;
#X connect 18 0 9 0;
#X connect 19 0 32 0;
#X connect 20 0 31 0;
#X connect 21 0 22 0;
#X connect 22 0 34 0;
#X connect 22 0 38 1;
#X connect 23 0 0 1;
#X connect 24 0 25 0;
#X connect 24 1 28 0;
#X connect 25 0 27 0;
#X connect 26 0 41 0;
#X connect 27 0 23 0;
#X connect 28 0 26 0;
#X connect 29 0 30 0;
#X connect 30 0 23 0;
#X connect 31 0 27 1;
#X connect 31 0 29 3;
#X connect 31 0 35 0;
#X connect 32 0 29 1;
#X connect 32 0 33 0;
#X connect 36 0 40 0;
#X connect 37 0 38 0;
#X connect 37 1 36 1;
#X connect 38 0 36 0;
#X connect 39 0 29 0;
#X connect 40 0 39 0;
#X connect 40 1 29 2;
#X connect 41 0 37 0;
#X connect 41 1 39 1;
#X restore 487 445 pd voice 4;
#N canvas 1957 175 758 567 save 0;
#X obj 66 230 r toolssavebank;
#X obj 316 225 r toolssavebang;
#X obj 494 404 f;
#X obj 385 404 f;
#X obj 316 495 s toolssavelists;
#X obj 316 295 f;
#X obj 67 285 route;
#X obj 423 187 loadbang;
#X obj 424 243 \$1;
#X obj 423 215 del 5;
#X obj 316 260 del;
#X obj 564 404 f;
#X obj 69 369 s \$0-Freq_r;
#X obj 85 395 s \$0-att_r;
#X obj 114 418 s \$0-rel_r;
#X obj 129 440 s \$0-sus_r;
#X obj 143 467 s \$0-pulse_width_VCO_r;
#X obj 64 342 s \$0-waveform_VCO_in;
#X obj 509 367 r \$0-Freq;
#X obj 570 367 r \$0-att;
#X obj 625 367 r \$0-rel;
#X obj 680 367 r \$0-sus;
#X obj 735 367 r \$0-pulse_width_VCO;
#X obj 654 404 f;
#X obj 599 404 f;
#X obj 726 404 f;
#X obj 316 365 symbol osci;
#X obj 67 255 route osci;
#X obj 394 367 r \$0-waveform_VCO;
#X obj 316 330 t b f b b b b b b b;
#X obj 316 460 pack s f f f f f f f f;
#X obj 868 367 r \$0-det;
#X obj 803 404 f;
#X obj 66 309 unpack f f f f f f f;
#X obj 173 490 s \$0-det_r;
#X connect 0 0 27 0;
#X connect 1 0 10 0;
#X connect 2 0 30 3;
#X connect 3 0 30 2;
#X connect 5 0 29 0;
#X connect 6 0 33 0;
#X connect 7 0 9 0;
#X connect 8 0 5 1;
#X connect 8 0 6 1;
#X connect 8 0 10 1;
#X connect 9 0 8 0;
#X connect 10 0 5 0;
#X connect 11 0 30 4;
#X connect 18 0 2 1;
#X connect 19 0 11 1;
#X connect 20 0 24 1;
#X connect 21 0 23 1;
#X connect 22 0 25 1;
#X connect 23 0 30 6;
#X connect 24 0 30 5;
#X connect 25 0 30 7;
#X connect 26 0 30 0;
#X connect 27 0 6 0;
#X connect 28 0 3 1;
#X connect 29 0 26 0;
#X connect 29 1 30 1;
#X connect 29 2 3 0;
#X connect 29 3 2 0;
#X connect 29 4 11 0;
#X connect 29 5 24 0;
#X connect 29 6 23 0;
#X connect 29 7 25 0;
#X connect 29 8 32 0;
#X connect 30 0 4 0;
#X connect 31 0 32 1;
#X connect 32 0 30 8;
#X connect 33 0 17 0;
#X connect 33 1 12 0;
#X connect 33 2 13 0;
#X connect 33 3 14 0;
#X connect 33 4 15 0;
#X connect 33 5 16 0;
#X connect 33 6 34 0;
#X restore 97 340 pd save;
#N canvas 2043 343 450 323 init 0;
#X obj 60 42 loadbang;
#X obj 71 140 s \$0-Freq_r;
#X obj 148 143 s \$0-att_r;
#X obj 154 161 s \$0-rel_r;
#X msg 191 97 63.5;
#X obj 191 118 s \$0-sus_r;
#X msg 150 122 1.258;
#X obj 221 164 s \$0-pulse_width_VCO_r;
#X msg 218 143 0.501;
#X msg 60 77 0;
#X obj 58 98 s \$0-waveform_VCO_in;
#X obj 253 119 s \$0-det_r;
#X msg 253 97 63.5;
#X msg 72 119 55.4462;
#X connect 0 0 13 0;
#X connect 0 0 6 0;
#X connect 0 0 4 0;
#X connect 0 0 8 0;
#X connect 0 0 9 0;
#X connect 0 0 12 0;
#X connect 4 0 5 0;
#X connect 6 0 2 0;
#X connect 6 0 3 0;
#X connect 8 0 7 0;
#X connect 9 0 10 0;
#X connect 12 0 11 0;
#X connect 13 0 1 0;
#X restore 96 316 pd init;
#X obj 170 143 hsl 50 15 0 127 0 0 \$0-sus \$0-sus_r Sustain -2 -8
0 10 -133153 -260113 -1 0 1;
#X connect 12 0 22 0;
#X connect 12 0 32 0;
#X connect 19 0 34 0;
#X connect 20 0 21 0;
#X connect 21 0 19 0;
#X connect 21 1 53 0;
#X connect 21 2 54 0;
#X connect 21 3 55 0;
#X connect 22 0 20 0;
#X connect 22 1 20 1;
#X connect 22 2 20 2;
#X connect 24 0 26 0;
#X connect 24 0 30 0;
#X connect 26 0 28 0;
#X connect 27 0 19 0;
#X connect 28 0 29 0;
#X connect 28 1 27 1;
#X connect 29 0 27 0;
#X connect 30 0 31 0;
#X connect 31 0 22 0;
#X connect 32 0 33 0;
#X connect 33 0 31 0;
#X connect 34 0 13 0;
#X connect 35 0 9 0;
#X connect 36 0 4 0;
#X connect 37 0 58 0;
#X connect 38 0 6 0;
#X connect 39 0 23 0;
#X connect 40 0 3 0;
#X connect 44 0 45 0;
#X connect 45 0 46 0;
#X connect 47 0 41 0;
#X connect 48 0 51 0;
#X connect 49 0 52 0;
#X connect 50 0 49 0;
#X connect 51 0 50 0;
#X connect 52 0 29 1;
#X connect 52 0 25 0;
#X connect 53 0 34 0;
#X connect 54 0 34 0;
#X connect 55 0 34 0;
#X coords 0 -1 1 1 194 154 1 100 100;
