#N canvas 196 8 892 938 10;
#X obj 270 195 cnv 15 252 31 empty empty empty 20 12 0 14 -2293 -66577
0;
#X obj 353 839 outlet acitve_metro;
#X obj 353 553 f;
#X floatatom 394 208 5 30 1000 2 bpm - -, f 5;
#X floatatom 665 164 5 0 0 0 - - -, f 5;
#X obj 209 50 inlet metro_start_and_tempo;
#X obj 324 127 unpack f f;
#X obj 324 208 tgl 15 0 \$0-start empty on 0 -10 0 10 -262144 -1 -1
0 1;
#X obj 410 103 loadbang;
#X obj 353 524 metro;
#X obj 270 207 bng 15 150 15 0 empty \$0-metro_tick empty 17 7 0 10
-2292 -186725 -262144;
#X floatatom 466 208 5 0 0 2 beats - -, f 5;
#X msg 441 125 4;
#X obj 208 611 f;
#X obj 237 610 + 1;
#X msg 148 565 0;
#X obj 208 637 %;
#X floatatom 208 659 5 0 0 0 - - -, f 5;
#X obj 228 688 sel;
#X floatatom 276 621 5 0 0 0 - - -, f 5;
#X obj 243 660 - 1;
#X obj 104 630 bng 15 250 50 0 empty empty empty 17 7 0 10 -262144
-1 -1;
#X floatatom 290 207 3 0 0 0 - - -, f 3;
#X obj 120 328 r \$0-start;
#X obj 353 504 tgl 15 0 empty empty empty 17 7 0 10 -262144 -1 -1 0
1;
#X obj 448 495 spigot;
#X msg 509 452 1;
#X msg 448 517 0;
#X obj 448 539 t f f;
#X msg 399 735 1;
#X msg 433 734 0;
#X obj 120 355 t f f;
#X obj 147 435 sel 1;
#X obj 343 208 bng 15 250 50 0 empty empty res 0 -10 0 10 -262144 -1
-1;
#X floatatom 430 208 5 0 0 2 ms - -, f 5;
#X floatatom 667 235 5 0 0 0 - - -, f 5;
#X obj 665 184 expr 60000 / $f1;
#X obj 667 213 expr 1 / $f1 * 60000;
#X msg 668 260 set \$1;
#X obj 147 460 spigot;
#X floatatom 241 564 5 0 0 0 - - -, f 5;
#X obj 189 327 t b b b b;
#X msg 191 419 1;
#X msg 207 443 0;
#X obj 198 398 loadbang;
#X msg 280 363 1;
#X obj 223 585 f;
#X obj 372 208 bng 15 250 50 0 empty empty tap 0 -10 0 10 -262144 -1
-1;
#N canvas 2575 324 748 561 beeps 0;
#X obj 57 41 inlet notes;
#N canvas 172 286 622 516 metro_beep 0;
#X obj 303 114 bng 15 50 20 0 empty empty empty 17 7 0 10 -262144 -1
-1;
#X obj 303 226 line~;
#X msg 303 138 1 1;
#X msg 303 204 0 1;
#X obj 288 251 *~;
#X obj 215 339 *~;
#X obj 340 328 sig~;
#X obj 215 361 dac~;
#X floatatom 339 159 5 0 0 0 - - -, f 5;
#X obj 380 300 hsl 128 15 0 1 0 0 empty empty empty -2 -8 0 10 -262144
-1 -1 635 1;
#X floatatom 415 343 5 0 0 0 - - -, f 5;
#X obj 242 181 osc~ 330;
#X obj 303 182 delay;
#X obj 303 160 t b;
#X obj 164 227 line~;
#X msg 164 139 1 1;
#X msg 164 205 0 1;
#X obj 149 252 *~;
#X floatatom 200 160 5 0 0 0 - - -, f 5;
#X obj 164 183 delay;
#X obj 164 161 t b;
#X obj 215 287 +~;
#X obj 163 114 bng 15 50 20 0 empty empty empty 17 7 0 10 -262144 -1
-1;
#X obj 103 181 osc~ 440;
#X floatatom 345 72 5 0 0 0 - - -, f 5;
#X obj 346 47 nbx 5 14 -1e+037 1e+037 0 1 empty empty empty 0 -8 0
10 -262144 -1 -1 50 256 0;
#X obj 153 21 inlet;
#X obj 163 62 sel 0;
#X floatatom 475 280 5 0 0 0 - - -, f 5;
#X obj 475 27 inlet;
#X obj 407 26 inlet vol;
#X obj 485 358 + 100;
#X connect 0 0 2 0;
#X connect 1 0 4 1;
#X connect 2 0 1 0;
#X connect 2 0 13 0;
#X connect 3 0 1 0;
#X connect 4 0 21 1;
#X connect 5 0 7 0;
#X connect 6 0 5 1;
#X connect 8 0 12 1;
#X connect 9 0 6 0;
#X connect 9 0 10 0;
#X connect 11 0 4 0;
#X connect 12 0 3 0;
#X connect 13 0 12 0;
#X connect 14 0 17 1;
#X connect 15 0 14 0;
#X connect 15 0 20 0;
#X connect 16 0 14 0;
#X connect 17 0 21 0;
#X connect 18 0 19 1;
#X connect 19 0 16 0;
#X connect 20 0 19 0;
#X connect 21 0 5 0;
#X connect 22 0 15 0;
#X connect 23 0 17 0;
#X connect 24 0 18 0;
#X connect 24 0 8 0;
#X connect 25 0 24 0;
#X connect 26 0 27 0;
#X connect 27 0 22 0;
#X connect 27 1 0 0;
#X connect 28 0 11 0;
#X connect 28 0 31 0;
#X connect 29 0 28 0;
#X connect 30 0 9 0;
#X connect 31 0 23 0;
#X coords 0 -1 1 1 140 41 1 377 277;
#X restore 57 149 pd metro_beep;
#X obj 189 102 bng 15 250 50 0 empty empty empty 17 7 0 10 -262144
-1 -1;
#X obj 139 61 loadbang;
#X obj 280 72 tgl 15 0 empty empty empty 17 7 0 10 -262144 -1 -1 0
1;
#X obj 298 94 switch~;
#X msg 190 122 440;
#X obj 243 24 inlet on;
#X msg 57 92 \$2;
#X msg 123 119 0.05;
#X obj 275 225 t b b;
#X obj 274 275 nbx 8 19 -1e+037 1e+037 0 0 empty empty empty 0 -8 0
15 -262144 -1 -1 0 256 0;
#X obj 273 248 realtime;
#X obj 316 338 f;
#X obj 276 307 t f f b;
#X obj 302 364 -;
#X floatatom 304 443 17 0 0 0 - - -, f 17;
#X obj 302 386 int;
#X obj 275 202 spigot;
#X obj 310 177 tgl 15 0 empty empty empty 17 7 0 10 -262144 -1 -1 0
1;
#X connect 0 0 8 0;
#X connect 2 0 6 0;
#X connect 3 0 9 0;
#X connect 3 0 2 0;
#X connect 4 0 5 0;
#X connect 6 0 1 2;
#X connect 7 0 4 0;
#X connect 8 0 1 0;
#X connect 8 0 18 0;
#X connect 9 0 1 1;
#X connect 10 0 12 0;
#X connect 10 1 12 1;
#X connect 11 0 14 0;
#X connect 12 0 11 0;
#X connect 13 0 15 1;
#X connect 14 0 13 1;
#X connect 14 1 15 0;
#X connect 14 2 13 0;
#X connect 15 0 17 0;
#X connect 17 0 16 0;
#X connect 18 0 10 0;
#X connect 19 0 18 1;
#X coords 0 -1 1 1 92 38 1 274 53;
#X restore 529 791 pd beeps;
#X obj 502 208 tgl 15 0 empty empty snd 0 -10 0 10 -262144 -1 -1 0
1;
#X obj 398 709 loadbang;
#X obj 359 284 spigot;
#X obj 208 717 s \$0-beat;
#X obj 376 758 r \$0-beat;
#X obj 292 164 r \$0-beat;
#X obj 353 787 pack f f f f;
#X floatatom 363 400 5 0 0 0 - - -, f 5;
#X msg 363 451 1;
#X obj 394 50 inlet tempo;
#X obj 466 49 inlet beats;
#X obj 672 330 r \$0-beat;
#X obj 672 352 s \$0-metro_tick;
#N canvas 303 135 410 324 colors 0;
#X obj 68 207 s \$0-metro_tick;
#X msg 69 179 color \$1 \$2 0;
#X msg 132 120 -101584;
#X obj 132 147 pack f f;
#X obj 132 93 t b b;
#X obj 132 72 bng 15 250 50 0 empty empty empty 17 7 0 10 -262144 -1
-1;
#X msg 185 122 -1.19661e+007;
#X obj 134 52 loadbang;
#X connect 1 0 0 0;
#X connect 2 0 3 0;
#X connect 3 0 1 0;
#X connect 4 0 2 0;
#X connect 4 1 6 0;
#X connect 5 0 4 0;
#X connect 6 0 3 1;
#X connect 7 0 5 0;
#X restore 672 385 pd colors;
#X obj 380 503 t f f;
#X obj 172 823 spigot;
#X obj 172 845 print;
#X obj 201 797 tgl 15 0 empty empty empty 17 7 0 10 -262144 -1 -1 0
1;
#X floatatom 481 475 5 0 0 0 - - -, f 5;
#X floatatom 409 285 5 0 0 0 - - -, f 5;
#X obj 392 259 == 0;
#X obj 209 77 route 2;
#X obj 209 277 spigot;
#X floatatom 254 277 5 0 0 0 - - -, f 5;
#X obj 242 254 == 0;
#X obj 363 425 sel 1;
#X obj 353 576 t f b;
#X msg 410 125 90;
#X obj 394 153 max 30;
#X obj 600 459 change;
#X obj 600 501 del 1;
#X obj 646 459 change;
#X obj 600 480 t b;
#X msg 600 522 update -1;
#X connect 2 0 75 0;
#X connect 3 0 4 0;
#X connect 3 0 78 0;
#X connect 3 0 80 0;
#X connect 4 0 36 0;
#X connect 5 0 70 0;
#X connect 6 0 7 0;
#X connect 6 1 77 0;
#X connect 7 0 69 0;
#X connect 7 0 73 0;
#X connect 8 0 76 0;
#X connect 8 0 12 0;
#X connect 9 0 25 0;
#X connect 9 0 2 0;
#X connect 11 0 55 3;
#X connect 11 0 19 0;
#X connect 12 0 11 0;
#X connect 13 0 14 0;
#X connect 13 0 16 0;
#X connect 13 0 40 0;
#X connect 14 0 13 1;
#X connect 15 0 13 1;
#X connect 16 0 17 0;
#X connect 17 0 18 0;
#X connect 17 0 52 0;
#X connect 18 0 21 0;
#X connect 19 0 16 1;
#X connect 19 0 20 0;
#X connect 20 0 18 1;
#X connect 21 0 15 0;
#X connect 23 0 31 0;
#X connect 24 0 9 0;
#X connect 25 0 27 0;
#X connect 26 0 30 0;
#X connect 26 0 67 0;
#X connect 27 0 28 0;
#X connect 28 0 67 0;
#X connect 28 1 24 0;
#X connect 29 0 55 2;
#X connect 30 0 55 2;
#X connect 31 0 56 0;
#X connect 31 1 32 0;
#X connect 31 1 29 0;
#X connect 32 0 39 0;
#X connect 33 0 51 0;
#X connect 33 0 24 0;
#X connect 34 0 37 0;
#X connect 34 0 63 0;
#X connect 35 0 38 0;
#X connect 36 0 34 0;
#X connect 37 0 35 0;
#X connect 38 0 3 0;
#X connect 39 0 15 0;
#X connect 40 0 46 1;
#X connect 41 0 42 0;
#X connect 41 1 45 0;
#X connect 41 2 46 0;
#X connect 41 3 43 0;
#X connect 42 0 39 1;
#X connect 43 0 39 1;
#X connect 44 0 42 0;
#X connect 45 0 7 0;
#X connect 46 0 13 1;
#X connect 49 0 48 1;
#X connect 50 0 29 0;
#X connect 51 0 41 0;
#X connect 53 0 55 1;
#X connect 54 0 22 0;
#X connect 55 0 48 0;
#X connect 55 0 1 0;
#X connect 55 0 64 0;
#X connect 56 0 74 0;
#X connect 57 0 24 0;
#X connect 58 0 77 0;
#X connect 59 0 11 0;
#X connect 60 0 61 0;
#X connect 63 0 9 1;
#X connect 63 1 2 1;
#X connect 64 0 65 0;
#X connect 66 0 64 1;
#X connect 67 0 25 1;
#X connect 69 0 51 1;
#X connect 69 0 68 0;
#X connect 70 0 3 0;
#X connect 70 0 71 0;
#X connect 70 1 6 0;
#X connect 71 0 45 0;
#X connect 73 0 71 1;
#X connect 73 0 72 0;
#X connect 74 0 57 0;
#X connect 74 1 26 0;
#X connect 75 0 55 0;
#X connect 75 1 13 0;
#X connect 76 0 3 0;
#X connect 77 0 3 0;
#X connect 78 0 81 0;
#X connect 79 0 82 0;
#X connect 80 0 81 0;
#X connect 81 0 79 0;
#X connect 82 0 1 0;
#X coords 0 -1 1 1 256 35 1 268 193;
