#N canvas 421 46 363 421 10;
#X obj 197 217 cos~;
#X obj 139 217 cos~;
#X obj 180 303 outlet~ rechts;
#X obj 64 303 outlet~ links;
#X obj 155 33 inlet pan;
#X obj 29 32 inlet~ mono signal;
#X obj 183 243 *~;
#X obj 122 244 *~;
#X obj 154 139 pack f f;
#X obj 155 162 line~;
#X obj 197 196 +~ 0.75;
#X obj 154 117 t f 4;
#X obj 155 74 + 1;
#X obj 155 96 / 8;
#X connect 0 0 6 1;
#X connect 1 0 7 1;
#X connect 4 0 12 0;
#X connect 5 0 7 0;
#X connect 5 0 6 0;
#X connect 6 0 2 0;
#X connect 7 0 3 0;
#X connect 8 0 9 0;
#X connect 9 0 1 0;
#X connect 9 0 10 0;
#X connect 10 0 0 0;
#X connect 11 0 8 0;
#X connect 11 1 8 1;
#X connect 12 0 13 0;
#X connect 13 0 11 0;
#X coords 0 0 1 1 142 36 0;
