#N canvas 272 290 831 305 10;
#X obj 54 52 pack 0 0;
#X obj 144 52 pack 0 1;
#X obj 234 52 pack 0 2;
#X obj 324 52 pack 0 3;
#X obj 414 52 pack 0 4;
#X obj 504 52 pack 0 5;
#X obj 594 52 pack 0 6;
#X obj 684 52 pack 0 7;
#X obj 54 32 r \$1-eg\$2-L.s;
#X obj 144 32 r \$1-eg\$2-R1.s;
#X obj 234 32 r \$1-eg\$2-L2.s;
#X obj 324 32 r \$1-eg\$2-R2.s;
#X obj 414 32 r \$1-eg\$2-L3.s;
#X obj 504 32 r \$1-eg2-R3.s;
#X obj 594 32 r \$1-eg2-L4.s;
#X obj 684 32 r \$1-eg\$2-R4.s;
#X obj 54 222 tabwrite \$1-eg\$2;
#X obj 54 242 table \$1-eg\$2 8;
#X obj 594 209 array get;
#X obj 594 152 t b b;
#X msg 645 189 symbol \$1-eg\$2;
#X obj 594 229 list prepend 0;
#X obj 594 132 r \$1-eg\$2-copy.s;
#X obj 645 169 pack \$1 \$2;
#X obj 594 249 s \$1-eg-buffer;
#X connect 0 0 16 0;
#X connect 1 0 16 0;
#X connect 2 0 16 0;
#X connect 3 0 16 0;
#X connect 4 0 16 0;
#X connect 5 0 16 0;
#X connect 6 0 16 0;
#X connect 7 0 16 0;
#X connect 8 0 0 0;
#X connect 9 0 1 0;
#X connect 10 0 2 0;
#X connect 11 0 3 0;
#X connect 12 0 4 0;
#X connect 13 0 5 0;
#X connect 14 0 6 0;
#X connect 15 0 7 0;
#X connect 18 0 21 0;
#X connect 19 0 18 0;
#X connect 19 1 23 0;
#X connect 20 0 18 2;
#X connect 21 0 24 0;
#X connect 22 0 19 0;
#X connect 23 0 20 0;
