#N canvas 40 33 1090 680 10;
#X obj 21 130 inlet;
#X obj 21 150 sel 0;
#X msg 48 340 stop;
#X obj 253 551 outlet~;
#X obj 253 307 f;
#X obj 280 357 del;
#X obj 253 417 pack 0 0;
#X obj 463 307 f;
#X obj 490 357 del;
#X obj 463 417 pack 0 0;
#X obj 673 307 f;
#X obj 673 417 pack 0 0;
#X obj 883 297 f;
#X obj 883 417 pack 0 0;
#X obj 283 167 inlet eg-L1;
#X obj 363 167 inlet eg-R1;
#X obj 783 167 inlet eg-R3;
#X obj 703 167 inlet eg-L3;
#X obj 993 167 inlet eg-R4;
#X obj 913 167 inlet eg-L4;
#X obj 573 167 inlet eg-R2;
#X obj 493 167 inlet eg-L2;
#X obj 253 531 vline~;
#X obj 700 357 del;
#X obj 87 122 spigot;
#X obj 157 122 spigot;
#X obj 150 82 == 1;
#X obj 200 82 == 2;
#X obj 21 250 t b b;
#X obj 150 42 inlet;
#X text 243 30 modes:;
#X text 243 40 ----------------;
#X obj 753 397 s \$0-mode;
#X text 19 110 velocity;
#X text 243 50 0 = sustain (L3);
#X text 243 70 1 = auto release (L3 -> L4);
#X text 243 90 2 = loop (L3 -> L1);
#X obj 48 180 t b b f;
#X obj 898 197 *;
#X obj 688 197 *;
#X obj 478 197 *;
#X obj 268 197 *;
#X msg 67 440 0 5;
#X obj 101 210 del 5;
#X obj 783 207 t f f;
#X obj 573 207 t f f;
#X obj 363 207 t f f;
#X obj 253 327 t f b;
#X obj 463 327 t f b;
#X obj 673 327 t f b;
#X obj 150 62 t f f;
#X obj 87 42 r \$0-mode;
#X obj 87 62 t f f;
#X connect 0 0 1 0;
#X connect 1 0 28 0;
#X connect 1 1 37 0;
#X connect 2 0 5 0;
#X connect 2 0 23 0;
#X connect 4 0 47 0;
#X connect 5 0 7 0;
#X connect 6 0 22 0;
#X connect 7 0 48 0;
#X connect 8 0 10 0;
#X connect 9 0 22 0;
#X connect 10 0 49 0;
#X connect 11 0 22 0;
#X connect 12 0 13 0;
#X connect 13 0 22 0;
#X connect 14 0 41 1;
#X connect 15 0 46 0;
#X connect 16 0 44 0;
#X connect 17 0 39 1;
#X connect 18 0 13 1;
#X connect 19 0 38 1;
#X connect 20 0 45 0;
#X connect 21 0 40 1;
#X connect 22 0 3 0;
#X connect 23 0 32 0;
#X connect 24 0 12 0;
#X connect 25 0 4 0;
#X connect 26 0 24 1;
#X connect 27 0 25 1;
#X connect 28 0 12 0;
#X connect 28 1 2 0;
#X connect 29 0 50 0;
#X connect 37 0 43 0;
#X connect 37 1 42 0;
#X connect 37 2 38 0;
#X connect 37 2 39 0;
#X connect 37 2 40 0;
#X connect 37 2 41 0;
#X connect 38 0 12 1;
#X connect 39 0 10 1;
#X connect 40 0 7 1;
#X connect 41 0 4 1;
#X connect 42 0 22 0;
#X connect 43 0 4 0;
#X connect 44 0 23 1;
#X connect 44 1 11 1;
#X connect 45 0 8 1;
#X connect 45 1 9 1;
#X connect 46 0 5 1;
#X connect 46 1 6 1;
#X connect 47 0 6 0;
#X connect 47 1 5 0;
#X connect 48 0 9 0;
#X connect 48 1 8 0;
#X connect 49 0 11 0;
#X connect 49 1 23 0;
#X connect 50 0 26 0;
#X connect 50 1 27 0;
#X connect 51 0 52 0;
#X connect 52 0 24 0;
#X connect 52 1 25 0;
