#N canvas 173 136 369 341 10;
#X obj 118 177 cos~;
#X obj 191 179 cos~;
#X obj 103 197 *~;
#X obj 176 199 *~;
#X obj 103 49 inlet~;
#X obj 103 217 outlet~;
#X obj 176 219 outlet~;
#X obj 191 159 +~ 0.75;
#X obj 191 69 + 100;
#X obj 191 89 * 0.00125;
#X obj 191 109 pack 0 10;
#X obj 191 129 line~;
#X obj 191 49 inlet;
#X connect 0 0 2 1;
#X connect 1 0 3 1;
#X connect 2 0 5 0;
#X connect 3 0 6 0;
#X connect 4 0 2 0;
#X connect 4 0 3 0;
#X connect 7 0 1 0;
#X connect 8 0 9 0;
#X connect 9 0 10 0;
#X connect 10 0 11 0;
#X connect 11 0 7 0;
#X connect 11 0 0 0;
#X connect 12 0 8 0;
