#N canvas 91 179 297 418 10;
#X obj 43 24 r \$1-eg\$2-paste.s;
#X obj 43 64 array get \$1-eg-buffer;
#X obj 43 84 list-drip;
#X obj 43 44 t b b;
#X obj 43 184 route 0 1 2 3 4 5 6 7;
#X obj 43 104 t b f;
#X obj 43 144 f;
#X obj 73 144 + 1;
#X msg 58 124 0;
#X obj 43 164 pack f f;
#X obj 43 344 s \$1-eg\$2-L1.r;
#X obj 58 324 s \$1-eg\$2-R1.r;
#X obj 73 304 s \$1-eg\$2-L2.r;
#X obj 89 284 s \$1-eg\$2-R2.r;
#X obj 104 264 s \$1-eg\$2-L3.r;
#X obj 119 244 s \$1-eg\$2-R3.r;
#X obj 135 224 s \$1-eg\$2-L4.r;
#X obj 150 204 s \$1-eg\$2-R4.r;
#X connect 0 0 3 0;
#X connect 1 0 2 0;
#X connect 2 0 5 0;
#X connect 3 0 1 0;
#X connect 3 1 8 0;
#X connect 4 0 10 0;
#X connect 4 1 11 0;
#X connect 4 2 12 0;
#X connect 4 3 13 0;
#X connect 4 4 14 0;
#X connect 4 5 15 0;
#X connect 4 6 16 0;
#X connect 4 7 17 0;
#X connect 5 0 6 0;
#X connect 5 1 9 1;
#X connect 6 0 7 0;
#X connect 6 0 9 0;
#X connect 7 0 6 1;
#X connect 8 0 6 1;
#X connect 9 0 4 0;
