#N canvas 558 174 618 575 10;
#X obj 118 53 inlet;
#X obj 118 73 t f f f;
#X obj 118 173 tables \$0;
#X obj 238 143 outlet~;
#X obj 358 143 outlet~;
#X obj 118 143 outlet~;
#X obj 187 53 inlet;
#X obj 187 73 t f f f;
#X obj 118 193 block~ 1 1 1;
#X obj 118 123 PMop \$1 \$0 1;
#X obj 238 123 PMop \$1 \$0 2;
#X obj 358 123 PMop \$1 \$0 3;
#X connect 0 0 1 0;
#X connect 1 0 9 0;
#X connect 1 1 10 0;
#X connect 1 2 11 0;
#X connect 6 0 7 0;
#X connect 7 0 9 1;
#X connect 7 1 10 1;
#X connect 7 2 11 1;
#X connect 9 0 5 0;
#X connect 10 0 3 0;
#X connect 11 0 4 0;
