#N canvas 115 23 951 701 10;
#X obj 182 572 *~;
#X obj 197 552 line~;
#X obj 197 532 pack 0 50;
#X obj 197 512 * 0.01;
#X obj 332 572 *~;
#X obj 347 552 line~;
#X obj 347 532 pack 0 50;
#X obj 347 512 * 0.01;
#X obj 482 572 *~;
#X obj 497 552 line~;
#X obj 497 532 pack 0 50;
#X obj 497 512 * 0.01;
#X obj 182 592 tabsend~ \$2-\$3.phase1;
#X obj 332 592 tabsend~ \$2-\$3.phase2;
#X obj 482 592 tabsend~ \$2-\$3.phase3;
#X obj 57 512 * 0.01;
#X obj 57 532 pack 0 50;
#X obj 57 552 line~;
#X obj 42 572 *~;
#X obj 42 592 outlet~;
#X obj 102 225 tabreceive~ \$2-phase\$3;
#X obj 42 242 +~;
#X obj 42 42 inlet;
#X obj 42 82 * 1;
#X obj 42 202 + 0;
#X obj 42 262 wrap~;
#X obj 218 125 inlet;
#X obj 42 372 *~;
#X obj 42 622 block~ 1 1 1;
#X obj 82 5 r \$1-ratio\$3.s;
#X obj 82 25 clip 0 1e+06;
#X obj 82 115 r \$1-offset\$3.s;
#X obj 82 135 clip 0 1e+06;
#X obj 57 432 r \$1-lev\$3.s;
#X obj 197 432 r \$1-\$3-1.s;
#X obj 347 432 r \$1-\$3-2.s;
#X obj 497 432 r \$1-\$3-3.s;
#X obj 57 452 clip 0 100;
#X obj 82 45 t b f f;
#X msg 121 65 set \$1;
#X obj 121 85 s \$1-ratio\$3.r;
#X msg 121 175 set \$1;
#X obj 82 155 t b f f;
#X obj 121 195 s \$1-offset\$3.r;
#X obj 57 472 t f f;
#X msg 104 489 set \$1;
#X obj 104 509 s \$1-lev\$3.r;
#X obj 197 472 t f f;
#X msg 244 489 set \$1;
#X obj 347 472 t f f;
#X msg 394 489 set \$1;
#X obj 497 472 t f f;
#X msg 544 489 set \$1;
#X obj 244 509 s \$1-\$3-1.r;
#X obj 394 509 s \$1-\$3-2.r;
#X obj 544 509 s \$1-\$3-3.r;
#X obj 197 452 clip 0 1000;
#X obj 347 452 clip 0 1000;
#X obj 497 452 clip 0 1000;
#X obj 42 282 *~ 4096;
#X msg 112 312 set \$2-w\$1;
#X obj 112 292 pack f \$1;
#X obj 42 352 tabread4~;
#X obj 112 252 r \$1-wave\$3.s;
#X obj 112 272 + 1;
#X obj 429 335 r \$1-eg\$3-mode.s;
#N canvas 13 23 1243 732 evelope 1;
#X obj 12 385 env4~, f 76;
#X obj 12 25 inlet;
#X obj 62 25 inlet;
#X msg 461 204 set \$1;
#X obj 434 184 t f f;
#X msg 341 204 set \$1;
#X obj 314 184 t f f;
#X msg 520 64 set \$1;
#X obj 493 44 t f f;
#X msg 400 64 set \$1;
#X obj 373 44 t f f;
#X msg 259 64 set \$1;
#X obj 232 44 t f f;
#X msg 139 64 set \$1;
#X obj 112 44 t f f;
#X msg 721 204 set \$1;
#X obj 694 184 t f f;
#X obj 721 224 s \$1-eg\$3-R4.r;
#X msg 601 204 set \$1;
#X obj 574 184 t f f;
#X obj 139 84 s \$1-eg\$3-L1.r;
#X obj 259 84 s \$1-eg\$3-R1.r;
#X obj 400 84 s \$1-eg\$3-L2.r;
#X obj 520 84 s \$1-eg\$3-R2.r;
#X obj 341 224 s \$1-eg\$3-L3.r;
#X obj 461 224 s \$1-eg\$3-R3.r;
#X obj 601 224 s \$1-eg\$3-L4.r;
#X obj 12 405 outlet~;
#X obj 112 24 clip 0 1;
#X obj 373 24 clip 0 1;
#X obj 314 164 clip 0 1;
#X obj 574 164 clip 0 1;
#X obj 694 144 r \$1-eg\$3-R4.s;
#X obj 112 4 r \$1-eg\$3-L1.s;
#X obj 232 4 r \$1-eg\$3-R1.s;
#X obj 373 4 r \$1-eg\$3-L2.s;
#X obj 493 4 r \$1-eg\$3-R2.s;
#X obj 314 144 r \$1-eg\$3-L3.s;
#X obj 434 144 r \$1-eg\$3-R3.s;
#X obj 574 144 r \$1-eg\$3-L4.s;
#X obj 232 104 value.scale.log 3 5000;
#X obj 493 104 value.scale.log 3 5000;
#X obj 694 244 value.scale.log 3 5000;
#X obj 434 244 value.scale.log 3 5000;
#X obj 232 24 clip 0 1;
#X obj 493 24 clip 0 1;
#X obj 434 164 clip 0 1;
#X obj 694 164 clip 0 1;
#X connect 0 0 27 0;
#X connect 1 0 0 0;
#X connect 2 0 0 1;
#X connect 3 0 25 0;
#X connect 4 0 43 0;
#X connect 4 1 3 0;
#X connect 5 0 24 0;
#X connect 6 0 0 6;
#X connect 6 1 5 0;
#X connect 7 0 23 0;
#X connect 8 0 41 0;
#X connect 8 1 7 0;
#X connect 9 0 22 0;
#X connect 10 0 0 4;
#X connect 10 1 9 0;
#X connect 11 0 21 0;
#X connect 12 0 40 0;
#X connect 12 1 11 0;
#X connect 13 0 20 0;
#X connect 14 0 0 2;
#X connect 14 1 13 0;
#X connect 15 0 17 0;
#X connect 16 0 42 0;
#X connect 16 1 15 0;
#X connect 18 0 26 0;
#X connect 19 0 0 8;
#X connect 19 1 18 0;
#X connect 28 0 14 0;
#X connect 29 0 10 0;
#X connect 30 0 6 0;
#X connect 31 0 19 0;
#X connect 32 0 47 0;
#X connect 33 0 28 0;
#X connect 34 0 44 0;
#X connect 35 0 29 0;
#X connect 36 0 45 0;
#X connect 37 0 30 0;
#X connect 38 0 46 0;
#X connect 39 0 31 0;
#X connect 40 0 0 3;
#X connect 41 0 0 5;
#X connect 42 0 0 9;
#X connect 43 0 0 7;
#X connect 44 0 12 0;
#X connect 45 0 8 0;
#X connect 46 0 4 0;
#X connect 47 0 16 0;
#X restore 372 355 pd evelope;
#X obj 42 222 pphasor~;
#X obj 372 162 / 127;
#X msg 245 185 0;
#X text 218 106 velocity;
#X text 43 23 note;
#X obj 278 185 r \$1-sync\$3.s;
#X obj 245 205 spigot;
#X obj 218 145 t f f;
#X obj 218 165 sel 0;
#X connect 0 0 12 0;
#X connect 1 0 0 1;
#X connect 2 0 1 0;
#X connect 3 0 2 0;
#X connect 4 0 13 0;
#X connect 5 0 4 1;
#X connect 6 0 5 0;
#X connect 7 0 6 0;
#X connect 8 0 14 0;
#X connect 9 0 8 1;
#X connect 10 0 9 0;
#X connect 11 0 10 0;
#X connect 15 0 16 0;
#X connect 16 0 17 0;
#X connect 17 0 18 1;
#X connect 18 0 19 0;
#X connect 20 0 21 1;
#X connect 21 0 25 0;
#X connect 22 0 23 0;
#X connect 23 0 24 0;
#X connect 24 0 67 0;
#X connect 25 0 59 0;
#X connect 26 0 74 0;
#X connect 27 0 18 0;
#X connect 27 0 8 0;
#X connect 27 0 4 0;
#X connect 27 0 0 0;
#X connect 29 0 30 0;
#X connect 30 0 38 0;
#X connect 31 0 32 0;
#X connect 32 0 42 0;
#X connect 33 0 37 0;
#X connect 34 0 56 0;
#X connect 35 0 57 0;
#X connect 36 0 58 0;
#X connect 37 0 44 0;
#X connect 38 0 23 0;
#X connect 38 1 23 1;
#X connect 38 2 39 0;
#X connect 39 0 40 0;
#X connect 41 0 43 0;
#X connect 42 0 24 0;
#X connect 42 1 24 1;
#X connect 42 2 41 0;
#X connect 44 0 15 0;
#X connect 44 1 45 0;
#X connect 45 0 46 0;
#X connect 47 0 3 0;
#X connect 47 1 48 0;
#X connect 48 0 53 0;
#X connect 49 0 7 0;
#X connect 49 1 50 0;
#X connect 50 0 54 0;
#X connect 51 0 11 0;
#X connect 51 1 52 0;
#X connect 52 0 55 0;
#X connect 56 0 47 0;
#X connect 57 0 49 0;
#X connect 58 0 51 0;
#X connect 59 0 62 0;
#X connect 60 0 62 0;
#X connect 61 0 60 0;
#X connect 62 0 27 0;
#X connect 63 0 64 0;
#X connect 64 0 61 0;
#X connect 65 0 66 1;
#X connect 66 0 27 1;
#X connect 67 0 21 0;
#X connect 68 0 66 0;
#X connect 69 0 73 0;
#X connect 72 0 73 1;
#X connect 73 0 67 1;
#X connect 74 0 75 0;
#X connect 74 1 68 0;
#X connect 75 1 69 0;
