#N canvas 29 100 579 413 10;
#X obj 38 35 inlet;
#X obj 38 55 unpack f f;
#X obj 39 196 pan.cos~;
#X obj 199 196 pan.cos~;
#X obj 359 196 pan.cos~;
#X obj 194 358 outlet~;
#X obj 39 358 outlet~;
#X obj 194 338 *~ 0.3;
#X obj 39 338 *~ 0.3;
#X obj 38 85 PMops \$1;
#X obj 404 136 r \$1-pan3.s;
#X obj 244 136 r \$1-pan2.s;
#X obj 84 136 r \$1-pan1.s;
#X obj 84 156 clip -100 100;
#X obj 244 156 clip -100 100;
#X obj 404 156 clip -100 100;
#X obj 84 176 t f f;
#X msg 111 196 set \$1;
#X obj 111 216 s \$1-pan1.r;
#X obj 244 176 t f f;
#X msg 271 196 set \$1;
#X obj 404 176 t f f;
#X msg 431 196 set \$1;
#X obj 271 216 s \$1-pan2.r;
#X obj 431 216 s \$1-pan3.r;
#X connect 0 0 1 0;
#X connect 1 0 9 0;
#X connect 1 1 9 1;
#X connect 2 0 8 0;
#X connect 2 1 7 0;
#X connect 3 0 8 0;
#X connect 3 1 7 0;
#X connect 4 0 8 0;
#X connect 4 1 7 0;
#X connect 7 0 5 0;
#X connect 8 0 6 0;
#X connect 9 0 2 0;
#X connect 9 1 3 0;
#X connect 9 2 4 0;
#X connect 10 0 15 0;
#X connect 11 0 14 0;
#X connect 12 0 13 0;
#X connect 13 0 16 0;
#X connect 14 0 19 0;
#X connect 15 0 21 0;
#X connect 16 0 2 1;
#X connect 16 1 17 0;
#X connect 17 0 18 0;
#X connect 19 0 3 1;
#X connect 19 1 20 0;
#X connect 20 0 23 0;
#X connect 21 0 4 1;
#X connect 21 1 22 0;
#X connect 22 0 24 0;
