#N canvas 538 210 693 408 10;
#X obj 57 183 table \$1-phase1 1;
#X obj 57 223 table \$1-phase3 1;
#X obj 57 203 table \$1-phase2 1;
#X obj 69 69 tabreceive~ \$1-2.phase1;
#X obj 84 89 tabreceive~ \$1-3.phase1;
#X obj 274 89 tabreceive~ \$1-3.phase2;
#X obj 57 253 table \$1-1.phase1 1;
#X obj 57 273 table \$1-1.phase2 1;
#X obj 57 293 table \$1-1.phase3 1;
#X obj 177 253 table \$1-2.phase1 1;
#X obj 177 273 table \$1-2.phase2 1;
#X obj 177 293 table \$1-2.phase3 1;
#X obj 297 253 table \$1-3.phase1 1;
#X obj 297 273 table \$1-3.phase2 1;
#X obj 297 293 table \$1-3.phase3 1;
#X obj 249 9 tabreceive~ \$1-1.phase2;
#X obj 449 9 tabreceive~ \$1-1.phase3;
#X obj 259 29 tabreceive~ \$1-2.phase2;
#X obj 459 29 tabreceive~ \$1-2.phase3;
#X obj 59 9 tabreceive~ \$1-1.phase1;
#X obj 59 149 tabsend~ \$1-phase1;
#X obj 449 149 tabsend~ \$1-phase3;
#X obj 249 149 tabsend~ \$1-phase2;
#X obj 449 129 +~;
#X obj 249 129 +~;
#X obj 59 129 +~;
#X obj 57 323 block~ 1 1 1;
#X obj 109 49 *~ 0.5;
#X obj 59 49 *~ 0.5;
#X obj 309 69 *~ 0.5;
#X obj 259 69 *~ 0.5;
#X obj 524 89 *~ 0.5;
#X obj 474 89 *~ 0.5;
#X obj 109 29 fexpr~ ($x1+$x1[-1])/2;
#X obj 309 49 fexpr~ ($x1+$x1[-1])/2;
#X obj 524 69 fexpr~ ($x1+$x1[-1])/2;
#X obj 474 49 tabreceive~ \$1-3.phase3;
#X connect 3 0 25 0;
#X connect 4 0 25 0;
#X connect 5 0 24 0;
#X connect 15 0 24 0;
#X connect 16 0 23 0;
#X connect 17 0 30 0;
#X connect 17 0 34 0;
#X connect 18 0 23 0;
#X connect 19 0 28 0;
#X connect 19 0 33 0;
#X connect 23 0 21 0;
#X connect 24 0 22 0;
#X connect 25 0 20 0;
#X connect 27 0 25 0;
#X connect 28 0 25 0;
#X connect 29 0 24 0;
#X connect 30 0 24 0;
#X connect 31 0 23 0;
#X connect 32 0 23 0;
#X connect 33 0 27 0;
#X connect 34 0 29 0;
#X connect 35 0 31 0;
#X connect 36 0 32 0;
#X connect 36 0 35 0;
