#N canvas 0 22 548 385 10;
#X obj 30 267 exp;
#X obj 30 207 *;
#X obj 30 237 +;
#X obj 80 89 log;
#X obj 160 89 log;
#X obj 110 167 -;
#X obj 30 327 outlet;
#X obj 30 -1 inlet;
#X obj 80 -1 inlet;
#X obj 160 -1 inlet;
#X obj 80 119 t b f f;
#X obj 80 59 + 1;
#X obj 160 59 + 1;
#X obj 30 297 - 1;
#X obj 220 12 loadbang;
#X text 208 215 originally rh_scalelog with these mods:;
#X text 208 235 - accepts ranges starting from 0;
#X text 208 255 - takes arguments for min and max range;
#X obj 170 29 f \$2;
#X obj 90 29 f \$1;
#X connect 0 0 13 0;
#X connect 1 0 2 0;
#X connect 2 0 0 0;
#X connect 3 0 10 0;
#X connect 4 0 5 0;
#X connect 5 0 1 1;
#X connect 7 0 1 0;
#X connect 8 0 11 0;
#X connect 9 0 12 0;
#X connect 10 0 5 0;
#X connect 10 1 5 1;
#X connect 10 2 2 1;
#X connect 11 0 3 0;
#X connect 12 0 4 0;
#X connect 13 0 6 0;
#X connect 14 0 18 0;
#X connect 14 0 19 0;
#X connect 18 0 12 0;
#X connect 19 0 11 0;
