#N canvas 637 181 870 387 10;
#N canvas 109 281 654 568 latency-meter 0;
#X obj 26 68 tabwrite~ \$0-clicks;
#X obj 194 172 tabread \$0-clicks;
#X obj 194 145 t f f;
#X floatatom 194 273 10 0 0 0 - - -, f 10;
#X obj 194 248 max;
#X msg 209 224 0;
#X obj 194 97 t b b;
#X obj 194 395 > 0;
#X obj 194 447 f;
#X obj 194 421 sel 1;
#X obj 26 32 inlet~;
#X obj 194 28 inlet;
#X msg 25 160 arrayviewlistnew;
#X obj 25 190 s \$0-clicks;
#X obj 209 50 bng 15 250 50 0 empty empty empty 17 7 0 10 -262144 -1
-1;
#X obj 221 335 f;
#X obj 194 306 t f b;
#X obj 194 366 -;
#X obj 194 196 abs;
#X obj 343 382 samplerate~;
#X obj 328 447 /;
#X obj 343 419 * 0.001;
#X obj 328 350 t f b;
#X obj 194 478 outlet;
#X obj 328 477 outlet;
#X text 240 477 samples;
#X text 371 477 milliseconds;
#N canvas 0 22 450 300 (subpatch) 0;
#X array \$0-clicks 9997 float 2 black black;
#X coords 0 1 9997 -1 200 140 1;
#X restore 339 72 graph;
#N canvas 585 291 251 277 until-10000 0;
#X obj 54 39 inlet;
#X obj 54 137 until;
#X obj 54 196 f;
#X obj 81 196 + 1;
#X obj 54 72 t b b;
#X msg 69 169 1;
#X msg 54 104 10000;
#X obj 54 230 outlet;
#X connect 0 0 4 0;
#X connect 1 0 2 0;
#X connect 2 0 3 0;
#X connect 2 0 7 0;
#X connect 3 0 2 1;
#X connect 4 0 6 0;
#X connect 4 1 5 0;
#X connect 5 0 2 1;
#X connect 6 0 1 0;
#X restore 194 121 pd until-10000;
#X obj 194 72 delay 500;
#X text 30 508 find index of absolute maximum in \$0-clicks;
#X floatatom 78 265 13 0 0 0 - - -, f 13;
#X msg 413 262 const 0;
#X obj 413 284 s \$0-clicks;
#X msg 469 262 normalize;
#X connect 1 0 18 0;
#X connect 2 0 1 0;
#X connect 2 1 8 1;
#X connect 3 0 4 1;
#X connect 3 0 16 0;
#X connect 4 0 3 0;
#X connect 5 0 4 1;
#X connect 6 0 28 0;
#X connect 6 1 5 0;
#X connect 7 0 9 0;
#X connect 8 0 23 0;
#X connect 8 0 22 0;
#X connect 9 0 8 0;
#X connect 10 0 0 0;
#X connect 11 0 0 0;
#X connect 11 0 29 0;
#X connect 12 0 13 0;
#X connect 14 0 29 0;
#X connect 15 0 17 1;
#X connect 16 0 15 1;
#X connect 16 0 17 0;
#X connect 16 1 15 0;
#X connect 17 0 7 0;
#X connect 18 0 4 0;
#X connect 18 0 31 0;
#X connect 19 0 21 0;
#X connect 20 0 24 0;
#X connect 21 0 20 1;
#X connect 22 0 20 0;
#X connect 22 1 19 0;
#X connect 28 0 2 0;
#X connect 29 0 6 0;
#X connect 32 0 33 0;
#X connect 34 0 33 0;
#X restore 33 113 pd latency-meter;
#X obj 143 17 bng 50 250 50 0 empty empty empty 17 7 0 10 -262144 -260097
-1;
#X floatatom 33 141 5 0 0 0 - - -, f 5;
#X obj 33 80 adc~;
#X obj 143 112 dac~;
#X floatatom 126 141 10 0 0 0 - - -, f 10;
#X text 66 142 samples;
#X text 193 142 milliseconds;
#N canvas 2050 462 368 299 click 0;
#X obj 32 54 inlet;
#X obj 179 165 table \$0-click 3;
#X obj 178 134 tabwrite \$0-click;
#X obj 178 102 unpack;
#X obj 178 37 loadbang;
#X msg 178 70 0.25 0 \, 0.5 1 \, 0.25 2;
#X obj 32 157 outlet~;
#X obj 32 117 tabplay~ \$0-click;
#X obj 106 56 bng 15 250 50 0 empty empty empty 17 7 0 10 -262144 -1
-1;
#X connect 0 0 7 0;
#X connect 3 0 2 0;
#X connect 3 1 2 1;
#X connect 4 0 5 0;
#X connect 5 0 3 0;
#X connect 7 0 6 0;
#X connect 8 0 7 0;
#X restore 143 82 pd click;
#X text 31 206 Katja Vetter Dec. 2012;
#X text 31 179 roundtrip latency meter for 10000 samples max;
#X msg 383 124 \; pd dsp 1;
#X obj 383 20 loadbang;
#X obj 34 303 outlet samples;
#X obj 139 305 outlet ms;
#X obj 525 221 switch~;
#X msg 526 186 0;
#X msg 495 186 1;
#X msg 554 135 \; pd dsp 0;
#X obj 458 20 bng 15 250 50 0 empty empty empty 17 7 0 10 -262144 -1
-1;
#X obj 383 95 del 1000;
#X obj 461 95 del 1200;
#X obj 528 95 del 1600;
#X obj 307 19 inlet;
#X obj 730 112 inlet custom;
#X obj 745 194 samplerate~;
#X obj 730 259 /;
#X obj 745 231 * 0.001;
#X obj 730 162 t f b;
#X connect 0 0 2 0;
#X connect 0 1 5 0;
#X connect 1 0 0 1;
#X connect 1 0 8 0;
#X connect 2 0 13 0;
#X connect 3 0 0 0;
#X connect 3 1 0 0;
#X connect 5 0 14 0;
#X connect 8 0 4 0;
#X connect 8 0 4 1;
#X connect 12 0 17 0;
#X connect 12 0 20 0;
#X connect 12 0 21 0;
#X connect 12 0 22 0;
#X connect 16 0 15 0;
#X connect 17 0 15 0;
#X connect 19 0 20 0;
#X connect 19 0 21 0;
#X connect 19 0 22 0;
#X connect 19 0 17 0;
#X connect 20 0 11 0;
#X connect 21 0 1 0;
#X connect 22 0 16 0;
#X connect 22 0 18 0;
#X connect 23 0 19 0;
#X connect 24 0 28 0;
#X connect 24 0 13 0;
#X connect 25 0 27 0;
#X connect 26 0 14 0;
#X connect 27 0 26 1;
#X connect 28 0 26 0;
#X connect 28 1 25 0;
