#N canvas 93 36 1190 624 10;
#X obj 261 100 mknob 30 30 0 1000 0 0 DELAYDT DELAYDT-r TIME 20 70 0
8 -262144 -1 -1 0 1;
#X floatatom 261 202 5 0 0 0 - - -;
#X obj 261 311 sig~;
#X obj 232 454 *~ 1;
#X obj 262 453 *~ 0.125;
#X obj 110 216 mknob 32 32 0 1 0 0 DELAYDDW DELAYDDW-r DRY/WET 2 46
0 8 -262144 -1 -1 0 1;
#X floatatom 64 328 5 0 0 0 - - -;
#X floatatom 110 328 5 0 0 0 - - -;
#X obj 64 286 * -1;
#X obj 64 307 + 1;
#X obj 33 57 loadbang;
#X msg 33 81 0;
#X obj 233 531 *~ 1;
#X obj 461 311 sig~;
#X obj 461 409 *~;
#X obj 480 387 sig~;
#X floatatom 504 312 7 0 0 0 - - -;
#X floatatom 512 387 5 0 0 0 - - -;
#X obj 480 364 / 2;
#X obj 461 262 / 2;
#X obj 461 287 * 3;
#X obj 561 311 sig~;
#X obj 561 409 *~;
#X obj 580 387 sig~;
#X floatatom 604 312 7 0 0 0 - - -;
#X floatatom 612 387 5 0 0 0 - - -;
#X obj 580 364 / 2;
#X obj 561 262 / 3;
#X obj 561 287 * 4;
#X obj 361 311 sig~;
#X obj 361 409 *~;
#X obj 380 387 sig~;
#X floatatom 404 312 7 0 0 0 - - -;
#X floatatom 412 387 5 0 0 0 - - -;
#X obj 380 364 / 2;
#X obj 361 262 / 1;
#X obj 361 287 * 2;
#X obj 261 262 / 1;
#X obj 261 287 * 1;
#X floatatom 304 312 7 0 0 0 - - -;
#X obj 661 311 sig~;
#X obj 661 409 *~;
#X obj 680 387 sig~;
#X floatatom 704 312 7 0 0 0 - - -;
#X floatatom 712 387 5 0 0 0 - - -;
#X obj 680 364 / 2;
#X obj 661 262 / 4;
#X obj 661 287 * 5;
#X obj 761 311 sig~;
#X obj 761 409 *~;
#X obj 780 387 sig~;
#X floatatom 804 312 7 0 0 0 - - -;
#X floatatom 812 387 5 0 0 0 - - -;
#X obj 780 364 / 2;
#X obj 761 262 / 5;
#X obj 761 287 * 6;
#X obj 861 311 sig~;
#X obj 861 409 *~;
#X obj 880 387 sig~;
#X floatatom 904 312 7 0 0 0 - - -;
#X floatatom 912 387 5 0 0 0 - - -;
#X obj 880 364 / 2;
#X obj 961 311 sig~;
#X obj 961 409 *~;
#X obj 980 387 sig~;
#X floatatom 1004 312 7 0 0 0 - - -;
#X floatatom 1012 387 5 0 0 0 - - -;
#X obj 980 364 / 2;
#X obj 861 262 / 6;
#X obj 861 287 * 7;
#X obj 961 262 / 7;
#X obj 961 287 * 8;
#X obj 360 468 *~;
#X obj 375 443 tgl 15 0 empty empty empty 17 7 0 10 -262144 -1 -1 0
1;
#X obj 460 468 *~;
#X obj 475 443 tgl 15 0 empty empty empty 17 7 0 10 -262144 -1 -1 0
1;
#X obj 560 468 *~;
#X obj 575 443 tgl 15 0 empty empty empty 17 7 0 10 -262144 -1 -1 0
1;
#X obj 660 468 *~;
#X obj 675 443 tgl 15 0 empty empty empty 17 7 0 10 -262144 -1 -1 0
1;
#X obj 760 468 *~;
#X obj 775 443 tgl 15 0 empty empty empty 17 7 0 10 -262144 -1 -1 0
1;
#X obj 860 468 *~;
#X obj 875 443 tgl 15 0 empty empty empty 17 7 0 10 -262144 -1 -1 0
1;
#X obj 960 468 *~;
#X obj 975 443 tgl 15 0 empty empty empty 17 7 0 10 -262144 -1 -1 0
1;
#N canvas 765 125 434 350 selettore 0;
#X obj 47 59 hradio 15 1 0 8 empty empty empty 0 -8 0 10 -262144 -1
-1 0;
#X floatatom 47 84 5 0 0 0 - - -;
#X obj 47 112 route 0 1 2 3 4 5 6 7;
#X msg 66 188 0;
#X msg 47 164 1;
#X obj 47 289 outlet;
#X obj 97 289 outlet;
#X obj 147 289 outlet;
#X obj 197 289 outlet;
#X obj 247 289 outlet;
#X obj 297 289 outlet;
#X obj 347 289 outlet;
#X msg 106 188 0;
#X msg 87 164 1;
#X msg 146 188 0;
#X msg 127 164 1;
#X msg 186 188 0;
#X msg 167 164 1;
#X msg 226 188 0;
#X msg 207 164 1;
#X msg 266 188 0;
#X msg 247 164 1;
#X msg 306 188 0;
#X msg 287 164 1;
#X obj 47 27 inlet;
#X msg 346 188 0;
#X msg 327 164 1;
#X connect 0 0 1 0;
#X connect 1 0 2 0;
#X connect 2 0 4 0;
#X connect 2 1 13 0;
#X connect 2 2 15 0;
#X connect 2 3 17 0;
#X connect 2 4 19 0;
#X connect 2 5 21 0;
#X connect 2 6 23 0;
#X connect 2 7 26 0;
#X connect 3 0 7 0;
#X connect 3 0 8 0;
#X connect 3 0 9 0;
#X connect 3 0 10 0;
#X connect 3 0 11 0;
#X connect 3 0 5 0;
#X connect 3 0 6 0;
#X connect 4 0 3 0;
#X connect 12 0 7 0;
#X connect 12 0 8 0;
#X connect 12 0 9 0;
#X connect 12 0 10 0;
#X connect 12 0 11 0;
#X connect 12 0 6 0;
#X connect 13 0 12 0;
#X connect 13 0 5 0;
#X connect 14 0 8 0;
#X connect 14 0 9 0;
#X connect 14 0 10 0;
#X connect 14 0 11 0;
#X connect 14 0 7 0;
#X connect 15 0 14 0;
#X connect 15 0 5 0;
#X connect 15 0 6 0;
#X connect 16 0 9 0;
#X connect 16 0 10 0;
#X connect 16 0 11 0;
#X connect 16 0 8 0;
#X connect 17 0 16 0;
#X connect 17 0 5 0;
#X connect 17 0 6 0;
#X connect 17 0 7 0;
#X connect 18 0 10 0;
#X connect 18 0 11 0;
#X connect 18 0 9 0;
#X connect 19 0 18 0;
#X connect 19 0 5 0;
#X connect 19 0 6 0;
#X connect 19 0 7 0;
#X connect 19 0 8 0;
#X connect 20 0 11 0;
#X connect 20 0 10 0;
#X connect 21 0 20 0;
#X connect 21 0 5 0;
#X connect 21 0 6 0;
#X connect 21 0 7 0;
#X connect 21 0 8 0;
#X connect 21 0 9 0;
#X connect 22 0 11 0;
#X connect 23 0 22 0;
#X connect 23 0 5 0;
#X connect 23 0 6 0;
#X connect 23 0 7 0;
#X connect 23 0 8 0;
#X connect 23 0 9 0;
#X connect 23 0 10 0;
#X connect 24 0 0 0;
#X connect 26 0 25 0;
#X connect 26 0 5 0;
#X connect 26 0 6 0;
#X connect 26 0 7 0;
#X connect 26 0 8 0;
#X connect 26 0 9 0;
#X connect 26 0 10 0;
#X connect 26 0 11 0;
#X restore 1075 426 pd selettore;
#X obj 151 216 mknob 32 32 0 8 0 0 DELAYDTA DELAYDTA-r TAIL 5 46 0 8
-262144 -1 -1 0 1;
#X floatatom 1075 251 5 0 0 0 - - -;
#X obj 117 196 tgl 8 0 empty empty empty 17 7 0 10 -1 -258113 -1 0
1;
#X obj 127 196 tgl 8 0 empty empty empty 17 7 0 10 -1 -258113 -1 0
1;
#X obj 137 196 tgl 8 0 empty empty empty 17 7 0 10 -1 -258113 -1 0
1;
#X obj 147 196 tgl 8 0 empty empty empty 17 7 0 10 -1 -258113 -1 0
1;
#X obj 157 196 tgl 8 0 empty empty empty 17 7 0 10 -1 -258113 -1 0
1;
#X obj 167 196 tgl 8 0 empty empty empty 17 7 0 10 -1 -258113 -1 0
1;
#X obj 177 196 tgl 8 0 empty empty empty 17 7 0 10 -1 -258113 -1 0
1;
#X obj 107 196 tgl 8 0 empty empty empty 17 7 0 10 -1 -258113 -1 1
1;
#X msg 34 179 1;
#X obj 311 193 delwrite~ ritardo2 32000;
#X obj 361 334 vd~ ritardo2 0;
#X obj 461 334 vd~ ritardo2 0;
#X obj 561 334 vd~ ritardo2 0;
#X obj 661 334 vd~ ritardo2 0;
#X obj 761 334 vd~ ritardo2 0;
#X obj 861 334 vd~ ritardo2 0;
#X obj 961 334 vd~ ritardo2 0;
#X obj 261 334 vd~ ritardo2 0;
#X obj 105 47 gate 1;
#X obj 35 217 vradio 10 1 0 2 Dsinc Dsinc-r sinc -4 -5 0 10 -99865
-257985 -1 1;
#X obj 231 135 r~ D2;
#X obj 138 -5 r autotime;
#X obj 290 559 dac~;
#X obj 232 558 s~ drum;
#X obj 138 21 * 2;
#X obj 114 131 vsl 8 50 0 1 0 0 empty empty empty 0 -9 0 10 -262144
-1 -1 0 1;
#X obj 124 131 vsl 8 50 0 1 0 0 empty empty empty 0 -9 0 10 -262144
-1 -1 0 1;
#X obj 134 131 vsl 8 50 0 1 0 0 empty empty empty 0 -9 0 10 -262144
-1 -1 0 1;
#X obj 144 131 vsl 8 50 0 1 0 0 empty empty empty 0 -9 0 10 -262144
-1 -1 0 1;
#X obj 154 131 vsl 8 50 0 1 0 0 empty empty empty 0 -9 0 10 -262144
-1 -1 0 1;
#X obj 164 131 vsl 8 50 0 1 0 0 empty empty empty 0 -9 0 10 -262144
-1 -1 0 1;
#X obj 174 131 vsl 8 50 0 1 0 0 empty empty empty 0 -9 0 10 -262144
-1 -1 3100 1;
#X text 109 103 DRUM CONTROL;
#X obj 551 184 s dv1;
#X obj 541 164 s dv2;
#X obj 531 144 s dv3;
#X obj 521 124 s dv4;
#X obj 511 104 s dv5;
#X obj 501 84 s dv6;
#X obj 491 64 s dv7;
#X msg 34 112 0.5;
#X connect 0 0 1 0;
#X connect 1 0 37 0;
#X connect 2 0 106 0;
#X connect 3 0 12 0;
#X connect 4 0 12 0;
#X connect 5 0 8 0;
#X connect 5 0 7 0;
#X connect 6 0 3 1;
#X connect 7 0 4 1;
#X connect 7 0 34 0;
#X connect 8 0 9 0;
#X connect 9 0 6 0;
#X connect 10 0 11 0;
#X connect 10 0 97 0;
#X connect 10 0 129 0;
#X connect 11 0 5 0;
#X connect 11 0 0 0;
#X connect 11 0 108 0;
#X connect 12 0 112 0;
#X connect 12 0 111 0;
#X connect 12 0 111 1;
#X connect 13 0 100 0;
#X connect 14 0 74 0;
#X connect 15 0 14 1;
#X connect 16 0 27 0;
#X connect 17 0 26 0;
#X connect 18 0 15 0;
#X connect 18 0 17 0;
#X connect 19 0 20 0;
#X connect 20 0 13 0;
#X connect 20 0 16 0;
#X connect 21 0 101 0;
#X connect 22 0 76 0;
#X connect 23 0 22 1;
#X connect 24 0 46 0;
#X connect 25 0 45 0;
#X connect 26 0 23 0;
#X connect 26 0 25 0;
#X connect 27 0 28 0;
#X connect 28 0 21 0;
#X connect 28 0 24 0;
#X connect 29 0 99 0;
#X connect 30 0 72 0;
#X connect 31 0 30 1;
#X connect 32 0 19 0;
#X connect 33 0 18 0;
#X connect 34 0 31 0;
#X connect 34 0 33 0;
#X connect 35 0 36 0;
#X connect 36 0 29 0;
#X connect 36 0 32 0;
#X connect 37 0 38 0;
#X connect 38 0 2 0;
#X connect 38 0 39 0;
#X connect 39 0 35 0;
#X connect 40 0 102 0;
#X connect 41 0 78 0;
#X connect 42 0 41 1;
#X connect 43 0 54 0;
#X connect 44 0 53 0;
#X connect 45 0 42 0;
#X connect 45 0 44 0;
#X connect 46 0 47 0;
#X connect 47 0 40 0;
#X connect 47 0 43 0;
#X connect 48 0 103 0;
#X connect 49 0 80 0;
#X connect 50 0 49 1;
#X connect 51 0 68 0;
#X connect 52 0 61 0;
#X connect 53 0 50 0;
#X connect 53 0 52 0;
#X connect 54 0 55 0;
#X connect 55 0 48 0;
#X connect 55 0 51 0;
#X connect 56 0 104 0;
#X connect 57 0 82 0;
#X connect 58 0 57 1;
#X connect 59 0 70 0;
#X connect 60 0 67 0;
#X connect 61 0 58 0;
#X connect 61 0 60 0;
#X connect 62 0 105 0;
#X connect 63 0 84 0;
#X connect 64 0 63 1;
#X connect 67 0 64 0;
#X connect 67 0 66 0;
#X connect 68 0 69 0;
#X connect 69 0 56 0;
#X connect 69 0 59 0;
#X connect 70 0 71 0;
#X connect 71 0 62 0;
#X connect 71 0 65 0;
#X connect 72 0 12 0;
#X connect 73 0 72 1;
#X connect 73 0 89 0;
#X connect 74 0 12 0;
#X connect 75 0 74 1;
#X connect 75 0 90 0;
#X connect 76 0 12 0;
#X connect 77 0 76 1;
#X connect 77 0 91 0;
#X connect 78 0 12 0;
#X connect 79 0 78 1;
#X connect 79 0 92 0;
#X connect 80 0 12 0;
#X connect 81 0 80 1;
#X connect 81 0 93 0;
#X connect 82 0 12 0;
#X connect 83 0 82 1;
#X connect 83 0 94 0;
#X connect 84 0 12 0;
#X connect 85 0 84 1;
#X connect 85 0 95 0;
#X connect 86 0 73 0;
#X connect 86 1 75 0;
#X connect 86 2 77 0;
#X connect 86 3 79 0;
#X connect 86 4 81 0;
#X connect 86 5 83 0;
#X connect 86 6 85 0;
#X connect 87 0 88 0;
#X connect 88 0 86 0;
#X connect 97 0 96 0;
#X connect 97 0 108 0;
#X connect 99 0 30 0;
#X connect 100 0 14 0;
#X connect 101 0 22 0;
#X connect 102 0 41 0;
#X connect 103 0 49 0;
#X connect 104 0 57 0;
#X connect 105 0 63 0;
#X connect 106 0 4 0;
#X connect 107 0 0 0;
#X connect 108 0 107 0;
#X connect 109 0 3 0;
#X connect 109 0 98 0;
#X connect 110 0 113 0;
#X connect 113 0 107 1;
#X connect 114 0 128 0;
#X connect 115 0 127 0;
#X connect 116 0 126 0;
#X connect 117 0 125 0;
#X connect 118 0 124 0;
#X connect 119 0 123 0;
#X connect 120 0 122 0;
#X connect 129 0 120 0;
#X connect 129 0 119 0;
#X connect 129 0 118 0;
#X connect 129 0 117 0;
#X connect 129 0 116 0;
#X connect 129 0 115 0;
#X connect 129 0 114 0;
#X coords 0 -1 1 1 93 169 2 100 100;
