#N canvas 232 138 953 479 10;
#N canvas 502 105 450 300 contatore 0;
#X floatatom 190 133 5 0 0 0 - - -;
#X obj 203 33 bng 15 250 50 0 empty empty empty 17 7 0 10 -262144 -1
-1;
#X obj 190 61 f;
#X obj 190 96 +;
#X msg 235 58 1;
#X msg 190 228 0;
#X obj 16 233 outlet;
#X obj 56 181 expr $f1-1;
#X obj 190 169 route 32;
#X obj 203 4 inlet;
#X obj 255 -3 inlet;
#X obj 323 152 inlet;
#X msg 260 238 0;
#X obj 260 179 route 32;
#X msg 255 20 -1;
#X connect 0 0 2 1;
#X connect 0 0 7 0;
#X connect 0 0 8 0;
#X connect 0 0 13 0;
#X connect 1 0 2 0;
#X connect 1 0 4 0;
#X connect 2 0 3 0;
#X connect 3 0 0 0;
#X connect 4 0 3 1;
#X connect 5 0 2 1;
#X connect 7 0 6 0;
#X connect 8 0 5 0;
#X connect 9 0 1 0;
#X connect 10 0 14 0;
#X connect 11 0 8 1;
#X connect 12 0 2 1;
#X connect 13 0 12 0;
#X connect 14 0 2 0;
#X coords 0 0 1 1 100 10 0;
#X restore 19 136 pd contatore;
#X obj 621 138 vsl 15 117 0 1 0 0 DRUM_volume DRUM_volume-r empty -10
85 0 10 -1 -257985 -1 5800 1;
#X obj 111 105 bng 10 250 50 0 empty empty Riavvolgi 17 7 0 10 -1 -257985
-1;
#X obj 141 121 hradio 15 1 0 33 lDRUM_lunghezza lDRUM_lunghezza-r empty
0 -8 0 10 -99865 -257985 -1 8;
#X obj 141 -7 loadbang;
#X msg 621 10 0.5;
#X obj 140 380 s~ D2;
#X obj 19 83 r maintime;
#X obj 621 339 line~;
#X obj 140 355 *~;
#X obj 53 115 bng 15 250 50 0 empty empty empty 17 7 0 10 -262144 -1
-1;
#X obj 19 167 s cursore;
#X obj 141 54 r cursore;
#X obj 259 36 route 0 1 2 3 4 5 6 7 8 9 10 11 12 13 14 15 16 17 18
19 20 21 22 23 24 25 26 27 28 29 30 31;
#X text 111 151 RIDE;
#X text 117 166 HIT;
#X text 117 182 HAT;
#X text 116 197 TOM;
#X text 111 242 KICK;
#X text 104 227 SNARE;
#X text 104 212 CONGA;
#N canvas 732 121 348 308 row 0;
#X obj 100 100 tgl 15 0 dr01-1 dr01-1-r empty 17 7 0 10 -33289 -257985
-1 1 1;
#X obj 100 115 tgl 15 0 dr01-2 dr01-2-r empty 17 7 0 10 -33289 -257985
-1 0 1;
#X obj 100 130 tgl 15 0 dr01-3 dr01-3-r empty 17 7 0 10 -33289 -257985
-1 0 1;
#X obj 100 145 tgl 15 0 dr01-4 dr01-4-r empty 17 7 0 10 -33289 -257985
-1 0 1;
#X obj 100 234 outlet;
#X obj 100 160 tgl 15 0 dr01-5 dr01-5-r empty 17 7 0 10 -33289 -257985
-1 0 1;
#X obj 100 175 tgl 15 0 dr01-6 dr01-6-r empty 17 7 0 10 -33289 -257985
-1 0 1;
#X obj 100 190 tgl 15 0 dr01-7 dr01-7-r empty 17 7 0 10 -33289 -257985
-1 1 1;
#X obj 44 195 bng 15 250 50 0 empty empty empty 17 7 0 10 -262144 -1
-1;
#X obj 55 28 bng 15 250 50 0 empty empty empty 17 7 0 10 -262144 -1
-1;
#X floatatom 100 22 5 0 0 0 - - -;
#N canvas 824 87 450 363 led01 0;
#X obj 149 20 loadbang;
#X obj 202 88 outlet;
#X obj 212 118 outlet;
#X obj 222 148 outlet;
#X obj 232 178 outlet;
#X obj 242 208 outlet;
#X obj 252 238 outlet;
#X obj 262 268 outlet;
#X obj 112 46 inlet;
#X obj 182 44 inlet;
#X obj 149 71 del 50;
#X obj 149 101 del 50;
#X obj 149 131 del 50;
#X obj 149 161 del 50;
#X obj 149 191 del 50;
#X obj 149 221 del 50;
#X obj 149 251 del 50;
#X obj 149 47 tgl 15 0 empty empty empty 17 7 0 10 -262144 -1 -1 1
1;
#X connect 0 0 17 0;
#X connect 8 0 10 0;
#X connect 9 0 10 1;
#X connect 9 0 11 1;
#X connect 9 0 12 1;
#X connect 9 0 13 1;
#X connect 9 0 14 1;
#X connect 9 0 15 1;
#X connect 9 0 16 1;
#X connect 10 0 1 0;
#X connect 10 0 11 0;
#X connect 11 0 2 0;
#X connect 11 0 12 0;
#X connect 12 0 3 0;
#X connect 12 0 13 0;
#X connect 13 0 4 0;
#X connect 13 0 14 0;
#X connect 14 0 5 0;
#X connect 14 0 15 0;
#X connect 15 0 6 0;
#X connect 15 0 16 0;
#X connect 16 0 7 0;
#X connect 17 0 10 0;
#X restore 55 55 pd led01;
#X obj 55 -25 loadbang;
#X obj 55 0 del 1000;
#X obj 44 171 inlet;
#X obj 100 210 pack 0 f f f f f f f;
#X connect 0 0 15 1;
#X connect 1 0 15 2;
#X connect 2 0 15 3;
#X connect 3 0 15 4;
#X connect 5 0 15 5;
#X connect 6 0 15 6;
#X connect 7 0 15 7;
#X connect 8 0 15 0;
#X connect 9 0 11 0;
#X connect 10 0 11 1;
#X connect 11 0 0 0;
#X connect 11 1 1 0;
#X connect 11 2 2 0;
#X connect 11 3 3 0;
#X connect 11 4 5 0;
#X connect 11 5 6 0;
#X connect 11 6 7 0;
#X connect 12 0 13 0;
#X connect 13 0 9 0;
#X connect 14 0 8 0;
#X connect 15 0 4 0;
#X coords 0 -1 1 1 15 105 2 100 100;
#X restore 141 152 pd row;
#X obj 141 137 hradio 15 1 0 32 DRUM_cursore DRUM_cursore-r empty 0
-8 0 10 -1 -257985 -1 6;
#X msg 141 30 33;
#N canvas 687 69 574 426 ZORG-DRUM-SET-ZERO 0;
#X obj 100 308 outlet~;
#N canvas 380 205 724 371 ride 0;
#X obj 476 215 line~;
#X obj 166 231 *~;
#X obj 476 106 inlet;
#X obj 167 320 outlet~;
#X obj 166 154 sig~;
#X obj 165 209 *~;
#X obj 203 154 sig~;
#X obj 202 209 *~;
#X obj 165 181 osc~;
#X obj 202 181 osc~;
#X obj 243 154 sig~;
#X obj 242 209 *~;
#X obj 242 181 osc~;
#X obj 283 154 sig~;
#X obj 282 209 *~;
#X obj 282 181 osc~;
#X obj 323 154 sig~;
#X obj 322 209 *~;
#X obj 322 181 osc~;
#X obj 363 154 sig~;
#X obj 362 209 *~;
#X obj 362 181 osc~;
#X obj 404 193 line~;
#X floatatom 166 123 5 0 0 0 - - -;
#X floatatom 203 123 5 0 0 0 - - -;
#X floatatom 243 123 5 0 0 0 - - -;
#X floatatom 283 123 5 0 0 0 - - -;
#X floatatom 323 123 5 0 0 0 - - -;
#X floatatom 363 123 5 0 0 0 - - -;
#X obj 477 72 bng 15 250 50 0 empty empty empty 17 7 0 10 -262144 -1
-1;
#X obj 477 50 loadbang;
#X msg 243 87 110;
#X obj 273 261 hsl 128 15 20 20000 0 0 empty empty empty -2 -8 0 10
-262144 -1 -1 0 1;
#X floatatom 270 276 10 0 0 0 - - -;
#X msg 283 87 32127;
#X msg 166 87 64624;
#X obj 273 303 hsl 128 15 20 20000 0 0 empty empty empty -2 -8 0 10
-262144 -1 -1 0 1;
#X floatatom 270 318 10 0 0 0 - - -;
#X obj 65 181 osc~;
#X obj 66 150 line~;
#X obj -24 181 osc~;
#X obj -24 150 line~;
#X msg 323 87 456;
#X msg 363 87 313;
#X obj -96 125 noise~;
#X obj 579 155 bng 15 250 50 0 empty empty empty 17 7 0 10 -262144
-1 -1;
#X obj 579 42 bng 30 250 50 0 empty empty empty 17 7 0 10 -262144 -1
-1;
#X obj -36 48 hsl 128 15 20 20000 0 0 empty empty empty -2 -8 0 10
-262144 -1 -1 0 1;
#X floatatom -39 63 10 0 0 0 - - -;
#X obj -97 213 *~ 0.025;
#X msg 203 87 3797;
#X obj 66 213 *~ 0.17;
#X msg -24 123 577 \, 581 10;
#X msg 66 123 5037 \, 5031 10;
#X obj -25 213 *~ 0.17;
#X msg 404 170 1 \, 0 750;
#X msg 476 191 1 \, 0 750;
#X obj 167 275 hip~ 2379;
#X obj 167 254 lop~ 11032;
#X obj -96 174 hip~ 16381;
#X obj 533 244 inlet;
#X obj 533 281 line~;
#X obj 167 298 *~;
#X connect 0 0 1 1;
#X connect 1 0 58 0;
#X connect 2 0 56 0;
#X connect 2 0 55 0;
#X connect 2 0 23 0;
#X connect 2 0 24 0;
#X connect 2 0 25 0;
#X connect 2 0 26 0;
#X connect 2 0 27 0;
#X connect 2 0 28 0;
#X connect 2 0 53 0;
#X connect 2 0 52 0;
#X connect 4 0 8 0;
#X connect 5 0 1 0;
#X connect 6 0 9 0;
#X connect 7 0 5 1;
#X connect 8 0 5 0;
#X connect 9 0 7 0;
#X connect 10 0 12 0;
#X connect 11 0 7 1;
#X connect 12 0 11 0;
#X connect 13 0 15 0;
#X connect 14 0 11 1;
#X connect 15 0 14 0;
#X connect 16 0 18 0;
#X connect 17 0 14 1;
#X connect 18 0 17 0;
#X connect 19 0 21 0;
#X connect 20 0 17 1;
#X connect 21 0 20 0;
#X connect 22 0 20 1;
#X connect 23 0 4 0;
#X connect 24 0 6 0;
#X connect 25 0 10 0;
#X connect 26 0 13 0;
#X connect 27 0 16 0;
#X connect 28 0 19 0;
#X connect 29 0 50 0;
#X connect 29 0 31 0;
#X connect 29 0 34 0;
#X connect 29 0 42 0;
#X connect 29 0 43 0;
#X connect 29 0 35 0;
#X connect 30 0 29 0;
#X connect 31 0 25 0;
#X connect 32 0 33 0;
#X connect 33 0 58 1;
#X connect 34 0 26 0;
#X connect 35 0 23 0;
#X connect 36 0 37 0;
#X connect 37 0 57 1;
#X connect 38 0 51 0;
#X connect 39 0 38 0;
#X connect 40 0 54 0;
#X connect 41 0 40 0;
#X connect 42 0 27 0;
#X connect 43 0 28 0;
#X connect 44 0 59 0;
#X connect 45 0 55 0;
#X connect 45 0 56 0;
#X connect 46 0 45 0;
#X connect 46 0 29 0;
#X connect 47 0 48 0;
#X connect 48 0 59 1;
#X connect 49 0 1 0;
#X connect 50 0 24 0;
#X connect 51 0 1 0;
#X connect 52 0 41 0;
#X connect 53 0 39 0;
#X connect 54 0 1 0;
#X connect 55 0 22 0;
#X connect 56 0 0 0;
#X connect 57 0 62 0;
#X connect 58 0 57 0;
#X connect 59 0 49 0;
#X connect 60 0 61 0;
#X connect 61 0 62 1;
#X connect 62 0 3 0;
#X restore 100 221 pd ride;
#X obj 101 279 *~ 1;
#N canvas 564 203 596 300 snr 0;
#X obj 426 149 line~;
#X obj 86 191 *~;
#X obj 426 28 inlet;
#X obj 86 243 outlet~;
#X obj 85 48 noise~;
#X obj 153 74 sig~;
#X obj 152 101 phasor~;
#X obj 152 125 lop~ 500;
#X msg 426 125 1 \, 0 75;
#X obj 152 149 *~;
#X obj 214 133 line~;
#X msg 214 110 1 \, 0 50;
#X msg 153 45 189;
#X obj 273 74 sig~;
#X obj 272 101 phasor~;
#X obj 272 149 *~;
#X obj 334 133 line~;
#X msg 273 45 1053;
#X obj 272 125 lop~ 1500;
#X msg 334 110 1 \, 0 20;
#X obj 86 103 lop~ 250;
#X obj 13 103 hip~ 2016;
#X obj 508 163 inlet;
#X obj 508 200 line~;
#X obj 87 217 *~;
#X connect 0 0 1 1;
#X connect 1 0 24 0;
#X connect 2 0 8 0;
#X connect 2 0 12 0;
#X connect 2 0 11 0;
#X connect 2 0 19 0;
#X connect 2 0 17 0;
#X connect 4 0 20 0;
#X connect 4 0 21 0;
#X connect 5 0 6 0;
#X connect 6 0 7 0;
#X connect 7 0 9 0;
#X connect 8 0 0 0;
#X connect 9 0 1 0;
#X connect 10 0 9 1;
#X connect 11 0 10 0;
#X connect 12 0 5 0;
#X connect 13 0 14 0;
#X connect 14 0 18 0;
#X connect 15 0 1 0;
#X connect 16 0 15 1;
#X connect 17 0 13 0;
#X connect 18 0 15 0;
#X connect 19 0 16 0;
#X connect 20 0 1 0;
#X connect 21 0 1 0;
#X connect 22 0 23 0;
#X connect 23 0 24 1;
#X connect 24 0 3 0;
#X restore 355 224 pd snr;
#X obj 100 106 inlet;
#X floatatom 100 163 5 0 0 0 - - -;
#X floatatom 140 163 5 0 0 0 - - -;
#X floatatom 180 163 5 0 0 0 - - -;
#X floatatom 220 163 5 0 0 0 - - -;
#X obj 100 191 sel 1;
#X obj 140 191 sel 1;
#X obj 180 191 sel 1;
#X obj 220 191 sel 1;
#X floatatom 260 163 5 0 0 0 - - -;
#X obj 260 191 sel 1;
#X floatatom 300 163 5 0 0 0 - - -;
#X obj 300 191 sel 1;
#N canvas 673 192 503 399 kick 0;
#X obj 196 117 line~;
#X obj 76 153 *~;
#X obj 76 122 osc~;
#X obj 76 84 line~;
#X obj 154 3 inlet;
#X obj 76 333 outlet~;
#X msg 154 89 0;
#X msg 196 93 1 \, 0 50;
#X msg 76 61 220 \, 50 20;
#X obj 258 236 inlet;
#X obj 258 273 line~;
#X obj 77 289 *~;
#X connect 0 0 1 1;
#X connect 1 0 11 0;
#X connect 2 0 1 0;
#X connect 3 0 2 0;
#X connect 4 0 8 0;
#X connect 4 0 7 0;
#X connect 4 0 6 0;
#X connect 6 0 2 1;
#X connect 7 0 0 0;
#X connect 8 0 3 0;
#X connect 9 0 10 0;
#X connect 10 0 11 1;
#X connect 11 0 5 0;
#X restore 411 224 pd kick;
#X floatatom 340 163 5 0 0 0 - - -;
#X obj 340 191 sel 1;
#N canvas 284 210 738 407 hit 0;
#X obj 327 256 line~;
#X obj 176 272 *~;
#X obj 177 361 outlet~;
#X obj 176 164 sig~;
#X obj 175 219 *~;
#X obj 213 164 sig~;
#X obj 212 219 *~;
#X obj 175 191 osc~;
#X obj 212 191 osc~;
#X obj 254 203 line~;
#X floatatom 176 133 5 0 0 0 - - -;
#X floatatom 213 133 5 0 0 0 - - -;
#X obj 267 82 bng 15 250 50 0 empty empty empty 17 7 0 10 -262144 -1
-1;
#X obj 267 60 loadbang;
#X obj 283 304 hsl 128 15 20 20000 0 0 empty empty empty -2 -8 0 10
-262144 -1 -1 0 1;
#X floatatom 280 319 10 0 0 0 - - -;
#X obj 283 346 hsl 128 15 20 20000 0 0 empty empty empty -2 -8 0 10
-262144 -1 -1 0 1;
#X floatatom 280 361 10 0 0 0 - - -;
#X obj 75 191 osc~;
#X obj 76 160 line~;
#X obj -14 191 osc~;
#X obj -14 160 line~;
#X obj -86 135 noise~;
#X obj 369 165 bng 15 250 50 0 empty empty empty 17 7 0 10 -262144
-1 -1;
#X obj 369 52 bng 30 250 50 0 empty empty empty 17 7 0 10 -262144 -1
-1;
#X obj -26 58 hsl 128 15 20 20000 0 0 empty empty empty -2 -8 0 10
-262144 -1 -1 0 1;
#X floatatom -29 73 10 0 0 0 - - -;
#X obj 177 316 hip~ 2379;
#X obj 177 295 lop~ 11032;
#X obj -86 184 hip~ 16381;
#X obj -16 256 *~;
#X obj 76 223 *~ 0.5;
#X msg 76 133 5037 \, 3895 10;
#X msg -14 133 577 \, 810 13;
#X obj -87 224 *~;
#X obj -56 208 line~;
#X msg 327 201 1 \, 0 500;
#X msg 254 180 1 \, 0 500;
#X obj -15 223 *~ 0.75;
#X msg -56 293 0 \, 0.33 250;
#X msg 176 97 1233;
#X msg 213 97 4280;
#X obj 327 116 inlet;
#X obj 438 286 inlet;
#X obj 438 323 line~;
#X obj 177 341 *~;
#X connect 0 0 1 1;
#X connect 1 0 28 0;
#X connect 3 0 7 0;
#X connect 4 0 1 0;
#X connect 5 0 8 0;
#X connect 6 0 4 1;
#X connect 7 0 4 0;
#X connect 8 0 6 0;
#X connect 9 0 6 1;
#X connect 10 0 3 0;
#X connect 11 0 5 0;
#X connect 12 0 41 0;
#X connect 12 0 40 0;
#X connect 13 0 12 0;
#X connect 14 0 15 0;
#X connect 15 0 28 1;
#X connect 16 0 17 0;
#X connect 17 0 27 1;
#X connect 18 0 31 0;
#X connect 19 0 18 0;
#X connect 20 0 38 0;
#X connect 21 0 20 0;
#X connect 22 0 29 0;
#X connect 23 0 37 0;
#X connect 23 0 36 0;
#X connect 23 0 39 0;
#X connect 24 0 23 0;
#X connect 24 0 12 0;
#X connect 25 0 26 0;
#X connect 26 0 29 1;
#X connect 27 0 45 0;
#X connect 28 0 27 0;
#X connect 29 0 34 0;
#X connect 30 0 1 0;
#X connect 31 0 30 1;
#X connect 32 0 19 0;
#X connect 33 0 21 0;
#X connect 34 0 30 1;
#X connect 35 0 34 1;
#X connect 36 0 0 0;
#X connect 37 0 9 0;
#X connect 38 0 30 0;
#X connect 39 0 35 0;
#X connect 40 0 10 0;
#X connect 41 0 11 0;
#X connect 42 0 36 0;
#X connect 42 0 37 0;
#X connect 42 0 10 0;
#X connect 42 0 11 0;
#X connect 42 0 32 0;
#X connect 42 0 33 0;
#X connect 43 0 44 0;
#X connect 44 0 45 1;
#X connect 45 0 2 0;
#X restore 153 222 pd hit;
#N canvas 284 210 738 407 hat 0;
#X obj 327 256 line~;
#X obj 176 272 *~;
#X obj 177 361 outlet~;
#X obj 176 164 sig~;
#X obj 175 219 *~;
#X obj 213 164 sig~;
#X obj 212 219 *~;
#X obj 175 191 osc~;
#X obj 212 191 osc~;
#X obj 254 203 line~;
#X floatatom 176 133 5 0 0 0 - - -;
#X floatatom 213 133 5 0 0 0 - - -;
#X obj 267 82 bng 15 250 50 0 empty empty empty 17 7 0 10 -262144 -1
-1;
#X obj 267 60 loadbang;
#X obj 283 303 hsl 128 15 20 20000 0 0 empty empty empty -2 -8 0 10
-262144 -1 -1 0 1;
#X floatatom 280 318 10 0 0 0 - - -;
#X obj 283 345 hsl 128 15 20 20000 0 0 empty empty empty -2 -8 0 10
-262144 -1 -1 0 1;
#X floatatom 280 360 10 0 0 0 - - -;
#X obj 75 191 osc~;
#X obj 76 160 line~;
#X obj -14 191 osc~;
#X obj -14 160 line~;
#X obj -86 135 noise~;
#X obj 369 165 bng 15 250 50 0 empty empty empty 17 7 0 10 -262144
-1 -1;
#X obj 369 52 bng 30 250 50 0 empty empty empty 17 7 0 10 -262144 -1
-1;
#X obj -26 58 hsl 128 15 20 20000 0 0 empty empty empty -2 -8 0 10
-262144 -1 -1 0 1;
#X floatatom -29 73 10 0 0 0 - - -;
#X obj 177 316 hip~ 2379;
#X obj 177 295 lop~ 11032;
#X obj -86 184 hip~ 16381;
#X obj -16 256 *~;
#X obj 76 223 *~ 0.5;
#X msg 76 133 5037 \, 3895 10;
#X msg -14 133 577 \, 810 13;
#X obj -87 224 *~;
#X obj -56 208 line~;
#X obj -15 223 *~ 0.75;
#X msg 176 97 1233;
#X obj 327 116 inlet;
#X msg 327 201 1 \, 0 135;
#X msg 254 180 1 \, 0 100;
#X msg -56 293 0.25 \, 0.32 150;
#X msg 213 97 4280;
#X obj 458 286 inlet;
#X obj 458 323 line~;
#X obj 176 339 *~;
#X connect 0 0 1 1;
#X connect 1 0 28 0;
#X connect 3 0 7 0;
#X connect 4 0 1 0;
#X connect 5 0 8 0;
#X connect 6 0 4 1;
#X connect 7 0 4 0;
#X connect 8 0 6 0;
#X connect 9 0 6 1;
#X connect 10 0 3 0;
#X connect 11 0 5 0;
#X connect 12 0 42 0;
#X connect 12 0 37 0;
#X connect 13 0 12 0;
#X connect 14 0 15 0;
#X connect 15 0 28 1;
#X connect 16 0 17 0;
#X connect 17 0 27 1;
#X connect 18 0 31 0;
#X connect 19 0 18 0;
#X connect 20 0 36 0;
#X connect 21 0 20 0;
#X connect 22 0 29 0;
#X connect 23 0 40 0;
#X connect 23 0 39 0;
#X connect 23 0 41 0;
#X connect 24 0 23 0;
#X connect 24 0 12 0;
#X connect 25 0 26 0;
#X connect 26 0 29 1;
#X connect 27 0 45 0;
#X connect 28 0 27 0;
#X connect 29 0 34 0;
#X connect 30 0 1 0;
#X connect 31 0 30 1;
#X connect 32 0 19 0;
#X connect 33 0 21 0;
#X connect 34 0 30 1;
#X connect 35 0 34 1;
#X connect 36 0 30 0;
#X connect 37 0 10 0;
#X connect 38 0 39 0;
#X connect 38 0 40 0;
#X connect 38 0 10 0;
#X connect 38 0 11 0;
#X connect 38 0 32 0;
#X connect 38 0 33 0;
#X connect 39 0 0 0;
#X connect 40 0 9 0;
#X connect 41 0 35 0;
#X connect 42 0 11 0;
#X connect 43 0 44 0;
#X connect 44 0 45 1;
#X connect 45 0 2 0;
#X restore 201 222 pd hat;
#X obj 76 67 bng 15 250 50 0 empty empty empty 17 7 0 10 -262144 -1
-1;
#N canvas 673 192 503 251 conga 0;
#X obj 196 114 line~;
#X obj 76 132 *~;
#X obj 76 107 osc~;
#X obj 76 83 line~;
#X obj 154 3 inlet;
#X obj 76 207 outlet~;
#X obj 254 46 bng 15 250 50 0 empty empty empty 17 7 0 10 -262144 -1
-1;
#X obj 254 138 osc~;
#X obj 77 156 *~;
#X obj 254 112 line~;
#X msg 196 90 1 \, 0 134;
#X msg 254 84 333 \, 100 15;
#X msg 76 61 603 \, 330 10;
#X msg 154 90 0.25;
#X obj 328 128 inlet;
#X obj 328 165 line~;
#X obj 77 183 *~;
#X connect 0 0 1 1;
#X connect 1 0 8 0;
#X connect 2 0 1 0;
#X connect 3 0 2 0;
#X connect 4 0 12 0;
#X connect 4 0 10 0;
#X connect 4 0 13 0;
#X connect 6 0 10 0;
#X connect 6 0 13 0;
#X connect 6 0 12 0;
#X connect 6 0 11 0;
#X connect 7 0 8 1;
#X connect 8 0 16 0;
#X connect 9 0 7 0;
#X connect 10 0 0 0;
#X connect 11 0 9 0;
#X connect 12 0 3 0;
#X connect 13 0 2 1;
#X connect 14 0 15 0;
#X connect 15 0 16 1;
#X connect 16 0 5 0;
#X restore 298 224 pd conga;
#X obj 280 49 inlet;
#X obj 320 49 inlet;
#X obj 360 49 inlet;
#X obj 400 49 inlet;
#X obj 440 49 inlet;
#X obj 480 49 inlet;
#X obj 520 49 inlet;
#X obj 48 184 bng 15 250 50 0 empty empty empty 17 7 0 10 -262144 -1
-1;
#X obj 100 134 unpack 0 f f f f f f f;
#N canvas 673 192 503 399 tom 0;
#X obj 299 183 line~;
#X obj 76 153 *~;
#X obj 76 122 osc~;
#X obj 76 84 line~;
#X obj 174 3 inlet;
#X obj 76 333 outlet~;
#X msg 174 105 0;
#X msg 299 20 1 \, 0 50;
#X obj 348 246 inlet;
#X obj 348 273 line~;
#X obj 77 289 *~;
#X msg 76 61 298 \, 217 112;
#X obj 231 135 osc~;
#X obj 77 201 *~;
#X obj 232 114 sig~;
#X msg 232 94 153;
#X connect 0 0 13 1;
#X connect 1 0 13 0;
#X connect 2 0 1 0;
#X connect 3 0 2 0;
#X connect 4 0 11 0;
#X connect 4 0 7 0;
#X connect 4 0 6 0;
#X connect 4 0 15 0;
#X connect 6 0 2 1;
#X connect 7 0 0 0;
#X connect 8 0 9 0;
#X connect 9 0 10 1;
#X connect 10 0 5 0;
#X connect 11 0 3 0;
#X connect 12 0 1 1;
#X connect 13 0 10 0;
#X connect 14 0 12 0;
#X connect 15 0 14 0;
#X restore 248 224 pd tom;
#X connect 1 0 2 0;
#X connect 2 0 0 0;
#X connect 3 0 2 0;
#X connect 4 0 32 0;
#X connect 5 0 9 0;
#X connect 6 0 10 0;
#X connect 7 0 11 0;
#X connect 8 0 12 0;
#X connect 9 0 1 0;
#X connect 10 0 20 0;
#X connect 11 0 21 0;
#X connect 12 0 33 0;
#X connect 13 0 14 0;
#X connect 14 0 23 0;
#X connect 15 0 16 0;
#X connect 16 0 3 0;
#X connect 17 0 2 0;
#X connect 18 0 19 0;
#X connect 19 0 17 0;
#X connect 20 0 2 0;
#X connect 21 0 2 0;
#X connect 22 0 32 0;
#X connect 23 0 2 0;
#X connect 24 0 1 1;
#X connect 25 0 20 1;
#X connect 26 0 21 1;
#X connect 27 0 33 1;
#X connect 28 0 23 1;
#X connect 29 0 3 1;
#X connect 30 0 17 1;
#X connect 32 0 31 0;
#X connect 32 1 5 0;
#X connect 32 2 6 0;
#X connect 32 3 7 0;
#X connect 32 4 8 0;
#X connect 32 5 13 0;
#X connect 32 6 15 0;
#X connect 32 7 18 0;
#X connect 33 0 2 0;
#X restore 141 325 pd ZORG-DRUM-SET-ZERO;
#X text 328 101 DRUM PATTERN SEQUENCER;
#X obj 313 308 r dv7;
#X obj 357 308 r dv6;
#X obj 401 308 r dv5;
#X obj 445 308 r dv4;
#X obj 489 308 r dv3;
#X obj 533 308 r dv2;
#X obj 577 308 r dv1;
#N canvas 732 121 348 308 row 0;
#X obj 100 100 tgl 15 0 dr01-1 dr01-1-r empty 17 7 0 10 -162280 -257985
-1 0 1;
#X obj 100 115 tgl 15 0 dr01-2 dr01-2-r empty 17 7 0 10 -162280 -257985
-1 0 1;
#X obj 100 130 tgl 15 0 dr01-3 dr01-3-r empty 17 7 0 10 -162280 -257985
-1 0 1;
#X obj 100 145 tgl 15 0 dr01-4 dr01-4-r empty 17 7 0 10 -162280 -257985
-1 1 1;
#X obj 100 234 outlet;
#X obj 100 160 tgl 15 0 dr01-5 dr01-5-r empty 17 7 0 10 -162280 -257985
-1 0 1;
#X obj 100 175 tgl 15 0 dr01-6 dr01-6-r empty 17 7 0 10 -162280 -257985
-1 0 1;
#X obj 100 190 tgl 15 0 dr01-7 dr01-7-r empty 17 7 0 10 -162280 -257985
-1 0 1;
#X obj 44 195 bng 15 250 50 0 empty empty empty 17 7 0 10 -262144 -1
-1;
#X obj 55 28 bng 15 250 50 0 empty empty empty 17 7 0 10 -262144 -1
-1;
#X floatatom 100 22 5 0 0 0 - - -;
#N canvas 824 87 450 363 led01 0;
#X obj 149 20 loadbang;
#X obj 202 88 outlet;
#X obj 212 118 outlet;
#X obj 222 148 outlet;
#X obj 232 178 outlet;
#X obj 242 208 outlet;
#X obj 252 238 outlet;
#X obj 262 268 outlet;
#X obj 112 46 inlet;
#X obj 182 44 inlet;
#X obj 149 71 del 50;
#X obj 149 101 del 50;
#X obj 149 131 del 50;
#X obj 149 161 del 50;
#X obj 149 191 del 50;
#X obj 149 221 del 50;
#X obj 149 251 del 50;
#X obj 149 47 tgl 15 0 empty empty empty 17 7 0 10 -262144 -1 -1 1
1;
#X connect 0 0 17 0;
#X connect 8 0 10 0;
#X connect 9 0 10 1;
#X connect 9 0 11 1;
#X connect 9 0 12 1;
#X connect 9 0 13 1;
#X connect 9 0 14 1;
#X connect 9 0 15 1;
#X connect 9 0 16 1;
#X connect 10 0 1 0;
#X connect 10 0 11 0;
#X connect 11 0 2 0;
#X connect 11 0 12 0;
#X connect 12 0 3 0;
#X connect 12 0 13 0;
#X connect 13 0 4 0;
#X connect 13 0 14 0;
#X connect 14 0 5 0;
#X connect 14 0 15 0;
#X connect 15 0 6 0;
#X connect 15 0 16 0;
#X connect 16 0 7 0;
#X connect 17 0 10 0;
#X restore 55 55 pd led01;
#X obj 55 -25 loadbang;
#X obj 55 0 del 1000;
#X obj 44 171 inlet;
#X obj 100 210 pack 0 f f f f f f f;
#X connect 0 0 15 1;
#X connect 1 0 15 2;
#X connect 2 0 15 3;
#X connect 3 0 15 4;
#X connect 5 0 15 5;
#X connect 6 0 15 6;
#X connect 7 0 15 7;
#X connect 8 0 15 0;
#X connect 9 0 11 0;
#X connect 10 0 11 1;
#X connect 11 0 0 0;
#X connect 11 1 1 0;
#X connect 11 2 2 0;
#X connect 11 3 3 0;
#X connect 11 4 5 0;
#X connect 11 5 6 0;
#X connect 11 6 7 0;
#X connect 12 0 13 0;
#X connect 13 0 9 0;
#X connect 14 0 8 0;
#X connect 15 0 4 0;
#X coords 0 -1 1 1 15 105 2 100 100;
#X restore 156 152 pd row;
#N canvas 732 121 348 308 row 0;
#X obj 100 100 tgl 15 0 dr01-1 dr01-1-r empty 17 7 0 10 -162280 -257985
-1 0 1;
#X obj 100 115 tgl 15 0 dr01-2 dr01-2-r empty 17 7 0 10 -162280 -257985
-1 0 1;
#X obj 100 130 tgl 15 0 dr01-3 dr01-3-r empty 17 7 0 10 -162280 -257985
-1 0 1;
#X obj 100 145 tgl 15 0 dr01-4 dr01-4-r empty 17 7 0 10 -162280 -257985
-1 0 1;
#X obj 100 234 outlet;
#X obj 100 160 tgl 15 0 dr01-5 dr01-5-r empty 17 7 0 10 -162280 -257985
-1 0 1;
#X obj 100 175 tgl 15 0 dr01-6 dr01-6-r empty 17 7 0 10 -162280 -257985
-1 1 1;
#X obj 100 190 tgl 15 0 dr01-7 dr01-7-r empty 17 7 0 10 -162280 -257985
-1 0 1;
#X obj 44 195 bng 15 250 50 0 empty empty empty 17 7 0 10 -262144 -1
-1;
#X obj 55 28 bng 15 250 50 0 empty empty empty 17 7 0 10 -262144 -1
-1;
#X floatatom 100 22 5 0 0 0 - - -;
#N canvas 824 87 450 363 led01 0;
#X obj 149 20 loadbang;
#X obj 202 88 outlet;
#X obj 212 118 outlet;
#X obj 222 148 outlet;
#X obj 232 178 outlet;
#X obj 242 208 outlet;
#X obj 252 238 outlet;
#X obj 262 268 outlet;
#X obj 112 46 inlet;
#X obj 182 44 inlet;
#X obj 149 71 del 50;
#X obj 149 101 del 50;
#X obj 149 131 del 50;
#X obj 149 161 del 50;
#X obj 149 191 del 50;
#X obj 149 221 del 50;
#X obj 149 251 del 50;
#X obj 149 47 tgl 15 0 empty empty empty 17 7 0 10 -262144 -1 -1 1
1;
#X connect 0 0 17 0;
#X connect 8 0 10 0;
#X connect 9 0 10 1;
#X connect 9 0 11 1;
#X connect 9 0 12 1;
#X connect 9 0 13 1;
#X connect 9 0 14 1;
#X connect 9 0 15 1;
#X connect 9 0 16 1;
#X connect 10 0 1 0;
#X connect 10 0 11 0;
#X connect 11 0 2 0;
#X connect 11 0 12 0;
#X connect 12 0 3 0;
#X connect 12 0 13 0;
#X connect 13 0 4 0;
#X connect 13 0 14 0;
#X connect 14 0 5 0;
#X connect 14 0 15 0;
#X connect 15 0 6 0;
#X connect 15 0 16 0;
#X connect 16 0 7 0;
#X connect 17 0 10 0;
#X restore 55 55 pd led01;
#X obj 55 -25 loadbang;
#X obj 55 0 del 1000;
#X obj 44 171 inlet;
#X obj 100 210 pack 0 f f f f f f f;
#X connect 0 0 15 1;
#X connect 1 0 15 2;
#X connect 2 0 15 3;
#X connect 3 0 15 4;
#X connect 5 0 15 5;
#X connect 6 0 15 6;
#X connect 7 0 15 7;
#X connect 8 0 15 0;
#X connect 9 0 11 0;
#X connect 10 0 11 1;
#X connect 11 0 0 0;
#X connect 11 1 1 0;
#X connect 11 2 2 0;
#X connect 11 3 3 0;
#X connect 11 4 5 0;
#X connect 11 5 6 0;
#X connect 11 6 7 0;
#X connect 12 0 13 0;
#X connect 13 0 9 0;
#X connect 14 0 8 0;
#X connect 15 0 4 0;
#X coords 0 -1 1 1 15 105 2 100 100;
#X restore 171 152 pd row;
#N canvas 732 121 348 308 row 0;
#X obj 100 100 tgl 15 0 dr01-1 dr01-1-r empty 17 7 0 10 -162280 -257985
-1 0 1;
#X obj 100 115 tgl 15 0 dr01-2 dr01-2-r empty 17 7 0 10 -162280 -257985
-1 0 1;
#X obj 100 130 tgl 15 0 dr01-3 dr01-3-r empty 17 7 0 10 -162280 -257985
-1 0 1;
#X obj 100 145 tgl 15 0 dr01-4 dr01-4-r empty 17 7 0 10 -162280 -257985
-1 0 1;
#X obj 100 234 outlet;
#X obj 100 160 tgl 15 0 dr01-5 dr01-5-r empty 17 7 0 10 -162280 -257985
-1 0 1;
#X obj 100 175 tgl 15 0 dr01-6 dr01-6-r empty 17 7 0 10 -162280 -257985
-1 0 1;
#X obj 100 190 tgl 15 0 dr01-7 dr01-7-r empty 17 7 0 10 -162280 -257985
-1 0 1;
#X obj 44 195 bng 15 250 50 0 empty empty empty 17 7 0 10 -262144 -1
-1;
#X obj 55 28 bng 15 250 50 0 empty empty empty 17 7 0 10 -262144 -1
-1;
#X floatatom 100 22 5 0 0 0 - - -;
#N canvas 824 87 450 363 led01 0;
#X obj 149 20 loadbang;
#X obj 202 88 outlet;
#X obj 212 118 outlet;
#X obj 222 148 outlet;
#X obj 232 178 outlet;
#X obj 242 208 outlet;
#X obj 252 238 outlet;
#X obj 262 268 outlet;
#X obj 112 46 inlet;
#X obj 182 44 inlet;
#X obj 149 71 del 50;
#X obj 149 101 del 50;
#X obj 149 131 del 50;
#X obj 149 161 del 50;
#X obj 149 191 del 50;
#X obj 149 221 del 50;
#X obj 149 251 del 50;
#X obj 149 47 tgl 15 0 empty empty empty 17 7 0 10 -262144 -1 -1 1
1;
#X connect 0 0 17 0;
#X connect 8 0 10 0;
#X connect 9 0 10 1;
#X connect 9 0 11 1;
#X connect 9 0 12 1;
#X connect 9 0 13 1;
#X connect 9 0 14 1;
#X connect 9 0 15 1;
#X connect 9 0 16 1;
#X connect 10 0 1 0;
#X connect 10 0 11 0;
#X connect 11 0 2 0;
#X connect 11 0 12 0;
#X connect 12 0 3 0;
#X connect 12 0 13 0;
#X connect 13 0 4 0;
#X connect 13 0 14 0;
#X connect 14 0 5 0;
#X connect 14 0 15 0;
#X connect 15 0 6 0;
#X connect 15 0 16 0;
#X connect 16 0 7 0;
#X connect 17 0 10 0;
#X restore 55 55 pd led01;
#X obj 55 -25 loadbang;
#X obj 55 0 del 1000;
#X obj 44 171 inlet;
#X obj 100 210 pack 0 f f f f f f f;
#X connect 0 0 15 1;
#X connect 1 0 15 2;
#X connect 2 0 15 3;
#X connect 3 0 15 4;
#X connect 5 0 15 5;
#X connect 6 0 15 6;
#X connect 7 0 15 7;
#X connect 8 0 15 0;
#X connect 9 0 11 0;
#X connect 10 0 11 1;
#X connect 11 0 0 0;
#X connect 11 1 1 0;
#X connect 11 2 2 0;
#X connect 11 3 3 0;
#X connect 11 4 5 0;
#X connect 11 5 6 0;
#X connect 11 6 7 0;
#X connect 12 0 13 0;
#X connect 13 0 9 0;
#X connect 14 0 8 0;
#X connect 15 0 4 0;
#X coords 0 -1 1 1 15 105 2 100 100;
#X restore 186 152 pd row;
#N canvas 732 121 348 308 row 0;
#X obj 100 100 tgl 15 0 dr01-1 dr01-1-r empty 17 7 0 10 -66577 -257985
-1 0 1;
#X obj 100 115 tgl 15 0 dr01-2 dr01-2-r empty 17 7 0 10 -66577 -257985
-1 0 1;
#X obj 100 130 tgl 15 0 dr01-3 dr01-3-r empty 17 7 0 10 -66577 -257985
-1 0 1;
#X obj 100 145 tgl 15 0 dr01-4 dr01-4-r empty 17 7 0 10 -66577 -257985
-1 0 1;
#X obj 100 234 outlet;
#X obj 100 160 tgl 15 0 dr01-5 dr01-5-r empty 17 7 0 10 -66577 -257985
-1 0 1;
#X obj 100 175 tgl 15 0 dr01-6 dr01-6-r empty 17 7 0 10 -66577 -257985
-1 0 1;
#X obj 100 190 tgl 15 0 dr01-7 dr01-7-r empty 17 7 0 10 -66577 -257985
-1 1 1;
#X obj 44 195 bng 15 250 50 0 empty empty empty 17 7 0 10 -262144 -1
-1;
#X obj 55 28 bng 15 250 50 0 empty empty empty 17 7 0 10 -262144 -1
-1;
#X floatatom 100 22 5 0 0 0 - - -;
#N canvas 824 87 450 363 led01 0;
#X obj 149 20 loadbang;
#X obj 202 88 outlet;
#X obj 212 118 outlet;
#X obj 222 148 outlet;
#X obj 232 178 outlet;
#X obj 242 208 outlet;
#X obj 252 238 outlet;
#X obj 262 268 outlet;
#X obj 112 46 inlet;
#X obj 182 44 inlet;
#X obj 149 71 del 50;
#X obj 149 101 del 50;
#X obj 149 131 del 50;
#X obj 149 161 del 50;
#X obj 149 191 del 50;
#X obj 149 221 del 50;
#X obj 149 251 del 50;
#X obj 149 47 tgl 15 0 empty empty empty 17 7 0 10 -262144 -1 -1 1
1;
#X connect 0 0 17 0;
#X connect 8 0 10 0;
#X connect 9 0 10 1;
#X connect 9 0 11 1;
#X connect 9 0 12 1;
#X connect 9 0 13 1;
#X connect 9 0 14 1;
#X connect 9 0 15 1;
#X connect 9 0 16 1;
#X connect 10 0 1 0;
#X connect 10 0 11 0;
#X connect 11 0 2 0;
#X connect 11 0 12 0;
#X connect 12 0 3 0;
#X connect 12 0 13 0;
#X connect 13 0 4 0;
#X connect 13 0 14 0;
#X connect 14 0 5 0;
#X connect 14 0 15 0;
#X connect 15 0 6 0;
#X connect 15 0 16 0;
#X connect 16 0 7 0;
#X connect 17 0 10 0;
#X restore 55 55 pd led01;
#X obj 55 -25 loadbang;
#X obj 55 0 del 1000;
#X obj 44 171 inlet;
#X obj 100 210 pack 0 f f f f f f f;
#X connect 0 0 15 1;
#X connect 1 0 15 2;
#X connect 2 0 15 3;
#X connect 3 0 15 4;
#X connect 5 0 15 5;
#X connect 6 0 15 6;
#X connect 7 0 15 7;
#X connect 8 0 15 0;
#X connect 9 0 11 0;
#X connect 10 0 11 1;
#X connect 11 0 0 0;
#X connect 11 1 1 0;
#X connect 11 2 2 0;
#X connect 11 3 3 0;
#X connect 11 4 5 0;
#X connect 11 5 6 0;
#X connect 11 6 7 0;
#X connect 12 0 13 0;
#X connect 13 0 9 0;
#X connect 14 0 8 0;
#X connect 15 0 4 0;
#X coords 0 -1 1 1 15 105 2 100 100;
#X restore 201 152 pd row;
#N canvas 732 121 348 308 row 0;
#X obj 100 100 tgl 15 0 dr01-1 dr01-1-r empty 17 7 0 10 -162280 -257985
-1 0 1;
#X obj 100 115 tgl 15 0 dr01-2 dr01-2-r empty 17 7 0 10 -162280 -257985
-1 0 1;
#X obj 100 130 tgl 15 0 dr01-3 dr01-3-r empty 17 7 0 10 -162280 -257985
-1 0 1;
#X obj 100 145 tgl 15 0 dr01-4 dr01-4-r empty 17 7 0 10 -162280 -257985
-1 0 1;
#X obj 100 234 outlet;
#X obj 100 160 tgl 15 0 dr01-5 dr01-5-r empty 17 7 0 10 -162280 -257985
-1 0 1;
#X obj 100 175 tgl 15 0 dr01-6 dr01-6-r empty 17 7 0 10 -162280 -257985
-1 0 1;
#X obj 100 190 tgl 15 0 dr01-7 dr01-7-r empty 17 7 0 10 -162280 -257985
-1 0 1;
#X obj 44 195 bng 15 250 50 0 empty empty empty 17 7 0 10 -262144 -1
-1;
#X obj 55 28 bng 15 250 50 0 empty empty empty 17 7 0 10 -262144 -1
-1;
#X floatatom 100 22 5 0 0 0 - - -;
#N canvas 824 87 450 363 led01 0;
#X obj 149 20 loadbang;
#X obj 202 88 outlet;
#X obj 212 118 outlet;
#X obj 222 148 outlet;
#X obj 232 178 outlet;
#X obj 242 208 outlet;
#X obj 252 238 outlet;
#X obj 262 268 outlet;
#X obj 112 46 inlet;
#X obj 182 44 inlet;
#X obj 149 71 del 50;
#X obj 149 101 del 50;
#X obj 149 131 del 50;
#X obj 149 161 del 50;
#X obj 149 191 del 50;
#X obj 149 221 del 50;
#X obj 149 251 del 50;
#X obj 149 47 tgl 15 0 empty empty empty 17 7 0 10 -262144 -1 -1 1
1;
#X connect 0 0 17 0;
#X connect 8 0 10 0;
#X connect 9 0 10 1;
#X connect 9 0 11 1;
#X connect 9 0 12 1;
#X connect 9 0 13 1;
#X connect 9 0 14 1;
#X connect 9 0 15 1;
#X connect 9 0 16 1;
#X connect 10 0 1 0;
#X connect 10 0 11 0;
#X connect 11 0 2 0;
#X connect 11 0 12 0;
#X connect 12 0 3 0;
#X connect 12 0 13 0;
#X connect 13 0 4 0;
#X connect 13 0 14 0;
#X connect 14 0 5 0;
#X connect 14 0 15 0;
#X connect 15 0 6 0;
#X connect 15 0 16 0;
#X connect 16 0 7 0;
#X connect 17 0 10 0;
#X restore 55 55 pd led01;
#X obj 55 -25 loadbang;
#X obj 55 0 del 1000;
#X obj 44 171 inlet;
#X obj 100 210 pack 0 f f f f f f f;
#X connect 0 0 15 1;
#X connect 1 0 15 2;
#X connect 2 0 15 3;
#X connect 3 0 15 4;
#X connect 5 0 15 5;
#X connect 6 0 15 6;
#X connect 7 0 15 7;
#X connect 8 0 15 0;
#X connect 9 0 11 0;
#X connect 10 0 11 1;
#X connect 11 0 0 0;
#X connect 11 1 1 0;
#X connect 11 2 2 0;
#X connect 11 3 3 0;
#X connect 11 4 5 0;
#X connect 11 5 6 0;
#X connect 11 6 7 0;
#X connect 12 0 13 0;
#X connect 13 0 9 0;
#X connect 14 0 8 0;
#X connect 15 0 4 0;
#X coords 0 -1 1 1 15 105 2 100 100;
#X restore 216 152 pd row;
#N canvas 732 121 348 308 row 0;
#X obj 100 100 tgl 15 0 dr01-1 dr01-1-r empty 17 7 0 10 -162280 -257985
-1 0 1;
#X obj 100 115 tgl 15 0 dr01-2 dr01-2-r empty 17 7 0 10 -162280 -257985
-1 0 1;
#X obj 100 130 tgl 15 0 dr01-3 dr01-3-r empty 17 7 0 10 -162280 -257985
-1 0 1;
#X obj 100 145 tgl 15 0 dr01-4 dr01-4-r empty 17 7 0 10 -162280 -257985
-1 0 1;
#X obj 100 234 outlet;
#X obj 100 160 tgl 15 0 dr01-5 dr01-5-r empty 17 7 0 10 -162280 -257985
-1 0 1;
#X obj 100 175 tgl 15 0 dr01-6 dr01-6-r empty 17 7 0 10 -162280 -257985
-1 1 1;
#X obj 100 190 tgl 15 0 dr01-7 dr01-7-r empty 17 7 0 10 -162280 -257985
-1 0 1;
#X obj 44 195 bng 15 250 50 0 empty empty empty 17 7 0 10 -262144 -1
-1;
#X obj 55 28 bng 15 250 50 0 empty empty empty 17 7 0 10 -262144 -1
-1;
#X floatatom 100 22 5 0 0 0 - - -;
#N canvas 824 87 450 363 led01 0;
#X obj 149 20 loadbang;
#X obj 202 88 outlet;
#X obj 212 118 outlet;
#X obj 222 148 outlet;
#X obj 232 178 outlet;
#X obj 242 208 outlet;
#X obj 252 238 outlet;
#X obj 262 268 outlet;
#X obj 112 46 inlet;
#X obj 182 44 inlet;
#X obj 149 71 del 50;
#X obj 149 101 del 50;
#X obj 149 131 del 50;
#X obj 149 161 del 50;
#X obj 149 191 del 50;
#X obj 149 221 del 50;
#X obj 149 251 del 50;
#X obj 149 47 tgl 15 0 empty empty empty 17 7 0 10 -262144 -1 -1 1
1;
#X connect 0 0 17 0;
#X connect 8 0 10 0;
#X connect 9 0 10 1;
#X connect 9 0 11 1;
#X connect 9 0 12 1;
#X connect 9 0 13 1;
#X connect 9 0 14 1;
#X connect 9 0 15 1;
#X connect 9 0 16 1;
#X connect 10 0 1 0;
#X connect 10 0 11 0;
#X connect 11 0 2 0;
#X connect 11 0 12 0;
#X connect 12 0 3 0;
#X connect 12 0 13 0;
#X connect 13 0 4 0;
#X connect 13 0 14 0;
#X connect 14 0 5 0;
#X connect 14 0 15 0;
#X connect 15 0 6 0;
#X connect 15 0 16 0;
#X connect 16 0 7 0;
#X connect 17 0 10 0;
#X restore 55 55 pd led01;
#X obj 55 -25 loadbang;
#X obj 55 0 del 1000;
#X obj 44 171 inlet;
#X obj 100 210 pack 0 f f f f f f f;
#X connect 0 0 15 1;
#X connect 1 0 15 2;
#X connect 2 0 15 3;
#X connect 3 0 15 4;
#X connect 5 0 15 5;
#X connect 6 0 15 6;
#X connect 7 0 15 7;
#X connect 8 0 15 0;
#X connect 9 0 11 0;
#X connect 10 0 11 1;
#X connect 11 0 0 0;
#X connect 11 1 1 0;
#X connect 11 2 2 0;
#X connect 11 3 3 0;
#X connect 11 4 5 0;
#X connect 11 5 6 0;
#X connect 11 6 7 0;
#X connect 12 0 13 0;
#X connect 13 0 9 0;
#X connect 14 0 8 0;
#X connect 15 0 4 0;
#X coords 0 -1 1 1 15 105 2 100 100;
#X restore 231 152 pd row;
#N canvas 732 121 348 308 row 0;
#X obj 100 100 tgl 15 0 dr01-1 dr01-1-r empty 17 7 0 10 -162280 -257985
-1 0 1;
#X obj 100 115 tgl 15 0 dr01-2 dr01-2-r empty 17 7 0 10 -162280 -257985
-1 0 1;
#X obj 100 130 tgl 15 0 dr01-3 dr01-3-r empty 17 7 0 10 -162280 -257985
-1 0 1;
#X obj 100 145 tgl 15 0 dr01-4 dr01-4-r empty 17 7 0 10 -162280 -257985
-1 0 1;
#X obj 100 234 outlet;
#X obj 100 160 tgl 15 0 dr01-5 dr01-5-r empty 17 7 0 10 -162280 -257985
-1 1 1;
#X obj 100 175 tgl 15 0 dr01-6 dr01-6-r empty 17 7 0 10 -162280 -257985
-1 0 1;
#X obj 100 190 tgl 15 0 dr01-7 dr01-7-r empty 17 7 0 10 -162280 -257985
-1 0 1;
#X obj 44 195 bng 15 250 50 0 empty empty empty 17 7 0 10 -262144 -1
-1;
#X obj 55 28 bng 15 250 50 0 empty empty empty 17 7 0 10 -262144 -1
-1;
#X floatatom 100 22 5 0 0 0 - - -;
#N canvas 824 87 450 363 led01 0;
#X obj 149 20 loadbang;
#X obj 202 88 outlet;
#X obj 212 118 outlet;
#X obj 222 148 outlet;
#X obj 232 178 outlet;
#X obj 242 208 outlet;
#X obj 252 238 outlet;
#X obj 262 268 outlet;
#X obj 112 46 inlet;
#X obj 182 44 inlet;
#X obj 149 71 del 50;
#X obj 149 101 del 50;
#X obj 149 131 del 50;
#X obj 149 161 del 50;
#X obj 149 191 del 50;
#X obj 149 221 del 50;
#X obj 149 251 del 50;
#X obj 149 47 tgl 15 0 empty empty empty 17 7 0 10 -262144 -1 -1 1
1;
#X connect 0 0 17 0;
#X connect 8 0 10 0;
#X connect 9 0 10 1;
#X connect 9 0 11 1;
#X connect 9 0 12 1;
#X connect 9 0 13 1;
#X connect 9 0 14 1;
#X connect 9 0 15 1;
#X connect 9 0 16 1;
#X connect 10 0 1 0;
#X connect 10 0 11 0;
#X connect 11 0 2 0;
#X connect 11 0 12 0;
#X connect 12 0 3 0;
#X connect 12 0 13 0;
#X connect 13 0 4 0;
#X connect 13 0 14 0;
#X connect 14 0 5 0;
#X connect 14 0 15 0;
#X connect 15 0 6 0;
#X connect 15 0 16 0;
#X connect 16 0 7 0;
#X connect 17 0 10 0;
#X restore 55 55 pd led01;
#X obj 55 -25 loadbang;
#X obj 55 0 del 1000;
#X obj 44 171 inlet;
#X obj 100 210 pack 0 f f f f f f f;
#X connect 0 0 15 1;
#X connect 1 0 15 2;
#X connect 2 0 15 3;
#X connect 3 0 15 4;
#X connect 5 0 15 5;
#X connect 6 0 15 6;
#X connect 7 0 15 7;
#X connect 8 0 15 0;
#X connect 9 0 11 0;
#X connect 10 0 11 1;
#X connect 11 0 0 0;
#X connect 11 1 1 0;
#X connect 11 2 2 0;
#X connect 11 3 3 0;
#X connect 11 4 5 0;
#X connect 11 5 6 0;
#X connect 11 6 7 0;
#X connect 12 0 13 0;
#X connect 13 0 9 0;
#X connect 14 0 8 0;
#X connect 15 0 4 0;
#X coords 0 -1 1 1 15 105 2 100 100;
#X restore 246 152 pd row;
#N canvas 732 121 348 308 row 0;
#X obj 100 100 tgl 15 0 dr01-1 dr01-1-r empty 17 7 0 10 -66577 -257985
-1 0 1;
#X obj 100 115 tgl 15 0 dr01-2 dr01-2-r empty 17 7 0 10 -66577 -257985
-1 0 1;
#X obj 100 130 tgl 15 0 dr01-3 dr01-3-r empty 17 7 0 10 -66577 -257985
-1 0 1;
#X obj 100 145 tgl 15 0 dr01-4 dr01-4-r empty 17 7 0 10 -66577 -257985
-1 0 1;
#X obj 100 234 outlet;
#X obj 100 160 tgl 15 0 dr01-5 dr01-5-r empty 17 7 0 10 -66577 -257985
-1 0 1;
#X obj 100 175 tgl 15 0 dr01-6 dr01-6-r empty 17 7 0 10 -66577 -257985
-1 0 1;
#X obj 100 190 tgl 15 0 dr01-7 dr01-7-r empty 17 7 0 10 -66577 -257985
-1 0 1;
#X obj 44 195 bng 15 250 50 0 empty empty empty 17 7 0 10 -262144 -1
-1;
#X obj 55 28 bng 15 250 50 0 empty empty empty 17 7 0 10 -262144 -1
-1;
#X floatatom 100 22 5 0 0 0 - - -;
#N canvas 824 87 450 363 led01 0;
#X obj 149 20 loadbang;
#X obj 202 88 outlet;
#X obj 212 118 outlet;
#X obj 222 148 outlet;
#X obj 232 178 outlet;
#X obj 242 208 outlet;
#X obj 252 238 outlet;
#X obj 262 268 outlet;
#X obj 112 46 inlet;
#X obj 182 44 inlet;
#X obj 149 71 del 50;
#X obj 149 101 del 50;
#X obj 149 131 del 50;
#X obj 149 161 del 50;
#X obj 149 191 del 50;
#X obj 149 221 del 50;
#X obj 149 251 del 50;
#X obj 149 47 tgl 15 0 empty empty empty 17 7 0 10 -262144 -1 -1 1
1;
#X connect 0 0 17 0;
#X connect 8 0 10 0;
#X connect 9 0 10 1;
#X connect 9 0 11 1;
#X connect 9 0 12 1;
#X connect 9 0 13 1;
#X connect 9 0 14 1;
#X connect 9 0 15 1;
#X connect 9 0 16 1;
#X connect 10 0 1 0;
#X connect 10 0 11 0;
#X connect 11 0 2 0;
#X connect 11 0 12 0;
#X connect 12 0 3 0;
#X connect 12 0 13 0;
#X connect 13 0 4 0;
#X connect 13 0 14 0;
#X connect 14 0 5 0;
#X connect 14 0 15 0;
#X connect 15 0 6 0;
#X connect 15 0 16 0;
#X connect 16 0 7 0;
#X connect 17 0 10 0;
#X restore 55 55 pd led01;
#X obj 55 -25 loadbang;
#X obj 55 0 del 1000;
#X obj 44 171 inlet;
#X obj 100 210 pack 0 f f f f f f f;
#X connect 0 0 15 1;
#X connect 1 0 15 2;
#X connect 2 0 15 3;
#X connect 3 0 15 4;
#X connect 5 0 15 5;
#X connect 6 0 15 6;
#X connect 7 0 15 7;
#X connect 8 0 15 0;
#X connect 9 0 11 0;
#X connect 10 0 11 1;
#X connect 11 0 0 0;
#X connect 11 1 1 0;
#X connect 11 2 2 0;
#X connect 11 3 3 0;
#X connect 11 4 5 0;
#X connect 11 5 6 0;
#X connect 11 6 7 0;
#X connect 12 0 13 0;
#X connect 13 0 9 0;
#X connect 14 0 8 0;
#X connect 15 0 4 0;
#X coords 0 -1 1 1 15 105 2 100 100;
#X restore 261 152 pd row;
#N canvas 732 121 348 308 row 0;
#X obj 100 100 tgl 15 0 dr01-1 dr01-1-r empty 17 7 0 10 -162280 -257985
-1 0 1;
#X obj 100 115 tgl 15 0 dr01-2 dr01-2-r empty 17 7 0 10 -162280 -257985
-1 0 1;
#X obj 100 130 tgl 15 0 dr01-3 dr01-3-r empty 17 7 0 10 -162280 -257985
-1 0 1;
#X obj 100 145 tgl 15 0 dr01-4 dr01-4-r empty 17 7 0 10 -162280 -257985
-1 0 1;
#X obj 100 234 outlet;
#X obj 100 160 tgl 15 0 dr01-5 dr01-5-r empty 17 7 0 10 -162280 -257985
-1 0 1;
#X obj 100 175 tgl 15 0 dr01-6 dr01-6-r empty 17 7 0 10 -162280 -257985
-1 0 1;
#X obj 100 190 tgl 15 0 dr01-7 dr01-7-r empty 17 7 0 10 -162280 -257985
-1 0 1;
#X obj 44 195 bng 15 250 50 0 empty empty empty 17 7 0 10 -262144 -1
-1;
#X obj 55 28 bng 15 250 50 0 empty empty empty 17 7 0 10 -262144 -1
-1;
#X floatatom 100 22 5 0 0 0 - - -;
#N canvas 824 87 450 363 led01 0;
#X obj 149 20 loadbang;
#X obj 202 88 outlet;
#X obj 212 118 outlet;
#X obj 222 148 outlet;
#X obj 232 178 outlet;
#X obj 242 208 outlet;
#X obj 252 238 outlet;
#X obj 262 268 outlet;
#X obj 112 46 inlet;
#X obj 182 44 inlet;
#X obj 149 71 del 50;
#X obj 149 101 del 50;
#X obj 149 131 del 50;
#X obj 149 161 del 50;
#X obj 149 191 del 50;
#X obj 149 221 del 50;
#X obj 149 251 del 50;
#X obj 149 47 tgl 15 0 empty empty empty 17 7 0 10 -262144 -1 -1 1
1;
#X connect 0 0 17 0;
#X connect 8 0 10 0;
#X connect 9 0 10 1;
#X connect 9 0 11 1;
#X connect 9 0 12 1;
#X connect 9 0 13 1;
#X connect 9 0 14 1;
#X connect 9 0 15 1;
#X connect 9 0 16 1;
#X connect 10 0 1 0;
#X connect 10 0 11 0;
#X connect 11 0 2 0;
#X connect 11 0 12 0;
#X connect 12 0 3 0;
#X connect 12 0 13 0;
#X connect 13 0 4 0;
#X connect 13 0 14 0;
#X connect 14 0 5 0;
#X connect 14 0 15 0;
#X connect 15 0 6 0;
#X connect 15 0 16 0;
#X connect 16 0 7 0;
#X connect 17 0 10 0;
#X restore 55 55 pd led01;
#X obj 55 -25 loadbang;
#X obj 55 0 del 1000;
#X obj 44 171 inlet;
#X obj 100 210 pack 0 f f f f f f f;
#X connect 0 0 15 1;
#X connect 1 0 15 2;
#X connect 2 0 15 3;
#X connect 3 0 15 4;
#X connect 5 0 15 5;
#X connect 6 0 15 6;
#X connect 7 0 15 7;
#X connect 8 0 15 0;
#X connect 9 0 11 0;
#X connect 10 0 11 1;
#X connect 11 0 0 0;
#X connect 11 1 1 0;
#X connect 11 2 2 0;
#X connect 11 3 3 0;
#X connect 11 4 5 0;
#X connect 11 5 6 0;
#X connect 11 6 7 0;
#X connect 12 0 13 0;
#X connect 13 0 9 0;
#X connect 14 0 8 0;
#X connect 15 0 4 0;
#X coords 0 -1 1 1 15 105 2 100 100;
#X restore 276 152 pd row;
#N canvas 732 121 348 308 row 0;
#X obj 100 100 tgl 15 0 dr01-1 dr01-1-r empty 17 7 0 10 -162280 -257985
-1 0 1;
#X obj 100 115 tgl 15 0 dr01-2 dr01-2-r empty 17 7 0 10 -162280 -257985
-1 0 1;
#X obj 100 130 tgl 15 0 dr01-3 dr01-3-r empty 17 7 0 10 -162280 -257985
-1 0 1;
#X obj 100 145 tgl 15 0 dr01-4 dr01-4-r empty 17 7 0 10 -162280 -257985
-1 0 1;
#X obj 100 234 outlet;
#X obj 100 160 tgl 15 0 dr01-5 dr01-5-r empty 17 7 0 10 -162280 -257985
-1 0 1;
#X obj 100 175 tgl 15 0 dr01-6 dr01-6-r empty 17 7 0 10 -162280 -257985
-1 0 1;
#X obj 100 190 tgl 15 0 dr01-7 dr01-7-r empty 17 7 0 10 -162280 -257985
-1 0 1;
#X obj 44 195 bng 15 250 50 0 empty empty empty 17 7 0 10 -262144 -1
-1;
#X obj 55 28 bng 15 250 50 0 empty empty empty 17 7 0 10 -262144 -1
-1;
#X floatatom 100 22 5 0 0 0 - - -;
#N canvas 824 87 450 363 led01 0;
#X obj 149 20 loadbang;
#X obj 202 88 outlet;
#X obj 212 118 outlet;
#X obj 222 148 outlet;
#X obj 232 178 outlet;
#X obj 242 208 outlet;
#X obj 252 238 outlet;
#X obj 262 268 outlet;
#X obj 112 46 inlet;
#X obj 182 44 inlet;
#X obj 149 71 del 50;
#X obj 149 101 del 50;
#X obj 149 131 del 50;
#X obj 149 161 del 50;
#X obj 149 191 del 50;
#X obj 149 221 del 50;
#X obj 149 251 del 50;
#X obj 149 47 tgl 15 0 empty empty empty 17 7 0 10 -262144 -1 -1 1
1;
#X connect 0 0 17 0;
#X connect 8 0 10 0;
#X connect 9 0 10 1;
#X connect 9 0 11 1;
#X connect 9 0 12 1;
#X connect 9 0 13 1;
#X connect 9 0 14 1;
#X connect 9 0 15 1;
#X connect 9 0 16 1;
#X connect 10 0 1 0;
#X connect 10 0 11 0;
#X connect 11 0 2 0;
#X connect 11 0 12 0;
#X connect 12 0 3 0;
#X connect 12 0 13 0;
#X connect 13 0 4 0;
#X connect 13 0 14 0;
#X connect 14 0 5 0;
#X connect 14 0 15 0;
#X connect 15 0 6 0;
#X connect 15 0 16 0;
#X connect 16 0 7 0;
#X connect 17 0 10 0;
#X restore 55 55 pd led01;
#X obj 55 -25 loadbang;
#X obj 55 0 del 1000;
#X obj 44 171 inlet;
#X obj 100 210 pack 0 f f f f f f f;
#X connect 0 0 15 1;
#X connect 1 0 15 2;
#X connect 2 0 15 3;
#X connect 3 0 15 4;
#X connect 5 0 15 5;
#X connect 6 0 15 6;
#X connect 7 0 15 7;
#X connect 8 0 15 0;
#X connect 9 0 11 0;
#X connect 10 0 11 1;
#X connect 11 0 0 0;
#X connect 11 1 1 0;
#X connect 11 2 2 0;
#X connect 11 3 3 0;
#X connect 11 4 5 0;
#X connect 11 5 6 0;
#X connect 11 6 7 0;
#X connect 12 0 13 0;
#X connect 13 0 9 0;
#X connect 14 0 8 0;
#X connect 15 0 4 0;
#X coords 0 -1 1 1 15 105 2 100 100;
#X restore 291 152 pd row;
#N canvas 732 121 348 308 row 0;
#X obj 100 100 tgl 15 0 dr01-1 dr01-1-r empty 17 7 0 10 -162280 -257985
-1 0 1;
#X obj 100 115 tgl 15 0 dr01-2 dr01-2-r empty 17 7 0 10 -162280 -257985
-1 0 1;
#X obj 100 130 tgl 15 0 dr01-3 dr01-3-r empty 17 7 0 10 -162280 -257985
-1 0 1;
#X obj 100 145 tgl 15 0 dr01-4 dr01-4-r empty 17 7 0 10 -162280 -257985
-1 0 1;
#X obj 100 234 outlet;
#X obj 100 160 tgl 15 0 dr01-5 dr01-5-r empty 17 7 0 10 -162280 -257985
-1 0 1;
#X obj 100 175 tgl 15 0 dr01-6 dr01-6-r empty 17 7 0 10 -162280 -257985
-1 0 1;
#X obj 100 190 tgl 15 0 dr01-7 dr01-7-r empty 17 7 0 10 -162280 -257985
-1 0 1;
#X obj 44 195 bng 15 250 50 0 empty empty empty 17 7 0 10 -262144 -1
-1;
#X obj 55 28 bng 15 250 50 0 empty empty empty 17 7 0 10 -262144 -1
-1;
#X floatatom 100 22 5 0 0 0 - - -;
#N canvas 824 87 450 363 led01 0;
#X obj 149 20 loadbang;
#X obj 202 88 outlet;
#X obj 212 118 outlet;
#X obj 222 148 outlet;
#X obj 232 178 outlet;
#X obj 242 208 outlet;
#X obj 252 238 outlet;
#X obj 262 268 outlet;
#X obj 112 46 inlet;
#X obj 182 44 inlet;
#X obj 149 71 del 50;
#X obj 149 101 del 50;
#X obj 149 131 del 50;
#X obj 149 161 del 50;
#X obj 149 191 del 50;
#X obj 149 221 del 50;
#X obj 149 251 del 50;
#X obj 149 47 tgl 15 0 empty empty empty 17 7 0 10 -262144 -1 -1 1
1;
#X connect 0 0 17 0;
#X connect 8 0 10 0;
#X connect 9 0 10 1;
#X connect 9 0 11 1;
#X connect 9 0 12 1;
#X connect 9 0 13 1;
#X connect 9 0 14 1;
#X connect 9 0 15 1;
#X connect 9 0 16 1;
#X connect 10 0 1 0;
#X connect 10 0 11 0;
#X connect 11 0 2 0;
#X connect 11 0 12 0;
#X connect 12 0 3 0;
#X connect 12 0 13 0;
#X connect 13 0 4 0;
#X connect 13 0 14 0;
#X connect 14 0 5 0;
#X connect 14 0 15 0;
#X connect 15 0 6 0;
#X connect 15 0 16 0;
#X connect 16 0 7 0;
#X connect 17 0 10 0;
#X restore 55 55 pd led01;
#X obj 55 -25 loadbang;
#X obj 55 0 del 1000;
#X obj 44 171 inlet;
#X obj 100 210 pack 0 f f f f f f f;
#X connect 0 0 15 1;
#X connect 1 0 15 2;
#X connect 2 0 15 3;
#X connect 3 0 15 4;
#X connect 5 0 15 5;
#X connect 6 0 15 6;
#X connect 7 0 15 7;
#X connect 8 0 15 0;
#X connect 9 0 11 0;
#X connect 10 0 11 1;
#X connect 11 0 0 0;
#X connect 11 1 1 0;
#X connect 11 2 2 0;
#X connect 11 3 3 0;
#X connect 11 4 5 0;
#X connect 11 5 6 0;
#X connect 11 6 7 0;
#X connect 12 0 13 0;
#X connect 13 0 9 0;
#X connect 14 0 8 0;
#X connect 15 0 4 0;
#X coords 0 -1 1 1 15 105 2 100 100;
#X restore 306 152 pd row;
#N canvas 732 121 348 308 row 0;
#X obj 100 100 tgl 15 0 dr01-1 dr01-1-r empty 17 7 0 10 -66577 -257985
-1 0 1;
#X obj 100 115 tgl 15 0 dr01-2 dr01-2-r empty 17 7 0 10 -66577 -257985
-1 0 1;
#X obj 100 130 tgl 15 0 dr01-3 dr01-3-r empty 17 7 0 10 -66577 -257985
-1 0 1;
#X obj 100 145 tgl 15 0 dr01-4 dr01-4-r empty 17 7 0 10 -66577 -257985
-1 0 1;
#X obj 100 234 outlet;
#X obj 100 160 tgl 15 0 dr01-5 dr01-5-r empty 17 7 0 10 -66577 -257985
-1 0 1;
#X obj 100 175 tgl 15 0 dr01-6 dr01-6-r empty 17 7 0 10 -66577 -257985
-1 0 1;
#X obj 100 190 tgl 15 0 dr01-7 dr01-7-r empty 17 7 0 10 -66577 -257985
-1 0 1;
#X obj 44 195 bng 15 250 50 0 empty empty empty 17 7 0 10 -262144 -1
-1;
#X obj 55 28 bng 15 250 50 0 empty empty empty 17 7 0 10 -262144 -1
-1;
#X floatatom 100 22 5 0 0 0 - - -;
#N canvas 824 87 450 363 led01 0;
#X obj 149 20 loadbang;
#X obj 202 88 outlet;
#X obj 212 118 outlet;
#X obj 222 148 outlet;
#X obj 232 178 outlet;
#X obj 242 208 outlet;
#X obj 252 238 outlet;
#X obj 262 268 outlet;
#X obj 112 46 inlet;
#X obj 182 44 inlet;
#X obj 149 71 del 50;
#X obj 149 101 del 50;
#X obj 149 131 del 50;
#X obj 149 161 del 50;
#X obj 149 191 del 50;
#X obj 149 221 del 50;
#X obj 149 251 del 50;
#X obj 149 47 tgl 15 0 empty empty empty 17 7 0 10 -262144 -1 -1 1
1;
#X connect 0 0 17 0;
#X connect 8 0 10 0;
#X connect 9 0 10 1;
#X connect 9 0 11 1;
#X connect 9 0 12 1;
#X connect 9 0 13 1;
#X connect 9 0 14 1;
#X connect 9 0 15 1;
#X connect 9 0 16 1;
#X connect 10 0 1 0;
#X connect 10 0 11 0;
#X connect 11 0 2 0;
#X connect 11 0 12 0;
#X connect 12 0 3 0;
#X connect 12 0 13 0;
#X connect 13 0 4 0;
#X connect 13 0 14 0;
#X connect 14 0 5 0;
#X connect 14 0 15 0;
#X connect 15 0 6 0;
#X connect 15 0 16 0;
#X connect 16 0 7 0;
#X connect 17 0 10 0;
#X restore 55 55 pd led01;
#X obj 55 -25 loadbang;
#X obj 55 0 del 1000;
#X obj 44 171 inlet;
#X obj 100 210 pack 0 f f f f f f f;
#X connect 0 0 15 1;
#X connect 1 0 15 2;
#X connect 2 0 15 3;
#X connect 3 0 15 4;
#X connect 5 0 15 5;
#X connect 6 0 15 6;
#X connect 7 0 15 7;
#X connect 8 0 15 0;
#X connect 9 0 11 0;
#X connect 10 0 11 1;
#X connect 11 0 0 0;
#X connect 11 1 1 0;
#X connect 11 2 2 0;
#X connect 11 3 3 0;
#X connect 11 4 5 0;
#X connect 11 5 6 0;
#X connect 11 6 7 0;
#X connect 12 0 13 0;
#X connect 13 0 9 0;
#X connect 14 0 8 0;
#X connect 15 0 4 0;
#X coords 0 -1 1 1 15 105 2 100 100;
#X restore 321 152 pd row;
#N canvas 732 121 348 308 row 0;
#X obj 100 100 tgl 15 0 dr01-1 dr01-1-r empty 17 7 0 10 -162280 -257985
-1 0 1;
#X obj 100 115 tgl 15 0 dr01-2 dr01-2-r empty 17 7 0 10 -162280 -257985
-1 0 1;
#X obj 100 130 tgl 15 0 dr01-3 dr01-3-r empty 17 7 0 10 -162280 -257985
-1 0 1;
#X obj 100 145 tgl 15 0 dr01-4 dr01-4-r empty 17 7 0 10 -162280 -257985
-1 0 1;
#X obj 100 234 outlet;
#X obj 100 160 tgl 15 0 dr01-5 dr01-5-r empty 17 7 0 10 -162280 -257985
-1 0 1;
#X obj 100 175 tgl 15 0 dr01-6 dr01-6-r empty 17 7 0 10 -162280 -257985
-1 0 1;
#X obj 100 190 tgl 15 0 dr01-7 dr01-7-r empty 17 7 0 10 -162280 -257985
-1 0 1;
#X obj 44 195 bng 15 250 50 0 empty empty empty 17 7 0 10 -262144 -1
-1;
#X obj 55 28 bng 15 250 50 0 empty empty empty 17 7 0 10 -262144 -1
-1;
#X floatatom 100 22 5 0 0 0 - - -;
#N canvas 824 87 450 363 led01 0;
#X obj 149 20 loadbang;
#X obj 202 88 outlet;
#X obj 212 118 outlet;
#X obj 222 148 outlet;
#X obj 232 178 outlet;
#X obj 242 208 outlet;
#X obj 252 238 outlet;
#X obj 262 268 outlet;
#X obj 112 46 inlet;
#X obj 182 44 inlet;
#X obj 149 71 del 50;
#X obj 149 101 del 50;
#X obj 149 131 del 50;
#X obj 149 161 del 50;
#X obj 149 191 del 50;
#X obj 149 221 del 50;
#X obj 149 251 del 50;
#X obj 149 47 tgl 15 0 empty empty empty 17 7 0 10 -262144 -1 -1 1
1;
#X connect 0 0 17 0;
#X connect 8 0 10 0;
#X connect 9 0 10 1;
#X connect 9 0 11 1;
#X connect 9 0 12 1;
#X connect 9 0 13 1;
#X connect 9 0 14 1;
#X connect 9 0 15 1;
#X connect 9 0 16 1;
#X connect 10 0 1 0;
#X connect 10 0 11 0;
#X connect 11 0 2 0;
#X connect 11 0 12 0;
#X connect 12 0 3 0;
#X connect 12 0 13 0;
#X connect 13 0 4 0;
#X connect 13 0 14 0;
#X connect 14 0 5 0;
#X connect 14 0 15 0;
#X connect 15 0 6 0;
#X connect 15 0 16 0;
#X connect 16 0 7 0;
#X connect 17 0 10 0;
#X restore 55 55 pd led01;
#X obj 55 -25 loadbang;
#X obj 55 0 del 1000;
#X obj 44 171 inlet;
#X obj 100 210 pack 0 f f f f f f f;
#X connect 0 0 15 1;
#X connect 1 0 15 2;
#X connect 2 0 15 3;
#X connect 3 0 15 4;
#X connect 5 0 15 5;
#X connect 6 0 15 6;
#X connect 7 0 15 7;
#X connect 8 0 15 0;
#X connect 9 0 11 0;
#X connect 10 0 11 1;
#X connect 11 0 0 0;
#X connect 11 1 1 0;
#X connect 11 2 2 0;
#X connect 11 3 3 0;
#X connect 11 4 5 0;
#X connect 11 5 6 0;
#X connect 11 6 7 0;
#X connect 12 0 13 0;
#X connect 13 0 9 0;
#X connect 14 0 8 0;
#X connect 15 0 4 0;
#X coords 0 -1 1 1 15 105 2 100 100;
#X restore 336 152 pd row;
#N canvas 732 121 348 308 row 0;
#X obj 100 100 tgl 15 0 dr01-1 dr01-1-r empty 17 7 0 10 -162280 -257985
-1 0 1;
#X obj 100 115 tgl 15 0 dr01-2 dr01-2-r empty 17 7 0 10 -162280 -257985
-1 0 1;
#X obj 100 130 tgl 15 0 dr01-3 dr01-3-r empty 17 7 0 10 -162280 -257985
-1 0 1;
#X obj 100 145 tgl 15 0 dr01-4 dr01-4-r empty 17 7 0 10 -162280 -257985
-1 0 1;
#X obj 100 234 outlet;
#X obj 100 160 tgl 15 0 dr01-5 dr01-5-r empty 17 7 0 10 -162280 -257985
-1 0 1;
#X obj 100 175 tgl 15 0 dr01-6 dr01-6-r empty 17 7 0 10 -162280 -257985
-1 0 1;
#X obj 100 190 tgl 15 0 dr01-7 dr01-7-r empty 17 7 0 10 -162280 -257985
-1 0 1;
#X obj 44 195 bng 15 250 50 0 empty empty empty 17 7 0 10 -262144 -1
-1;
#X obj 55 28 bng 15 250 50 0 empty empty empty 17 7 0 10 -262144 -1
-1;
#X floatatom 100 22 5 0 0 0 - - -;
#N canvas 824 87 450 363 led01 0;
#X obj 149 20 loadbang;
#X obj 202 88 outlet;
#X obj 212 118 outlet;
#X obj 222 148 outlet;
#X obj 232 178 outlet;
#X obj 242 208 outlet;
#X obj 252 238 outlet;
#X obj 262 268 outlet;
#X obj 112 46 inlet;
#X obj 182 44 inlet;
#X obj 149 71 del 50;
#X obj 149 101 del 50;
#X obj 149 131 del 50;
#X obj 149 161 del 50;
#X obj 149 191 del 50;
#X obj 149 221 del 50;
#X obj 149 251 del 50;
#X obj 149 47 tgl 15 0 empty empty empty 17 7 0 10 -262144 -1 -1 1
1;
#X connect 0 0 17 0;
#X connect 8 0 10 0;
#X connect 9 0 10 1;
#X connect 9 0 11 1;
#X connect 9 0 12 1;
#X connect 9 0 13 1;
#X connect 9 0 14 1;
#X connect 9 0 15 1;
#X connect 9 0 16 1;
#X connect 10 0 1 0;
#X connect 10 0 11 0;
#X connect 11 0 2 0;
#X connect 11 0 12 0;
#X connect 12 0 3 0;
#X connect 12 0 13 0;
#X connect 13 0 4 0;
#X connect 13 0 14 0;
#X connect 14 0 5 0;
#X connect 14 0 15 0;
#X connect 15 0 6 0;
#X connect 15 0 16 0;
#X connect 16 0 7 0;
#X connect 17 0 10 0;
#X restore 55 55 pd led01;
#X obj 55 -25 loadbang;
#X obj 55 0 del 1000;
#X obj 44 171 inlet;
#X obj 100 210 pack 0 f f f f f f f;
#X connect 0 0 15 1;
#X connect 1 0 15 2;
#X connect 2 0 15 3;
#X connect 3 0 15 4;
#X connect 5 0 15 5;
#X connect 6 0 15 6;
#X connect 7 0 15 7;
#X connect 8 0 15 0;
#X connect 9 0 11 0;
#X connect 10 0 11 1;
#X connect 11 0 0 0;
#X connect 11 1 1 0;
#X connect 11 2 2 0;
#X connect 11 3 3 0;
#X connect 11 4 5 0;
#X connect 11 5 6 0;
#X connect 11 6 7 0;
#X connect 12 0 13 0;
#X connect 13 0 9 0;
#X connect 14 0 8 0;
#X connect 15 0 4 0;
#X coords 0 -1 1 1 15 105 2 100 100;
#X restore 351 152 pd row;
#N canvas 732 121 348 308 row 0;
#X obj 100 100 tgl 15 0 dr01-1 dr01-1-r empty 17 7 0 10 -162280 -257985
-1 0 1;
#X obj 100 115 tgl 15 0 dr01-2 dr01-2-r empty 17 7 0 10 -162280 -257985
-1 0 1;
#X obj 100 130 tgl 15 0 dr01-3 dr01-3-r empty 17 7 0 10 -162280 -257985
-1 0 1;
#X obj 100 145 tgl 15 0 dr01-4 dr01-4-r empty 17 7 0 10 -162280 -257985
-1 0 1;
#X obj 100 234 outlet;
#X obj 100 160 tgl 15 0 dr01-5 dr01-5-r empty 17 7 0 10 -162280 -257985
-1 0 1;
#X obj 100 175 tgl 15 0 dr01-6 dr01-6-r empty 17 7 0 10 -162280 -257985
-1 0 1;
#X obj 100 190 tgl 15 0 dr01-7 dr01-7-r empty 17 7 0 10 -162280 -257985
-1 0 1;
#X obj 44 195 bng 15 250 50 0 empty empty empty 17 7 0 10 -262144 -1
-1;
#X obj 55 28 bng 15 250 50 0 empty empty empty 17 7 0 10 -262144 -1
-1;
#X floatatom 100 22 5 0 0 0 - - -;
#N canvas 824 87 450 363 led01 0;
#X obj 149 20 loadbang;
#X obj 202 88 outlet;
#X obj 212 118 outlet;
#X obj 222 148 outlet;
#X obj 232 178 outlet;
#X obj 242 208 outlet;
#X obj 252 238 outlet;
#X obj 262 268 outlet;
#X obj 112 46 inlet;
#X obj 182 44 inlet;
#X obj 149 71 del 50;
#X obj 149 101 del 50;
#X obj 149 131 del 50;
#X obj 149 161 del 50;
#X obj 149 191 del 50;
#X obj 149 221 del 50;
#X obj 149 251 del 50;
#X obj 149 47 tgl 15 0 empty empty empty 17 7 0 10 -262144 -1 -1 1
1;
#X connect 0 0 17 0;
#X connect 8 0 10 0;
#X connect 9 0 10 1;
#X connect 9 0 11 1;
#X connect 9 0 12 1;
#X connect 9 0 13 1;
#X connect 9 0 14 1;
#X connect 9 0 15 1;
#X connect 9 0 16 1;
#X connect 10 0 1 0;
#X connect 10 0 11 0;
#X connect 11 0 2 0;
#X connect 11 0 12 0;
#X connect 12 0 3 0;
#X connect 12 0 13 0;
#X connect 13 0 4 0;
#X connect 13 0 14 0;
#X connect 14 0 5 0;
#X connect 14 0 15 0;
#X connect 15 0 6 0;
#X connect 15 0 16 0;
#X connect 16 0 7 0;
#X connect 17 0 10 0;
#X restore 55 55 pd led01;
#X obj 55 -25 loadbang;
#X obj 55 0 del 1000;
#X obj 44 171 inlet;
#X obj 100 210 pack 0 f f f f f f f;
#X connect 0 0 15 1;
#X connect 1 0 15 2;
#X connect 2 0 15 3;
#X connect 3 0 15 4;
#X connect 5 0 15 5;
#X connect 6 0 15 6;
#X connect 7 0 15 7;
#X connect 8 0 15 0;
#X connect 9 0 11 0;
#X connect 10 0 11 1;
#X connect 11 0 0 0;
#X connect 11 1 1 0;
#X connect 11 2 2 0;
#X connect 11 3 3 0;
#X connect 11 4 5 0;
#X connect 11 5 6 0;
#X connect 11 6 7 0;
#X connect 12 0 13 0;
#X connect 13 0 9 0;
#X connect 14 0 8 0;
#X connect 15 0 4 0;
#X coords 0 -1 1 1 15 105 2 100 100;
#X restore 366 152 pd row;
#N canvas 732 121 348 308 row 0;
#X obj 100 100 tgl 15 0 dr01-1 dr01-1-r empty 17 7 0 10 -33289 -257985
-1 0 1;
#X obj 100 115 tgl 15 0 dr01-2 dr01-2-r empty 17 7 0 10 -33289 -257985
-1 0 1;
#X obj 100 130 tgl 15 0 dr01-3 dr01-3-r empty 17 7 0 10 -33289 -257985
-1 0 1;
#X obj 100 145 tgl 15 0 dr01-4 dr01-4-r empty 17 7 0 10 -33289 -257985
-1 0 1;
#X obj 100 234 outlet;
#X obj 100 160 tgl 15 0 dr01-5 dr01-5-r empty 17 7 0 10 -33289 -257985
-1 0 1;
#X obj 100 175 tgl 15 0 dr01-6 dr01-6-r empty 17 7 0 10 -33289 -257985
-1 0 1;
#X obj 100 190 tgl 15 0 dr01-7 dr01-7-r empty 17 7 0 10 -33289 -257985
-1 0 1;
#X obj 44 195 bng 15 250 50 0 empty empty empty 17 7 0 10 -262144 -1
-1;
#X obj 55 28 bng 15 250 50 0 empty empty empty 17 7 0 10 -262144 -1
-1;
#X floatatom 100 22 5 0 0 0 - - -;
#N canvas 824 87 450 363 led01 0;
#X obj 149 20 loadbang;
#X obj 202 88 outlet;
#X obj 212 118 outlet;
#X obj 222 148 outlet;
#X obj 232 178 outlet;
#X obj 242 208 outlet;
#X obj 252 238 outlet;
#X obj 262 268 outlet;
#X obj 112 46 inlet;
#X obj 182 44 inlet;
#X obj 149 71 del 50;
#X obj 149 101 del 50;
#X obj 149 131 del 50;
#X obj 149 161 del 50;
#X obj 149 191 del 50;
#X obj 149 221 del 50;
#X obj 149 251 del 50;
#X obj 149 47 tgl 15 0 empty empty empty 17 7 0 10 -262144 -1 -1 1
1;
#X connect 0 0 17 0;
#X connect 8 0 10 0;
#X connect 9 0 10 1;
#X connect 9 0 11 1;
#X connect 9 0 12 1;
#X connect 9 0 13 1;
#X connect 9 0 14 1;
#X connect 9 0 15 1;
#X connect 9 0 16 1;
#X connect 10 0 1 0;
#X connect 10 0 11 0;
#X connect 11 0 2 0;
#X connect 11 0 12 0;
#X connect 12 0 3 0;
#X connect 12 0 13 0;
#X connect 13 0 4 0;
#X connect 13 0 14 0;
#X connect 14 0 5 0;
#X connect 14 0 15 0;
#X connect 15 0 6 0;
#X connect 15 0 16 0;
#X connect 16 0 7 0;
#X connect 17 0 10 0;
#X restore 55 55 pd led01;
#X obj 55 -25 loadbang;
#X obj 55 0 del 1000;
#X obj 44 171 inlet;
#X obj 100 210 pack 0 f f f f f f f;
#X connect 0 0 15 1;
#X connect 1 0 15 2;
#X connect 2 0 15 3;
#X connect 3 0 15 4;
#X connect 5 0 15 5;
#X connect 6 0 15 6;
#X connect 7 0 15 7;
#X connect 8 0 15 0;
#X connect 9 0 11 0;
#X connect 10 0 11 1;
#X connect 11 0 0 0;
#X connect 11 1 1 0;
#X connect 11 2 2 0;
#X connect 11 3 3 0;
#X connect 11 4 5 0;
#X connect 11 5 6 0;
#X connect 11 6 7 0;
#X connect 12 0 13 0;
#X connect 13 0 9 0;
#X connect 14 0 8 0;
#X connect 15 0 4 0;
#X coords 0 -1 1 1 15 105 2 100 100;
#X restore 381 152 pd row;
#N canvas 732 121 348 308 row 0;
#X obj 100 100 tgl 15 0 dr01-1 dr01-1-r empty 17 7 0 10 -162280 -257985
-1 0 1;
#X obj 100 115 tgl 15 0 dr01-2 dr01-2-r empty 17 7 0 10 -162280 -257985
-1 0 1;
#X obj 100 130 tgl 15 0 dr01-3 dr01-3-r empty 17 7 0 10 -162280 -257985
-1 0 1;
#X obj 100 145 tgl 15 0 dr01-4 dr01-4-r empty 17 7 0 10 -162280 -257985
-1 0 1;
#X obj 100 234 outlet;
#X obj 100 160 tgl 15 0 dr01-5 dr01-5-r empty 17 7 0 10 -162280 -257985
-1 0 1;
#X obj 100 175 tgl 15 0 dr01-6 dr01-6-r empty 17 7 0 10 -162280 -257985
-1 0 1;
#X obj 100 190 tgl 15 0 dr01-7 dr01-7-r empty 17 7 0 10 -162280 -257985
-1 0 1;
#X obj 44 195 bng 15 250 50 0 empty empty empty 17 7 0 10 -262144 -1
-1;
#X obj 55 28 bng 15 250 50 0 empty empty empty 17 7 0 10 -262144 -1
-1;
#X floatatom 100 22 5 0 0 0 - - -;
#N canvas 824 87 450 363 led01 0;
#X obj 149 20 loadbang;
#X obj 202 88 outlet;
#X obj 212 118 outlet;
#X obj 222 148 outlet;
#X obj 232 178 outlet;
#X obj 242 208 outlet;
#X obj 252 238 outlet;
#X obj 262 268 outlet;
#X obj 112 46 inlet;
#X obj 182 44 inlet;
#X obj 149 71 del 50;
#X obj 149 101 del 50;
#X obj 149 131 del 50;
#X obj 149 161 del 50;
#X obj 149 191 del 50;
#X obj 149 221 del 50;
#X obj 149 251 del 50;
#X obj 149 47 tgl 15 0 empty empty empty 17 7 0 10 -262144 -1 -1 1
1;
#X connect 0 0 17 0;
#X connect 8 0 10 0;
#X connect 9 0 10 1;
#X connect 9 0 11 1;
#X connect 9 0 12 1;
#X connect 9 0 13 1;
#X connect 9 0 14 1;
#X connect 9 0 15 1;
#X connect 9 0 16 1;
#X connect 10 0 1 0;
#X connect 10 0 11 0;
#X connect 11 0 2 0;
#X connect 11 0 12 0;
#X connect 12 0 3 0;
#X connect 12 0 13 0;
#X connect 13 0 4 0;
#X connect 13 0 14 0;
#X connect 14 0 5 0;
#X connect 14 0 15 0;
#X connect 15 0 6 0;
#X connect 15 0 16 0;
#X connect 16 0 7 0;
#X connect 17 0 10 0;
#X restore 55 55 pd led01;
#X obj 55 -25 loadbang;
#X obj 55 0 del 1000;
#X obj 44 171 inlet;
#X obj 100 210 pack 0 f f f f f f f;
#X connect 0 0 15 1;
#X connect 1 0 15 2;
#X connect 2 0 15 3;
#X connect 3 0 15 4;
#X connect 5 0 15 5;
#X connect 6 0 15 6;
#X connect 7 0 15 7;
#X connect 8 0 15 0;
#X connect 9 0 11 0;
#X connect 10 0 11 1;
#X connect 11 0 0 0;
#X connect 11 1 1 0;
#X connect 11 2 2 0;
#X connect 11 3 3 0;
#X connect 11 4 5 0;
#X connect 11 5 6 0;
#X connect 11 6 7 0;
#X connect 12 0 13 0;
#X connect 13 0 9 0;
#X connect 14 0 8 0;
#X connect 15 0 4 0;
#X coords 0 -1 1 1 15 105 2 100 100;
#X restore 396 152 pd row;
#N canvas 732 121 348 308 row 0;
#X obj 100 100 tgl 15 0 dr01-1 dr01-1-r empty 17 7 0 10 -162280 -257985
-1 0 1;
#X obj 100 115 tgl 15 0 dr01-2 dr01-2-r empty 17 7 0 10 -162280 -257985
-1 0 1;
#X obj 100 130 tgl 15 0 dr01-3 dr01-3-r empty 17 7 0 10 -162280 -257985
-1 0 1;
#X obj 100 145 tgl 15 0 dr01-4 dr01-4-r empty 17 7 0 10 -162280 -257985
-1 0 1;
#X obj 100 234 outlet;
#X obj 100 160 tgl 15 0 dr01-5 dr01-5-r empty 17 7 0 10 -162280 -257985
-1 0 1;
#X obj 100 175 tgl 15 0 dr01-6 dr01-6-r empty 17 7 0 10 -162280 -257985
-1 0 1;
#X obj 100 190 tgl 15 0 dr01-7 dr01-7-r empty 17 7 0 10 -162280 -257985
-1 0 1;
#X obj 44 195 bng 15 250 50 0 empty empty empty 17 7 0 10 -262144 -1
-1;
#X obj 55 28 bng 15 250 50 0 empty empty empty 17 7 0 10 -262144 -1
-1;
#X floatatom 100 22 5 0 0 0 - - -;
#N canvas 824 87 450 363 led01 0;
#X obj 149 20 loadbang;
#X obj 202 88 outlet;
#X obj 212 118 outlet;
#X obj 222 148 outlet;
#X obj 232 178 outlet;
#X obj 242 208 outlet;
#X obj 252 238 outlet;
#X obj 262 268 outlet;
#X obj 112 46 inlet;
#X obj 182 44 inlet;
#X obj 149 71 del 50;
#X obj 149 101 del 50;
#X obj 149 131 del 50;
#X obj 149 161 del 50;
#X obj 149 191 del 50;
#X obj 149 221 del 50;
#X obj 149 251 del 50;
#X obj 149 47 tgl 15 0 empty empty empty 17 7 0 10 -262144 -1 -1 1
1;
#X connect 0 0 17 0;
#X connect 8 0 10 0;
#X connect 9 0 10 1;
#X connect 9 0 11 1;
#X connect 9 0 12 1;
#X connect 9 0 13 1;
#X connect 9 0 14 1;
#X connect 9 0 15 1;
#X connect 9 0 16 1;
#X connect 10 0 1 0;
#X connect 10 0 11 0;
#X connect 11 0 2 0;
#X connect 11 0 12 0;
#X connect 12 0 3 0;
#X connect 12 0 13 0;
#X connect 13 0 4 0;
#X connect 13 0 14 0;
#X connect 14 0 5 0;
#X connect 14 0 15 0;
#X connect 15 0 6 0;
#X connect 15 0 16 0;
#X connect 16 0 7 0;
#X connect 17 0 10 0;
#X restore 55 55 pd led01;
#X obj 55 -25 loadbang;
#X obj 55 0 del 1000;
#X obj 44 171 inlet;
#X obj 100 210 pack 0 f f f f f f f;
#X connect 0 0 15 1;
#X connect 1 0 15 2;
#X connect 2 0 15 3;
#X connect 3 0 15 4;
#X connect 5 0 15 5;
#X connect 6 0 15 6;
#X connect 7 0 15 7;
#X connect 8 0 15 0;
#X connect 9 0 11 0;
#X connect 10 0 11 1;
#X connect 11 0 0 0;
#X connect 11 1 1 0;
#X connect 11 2 2 0;
#X connect 11 3 3 0;
#X connect 11 4 5 0;
#X connect 11 5 6 0;
#X connect 11 6 7 0;
#X connect 12 0 13 0;
#X connect 13 0 9 0;
#X connect 14 0 8 0;
#X connect 15 0 4 0;
#X coords 0 -1 1 1 15 105 2 100 100;
#X restore 411 152 pd row;
#N canvas 732 121 348 308 row 0;
#X obj 100 100 tgl 15 0 dr01-1 dr01-1-r empty 17 7 0 10 -162280 -257985
-1 0 1;
#X obj 100 115 tgl 15 0 dr01-2 dr01-2-r empty 17 7 0 10 -162280 -257985
-1 0 1;
#X obj 100 130 tgl 15 0 dr01-3 dr01-3-r empty 17 7 0 10 -162280 -257985
-1 0 1;
#X obj 100 145 tgl 15 0 dr01-4 dr01-4-r empty 17 7 0 10 -162280 -257985
-1 0 1;
#X obj 100 234 outlet;
#X obj 100 160 tgl 15 0 dr01-5 dr01-5-r empty 17 7 0 10 -162280 -257985
-1 0 1;
#X obj 100 175 tgl 15 0 dr01-6 dr01-6-r empty 17 7 0 10 -162280 -257985
-1 0 1;
#X obj 100 190 tgl 15 0 dr01-7 dr01-7-r empty 17 7 0 10 -162280 -257985
-1 0 1;
#X obj 44 195 bng 15 250 50 0 empty empty empty 17 7 0 10 -262144 -1
-1;
#X obj 55 28 bng 15 250 50 0 empty empty empty 17 7 0 10 -262144 -1
-1;
#X floatatom 100 22 5 0 0 0 - - -;
#N canvas 824 87 450 363 led01 0;
#X obj 149 20 loadbang;
#X obj 202 88 outlet;
#X obj 212 118 outlet;
#X obj 222 148 outlet;
#X obj 232 178 outlet;
#X obj 242 208 outlet;
#X obj 252 238 outlet;
#X obj 262 268 outlet;
#X obj 112 46 inlet;
#X obj 182 44 inlet;
#X obj 149 71 del 50;
#X obj 149 101 del 50;
#X obj 149 131 del 50;
#X obj 149 161 del 50;
#X obj 149 191 del 50;
#X obj 149 221 del 50;
#X obj 149 251 del 50;
#X obj 149 47 tgl 15 0 empty empty empty 17 7 0 10 -262144 -1 -1 1
1;
#X connect 0 0 17 0;
#X connect 8 0 10 0;
#X connect 9 0 10 1;
#X connect 9 0 11 1;
#X connect 9 0 12 1;
#X connect 9 0 13 1;
#X connect 9 0 14 1;
#X connect 9 0 15 1;
#X connect 9 0 16 1;
#X connect 10 0 1 0;
#X connect 10 0 11 0;
#X connect 11 0 2 0;
#X connect 11 0 12 0;
#X connect 12 0 3 0;
#X connect 12 0 13 0;
#X connect 13 0 4 0;
#X connect 13 0 14 0;
#X connect 14 0 5 0;
#X connect 14 0 15 0;
#X connect 15 0 6 0;
#X connect 15 0 16 0;
#X connect 16 0 7 0;
#X connect 17 0 10 0;
#X restore 55 55 pd led01;
#X obj 55 -25 loadbang;
#X obj 55 0 del 1000;
#X obj 44 171 inlet;
#X obj 100 210 pack 0 f f f f f f f;
#X connect 0 0 15 1;
#X connect 1 0 15 2;
#X connect 2 0 15 3;
#X connect 3 0 15 4;
#X connect 5 0 15 5;
#X connect 6 0 15 6;
#X connect 7 0 15 7;
#X connect 8 0 15 0;
#X connect 9 0 11 0;
#X connect 10 0 11 1;
#X connect 11 0 0 0;
#X connect 11 1 1 0;
#X connect 11 2 2 0;
#X connect 11 3 3 0;
#X connect 11 4 5 0;
#X connect 11 5 6 0;
#X connect 11 6 7 0;
#X connect 12 0 13 0;
#X connect 13 0 9 0;
#X connect 14 0 8 0;
#X connect 15 0 4 0;
#X coords 0 -1 1 1 15 105 2 100 100;
#X restore 426 152 pd row;
#N canvas 732 121 348 308 row 0;
#X obj 100 100 tgl 15 0 dr01-1 dr01-1-r empty 17 7 0 10 -66577 -257985
-1 0 1;
#X obj 100 115 tgl 15 0 dr01-2 dr01-2-r empty 17 7 0 10 -66577 -257985
-1 0 1;
#X obj 100 130 tgl 15 0 dr01-3 dr01-3-r empty 17 7 0 10 -66577 -257985
-1 0 1;
#X obj 100 145 tgl 15 0 dr01-4 dr01-4-r empty 17 7 0 10 -66577 -257985
-1 0 1;
#X obj 100 234 outlet;
#X obj 100 160 tgl 15 0 dr01-5 dr01-5-r empty 17 7 0 10 -66577 -257985
-1 0 1;
#X obj 100 175 tgl 15 0 dr01-6 dr01-6-r empty 17 7 0 10 -66577 -257985
-1 0 1;
#X obj 100 190 tgl 15 0 dr01-7 dr01-7-r empty 17 7 0 10 -66577 -257985
-1 0 1;
#X obj 44 195 bng 15 250 50 0 empty empty empty 17 7 0 10 -262144 -1
-1;
#X obj 55 28 bng 15 250 50 0 empty empty empty 17 7 0 10 -262144 -1
-1;
#X floatatom 100 22 5 0 0 0 - - -;
#N canvas 824 87 450 363 led01 0;
#X obj 149 20 loadbang;
#X obj 202 88 outlet;
#X obj 212 118 outlet;
#X obj 222 148 outlet;
#X obj 232 178 outlet;
#X obj 242 208 outlet;
#X obj 252 238 outlet;
#X obj 262 268 outlet;
#X obj 112 46 inlet;
#X obj 182 44 inlet;
#X obj 149 71 del 50;
#X obj 149 101 del 50;
#X obj 149 131 del 50;
#X obj 149 161 del 50;
#X obj 149 191 del 50;
#X obj 149 221 del 50;
#X obj 149 251 del 50;
#X obj 149 47 tgl 15 0 empty empty empty 17 7 0 10 -262144 -1 -1 1
1;
#X connect 0 0 17 0;
#X connect 8 0 10 0;
#X connect 9 0 10 1;
#X connect 9 0 11 1;
#X connect 9 0 12 1;
#X connect 9 0 13 1;
#X connect 9 0 14 1;
#X connect 9 0 15 1;
#X connect 9 0 16 1;
#X connect 10 0 1 0;
#X connect 10 0 11 0;
#X connect 11 0 2 0;
#X connect 11 0 12 0;
#X connect 12 0 3 0;
#X connect 12 0 13 0;
#X connect 13 0 4 0;
#X connect 13 0 14 0;
#X connect 14 0 5 0;
#X connect 14 0 15 0;
#X connect 15 0 6 0;
#X connect 15 0 16 0;
#X connect 16 0 7 0;
#X connect 17 0 10 0;
#X restore 55 55 pd led01;
#X obj 55 -25 loadbang;
#X obj 55 0 del 1000;
#X obj 44 171 inlet;
#X obj 100 210 pack 0 f f f f f f f;
#X connect 0 0 15 1;
#X connect 1 0 15 2;
#X connect 2 0 15 3;
#X connect 3 0 15 4;
#X connect 5 0 15 5;
#X connect 6 0 15 6;
#X connect 7 0 15 7;
#X connect 8 0 15 0;
#X connect 9 0 11 0;
#X connect 10 0 11 1;
#X connect 11 0 0 0;
#X connect 11 1 1 0;
#X connect 11 2 2 0;
#X connect 11 3 3 0;
#X connect 11 4 5 0;
#X connect 11 5 6 0;
#X connect 11 6 7 0;
#X connect 12 0 13 0;
#X connect 13 0 9 0;
#X connect 14 0 8 0;
#X connect 15 0 4 0;
#X coords 0 -1 1 1 15 105 2 100 100;
#X restore 441 152 pd row;
#N canvas 732 121 348 308 row 0;
#X obj 100 100 tgl 15 0 dr01-1 dr01-1-r empty 17 7 0 10 -162280 -257985
-1 0 1;
#X obj 100 115 tgl 15 0 dr01-2 dr01-2-r empty 17 7 0 10 -162280 -257985
-1 0 1;
#X obj 100 130 tgl 15 0 dr01-3 dr01-3-r empty 17 7 0 10 -162280 -257985
-1 0 1;
#X obj 100 145 tgl 15 0 dr01-4 dr01-4-r empty 17 7 0 10 -162280 -257985
-1 0 1;
#X obj 100 234 outlet;
#X obj 100 160 tgl 15 0 dr01-5 dr01-5-r empty 17 7 0 10 -162280 -257985
-1 0 1;
#X obj 100 175 tgl 15 0 dr01-6 dr01-6-r empty 17 7 0 10 -162280 -257985
-1 0 1;
#X obj 100 190 tgl 15 0 dr01-7 dr01-7-r empty 17 7 0 10 -162280 -257985
-1 0 1;
#X obj 44 195 bng 15 250 50 0 empty empty empty 17 7 0 10 -262144 -1
-1;
#X obj 55 28 bng 15 250 50 0 empty empty empty 17 7 0 10 -262144 -1
-1;
#X floatatom 100 22 5 0 0 0 - - -;
#N canvas 824 87 450 363 led01 0;
#X obj 149 20 loadbang;
#X obj 202 88 outlet;
#X obj 212 118 outlet;
#X obj 222 148 outlet;
#X obj 232 178 outlet;
#X obj 242 208 outlet;
#X obj 252 238 outlet;
#X obj 262 268 outlet;
#X obj 112 46 inlet;
#X obj 182 44 inlet;
#X obj 149 71 del 50;
#X obj 149 101 del 50;
#X obj 149 131 del 50;
#X obj 149 161 del 50;
#X obj 149 191 del 50;
#X obj 149 221 del 50;
#X obj 149 251 del 50;
#X obj 149 47 tgl 15 0 empty empty empty 17 7 0 10 -262144 -1 -1 1
1;
#X connect 0 0 17 0;
#X connect 8 0 10 0;
#X connect 9 0 10 1;
#X connect 9 0 11 1;
#X connect 9 0 12 1;
#X connect 9 0 13 1;
#X connect 9 0 14 1;
#X connect 9 0 15 1;
#X connect 9 0 16 1;
#X connect 10 0 1 0;
#X connect 10 0 11 0;
#X connect 11 0 2 0;
#X connect 11 0 12 0;
#X connect 12 0 3 0;
#X connect 12 0 13 0;
#X connect 13 0 4 0;
#X connect 13 0 14 0;
#X connect 14 0 5 0;
#X connect 14 0 15 0;
#X connect 15 0 6 0;
#X connect 15 0 16 0;
#X connect 16 0 7 0;
#X connect 17 0 10 0;
#X restore 55 55 pd led01;
#X obj 55 -25 loadbang;
#X obj 55 0 del 1000;
#X obj 44 171 inlet;
#X obj 100 210 pack 0 f f f f f f f;
#X connect 0 0 15 1;
#X connect 1 0 15 2;
#X connect 2 0 15 3;
#X connect 3 0 15 4;
#X connect 5 0 15 5;
#X connect 6 0 15 6;
#X connect 7 0 15 7;
#X connect 8 0 15 0;
#X connect 9 0 11 0;
#X connect 10 0 11 1;
#X connect 11 0 0 0;
#X connect 11 1 1 0;
#X connect 11 2 2 0;
#X connect 11 3 3 0;
#X connect 11 4 5 0;
#X connect 11 5 6 0;
#X connect 11 6 7 0;
#X connect 12 0 13 0;
#X connect 13 0 9 0;
#X connect 14 0 8 0;
#X connect 15 0 4 0;
#X coords 0 -1 1 1 15 105 2 100 100;
#X restore 456 152 pd row;
#N canvas 732 121 348 308 row 0;
#X obj 100 100 tgl 15 0 dr01-1 dr01-1-r empty 17 7 0 10 -162280 -257985
-1 0 1;
#X obj 100 115 tgl 15 0 dr01-2 dr01-2-r empty 17 7 0 10 -162280 -257985
-1 0 1;
#X obj 100 130 tgl 15 0 dr01-3 dr01-3-r empty 17 7 0 10 -162280 -257985
-1 0 1;
#X obj 100 145 tgl 15 0 dr01-4 dr01-4-r empty 17 7 0 10 -162280 -257985
-1 0 1;
#X obj 100 234 outlet;
#X obj 100 160 tgl 15 0 dr01-5 dr01-5-r empty 17 7 0 10 -162280 -257985
-1 0 1;
#X obj 100 175 tgl 15 0 dr01-6 dr01-6-r empty 17 7 0 10 -162280 -257985
-1 0 1;
#X obj 100 190 tgl 15 0 dr01-7 dr01-7-r empty 17 7 0 10 -162280 -257985
-1 0 1;
#X obj 44 195 bng 15 250 50 0 empty empty empty 17 7 0 10 -262144 -1
-1;
#X obj 55 28 bng 15 250 50 0 empty empty empty 17 7 0 10 -262144 -1
-1;
#X floatatom 100 22 5 0 0 0 - - -;
#N canvas 824 87 450 363 led01 0;
#X obj 149 20 loadbang;
#X obj 202 88 outlet;
#X obj 212 118 outlet;
#X obj 222 148 outlet;
#X obj 232 178 outlet;
#X obj 242 208 outlet;
#X obj 252 238 outlet;
#X obj 262 268 outlet;
#X obj 112 46 inlet;
#X obj 182 44 inlet;
#X obj 149 71 del 50;
#X obj 149 101 del 50;
#X obj 149 131 del 50;
#X obj 149 161 del 50;
#X obj 149 191 del 50;
#X obj 149 221 del 50;
#X obj 149 251 del 50;
#X obj 149 47 tgl 15 0 empty empty empty 17 7 0 10 -262144 -1 -1 1
1;
#X connect 0 0 17 0;
#X connect 8 0 10 0;
#X connect 9 0 10 1;
#X connect 9 0 11 1;
#X connect 9 0 12 1;
#X connect 9 0 13 1;
#X connect 9 0 14 1;
#X connect 9 0 15 1;
#X connect 9 0 16 1;
#X connect 10 0 1 0;
#X connect 10 0 11 0;
#X connect 11 0 2 0;
#X connect 11 0 12 0;
#X connect 12 0 3 0;
#X connect 12 0 13 0;
#X connect 13 0 4 0;
#X connect 13 0 14 0;
#X connect 14 0 5 0;
#X connect 14 0 15 0;
#X connect 15 0 6 0;
#X connect 15 0 16 0;
#X connect 16 0 7 0;
#X connect 17 0 10 0;
#X restore 55 55 pd led01;
#X obj 55 -25 loadbang;
#X obj 55 0 del 1000;
#X obj 44 171 inlet;
#X obj 100 210 pack 0 f f f f f f f;
#X connect 0 0 15 1;
#X connect 1 0 15 2;
#X connect 2 0 15 3;
#X connect 3 0 15 4;
#X connect 5 0 15 5;
#X connect 6 0 15 6;
#X connect 7 0 15 7;
#X connect 8 0 15 0;
#X connect 9 0 11 0;
#X connect 10 0 11 1;
#X connect 11 0 0 0;
#X connect 11 1 1 0;
#X connect 11 2 2 0;
#X connect 11 3 3 0;
#X connect 11 4 5 0;
#X connect 11 5 6 0;
#X connect 11 6 7 0;
#X connect 12 0 13 0;
#X connect 13 0 9 0;
#X connect 14 0 8 0;
#X connect 15 0 4 0;
#X coords 0 -1 1 1 15 105 2 100 100;
#X restore 471 152 pd row;
#N canvas 732 121 348 308 row 0;
#X obj 100 100 tgl 15 0 dr01-1 dr01-1-r empty 17 7 0 10 -162280 -257985
-1 0 1;
#X obj 100 115 tgl 15 0 dr01-2 dr01-2-r empty 17 7 0 10 -162280 -257985
-1 0 1;
#X obj 100 130 tgl 15 0 dr01-3 dr01-3-r empty 17 7 0 10 -162280 -257985
-1 0 1;
#X obj 100 145 tgl 15 0 dr01-4 dr01-4-r empty 17 7 0 10 -162280 -257985
-1 0 1;
#X obj 100 234 outlet;
#X obj 100 160 tgl 15 0 dr01-5 dr01-5-r empty 17 7 0 10 -162280 -257985
-1 0 1;
#X obj 100 175 tgl 15 0 dr01-6 dr01-6-r empty 17 7 0 10 -162280 -257985
-1 0 1;
#X obj 100 190 tgl 15 0 dr01-7 dr01-7-r empty 17 7 0 10 -162280 -257985
-1 0 1;
#X obj 44 195 bng 15 250 50 0 empty empty empty 17 7 0 10 -262144 -1
-1;
#X obj 55 28 bng 15 250 50 0 empty empty empty 17 7 0 10 -262144 -1
-1;
#X floatatom 100 22 5 0 0 0 - - -;
#N canvas 824 87 450 363 led01 0;
#X obj 149 20 loadbang;
#X obj 202 88 outlet;
#X obj 212 118 outlet;
#X obj 222 148 outlet;
#X obj 232 178 outlet;
#X obj 242 208 outlet;
#X obj 252 238 outlet;
#X obj 262 268 outlet;
#X obj 112 46 inlet;
#X obj 182 44 inlet;
#X obj 149 71 del 50;
#X obj 149 101 del 50;
#X obj 149 131 del 50;
#X obj 149 161 del 50;
#X obj 149 191 del 50;
#X obj 149 221 del 50;
#X obj 149 251 del 50;
#X obj 149 47 tgl 15 0 empty empty empty 17 7 0 10 -262144 -1 -1 1
1;
#X connect 0 0 17 0;
#X connect 8 0 10 0;
#X connect 9 0 10 1;
#X connect 9 0 11 1;
#X connect 9 0 12 1;
#X connect 9 0 13 1;
#X connect 9 0 14 1;
#X connect 9 0 15 1;
#X connect 9 0 16 1;
#X connect 10 0 1 0;
#X connect 10 0 11 0;
#X connect 11 0 2 0;
#X connect 11 0 12 0;
#X connect 12 0 3 0;
#X connect 12 0 13 0;
#X connect 13 0 4 0;
#X connect 13 0 14 0;
#X connect 14 0 5 0;
#X connect 14 0 15 0;
#X connect 15 0 6 0;
#X connect 15 0 16 0;
#X connect 16 0 7 0;
#X connect 17 0 10 0;
#X restore 55 55 pd led01;
#X obj 55 -25 loadbang;
#X obj 55 0 del 1000;
#X obj 44 171 inlet;
#X obj 100 210 pack 0 f f f f f f f;
#X connect 0 0 15 1;
#X connect 1 0 15 2;
#X connect 2 0 15 3;
#X connect 3 0 15 4;
#X connect 5 0 15 5;
#X connect 6 0 15 6;
#X connect 7 0 15 7;
#X connect 8 0 15 0;
#X connect 9 0 11 0;
#X connect 10 0 11 1;
#X connect 11 0 0 0;
#X connect 11 1 1 0;
#X connect 11 2 2 0;
#X connect 11 3 3 0;
#X connect 11 4 5 0;
#X connect 11 5 6 0;
#X connect 11 6 7 0;
#X connect 12 0 13 0;
#X connect 13 0 9 0;
#X connect 14 0 8 0;
#X connect 15 0 4 0;
#X coords 0 -1 1 1 15 105 2 100 100;
#X restore 486 152 pd row;
#N canvas 732 121 348 308 row 0;
#X obj 100 100 tgl 15 0 dr01-1 dr01-1-r empty 17 7 0 10 -66577 -257985
-1 0 1;
#X obj 100 115 tgl 15 0 dr01-2 dr01-2-r empty 17 7 0 10 -66577 -257985
-1 0 1;
#X obj 100 130 tgl 15 0 dr01-3 dr01-3-r empty 17 7 0 10 -66577 -257985
-1 0 1;
#X obj 100 145 tgl 15 0 dr01-4 dr01-4-r empty 17 7 0 10 -66577 -257985
-1 0 1;
#X obj 100 234 outlet;
#X obj 100 160 tgl 15 0 dr01-5 dr01-5-r empty 17 7 0 10 -66577 -257985
-1 0 1;
#X obj 100 175 tgl 15 0 dr01-6 dr01-6-r empty 17 7 0 10 -66577 -257985
-1 0 1;
#X obj 100 190 tgl 15 0 dr01-7 dr01-7-r empty 17 7 0 10 -66577 -257985
-1 0 1;
#X obj 44 195 bng 15 250 50 0 empty empty empty 17 7 0 10 -262144 -1
-1;
#X obj 55 28 bng 15 250 50 0 empty empty empty 17 7 0 10 -262144 -1
-1;
#X floatatom 100 22 5 0 0 0 - - -;
#N canvas 824 87 450 363 led01 0;
#X obj 149 20 loadbang;
#X obj 202 88 outlet;
#X obj 212 118 outlet;
#X obj 222 148 outlet;
#X obj 232 178 outlet;
#X obj 242 208 outlet;
#X obj 252 238 outlet;
#X obj 262 268 outlet;
#X obj 112 46 inlet;
#X obj 182 44 inlet;
#X obj 149 71 del 50;
#X obj 149 101 del 50;
#X obj 149 131 del 50;
#X obj 149 161 del 50;
#X obj 149 191 del 50;
#X obj 149 221 del 50;
#X obj 149 251 del 50;
#X obj 149 47 tgl 15 0 empty empty empty 17 7 0 10 -262144 -1 -1 1
1;
#X connect 0 0 17 0;
#X connect 8 0 10 0;
#X connect 9 0 10 1;
#X connect 9 0 11 1;
#X connect 9 0 12 1;
#X connect 9 0 13 1;
#X connect 9 0 14 1;
#X connect 9 0 15 1;
#X connect 9 0 16 1;
#X connect 10 0 1 0;
#X connect 10 0 11 0;
#X connect 11 0 2 0;
#X connect 11 0 12 0;
#X connect 12 0 3 0;
#X connect 12 0 13 0;
#X connect 13 0 4 0;
#X connect 13 0 14 0;
#X connect 14 0 5 0;
#X connect 14 0 15 0;
#X connect 15 0 6 0;
#X connect 15 0 16 0;
#X connect 16 0 7 0;
#X connect 17 0 10 0;
#X restore 55 55 pd led01;
#X obj 55 -25 loadbang;
#X obj 55 0 del 1000;
#X obj 44 171 inlet;
#X obj 100 210 pack 0 f f f f f f f;
#X connect 0 0 15 1;
#X connect 1 0 15 2;
#X connect 2 0 15 3;
#X connect 3 0 15 4;
#X connect 5 0 15 5;
#X connect 6 0 15 6;
#X connect 7 0 15 7;
#X connect 8 0 15 0;
#X connect 9 0 11 0;
#X connect 10 0 11 1;
#X connect 11 0 0 0;
#X connect 11 1 1 0;
#X connect 11 2 2 0;
#X connect 11 3 3 0;
#X connect 11 4 5 0;
#X connect 11 5 6 0;
#X connect 11 6 7 0;
#X connect 12 0 13 0;
#X connect 13 0 9 0;
#X connect 14 0 8 0;
#X connect 15 0 4 0;
#X coords 0 -1 1 1 15 105 2 100 100;
#X restore 501 152 pd row;
#N canvas 732 121 348 308 row 0;
#X obj 100 100 tgl 15 0 dr01-1 dr01-1-r empty 17 7 0 10 -162280 -257985
-1 0 1;
#X obj 100 115 tgl 15 0 dr01-2 dr01-2-r empty 17 7 0 10 -162280 -257985
-1 0 1;
#X obj 100 130 tgl 15 0 dr01-3 dr01-3-r empty 17 7 0 10 -162280 -257985
-1 0 1;
#X obj 100 145 tgl 15 0 dr01-4 dr01-4-r empty 17 7 0 10 -162280 -257985
-1 0 1;
#X obj 100 234 outlet;
#X obj 100 160 tgl 15 0 dr01-5 dr01-5-r empty 17 7 0 10 -162280 -257985
-1 0 1;
#X obj 100 175 tgl 15 0 dr01-6 dr01-6-r empty 17 7 0 10 -162280 -257985
-1 0 1;
#X obj 100 190 tgl 15 0 dr01-7 dr01-7-r empty 17 7 0 10 -162280 -257985
-1 0 1;
#X obj 44 195 bng 15 250 50 0 empty empty empty 17 7 0 10 -262144 -1
-1;
#X obj 55 28 bng 15 250 50 0 empty empty empty 17 7 0 10 -262144 -1
-1;
#X floatatom 100 22 5 0 0 0 - - -;
#N canvas 824 87 450 363 led01 0;
#X obj 149 20 loadbang;
#X obj 202 88 outlet;
#X obj 212 118 outlet;
#X obj 222 148 outlet;
#X obj 232 178 outlet;
#X obj 242 208 outlet;
#X obj 252 238 outlet;
#X obj 262 268 outlet;
#X obj 112 46 inlet;
#X obj 182 44 inlet;
#X obj 149 71 del 50;
#X obj 149 101 del 50;
#X obj 149 131 del 50;
#X obj 149 161 del 50;
#X obj 149 191 del 50;
#X obj 149 221 del 50;
#X obj 149 251 del 50;
#X obj 149 47 tgl 15 0 empty empty empty 17 7 0 10 -262144 -1 -1 1
1;
#X connect 0 0 17 0;
#X connect 8 0 10 0;
#X connect 9 0 10 1;
#X connect 9 0 11 1;
#X connect 9 0 12 1;
#X connect 9 0 13 1;
#X connect 9 0 14 1;
#X connect 9 0 15 1;
#X connect 9 0 16 1;
#X connect 10 0 1 0;
#X connect 10 0 11 0;
#X connect 11 0 2 0;
#X connect 11 0 12 0;
#X connect 12 0 3 0;
#X connect 12 0 13 0;
#X connect 13 0 4 0;
#X connect 13 0 14 0;
#X connect 14 0 5 0;
#X connect 14 0 15 0;
#X connect 15 0 6 0;
#X connect 15 0 16 0;
#X connect 16 0 7 0;
#X connect 17 0 10 0;
#X restore 55 55 pd led01;
#X obj 55 -25 loadbang;
#X obj 55 0 del 1000;
#X obj 44 171 inlet;
#X obj 100 210 pack 0 f f f f f f f;
#X connect 0 0 15 1;
#X connect 1 0 15 2;
#X connect 2 0 15 3;
#X connect 3 0 15 4;
#X connect 5 0 15 5;
#X connect 6 0 15 6;
#X connect 7 0 15 7;
#X connect 8 0 15 0;
#X connect 9 0 11 0;
#X connect 10 0 11 1;
#X connect 11 0 0 0;
#X connect 11 1 1 0;
#X connect 11 2 2 0;
#X connect 11 3 3 0;
#X connect 11 4 5 0;
#X connect 11 5 6 0;
#X connect 11 6 7 0;
#X connect 12 0 13 0;
#X connect 13 0 9 0;
#X connect 14 0 8 0;
#X connect 15 0 4 0;
#X coords 0 -1 1 1 15 105 2 100 100;
#X restore 516 152 pd row;
#N canvas 732 121 348 308 row 0;
#X obj 100 100 tgl 15 0 dr01-1 dr01-1-r empty 17 7 0 10 -162280 -257985
-1 0 1;
#X obj 100 115 tgl 15 0 dr01-2 dr01-2-r empty 17 7 0 10 -162280 -257985
-1 0 1;
#X obj 100 130 tgl 15 0 dr01-3 dr01-3-r empty 17 7 0 10 -162280 -257985
-1 0 1;
#X obj 100 145 tgl 15 0 dr01-4 dr01-4-r empty 17 7 0 10 -162280 -257985
-1 0 1;
#X obj 100 234 outlet;
#X obj 100 160 tgl 15 0 dr01-5 dr01-5-r empty 17 7 0 10 -162280 -257985
-1 0 1;
#X obj 100 175 tgl 15 0 dr01-6 dr01-6-r empty 17 7 0 10 -162280 -257985
-1 0 1;
#X obj 100 190 tgl 15 0 dr01-7 dr01-7-r empty 17 7 0 10 -162280 -257985
-1 0 1;
#X obj 44 195 bng 15 250 50 0 empty empty empty 17 7 0 10 -262144 -1
-1;
#X obj 55 28 bng 15 250 50 0 empty empty empty 17 7 0 10 -262144 -1
-1;
#X floatatom 100 22 5 0 0 0 - - -;
#N canvas 824 87 450 363 led01 0;
#X obj 149 20 loadbang;
#X obj 202 88 outlet;
#X obj 212 118 outlet;
#X obj 222 148 outlet;
#X obj 232 178 outlet;
#X obj 242 208 outlet;
#X obj 252 238 outlet;
#X obj 262 268 outlet;
#X obj 112 46 inlet;
#X obj 182 44 inlet;
#X obj 149 71 del 50;
#X obj 149 101 del 50;
#X obj 149 131 del 50;
#X obj 149 161 del 50;
#X obj 149 191 del 50;
#X obj 149 221 del 50;
#X obj 149 251 del 50;
#X obj 149 47 tgl 15 0 empty empty empty 17 7 0 10 -262144 -1 -1 1
1;
#X connect 0 0 17 0;
#X connect 8 0 10 0;
#X connect 9 0 10 1;
#X connect 9 0 11 1;
#X connect 9 0 12 1;
#X connect 9 0 13 1;
#X connect 9 0 14 1;
#X connect 9 0 15 1;
#X connect 9 0 16 1;
#X connect 10 0 1 0;
#X connect 10 0 11 0;
#X connect 11 0 2 0;
#X connect 11 0 12 0;
#X connect 12 0 3 0;
#X connect 12 0 13 0;
#X connect 13 0 4 0;
#X connect 13 0 14 0;
#X connect 14 0 5 0;
#X connect 14 0 15 0;
#X connect 15 0 6 0;
#X connect 15 0 16 0;
#X connect 16 0 7 0;
#X connect 17 0 10 0;
#X restore 55 55 pd led01;
#X obj 55 -25 loadbang;
#X obj 55 0 del 1000;
#X obj 44 171 inlet;
#X obj 100 210 pack 0 f f f f f f f;
#X connect 0 0 15 1;
#X connect 1 0 15 2;
#X connect 2 0 15 3;
#X connect 3 0 15 4;
#X connect 5 0 15 5;
#X connect 6 0 15 6;
#X connect 7 0 15 7;
#X connect 8 0 15 0;
#X connect 9 0 11 0;
#X connect 10 0 11 1;
#X connect 11 0 0 0;
#X connect 11 1 1 0;
#X connect 11 2 2 0;
#X connect 11 3 3 0;
#X connect 11 4 5 0;
#X connect 11 5 6 0;
#X connect 11 6 7 0;
#X connect 12 0 13 0;
#X connect 13 0 9 0;
#X connect 14 0 8 0;
#X connect 15 0 4 0;
#X coords 0 -1 1 1 15 105 2 100 100;
#X restore 531 152 pd row;
#N canvas 732 121 348 308 row 0;
#X obj 100 100 tgl 15 0 dr01-1 dr01-1-r empty 17 7 0 10 -162280 -257985
-1 0 1;
#X obj 100 115 tgl 15 0 dr01-2 dr01-2-r empty 17 7 0 10 -162280 -257985
-1 0 1;
#X obj 100 130 tgl 15 0 dr01-3 dr01-3-r empty 17 7 0 10 -162280 -257985
-1 0 1;
#X obj 100 145 tgl 15 0 dr01-4 dr01-4-r empty 17 7 0 10 -162280 -257985
-1 0 1;
#X obj 100 234 outlet;
#X obj 100 160 tgl 15 0 dr01-5 dr01-5-r empty 17 7 0 10 -162280 -257985
-1 0 1;
#X obj 100 175 tgl 15 0 dr01-6 dr01-6-r empty 17 7 0 10 -162280 -257985
-1 0 1;
#X obj 100 190 tgl 15 0 dr01-7 dr01-7-r empty 17 7 0 10 -162280 -257985
-1 0 1;
#X obj 44 195 bng 15 250 50 0 empty empty empty 17 7 0 10 -262144 -1
-1;
#X obj 55 28 bng 15 250 50 0 empty empty empty 17 7 0 10 -262144 -1
-1;
#X floatatom 100 22 5 0 0 0 - - -;
#N canvas 824 87 450 363 led01 0;
#X obj 149 20 loadbang;
#X obj 202 88 outlet;
#X obj 212 118 outlet;
#X obj 222 148 outlet;
#X obj 232 178 outlet;
#X obj 242 208 outlet;
#X obj 252 238 outlet;
#X obj 262 268 outlet;
#X obj 112 46 inlet;
#X obj 182 44 inlet;
#X obj 149 71 del 50;
#X obj 149 101 del 50;
#X obj 149 131 del 50;
#X obj 149 161 del 50;
#X obj 149 191 del 50;
#X obj 149 221 del 50;
#X obj 149 251 del 50;
#X obj 149 47 tgl 15 0 empty empty empty 17 7 0 10 -262144 -1 -1 1
1;
#X connect 0 0 17 0;
#X connect 8 0 10 0;
#X connect 9 0 10 1;
#X connect 9 0 11 1;
#X connect 9 0 12 1;
#X connect 9 0 13 1;
#X connect 9 0 14 1;
#X connect 9 0 15 1;
#X connect 9 0 16 1;
#X connect 10 0 1 0;
#X connect 10 0 11 0;
#X connect 11 0 2 0;
#X connect 11 0 12 0;
#X connect 12 0 3 0;
#X connect 12 0 13 0;
#X connect 13 0 4 0;
#X connect 13 0 14 0;
#X connect 14 0 5 0;
#X connect 14 0 15 0;
#X connect 15 0 6 0;
#X connect 15 0 16 0;
#X connect 16 0 7 0;
#X connect 17 0 10 0;
#X restore 55 55 pd led01;
#X obj 55 -25 loadbang;
#X obj 55 0 del 1000;
#X obj 44 171 inlet;
#X obj 100 210 pack 0 f f f f f f f;
#X connect 0 0 15 1;
#X connect 1 0 15 2;
#X connect 2 0 15 3;
#X connect 3 0 15 4;
#X connect 5 0 15 5;
#X connect 6 0 15 6;
#X connect 7 0 15 7;
#X connect 8 0 15 0;
#X connect 9 0 11 0;
#X connect 10 0 11 1;
#X connect 11 0 0 0;
#X connect 11 1 1 0;
#X connect 11 2 2 0;
#X connect 11 3 3 0;
#X connect 11 4 5 0;
#X connect 11 5 6 0;
#X connect 11 6 7 0;
#X connect 12 0 13 0;
#X connect 13 0 9 0;
#X connect 14 0 8 0;
#X connect 15 0 4 0;
#X coords 0 -1 1 1 15 105 2 100 100;
#X restore 546 152 pd row;
#N canvas 732 121 348 308 row 0;
#X obj 100 100 tgl 15 0 dr01-1 dr01-1-r empty 17 7 0 10 -66577 -257985
-1 0 1;
#X obj 100 115 tgl 15 0 dr01-2 dr01-2-r empty 17 7 0 10 -66577 -257985
-1 0 1;
#X obj 100 130 tgl 15 0 dr01-3 dr01-3-r empty 17 7 0 10 -66577 -257985
-1 0 1;
#X obj 100 145 tgl 15 0 dr01-4 dr01-4-r empty 17 7 0 10 -66577 -257985
-1 0 1;
#X obj 100 234 outlet;
#X obj 100 160 tgl 15 0 dr01-5 dr01-5-r empty 17 7 0 10 -66577 -257985
-1 0 1;
#X obj 100 175 tgl 15 0 dr01-6 dr01-6-r empty 17 7 0 10 -66577 -257985
-1 0 1;
#X obj 100 190 tgl 15 0 dr01-7 dr01-7-r empty 17 7 0 10 -66577 -257985
-1 0 1;
#X obj 44 195 bng 15 250 50 0 empty empty empty 17 7 0 10 -262144 -1
-1;
#X obj 55 28 bng 15 250 50 0 empty empty empty 17 7 0 10 -262144 -1
-1;
#X floatatom 100 22 5 0 0 0 - - -;
#N canvas 824 87 450 363 led01 0;
#X obj 149 20 loadbang;
#X obj 202 88 outlet;
#X obj 212 118 outlet;
#X obj 222 148 outlet;
#X obj 232 178 outlet;
#X obj 242 208 outlet;
#X obj 252 238 outlet;
#X obj 262 268 outlet;
#X obj 112 46 inlet;
#X obj 182 44 inlet;
#X obj 149 71 del 50;
#X obj 149 101 del 50;
#X obj 149 131 del 50;
#X obj 149 161 del 50;
#X obj 149 191 del 50;
#X obj 149 221 del 50;
#X obj 149 251 del 50;
#X obj 149 47 tgl 15 0 empty empty empty 17 7 0 10 -262144 -1 -1 1
1;
#X connect 0 0 17 0;
#X connect 8 0 10 0;
#X connect 9 0 10 1;
#X connect 9 0 11 1;
#X connect 9 0 12 1;
#X connect 9 0 13 1;
#X connect 9 0 14 1;
#X connect 9 0 15 1;
#X connect 9 0 16 1;
#X connect 10 0 1 0;
#X connect 10 0 11 0;
#X connect 11 0 2 0;
#X connect 11 0 12 0;
#X connect 12 0 3 0;
#X connect 12 0 13 0;
#X connect 13 0 4 0;
#X connect 13 0 14 0;
#X connect 14 0 5 0;
#X connect 14 0 15 0;
#X connect 15 0 6 0;
#X connect 15 0 16 0;
#X connect 16 0 7 0;
#X connect 17 0 10 0;
#X restore 55 55 pd led01;
#X obj 55 -25 loadbang;
#X obj 55 0 del 1000;
#X obj 44 171 inlet;
#X obj 100 210 pack 0 f f f f f f f;
#X connect 0 0 15 1;
#X connect 1 0 15 2;
#X connect 2 0 15 3;
#X connect 3 0 15 4;
#X connect 5 0 15 5;
#X connect 6 0 15 6;
#X connect 7 0 15 7;
#X connect 8 0 15 0;
#X connect 9 0 11 0;
#X connect 10 0 11 1;
#X connect 11 0 0 0;
#X connect 11 1 1 0;
#X connect 11 2 2 0;
#X connect 11 3 3 0;
#X connect 11 4 5 0;
#X connect 11 5 6 0;
#X connect 11 6 7 0;
#X connect 12 0 13 0;
#X connect 13 0 9 0;
#X connect 14 0 8 0;
#X connect 15 0 4 0;
#X coords 0 -1 1 1 15 105 2 100 100;
#X restore 561 152 pd row;
#N canvas 732 121 348 308 row 0;
#X obj 100 100 tgl 15 0 dr01-1 dr01-1-r empty 17 7 0 10 -162280 -257985
-1 0 1;
#X obj 100 115 tgl 15 0 dr01-2 dr01-2-r empty 17 7 0 10 -162280 -257985
-1 0 1;
#X obj 100 130 tgl 15 0 dr01-3 dr01-3-r empty 17 7 0 10 -162280 -257985
-1 0 1;
#X obj 100 145 tgl 15 0 dr01-4 dr01-4-r empty 17 7 0 10 -162280 -257985
-1 0 1;
#X obj 100 234 outlet;
#X obj 100 160 tgl 15 0 dr01-5 dr01-5-r empty 17 7 0 10 -162280 -257985
-1 0 1;
#X obj 100 175 tgl 15 0 dr01-6 dr01-6-r empty 17 7 0 10 -162280 -257985
-1 0 1;
#X obj 100 190 tgl 15 0 dr01-7 dr01-7-r empty 17 7 0 10 -162280 -257985
-1 0 1;
#X obj 44 195 bng 15 250 50 0 empty empty empty 17 7 0 10 -262144 -1
-1;
#X obj 55 28 bng 15 250 50 0 empty empty empty 17 7 0 10 -262144 -1
-1;
#X floatatom 100 22 5 0 0 0 - - -;
#N canvas 824 87 450 363 led01 0;
#X obj 149 20 loadbang;
#X obj 202 88 outlet;
#X obj 212 118 outlet;
#X obj 222 148 outlet;
#X obj 232 178 outlet;
#X obj 242 208 outlet;
#X obj 252 238 outlet;
#X obj 262 268 outlet;
#X obj 112 46 inlet;
#X obj 182 44 inlet;
#X obj 149 71 del 50;
#X obj 149 101 del 50;
#X obj 149 131 del 50;
#X obj 149 161 del 50;
#X obj 149 191 del 50;
#X obj 149 221 del 50;
#X obj 149 251 del 50;
#X obj 149 47 tgl 15 0 empty empty empty 17 7 0 10 -262144 -1 -1 1
1;
#X connect 0 0 17 0;
#X connect 8 0 10 0;
#X connect 9 0 10 1;
#X connect 9 0 11 1;
#X connect 9 0 12 1;
#X connect 9 0 13 1;
#X connect 9 0 14 1;
#X connect 9 0 15 1;
#X connect 9 0 16 1;
#X connect 10 0 1 0;
#X connect 10 0 11 0;
#X connect 11 0 2 0;
#X connect 11 0 12 0;
#X connect 12 0 3 0;
#X connect 12 0 13 0;
#X connect 13 0 4 0;
#X connect 13 0 14 0;
#X connect 14 0 5 0;
#X connect 14 0 15 0;
#X connect 15 0 6 0;
#X connect 15 0 16 0;
#X connect 16 0 7 0;
#X connect 17 0 10 0;
#X restore 55 55 pd led01;
#X obj 55 -25 loadbang;
#X obj 55 0 del 1000;
#X obj 44 171 inlet;
#X obj 100 210 pack 0 f f f f f f f;
#X connect 0 0 15 1;
#X connect 1 0 15 2;
#X connect 2 0 15 3;
#X connect 3 0 15 4;
#X connect 5 0 15 5;
#X connect 6 0 15 6;
#X connect 7 0 15 7;
#X connect 8 0 15 0;
#X connect 9 0 11 0;
#X connect 10 0 11 1;
#X connect 11 0 0 0;
#X connect 11 1 1 0;
#X connect 11 2 2 0;
#X connect 11 3 3 0;
#X connect 11 4 5 0;
#X connect 11 5 6 0;
#X connect 11 6 7 0;
#X connect 12 0 13 0;
#X connect 13 0 9 0;
#X connect 14 0 8 0;
#X connect 15 0 4 0;
#X coords 0 -1 1 1 15 105 2 100 100;
#X restore 576 152 pd row;
#N canvas 732 121 348 308 row 0;
#X obj 100 100 tgl 15 0 dr01-1 dr01-1-r empty 17 7 0 10 -162280 -257985
-1 0 1;
#X obj 100 115 tgl 15 0 dr01-2 dr01-2-r empty 17 7 0 10 -162280 -257985
-1 0 1;
#X obj 100 130 tgl 15 0 dr01-3 dr01-3-r empty 17 7 0 10 -162280 -257985
-1 0 1;
#X obj 100 145 tgl 15 0 dr01-4 dr01-4-r empty 17 7 0 10 -162280 -257985
-1 0 1;
#X obj 100 234 outlet;
#X obj 100 160 tgl 15 0 dr01-5 dr01-5-r empty 17 7 0 10 -162280 -257985
-1 0 1;
#X obj 100 175 tgl 15 0 dr01-6 dr01-6-r empty 17 7 0 10 -162280 -257985
-1 0 1;
#X obj 100 190 tgl 15 0 dr01-7 dr01-7-r empty 17 7 0 10 -162280 -257985
-1 0 1;
#X obj 44 195 bng 15 250 50 0 empty empty empty 17 7 0 10 -262144 -1
-1;
#X obj 55 28 bng 15 250 50 0 empty empty empty 17 7 0 10 -262144 -1
-1;
#X floatatom 100 22 5 0 0 0 - - -;
#N canvas 824 87 450 363 led01 0;
#X obj 149 20 loadbang;
#X obj 202 88 outlet;
#X obj 212 118 outlet;
#X obj 222 148 outlet;
#X obj 232 178 outlet;
#X obj 242 208 outlet;
#X obj 252 238 outlet;
#X obj 262 268 outlet;
#X obj 112 46 inlet;
#X obj 182 44 inlet;
#X obj 149 71 del 50;
#X obj 149 101 del 50;
#X obj 149 131 del 50;
#X obj 149 161 del 50;
#X obj 149 191 del 50;
#X obj 149 221 del 50;
#X obj 149 251 del 50;
#X obj 149 47 tgl 15 0 empty empty empty 17 7 0 10 -262144 -1 -1 1
1;
#X connect 0 0 17 0;
#X connect 8 0 10 0;
#X connect 9 0 10 1;
#X connect 9 0 11 1;
#X connect 9 0 12 1;
#X connect 9 0 13 1;
#X connect 9 0 14 1;
#X connect 9 0 15 1;
#X connect 9 0 16 1;
#X connect 10 0 1 0;
#X connect 10 0 11 0;
#X connect 11 0 2 0;
#X connect 11 0 12 0;
#X connect 12 0 3 0;
#X connect 12 0 13 0;
#X connect 13 0 4 0;
#X connect 13 0 14 0;
#X connect 14 0 5 0;
#X connect 14 0 15 0;
#X connect 15 0 6 0;
#X connect 15 0 16 0;
#X connect 16 0 7 0;
#X connect 17 0 10 0;
#X restore 55 55 pd led01;
#X obj 55 -25 loadbang;
#X obj 55 0 del 1000;
#X obj 44 171 inlet;
#X obj 100 210 pack 0 f f f f f f f;
#X connect 0 0 15 1;
#X connect 1 0 15 2;
#X connect 2 0 15 3;
#X connect 3 0 15 4;
#X connect 5 0 15 5;
#X connect 6 0 15 6;
#X connect 7 0 15 7;
#X connect 8 0 15 0;
#X connect 9 0 11 0;
#X connect 10 0 11 1;
#X connect 11 0 0 0;
#X connect 11 1 1 0;
#X connect 11 2 2 0;
#X connect 11 3 3 0;
#X connect 11 4 5 0;
#X connect 11 5 6 0;
#X connect 11 6 7 0;
#X connect 12 0 13 0;
#X connect 13 0 9 0;
#X connect 14 0 8 0;
#X connect 15 0 4 0;
#X coords 0 -1 1 1 15 105 2 100 100;
#X restore 591 152 pd row;
#N canvas 732 121 348 308 row 0;
#X obj 100 100 tgl 15 0 dr01-1 dr01-1-r empty 17 7 0 10 -162280 -257985
-1 0 1;
#X obj 100 115 tgl 15 0 dr01-2 dr01-2-r empty 17 7 0 10 -162280 -257985
-1 0 1;
#X obj 100 130 tgl 15 0 dr01-3 dr01-3-r empty 17 7 0 10 -162280 -257985
-1 0 1;
#X obj 100 145 tgl 15 0 dr01-4 dr01-4-r empty 17 7 0 10 -162280 -257985
-1 0 1;
#X obj 100 234 outlet;
#X obj 100 160 tgl 15 0 dr01-5 dr01-5-r empty 17 7 0 10 -162280 -257985
-1 0 1;
#X obj 100 175 tgl 15 0 dr01-6 dr01-6-r empty 17 7 0 10 -162280 -257985
-1 0 1;
#X obj 100 190 tgl 15 0 dr01-7 dr01-7-r empty 17 7 0 10 -162280 -257985
-1 0 1;
#X obj 44 195 bng 15 250 50 0 empty empty empty 17 7 0 10 -262144 -1
-1;
#X obj 55 28 bng 15 250 50 0 empty empty empty 17 7 0 10 -262144 -1
-1;
#X floatatom 100 22 5 0 0 0 - - -;
#N canvas 824 87 450 363 led01 0;
#X obj 149 20 loadbang;
#X obj 202 88 outlet;
#X obj 212 118 outlet;
#X obj 222 148 outlet;
#X obj 232 178 outlet;
#X obj 242 208 outlet;
#X obj 252 238 outlet;
#X obj 262 268 outlet;
#X obj 112 46 inlet;
#X obj 182 44 inlet;
#X obj 149 71 del 50;
#X obj 149 101 del 50;
#X obj 149 131 del 50;
#X obj 149 161 del 50;
#X obj 149 191 del 50;
#X obj 149 221 del 50;
#X obj 149 251 del 50;
#X obj 149 47 tgl 15 0 empty empty empty 17 7 0 10 -262144 -1 -1 1
1;
#X connect 0 0 17 0;
#X connect 8 0 10 0;
#X connect 9 0 10 1;
#X connect 9 0 11 1;
#X connect 9 0 12 1;
#X connect 9 0 13 1;
#X connect 9 0 14 1;
#X connect 9 0 15 1;
#X connect 9 0 16 1;
#X connect 10 0 1 0;
#X connect 10 0 11 0;
#X connect 11 0 2 0;
#X connect 11 0 12 0;
#X connect 12 0 3 0;
#X connect 12 0 13 0;
#X connect 13 0 4 0;
#X connect 13 0 14 0;
#X connect 14 0 5 0;
#X connect 14 0 15 0;
#X connect 15 0 6 0;
#X connect 15 0 16 0;
#X connect 16 0 7 0;
#X connect 17 0 10 0;
#X restore 55 55 pd led01;
#X obj 55 -25 loadbang;
#X obj 55 0 del 1000;
#X obj 44 171 inlet;
#X obj 100 210 pack 0 f f f f f f f;
#X connect 0 0 15 1;
#X connect 1 0 15 2;
#X connect 2 0 15 3;
#X connect 3 0 15 4;
#X connect 5 0 15 5;
#X connect 6 0 15 6;
#X connect 7 0 15 7;
#X connect 8 0 15 0;
#X connect 9 0 11 0;
#X connect 10 0 11 1;
#X connect 11 0 0 0;
#X connect 11 1 1 0;
#X connect 11 2 2 0;
#X connect 11 3 3 0;
#X connect 11 4 5 0;
#X connect 11 5 6 0;
#X connect 11 6 7 0;
#X connect 12 0 13 0;
#X connect 13 0 9 0;
#X connect 14 0 8 0;
#X connect 15 0 4 0;
#X coords 0 -1 1 1 15 105 2 100 100;
#X restore 606 152 pd row;
#X connect 0 0 11 0;
#X connect 1 0 8 0;
#X connect 2 0 10 0;
#X connect 3 0 0 2;
#X connect 4 0 23 0;
#X connect 4 0 5 0;
#X connect 4 0 22 0;
#X connect 5 0 1 0;
#X connect 7 0 0 0;
#X connect 8 0 9 1;
#X connect 9 0 6 0;
#X connect 10 0 0 1;
#X connect 12 0 22 0;
#X connect 13 0 21 0;
#X connect 13 1 33 0;
#X connect 13 2 34 0;
#X connect 13 3 35 0;
#X connect 13 4 36 0;
#X connect 13 5 37 0;
#X connect 13 6 38 0;
#X connect 13 7 39 0;
#X connect 13 8 40 0;
#X connect 13 9 41 0;
#X connect 13 10 42 0;
#X connect 13 11 43 0;
#X connect 13 12 44 0;
#X connect 13 13 45 0;
#X connect 13 14 46 0;
#X connect 13 15 47 0;
#X connect 13 16 48 0;
#X connect 13 17 49 0;
#X connect 13 18 50 0;
#X connect 13 19 51 0;
#X connect 13 20 52 0;
#X connect 13 21 53 0;
#X connect 13 22 54 0;
#X connect 13 23 55 0;
#X connect 13 24 56 0;
#X connect 13 25 57 0;
#X connect 13 26 58 0;
#X connect 13 27 59 0;
#X connect 13 28 60 0;
#X connect 13 29 61 0;
#X connect 13 30 62 0;
#X connect 13 31 63 0;
#X connect 21 0 24 0;
#X connect 22 0 13 0;
#X connect 23 0 3 0;
#X connect 24 0 9 0;
#X connect 26 0 24 1;
#X connect 27 0 24 2;
#X connect 28 0 24 3;
#X connect 29 0 24 4;
#X connect 30 0 24 5;
#X connect 31 0 24 6;
#X connect 32 0 24 7;
#X connect 33 0 24 0;
#X connect 34 0 24 0;
#X connect 35 0 24 0;
#X connect 36 0 24 0;
#X connect 37 0 24 0;
#X connect 38 0 24 0;
#X connect 39 0 24 0;
#X connect 40 0 24 0;
#X connect 41 0 24 0;
#X connect 42 0 24 0;
#X connect 43 0 24 0;
#X connect 44 0 24 0;
#X connect 45 0 24 0;
#X connect 46 0 24 0;
#X connect 47 0 24 0;
#X connect 48 0 24 0;
#X connect 49 0 24 0;
#X connect 50 0 24 0;
#X connect 51 0 24 0;
#X connect 52 0 24 0;
#X connect 53 0 24 0;
#X connect 54 0 24 0;
#X connect 55 0 24 0;
#X connect 56 0 24 0;
#X connect 57 0 24 0;
#X connect 58 0 24 0;
#X connect 59 0 24 0;
#X connect 60 0 24 0;
#X connect 61 0 24 0;
#X connect 62 0 24 0;
#X connect 63 0 24 0;
#X coords 0 -1 1 1 558 169 2 100 100;
