#N canvas 284 25 866 384 10;
#X obj 101 101 cnv 15 91 91 empty empty empty 20 12 0 14 -233017 -66577
0;
#X msg 287 264 \$1 \$2;
#X obj 287 239 pack f f;
#X obj 287 290 line;
#X floatatom 287 312 5 0 0 0 - - -;
#X obj 215 177 mknob 32 32 0 1000 0 1 empty empty PORTAMENTO 0 -8 0
8 -262144 -1 -1 0 1;
#X floatatom 215 223 5 0 0 0 - - -;
#X obj 128 132 mknob 40 40 0.25 125 0 0 PORTAMENTO PORTAMENTO-r TIME
8 48 0 8 -262144 -1 -1 0 1;
#X text 114 105 PORTAMENTO;
#X msg 407 264 \$1 \$2;
#X obj 407 239 pack f f;
#X obj 407 290 line;
#X floatatom 407 312 5 0 0 0 - - -;
#X obj 128 51 loadbang;
#X msg 128 80 0.25;
#X obj 287 338 s vco1;
#X obj 407 338 s vco2;
#X msg 527 264 \$1 \$2;
#X obj 527 239 pack f f;
#X obj 527 290 line;
#X floatatom 527 312 5 0 0 0 - - -;
#X obj 527 338 s vco3;
#X msg 647 264 \$1 \$2;
#X obj 647 239 pack f f;
#X obj 647 290 line;
#X floatatom 647 312 5 0 0 0 - - -;
#X obj 647 338 s vco4;
#X obj 407 156 r otherENV2;
#X obj 527 156 r otherENV3;
#X obj 647 156 r otherENV4;
#X obj 287 156 r otherENV1;
#X obj 758 196 r nota;
#X obj 332 183 r nota1;
#X obj 452 183 r nota2;
#X obj 572 183 r nota3;
#X obj 692 183 r nota4;
#X obj 287 213 switch 2;
#X obj 407 213 switch 2;
#X obj 527 213 switch 2;
#X obj 647 213 switch 2;
#X connect 1 0 3 0;
#X connect 2 0 1 0;
#X connect 3 0 4 0;
#X connect 4 0 15 0;
#X connect 5 0 6 0;
#X connect 6 0 2 1;
#X connect 6 0 18 1;
#X connect 6 0 23 1;
#X connect 7 0 5 0;
#X connect 9 0 11 0;
#X connect 10 0 9 0;
#X connect 11 0 12 0;
#X connect 12 0 16 0;
#X connect 13 0 14 0;
#X connect 14 0 7 0;
#X connect 17 0 19 0;
#X connect 18 0 17 0;
#X connect 19 0 20 0;
#X connect 20 0 21 0;
#X connect 22 0 24 0;
#X connect 23 0 22 0;
#X connect 24 0 25 0;
#X connect 25 0 26 0;
#X connect 27 0 37 0;
#X connect 28 0 38 0;
#X connect 29 0 39 0;
#X connect 30 0 36 0;
#X connect 31 0 36 1;
#X connect 31 0 37 1;
#X connect 31 0 38 1;
#X connect 31 0 39 1;
#X connect 32 0 36 2;
#X connect 33 0 37 2;
#X connect 34 0 38 2;
#X connect 35 0 39 2;
#X connect 36 0 2 0;
#X connect 37 0 10 0;
#X connect 38 0 18 0;
#X connect 39 0 23 0;
#X coords 0 -1 1 1 93 93 2 100 100;
