#N canvas 321 29 450 446 10;
#X obj 101 101 cnv 15 91 91 empty empty empty 20 12 0 14 -233017 -66577
0;
#X obj 218 146 metro;
#X obj 218 190 bng 15 250 50 0 empty empty empty 17 7 0 10 -262144
-1 -1;
#X obj 218 217 int;
#X obj 129 131 mknob 40 40 40 500 0 0 PULSET PULSET-r empty 0 -8 0 8
-262144 -1 -1 0 1;
#X floatatom 245 77 5 0 0 0 - - -;
#X msg 163 273 0;
#X obj 245 101 expr (1000*60)/$f1;
#X obj 163 248 del 128;
#X obj 129 36 loadbang;
#X msg 129 64 40;
#X text 128 104 PULSE;
#X obj 247 192 unpack f f;
#X obj 247 168 r nota;
#X obj 218 315 s puls;
#X obj 105 166 vradio 10 1 0 2 PULSEOF PULSEOF-r empty 0 -8 0 10 -262144
-1 -1 0;
#X text 117 161 0;
#X text 118 173 1;
#X connect 1 0 2 0;
#X connect 2 0 3 0;
#X connect 2 0 8 0;
#X connect 3 0 14 0;
#X connect 4 0 5 0;
#X connect 5 0 7 0;
#X connect 6 0 14 0;
#X connect 7 0 1 1;
#X connect 8 0 6 0;
#X connect 9 0 10 0;
#X connect 10 0 4 0;
#X connect 12 0 3 1;
#X connect 13 0 12 0;
#X connect 15 0 1 0;
#X coords 0 -1 1 1 93 93 2 100 100;
