#N canvas 0 0 952 330 10;
#X obj 103 130 vradio 15 1 0 2 VCO1-On/Off VCO1-On/Off-r empty 0 -8
0 10 -262144 -1 -1 1;
#X obj 127 130 vradio 15 1 0 2 VCO2-On/Off VCO2-On/Off-r empty 0 -8
0 10 -262144 -1 -1 1;
#X obj 151 130 vradio 15 1 0 2 VCO3-On/Off VCO3-On/Off-r empty 0 -8
0 10 -262144 -1 -1 1;
#X obj 175 130 vradio 15 1 0 2 VCO4-On/Off VCO4-On/Off-r empty 0 -8
0 10 -262144 -1 -1 1;
#X obj 262 246 s otherENV4;
#X obj 22 246 s otherENV1;
#X obj 102 246 s otherENV2;
#X obj 182 246 s otherENV3;
#X obj 22 206 + 1;
#X obj 102 206 + 1;
#X obj 182 206 + 1;
#X obj 262 206 + 1;
#N canvas 107 52 450 300 init4 0;
#X obj 109 147 outlet;
#X msg 109 123 1;
#X obj 169 147 outlet;
#X msg 169 123 1;
#X obj 229 147 outlet;
#X msg 229 123 1;
#X obj 289 148 outlet;
#X msg 289 124 1;
#X obj 109 13 loadbang;
#X obj 109 50 del 750;
#X obj 169 67 del 750;
#X obj 229 84 del 750;
#X obj 289 101 del 750;
#X obj 57 33 inlet;
#X connect 1 0 0 0;
#X connect 3 0 2 0;
#X connect 5 0 4 0;
#X connect 7 0 6 0;
#X connect 8 0 9 0;
#X connect 9 0 1 0;
#X connect 9 0 10 0;
#X connect 10 0 3 0;
#X connect 10 0 11 0;
#X connect 11 0 5 0;
#X connect 11 0 12 0;
#X connect 12 0 7 0;
#X connect 13 0 9 0;
#X restore 110 47 pd init4;
#X obj 520 40 r nextnota1;
#X obj 600 40 r nextnota2;
#X obj 680 40 r nextnota3;
#X obj 760 40 r nextnota4;
#X obj 511 154 s nextnota;
#N canvas 843 183 450 300 whoON 0;
#X msg 90 137 1;
#X obj 90 66 inlet;
#X obj 90 166 outlet;
#X obj 90 98 sel 0 1;
#X obj 150 66 inlet;
#X obj 150 98 sel 0 1;
#X obj 210 66 inlet;
#X obj 210 98 sel 0 1;
#X obj 270 66 inlet;
#X obj 270 98 sel 0 1;
#X msg 150 137 2;
#X msg 210 137 3;
#X msg 270 137 4;
#X obj 330 66 inlet;
#X obj 330 98 sel 4;
#X msg 330 137 5;
#X connect 0 0 2 0;
#X connect 1 0 3 0;
#X connect 3 0 0 0;
#X connect 4 0 5 0;
#X connect 5 0 10 0;
#X connect 6 0 7 0;
#X connect 7 0 11 0;
#X connect 8 0 9 0;
#X connect 9 0 12 0;
#X connect 10 0 2 0;
#X connect 11 0 2 0;
#X connect 12 0 2 0;
#X connect 13 0 14 0;
#X connect 14 0 15 0;
#X connect 15 0 2 0;
#X restore 432 46 pd whoON;
#X floatatom 432 72 5 0 0 0 - - -;
#X obj 110 20 bng 15 250 50 0 empty empty empty 17 7 0 10 -262144 -1
-1;
#X obj 380 158 +;
#X obj 380 189 +;
#X obj 380 218 +;
#X obj 380 249 +;
#X floatatom 380 278 5 0 0 0 - - -;
#X obj 380 130 bng 15 250 50 0 empty empty empty 17 7 0 10 -262144
-1 -1;
#X obj 511 120 switch 5;
#X text 606 247 Su 1 suona le note in ingresso;
#X text 606 237 Su 0 suona il sequencer (e registra/esegue la serie)
;
#X text 111 102 ROUTER VOCI;
#X text 101 160 VCO1;
#X text 120 114 VCO2;
#X text 145 161 VCO3;
#X text 165 114 VCO4;
#X connect 0 0 8 0;
#X connect 0 0 18 0;
#X connect 0 0 21 0;
#X connect 1 0 9 0;
#X connect 1 0 18 1;
#X connect 1 0 22 1;
#X connect 1 0 26 0;
#X connect 2 0 10 0;
#X connect 2 0 18 2;
#X connect 2 0 23 1;
#X connect 2 0 26 0;
#X connect 3 0 11 0;
#X connect 3 0 18 3;
#X connect 3 0 24 1;
#X connect 3 0 26 0;
#X connect 8 0 5 0;
#X connect 9 0 6 0;
#X connect 10 0 7 0;
#X connect 11 0 4 0;
#X connect 12 0 0 0;
#X connect 12 1 1 0;
#X connect 12 2 2 0;
#X connect 12 3 3 0;
#X connect 13 0 27 1;
#X connect 14 0 27 2;
#X connect 15 0 27 3;
#X connect 16 0 27 4;
#X connect 18 0 19 0;
#X connect 19 0 27 0;
#X connect 20 0 12 0;
#X connect 21 0 22 0;
#X connect 22 0 23 0;
#X connect 23 0 24 0;
#X connect 24 0 25 0;
#X connect 25 0 18 4;
#X connect 26 0 21 0;
#X connect 27 0 17 0;
#X coords 0 -1 1 1 93 76 2 100 100;
