#N canvas 296 139 428 354 10;
#X text 106 103 VCO Hp FILTER;
#X obj 260 218 vcf~;
#X obj 269 165 sig~;
#X obj 116 134 mknob 60 60 4000 8000 0 0 empty empty CUTOFF_FRQ 5 74
0 8 -262144 -1 -1 0 1;
#X obj 126 229 mknob 40 40 0 5 0 0 empty empty Q 16 50 0 8 -262144 -1
-1 0 1;
#X floatatom 281 190 5 0 0 0 - - -;
#X floatatom 269 144 5 0 0 0 - - -;
#X obj 259 110 *~;
#X obj 319 112 tgl 15 0 empty empty empty 17 7 0 10 -262144 -1 -1 1
1;
#X obj 319 90 loadbang;
#X obj 259 263 s~ vclf;
#X obj 339 244 hip~;
#X obj 260 77 r~ vchf;
#X connect 1 0 10 0;
#X connect 2 0 1 1;
#X connect 3 0 6 0;
#X connect 4 0 5 0;
#X connect 5 0 1 2;
#X connect 6 0 2 0;
#X connect 7 0 1 0;
#X connect 8 0 7 1;
#X connect 9 0 8 0;
#X connect 9 0 3 0;
#X connect 9 0 4 0;
#X connect 12 0 7 0;
#X coords 0 -1 1 1 93 186 2 100 100;
