#N canvas 17 16 701 560 10;
#X obj 101 101 cnv 15 91 260 empty empty empty 20 12 0 14 -233017 -66577
0;
#X obj 117 280 mknob 60 60 0 6.75 0 0 VCO1-1 VCO1-1-r SCALE 18 74 0
8 -262144 -1 -1 1969 1;
#X text 106 101 VCO1;
#X obj 47 62 loadbang;
#X obj 590 419 s~ mixer1.1;
#X obj 590 383 r~ env1.1;
#X obj 557 336 noise~;
#X obj 279 310 sig~;
#X obj 271 210 mtof;
#X obj 377 310 sig~;
#X obj 459 310 sig~;
#X obj 229 293 gate 4;
#X obj 279 379 *~;
#X obj 377 379 *~;
#X obj 461 379 *~;
#X obj 556 379 *~;
#X obj 294 358 tgl 15 0 empty empty empty 17 7 0 10 -262144 -1 -1 0
1;
#X obj 392 358 tgl 15 0 empty empty empty 17 7 0 10 -262144 -1 -1 1
1;
#X obj 476 358 tgl 15 0 empty empty empty 17 7 0 10 -262144 -1 -1 0
1;
#X obj 571 358 tgl 15 0 empty empty empty 17 7 0 10 -262144 -1 -1 0
1;
#X obj 229 195 + 1;
#N canvas 729 399 601 178 switch 0;
#N canvas 0 0 450 300 on/off 0;
#X obj 146 70 inlet;
#X obj 136 175 outlet;
#X obj 186 175 outlet;
#X obj 236 175 outlet;
#X msg 146 112 1;
#X msg 186 112 0;
#X obj 286 175 outlet;
#X connect 0 0 4 0;
#X connect 0 0 5 0;
#X connect 4 0 1 0;
#X connect 5 0 2 0;
#X connect 5 0 3 0;
#X connect 5 0 6 0;
#X restore 40 88 pd on/off;
#N canvas 0 0 450 300 on/off 0;
#X obj 146 70 inlet;
#X obj 136 175 outlet;
#X obj 186 175 outlet;
#X obj 236 175 outlet;
#X msg 146 112 1;
#X msg 186 112 0;
#X obj 286 175 outlet;
#X connect 0 0 4 0;
#X connect 0 0 5 0;
#X connect 4 0 1 0;
#X connect 5 0 2 0;
#X connect 5 0 3 0;
#X connect 5 0 6 0;
#X restore 108 88 pd on/off;
#N canvas 0 0 450 300 on/off 0;
#X obj 146 70 inlet;
#X obj 136 175 outlet;
#X obj 186 175 outlet;
#X obj 236 175 outlet;
#X msg 146 112 1;
#X msg 186 112 0;
#X obj 286 175 outlet;
#X connect 0 0 4 0;
#X connect 0 0 5 0;
#X connect 4 0 1 0;
#X connect 5 0 2 0;
#X connect 5 0 3 0;
#X connect 5 0 6 0;
#X restore 176 88 pd on/off;
#N canvas 0 0 450 300 on/off 0;
#X obj 146 70 inlet;
#X obj 136 175 outlet;
#X obj 186 175 outlet;
#X obj 236 175 outlet;
#X msg 146 112 1;
#X msg 186 112 0;
#X obj 286 175 outlet;
#X connect 0 0 4 0;
#X connect 0 0 5 0;
#X connect 4 0 1 0;
#X connect 5 0 2 0;
#X connect 5 0 3 0;
#X connect 5 0 6 0;
#X restore 244 88 pd on/off;
#X obj 40 152 outlet;
#X obj 108 152 outlet;
#X obj 176 152 outlet;
#X obj 244 152 outlet;
#X obj 40 60 inlet;
#X obj 108 60 inlet;
#X obj 176 60 inlet;
#X obj 244 60 inlet;
#X connect 0 0 4 0;
#X connect 0 1 5 0;
#X connect 0 2 6 0;
#X connect 0 3 7 0;
#X connect 1 0 5 0;
#X connect 1 1 4 0;
#X connect 1 2 6 0;
#X connect 1 3 7 0;
#X connect 2 0 6 0;
#X connect 2 1 4 0;
#X connect 2 2 5 0;
#X connect 2 3 7 0;
#X connect 3 0 7 0;
#X connect 3 1 4 0;
#X connect 3 2 5 0;
#X connect 3 3 6 0;
#X connect 8 0 0 0;
#X connect 9 0 1 0;
#X connect 10 0 2 0;
#X connect 11 0 3 0;
#X restore 211 341 pd switch;
#X obj 279 401 *~;
#X obj 377 401 *~;
#X obj 461 401 *~;
#X obj 556 401 *~;
#X obj 348 175 + 1;
#X obj 321 276 *;
#X obj 321 241 bng 15 250 50 0 empty empty empty 17 7 0 10 -262144
-1 -1;
#X obj 271 188 r vco1;
#N canvas 729 16 223 316 angolo 0;
#X obj 15 19 inlet~;
#X obj 15 99 *~ 2;
#X obj 15 122 -~ 1;
#X obj 83 99 *~ 2;
#X obj 83 122 -~ 1;
#X obj 14 179 +~;
#X obj 15 76 phasor~;
#X obj 83 76 phasor~;
#X obj 82 51 *~ -1;
#X obj 15 148 clip~ 0 1;
#X obj 82 148 clip~ 0 1;
#X msg 139 59 0;
#X obj 14 244 clip~ -1 1;
#X obj 14 201 *~ 2;
#X obj 15 220 -~ 1;
#X obj 14 274 outlet~;
#X obj 139 32 loadbang;
#X connect 0 0 6 0;
#X connect 0 0 8 0;
#X connect 1 0 2 0;
#X connect 2 0 9 0;
#X connect 3 0 4 0;
#X connect 4 0 10 0;
#X connect 5 0 13 0;
#X connect 6 0 1 0;
#X connect 7 0 3 0;
#X connect 8 0 7 0;
#X connect 9 0 5 0;
#X connect 10 0 5 1;
#X connect 11 0 7 1;
#X connect 11 0 6 1;
#X connect 12 0 15 0;
#X connect 13 0 14 0;
#X connect 14 0 12 0;
#X connect 16 0 11 0;
#X restore 279 336 pd angolo;
#N canvas 1126 16 204 314 quadra 0;
#X obj 21 46 inlet~;
#X obj 21 87 phasor~;
#X obj 97 62 *~ -1;
#X obj 98 89 phasor~;
#X msg 84 37 0;
#X msg 137 36 0.5;
#X obj 84 4 loadbang;
#X obj 20 126 +~;
#X obj 20 182 clip~ -1 1;
#X obj 21 238 outlet~;
#X obj 20 153 -~ 1;
#X connect 0 0 1 0;
#X connect 0 0 2 0;
#X connect 1 0 7 0;
#X connect 2 0 3 0;
#X connect 3 0 7 1;
#X connect 4 0 1 1;
#X connect 5 0 3 1;
#X connect 6 0 4 0;
#X connect 6 0 5 0;
#X connect 7 0 10 0;
#X connect 8 0 9 0;
#X connect 10 0 8 0;
#X restore 460 337 pd quadra;
#X obj 348 224 1;
#X obj 378 224 2;
#X obj 408 224 4;
#X obj 438 224 8;
#X obj 126 216 mknob 40 40 -0.12246 0.12246 0 0 VCO1-2 VCO1-2-r PITCH
8 54 0 8 -262144 -1 -1 1950 1;
#N canvas 964 16 152 297 rampa 0;
#X obj 34 28 inlet~;
#X obj 34 87 *~ 2;
#X obj 34 110 -~ 1;
#X obj 33 56 phasor~;
#X obj 32 174 outlet~;
#X obj 33 142 clip~ -1 1;
#X connect 0 0 3 0;
#X connect 1 0 2 0;
#X connect 2 0 5 0;
#X connect 3 0 1 0;
#X connect 5 0 4 0;
#X restore 377 338 pd rampa;
#X obj 348 196 route 1 2 3 4 5 6 7;
#X obj 468 224 16;
#X obj 498 224 32;
#X obj 528 224 64;
#X obj 271 232 / 8;
#X obj 172 247 bng 15 250 50 0 empty empty empty 17 7 0 10 -1 -257985
-1;
#X obj 229 172 i;
#X obj 348 152 i;
#N canvas 773 53 346 485 pch 0;
#X obj 100 26 inlet;
#X floatatom 187 92 10 0 0 0 - - -;
#X floatatom 100 92 10 0 0 0 - - -;
#X obj 59 108 * -1;
#X floatatom 100 131 5 0 0 0 - - -;
#X floatatom 59 131 5 0 0 0 - - -;
#X obj 59 153 + 1;
#X obj 100 153 + 1;
#X floatatom 100 176 5 0 0 0 - - -;
#X floatatom 59 176 5 0 0 0 - - -;
#X obj 187 216 switch 1 2;
#X floatatom 187 240 10 0 0 0 - - -;
#X obj 100 56 expr $f1 \; if($f1>0 \, 2 \, 1);
#X obj 85 199 *;
#X obj 44 199 /;
#X obj 259 182 inlet;
#X obj 187 263 outlet;
#X obj 18 86 bng 15 250 50 0 empty empty empty 17 7 0 10 -262144 -1
-1;
#X obj 18 184 bng 15 250 50 0 empty empty empty 17 7 0 10 -262144 -1
-1;
#X connect 0 0 12 0;
#X connect 1 0 10 0;
#X connect 2 0 3 0;
#X connect 2 0 4 0;
#X connect 3 0 5 0;
#X connect 4 0 7 0;
#X connect 5 0 6 0;
#X connect 6 0 9 0;
#X connect 7 0 8 0;
#X connect 8 0 13 1;
#X connect 9 0 14 1;
#X connect 10 0 11 0;
#X connect 11 0 16 0;
#X connect 12 0 2 0;
#X connect 12 0 17 0;
#X connect 12 1 1 0;
#X connect 13 0 10 2;
#X connect 14 0 10 1;
#X connect 15 0 13 0;
#X connect 15 0 14 0;
#X connect 17 0 18 0;
#X connect 18 0 14 0;
#X connect 18 0 13 0;
#X restore 238 259 pd pch;
#X obj 242 217 bng 15 250 50 0 empty empty empty 17 7 0 10 -262144
-1 -1;
#X msg 47 197 0;
#X msg 126 59 0.05946;
#X msg 47 261 2.253;
#X msg 61 111 1.474;
#X obj 116 130 mknob 60 60 0 4 0 0 VCO1-3 VCO1-3-r WAVE_FORM 6 74 0
8 -262144 -1 -1 2174 1;
#X connect 1 0 45 0;
#X connect 3 0 50 0;
#X connect 3 0 48 0;
#X connect 3 0 51 0;
#X connect 5 0 22 1;
#X connect 5 0 23 1;
#X connect 5 0 24 1;
#X connect 5 0 25 1;
#X connect 6 0 15 0;
#X connect 7 0 30 0;
#X connect 8 0 42 0;
#X connect 9 0 37 0;
#X connect 10 0 31 0;
#X connect 11 0 7 0;
#X connect 11 0 21 0;
#X connect 11 1 9 0;
#X connect 11 1 21 1;
#X connect 11 2 10 0;
#X connect 11 2 21 2;
#X connect 11 3 21 3;
#X connect 12 0 22 0;
#X connect 13 0 23 0;
#X connect 14 0 24 0;
#X connect 15 0 25 0;
#X connect 16 0 12 1;
#X connect 17 0 13 1;
#X connect 18 0 14 1;
#X connect 19 0 15 1;
#X connect 20 0 11 0;
#X connect 20 0 47 0;
#X connect 21 0 16 0;
#X connect 21 1 17 0;
#X connect 21 2 18 0;
#X connect 21 3 19 0;
#X connect 22 0 4 0;
#X connect 23 0 4 0;
#X connect 24 0 4 0;
#X connect 25 0 4 0;
#X connect 26 0 38 0;
#X connect 27 0 11 1;
#X connect 28 0 27 0;
#X connect 29 0 8 0;
#X connect 30 0 12 0;
#X connect 31 0 14 0;
#X connect 32 0 28 0;
#X connect 32 0 27 1;
#X connect 33 0 27 1;
#X connect 33 0 28 0;
#X connect 34 0 28 0;
#X connect 34 0 27 1;
#X connect 35 0 28 0;
#X connect 35 0 27 1;
#X connect 36 0 46 0;
#X connect 37 0 13 0;
#X connect 38 0 32 0;
#X connect 38 1 33 0;
#X connect 38 2 34 0;
#X connect 38 3 35 0;
#X connect 38 4 39 0;
#X connect 38 5 40 0;
#X connect 38 6 41 0;
#X connect 39 0 27 1;
#X connect 39 0 28 0;
#X connect 40 0 28 0;
#X connect 40 0 27 1;
#X connect 41 0 28 0;
#X connect 41 0 27 1;
#X connect 42 0 46 1;
#X connect 43 0 48 0;
#X connect 44 0 20 0;
#X connect 45 0 26 0;
#X connect 46 0 27 0;
#X connect 47 0 42 0;
#X connect 48 0 36 0;
#X connect 49 0 36 0;
#X connect 50 0 1 0;
#X connect 51 0 52 0;
#X connect 52 0 44 0;
#X coords 0 -1 1 1 93 262 2 100 100;
