#N canvas 281 130 737 446 10;
#X obj 101 101 cnv 15 91 260 empty empty empty 20 12 0 14 -233017 -66577
0;
#X obj 116 130 mknob 60 60 0 4 0 0 VCO3-3 VCO3-3-r WAVE_FORM 6 74 0
8 -262144 -1 -1 0 1;
#X obj 117 280 mknob 60 60 0 6.75 0 0 VCO3-1 VCO3-1-r SCALE 18 74 0
8 -262144 -1 -1 0 1;
#X obj 47 62 loadbang;
#X obj 557 336 noise~;
#X obj 279 310 sig~;
#X obj 271 210 mtof;
#X obj 377 310 sig~;
#X obj 459 310 sig~;
#X obj 229 293 gate 4;
#X obj 279 379 *~;
#X obj 377 379 *~;
#X obj 461 379 *~;
#X obj 556 379 *~;
#X obj 294 358 tgl 15 0 empty empty empty 17 7 0 10 -262144 -1 -1 1
1;
#X obj 392 358 tgl 15 0 empty empty empty 17 7 0 10 -262144 -1 -1 0
1;
#X obj 476 358 tgl 15 0 empty empty empty 17 7 0 10 -262144 -1 -1 0
1;
#X obj 571 358 tgl 15 0 empty empty empty 17 7 0 10 -262144 -1 -1 0
1;
#X obj 229 195 + 1;
#N canvas 526 123 450 300 switch 0;
#N canvas 0 0 450 300 on/off 0;
#X obj 146 70 inlet;
#X obj 136 175 outlet;
#X obj 186 175 outlet;
#X obj 236 175 outlet;
#X msg 146 112 1;
#X msg 186 112 0;
#X obj 286 175 outlet;
#X connect 0 0 4 0;
#X connect 0 0 5 0;
#X connect 4 0 1 0;
#X connect 5 0 2 0;
#X connect 5 0 3 0;
#X connect 5 0 6 0;
#X restore 40 88 pd on/off;
#N canvas 0 0 450 300 on/off 0;
#X obj 146 70 inlet;
#X obj 136 175 outlet;
#X obj 186 175 outlet;
#X obj 236 175 outlet;
#X msg 146 112 1;
#X msg 186 112 0;
#X obj 286 175 outlet;
#X connect 0 0 4 0;
#X connect 0 0 5 0;
#X connect 4 0 1 0;
#X connect 5 0 2 0;
#X connect 5 0 3 0;
#X connect 5 0 6 0;
#X restore 108 88 pd on/off;
#N canvas 0 0 450 300 on/off 0;
#X obj 146 70 inlet;
#X obj 136 175 outlet;
#X obj 186 175 outlet;
#X obj 236 175 outlet;
#X msg 146 112 1;
#X msg 186 112 0;
#X obj 286 175 outlet;
#X connect 0 0 4 0;
#X connect 0 0 5 0;
#X connect 4 0 1 0;
#X connect 5 0 2 0;
#X connect 5 0 3 0;
#X connect 5 0 6 0;
#X restore 176 88 pd on/off;
#N canvas 0 0 450 300 on/off 0;
#X obj 146 70 inlet;
#X obj 136 175 outlet;
#X obj 186 175 outlet;
#X obj 236 175 outlet;
#X msg 146 112 1;
#X msg 186 112 0;
#X obj 286 175 outlet;
#X connect 0 0 4 0;
#X connect 0 0 5 0;
#X connect 4 0 1 0;
#X connect 5 0 2 0;
#X connect 5 0 3 0;
#X connect 5 0 6 0;
#X restore 244 88 pd on/off;
#X obj 40 152 outlet;
#X obj 108 152 outlet;
#X obj 176 152 outlet;
#X obj 244 152 outlet;
#X obj 40 60 inlet;
#X obj 108 60 inlet;
#X obj 176 60 inlet;
#X obj 244 60 inlet;
#X connect 0 0 4 0;
#X connect 0 1 5 0;
#X connect 0 2 6 0;
#X connect 0 3 7 0;
#X connect 1 0 5 0;
#X connect 1 1 4 0;
#X connect 1 2 6 0;
#X connect 1 3 7 0;
#X connect 2 0 6 0;
#X connect 2 1 4 0;
#X connect 2 2 5 0;
#X connect 2 3 7 0;
#X connect 3 0 7 0;
#X connect 3 1 4 0;
#X connect 3 2 5 0;
#X connect 3 3 6 0;
#X connect 8 0 0 0;
#X connect 9 0 1 0;
#X connect 10 0 2 0;
#X connect 11 0 3 0;
#X restore 211 341 pd switch;
#X obj 279 401 *~;
#X obj 377 401 *~;
#X obj 461 401 *~;
#X obj 556 401 *~;
#X obj 348 175 + 1;
#X obj 321 276 *;
#X obj 321 241 bng 15 250 50 0 empty empty empty 17 7 0 10 -262144
-1 -1;
#N canvas 552 127 465 367 angolo 0;
#X obj 75 9 inlet~;
#X obj 75 89 *~ 2;
#X obj 75 112 -~ 1;
#X obj 143 89 *~ 2;
#X obj 143 112 -~ 1;
#X obj 74 169 +~;
#X obj 75 66 phasor~;
#X obj 143 66 phasor~;
#X obj 142 41 *~ -1;
#X obj 75 138 clip~ 0 1;
#X obj 142 138 clip~ 0 1;
#X msg 199 49 0;
#X obj 74 234 clip~ -1 1;
#X obj 74 191 *~ 2;
#X obj 75 210 -~ 1;
#X obj 74 264 outlet~;
#X obj 199 22 loadbang;
#X connect 0 0 6 0;
#X connect 0 0 8 0;
#X connect 1 0 2 0;
#X connect 2 0 9 0;
#X connect 3 0 4 0;
#X connect 4 0 10 0;
#X connect 5 0 13 0;
#X connect 6 0 1 0;
#X connect 7 0 3 0;
#X connect 8 0 7 0;
#X connect 9 0 5 0;
#X connect 10 0 5 1;
#X connect 11 0 7 1;
#X connect 11 0 6 1;
#X connect 12 0 15 0;
#X connect 13 0 14 0;
#X connect 14 0 12 0;
#X connect 16 0 11 0;
#X restore 279 336 pd angolo;
#N canvas 497 179 470 374 quadra 0;
#X obj 101 36 inlet~;
#X obj 101 77 phasor~;
#X obj 177 52 *~ -1;
#X obj 178 79 phasor~;
#X msg 164 27 0;
#X msg 217 26 0.5;
#X obj 164 -6 loadbang;
#X obj 100 116 +~;
#X obj 100 172 clip~ -1 1;
#X obj 101 228 outlet~;
#X obj 100 143 -~ 1;
#X connect 0 0 1 0;
#X connect 0 0 2 0;
#X connect 1 0 7 0;
#X connect 2 0 3 0;
#X connect 3 0 7 1;
#X connect 4 0 1 1;
#X connect 5 0 3 1;
#X connect 6 0 4 0;
#X connect 6 0 5 0;
#X connect 7 0 10 0;
#X connect 8 0 9 0;
#X connect 10 0 8 0;
#X restore 460 337 pd quadra;
#X obj 348 224 1;
#X obj 378 224 2;
#X obj 408 224 4;
#X obj 438 224 8;
#X obj 126 216 mknob 40 40 -0.12246 0.12246 0 0 VCO3-2 VCO3-2-r PITCH
8 54 0 8 -262144 -1 -1 1950 1;
#N canvas 0 0 1366 702 rampa 0;
#X obj 74 38 inlet~;
#X obj 74 97 *~ 2;
#X obj 74 120 -~ 1;
#X obj 73 66 phasor~;
#X obj 72 184 outlet~;
#X obj 73 152 clip~ -1 1;
#X connect 0 0 3 0;
#X connect 1 0 2 0;
#X connect 2 0 5 0;
#X connect 3 0 1 0;
#X connect 5 0 4 0;
#X restore 377 338 pd rampa;
#X obj 348 196 route 1 2 3 4 5 6 7;
#X obj 468 224 16;
#X obj 498 224 32;
#X obj 528 224 64;
#X obj 271 232 / 8;
#X obj 172 247 bng 15 250 50 0 empty empty empty 17 7 0 10 -1 -257985
-1;
#X obj 229 172 i;
#X obj 348 152 i;
#N canvas 773 53 346 485 pch 0;
#X obj 100 26 inlet;
#X floatatom 187 92 10 0 0 0 - - -;
#X floatatom 100 92 10 0 0 0 - - -;
#X obj 59 108 * -1;
#X floatatom 100 131 5 0 0 0 - - -;
#X floatatom 59 131 5 0 0 0 - - -;
#X obj 59 153 + 1;
#X obj 100 153 + 1;
#X floatatom 100 176 5 0 0 0 - - -;
#X floatatom 59 176 5 0 0 0 - - -;
#X obj 187 216 switch 1 2;
#X floatatom 187 240 10 0 0 0 - - -;
#X obj 100 56 expr $f1 \; if($f1>0 \, 2 \, 1);
#X obj 85 199 *;
#X obj 44 199 /;
#X obj 259 182 inlet;
#X obj 187 263 outlet;
#X obj 18 86 bng 15 250 50 0 empty empty empty 17 7 0 10 -262144 -1
-1;
#X obj 18 184 bng 15 250 50 0 empty empty empty 17 7 0 10 -262144 -1
-1;
#X connect 0 0 12 0;
#X connect 1 0 10 0;
#X connect 2 0 3 0;
#X connect 2 0 4 0;
#X connect 3 0 5 0;
#X connect 4 0 7 0;
#X connect 5 0 6 0;
#X connect 6 0 9 0;
#X connect 7 0 8 0;
#X connect 8 0 13 1;
#X connect 9 0 14 1;
#X connect 10 0 11 0;
#X connect 11 0 16 0;
#X connect 12 0 2 0;
#X connect 12 0 17 0;
#X connect 12 1 1 0;
#X connect 13 0 10 2;
#X connect 14 0 10 1;
#X connect 15 0 13 0;
#X connect 15 0 14 0;
#X connect 17 0 18 0;
#X connect 18 0 14 0;
#X connect 18 0 13 0;
#X restore 238 259 pd pch;
#X obj 242 217 bng 15 250 50 0 empty empty empty 17 7 0 10 -262144
-1 -1;
#X msg 47 197 0;
#X msg 126 59 0.05946;
#X text 106 101 VCO3;
#X obj 271 188 r vco3;
#X obj 590 383 r~ env1.3;
#X obj 590 419 s~ mixer1.3;
#X msg 47 261 2.253;
#X msg 61 111 1.474;
#X connect 1 0 41 0;
#X connect 2 0 42 0;
#X connect 3 0 1 0;
#X connect 3 0 45 0;
#X connect 3 0 51 0;
#X connect 3 0 52 0;
#X connect 4 0 13 0;
#X connect 5 0 27 0;
#X connect 6 0 39 0;
#X connect 7 0 34 0;
#X connect 8 0 28 0;
#X connect 9 0 5 0;
#X connect 9 0 19 0;
#X connect 9 1 7 0;
#X connect 9 1 19 1;
#X connect 9 2 8 0;
#X connect 9 2 19 2;
#X connect 9 3 19 3;
#X connect 10 0 20 0;
#X connect 11 0 21 0;
#X connect 12 0 22 0;
#X connect 13 0 23 0;
#X connect 14 0 10 1;
#X connect 15 0 11 1;
#X connect 16 0 12 1;
#X connect 17 0 13 1;
#X connect 18 0 9 0;
#X connect 18 0 44 0;
#X connect 19 0 14 0;
#X connect 19 1 15 0;
#X connect 19 2 16 0;
#X connect 19 3 17 0;
#X connect 20 0 50 0;
#X connect 21 0 50 0;
#X connect 22 0 50 0;
#X connect 23 0 50 0;
#X connect 24 0 35 0;
#X connect 25 0 9 1;
#X connect 26 0 25 0;
#X connect 27 0 10 0;
#X connect 28 0 12 0;
#X connect 29 0 26 0;
#X connect 29 0 25 1;
#X connect 30 0 25 1;
#X connect 30 0 26 0;
#X connect 31 0 26 0;
#X connect 31 0 25 1;
#X connect 32 0 26 0;
#X connect 32 0 25 1;
#X connect 33 0 43 0;
#X connect 34 0 11 0;
#X connect 35 0 29 0;
#X connect 35 1 30 0;
#X connect 35 2 31 0;
#X connect 35 3 32 0;
#X connect 35 4 36 0;
#X connect 35 5 37 0;
#X connect 35 6 38 0;
#X connect 36 0 25 1;
#X connect 36 0 26 0;
#X connect 37 0 26 0;
#X connect 37 0 25 1;
#X connect 38 0 26 0;
#X connect 38 0 25 1;
#X connect 39 0 43 1;
#X connect 40 0 45 0;
#X connect 41 0 18 0;
#X connect 42 0 24 0;
#X connect 43 0 25 0;
#X connect 44 0 39 0;
#X connect 45 0 33 0;
#X connect 46 0 33 0;
#X connect 48 0 6 0;
#X connect 49 0 20 1;
#X connect 49 0 21 1;
#X connect 49 0 22 1;
#X connect 49 0 23 1;
#X connect 51 0 2 0;
#X connect 52 0 1 0;
#X coords 0 -1 1 1 93 262 2 100 100;
