#N canvas 47 125 544 487 10;
#X obj 101 101 cnv 15 248 28 empty empty empty 20 12 0 14 -86853 -66577
0;
#X obj 109 109 bng 15 250 50 0 empty empty SAVE 17 7 0 10 -86853 -260097
-260097;
#X obj 201 177 del 10;
#X msg 201 273 start;
#X msg 153 278 stop;
#X obj 109 365 writesf~ 2;
#X obj 159 109 bng 15 250 50 0 empty empty STOP 17 7 0 10 -86853 -260097
-260097;
#X obj 332 268 inlet~;
#X obj 282 268 inlet~;
#X obj 399 234 tgl 15 0 empty empty empty 17 7 0 10 -262144 -1 -1 0
1;
#X obj 323 103 bng 24 250 50 0 empty empty empty 17 7 0 10 -1 -258113
-4034;
#X msg 432 203 1;
#X msg 399 202 0;
#X obj 399 261 metro 500;
#X msg 109 241 open ../out.wav;
#X connect 1 0 2 0;
#X connect 1 0 14 0;
#X connect 1 0 11 0;
#X connect 2 0 3 0;
#X connect 3 0 5 0;
#X connect 4 0 5 0;
#X connect 6 0 4 0;
#X connect 6 0 12 0;
#X connect 7 0 5 1;
#X connect 8 0 5 0;
#X connect 9 0 13 0;
#X connect 11 0 9 0;
#X connect 12 0 9 0;
#X connect 13 0 10 0;
#X connect 14 0 5 0;
#X coords 0 -1 1 1 250 30 1 100 100;
