#N canvas 119 47 1190 624 10;
#X obj 101 101 cnv 15 91 167 empty empty empty 20 12 0 14 -233017 -66577
0;
#X text 131 100 DELAY;
#X obj 120 119 mknob 60 60 0 1000 0 0 DELAYT DELAYT-r TIME 20 70 0 8
-262144 -1 -1 0 1;
#X floatatom 261 182 5 0 0 0 - - -;
#X obj 261 311 sig~;
#X obj 232 454 *~ 1;
#X obj 262 453 *~ 0.125;
#X obj 109 216 mknob 32 32 0 1 0 0 DELAYDW DELAYDW-r DRY/WET 2 46 0
8 -262144 -1 -1 0 1;
#X floatatom 64 328 5 0 0 0 - - -;
#X floatatom 109 328 5 0 0 0 - - -;
#X obj 64 286 * -1;
#X obj 64 307 + 1;
#X obj 33 57 loadbang;
#X msg 33 84 0;
#X obj 233 531 *~ 1;
#X obj 233 120 r~ delay;
#X obj 234 563 s~ VCA;
#X obj 261 334 vd~ ritardo 0;
#X obj 461 311 sig~;
#X obj 461 409 *~;
#X obj 480 387 sig~;
#X floatatom 504 312 7 0 0 0 - - -;
#X floatatom 512 387 5 0 0 0 - - -;
#X obj 480 364 / 2;
#X obj 461 334 vd~ ritardo 0;
#X obj 461 262 / 2;
#X obj 461 287 * 3;
#X obj 561 311 sig~;
#X obj 561 409 *~;
#X obj 580 387 sig~;
#X floatatom 604 312 7 0 0 0 - - -;
#X floatatom 612 387 5 0 0 0 - - -;
#X obj 580 364 / 2;
#X obj 561 334 vd~ ritardo 0;
#X obj 561 262 / 3;
#X obj 561 287 * 4;
#X obj 361 311 sig~;
#X obj 361 409 *~;
#X obj 380 387 sig~;
#X floatatom 404 312 7 0 0 0 - - -;
#X floatatom 412 387 5 0 0 0 - - -;
#X obj 380 364 / 2;
#X obj 361 334 vd~ ritardo 0;
#X obj 361 262 / 1;
#X obj 361 287 * 2;
#X obj 261 262 / 1;
#X obj 261 287 * 1;
#X floatatom 304 312 7 0 0 0 - - -;
#X obj 661 311 sig~;
#X obj 661 409 *~;
#X obj 680 387 sig~;
#X floatatom 704 312 7 0 0 0 - - -;
#X floatatom 712 387 5 0 0 0 - - -;
#X obj 680 364 / 2;
#X obj 661 334 vd~ ritardo 0;
#X obj 661 262 / 4;
#X obj 661 287 * 5;
#X obj 761 311 sig~;
#X obj 761 409 *~;
#X obj 780 387 sig~;
#X floatatom 804 312 7 0 0 0 - - -;
#X floatatom 812 387 5 0 0 0 - - -;
#X obj 780 364 / 2;
#X obj 761 334 vd~ ritardo 0;
#X obj 761 262 / 5;
#X obj 761 287 * 6;
#X obj 861 311 sig~;
#X obj 861 409 *~;
#X obj 880 387 sig~;
#X floatatom 904 312 7 0 0 0 - - -;
#X floatatom 912 387 5 0 0 0 - - -;
#X obj 880 364 / 2;
#X obj 861 334 vd~ ritardo 0;
#X obj 961 311 sig~;
#X obj 961 409 *~;
#X obj 980 387 sig~;
#X floatatom 1004 312 7 0 0 0 - - -;
#X floatatom 1012 387 5 0 0 0 - - -;
#X obj 980 364 / 2;
#X obj 961 334 vd~ ritardo 0;
#X obj 861 262 / 6;
#X obj 861 287 * 7;
#X obj 961 262 / 7;
#X obj 961 287 * 8;
#X obj 360 468 *~;
#X obj 375 443 tgl 15 0 empty empty empty 17 7 0 10 -262144 -1 -1 0
1;
#X obj 460 468 *~;
#X obj 475 443 tgl 15 0 empty empty empty 17 7 0 10 -262144 -1 -1 0
1;
#X obj 560 468 *~;
#X obj 575 443 tgl 15 0 empty empty empty 17 7 0 10 -262144 -1 -1 0
1;
#X obj 660 468 *~;
#X obj 675 443 tgl 15 0 empty empty empty 17 7 0 10 -262144 -1 -1 0
1;
#X obj 760 468 *~;
#X obj 775 443 tgl 15 0 empty empty empty 17 7 0 10 -262144 -1 -1 0
1;
#X obj 860 468 *~;
#X obj 875 443 tgl 15 0 empty empty empty 17 7 0 10 -262144 -1 -1 0
1;
#X obj 960 468 *~;
#X obj 975 443 tgl 15 0 empty empty empty 17 7 0 10 -262144 -1 -1 0
1;
#N canvas 765 125 434 350 selettore 0;
#X obj 47 59 hradio 15 1 0 8 empty empty empty 0 -8 0 10 -262144 -1
-1 0;
#X floatatom 47 84 5 0 0 0 - - -;
#X obj 47 112 route 0 1 2 3 4 5 6 7;
#X msg 66 188 0;
#X msg 47 164 1;
#X obj 47 289 outlet;
#X obj 97 289 outlet;
#X obj 147 289 outlet;
#X obj 197 289 outlet;
#X obj 247 289 outlet;
#X obj 297 289 outlet;
#X obj 347 289 outlet;
#X msg 106 188 0;
#X msg 87 164 1;
#X msg 146 188 0;
#X msg 127 164 1;
#X msg 186 188 0;
#X msg 167 164 1;
#X msg 226 188 0;
#X msg 207 164 1;
#X msg 266 188 0;
#X msg 247 164 1;
#X msg 306 188 0;
#X msg 287 164 1;
#X obj 47 27 inlet;
#X msg 346 188 0;
#X msg 327 164 1;
#X connect 0 0 1 0;
#X connect 1 0 2 0;
#X connect 2 0 4 0;
#X connect 2 1 13 0;
#X connect 2 2 15 0;
#X connect 2 3 17 0;
#X connect 2 4 19 0;
#X connect 2 5 21 0;
#X connect 2 6 23 0;
#X connect 2 7 26 0;
#X connect 3 0 7 0;
#X connect 3 0 8 0;
#X connect 3 0 9 0;
#X connect 3 0 10 0;
#X connect 3 0 11 0;
#X connect 3 0 5 0;
#X connect 3 0 6 0;
#X connect 4 0 3 0;
#X connect 12 0 7 0;
#X connect 12 0 8 0;
#X connect 12 0 9 0;
#X connect 12 0 10 0;
#X connect 12 0 11 0;
#X connect 12 0 6 0;
#X connect 13 0 12 0;
#X connect 13 0 5 0;
#X connect 14 0 8 0;
#X connect 14 0 9 0;
#X connect 14 0 10 0;
#X connect 14 0 11 0;
#X connect 14 0 7 0;
#X connect 15 0 14 0;
#X connect 15 0 5 0;
#X connect 15 0 6 0;
#X connect 16 0 9 0;
#X connect 16 0 10 0;
#X connect 16 0 11 0;
#X connect 16 0 8 0;
#X connect 17 0 16 0;
#X connect 17 0 5 0;
#X connect 17 0 6 0;
#X connect 17 0 7 0;
#X connect 18 0 10 0;
#X connect 18 0 11 0;
#X connect 18 0 9 0;
#X connect 19 0 18 0;
#X connect 19 0 5 0;
#X connect 19 0 6 0;
#X connect 19 0 7 0;
#X connect 19 0 8 0;
#X connect 20 0 11 0;
#X connect 20 0 10 0;
#X connect 21 0 20 0;
#X connect 21 0 5 0;
#X connect 21 0 6 0;
#X connect 21 0 7 0;
#X connect 21 0 8 0;
#X connect 21 0 9 0;
#X connect 22 0 11 0;
#X connect 23 0 22 0;
#X connect 23 0 5 0;
#X connect 23 0 6 0;
#X connect 23 0 7 0;
#X connect 23 0 8 0;
#X connect 23 0 9 0;
#X connect 23 0 10 0;
#X connect 24 0 0 0;
#X connect 26 0 25 0;
#X connect 26 0 5 0;
#X connect 26 0 6 0;
#X connect 26 0 7 0;
#X connect 26 0 8 0;
#X connect 26 0 9 0;
#X connect 26 0 10 0;
#X connect 26 0 11 0;
#X restore 1075 426 pd selettore;
#X obj 261 153 delwrite~ ritardo 32000;
#X obj 154 216 mknob 32 32 0 8 0 0 DELAYTA DELAYTA-r TAIL 5 46 0 8 -262144
-1 -1 0 1;
#X floatatom 1075 251 5 0 0 0 - - -;
#X obj 117 196 tgl 8 0 empty empty empty 17 7 0 10 -1 -258113 -1 0
1;
#X obj 127 196 tgl 8 0 empty empty empty 17 7 0 10 -1 -258113 -1 0
1;
#X obj 137 196 tgl 8 0 empty empty empty 17 7 0 10 -1 -258113 -1 0
1;
#X obj 147 196 tgl 8 0 empty empty empty 17 7 0 10 -1 -258113 -1 0
1;
#X obj 157 196 tgl 8 0 empty empty empty 17 7 0 10 -1 -258113 -1 0
1;
#X obj 167 196 tgl 8 0 empty empty empty 17 7 0 10 -1 -258113 -1 0
1;
#X obj 177 196 tgl 8 0 empty empty empty 17 7 0 10 -1 -258113 -1 0
1;
#X obj 107 196 tgl 8 0 empty empty empty 17 7 0 10 -1 -258113 -1 0
1;
#X msg 34 135 1;
#X connect 2 0 3 0;
#X connect 3 0 45 0;
#X connect 4 0 17 0;
#X connect 5 0 14 0;
#X connect 6 0 14 0;
#X connect 7 0 10 0;
#X connect 7 0 9 0;
#X connect 8 0 5 1;
#X connect 9 0 6 1;
#X connect 9 0 41 0;
#X connect 10 0 11 0;
#X connect 11 0 8 0;
#X connect 12 0 13 0;
#X connect 12 0 110 0;
#X connect 13 0 7 0;
#X connect 13 0 2 0;
#X connect 14 0 16 0;
#X connect 15 0 5 0;
#X connect 15 0 99 0;
#X connect 17 0 6 0;
#X connect 18 0 24 0;
#X connect 19 0 86 0;
#X connect 20 0 19 1;
#X connect 21 0 34 0;
#X connect 22 0 32 0;
#X connect 23 0 20 0;
#X connect 23 0 22 0;
#X connect 24 0 19 0;
#X connect 25 0 26 0;
#X connect 26 0 18 0;
#X connect 26 0 21 0;
#X connect 27 0 33 0;
#X connect 28 0 88 0;
#X connect 29 0 28 1;
#X connect 30 0 55 0;
#X connect 31 0 53 0;
#X connect 32 0 29 0;
#X connect 32 0 31 0;
#X connect 33 0 28 0;
#X connect 34 0 35 0;
#X connect 35 0 27 0;
#X connect 35 0 30 0;
#X connect 36 0 42 0;
#X connect 37 0 84 0;
#X connect 38 0 37 1;
#X connect 39 0 25 0;
#X connect 40 0 23 0;
#X connect 41 0 38 0;
#X connect 41 0 40 0;
#X connect 42 0 37 0;
#X connect 43 0 44 0;
#X connect 44 0 36 0;
#X connect 44 0 39 0;
#X connect 45 0 46 0;
#X connect 46 0 4 0;
#X connect 46 0 47 0;
#X connect 47 0 43 0;
#X connect 48 0 54 0;
#X connect 49 0 90 0;
#X connect 50 0 49 1;
#X connect 51 0 64 0;
#X connect 52 0 62 0;
#X connect 53 0 50 0;
#X connect 53 0 52 0;
#X connect 54 0 49 0;
#X connect 55 0 56 0;
#X connect 56 0 48 0;
#X connect 56 0 51 0;
#X connect 57 0 63 0;
#X connect 58 0 92 0;
#X connect 59 0 58 1;
#X connect 60 0 80 0;
#X connect 61 0 71 0;
#X connect 62 0 59 0;
#X connect 62 0 61 0;
#X connect 63 0 58 0;
#X connect 64 0 65 0;
#X connect 65 0 57 0;
#X connect 65 0 60 0;
#X connect 66 0 72 0;
#X connect 67 0 94 0;
#X connect 68 0 67 1;
#X connect 69 0 82 0;
#X connect 70 0 78 0;
#X connect 71 0 68 0;
#X connect 71 0 70 0;
#X connect 72 0 67 0;
#X connect 73 0 79 0;
#X connect 74 0 96 0;
#X connect 75 0 74 1;
#X connect 78 0 75 0;
#X connect 78 0 77 0;
#X connect 79 0 74 0;
#X connect 80 0 81 0;
#X connect 81 0 66 0;
#X connect 81 0 69 0;
#X connect 82 0 83 0;
#X connect 83 0 73 0;
#X connect 83 0 76 0;
#X connect 84 0 14 0;
#X connect 85 0 84 1;
#X connect 85 0 102 0;
#X connect 86 0 14 0;
#X connect 87 0 86 1;
#X connect 87 0 103 0;
#X connect 88 0 14 0;
#X connect 89 0 88 1;
#X connect 89 0 104 0;
#X connect 90 0 14 0;
#X connect 91 0 90 1;
#X connect 91 0 105 0;
#X connect 92 0 14 0;
#X connect 93 0 92 1;
#X connect 93 0 106 0;
#X connect 94 0 14 0;
#X connect 95 0 94 1;
#X connect 95 0 107 0;
#X connect 96 0 14 0;
#X connect 97 0 96 1;
#X connect 97 0 108 0;
#X connect 98 0 85 0;
#X connect 98 1 87 0;
#X connect 98 2 89 0;
#X connect 98 3 91 0;
#X connect 98 4 93 0;
#X connect 98 5 95 0;
#X connect 98 6 97 0;
#X connect 100 0 101 0;
#X connect 101 0 98 0;
#X connect 110 0 109 0;
#X coords 0 -1 1 1 93 169 2 100 100;
