#N canvas 309 123 801 482 10;
#X obj 103 97 openpanel;
#X obj 103 62 bng 30 250 50 0 empty empty empty 17 7 0 10 -13381 -4034
-1;
#X floatatom 103 338 5 0 0 0 - - -;
#X floatatom 143 338 5 0 0 0 - - -;
#X floatatom 183 338 5 0 0 0 - - -;
#X obj 103 212 textfile;
#X msg 103 122 read \$1;
#X msg 133 165 rewind;
#X obj 133 190 bng 15 250 50 0 empty empty empty 17 7 0 10 -262144
-1 -1;
#X obj 133 145 bng 15 250 50 0 empty empty empty 17 7 0 10 -262144
-1 -1;
#X floatatom 223 338 5 0 0 0 - - -;
#X floatatom 263 338 5 0 0 0 - - -;
#X floatatom 303 338 5 0 0 0 - - -;
#X floatatom 343 338 5 0 0 0 - - -;
#X floatatom 383 338 5 0 0 0 - - -;
#X floatatom 423 338 5 0 0 0 - - -;
#X floatatom 463 338 5 0 0 0 - - -;
#X floatatom 503 338 5 0 0 0 - - -;
#X floatatom 543 338 5 0 0 0 - - -;
#X floatatom 583 338 5 0 0 0 - - -;
#X floatatom 623 338 5 0 0 0 - - -;
#X floatatom 663 338 5 0 0 0 - - -;
#X floatatom 703 338 5 0 0 0 - - -;
#X floatatom 743 338 5 0 0 0 - - -;
#X floatatom 783 338 5 0 0 0 - - -;
#X floatatom 823 338 5 0 0 0 - - -;
#X floatatom 863 338 5 0 0 0 - - -;
#X floatatom 903 338 5 0 0 0 - - -;
#X floatatom 943 338 5 0 0 0 - - -;
#X floatatom 983 338 5 0 0 0 - - -;
#X floatatom 1023 338 5 0 0 0 - - -;
#X floatatom 1063 338 5 0 0 0 - - -;
#X floatatom 1103 338 5 0 0 0 - - -;
#X floatatom 1143 338 5 0 0 0 - - -;
#X floatatom 1183 338 5 0 0 0 - - -;
#X floatatom 1223 338 5 0 0 0 - - -;
#X obj 103 35 inlet;
#N canvas 433 172 450 300 VCO1read 0;
#X obj 106 25 inlet;
#X obj 167 26 inlet;
#X obj 243 25 inlet;
#X obj 106 71 s VCO1-1-r;
#X obj 177 72 s VCO1-2-r;
#X obj 253 71 s VCO1-3-r;
#X connect 0 0 3 0;
#X connect 1 0 4 0;
#X connect 2 0 5 0;
#X restore 102 381 pd VCO1read;
#N canvas 433 172 450 300 VCO2read 0;
#X obj 106 25 inlet;
#X obj 174 25 inlet;
#X obj 249 24 inlet;
#X obj 106 71 s VCO2-1-r;
#X obj 184 71 s VCO2-2-r;
#X obj 259 70 s VCO2-3-r;
#X connect 0 0 3 0;
#X connect 1 0 4 0;
#X connect 2 0 5 0;
#X restore 212 381 pd VCO2read;
#N canvas 674 241 450 300 MIXERread 0;
#X obj 196 81 s MIXER2-r;
#X obj 116 81 s MIXER1-r;
#X obj 125 49 inlet;
#X obj 197 43 inlet;
#X connect 2 0 1 0;
#X connect 3 0 0 0;
#X restore 335 389 pd MIXERread;
#N canvas 253 291 450 300 VCFread 0;
#X obj 58 58 s VCFCF-r;
#X obj 136 63 s VCFQ-r;
#X obj 199 64 s VCFs1-r;
#X obj 268 62 s VCFsp-r;
#X obj 333 74 s VCFs2-r;
#X obj 54 16 inlet;
#X obj 134 16 inlet;
#X obj 204 16 inlet;
#X obj 264 16 inlet;
#X obj 345 22 inlet;
#X connect 5 0 0 0;
#X connect 6 0 1 0;
#X connect 7 0 2 0;
#X connect 8 0 3 0;
#X connect 9 0 4 0;
#X restore 467 409 pd VCFread;
#N canvas 781 350 450 300 EVN2read 0;
#X obj 57 71 s VCO2R-r;
#X obj 121 82 s VCO2S-r;
#X obj 187 86 s VCO2OP-r;
#X obj 254 94 s VCO2A-r;
#X obj 53 21 inlet;
#X obj 123 21 inlet;
#X obj 193 21 inlet;
#X obj 253 21 inlet;
#X connect 4 0 0 0;
#X connect 5 0 1 0;
#X connect 6 0 2 0;
#X connect 7 0 3 0;
#X restore 631 407 pd EVN2read;
#N canvas 781 350 450 300 EVN2read 0;
#X obj 53 21 inlet;
#X obj 123 21 inlet;
#X obj 193 21 inlet;
#X obj 253 21 inlet;
#X obj 57 71 s VCO1R-r;
#X obj 121 82 s VCO1S-r;
#X obj 187 86 s VCO1OP-r;
#X obj 254 94 s VCO1A-r;
#X connect 0 0 4 0;
#X connect 1 0 5 0;
#X connect 2 0 6 0;
#X connect 3 0 7 0;
#X restore 811 402 pd EVN2read;
#N canvas 491 248 450 300 DELAYread 0;
#X obj 113 85 s DELAYT-r;
#X obj 211 104 s DELAYDW-r;
#X obj 300 107 s DELAYTA-r;
#X obj 122 31 inlet;
#X obj 209 39 inlet;
#X obj 308 35 inlet;
#X connect 3 0 0 0;
#X connect 4 0 1 0;
#X connect 5 0 2 0;
#X restore 944 393 pd DELAYread;
#N canvas 717 162 450 300 PULSEread 0;
#X obj 139 84 s PULSEOF-r;
#X obj 241 81 s PULSET-r;
#X obj 139 43 inlet;
#X obj 248 33 inlet;
#X connect 2 0 0 0;
#X connect 3 0 1 0;
#X restore 1059 394 pd PULSEread;
#N canvas 61 247 450 300 PORTAMENTOread 0;
#X obj 179 72 s PORTAMENTO-r;
#X obj 188 29 inlet;
#X connect 1 0 0 0;
#X restore 1132 436 pd PORTAMENTOread;
#N canvas 251 172 450 300 VCAread 0;
#X obj 110 61 s VCAV-r;
#X obj 175 59 s VCAG-r;
#X obj 105 15 inlet;
#X obj 175 16 inlet;
#X connect 2 0 0 0;
#X connect 3 0 1 0;
#X restore 1177 401 pd VCAread;
#X msg 263 160 0;
#X floatatom 1263 338 5 0 0 0 - - -;
#X floatatom 1303 338 5 0 0 0 - - -;
#X floatatom 1343 338 5 0 0 0 - - -;
#X floatatom 1384 340 5 0 0 0 - - -;
#X floatatom 1424 340 5 0 0 0 - - -;
#X floatatom 1464 340 5 0 0 0 - - -;
#N canvas 433 172 450 300 VCO3read 0;
#X obj 106 25 inlet;
#X obj 167 26 inlet;
#X obj 243 25 inlet;
#X obj 106 71 s VCO3-1-r;
#X obj 177 72 s VCO3-2-r;
#X obj 253 71 s VCO3-3-r;
#X connect 0 0 3 0;
#X connect 1 0 4 0;
#X connect 2 0 5 0;
#X restore 1262 381 pd VCO3read;
#N canvas 781 350 450 300 EVN3read 0;
#X obj 53 21 inlet;
#X obj 123 21 inlet;
#X obj 193 21 inlet;
#X obj 253 21 inlet;
#X obj 57 71 s VCO3R-r;
#X obj 121 82 s VCO3S-r;
#X obj 187 86 s VCO3OP-r;
#X obj 254 94 s VCO3A-r;
#X connect 0 0 4 0;
#X connect 1 0 5 0;
#X connect 2 0 6 0;
#X connect 3 0 7 0;
#X restore 1392 409 pd EVN3read;
#X floatatom 1514 340 5 0 0 0 - - -;
#X obj 263 137 bng 15 250 50 0 empty empty empty 17 7 0 10 -262144
-1 -1;
#X floatatom 1553 338 5 0 0 0 - - -;
#X floatatom 1593 338 5 0 0 0 - - -;
#X floatatom 1633 338 5 0 0 0 - - -;
#X floatatom 1674 340 5 0 0 0 - - -;
#X floatatom 1714 340 5 0 0 0 - - -;
#X floatatom 1754 340 5 0 0 0 - - -;
#X floatatom 1804 340 5 0 0 0 - - -;
#N canvas 433 172 450 300 VCO4read 0;
#X obj 106 25 inlet;
#X obj 167 26 inlet;
#X obj 243 25 inlet;
#X obj 106 71 s VCO4-1-r;
#X obj 177 72 s VCO4-2-r;
#X obj 253 71 s VCO4-3-r;
#X connect 0 0 3 0;
#X connect 1 0 4 0;
#X connect 2 0 5 0;
#X restore 1552 381 pd VCO4read;
#N canvas 781 350 450 300 EVN4read 0;
#X obj 53 21 inlet;
#X obj 123 21 inlet;
#X obj 193 21 inlet;
#X obj 253 21 inlet;
#X obj 57 71 s VCO4R-r;
#X obj 121 82 s VCO4S-r;
#X obj 187 86 s VCO4OP-r;
#X obj 254 94 s VCO4A-r;
#X connect 0 0 4 0;
#X connect 1 0 5 0;
#X connect 2 0 6 0;
#X connect 3 0 7 0;
#X restore 1682 409 pd EVN4read;
#X floatatom 1843 338 5 0 0 0 - - -;
#X floatatom 1883 338 5 0 0 0 - - -;
#N canvas 674 241 450 300 MIXERread3-4 0;
#X obj 125 49 inlet;
#X obj 197 43 inlet;
#X obj 116 81 s MIXER3-r;
#X obj 196 81 s MIXER4-r;
#X connect 0 0 2 0;
#X connect 1 0 3 0;
#X restore 1835 389 pd MIXERread3-4;
#X obj 103 253 unpack f f f f f f f f f f f f f f f f f f f f f f f
f f f f f f f f f f f f f f f f f f f f f f;
#X obj 524 114 symbol;
#X obj 524 164 s patchname-r;
#X obj 524 139 ext13/strippath;
#X obj 524 36 loadbang;
#X obj 524 86 list append;
#X msg 524 61 ../patch/default;
#X connect 0 0 6 0;
#X connect 0 0 71 0;
#X connect 1 0 0 0;
#X connect 2 0 37 0;
#X connect 3 0 37 1;
#X connect 4 0 37 2;
#X connect 5 0 70 0;
#X connect 6 0 5 0;
#X connect 6 0 9 0;
#X connect 7 0 5 0;
#X connect 7 0 8 0;
#X connect 8 0 5 0;
#X connect 9 0 7 0;
#X connect 10 0 38 0;
#X connect 11 0 38 1;
#X connect 12 0 38 2;
#X connect 13 0 39 0;
#X connect 14 0 39 1;
#X connect 15 0 40 0;
#X connect 16 0 40 1;
#X connect 17 0 40 2;
#X connect 18 0 40 3;
#X connect 19 0 40 4;
#X connect 20 0 41 0;
#X connect 21 0 41 1;
#X connect 22 0 41 2;
#X connect 23 0 41 3;
#X connect 24 0 42 0;
#X connect 25 0 42 1;
#X connect 26 0 42 2;
#X connect 27 0 42 3;
#X connect 28 0 43 0;
#X connect 29 0 43 1;
#X connect 30 0 43 2;
#X connect 31 0 44 0;
#X connect 32 0 44 1;
#X connect 33 0 45 0;
#X connect 34 0 46 0;
#X connect 35 0 46 1;
#X connect 36 0 1 0;
#X connect 47 0 2 0;
#X connect 47 0 3 0;
#X connect 47 0 4 0;
#X connect 47 0 10 0;
#X connect 47 0 11 0;
#X connect 47 0 12 0;
#X connect 47 0 13 0;
#X connect 47 0 14 0;
#X connect 47 0 15 0;
#X connect 47 0 16 0;
#X connect 47 0 17 0;
#X connect 47 0 18 0;
#X connect 47 0 19 0;
#X connect 47 0 20 0;
#X connect 47 0 21 0;
#X connect 47 0 22 0;
#X connect 47 0 23 0;
#X connect 47 0 24 0;
#X connect 47 0 25 0;
#X connect 47 0 26 0;
#X connect 47 0 27 0;
#X connect 47 0 28 0;
#X connect 47 0 29 0;
#X connect 47 0 30 0;
#X connect 47 0 31 0;
#X connect 47 0 32 0;
#X connect 47 0 33 0;
#X connect 47 0 34 0;
#X connect 47 0 35 0;
#X connect 47 0 48 0;
#X connect 47 0 49 0;
#X connect 47 0 50 0;
#X connect 47 0 51 0;
#X connect 47 0 52 0;
#X connect 47 0 53 0;
#X connect 47 0 56 0;
#X connect 47 0 58 0;
#X connect 47 0 59 0;
#X connect 47 0 60 0;
#X connect 47 0 61 0;
#X connect 47 0 62 0;
#X connect 47 0 63 0;
#X connect 47 0 64 0;
#X connect 47 0 67 0;
#X connect 47 0 68 0;
#X connect 48 0 54 0;
#X connect 49 0 54 1;
#X connect 50 0 54 2;
#X connect 51 0 55 0;
#X connect 52 0 55 1;
#X connect 53 0 55 2;
#X connect 56 0 55 3;
#X connect 57 0 47 0;
#X connect 58 0 65 0;
#X connect 59 0 65 1;
#X connect 60 0 65 2;
#X connect 61 0 66 0;
#X connect 62 0 66 1;
#X connect 63 0 66 2;
#X connect 64 0 66 3;
#X connect 67 0 69 0;
#X connect 68 0 69 1;
#X connect 70 0 2 0;
#X connect 70 1 3 0;
#X connect 70 2 4 0;
#X connect 70 3 10 0;
#X connect 70 4 11 0;
#X connect 70 5 12 0;
#X connect 70 6 13 0;
#X connect 70 7 14 0;
#X connect 70 8 15 0;
#X connect 70 9 16 0;
#X connect 70 10 17 0;
#X connect 70 11 18 0;
#X connect 70 12 19 0;
#X connect 70 13 20 0;
#X connect 70 14 21 0;
#X connect 70 15 22 0;
#X connect 70 16 23 0;
#X connect 70 17 24 0;
#X connect 70 18 25 0;
#X connect 70 19 26 0;
#X connect 70 20 27 0;
#X connect 70 21 28 0;
#X connect 70 22 29 0;
#X connect 70 23 30 0;
#X connect 70 24 31 0;
#X connect 70 25 32 0;
#X connect 70 26 33 0;
#X connect 70 27 34 0;
#X connect 70 28 35 0;
#X connect 70 29 48 0;
#X connect 70 30 49 0;
#X connect 70 31 50 0;
#X connect 70 32 51 0;
#X connect 70 33 52 0;
#X connect 70 34 53 0;
#X connect 70 35 56 0;
#X connect 70 36 58 0;
#X connect 70 37 59 0;
#X connect 70 38 60 0;
#X connect 70 39 61 0;
#X connect 70 40 62 0;
#X connect 70 41 63 0;
#X connect 70 42 64 0;
#X connect 70 43 67 0;
#X connect 70 44 68 0;
#X connect 71 0 73 0;
#X connect 73 0 72 0;
#X connect 74 0 76 0;
#X connect 75 0 71 0;
#X connect 75 0 6 0;
#X connect 76 0 75 0;
#X coords 0 482 1 481 400 10 0;
