#N canvas 0 0 497 300 10;
#X obj 37 37 key;
#X obj 37 73 route 122 115 120 100 99 118 103 98 104 110 106 109 44
;
#X msg 37 118 60;
#X msg 61 140 61;
#X msg 86 160 62;
#X msg 111 182 63;
#X msg 135 138 64;
#X msg 160 160 65;
#X msg 185 180 66;
#X msg 209 202 67;
#X msg 234 128 68;
#X msg 259 150 69;
#X msg 283 170 70;
#X msg 308 193 71;
#X msg 333 160 72;
#X obj 37 245 s tastopckeyb;
#X obj 371 192 r tastopckeyb;
#X floatatom 371 221 5 0 0 0 - - -;
#X obj 371 247 outlet;
#X connect 0 0 1 0;
#X connect 1 0 2 0;
#X connect 1 1 3 0;
#X connect 1 2 4 0;
#X connect 1 3 5 0;
#X connect 1 4 6 0;
#X connect 1 5 7 0;
#X connect 1 6 8 0;
#X connect 1 7 9 0;
#X connect 1 8 10 0;
#X connect 1 9 11 0;
#X connect 1 10 12 0;
#X connect 1 11 13 0;
#X connect 1 12 14 0;
#X connect 2 0 15 0;
#X connect 3 0 15 0;
#X connect 4 0 15 0;
#X connect 5 0 15 0;
#X connect 6 0 15 0;
#X connect 7 0 15 0;
#X connect 8 0 15 0;
#X connect 9 0 15 0;
#X connect 10 0 15 0;
#X connect 11 0 15 0;
#X connect 12 0 15 0;
#X connect 13 0 15 0;
#X connect 14 0 15 0;
#X connect 16 0 17 0;
#X connect 17 0 18 0;
