#N canvas 137 124 1030 487 10;
#X obj 103 193 savepanel;
#X obj 103 146 bng 30 250 50 0 empty empty empty 17 7 0 10 -86277 -258113
-1;
#X obj 103 410 textfile;
#X msg 103 222 write \$1;
#X obj 196 218 bng 15 250 50 0 empty empty empty 17 7 0 10 -262144
-1 -1;
#X obj 196 176 bng 15 250 50 0 empty empty empty 17 7 0 10 -262144
-1 -1;
#X msg 196 197 clear;
#X floatatom 196 240 5 0 0 0 - - -;
#X floatatom 236 240 5 0 0 0 - - -;
#X floatatom 276 240 5 0 0 0 - - -;
#X floatatom 316 240 5 0 0 0 - - -;
#X floatatom 356 240 5 0 0 0 - - -;
#X floatatom 396 240 5 0 0 0 - - -;
#X floatatom 436 240 5 0 0 0 - - -;
#X floatatom 476 240 5 0 0 0 - - -;
#X floatatom 516 240 5 0 0 0 - - -;
#X floatatom 556 240 5 0 0 0 - - -;
#X floatatom 596 240 5 0 0 0 - - -;
#X floatatom 636 240 5 0 0 0 - - -;
#X floatatom 676 240 5 0 0 0 - - -;
#X floatatom 716 240 5 0 0 0 - - -;
#X floatatom 756 240 5 0 0 0 - - -;
#X floatatom 796 240 5 0 0 0 - - -;
#X floatatom 836 240 5 0 0 0 - - -;
#X floatatom 876 240 5 0 0 0 - - -;
#X floatatom 916 240 5 0 0 0 - - -;
#X floatatom 956 240 5 0 0 0 - - -;
#X floatatom 996 240 5 0 0 0 - - -;
#X floatatom 1036 240 5 0 0 0 - - -;
#X floatatom 1076 240 5 0 0 0 - - -;
#X floatatom 1116 240 5 0 0 0 - - -;
#X floatatom 1156 240 5 0 0 0 - - -;
#X floatatom 1196 240 5 0 0 0 - - -;
#X floatatom 1236 240 5 0 0 0 - - -;
#X floatatom 1276 240 5 0 0 0 - - -;
#X floatatom 1316 240 5 0 0 0 - - -;
#X obj 103 119 inlet;
#N canvas 304 288 450 300 VCO1write 0;
#X obj 96 61 r VCO1-1;
#X obj 156 61 r VCO1-2;
#X obj 216 61 r VCO1-3;
#X obj 96 105 outlet;
#X obj 156 105 outlet;
#X obj 216 105 outlet;
#X connect 0 0 3 0;
#X connect 1 0 4 0;
#X connect 2 0 5 0;
#X restore 197 37 pd VCO1write;
#N canvas 562 228 450 300 VCO2write 0;
#X obj 106 115 outlet;
#X obj 166 115 outlet;
#X obj 226 115 outlet;
#X obj 106 71 r VCO2-1;
#X obj 166 71 r VCO2-2;
#X obj 226 71 r VCO2-3;
#X connect 3 0 0 0;
#X connect 4 0 1 0;
#X connect 5 0 2 0;
#X restore 317 40 pd VCO2write;
#N canvas 674 241 450 300 MIXERwrite 0;
#X obj 116 125 outlet;
#X obj 176 125 outlet;
#X obj 116 81 r MIXER1;
#X obj 176 81 r MIXER2;
#X connect 2 0 0 0;
#X connect 3 0 1 0;
#X restore 437 35 pd MIXERwrite;
#X text 434 14 VCO1;
#X text 496 16 VCO2;
#X text 185 17 SCALE PITCH FORM;
#X text 306 20 SCALE PITCH FORM;
#N canvas 253 291 450 300 VCFwrite 0;
#X obj 58 166 outlet;
#X obj 108 166 outlet;
#X obj 158 166 outlet;
#X obj 208 166 outlet;
#X obj 258 166 outlet;
#X obj 156 59 r VCFs1;
#X obj 258 68 r VCFs2;
#X obj 207 55 r VCFsp;
#X obj 109 58 r VCFQ;
#X obj 58 58 r VCFCF;
#X connect 5 0 2 0;
#X connect 6 0 4 0;
#X connect 7 0 3 0;
#X connect 8 0 1 0;
#X connect 9 0 0 0;
#X restore 553 34 pd VCFwrite;
#N canvas 781 350 450 300 EVN2write 0;
#X obj 68 149 outlet;
#X obj 118 149 outlet;
#X obj 168 149 outlet;
#X obj 218 149 outlet;
#X obj 57 71 r VCO2R;
#X obj 121 82 r VCO2S;
#X obj 187 86 r VCO2OP;
#X obj 254 94 r VCO2A;
#X connect 4 0 0 0;
#X connect 5 0 1 0;
#X connect 6 0 2 0;
#X connect 7 0 3 0;
#X restore 695 38 pd EVN2write;
#N canvas 781 350 450 300 EVN1write 0;
#X obj 68 149 outlet;
#X obj 118 149 outlet;
#X obj 168 149 outlet;
#X obj 218 149 outlet;
#X obj 57 71 r VCO1R;
#X obj 121 82 r VCO1S;
#X obj 187 86 r VCO1OP;
#X obj 254 94 r VCO1A;
#X connect 4 0 0 0;
#X connect 5 0 1 0;
#X connect 6 0 2 0;
#X connect 7 0 3 0;
#X restore 873 78 pd EVN1write;
#N canvas 491 248 450 300 DELAYwrite 0;
#X obj 113 85 r DELAYT;
#X obj 211 104 r DELAYDW;
#X obj 300 107 r DELAYTA;
#X obj 138 166 outlet;
#X obj 235 175 outlet;
#X obj 310 173 outlet;
#X connect 0 0 3 0;
#X connect 1 0 4 0;
#X connect 2 0 5 0;
#X restore 1005 97 pd DELAYwrite;
#N canvas 717 162 450 300 PULSEwrite 0;
#X obj 139 84 r PULSEOF;
#X obj 241 81 r PULSET;
#X obj 138 132 outlet;
#X obj 241 139 outlet;
#X connect 0 0 2 0;
#X connect 1 0 3 0;
#X restore 1139 84 pd PULSEwrite;
#N canvas 61 247 450 300 PORTAMENTOwrite 0;
#X obj 179 72 r PORTAMENTO;
#X obj 178 125 outlet;
#X connect 0 0 1 0;
#X restore 1232 86 pd PORTAMENTOwrite;
#N canvas 251 172 450 300 VCAwrite 0;
#X obj 110 61 r VCAV;
#X obj 175 59 r VCAG;
#X obj 108 111 outlet;
#X obj 208 120 outlet;
#X connect 0 0 2 0;
#X connect 1 0 3 0;
#X restore 1272 153 pd VCAwrite;
#X floatatom 1356 240 5 0 0 0 - - -;
#X floatatom 1396 240 5 0 0 0 - - -;
#X floatatom 1436 240 5 0 0 0 - - -;
#X floatatom 1476 241 5 0 0 0 - - -;
#X floatatom 1516 241 5 0 0 0 - - -;
#X floatatom 1556 241 5 0 0 0 - - -;
#X floatatom 1596 241 5 0 0 0 - - -;
#X text 1346 20 SCALE PITCH FORM;
#N canvas 562 228 450 300 VCO3write 0;
#X obj 106 115 outlet;
#X obj 166 115 outlet;
#X obj 226 115 outlet;
#X obj 106 71 r VCO3-1;
#X obj 166 71 r VCO3-2;
#X obj 226 71 r VCO3-3;
#X connect 3 0 0 0;
#X connect 4 0 1 0;
#X connect 5 0 2 0;
#X restore 1357 40 pd VCO3write;
#N canvas 781 350 450 300 EVN3write 0;
#X obj 68 149 outlet;
#X obj 118 149 outlet;
#X obj 168 149 outlet;
#X obj 218 149 outlet;
#X obj 57 71 r VCO3R;
#X obj 121 82 r VCO3S;
#X obj 187 86 r VCO3OP;
#X obj 254 94 r VCO3A;
#X connect 4 0 0 0;
#X connect 5 0 1 0;
#X connect 6 0 2 0;
#X connect 7 0 3 0;
#X restore 1455 39 pd EVN3write;
#X floatatom 1636 240 5 0 0 0 - - -;
#X floatatom 1676 240 5 0 0 0 - - -;
#X floatatom 1716 240 5 0 0 0 - - -;
#X floatatom 1756 241 5 0 0 0 - - -;
#X floatatom 1796 241 5 0 0 0 - - -;
#X floatatom 1836 241 5 0 0 0 - - -;
#X floatatom 1876 241 5 0 0 0 - - -;
#X text 1626 20 SCALE PITCH FORM;
#N canvas 562 228 450 300 VCO4write 0;
#X obj 106 115 outlet;
#X obj 166 115 outlet;
#X obj 226 115 outlet;
#X obj 106 71 r VCO4-1;
#X obj 166 71 r VCO4-2;
#X obj 226 71 r VCO4-3;
#X connect 3 0 0 0;
#X connect 4 0 1 0;
#X connect 5 0 2 0;
#X restore 1637 40 pd VCO4write;
#N canvas 781 350 450 300 EVN4write 0;
#X obj 68 149 outlet;
#X obj 118 149 outlet;
#X obj 168 149 outlet;
#X obj 218 149 outlet;
#X obj 57 71 r VCO4R;
#X obj 121 82 r VCO4S;
#X obj 187 86 r VCO4OP;
#X obj 254 94 r VCO4A;
#X connect 4 0 0 0;
#X connect 5 0 1 0;
#X connect 6 0 2 0;
#X connect 7 0 3 0;
#X restore 1735 39 pd EVN4write;
#X obj 196 298 pack f f f f f f f f f f f f f f f f f f f f f f f f
f f f f f f f f f f f f f f f f f f f f f;
#X msg 196 340 add \$1 \$2 \$3 \$4 \$5 \$6 \$7 \$8 \$9 \$10 \$11 \$12
\$13 \$14 \$15 \$16 \$17 \$18 \$19 \$20 \$21 \$22 \$23 \$24 \$25 \$26
\$27 \$28 \$29 \$30 \$31 \$32 \$33 \$34 \$35 \$36 \$37 \$38 \$39 \$40
\$41 \$42 \$43 \$44 \$45;
#X text 1924 14 VCO1;
#X text 1986 16 VCO2;
#X floatatom 1916 241 5 0 0 0 - - -;
#X floatatom 1956 241 5 0 0 0 - - -;
#N canvas 674 241 450 300 MIXERwrite-3-4 0;
#X obj 116 125 outlet;
#X obj 176 125 outlet;
#X obj 116 81 r MIXER3;
#X obj 176 81 r MIXER4;
#X connect 2 0 0 0;
#X connect 3 0 1 0;
#X restore 1927 35 pd MIXERwrite-3-4;
#X obj 4 271 symbol;
#X obj 4 326 s patchname-r;
#X obj 4 300 ext13/strippath;
#X connect 0 0 3 0;
#X connect 0 0 78 0;
#X connect 1 0 0 0;
#X connect 1 0 5 0;
#X connect 3 0 2 0;
#X connect 4 0 7 0;
#X connect 4 0 8 0;
#X connect 4 0 9 0;
#X connect 5 0 6 0;
#X connect 6 0 2 0;
#X connect 6 0 4 0;
#X connect 7 0 71 0;
#X connect 8 0 71 1;
#X connect 9 0 71 2;
#X connect 10 0 71 3;
#X connect 11 0 71 4;
#X connect 12 0 71 5;
#X connect 13 0 71 6;
#X connect 14 0 71 7;
#X connect 15 0 71 8;
#X connect 16 0 71 9;
#X connect 17 0 71 10;
#X connect 18 0 71 11;
#X connect 19 0 71 12;
#X connect 20 0 71 13;
#X connect 21 0 71 14;
#X connect 22 0 71 15;
#X connect 23 0 71 16;
#X connect 24 0 71 17;
#X connect 25 0 71 18;
#X connect 26 0 71 19;
#X connect 27 0 71 20;
#X connect 28 0 71 21;
#X connect 29 0 71 22;
#X connect 30 0 71 23;
#X connect 31 0 71 24;
#X connect 32 0 71 25;
#X connect 33 0 71 26;
#X connect 34 0 71 27;
#X connect 35 0 71 28;
#X connect 36 0 1 0;
#X connect 37 0 7 0;
#X connect 37 1 8 0;
#X connect 37 2 9 0;
#X connect 38 0 10 0;
#X connect 38 1 11 0;
#X connect 38 2 12 0;
#X connect 39 0 13 0;
#X connect 39 1 14 0;
#X connect 44 0 15 0;
#X connect 44 1 16 0;
#X connect 44 2 17 0;
#X connect 44 3 18 0;
#X connect 44 4 19 0;
#X connect 45 0 20 0;
#X connect 45 1 21 0;
#X connect 45 2 22 0;
#X connect 45 3 23 0;
#X connect 46 0 24 0;
#X connect 46 1 25 0;
#X connect 46 2 26 0;
#X connect 46 3 27 0;
#X connect 47 0 28 0;
#X connect 47 1 29 0;
#X connect 47 2 30 0;
#X connect 48 0 31 0;
#X connect 48 1 32 0;
#X connect 49 0 33 0;
#X connect 50 0 34 0;
#X connect 50 1 35 0;
#X connect 51 0 71 29;
#X connect 52 0 71 30;
#X connect 53 0 71 31;
#X connect 54 0 71 32;
#X connect 55 0 71 33;
#X connect 56 0 71 34;
#X connect 57 0 71 35;
#X connect 59 0 51 0;
#X connect 59 1 52 0;
#X connect 59 2 53 0;
#X connect 60 0 54 0;
#X connect 60 1 55 0;
#X connect 60 2 56 0;
#X connect 60 3 57 0;
#X connect 61 0 71 36;
#X connect 62 0 71 37;
#X connect 63 0 71 38;
#X connect 64 0 71 39;
#X connect 65 0 71 40;
#X connect 66 0 71 41;
#X connect 67 0 71 42;
#X connect 69 0 61 0;
#X connect 69 1 62 0;
#X connect 69 2 63 0;
#X connect 70 0 64 0;
#X connect 70 1 65 0;
#X connect 70 2 66 0;
#X connect 70 3 67 0;
#X connect 71 0 72 0;
#X connect 72 0 2 0;
#X connect 75 0 71 43;
#X connect 76 0 71 44;
#X connect 77 0 75 0;
#X connect 77 1 76 0;
#X connect 78 0 80 0;
#X connect 80 0 79 0;
#X coords 0 487 1 486 400 10 0;
