#N canvas 275 126 450 300 10;
#X obj -170 65 inlet~;
#X obj 22 149 outlet~;
#X obj 22 76 inlet~;
#X text -101 35 short delayline with vd;
#X obj -170 101 delwrite~ \$0dly 1000;
#X obj 22 114 vd~ \$0dly;
#X connect 0 0 4 0;
#X connect 2 0 5 0;
#X connect 5 0 1 0;
