#N canvas 371 247 1087 671 10;
#X obj 67 60 inlet~;
#X obj 176 55 inlet;
#X obj 21 60 inlet;
#X obj 279 55 inlet;
#X obj 428 67 inlet;
#X obj 88 558 outlet~;
#X text 71 41 audioin;
#X text 431 38 playtrig;
#X text 8 40 rectrig;
#X text 284 28 tp (semi);
#X obj 606 106 \$0;
#X obj 606 60 loadbang;
#X msg 607 80 bang;
#X obj 611 134 outlet;
#X obj 87 519 hip~;
#X text 17 1 sample-recorder/player with transpose;
#X obj 267 482 table \$0sampletable;
#X msg -68 365 start;
#X obj -72 474 tabwrite~ \$0sampletable;
#X text 133 28 startpoint (samples);
#X obj -69 61 inlet;
#X text -90 42 size (samples);
#X msg 249 187 1.05946;
#X obj 255 216 pow;
#X obj 260 124 * -1;
#X obj 258 91 clip -127 127;
#X obj 257 158 t b f;
#X obj 249 273 / 44.1;
#X obj 227 298 *;
#X obj 165 211 -;
#X obj 133 159 t b f;
#X obj 86 450 vline~;
#X obj 325 223 samplerate~;
#X obj 76 357 f;
#X obj 84 390 pack f f f;
#X obj 428 94 t b;
#X obj 88 484 tabread4~ \$0sampletable;
#X obj 225 323 * 1000;
#X msg 84 423 \$1 \, \$2 \$3;
#X connect 0 0 18 0;
#X connect 1 0 30 0;
#X connect 2 0 17 0;
#X connect 3 0 25 0;
#X connect 4 0 35 0;
#X connect 10 0 13 0;
#X connect 11 0 12 0;
#X connect 12 0 10 0;
#X connect 12 0 32 0;
#X connect 14 0 5 0;
#X connect 17 0 18 0;
#X connect 20 0 29 0;
#X connect 20 0 34 1;
#X connect 22 0 23 0;
#X connect 23 0 28 0;
#X connect 24 0 26 0;
#X connect 25 0 24 0;
#X connect 26 0 22 0;
#X connect 26 1 23 1;
#X connect 27 0 28 1;
#X connect 28 0 37 0;
#X connect 29 0 27 0;
#X connect 30 0 29 0;
#X connect 30 1 29 1;
#X connect 30 1 33 1;
#X connect 31 0 36 0;
#X connect 32 0 27 1;
#X connect 33 0 34 0;
#X connect 34 0 38 0;
#X connect 35 0 33 0;
#X connect 36 0 14 0;
#X connect 37 0 34 2;
#X connect 38 0 31 0;
