#N canvas 461 133 931 794 10;
#N canvas 1 79 450 250 (subpatch) 0;
#X array \$0display 640 float 0;
#X coords 0 1 639 0 640 24 2 0 0;
#X restore 101 115 graph;
#X obj 199 280 int;
#X obj 197 257 until;
#X obj 231 282 + 1;
#X msg 236 257 0;
#X obj 295 759 tabwrite \$0display;
#X obj 106 329 / 100;
#X obj 119 381 *;
#X obj 111 237 t b;
#X obj 112 267 delay 100;
#X obj 564 172 inlet;
#X obj 41 185 inlet;
#X text 4 168 startpercent;
#X obj 435 159 inlet;
#X text 471 160 samplelen;
#X obj 298 170 inlet;
#X obj 393 502 *;
#X obj 372 431 t b f;
#X text 109 212 redraw;
#X obj -14 76 inlet;
#X text -15 60 filename;
#X obj 101 102 cnv 10 200 12 empty empty empty 20 12 0 14 -262144 -66577
0;
#X symbolatom 101 101 80 0 0 0 - - -, f 80;
#X obj 190 233 t f b;
#X obj 196 485 int;
#X obj 190 460 until;
#X obj 227 491 + 1;
#X msg 261 450 0;
#X obj 237 648 tabread;
#X obj 228 670 abs;
#X obj 239 581 *;
#X obj 239 603 +;
#X obj 243 558 +;
#X obj 195 530 t b f;
#X obj 140 726 float;
#X obj 182 397 t b b f b;
#X obj 221 318 t f f;
#X obj 191 692 max;
#X msg 177 198 640;
#X obj 391 533 / 640;
#X msg 3 427 \; \$1display normalize 1;
#X obj 8 403 \$0;
#X obj 112 294 t b b;
#X text 59 495 max of 10 samples;
#X msg 319 405 set \$1;
#X text 562 153 tablename;
#X floatatom 595 101 10 0 0 0 - - -, f 10;
#X obj 608 258 /;
#X obj 760 135 samplerate~;
#X obj 764 105 loadbang;
#X text 151 43 waveformdisplay abs for sampler \, v4;
#X text 297 149 lengthpercent;
#X obj 339 215 / 100;
#X obj 473 401 *;
#X floatatom 665 101 10 0 0 0 - - -, f 10;
#X obj 658 385 /;
#X obj 756 160 t b f;
#X obj 443 185 t b f;
#X obj 239 625 int;
#X obj 196 510 / 10;
#X msg 191 434 10;
#X obj 320 280 -;
#X obj 290 229 t b f;
#X msg 294 255 1;
#X obj 364 307 *;
#X obj 359 277 t b f;
#X obj 125 356 t b f;
#X obj 158 685 f;
#X connect 1 0 3 0;
#X connect 1 0 36 0;
#X connect 2 0 1 0;
#X connect 3 0 1 1;
#X connect 4 0 1 1;
#X connect 6 0 7 0;
#X connect 6 0 62 0;
#X connect 7 0 31 1;
#X connect 8 0 9 0;
#X connect 9 0 42 0;
#X connect 10 0 44 0;
#X connect 11 0 6 0;
#X connect 11 0 8 0;
#X connect 13 0 57 0;
#X connect 13 0 8 0;
#X connect 15 0 52 0;
#X connect 15 0 8 0;
#X connect 16 0 8 0;
#X connect 16 0 39 0;
#X connect 17 0 16 0;
#X connect 17 1 16 1;
#X connect 19 0 22 0;
#X connect 23 0 2 0;
#X connect 23 1 4 0;
#X connect 24 0 26 0;
#X connect 24 0 59 0;
#X connect 25 0 24 0;
#X connect 26 0 24 1;
#X connect 27 0 24 1;
#X connect 27 0 37 1;
#X connect 27 0 67 1;
#X connect 28 0 29 0;
#X connect 29 0 37 1;
#X connect 30 0 31 0;
#X connect 31 0 58 0;
#X connect 32 0 30 0;
#X connect 33 0 67 0;
#X connect 33 1 32 0;
#X connect 34 0 5 0;
#X connect 35 0 34 0;
#X connect 35 1 60 0;
#X connect 35 2 32 1;
#X connect 35 3 27 0;
#X connect 36 0 35 0;
#X connect 36 1 5 1;
#X connect 37 0 34 1;
#X connect 37 0 67 1;
#X connect 38 0 23 0;
#X connect 39 0 30 1;
#X connect 41 0 40 0;
#X connect 42 0 41 0;
#X connect 42 1 38 0;
#X connect 44 0 28 0;
#X connect 47 0 46 0;
#X connect 48 0 56 0;
#X connect 49 0 48 0;
#X connect 52 0 65 0;
#X connect 53 0 55 0;
#X connect 55 0 54 0;
#X connect 56 0 55 0;
#X connect 56 0 47 0;
#X connect 56 1 55 1;
#X connect 56 1 47 1;
#X connect 57 0 52 0;
#X connect 57 1 47 0;
#X connect 57 1 16 0;
#X connect 57 1 53 1;
#X connect 57 1 66 0;
#X connect 58 0 28 0;
#X connect 59 0 33 0;
#X connect 60 0 25 0;
#X connect 61 0 64 0;
#X connect 62 0 63 0;
#X connect 62 1 61 1;
#X connect 63 0 61 0;
#X connect 64 0 17 0;
#X connect 64 0 53 0;
#X connect 65 0 64 0;
#X connect 65 1 64 1;
#X connect 66 0 7 0;
#X connect 66 1 7 1;
#X connect 67 0 37 0;
#X coords 0 -1 1 1 642 40 2 100 100;
