#N canvas 345 110 1484 896 10;
#X obj -40 -59 inlet;
#X obj -232 100 r \$0samplerate;
#X obj -187 121 r \$0len;
#X obj 96 -36 inlet;
#X obj 99 -11 s \$0len;
#X obj 151 -36 inlet;
#X obj 154 -11 s \$0lenr;
#X obj -150 146 r \$0lenr;
#X obj 763 959 outlet~;
#X text -44 -76 trigger;
#X obj 15 -35 + 1;
#X obj -39 -32 int;
#X obj 267 -37 inlet;
#X obj 322 -37 inlet;
#X obj 270 -12 s \$0pos;
#X obj 325 -12 s \$0posr;
#X obj -137 92 r \$0posr;
#X obj -157 70 r \$0pos;
#X obj -109 116 r \$0ramp;
#X obj 405 -35 inlet;
#X obj 460 -35 inlet;
#X obj 408 -10 s \$0tp;
#X obj 463 -10 s \$0tpr;
#X obj -94 140 r \$0tp;
#X obj -70 163 r \$0tpr;
#X obj -20 169 r \$0pr;
#X obj 531 -34 inlet;
#X obj 532 -13 s \$0pr;
#X obj 208 -37 inlet;
#X obj 211 -12 s \$0ramp;
#X obj -67 233 throw~ \$0right;
#X obj -176 233 throw~ \$0left;
#X obj -10 28 select 0 1 2 3 4 5 6 7 8 9 10 11 12 13 14 15 16 17 18
19;
#X obj 1095 -3 samplerate~;
#X obj 1093 -74 loadbang;
#X msg 1094 -54 bang;
#X obj 1095 22 s \$0samplerate;
#X obj -8 -13 mod 20;
#X text 313 -103 delay-graincloud for graindelay3 \, 20 grains max
;
#X obj 1073 -103 inlet~;
#X text 1070 -121 audio in;
#X obj 681 42 delwrite~ \$0grainsource 20000;
#X obj -200 198 abs_graindelay_particle3_s \$0;
#X obj 632 955 outlet~;
#X obj 645 897 catch~ \$0left;
#X obj 769 907 catch~ \$0right;
#X obj 15 103 r \$0samplerate;
#X obj 60 124 r \$0len;
#X obj 97 149 r \$0lenr;
#X obj 110 95 r \$0posr;
#X obj 90 73 r \$0pos;
#X obj 138 119 r \$0ramp;
#X obj 153 143 r \$0tp;
#X obj 177 166 r \$0tpr;
#X obj 227 172 r \$0pr;
#X obj 180 236 throw~ \$0right;
#X obj 71 236 throw~ \$0left;
#X obj 47 201 abs_graindelay_particle3_s \$0;
#X obj 273 107 r \$0samplerate;
#X obj 318 128 r \$0len;
#X obj 355 153 r \$0lenr;
#X obj 368 99 r \$0posr;
#X obj 348 77 r \$0pos;
#X obj 396 123 r \$0ramp;
#X obj 411 147 r \$0tp;
#X obj 435 170 r \$0tpr;
#X obj 485 176 r \$0pr;
#X obj 438 240 throw~ \$0right;
#X obj 329 240 throw~ \$0left;
#X obj 305 205 abs_graindelay_particle3_s \$0;
#X obj 529 105 r \$0samplerate;
#X obj 574 126 r \$0len;
#X obj 611 151 r \$0lenr;
#X obj 624 97 r \$0posr;
#X obj 604 75 r \$0pos;
#X obj 652 121 r \$0ramp;
#X obj 667 145 r \$0tp;
#X obj 691 168 r \$0tpr;
#X obj 741 174 r \$0pr;
#X obj 694 238 throw~ \$0right;
#X obj 585 238 throw~ \$0left;
#X obj 561 203 abs_graindelay_particle3_s \$0;
#X obj 778 108 r \$0samplerate;
#X obj 823 129 r \$0len;
#X obj 860 154 r \$0lenr;
#X obj 873 100 r \$0posr;
#X obj 853 78 r \$0pos;
#X obj 901 124 r \$0ramp;
#X obj 916 148 r \$0tp;
#X obj 940 171 r \$0tpr;
#X obj 990 177 r \$0pr;
#X obj 943 241 throw~ \$0right;
#X obj 834 241 throw~ \$0left;
#X obj 810 206 abs_graindelay_particle3_s \$0;
#X obj -198 316 r \$0samplerate;
#X obj -153 337 r \$0len;
#X obj -116 362 r \$0lenr;
#X obj -103 308 r \$0posr;
#X obj -123 286 r \$0pos;
#X obj -75 332 r \$0ramp;
#X obj -60 356 r \$0tp;
#X obj -36 379 r \$0tpr;
#X obj 14 385 r \$0pr;
#X obj -33 449 throw~ \$0right;
#X obj -142 449 throw~ \$0left;
#X obj -166 414 abs_graindelay_particle3_s \$0;
#X obj 49 319 r \$0samplerate;
#X obj 94 340 r \$0len;
#X obj 131 365 r \$0lenr;
#X obj 144 311 r \$0posr;
#X obj 124 289 r \$0pos;
#X obj 172 335 r \$0ramp;
#X obj 187 359 r \$0tp;
#X obj 211 382 r \$0tpr;
#X obj 261 388 r \$0pr;
#X obj 214 452 throw~ \$0right;
#X obj 105 452 throw~ \$0left;
#X obj 81 417 abs_graindelay_particle3_s \$0;
#X obj 307 323 r \$0samplerate;
#X obj 352 344 r \$0len;
#X obj 389 369 r \$0lenr;
#X obj 402 315 r \$0posr;
#X obj 382 293 r \$0pos;
#X obj 430 339 r \$0ramp;
#X obj 445 363 r \$0tp;
#X obj 469 386 r \$0tpr;
#X obj 519 392 r \$0pr;
#X obj 472 456 throw~ \$0right;
#X obj 363 456 throw~ \$0left;
#X obj 339 421 abs_graindelay_particle3_s \$0;
#X obj 563 321 r \$0samplerate;
#X obj 608 342 r \$0len;
#X obj 645 367 r \$0lenr;
#X obj 658 313 r \$0posr;
#X obj 638 291 r \$0pos;
#X obj 686 337 r \$0ramp;
#X obj 701 361 r \$0tp;
#X obj 725 384 r \$0tpr;
#X obj 775 390 r \$0pr;
#X obj 728 454 throw~ \$0right;
#X obj 619 454 throw~ \$0left;
#X obj 595 419 abs_graindelay_particle3_s \$0;
#X obj 812 324 r \$0samplerate;
#X obj 857 345 r \$0len;
#X obj 894 370 r \$0lenr;
#X obj 907 316 r \$0posr;
#X obj 887 294 r \$0pos;
#X obj 935 340 r \$0ramp;
#X obj 950 364 r \$0tp;
#X obj 974 387 r \$0tpr;
#X obj 1024 393 r \$0pr;
#X obj 977 457 throw~ \$0right;
#X obj 868 457 throw~ \$0left;
#X obj 844 422 abs_graindelay_particle3_s \$0;
#X obj -273 503 r \$0samplerate;
#X obj -228 524 r \$0len;
#X obj -191 549 r \$0lenr;
#X obj -178 495 r \$0posr;
#X obj -198 473 r \$0pos;
#X obj -150 519 r \$0ramp;
#X obj -135 543 r \$0tp;
#X obj -111 566 r \$0tpr;
#X obj -61 572 r \$0pr;
#X obj -108 636 throw~ \$0right;
#X obj -217 636 throw~ \$0left;
#X obj -241 601 abs_graindelay_particle3_s \$0;
#X obj -26 506 r \$0samplerate;
#X obj 19 527 r \$0len;
#X obj 56 552 r \$0lenr;
#X obj 69 498 r \$0posr;
#X obj 49 476 r \$0pos;
#X obj 97 522 r \$0ramp;
#X obj 112 546 r \$0tp;
#X obj 136 569 r \$0tpr;
#X obj 186 575 r \$0pr;
#X obj 139 639 throw~ \$0right;
#X obj 30 639 throw~ \$0left;
#X obj 6 604 abs_graindelay_particle3_s \$0;
#X obj 232 510 r \$0samplerate;
#X obj 277 531 r \$0len;
#X obj 314 556 r \$0lenr;
#X obj 327 502 r \$0posr;
#X obj 307 480 r \$0pos;
#X obj 355 526 r \$0ramp;
#X obj 370 550 r \$0tp;
#X obj 394 573 r \$0tpr;
#X obj 444 579 r \$0pr;
#X obj 397 643 throw~ \$0right;
#X obj 288 643 throw~ \$0left;
#X obj 264 608 abs_graindelay_particle3_s \$0;
#X obj 488 508 r \$0samplerate;
#X obj 533 529 r \$0len;
#X obj 570 554 r \$0lenr;
#X obj 583 500 r \$0posr;
#X obj 563 478 r \$0pos;
#X obj 611 524 r \$0ramp;
#X obj 626 548 r \$0tp;
#X obj 650 571 r \$0tpr;
#X obj 700 577 r \$0pr;
#X obj 653 641 throw~ \$0right;
#X obj 544 641 throw~ \$0left;
#X obj 520 606 abs_graindelay_particle3_s \$0;
#X obj 737 511 r \$0samplerate;
#X obj 782 532 r \$0len;
#X obj 819 557 r \$0lenr;
#X obj 832 503 r \$0posr;
#X obj 812 481 r \$0pos;
#X obj 860 527 r \$0ramp;
#X obj 875 551 r \$0tp;
#X obj 899 574 r \$0tpr;
#X obj 949 580 r \$0pr;
#X obj 902 644 throw~ \$0right;
#X obj 793 644 throw~ \$0left;
#X obj 769 609 abs_graindelay_particle3_s \$0;
#X obj -241 702 r \$0samplerate;
#X obj -196 723 r \$0len;
#X obj -159 748 r \$0lenr;
#X obj -146 694 r \$0posr;
#X obj -166 672 r \$0pos;
#X obj -118 718 r \$0ramp;
#X obj -103 742 r \$0tp;
#X obj -79 765 r \$0tpr;
#X obj -29 771 r \$0pr;
#X obj -76 835 throw~ \$0right;
#X obj -185 835 throw~ \$0left;
#X obj -209 800 abs_graindelay_particle3_s \$0;
#X obj 6 705 r \$0samplerate;
#X obj 51 726 r \$0len;
#X obj 88 751 r \$0lenr;
#X obj 101 697 r \$0posr;
#X obj 81 675 r \$0pos;
#X obj 129 721 r \$0ramp;
#X obj 144 745 r \$0tp;
#X obj 168 768 r \$0tpr;
#X obj 218 774 r \$0pr;
#X obj 171 838 throw~ \$0right;
#X obj 62 838 throw~ \$0left;
#X obj 38 803 abs_graindelay_particle3_s \$0;
#X obj 264 709 r \$0samplerate;
#X obj 309 730 r \$0len;
#X obj 346 755 r \$0lenr;
#X obj 359 701 r \$0posr;
#X obj 339 679 r \$0pos;
#X obj 387 725 r \$0ramp;
#X obj 402 749 r \$0tp;
#X obj 426 772 r \$0tpr;
#X obj 476 778 r \$0pr;
#X obj 429 842 throw~ \$0right;
#X obj 320 842 throw~ \$0left;
#X obj 296 807 abs_graindelay_particle3_s \$0;
#X obj 520 707 r \$0samplerate;
#X obj 565 728 r \$0len;
#X obj 602 753 r \$0lenr;
#X obj 615 699 r \$0posr;
#X obj 595 677 r \$0pos;
#X obj 643 723 r \$0ramp;
#X obj 658 747 r \$0tp;
#X obj 682 770 r \$0tpr;
#X obj 732 776 r \$0pr;
#X obj 685 840 throw~ \$0right;
#X obj 576 840 throw~ \$0left;
#X obj 552 805 abs_graindelay_particle3_s \$0;
#X obj 769 710 r \$0samplerate;
#X obj 814 731 r \$0len;
#X obj 851 756 r \$0lenr;
#X obj 864 702 r \$0posr;
#X obj 844 680 r \$0pos;
#X obj 892 726 r \$0ramp;
#X obj 907 750 r \$0tp;
#X obj 931 773 r \$0tpr;
#X obj 981 779 r \$0pr;
#X obj 934 843 throw~ \$0right;
#X obj 825 843 throw~ \$0left;
#X obj 801 808 abs_graindelay_particle3_s \$0;
#X obj 779 -86 inlet;
#X text 778 -103 freeze;
#X obj 739 6 *~;
#X obj 794 11 *~;
#X obj 850 -63 == 0;
#X obj 802 -21 line~;
#X msg 808 -43 \$1 20;
#X obj 744 -39 line~;
#X msg 743 -59 \$1 20;
#X obj 746 71 delread~ \$0grainsource;
#X obj 842 -90 inlet;
#X text 830 -115 delay max len;
#X obj 983 -97 inlet;
#X text 988 -115 feedback;
#X obj 854 16 *~;
#X obj 979 -59 *~;
#X obj 900 -29 clip~ -1 1;
#X obj 876 -4 hip~ 10;
#X connect 0 0 11 0;
#X connect 1 0 42 1;
#X connect 2 0 42 2;
#X connect 3 0 4 0;
#X connect 5 0 6 0;
#X connect 7 0 42 3;
#X connect 10 0 37 0;
#X connect 11 0 10 0;
#X connect 12 0 14 0;
#X connect 13 0 15 0;
#X connect 16 0 42 6;
#X connect 17 0 42 5;
#X connect 18 0 42 4;
#X connect 19 0 21 0;
#X connect 20 0 22 0;
#X connect 23 0 42 7;
#X connect 24 0 42 8;
#X connect 25 0 42 9;
#X connect 26 0 27 0;
#X connect 28 0 29 0;
#X connect 32 0 42 0;
#X connect 32 1 57 0;
#X connect 32 2 69 0;
#X connect 32 3 81 0;
#X connect 32 4 93 0;
#X connect 32 5 105 0;
#X connect 32 6 117 0;
#X connect 32 7 129 0;
#X connect 32 8 141 0;
#X connect 32 9 153 0;
#X connect 32 10 165 0;
#X connect 32 11 177 0;
#X connect 32 12 189 0;
#X connect 32 13 201 0;
#X connect 32 14 213 0;
#X connect 32 15 225 0;
#X connect 32 16 237 0;
#X connect 32 17 249 0;
#X connect 32 18 261 0;
#X connect 32 19 273 0;
#X connect 33 0 36 0;
#X connect 34 0 35 0;
#X connect 35 0 33 0;
#X connect 37 0 11 1;
#X connect 37 0 32 0;
#X connect 39 0 276 0;
#X connect 42 0 31 0;
#X connect 42 1 30 0;
#X connect 44 0 43 0;
#X connect 44 0 289 0;
#X connect 45 0 8 0;
#X connect 45 0 289 0;
#X connect 46 0 57 1;
#X connect 47 0 57 2;
#X connect 48 0 57 3;
#X connect 49 0 57 6;
#X connect 50 0 57 5;
#X connect 51 0 57 4;
#X connect 52 0 57 7;
#X connect 53 0 57 8;
#X connect 54 0 57 9;
#X connect 57 0 56 0;
#X connect 57 1 55 0;
#X connect 58 0 69 1;
#X connect 59 0 69 2;
#X connect 60 0 69 3;
#X connect 61 0 69 6;
#X connect 62 0 69 5;
#X connect 63 0 69 4;
#X connect 64 0 69 7;
#X connect 65 0 69 8;
#X connect 66 0 69 9;
#X connect 69 0 68 0;
#X connect 69 1 67 0;
#X connect 70 0 81 1;
#X connect 71 0 81 2;
#X connect 72 0 81 3;
#X connect 73 0 81 6;
#X connect 74 0 81 5;
#X connect 75 0 81 4;
#X connect 76 0 81 7;
#X connect 77 0 81 8;
#X connect 78 0 81 9;
#X connect 81 0 80 0;
#X connect 81 1 79 0;
#X connect 82 0 93 1;
#X connect 83 0 93 2;
#X connect 84 0 93 3;
#X connect 85 0 93 6;
#X connect 86 0 93 5;
#X connect 87 0 93 4;
#X connect 88 0 93 7;
#X connect 89 0 93 8;
#X connect 90 0 93 9;
#X connect 93 0 92 0;
#X connect 93 1 91 0;
#X connect 94 0 105 1;
#X connect 95 0 105 2;
#X connect 96 0 105 3;
#X connect 97 0 105 6;
#X connect 98 0 105 5;
#X connect 99 0 105 4;
#X connect 100 0 105 7;
#X connect 101 0 105 8;
#X connect 102 0 105 9;
#X connect 105 0 104 0;
#X connect 105 1 103 0;
#X connect 106 0 117 1;
#X connect 107 0 117 2;
#X connect 108 0 117 3;
#X connect 109 0 117 6;
#X connect 110 0 117 5;
#X connect 111 0 117 4;
#X connect 112 0 117 7;
#X connect 113 0 117 8;
#X connect 114 0 117 9;
#X connect 117 0 116 0;
#X connect 117 1 115 0;
#X connect 118 0 129 1;
#X connect 119 0 129 2;
#X connect 120 0 129 3;
#X connect 121 0 129 6;
#X connect 122 0 129 5;
#X connect 123 0 129 4;
#X connect 124 0 129 7;
#X connect 125 0 129 8;
#X connect 126 0 129 9;
#X connect 129 0 128 0;
#X connect 129 1 127 0;
#X connect 130 0 141 1;
#X connect 131 0 141 2;
#X connect 132 0 141 3;
#X connect 133 0 141 6;
#X connect 134 0 141 5;
#X connect 135 0 141 4;
#X connect 136 0 141 7;
#X connect 137 0 141 8;
#X connect 138 0 141 9;
#X connect 141 0 140 0;
#X connect 141 1 139 0;
#X connect 142 0 153 1;
#X connect 143 0 153 2;
#X connect 144 0 153 3;
#X connect 145 0 153 6;
#X connect 146 0 153 5;
#X connect 147 0 153 4;
#X connect 148 0 153 7;
#X connect 149 0 153 8;
#X connect 150 0 153 9;
#X connect 153 0 152 0;
#X connect 153 1 151 0;
#X connect 154 0 165 1;
#X connect 155 0 165 2;
#X connect 156 0 165 3;
#X connect 157 0 165 6;
#X connect 158 0 165 5;
#X connect 159 0 165 4;
#X connect 160 0 165 7;
#X connect 161 0 165 8;
#X connect 162 0 165 9;
#X connect 165 0 164 0;
#X connect 165 1 163 0;
#X connect 166 0 177 1;
#X connect 167 0 177 2;
#X connect 168 0 177 3;
#X connect 169 0 177 6;
#X connect 170 0 177 5;
#X connect 171 0 177 4;
#X connect 172 0 177 7;
#X connect 173 0 177 8;
#X connect 174 0 177 9;
#X connect 177 0 176 0;
#X connect 177 1 175 0;
#X connect 178 0 189 1;
#X connect 179 0 189 2;
#X connect 180 0 189 3;
#X connect 181 0 189 6;
#X connect 182 0 189 5;
#X connect 183 0 189 4;
#X connect 184 0 189 7;
#X connect 185 0 189 8;
#X connect 186 0 189 9;
#X connect 189 0 188 0;
#X connect 189 1 187 0;
#X connect 190 0 201 1;
#X connect 191 0 201 2;
#X connect 192 0 201 3;
#X connect 193 0 201 6;
#X connect 194 0 201 5;
#X connect 195 0 201 4;
#X connect 196 0 201 7;
#X connect 197 0 201 8;
#X connect 198 0 201 9;
#X connect 201 0 200 0;
#X connect 201 1 199 0;
#X connect 202 0 213 1;
#X connect 203 0 213 2;
#X connect 204 0 213 3;
#X connect 205 0 213 6;
#X connect 206 0 213 5;
#X connect 207 0 213 4;
#X connect 208 0 213 7;
#X connect 209 0 213 8;
#X connect 210 0 213 9;
#X connect 213 0 212 0;
#X connect 213 1 211 0;
#X connect 214 0 225 1;
#X connect 215 0 225 2;
#X connect 216 0 225 3;
#X connect 217 0 225 6;
#X connect 218 0 225 5;
#X connect 219 0 225 4;
#X connect 220 0 225 7;
#X connect 221 0 225 8;
#X connect 222 0 225 9;
#X connect 225 0 224 0;
#X connect 225 1 223 0;
#X connect 226 0 237 1;
#X connect 227 0 237 2;
#X connect 228 0 237 3;
#X connect 229 0 237 6;
#X connect 230 0 237 5;
#X connect 231 0 237 4;
#X connect 232 0 237 7;
#X connect 233 0 237 8;
#X connect 234 0 237 9;
#X connect 237 0 236 0;
#X connect 237 1 235 0;
#X connect 238 0 249 1;
#X connect 239 0 249 2;
#X connect 240 0 249 3;
#X connect 241 0 249 6;
#X connect 242 0 249 5;
#X connect 243 0 249 4;
#X connect 244 0 249 7;
#X connect 245 0 249 8;
#X connect 246 0 249 9;
#X connect 249 0 248 0;
#X connect 249 1 247 0;
#X connect 250 0 261 1;
#X connect 251 0 261 2;
#X connect 252 0 261 3;
#X connect 253 0 261 6;
#X connect 254 0 261 5;
#X connect 255 0 261 4;
#X connect 256 0 261 7;
#X connect 257 0 261 8;
#X connect 258 0 261 9;
#X connect 261 0 260 0;
#X connect 261 1 259 0;
#X connect 262 0 273 1;
#X connect 263 0 273 2;
#X connect 264 0 273 3;
#X connect 265 0 273 6;
#X connect 266 0 273 5;
#X connect 267 0 273 4;
#X connect 268 0 273 7;
#X connect 269 0 273 8;
#X connect 270 0 273 9;
#X connect 273 0 272 0;
#X connect 273 1 271 0;
#X connect 274 0 278 0;
#X connect 274 0 280 0;
#X connect 276 0 41 0;
#X connect 277 0 41 0;
#X connect 278 0 282 0;
#X connect 279 0 277 1;
#X connect 280 0 279 0;
#X connect 281 0 276 1;
#X connect 281 0 288 1;
#X connect 282 0 281 0;
#X connect 283 0 277 0;
#X connect 284 0 283 0;
#X connect 286 0 289 1;
#X connect 288 0 41 0;
#X connect 289 0 290 0;
#X connect 290 0 291 0;
#X connect 291 0 288 0;
