#N canvas 257 202 496 388 10;
#X obj 90 42 inlet~;
#X obj 383 286 outlet~;
#X obj 164 268 +~;
#X obj 193 239 *~;
#X obj -6 28 block~ 1;
#X obj 320 135 lop~;
#X obj 269 103 vd~ \$0tpres1;
#X obj 168 291 delwrite~ \$0tpres1 500;
#X text 90 20 in;
#X text 166 30 polarity;
#X text 258 28 delaytime;
#X text 357 29 damping freq;
#X obj 260 49 inlet~;
#X obj 175 49 inlet~;
#X obj 364 50 inlet;
#X connect 0 0 2 0;
#X connect 2 0 7 0;
#X connect 3 0 2 1;
#X connect 5 0 3 1;
#X connect 6 0 1 0;
#X connect 6 0 5 0;
#X connect 12 0 6 0;
#X connect 13 0 3 0;
#X connect 14 0 5 1;
