#N canvas 1 77 947 776 10;
#X obj 115 277 phasor~;
#X obj 188 897 outlet~;
#X obj 189 806 *~ 0.125;
#X obj 189 829 rzero~ -1;
#X obj 189 852 rzero~ -1;
#X obj 189 875 rzero~ -1;
#X obj 188 680 *~ 0.2368;
#X obj 189 726 *~ 0.06261;
#X obj 188 703 rpole~ 0.76319;
#X obj 188 749 cpole~ 0.85223 0.20194;
#X obj 187 777 cpole~ 0.85223 -0.2019;
#X text 362 797 from pd docs modified for 8 times oversampling;
#X text 392 129 8 times oversampled \, i hope the pitch is right...
;
#X obj 159 428 cos~;
#X obj 153 332 +~;
#X obj 243 305 *~;
#X obj 282 80 samplerate~;
#X obj 282 107 t b f;
#X msg 268 135 1000;
#X obj 285 172 /;
#X obj 282 56 loadbang;
#X text 282 195 1 sample delay;
#X obj 157 387 wrap~;
#X obj 390 154 block~ 1 1 8;
#X obj 244 279 delread~ \$0oscfb1;
#X obj 207 471 delwrite~ \$0oscfb1 1;
#X text 385 61 fb;
#X obj 189 657 clip~ -1 1;
#X obj 694 319 *~ 100;
#X obj 705 402 *~;
#X obj 724 209 inlet~;
#X obj 857 244 inlet~;
#X obj 385 79 inlet~;
#X obj 171 543 *~;
#X obj 89 123 inlet~;
#X obj 736 281 sig~ 1;
#X obj 747 329 +~;
#X obj 697 362 +~;
#X obj 185 606 +~;
#X text 133 123 <-freq;
#X text 860 229 pw;
#X text 730 191 square;
#X obj 148 152 inlet~;
#X text 193 152 <-pm;
#X text 43 12 sine-saw-pulse osc with phase mod input;
#X connect 0 0 14 0;
#X connect 2 0 3 0;
#X connect 3 0 4 0;
#X connect 4 0 5 0;
#X connect 5 0 1 0;
#X connect 6 0 8 0;
#X connect 7 0 9 0;
#X connect 8 0 7 0;
#X connect 9 0 10 0;
#X connect 9 1 10 1;
#X connect 10 0 2 0;
#X connect 13 0 25 0;
#X connect 13 0 33 0;
#X connect 14 0 22 0;
#X connect 15 0 14 1;
#X connect 16 0 17 0;
#X connect 17 0 18 0;
#X connect 17 1 19 1;
#X connect 18 0 19 0;
#X connect 19 0 24 0;
#X connect 20 0 16 0;
#X connect 22 0 13 0;
#X connect 24 0 15 0;
#X connect 27 0 6 0;
#X connect 28 0 37 0;
#X connect 29 0 38 1;
#X connect 30 0 28 0;
#X connect 31 0 29 1;
#X connect 31 0 36 1;
#X connect 32 0 15 1;
#X connect 33 0 38 0;
#X connect 34 0 0 0;
#X connect 35 0 36 0;
#X connect 36 0 37 1;
#X connect 37 0 29 0;
#X connect 37 0 33 1;
#X connect 38 0 27 0;
#X connect 42 0 14 1;
