#N canvas 512 111 1055 857 10;
#X msg 168 135 tempo \$1 permin;
#X obj 39 66 inlet;
#X obj 196 60 inlet;
#X text 195 43 bpm;
#X text 35 45 func;
#X obj 396 41 inlet;
#X text 399 22 events;
#X obj 310 515 text set \$0seq;
#X obj 294 474 t a b;
#X obj 241 327 t b b;
#X obj 277 448 spigot;
#X obj 238 355 timer;
#X msg 299 330 1;
#X text 553 312 1=note on/off \, 2=pb \, 3=ctl;
#X msg 370 319 2;
#X msg 512 293 3;
#X msg 452 274 0;
#X obj 600 235 f;
#X obj 575 208 t b f;
#X text 477 274 dummy;
#X msg 336 414 1;
#X text 353 499 recorder;
#N canvas 1 77 450 300 once 0;
#X obj 115 68 inlet;
#X obj 275 67 inlet;
#X obj 178 258 outlet;
#X msg 266 107 1;
#X msg 270 134 0;
#X obj 144 167 spigot 0;
#X obj 142 197 t b b;
#X connect 0 0 5 0;
#X connect 1 0 3 0;
#X connect 3 0 5 1;
#X connect 4 0 5 1;
#X connect 5 0 6 0;
#X connect 6 0 4 0;
#X connect 6 1 2 0;
#X restore 333 221 pd once;
#X obj 297 279 t b b f b;
#X obj 413 251 t b b f b b;
#X obj 589 258 t b b f b;
#X text 380 219 armed: start rec on 1st event;
#X text 397 363 record timetageed events to text;
#X obj 226 279 t b b;
#X msg 140 433 auto;
#X obj 389 90 route 1 2 3;
#X obj 57 134 t b b;
#X obj 609 584 text define \$0seq;
#X msg 607 560 clear;
#X obj 136 573 text sequence \$0seq -w 1;
#X text 31 808 pitch;
#X text 78 807 velocity;
#X text 30 833 bend;
#X text 27 849 ctl-value;
#X text 93 852 ctl-nr;
#X obj 763 708 outlet;
#X obj 767 267 inlet;
#X obj 754 636 list prepend set;
#X obj 754 659 list trim;
#X obj 752 601 text tolist \$0seq;
#X obj 726 363 text fromlist \$0seq;
#X msg 633 528 stop;
#N canvas 337 458 580 508 allnotesoff 0;
#X obj 45 16 inlet;
#X obj 103 420 outlet;
#X obj 49 111 until;
#X msg 47 81 128;
#X obj 45 41 t b b;
#X obj 52 147 int;
#X obj 92 149 + 1;
#X msg 88 79 0;
#X obj 212 46 inlet;
#X text 90 16 off;
#X text 252 44 noteevents (p \, v);
#X obj 212 81 unpack f f;
#X obj 252 125 swap;
#X obj 273 104 > 0;
#X obj 73 248 abs_table1 128;
#X obj 71 273 moses 0.1;
#X obj 65 179 t f f;
#X obj 145 299 *;
#X obj 109 339 t b f;
#X obj 108 388 pack f f 0;
#X msg 101 366 1;
#X text 5 366 eventtype note;
#X connect 0 0 4 0;
#X connect 2 0 5 0;
#X connect 3 0 2 0;
#X connect 4 0 3 0;
#X connect 4 1 7 0;
#X connect 5 0 6 0;
#X connect 5 0 16 0;
#X connect 6 0 5 1;
#X connect 7 0 5 1;
#X connect 8 0 11 0;
#X connect 11 0 12 0;
#X connect 11 1 13 0;
#X connect 12 0 14 2;
#X connect 12 1 14 3;
#X connect 13 0 12 1;
#X connect 14 0 15 0;
#X connect 15 1 17 0;
#X connect 16 0 14 0;
#X connect 16 1 17 1;
#X connect 17 0 18 0;
#X connect 18 0 20 0;
#X connect 18 1 19 1;
#X connect 19 0 1 0;
#X connect 20 0 19 0;
#X restore 373 623 pd allnotesoff;
#X obj 611 504 t b b b;
#X msg 73 432 line 0;
#X msg 183 433 stop;
#X obj 320 128 unpack f f f;
#X obj 423 148 unpack f f f;
#X obj 568 177 unpack f f f;
#X text 386 475 who needs more events in 1 step?;
#X msg 352 474 9999;
#X text 78 510 avoid error msg;
#X obj 152 468 text size \$0seq;
#X obj 121 531 spigot;
#X msg 117 489 0;
#X obj 154 490 > 0;
#X obj 752 579 delay 1000;
#X text 772 249 dump in;
#X text 779 686 dump out;
#X msg 211 391 0;
#X text 809 558 save and stop 1 sec after last event;
#X text 30 85 0=play \, 1=rec \, 4=clr \, 5=stoprec;
#X obj 47 102 select 0 1 4 5;
#X obj 744 300 route bang;
#X obj 33 774 outlet;
#X text -49 804 event type;
#X text 271 161 pitch vel;
#X text 411 170 bend 0;
#X obj 289 390 pack f f f f;
#X text 532 159 ctl-value \, nr;
#X obj 87 698 route 1;
#X obj 128 26 inlet;
#X text 143 9 tp;
#X obj 101 612 unpack f f f;
#X obj 65 669 pack f f f;
#X obj 104 645 +;
#X obj 37 295 t b b b b b;
#X obj -2 557 int;
#X text -31 580 tp only on playback-start;
#X text 551 19 record/play midi-events to/from text (per-step);
#X obj 959 739 text size \$0seq;
#X obj 960 768 outlet;
#X obj 753 335 t b a b;
#X text 960 794 len out;
#X obj 989 620 t b;
#X connect 0 0 11 0;
#X connect 0 0 34 0;
#X connect 1 0 67 0;
#X connect 2 0 0 0;
#X connect 5 0 30 0;
#X connect 8 0 7 0;
#X connect 8 1 55 0;
#X connect 8 1 61 0;
#X connect 9 0 11 0;
#X connect 9 1 11 1;
#X connect 10 0 8 0;
#X connect 11 0 73 0;
#X connect 12 0 73 1;
#X connect 14 0 73 1;
#X connect 15 0 73 1;
#X connect 16 0 73 3;
#X connect 17 0 25 0;
#X connect 18 0 17 0;
#X connect 18 1 73 3;
#X connect 20 0 10 1;
#X connect 22 0 28 0;
#X connect 23 0 9 0;
#X connect 23 1 12 0;
#X connect 23 2 73 2;
#X connect 23 3 22 0;
#X connect 24 0 9 0;
#X connect 24 1 14 0;
#X connect 24 2 73 2;
#X connect 24 3 16 0;
#X connect 24 4 22 0;
#X connect 25 0 9 0;
#X connect 25 1 15 0;
#X connect 25 2 73 2;
#X connect 25 3 22 0;
#X connect 28 0 11 0;
#X connect 28 1 20 0;
#X connect 29 0 58 0;
#X connect 30 0 51 0;
#X connect 30 1 52 0;
#X connect 30 2 53 0;
#X connect 31 0 22 1;
#X connect 31 1 48 0;
#X connect 33 0 32 0;
#X connect 34 0 78 0;
#X connect 41 0 68 0;
#X connect 42 0 43 0;
#X connect 43 0 40 0;
#X connect 44 0 42 0;
#X connect 46 0 34 0;
#X connect 47 0 69 0;
#X connect 48 0 33 0;
#X connect 48 1 46 0;
#X connect 48 2 47 0;
#X connect 49 0 58 0;
#X connect 50 0 58 0;
#X connect 51 0 23 0;
#X connect 51 1 73 3;
#X connect 52 0 24 0;
#X connect 53 0 18 0;
#X connect 53 1 17 1;
#X connect 55 0 7 1;
#X connect 57 0 60 0;
#X connect 58 0 34 0;
#X connect 59 0 58 1;
#X connect 60 0 58 1;
#X connect 61 0 44 0;
#X connect 61 0 64 0;
#X connect 64 0 10 1;
#X connect 67 0 81 0;
#X connect 67 0 89 0;
#X connect 67 1 31 0;
#X connect 67 2 48 0;
#X connect 67 2 61 0;
#X connect 67 2 89 0;
#X connect 67 3 64 0;
#X connect 67 3 89 0;
#X connect 68 0 48 0;
#X connect 68 1 87 0;
#X connect 73 0 10 0;
#X connect 75 0 47 1;
#X connect 76 0 82 1;
#X connect 78 0 79 0;
#X connect 78 1 80 0;
#X connect 78 2 79 2;
#X connect 79 0 75 0;
#X connect 79 0 69 0;
#X connect 80 0 79 1;
#X connect 81 0 29 0;
#X connect 81 1 50 0;
#X connect 81 1 47 0;
#X connect 81 1 49 0;
#X connect 81 2 57 0;
#X connect 81 3 59 0;
#X connect 81 4 82 0;
#X connect 82 0 80 1;
#X connect 85 0 86 0;
#X connect 87 0 85 0;
#X connect 87 1 45 0;
#X connect 87 2 48 0;
#X connect 89 0 85 0;
