#N canvas 573 143 976 825 10;
#N canvas 1 79 450 250 (subpatch) 0;
#X array \$0display 256 float 0;
#X coords 0 1 255 0 640 48 2 0 0;
#X restore 101 115 graph;
#X obj 199 280 int;
#X obj 197 257 until;
#X obj 231 282 + 1;
#X msg 236 257 0;
#X obj 268 764 tabwrite \$0display;
#X obj 95 278 delay 100;
#X obj 526 309 inlet;
#X obj 423 452 inlet;
#X text 421 431 samplelen;
#X text 105 222 redraw;
#X obj 14 62 inlet;
#X text 13 46 filename;
#X obj 101 102 cnv 10 200 12 empty empty empty 20 12 0 14 -262144 -66577
0;
#X symbolatom 101 101 64 0 0 0 - - -, f 64;
#X obj 190 233 t f b;
#X obj 196 485 int;
#X obj 190 460 until;
#X obj 227 491 + 1;
#X msg 261 450 0;
#X obj 239 632 tabread;
#X obj 239 655 abs;
#X obj 241 597 *;
#X obj 241 568 +;
#X obj 193 533 t b f;
#X obj 140 726 float;
#X obj 182 397 t b b f b;
#X obj 221 318 t f f;
#X obj 113 241 t b;
#X obj 89 308 t b b;
#X msg 6 368 \; \$1display normalize 1;
#X obj 11 344 \$0;
#X text 524 290 sampletablename;
#X msg 448 402 set \$1;
#X text 151 43 waveformdisplay abs for granulator2large;
#X msg 174 209 256;
#X obj 385 540 / 256;
#X floatatom 517 101 18 0 0 0 - - -, f 18;
#X obj 186 690 max;
#X text 23 524 max of some samples;
#X msg 191 434 7;
#X obj 196 509 / 7;
#X obj 324 218 loadbang;
#X obj 323 249 samplerate~;
#X obj 348 304 /;
#X obj 156 677 f;
#X connect 1 0 3 0;
#X connect 1 0 27 0;
#X connect 2 0 1 0;
#X connect 3 0 1 1;
#X connect 4 0 1 1;
#X connect 6 0 29 0;
#X connect 7 0 33 0;
#X connect 8 0 28 0;
#X connect 8 0 36 0;
#X connect 8 0 44 0;
#X connect 11 0 14 0;
#X connect 15 0 2 0;
#X connect 15 1 4 0;
#X connect 16 0 18 0;
#X connect 16 0 41 0;
#X connect 17 0 16 0;
#X connect 18 0 16 1;
#X connect 19 0 16 1;
#X connect 19 0 38 1;
#X connect 19 0 45 1;
#X connect 20 0 21 0;
#X connect 21 0 38 1;
#X connect 22 0 20 0;
#X connect 23 0 22 0;
#X connect 24 0 45 0;
#X connect 24 1 23 0;
#X connect 25 0 5 0;
#X connect 26 0 25 0;
#X connect 26 1 40 0;
#X connect 26 2 23 1;
#X connect 26 3 19 0;
#X connect 27 0 26 0;
#X connect 27 1 5 1;
#X connect 28 0 6 0;
#X connect 29 0 31 0;
#X connect 29 1 35 0;
#X connect 31 0 30 0;
#X connect 33 0 20 0;
#X connect 35 0 15 0;
#X connect 36 0 22 1;
#X connect 38 0 25 1;
#X connect 38 0 45 1;
#X connect 40 0 17 0;
#X connect 41 0 24 0;
#X connect 42 0 43 0;
#X connect 43 0 44 1;
#X connect 44 0 37 0;
#X connect 45 0 38 0;
#X coords 0 -1 1 1 642 64 2 100 100;
