#N canvas 970 353 450 300 10;
#X obj 46 60 inlet;
#X obj 92 60 inlet;
#X obj 270 77 inlet;
#X obj 188 61 inlet;
#X obj 28 252 outlet;
#X obj 128 257 outlet;
#X obj 139 210 table \$0table \$1;
#X obj 21 114 tabread \$0table;
#X text 42 13 wrapper abs for unique table;
#X text 42 38 read1;
#X text 96 39 read2;
#X text 272 55 index;
#X text 192 39 value;
#X obj 63 158 tabread \$0table;
#X obj 152 127 tabwrite \$0table;
#X connect 0 0 7 0;
#X connect 1 0 13 0;
#X connect 2 0 14 1;
#X connect 3 0 14 0;
#X connect 7 0 4 0;
#X connect 13 0 5 0;
