#N canvas 391 133 1484 896 10;
#X obj -249 72 r \$0tablename;
#X obj -40 -59 inlet;
#X obj -232 100 r \$0samplerate;
#X obj -187 121 r \$0len;
#X obj 96 -36 inlet;
#X obj 99 -11 s \$0len;
#X obj 151 -36 inlet;
#X obj 154 -11 s \$0lenr;
#X obj -150 146 r \$0lenr;
#X obj 632 955 outlet~;
#X obj 763 959 outlet~;
#X text -44 -76 trigger;
#X obj 15 -35 + 1;
#X obj -39 -32 int;
#X obj 267 -37 inlet;
#X obj 322 -37 inlet;
#X obj 270 -12 s \$0pos;
#X obj 325 -12 s \$0posr;
#X obj -137 92 r \$0posr;
#X obj -157 70 r \$0pos;
#X obj -109 116 r \$0ramp;
#X obj 405 -35 inlet;
#X obj 460 -35 inlet;
#X obj 408 -10 s \$0tp;
#X obj 463 -10 s \$0tpr;
#X obj -85 141 r \$0tp;
#X obj -56 165 r \$0tpr;
#X obj -9 187 r \$0pr;
#X obj 531 -34 inlet;
#X obj 532 -13 s \$0pr;
#X obj 208 -37 inlet;
#X obj 211 -12 s \$0ramp;
#X obj 633 924 catch~ \$0left;
#X obj 766 928 catch~ \$0right;
#X obj -67 233 throw~ \$0right;
#X obj -176 233 throw~ \$0left;
#X obj -10 17 select 0 1 2 3 4 5 6 7 8 9 10 11 12 13 14 15 16 17 18
19;
#X text 626 -37 graincloud for granulator3 \, delay \, 20 grains max
;
#X obj -225 282 r \$0tablename;
#X obj -208 310 r \$0samplerate;
#X obj -163 331 r \$0len;
#X obj -126 356 r \$0lenr;
#X obj -113 302 r \$0posr;
#X obj -133 280 r \$0pos;
#X obj -85 326 r \$0ramp;
#X obj -61 351 r \$0tp;
#X obj -32 375 r \$0tpr;
#X obj 15 397 r \$0pr;
#X obj -43 443 throw~ \$0right;
#X obj -152 443 throw~ \$0left;
#X obj -145 486 r \$0tablename;
#X obj -128 514 r \$0samplerate;
#X obj -83 535 r \$0len;
#X obj -46 560 r \$0lenr;
#X obj -33 506 r \$0posr;
#X obj -53 484 r \$0pos;
#X obj -5 530 r \$0ramp;
#X obj 19 555 r \$0tp;
#X obj 48 579 r \$0tpr;
#X obj 95 601 r \$0pr;
#X obj 37 647 throw~ \$0right;
#X obj -72 647 throw~ \$0left;
#X obj -147 699 r \$0tablename;
#X obj -130 727 r \$0samplerate;
#X obj -85 748 r \$0len;
#X obj -48 773 r \$0lenr;
#X obj -35 719 r \$0posr;
#X obj -55 697 r \$0pos;
#X obj -7 743 r \$0ramp;
#X obj 17 768 r \$0tp;
#X obj 46 792 r \$0tpr;
#X obj 93 814 r \$0pr;
#X obj 35 860 throw~ \$0right;
#X obj -74 860 throw~ \$0left;
#X obj 1009 -21 samplerate~;
#X obj 706 -61 s \$0tablename;
#X obj 1158 -125 loadbang;
#X msg 1159 -105 bang;
#X obj 1009 4 s \$0samplerate;
#X obj -200 198 abs_granularsample_particle3_s;
#X obj -176 408 abs_granularsample_particle3_s;
#X obj -96 612 abs_granularsample_particle3_s;
#X obj -98 825 abs_granularsample_particle3_s;
#X obj 55 81 r \$0tablename;
#X obj 72 109 r \$0samplerate;
#X obj 117 130 r \$0len;
#X obj 154 155 r \$0lenr;
#X obj 167 101 r \$0posr;
#X obj 147 79 r \$0pos;
#X obj 195 125 r \$0ramp;
#X obj 219 150 r \$0tp;
#X obj 248 174 r \$0tpr;
#X obj 295 196 r \$0pr;
#X obj 237 242 throw~ \$0right;
#X obj 128 242 throw~ \$0left;
#X obj 79 291 r \$0tablename;
#X obj 96 319 r \$0samplerate;
#X obj 141 340 r \$0len;
#X obj 178 365 r \$0lenr;
#X obj 191 311 r \$0posr;
#X obj 171 289 r \$0pos;
#X obj 219 335 r \$0ramp;
#X obj 243 360 r \$0tp;
#X obj 272 384 r \$0tpr;
#X obj 319 406 r \$0pr;
#X obj 261 452 throw~ \$0right;
#X obj 152 452 throw~ \$0left;
#X obj 159 495 r \$0tablename;
#X obj 176 523 r \$0samplerate;
#X obj 221 544 r \$0len;
#X obj 258 569 r \$0lenr;
#X obj 271 515 r \$0posr;
#X obj 251 493 r \$0pos;
#X obj 299 539 r \$0ramp;
#X obj 323 564 r \$0tp;
#X obj 352 588 r \$0tpr;
#X obj 399 610 r \$0pr;
#X obj 341 656 throw~ \$0right;
#X obj 232 656 throw~ \$0left;
#X obj 157 708 r \$0tablename;
#X obj 174 736 r \$0samplerate;
#X obj 219 757 r \$0len;
#X obj 256 782 r \$0lenr;
#X obj 269 728 r \$0posr;
#X obj 249 706 r \$0pos;
#X obj 297 752 r \$0ramp;
#X obj 321 777 r \$0tp;
#X obj 350 801 r \$0tpr;
#X obj 397 823 r \$0pr;
#X obj 339 869 throw~ \$0right;
#X obj 230 869 throw~ \$0left;
#X obj 104 207 abs_granularsample_particle3_s;
#X obj 128 417 abs_granularsample_particle3_s;
#X obj 208 621 abs_granularsample_particle3_s;
#X obj 206 834 abs_granularsample_particle3_s;
#X obj 338 78 r \$0tablename;
#X obj 355 106 r \$0samplerate;
#X obj 400 127 r \$0len;
#X obj 437 152 r \$0lenr;
#X obj 450 98 r \$0posr;
#X obj 430 76 r \$0pos;
#X obj 478 122 r \$0ramp;
#X obj 502 147 r \$0tp;
#X obj 531 171 r \$0tpr;
#X obj 578 193 r \$0pr;
#X obj 520 239 throw~ \$0right;
#X obj 411 239 throw~ \$0left;
#X obj 362 288 r \$0tablename;
#X obj 379 316 r \$0samplerate;
#X obj 424 337 r \$0len;
#X obj 461 362 r \$0lenr;
#X obj 474 308 r \$0posr;
#X obj 454 286 r \$0pos;
#X obj 502 332 r \$0ramp;
#X obj 526 357 r \$0tp;
#X obj 555 381 r \$0tpr;
#X obj 602 403 r \$0pr;
#X obj 544 449 throw~ \$0right;
#X obj 435 449 throw~ \$0left;
#X obj 442 492 r \$0tablename;
#X obj 459 520 r \$0samplerate;
#X obj 504 541 r \$0len;
#X obj 541 566 r \$0lenr;
#X obj 554 512 r \$0posr;
#X obj 534 490 r \$0pos;
#X obj 582 536 r \$0ramp;
#X obj 606 561 r \$0tp;
#X obj 635 585 r \$0tpr;
#X obj 682 607 r \$0pr;
#X obj 624 653 throw~ \$0right;
#X obj 515 653 throw~ \$0left;
#X obj 440 705 r \$0tablename;
#X obj 457 733 r \$0samplerate;
#X obj 502 754 r \$0len;
#X obj 539 779 r \$0lenr;
#X obj 552 725 r \$0posr;
#X obj 532 703 r \$0pos;
#X obj 580 749 r \$0ramp;
#X obj 604 774 r \$0tp;
#X obj 633 798 r \$0tpr;
#X obj 680 820 r \$0pr;
#X obj 622 866 throw~ \$0right;
#X obj 513 866 throw~ \$0left;
#X obj 387 204 abs_granularsample_particle3_s;
#X obj 411 414 abs_granularsample_particle3_s;
#X obj 491 618 abs_granularsample_particle3_s;
#X obj 489 831 abs_granularsample_particle3_s;
#X obj 642 87 r \$0tablename;
#X obj 659 115 r \$0samplerate;
#X obj 704 136 r \$0len;
#X obj 741 161 r \$0lenr;
#X obj 754 107 r \$0posr;
#X obj 734 85 r \$0pos;
#X obj 782 131 r \$0ramp;
#X obj 806 156 r \$0tp;
#X obj 835 180 r \$0tpr;
#X obj 882 202 r \$0pr;
#X obj 824 248 throw~ \$0right;
#X obj 715 248 throw~ \$0left;
#X obj 666 297 r \$0tablename;
#X obj 683 325 r \$0samplerate;
#X obj 728 346 r \$0len;
#X obj 765 371 r \$0lenr;
#X obj 778 317 r \$0posr;
#X obj 758 295 r \$0pos;
#X obj 806 341 r \$0ramp;
#X obj 830 366 r \$0tp;
#X obj 859 390 r \$0tpr;
#X obj 906 412 r \$0pr;
#X obj 848 458 throw~ \$0right;
#X obj 739 458 throw~ \$0left;
#X obj 746 501 r \$0tablename;
#X obj 763 529 r \$0samplerate;
#X obj 808 550 r \$0len;
#X obj 845 575 r \$0lenr;
#X obj 858 521 r \$0posr;
#X obj 838 499 r \$0pos;
#X obj 886 545 r \$0ramp;
#X obj 910 570 r \$0tp;
#X obj 939 594 r \$0tpr;
#X obj 986 616 r \$0pr;
#X obj 928 662 throw~ \$0right;
#X obj 819 662 throw~ \$0left;
#X obj 744 714 r \$0tablename;
#X obj 761 742 r \$0samplerate;
#X obj 806 763 r \$0len;
#X obj 843 788 r \$0lenr;
#X obj 856 734 r \$0posr;
#X obj 836 712 r \$0pos;
#X obj 884 758 r \$0ramp;
#X obj 908 783 r \$0tp;
#X obj 937 807 r \$0tpr;
#X obj 984 829 r \$0pr;
#X obj 926 875 throw~ \$0right;
#X obj 817 875 throw~ \$0left;
#X obj 691 213 abs_granularsample_particle3_s;
#X obj 715 423 abs_granularsample_particle3_s;
#X obj 795 627 abs_granularsample_particle3_s;
#X obj 793 840 abs_granularsample_particle3_s;
#X obj -8 -13 mod 20;
#X obj 932 77 r \$0tablename;
#X obj 949 105 r \$0samplerate;
#X obj 994 126 r \$0len;
#X obj 1031 151 r \$0lenr;
#X obj 1044 97 r \$0posr;
#X obj 1024 75 r \$0pos;
#X obj 1072 121 r \$0ramp;
#X obj 1096 146 r \$0tp;
#X obj 1125 170 r \$0tpr;
#X obj 1172 192 r \$0pr;
#X obj 1114 238 throw~ \$0right;
#X obj 1005 238 throw~ \$0left;
#X obj 956 287 r \$0tablename;
#X obj 973 315 r \$0samplerate;
#X obj 1018 336 r \$0len;
#X obj 1055 361 r \$0lenr;
#X obj 1068 307 r \$0posr;
#X obj 1048 285 r \$0pos;
#X obj 1096 331 r \$0ramp;
#X obj 1120 356 r \$0tp;
#X obj 1149 380 r \$0tpr;
#X obj 1196 402 r \$0pr;
#X obj 1138 448 throw~ \$0right;
#X obj 1029 448 throw~ \$0left;
#X obj 1036 491 r \$0tablename;
#X obj 1053 519 r \$0samplerate;
#X obj 1098 540 r \$0len;
#X obj 1135 565 r \$0lenr;
#X obj 1148 511 r \$0posr;
#X obj 1128 489 r \$0pos;
#X obj 1176 535 r \$0ramp;
#X obj 1200 560 r \$0tp;
#X obj 1229 584 r \$0tpr;
#X obj 1276 606 r \$0pr;
#X obj 1218 652 throw~ \$0right;
#X obj 1109 652 throw~ \$0left;
#X obj 1034 704 r \$0tablename;
#X obj 1051 732 r \$0samplerate;
#X obj 1096 753 r \$0len;
#X obj 1133 778 r \$0lenr;
#X obj 1146 724 r \$0posr;
#X obj 1126 702 r \$0pos;
#X obj 1174 748 r \$0ramp;
#X obj 1198 773 r \$0tp;
#X obj 1227 797 r \$0tpr;
#X obj 1274 819 r \$0pr;
#X obj 1216 865 throw~ \$0right;
#X obj 1107 865 throw~ \$0left;
#X obj 981 203 abs_granularsample_particle3_s;
#X obj 1005 413 abs_granularsample_particle3_s;
#X obj 1085 617 abs_granularsample_particle3_s;
#X obj 1083 830 abs_granularsample_particle3_s;
#X obj 702 -82 inlet;
#X connect 0 0 79 0;
#X connect 1 0 13 0;
#X connect 2 0 79 1;
#X connect 3 0 79 3;
#X connect 4 0 5 0;
#X connect 6 0 7 0;
#X connect 8 0 79 4;
#X connect 12 0 239 0;
#X connect 13 0 12 0;
#X connect 14 0 16 0;
#X connect 15 0 17 0;
#X connect 18 0 79 7;
#X connect 19 0 79 6;
#X connect 20 0 79 5;
#X connect 21 0 23 0;
#X connect 22 0 24 0;
#X connect 25 0 79 8;
#X connect 26 0 79 9;
#X connect 27 0 79 10;
#X connect 28 0 29 0;
#X connect 30 0 31 0;
#X connect 32 0 9 0;
#X connect 33 0 10 0;
#X connect 36 0 79 2;
#X connect 36 1 80 2;
#X connect 36 2 81 2;
#X connect 36 3 82 2;
#X connect 36 4 131 2;
#X connect 36 5 132 2;
#X connect 36 6 133 2;
#X connect 36 7 134 2;
#X connect 36 8 183 2;
#X connect 36 9 184 2;
#X connect 36 10 185 2;
#X connect 36 11 186 2;
#X connect 36 12 235 2;
#X connect 36 13 236 2;
#X connect 36 14 237 2;
#X connect 36 15 238 2;
#X connect 36 16 288 2;
#X connect 36 17 289 2;
#X connect 36 18 290 2;
#X connect 36 19 291 2;
#X connect 38 0 80 0;
#X connect 39 0 80 1;
#X connect 40 0 80 3;
#X connect 41 0 80 4;
#X connect 42 0 80 7;
#X connect 43 0 80 6;
#X connect 44 0 80 5;
#X connect 45 0 80 8;
#X connect 46 0 80 9;
#X connect 47 0 80 10;
#X connect 50 0 81 0;
#X connect 51 0 81 1;
#X connect 52 0 81 3;
#X connect 53 0 81 4;
#X connect 54 0 81 7;
#X connect 55 0 81 6;
#X connect 56 0 81 5;
#X connect 57 0 81 8;
#X connect 58 0 81 9;
#X connect 59 0 81 10;
#X connect 62 0 82 0;
#X connect 63 0 82 1;
#X connect 64 0 82 3;
#X connect 65 0 82 4;
#X connect 66 0 82 7;
#X connect 67 0 82 6;
#X connect 68 0 82 5;
#X connect 69 0 82 8;
#X connect 70 0 82 9;
#X connect 71 0 82 10;
#X connect 74 0 78 0;
#X connect 76 0 77 0;
#X connect 77 0 74 0;
#X connect 79 0 35 0;
#X connect 79 1 34 0;
#X connect 80 0 49 0;
#X connect 80 1 48 0;
#X connect 81 0 61 0;
#X connect 81 1 60 0;
#X connect 82 0 73 0;
#X connect 82 1 72 0;
#X connect 83 0 131 0;
#X connect 84 0 131 1;
#X connect 85 0 131 3;
#X connect 86 0 131 4;
#X connect 87 0 131 7;
#X connect 88 0 131 6;
#X connect 89 0 131 5;
#X connect 90 0 131 8;
#X connect 91 0 131 9;
#X connect 92 0 131 10;
#X connect 95 0 132 0;
#X connect 96 0 132 1;
#X connect 97 0 132 3;
#X connect 98 0 132 4;
#X connect 99 0 132 7;
#X connect 100 0 132 6;
#X connect 101 0 132 5;
#X connect 102 0 132 8;
#X connect 103 0 132 9;
#X connect 104 0 132 10;
#X connect 107 0 133 0;
#X connect 108 0 133 1;
#X connect 109 0 133 3;
#X connect 110 0 133 4;
#X connect 111 0 133 7;
#X connect 112 0 133 6;
#X connect 113 0 133 5;
#X connect 114 0 133 8;
#X connect 115 0 133 9;
#X connect 116 0 133 10;
#X connect 119 0 134 0;
#X connect 120 0 134 1;
#X connect 121 0 134 3;
#X connect 122 0 134 4;
#X connect 123 0 134 7;
#X connect 124 0 134 6;
#X connect 125 0 134 5;
#X connect 126 0 134 8;
#X connect 127 0 134 9;
#X connect 128 0 134 10;
#X connect 131 0 94 0;
#X connect 131 1 93 0;
#X connect 132 0 106 0;
#X connect 132 1 105 0;
#X connect 133 0 118 0;
#X connect 133 1 117 0;
#X connect 134 0 130 0;
#X connect 134 1 129 0;
#X connect 135 0 183 0;
#X connect 136 0 183 1;
#X connect 137 0 183 3;
#X connect 138 0 183 4;
#X connect 139 0 183 7;
#X connect 140 0 183 6;
#X connect 141 0 183 5;
#X connect 142 0 183 8;
#X connect 143 0 183 9;
#X connect 144 0 183 10;
#X connect 147 0 184 0;
#X connect 148 0 184 1;
#X connect 149 0 184 3;
#X connect 150 0 184 4;
#X connect 151 0 184 7;
#X connect 152 0 184 6;
#X connect 153 0 184 5;
#X connect 154 0 184 8;
#X connect 155 0 184 9;
#X connect 156 0 184 10;
#X connect 159 0 185 0;
#X connect 160 0 185 1;
#X connect 161 0 185 3;
#X connect 162 0 185 4;
#X connect 163 0 185 7;
#X connect 164 0 185 6;
#X connect 165 0 185 5;
#X connect 166 0 185 8;
#X connect 167 0 185 9;
#X connect 168 0 185 10;
#X connect 171 0 186 0;
#X connect 172 0 186 1;
#X connect 173 0 186 3;
#X connect 174 0 186 4;
#X connect 175 0 186 7;
#X connect 176 0 186 6;
#X connect 177 0 186 5;
#X connect 178 0 186 8;
#X connect 179 0 186 9;
#X connect 180 0 186 10;
#X connect 183 0 146 0;
#X connect 183 1 145 0;
#X connect 184 0 158 0;
#X connect 184 1 157 0;
#X connect 185 0 170 0;
#X connect 185 1 169 0;
#X connect 186 0 182 0;
#X connect 186 1 181 0;
#X connect 187 0 235 0;
#X connect 188 0 235 1;
#X connect 189 0 235 3;
#X connect 190 0 235 4;
#X connect 191 0 235 7;
#X connect 192 0 235 6;
#X connect 193 0 235 5;
#X connect 194 0 235 8;
#X connect 195 0 235 9;
#X connect 196 0 235 10;
#X connect 199 0 236 0;
#X connect 200 0 236 1;
#X connect 201 0 236 3;
#X connect 202 0 236 4;
#X connect 203 0 236 7;
#X connect 204 0 236 6;
#X connect 205 0 236 5;
#X connect 206 0 236 8;
#X connect 207 0 236 9;
#X connect 208 0 236 10;
#X connect 211 0 237 0;
#X connect 212 0 237 1;
#X connect 213 0 237 3;
#X connect 214 0 237 4;
#X connect 215 0 237 7;
#X connect 216 0 237 6;
#X connect 217 0 237 5;
#X connect 218 0 237 8;
#X connect 219 0 237 9;
#X connect 220 0 237 10;
#X connect 223 0 238 0;
#X connect 224 0 238 1;
#X connect 225 0 238 3;
#X connect 226 0 238 4;
#X connect 227 0 238 7;
#X connect 228 0 238 6;
#X connect 229 0 238 5;
#X connect 230 0 238 8;
#X connect 231 0 238 9;
#X connect 232 0 238 10;
#X connect 235 0 198 0;
#X connect 235 1 197 0;
#X connect 236 0 210 0;
#X connect 236 1 209 0;
#X connect 237 0 222 0;
#X connect 237 1 221 0;
#X connect 238 0 234 0;
#X connect 238 1 233 0;
#X connect 239 0 13 1;
#X connect 239 0 36 0;
#X connect 240 0 288 0;
#X connect 241 0 288 1;
#X connect 242 0 288 3;
#X connect 243 0 288 4;
#X connect 244 0 288 7;
#X connect 245 0 288 6;
#X connect 246 0 288 5;
#X connect 247 0 288 8;
#X connect 248 0 288 9;
#X connect 249 0 288 10;
#X connect 252 0 289 0;
#X connect 253 0 289 1;
#X connect 254 0 289 3;
#X connect 255 0 289 4;
#X connect 256 0 289 7;
#X connect 257 0 289 6;
#X connect 258 0 289 5;
#X connect 259 0 289 8;
#X connect 260 0 289 9;
#X connect 261 0 289 10;
#X connect 264 0 290 0;
#X connect 265 0 290 1;
#X connect 266 0 290 3;
#X connect 267 0 290 4;
#X connect 268 0 290 7;
#X connect 269 0 290 6;
#X connect 270 0 290 5;
#X connect 271 0 290 8;
#X connect 272 0 290 9;
#X connect 273 0 290 10;
#X connect 276 0 291 0;
#X connect 277 0 291 1;
#X connect 278 0 291 3;
#X connect 279 0 291 4;
#X connect 280 0 291 7;
#X connect 281 0 291 6;
#X connect 282 0 291 5;
#X connect 283 0 291 8;
#X connect 284 0 291 9;
#X connect 285 0 291 10;
#X connect 288 0 251 0;
#X connect 288 1 250 0;
#X connect 289 0 263 0;
#X connect 289 1 262 0;
#X connect 290 0 275 0;
#X connect 290 1 274 0;
#X connect 291 0 287 0;
#X connect 291 1 286 0;
#X connect 292 0 75 0;
