#N canvas 397 130 1437 944 10;
#X obj -313 25 inlet~;
#X obj -257 26 inlet~;
#X obj 572 860 outlet;
#X obj 211 13 inlet;
#X obj 257 13 inlet;
#X obj 340 56 inlet;
#N canvas 210 305 688 546 moddelay1comb 0;
#X obj 201 285 abs_moddelayline1;
#X obj 68 282 abs_moddelayline1;
#X obj 34 32 inlet~;
#X obj 84 33 inlet~;
#X obj 362 140 *;
#X obj 459 105 switch~;
#X obj 455 48 inlet;
#X obj 210 64 *;
#X obj 223 89 * 160;
#X obj 348 59 t b f;
#X msg 359 87 1;
#X obj 377 111 -;
#X obj 367 176 t b f;
#X msg 378 204 1;
#X obj 393 227 -;
#X obj 116 249 clip~ 1 4000;
#X obj 241 253 clip~ 1 4000;
#X obj 199 114 lop~ 30;
#X obj 54 371 throw~ \$0outl;
#X obj 146 371 throw~ \$0outr;
#X obj 260 9 r \$0padx;
#X obj 326 13 r \$0pady;
#X obj 203 39 t f f;
#X connect 0 0 19 0;
#X connect 1 0 18 0;
#X connect 2 0 1 0;
#X connect 3 0 0 0;
#X connect 4 0 12 0;
#X connect 6 0 5 0;
#X connect 7 0 8 0;
#X connect 8 0 17 0;
#X connect 9 0 10 0;
#X connect 9 1 11 1;
#X connect 10 0 11 0;
#X connect 11 0 4 1;
#X connect 11 0 4 0;
#X connect 12 0 13 0;
#X connect 12 1 14 1;
#X connect 13 0 14 0;
#X connect 14 0 0 2;
#X connect 14 0 1 2;
#X connect 15 0 1 1;
#X connect 16 0 0 1;
#X connect 17 0 15 0;
#X connect 17 0 16 0;
#X connect 20 0 22 0;
#X connect 21 0 9 0;
#X connect 22 0 7 0;
#X connect 22 1 7 1;
#X restore 16 194 pd moddelay1comb;
#X msg 455 273 symbol m-del1c;
#X obj 707 121 t f b;
#X msg 954 230 symbol;
#X msg 484 298 symbol delay1;
#N canvas 202 301 688 546 moddelay1 0;
#X obj 201 285 abs_moddelayline1;
#X obj 68 282 abs_moddelayline1;
#X obj 34 32 inlet~;
#X obj 84 33 inlet~;
#X obj 170 184 lop~ 20;
#X obj 459 105 switch~;
#X obj 455 48 inlet;
#X obj 116 249 clip~ 1 4000;
#X obj 241 253 clip~ 1 4000;
#X obj 184 -39 *;
#X obj 170 -120 t b f;
#X msg 181 -92 1;
#X obj 199 -68 -;
#X obj 182 -11 t b f;
#X msg 193 17 1;
#X obj 208 40 -;
#X obj 207 63 * 1000;
#X obj 85 343 throw~ \$0outl;
#X obj 177 343 throw~ \$0outr;
#X obj 253 -135 r \$0padx;
#X obj 319 -131 r \$0pady;
#X connect 0 0 18 0;
#X connect 1 0 17 0;
#X connect 2 0 1 0;
#X connect 3 0 0 0;
#X connect 4 0 7 0;
#X connect 4 0 8 0;
#X connect 6 0 5 0;
#X connect 7 0 1 1;
#X connect 8 0 0 1;
#X connect 9 0 13 0;
#X connect 10 0 11 0;
#X connect 10 1 12 1;
#X connect 11 0 12 0;
#X connect 12 0 9 1;
#X connect 12 0 9 0;
#X connect 13 0 14 0;
#X connect 13 1 15 1;
#X connect 14 0 15 0;
#X connect 15 0 16 0;
#X connect 16 0 4 0;
#X connect 19 0 10 0;
#X connect 20 0 0 2;
#X connect 20 0 1 2;
#X restore 55 234 pd moddelay1;
#N canvas 78 315 754 571 plateverb1 0;
#X obj 97 356 abs_platereverb1;
#X obj 240 260 hsl 128 8 220.5 22050 1 1 empty empty damping -2 5 0
10 -262144 -1 -1 12200 1;
#X obj 240 238 hsl 128 8 0 250 0 1 empty empty predelay -2 5 0 10 -262144
-1 -1 200 1;
#X obj 240 293 hsl 128 8 0 1 0 1 empty empty input_diffusion_2 -2 5
0 10 -262144 -1 -1 9300 1;
#X obj 240 282 hsl 128 8 0 1 0 1 empty empty input_diffusion_1 -2 5
0 10 -262144 -1 -1 7200 1;
#X obj 240 315 hsl 128 8 0 1 0 1 empty empty decay_diffusion_2 -2 5
0 10 -262144 -1 -1 9400 1;
#X obj 240 304 hsl 128 8 0 1 0 1 empty empty decay_diffusion_1 -2 5
0 10 -262144 -1 -1 6600 1;
#X obj 240 326 hsl 128 8 0 5 0 1 empty empty excursion -2 5 0 10 -262144
-1 -1 5400 1;
#X obj 76 136 inlet~;
#X text 175 49 Reverb abstraction based on "Simplified plate-class
reverberation topology in the style of Griesinger" from the article
"Effect Design \, Part 1: Reverberator and Other Filters" by Jon Dattorro.
;
#X text 177 106 based on a Pd implementation by Anton Hornquist \,
and rjdj;
#X obj 531 153 switch~;
#X obj 550 97 inlet;
#X obj 283 205 + 220.5;
#X obj 296 181 * 22050;
#X obj 125 136 inlet~;
#X obj 96 174 *~ 0.5;
#X obj 103 422 throw~ \$0outl;
#X obj 195 422 throw~ \$0outr;
#X obj 227 137 r \$0padx;
#X obj 294 139 r \$0pady;
#X connect 0 0 17 0;
#X connect 0 1 18 0;
#X connect 1 0 0 5;
#X connect 2 0 0 1;
#X connect 3 0 0 4;
#X connect 4 0 0 3;
#X connect 5 0 0 8;
#X connect 6 0 0 7;
#X connect 7 0 0 9;
#X connect 8 0 16 0;
#X connect 12 0 11 0;
#X connect 13 0 0 2;
#X connect 14 0 13 0;
#X connect 15 0 16 0;
#X connect 16 0 0 0;
#X connect 19 0 0 6;
#X connect 20 0 14 0;
#X coords 0 571 1 570 140 110 0;
#X restore 82 270 pd plateverb1;
#X msg 503 323 symbol plate1;
#N canvas 204 302 963 659 resample 0;
#X obj 34 32 inlet~;
#X obj 84 33 inlet~;
#X obj 601 75 switch~;
#X obj 597 18 inlet;
#X obj 245 22 *;
#X obj 215 288 samphold~;
#X obj 288 191 phasor~;
#X obj 285 166 * 44100;
#X obj 85 288 samphold~;
#X obj 254 55 *;
#X obj 266 83 +;
#X obj 270 107 * 0.5;
#X obj 373 30 t b f;
#X obj 406 -15 - 0.5;
#X obj 390 7 * 0.1;
#X obj 256 0 * 0.9;
#X obj 289 -32 + 0.1;
#X obj 271 135 clip 0.005 0.5;
#X obj 95 413 throw~ \$0outl;
#X obj 187 413 throw~ \$0outr;
#X obj 368 -70 r \$0padx;
#X obj 434 -66 r \$0pady;
#X connect 0 0 8 0;
#X connect 1 0 5 0;
#X connect 3 0 2 0;
#X connect 4 0 9 1;
#X connect 4 0 9 0;
#X connect 5 0 19 0;
#X connect 6 0 5 1;
#X connect 6 0 8 1;
#X connect 7 0 6 0;
#X connect 8 0 18 0;
#X connect 9 0 10 0;
#X connect 10 0 11 0;
#X connect 11 0 17 0;
#X connect 12 0 10 0;
#X connect 12 1 10 1;
#X connect 13 0 14 0;
#X connect 14 0 12 0;
#X connect 15 0 4 1;
#X connect 15 0 4 0;
#X connect 16 0 15 0;
#X connect 17 0 7 0;
#X connect 20 0 16 0;
#X connect 21 0 13 0;
#X restore 102 299 pd resample;
#X msg 527 353 symbol resampl;
#X msg 538 377 symbol ring1;
#N canvas 194 297 963 659 ringmod1 0;
#X obj 34 32 inlet~;
#X obj 84 33 inlet~;
#X obj 601 75 switch~;
#X obj 597 18 inlet;
#X obj 391 20 t b f;
#X obj 406 -15 - 0.5;
#X obj 91 352 *~;
#X obj 209 203 osc~;
#X obj 214 177 mtof;
#X obj 140 349 *~;
#X obj 260 28 * 128, f 6;
#X obj 230 118 +;
#X obj 246 64 - 28;
#X obj 55 430 throw~ \$0outl;
#X obj 147 430 throw~ \$0outr;
#X obj 276 -47 r \$0padx;
#X obj 411 -43 r \$0pady;
#X connect 0 0 6 0;
#X connect 1 0 9 0;
#X connect 3 0 2 0;
#X connect 4 0 11 0;
#X connect 4 1 11 1;
#X connect 5 0 4 0;
#X connect 6 0 13 0;
#X connect 7 0 6 1;
#X connect 7 0 9 1;
#X connect 8 0 7 0;
#X connect 9 0 14 0;
#X connect 10 0 12 0;
#X connect 11 0 8 0;
#X connect 12 0 11 0;
#X connect 15 0 10 0;
#X connect 16 0 5 0;
#X restore 112 329 pd ringmod1;
#N canvas 192 296 963 659 distortiontanh1 0;
#X obj 34 32 inlet~;
#X obj 84 33 inlet~;
#X obj 601 75 switch~;
#X obj 597 18 inlet;
#X obj 122 248 *~;
#X obj 39 245 *~;
#X obj 29 329 abs_tanhdist1;
#X obj 123 330 abs_tanhdist1;
#X obj 271 43 + 1;
#X obj 384 114 * 128;
#X obj 379 139 mtof;
#X obj 384 1 t b f;
#X msg 377 32 1;
#X obj 389 67 -;
#X obj 254 263 clip 20 22050;
#X obj 123 293 lop~;
#X obj 37 296 lop~;
#X obj 286 -3 * 5;
#X obj 31 378 throw~ \$0outl;
#X obj 123 378 throw~ \$0outr;
#X obj 276 -47 r \$0padx;
#X obj 411 -43 r \$0pady;
#X connect 0 0 5 0;
#X connect 1 0 4 0;
#X connect 3 0 2 0;
#X connect 4 0 15 0;
#X connect 5 0 16 0;
#X connect 6 0 18 0;
#X connect 7 0 19 0;
#X connect 8 0 5 1;
#X connect 8 0 4 1;
#X connect 9 0 10 0;
#X connect 10 0 14 0;
#X connect 11 0 12 0;
#X connect 11 1 13 1;
#X connect 12 0 13 0;
#X connect 13 0 9 0;
#X connect 14 0 16 1;
#X connect 14 0 15 1;
#X connect 15 0 7 0;
#X connect 16 0 6 0;
#X connect 17 0 8 0;
#X connect 20 0 17 0;
#X connect 21 0 11 0;
#X restore 153 389 pd distortiontanh1;
#X msg 566 439 symbol distth1;
#N canvas 192 296 963 659 lpfilter1 0;
#X obj 34 32 inlet~;
#X obj 84 33 inlet~;
#X obj 601 75 switch~;
#X obj 597 18 inlet;
#X obj 252 176 clip~ 20 20000;
#N canvas 715 79 1076 1000 lopass2p2z 0;
#X obj -50 465 inlet~;
#X obj 129 919 outlet~;
#X obj 73 85 inlet~;
#X obj 87 200 sig~ 1;
#X obj 121 249 /~;
#X obj 219 59 samplerate~;
#X obj 110 376 sig~ 1;
#X obj 147 408 /~;
#X obj 214 340 +~;
#X obj 187 310 sig~ 1;
#X obj 251 318 *~;
#X obj 181 375 +~;
#X obj 112 295 *~;
#X text 41 361 a1/a3;
#X obj 222 407 sig~ 1;
#X obj 296 433 -~;
#X obj 299 457 *~ 2;
#X obj 286 506 *~;
#X obj 409 334 *~;
#X text 276 435 b1;
#X text 384 379 b2;
#X obj 361 397 sig~ 1;
#X obj 392 429 -~;
#X obj 377 512 *~;
#X text 99 246 c;
#X obj 397 462 +~;
#X obj 147 222 expr~ tan($v1);
#X obj 151 194 /~ 44100;
#X obj 129 153 *~ 3.14159;
#X text 408 73 resonance 0..1;
#X text 124 86 cutoff (hz);
#X text 420 186 a2= 2*a1 \, a3=a1;
#X text 420 150 c= 1/tan(pi*cutf/samplerate);
#X text 422 168 a1= 1/(1+res*c+c*c);
#X text 421 204 b1= 2*(1-c*c)*a1;
#X text 421 220 b2= (1-res*c+c*c)*a1;
#X obj 33 690 czero~;
#X obj 59 727 czero~;
#X obj 73 646 sig~ -1;
#X obj 90 670 sig~ 0;
#X obj 90 841 cpole~;
#X obj 129 888 cpole~;
#X obj 296 199 *~ 1.41421;
#X obj 307 148 -~;
#X obj 353 72 inlet~;
#X obj 279 94 sig~ 1;
#X text 28 627 zeros at fixed pos;
#X obj 178 840 *~ -1;
#X obj 184 805 expr~ sqrt($v1);
#X obj -44 595 *~;
#X obj 128 704 *~ -0.5;
#X text 219 845 2nd pole = 1st mirrored on the x axis;
#X text 183 704 b1/2 (x pos);
#X text 267 11 cookbook-like? (i cant remember where i got this from)
lp-filter;
#X obj 163 748 *~;
#X obj 183 781 -~;
#X text 217 666 pole position from coeffs:;
#X text 218 683 p=-b1/2+j*sqrt(b2-(b1/2)^2) (found somewhere on the
net...);
#X connect 0 0 49 0;
#X connect 2 0 28 0;
#X connect 3 0 4 0;
#X connect 4 0 10 0;
#X connect 4 0 12 0;
#X connect 4 0 12 1;
#X connect 4 0 18 0;
#X connect 5 0 27 1;
#X connect 6 0 7 0;
#X connect 7 0 17 1;
#X connect 7 0 23 0;
#X connect 7 0 49 1;
#X connect 8 0 11 1;
#X connect 9 0 8 0;
#X connect 10 0 8 1;
#X connect 11 0 7 1;
#X connect 12 0 11 0;
#X connect 12 0 15 1;
#X connect 12 0 25 1;
#X connect 14 0 15 0;
#X connect 15 0 16 0;
#X connect 16 0 17 0;
#X connect 17 0 50 0;
#X connect 18 0 22 1;
#X connect 21 0 22 0;
#X connect 22 0 25 0;
#X connect 23 0 55 0;
#X connect 25 0 23 1;
#X connect 26 0 4 1;
#X connect 27 0 26 0;
#X connect 28 0 27 0;
#X connect 36 0 37 0;
#X connect 36 1 37 1;
#X connect 37 0 40 0;
#X connect 37 1 40 1;
#X connect 38 0 36 2;
#X connect 38 0 37 2;
#X connect 39 0 37 3;
#X connect 39 0 36 3;
#X connect 40 0 41 0;
#X connect 40 1 41 1;
#X connect 41 0 1 0;
#X connect 42 0 10 1;
#X connect 42 0 18 1;
#X connect 43 0 42 0;
#X connect 44 0 43 1;
#X connect 45 0 43 0;
#X connect 47 0 41 3;
#X connect 48 0 40 3;
#X connect 48 0 47 0;
#X connect 49 0 36 0;
#X connect 50 0 40 2;
#X connect 50 0 41 2;
#X connect 50 0 54 0;
#X connect 50 0 54 1;
#X connect 54 0 55 1;
#X connect 55 0 48 0;
#X restore 238 291 pd lopass2p2z;
#X obj 405 125 clip 0.01 0.99;
#X obj 411 -6 * 0.98;
#X obj 300 7 *;
#X obj 254 152 lop~ 20;
#N canvas 713 77 1076 999 lopass2p2z 0;
#X obj -50 465 inlet~;
#X obj 129 919 outlet~;
#X obj 73 85 inlet~;
#X obj 87 200 sig~ 1;
#X obj 121 249 /~;
#X obj 219 59 samplerate~;
#X obj 110 376 sig~ 1;
#X obj 147 408 /~;
#X obj 214 340 +~;
#X obj 187 310 sig~ 1;
#X obj 251 318 *~;
#X obj 181 375 +~;
#X obj 112 295 *~;
#X text 41 361 a1/a3;
#X obj 222 407 sig~ 1;
#X obj 296 433 -~;
#X obj 299 457 *~ 2;
#X obj 286 506 *~;
#X obj 409 334 *~;
#X text 276 435 b1;
#X text 384 379 b2;
#X obj 361 397 sig~ 1;
#X obj 392 429 -~;
#X obj 377 512 *~;
#X text 99 246 c;
#X obj 397 462 +~;
#X obj 147 222 expr~ tan($v1);
#X obj 151 194 /~ 44100;
#X obj 129 153 *~ 3.14159;
#X text 408 73 resonance 0..1;
#X text 124 86 cutoff (hz);
#X text 420 186 a2= 2*a1 \, a3=a1;
#X text 420 150 c= 1/tan(pi*cutf/samplerate);
#X text 422 168 a1= 1/(1+res*c+c*c);
#X text 421 204 b1= 2*(1-c*c)*a1;
#X text 421 220 b2= (1-res*c+c*c)*a1;
#X obj 33 690 czero~;
#X obj 59 727 czero~;
#X obj 73 646 sig~ -1;
#X obj 90 670 sig~ 0;
#X obj 90 841 cpole~;
#X obj 129 888 cpole~;
#X obj 296 199 *~ 1.41421;
#X obj 307 148 -~;
#X obj 353 72 inlet~;
#X obj 279 94 sig~ 1;
#X text 28 627 zeros at fixed pos;
#X obj 178 840 *~ -1;
#X obj 184 805 expr~ sqrt($v1);
#X obj -44 595 *~;
#X obj 128 704 *~ -0.5;
#X text 219 845 2nd pole = 1st mirrored on the x axis;
#X text 183 704 b1/2 (x pos);
#X text 267 11 cookbook-like? (i cant remember where i got this from)
lp-filter;
#X obj 163 748 *~;
#X obj 183 781 -~;
#X text 217 666 pole position from coeffs:;
#X text 218 683 p=-b1/2+j*sqrt(b2-(b1/2)^2) (found somewhere on the
net...);
#X connect 0 0 49 0;
#X connect 2 0 28 0;
#X connect 3 0 4 0;
#X connect 4 0 10 0;
#X connect 4 0 12 0;
#X connect 4 0 12 1;
#X connect 4 0 18 0;
#X connect 5 0 27 1;
#X connect 6 0 7 0;
#X connect 7 0 17 1;
#X connect 7 0 23 0;
#X connect 7 0 49 1;
#X connect 8 0 11 1;
#X connect 9 0 8 0;
#X connect 10 0 8 1;
#X connect 11 0 7 1;
#X connect 12 0 11 0;
#X connect 12 0 15 1;
#X connect 12 0 25 1;
#X connect 14 0 15 0;
#X connect 15 0 16 0;
#X connect 16 0 17 0;
#X connect 17 0 50 0;
#X connect 18 0 22 1;
#X connect 21 0 22 0;
#X connect 22 0 25 0;
#X connect 23 0 55 0;
#X connect 25 0 23 1;
#X connect 26 0 4 1;
#X connect 27 0 26 0;
#X connect 28 0 27 0;
#X connect 36 0 37 0;
#X connect 36 1 37 1;
#X connect 37 0 40 0;
#X connect 37 1 40 1;
#X connect 38 0 36 2;
#X connect 38 0 37 2;
#X connect 39 0 37 3;
#X connect 39 0 36 3;
#X connect 40 0 41 0;
#X connect 40 1 41 1;
#X connect 41 0 1 0;
#X connect 42 0 10 1;
#X connect 42 0 18 1;
#X connect 43 0 42 0;
#X connect 44 0 43 1;
#X connect 45 0 43 0;
#X connect 47 0 41 3;
#X connect 48 0 40 3;
#X connect 48 0 47 0;
#X connect 49 0 36 0;
#X connect 50 0 40 2;
#X connect 50 0 41 2;
#X connect 50 0 54 0;
#X connect 50 0 54 1;
#X connect 54 0 55 1;
#X connect 55 0 48 0;
#X restore 90 292 pd lopass2p2z;
#X obj 298 58 * 20000;
#X obj 292 34 *;
#X obj 97 391 throw~ \$0outl;
#X obj 189 391 throw~ \$0outr;
#X obj 270 -69 r \$0padx;
#X obj 405 -65 r \$0pady;
#X connect 0 0 10 0;
#X connect 1 0 5 0;
#X connect 3 0 2 0;
#X connect 4 0 5 1;
#X connect 4 0 10 1;
#X connect 5 0 14 0;
#X connect 6 0 5 2;
#X connect 6 0 10 2;
#X connect 7 0 6 0;
#X connect 8 0 12 1;
#X connect 8 0 12 0;
#X connect 9 0 4 0;
#X connect 10 0 13 0;
#X connect 11 0 9 0;
#X connect 12 0 11 0;
#X connect 15 0 8 1;
#X connect 15 0 8 0;
#X connect 16 0 7 0;
#X restore 182 423 pd lpfilter1;
#X msg 577 466 symbol lpfilt1;
#N canvas 188 294 963 659 hpfilter1 0;
#X obj 34 32 inlet~;
#X obj 84 33 inlet~;
#X obj 601 75 switch~;
#X obj 597 18 inlet;
#X obj 252 176 clip~ 20 20000;
#X obj 405 125 clip 0.01 0.99;
#X obj 411 -6 * 0.98;
#X obj 300 7 *;
#X obj 254 152 lop~ 20;
#X obj 298 58 * 20000;
#X obj 292 34 *;
#N canvas 484 218 1076 837 hipass2p2z 0;
#X obj -47 497 inlet~;
#X obj 128 927 outlet~;
#X obj 105 93 inlet~;
#X text 401 96 resonance 0..1;
#X text 156 94 cutoff (hz);
#X text 572 141 c= tan(pi*cutf/samplerate);
#X obj 245 49 samplerate~;
#X obj 140 186 expr~ tan($v1);
#X obj 135 159 /~ 44100;
#X obj 108 128 *~ 3.14159;
#X text 91 160 c;
#X obj 143 285 sig~ 1;
#X obj 174 398 /~;
#X obj 210 362 +~;
#X obj 226 333 +~;
#X obj 270 268 *~;
#X obj 266 314 *~;
#X text 573 165 a1= 1/(1+res+c+c*c);
#X text 573 186 a2= -2*a1;
#X text 99 483 a2;
#X text 123 337 a1/a3;
#X text 574 205 b1= 2*(c*c-1)*a1;
#X obj 287 439 -~;
#X obj 310 417 sig~ 1;
#X text 256 428 b1;
#X obj 280 485 *~ 2;
#X obj 261 515 *~;
#X obj 417 339 *~;
#X text 384 379 b2;
#X obj 361 397 sig~ 1;
#X obj 392 429 -~;
#X obj 377 512 *~;
#X obj 394 472 +~;
#X text 573 221 b2= (1-res*c+c*c)*a1;
#X obj 33 690 czero~;
#X obj 59 727 czero~;
#X obj 90 841 cpole~;
#X obj 129 888 cpole~;
#X obj 178 840 *~ -1;
#X obj 184 805 expr~ sqrt($v1);
#X obj -44 595 *~;
#X obj 128 704 *~ -0.5;
#X text 219 845 2nd pole = 1st mirrored on the x axis;
#X text 183 704 b1/2 (x pos);
#X obj 163 748 *~;
#X obj 183 781 -~;
#X text 217 666 pole position from coeffs:;
#X text 218 683 p=-b1/2+j*sqrt(b2-(b1/2)^2) (found somewhere on the
net...);
#X text 573 99 cookbook-like? (i cant remember where i got this from)
hp-filter;
#X obj 343 246 *~ 1.41421;
#X obj 341 194 -~;
#X obj 305 153 sig~ 1;
#X obj 346 95 inlet~;
#X obj 90 670 sig~ 0;
#X obj 73 646 sig~ 1;
#X text 49 624 zeros at fixed pos;
#X connect 0 0 40 0;
#X connect 2 0 9 0;
#X connect 6 0 8 1;
#X connect 7 0 15 0;
#X connect 7 0 16 0;
#X connect 7 0 16 1;
#X connect 7 0 27 0;
#X connect 8 0 7 0;
#X connect 9 0 8 0;
#X connect 11 0 12 0;
#X connect 11 0 13 0;
#X connect 12 0 26 0;
#X connect 12 0 31 0;
#X connect 12 0 40 1;
#X connect 13 0 12 1;
#X connect 14 0 13 1;
#X connect 15 0 14 0;
#X connect 16 0 14 1;
#X connect 16 0 22 0;
#X connect 16 0 32 1;
#X connect 22 0 25 0;
#X connect 23 0 22 1;
#X connect 25 0 26 1;
#X connect 26 0 41 0;
#X connect 27 0 30 1;
#X connect 29 0 30 0;
#X connect 30 0 32 0;
#X connect 31 0 45 0;
#X connect 32 0 31 1;
#X connect 34 0 35 0;
#X connect 34 1 35 1;
#X connect 35 0 36 0;
#X connect 35 1 36 1;
#X connect 36 0 37 0;
#X connect 36 1 37 1;
#X connect 37 0 1 0;
#X connect 38 0 37 3;
#X connect 39 0 36 3;
#X connect 39 0 38 0;
#X connect 40 0 34 0;
#X connect 41 0 36 2;
#X connect 41 0 37 2;
#X connect 41 0 44 0;
#X connect 41 0 44 1;
#X connect 44 0 45 1;
#X connect 45 0 39 0;
#X connect 49 0 15 1;
#X connect 49 0 27 1;
#X connect 50 0 49 0;
#X connect 51 0 50 0;
#X connect 52 0 50 1;
#X connect 53 0 35 3;
#X connect 53 0 34 3;
#X connect 54 0 34 2;
#X connect 54 0 35 2;
#X restore 207 338 pd hipass2p2z;
#N canvas 486 219 1076 837 hipass2p2z 0;
#X obj -47 497 inlet~;
#X obj 128 927 outlet~;
#X obj 105 93 inlet~;
#X text 401 96 resonance 0..1;
#X text 156 94 cutoff (hz);
#X text 572 141 c= tan(pi*cutf/samplerate);
#X obj 245 49 samplerate~;
#X obj 140 186 expr~ tan($v1);
#X obj 135 159 /~ 44100;
#X obj 108 128 *~ 3.14159;
#X text 91 160 c;
#X obj 143 285 sig~ 1;
#X obj 174 398 /~;
#X obj 210 362 +~;
#X obj 226 333 +~;
#X obj 270 268 *~;
#X obj 266 314 *~;
#X text 573 165 a1= 1/(1+res+c+c*c);
#X text 573 186 a2= -2*a1;
#X text 99 483 a2;
#X text 123 337 a1/a3;
#X text 574 205 b1= 2*(c*c-1)*a1;
#X obj 287 439 -~;
#X obj 310 417 sig~ 1;
#X text 256 428 b1;
#X obj 280 485 *~ 2;
#X obj 261 515 *~;
#X obj 417 339 *~;
#X text 384 379 b2;
#X obj 361 397 sig~ 1;
#X obj 392 429 -~;
#X obj 377 512 *~;
#X obj 394 472 +~;
#X text 573 221 b2= (1-res*c+c*c)*a1;
#X obj 33 690 czero~;
#X obj 59 727 czero~;
#X obj 90 841 cpole~;
#X obj 129 888 cpole~;
#X obj 178 840 *~ -1;
#X obj 184 805 expr~ sqrt($v1);
#X obj -44 595 *~;
#X obj 128 704 *~ -0.5;
#X text 219 845 2nd pole = 1st mirrored on the x axis;
#X text 183 704 b1/2 (x pos);
#X obj 163 748 *~;
#X obj 183 781 -~;
#X text 217 666 pole position from coeffs:;
#X text 218 683 p=-b1/2+j*sqrt(b2-(b1/2)^2) (found somewhere on the
net...);
#X text 573 99 cookbook-like? (i cant remember where i got this from)
hp-filter;
#X obj 343 246 *~ 1.41421;
#X obj 341 194 -~;
#X obj 305 153 sig~ 1;
#X obj 346 95 inlet~;
#X obj 90 670 sig~ 0;
#X obj 73 646 sig~ 1;
#X text 49 624 zeros at fixed pos;
#X connect 0 0 40 0;
#X connect 2 0 9 0;
#X connect 6 0 8 1;
#X connect 7 0 15 0;
#X connect 7 0 16 0;
#X connect 7 0 16 1;
#X connect 7 0 27 0;
#X connect 8 0 7 0;
#X connect 9 0 8 0;
#X connect 11 0 12 0;
#X connect 11 0 13 0;
#X connect 12 0 26 0;
#X connect 12 0 31 0;
#X connect 12 0 40 1;
#X connect 13 0 12 1;
#X connect 14 0 13 1;
#X connect 15 0 14 0;
#X connect 16 0 14 1;
#X connect 16 0 22 0;
#X connect 16 0 32 1;
#X connect 22 0 25 0;
#X connect 23 0 22 1;
#X connect 25 0 26 1;
#X connect 26 0 41 0;
#X connect 27 0 30 1;
#X connect 29 0 30 0;
#X connect 30 0 32 0;
#X connect 31 0 45 0;
#X connect 32 0 31 1;
#X connect 34 0 35 0;
#X connect 34 1 35 1;
#X connect 35 0 36 0;
#X connect 35 1 36 1;
#X connect 36 0 37 0;
#X connect 36 1 37 1;
#X connect 37 0 1 0;
#X connect 38 0 37 3;
#X connect 39 0 36 3;
#X connect 39 0 38 0;
#X connect 40 0 34 0;
#X connect 41 0 36 2;
#X connect 41 0 37 2;
#X connect 41 0 44 0;
#X connect 41 0 44 1;
#X connect 44 0 45 1;
#X connect 45 0 39 0;
#X connect 49 0 15 1;
#X connect 49 0 27 1;
#X connect 50 0 49 0;
#X connect 51 0 50 0;
#X connect 52 0 50 1;
#X connect 53 0 35 3;
#X connect 53 0 34 3;
#X connect 54 0 34 2;
#X connect 54 0 35 2;
#X restore 102 346 pd hipass2p2z;
#X obj 54 430 throw~ \$0outl;
#X obj 146 430 throw~ \$0outr;
#X obj 276 -47 r \$0padx;
#X obj 411 -43 r \$0pady;
#X connect 0 0 12 0;
#X connect 1 0 11 0;
#X connect 3 0 2 0;
#X connect 4 0 12 1;
#X connect 4 0 11 1;
#X connect 5 0 12 2;
#X connect 5 0 11 2;
#X connect 6 0 5 0;
#X connect 7 0 10 1;
#X connect 7 0 10 0;
#X connect 8 0 4 0;
#X connect 9 0 8 0;
#X connect 10 0 9 0;
#X connect 11 0 14 0;
#X connect 12 0 13 0;
#X connect 15 0 7 1;
#X connect 15 0 7 0;
#X connect 16 0 6 0;
#X restore 211 458 pd hpfilter1;
#X msg 588 487 symbol hpfilt1;
#N canvas 174 287 963 659 vovel_filter1 0;
#X obj 34 32 inlet~;
#X obj 84 33 inlet~;
#X obj 601 75 switch~;
#X obj 597 18 inlet;
#N canvas 1 79 695 727 1st6freqs 0;
#X obj 39 58 inlet;
#X obj 145 33 inlet;
#X obj 534 83 inlet;
#X obj 221 610 outlet;
#X obj 62 221 -;
#X msg 48 201 1;
#X obj 42 303 +;
#X obj 39 164 t f b f;
#X obj 153 221 -;
#X msg 139 201 1;
#X obj 133 303 +;
#X obj 121 167 t f b f;
#X obj 78 388 *;
#X obj 127 453 +;
#X obj 254 333 -;
#X msg 263 303 1;
#X obj 157 400 *;
#X obj 237 250 t b b f b f;
#X obj 28 261 * 300;
#X obj 72 261 * 270;
#X obj 120 261 * 530;
#X obj 163 259 * 400;
#X obj 397 233 -;
#X msg 382 208 1;
#X obj 375 305 +;
#X obj 364 174 t f b f;
#X obj 406 267 * 640;
#X obj 363 268 * 660;
#X obj 198 522 *;
#X obj 448 409 -;
#X msg 457 379 1;
#X obj 265 526 *;
#X obj 431 326 t b b f b f;
#X obj 221 571 +;
#X connect 0 0 11 0;
#X connect 0 0 7 0;
#X connect 1 0 17 0;
#X connect 1 0 25 0;
#X connect 2 0 32 0;
#X connect 4 0 19 0;
#X connect 5 0 4 0;
#X connect 6 0 12 0;
#X connect 7 0 18 0;
#X connect 7 1 5 0;
#X connect 7 2 4 1;
#X connect 8 0 21 0;
#X connect 9 0 8 0;
#X connect 10 0 16 0;
#X connect 11 0 20 0;
#X connect 11 1 9 0;
#X connect 11 2 8 1;
#X connect 12 0 13 0;
#X connect 13 0 28 0;
#X connect 14 0 16 1;
#X connect 15 0 14 0;
#X connect 16 0 13 1;
#X connect 17 0 12 0;
#X connect 17 1 16 0;
#X connect 17 2 12 1;
#X connect 17 3 15 0;
#X connect 17 4 14 1;
#X connect 18 0 6 0;
#X connect 19 0 6 1;
#X connect 20 0 10 0;
#X connect 21 0 10 1;
#X connect 22 0 26 0;
#X connect 23 0 22 0;
#X connect 24 0 31 0;
#X connect 25 0 27 0;
#X connect 25 1 23 0;
#X connect 25 2 22 1;
#X connect 26 0 24 1;
#X connect 27 0 24 0;
#X connect 28 0 33 0;
#X connect 29 0 31 1;
#X connect 30 0 29 0;
#X connect 31 0 33 1;
#X connect 32 0 28 0;
#X connect 32 1 31 0;
#X connect 32 2 28 1;
#X connect 32 3 30 0;
#X connect 32 4 29 1;
#X connect 33 0 3 0;
#X restore 234 416 pd 1st6freqs;
#N canvas 903 221 695 727 2nd6freqs 0;
#X obj 39 58 inlet;
#X obj 145 33 inlet;
#X obj 534 83 inlet;
#X obj 221 610 outlet;
#X obj 62 221 -;
#X msg 48 201 1;
#X obj 42 303 +;
#X obj 39 164 t f b f;
#X obj 153 221 -;
#X msg 139 201 1;
#X obj 133 303 +;
#X obj 121 167 t f b f;
#X obj 78 388 *;
#X obj 127 453 +;
#X obj 254 333 -;
#X msg 263 303 1;
#X obj 157 400 *;
#X obj 237 250 t b b f b f;
#X obj 397 233 -;
#X msg 382 208 1;
#X obj 375 305 +;
#X obj 364 174 t f b f;
#X obj 198 522 *;
#X obj 448 409 -;
#X msg 457 379 1;
#X obj 265 526 *;
#X obj 431 326 t b b f b f;
#X obj 221 571 +;
#X obj 21 261 * 870;
#X obj 66 262 * 2300;
#X obj 115 259 * 1850;
#X obj 167 259 * 2000;
#X obj 350 266 * 1700;
#X obj 406 266 * 1200;
#X connect 0 0 11 0;
#X connect 0 0 7 0;
#X connect 1 0 17 0;
#X connect 1 0 21 0;
#X connect 2 0 26 0;
#X connect 4 0 29 0;
#X connect 5 0 4 0;
#X connect 6 0 12 0;
#X connect 7 0 28 0;
#X connect 7 1 5 0;
#X connect 7 2 4 1;
#X connect 8 0 31 0;
#X connect 9 0 8 0;
#X connect 10 0 16 0;
#X connect 11 0 30 0;
#X connect 11 1 9 0;
#X connect 11 2 8 1;
#X connect 12 0 13 0;
#X connect 13 0 22 0;
#X connect 14 0 16 1;
#X connect 15 0 14 0;
#X connect 16 0 13 1;
#X connect 17 0 12 0;
#X connect 17 1 16 0;
#X connect 17 2 12 1;
#X connect 17 3 15 0;
#X connect 17 4 14 1;
#X connect 18 0 33 0;
#X connect 19 0 18 0;
#X connect 20 0 25 0;
#X connect 21 0 32 0;
#X connect 21 1 19 0;
#X connect 21 2 18 1;
#X connect 22 0 27 0;
#X connect 23 0 25 1;
#X connect 24 0 23 0;
#X connect 25 0 27 1;
#X connect 26 0 22 0;
#X connect 26 1 25 0;
#X connect 26 2 22 1;
#X connect 26 3 24 0;
#X connect 26 4 23 1;
#X connect 27 0 3 0;
#X connect 28 0 6 0;
#X connect 29 0 6 1;
#X connect 30 0 10 0;
#X connect 31 0 10 1;
#X connect 32 0 20 0;
#X connect 33 0 20 1;
#X restore 337 417 pd 2nd6freqs;
#N canvas 906 226 695 727 3rd6freqs 0;
#X obj 39 58 inlet;
#X obj 145 33 inlet;
#X obj 534 83 inlet;
#X obj 221 610 outlet;
#X obj 62 221 -;
#X msg 48 201 1;
#X obj 42 303 +;
#X obj 39 164 t f b f;
#X obj 153 221 -;
#X msg 139 201 1;
#X obj 133 303 +;
#X obj 121 167 t f b f;
#X obj 78 388 *;
#X obj 127 453 +;
#X obj 254 333 -;
#X msg 263 303 1;
#X obj 157 400 *;
#X obj 237 250 t b b f b f;
#X obj 397 233 -;
#X msg 382 208 1;
#X obj 375 305 +;
#X obj 364 174 t f b f;
#X obj 198 522 *;
#X obj 448 409 -;
#X msg 457 379 1;
#X obj 265 526 *;
#X obj 431 326 t b b f b f;
#X obj 221 571 +;
#X obj 15 262 * 2250;
#X obj 65 261 * 3000;
#X obj 115 259 * 2500;
#X obj 167 259 * 2550;
#X obj 349 266 * 2400;
#X obj 404 267 * 2400;
#X connect 0 0 11 0;
#X connect 0 0 7 0;
#X connect 1 0 17 0;
#X connect 1 0 21 0;
#X connect 2 0 26 0;
#X connect 4 0 29 0;
#X connect 5 0 4 0;
#X connect 6 0 12 0;
#X connect 7 0 28 0;
#X connect 7 1 5 0;
#X connect 7 2 4 1;
#X connect 8 0 31 0;
#X connect 9 0 8 0;
#X connect 10 0 16 0;
#X connect 11 0 30 0;
#X connect 11 1 9 0;
#X connect 11 2 8 1;
#X connect 12 0 13 0;
#X connect 13 0 22 0;
#X connect 14 0 16 1;
#X connect 15 0 14 0;
#X connect 16 0 13 1;
#X connect 17 0 12 0;
#X connect 17 1 16 0;
#X connect 17 2 12 1;
#X connect 17 3 15 0;
#X connect 17 4 14 1;
#X connect 18 0 33 0;
#X connect 19 0 18 0;
#X connect 20 0 25 0;
#X connect 21 0 32 0;
#X connect 21 1 19 0;
#X connect 21 2 18 1;
#X connect 22 0 27 0;
#X connect 23 0 25 1;
#X connect 24 0 23 0;
#X connect 25 0 27 1;
#X connect 26 0 22 0;
#X connect 26 1 25 0;
#X connect 26 2 22 1;
#X connect 26 3 24 0;
#X connect 26 4 23 1;
#X connect 27 0 3 0;
#X connect 28 0 6 0;
#X connect 29 0 6 1;
#X connect 30 0 10 0;
#X connect 31 0 10 1;
#X connect 32 0 20 0;
#X connect 33 0 20 1;
#X restore 435 417 pd 3rd6freqs;
#N canvas 211 328 802 650 3filter 0;
#X obj 56 95 inlet~;
#X obj 184 94 inlet;
#X obj 241 92 inlet;
#X obj 294 92 inlet;
#X obj 74 470 outlet~;
#X obj 97 221 bp~ 100 10;
#X obj 201 232 bp~ 100 10;
#X obj 281 232 bp~ 100 10;
#X obj 103 277 bp~ 100 10;
#X obj 203 284 bp~ 100 10;
#X obj 280 283 bp~ 100 10;
#X obj 81 401 *~ 3;
#X connect 0 0 5 0;
#X connect 0 0 6 0;
#X connect 0 0 7 0;
#X connect 1 0 5 1;
#X connect 1 0 8 1;
#X connect 2 0 6 1;
#X connect 2 0 9 1;
#X connect 3 0 7 1;
#X connect 3 0 10 1;
#X connect 5 0 8 0;
#X connect 6 0 9 0;
#X connect 7 0 10 0;
#X connect 8 0 11 0;
#X connect 9 0 11 0;
#X connect 10 0 11 0;
#X connect 11 0 4 0;
#X restore 65 539 pd 3filter;
#X obj 297 -22 * 2;
#X obj 277 30 wrap;
#X obj 319 28 < 1;
#X obj 264 91 *;
#X obj 308 99 t b f;
#X msg 299 126 1;
#X obj 312 149 -;
#X obj 357 45 >= 1;
#X obj 309 225 +;
#X obj 313 172 *;
#X obj 425 -12 * 2;
#X obj 405 40 wrap;
#X obj 447 38 < 1;
#X obj 392 101 *;
#X obj 435 80 t b f;
#X msg 426 107 1;
#X obj 439 130 -;
#X obj 485 55 >= 1;
#X obj 421 208 +;
#X obj 440 153 *;
#X obj 488 224 line;
#X msg 489 197 \$1 30;
#X obj 393 267 line;
#X msg 394 240 \$1 30;
#X obj 308 278 line;
#X msg 309 251 \$1 30;
#X obj 419 10 t f f;
#X obj 291 0 t f f;
#X obj 442 180 t b f;
#X obj 319 195 t b f;
#X obj 70 634 throw~ \$0outl;
#X obj 177 630 throw~ \$0outr;
#N canvas 209 327 802 650 3filter 0;
#X obj 56 95 inlet~;
#X obj 184 94 inlet;
#X obj 241 92 inlet;
#X obj 294 92 inlet;
#X obj 74 470 outlet~;
#X obj 264 232 bp~ 100 10;
#X obj 188 232 bp~ 100 10;
#X obj 120 223 bp~ 100 10;
#X obj 133 274 bp~ 100 10;
#X obj 206 276 bp~ 100 10;
#X obj 277 279 bp~ 100 10;
#X obj 81 401 *~ 3;
#X connect 0 0 5 0;
#X connect 0 0 6 0;
#X connect 0 0 7 0;
#X connect 1 0 7 1;
#X connect 1 0 8 1;
#X connect 2 0 6 1;
#X connect 2 0 9 1;
#X connect 3 0 5 1;
#X connect 3 0 10 1;
#X connect 5 0 10 0;
#X connect 6 0 9 0;
#X connect 7 0 8 0;
#X connect 8 0 11 0;
#X connect 9 0 11 0;
#X connect 10 0 11 0;
#X connect 11 0 4 0;
#X restore 165 542 pd 3filter;
#X obj 300 -62 r \$0padx;
#X obj 415 -63 r \$0pady;
#X connect 0 0 7 0;
#X connect 1 0 40 0;
#X connect 3 0 2 0;
#X connect 4 0 7 1;
#X connect 4 0 40 1;
#X connect 5 0 7 2;
#X connect 5 0 40 2;
#X connect 6 0 7 3;
#X connect 6 0 40 3;
#X connect 7 0 38 0;
#X connect 8 0 35 0;
#X connect 9 0 11 0;
#X connect 9 0 12 0;
#X connect 10 0 11 1;
#X connect 11 0 16 0;
#X connect 12 0 13 0;
#X connect 12 1 14 1;
#X connect 13 0 14 0;
#X connect 14 0 17 0;
#X connect 15 0 17 1;
#X connect 16 0 33 0;
#X connect 17 0 37 0;
#X connect 18 0 34 0;
#X connect 19 0 21 0;
#X connect 19 0 22 0;
#X connect 20 0 21 1;
#X connect 21 0 26 0;
#X connect 22 0 23 0;
#X connect 22 1 24 1;
#X connect 23 0 24 0;
#X connect 24 0 27 0;
#X connect 25 0 27 1;
#X connect 26 0 31 0;
#X connect 27 0 36 0;
#X connect 28 0 6 1;
#X connect 28 0 5 1;
#X connect 28 0 4 1;
#X connect 29 0 28 0;
#X connect 30 0 4 2;
#X connect 30 0 5 2;
#X connect 30 0 6 2;
#X connect 31 0 30 0;
#X connect 32 0 4 0;
#X connect 32 0 5 0;
#X connect 32 0 6 0;
#X connect 33 0 32 0;
#X connect 34 0 19 0;
#X connect 34 1 20 0;
#X connect 34 1 25 0;
#X connect 35 0 9 0;
#X connect 35 1 10 0;
#X connect 35 1 15 0;
#X connect 36 0 26 0;
#X connect 36 1 26 1;
#X connect 37 0 16 0;
#X connect 37 1 16 1;
#X connect 40 0 39 0;
#X connect 41 0 8 0;
#X connect 41 0 29 0;
#X connect 42 0 18 0;
#X restore 228 499 pd vovel_filter1;
#X msg 604 517 symbol vovel1;
#N canvas 198 299 963 659 pitchshifter1 0;
#X obj 34 32 inlet~;
#X obj 84 33 inlet~;
#X obj 601 75 switch~;
#X obj 597 18 inlet;
#X obj 391 20 t b f;
#X obj 406 -15 - 0.5;
#X obj 245 102 +;
#X msg 337 187 100;
#X obj 341 158 loadbang;
#X obj 175 293 abs_pitchshift1;
#X obj 42 287 abs_pitchshift1;
#X obj 260 28 * 24, f 6;
#X obj 246 64 - 12;
#X obj 54 430 throw~ \$0outl;
#X obj 146 430 throw~ \$0outr;
#X obj 300 -62 r \$0padx;
#X obj 415 -63 r \$0pady;
#X connect 0 0 10 0;
#X connect 1 0 9 0;
#X connect 3 0 2 0;
#X connect 4 0 6 0;
#X connect 4 1 6 1;
#X connect 5 0 4 0;
#X connect 6 0 10 1;
#X connect 6 0 9 1;
#X connect 7 0 9 2;
#X connect 7 0 10 2;
#X connect 8 0 7 0;
#X connect 9 0 14 0;
#X connect 10 0 13 0;
#X connect 11 0 12 0;
#X connect 12 0 6 0;
#X connect 15 0 11 0;
#X connect 16 0 5 0;
#X restore 249 531 pd pitchshifter1;
#X msg 620 540 symbol pshift1;
#N canvas 184 292 963 659 bpfilter1 0;
#X obj 34 32 inlet~;
#X obj 84 33 inlet~;
#X obj 601 75 switch~;
#X obj 597 18 inlet;
#X obj 258 65 *;
#X obj 254 152 lop~ 20;
#X obj 255 127 * 20000;
#X obj 45 262 hsl 96 8 0.01 1 1 1 empty empty empty -2 -8 0 10 -204800
-1 -1 7300 1;
#X obj 223 269 clip~ 20 20000;
#X obj 208 353 clip~ 20 20000;
#N canvas 717 79 1076 1000 lopass2p2z 0;
#X obj -50 465 inlet~;
#X obj 129 919 outlet~;
#X obj 73 85 inlet~;
#X obj 87 200 sig~ 1;
#X obj 121 249 /~;
#X obj 219 59 samplerate~;
#X obj 110 376 sig~ 1;
#X obj 147 408 /~;
#X obj 214 340 +~;
#X obj 187 310 sig~ 1;
#X obj 251 318 *~;
#X obj 181 375 +~;
#X obj 112 295 *~;
#X text 41 361 a1/a3;
#X obj 222 407 sig~ 1;
#X obj 296 433 -~;
#X obj 299 457 *~ 2;
#X obj 286 506 *~;
#X obj 409 334 *~;
#X text 276 435 b1;
#X text 384 379 b2;
#X obj 361 397 sig~ 1;
#X obj 392 429 -~;
#X obj 377 512 *~;
#X text 99 246 c;
#X obj 397 462 +~;
#X obj 147 222 expr~ tan($v1);
#X obj 151 194 /~ 44100;
#X obj 129 153 *~ 3.14159;
#X text 408 73 resonance 0..1;
#X text 124 86 cutoff (hz);
#X text 420 186 a2= 2*a1 \, a3=a1;
#X text 420 150 c= 1/tan(pi*cutf/samplerate);
#X text 422 168 a1= 1/(1+res*c+c*c);
#X text 421 204 b1= 2*(1-c*c)*a1;
#X text 421 220 b2= (1-res*c+c*c)*a1;
#X obj 33 690 czero~;
#X obj 59 727 czero~;
#X obj 73 646 sig~ -1;
#X obj 90 670 sig~ 0;
#X obj 90 841 cpole~;
#X obj 129 888 cpole~;
#X obj 296 199 *~ 1.41421;
#X obj 307 148 -~;
#X obj 353 72 inlet~;
#X obj 279 94 sig~ 1;
#X text 28 627 zeros at fixed pos;
#X obj 178 840 *~ -1;
#X obj 184 805 expr~ sqrt($v1);
#X obj -44 595 *~;
#X obj 128 704 *~ -0.5;
#X text 219 845 2nd pole = 1st mirrored on the x axis;
#X text 183 704 b1/2 (x pos);
#X text 267 11 cookbook-like? (i cant remember where i got this from)
lp-filter;
#X obj 163 748 *~;
#X obj 183 781 -~;
#X text 217 666 pole position from coeffs:;
#X text 218 683 p=-b1/2+j*sqrt(b2-(b1/2)^2) (found somewhere on the
net...);
#X connect 0 0 49 0;
#X connect 2 0 28 0;
#X connect 3 0 4 0;
#X connect 4 0 10 0;
#X connect 4 0 12 0;
#X connect 4 0 12 1;
#X connect 4 0 18 0;
#X connect 5 0 27 1;
#X connect 6 0 7 0;
#X connect 7 0 17 1;
#X connect 7 0 23 0;
#X connect 7 0 49 1;
#X connect 8 0 11 1;
#X connect 9 0 8 0;
#X connect 10 0 8 1;
#X connect 11 0 7 1;
#X connect 12 0 11 0;
#X connect 12 0 15 1;
#X connect 12 0 25 1;
#X connect 14 0 15 0;
#X connect 15 0 16 0;
#X connect 16 0 17 0;
#X connect 17 0 50 0;
#X connect 18 0 22 1;
#X connect 21 0 22 0;
#X connect 22 0 25 0;
#X connect 23 0 55 0;
#X connect 25 0 23 1;
#X connect 26 0 4 1;
#X connect 27 0 26 0;
#X connect 28 0 27 0;
#X connect 36 0 37 0;
#X connect 36 1 37 1;
#X connect 37 0 40 0;
#X connect 37 1 40 1;
#X connect 38 0 36 2;
#X connect 38 0 37 2;
#X connect 39 0 37 3;
#X connect 39 0 36 3;
#X connect 40 0 41 0;
#X connect 40 1 41 1;
#X connect 41 0 1 0;
#X connect 42 0 10 1;
#X connect 42 0 18 1;
#X connect 43 0 42 0;
#X connect 44 0 43 1;
#X connect 45 0 43 0;
#X connect 47 0 41 3;
#X connect 48 0 40 3;
#X connect 48 0 47 0;
#X connect 49 0 36 0;
#X connect 50 0 40 2;
#X connect 50 0 41 2;
#X connect 50 0 54 0;
#X connect 50 0 54 1;
#X connect 54 0 55 1;
#X connect 55 0 48 0;
#X restore 105 334 pd lopass2p2z;
#N canvas 486 219 1076 837 hipass2p2z 0;
#X obj -47 497 inlet~;
#X obj 128 927 outlet~;
#X obj 105 93 inlet~;
#X text 401 96 resonance 0..1;
#X text 156 94 cutoff (hz);
#X text 572 141 c= tan(pi*cutf/samplerate);
#X obj 245 49 samplerate~;
#X obj 140 186 expr~ tan($v1);
#X obj 135 159 /~ 44100;
#X obj 108 128 *~ 3.14159;
#X text 91 160 c;
#X obj 143 285 sig~ 1;
#X obj 174 398 /~;
#X obj 210 362 +~;
#X obj 226 333 +~;
#X obj 270 268 *~;
#X obj 266 314 *~;
#X text 573 165 a1= 1/(1+res+c+c*c);
#X text 573 186 a2= -2*a1;
#X text 99 483 a2;
#X text 123 337 a1/a3;
#X text 574 205 b1= 2*(c*c-1)*a1;
#X obj 287 439 -~;
#X obj 310 417 sig~ 1;
#X text 256 428 b1;
#X obj 280 485 *~ 2;
#X obj 261 515 *~;
#X obj 417 339 *~;
#X text 384 379 b2;
#X obj 361 397 sig~ 1;
#X obj 392 429 -~;
#X obj 377 512 *~;
#X obj 394 472 +~;
#X text 573 221 b2= (1-res*c+c*c)*a1;
#X obj 33 690 czero~;
#X obj 59 727 czero~;
#X obj 90 841 cpole~;
#X obj 129 888 cpole~;
#X obj 178 840 *~ -1;
#X obj 184 805 expr~ sqrt($v1);
#X obj -44 595 *~;
#X obj 128 704 *~ -0.5;
#X text 219 845 2nd pole = 1st mirrored on the x axis;
#X text 183 704 b1/2 (x pos);
#X obj 163 748 *~;
#X obj 183 781 -~;
#X text 217 666 pole position from coeffs:;
#X text 218 683 p=-b1/2+j*sqrt(b2-(b1/2)^2) (found somewhere on the
net...);
#X text 573 99 cookbook-like? (i cant remember where i got this from)
hp-filter;
#X obj 343 246 *~ 1.41421;
#X obj 341 194 -~;
#X obj 305 153 sig~ 1;
#X obj 346 95 inlet~;
#X obj 90 670 sig~ 0;
#X obj 73 646 sig~ 1;
#X text 49 624 zeros at fixed pos;
#X connect 0 0 40 0;
#X connect 2 0 9 0;
#X connect 6 0 8 1;
#X connect 7 0 15 0;
#X connect 7 0 16 0;
#X connect 7 0 16 1;
#X connect 7 0 27 0;
#X connect 8 0 7 0;
#X connect 9 0 8 0;
#X connect 11 0 12 0;
#X connect 11 0 13 0;
#X connect 12 0 26 0;
#X connect 12 0 31 0;
#X connect 12 0 40 1;
#X connect 13 0 12 1;
#X connect 14 0 13 1;
#X connect 15 0 14 0;
#X connect 16 0 14 1;
#X connect 16 0 22 0;
#X connect 16 0 32 1;
#X connect 22 0 25 0;
#X connect 23 0 22 1;
#X connect 25 0 26 1;
#X connect 26 0 41 0;
#X connect 27 0 30 1;
#X connect 29 0 30 0;
#X connect 30 0 32 0;
#X connect 31 0 45 0;
#X connect 32 0 31 1;
#X connect 34 0 35 0;
#X connect 34 1 35 1;
#X connect 35 0 36 0;
#X connect 35 1 36 1;
#X connect 36 0 37 0;
#X connect 36 1 37 1;
#X connect 37 0 1 0;
#X connect 38 0 37 3;
#X connect 39 0 36 3;
#X connect 39 0 38 0;
#X connect 40 0 34 0;
#X connect 41 0 36 2;
#X connect 41 0 37 2;
#X connect 41 0 44 0;
#X connect 41 0 44 1;
#X connect 44 0 45 1;
#X connect 45 0 39 0;
#X connect 49 0 15 1;
#X connect 49 0 27 1;
#X connect 50 0 49 0;
#X connect 51 0 50 0;
#X connect 52 0 50 1;
#X connect 53 0 35 3;
#X connect 53 0 34 3;
#X connect 54 0 34 2;
#X connect 54 0 35 2;
#X restore 90 416 pd hipass2p2z;
#N canvas 717 79 1076 1000 lopass2p2z 0;
#X obj -50 465 inlet~;
#X obj 129 919 outlet~;
#X obj 73 85 inlet~;
#X obj 87 200 sig~ 1;
#X obj 121 249 /~;
#X obj 219 59 samplerate~;
#X obj 110 376 sig~ 1;
#X obj 147 408 /~;
#X obj 214 340 +~;
#X obj 187 310 sig~ 1;
#X obj 251 318 *~;
#X obj 181 375 +~;
#X obj 112 295 *~;
#X text 41 361 a1/a3;
#X obj 222 407 sig~ 1;
#X obj 296 433 -~;
#X obj 299 457 *~ 2;
#X obj 286 506 *~;
#X obj 409 334 *~;
#X text 276 435 b1;
#X text 384 379 b2;
#X obj 361 397 sig~ 1;
#X obj 392 429 -~;
#X obj 377 512 *~;
#X text 99 246 c;
#X obj 397 462 +~;
#X obj 147 222 expr~ tan($v1);
#X obj 151 194 /~ 44100;
#X obj 129 153 *~ 3.14159;
#X text 408 73 resonance 0..1;
#X text 124 86 cutoff (hz);
#X text 420 186 a2= 2*a1 \, a3=a1;
#X text 420 150 c= 1/tan(pi*cutf/samplerate);
#X text 422 168 a1= 1/(1+res*c+c*c);
#X text 421 204 b1= 2*(1-c*c)*a1;
#X text 421 220 b2= (1-res*c+c*c)*a1;
#X obj 33 690 czero~;
#X obj 59 727 czero~;
#X obj 73 646 sig~ -1;
#X obj 90 670 sig~ 0;
#X obj 90 841 cpole~;
#X obj 129 888 cpole~;
#X obj 296 199 *~ 1.41421;
#X obj 307 148 -~;
#X obj 353 72 inlet~;
#X obj 279 94 sig~ 1;
#X text 28 627 zeros at fixed pos;
#X obj 178 840 *~ -1;
#X obj 184 805 expr~ sqrt($v1);
#X obj -44 595 *~;
#X obj 128 704 *~ -0.5;
#X text 219 845 2nd pole = 1st mirrored on the x axis;
#X text 183 704 b1/2 (x pos);
#X text 267 11 cookbook-like? (i cant remember where i got this from)
lp-filter;
#X obj 163 748 *~;
#X obj 183 781 -~;
#X text 217 666 pole position from coeffs:;
#X text 218 683 p=-b1/2+j*sqrt(b2-(b1/2)^2) (found somewhere on the
net...);
#X connect 0 0 49 0;
#X connect 2 0 28 0;
#X connect 3 0 4 0;
#X connect 4 0 10 0;
#X connect 4 0 12 0;
#X connect 4 0 12 1;
#X connect 4 0 18 0;
#X connect 5 0 27 1;
#X connect 6 0 7 0;
#X connect 7 0 17 1;
#X connect 7 0 23 0;
#X connect 7 0 49 1;
#X connect 8 0 11 1;
#X connect 9 0 8 0;
#X connect 10 0 8 1;
#X connect 11 0 7 1;
#X connect 12 0 11 0;
#X connect 12 0 15 1;
#X connect 12 0 25 1;
#X connect 14 0 15 0;
#X connect 15 0 16 0;
#X connect 16 0 17 0;
#X connect 17 0 50 0;
#X connect 18 0 22 1;
#X connect 21 0 22 0;
#X connect 22 0 25 0;
#X connect 23 0 55 0;
#X connect 25 0 23 1;
#X connect 26 0 4 1;
#X connect 27 0 26 0;
#X connect 28 0 27 0;
#X connect 36 0 37 0;
#X connect 36 1 37 1;
#X connect 37 0 40 0;
#X connect 37 1 40 1;
#X connect 38 0 36 2;
#X connect 38 0 37 2;
#X connect 39 0 37 3;
#X connect 39 0 36 3;
#X connect 40 0 41 0;
#X connect 40 1 41 1;
#X connect 41 0 1 0;
#X connect 42 0 10 1;
#X connect 42 0 18 1;
#X connect 43 0 42 0;
#X connect 44 0 43 1;
#X connect 45 0 43 0;
#X connect 47 0 41 3;
#X connect 48 0 40 3;
#X connect 48 0 47 0;
#X connect 49 0 36 0;
#X connect 50 0 40 2;
#X connect 50 0 41 2;
#X connect 50 0 54 0;
#X connect 50 0 54 1;
#X connect 54 0 55 1;
#X connect 55 0 48 0;
#X restore -18 365 pd lopass2p2z;
#N canvas 486 219 1076 837 hipass2p2z 0;
#X obj -47 497 inlet~;
#X obj 128 927 outlet~;
#X obj 105 93 inlet~;
#X text 401 96 resonance 0..1;
#X text 156 94 cutoff (hz);
#X text 572 141 c= tan(pi*cutf/samplerate);
#X obj 245 49 samplerate~;
#X obj 140 186 expr~ tan($v1);
#X obj 135 159 /~ 44100;
#X obj 108 128 *~ 3.14159;
#X text 91 160 c;
#X obj 143 285 sig~ 1;
#X obj 174 398 /~;
#X obj 210 362 +~;
#X obj 226 333 +~;
#X obj 270 268 *~;
#X obj 266 314 *~;
#X text 573 165 a1= 1/(1+res+c+c*c);
#X text 573 186 a2= -2*a1;
#X text 99 483 a2;
#X text 123 337 a1/a3;
#X text 574 205 b1= 2*(c*c-1)*a1;
#X obj 287 439 -~;
#X obj 310 417 sig~ 1;
#X text 256 428 b1;
#X obj 280 485 *~ 2;
#X obj 261 515 *~;
#X obj 417 339 *~;
#X text 384 379 b2;
#X obj 361 397 sig~ 1;
#X obj 392 429 -~;
#X obj 377 512 *~;
#X obj 394 472 +~;
#X text 573 221 b2= (1-res*c+c*c)*a1;
#X obj 33 690 czero~;
#X obj 59 727 czero~;
#X obj 90 841 cpole~;
#X obj 129 888 cpole~;
#X obj 178 840 *~ -1;
#X obj 184 805 expr~ sqrt($v1);
#X obj -44 595 *~;
#X obj 128 704 *~ -0.5;
#X text 219 845 2nd pole = 1st mirrored on the x axis;
#X text 183 704 b1/2 (x pos);
#X obj 163 748 *~;
#X obj 183 781 -~;
#X text 217 666 pole position from coeffs:;
#X text 218 683 p=-b1/2+j*sqrt(b2-(b1/2)^2) (found somewhere on the
net...);
#X text 573 99 cookbook-like? (i cant remember where i got this from)
hp-filter;
#X obj 343 246 *~ 1.41421;
#X obj 341 194 -~;
#X obj 305 153 sig~ 1;
#X obj 346 95 inlet~;
#X obj 90 670 sig~ 0;
#X obj 73 646 sig~ 1;
#X text 49 624 zeros at fixed pos;
#X connect 0 0 40 0;
#X connect 2 0 9 0;
#X connect 6 0 8 1;
#X connect 7 0 15 0;
#X connect 7 0 16 0;
#X connect 7 0 16 1;
#X connect 7 0 27 0;
#X connect 8 0 7 0;
#X connect 9 0 8 0;
#X connect 11 0 12 0;
#X connect 11 0 13 0;
#X connect 12 0 26 0;
#X connect 12 0 31 0;
#X connect 12 0 40 1;
#X connect 13 0 12 1;
#X connect 14 0 13 1;
#X connect 15 0 14 0;
#X connect 16 0 14 1;
#X connect 16 0 22 0;
#X connect 16 0 32 1;
#X connect 22 0 25 0;
#X connect 23 0 22 1;
#X connect 25 0 26 1;
#X connect 26 0 41 0;
#X connect 27 0 30 1;
#X connect 29 0 30 0;
#X connect 30 0 32 0;
#X connect 31 0 45 0;
#X connect 32 0 31 1;
#X connect 34 0 35 0;
#X connect 34 1 35 1;
#X connect 35 0 36 0;
#X connect 35 1 36 1;
#X connect 36 0 37 0;
#X connect 36 1 37 1;
#X connect 37 0 1 0;
#X connect 38 0 37 3;
#X connect 39 0 36 3;
#X connect 39 0 38 0;
#X connect 40 0 34 0;
#X connect 41 0 36 2;
#X connect 41 0 37 2;
#X connect 41 0 44 0;
#X connect 41 0 44 1;
#X connect 44 0 45 1;
#X connect 45 0 39 0;
#X connect 49 0 15 1;
#X connect 49 0 27 1;
#X connect 50 0 49 0;
#X connect 51 0 50 0;
#X connect 52 0 50 1;
#X connect 53 0 35 3;
#X connect 53 0 34 3;
#X connect 54 0 34 2;
#X connect 54 0 35 2;
#X restore -33 447 pd hipass2p2z;
#X obj 414 -14 * 0.5;
#X obj 380 95 +;
#X obj 387 62 t b f;
#X obj 375 165 *;
#X obj 372 241 lop~ 20;
#X obj 373 216 * 20000;
#X obj 384 122 clip 0 1;
#X obj 373 189 *;
#X obj 249 99 *;
#X obj -22 497 throw~ \$0outl;
#X obj 70 497 throw~ \$0outr;
#X obj 300 -62 r \$0padx;
#X obj 415 -63 r \$0pady;
#X obj 264 -6 t f f;
#X connect 0 0 12 0;
#X connect 1 0 10 0;
#X connect 3 0 2 0;
#X connect 4 0 22 1;
#X connect 4 0 22 0;
#X connect 5 0 9 0;
#X connect 6 0 5 0;
#X connect 7 0 10 2;
#X connect 7 0 11 2;
#X connect 7 0 12 2;
#X connect 7 0 13 2;
#X connect 8 0 10 1;
#X connect 8 0 12 1;
#X connect 9 0 11 1;
#X connect 9 0 13 1;
#X connect 10 0 11 0;
#X connect 11 0 24 0;
#X connect 12 0 13 0;
#X connect 13 0 23 0;
#X connect 14 0 16 0;
#X connect 15 0 20 0;
#X connect 16 0 15 0;
#X connect 16 1 15 1;
#X connect 17 0 21 1;
#X connect 17 0 21 0;
#X connect 18 0 8 0;
#X connect 19 0 18 0;
#X connect 20 0 17 1;
#X connect 20 0 17 0;
#X connect 21 0 19 0;
#X connect 22 0 6 0;
#X connect 25 0 27 0;
#X connect 25 0 15 0;
#X connect 26 0 14 0;
#X connect 27 0 4 0;
#X connect 27 1 4 1;
#X restore 289 596 pd bpfilter1;
#X msg 645 599 symbol hlbpass1;
#N canvas 188 294 963 659 randomlpfilter1 0;
#X obj 34 32 inlet~;
#X obj 103 34 inlet~;
#X obj 601 75 switch~;
#X obj 597 18 inlet;
#X obj 223 215 clip~ 20 20000;
#N canvas 715 79 1076 1000 lopass2p2z 0;
#X obj -50 465 inlet~;
#X obj 129 919 outlet~;
#X obj 73 85 inlet~;
#X obj 87 200 sig~ 1;
#X obj 121 249 /~;
#X obj 219 59 samplerate~;
#X obj 110 376 sig~ 1;
#X obj 147 408 /~;
#X obj 214 340 +~;
#X obj 187 310 sig~ 1;
#X obj 251 318 *~;
#X obj 181 375 +~;
#X obj 112 295 *~;
#X text 41 361 a1/a3;
#X obj 222 407 sig~ 1;
#X obj 296 433 -~;
#X obj 299 457 *~ 2;
#X obj 286 506 *~;
#X obj 409 334 *~;
#X text 276 435 b1;
#X text 384 379 b2;
#X obj 361 397 sig~ 1;
#X obj 392 429 -~;
#X obj 377 512 *~;
#X text 99 246 c;
#X obj 397 462 +~;
#X obj 147 222 expr~ tan($v1);
#X obj 151 194 /~ 44100;
#X obj 129 153 *~ 3.14159;
#X text 408 73 resonance 0..1;
#X text 124 86 cutoff (hz);
#X text 420 186 a2= 2*a1 \, a3=a1;
#X text 420 150 c= 1/tan(pi*cutf/samplerate);
#X text 422 168 a1= 1/(1+res*c+c*c);
#X text 421 204 b1= 2*(1-c*c)*a1;
#X text 421 220 b2= (1-res*c+c*c)*a1;
#X obj 33 690 czero~;
#X obj 59 727 czero~;
#X obj 73 646 sig~ -1;
#X obj 90 670 sig~ 0;
#X obj 90 841 cpole~;
#X obj 129 888 cpole~;
#X obj 296 199 *~ 1.41421;
#X obj 307 148 -~;
#X obj 353 72 inlet~;
#X obj 279 94 sig~ 1;
#X text 28 627 zeros at fixed pos;
#X obj 178 840 *~ -1;
#X obj 184 805 expr~ sqrt($v1);
#X obj -44 595 *~;
#X obj 128 704 *~ -0.5;
#X text 219 845 2nd pole = 1st mirrored on the x axis;
#X text 183 704 b1/2 (x pos);
#X text 267 11 cookbook-like? (i cant remember where i got this from)
lp-filter;
#X obj 163 748 *~;
#X obj 183 781 -~;
#X text 217 666 pole position from coeffs:;
#X text 218 683 p=-b1/2+j*sqrt(b2-(b1/2)^2) (found somewhere on the
net...);
#X connect 0 0 49 0;
#X connect 2 0 28 0;
#X connect 3 0 4 0;
#X connect 4 0 10 0;
#X connect 4 0 12 0;
#X connect 4 0 12 1;
#X connect 4 0 18 0;
#X connect 5 0 27 1;
#X connect 6 0 7 0;
#X connect 7 0 17 1;
#X connect 7 0 23 0;
#X connect 7 0 49 1;
#X connect 8 0 11 1;
#X connect 9 0 8 0;
#X connect 10 0 8 1;
#X connect 11 0 7 1;
#X connect 12 0 11 0;
#X connect 12 0 15 1;
#X connect 12 0 25 1;
#X connect 14 0 15 0;
#X connect 15 0 16 0;
#X connect 16 0 17 0;
#X connect 17 0 50 0;
#X connect 18 0 22 1;
#X connect 21 0 22 0;
#X connect 22 0 25 0;
#X connect 23 0 55 0;
#X connect 25 0 23 1;
#X connect 26 0 4 1;
#X connect 27 0 26 0;
#X connect 28 0 27 0;
#X connect 36 0 37 0;
#X connect 36 1 37 1;
#X connect 37 0 40 0;
#X connect 37 1 40 1;
#X connect 38 0 36 2;
#X connect 38 0 37 2;
#X connect 39 0 37 3;
#X connect 39 0 36 3;
#X connect 40 0 41 0;
#X connect 40 1 41 1;
#X connect 41 0 1 0;
#X connect 42 0 10 1;
#X connect 42 0 18 1;
#X connect 43 0 42 0;
#X connect 44 0 43 1;
#X connect 45 0 43 0;
#X connect 47 0 41 3;
#X connect 48 0 40 3;
#X connect 48 0 47 0;
#X connect 49 0 36 0;
#X connect 50 0 40 2;
#X connect 50 0 41 2;
#X connect 50 0 54 0;
#X connect 50 0 54 1;
#X connect 54 0 55 1;
#X connect 55 0 48 0;
#X restore 238 291 pd lopass2p2z;
#X obj 223 187 lop~ 20;
#N canvas 713 77 1076 999 lopass2p2z 0;
#X obj -50 465 inlet~;
#X obj 129 919 outlet~;
#X obj 73 85 inlet~;
#X obj 87 200 sig~ 1;
#X obj 121 249 /~;
#X obj 219 59 samplerate~;
#X obj 110 376 sig~ 1;
#X obj 147 408 /~;
#X obj 214 340 +~;
#X obj 187 310 sig~ 1;
#X obj 251 318 *~;
#X obj 181 375 +~;
#X obj 112 295 *~;
#X text 41 361 a1/a3;
#X obj 222 407 sig~ 1;
#X obj 296 433 -~;
#X obj 299 457 *~ 2;
#X obj 286 506 *~;
#X obj 409 334 *~;
#X text 276 435 b1;
#X text 384 379 b2;
#X obj 361 397 sig~ 1;
#X obj 392 429 -~;
#X obj 377 512 *~;
#X text 99 246 c;
#X obj 397 462 +~;
#X obj 147 222 expr~ tan($v1);
#X obj 151 194 /~ 44100;
#X obj 129 153 *~ 3.14159;
#X text 408 73 resonance 0..1;
#X text 124 86 cutoff (hz);
#X text 420 186 a2= 2*a1 \, a3=a1;
#X text 420 150 c= 1/tan(pi*cutf/samplerate);
#X text 422 168 a1= 1/(1+res*c+c*c);
#X text 421 204 b1= 2*(1-c*c)*a1;
#X text 421 220 b2= (1-res*c+c*c)*a1;
#X obj 33 690 czero~;
#X obj 59 727 czero~;
#X obj 73 646 sig~ -1;
#X obj 90 670 sig~ 0;
#X obj 90 841 cpole~;
#X obj 129 888 cpole~;
#X obj 296 199 *~ 1.41421;
#X obj 307 148 -~;
#X obj 353 72 inlet~;
#X obj 279 94 sig~ 1;
#X text 28 627 zeros at fixed pos;
#X obj 178 840 *~ -1;
#X obj 184 805 expr~ sqrt($v1);
#X obj -44 595 *~;
#X obj 128 704 *~ -0.5;
#X text 219 845 2nd pole = 1st mirrored on the x axis;
#X text 183 704 b1/2 (x pos);
#X text 267 11 cookbook-like? (i cant remember where i got this from)
lp-filter;
#X obj 163 748 *~;
#X obj 183 781 -~;
#X text 217 666 pole position from coeffs:;
#X text 218 683 p=-b1/2+j*sqrt(b2-(b1/2)^2) (found somewhere on the
net...);
#X connect 0 0 49 0;
#X connect 2 0 28 0;
#X connect 3 0 4 0;
#X connect 4 0 10 0;
#X connect 4 0 12 0;
#X connect 4 0 12 1;
#X connect 4 0 18 0;
#X connect 5 0 27 1;
#X connect 6 0 7 0;
#X connect 7 0 17 1;
#X connect 7 0 23 0;
#X connect 7 0 49 1;
#X connect 8 0 11 1;
#X connect 9 0 8 0;
#X connect 10 0 8 1;
#X connect 11 0 7 1;
#X connect 12 0 11 0;
#X connect 12 0 15 1;
#X connect 12 0 25 1;
#X connect 14 0 15 0;
#X connect 15 0 16 0;
#X connect 16 0 17 0;
#X connect 17 0 50 0;
#X connect 18 0 22 1;
#X connect 21 0 22 0;
#X connect 22 0 25 0;
#X connect 23 0 55 0;
#X connect 25 0 23 1;
#X connect 26 0 4 1;
#X connect 27 0 26 0;
#X connect 28 0 27 0;
#X connect 36 0 37 0;
#X connect 36 1 37 1;
#X connect 37 0 40 0;
#X connect 37 1 40 1;
#X connect 38 0 36 2;
#X connect 38 0 37 2;
#X connect 39 0 37 3;
#X connect 39 0 36 3;
#X connect 40 0 41 0;
#X connect 40 1 41 1;
#X connect 41 0 1 0;
#X connect 42 0 10 1;
#X connect 42 0 18 1;
#X connect 43 0 42 0;
#X connect 44 0 43 1;
#X connect 45 0 43 0;
#X connect 47 0 41 3;
#X connect 48 0 40 3;
#X connect 48 0 47 0;
#X connect 49 0 36 0;
#X connect 50 0 40 2;
#X connect 50 0 41 2;
#X connect 50 0 54 0;
#X connect 50 0 54 1;
#X connect 54 0 55 1;
#X connect 55 0 48 0;
#X restore 90 292 pd lopass2p2z;
#X msg 434 164 0.7;
#X obj 480 -126 loadbang;
#X obj 366 -161 *;
#X obj 358 -234 t b f;
#X msg 356 -211 1;
#X obj 374 -187 -;
#X obj 363 -138 t b f;
#X msg 374 -110 1;
#X obj 375 -86 -;
#X obj 217 135 -;
#X obj 207 76 t b f;
#X msg 198 106 120;
#X obj 217 161 mtof;
#X obj 364 -60 * 100;
#X obj 211 44 *;
#X obj 287 71 t b f;
#X obj 206 -12 random 1000;
#X obj 209 12 / 1000;
#X obj 209 -33 metro 444;
#X obj 209 -60 + 20;
#X msg 317 -88 bang;
#X obj 211 -83 * 450;
#X obj 197 -106 *;
#X obj 189 -179 t b f;
#X obj 205 -132 -;
#X msg 181 -156 1;
#X obj 54 430 throw~ \$0outl;
#X obj 146 430 throw~ \$0outr;
#X obj 193 -273 r \$0padx;
#X obj 356 -269 r \$0pady;
#X connect 0 0 7 0;
#X connect 1 0 5 0;
#X connect 3 0 2 0;
#X connect 4 0 5 1;
#X connect 4 0 7 1;
#X connect 5 0 35 0;
#X connect 6 0 4 0;
#X connect 7 0 34 0;
#X connect 8 0 5 2;
#X connect 8 0 7 2;
#X connect 9 0 8 0;
#X connect 9 0 28 0;
#X connect 10 0 14 0;
#X connect 11 0 12 0;
#X connect 11 1 13 1;
#X connect 12 0 13 0;
#X connect 13 0 10 1;
#X connect 13 0 10 0;
#X connect 14 0 15 0;
#X connect 14 1 16 1;
#X connect 15 0 16 0;
#X connect 16 0 21 0;
#X connect 17 0 20 0;
#X connect 18 0 19 0;
#X connect 18 1 17 1;
#X connect 19 0 17 0;
#X connect 20 0 6 0;
#X connect 21 0 23 0;
#X connect 22 0 18 0;
#X connect 23 0 22 0;
#X connect 23 1 22 1;
#X connect 24 0 25 0;
#X connect 25 0 22 0;
#X connect 26 0 24 0;
#X connect 27 0 26 1;
#X connect 28 0 26 0;
#X connect 29 0 27 0;
#X connect 30 0 29 0;
#X connect 31 0 33 0;
#X connect 31 1 32 1;
#X connect 32 0 30 1;
#X connect 32 0 30 0;
#X connect 33 0 32 0;
#X connect 36 0 31 0;
#X connect 37 0 11 0;
#X restore 298 634 pd randomlpfilter1;
#X msg 680 625 symbol randlp1;
#N canvas 182 291 963 659 bufferfx1 0;
#X obj -18 214 inlet~;
#X obj 60 206 inlet~;
#X obj 601 75 switch~;
#X obj 597 18 inlet;
#X obj 480 -126 loadbang;
#X msg 467 -76 bang;
#X obj 282 402 phasor~;
#X obj 307 445 *~;
#X obj 377 382 /;
#X obj 373 308 t b f;
#X obj 179 293 metro 500;
#X msg 267 329 1;
#X obj 177 319 t b b;
#X msg 159 340 start;
#X msg 208 339 stop;
#X obj 334 245 + 3;
#X obj 236 237 line;
#X msg 235 206 \$1 20;
#X obj 345 204 line;
#X msg 345 178 \$1 20;
#X msg 346 347 44100;
#X obj 90 562 abs_table_bufferfx1;
#X obj 229 559 abs_table_bufferfx1;
#X obj 152 131 t b;
#X obj 210 83 * 970;
#X obj 209 114 + 30;
#X obj 368 74 * 67;
#X obj 365 95 + 3;
#X obj 204 -20 *;
#X obj 371 -26 *;
#X obj 209 23 *;
#X obj 376 17 *;
#X obj 88 594 throw~ \$0outl;
#X obj 180 594 throw~ \$0outr;
#X obj 219 -87 r \$0padx;
#X obj 334 -88 r \$0pady;
#X connect 0 0 21 1;
#X connect 1 0 22 1;
#X connect 3 0 2 0;
#X connect 4 0 5 0;
#X connect 5 0 23 0;
#X connect 6 0 7 0;
#X connect 7 0 21 2;
#X connect 7 0 22 2;
#X connect 8 0 7 1;
#X connect 9 0 20 0;
#X connect 9 1 8 1;
#X connect 10 0 11 0;
#X connect 10 0 12 0;
#X connect 11 0 6 1;
#X connect 12 0 13 0;
#X connect 12 1 14 0;
#X connect 13 0 21 0;
#X connect 13 0 22 0;
#X connect 14 0 21 0;
#X connect 14 0 22 0;
#X connect 15 0 9 0;
#X connect 15 0 6 0;
#X connect 16 0 10 1;
#X connect 17 0 16 0;
#X connect 18 0 15 0;
#X connect 19 0 18 0;
#X connect 20 0 8 0;
#X connect 21 0 32 0;
#X connect 22 0 33 0;
#X connect 23 0 10 0;
#X connect 23 0 11 0;
#X connect 24 0 25 0;
#X connect 25 0 17 0;
#X connect 26 0 27 0;
#X connect 27 0 19 0;
#X connect 28 0 30 1;
#X connect 28 0 30 0;
#X connect 29 0 31 1;
#X connect 29 0 31 0;
#X connect 30 0 24 0;
#X connect 31 0 26 0;
#X connect 34 0 28 1;
#X connect 34 0 28 0;
#X connect 35 0 29 1;
#X connect 35 0 29 0;
#X restore 317 669 pd bufferfx1;
#X msg 702 649 symbol buffer1;
#N canvas 178 289 963 659 phaser1 0;
#X obj -18 214 inlet~;
#X obj 60 206 inlet~;
#X obj 601 75 switch~;
#X obj 597 18 inlet;
#X obj 205 -93 *;
#X obj 185 296 rpole~;
#X obj 185 271 rzero_rev~;
#X obj 185 345 rpole~;
#X obj 185 320 rzero_rev~;
#X obj 185 393 rpole~;
#X obj 185 368 rzero_rev~;
#X obj 185 442 rpole~;
#X obj 185 417 rzero_rev~;
#X obj 128 640 +~;
#X obj 335 172 expr~ 1 - 0.03 - 0.6*abs($v1-0.5)*abs($v1-0.5);
#X obj 286 116 phasor~;
#X obj 185 493 rpole~;
#X obj 185 468 rzero_rev~;
#X obj 185 542 rpole~;
#X obj 185 517 rzero_rev~;
#X obj 250 47 + 0.05;
#X obj 334 217 *~;
#X obj 0 303 rpole~;
#X obj 0 278 rzero_rev~;
#X obj 0 352 rpole~;
#X obj 0 327 rzero_rev~;
#X obj 0 400 rpole~;
#X obj 0 375 rzero_rev~;
#X obj 0 449 rpole~;
#X obj 0 424 rzero_rev~;
#X obj 0 500 rpole~;
#X obj 0 475 rzero_rev~;
#X obj 0 549 rpole~;
#X obj 0 524 rzero_rev~;
#X obj -23 631 +~;
#X obj 397 112 * 0.3;
#X obj 397 133 + 0.7;
#X obj 388 -15 *;
#X obj 374 -96 t b f;
#X msg 385 -68 1;
#X obj 403 -44 -;
#X obj 386 13 t b f;
#X msg 397 41 1;
#X obj 412 64 -;
#X obj 242 21 * 10;
#X obj -32 675 throw~ \$0outl;
#X obj 121 676 throw~ \$0outr;
#X obj 213 -124 r \$0padx;
#X obj 380 -124 r \$0pady;
#X connect 0 0 23 0;
#X connect 0 0 34 0;
#X connect 1 0 6 0;
#X connect 1 0 13 0;
#X connect 3 0 2 0;
#X connect 4 0 44 0;
#X connect 5 0 8 0;
#X connect 6 0 5 0;
#X connect 7 0 10 0;
#X connect 8 0 7 0;
#X connect 9 0 12 0;
#X connect 10 0 9 0;
#X connect 11 0 17 0;
#X connect 12 0 11 0;
#X connect 13 0 46 0;
#X connect 14 0 21 0;
#X connect 15 0 14 0;
#X connect 16 0 19 0;
#X connect 17 0 16 0;
#X connect 18 0 13 1;
#X connect 19 0 18 0;
#X connect 20 0 15 0;
#X connect 21 0 18 1;
#X connect 21 0 19 1;
#X connect 21 0 16 1;
#X connect 21 0 17 1;
#X connect 21 0 11 1;
#X connect 21 0 12 1;
#X connect 21 0 10 1;
#X connect 21 0 9 1;
#X connect 21 0 8 1;
#X connect 21 0 7 1;
#X connect 21 0 6 1;
#X connect 21 0 5 1;
#X connect 21 0 23 1;
#X connect 21 0 22 1;
#X connect 21 0 25 1;
#X connect 21 0 24 1;
#X connect 21 0 27 1;
#X connect 21 0 26 1;
#X connect 21 0 29 1;
#X connect 21 0 28 1;
#X connect 21 0 31 1;
#X connect 21 0 30 1;
#X connect 21 0 33 1;
#X connect 21 0 32 1;
#X connect 22 0 25 0;
#X connect 23 0 22 0;
#X connect 24 0 27 0;
#X connect 25 0 24 0;
#X connect 26 0 29 0;
#X connect 27 0 26 0;
#X connect 28 0 31 0;
#X connect 29 0 28 0;
#X connect 30 0 33 0;
#X connect 31 0 30 0;
#X connect 32 0 34 1;
#X connect 33 0 32 0;
#X connect 34 0 45 0;
#X connect 35 0 36 0;
#X connect 36 0 21 1;
#X connect 37 0 41 0;
#X connect 38 0 39 0;
#X connect 38 1 40 1;
#X connect 39 0 40 0;
#X connect 40 0 37 1;
#X connect 40 0 37 0;
#X connect 41 0 42 0;
#X connect 41 1 43 1;
#X connect 42 0 43 0;
#X connect 43 0 35 0;
#X connect 44 0 20 0;
#X connect 47 0 4 1;
#X connect 47 0 4 0;
#X connect 48 0 38 0;
#X restore 353 708 pd phaser1;
#X msg 719 681 symbol phaser1;
#N canvas 441 172 688 546 flanger2 0;
#X obj -16 38 inlet~;
#X obj 84 33 inlet~;
#X obj 356 132 *;
#X obj 459 105 switch~;
#X obj 455 48 inlet;
#X obj 252 61 *;
#X obj 348 59 t b f;
#X msg 346 82 1;
#X obj 364 106 -;
#X obj 353 155 t b f;
#X msg 364 183 1;
#X obj 379 206 -;
#X obj 179 196 osc~;
#X obj 284 126 loadbang;
#X msg 280 155 1;
#X obj 177 381 abs_flangerfbdly1;
#X obj 22 384 abs_flangerfbdly1;
#X obj 172 293 *~;
#X obj 215 263 lop~ 10;
#X obj 296 233 * 5;
#X obj 195 146 + 0.0005;
#X obj 225 111 * 20;
#X obj 245 85 *;
#X obj 178 229 +~ 1.11;
#X obj 370 247 * 0.5;
#X obj 359 278 + 0.3;
#X obj 54 430 throw~ \$0outl;
#X obj 146 430 throw~ \$0outr;
#X obj 257 5 r \$0padx;
#X obj 359 13 r \$0pady;
#X connect 0 0 16 0;
#X connect 1 0 15 0;
#X connect 2 0 9 0;
#X connect 4 0 3 0;
#X connect 5 0 22 1;
#X connect 5 0 22 0;
#X connect 6 0 7 0;
#X connect 6 1 8 1;
#X connect 7 0 8 0;
#X connect 8 0 2 1;
#X connect 8 0 2 0;
#X connect 9 0 10 0;
#X connect 9 1 11 1;
#X connect 10 0 11 0;
#X connect 11 0 19 0;
#X connect 11 0 24 0;
#X connect 12 0 23 0;
#X connect 13 0 14 0;
#X connect 14 0 12 1;
#X connect 15 0 27 0;
#X connect 16 0 26 0;
#X connect 17 0 16 1;
#X connect 17 0 15 1;
#X connect 18 0 17 1;
#X connect 19 0 18 0;
#X connect 20 0 12 0;
#X connect 21 0 20 0;
#X connect 22 0 21 0;
#X connect 23 0 17 0;
#X connect 24 0 25 0;
#X connect 25 0 15 2;
#X connect 25 0 16 2;
#X connect 28 0 5 1;
#X connect 28 0 5 0;
#X connect 29 0 6 0;
#X restore 134 356 pd flanger2;
#N canvas 433 168 814 673 randomflanger 0;
#X obj -16 38 inlet~;
#X obj 84 33 inlet~;
#X obj 356 132 *;
#X obj 459 105 switch~;
#X obj 455 48 inlet;
#X obj 348 59 t b f;
#X msg 346 82 1;
#X obj 364 106 -;
#X obj 353 155 t b f;
#X msg 364 183 1;
#X obj 379 206 -;
#X obj 177 381 abs_flangerfbdly1;
#X obj 22 384 abs_flangerfbdly1;
#X obj 172 293 *~;
#X obj 215 263 lop~ 10;
#X obj 370 247 * 0.5;
#X obj 274 -11 loadbang;
#X obj 166 170 random 1000;
#X obj 169 194 / 1000;
#X obj 169 149 metro 444;
#X msg 259 39 bang;
#X obj 171 99 * 450;
#X obj 160 -16 t b f;
#X obj 162 28 -;
#X msg 152 7 1;
#X obj 168 232 lop~ 30;
#X obj 315 229 * 10;
#X obj 359 278 + 0.49;
#X obj 157 52 *;
#X obj 156 76 *;
#X obj 169 122 + 10;
#X obj 259 156 * 30;
#X obj 249 195 + 10;
#X obj 54 430 throw~ \$0outl;
#X obj 146 430 throw~ \$0outr;
#X obj 212 -47 r \$0padx;
#X obj 353 -8 r \$0pady;
#X connect 0 0 12 0;
#X connect 1 0 11 0;
#X connect 2 0 8 0;
#X connect 4 0 3 0;
#X connect 5 0 6 0;
#X connect 5 1 7 1;
#X connect 6 0 7 0;
#X connect 7 0 2 1;
#X connect 7 0 2 0;
#X connect 8 0 9 0;
#X connect 8 1 10 1;
#X connect 9 0 10 0;
#X connect 10 0 15 0;
#X connect 10 0 26 0;
#X connect 11 0 34 0;
#X connect 12 0 33 0;
#X connect 13 0 12 1;
#X connect 13 0 11 1;
#X connect 14 0 13 1;
#X connect 15 0 27 0;
#X connect 16 0 20 0;
#X connect 17 0 18 0;
#X connect 18 0 25 0;
#X connect 19 0 17 0;
#X connect 20 0 19 0;
#X connect 21 0 30 0;
#X connect 22 0 24 0;
#X connect 22 1 23 1;
#X connect 23 0 28 1;
#X connect 23 0 28 0;
#X connect 24 0 23 0;
#X connect 25 0 13 0;
#X connect 26 0 14 0;
#X connect 27 0 11 2;
#X connect 27 0 12 2;
#X connect 28 0 29 1;
#X connect 28 0 29 0;
#X connect 28 0 31 0;
#X connect 29 0 21 0;
#X connect 30 0 19 1;
#X connect 31 0 32 0;
#X connect 32 0 25 1;
#X connect 35 0 22 0;
#X connect 36 0 5 0;
#X restore 359 771 pd randomflanger;
#X msg 743 736 symbol rndflnr;
#X obj 996 908 outlet;
#X obj 1010 275 loadbang;
#X text 569 896 fx name;
#X text 995 932 nr of fx;
#X text 343 40 fx select;
#X text 239 -12 x y;
#X obj 62 902 outlet~;
#X obj 142 902 outlet~;
#X text 366 6 multiple two parameter (xy) effects \, stereo \, slightly
more finetuned 2nd version;
#X text -280 1 audio l/r;
#X msg 554 411 symbol flangr2;
#X obj 55 849 catch~ \$0outl;
#X obj 140 851 catch~ \$0outr;
#X obj 66 877 clip~ -1 1;
#X obj 144 877 clip~ -1 1;
#X msg 727 708 symbol rev3;
#N canvas 70 311 754 571 reverb3 0;
#X obj 32 140 inlet~;
#X obj 531 153 switch~;
#X obj 550 97 inlet;
#X obj 81 140 inlet~;
#X obj 103 422 throw~ \$0outl;
#X obj 195 422 throw~ \$0outr;
#X obj 172 335 * 100;
#X obj 258 260 *;
#X obj 239 289 *;
#X obj 267 226 t f f;
#X obj 241 321 * 100;
#X obj 344 312 hsl 80 10 1 0 0 1 empty empty co 2 5 0 10 -262144 -1
-1 4300 1;
#X obj 289 341 * 6000;
#X obj 124 372 rev3~ 100 90 3000 20;
#X obj 173 95 r \$0padx;
#X obj 314 98 r \$0pady;
#X obj 298 197 -;
#X msg 304 163 1;
#X obj 315 139 t b f;
#X obj 185 248 *;
#X obj 192 281 *;
#X obj 162 217 t b f f;
#X obj 176 306 -;
#X msg 160 284 1;
#X obj 156 185 -;
#X msg 162 151 1;
#X obj 173 127 t b f;
#X connect 0 0 13 0;
#X connect 2 0 1 0;
#X connect 3 0 13 1;
#X connect 6 0 13 3;
#X connect 7 0 8 1;
#X connect 7 0 8 0;
#X connect 8 0 10 0;
#X connect 9 0 7 0;
#X connect 9 1 7 1;
#X connect 10 0 13 5;
#X connect 11 0 12 0;
#X connect 12 0 13 4;
#X connect 13 0 4 0;
#X connect 13 1 5 0;
#X connect 14 0 26 0;
#X connect 15 0 18 0;
#X connect 16 0 9 0;
#X connect 17 0 16 0;
#X connect 18 0 17 0;
#X connect 18 1 16 1;
#X connect 19 0 20 1;
#X connect 19 0 20 0;
#X connect 20 0 22 1;
#X connect 21 0 23 0;
#X connect 21 1 19 0;
#X connect 21 2 19 1;
#X connect 22 0 6 0;
#X connect 23 0 22 0;
#X connect 24 0 21 0;
#X connect 25 0 24 0;
#X connect 26 0 25 0;
#X connect 26 1 24 1;
#X coords 0 571 1 570 140 110 0;
#X restore 376 740 pd reverb3;
#X obj 187 43 s \$0padx;
#X obj 253 47 s \$0pady;
#N canvas 174 287 963 659 particlefilter1 0;
#X obj 161 -58 inlet~;
#X obj 211 -57 inlet~;
#X obj 601 75 switch~;
#X obj 597 18 inlet;
#X obj 69 741 throw~ \$0outl;
#X obj 175 738 throw~ \$0outr;
#X obj 300 -62 r \$0padx;
#X obj 415 -63 r \$0pady;
#X obj 22 255 -;
#X obj 3 199 t f f b;
#X obj 44 234 f 0;
#X obj 75 698 *~;
#X obj -7 443 line~;
#X obj 3 174 f;
#X obj 164 270 * 5000;
#X obj 22 278 abs;
#X obj 22 341 clip 0 1;
#X obj 159 306 + 300;
#N canvas 190 170 920 635 simple_reson_lp1 0;
#X obj -19 398 cpole~;
#X obj 31 440 czero~;
#X obj 27 494 outlet~;
#X obj -173 141 inlet~;
#X obj -53 364 *~;
#X obj 31 118 /~ 2;
#X obj 32 238 cos~;
#X obj 95 182 -~ 0.25;
#X obj 96 203 cos~;
#X obj 96 256 *~;
#X obj 225 183 clip~ 0.05 0.99;
#X obj 236 146 inlet~;
#X obj -60 305 *~;
#X obj -81 266 +~ 2;
#X obj -84 237 *~ 0.5;
#X obj -27 279 -~;
#X obj 32 90 clip~ 0 1;
#X obj 36 34 /~ 11025;
#X obj 34 5 inlet~;
#X text -123 141 audio in;
#X text 81 5 cutoff;
#X text 287 143 resonance;
#X text 55 368 zero at nyquist;
#X text 99 35 1/4 samplerate;
#X text -128 198 attenuation factor;
#X text -128 214 (1-x)*(1/2*angle+2);
#X text 70 118 pi/2 for audio cos;
#X text -256 396 pole: cos(angle) \, sin(angle)+res;
#X text 39 220 cosine;
#X text 147 191 sine;
#X text -310 363 multiply input by attenuation factor;
#X text -404 106 4/2008 martin brinkmann;
#X text -405 8 slightly crude (especially the attenuatiun factor) lowpass
filter design \, made without knowing too much of the math involved.
frequency is not very exact \, but at least it sounds like a reson
filter :-);
#X text -404 63 a pole is moved along the unit-circle on a kind of
rugby-egg-shaped path \, while a zero sits at -1 \, 0 (nyquist frequency)
\, which makes a resonant lowpass filter.;
#X text 100 54 cutoff (or angle on the unit circle \, usually 0..pi
(0..nyquist) \, but here 0..0.5 because of the cos~ audio object);
#X obj -32 246 sig~ 1;
#X obj 45 393 sig~ -1;
#X obj 104 393 sig~ 0;
#X obj -36 334 *~ 0.5;
#X connect 0 0 1 0;
#X connect 0 1 1 1;
#X connect 1 0 2 0;
#X connect 3 0 4 0;
#X connect 4 0 0 0;
#X connect 5 0 7 0;
#X connect 5 0 6 0;
#X connect 6 0 0 2;
#X connect 6 0 15 1;
#X connect 7 0 8 0;
#X connect 8 0 9 0;
#X connect 9 0 0 3;
#X connect 10 0 9 1;
#X connect 11 0 10 0;
#X connect 12 0 38 0;
#X connect 13 0 12 0;
#X connect 14 0 13 0;
#X connect 15 0 12 1;
#X connect 16 0 5 0;
#X connect 16 0 14 0;
#X connect 17 0 16 0;
#X connect 18 0 17 0;
#X connect 35 0 15 0;
#X connect 36 0 1 2;
#X connect 37 0 1 3;
#X connect 38 0 4 1;
#X restore 124 599 pd simple_reson_lp1;
#X obj 97 675 clip~ -1 1;
#X obj 83 481 +~;
#X obj 41 390 line~;
#X obj 155 524 clip~ 40 20000;
#X msg 6 75 bang;
#X text 487 -46 filtered noise particles driven by movement;
#X obj 182 713 *~;
#N canvas 190 170 920 635 simple_reson_lp1 0;
#X obj -19 398 cpole~;
#X obj 31 440 czero~;
#X obj 27 494 outlet~;
#X obj -173 141 inlet~;
#X obj -53 364 *~;
#X obj 31 118 /~ 2;
#X obj 32 238 cos~;
#X obj 95 182 -~ 0.25;
#X obj 96 203 cos~;
#X obj 96 256 *~;
#X obj 225 183 clip~ 0.05 0.99;
#X obj 236 146 inlet~;
#X obj -60 305 *~;
#X obj -81 266 +~ 2;
#X obj -84 237 *~ 0.5;
#X obj -27 279 -~;
#X obj 32 90 clip~ 0 1;
#X obj 36 34 /~ 11025;
#X obj 34 5 inlet~;
#X text -123 141 audio in;
#X text 81 5 cutoff;
#X text 287 143 resonance;
#X text 55 368 zero at nyquist;
#X text 99 35 1/4 samplerate;
#X text -128 198 attenuation factor;
#X text -128 214 (1-x)*(1/2*angle+2);
#X text 70 118 pi/2 for audio cos;
#X text -256 396 pole: cos(angle) \, sin(angle)+res;
#X text 39 220 cosine;
#X text 147 191 sine;
#X text -310 363 multiply input by attenuation factor;
#X text -404 106 4/2008 martin brinkmann;
#X text -405 8 slightly crude (especially the attenuatiun factor) lowpass
filter design \, made without knowing too much of the math involved.
frequency is not very exact \, but at least it sounds like a reson
filter :-);
#X text -404 63 a pole is moved along the unit-circle on a kind of
rugby-egg-shaped path \, while a zero sits at -1 \, 0 (nyquist frequency)
\, which makes a resonant lowpass filter.;
#X text 100 54 cutoff (or angle on the unit circle \, usually 0..pi
(0..nyquist) \, but here 0..0.5 because of the cos~ audio object);
#X obj -32 246 sig~ 1;
#X obj 45 393 sig~ -1;
#X obj 104 393 sig~ 0;
#X obj -36 334 *~ 0.5;
#X connect 0 0 1 0;
#X connect 0 1 1 1;
#X connect 1 0 2 0;
#X connect 3 0 4 0;
#X connect 4 0 0 0;
#X connect 5 0 7 0;
#X connect 5 0 6 0;
#X connect 6 0 0 2;
#X connect 6 0 15 1;
#X connect 7 0 8 0;
#X connect 8 0 9 0;
#X connect 9 0 0 3;
#X connect 10 0 9 1;
#X connect 11 0 10 0;
#X connect 12 0 38 0;
#X connect 13 0 12 0;
#X connect 14 0 13 0;
#X connect 15 0 12 1;
#X connect 16 0 5 0;
#X connect 16 0 14 0;
#X connect 17 0 16 0;
#X connect 18 0 17 0;
#X connect 35 0 15 0;
#X connect 36 0 1 2;
#X connect 37 0 1 3;
#X connect 38 0 4 1;
#X restore 236 651 pd simple_reson_lp1;
#X obj 204 690 clip~ -1 1;
#X obj 75 455 *~ -2500;
#X obj 24 301 * 5;
#X obj 51 423 *~;
#X obj 31 364 pack f 25;
#X obj -6 132 metro 25;
#X connect 0 0 18 0;
#X connect 1 0 26 0;
#X connect 3 0 2 0;
#X connect 3 0 23 0;
#X connect 6 0 14 0;
#X connect 6 0 13 1;
#X connect 7 0 18 2;
#X connect 7 0 26 2;
#X connect 8 0 15 0;
#X connect 9 0 10 1;
#X connect 9 1 8 0;
#X connect 9 2 10 0;
#X connect 10 0 8 1;
#X connect 11 0 4 0;
#X connect 12 0 11 0;
#X connect 12 0 25 0;
#X connect 13 0 9 0;
#X connect 14 0 17 0;
#X connect 15 0 29 0;
#X connect 16 0 31 0;
#X connect 17 0 20 1;
#X connect 18 0 19 0;
#X connect 19 0 11 1;
#X connect 20 0 22 0;
#X connect 21 0 30 1;
#X connect 21 0 30 0;
#X connect 22 0 18 1;
#X connect 22 0 26 1;
#X connect 23 0 32 0;
#X connect 25 0 5 0;
#X connect 26 0 27 0;
#X connect 27 0 25 1;
#X connect 28 0 20 0;
#X connect 29 0 16 0;
#X connect 30 0 28 0;
#X connect 31 0 12 0;
#X connect 31 0 21 0;
#X connect 32 0 13 0;
#X restore 268 562 pd particlefilter1;
#X msg 633 572 symbol ptflt1;
#X msg 753 760 symbol rmcrct1;
#N canvas 427 165 814 673 rmcricket1 0;
#X obj -16 38 inlet~;
#X obj 84 33 inlet~;
#X obj 459 105 switch~;
#X obj 455 48 inlet;
#X obj 229 911 throw~ \$0outl;
#X obj 473 921 throw~ \$0outr;
#X obj 195 101 r \$0padx;
#X obj 344 162 r \$0pady;
#X obj 240 528 phasor~;
#X obj 358 439 mtof;
#X obj 244 290 hsl 128 8 0 20 0 1 empty empty amt 1 5 0 8 -262144 -1
-128992 4000 1;
#X obj 344 474 +;
#X obj 442 367 osc~;
#X obj 414 438 *;
#X obj 449 402 snapshot~;
#X obj 543 356 metro 5;
#X obj 543 321 loadbang;
#X obj 244 278 hsl 128 8 0.01 4 0 1 empty empty lfo 1 5 0 8 -262144
-1 -128992 1900 1;
#X obj 257 606 *~;
#X obj 475 520 mtof;
#X obj 244 359 hsl 128 8 0 1000 0 1 empty empty amt 1 5 0 8 -262144
-1 -128992 4000 1;
#X obj 503 596 +;
#X obj 549 466 osc~;
#X obj 547 571 *;
#X obj 556 501 snapshot~;
#X obj 244 348 hsl 128 8 0.01 4 0 1 empty empty lfo 1 5 0 8 -262144
-1 -128992 2300 1;
#X obj 244 337 hsl 128 8 0.05 0.99 0 1 empty empty res 1 5 0 8 -262144
-1 -128992 7900 1;
#X obj 565 538 - 0.5;
#X obj 489 627 clip 200 10000;
#X obj 632 660 mtof;
#X obj 244 374 hsl 128 8 0 127 0 1 empty empty pitch 1 4 1 8 -262144
-1 -128992 7800 1;
#X obj 244 397 hsl 128 8 0 1000 0 1 empty empty amt 1 5 0 8 -262144
-1 -128992 3900 1;
#X obj 623 695 +;
#X obj 708 587 osc~;
#X obj 693 672 *;
#X obj 715 622 snapshot~;
#X obj 244 385 hsl 128 8 0.01 4 0 1 empty empty lfo 1 5 0 8 -262144
-1 -128992 700 1;
#X obj 244 409 hsl 128 8 0 1 0 1 empty empty fx-amt 1 5 0 8 -262144
-1 -128992 6600 1;
#X obj 617 764 *~;
#X obj 703 644 - 0.5;
#X obj 624 723 osc~;
#X obj 471 891 hip~ 5;
#X obj 517 754 - 1;
#X obj 532 785 * -1;
#X obj 538 825 +~;
#X obj 468 859 *~;
#N canvas 486 219 1076 837 hipass2p2zm 0;
#X obj -47 497 inlet~;
#X obj 128 927 outlet~;
#X text 391 24 resonance 0..1;
#X text 156 94 cutoff (hz);
#X text 572 141 c= tan(pi*cutf/samplerate);
#X obj 245 49 samplerate~;
#X text 91 160 c;
#X obj 137 290 sig~ 1;
#X obj 165 418 /~;
#X text 573 165 a1= 1/(1+res+c+c*c);
#X text 573 186 a2= -2*a1;
#X text 99 483 a2;
#X text 136 349 a1/a3;
#X text 574 205 b1= 2*(c*c-1)*a1;
#X text 256 428 b1;
#X text 384 379 b2;
#X obj 353 534 *~;
#X text 573 221 b2= (1-res*c+c*c)*a1;
#X obj 33 690 czero~;
#X obj 59 727 czero~;
#X obj 90 841 cpole~;
#X obj 129 888 cpole~;
#X obj 178 840 *~ -1;
#X obj 184 805 expr~ sqrt($v1);
#X obj -44 595 *~;
#X obj 128 704 *~ -0.5;
#X text 219 845 2nd pole = 1st mirrored on the x axis;
#X text 183 704 b1/2 (x pos);
#X obj 163 748 *~;
#X obj 183 781 -~;
#X text 217 666 pole position from coeffs:;
#X text 218 683 p=-b1/2+j*sqrt(b2-(b1/2)^2) (found somewhere on the
net...);
#X text 573 99 cookbook-like? (i cant remember where i got this from)
hp-filter;
#X obj 90 670 sig~ 0;
#X obj 73 646 sig~ 1;
#X text 44 625 zeros at fixed pos;
#X obj 67 26 inlet;
#X obj 348 25 inlet;
#X obj 108 128 * 3.14159;
#X obj 135 159 / 44100;
#X obj 140 186 expr tan($f1);
#X obj 351 169 -;
#X obj 346 114 t b f;
#X msg 342 136 1;
#X obj 354 86 float 0.5;
#X obj 355 62 t f b;
#X obj 352 203 * 1.41421;
#X obj 88 93 t f b;
#X obj 72 53 float 440;
#X obj 137 223 t f f;
#X obj 194 284 *;
#X obj 273 282 *;
#X obj 197 348 +;
#X obj 196 374 + 1;
#X obj 120 440 /;
#X msg 102 413 1;
#X obj 114 390 t b f;
#X obj 287 439 - 1;
#X obj 283 465 * 2;
#X obj 237 524 *~;
#X obj 411 430 -;
#X obj 406 375 t b f;
#X msg 402 397 1;
#X obj 410 326 *;
#X obj 397 485 +~;
#X connect 0 0 24 0;
#X connect 5 0 39 1;
#X connect 7 0 8 0;
#X connect 16 0 29 0;
#X connect 18 0 19 0;
#X connect 18 1 19 1;
#X connect 19 0 20 0;
#X connect 19 1 20 1;
#X connect 20 0 21 0;
#X connect 20 1 21 1;
#X connect 21 0 1 0;
#X connect 22 0 21 3;
#X connect 23 0 20 3;
#X connect 23 0 22 0;
#X connect 24 0 18 0;
#X connect 25 0 20 2;
#X connect 25 0 21 2;
#X connect 25 0 28 0;
#X connect 25 0 28 1;
#X connect 28 0 29 1;
#X connect 29 0 23 0;
#X connect 33 0 19 3;
#X connect 33 0 18 3;
#X connect 34 0 18 2;
#X connect 34 0 19 2;
#X connect 36 0 48 0;
#X connect 37 0 45 0;
#X connect 38 0 39 0;
#X connect 39 0 40 0;
#X connect 40 0 49 0;
#X connect 40 0 63 0;
#X connect 41 0 46 0;
#X connect 42 0 43 0;
#X connect 42 1 41 1;
#X connect 43 0 41 0;
#X connect 44 0 42 0;
#X connect 45 0 44 0;
#X connect 45 1 48 0;
#X connect 46 0 51 1;
#X connect 46 0 63 1;
#X connect 47 0 38 0;
#X connect 47 1 44 0;
#X connect 48 0 47 0;
#X connect 49 0 50 0;
#X connect 49 1 50 1;
#X connect 49 1 51 0;
#X connect 50 0 52 0;
#X connect 50 0 57 0;
#X connect 50 0 64 0;
#X connect 51 0 52 1;
#X connect 52 0 53 0;
#X connect 53 0 8 1;
#X connect 53 0 56 0;
#X connect 54 0 24 1;
#X connect 54 0 16 0;
#X connect 54 0 59 0;
#X connect 55 0 54 0;
#X connect 56 0 55 0;
#X connect 56 1 54 1;
#X connect 57 0 58 0;
#X connect 58 0 59 1;
#X connect 59 0 25 0;
#X connect 60 0 64 1;
#X connect 61 0 62 0;
#X connect 61 1 60 1;
#X connect 62 0 60 0;
#X connect 63 0 61 0;
#X connect 64 0 16 1;
#X restore 322 733 pd hipass2p2zm;
#X msg 485 185 1;
#X text 72 -28 insectoid clicks;
#X obj 143 625 *~;
#N canvas 486 219 1076 837 hipass2p2zm 0;
#X obj -47 497 inlet~;
#X obj 128 927 outlet~;
#X text 391 24 resonance 0..1;
#X text 156 94 cutoff (hz);
#X text 572 141 c= tan(pi*cutf/samplerate);
#X obj 245 49 samplerate~;
#X text 91 160 c;
#X obj 137 290 sig~ 1;
#X obj 165 418 /~;
#X text 573 165 a1= 1/(1+res+c+c*c);
#X text 573 186 a2= -2*a1;
#X text 99 483 a2;
#X text 136 349 a1/a3;
#X text 574 205 b1= 2*(c*c-1)*a1;
#X text 256 428 b1;
#X text 384 379 b2;
#X obj 353 534 *~;
#X text 573 221 b2= (1-res*c+c*c)*a1;
#X obj 33 690 czero~;
#X obj 59 727 czero~;
#X obj 90 841 cpole~;
#X obj 129 888 cpole~;
#X obj 178 840 *~ -1;
#X obj 184 805 expr~ sqrt($v1);
#X obj -44 595 *~;
#X obj 128 704 *~ -0.5;
#X text 219 845 2nd pole = 1st mirrored on the x axis;
#X text 183 704 b1/2 (x pos);
#X obj 163 748 *~;
#X obj 183 781 -~;
#X text 217 666 pole position from coeffs:;
#X text 218 683 p=-b1/2+j*sqrt(b2-(b1/2)^2) (found somewhere on the
net...);
#X text 573 99 cookbook-like? (i cant remember where i got this from)
hp-filter;
#X obj 90 670 sig~ 0;
#X obj 73 646 sig~ 1;
#X text 44 625 zeros at fixed pos;
#X obj 67 26 inlet;
#X obj 348 25 inlet;
#X obj 108 128 * 3.14159;
#X obj 135 159 / 44100;
#X obj 140 186 expr tan($f1);
#X obj 351 169 -;
#X obj 346 114 t b f;
#X msg 342 136 1;
#X obj 354 86 float 0.5;
#X obj 355 62 t f b;
#X obj 352 203 * 1.41421;
#X obj 88 93 t f b;
#X obj 72 53 float 440;
#X obj 137 223 t f f;
#X obj 194 284 *;
#X obj 273 282 *;
#X obj 197 348 +;
#X obj 196 374 + 1;
#X obj 120 440 /;
#X msg 102 413 1;
#X obj 114 390 t b f;
#X obj 287 439 - 1;
#X obj 283 465 * 2;
#X obj 237 524 *~;
#X obj 411 430 -;
#X obj 406 375 t b f;
#X msg 402 397 1;
#X obj 410 326 *;
#X obj 397 485 +~;
#X connect 0 0 24 0;
#X connect 5 0 39 1;
#X connect 7 0 8 0;
#X connect 16 0 29 0;
#X connect 18 0 19 0;
#X connect 18 1 19 1;
#X connect 19 0 20 0;
#X connect 19 1 20 1;
#X connect 20 0 21 0;
#X connect 20 1 21 1;
#X connect 21 0 1 0;
#X connect 22 0 21 3;
#X connect 23 0 20 3;
#X connect 23 0 22 0;
#X connect 24 0 18 0;
#X connect 25 0 20 2;
#X connect 25 0 21 2;
#X connect 25 0 28 0;
#X connect 25 0 28 1;
#X connect 28 0 29 1;
#X connect 29 0 23 0;
#X connect 33 0 19 3;
#X connect 33 0 18 3;
#X connect 34 0 18 2;
#X connect 34 0 19 2;
#X connect 36 0 48 0;
#X connect 37 0 45 0;
#X connect 38 0 39 0;
#X connect 39 0 40 0;
#X connect 40 0 49 0;
#X connect 40 0 63 0;
#X connect 41 0 46 0;
#X connect 42 0 43 0;
#X connect 42 1 41 1;
#X connect 43 0 41 0;
#X connect 44 0 42 0;
#X connect 45 0 44 0;
#X connect 45 1 48 0;
#X connect 46 0 51 1;
#X connect 46 0 63 1;
#X connect 47 0 38 0;
#X connect 47 1 44 0;
#X connect 48 0 47 0;
#X connect 49 0 50 0;
#X connect 49 1 50 1;
#X connect 49 1 51 0;
#X connect 50 0 52 0;
#X connect 50 0 57 0;
#X connect 50 0 64 0;
#X connect 51 0 52 1;
#X connect 52 0 53 0;
#X connect 53 0 8 1;
#X connect 53 0 56 0;
#X connect 54 0 24 1;
#X connect 54 0 16 0;
#X connect 54 0 59 0;
#X connect 55 0 54 0;
#X connect 56 0 55 0;
#X connect 56 1 54 1;
#X connect 57 0 58 0;
#X connect 58 0 59 1;
#X connect 59 0 25 0;
#X connect 60 0 64 1;
#X connect 61 0 62 0;
#X connect 61 1 60 1;
#X connect 62 0 60 0;
#X connect 63 0 61 0;
#X connect 64 0 16 1;
#X restore 170 714 pd hipass2p2zm;
#X obj 228 877 hip~ 5;
#X obj 225 845 *~;
#X obj 201 152 * 30;
#X obj 208 195 - 10;
#X obj 344 194 * 64;
#X obj 346 214 + 55;
#X connect 0 0 49 1;
#X connect 1 0 18 1;
#X connect 3 0 2 0;
#X connect 3 0 47 0;
#X connect 6 0 53 0;
#X connect 7 0 55 0;
#X connect 8 0 18 0;
#X connect 8 0 49 0;
#X connect 9 0 11 1;
#X connect 10 0 13 1;
#X connect 11 0 8 0;
#X connect 12 0 14 0;
#X connect 13 0 11 0;
#X connect 14 0 13 0;
#X connect 15 0 14 0;
#X connect 15 0 35 0;
#X connect 15 0 24 0;
#X connect 16 0 15 0;
#X connect 17 0 12 0;
#X connect 18 0 46 0;
#X connect 19 0 21 1;
#X connect 20 0 23 1;
#X connect 21 0 28 0;
#X connect 22 0 24 0;
#X connect 23 0 21 0;
#X connect 24 0 27 0;
#X connect 25 0 22 0;
#X connect 26 0 46 2;
#X connect 26 0 50 2;
#X connect 27 0 23 0;
#X connect 28 0 46 1;
#X connect 28 0 50 1;
#X connect 29 0 32 1;
#X connect 30 0 29 0;
#X connect 31 0 34 1;
#X connect 32 0 40 0;
#X connect 33 0 35 0;
#X connect 34 0 32 0;
#X connect 35 0 39 0;
#X connect 36 0 33 0;
#X connect 37 0 38 1;
#X connect 37 0 42 0;
#X connect 38 0 44 1;
#X connect 39 0 34 0;
#X connect 40 0 38 0;
#X connect 41 0 5 0;
#X connect 42 0 43 0;
#X connect 43 0 44 0;
#X connect 44 0 45 1;
#X connect 44 0 52 1;
#X connect 45 0 41 0;
#X connect 46 0 45 0;
#X connect 47 0 12 1;
#X connect 47 0 8 1;
#X connect 47 0 33 1;
#X connect 47 0 27 1;
#X connect 49 0 50 0;
#X connect 50 0 52 0;
#X connect 51 0 4 0;
#X connect 52 0 51 0;
#X connect 53 0 54 0;
#X connect 54 0 9 0;
#X connect 55 0 56 0;
#X connect 56 0 19 0;
#X restore 372 816 pd rmcricket1;
#N canvas 130 98 1683 852 chorus2 0;
#X obj 32 421 inlet~;
#X obj 531 434 switch~;
#X obj 550 378 inlet;
#X obj 81 421 inlet~;
#X obj 626 1139 throw~ \$0outl;
#X obj 814 1137 throw~ \$0outr;
#X obj 173 376 r \$0padx;
#X obj 314 379 r \$0pady;
#X obj 148 736 cos~;
#X obj 139 785 +~ 1;
#X obj 224 762 cos~;
#X obj 229 792 +~ 1;
#X obj 235 632 phasor~;
#X obj 246 862 *~ 0.3;
#X obj 315 770 cos~;
#X obj 323 799 +~ 1;
#X obj 393 767 cos~;
#X obj 398 797 +~ 1;
#X obj 156 862 *~ 0.31;
#X obj 224 734 +~ 0.16666;
#X obj 389 735 +~ 0.5;
#X obj 314 734 +~ 0.33333;
#X obj 468 763 cos~;
#X obj 469 787 +~ 1;
#X obj 494 860 *~ 0.3;
#X obj 543 768 cos~;
#X obj 548 798 +~ 1;
#X obj 559 857 *~ 0.31;
#X obj 458 734 +~ 0.66666;
#X obj 539 736 +~ 0.833333;
#X obj 334 867 *~ 0.29;
#X obj 411 861 *~ 0.29;
#X obj 233 537 * 9.9;
#X obj 237 563 + 0.1;
#X obj 59 901 abs_dly_short_vd1;
#X obj 160 819 *~;
#X obj 287 562 + 1;
#X obj 136 642 *~ 0.16666;
#X obj 411 625 line~;
#X msg 290 592 \$1 30;
#X obj 251 827 *~;
#X obj 188 904 abs_dly_short_vd1;
#X obj 341 835 *~;
#X obj 312 907 abs_dly_short_vd1;
#X obj 431 909 abs_dly_short_vd1;
#X obj 402 828 *~;
#X obj 490 827 *~;
#X obj 560 912 abs_dly_short_vd1;
#X obj 548 830 *~;
#X obj 682 916 abs_dly_short_vd1;
#X obj 287 533 * 20;
#X obj 883 838 cos~;
#X obj 874 887 +~ 1;
#X obj 959 864 cos~;
#X obj 964 894 +~ 1;
#X obj 970 734 phasor~;
#X obj 981 964 *~ 0.3;
#X obj 1050 872 cos~;
#X obj 1058 901 +~ 1;
#X obj 1128 869 cos~;
#X obj 1133 899 +~ 1;
#X obj 891 964 *~ 0.31;
#X obj 959 836 +~ 0.16666;
#X obj 1124 837 +~ 0.5;
#X obj 1049 836 +~ 0.33333;
#X obj 1203 865 cos~;
#X obj 1204 889 +~ 1;
#X obj 1229 962 *~ 0.3;
#X obj 1278 870 cos~;
#X obj 1283 900 +~ 1;
#X obj 1294 959 *~ 0.31;
#X obj 1193 836 +~ 0.66666;
#X obj 1274 838 +~ 0.833333;
#X obj 1069 969 *~ 0.29;
#X obj 1146 963 *~ 0.29;
#X obj 794 1003 abs_dly_short_vd1;
#X obj 895 921 *~;
#X obj 871 744 *~ 0.16666;
#X obj 1146 727 line~;
#X obj 986 929 *~;
#X obj 923 1006 abs_dly_short_vd1;
#X obj 1076 937 *~;
#X obj 1047 1009 abs_dly_short_vd1;
#X obj 1166 1011 abs_dly_short_vd1;
#X obj 1137 930 *~;
#X obj 1225 929 *~;
#X obj 1295 1014 abs_dly_short_vd1;
#X obj 1283 932 *~;
#X obj 1417 1018 abs_dly_short_vd1;
#X obj 217 439 *;
#X obj 297 437 *;
#X connect 0 0 37 0;
#X connect 2 0 1 0;
#X connect 3 0 77 0;
#X connect 6 0 89 1;
#X connect 6 0 89 0;
#X connect 7 0 90 1;
#X connect 7 0 90 0;
#X connect 8 0 9 0;
#X connect 9 0 35 0;
#X connect 10 0 11 0;
#X connect 11 0 40 0;
#X connect 12 0 8 0;
#X connect 12 0 19 0;
#X connect 12 0 20 0;
#X connect 12 0 21 0;
#X connect 12 0 28 0;
#X connect 12 0 29 0;
#X connect 13 0 41 1;
#X connect 14 0 15 0;
#X connect 15 0 42 0;
#X connect 16 0 17 0;
#X connect 17 0 45 0;
#X connect 18 0 34 1;
#X connect 19 0 10 0;
#X connect 20 0 16 0;
#X connect 21 0 14 0;
#X connect 22 0 23 0;
#X connect 23 0 46 0;
#X connect 24 0 47 1;
#X connect 25 0 26 0;
#X connect 26 0 48 0;
#X connect 27 0 49 1;
#X connect 28 0 22 0;
#X connect 29 0 25 0;
#X connect 30 0 43 1;
#X connect 31 0 44 1;
#X connect 32 0 33 0;
#X connect 33 0 12 0;
#X connect 33 0 55 0;
#X connect 34 0 4 0;
#X connect 35 0 18 0;
#X connect 36 0 39 0;
#X connect 37 0 34 0;
#X connect 37 0 41 0;
#X connect 37 0 43 0;
#X connect 37 0 44 0;
#X connect 37 0 47 0;
#X connect 37 0 49 0;
#X connect 38 0 35 1;
#X connect 38 0 40 1;
#X connect 38 0 42 1;
#X connect 38 0 46 1;
#X connect 38 0 48 1;
#X connect 39 0 38 0;
#X connect 39 0 78 0;
#X connect 40 0 13 0;
#X connect 41 0 5 0;
#X connect 42 0 30 0;
#X connect 43 0 4 0;
#X connect 44 0 5 0;
#X connect 45 0 31 0;
#X connect 46 0 24 0;
#X connect 47 0 4 0;
#X connect 48 0 27 0;
#X connect 49 0 5 0;
#X connect 50 0 36 0;
#X connect 51 0 52 0;
#X connect 52 0 76 0;
#X connect 53 0 54 0;
#X connect 54 0 79 0;
#X connect 55 0 51 0;
#X connect 55 0 62 0;
#X connect 55 0 63 0;
#X connect 55 0 64 0;
#X connect 55 0 71 0;
#X connect 55 0 72 0;
#X connect 56 0 80 1;
#X connect 57 0 58 0;
#X connect 58 0 81 0;
#X connect 59 0 60 0;
#X connect 60 0 84 0;
#X connect 61 0 75 1;
#X connect 62 0 53 0;
#X connect 63 0 59 0;
#X connect 64 0 57 0;
#X connect 65 0 66 0;
#X connect 66 0 85 0;
#X connect 67 0 86 1;
#X connect 68 0 69 0;
#X connect 69 0 87 0;
#X connect 70 0 88 1;
#X connect 71 0 65 0;
#X connect 72 0 68 0;
#X connect 73 0 82 1;
#X connect 74 0 83 1;
#X connect 75 0 5 0;
#X connect 76 0 61 0;
#X connect 77 0 75 0;
#X connect 77 0 80 0;
#X connect 77 0 82 0;
#X connect 77 0 83 0;
#X connect 77 0 86 0;
#X connect 77 0 88 0;
#X connect 78 0 76 1;
#X connect 78 0 79 1;
#X connect 78 0 81 1;
#X connect 78 0 85 1;
#X connect 78 0 87 1;
#X connect 79 0 56 0;
#X connect 80 0 4 0;
#X connect 81 0 73 0;
#X connect 82 0 5 0;
#X connect 83 0 4 0;
#X connect 84 0 74 0;
#X connect 85 0 67 0;
#X connect 86 0 5 0;
#X connect 87 0 70 0;
#X connect 88 0 4 0;
#X connect 89 0 32 0;
#X connect 90 0 50 0;
#X coords 0 852 1 851 140 110 0;
#X restore 402 854 pd chorus2;
#X msg 771 784 symbol chorus2;
#X obj 113 165 == 1;
#X obj 144 207 == 2;
#X obj 160 245 == 3;
#X obj 182 274 == 4;
#X obj 193 303 == 5;
#X obj 233 325 == 6;
#X obj 262 353 == 7;
#X obj 286 392 == 8;
#X obj 313 432 == 9;
#X obj 338 470 == 10;
#X obj 353 509 == 11;
#X obj 380 539 == 12;
#X obj 399 568 == 13;
#X obj 419 605 == 14;
#X obj 441 638 == 15;
#X obj 455 682 == 16;
#X obj 464 716 == 17;
#X obj 478 745 == 18;
#X obj 505 789 == 19;
#X obj 521 816 == 20;
#X msg 418 251 symbol off;
#X msg 1009 308 22;
#X obj 527 852 == 21;
#X obj 532 215 select 0 1 2 3 4 5 6 7 8 9 10 11 12 13 14 15 16 17 18
19 20 21, f 63;
#X msg 787 810 symbol phsemod;
#N canvas 693 282 963 659 phasemod1 0;
#X obj 34 32 inlet~;
#X obj 84 33 inlet~;
#X obj 601 75 switch~;
#X obj 597 18 inlet;
#X obj 5 323 *~;
#X obj 172 159 mtof;
#X obj 115 330 *~;
#X obj 3 537 throw~ \$0outl;
#X obj 162 528 throw~ \$0outr;
#X obj 269 -26 r \$0padx;
#X obj 409 -24 r \$0pady;
#X obj 25 405 cos~;
#X obj 148 381 cos~;
#X obj 156 196 phasor~;
#X obj 316 235 line~;
#X msg 317 207 \$1 20;
#X obj 260 28 * 100, f 6;
#X obj 246 64 + 5;
#X obj 226 258 env~;
#X obj 219 313 clip 0 1;
#X obj 57 273 env~;
#X obj 53 345 clip 0 1;
#X obj 22 488 *~;
#X obj 228 284 / 120;
#X obj 51 315 / 120;
#X obj 208 338 *;
#X obj 94 374 *;
#X obj 200 362 *;
#X obj 81 401 *;
#X obj 195 389 lop~ 50;
#X obj 59 444 lop~ 50;
#X obj 167 478 *~;
#X obj 352 122 * 50;
#X obj 392 83 *;
#X obj 404 62 t f f;
#X connect 0 0 4 0;
#X connect 0 0 20 0;
#X connect 1 0 6 0;
#X connect 1 0 18 0;
#X connect 3 0 2 0;
#X connect 4 0 11 0;
#X connect 5 0 13 0;
#X connect 6 0 12 0;
#X connect 9 0 16 0;
#X connect 10 0 34 0;
#X connect 11 0 22 0;
#X connect 12 0 31 0;
#X connect 13 0 11 0;
#X connect 13 0 12 0;
#X connect 14 0 6 1;
#X connect 14 0 4 1;
#X connect 15 0 14 0;
#X connect 16 0 17 0;
#X connect 17 0 5 0;
#X connect 18 0 23 0;
#X connect 19 0 25 1;
#X connect 19 0 25 0;
#X connect 20 0 24 0;
#X connect 21 0 26 1;
#X connect 21 0 26 0;
#X connect 22 0 7 0;
#X connect 23 0 19 0;
#X connect 24 0 21 0;
#X connect 25 0 27 1;
#X connect 25 0 27 0;
#X connect 26 0 28 1;
#X connect 26 0 28 0;
#X connect 27 0 29 0;
#X connect 28 0 30 0;
#X connect 29 0 31 1;
#X connect 30 0 22 1;
#X connect 31 0 8 0;
#X connect 32 0 15 0;
#X connect 33 0 32 0;
#X connect 34 0 33 0;
#X connect 34 1 33 1;
#X restore 407 882 pd phasemod1;
#N canvas 208 304 688 546 off 0;
#X obj 34 32 inlet~;
#X obj 84 33 inlet~;
#X obj 459 105 switch~;
#X obj 455 48 inlet;
#X obj 54 371 throw~ \$0outl;
#X obj 146 371 throw~ \$0outr;
#X obj 209 43 r \$0padx;
#X obj 311 47 r \$0pady;
#X connect 0 0 4 0;
#X connect 1 0 5 0;
#X connect 3 0 2 0;
#X restore 32 156 pd off;
#X obj 70 127 == 0;
#X connect 0 0 6 0;
#X connect 0 0 11 0;
#X connect 0 0 12 0;
#X connect 0 0 14 0;
#X connect 0 0 17 0;
#X connect 0 0 18 0;
#X connect 0 0 20 0;
#X connect 0 0 22 0;
#X connect 0 0 24 0;
#X connect 0 0 26 0;
#X connect 0 0 28 0;
#X connect 0 0 30 0;
#X connect 0 0 32 0;
#X connect 0 0 34 0;
#X connect 0 0 36 0;
#X connect 0 0 37 0;
#X connect 0 0 55 0;
#X connect 0 0 58 0;
#X connect 0 0 61 0;
#X connect 0 0 62 0;
#X connect 0 0 89 0;
#X connect 0 0 90 0;
#X connect 1 0 6 1;
#X connect 1 0 11 1;
#X connect 1 0 12 1;
#X connect 1 0 14 1;
#X connect 1 0 17 1;
#X connect 1 0 18 1;
#X connect 1 0 20 1;
#X connect 1 0 22 1;
#X connect 1 0 24 1;
#X connect 1 0 26 1;
#X connect 1 0 28 1;
#X connect 1 0 30 1;
#X connect 1 0 32 1;
#X connect 1 0 34 1;
#X connect 1 0 36 1;
#X connect 1 0 37 1;
#X connect 1 0 55 1;
#X connect 1 0 58 1;
#X connect 1 0 61 1;
#X connect 1 0 62 1;
#X connect 1 0 89 1;
#X connect 1 0 90 1;
#X connect 3 0 56 0;
#X connect 4 0 57 0;
#X connect 5 0 8 0;
#X connect 5 0 64 0;
#X connect 5 0 65 0;
#X connect 5 0 66 0;
#X connect 5 0 67 0;
#X connect 5 0 68 0;
#X connect 5 0 69 0;
#X connect 5 0 70 0;
#X connect 5 0 71 0;
#X connect 5 0 72 0;
#X connect 5 0 73 0;
#X connect 5 0 74 0;
#X connect 5 0 75 0;
#X connect 5 0 76 0;
#X connect 5 0 77 0;
#X connect 5 0 78 0;
#X connect 5 0 79 0;
#X connect 5 0 80 0;
#X connect 5 0 81 0;
#X connect 5 0 82 0;
#X connect 5 0 83 0;
#X connect 5 0 86 0;
#X connect 5 0 91 0;
#X connect 7 0 2 0;
#X connect 8 0 87 0;
#X connect 8 1 9 0;
#X connect 9 0 2 0;
#X connect 10 0 2 0;
#X connect 13 0 2 0;
#X connect 15 0 2 0;
#X connect 16 0 2 0;
#X connect 19 0 2 0;
#X connect 21 0 2 0;
#X connect 23 0 2 0;
#X connect 25 0 2 0;
#X connect 27 0 2 0;
#X connect 29 0 2 0;
#X connect 31 0 2 0;
#X connect 33 0 2 0;
#X connect 35 0 2 0;
#X connect 38 0 2 0;
#X connect 40 0 85 0;
#X connect 49 0 2 0;
#X connect 50 0 52 0;
#X connect 51 0 53 0;
#X connect 52 0 45 0;
#X connect 53 0 46 0;
#X connect 54 0 2 0;
#X connect 59 0 2 0;
#X connect 60 0 2 0;
#X connect 63 0 2 0;
#X connect 64 0 6 2;
#X connect 65 0 11 2;
#X connect 66 0 12 2;
#X connect 67 0 14 2;
#X connect 68 0 17 2;
#X connect 69 0 36 2;
#X connect 70 0 18 2;
#X connect 71 0 20 2;
#X connect 72 0 22 2;
#X connect 73 0 24 2;
#X connect 74 0 26 2;
#X connect 75 0 58 2;
#X connect 76 0 28 2;
#X connect 77 0 30 2;
#X connect 78 0 32 2;
#X connect 79 0 34 2;
#X connect 80 0 55 2;
#X connect 81 0 37 2;
#X connect 82 0 61 2;
#X connect 83 0 62 2;
#X connect 84 0 2 0;
#X connect 85 0 39 0;
#X connect 86 0 89 2;
#X connect 87 0 84 0;
#X connect 87 1 7 0;
#X connect 87 2 10 0;
#X connect 87 3 13 0;
#X connect 87 4 15 0;
#X connect 87 5 16 0;
#X connect 87 6 49 0;
#X connect 87 7 19 0;
#X connect 87 8 21 0;
#X connect 87 9 23 0;
#X connect 87 10 25 0;
#X connect 87 11 27 0;
#X connect 87 12 59 0;
#X connect 87 13 29 0;
#X connect 87 14 31 0;
#X connect 87 15 33 0;
#X connect 87 16 35 0;
#X connect 87 17 54 0;
#X connect 87 18 38 0;
#X connect 87 19 60 0;
#X connect 87 20 63 0;
#X connect 87 21 88 0;
#X connect 88 0 2 0;
#X connect 91 0 90 2;
