#N canvas 434 195 450 300 10;
#X obj 43 81 inlet~;
#X obj 52 249 outlet~;
#N canvas 1 78 600 400 delay-writer 0;
#X obj 96 107 inlet~;
#X obj 78 211 outlet~;
#X obj 116 144 delwrite~ \$0delay \$1;
#X connect 0 0 2 0;
#X restore 50 156 pd delay-writer;
#N canvas 1 105 280 330 delay-reader 0;
#X obj 64 106 inlet~;
#X obj 89 267 outlet~;
#X obj 192 108 inlet~;
#X obj 112 198 delread4~ \$0delay;
#X connect 2 0 3 0;
#X connect 3 0 1 0;
#X restore 52 198 pd delay-reader;
#X text 49 15 delayline with minimum 1 sampledela \, length is 1st
arg;
#X obj 194 83 inlet~;
#X text 195 66 time;
#X obj 219 217 \$0;
#X obj 219 244 outlet;
#X obj 229 176 loadbang;
#X text 220 264 \$0number;
#X connect 0 0 2 0;
#X connect 2 0 3 0;
#X connect 3 0 1 0;
#X connect 5 0 3 1;
#X connect 7 0 8 0;
#X connect 9 0 7 0;
