#N canvas 424 143 1127 860 10;
#X obj 79 8 inlet~;
#X obj 129 9 inlet~;
#X obj 572 860 outlet;
#X obj 211 13 inlet;
#X obj 257 13 inlet;
#X obj 337 56 inlet;
#X obj 113 165 == 0;
#N canvas 216 308 688 546 moddelay1comb 0;
#X obj 201 285 abs_moddelayline1;
#X obj 68 282 abs_moddelayline1;
#X obj 34 32 inlet~;
#X obj 84 33 inlet~;
#X obj 80 400 outlet~;
#X obj 158 400 outlet~;
#X obj 264 29 inlet;
#X obj 310 29 inlet;
#X obj 362 140 *;
#X obj 459 105 switch~;
#X obj 455 48 inlet;
#X obj 252 61 *;
#X obj 223 89 * 160;
#X obj 348 59 t b f;
#X msg 359 87 1;
#X obj 377 111 -;
#X obj 367 176 t b f;
#X msg 378 204 1;
#X obj 393 227 -;
#X obj 116 249 clip~ 1 4000;
#X obj 241 253 clip~ 1 4000;
#X obj 199 114 lop~ 30;
#X connect 0 0 5 0;
#X connect 1 0 4 0;
#X connect 2 0 1 0;
#X connect 3 0 0 0;
#X connect 6 0 11 1;
#X connect 6 0 11 0;
#X connect 7 0 13 0;
#X connect 8 0 16 0;
#X connect 10 0 9 0;
#X connect 11 0 12 0;
#X connect 12 0 21 0;
#X connect 13 0 14 0;
#X connect 13 1 15 1;
#X connect 14 0 15 0;
#X connect 15 0 8 1;
#X connect 15 0 8 0;
#X connect 16 0 17 0;
#X connect 16 1 18 1;
#X connect 17 0 18 0;
#X connect 18 0 0 2;
#X connect 18 0 1 2;
#X connect 19 0 1 1;
#X connect 20 0 0 1;
#X connect 21 0 19 0;
#X connect 21 0 20 0;
#X restore 16 194 pd moddelay1comb;
#X msg 479 269 symbol m-del1c;
#X obj 602 169 t f b;
#X msg 922 228 symbol;
#X obj 144 207 == 1;
#X msg 500 298 symbol delay1;
#N canvas 208 304 688 546 moddelay1 0;
#X obj 201 285 abs_moddelayline1;
#X obj 68 282 abs_moddelayline1;
#X obj 34 32 inlet~;
#X obj 84 33 inlet~;
#X obj 80 400 outlet~;
#X obj 158 400 outlet~;
#X obj 168 -147 inlet;
#X obj 356 50 inlet;
#X obj 170 184 lop~ 20;
#X obj 459 105 switch~;
#X obj 455 48 inlet;
#X obj 116 249 clip~ 1 4000;
#X obj 241 253 clip~ 1 4000;
#X obj 184 -39 *;
#X obj 170 -120 t b f;
#X msg 181 -92 1;
#X obj 199 -68 -;
#X obj 182 -11 t b f;
#X msg 193 17 1;
#X obj 208 40 -;
#X obj 207 63 * 1000;
#X connect 0 0 5 0;
#X connect 1 0 4 0;
#X connect 2 0 1 0;
#X connect 3 0 0 0;
#X connect 6 0 14 0;
#X connect 7 0 1 2;
#X connect 7 0 0 2;
#X connect 8 0 11 0;
#X connect 8 0 12 0;
#X connect 10 0 9 0;
#X connect 11 0 1 1;
#X connect 12 0 0 1;
#X connect 13 0 17 0;
#X connect 14 0 15 0;
#X connect 14 1 16 1;
#X connect 15 0 16 0;
#X connect 16 0 13 1;
#X connect 16 0 13 0;
#X connect 17 0 18 0;
#X connect 17 1 19 1;
#X connect 18 0 19 0;
#X connect 19 0 20 0;
#X connect 20 0 8 0;
#X restore 55 234 pd moddelay1;
#N canvas 82 317 754 571 plateverb1 0;
#X obj 97 356 abs_platereverb1;
#X obj 240 260 hsl 128 8 220.5 22050 1 1 empty empty damping -2 5 0
10 -262144 -1 -1 12200 1;
#X obj 240 238 hsl 128 8 0 250 0 1 empty empty predelay -2 5 0 10 -262144
-1 -1 200 1;
#X obj 240 293 hsl 128 8 0 1 0 1 empty empty input_diffusion_2 -2 5
0 10 -262144 -1 -1 9300 1;
#X obj 240 282 hsl 128 8 0 1 0 1 empty empty input_diffusion_1 -2 5
0 10 -262144 -1 -1 7200 1;
#X obj 240 315 hsl 128 8 0 1 0 1 empty empty decay_diffusion_2 -2 5
0 10 -262144 -1 -1 9400 1;
#X obj 240 304 hsl 128 8 0 1 0 1 empty empty decay_diffusion_1 -2 5
0 10 -262144 -1 -1 6600 1;
#X obj 240 326 hsl 128 8 0 5 0 1 empty empty excursion -2 5 0 10 -262144
-1 -1 5400 1;
#X obj 76 136 inlet~;
#X obj 86 441 outlet~;
#X obj 194 442 outlet~;
#X text 175 49 Reverb abstraction based on "Simplified plate-class
reverberation topology in the style of Griesinger" from the article
"Effect Design \, Part 1: Reverberator and Other Filters" by Jon Dattorro.
;
#X text 177 106 based on a Pd implementation by Anton Hornquist \,
and rjdj;
#X obj 259 160 inlet;
#X obj 303 154 inlet;
#X obj 531 153 switch~;
#X obj 550 97 inlet;
#X text 259 141 decay;
#X text 308 138 bandwith;
#X obj 283 205 + 220.5;
#X obj 296 181 * 22050;
#X obj 125 136 inlet~;
#X obj 96 174 *~ 0.5;
#X connect 0 0 9 0;
#X connect 0 1 10 0;
#X connect 1 0 0 5;
#X connect 2 0 0 1;
#X connect 3 0 0 4;
#X connect 4 0 0 3;
#X connect 5 0 0 8;
#X connect 6 0 0 7;
#X connect 7 0 0 9;
#X connect 8 0 22 0;
#X connect 13 0 0 6;
#X connect 14 0 20 0;
#X connect 16 0 15 0;
#X connect 19 0 0 2;
#X connect 20 0 19 0;
#X connect 21 0 22 0;
#X connect 22 0 0 0;
#X coords 0 571 1 570 140 110 0;
#X restore 82 270 pd plateverb1;
#X obj 160 245 == 2;
#X msg 517 323 symbol plate1;
#X obj 182 274 == 3;
#N canvas 208 304 963 659 resample 0;
#X obj 34 32 inlet~;
#X obj 84 33 inlet~;
#X obj 46 481 outlet~;
#X obj 159 474 outlet~;
#X obj 324 -59 inlet;
#X obj 414 -39 inlet;
#X obj 601 75 switch~;
#X obj 597 18 inlet;
#X obj 245 22 *;
#X obj 215 288 samphold~;
#X obj 288 191 phasor~;
#X obj 285 166 * 44100;
#X obj 85 288 samphold~;
#X obj 254 55 *;
#X obj 266 83 +;
#X obj 270 107 * 0.5;
#X obj 373 30 t b f;
#X obj 406 -15 - 0.5;
#X obj 390 7 * 0.1;
#X obj 256 0 * 0.9;
#X obj 289 -32 + 0.1;
#X obj 271 135 clip 0.005 0.5;
#X connect 0 0 12 0;
#X connect 1 0 9 0;
#X connect 4 0 20 0;
#X connect 5 0 17 0;
#X connect 7 0 6 0;
#X connect 8 0 13 1;
#X connect 8 0 13 0;
#X connect 9 0 3 0;
#X connect 10 0 9 1;
#X connect 10 0 12 1;
#X connect 11 0 10 0;
#X connect 12 0 2 0;
#X connect 13 0 14 0;
#X connect 14 0 15 0;
#X connect 15 0 21 0;
#X connect 16 0 14 0;
#X connect 16 1 14 1;
#X connect 17 0 18 0;
#X connect 18 0 16 0;
#X connect 19 0 8 1;
#X connect 19 0 8 0;
#X connect 20 0 19 0;
#X connect 21 0 11 0;
#X restore 102 299 pd resample;
#X msg 527 353 symbol resampl;
#X msg 538 377 symbol ring1;
#X obj 192 304 == 4;
#N canvas 204 302 963 659 ringmod1 0;
#X obj 34 32 inlet~;
#X obj 84 33 inlet~;
#X obj 46 481 outlet~;
#X obj 159 474 outlet~;
#X obj 324 -59 inlet;
#X obj 414 -39 inlet;
#X obj 601 75 switch~;
#X obj 597 18 inlet;
#X obj 391 20 t b f;
#X obj 406 -15 - 0.5;
#X obj 91 352 *~;
#X obj 209 203 osc~;
#X obj 214 177 mtof;
#X obj 140 349 *~;
#X obj 260 28 * 128, f 6;
#X obj 230 118 +;
#X obj 246 64 - 28;
#X connect 0 0 10 0;
#X connect 1 0 13 0;
#X connect 4 0 14 0;
#X connect 5 0 9 0;
#X connect 7 0 6 0;
#X connect 8 0 15 0;
#X connect 8 1 15 1;
#X connect 9 0 8 0;
#X connect 10 0 2 0;
#X connect 11 0 10 1;
#X connect 11 0 13 1;
#X connect 12 0 11 0;
#X connect 13 0 3 0;
#X connect 14 0 16 0;
#X connect 15 0 12 0;
#X connect 16 0 15 0;
#X restore 112 329 pd ringmod1;
#X obj 208 339 == 5;
#N canvas 206 303 688 546 flanger1 0;
#X obj -16 38 inlet~;
#X obj 84 33 inlet~;
#X obj 22 455 outlet~;
#X obj 100 455 outlet~;
#X obj 264 29 inlet;
#X obj 346 31 inlet;
#X obj 356 132 *;
#X obj 459 105 switch~;
#X obj 455 48 inlet;
#X obj 252 61 *;
#X obj 348 59 t b f;
#X msg 346 82 1;
#X obj 364 106 -;
#X obj 353 155 t b f;
#X msg 364 183 1;
#X obj 379 206 -;
#X obj 191 200 osc~;
#X obj 284 126 loadbang;
#X msg 280 155 1;
#X obj 177 381 abs_flangerfbdly1;
#X obj 22 384 abs_flangerfbdly1;
#X obj 225 111 * 32;
#X obj 195 146 + 0.001;
#X obj 177 228 +~ 1.5;
#X obj 256 240 * 16;
#X obj 172 293 *~;
#X obj 215 263 lop~ 10;
#X connect 0 0 20 0;
#X connect 1 0 19 0;
#X connect 4 0 9 1;
#X connect 4 0 9 0;
#X connect 5 0 10 0;
#X connect 6 0 13 0;
#X connect 8 0 7 0;
#X connect 9 0 21 0;
#X connect 10 0 11 0;
#X connect 10 1 12 1;
#X connect 11 0 12 0;
#X connect 12 0 6 1;
#X connect 12 0 6 0;
#X connect 13 0 14 0;
#X connect 13 1 15 1;
#X connect 14 0 15 0;
#X connect 15 0 24 0;
#X connect 15 0 20 2;
#X connect 15 0 19 2;
#X connect 16 0 23 0;
#X connect 17 0 18 0;
#X connect 18 0 16 1;
#X connect 19 0 3 0;
#X connect 20 0 2 0;
#X connect 21 0 22 0;
#X connect 22 0 16 0;
#X connect 23 0 25 0;
#X connect 24 0 26 0;
#X connect 25 0 20 1;
#X connect 25 0 19 1;
#X connect 26 0 25 1;
#X restore 132 359 pd flanger1;
#X msg 554 411 symbol flangr1;
#X obj 262 353 == 6;
#N canvas 198 299 963 659 distortiontanh1 0;
#X obj 34 32 inlet~;
#X obj 84 33 inlet~;
#X obj 30 439 outlet~;
#X obj 127 439 outlet~;
#X obj 324 -59 inlet;
#X obj 414 -39 inlet;
#X obj 601 75 switch~;
#X obj 597 18 inlet;
#X obj 122 248 *~;
#X obj 39 245 *~;
#X obj 29 329 abs_tanhdist1;
#X obj 123 330 abs_tanhdist1;
#X obj 271 43 + 1;
#X obj 384 114 * 128;
#X obj 379 139 mtof;
#X obj 384 1 t b f;
#X msg 377 32 1;
#X obj 389 67 -;
#X obj 254 263 clip 20 22050;
#X obj 123 293 lop~;
#X obj 37 296 lop~;
#X obj 286 -3 * 5;
#X connect 0 0 9 0;
#X connect 1 0 8 0;
#X connect 4 0 21 0;
#X connect 5 0 15 0;
#X connect 7 0 6 0;
#X connect 8 0 19 0;
#X connect 9 0 20 0;
#X connect 10 0 2 0;
#X connect 11 0 3 0;
#X connect 12 0 9 1;
#X connect 12 0 8 1;
#X connect 13 0 14 0;
#X connect 14 0 18 0;
#X connect 15 0 16 0;
#X connect 15 1 17 1;
#X connect 16 0 17 0;
#X connect 17 0 13 0;
#X connect 18 0 20 1;
#X connect 18 0 19 1;
#X connect 19 0 11 0;
#X connect 20 0 10 0;
#X connect 21 0 12 0;
#X restore 153 389 pd distortiontanh1;
#X msg 566 439 symbol distth1;
#N canvas 198 299 963 659 lpfilter1 0;
#X obj 34 32 inlet~;
#X obj 84 33 inlet~;
#X obj 46 481 outlet~;
#X obj 159 474 outlet~;
#X obj 324 -59 inlet;
#X obj 414 -39 inlet;
#X obj 601 75 switch~;
#X obj 597 18 inlet;
#X obj 252 176 clip~ 20 20000;
#N canvas 715 79 1076 1000 lopass2p2z 0;
#X obj -50 465 inlet~;
#X obj 129 919 outlet~;
#X obj 73 85 inlet~;
#X obj 87 200 sig~ 1;
#X obj 121 249 /~;
#X obj 219 59 samplerate~;
#X obj 110 376 sig~ 1;
#X obj 147 408 /~;
#X obj 214 340 +~;
#X obj 187 310 sig~ 1;
#X obj 251 318 *~;
#X obj 181 375 +~;
#X obj 112 295 *~;
#X text 41 361 a1/a3;
#X obj 222 407 sig~ 1;
#X obj 296 433 -~;
#X obj 299 457 *~ 2;
#X obj 286 506 *~;
#X obj 409 334 *~;
#X text 276 435 b1;
#X text 384 379 b2;
#X obj 361 397 sig~ 1;
#X obj 392 429 -~;
#X obj 377 512 *~;
#X text 99 246 c;
#X obj 397 462 +~;
#X obj 147 222 expr~ tan($v1);
#X obj 151 194 /~ 44100;
#X obj 129 153 *~ 3.14159;
#X text 408 73 resonance 0..1;
#X text 124 86 cutoff (hz);
#X text 420 186 a2= 2*a1 \, a3=a1;
#X text 420 150 c= 1/tan(pi*cutf/samplerate);
#X text 422 168 a1= 1/(1+res*c+c*c);
#X text 421 204 b1= 2*(1-c*c)*a1;
#X text 421 220 b2= (1-res*c+c*c)*a1;
#X obj 33 690 czero~;
#X obj 59 727 czero~;
#X obj 73 646 sig~ -1;
#X obj 90 670 sig~ 0;
#X obj 90 841 cpole~;
#X obj 129 888 cpole~;
#X obj 296 199 *~ 1.41421;
#X obj 307 148 -~;
#X obj 353 72 inlet~;
#X obj 279 94 sig~ 1;
#X text 28 627 zeros at fixed pos;
#X obj 178 840 *~ -1;
#X obj 184 805 expr~ sqrt($v1);
#X obj -44 595 *~;
#X obj 128 704 *~ -0.5;
#X text 219 845 2nd pole = 1st mirrored on the x axis;
#X text 183 704 b1/2 (x pos);
#X text 267 11 cookbook-like? (i cant remember where i got this from)
lp-filter;
#X obj 163 748 *~;
#X obj 183 781 -~;
#X text 217 666 pole position from coeffs:;
#X text 218 683 p=-b1/2+j*sqrt(b2-(b1/2)^2) (found somewhere on the
net...);
#X connect 0 0 49 0;
#X connect 2 0 28 0;
#X connect 3 0 4 0;
#X connect 4 0 10 0;
#X connect 4 0 12 0;
#X connect 4 0 12 1;
#X connect 4 0 18 0;
#X connect 5 0 27 1;
#X connect 6 0 7 0;
#X connect 7 0 17 1;
#X connect 7 0 23 0;
#X connect 7 0 49 1;
#X connect 8 0 11 1;
#X connect 9 0 8 0;
#X connect 10 0 8 1;
#X connect 11 0 7 1;
#X connect 12 0 11 0;
#X connect 12 0 15 1;
#X connect 12 0 25 1;
#X connect 14 0 15 0;
#X connect 15 0 16 0;
#X connect 16 0 17 0;
#X connect 17 0 50 0;
#X connect 18 0 22 1;
#X connect 21 0 22 0;
#X connect 22 0 25 0;
#X connect 23 0 55 0;
#X connect 25 0 23 1;
#X connect 26 0 4 1;
#X connect 27 0 26 0;
#X connect 28 0 27 0;
#X connect 36 0 37 0;
#X connect 36 1 37 1;
#X connect 37 0 40 0;
#X connect 37 1 40 1;
#X connect 38 0 36 2;
#X connect 38 0 37 2;
#X connect 39 0 37 3;
#X connect 39 0 36 3;
#X connect 40 0 41 0;
#X connect 40 1 41 1;
#X connect 41 0 1 0;
#X connect 42 0 10 1;
#X connect 42 0 18 1;
#X connect 43 0 42 0;
#X connect 44 0 43 1;
#X connect 45 0 43 0;
#X connect 47 0 41 3;
#X connect 48 0 40 3;
#X connect 48 0 47 0;
#X connect 49 0 36 0;
#X connect 50 0 40 2;
#X connect 50 0 41 2;
#X connect 50 0 54 0;
#X connect 50 0 54 1;
#X connect 54 0 55 1;
#X connect 55 0 48 0;
#X restore 238 291 pd lopass2p2z;
#X obj 405 125 clip 0.01 0.99;
#X obj 411 -6 * 0.98;
#X obj 300 7 *;
#X obj 254 152 lop~ 20;
#N canvas 713 77 1076 999 lopass2p2z 0;
#X obj -50 465 inlet~;
#X obj 129 919 outlet~;
#X obj 73 85 inlet~;
#X obj 87 200 sig~ 1;
#X obj 121 249 /~;
#X obj 219 59 samplerate~;
#X obj 110 376 sig~ 1;
#X obj 147 408 /~;
#X obj 214 340 +~;
#X obj 187 310 sig~ 1;
#X obj 251 318 *~;
#X obj 181 375 +~;
#X obj 112 295 *~;
#X text 41 361 a1/a3;
#X obj 222 407 sig~ 1;
#X obj 296 433 -~;
#X obj 299 457 *~ 2;
#X obj 286 506 *~;
#X obj 409 334 *~;
#X text 276 435 b1;
#X text 384 379 b2;
#X obj 361 397 sig~ 1;
#X obj 392 429 -~;
#X obj 377 512 *~;
#X text 99 246 c;
#X obj 397 462 +~;
#X obj 147 222 expr~ tan($v1);
#X obj 151 194 /~ 44100;
#X obj 129 153 *~ 3.14159;
#X text 408 73 resonance 0..1;
#X text 124 86 cutoff (hz);
#X text 420 186 a2= 2*a1 \, a3=a1;
#X text 420 150 c= 1/tan(pi*cutf/samplerate);
#X text 422 168 a1= 1/(1+res*c+c*c);
#X text 421 204 b1= 2*(1-c*c)*a1;
#X text 421 220 b2= (1-res*c+c*c)*a1;
#X obj 33 690 czero~;
#X obj 59 727 czero~;
#X obj 73 646 sig~ -1;
#X obj 90 670 sig~ 0;
#X obj 90 841 cpole~;
#X obj 129 888 cpole~;
#X obj 296 199 *~ 1.41421;
#X obj 307 148 -~;
#X obj 353 72 inlet~;
#X obj 279 94 sig~ 1;
#X text 28 627 zeros at fixed pos;
#X obj 178 840 *~ -1;
#X obj 184 805 expr~ sqrt($v1);
#X obj -44 595 *~;
#X obj 128 704 *~ -0.5;
#X text 219 845 2nd pole = 1st mirrored on the x axis;
#X text 183 704 b1/2 (x pos);
#X text 267 11 cookbook-like? (i cant remember where i got this from)
lp-filter;
#X obj 163 748 *~;
#X obj 183 781 -~;
#X text 217 666 pole position from coeffs:;
#X text 218 683 p=-b1/2+j*sqrt(b2-(b1/2)^2) (found somewhere on the
net...);
#X connect 0 0 49 0;
#X connect 2 0 28 0;
#X connect 3 0 4 0;
#X connect 4 0 10 0;
#X connect 4 0 12 0;
#X connect 4 0 12 1;
#X connect 4 0 18 0;
#X connect 5 0 27 1;
#X connect 6 0 7 0;
#X connect 7 0 17 1;
#X connect 7 0 23 0;
#X connect 7 0 49 1;
#X connect 8 0 11 1;
#X connect 9 0 8 0;
#X connect 10 0 8 1;
#X connect 11 0 7 1;
#X connect 12 0 11 0;
#X connect 12 0 15 1;
#X connect 12 0 25 1;
#X connect 14 0 15 0;
#X connect 15 0 16 0;
#X connect 16 0 17 0;
#X connect 17 0 50 0;
#X connect 18 0 22 1;
#X connect 21 0 22 0;
#X connect 22 0 25 0;
#X connect 23 0 55 0;
#X connect 25 0 23 1;
#X connect 26 0 4 1;
#X connect 27 0 26 0;
#X connect 28 0 27 0;
#X connect 36 0 37 0;
#X connect 36 1 37 1;
#X connect 37 0 40 0;
#X connect 37 1 40 1;
#X connect 38 0 36 2;
#X connect 38 0 37 2;
#X connect 39 0 37 3;
#X connect 39 0 36 3;
#X connect 40 0 41 0;
#X connect 40 1 41 1;
#X connect 41 0 1 0;
#X connect 42 0 10 1;
#X connect 42 0 18 1;
#X connect 43 0 42 0;
#X connect 44 0 43 1;
#X connect 45 0 43 0;
#X connect 47 0 41 3;
#X connect 48 0 40 3;
#X connect 48 0 47 0;
#X connect 49 0 36 0;
#X connect 50 0 40 2;
#X connect 50 0 41 2;
#X connect 50 0 54 0;
#X connect 50 0 54 1;
#X connect 54 0 55 1;
#X connect 55 0 48 0;
#X restore 90 292 pd lopass2p2z;
#X obj 298 58 * 20000;
#X obj 292 34 *;
#X connect 0 0 14 0;
#X connect 1 0 9 0;
#X connect 4 0 12 1;
#X connect 4 0 12 0;
#X connect 5 0 11 0;
#X connect 7 0 6 0;
#X connect 8 0 9 1;
#X connect 8 0 14 1;
#X connect 9 0 3 0;
#X connect 10 0 9 2;
#X connect 10 0 14 2;
#X connect 11 0 10 0;
#X connect 12 0 16 1;
#X connect 12 0 16 0;
#X connect 13 0 8 0;
#X connect 14 0 2 0;
#X connect 15 0 13 0;
#X connect 16 0 15 0;
#X restore 200 415 pd lpfilter1;
#X obj 286 392 == 7;
#X msg 577 466 symbol lpfilt1;
#X obj 313 432 == 8;
#N canvas 194 297 963 659 hpfilter1 0;
#X obj 34 32 inlet~;
#X obj 84 33 inlet~;
#X obj 46 481 outlet~;
#X obj 159 474 outlet~;
#X obj 324 -59 inlet;
#X obj 414 -39 inlet;
#X obj 601 75 switch~;
#X obj 597 18 inlet;
#X obj 252 176 clip~ 20 20000;
#X obj 405 125 clip 0.01 0.99;
#X obj 411 -6 * 0.98;
#X obj 300 7 *;
#X obj 254 152 lop~ 20;
#X obj 298 58 * 20000;
#X obj 292 34 *;
#N canvas 486 219 1076 837 hipass2p2z 0;
#X obj -47 497 inlet~;
#X obj 128 927 outlet~;
#X obj 105 93 inlet~;
#X text 401 96 resonance 0..1;
#X text 156 94 cutoff (hz);
#X text 572 141 c= tan(pi*cutf/samplerate);
#X obj 245 49 samplerate~;
#X obj 140 186 expr~ tan($v1);
#X obj 135 159 /~ 44100;
#X obj 108 128 *~ 3.14159;
#X text 91 160 c;
#X obj 143 285 sig~ 1;
#X obj 174 398 /~;
#X obj 210 362 +~;
#X obj 226 333 +~;
#X obj 270 268 *~;
#X obj 266 314 *~;
#X text 573 165 a1= 1/(1+res+c+c*c);
#X text 573 186 a2= -2*a1;
#X text 99 483 a2;
#X text 123 337 a1/a3;
#X text 574 205 b1= 2*(c*c-1)*a1;
#X obj 287 439 -~;
#X obj 310 417 sig~ 1;
#X text 256 428 b1;
#X obj 280 485 *~ 2;
#X obj 261 515 *~;
#X obj 417 339 *~;
#X text 384 379 b2;
#X obj 361 397 sig~ 1;
#X obj 392 429 -~;
#X obj 377 512 *~;
#X obj 394 472 +~;
#X text 573 221 b2= (1-res*c+c*c)*a1;
#X obj 33 690 czero~;
#X obj 59 727 czero~;
#X obj 90 841 cpole~;
#X obj 129 888 cpole~;
#X obj 178 840 *~ -1;
#X obj 184 805 expr~ sqrt($v1);
#X obj -44 595 *~;
#X obj 128 704 *~ -0.5;
#X text 219 845 2nd pole = 1st mirrored on the x axis;
#X text 183 704 b1/2 (x pos);
#X obj 163 748 *~;
#X obj 183 781 -~;
#X text 217 666 pole position from coeffs:;
#X text 218 683 p=-b1/2+j*sqrt(b2-(b1/2)^2) (found somewhere on the
net...);
#X text 573 99 cookbook-like? (i cant remember where i got this from)
hp-filter;
#X obj 343 246 *~ 1.41421;
#X obj 341 194 -~;
#X obj 305 153 sig~ 1;
#X obj 346 95 inlet~;
#X obj 90 670 sig~ 0;
#X obj 73 646 sig~ 1;
#X text 49 624 zeros at fixed pos;
#X connect 0 0 40 0;
#X connect 2 0 9 0;
#X connect 6 0 8 1;
#X connect 7 0 15 0;
#X connect 7 0 16 0;
#X connect 7 0 16 1;
#X connect 7 0 27 0;
#X connect 8 0 7 0;
#X connect 9 0 8 0;
#X connect 11 0 12 0;
#X connect 11 0 13 0;
#X connect 12 0 26 0;
#X connect 12 0 31 0;
#X connect 12 0 40 1;
#X connect 13 0 12 1;
#X connect 14 0 13 1;
#X connect 15 0 14 0;
#X connect 16 0 14 1;
#X connect 16 0 22 0;
#X connect 16 0 32 1;
#X connect 22 0 25 0;
#X connect 23 0 22 1;
#X connect 25 0 26 1;
#X connect 26 0 41 0;
#X connect 27 0 30 1;
#X connect 29 0 30 0;
#X connect 30 0 32 0;
#X connect 31 0 45 0;
#X connect 32 0 31 1;
#X connect 34 0 35 0;
#X connect 34 1 35 1;
#X connect 35 0 36 0;
#X connect 35 1 36 1;
#X connect 36 0 37 0;
#X connect 36 1 37 1;
#X connect 37 0 1 0;
#X connect 38 0 37 3;
#X connect 39 0 36 3;
#X connect 39 0 38 0;
#X connect 40 0 34 0;
#X connect 41 0 36 2;
#X connect 41 0 37 2;
#X connect 41 0 44 0;
#X connect 41 0 44 1;
#X connect 44 0 45 1;
#X connect 45 0 39 0;
#X connect 49 0 15 1;
#X connect 49 0 27 1;
#X connect 50 0 49 0;
#X connect 51 0 50 0;
#X connect 52 0 50 1;
#X connect 53 0 35 3;
#X connect 53 0 34 3;
#X connect 54 0 34 2;
#X connect 54 0 35 2;
#X restore 207 338 pd hipass2p2z;
#N canvas 486 219 1076 837 hipass2p2z 0;
#X obj -47 497 inlet~;
#X obj 128 927 outlet~;
#X obj 105 93 inlet~;
#X text 401 96 resonance 0..1;
#X text 156 94 cutoff (hz);
#X text 572 141 c= tan(pi*cutf/samplerate);
#X obj 245 49 samplerate~;
#X obj 140 186 expr~ tan($v1);
#X obj 135 159 /~ 44100;
#X obj 108 128 *~ 3.14159;
#X text 91 160 c;
#X obj 143 285 sig~ 1;
#X obj 174 398 /~;
#X obj 210 362 +~;
#X obj 226 333 +~;
#X obj 270 268 *~;
#X obj 266 314 *~;
#X text 573 165 a1= 1/(1+res+c+c*c);
#X text 573 186 a2= -2*a1;
#X text 99 483 a2;
#X text 123 337 a1/a3;
#X text 574 205 b1= 2*(c*c-1)*a1;
#X obj 287 439 -~;
#X obj 310 417 sig~ 1;
#X text 256 428 b1;
#X obj 280 485 *~ 2;
#X obj 261 515 *~;
#X obj 417 339 *~;
#X text 384 379 b2;
#X obj 361 397 sig~ 1;
#X obj 392 429 -~;
#X obj 377 512 *~;
#X obj 394 472 +~;
#X text 573 221 b2= (1-res*c+c*c)*a1;
#X obj 33 690 czero~;
#X obj 59 727 czero~;
#X obj 90 841 cpole~;
#X obj 129 888 cpole~;
#X obj 178 840 *~ -1;
#X obj 184 805 expr~ sqrt($v1);
#X obj -44 595 *~;
#X obj 128 704 *~ -0.5;
#X text 219 845 2nd pole = 1st mirrored on the x axis;
#X text 183 704 b1/2 (x pos);
#X obj 163 748 *~;
#X obj 183 781 -~;
#X text 217 666 pole position from coeffs:;
#X text 218 683 p=-b1/2+j*sqrt(b2-(b1/2)^2) (found somewhere on the
net...);
#X text 573 99 cookbook-like? (i cant remember where i got this from)
hp-filter;
#X obj 343 246 *~ 1.41421;
#X obj 341 194 -~;
#X obj 305 153 sig~ 1;
#X obj 346 95 inlet~;
#X obj 90 670 sig~ 0;
#X obj 73 646 sig~ 1;
#X text 49 624 zeros at fixed pos;
#X connect 0 0 40 0;
#X connect 2 0 9 0;
#X connect 6 0 8 1;
#X connect 7 0 15 0;
#X connect 7 0 16 0;
#X connect 7 0 16 1;
#X connect 7 0 27 0;
#X connect 8 0 7 0;
#X connect 9 0 8 0;
#X connect 11 0 12 0;
#X connect 11 0 13 0;
#X connect 12 0 26 0;
#X connect 12 0 31 0;
#X connect 12 0 40 1;
#X connect 13 0 12 1;
#X connect 14 0 13 1;
#X connect 15 0 14 0;
#X connect 16 0 14 1;
#X connect 16 0 22 0;
#X connect 16 0 32 1;
#X connect 22 0 25 0;
#X connect 23 0 22 1;
#X connect 25 0 26 1;
#X connect 26 0 41 0;
#X connect 27 0 30 1;
#X connect 29 0 30 0;
#X connect 30 0 32 0;
#X connect 31 0 45 0;
#X connect 32 0 31 1;
#X connect 34 0 35 0;
#X connect 34 1 35 1;
#X connect 35 0 36 0;
#X connect 35 1 36 1;
#X connect 36 0 37 0;
#X connect 36 1 37 1;
#X connect 37 0 1 0;
#X connect 38 0 37 3;
#X connect 39 0 36 3;
#X connect 39 0 38 0;
#X connect 40 0 34 0;
#X connect 41 0 36 2;
#X connect 41 0 37 2;
#X connect 41 0 44 0;
#X connect 41 0 44 1;
#X connect 44 0 45 1;
#X connect 45 0 39 0;
#X connect 49 0 15 1;
#X connect 49 0 27 1;
#X connect 50 0 49 0;
#X connect 51 0 50 0;
#X connect 52 0 50 1;
#X connect 53 0 35 3;
#X connect 53 0 34 3;
#X connect 54 0 34 2;
#X connect 54 0 35 2;
#X restore 102 346 pd hipass2p2z;
#X connect 0 0 16 0;
#X connect 1 0 15 0;
#X connect 4 0 11 1;
#X connect 4 0 11 0;
#X connect 5 0 10 0;
#X connect 7 0 6 0;
#X connect 8 0 16 1;
#X connect 8 0 15 1;
#X connect 9 0 16 2;
#X connect 9 0 15 2;
#X connect 10 0 9 0;
#X connect 11 0 14 1;
#X connect 11 0 14 0;
#X connect 12 0 8 0;
#X connect 13 0 12 0;
#X connect 14 0 13 0;
#X connect 15 0 3 0;
#X connect 16 0 2 0;
#X restore 216 453 pd hpfilter1;
#X msg 588 487 symbol hpfilt1;
#N canvas 184 292 963 659 vovel_filter1 0;
#X obj 34 32 inlet~;
#X obj 84 33 inlet~;
#X obj 5 638 outlet~;
#X obj 118 631 outlet~;
#X obj 324 -59 inlet;
#X obj 414 -39 inlet;
#X obj 601 75 switch~;
#X obj 597 18 inlet;
#N canvas 221 333 802 650 3filter 0;
#X obj 56 95 inlet~;
#X obj 162 96 inlet;
#X obj 219 94 inlet;
#X obj 272 94 inlet;
#X obj 396 96 inlet;
#X obj 154 230 vcf~;
#X obj 201 232 vcf~;
#X obj 264 232 vcf~;
#X obj 162 282 vcf~;
#X obj 209 284 vcf~;
#X obj 272 284 vcf~;
#X obj 82 402 *~ 2;
#X obj 74 470 outlet~;
#X connect 0 0 5 0;
#X connect 0 0 6 0;
#X connect 0 0 7 0;
#X connect 1 0 5 1;
#X connect 1 0 8 1;
#X connect 2 0 6 1;
#X connect 2 0 9 1;
#X connect 3 0 7 1;
#X connect 3 0 10 1;
#X connect 4 0 5 2;
#X connect 4 0 7 2;
#X connect 4 0 6 2;
#X connect 4 0 8 2;
#X connect 4 0 9 2;
#X connect 4 0 10 2;
#X connect 5 0 8 0;
#X connect 6 0 9 0;
#X connect 7 0 10 0;
#X connect 8 0 11 0;
#X connect 9 0 11 0;
#X connect 10 0 11 0;
#X connect 11 0 12 0;
#X restore 167 549 pd 3filter;
#N canvas 1 80 695 727 1st6freqs 0;
#X obj 39 58 inlet;
#X obj 145 33 inlet;
#X obj 534 83 inlet;
#X obj 221 610 outlet;
#X obj 62 221 -;
#X msg 48 201 1;
#X obj 42 303 +;
#X obj 39 164 t f b f;
#X obj 153 221 -;
#X msg 139 201 1;
#X obj 133 303 +;
#X obj 121 167 t f b f;
#X obj 78 388 *;
#X obj 127 453 +;
#X obj 254 333 -;
#X msg 263 303 1;
#X obj 157 400 *;
#X obj 237 250 t b b f b f;
#X obj 28 261 * 300;
#X obj 72 261 * 270;
#X obj 120 261 * 530;
#X obj 163 259 * 400;
#X obj 397 233 -;
#X msg 382 208 1;
#X obj 375 305 +;
#X obj 364 174 t f b f;
#X obj 406 267 * 640;
#X obj 363 268 * 660;
#X obj 198 522 *;
#X obj 448 409 -;
#X msg 457 379 1;
#X obj 265 526 *;
#X obj 431 326 t b b f b f;
#X obj 221 571 +;
#X connect 0 0 11 0;
#X connect 0 0 7 0;
#X connect 1 0 17 0;
#X connect 1 0 25 0;
#X connect 2 0 32 0;
#X connect 4 0 19 0;
#X connect 5 0 4 0;
#X connect 6 0 12 0;
#X connect 7 0 18 0;
#X connect 7 1 5 0;
#X connect 7 2 4 1;
#X connect 8 0 21 0;
#X connect 9 0 8 0;
#X connect 10 0 16 0;
#X connect 11 0 20 0;
#X connect 11 1 9 0;
#X connect 11 2 8 1;
#X connect 12 0 13 0;
#X connect 13 0 28 0;
#X connect 14 0 16 1;
#X connect 15 0 14 0;
#X connect 16 0 13 1;
#X connect 17 0 12 0;
#X connect 17 1 16 0;
#X connect 17 2 12 1;
#X connect 17 3 15 0;
#X connect 17 4 14 1;
#X connect 18 0 6 0;
#X connect 19 0 6 1;
#X connect 20 0 10 0;
#X connect 21 0 10 1;
#X connect 22 0 26 0;
#X connect 23 0 22 0;
#X connect 24 0 31 0;
#X connect 25 0 27 0;
#X connect 25 1 23 0;
#X connect 25 2 22 1;
#X connect 26 0 24 1;
#X connect 27 0 24 0;
#X connect 28 0 33 0;
#X connect 29 0 31 1;
#X connect 30 0 29 0;
#X connect 31 0 33 1;
#X connect 32 0 28 0;
#X connect 32 1 31 0;
#X connect 32 2 28 1;
#X connect 32 3 30 0;
#X connect 32 4 29 1;
#X connect 33 0 3 0;
#X restore 234 416 pd 1st6freqs;
#N canvas 903 221 695 727 2nd6freqs 0;
#X obj 39 58 inlet;
#X obj 145 33 inlet;
#X obj 534 83 inlet;
#X obj 221 610 outlet;
#X obj 62 221 -;
#X msg 48 201 1;
#X obj 42 303 +;
#X obj 39 164 t f b f;
#X obj 153 221 -;
#X msg 139 201 1;
#X obj 133 303 +;
#X obj 121 167 t f b f;
#X obj 78 388 *;
#X obj 127 453 +;
#X obj 254 333 -;
#X msg 263 303 1;
#X obj 157 400 *;
#X obj 237 250 t b b f b f;
#X obj 397 233 -;
#X msg 382 208 1;
#X obj 375 305 +;
#X obj 364 174 t f b f;
#X obj 198 522 *;
#X obj 448 409 -;
#X msg 457 379 1;
#X obj 265 526 *;
#X obj 431 326 t b b f b f;
#X obj 221 571 +;
#X obj 21 261 * 870;
#X obj 66 262 * 2300;
#X obj 115 259 * 1850;
#X obj 167 259 * 2000;
#X obj 350 266 * 1700;
#X obj 406 266 * 1200;
#X connect 0 0 11 0;
#X connect 0 0 7 0;
#X connect 1 0 17 0;
#X connect 1 0 21 0;
#X connect 2 0 26 0;
#X connect 4 0 29 0;
#X connect 5 0 4 0;
#X connect 6 0 12 0;
#X connect 7 0 28 0;
#X connect 7 1 5 0;
#X connect 7 2 4 1;
#X connect 8 0 31 0;
#X connect 9 0 8 0;
#X connect 10 0 16 0;
#X connect 11 0 30 0;
#X connect 11 1 9 0;
#X connect 11 2 8 1;
#X connect 12 0 13 0;
#X connect 13 0 22 0;
#X connect 14 0 16 1;
#X connect 15 0 14 0;
#X connect 16 0 13 1;
#X connect 17 0 12 0;
#X connect 17 1 16 0;
#X connect 17 2 12 1;
#X connect 17 3 15 0;
#X connect 17 4 14 1;
#X connect 18 0 33 0;
#X connect 19 0 18 0;
#X connect 20 0 25 0;
#X connect 21 0 32 0;
#X connect 21 1 19 0;
#X connect 21 2 18 1;
#X connect 22 0 27 0;
#X connect 23 0 25 1;
#X connect 24 0 23 0;
#X connect 25 0 27 1;
#X connect 26 0 22 0;
#X connect 26 1 25 0;
#X connect 26 2 22 1;
#X connect 26 3 24 0;
#X connect 26 4 23 1;
#X connect 27 0 3 0;
#X connect 28 0 6 0;
#X connect 29 0 6 1;
#X connect 30 0 10 0;
#X connect 31 0 10 1;
#X connect 32 0 20 0;
#X connect 33 0 20 1;
#X restore 337 417 pd 2nd6freqs;
#X obj 186 326 nbx 2 14 1 16 0 1 empty empty res 0 -8 0 10 -262144
-1 -1 10 256;
#N canvas 906 226 695 727 3rd6freqs 0;
#X obj 39 58 inlet;
#X obj 145 33 inlet;
#X obj 534 83 inlet;
#X obj 221 610 outlet;
#X obj 62 221 -;
#X msg 48 201 1;
#X obj 42 303 +;
#X obj 39 164 t f b f;
#X obj 153 221 -;
#X msg 139 201 1;
#X obj 133 303 +;
#X obj 121 167 t f b f;
#X obj 78 388 *;
#X obj 127 453 +;
#X obj 254 333 -;
#X msg 263 303 1;
#X obj 157 400 *;
#X obj 237 250 t b b f b f;
#X obj 397 233 -;
#X msg 382 208 1;
#X obj 375 305 +;
#X obj 364 174 t f b f;
#X obj 198 522 *;
#X obj 448 409 -;
#X msg 457 379 1;
#X obj 265 526 *;
#X obj 431 326 t b b f b f;
#X obj 221 571 +;
#X obj 15 262 * 2250;
#X obj 65 261 * 3000;
#X obj 115 259 * 2500;
#X obj 167 259 * 2550;
#X obj 349 266 * 2400;
#X obj 404 267 * 2400;
#X connect 0 0 11 0;
#X connect 0 0 7 0;
#X connect 1 0 17 0;
#X connect 1 0 21 0;
#X connect 2 0 26 0;
#X connect 4 0 29 0;
#X connect 5 0 4 0;
#X connect 6 0 12 0;
#X connect 7 0 28 0;
#X connect 7 1 5 0;
#X connect 7 2 4 1;
#X connect 8 0 31 0;
#X connect 9 0 8 0;
#X connect 10 0 16 0;
#X connect 11 0 30 0;
#X connect 11 1 9 0;
#X connect 11 2 8 1;
#X connect 12 0 13 0;
#X connect 13 0 22 0;
#X connect 14 0 16 1;
#X connect 15 0 14 0;
#X connect 16 0 13 1;
#X connect 17 0 12 0;
#X connect 17 1 16 0;
#X connect 17 2 12 1;
#X connect 17 3 15 0;
#X connect 17 4 14 1;
#X connect 18 0 33 0;
#X connect 19 0 18 0;
#X connect 20 0 25 0;
#X connect 21 0 32 0;
#X connect 21 1 19 0;
#X connect 21 2 18 1;
#X connect 22 0 27 0;
#X connect 23 0 25 1;
#X connect 24 0 23 0;
#X connect 25 0 27 1;
#X connect 26 0 22 0;
#X connect 26 1 25 0;
#X connect 26 2 22 1;
#X connect 26 3 24 0;
#X connect 26 4 23 1;
#X connect 27 0 3 0;
#X connect 28 0 6 0;
#X connect 29 0 6 1;
#X connect 30 0 10 0;
#X connect 31 0 10 1;
#X connect 32 0 20 0;
#X connect 33 0 20 1;
#X restore 435 417 pd 3rd6freqs;
#N canvas 221 333 802 650 3filter 0;
#X obj 56 95 inlet~;
#X obj 162 96 inlet;
#X obj 219 94 inlet;
#X obj 272 94 inlet;
#X obj 396 96 inlet;
#X obj 154 230 vcf~;
#X obj 201 232 vcf~;
#X obj 264 232 vcf~;
#X obj 162 282 vcf~;
#X obj 209 284 vcf~;
#X obj 272 284 vcf~;
#X obj 82 402 *~ 2;
#X obj 74 470 outlet~;
#X connect 0 0 5 0;
#X connect 0 0 6 0;
#X connect 0 0 7 0;
#X connect 1 0 5 1;
#X connect 1 0 8 1;
#X connect 2 0 6 1;
#X connect 2 0 9 1;
#X connect 3 0 7 1;
#X connect 3 0 10 1;
#X connect 4 0 5 2;
#X connect 4 0 7 2;
#X connect 4 0 6 2;
#X connect 4 0 8 2;
#X connect 4 0 9 2;
#X connect 4 0 10 2;
#X connect 5 0 8 0;
#X connect 6 0 9 0;
#X connect 7 0 10 0;
#X connect 8 0 11 0;
#X connect 9 0 11 0;
#X connect 10 0 11 0;
#X connect 11 0 12 0;
#X restore 65 539 pd 3filter;
#X obj 297 -22 * 2;
#X obj 277 30 wrap;
#X obj 319 28 < 1;
#X obj 264 91 *;
#X obj 308 99 t b f;
#X msg 299 126 1;
#X obj 312 149 -;
#X obj 357 45 >= 1;
#X obj 309 225 +;
#X obj 313 172 *;
#X obj 425 -12 * 2;
#X obj 405 40 wrap;
#X obj 447 38 < 1;
#X obj 392 101 *;
#X obj 435 80 t b f;
#X msg 426 107 1;
#X obj 439 130 -;
#X obj 485 55 >= 1;
#X obj 421 208 +;
#X obj 440 153 *;
#X obj 488 224 line;
#X msg 489 197 \$1 30;
#X obj 393 267 line;
#X msg 394 240 \$1 30;
#X obj 308 278 line;
#X msg 309 251 \$1 30;
#X obj 419 10 t f f;
#X obj 291 0 t f f;
#X obj 442 180 t b f;
#X obj 319 195 t b f;
#X connect 0 0 13 0;
#X connect 1 0 8 0;
#X connect 4 0 14 0;
#X connect 4 0 35 0;
#X connect 5 0 24 0;
#X connect 7 0 6 0;
#X connect 8 0 3 0;
#X connect 9 0 8 1;
#X connect 9 0 13 1;
#X connect 10 0 8 2;
#X connect 10 0 13 2;
#X connect 11 0 8 4;
#X connect 11 0 13 4;
#X connect 12 0 8 3;
#X connect 12 0 13 3;
#X connect 13 0 2 0;
#X connect 14 0 41 0;
#X connect 15 0 17 0;
#X connect 15 0 18 0;
#X connect 16 0 17 1;
#X connect 17 0 22 0;
#X connect 18 0 19 0;
#X connect 18 1 20 1;
#X connect 19 0 20 0;
#X connect 20 0 23 0;
#X connect 21 0 23 1;
#X connect 22 0 39 0;
#X connect 23 0 43 0;
#X connect 24 0 40 0;
#X connect 25 0 27 0;
#X connect 25 0 28 0;
#X connect 26 0 27 1;
#X connect 27 0 32 0;
#X connect 28 0 29 0;
#X connect 28 1 30 1;
#X connect 29 0 30 0;
#X connect 30 0 33 0;
#X connect 31 0 33 1;
#X connect 32 0 37 0;
#X connect 33 0 42 0;
#X connect 34 0 12 1;
#X connect 34 0 10 1;
#X connect 34 0 9 1;
#X connect 35 0 34 0;
#X connect 36 0 9 2;
#X connect 36 0 10 2;
#X connect 36 0 12 2;
#X connect 37 0 36 0;
#X connect 38 0 9 0;
#X connect 38 0 10 0;
#X connect 38 0 12 0;
#X connect 39 0 38 0;
#X connect 40 0 25 0;
#X connect 40 1 26 0;
#X connect 40 1 31 0;
#X connect 41 0 15 0;
#X connect 41 1 16 0;
#X connect 41 1 21 0;
#X connect 42 0 32 0;
#X connect 42 1 32 1;
#X connect 43 0 22 0;
#X connect 43 1 22 1;
#X restore 225 493 pd vovel_filter1;
#X obj 322 472 == 9;
#X msg 604 517 symbol vovel1;
#X obj 353 509 == 10;
#N canvas 202 301 963 659 pitchshifter1 0;
#X obj 34 32 inlet~;
#X obj 84 33 inlet~;
#X obj 46 481 outlet~;
#X obj 159 474 outlet~;
#X obj 324 -59 inlet;
#X obj 414 -39 inlet;
#X obj 601 75 switch~;
#X obj 597 18 inlet;
#X obj 391 20 t b f;
#X obj 406 -15 - 0.5;
#X obj 245 102 +;
#X msg 337 187 100;
#X obj 341 158 loadbang;
#X obj 175 293 abs_pitchshift1;
#X obj 42 287 abs_pitchshift1;
#X obj 260 28 * 24, f 6;
#X obj 246 64 - 12;
#X connect 0 0 14 0;
#X connect 1 0 13 0;
#X connect 4 0 15 0;
#X connect 5 0 9 0;
#X connect 7 0 6 0;
#X connect 8 0 10 0;
#X connect 8 1 10 1;
#X connect 9 0 8 0;
#X connect 10 0 14 1;
#X connect 10 0 13 1;
#X connect 11 0 13 2;
#X connect 11 0 14 2;
#X connect 12 0 11 0;
#X connect 13 0 3 0;
#X connect 14 0 2 0;
#X connect 15 0 16 0;
#X connect 16 0 10 0;
#X restore 256 534 pd pitchshifter1;
#X msg 620 540 symbol pshift1;
#N canvas 194 297 963 659 freqmod1 0;
#X obj 34 32 inlet~;
#X obj 84 33 inlet~;
#X obj 46 481 outlet~;
#X obj 159 474 outlet~;
#X obj 324 -59 inlet;
#X obj 414 -39 inlet;
#X obj 601 75 switch~;
#X obj 597 18 inlet;
#X obj 185 267 osc~;
#X obj 256 64 mtof;
#X obj 176 215 +~;
#X obj 72 273 osc~;
#X obj 104 225 +~;
#X obj 106 119 *~;
#X obj 165 119 *~;
#X obj 288 2 * 100, f 6;
#X obj 285 35 + 5;
#X obj 246 283 env~;
#X obj 239 338 clip 0 1;
#X obj 182 434 *~;
#X obj 117 282 env~;
#X obj 113 342 clip 0 1;
#X obj 62 448 *~;
#X obj 468 82 *;
#X obj 454 1 t b f;
#X msg 465 29 1;
#X obj 483 53 -;
#X obj 466 110 t b f;
#X msg 477 138 1;
#X obj 492 161 -;
#X obj 484 221 * 3000;
#X obj 248 309 / 120;
#X obj 120 319 / 120;
#X obj 228 363 *;
#X obj 112 370 *;
#X obj 220 387 *;
#X obj 99 397 *;
#X obj 215 414 lop~ 50;
#X obj 79 428 lop~ 50;
#X connect 0 0 13 0;
#X connect 0 0 20 0;
#X connect 1 0 14 0;
#X connect 1 0 17 0;
#X connect 4 0 15 0;
#X connect 5 0 24 0;
#X connect 7 0 6 0;
#X connect 8 0 19 0;
#X connect 9 0 8 0;
#X connect 9 0 10 1;
#X connect 9 0 12 1;
#X connect 10 0 8 0;
#X connect 11 0 22 0;
#X connect 12 0 11 0;
#X connect 13 0 12 0;
#X connect 14 0 10 0;
#X connect 15 0 16 0;
#X connect 16 0 9 0;
#X connect 17 0 31 0;
#X connect 18 0 33 1;
#X connect 18 0 33 0;
#X connect 19 0 3 0;
#X connect 20 0 32 0;
#X connect 21 0 34 1;
#X connect 21 0 34 0;
#X connect 22 0 2 0;
#X connect 23 0 27 0;
#X connect 24 0 25 0;
#X connect 24 1 26 1;
#X connect 25 0 26 0;
#X connect 26 0 23 1;
#X connect 26 0 23 0;
#X connect 27 0 28 0;
#X connect 27 1 29 1;
#X connect 28 0 29 0;
#X connect 29 0 30 0;
#X connect 30 0 14 1;
#X connect 30 0 13 1;
#X connect 31 0 18 0;
#X connect 32 0 21 0;
#X connect 33 0 35 1;
#X connect 33 0 35 0;
#X connect 34 0 36 1;
#X connect 34 0 36 0;
#X connect 35 0 37 0;
#X connect 36 0 38 0;
#X connect 37 0 19 1;
#X connect 38 0 22 1;
#X restore 290 564 pd freqmod1;
#X msg 633 572 symbol fm1;
#X obj 380 539 == 11;
#X obj 399 568 == 12;
#N canvas 190 295 963 659 bpfilter1 0;
#X obj 34 32 inlet~;
#X obj 84 33 inlet~;
#X obj -23 497 outlet~;
#X obj 159 474 outlet~;
#X obj 324 -59 inlet;
#X obj 414 -39 inlet;
#X obj 601 75 switch~;
#X obj 597 18 inlet;
#X obj 258 65 *;
#X obj 254 152 lop~ 20;
#X obj 255 127 * 20000;
#X obj 45 262 hsl 96 8 0.01 1 1 1 empty empty empty -2 -8 0 10 -204800
-1 -1 7300 1;
#X obj 223 269 clip~ 20 20000;
#X obj 208 353 clip~ 20 20000;
#N canvas 717 79 1076 1000 lopass2p2z 0;
#X obj -50 465 inlet~;
#X obj 129 919 outlet~;
#X obj 73 85 inlet~;
#X obj 87 200 sig~ 1;
#X obj 121 249 /~;
#X obj 219 59 samplerate~;
#X obj 110 376 sig~ 1;
#X obj 147 408 /~;
#X obj 214 340 +~;
#X obj 187 310 sig~ 1;
#X obj 251 318 *~;
#X obj 181 375 +~;
#X obj 112 295 *~;
#X text 41 361 a1/a3;
#X obj 222 407 sig~ 1;
#X obj 296 433 -~;
#X obj 299 457 *~ 2;
#X obj 286 506 *~;
#X obj 409 334 *~;
#X text 276 435 b1;
#X text 384 379 b2;
#X obj 361 397 sig~ 1;
#X obj 392 429 -~;
#X obj 377 512 *~;
#X text 99 246 c;
#X obj 397 462 +~;
#X obj 147 222 expr~ tan($v1);
#X obj 151 194 /~ 44100;
#X obj 129 153 *~ 3.14159;
#X text 408 73 resonance 0..1;
#X text 124 86 cutoff (hz);
#X text 420 186 a2= 2*a1 \, a3=a1;
#X text 420 150 c= 1/tan(pi*cutf/samplerate);
#X text 422 168 a1= 1/(1+res*c+c*c);
#X text 421 204 b1= 2*(1-c*c)*a1;
#X text 421 220 b2= (1-res*c+c*c)*a1;
#X obj 33 690 czero~;
#X obj 59 727 czero~;
#X obj 73 646 sig~ -1;
#X obj 90 670 sig~ 0;
#X obj 90 841 cpole~;
#X obj 129 888 cpole~;
#X obj 296 199 *~ 1.41421;
#X obj 307 148 -~;
#X obj 353 72 inlet~;
#X obj 279 94 sig~ 1;
#X text 28 627 zeros at fixed pos;
#X obj 178 840 *~ -1;
#X obj 184 805 expr~ sqrt($v1);
#X obj -44 595 *~;
#X obj 128 704 *~ -0.5;
#X text 219 845 2nd pole = 1st mirrored on the x axis;
#X text 183 704 b1/2 (x pos);
#X text 267 11 cookbook-like? (i cant remember where i got this from)
lp-filter;
#X obj 163 748 *~;
#X obj 183 781 -~;
#X text 217 666 pole position from coeffs:;
#X text 218 683 p=-b1/2+j*sqrt(b2-(b1/2)^2) (found somewhere on the
net...);
#X connect 0 0 49 0;
#X connect 2 0 28 0;
#X connect 3 0 4 0;
#X connect 4 0 10 0;
#X connect 4 0 12 0;
#X connect 4 0 12 1;
#X connect 4 0 18 0;
#X connect 5 0 27 1;
#X connect 6 0 7 0;
#X connect 7 0 17 1;
#X connect 7 0 23 0;
#X connect 7 0 49 1;
#X connect 8 0 11 1;
#X connect 9 0 8 0;
#X connect 10 0 8 1;
#X connect 11 0 7 1;
#X connect 12 0 11 0;
#X connect 12 0 15 1;
#X connect 12 0 25 1;
#X connect 14 0 15 0;
#X connect 15 0 16 0;
#X connect 16 0 17 0;
#X connect 17 0 50 0;
#X connect 18 0 22 1;
#X connect 21 0 22 0;
#X connect 22 0 25 0;
#X connect 23 0 55 0;
#X connect 25 0 23 1;
#X connect 26 0 4 1;
#X connect 27 0 26 0;
#X connect 28 0 27 0;
#X connect 36 0 37 0;
#X connect 36 1 37 1;
#X connect 37 0 40 0;
#X connect 37 1 40 1;
#X connect 38 0 36 2;
#X connect 38 0 37 2;
#X connect 39 0 37 3;
#X connect 39 0 36 3;
#X connect 40 0 41 0;
#X connect 40 1 41 1;
#X connect 41 0 1 0;
#X connect 42 0 10 1;
#X connect 42 0 18 1;
#X connect 43 0 42 0;
#X connect 44 0 43 1;
#X connect 45 0 43 0;
#X connect 47 0 41 3;
#X connect 48 0 40 3;
#X connect 48 0 47 0;
#X connect 49 0 36 0;
#X connect 50 0 40 2;
#X connect 50 0 41 2;
#X connect 50 0 54 0;
#X connect 50 0 54 1;
#X connect 54 0 55 1;
#X connect 55 0 48 0;
#X restore 105 334 pd lopass2p2z;
#N canvas 486 219 1076 837 hipass2p2z 0;
#X obj -47 497 inlet~;
#X obj 128 927 outlet~;
#X obj 105 93 inlet~;
#X text 401 96 resonance 0..1;
#X text 156 94 cutoff (hz);
#X text 572 141 c= tan(pi*cutf/samplerate);
#X obj 245 49 samplerate~;
#X obj 140 186 expr~ tan($v1);
#X obj 135 159 /~ 44100;
#X obj 108 128 *~ 3.14159;
#X text 91 160 c;
#X obj 143 285 sig~ 1;
#X obj 174 398 /~;
#X obj 210 362 +~;
#X obj 226 333 +~;
#X obj 270 268 *~;
#X obj 266 314 *~;
#X text 573 165 a1= 1/(1+res+c+c*c);
#X text 573 186 a2= -2*a1;
#X text 99 483 a2;
#X text 123 337 a1/a3;
#X text 574 205 b1= 2*(c*c-1)*a1;
#X obj 287 439 -~;
#X obj 310 417 sig~ 1;
#X text 256 428 b1;
#X obj 280 485 *~ 2;
#X obj 261 515 *~;
#X obj 417 339 *~;
#X text 384 379 b2;
#X obj 361 397 sig~ 1;
#X obj 392 429 -~;
#X obj 377 512 *~;
#X obj 394 472 +~;
#X text 573 221 b2= (1-res*c+c*c)*a1;
#X obj 33 690 czero~;
#X obj 59 727 czero~;
#X obj 90 841 cpole~;
#X obj 129 888 cpole~;
#X obj 178 840 *~ -1;
#X obj 184 805 expr~ sqrt($v1);
#X obj -44 595 *~;
#X obj 128 704 *~ -0.5;
#X text 219 845 2nd pole = 1st mirrored on the x axis;
#X text 183 704 b1/2 (x pos);
#X obj 163 748 *~;
#X obj 183 781 -~;
#X text 217 666 pole position from coeffs:;
#X text 218 683 p=-b1/2+j*sqrt(b2-(b1/2)^2) (found somewhere on the
net...);
#X text 573 99 cookbook-like? (i cant remember where i got this from)
hp-filter;
#X obj 343 246 *~ 1.41421;
#X obj 341 194 -~;
#X obj 305 153 sig~ 1;
#X obj 346 95 inlet~;
#X obj 90 670 sig~ 0;
#X obj 73 646 sig~ 1;
#X text 49 624 zeros at fixed pos;
#X connect 0 0 40 0;
#X connect 2 0 9 0;
#X connect 6 0 8 1;
#X connect 7 0 15 0;
#X connect 7 0 16 0;
#X connect 7 0 16 1;
#X connect 7 0 27 0;
#X connect 8 0 7 0;
#X connect 9 0 8 0;
#X connect 11 0 12 0;
#X connect 11 0 13 0;
#X connect 12 0 26 0;
#X connect 12 0 31 0;
#X connect 12 0 40 1;
#X connect 13 0 12 1;
#X connect 14 0 13 1;
#X connect 15 0 14 0;
#X connect 16 0 14 1;
#X connect 16 0 22 0;
#X connect 16 0 32 1;
#X connect 22 0 25 0;
#X connect 23 0 22 1;
#X connect 25 0 26 1;
#X connect 26 0 41 0;
#X connect 27 0 30 1;
#X connect 29 0 30 0;
#X connect 30 0 32 0;
#X connect 31 0 45 0;
#X connect 32 0 31 1;
#X connect 34 0 35 0;
#X connect 34 1 35 1;
#X connect 35 0 36 0;
#X connect 35 1 36 1;
#X connect 36 0 37 0;
#X connect 36 1 37 1;
#X connect 37 0 1 0;
#X connect 38 0 37 3;
#X connect 39 0 36 3;
#X connect 39 0 38 0;
#X connect 40 0 34 0;
#X connect 41 0 36 2;
#X connect 41 0 37 2;
#X connect 41 0 44 0;
#X connect 41 0 44 1;
#X connect 44 0 45 1;
#X connect 45 0 39 0;
#X connect 49 0 15 1;
#X connect 49 0 27 1;
#X connect 50 0 49 0;
#X connect 51 0 50 0;
#X connect 52 0 50 1;
#X connect 53 0 35 3;
#X connect 53 0 34 3;
#X connect 54 0 34 2;
#X connect 54 0 35 2;
#X restore 90 416 pd hipass2p2z;
#N canvas 717 79 1076 1000 lopass2p2z 0;
#X obj -50 465 inlet~;
#X obj 129 919 outlet~;
#X obj 73 85 inlet~;
#X obj 87 200 sig~ 1;
#X obj 121 249 /~;
#X obj 219 59 samplerate~;
#X obj 110 376 sig~ 1;
#X obj 147 408 /~;
#X obj 214 340 +~;
#X obj 187 310 sig~ 1;
#X obj 251 318 *~;
#X obj 181 375 +~;
#X obj 112 295 *~;
#X text 41 361 a1/a3;
#X obj 222 407 sig~ 1;
#X obj 296 433 -~;
#X obj 299 457 *~ 2;
#X obj 286 506 *~;
#X obj 409 334 *~;
#X text 276 435 b1;
#X text 384 379 b2;
#X obj 361 397 sig~ 1;
#X obj 392 429 -~;
#X obj 377 512 *~;
#X text 99 246 c;
#X obj 397 462 +~;
#X obj 147 222 expr~ tan($v1);
#X obj 151 194 /~ 44100;
#X obj 129 153 *~ 3.14159;
#X text 408 73 resonance 0..1;
#X text 124 86 cutoff (hz);
#X text 420 186 a2= 2*a1 \, a3=a1;
#X text 420 150 c= 1/tan(pi*cutf/samplerate);
#X text 422 168 a1= 1/(1+res*c+c*c);
#X text 421 204 b1= 2*(1-c*c)*a1;
#X text 421 220 b2= (1-res*c+c*c)*a1;
#X obj 33 690 czero~;
#X obj 59 727 czero~;
#X obj 73 646 sig~ -1;
#X obj 90 670 sig~ 0;
#X obj 90 841 cpole~;
#X obj 129 888 cpole~;
#X obj 296 199 *~ 1.41421;
#X obj 307 148 -~;
#X obj 353 72 inlet~;
#X obj 279 94 sig~ 1;
#X text 28 627 zeros at fixed pos;
#X obj 178 840 *~ -1;
#X obj 184 805 expr~ sqrt($v1);
#X obj -44 595 *~;
#X obj 128 704 *~ -0.5;
#X text 219 845 2nd pole = 1st mirrored on the x axis;
#X text 183 704 b1/2 (x pos);
#X text 267 11 cookbook-like? (i cant remember where i got this from)
lp-filter;
#X obj 163 748 *~;
#X obj 183 781 -~;
#X text 217 666 pole position from coeffs:;
#X text 218 683 p=-b1/2+j*sqrt(b2-(b1/2)^2) (found somewhere on the
net...);
#X connect 0 0 49 0;
#X connect 2 0 28 0;
#X connect 3 0 4 0;
#X connect 4 0 10 0;
#X connect 4 0 12 0;
#X connect 4 0 12 1;
#X connect 4 0 18 0;
#X connect 5 0 27 1;
#X connect 6 0 7 0;
#X connect 7 0 17 1;
#X connect 7 0 23 0;
#X connect 7 0 49 1;
#X connect 8 0 11 1;
#X connect 9 0 8 0;
#X connect 10 0 8 1;
#X connect 11 0 7 1;
#X connect 12 0 11 0;
#X connect 12 0 15 1;
#X connect 12 0 25 1;
#X connect 14 0 15 0;
#X connect 15 0 16 0;
#X connect 16 0 17 0;
#X connect 17 0 50 0;
#X connect 18 0 22 1;
#X connect 21 0 22 0;
#X connect 22 0 25 0;
#X connect 23 0 55 0;
#X connect 25 0 23 1;
#X connect 26 0 4 1;
#X connect 27 0 26 0;
#X connect 28 0 27 0;
#X connect 36 0 37 0;
#X connect 36 1 37 1;
#X connect 37 0 40 0;
#X connect 37 1 40 1;
#X connect 38 0 36 2;
#X connect 38 0 37 2;
#X connect 39 0 37 3;
#X connect 39 0 36 3;
#X connect 40 0 41 0;
#X connect 40 1 41 1;
#X connect 41 0 1 0;
#X connect 42 0 10 1;
#X connect 42 0 18 1;
#X connect 43 0 42 0;
#X connect 44 0 43 1;
#X connect 45 0 43 0;
#X connect 47 0 41 3;
#X connect 48 0 40 3;
#X connect 48 0 47 0;
#X connect 49 0 36 0;
#X connect 50 0 40 2;
#X connect 50 0 41 2;
#X connect 50 0 54 0;
#X connect 50 0 54 1;
#X connect 54 0 55 1;
#X connect 55 0 48 0;
#X restore -18 365 pd lopass2p2z;
#N canvas 486 219 1076 837 hipass2p2z 0;
#X obj -47 497 inlet~;
#X obj 128 927 outlet~;
#X obj 105 93 inlet~;
#X text 401 96 resonance 0..1;
#X text 156 94 cutoff (hz);
#X text 572 141 c= tan(pi*cutf/samplerate);
#X obj 245 49 samplerate~;
#X obj 140 186 expr~ tan($v1);
#X obj 135 159 /~ 44100;
#X obj 108 128 *~ 3.14159;
#X text 91 160 c;
#X obj 143 285 sig~ 1;
#X obj 174 398 /~;
#X obj 210 362 +~;
#X obj 226 333 +~;
#X obj 270 268 *~;
#X obj 266 314 *~;
#X text 573 165 a1= 1/(1+res+c+c*c);
#X text 573 186 a2= -2*a1;
#X text 99 483 a2;
#X text 123 337 a1/a3;
#X text 574 205 b1= 2*(c*c-1)*a1;
#X obj 287 439 -~;
#X obj 310 417 sig~ 1;
#X text 256 428 b1;
#X obj 280 485 *~ 2;
#X obj 261 515 *~;
#X obj 417 339 *~;
#X text 384 379 b2;
#X obj 361 397 sig~ 1;
#X obj 392 429 -~;
#X obj 377 512 *~;
#X obj 394 472 +~;
#X text 573 221 b2= (1-res*c+c*c)*a1;
#X obj 33 690 czero~;
#X obj 59 727 czero~;
#X obj 90 841 cpole~;
#X obj 129 888 cpole~;
#X obj 178 840 *~ -1;
#X obj 184 805 expr~ sqrt($v1);
#X obj -44 595 *~;
#X obj 128 704 *~ -0.5;
#X text 219 845 2nd pole = 1st mirrored on the x axis;
#X text 183 704 b1/2 (x pos);
#X obj 163 748 *~;
#X obj 183 781 -~;
#X text 217 666 pole position from coeffs:;
#X text 218 683 p=-b1/2+j*sqrt(b2-(b1/2)^2) (found somewhere on the
net...);
#X text 573 99 cookbook-like? (i cant remember where i got this from)
hp-filter;
#X obj 343 246 *~ 1.41421;
#X obj 341 194 -~;
#X obj 305 153 sig~ 1;
#X obj 346 95 inlet~;
#X obj 90 670 sig~ 0;
#X obj 73 646 sig~ 1;
#X text 49 624 zeros at fixed pos;
#X connect 0 0 40 0;
#X connect 2 0 9 0;
#X connect 6 0 8 1;
#X connect 7 0 15 0;
#X connect 7 0 16 0;
#X connect 7 0 16 1;
#X connect 7 0 27 0;
#X connect 8 0 7 0;
#X connect 9 0 8 0;
#X connect 11 0 12 0;
#X connect 11 0 13 0;
#X connect 12 0 26 0;
#X connect 12 0 31 0;
#X connect 12 0 40 1;
#X connect 13 0 12 1;
#X connect 14 0 13 1;
#X connect 15 0 14 0;
#X connect 16 0 14 1;
#X connect 16 0 22 0;
#X connect 16 0 32 1;
#X connect 22 0 25 0;
#X connect 23 0 22 1;
#X connect 25 0 26 1;
#X connect 26 0 41 0;
#X connect 27 0 30 1;
#X connect 29 0 30 0;
#X connect 30 0 32 0;
#X connect 31 0 45 0;
#X connect 32 0 31 1;
#X connect 34 0 35 0;
#X connect 34 1 35 1;
#X connect 35 0 36 0;
#X connect 35 1 36 1;
#X connect 36 0 37 0;
#X connect 36 1 37 1;
#X connect 37 0 1 0;
#X connect 38 0 37 3;
#X connect 39 0 36 3;
#X connect 39 0 38 0;
#X connect 40 0 34 0;
#X connect 41 0 36 2;
#X connect 41 0 37 2;
#X connect 41 0 44 0;
#X connect 41 0 44 1;
#X connect 44 0 45 1;
#X connect 45 0 39 0;
#X connect 49 0 15 1;
#X connect 49 0 27 1;
#X connect 50 0 49 0;
#X connect 51 0 50 0;
#X connect 52 0 50 1;
#X connect 53 0 35 3;
#X connect 53 0 34 3;
#X connect 54 0 34 2;
#X connect 54 0 35 2;
#X restore -33 447 pd hipass2p2z;
#X obj 414 -14 * 0.5;
#X obj 380 95 +;
#X obj 387 62 t b f;
#X obj 375 165 *;
#X obj 372 241 lop~ 20;
#X obj 373 216 * 20000;
#X obj 384 122 clip 0 1;
#X obj 373 189 *;
#X obj 249 99 *;
#X connect 0 0 16 0;
#X connect 1 0 14 0;
#X connect 4 0 8 1;
#X connect 4 0 8 0;
#X connect 4 0 19 0;
#X connect 5 0 18 0;
#X connect 7 0 6 0;
#X connect 8 0 26 1;
#X connect 8 0 26 0;
#X connect 9 0 13 0;
#X connect 10 0 9 0;
#X connect 11 0 14 2;
#X connect 11 0 15 2;
#X connect 11 0 16 2;
#X connect 11 0 17 2;
#X connect 12 0 14 1;
#X connect 12 0 16 1;
#X connect 13 0 15 1;
#X connect 13 0 17 1;
#X connect 14 0 15 0;
#X connect 15 0 3 0;
#X connect 16 0 17 0;
#X connect 17 0 2 0;
#X connect 18 0 20 0;
#X connect 19 0 24 0;
#X connect 20 0 19 0;
#X connect 20 1 19 1;
#X connect 21 0 25 1;
#X connect 21 0 25 0;
#X connect 22 0 12 0;
#X connect 23 0 22 0;
#X connect 24 0 21 1;
#X connect 24 0 21 0;
#X connect 25 0 23 0;
#X connect 26 0 10 0;
#X restore 301 595 pd bpfilter1;
#X msg 645 599 symbol hlbpass1;
#N canvas 192 296 963 659 randomlpfilter1 0;
#X obj 34 32 inlet~;
#X obj 103 34 inlet~;
#X obj 46 481 outlet~;
#X obj 159 474 outlet~;
#X obj 182 -235 inlet;
#X obj 366 -267 inlet;
#X obj 601 75 switch~;
#X obj 597 18 inlet;
#X obj 223 215 clip~ 20 20000;
#N canvas 715 79 1076 1000 lopass2p2z 0;
#X obj -50 465 inlet~;
#X obj 129 919 outlet~;
#X obj 73 85 inlet~;
#X obj 87 200 sig~ 1;
#X obj 121 249 /~;
#X obj 219 59 samplerate~;
#X obj 110 376 sig~ 1;
#X obj 147 408 /~;
#X obj 214 340 +~;
#X obj 187 310 sig~ 1;
#X obj 251 318 *~;
#X obj 181 375 +~;
#X obj 112 295 *~;
#X text 41 361 a1/a3;
#X obj 222 407 sig~ 1;
#X obj 296 433 -~;
#X obj 299 457 *~ 2;
#X obj 286 506 *~;
#X obj 409 334 *~;
#X text 276 435 b1;
#X text 384 379 b2;
#X obj 361 397 sig~ 1;
#X obj 392 429 -~;
#X obj 377 512 *~;
#X text 99 246 c;
#X obj 397 462 +~;
#X obj 147 222 expr~ tan($v1);
#X obj 151 194 /~ 44100;
#X obj 129 153 *~ 3.14159;
#X text 408 73 resonance 0..1;
#X text 124 86 cutoff (hz);
#X text 420 186 a2= 2*a1 \, a3=a1;
#X text 420 150 c= 1/tan(pi*cutf/samplerate);
#X text 422 168 a1= 1/(1+res*c+c*c);
#X text 421 204 b1= 2*(1-c*c)*a1;
#X text 421 220 b2= (1-res*c+c*c)*a1;
#X obj 33 690 czero~;
#X obj 59 727 czero~;
#X obj 73 646 sig~ -1;
#X obj 90 670 sig~ 0;
#X obj 90 841 cpole~;
#X obj 129 888 cpole~;
#X obj 296 199 *~ 1.41421;
#X obj 307 148 -~;
#X obj 353 72 inlet~;
#X obj 279 94 sig~ 1;
#X text 28 627 zeros at fixed pos;
#X obj 178 840 *~ -1;
#X obj 184 805 expr~ sqrt($v1);
#X obj -44 595 *~;
#X obj 128 704 *~ -0.5;
#X text 219 845 2nd pole = 1st mirrored on the x axis;
#X text 183 704 b1/2 (x pos);
#X text 267 11 cookbook-like? (i cant remember where i got this from)
lp-filter;
#X obj 163 748 *~;
#X obj 183 781 -~;
#X text 217 666 pole position from coeffs:;
#X text 218 683 p=-b1/2+j*sqrt(b2-(b1/2)^2) (found somewhere on the
net...);
#X connect 0 0 49 0;
#X connect 2 0 28 0;
#X connect 3 0 4 0;
#X connect 4 0 10 0;
#X connect 4 0 12 0;
#X connect 4 0 12 1;
#X connect 4 0 18 0;
#X connect 5 0 27 1;
#X connect 6 0 7 0;
#X connect 7 0 17 1;
#X connect 7 0 23 0;
#X connect 7 0 49 1;
#X connect 8 0 11 1;
#X connect 9 0 8 0;
#X connect 10 0 8 1;
#X connect 11 0 7 1;
#X connect 12 0 11 0;
#X connect 12 0 15 1;
#X connect 12 0 25 1;
#X connect 14 0 15 0;
#X connect 15 0 16 0;
#X connect 16 0 17 0;
#X connect 17 0 50 0;
#X connect 18 0 22 1;
#X connect 21 0 22 0;
#X connect 22 0 25 0;
#X connect 23 0 55 0;
#X connect 25 0 23 1;
#X connect 26 0 4 1;
#X connect 27 0 26 0;
#X connect 28 0 27 0;
#X connect 36 0 37 0;
#X connect 36 1 37 1;
#X connect 37 0 40 0;
#X connect 37 1 40 1;
#X connect 38 0 36 2;
#X connect 38 0 37 2;
#X connect 39 0 37 3;
#X connect 39 0 36 3;
#X connect 40 0 41 0;
#X connect 40 1 41 1;
#X connect 41 0 1 0;
#X connect 42 0 10 1;
#X connect 42 0 18 1;
#X connect 43 0 42 0;
#X connect 44 0 43 1;
#X connect 45 0 43 0;
#X connect 47 0 41 3;
#X connect 48 0 40 3;
#X connect 48 0 47 0;
#X connect 49 0 36 0;
#X connect 50 0 40 2;
#X connect 50 0 41 2;
#X connect 50 0 54 0;
#X connect 50 0 54 1;
#X connect 54 0 55 1;
#X connect 55 0 48 0;
#X restore 238 291 pd lopass2p2z;
#X obj 223 187 lop~ 20;
#N canvas 713 77 1076 999 lopass2p2z 0;
#X obj -50 465 inlet~;
#X obj 129 919 outlet~;
#X obj 73 85 inlet~;
#X obj 87 200 sig~ 1;
#X obj 121 249 /~;
#X obj 219 59 samplerate~;
#X obj 110 376 sig~ 1;
#X obj 147 408 /~;
#X obj 214 340 +~;
#X obj 187 310 sig~ 1;
#X obj 251 318 *~;
#X obj 181 375 +~;
#X obj 112 295 *~;
#X text 41 361 a1/a3;
#X obj 222 407 sig~ 1;
#X obj 296 433 -~;
#X obj 299 457 *~ 2;
#X obj 286 506 *~;
#X obj 409 334 *~;
#X text 276 435 b1;
#X text 384 379 b2;
#X obj 361 397 sig~ 1;
#X obj 392 429 -~;
#X obj 377 512 *~;
#X text 99 246 c;
#X obj 397 462 +~;
#X obj 147 222 expr~ tan($v1);
#X obj 151 194 /~ 44100;
#X obj 129 153 *~ 3.14159;
#X text 408 73 resonance 0..1;
#X text 124 86 cutoff (hz);
#X text 420 186 a2= 2*a1 \, a3=a1;
#X text 420 150 c= 1/tan(pi*cutf/samplerate);
#X text 422 168 a1= 1/(1+res*c+c*c);
#X text 421 204 b1= 2*(1-c*c)*a1;
#X text 421 220 b2= (1-res*c+c*c)*a1;
#X obj 33 690 czero~;
#X obj 59 727 czero~;
#X obj 73 646 sig~ -1;
#X obj 90 670 sig~ 0;
#X obj 90 841 cpole~;
#X obj 129 888 cpole~;
#X obj 296 199 *~ 1.41421;
#X obj 307 148 -~;
#X obj 353 72 inlet~;
#X obj 279 94 sig~ 1;
#X text 28 627 zeros at fixed pos;
#X obj 178 840 *~ -1;
#X obj 184 805 expr~ sqrt($v1);
#X obj -44 595 *~;
#X obj 128 704 *~ -0.5;
#X text 219 845 2nd pole = 1st mirrored on the x axis;
#X text 183 704 b1/2 (x pos);
#X text 267 11 cookbook-like? (i cant remember where i got this from)
lp-filter;
#X obj 163 748 *~;
#X obj 183 781 -~;
#X text 217 666 pole position from coeffs:;
#X text 218 683 p=-b1/2+j*sqrt(b2-(b1/2)^2) (found somewhere on the
net...);
#X connect 0 0 49 0;
#X connect 2 0 28 0;
#X connect 3 0 4 0;
#X connect 4 0 10 0;
#X connect 4 0 12 0;
#X connect 4 0 12 1;
#X connect 4 0 18 0;
#X connect 5 0 27 1;
#X connect 6 0 7 0;
#X connect 7 0 17 1;
#X connect 7 0 23 0;
#X connect 7 0 49 1;
#X connect 8 0 11 1;
#X connect 9 0 8 0;
#X connect 10 0 8 1;
#X connect 11 0 7 1;
#X connect 12 0 11 0;
#X connect 12 0 15 1;
#X connect 12 0 25 1;
#X connect 14 0 15 0;
#X connect 15 0 16 0;
#X connect 16 0 17 0;
#X connect 17 0 50 0;
#X connect 18 0 22 1;
#X connect 21 0 22 0;
#X connect 22 0 25 0;
#X connect 23 0 55 0;
#X connect 25 0 23 1;
#X connect 26 0 4 1;
#X connect 27 0 26 0;
#X connect 28 0 27 0;
#X connect 36 0 37 0;
#X connect 36 1 37 1;
#X connect 37 0 40 0;
#X connect 37 1 40 1;
#X connect 38 0 36 2;
#X connect 38 0 37 2;
#X connect 39 0 37 3;
#X connect 39 0 36 3;
#X connect 40 0 41 0;
#X connect 40 1 41 1;
#X connect 41 0 1 0;
#X connect 42 0 10 1;
#X connect 42 0 18 1;
#X connect 43 0 42 0;
#X connect 44 0 43 1;
#X connect 45 0 43 0;
#X connect 47 0 41 3;
#X connect 48 0 40 3;
#X connect 48 0 47 0;
#X connect 49 0 36 0;
#X connect 50 0 40 2;
#X connect 50 0 41 2;
#X connect 50 0 54 0;
#X connect 50 0 54 1;
#X connect 54 0 55 1;
#X connect 55 0 48 0;
#X restore 90 292 pd lopass2p2z;
#X msg 434 164 0.7;
#X obj 480 -126 loadbang;
#X obj 366 -161 *;
#X obj 358 -234 t b f;
#X msg 356 -211 1;
#X obj 374 -187 -;
#X obj 363 -138 t b f;
#X msg 374 -110 1;
#X obj 375 -86 -;
#X obj 217 135 -;
#X obj 207 76 t b f;
#X msg 198 106 120;
#X obj 217 161 mtof;
#X obj 364 -60 * 100;
#X obj 211 44 *;
#X obj 287 71 t b f;
#X obj 206 -12 random 1000;
#X obj 209 12 / 1000;
#X obj 209 -33 metro 444;
#X obj 209 -60 + 20;
#X msg 317 -88 bang;
#X obj 211 -83 * 450;
#X obj 197 -106 *;
#X obj 189 -179 t b f;
#X obj 205 -132 -;
#X msg 181 -156 1;
#X connect 0 0 11 0;
#X connect 1 0 9 0;
#X connect 4 0 35 0;
#X connect 5 0 15 0;
#X connect 7 0 6 0;
#X connect 8 0 9 1;
#X connect 8 0 11 1;
#X connect 9 0 3 0;
#X connect 10 0 8 0;
#X connect 11 0 2 0;
#X connect 12 0 9 2;
#X connect 12 0 11 2;
#X connect 13 0 12 0;
#X connect 13 0 32 0;
#X connect 14 0 18 0;
#X connect 15 0 16 0;
#X connect 15 1 17 1;
#X connect 16 0 17 0;
#X connect 17 0 14 1;
#X connect 17 0 14 0;
#X connect 18 0 19 0;
#X connect 18 1 20 1;
#X connect 19 0 20 0;
#X connect 20 0 25 0;
#X connect 21 0 24 0;
#X connect 22 0 23 0;
#X connect 22 1 21 1;
#X connect 23 0 21 0;
#X connect 24 0 10 0;
#X connect 25 0 27 0;
#X connect 26 0 22 0;
#X connect 27 0 26 0;
#X connect 27 1 26 1;
#X connect 28 0 29 0;
#X connect 29 0 26 0;
#X connect 30 0 28 0;
#X connect 31 0 30 1;
#X connect 32 0 30 0;
#X connect 33 0 31 0;
#X connect 34 0 33 0;
#X connect 35 0 37 0;
#X connect 35 1 36 1;
#X connect 36 0 34 1;
#X connect 36 0 34 0;
#X connect 37 0 36 0;
#X restore 304 633 pd randomlpfilter1;
#X obj 419 605 == 13;
#X msg 680 625 symbol randlp1;
#X obj 441 638 == 14;
#N canvas 186 293 963 659 bufferfx1 0;
#X obj -18 214 inlet~;
#X obj 60 206 inlet~;
#X obj 65 665 outlet~;
#X obj 211 657 outlet~;
#X obj 203 -124 inlet;
#X obj 369 -132 inlet;
#X obj 601 75 switch~;
#X obj 597 18 inlet;
#X obj 480 -126 loadbang;
#X msg 467 -76 bang;
#X obj 282 402 phasor~;
#X obj 307 445 *~;
#X obj 377 382 /;
#X obj 373 308 t b f;
#X obj 179 293 metro 500;
#X msg 267 329 1;
#X obj 177 319 t b b;
#X msg 159 340 start;
#X msg 208 339 stop;
#X obj 334 245 + 3;
#X obj 236 237 line;
#X msg 235 206 \$1 20;
#X obj 345 204 line;
#X msg 345 178 \$1 20;
#X msg 346 347 44100;
#X obj 90 562 abs_table_bufferfx1;
#X obj 229 559 abs_table_bufferfx1;
#X obj 152 131 t b;
#X obj 210 83 * 970;
#X obj 209 114 + 30;
#X obj 368 74 * 67;
#X obj 365 95 + 3;
#X obj 205 -93 *;
#X obj 362 -101 *;
#X obj 210 -50 *;
#X obj 367 -58 *;
#X connect 0 0 25 1;
#X connect 1 0 26 1;
#X connect 4 0 32 1;
#X connect 4 0 32 0;
#X connect 5 0 33 1;
#X connect 5 0 33 0;
#X connect 7 0 6 0;
#X connect 8 0 9 0;
#X connect 9 0 27 0;
#X connect 10 0 11 0;
#X connect 11 0 25 2;
#X connect 11 0 26 2;
#X connect 12 0 11 1;
#X connect 13 0 24 0;
#X connect 13 1 12 1;
#X connect 14 0 15 0;
#X connect 14 0 16 0;
#X connect 15 0 10 1;
#X connect 16 0 17 0;
#X connect 16 1 18 0;
#X connect 17 0 25 0;
#X connect 17 0 26 0;
#X connect 18 0 25 0;
#X connect 18 0 26 0;
#X connect 19 0 13 0;
#X connect 19 0 10 0;
#X connect 20 0 14 1;
#X connect 21 0 20 0;
#X connect 22 0 19 0;
#X connect 23 0 22 0;
#X connect 24 0 12 0;
#X connect 25 0 2 0;
#X connect 26 0 3 0;
#X connect 27 0 14 0;
#X connect 27 0 15 0;
#X connect 28 0 29 0;
#X connect 29 0 21 0;
#X connect 30 0 31 0;
#X connect 31 0 23 0;
#X connect 32 0 34 1;
#X connect 32 0 34 0;
#X connect 33 0 35 1;
#X connect 33 0 35 0;
#X connect 34 0 28 0;
#X connect 35 0 30 0;
#X restore 326 666 pd bufferfx1;
#X msg 702 649 symbol buffer1;
#N canvas 182 291 963 659 phaser1 0;
#X obj -18 214 inlet~;
#X obj 60 206 inlet~;
#X obj -11 671 outlet~;
#X obj 130 668 outlet~;
#X obj 203 -124 inlet;
#X obj 369 -132 inlet;
#X obj 601 75 switch~;
#X obj 597 18 inlet;
#X obj 205 -93 *;
#X obj 185 296 rpole~;
#X obj 185 271 rzero_rev~;
#X obj 185 345 rpole~;
#X obj 185 320 rzero_rev~;
#X obj 185 393 rpole~;
#X obj 185 368 rzero_rev~;
#X obj 185 442 rpole~;
#X obj 185 417 rzero_rev~;
#X obj 128 640 +~;
#X obj 335 172 expr~ 1 - 0.03 - 0.6*abs($v1-0.5)*abs($v1-0.5);
#X obj 333 136 phasor~;
#X obj 185 493 rpole~;
#X obj 185 468 rzero_rev~;
#X obj 185 542 rpole~;
#X obj 185 517 rzero_rev~;
#X obj 220 28 + 0.05;
#X obj 334 217 *~;
#X obj 0 303 rpole~;
#X obj 0 278 rzero_rev~;
#X obj 0 352 rpole~;
#X obj 0 327 rzero_rev~;
#X obj 0 400 rpole~;
#X obj 0 375 rzero_rev~;
#X obj 0 449 rpole~;
#X obj 0 424 rzero_rev~;
#X obj 0 500 rpole~;
#X obj 0 475 rzero_rev~;
#X obj 0 549 rpole~;
#X obj 0 524 rzero_rev~;
#X obj -23 631 +~;
#X obj 448 99 * 0.3;
#X obj 448 120 + 0.7;
#X obj 388 -15 *;
#X obj 374 -96 t b f;
#X msg 385 -68 1;
#X obj 403 -44 -;
#X obj 386 13 t b f;
#X msg 397 41 1;
#X obj 412 64 -;
#X obj 212 2 * 10;
#X connect 0 0 27 0;
#X connect 0 0 38 0;
#X connect 1 0 10 0;
#X connect 1 0 17 0;
#X connect 4 0 8 1;
#X connect 4 0 8 0;
#X connect 5 0 42 0;
#X connect 7 0 6 0;
#X connect 8 0 48 0;
#X connect 9 0 12 0;
#X connect 10 0 9 0;
#X connect 11 0 14 0;
#X connect 12 0 11 0;
#X connect 13 0 16 0;
#X connect 14 0 13 0;
#X connect 15 0 21 0;
#X connect 16 0 15 0;
#X connect 17 0 3 0;
#X connect 18 0 25 0;
#X connect 19 0 18 0;
#X connect 20 0 23 0;
#X connect 21 0 20 0;
#X connect 22 0 17 1;
#X connect 23 0 22 0;
#X connect 24 0 19 0;
#X connect 25 0 22 1;
#X connect 25 0 23 1;
#X connect 25 0 20 1;
#X connect 25 0 21 1;
#X connect 25 0 15 1;
#X connect 25 0 16 1;
#X connect 25 0 14 1;
#X connect 25 0 13 1;
#X connect 25 0 12 1;
#X connect 25 0 11 1;
#X connect 25 0 10 1;
#X connect 25 0 9 1;
#X connect 25 0 27 1;
#X connect 25 0 26 1;
#X connect 25 0 29 1;
#X connect 25 0 28 1;
#X connect 25 0 31 1;
#X connect 25 0 30 1;
#X connect 25 0 33 1;
#X connect 25 0 32 1;
#X connect 25 0 35 1;
#X connect 25 0 34 1;
#X connect 25 0 37 1;
#X connect 25 0 36 1;
#X connect 26 0 29 0;
#X connect 27 0 26 0;
#X connect 28 0 31 0;
#X connect 29 0 28 0;
#X connect 30 0 33 0;
#X connect 31 0 30 0;
#X connect 32 0 35 0;
#X connect 33 0 32 0;
#X connect 34 0 37 0;
#X connect 35 0 34 0;
#X connect 36 0 38 1;
#X connect 37 0 36 0;
#X connect 38 0 2 0;
#X connect 39 0 40 0;
#X connect 40 0 25 1;
#X connect 41 0 45 0;
#X connect 42 0 43 0;
#X connect 42 1 44 1;
#X connect 43 0 44 0;
#X connect 44 0 41 1;
#X connect 44 0 41 0;
#X connect 45 0 46 0;
#X connect 45 1 47 1;
#X connect 46 0 47 0;
#X connect 47 0 39 0;
#X connect 48 0 24 0;
#X restore 340 710 pd phaser1;
#X msg 719 681 symbol phaser1;
#X obj 455 682 == 15;
#X obj 464 716 == 16;
#X msg 726 709 symbol flangr2;
#N canvas 447 175 688 546 flanger2 0;
#X obj -16 38 inlet~;
#X obj 84 33 inlet~;
#X obj 22 455 outlet~;
#X obj 100 455 outlet~;
#X obj 264 29 inlet;
#X obj 346 31 inlet;
#X obj 356 132 *;
#X obj 459 105 switch~;
#X obj 455 48 inlet;
#X obj 252 61 *;
#X obj 348 59 t b f;
#X msg 346 82 1;
#X obj 364 106 -;
#X obj 353 155 t b f;
#X msg 364 183 1;
#X obj 379 206 -;
#X obj 179 196 osc~;
#X obj 284 126 loadbang;
#X msg 280 155 1;
#X obj 177 381 abs_flangerfbdly1;
#X obj 22 384 abs_flangerfbdly1;
#X obj 172 293 *~;
#X obj 215 263 lop~ 10;
#X obj 296 233 * 5;
#X obj 195 146 + 0.0005;
#X obj 225 111 * 20;
#X obj 253 89 *;
#X obj 178 229 +~ 1.11;
#X obj 370 247 * 0.5;
#X obj 359 278 + 0.3;
#X connect 0 0 20 0;
#X connect 1 0 19 0;
#X connect 4 0 9 1;
#X connect 4 0 9 0;
#X connect 5 0 10 0;
#X connect 6 0 13 0;
#X connect 8 0 7 0;
#X connect 9 0 26 1;
#X connect 9 0 26 0;
#X connect 10 0 11 0;
#X connect 10 1 12 1;
#X connect 11 0 12 0;
#X connect 12 0 6 1;
#X connect 12 0 6 0;
#X connect 13 0 14 0;
#X connect 13 1 15 1;
#X connect 14 0 15 0;
#X connect 15 0 23 0;
#X connect 15 0 28 0;
#X connect 16 0 27 0;
#X connect 17 0 18 0;
#X connect 18 0 16 1;
#X connect 19 0 3 0;
#X connect 20 0 2 0;
#X connect 21 0 20 1;
#X connect 21 0 19 1;
#X connect 22 0 21 1;
#X connect 23 0 22 0;
#X connect 24 0 16 0;
#X connect 25 0 24 0;
#X connect 26 0 25 0;
#X connect 27 0 21 0;
#X connect 28 0 29 0;
#X connect 29 0 19 2;
#X connect 29 0 20 2;
#X restore 370 736 pd flanger2;
#X text 366 6 multiple two parameter (xy) effects \, stereo;
#N canvas 437 170 814 673 randomflanger 0;
#X obj -16 38 inlet~;
#X obj 84 33 inlet~;
#X obj 22 455 outlet~;
#X obj 100 455 outlet~;
#X obj 168 -50 inlet;
#X obj 346 31 inlet;
#X obj 356 132 *;
#X obj 459 105 switch~;
#X obj 455 48 inlet;
#X obj 348 59 t b f;
#X msg 346 82 1;
#X obj 364 106 -;
#X obj 353 155 t b f;
#X msg 364 183 1;
#X obj 379 206 -;
#X obj 177 381 abs_flangerfbdly1;
#X obj 22 384 abs_flangerfbdly1;
#X obj 172 293 *~;
#X obj 215 263 lop~ 10;
#X obj 370 247 * 0.5;
#X obj 274 -11 loadbang;
#X obj 166 170 random 1000;
#X obj 169 194 / 1000;
#X obj 169 149 metro 444;
#X msg 259 39 bang;
#X obj 171 99 * 450;
#X obj 160 -16 t b f;
#X obj 162 28 -;
#X msg 152 7 1;
#X obj 166 226 lop~ 30;
#X obj 315 229 * 10;
#X obj 359 278 + 0.49;
#X obj 157 52 *;
#X obj 156 76 *;
#X obj 169 122 + 10;
#X obj 259 156 * 30;
#X obj 259 205 + 10;
#X connect 0 0 16 0;
#X connect 1 0 15 0;
#X connect 4 0 26 0;
#X connect 5 0 9 0;
#X connect 6 0 12 0;
#X connect 8 0 7 0;
#X connect 9 0 10 0;
#X connect 9 1 11 1;
#X connect 10 0 11 0;
#X connect 11 0 6 1;
#X connect 11 0 6 0;
#X connect 12 0 13 0;
#X connect 12 1 14 1;
#X connect 13 0 14 0;
#X connect 14 0 19 0;
#X connect 14 0 30 0;
#X connect 15 0 3 0;
#X connect 16 0 2 0;
#X connect 17 0 16 1;
#X connect 17 0 15 1;
#X connect 18 0 17 1;
#X connect 19 0 31 0;
#X connect 20 0 24 0;
#X connect 21 0 22 0;
#X connect 22 0 29 0;
#X connect 23 0 21 0;
#X connect 24 0 23 0;
#X connect 25 0 34 0;
#X connect 26 0 28 0;
#X connect 26 1 27 1;
#X connect 27 0 32 1;
#X connect 27 0 32 0;
#X connect 28 0 27 0;
#X connect 29 0 17 0;
#X connect 30 0 18 0;
#X connect 31 0 15 2;
#X connect 31 0 16 2;
#X connect 32 0 33 1;
#X connect 32 0 33 0;
#X connect 32 0 35 0;
#X connect 33 0 25 0;
#X connect 34 0 23 1;
#X connect 35 0 36 0;
#X connect 36 0 29 1;
#X restore 384 765 pd randomflanger;
#X msg 743 736 symbol rndflnr;
#X obj 478 745 == 17;
#N canvas 419 161 814 673 singlecycles 0;
#X obj -76 34 inlet~;
#X obj 22 24 inlet~;
#X obj -54 564 outlet~;
#X obj 54 550 outlet~;
#X obj 168 -50 inlet;
#X obj 346 31 inlet;
#X obj 459 105 switch~;
#X obj 455 48 inlet;
#X obj 274 -11 loadbang;
#X obj 116 158 metro 444;
#X msg 242 63 bang;
#X obj 160 -16 t b f;
#X obj 162 28 -;
#X msg 152 7 1;
#X obj 157 52 *;
#X obj 156 76 *;
#X obj -67 405 *~;
#X obj -32 361 line~;
#X obj -10 411 *~;
#X obj 23 377 line~;
#X msg -31 338 \$1 10;
#X msg 20 348 \$1 10;
#X obj -57 194 clip~ -1 1;
#X obj -28 315 != 0;
#X obj 8 315 == 0;
#X obj -58 511 hip~ 10;
#X obj 155 100 * 650;
#X obj 166 130 + 50;
#X obj 69 408 *~;
#X obj 104 364 line~;
#X obj 126 414 *~;
#X obj 159 380 line~;
#X msg 105 341 \$1 10;
#X msg 156 351 \$1 10;
#X obj 79 197 clip~ -1 1;
#X obj 108 318 != 0;
#X obj 144 318 == 0;
#X obj 56 520 hip~ 10;
#X obj 302 137 mtof;
#X obj 345 68 * 64, f 6;
#X obj 332 102 + 16;
#X obj -59 488 *~;
#X obj 69 481 *~;
#X obj -44 64 env~;
#X obj -34 120 clip 0 1;
#X obj -37 163 line~;
#X obj 57 48 env~;
#X obj 67 104 clip 0 1;
#X obj 72 149 line~;
#X msg -32 141 \$1 10;
#X msg 69 125 \$1 10;
#X obj -33 91 / 200;
#X obj 64 70 / 200;
#X obj -51 238 abs_singcycles1 1;
#X obj 85 241 abs_singcycles1 1;
#X connect 0 0 22 0;
#X connect 0 0 43 0;
#X connect 1 0 34 0;
#X connect 1 0 46 0;
#X connect 4 0 11 0;
#X connect 5 0 39 0;
#X connect 7 0 6 0;
#X connect 8 0 10 0;
#X connect 9 0 53 1;
#X connect 9 0 54 1;
#X connect 10 0 9 0;
#X connect 11 0 13 0;
#X connect 11 1 12 1;
#X connect 12 0 14 1;
#X connect 12 0 14 0;
#X connect 13 0 12 0;
#X connect 14 0 15 1;
#X connect 14 0 15 0;
#X connect 15 0 26 0;
#X connect 16 0 41 0;
#X connect 17 0 16 1;
#X connect 18 0 41 0;
#X connect 19 0 18 1;
#X connect 20 0 17 0;
#X connect 21 0 19 0;
#X connect 22 0 53 0;
#X connect 23 0 20 0;
#X connect 24 0 21 0;
#X connect 25 0 2 0;
#X connect 26 0 27 0;
#X connect 27 0 9 1;
#X connect 28 0 42 0;
#X connect 29 0 28 1;
#X connect 30 0 42 0;
#X connect 31 0 30 1;
#X connect 32 0 29 0;
#X connect 33 0 31 0;
#X connect 34 0 54 0;
#X connect 35 0 32 0;
#X connect 36 0 33 0;
#X connect 37 0 3 0;
#X connect 38 0 53 2;
#X connect 38 0 54 2;
#X connect 39 0 40 0;
#X connect 40 0 38 0;
#X connect 41 0 25 0;
#X connect 42 0 37 0;
#X connect 43 0 51 0;
#X connect 44 0 49 0;
#X connect 45 0 41 1;
#X connect 46 0 52 0;
#X connect 47 0 50 0;
#X connect 48 0 42 1;
#X connect 49 0 45 0;
#X connect 50 0 48 0;
#X connect 51 0 44 0;
#X connect 52 0 47 0;
#X connect 53 0 16 0;
#X connect 53 1 18 0;
#X connect 53 2 23 0;
#X connect 53 2 24 0;
#X connect 54 0 28 0;
#X connect 54 1 30 0;
#X connect 54 2 35 0;
#X connect 54 2 36 0;
#X restore 396 798 pd singlecycles;
#X obj 500 771 == 18;
#X msg 753 760 symbol singlcyc;
#X obj 594 221 select 0 1 2 3 4 5 6 7 8 9 10 11 12 13 14 15 16 17 18
;
#X obj 1030 871 outlet;
#X obj 1010 275 loadbang;
#X text 569 896 fx name;
#X text 1029 895 nr of fx;
#X text 343 40 fx select;
#X text 239 -12 x y;
#X msg 1020 392 19;
#X obj -119 1002 clip~ -1 1;
#X obj -41 1002 clip~ -1 1;
#X obj -117 1027 outlet~;
#X obj -37 1027 outlet~;
#X connect 0 0 7 0;
#X connect 0 0 13 0;
#X connect 0 0 14 0;
#X connect 0 0 18 0;
#X connect 0 0 22 0;
#X connect 0 0 24 0;
#X connect 0 0 27 0;
#X connect 0 0 29 0;
#X connect 0 0 33 0;
#X connect 0 0 35 0;
#X connect 0 0 39 0;
#X connect 0 0 41 0;
#X connect 0 0 45 0;
#X connect 0 0 47 0;
#X connect 0 0 51 0;
#X connect 0 0 53 0;
#X connect 0 0 58 0;
#X connect 0 0 60 0;
#X connect 0 0 63 0;
#X connect 1 0 7 1;
#X connect 1 0 13 1;
#X connect 1 0 14 1;
#X connect 1 0 18 1;
#X connect 1 0 22 1;
#X connect 1 0 24 1;
#X connect 1 0 27 1;
#X connect 1 0 29 1;
#X connect 1 0 33 1;
#X connect 1 0 35 1;
#X connect 1 0 39 1;
#X connect 1 0 41 1;
#X connect 1 0 45 1;
#X connect 1 0 47 1;
#X connect 1 0 51 1;
#X connect 1 0 53 1;
#X connect 1 0 58 1;
#X connect 1 0 60 1;
#X connect 1 0 63 1;
#X connect 3 0 7 2;
#X connect 3 0 13 2;
#X connect 3 0 14 2;
#X connect 3 0 18 2;
#X connect 3 0 22 2;
#X connect 3 0 24 2;
#X connect 3 0 27 2;
#X connect 3 0 29 2;
#X connect 3 0 33 2;
#X connect 3 0 35 2;
#X connect 3 0 39 2;
#X connect 3 0 41 2;
#X connect 3 0 45 2;
#X connect 3 0 47 2;
#X connect 3 0 51 2;
#X connect 3 0 53 2;
#X connect 3 0 58 2;
#X connect 3 0 60 2;
#X connect 3 0 63 2;
#X connect 4 0 7 3;
#X connect 4 0 13 3;
#X connect 4 0 14 3;
#X connect 4 0 18 3;
#X connect 4 0 22 3;
#X connect 4 0 24 3;
#X connect 4 0 27 3;
#X connect 4 0 29 3;
#X connect 4 0 33 3;
#X connect 4 0 35 3;
#X connect 4 0 39 3;
#X connect 4 0 41 3;
#X connect 4 0 45 3;
#X connect 4 0 47 3;
#X connect 4 0 51 3;
#X connect 4 0 53 3;
#X connect 4 0 58 3;
#X connect 4 0 60 3;
#X connect 4 0 63 3;
#X connect 5 0 6 0;
#X connect 5 0 9 0;
#X connect 5 0 15 0;
#X connect 5 0 11 0;
#X connect 5 0 17 0;
#X connect 5 0 21 0;
#X connect 5 0 23 0;
#X connect 5 0 26 0;
#X connect 5 0 30 0;
#X connect 5 0 32 0;
#X connect 5 0 36 0;
#X connect 5 0 38 0;
#X connect 5 0 43 0;
#X connect 5 0 44 0;
#X connect 5 0 48 0;
#X connect 5 0 50 0;
#X connect 5 0 55 0;
#X connect 5 0 56 0;
#X connect 5 0 62 0;
#X connect 5 0 64 0;
#X connect 6 0 7 4;
#X connect 7 0 74 0;
#X connect 7 1 75 0;
#X connect 8 0 2 0;
#X connect 9 0 66 0;
#X connect 9 1 10 0;
#X connect 10 0 2 0;
#X connect 11 0 13 4;
#X connect 12 0 2 0;
#X connect 13 0 74 0;
#X connect 13 1 75 0;
#X connect 14 0 74 0;
#X connect 14 1 75 0;
#X connect 15 0 14 4;
#X connect 16 0 2 0;
#X connect 17 0 18 4;
#X connect 18 0 74 0;
#X connect 18 1 75 0;
#X connect 19 0 2 0;
#X connect 20 0 2 0;
#X connect 21 0 22 4;
#X connect 22 0 74 0;
#X connect 22 1 75 0;
#X connect 23 0 24 4;
#X connect 24 0 74 0;
#X connect 24 1 75 0;
#X connect 25 0 2 0;
#X connect 26 0 27 4;
#X connect 27 0 74 0;
#X connect 27 1 75 0;
#X connect 28 0 2 0;
#X connect 29 0 74 0;
#X connect 29 1 75 0;
#X connect 30 0 29 4;
#X connect 31 0 2 0;
#X connect 32 0 33 4;
#X connect 33 0 74 0;
#X connect 33 1 75 0;
#X connect 34 0 2 0;
#X connect 35 0 74 0;
#X connect 35 1 75 0;
#X connect 36 0 35 4;
#X connect 37 0 2 0;
#X connect 38 0 39 4;
#X connect 39 0 74 0;
#X connect 39 1 75 0;
#X connect 40 0 2 0;
#X connect 41 0 74 0;
#X connect 41 1 75 0;
#X connect 42 0 2 0;
#X connect 43 0 41 4;
#X connect 44 0 45 4;
#X connect 45 0 74 0;
#X connect 45 1 75 0;
#X connect 46 0 2 0;
#X connect 47 0 74 0;
#X connect 47 1 75 0;
#X connect 48 0 47 4;
#X connect 49 0 2 0;
#X connect 50 0 51 4;
#X connect 51 0 74 0;
#X connect 51 1 75 0;
#X connect 52 0 2 0;
#X connect 53 0 74 0;
#X connect 53 1 75 0;
#X connect 54 0 2 0;
#X connect 55 0 53 4;
#X connect 56 0 58 4;
#X connect 57 0 2 0;
#X connect 58 0 74 0;
#X connect 58 1 75 0;
#X connect 60 0 74 0;
#X connect 60 1 75 0;
#X connect 61 0 2 0;
#X connect 62 0 60 4;
#X connect 63 0 74 0;
#X connect 63 1 75 0;
#X connect 64 0 63 4;
#X connect 65 0 2 0;
#X connect 66 0 8 0;
#X connect 66 1 12 0;
#X connect 66 2 16 0;
#X connect 66 3 19 0;
#X connect 66 4 20 0;
#X connect 66 5 25 0;
#X connect 66 6 28 0;
#X connect 66 7 31 0;
#X connect 66 8 34 0;
#X connect 66 9 37 0;
#X connect 66 10 40 0;
#X connect 66 11 42 0;
#X connect 66 12 46 0;
#X connect 66 13 49 0;
#X connect 66 14 52 0;
#X connect 66 15 54 0;
#X connect 66 16 57 0;
#X connect 66 17 61 0;
#X connect 66 18 65 0;
#X connect 68 0 73 0;
#X connect 73 0 67 0;
#X connect 74 0 76 0;
#X connect 75 0 77 0;
