#N canvas 1 77 1441 924 10;
#X obj 260 19 block~ 4096 1 1;
#X obj 437 802 outlet~;
#X obj 161 43 bang~;
#X obj 178 126 until;
#X msg 173 103 4096;
#X obj 182 162 int;
#X obj 214 164 + 1;
#X msg 215 106 0;
#X obj 91 275 random 10000;
#X obj 99 306 / 10000;
#X obj 188 188 t b f f;
#X obj 195 253 mod 2;
#X obj 134 360 +;
#X obj 195 275 select 0;
#X obj 189 303 random 10000;
#X obj 186 325 / 10000;
#X obj 153 396 +;
#X obj 283 276 select 0;
#X obj 277 304 random 10000;
#X obj 274 326 / 10000;
#X obj 283 254 mod 4;
#X obj 370 287 select 0;
#X obj 364 315 random 10000;
#X obj 361 337 / 10000;
#X obj 170 434 +;
#X obj 370 265 mod 8;
#X obj 460 293 select 0;
#X obj 454 321 random 10000;
#X obj 451 343 / 10000;
#X obj 460 271 mod 16;
#X obj 182 471 +;
#X obj 545 304 select 0;
#X obj 539 332 random 10000;
#X obj 536 354 / 10000;
#X obj 545 282 mod 32;
#X obj 199 506 +;
#X obj 213 543 +;
#X obj 636 305 select 0;
#X obj 630 333 random 10000;
#X obj 627 355 / 10000;
#X obj 636 283 mod 64;
#X obj 220 572 +;
#X obj 729 305 select 0;
#X obj 723 333 random 10000;
#X obj 720 355 / 10000;
#X obj 816 316 select 0;
#X obj 810 344 random 10000;
#X obj 807 366 / 10000;
#X obj 236 600 +;
#X obj 906 322 select 0;
#X obj 900 350 random 10000;
#X obj 897 372 / 10000;
#X obj 248 637 +;
#X obj 991 333 select 0;
#X obj 985 361 random 10000;
#X obj 982 383 / 10000;
#X obj 265 672 +;
#X obj 279 709 +;
#X obj 1082 334 select 0;
#X obj 1076 362 random 10000;
#X obj 1073 384 / 10000;
#X obj 729 283 mod 128;
#X obj 816 294 mod 256;
#X obj 906 300 mod 512;
#X obj 991 311 mod 1024;
#X obj 1082 312 mod 2048;
#X obj 290 753 +;
#X obj 173 77 t b b;
#X obj 286 779 / 6;
#X obj 273 805 - 1;
#X obj 271 153 random 2;
#X obj 339 151 random 4;
#X obj 406 150 random 8;
#X text 521 36 probably stupid method to create pink(ish) noise;
#X obj 463 150 random 16;
#X obj 527 153 random 32;
#X obj 605 156 random 64;
#X obj 670 154 random 128;
#X obj 750 157 random 256;
#X obj 826 160 random 512;
#X obj 896 159 random 1024;
#X obj 976 158 random 2048;
#X obj 1166 334 select 0;
#X obj 1160 362 random 10000;
#X obj 1157 384 / 10000;
#X obj 1166 312 mod 4096;
#X obj 1058 160 random 4096;
#X obj 253 836 tabwrite \$0pinknoise;
#X obj 380 751 table \$0pinknoise 4096;
#X obj 432 777 tabreceive~ \$0pinknoise;
#X connect 2 0 67 0;
#X connect 3 0 5 0;
#X connect 4 0 3 0;
#X connect 5 0 6 0;
#X connect 5 0 10 0;
#X connect 6 0 5 1;
#X connect 7 0 5 1;
#X connect 8 0 9 0;
#X connect 9 0 12 0;
#X connect 10 0 8 0;
#X connect 10 1 11 0;
#X connect 10 1 20 0;
#X connect 10 1 25 0;
#X connect 10 1 29 0;
#X connect 10 1 34 0;
#X connect 10 1 40 0;
#X connect 10 1 61 0;
#X connect 10 1 62 0;
#X connect 10 1 63 0;
#X connect 10 1 64 0;
#X connect 10 1 65 0;
#X connect 10 1 85 0;
#X connect 10 2 87 1;
#X connect 11 0 13 0;
#X connect 12 0 16 0;
#X connect 13 0 14 0;
#X connect 14 0 15 0;
#X connect 15 0 12 1;
#X connect 16 0 24 0;
#X connect 17 0 18 0;
#X connect 18 0 19 0;
#X connect 19 0 16 1;
#X connect 20 0 17 0;
#X connect 21 0 22 0;
#X connect 22 0 23 0;
#X connect 23 0 24 1;
#X connect 24 0 30 0;
#X connect 25 0 21 0;
#X connect 26 0 27 0;
#X connect 27 0 28 0;
#X connect 28 0 30 1;
#X connect 29 0 26 0;
#X connect 30 0 35 0;
#X connect 31 0 32 0;
#X connect 32 0 33 0;
#X connect 33 0 35 1;
#X connect 34 0 31 0;
#X connect 35 0 36 0;
#X connect 36 0 41 0;
#X connect 37 0 38 0;
#X connect 38 0 39 0;
#X connect 39 0 36 1;
#X connect 40 0 37 0;
#X connect 41 0 48 0;
#X connect 42 0 43 0;
#X connect 43 0 44 0;
#X connect 44 0 41 1;
#X connect 45 0 46 0;
#X connect 46 0 47 0;
#X connect 47 0 48 1;
#X connect 48 0 52 0;
#X connect 49 0 50 0;
#X connect 50 0 51 0;
#X connect 51 0 52 1;
#X connect 52 0 56 0;
#X connect 53 0 54 0;
#X connect 54 0 55 0;
#X connect 55 0 56 1;
#X connect 56 0 57 0;
#X connect 57 0 66 0;
#X connect 58 0 59 0;
#X connect 59 0 60 0;
#X connect 60 0 57 1;
#X connect 61 0 42 0;
#X connect 62 0 45 0;
#X connect 63 0 49 0;
#X connect 64 0 53 0;
#X connect 65 0 58 0;
#X connect 66 0 68 0;
#X connect 67 0 4 0;
#X connect 67 1 7 0;
#X connect 67 1 70 0;
#X connect 67 1 71 0;
#X connect 67 1 72 0;
#X connect 67 1 74 0;
#X connect 67 1 75 0;
#X connect 67 1 76 0;
#X connect 67 1 77 0;
#X connect 67 1 78 0;
#X connect 67 1 79 0;
#X connect 67 1 80 0;
#X connect 67 1 81 0;
#X connect 67 1 86 0;
#X connect 68 0 69 0;
#X connect 69 0 87 0;
#X connect 70 0 11 1;
#X connect 71 0 20 1;
#X connect 72 0 21 1;
#X connect 74 0 26 1;
#X connect 75 0 31 1;
#X connect 76 0 37 1;
#X connect 77 0 42 1;
#X connect 78 0 45 1;
#X connect 79 0 49 1;
#X connect 80 0 53 1;
#X connect 81 0 58 1;
#X connect 82 0 83 0;
#X connect 83 0 84 0;
#X connect 84 0 66 1;
#X connect 85 0 82 0;
#X connect 86 0 82 1;
#X connect 89 0 1 0;
