#N canvas 48 93 1220 836 10;
#N canvas 818 153 1032 908 recstep 0;
#X obj 71 72 inlet;
#X obj 125 72 inlet;
#X obj 179 71 inlet;
#X obj 233 71 inlet;
#X obj 271 797 outlet;
#X text 73 43 pitch/velocity;
#X text 178 48 initstep;
#X text 238 49 dumpstep;
#X obj 566 25 inlet;
#X text 571 3 getsteplist;
#X obj 276 307 timer;
#X obj 266 473 abs_table1 256;
#X obj 476 375 + 128;
#X obj 355 185 swap;
#X obj 354 239 route 0;
#X obj 355 215 pack f f;
#X obj 412 330 t b f;
#X obj 328 406 +;
#X obj 377 518 * -1;
#X obj 309 358 f;
#X obj 389 359 f;
#X obj 321 281 t b b f f;
#X obj 424 290 unpack f f;
#X obj 431 403 f;
#X obj 461 333 t f b;
#X obj 145 371 until;
#X obj 154 405 int;
#X obj 183 403 + 1;
#X obj 141 313 t b b;
#X msg 186 361 0;
#X msg 138 341 128;
#X obj 228 429 + 128;
#X obj 221 649 pack f f f;
#X obj 266 518 moses 0.1;
#X obj 260 592 f;
#X obj 155 431 t f f b f;
#X obj 193 578 spigot;
#X msg 206 553 0;
#X msg 240 554 1;
#X text 383 452 duration and velocity to notenr/+128 pos in array;
#X text 354 425 difference between timer note on/off;
#X text 320 308 start timer on step select;
#X text 411 239 route note on/off;
#X text -26 368 dump notes in step table;
#X obj 297 605 int;
#X text 325 604 no sub-ms-timing;
#X text 199 14 record notes to step temp table;
#X obj 244 200 until;
#X obj 253 234 int;
#X obj 282 232 + 1;
#X msg 285 190 0;
#X obj 184 135 t b b b;
#X msg 241 176 256;
#X obj 226 267 t b f;
#X text 234 132 init table to 0 \, start timer;
#X msg 234 301 0;
#X obj 421 266 t a b;
#X obj 566 50 t a b;
#N canvas 1 77 450 300 serialize3 0;
#X obj 93 126 until;
#X obj 93 164 list append;
#X obj 119 93 t b l;
#X obj 223 209 bang;
#X obj 93 209 list split 3;
#X obj 118 62 inlet;
#X obj 92 248 outlet;
#X text 130 33 serialize triplets from lsit;
#X connect 0 0 1 0;
#X connect 1 0 4 0;
#X connect 2 0 0 0;
#X connect 2 1 1 1;
#X connect 3 0 0 1;
#X connect 4 0 6 0;
#X connect 4 1 1 1;
#X connect 4 2 3 0;
#X connect 5 0 2 0;
#X restore 550 85 pd serialize3;
#X obj 535 116 unpack f f f;
#X obj 608 236 f;
#X obj 635 192 f;
#X obj 573 276 + 128;
#X obj 571 250 f;
#X obj 508 142 t b b b f;
#X connect 0 0 13 0;
#X connect 1 0 13 1;
#X connect 2 0 51 0;
#X connect 3 0 28 0;
#X connect 8 0 57 0;
#X connect 10 0 19 1;
#X connect 10 0 20 1;
#X connect 11 0 33 0;
#X connect 11 1 18 0;
#X connect 12 0 23 1;
#X connect 13 0 15 0;
#X connect 13 1 15 1;
#X connect 14 0 21 0;
#X connect 14 1 56 0;
#X connect 15 0 14 0;
#X connect 16 0 20 0;
#X connect 16 1 11 3;
#X connect 16 1 12 0;
#X connect 17 0 11 2;
#X connect 18 0 17 1;
#X connect 19 0 17 0;
#X connect 20 0 11 2;
#X connect 21 0 19 0;
#X connect 21 1 10 1;
#X connect 21 2 11 3;
#X connect 21 3 11 1;
#X connect 22 0 24 0;
#X connect 22 1 16 0;
#X connect 23 0 11 3;
#X connect 24 0 11 2;
#X connect 24 1 23 0;
#X connect 25 0 26 0;
#X connect 26 0 27 0;
#X connect 26 0 35 0;
#X connect 27 0 26 1;
#X connect 28 0 30 0;
#X connect 28 1 29 0;
#X connect 29 0 26 1;
#X connect 30 0 25 0;
#X connect 31 0 11 0;
#X connect 32 0 4 0;
#X connect 33 0 37 0;
#X connect 33 1 34 1;
#X connect 33 1 38 0;
#X connect 33 1 44 0;
#X connect 34 0 32 1;
#X connect 35 0 36 0;
#X connect 35 1 11 0;
#X connect 35 2 34 0;
#X connect 35 3 31 0;
#X connect 36 0 32 0;
#X connect 37 0 36 1;
#X connect 38 0 36 1;
#X connect 44 0 32 2;
#X connect 47 0 48 0;
#X connect 48 0 49 0;
#X connect 48 0 53 0;
#X connect 49 0 48 1;
#X connect 50 0 48 1;
#X connect 51 0 10 0;
#X connect 51 1 52 0;
#X connect 51 2 50 0;
#X connect 52 0 47 0;
#X connect 53 0 55 0;
#X connect 53 1 11 3;
#X connect 55 0 11 2;
#X connect 56 0 22 0;
#X connect 56 1 10 1;
#X connect 57 0 58 0;
#X connect 57 1 51 0;
#X connect 58 0 59 0;
#X connect 59 0 64 0;
#X connect 59 1 60 1;
#X connect 59 2 61 1;
#X connect 60 0 11 2;
#X connect 61 0 11 2;
#X connect 62 0 11 3;
#X connect 63 0 62 0;
#X connect 64 0 60 0;
#X connect 64 1 63 0;
#X connect 64 2 61 0;
#X connect 64 3 63 1;
#X connect 64 3 11 3;
#X restore 207 314 pd recstep;
#X obj 303 409 t l;
#X obj 207 422 list;
#X obj 269 373 list append;
#N canvas 1 77 450 300 serialize3 0;
#X obj 93 126 until;
#X obj 93 164 list append;
#X obj 119 93 t b l;
#X obj 223 209 bang;
#X obj 93 209 list split 3;
#X obj 118 62 inlet;
#X obj 92 248 outlet;
#X text 130 33 serialize triplets from lsit;
#X connect 0 0 1 0;
#X connect 1 0 4 0;
#X connect 2 0 0 0;
#X connect 2 1 1 1;
#X connect 3 0 0 1;
#X connect 4 0 6 0;
#X connect 4 1 1 1;
#X connect 4 2 3 0;
#X connect 5 0 2 0;
#X restore 269 581 pd serialize3;
#X obj 266 610 unpack f f f;
#X obj 267 649 makenote;
#X obj 409 374 text define \$0seq;
#X obj 71 483 text set \$0seq;
#X obj 419 253 text get \$0seq;
#X obj 361 94 inlet;
#X obj 417 96 inlet;
#X obj 196 730 outlet;
#X obj 269 733 outlet;
#X obj 269 548 text get \$0seq;
#X obj -72 36 inlet;
#X obj 123 18 inlet;
#X obj -83 263 text size \$0seq;
#X obj -2 303 float;
#X obj 23 233 mod;
#X obj 434 192 text delete \$0seq;
#X msg 431 163 -1;
#X obj 19 38 inlet;
#X text 18 14 write-pos;
#X obj 613 517 outlet;
#X text 222 757 pitch/vel;
#X text 123 -2 action;
#X obj 402 560 outlet;
#X text 400 582 length;
#X text 614 543 pattern-list;
#X obj 449 560 outlet;
#X text 447 582 pos;
#X text 208 9 wrap the text-sequencer and step rec functions;
#X text 390 76 notein;
#X obj -92 108 loadbang;
#X obj 117 42 t b a;
#X obj 257 266 t b b b b b;
#X obj 206 170 t b b;
#X obj 595 437 list prepend set;
#X obj 595 460 list trim;
#X obj 583 403 text tolist \$0seq;
#X obj 549 370 t b;
#X obj 683 120 inlet;
#X text 689 96 from list;
#X obj 616 208 text fromlist \$0seq;
#X obj 113 71 route store cls remove clear dump;
#X obj 234 126 int;
#X text 181 43 store step \, clear step \, remove step \, clear seq
\, dump seq;
#X text -74 15 pos 16;
#X obj -61 158 t f b;
#X connect 0 0 3 0;
#X connect 1 0 3 1;
#X connect 2 0 8 0;
#X connect 3 0 1 0;
#X connect 3 0 2 1;
#X connect 4 0 5 0;
#X connect 5 0 6 0;
#X connect 5 1 6 1;
#X connect 5 2 6 2;
#X connect 6 0 12 0;
#X connect 6 1 13 0;
#X connect 9 0 0 4;
#X connect 10 0 0 0;
#X connect 10 0 12 0;
#X connect 11 0 0 1;
#X connect 11 0 13 0;
#X connect 14 0 4 0;
#X connect 15 0 49 0;
#X connect 16 0 35 0;
#X connect 17 0 18 0;
#X connect 18 0 19 1;
#X connect 18 0 27 0;
#X connect 19 0 14 0;
#X connect 19 0 30 0;
#X connect 21 0 20 0;
#X connect 22 0 9 0;
#X connect 22 0 8 1;
#X connect 22 0 46 1;
#X connect 34 0 17 0;
#X connect 35 0 17 0;
#X connect 35 1 45 0;
#X connect 36 0 0 2;
#X connect 36 1 2 0;
#X connect 36 2 0 3;
#X connect 36 3 2 1;
#X connect 36 4 3 1;
#X connect 37 0 36 0;
#X connect 37 1 0 2;
#X connect 38 0 39 0;
#X connect 39 0 24 0;
#X connect 40 0 38 0;
#X connect 41 0 40 0;
#X connect 42 0 44 0;
#X connect 45 0 36 0;
#X connect 45 1 37 0;
#X connect 45 2 46 0;
#X connect 45 3 21 0;
#X connect 45 4 41 0;
#X connect 46 0 20 0;
#X connect 49 0 19 0;
#X connect 49 1 17 0;
