#N canvas 95 201 1634 999 10;
#X msg 99 183 2;
#X msg 193 183 5;
#X msg 229 184 7;
#X msg 265 185 11;
#X msg 133 184 3;
#X obj 76 343 *;
#X obj 96 218 float;
#X obj -32 64 random 23;
#X obj -32 90 + 10;
#X obj 30 -1 t b b b;
#X obj 47 248 div;
#X msg 297 186 12;
#X msg 360 187 16;
#X obj 73 296 == 0;
#X obj 47 271 t f f;
#X obj 58 320 +;
#X msg 163 184 4;
#X msg 328 186 14;
#X obj 95 85 select 0 1 2 3 4 5 6 7 8;
#X obj 90 42 random 9;
#N canvas 0 50 450 250 (subpatch) 0;
#X array \$0tprobslvls 32 float 0;
#X coords 0 1 31 0 200 100 1 0 0;
#X restore 348 263 graph;
#X obj 107 426 until;
#X obj 86 627 random 1000;
#X obj 108 450 int;
#X obj 140 454 + 1;
#X msg 130 401 0;
#X obj 187 568 mod;
#X obj 109 526 t b f f;
#X obj 196 593 select 0;
#X obj 108 694 +;
#X msg 284 645 0;
#X obj 86 649 / 2000;
#X obj 184 647 / 2000;
#X obj -49 537 \$0;
#X obj 201 405 \$0;
#X obj 185 623 random 1000;
#X msg 238 466 \; \$1tprobslvls const 0;
#X msg -51 561 \; \$1tprobslvls normalize;
#X obj 106 729 tabwrite \$0tprobslvls;
#X text 217 378 seq length;
#X obj 30 -35 inlet;
#X obj 409 -33 inlet;
#X obj 248 405 outlet;
#X obj 669 700 outlet;
#X text 406 -53 metro;
#X obj 402 22 int;
#X obj 438 70 mod;
#X obj 402 50 + 1;
#X obj 621 248 tabread \$0tprobslvls;
#X obj -25 669 random 1000;
#X obj -25 699 / 1000;
#N canvas 0 50 450 250 (subpatch) 0;
#X array \$0pitchrnds 32 float 0;
#X coords 0 1 31 0 200 100 1 0 0;
#X restore 378 386 graph;
#X obj -26 729 tabwrite \$0pitchrnds;
#X text 221 575 accentuate 1st beat;
#X msg 245 431 \; \$1pitchrnds const 0;
#X obj 750 248 tabread \$0pitchrnds;
#X obj 620 196 t f f f;
#X obj 755 289 * 24;
#X obj 764 321 - 12;
#X obj 841 63 inlet;
#X obj 772 344 int;
#X text 841 39 tp;
#X obj 687 464 float;
#X obj 670 370 t b f;
#X obj 621 337 moses 0.5;
#X obj 736 19 inlet;
#X obj 720 370 -;
#X obj 704 313 t b f;
#X msg 698 338 1;
#X obj 710 424 /;
#X obj 780 454 * 127;
#X obj 692 397 -;
#X text 733 0 threshhold;
#N canvas 0 50 450 250 (subpatch) 0;
#X array \$0lvars 32 float 0;
#X coords 0 1 31 0 200 100 1 0 0;
#X restore 405 513 graph;
#N canvas 0 50 450 250 (subpatch) 0;
#X array \$0vvars 32 float 0;
#X coords 0 1 31 0 200 100 1 0 0;
#X restore 426 635 graph;
#X text 795 288 2 oktave;
#X obj -23 754 random 1000;
#X obj -23 784 / 1000;
#X obj -23 817 tabwrite \$0lvars;
#X obj -19 842 random 1000;
#X obj -19 872 / 1000;
#X obj -19 905 tabwrite \$0vvars;
#X msg 233 498 \; \$1lvars const 0;
#X msg 225 529 \; \$1vvars const 0;
#X obj 865 315 tabread \$0lvars;
#X obj 987 275 tabread \$0vvars;
#X obj 795 495 +;
#X obj 867 362 random 1000;
#X obj 867 384 / 1000;
#X obj 883 411 *;
#X obj 866 336 t b f;
#X obj 990 325 random 1000;
#X obj 990 347 / 1000;
#X obj 1006 374 *;
#X obj 989 299 t b f;
#X obj 1006 398 - 0.25;
#X obj 1005 423 * 64;
#X obj 766 399 +;
#X obj 768 371 + 60;
#X obj 985 733 outlet;
#X text 991 711 pos;
#X text 360 165 div \, barlen \, slightly prefers div 2 and 7 ...;
#X obj 80 371 t b b b;
#X msg 102 398 32;
#X obj 160 -31 inlet;
#X text 156 -48 length 2..32;
#X obj 738 726 outlet;
#X obj 814 721 outlet;
#X text 749 708 vel;
#X text 680 682 pitch;
#X text 814 703 duration;
#X obj 474 -34 inlet;
#X msg 467 -5 -1;
#X text 472 -49 reset;
#X text 30 -49 randomize;
#X obj 865 524 * 128;
#X obj 743 664 clip 0 127;
#X obj 773 623 / 2;
#X obj 1188 903 outlet;
#X obj 1218 -38 inlet;
#X obj 1052 591 until;
#X obj 1053 626 int;
#X obj 1083 635 + 1;
#X obj 1058 534 t f b;
#X msg 1107 576 0;
#X obj 1071 717 tabread \$0tprobslvls;
#X obj 1200 717 tabread \$0pitchrnds;
#X obj 1329 717 tabread \$0lvars;
#X obj 1430 716 tabread \$0vvars;
#X obj 244 6 t f f;
#X obj 975 475 delay 1;
#X text 1142 506 save state;
#X msg 1090 798 add2 \$1;
#X msg 1211 831 set;
#X obj 1089 674 t f f f f;
#X obj 1108 285 tabwrite \$0tprobslvls;
#X obj 1380 285 tabwrite \$0lvars;
#X obj 1251 285 tabwrite \$0pitchrnds;
#X obj 1488 285 tabwrite \$0vvars;
#X obj 1204 116 list split 1;
#X obj 1206 27 until;
#X obj 1163 78 list append;
#X obj 1316 77 int;
#X obj 1344 82 + 1;
#X msg 1342 52 0;
#X obj 1299 106 bang;
#X obj 1217 -7 t b b l b;
#X text 1339 -8 restore state;
#X text 1234 902 tables;
#X text 1259 -39 tables in;
#X obj 1173 244 route 0 1 2 3;
#X obj 1431 178 div 4;
#X obj 1327 139 mod 4;
#X obj 1228 203 pack f f;
#X obj 1243 148 t b f;
#X obj 1238 176 int;
#X msg 1059 503 32;
#X connect 0 0 6 1;
#X connect 1 0 6 1;
#X connect 2 0 6 1;
#X connect 3 0 6 1;
#X connect 4 0 6 1;
#X connect 5 0 42 0;
#X connect 5 0 102 0;
#X connect 6 0 10 1;
#X connect 6 0 5 1;
#X connect 6 0 26 1;
#X connect 7 0 8 0;
#X connect 8 0 10 0;
#X connect 9 0 7 0;
#X connect 9 0 130 0;
#X connect 9 1 6 0;
#X connect 9 2 19 0;
#X connect 10 0 14 0;
#X connect 11 0 6 1;
#X connect 12 0 6 1;
#X connect 13 0 15 1;
#X connect 14 0 15 0;
#X connect 14 1 13 0;
#X connect 15 0 5 0;
#X connect 16 0 6 1;
#X connect 17 0 6 1;
#X connect 18 0 0 0;
#X connect 18 1 4 0;
#X connect 18 2 16 0;
#X connect 18 3 1 0;
#X connect 18 4 2 0;
#X connect 18 5 3 0;
#X connect 18 6 11 0;
#X connect 18 7 17 0;
#X connect 18 8 12 0;
#X connect 19 0 18 0;
#X connect 21 0 23 0;
#X connect 22 0 31 0;
#X connect 23 0 24 0;
#X connect 23 0 27 0;
#X connect 24 0 23 1;
#X connect 25 0 23 1;
#X connect 26 0 28 0;
#X connect 27 0 22 0;
#X connect 27 0 49 0;
#X connect 27 0 76 0;
#X connect 27 0 79 0;
#X connect 27 1 38 1;
#X connect 27 1 52 1;
#X connect 27 1 78 1;
#X connect 27 1 81 1;
#X connect 27 2 26 0;
#X connect 28 0 35 0;
#X connect 28 1 30 0;
#X connect 29 0 38 0;
#X connect 30 0 29 1;
#X connect 31 0 29 0;
#X connect 32 0 29 1;
#X connect 33 0 37 0;
#X connect 34 0 36 0;
#X connect 34 0 54 0;
#X connect 34 0 82 0;
#X connect 34 0 83 0;
#X connect 35 0 32 0;
#X connect 40 0 9 0;
#X connect 41 0 45 0;
#X connect 45 0 47 0;
#X connect 46 0 45 1;
#X connect 46 0 56 0;
#X connect 46 0 99 0;
#X connect 47 0 46 0;
#X connect 48 0 64 0;
#X connect 49 0 50 0;
#X connect 50 0 52 0;
#X connect 55 0 57 0;
#X connect 56 0 48 0;
#X connect 56 1 55 0;
#X connect 56 2 84 0;
#X connect 56 2 85 0;
#X connect 57 0 58 0;
#X connect 58 0 60 0;
#X connect 59 0 97 1;
#X connect 60 0 98 0;
#X connect 62 0 43 0;
#X connect 63 0 62 0;
#X connect 63 1 71 0;
#X connect 64 1 63 0;
#X connect 65 0 64 1;
#X connect 65 0 67 0;
#X connect 65 0 71 1;
#X connect 65 0 117 0;
#X connect 66 0 69 1;
#X connect 67 0 68 0;
#X connect 67 1 66 1;
#X connect 68 0 66 0;
#X connect 69 0 70 0;
#X connect 70 0 86 0;
#X connect 71 0 69 0;
#X connect 76 0 77 0;
#X connect 77 0 78 0;
#X connect 79 0 80 0;
#X connect 80 0 81 0;
#X connect 84 0 90 0;
#X connect 85 0 94 0;
#X connect 86 0 116 0;
#X connect 87 0 88 0;
#X connect 88 0 89 0;
#X connect 89 0 115 0;
#X connect 90 0 87 0;
#X connect 90 1 89 1;
#X connect 91 0 92 0;
#X connect 92 0 93 0;
#X connect 93 0 95 0;
#X connect 94 0 91 0;
#X connect 94 1 93 1;
#X connect 95 0 96 0;
#X connect 96 0 86 1;
#X connect 97 0 62 1;
#X connect 98 0 97 0;
#X connect 102 0 33 0;
#X connect 102 1 103 0;
#X connect 102 2 25 0;
#X connect 102 2 34 0;
#X connect 103 0 21 0;
#X connect 104 0 129 0;
#X connect 111 0 112 0;
#X connect 112 0 45 1;
#X connect 115 0 107 0;
#X connect 116 0 106 0;
#X connect 117 0 116 1;
#X connect 119 0 146 0;
#X connect 120 0 121 0;
#X connect 121 0 122 0;
#X connect 121 0 134 0;
#X connect 122 0 121 1;
#X connect 123 0 120 0;
#X connect 123 1 124 0;
#X connect 123 1 133 0;
#X connect 124 0 121 1;
#X connect 125 0 132 0;
#X connect 126 0 132 0;
#X connect 127 0 132 0;
#X connect 128 0 132 0;
#X connect 129 0 46 1;
#X connect 130 0 156 0;
#X connect 132 0 118 0;
#X connect 133 0 118 0;
#X connect 134 0 125 0;
#X connect 134 1 126 0;
#X connect 134 2 127 0;
#X connect 134 3 128 0;
#X connect 139 0 154 0;
#X connect 139 1 141 1;
#X connect 139 2 145 0;
#X connect 140 0 141 0;
#X connect 140 0 142 0;
#X connect 141 0 139 0;
#X connect 142 0 143 0;
#X connect 143 0 142 1;
#X connect 143 0 151 0;
#X connect 143 0 152 0;
#X connect 144 0 142 1;
#X connect 144 0 151 0;
#X connect 144 0 152 0;
#X connect 145 0 140 1;
#X connect 146 0 140 0;
#X connect 146 1 144 0;
#X connect 146 2 141 1;
#X connect 150 0 135 0;
#X connect 150 1 137 0;
#X connect 150 2 136 0;
#X connect 150 3 138 0;
#X connect 151 0 135 1;
#X connect 151 0 137 1;
#X connect 151 0 136 1;
#X connect 151 0 138 1;
#X connect 152 0 155 1;
#X connect 153 0 150 0;
#X connect 154 0 155 0;
#X connect 154 1 153 1;
#X connect 155 0 153 0;
#X connect 156 0 123 0;
