#N canvas 1 77 947 776 10;
#X obj 79 230 phasor~;
#X obj 150 531 outlet~;
#X obj 159 428 cos~;
#X obj 161 349 +~;
#X obj 226 308 *~;
#X obj 344 83 samplerate~;
#X obj 344 110 t b f;
#X msg 330 138 1000;
#X obj 333 166 /;
#X obj 344 59 loadbang;
#X text 352 218 1 sample delay;
#X obj 157 387 wrap~;
#X text 447 64 fb;
#X obj 447 82 inlet~;
#X obj 35 104 inlet~;
#X text 79 104 <-freq;
#X obj 249 93 inlet~;
#X text 294 93 <-pm;
#X obj 207 471 delwrite~ \$0op1fb1 1;
#X obj 231 274 delread~ \$0op1fb1;
#X text 43 12 fm operator with feedback and sync;
#X obj 149 84 inlet~;
#X obj 102 269 samphold~;
#X obj 80 292 -~;
#X text 154 61 sync (signal);
#X obj 351 246 block~ 1;
#X connect 0 0 22 0;
#X connect 0 0 23 0;
#X connect 2 0 1 0;
#X connect 2 0 18 0;
#X connect 3 0 11 0;
#X connect 4 0 3 1;
#X connect 5 0 6 0;
#X connect 6 0 7 0;
#X connect 6 1 8 1;
#X connect 7 0 8 0;
#X connect 8 0 19 0;
#X connect 9 0 5 0;
#X connect 11 0 2 0;
#X connect 13 0 4 1;
#X connect 14 0 0 0;
#X connect 16 0 3 1;
#X connect 19 0 4 0;
#X connect 21 0 22 1;
#X connect 22 0 23 1;
#X connect 23 0 3 0;
