#N canvas 220 193 891 952 10;
#X obj 103 70 inlet;
#X obj 147 867 outlet~;
#X obj 151 845 tabreceive~ \$0brownnoise;
#X obj 212 139 bang~;
#X obj 199 238 until;
#X obj 212 268 int;
#X obj 245 269 + 1;
#X msg 197 191 64;
#X msg 240 192 0;
#X obj 205 165 t b b;
#X obj 112 791 tabwrite \$0brownnoise;
#X obj 194 309 t b f;
#X obj 153 822 table \$0brownnoise 64;
#X obj 67 552 +;
#X obj 76 340 t b b;
#X obj 23 432 f;
#X obj 147 448 *;
#X text 105 49 'frequency' 0..1;
#X obj 148 385 random 32000;
#X obj 147 406 - 16000;
#X obj 149 427 / 32000;
#X obj 60 587 moses 1;
#X obj 53 646 moses -1;
#X obj 168 520 * -2;
#X obj 117 648 +;
#X obj 43 677 +;
#X obj 142 480 t f f;
#X obj 21 737 f;
#X obj 89 116 clip 0 1;
#X obj 88 160 *;
#X text 40 308 random-walk-noise;
#X connect 0 0 28 0;
#X connect 2 0 1 0;
#X connect 3 0 9 0;
#X connect 4 0 5 0;
#X connect 5 0 6 0;
#X connect 5 0 11 0;
#X connect 6 0 5 1;
#X connect 7 0 4 0;
#X connect 8 0 5 1;
#X connect 9 0 7 0;
#X connect 9 1 8 0;
#X connect 11 0 14 0;
#X connect 11 1 10 1;
#X connect 13 0 21 0;
#X connect 14 0 15 0;
#X connect 14 1 18 0;
#X connect 15 0 13 0;
#X connect 16 0 26 0;
#X connect 18 0 19 0;
#X connect 19 0 20 0;
#X connect 20 0 16 0;
#X connect 21 0 22 0;
#X connect 21 1 24 0;
#X connect 22 0 25 0;
#X connect 22 1 27 0;
#X connect 23 0 24 1;
#X connect 23 0 25 1;
#X connect 24 0 27 0;
#X connect 25 0 27 0;
#X connect 26 0 13 1;
#X connect 26 1 23 0;
#X connect 27 0 15 1;
#X connect 27 0 10 0;
#X connect 28 0 29 1;
#X connect 28 0 29 0;
#X connect 29 0 16 1;
