#N canvas 622 151 1020 881 10;
#X obj 222 64 inlet;
#X obj -21 165 inlet;
#X obj 443 510 vline~;
#X obj 257 485 vline~;
#X obj 411 393 pack f f f;
#X msg 426 425 1 \$2 \$1 \, 0 \$2 \$3;
#X obj 57 111 /;
#X msg 47 86 1;
#X obj 50 61 t b f;
#X obj 385 333 random 64;
#X obj 388 358 *;
#X msg 259 417 0;
#X text 414 364 random-sub-frame-delay \, ramp \, length;
#X text 217 47 trigger;
#X obj 260 845 outlet~;
#X obj 260 809 *~;
#X obj 362 840 outlet~;
#X obj 361 815 *~;
#X obj 934 357 inlet;
#X obj 665 483 - 0.5;
#X obj 660 518 *;
#X msg 643 625 1;
#X obj 645 653 -;
#X obj 649 590 t b f;
#X obj 662 437 random 1000;
#X obj 665 460 / 1000;
#X obj 660 546 + 0.5;
#X obj 304 74 inlet;
#X obj 428 77 inlet;
#X obj 51 35 inlet;
#X text 49 19 samplerate;
#X obj 382 254 +;
#X obj 261 664 *~;
#X obj 491 205 inlet;
#X text 490 187 ramp (0..0.5);
#X text 930 340 pan rnd (0..1);
#X obj 586 207 inlet;
#X obj 695 172 inlet;
#X obj 570 412 +;
#X obj 636 260 / 10000;
#X obj 759 216 inlet;
#X obj 850 237 inlet;
#X obj 458 277 *;
#X obj 477 344 -;
#X obj 429 237 t f f;
#X obj 489 317 * 2;
#X obj 229 593 tabread4~;
#X msg 113 479 set \$1;
#X text 478 491 amp env;
#X text 201 453 playback ramp;
#X msg 755 559 1.05946;
#X obj 767 588 pow;
#X obj 818 479 +;
#X obj 756 612 clip 0.125 4;
#X obj 781 530 t b f;
#X text 757 199 tp (semi);
#X obj 836 333 / 1000;
#X text 834 611 2 pitch factor;
#X obj 833 458 * -1;
#X obj 238 201 t b b b;
#X obj 837 309 random 1000;
#X obj 636 235 random 10000;
#X obj 636 284 *;
#X obj 380 145 / 10000;
#X obj 371 123 random 10000;
#X obj 401 168 *;
#X obj 307 427 pack f f f;
#X msg 299 455 \$3 \$2 \$1;
#X obj 312 391 *;
#X text 220 389 tp->speed only;
#X text 671 421 rnd pan;
#X text 858 291 rnd tp;
#X text 500 339 len - up down;
#X text 199 185 random \, env-init+random \, trigger;
#X text 300 57 length(ms);
#X text 544 88 particle (grain) for granular-sampleplayback \, mono2stereo
;
#X text -22 146 tablename;
#X text 583 188 pos(ms);
#X obj 118 72 / 1000;
#X obj 580 238 *;
#X text 427 61 len rnd(ms);
#X text 693 154 pos rnd (ms);
#X text 852 219 p rand (semi);
#X obj 865 368 / 2;
#X obj 834 357 *;
#X obj 841 388 -;
#X obj 352 370 *;
#X obj 636 306 *;
#X text 222 550 presrve float resulotion and hopefully soundquylity
for large samples...;
#X connect 0 0 59 0;
#X connect 1 0 47 0;
#X connect 2 0 32 1;
#X connect 3 0 46 0;
#X connect 4 0 5 0;
#X connect 5 0 2 0;
#X connect 6 0 10 1;
#X connect 7 0 6 0;
#X connect 8 0 7 0;
#X connect 8 1 6 1;
#X connect 9 0 10 0;
#X connect 10 0 4 0;
#X connect 10 0 66 0;
#X connect 11 0 3 0;
#X connect 11 0 2 0;
#X connect 15 0 14 0;
#X connect 17 0 16 0;
#X connect 18 0 20 1;
#X connect 19 0 20 0;
#X connect 20 0 26 0;
#X connect 21 0 22 0;
#X connect 22 0 17 1;
#X connect 23 0 21 0;
#X connect 23 1 22 1;
#X connect 24 0 25 0;
#X connect 25 0 19 0;
#X connect 26 0 15 1;
#X connect 26 0 23 0;
#X connect 27 0 31 1;
#X connect 28 0 65 1;
#X connect 29 0 8 0;
#X connect 29 0 78 0;
#X connect 31 0 44 0;
#X connect 31 0 68 0;
#X connect 31 0 86 0;
#X connect 32 0 15 0;
#X connect 32 0 17 0;
#X connect 33 0 42 1;
#X connect 36 0 79 0;
#X connect 37 0 62 1;
#X connect 38 0 46 1;
#X connect 39 0 62 0;
#X connect 40 0 58 0;
#X connect 41 0 83 0;
#X connect 41 0 84 1;
#X connect 42 0 4 1;
#X connect 42 0 45 0;
#X connect 43 0 4 2;
#X connect 44 0 43 0;
#X connect 44 1 42 0;
#X connect 45 0 43 1;
#X connect 46 0 32 0;
#X connect 47 0 46 0;
#X connect 50 0 51 0;
#X connect 51 0 53 0;
#X connect 52 0 54 0;
#X connect 53 0 68 1;
#X connect 54 0 50 0;
#X connect 54 1 51 1;
#X connect 56 0 84 0;
#X connect 58 0 52 1;
#X connect 59 0 9 0;
#X connect 59 1 11 0;
#X connect 59 1 24 0;
#X connect 59 1 61 0;
#X connect 59 1 64 0;
#X connect 59 2 60 0;
#X connect 60 0 56 0;
#X connect 61 0 39 0;
#X connect 62 0 87 0;
#X connect 63 0 65 0;
#X connect 64 0 63 0;
#X connect 65 0 31 0;
#X connect 66 0 67 0;
#X connect 67 0 3 0;
#X connect 68 0 66 1;
#X connect 78 0 79 1;
#X connect 78 0 86 1;
#X connect 78 0 87 1;
#X connect 79 0 38 1;
#X connect 83 0 85 1;
#X connect 84 0 85 0;
#X connect 85 0 52 0;
#X connect 86 0 66 2;
#X connect 87 0 38 0;
