#N canvas 956 346 450 300 10;
#X obj 271 58 inlet;
#X obj 188 61 inlet;
#X text 14 45 read1;
#X text 72 51 read2;
#X text 273 36 index;
#X text 192 39 value;
#X text 19 10 wrapper abs for unique audio-table;
#X obj 103 189 table \$0atable \$1;
#X obj 152 127 tabwrite \$0atable;
#X obj 21 114 tabread~ \$0atable;
#X obj 63 158 tabread~ \$0atable;
#X obj 18 67 inlet~;
#X obj 68 72 inlet~;
#X obj 28 252 outlet~;
#X obj 96 250 outlet~;
#X obj 282 241 outlet;
#X obj 279 190 \$0;
#X obj 359 69 inlet;
#X msg 359 112 bang;
#X obj 287 111 loadbang;
#X text 366 49 get tablename;
#X msg 282 215 symbol \$1atable;
#X connect 0 0 8 1;
#X connect 1 0 8 0;
#X connect 9 0 13 0;
#X connect 10 0 14 0;
#X connect 11 0 9 0;
#X connect 12 0 10 0;
#X connect 16 0 21 0;
#X connect 17 0 18 0;
#X connect 18 0 16 0;
#X connect 19 0 16 0;
#X connect 21 0 15 0;
