#N canvas 1 77 1268 784 10;
#X obj -3 28 phasor~;
#X obj -2 -6 inlet~;
#X obj 72 637 outlet~;
#X obj 66 392 +~ 1;
#X obj 370 200 inlet;
#X obj 22 193 *~;
#X obj 6 146 clip~ 0 0.5;
#X obj 117 169 clip~ 0.5 1;
#X obj 207 91 -;
#X obj 199 43 t b f;
#X msg 200 69 1;
#X obj 198 -32 inlet;
#X obj 132 76 / 2;
#X obj 131 102 + 0.5;
#X msg 224 207 1;
#X obj 226 183 t b f;
#X text 53 186 m;
#X obj 103 300 *~;
#X obj 238 233 -;
#X obj 252 267 /;
#X msg 287 159 1;
#X obj 289 135 t b f;
#X obj 301 185 -;
#X text 120 130 x1;
#X obj 209 144 *;
#X text 238 146 y1;
#X text 258 285 m2;
#X obj 115 252 -~;
#X text 141 254 b2;
#X text 206 213 ak;
#X text 323 160 gk;
#X obj 194 3 clip 0 0.99;
#X obj 66 366 *~ 512;
#X obj 18 507 *~;
#X obj 337 330 * -1;
#X obj 55 480 clip 0 1;
#X obj 51 538 *~;
#X obj 91 517 clip 0 1;
#X obj 82 566 *~;
#X obj 112 546 clip 0 1;
#X obj 99 600 *~;
#X obj 129 580 clip 0 1;
#X text 30 56 9 klasse geometrie...;
#N canvas 1 77 619 465 triangle01 0;
#X obj 262 148 * 2;
#X obj 254 184 - 1;
#X obj 229 201 *;
#X obj 216 90 t f f;
#X obj 193 26 inlet;
#X obj 263 404 outlet;
#X obj 299 114 < 0.5;
#X obj 267 246 -;
#X obj 272 282 + 1;
#X obj 283 322 * 2;
#X connect 0 0 1 0;
#X connect 1 0 2 1;
#X connect 2 0 7 0;
#X connect 3 0 2 0;
#X connect 3 1 6 0;
#X connect 4 0 3 0;
#X connect 6 0 0 0;
#X connect 6 0 7 1;
#X connect 7 0 8 0;
#X connect 8 0 9 0;
#X connect 9 0 5 0;
#X restore 157 413 pd triangle01;
#N canvas 0 50 619 465 triangle01 0;
#X obj 262 148 * 2;
#X obj 254 184 - 1;
#X obj 229 201 *;
#X obj 216 90 t f f;
#X obj 193 26 inlet;
#X obj 263 404 outlet;
#X obj 299 114 < 0.5;
#X obj 267 246 -;
#X obj 272 282 + 1;
#X obj 283 322 * 2;
#X connect 0 0 1 0;
#X connect 1 0 2 1;
#X connect 2 0 7 0;
#X connect 3 0 2 0;
#X connect 3 1 6 0;
#X connect 4 0 3 0;
#X connect 6 0 0 0;
#X connect 6 0 7 1;
#X connect 7 0 8 0;
#X connect 8 0 9 0;
#X connect 9 0 5 0;
#X restore 254 434 pd triangle01;
#X obj 195 376 + 0.5;
#X obj 268 390 + 1;
#X obj 311 397 + 1.5;
#N canvas 0 50 619 465 triangle01 0;
#X obj 262 148 * 2;
#X obj 254 184 - 1;
#X obj 229 201 *;
#X obj 216 90 t f f;
#X obj 193 26 inlet;
#X obj 263 404 outlet;
#X obj 299 114 < 0.5;
#X obj 267 246 -;
#X obj 272 282 + 1;
#X obj 283 322 * 2;
#X connect 0 0 1 0;
#X connect 1 0 2 1;
#X connect 2 0 7 0;
#X connect 3 0 2 0;
#X connect 3 1 6 0;
#X connect 4 0 3 0;
#X connect 6 0 0 0;
#X connect 6 0 7 1;
#X connect 7 0 8 0;
#X connect 8 0 9 0;
#X connect 9 0 5 0;
#X restore 284 465 pd triangle01;
#X obj 327 492 + 2;
#N canvas 0 50 619 465 triangle01 0;
#X obj 262 148 * 2;
#X obj 254 184 - 1;
#X obj 229 201 *;
#X obj 216 90 t f f;
#X obj 193 26 inlet;
#X obj 263 404 outlet;
#X obj 299 114 < 0.5;
#X obj 267 246 -;
#X obj 272 282 + 1;
#X obj 283 322 * 2;
#X connect 0 0 1 0;
#X connect 1 0 2 1;
#X connect 2 0 7 0;
#X connect 3 0 2 0;
#X connect 3 1 6 0;
#X connect 4 0 3 0;
#X connect 6 0 0 0;
#X connect 6 0 7 1;
#X connect 7 0 8 0;
#X connect 8 0 9 0;
#X connect 9 0 5 0;
#X restore 335 515 pd triangle01;
#X obj 364 232 * 1.5;
#X text 53 -4 freq;
#X text 414 199 wave;
#X text 241 -32 geom;
#X obj 66 440 tabread4~ \$0squarewave;
#X obj 122 474 tabread4~ \$0sawwave;
#X obj 173 513 tabread4~ \$0triwave;
#X obj 198 549 tabread4~ \$0sinewave;
#X obj 570 79 until;
#X obj 570 107 f;
#X obj 601 109 + 1;
#X obj 575 327 sin;
#X obj 574 304 * 6.28319;
#X obj 565 166 t f f;
#X obj 575 358 tabwrite \$0sinewave;
#X obj 572 25 loadbang;
#X obj 475 529 tabwrite \$0squarewave;
#X obj 483 410 mod 2;
#X obj 493 434 * 2;
#X obj 494 459 - 1;
#X obj 574 278 / 512;
#X obj 479 386 div 256;
#X obj 602 130 mod 515;
#X msg 572 52 515;
#X obj 470 556 table \$0squarewave 515;
#X obj 786 511 table \$0sawwave 515;
#X obj 963 631 table \$0triwave 515;
#X obj 609 394 table \$0sinewave 515;
#X obj 782 487 tabwrite \$0sawwave;
#X obj 774 395 mod 512;
#X obj 502 496 * -1;
#X obj 774 420 / 256;
#X obj 779 444 - 1;
#X obj 782 465 * -1;
#X obj 946 272 mod 512;
#X obj 962 600 tabwrite \$0triwave;
#X obj 1040 358 * 2;
#X obj 1037 384 - 1;
#X obj 960 410 *;
#X obj 947 299 t f f;
#X obj 958 436 / 512;
#X obj 1034 335 < 256;
#X obj 982 462 -;
#X obj 1001 487 * 4;
#X obj 1000 520 + 3;
#X obj 835 210 + 128;
#X text 341 -18 square/saw/tri/sine osc \, not antialiased \, with
variable geometry (or pw);
#X connect 0 0 7 0;
#X connect 0 0 6 0;
#X connect 1 0 0 0;
#X connect 3 0 55 0;
#X connect 3 0 56 0;
#X connect 3 0 57 0;
#X connect 3 0 58 0;
#X connect 4 0 51 0;
#X connect 5 0 32 0;
#X connect 6 0 5 0;
#X connect 7 0 27 0;
#X connect 8 0 5 1;
#X connect 8 0 24 1;
#X connect 9 0 10 0;
#X connect 9 1 8 1;
#X connect 10 0 8 0;
#X connect 11 0 31 0;
#X connect 12 0 13 0;
#X connect 13 0 6 2;
#X connect 13 0 7 1;
#X connect 13 0 21 0;
#X connect 13 0 24 0;
#X connect 13 0 27 1;
#X connect 14 0 18 0;
#X connect 15 0 14 0;
#X connect 15 1 18 1;
#X connect 17 0 32 0;
#X connect 18 0 19 0;
#X connect 19 0 17 1;
#X connect 20 0 22 0;
#X connect 21 0 20 0;
#X connect 21 1 22 1;
#X connect 22 0 19 1;
#X connect 24 0 15 0;
#X connect 27 0 17 0;
#X connect 31 0 9 0;
#X connect 31 0 12 0;
#X connect 32 0 3 0;
#X connect 33 0 2 0;
#X connect 34 0 45 0;
#X connect 34 0 46 0;
#X connect 34 0 47 0;
#X connect 34 0 49 0;
#X connect 35 0 33 1;
#X connect 36 0 2 0;
#X connect 37 0 36 1;
#X connect 38 0 2 0;
#X connect 39 0 38 1;
#X connect 40 0 2 0;
#X connect 41 0 40 1;
#X connect 43 0 35 0;
#X connect 44 0 37 0;
#X connect 45 0 43 0;
#X connect 46 0 44 0;
#X connect 47 0 48 0;
#X connect 48 0 39 0;
#X connect 49 0 50 0;
#X connect 50 0 41 0;
#X connect 51 0 34 0;
#X connect 55 0 33 0;
#X connect 56 0 36 0;
#X connect 57 0 38 0;
#X connect 58 0 40 0;
#X connect 59 0 60 0;
#X connect 60 0 61 0;
#X connect 60 0 64 0;
#X connect 61 0 73 0;
#X connect 62 0 65 0;
#X connect 63 0 62 0;
#X connect 64 0 71 0;
#X connect 64 0 72 0;
#X connect 64 0 80 0;
#X connect 64 0 96 0;
#X connect 64 1 65 1;
#X connect 64 1 67 1;
#X connect 64 1 79 1;
#X connect 64 1 86 1;
#X connect 66 0 74 0;
#X connect 68 0 69 0;
#X connect 69 0 70 0;
#X connect 70 0 81 0;
#X connect 71 0 63 0;
#X connect 72 0 68 0;
#X connect 73 0 60 1;
#X connect 74 0 59 0;
#X connect 80 0 82 0;
#X connect 81 0 67 0;
#X connect 82 0 83 0;
#X connect 83 0 84 0;
#X connect 84 0 79 0;
#X connect 85 0 90 0;
#X connect 87 0 88 0;
#X connect 88 0 89 1;
#X connect 89 0 91 0;
#X connect 90 0 89 0;
#X connect 90 1 92 0;
#X connect 91 0 93 0;
#X connect 92 0 87 0;
#X connect 92 0 93 1;
#X connect 93 0 94 0;
#X connect 94 0 95 0;
#X connect 95 0 86 0;
#X connect 96 0 85 0;
