#N canvas 1 77 668 337 10;
#X obj 204 220 outlet~;
#X obj 201 169 table \$0outputtable \$1;
#X obj 205 194 tabreceive~ \$0outputtable;
#X text 147 3 output continous signals via bang at blocksize;
#X obj 84 76 inlet;
#X obj 145 78 inlet;
#X text 74 46 table x y write;
#X text 348 171 \$1-argument is tablesite(= blocksize);
#X obj 38 161 tabwrite \$0outputtable;
#X connect 2 0 0 0;
#X connect 4 0 8 0;
#X connect 5 0 8 1;
