#N canvas 964 350 513 341 10;
#X obj 46 60 inlet;
#X obj 92 60 inlet;
#X obj 272 63 inlet;
#X obj 188 61 inlet;
#X obj 28 252 outlet;
#X obj 128 257 outlet;
#X obj 139 210 table \$0table \$1;
#X obj 21 114 tabread \$0table;
#X text 42 38 read1;
#X text 96 39 read2;
#X text 274 41 index;
#X text 192 39 value;
#X obj 63 158 tabread \$0table;
#X obj 152 127 tabwrite \$0table;
#X text 42 13 wrapper abs for unique table with id-out;
#X obj 348 15 inlet;
#X obj 355 89 t b;
#X obj 355 123 \$0;
#X obj 360 232 outlet;
#X obj 396 14 loadbang;
#X text 359 -5 tablename;
#X msg 360 197 symbol \$1table;
#X connect 0 0 7 0;
#X connect 1 0 12 0;
#X connect 2 0 13 1;
#X connect 3 0 13 0;
#X connect 7 0 4 0;
#X connect 12 0 5 0;
#X connect 15 0 16 0;
#X connect 16 0 17 0;
#X connect 17 0 21 0;
#X connect 19 0 16 0;
#X connect 21 0 18 0;
