#N canvas 723 205 1052 778 10;
#X obj 717 406 text define \$0seq;
#X msg 715 382 clear;
#X obj 340 364 text set \$0seq;
#X obj 324 323 t a b;
#X text 426 323 who needs more events?;
#X obj 271 176 t b b;
#X msg 382 323 999999;
#X obj 307 297 spigot;
#X obj 268 204 timer;
#X msg 135 315 line 0;
#X msg 136 360 auto;
#X obj 236 404 text sequence \$0seq -w 1;
#X msg 107 77 tempo \$1 permin;
#X obj 319 239 pack f f f f;
#X msg 329 179 1;
#X obj 226 451 route 1;
#X text 583 161 1=note on/off \, 2=pb \, 3=ctl;
#X msg 400 168 2;
#X msg 542 142 3;
#X msg 482 123 0;
#X obj 294 449 route 2;
#X obj 356 450 route 3;
#X obj 630 84 f;
#X obj 605 57 t b f;
#X text 507 123 dummy;
#X obj 23 28 inlet;
#X obj 71 13 inlet;
#X obj 354 0 inlet;
#X obj 396 2 inlet;
#X text 355 -20 pitch;
#X text 401 -19 velocity;
#X text 479 -10 bend;
#X obj 479 12 inlet;
#X obj 573 -1 inlet;
#X obj 649 7 inlet;
#X text 572 -20 ctl-value;
#X text 656 -12 ctl-nr;
#X obj 219 487 unpack f f;
#X obj 214 525 outlet;
#X obj 267 525 outlet;
#X obj 385 526 outlet;
#X obj 443 524 outlet;
#X obj 373 482 unpack f f;
#X obj 296 481 unpack f f;
#X obj 325 529 outlet;
#X text 205 555 pitch;
#X text 252 554 velocity;
#X text 322 553 bend;
#X text 376 553 ctl-value;
#X text 442 556 ctl-nr;
#X text 70 -4 bpm;
#X obj 184 -18 inlet;
#X text 19 7 trig;
#X msg 343 271 1;
#X msg 233 246 0;
#X text 184 -37 func;
#X text 773 1 midi-events to text recorder;
#X text 238 385 player;
#X text 383 348 recorder;
#X obj 858 516 outlet;
#X text 874 494 dump;
#N canvas 1 77 450 300 once 0;
#X obj 115 68 inlet;
#X obj 275 67 inlet;
#X obj 178 258 outlet;
#X msg 266 107 1;
#X msg 270 134 0;
#X obj 144 167 spigot 0;
#X obj 142 197 t b b;
#X connect 0 0 5 0;
#X connect 1 0 3 0;
#X connect 3 0 5 1;
#X connect 4 0 5 1;
#X connect 5 0 6 0;
#X connect 6 0 4 0;
#X connect 6 1 2 0;
#X restore 363 70 pd once;
#X obj 322 136 t b b f b;
#X obj 443 100 t b b f b b;
#X obj 619 107 t b b f b;
#X text 189 179 output \, reset;
#X obj 869 138 inlet;
#X text 875 119 dump;
#X obj 849 444 list prepend set;
#X obj 849 467 list trim;
#X obj 847 409 text tolist \$0seq;
#X obj 848 196 text fromlist \$0seq;
#X text 382 53 armed: start rec on 1st event;
#X text 427 212 record timetageed events to text;
#X obj 619 523 outlet;
#X text 627 506 startrec;
#X obj 853 166 t a b;
#X msg 733 359 stop;
#N canvas 343 461 580 508 allnotesoff 0;
#X obj 45 16 inlet;
#X obj 142 352 outlet;
#X obj 49 111 until;
#X msg 47 81 128;
#X obj 45 41 t b b;
#X obj 52 147 int;
#X obj 92 149 + 1;
#X msg 88 79 0;
#X obj 146 327 pack f 0;
#X obj 212 46 inlet;
#X text 90 16 off;
#X text 252 44 noteevents (p \, v);
#X obj 212 81 unpack f f;
#X obj 252 125 swap;
#X obj 273 104 > 0;
#X obj 73 248 abs_table1 128;
#X obj 71 273 moses 0.1;
#X obj 65 179 t f f;
#X obj 145 299 *;
#X connect 0 0 4 0;
#X connect 2 0 5 0;
#X connect 3 0 2 0;
#X connect 4 0 3 0;
#X connect 4 1 7 0;
#X connect 5 0 6 0;
#X connect 5 0 17 0;
#X connect 6 0 5 1;
#X connect 7 0 5 1;
#X connect 8 0 1 0;
#X connect 9 0 12 0;
#X connect 12 0 13 0;
#X connect 12 1 14 0;
#X connect 13 0 15 2;
#X connect 13 1 15 3;
#X connect 14 0 13 1;
#X connect 15 0 16 0;
#X connect 16 1 18 0;
#X connect 17 0 15 0;
#X connect 17 1 18 1;
#X connect 18 0 8 0;
#X restore 628 428 pd allnotesoff;
#X obj 711 335 t b b b;
#X obj 136 214 text size \$0seq;
#X obj 105 277 spigot;
#X msg 101 235 0;
#X obj 133 239 > 0;
#X text -9 231 avoid error msg;
#X text 6 144 start playback;
#X obj 256 128 t b b;
#X obj 183 33 select arm rec stop clear dump rewind;
#X msg 242 360 stop;
#X obj 13 180 t b b b b b;
#X connect 1 0 0 0;
#X connect 3 0 2 0;
#X connect 3 1 6 0;
#X connect 5 0 8 0;
#X connect 5 1 8 1;
#X connect 6 0 2 1;
#X connect 7 0 3 0;
#X connect 8 0 13 0;
#X connect 9 0 11 0;
#X connect 10 0 11 0;
#X connect 11 0 15 0;
#X connect 11 0 20 0;
#X connect 11 0 21 0;
#X connect 12 0 8 0;
#X connect 12 0 11 0;
#X connect 13 0 7 0;
#X connect 14 0 13 1;
#X connect 15 0 37 0;
#X connect 15 0 78 1;
#X connect 17 0 13 1;
#X connect 18 0 13 1;
#X connect 19 0 13 3;
#X connect 20 0 43 0;
#X connect 21 0 42 0;
#X connect 22 0 64 0;
#X connect 23 0 22 0;
#X connect 23 1 13 3;
#X connect 25 0 89 0;
#X connect 26 0 12 0;
#X connect 27 0 62 0;
#X connect 28 0 13 3;
#X connect 32 0 63 0;
#X connect 33 0 23 0;
#X connect 34 0 22 1;
#X connect 37 0 38 0;
#X connect 37 1 39 0;
#X connect 42 0 40 0;
#X connect 42 1 41 0;
#X connect 43 0 44 0;
#X connect 51 0 87 0;
#X connect 53 0 7 1;
#X connect 54 0 7 1;
#X connect 61 0 86 0;
#X connect 62 0 5 0;
#X connect 62 1 14 0;
#X connect 62 2 13 2;
#X connect 62 3 61 0;
#X connect 63 0 5 0;
#X connect 63 1 17 0;
#X connect 63 2 13 2;
#X connect 63 3 19 0;
#X connect 63 4 61 0;
#X connect 64 0 5 0;
#X connect 64 1 18 0;
#X connect 64 2 13 2;
#X connect 64 3 61 0;
#X connect 66 0 76 0;
#X connect 68 0 69 0;
#X connect 69 0 59 0;
#X connect 70 0 68 0;
#X connect 76 0 71 0;
#X connect 76 1 79 0;
#X connect 77 0 11 0;
#X connect 78 0 37 0;
#X connect 79 0 1 0;
#X connect 79 1 77 0;
#X connect 79 2 78 0;
#X connect 80 0 83 0;
#X connect 81 0 9 0;
#X connect 82 0 81 1;
#X connect 83 0 81 1;
#X connect 86 0 8 0;
#X connect 86 1 53 0;
#X connect 86 1 74 0;
#X connect 87 0 61 1;
#X connect 87 0 79 0;
#X connect 87 1 86 0;
#X connect 87 1 79 0;
#X connect 87 2 54 0;
#X connect 87 3 79 0;
#X connect 87 4 70 0;
#X connect 87 5 88 0;
#X connect 87 5 9 0;
#X connect 87 5 78 0;
#X connect 87 5 54 0;
#X connect 88 0 11 0;
#X connect 89 0 10 0;
#X connect 89 1 81 0;
#X connect 89 2 80 0;
#X connect 89 3 82 0;
#X connect 89 4 78 0;
