#N canvas 963 288 796 650 10;
#X obj 173 64 inlet;
#X obj 198 153 * \$1;
#X obj 202 127 clip 0 1;
#X obj 103 215 random;
#X obj 174 89 t b f;
#X obj 174 299 f;
#X obj 122 300 +;
#X obj 57 524 outlet;
#X text 172 42 random walk like randomnr \, 1st argument: range (int)
;
#X obj 192 408 - \$1;
#X obj 274 498 -;
#X obj 267 441 t b f;
#X text 216 66 randomize (1=random \, <<1 walk);
#X obj 463 73 inlet;
#X text 504 78 set value;
#X obj 130 362 moses \$1;
#X obj 268 468 \$1;
#X obj 107 245 t f b;
#N canvas 847 546 450 300 bounce 0;
#X obj 49 63 inlet;
#X obj 207 71 inlet;
#X text 50 42 in;
#X text 208 48 range;
#X obj 73 272 outlet;
#X obj 184 166 -;
#X obj 41 120 moses 0;
#X obj 100 153 moses;
#X obj 182 195 * 2;
#X obj 49 87 t f f;
#X obj 128 231 -;
#X text 224 174 bigger than range;
#X obj 21 166 * -1;
#X text -45 170 smaller 0;
#X connect 0 0 9 0;
#X connect 1 0 5 1;
#X connect 1 0 7 1;
#X connect 5 0 8 0;
#X connect 6 0 12 0;
#X connect 6 1 7 0;
#X connect 7 0 4 0;
#X connect 7 1 10 0;
#X connect 8 0 10 1;
#X connect 9 0 6 0;
#X connect 9 1 5 0;
#X connect 10 0 4 0;
#X connect 12 0 4 0;
#X restore 74 406 pd bounce;
#X obj 22 274 loadbang;
#X obj 51 321 \$1;
#X connect 0 0 4 0;
#X connect 1 0 3 1;
#X connect 2 0 1 0;
#X connect 3 0 17 0;
#X connect 4 0 3 0;
#X connect 4 1 2 0;
#X connect 5 0 6 1;
#X connect 6 0 5 1;
#X connect 6 0 15 0;
#X connect 6 0 18 0;
#X connect 9 0 11 0;
#X connect 10 0 5 1;
#X connect 11 0 16 0;
#X connect 11 1 10 1;
#X connect 13 0 5 1;
#X connect 13 0 7 0;
#X connect 15 0 5 1;
#X connect 15 1 9 0;
#X connect 16 0 10 0;
#X connect 17 0 6 0;
#X connect 17 1 5 0;
#X connect 18 0 7 0;
#X connect 19 0 20 0;
#X connect 20 0 18 1;
