#N canvas 289 88 931 794 10;
#N canvas 1 79 450 250 (subpatch) 0;
#X array \$0display 640 float 0;
#X coords 0 1 639 0 640 24 2 0 0;
#X restore 101 115 graph;
#X obj 199 280 int;
#X obj 197 257 until;
#X obj 231 282 + 1;
#X msg 236 257 0;
#X obj 302 772 tabwrite \$0display;
#X obj 96 337 / 100;
#X obj 106 361 *;
#X obj 113 241 t b;
#X obj 112 267 delay 100;
#X obj 546 200 inlet;
#X obj 51 151 inlet;
#X text 14 134 startpercent;
#X obj 445 168 inlet;
#X text 481 169 samplelen;
#X obj 374 201 inlet;
#X obj 298 203 inlet;
#X obj 347 291 /;
#X obj 299 235 t b f;
#X text 261 183 original length \, loop length;
#X obj 393 502 *;
#X obj 411 455 t b f;
#X text 105 222 redraw;
#X obj -1 62 inlet;
#X text -2 46 filename;
#X obj 101 102 cnv 10 200 12 empty empty empty 20 12 0 14 -262144 -66577
0;
#X symbolatom 101 101 80 0 0 0 - - -, f 80;
#X obj 190 233 t f b;
#X obj 196 485 int;
#X obj 190 460 until;
#X obj 227 491 + 1;
#X msg 261 450 0;
#X obj 243 643 tabread;
#X obj 243 666 abs;
#X obj 239 581 *;
#X obj 239 603 +;
#X obj 243 558 +;
#X obj 195 530 t b f;
#X obj 140 726 float;
#X obj 182 397 t b b f b;
#X obj 221 318 t f f;
#X obj 182 692 max;
#X msg 174 209 640;
#X obj 379 538 / 640;
#X obj 811 217 inlet;
#X text 794 195 shift pixels;
#X obj 417 715 mod 640;
#X obj 395 645 +;
#X obj 789 298 t b f;
#X msg 3 427 \; \$1display normalize 1;
#X obj 8 403 \$0;
#X obj 112 294 t b b;
#X text 59 495 max of 10 samples;
#X msg 191 434 10;
#X obj 196 510 / 10;
#X msg 335 391 set \$1;
#X text 544 181 tablename;
#X floatatom 631 101 18 0 0 0 - - -, f 18;
#X obj 608 258 /;
#X obj 642 214 samplerate~;
#X obj 646 184 loadbang;
#X text 151 43 waveformdisplay abs for sampler \, v4;
#X obj 116 662 f;
#X connect 1 0 3 0;
#X connect 1 0 40 0;
#X connect 2 0 1 0;
#X connect 3 0 1 1;
#X connect 4 0 1 1;
#X connect 6 0 7 0;
#X connect 7 0 35 1;
#X connect 8 0 9 0;
#X connect 9 0 51 0;
#X connect 10 0 55 0;
#X connect 11 0 6 0;
#X connect 11 0 8 0;
#X connect 13 0 7 1;
#X connect 13 0 20 0;
#X connect 13 0 58 0;
#X connect 15 0 17 0;
#X connect 16 0 18 0;
#X connect 17 0 21 0;
#X connect 18 0 17 0;
#X connect 18 1 17 1;
#X connect 20 0 8 0;
#X connect 20 0 43 0;
#X connect 21 0 20 0;
#X connect 21 1 20 1;
#X connect 23 0 26 0;
#X connect 27 0 2 0;
#X connect 27 1 4 0;
#X connect 28 0 30 0;
#X connect 28 0 54 0;
#X connect 29 0 28 0;
#X connect 30 0 28 1;
#X connect 31 0 28 1;
#X connect 31 0 41 1;
#X connect 31 0 62 1;
#X connect 32 0 33 0;
#X connect 33 0 41 1;
#X connect 34 0 35 0;
#X connect 35 0 32 0;
#X connect 36 0 34 0;
#X connect 37 0 62 0;
#X connect 37 1 36 0;
#X connect 38 0 5 0;
#X connect 39 0 38 0;
#X connect 39 1 53 0;
#X connect 39 2 36 1;
#X connect 39 3 31 0;
#X connect 40 0 39 0;
#X connect 40 1 47 0;
#X connect 41 0 38 1;
#X connect 41 0 62 1;
#X connect 42 0 27 0;
#X connect 43 0 34 1;
#X connect 44 0 48 0;
#X connect 46 0 5 1;
#X connect 47 0 46 0;
#X connect 48 0 8 0;
#X connect 48 1 47 1;
#X connect 50 0 49 0;
#X connect 51 0 50 0;
#X connect 51 1 42 0;
#X connect 53 0 29 0;
#X connect 54 0 37 0;
#X connect 55 0 32 0;
#X connect 58 0 57 0;
#X connect 59 0 58 1;
#X connect 60 0 59 0;
#X connect 62 0 41 0;
#X coords 0 -1 1 1 642 40 2 100 100;
