#N canvas 405 77 964 860 10;
#X obj 128 430 *~;
#X obj 128 479 cos~;
#X obj 234 240 *~;
#X obj 385 257 *~;
#X obj 75 265 phasor~;
#X obj 467 323 +~ 0.5;
#X obj 467 348 wrap~;
#X obj 128 502 +~ 1;
#X obj 74 366 -~ 0.5;
#X obj 131 594 +~;
#X obj 73 430 *~;
#X obj 73 453 cos~;
#X obj 210 400 samphold~;
#X obj 122 399 samphold~;
#X obj 72 478 *~;
#X obj 128 454 clip~ -0.5 0.5;
#X obj 368 441 *~;
#X obj 368 490 cos~;
#X obj 368 513 +~ 1;
#X obj 314 377 -~ 0.5;
#X obj 313 441 *~;
#X obj 313 464 cos~;
#X obj 450 411 samphold~;
#X obj 362 410 samphold~;
#X obj 312 489 *~;
#X obj 368 465 clip~ -0.5 0.5;
#X obj 385 281 max~ 1;
#X obj 131 633 outlet~;
#X obj 108 25 inlet~;
#X obj 250 27 inlet~;
#X obj 383 33 inlet~;
#X text 392 12 bw;
#X text 258 8 center;
#X text 108 8 pitch;
#X text 496 68 \, f14. wavepacket from the pd docs \, modified for
signal modulation;
#X obj 120 114 mtof~;
#X obj 121 90 -~ 12;
#X obj 275 194 expr~ 1/$v1;
#X obj 250 62 mtof~;
#X obj 385 68 mtof~;
#X connect 0 0 15 0;
#X connect 1 0 7 0;
#X connect 2 0 13 0;
#X connect 2 0 23 0;
#X connect 3 0 26 0;
#X connect 4 0 5 0;
#X connect 4 0 8 0;
#X connect 4 0 13 1;
#X connect 4 0 12 1;
#X connect 5 0 6 0;
#X connect 6 0 19 0;
#X connect 6 0 23 1;
#X connect 6 0 22 1;
#X connect 7 0 14 1;
#X connect 8 0 0 0;
#X connect 8 0 10 0;
#X connect 9 0 27 0;
#X connect 10 0 11 0;
#X connect 11 0 14 0;
#X connect 12 0 0 1;
#X connect 13 0 10 1;
#X connect 14 0 9 0;
#X connect 15 0 1 0;
#X connect 16 0 25 0;
#X connect 17 0 18 0;
#X connect 18 0 24 1;
#X connect 19 0 16 0;
#X connect 19 0 20 0;
#X connect 20 0 21 0;
#X connect 21 0 24 0;
#X connect 22 0 16 1;
#X connect 23 0 20 1;
#X connect 24 0 9 1;
#X connect 25 0 17 0;
#X connect 26 0 12 0;
#X connect 26 0 22 0;
#X connect 28 0 36 0;
#X connect 29 0 38 0;
#X connect 30 0 39 0;
#X connect 35 0 4 0;
#X connect 35 0 37 0;
#X connect 36 0 35 0;
#X connect 37 0 2 1;
#X connect 37 0 3 1;
#X connect 38 0 2 0;
#X connect 39 0 3 0;
