#N canvas 835 86 1020 881 10;
#X obj 19 163 inlet;
#X obj 437 487 vline~;
#X obj 411 393 pack f f f;
#X msg 426 425 1 \$2 \$1 \, 0 \$2 \$3;
#X obj 128 152 /;
#X msg 118 127 1;
#X obj 121 102 t b f;
#X obj 385 333 random 64;
#X obj 376 366 *;
#X msg 400 465 0;
#X text 414 364 random-sub-frame-delay \, ramp \, length;
#X obj 252 591 +~;
#X text 14 146 trigger;
#X obj 260 845 outlet~;
#X obj 260 809 *~;
#X obj 362 840 outlet~;
#X obj 361 815 *~;
#X obj 934 357 inlet;
#X obj 665 483 - 0.5;
#X obj 660 518 *;
#X msg 643 625 1;
#X obj 645 653 -;
#X obj 649 590 t b f;
#X obj 662 437 random 1000;
#X obj 665 460 / 1000;
#X obj 660 546 + 0.5;
#X obj 304 74 inlet;
#X obj 428 77 inlet;
#X obj 122 76 inlet;
#X text 120 60 samplerate;
#X obj 369 253 +;
#X obj 258 681 *~;
#X obj 491 205 inlet;
#X text 490 187 ramp (0..0.5);
#X text 930 340 pan rnd (0..1);
#X obj 586 207 inlet;
#X obj 695 172 inlet;
#X obj 570 412 +;
#X obj 636 260 / 10000;
#X obj 759 216 inlet;
#X obj 850 237 inlet;
#X obj 458 277 *;
#X obj 477 344 -;
#X obj 429 237 t f f;
#X obj 489 317 * 2;
#X text 472 468 amp env;
#X obj 818 479 +;
#X text 757 199 tp (semi);
#X obj 836 333 / 1000;
#X obj 238 201 t b b b;
#X obj 837 309 random 1000;
#X obj 636 235 random 10000;
#X obj 636 284 *;
#X obj 380 145 / 10000;
#X obj 371 123 random 10000;
#X obj 401 168 *;
#X text 671 421 rnd pan;
#X text 858 291 rnd tp;
#X text 500 339 len - up down;
#X text 199 185 random \, env-init+random \, trigger;
#X text 300 57 length(ms);
#X text 583 188 pos(ms);
#X text 427 61 len rnd(ms);
#X text 693 154 pos rnd (ms);
#X text 852 219 p rand (semi);
#X obj 865 368 / 2;
#X obj 834 357 *;
#X obj 841 388 -;
#X text 544 88 particle (grain) for granular-delay \, mono2stereo;
#X obj 252 621 vd~ \$1grainsource;
#X text 155 542 pitch ramp;
#X obj 816 543 exp;
#X obj 799 732 /;
#X obj 762 646 t b f;
#X obj 813 571 - 1;
#X obj 818 523 * 0.05776;
#X obj 813 601 * -1;
#X obj 226 530 phasor~;
#X obj 247 569 *~;
#X msg 249 498 1;
#X obj 221 473 delay;
#X obj 762 619 * 0.001;
#X obj 228 446 t b f;
#X text 858 559 2 speedchange \, borrowed from pitchshifter;
#X connect 0 0 49 0;
#X connect 1 0 31 1;
#X connect 2 0 3 0;
#X connect 3 0 1 0;
#X connect 4 0 8 1;
#X connect 5 0 4 0;
#X connect 6 0 5 0;
#X connect 6 1 4 1;
#X connect 7 0 8 0;
#X connect 8 0 2 0;
#X connect 8 0 82 0;
#X connect 9 0 1 0;
#X connect 11 0 69 0;
#X connect 14 0 13 0;
#X connect 16 0 15 0;
#X connect 17 0 19 1;
#X connect 18 0 19 0;
#X connect 19 0 25 0;
#X connect 20 0 21 0;
#X connect 21 0 16 1;
#X connect 22 0 20 0;
#X connect 22 1 21 1;
#X connect 23 0 24 0;
#X connect 24 0 18 0;
#X connect 25 0 14 1;
#X connect 25 0 22 0;
#X connect 26 0 30 1;
#X connect 27 0 55 1;
#X connect 28 0 6 0;
#X connect 30 0 43 0;
#X connect 30 0 81 0;
#X connect 30 0 78 1;
#X connect 31 0 14 0;
#X connect 31 0 16 0;
#X connect 32 0 41 1;
#X connect 35 0 37 1;
#X connect 36 0 52 1;
#X connect 37 0 11 1;
#X connect 38 0 52 0;
#X connect 39 0 46 1;
#X connect 40 0 65 0;
#X connect 40 0 66 1;
#X connect 41 0 2 1;
#X connect 41 0 44 0;
#X connect 42 0 2 2;
#X connect 43 0 42 0;
#X connect 43 1 41 0;
#X connect 44 0 42 1;
#X connect 46 0 75 0;
#X connect 48 0 66 0;
#X connect 49 0 7 0;
#X connect 49 1 9 0;
#X connect 49 1 23 0;
#X connect 49 1 51 0;
#X connect 49 1 54 0;
#X connect 49 2 50 0;
#X connect 50 0 48 0;
#X connect 51 0 38 0;
#X connect 52 0 37 0;
#X connect 53 0 55 0;
#X connect 54 0 53 0;
#X connect 55 0 30 0;
#X connect 65 0 67 1;
#X connect 66 0 67 0;
#X connect 67 0 46 0;
#X connect 69 0 31 0;
#X connect 71 0 74 0;
#X connect 72 0 77 0;
#X connect 73 0 72 0;
#X connect 73 1 72 1;
#X connect 74 0 76 0;
#X connect 75 0 71 0;
#X connect 76 0 72 0;
#X connect 77 0 78 0;
#X connect 78 0 11 0;
#X connect 79 0 77 1;
#X connect 80 0 79 0;
#X connect 81 0 73 0;
#X connect 82 0 80 0;
#X connect 82 1 80 1;
