#N canvas 400 142 1030 670 10;
#X obj 92 84 inlet;
#X obj 105 139 sel 0;
#X obj 329 298 t b;
#X obj 449 242 inlet;
#X obj 408 377 del \$2;
#X obj 451 455 pack 0 \$3;
#X obj 524 247 inlet;
#X obj 586 247 inlet;
#X obj 659 246 inlet;
#X msg 105 170 stop;
#X obj 582 402 pack 0 \$5;
#X text 445 220 attack;
#X text 525 224 decay;
#X text 579 225 sustain;
#X text 656 225 release;
#X obj 289 235 moses;
#X obj 279 265 t b b;
#X msg 87 385 0;
#X obj 210 358 f 1;
#X obj 108 108 t f f;
#X obj 449 572 outlet~;
#X text 88 59 trigger/peak;
#X text 68 23 ADSR ENVELOPE \, more or less from pd doc \, audio-rate
version;
#X obj 213 390 pack 0 \$1;
#X obj 449 547 vline~;
#X obj 468 374 * \$4;
#X obj 437 411 f;
#X connect 0 0 19 0;
#X connect 1 0 9 0;
#X connect 1 0 10 0;
#X connect 1 1 15 0;
#X connect 2 0 4 0;
#X connect 2 0 18 0;
#X connect 3 0 4 1;
#X connect 3 0 23 1;
#X connect 4 0 26 0;
#X connect 5 0 24 0;
#X connect 6 0 5 1;
#X connect 7 0 25 1;
#X connect 8 0 10 1;
#X connect 9 0 4 0;
#X connect 10 0 24 0;
#X connect 15 0 16 0;
#X connect 15 1 2 0;
#X connect 16 0 2 0;
#X connect 16 1 17 0;
#X connect 17 0 24 0;
#X connect 18 0 23 0;
#X connect 19 0 1 0;
#X connect 19 1 18 1;
#X connect 19 1 25 0;
#X connect 23 0 24 0;
#X connect 24 0 20 0;
#X connect 25 0 26 1;
#X connect 26 0 5 0;
