#N canvas 634 206 1098 805 10;
#X obj 14 559 dac~;
#X obj 17 515 *~ 0.5;
#N canvas 218 81 1184 711 songpos96-16 0;
#X obj 318 440 + 1;
#X obj 267 436 float;
#X msg 206 296 1;
#X obj 218 321 /;
#X obj 209 273 t f f;
#X obj 228 344 * 15000;
#X obj 339 355 t b f;
#X obj 263 405 metro 125;
#X msg 340 329 -2;
#X obj 172 17 loadbang;
#X floatatom 126 113 5 30 300 0 bpm - -, f 5;
#X msg -2 85 set \$1;
#X msg 5 139 120;
#X obj 174 112 bng 15 250 50 0 empty empty empty 6 7 0 10 -261234 -1
-1;
#X obj 278 636 outlet;
#X obj 570 496 outlet;
#X text 618 497 bpm->;
#X obj 200 112 bng 15 50 20 0 empty empty empty 6 7 0 10 -204786 -1
-1;
#X obj 208 225 float;
#X obj 435 539 outlet;
#X text 144 343 1/16 in ms;
#X text 485 540 pos96->;
#X obj 259 373 / 6;
#X text 219 371 1/96;
#X obj 280 481 / 6;
#X obj 280 505 int;
#X obj 279 530 change;
#X obj 600 64 + 1;
#X obj 602 29 float;
#X obj 600 96 moses 2;
#X obj 600 155 timer;
#X obj 600 123 t b;
#X obj 648 122 t b b;
#X obj 653 243 /;
#X msg 623 221 60000;
#X obj 618 183 t b f;
#X obj 656 268 moses 10;
#X text 500 72 beatcounter;
#X obj 772 358 float;
#X obj 769 401 + 1;
#X obj 688 426 +;
#X obj 729 396 *;
#X obj 705 328 t f b;
#X obj 698 464 /;
#X msg 884 211 0;
#X text 499 302 mean (as seen on idafx blog);
#X obj 864 324 t f f;
#X obj 921 503 moses 0.1;
#X text 880 303 reset;
#X obj 870 366 /;
#X obj 849 431 < 0.75;
#X obj 903 435 > 1.25;
#X obj 869 391 t f f;
#X obj 877 471 ||;
#X obj 174 54 t b b b;
#X obj 43 -7 inlet;
#X obj 107 -11 inlet;
#X text 329 637 pos16->;
#X text 46 14 sync;
#X text 111 10 tap;
#X connect 0 0 1 1;
#X connect 0 0 24 0;
#X connect 0 0 19 0;
#X connect 1 0 0 0;
#X connect 2 0 3 0;
#X connect 3 0 5 0;
#X connect 4 0 2 0;
#X connect 4 1 3 1;
#X connect 5 0 22 0;
#X connect 6 0 7 0;
#X connect 6 1 1 0;
#X connect 7 0 1 0;
#X connect 8 0 6 0;
#X connect 9 0 54 0;
#X connect 10 0 11 0;
#X connect 10 0 18 1;
#X connect 11 0 12 0;
#X connect 12 0 10 0;
#X connect 13 0 8 0;
#X connect 13 0 18 0;
#X connect 17 0 28 0;
#X connect 18 0 4 0;
#X connect 18 0 15 0;
#X connect 22 0 7 1;
#X connect 24 0 25 0;
#X connect 25 0 26 0;
#X connect 26 0 14 0;
#X connect 27 0 28 1;
#X connect 27 0 29 0;
#X connect 28 0 27 0;
#X connect 29 0 31 0;
#X connect 29 1 32 0;
#X connect 30 0 35 0;
#X connect 30 0 46 0;
#X connect 31 0 30 0;
#X connect 32 0 30 0;
#X connect 32 1 30 1;
#X connect 33 0 36 0;
#X connect 34 0 33 0;
#X connect 35 0 34 0;
#X connect 35 1 33 1;
#X connect 36 1 42 0;
#X connect 38 0 39 0;
#X connect 38 0 41 0;
#X connect 39 0 38 1;
#X connect 39 0 43 1;
#X connect 40 0 43 0;
#X connect 41 0 40 1;
#X connect 42 0 40 0;
#X connect 42 1 38 0;
#X connect 43 0 41 1;
#X connect 43 0 10 0;
#X connect 44 0 38 1;
#X connect 44 0 28 1;
#X connect 46 0 49 1;
#X connect 46 1 49 0;
#X connect 47 1 44 0;
#X connect 49 0 52 0;
#X connect 50 0 53 0;
#X connect 51 0 53 1;
#X connect 52 0 50 0;
#X connect 52 1 51 0;
#X connect 53 0 47 0;
#X connect 54 0 13 0;
#X connect 54 1 13 0;
#X connect 54 2 12 0;
#X connect 55 0 13 0;
#X connect 56 0 17 0;
#X coords 0 -1 1 1 120 30 1 100 100;
#X restore 12 2 pd songpos96-16;
#N canvas 206 127 1578 886 beatloop6 0;
#X floatatom 127 116 4 3 999 0 oln - -, f 4;
#X obj 104 214 hsl 251 8 0 1 0 0 empty empty empty -2 -6 0 8 -262144
-258699 -1 12500 1;
#X obj 69 -141 mod;
#X obj -19 -176 inlet;
#X obj -91 -341 inlet;
#X text 21 -175 <-bpm;
#X msg -52 -111 1;
#X obj -28 -87 /;
#X obj -55 -132 t f f;
#X obj -27 -58 * 15000;
#X text -104 -58 1/16 in ms;
#X obj 169 -137 /;
#X msg 148 -179 100;
#X obj 139 -213 t b f;
#X obj 131 -108 *;
#X obj 131 -83 t b f;
#X msg 80 -26 1;
#X floatatom 226 116 4 3 999 0 lln - -, f 4;
#X obj 205 -16 /;
#X obj 155 -24 +;
#X obj 70 -166 +;
#X obj 229 -331 inlet;
#X text 273 -331 pos offset (1/16);
#X obj 332 -298 inlet;
#X text 383 -299 tp (semitones \, -36..36);
#X floatatom 269 116 4 -36 36 0 tp - -, f 4;
#X obj 823 -102 loadbang;
#X msg 329 -3 set \$1;
#X msg 331 23 0;
#X msg 314 -82 set \$1;
#X msg 318 -59 16;
#X msg 391 16 set \$1;
#X msg 395 46 16;
#X floatatom 171 116 5 0 99 0 st - -, f 5;
#X msg 457 35 set \$1;
#X msg 458 61 0;
#X msg 172 503 set \$1;
#X obj 333 1420 outlet~;
#X obj 343 517 t b b;
#X msg -36 922 0;
#X obj 175 901 pack;
#X obj 258 756 / 44.1;
#X obj 217 808 *;
#X obj 228 718 t b f b;
#X msg 564 613 1.05946;
#X obj 566 638 pow;
#X obj 554 549 * -1;
#X msg -3 890 -1 9.72;
#X obj 18 1161 *~;
#X obj -133 555 moses 0.001;
#X obj -149 872 pack;
#X msg -119 957 1 2.43;
#X msg -127 917 set \$1 \$2;
#X obj -46 677 t b b f;
#X obj -14 777 * -1;
#X msg 3 845 set \$1 \$2;
#X obj 6 816 pack;
#X obj -8 1123 +~;
#X text -120 1098 attack;
#X text 59 1092 release;
#X obj 553 577 t b f;
#X obj 64 795 delay 1;
#X obj 70 825 t b b;
#X text 609 433 tp (semitones);
#X text -314 431 trigger/vel (0..1);
#X obj 160 789 *;
#X obj 205 847 *;
#X obj 319 880 -;
#X msg 310 847 1;
#X text -115 426 duration (ms);
#X obj 305 805 t b b f;
#X obj 396 663 float;
#X msg -214 619 bang;
#X text 420 410 sample start (percent);
#X obj 375 751 / 100;
#X obj -213 646 delay 1;
#X obj -256 447 pack;
#X obj -256 469 route 0 1;
#X obj -149 421 pack;
#X obj -152 455 route 0 1;
#X obj 391 429 pack;
#X obj 391 451 route 0 1;
#X obj 579 443 pack;
#X obj 579 465 route 0 1;
#X msg 838 923 0;
#X obj 1022 843 pack;
#X obj 1103 703 / 44.1;
#X obj 1076 754 *;
#X obj 1065 682 t b f b;
#X msg 1166 581 1.05946;
#X obj 1163 615 pow;
#X obj 1152 524 * -1;
#X msg 871 891 -1 9.72;
#X obj 774 612 moses 0.001;
#X obj 755 893 pack;
#X msg 753 962 1 2.43;
#X msg 753 930 set \$1 \$2;
#X obj 811 665 t b b f;
#X obj 860 778 * -1;
#X msg 862 853 set \$1 \$2;
#X obj 872 815 pack;
#X obj 866 1124 +~;
#X text 769 1103 attack;
#X text 933 1093 release;
#X obj 1155 545 t b f;
#X obj 925 754 delay 1;
#X obj 925 777 t b b;
#X obj 1007 747 *;
#X obj 1070 790 *;
#X obj 1186 836 -;
#X msg 1175 803 1;
#X obj 1160 757 t b b f;
#X obj 1179 650 float;
#X msg 780 643 bang;
#X obj 1167 700 / 100;
#X obj 745 722 delay 1;
#X text 615 801 2nd voice ->;
#X obj 1028 1008 vline~;
#X obj 196 991 vline~;
#X obj 58 1072 vline~;
#X obj -97 1072 vline~;
#X obj 774 1071 vline~;
#X obj 931 1073 vline~;
#X text 30 321 <-voice nr;
#X obj -27 257 mod 2;
#X obj 819 38 inlet;
#X text 861 39 <-filename;
#X obj 133 470 t b a;
#X msg 961 693 79184;
#X text -51 -341 <-pos;
#X msg 130 707 79184;
#X text 699 374 read file into table abs;
#X obj 859 1155 *~;
#X obj 152 867 float;
#X obj 98 903 float;
#X text -238 789 1st voice;
#X obj 1009 810 float;
#X obj 956 845 float;
#X text 136 451 samplelen;
#X obj -17 -7 * 44.1;
#X obj 228 410 /;
#N canvas 568 252 450 300 round 0;
#X obj 56 24 inlet;
#X obj 78 254 outlet;
#X obj 115 94 int;
#X obj 50 119 -;
#X obj 64 57 t f f;
#X obj 51 156 >= 0.5;
#X obj 77 212 +;
#X connect 0 0 4 0;
#X connect 2 0 3 1;
#X connect 2 0 6 1;
#X connect 3 0 5 0;
#X connect 4 0 3 0;
#X connect 4 1 2 0;
#X connect 5 0 6 0;
#X connect 6 0 1 0;
#X restore 237 361 pd round;
#X obj 300 102 tgl 12 1 empty empty aln 14 7 0 10 -262144 -1 -1 1 1
;
#X obj 279 278 spigot;
#X obj 454 -129 unpack f f f f f f;
#X text 382 1420 audio;
#X text 1030 210 preset;
#X obj 1033 233 float;
#X obj 101 132 abs_beatloop5deluxe_display;
#X floatatom 306 116 3 0 100 0 a - -, f 3;
#X floatatom 338 116 3 0 100 0 d - -, f 3;
#X obj 425 191 / 100;
#X obj 419 216 *;
#X obj 414 237 * 300;
#X text 410 158 slice attack/decay \, 0..300 ms;
#X text 326 281 auto looplen based on current bpm;
#X obj 483 195 / 100;
#X obj 477 220 *;
#X obj 472 241 * 300;
#X msg 509 21 set \$1;
#X msg 512 53 9;
#X msg 570 23 set \$1;
#X msg 562 51 18;
#X obj 333 1375 abs_beatloop1;
#X obj 346 101 bng 12 250 50 0 empty empty > 3 7 0 10 -262144 -262144
-1;
#X obj 591 -258 inlet;
#N canvas 230 311 682 570 readsftotable_upsampled 0;
#X obj 143 205 readsf~;
#X msg 167 175 open \$1;
#X obj 150 110 t b a;
#X msg 130 173 1;
#X obj 148 35 inlet;
#X obj 272 35 inlet;
#X obj 226 421 tabwrite~;
#X msg 239 161 set \$1;
#X obj 379 534 outlet;
#X msg 416 323 stop;
#X msg 484 322 start;
#X obj 352 396 timer;
#X obj 375 424 / 1000;
#X obj 383 465 *;
#X obj 456 390 samplerate~;
#X obj 334 249 t b b;
#X obj 268 269 t b b;
#X obj 471 224 loadbang;
#X obj 379 504 clip 0 1.4112e+06;
#X text 148 16 filename;
#X text 277 11 tablename;
#X text 378 553 samplesize;
#X obj 425 67 block~ 1024 1 16;
#X obj 115 137 delay 30;
#X connect 0 0 6 0;
#X connect 0 1 16 0;
#X connect 1 0 0 0;
#X connect 2 0 23 0;
#X connect 2 1 1 0;
#X connect 3 0 0 0;
#X connect 4 0 2 0;
#X connect 5 0 7 0;
#X connect 7 0 6 0;
#X connect 9 0 6 0;
#X connect 10 0 6 0;
#X connect 11 0 12 0;
#X connect 12 0 13 0;
#X connect 13 0 18 0;
#X connect 14 0 13 1;
#X connect 15 0 10 0;
#X connect 15 1 11 0;
#X connect 16 0 11 1;
#X connect 16 1 9 0;
#X connect 17 0 14 0;
#X connect 18 0 8 0;
#X connect 23 0 3 0;
#X connect 23 0 15 0;
#X restore 697 353 pd readsftotable_upsampled;
#X msg 946 404 symbol \$1mnbrbloop1;
#X msg 1018 445 \; \$1 resize 1.4112e+06;
#X text 589 -279 preset (list);
#X obj 1033 271 pack f f f f f f;
#X obj 1106 351 outlet;
#X msg 1033 303 set \$1 \$2 \$3 \$4 \$5 \$6;
#X obj 196 355 / 16;
#X obj 256 334 * 16;
#X obj 269 102 nbx 2 12 4 16 0 1 empty empty bl -13 5 0 10 -262144
-1 -1 16 256;
#X obj 569 347 +;
#X obj 570 315 t b f;
#X obj 792 -288 inlet~;
#X text 796 -305 audio rec in;
#X obj 1348 404 tabwrite~;
#X obj 239 102 tgl 12 0 empty empty ar 1 5 0 10 -258113 -1 -262144
0 1;
#X obj 1185 217 select 0 1;
#X msg 1348 335 stop;
#X msg 1416 334 start;
#X obj 1284 408 timer;
#X obj 1286 434 / 1000;
#X obj 1301 496 *;
#X obj 1348 437 samplerate~;
#X obj 1266 261 t b b;
#X obj 1240 287 t b b;
#X msg 1176 327 symbol rec;
#X msg 1322 362 set \$1;
#X obj 288 313 clip 4 4096;
#X obj 225 102 tgl 12 1 empty empty a 4 5 0 10 -262144 -1 -1 0 1;
#X obj 181 103 hsl 40 8 0 1 0 1 empty empty sens -2 4 0 10 -262144
-1 -1 1200 1;
#N canvas 1 77 650 604 autorec 0;
#X obj 84 86 inlet~;
#X obj 153 85 inlet;
#X obj 235 89 inlet;
#X obj 283 90 inlet;
#X text 89 63 audio;
#X text 153 66 sens(0..1);
#X text 234 71 on;
#X text 288 71 rec;
#X obj 266 382 outlet;
#X text 274 402 rec;
#N canvas 1 77 450 300 onset 0;
#X obj 110 48 inlet~;
#X obj 113 157 -;
#X obj 108 98 t f f;
#X obj 111 271 outlet;
#X obj 129 212 change;
#X obj 123 184 > 25;
#X obj 110 74 env~;
#X obj 238 80 inlet;
#X text 116 21 audio;
#X text 239 60 sensitivity;
#X obj 129 239 moses 0.1;
#X floatatom 213 201 5 0 0 0 - - -, f 5;
#X connect 0 0 6 0;
#X connect 1 0 5 0;
#X connect 1 0 11 0;
#X connect 2 0 1 1;
#X connect 2 1 1 0;
#X connect 4 0 10 0;
#X connect 5 0 4 0;
#X connect 6 0 2 0;
#X connect 7 0 5 1;
#X connect 10 1 3 0;
#X restore 124 203 pd onset;
#X obj 141 240 spigot;
#N canvas 1 77 450 300 once 0;
#X obj 115 68 inlet;
#X obj 275 67 inlet;
#X obj 178 258 outlet;
#X msg 266 107 1;
#X msg 270 134 0;
#X obj 142 197 t b b;
#X obj 144 167 spigot 1;
#X connect 0 0 6 0;
#X connect 1 0 3 0;
#X connect 3 0 6 1;
#X connect 4 0 6 1;
#X connect 5 0 4 0;
#X connect 5 1 2 0;
#X connect 6 0 5 0;
#X restore 121 281 pd once;
#X obj 219 246 select 0;
#X obj 304 264 select 0;
#X msg 302 287 0;
#X obj 156 152 *;
#X obj 156 181 * 100;
#X obj 155 122 t f f;
#X msg 240 333 1;
#X connect 0 0 10 0;
#X connect 1 0 18 0;
#X connect 2 0 14 0;
#X connect 2 0 11 1;
#X connect 3 0 13 0;
#X connect 10 0 11 0;
#X connect 11 0 12 0;
#X connect 12 0 19 0;
#X connect 13 0 12 1;
#X connect 14 0 15 0;
#X connect 15 0 8 0;
#X connect 16 0 17 0;
#X connect 17 0 10 1;
#X connect 18 0 16 0;
#X connect 18 1 16 1;
#X connect 19 0 8 0;
#X restore 270 -173 pd autorec;
#X obj 821 -245 abs_delayrw1 500;
#X msg 978 -252 1024;
#X obj 982 -221 /;
#X obj 971 -294 t b b;
#X obj 999 -272 samplerate~;
#X obj 982 -199 * 1000;
#N canvas 1 77 450 300 filenametolist 0;
#X obj 60 106 list fromsymbol;
#X obj 55 58 inlet;
#X text 56 33 filname;
#X obj 79 251 outlet;
#X obj 74 159 list prepend set;
#X obj 89 216 route list;
#X connect 0 0 4 0;
#X connect 1 0 0 0;
#X connect 4 0 5 0;
#X connect 5 0 3 0;
#X restore 822 82 pd filenametolist;
#X obj 802 250 list tosymbol;
#X msg 827 110 47 104 111 109 101 47 109 110 98 47 115 97 109 112 108
101 108 105 98 47 67 79 76 79 71 78 69 49 47 86 79 76 52 47 68 48 53
46 87 65 86;
#X obj 710 409 t b;
#X obj 750 416 delay 100;
#X connect 0 0 13 0;
#X connect 0 0 29 0;
#X connect 0 0 148 2;
#X connect 0 0 147 1;
#X connect 2 0 18 0;
#X connect 2 0 14 0;
#X connect 3 0 8 0;
#X connect 4 0 20 0;
#X connect 4 0 124 0;
#X connect 6 0 7 0;
#X connect 7 0 9 0;
#X connect 8 0 6 0;
#X connect 8 1 7 1;
#X connect 9 0 78 1;
#X connect 9 0 139 0;
#X connect 11 0 14 1;
#X connect 12 0 11 0;
#X connect 13 0 12 0;
#X connect 13 1 11 1;
#X connect 14 0 15 0;
#X connect 15 0 16 0;
#X connect 15 1 19 0;
#X connect 16 0 76 1;
#X connect 17 0 31 0;
#X connect 17 0 2 1;
#X connect 17 0 18 1;
#X connect 17 0 148 3;
#X connect 17 0 170 2;
#X connect 18 0 1 0;
#X connect 19 0 80 1;
#X connect 20 0 2 0;
#X connect 21 0 20 1;
#X connect 23 0 177 0;
#X connect 25 0 27 0;
#X connect 25 0 170 3;
#X connect 25 0 176 0;
#X connect 26 0 28 0;
#X connect 26 0 30 0;
#X connect 26 0 32 0;
#X connect 26 0 35 0;
#X connect 26 0 38 0;
#X connect 26 0 160 0;
#X connect 26 0 162 0;
#X connect 26 0 188 0;
#X connect 26 0 200 0;
#X connect 26 0 205 0;
#X connect 27 0 28 0;
#X connect 28 0 25 0;
#X connect 29 0 30 0;
#X connect 30 0 0 0;
#X connect 31 0 32 0;
#X connect 32 0 17 0;
#X connect 33 0 34 0;
#X connect 33 0 19 1;
#X connect 33 0 148 1;
#X connect 33 0 170 1;
#X connect 34 0 35 0;
#X connect 35 0 33 0;
#X connect 36 0 130 0;
#X connect 36 0 128 0;
#X connect 38 0 130 0;
#X connect 38 0 128 0;
#X connect 39 0 119 0;
#X connect 39 0 120 0;
#X connect 40 0 118 0;
#X connect 41 0 42 1;
#X connect 42 0 66 0;
#X connect 43 0 133 0;
#X connect 43 1 42 0;
#X connect 43 2 130 0;
#X connect 44 0 45 0;
#X connect 45 0 71 0;
#X connect 46 0 60 0;
#X connect 47 0 119 0;
#X connect 48 0 163 1;
#X connect 49 1 53 0;
#X connect 49 1 61 0;
#X connect 49 1 72 0;
#X connect 50 0 52 0;
#X connect 51 0 120 0;
#X connect 52 0 51 0;
#X connect 53 0 51 0;
#X connect 53 1 39 0;
#X connect 53 2 50 0;
#X connect 53 2 54 0;
#X connect 54 0 56 0;
#X connect 55 0 47 0;
#X connect 56 0 55 0;
#X connect 57 0 48 0;
#X connect 57 0 48 1;
#X connect 60 0 44 0;
#X connect 60 1 45 1;
#X connect 61 0 62 0;
#X connect 62 0 133 0;
#X connect 62 1 134 0;
#X connect 65 0 134 1;
#X connect 66 0 40 1;
#X connect 67 0 66 1;
#X connect 68 0 67 0;
#X connect 70 0 71 0;
#X connect 70 1 68 0;
#X connect 70 2 67 1;
#X connect 71 0 43 0;
#X connect 72 0 75 0;
#X connect 74 0 70 0;
#X connect 74 0 65 0;
#X connect 75 0 47 0;
#X connect 76 0 77 0;
#X connect 77 0 49 0;
#X connect 77 1 93 0;
#X connect 78 0 79 0;
#X connect 79 0 75 1;
#X connect 79 1 115 1;
#X connect 80 0 81 0;
#X connect 81 0 74 0;
#X connect 81 1 114 0;
#X connect 82 0 83 0;
#X connect 83 0 46 0;
#X connect 83 1 91 0;
#X connect 84 0 121 0;
#X connect 84 0 122 0;
#X connect 85 0 117 0;
#X connect 86 0 87 1;
#X connect 87 0 108 0;
#X connect 88 0 136 0;
#X connect 88 1 87 0;
#X connect 88 2 128 0;
#X connect 89 0 90 0;
#X connect 90 0 112 0;
#X connect 91 0 104 0;
#X connect 92 0 122 0;
#X connect 93 1 97 0;
#X connect 93 1 105 0;
#X connect 93 1 113 0;
#X connect 94 0 96 0;
#X connect 95 0 121 0;
#X connect 96 0 95 0;
#X connect 97 0 95 0;
#X connect 97 1 84 0;
#X connect 97 2 94 0;
#X connect 97 2 98 0;
#X connect 98 0 100 0;
#X connect 99 0 92 0;
#X connect 100 0 99 0;
#X connect 101 0 132 1;
#X connect 101 0 132 0;
#X connect 104 0 89 0;
#X connect 104 1 90 1;
#X connect 105 0 106 0;
#X connect 106 0 136 0;
#X connect 106 1 137 0;
#X connect 107 0 137 1;
#X connect 108 0 85 1;
#X connect 109 0 108 1;
#X connect 110 0 109 0;
#X connect 111 0 112 0;
#X connect 111 1 110 0;
#X connect 111 2 109 1;
#X connect 112 0 88 0;
#X connect 113 0 115 0;
#X connect 114 0 111 0;
#X connect 114 0 107 0;
#X connect 115 0 92 0;
#X connect 117 0 163 2;
#X connect 118 0 163 0;
#X connect 119 0 57 1;
#X connect 120 0 57 0;
#X connect 121 0 101 0;
#X connect 122 0 101 1;
#X connect 124 0 76 0;
#X connect 124 0 78 0;
#X connect 124 0 80 0;
#X connect 124 0 82 0;
#X connect 125 0 148 0;
#X connect 125 0 166 0;
#X connect 125 0 203 0;
#X connect 127 0 130 0;
#X connect 127 0 128 0;
#X connect 127 1 36 0;
#X connect 128 0 86 0;
#X connect 128 0 107 1;
#X connect 128 0 136 1;
#X connect 130 0 41 0;
#X connect 130 0 65 1;
#X connect 130 0 133 1;
#X connect 132 0 163 3;
#X connect 133 0 40 0;
#X connect 134 0 118 0;
#X connect 136 0 85 0;
#X connect 137 0 117 0;
#X connect 139 0 140 1;
#X connect 140 0 173 0;
#X connect 141 0 174 0;
#X connect 142 0 143 1;
#X connect 143 0 17 0;
#X connect 143 0 0 0;
#X connect 144 0 0 0;
#X connect 144 1 33 0;
#X connect 144 2 17 0;
#X connect 144 3 25 0;
#X connect 144 4 149 0;
#X connect 144 5 150 0;
#X connect 147 0 170 0;
#X connect 149 0 151 0;
#X connect 149 0 159 0;
#X connect 149 0 170 4;
#X connect 150 0 156 0;
#X connect 150 0 161 0;
#X connect 150 0 170 5;
#X connect 151 0 152 1;
#X connect 151 0 152 0;
#X connect 152 0 153 0;
#X connect 153 0 50 1;
#X connect 153 0 94 1;
#X connect 156 0 157 1;
#X connect 156 0 157 0;
#X connect 157 0 158 0;
#X connect 158 0 100 1;
#X connect 158 0 56 1;
#X connect 159 0 160 0;
#X connect 160 0 149 0;
#X connect 161 0 162 0;
#X connect 162 0 150 0;
#X connect 163 0 37 0;
#X connect 163 1 148 5;
#X connect 163 1 167 0;
#X connect 164 0 147 0;
#X connect 165 0 144 0;
#X connect 166 0 127 0;
#X connect 166 0 140 0;
#X connect 166 0 148 4;
#X connect 166 0 206 0;
#X connect 167 0 166 1;
#X connect 167 0 168 0;
#X connect 167 0 192 0;
#X connect 170 0 172 0;
#X connect 172 0 171 0;
#X connect 173 0 141 0;
#X connect 174 0 193 0;
#X connect 175 0 173 1;
#X connect 175 0 174 1;
#X connect 175 0 193 1;
#X connect 176 0 82 1;
#X connect 177 0 176 0;
#X connect 177 1 176 1;
#X connect 178 0 196 0;
#X connect 178 0 197 0;
#X connect 181 0 182 0;
#X connect 181 0 196 3;
#X connect 182 0 190 0;
#X connect 182 1 189 0;
#X connect 183 0 180 0;
#X connect 184 0 180 0;
#X connect 185 0 186 0;
#X connect 186 0 187 0;
#X connect 187 0 127 0;
#X connect 187 0 140 0;
#X connect 187 0 148 4;
#X connect 188 0 187 1;
#X connect 189 0 184 0;
#X connect 189 1 185 0;
#X connect 190 0 185 1;
#X connect 190 0 191 0;
#X connect 190 1 183 0;
#X connect 191 0 148 0;
#X connect 192 0 180 0;
#X connect 193 0 143 0;
#X connect 194 0 196 2;
#X connect 195 0 196 1;
#X connect 196 0 181 0;
#X connect 197 0 180 0;
#X connect 198 0 199 0;
#X connect 199 0 202 0;
#X connect 200 0 198 0;
#X connect 200 1 201 0;
#X connect 201 0 199 1;
#X connect 202 0 197 1;
#X connect 203 0 205 0;
#X connect 204 0 166 0;
#X connect 204 0 148 0;
#X connect 205 0 204 0;
#X connect 206 0 207 0;
#X connect 207 0 33 0;
#X coords 0 -1 1 1 260 125 1 100 100;
#X restore 47 124 pd beatloop6;
#N canvas 753 77 753 859 samplebrowser 0;
#X obj 279 -21 loadbang;
#X msg 32 10 location /home/mnb/samplelib;
#X msg 13 -19 location /home/mnb/wave_wrk;
#X msg 10 170 location ..;
#X msg 78 32 location /home/mnb/archiv/sounds;
#X msg 129 59 location /home/mnb/sound_recordings;
#X obj 462 683 outlet;
#X obj 340 117 hradio 15 1 1 8 empty empty empty 0 -8 0 10 -262144
-1 -1 0;
#X obj 461 611 int;
#X obj 476 581 t b a;
#X msg 462 658 \$1 symbol \$2;
#X obj 462 636 pack f s;
#X obj 103 117 bng 15 250 50 0 empty empty A 5 8 0 10 -262144 -1 -1
;
#X obj 133 117 bng 15 250 50 0 empty empty empty 17 7 0 10 -262144
-1 -1;
#X obj 153 117 bng 15 250 50 0 empty empty empty 17 7 0 10 -262144
-1 -1;
#X obj 173 117 bng 15 250 50 0 empty empty empty 17 7 0 10 -262144
-1 -1;
#X obj 193 117 bng 15 250 50 0 empty empty empty 17 7 0 10 -262144
-1 -1;
#X text 341 101 1;
#X text 356 101 2;
#X text 372 101 3;
#X obj 533 401 + 1;
#X msg -9 69 graphics 1;
#X obj 102 153 playlist all 360 344 {Helvetica 15 normal} white grey
black red;
#X text 447 101 A;
#X msg 174 673 open \$1;
#X msg 137 671 1;
#X obj 125 632 delay 1;
#X obj 161 604 t b a;
#X obj 150 703 readsf~;
#X obj 171 568 spigot;
#X obj 413 551 spigot;
#X obj 105 753 *~ 0.5;
#X msg 241 674 0;
#X obj 367 19 delay 10;
#X obj 91 798 dac~;
#X text 387 101 4;
#X text 403 101 5;
#X text 418 101 6;
#X text 432 101 7;
#X obj 486 499 != 8;
#X obj 331 612 select 8;
#X obj 208 541 == 8;
#X obj 164 793 outlet~;
#X connect 0 0 21 0;
#X connect 0 0 2 0;
#X connect 0 0 33 0;
#X connect 1 0 22 0;
#X connect 2 0 22 0;
#X connect 3 0 22 0;
#X connect 4 0 22 0;
#X connect 5 0 22 0;
#X connect 7 0 20 0;
#X connect 8 0 11 0;
#X connect 9 0 8 0;
#X connect 9 1 11 1;
#X connect 10 0 6 0;
#X connect 11 0 10 0;
#X connect 12 0 3 0;
#X connect 13 0 2 0;
#X connect 14 0 4 0;
#X connect 15 0 1 0;
#X connect 16 0 5 0;
#X connect 20 0 8 1;
#X connect 20 0 39 0;
#X connect 20 0 40 0;
#X connect 20 0 41 0;
#X connect 21 0 22 0;
#X connect 22 0 29 0;
#X connect 22 0 30 0;
#X connect 24 0 28 0;
#X connect 25 0 28 0;
#X connect 26 0 25 0;
#X connect 27 0 26 0;
#X connect 27 1 24 0;
#X connect 28 0 31 0;
#X connect 29 0 27 0;
#X connect 30 0 9 0;
#X connect 31 0 34 0;
#X connect 31 0 34 1;
#X connect 31 0 42 0;
#X connect 32 0 28 0;
#X connect 33 0 7 0;
#X connect 39 0 30 1;
#X connect 40 0 32 0;
#X connect 41 0 29 1;
#X coords 0 -1 1 1 364 400 1 100 100;
#X restore 435 8 pd samplebrowser;
#X obj 278 19 route 1 2 3 4 5 6 7;
#X floatatom 178 20 5 0 0 0 - - -, f 5;
#X floatatom 160 78 5 0 0 0 - - -, f 5;
#X floatatom 188 305 5 0 0 0 - - -, f 5;
#X msg 124 260;
#X msg 336 503;
#N canvas 182 92 1578 944 beatlp6 0;
#X floatatom 127 116 4 3 999 0 oln - -, f 4;
#X obj 104 214 hsl 251 8 0 1 0 0 empty empty empty -2 -6 0 8 -262144
-258699 -1 12500 1;
#X obj 69 -141 mod;
#X obj -19 -176 inlet;
#X obj -91 -341 inlet;
#X text 21 -175 <-bpm;
#X msg -52 -111 1;
#X obj -28 -87 /;
#X obj -55 -132 t f f;
#X obj -27 -58 * 15000;
#X text -104 -58 1/16 in ms;
#X obj 169 -137 /;
#X msg 148 -179 100;
#X obj 139 -213 t b f;
#X obj 131 -108 *;
#X obj 131 -83 t b f;
#X msg 80 -26 1;
#X floatatom 226 116 4 3 999 0 lln - -, f 4;
#X obj 205 -16 /;
#X obj 155 -24 +;
#X obj 70 -166 +;
#X obj 229 -331 inlet;
#X text 273 -331 pos offset (1/16);
#X obj 332 -298 inlet;
#X text 383 -299 tp (semitones \, -36..36);
#X floatatom 269 116 4 -36 36 0 tp - -, f 4;
#X obj 832 -143 loadbang;
#X msg 329 -3 set \$1;
#X msg 331 23 0;
#X msg 314 -82 set \$1;
#X msg 318 -59 16;
#X msg 391 16 set \$1;
#X msg 395 46 16;
#X floatatom 171 116 5 0 99 0 st - -, f 5;
#X msg 457 35 set \$1;
#X msg 458 61 0;
#X msg 172 503 set \$1;
#X obj 333 1420 outlet~;
#X obj 343 517 t b b;
#X msg -36 922 0;
#X obj 175 901 pack;
#X obj 258 756 / 44.1;
#X obj 217 808 *;
#X obj 228 718 t b f b;
#X msg 564 613 1.05946;
#X obj 566 638 pow;
#X obj 554 549 * -1;
#X msg -3 890 -1 15.87;
#X obj 18 1161 *~;
#X obj -133 555 moses 0.001;
#X obj -149 872 pack;
#X msg -119 957 1 12;
#X msg -127 917 set \$1 \$2;
#X obj -46 677 t b b f;
#X obj -14 777 * -1;
#X msg 3 845 set \$1 \$2;
#X obj 6 816 pack;
#X obj -8 1123 +~;
#X text -120 1098 attack;
#X text 59 1092 release;
#X obj 553 577 t b f;
#X obj 64 795 delay 1;
#X obj 70 825 t b b;
#X text 609 433 tp (semitones);
#X text -314 431 trigger/vel (0..1);
#X obj 160 789 *;
#X obj 205 847 *;
#X obj 319 880 -;
#X msg 310 847 1;
#X text -115 426 duration (ms);
#X obj 305 805 t b b f;
#X obj 396 663 float;
#X msg -214 619 bang;
#X text 420 410 sample start (percent);
#X obj 375 751 / 100;
#X obj -213 646 delay 1;
#X obj -256 447 pack;
#X obj -256 469 route 0 1;
#X obj -149 421 pack;
#X obj -152 455 route 0 1;
#X obj 391 429 pack;
#X obj 391 451 route 0 1;
#X obj 579 443 pack;
#X obj 579 465 route 0 1;
#X msg 838 923 0;
#X obj 1022 843 pack;
#X obj 1103 703 / 44.1;
#X obj 1076 754 *;
#X obj 1065 682 t b f b;
#X msg 1166 581 1.05946;
#X obj 1163 615 pow;
#X obj 1156 517 * -1;
#X msg 871 891 -1 15.87;
#X obj 774 612 moses 0.001;
#X obj 755 893 pack;
#X msg 753 962 1 12;
#X msg 753 930 set \$1 \$2;
#X obj 811 665 t b b f;
#X obj 860 778 * -1;
#X msg 862 853 set \$1 \$2;
#X obj 872 815 pack;
#X obj 866 1124 +~;
#X text 769 1103 attack;
#X text 933 1093 release;
#X obj 1155 545 t b f;
#X obj 925 754 delay 1;
#X obj 925 777 t b b;
#X obj 1007 747 *;
#X obj 1070 790 *;
#X obj 1186 836 -;
#X msg 1175 803 1;
#X obj 1160 757 t b b f;
#X obj 1179 650 float;
#X msg 780 643 bang;
#X obj 1167 700 / 100;
#X obj 745 722 delay 1;
#X text 615 801 2nd voice ->;
#X obj 1028 1008 vline~;
#X obj 196 991 vline~;
#X obj 58 1072 vline~;
#X obj -97 1072 vline~;
#X obj 774 1071 vline~;
#X obj 931 1073 vline~;
#X text 30 321 <-voice nr;
#X obj -27 257 mod 2;
#X obj 819 38 inlet;
#X text 861 39 <-filename;
#X obj 133 470 t b a;
#X msg 961 693 114000;
#X text -51 -341 <-pos;
#X msg 130 707 114000;
#X text 699 374 read file into table abs;
#X obj 859 1155 *~;
#X obj 152 867 float;
#X obj 98 903 float;
#X text -238 789 1st voice;
#X obj 1009 810 float;
#X obj 956 845 float;
#X text 136 451 samplelen;
#X obj -17 -7 * 44.1;
#X obj 145 408 /;
#N canvas 568 252 450 300 round 0;
#X obj 56 24 inlet;
#X obj 78 254 outlet;
#X obj 115 94 int;
#X obj 50 119 -;
#X obj 64 57 t f f;
#X obj 51 156 >= 0.5;
#X obj 77 212 +;
#X connect 0 0 4 0;
#X connect 2 0 3 1;
#X connect 2 0 6 1;
#X connect 3 0 5 0;
#X connect 4 0 3 0;
#X connect 4 1 2 0;
#X connect 5 0 6 0;
#X connect 6 0 1 0;
#X restore 209 356 pd round;
#X obj 283 102 tgl 12 1 empty empty aln 14 7 0 10 -262144 -1 -1 1 1
;
#X obj 279 278 spigot;
#X obj 454 -129 unpack f f f f f f;
#X text 382 1420 audio;
#X text 1030 210 preset;
#X obj 1033 233 float;
#X obj 101 132 abs_beatloop5deluxe_display;
#X floatatom 306 116 3 0 100 0 a - -, f 3;
#X floatatom 338 116 3 0 100 0 d - -, f 3;
#X obj 425 191 / 100;
#X obj 419 216 *;
#X obj 414 237 * 300;
#X text 410 158 slice attack/decay \, 0..300 ms;
#X text 326 281 auto looplen based on current bpm;
#X obj 483 195 / 100;
#X obj 477 220 *;
#X obj 472 241 * 300;
#X msg 509 21 set \$1;
#X msg 512 53 20;
#X msg 570 23 set \$1;
#X msg 562 51 23;
#X obj 333 1375 abs_beatloop1;
#X obj 318 101 bng 12 250 50 0 empty empty > 3 7 0 10 -262144 -262144
-1;
#X obj 539 -260 inlet;
#N canvas 232 312 682 570 readsftotable_upsampled 0;
#X obj 143 205 readsf~;
#X msg 167 175 open \$1;
#X obj 150 110 t b a;
#X msg 130 173 1;
#X obj 148 35 inlet;
#X obj 272 35 inlet;
#X obj 226 421 tabwrite~;
#X msg 239 161 set \$1;
#X obj 379 534 outlet;
#X msg 416 323 stop;
#X msg 484 322 start;
#X obj 352 396 timer;
#X obj 375 424 / 1000;
#X obj 383 465 *;
#X obj 456 390 samplerate~;
#X obj 334 249 t b b;
#X obj 268 269 t b b;
#X obj 471 224 loadbang;
#X obj 379 504 clip 0 1.4112e+06;
#X text 148 16 filename;
#X text 277 11 tablename;
#X text 378 553 samplesize;
#X obj 425 67 block~ 1024 1 16;
#X obj 115 137 delay 30;
#X connect 0 0 6 0;
#X connect 0 1 16 0;
#X connect 1 0 0 0;
#X connect 2 0 23 0;
#X connect 2 1 1 0;
#X connect 3 0 0 0;
#X connect 4 0 2 0;
#X connect 5 0 7 0;
#X connect 7 0 6 0;
#X connect 9 0 6 0;
#X connect 10 0 6 0;
#X connect 11 0 12 0;
#X connect 12 0 13 0;
#X connect 13 0 18 0;
#X connect 14 0 13 1;
#X connect 15 0 10 0;
#X connect 15 1 11 0;
#X connect 16 0 11 1;
#X connect 16 1 9 0;
#X connect 17 0 14 0;
#X connect 18 0 8 0;
#X connect 23 0 3 0;
#X connect 23 0 15 0;
#X restore 691 350 pd readsftotable_upsampled;
#X msg 937 342 symbol \$1mnbrbloop1;
#X msg 1020 411 \; \$1 resize 1.4112e+06;
#X text 526 -283 preset (list);
#X obj 1033 271 pack f f f f f f;
#X obj 1106 351 outlet;
#X msg 1033 303 set \$1 \$2 \$3 \$4 \$5 \$6;
#X obj 169 376 / 16;
#X obj 241 329 * 16;
#X obj 254 102 nbx 2 12 4 16 0 1 empty empty bl -13 5 0 10 -262144
-1 -1 16 256;
#X obj 569 347 +;
#X obj 570 315 t b f;
#X obj 430 1269 unpack f f f f f f;
#X text 487 872 preset;
#X obj 489 897 float;
#X obj 362 101 vradio 15 1 0 8 empty empty empty 0 -8 0 10 -262144
-1 -1 0;
#X obj 523 925 pack f f f f f f f;
#X msg 523 957 \$1 set \$2 \$3 \$4 \$5 \$6 \$7;
#X obj 523 982 route 0 1 2 3 4 5 6 7;
#X msg 408 1054 32 0 32 0 17 23;
#X msg 414 1078 16 0 16 -12 0 11;
#X msg 419 1100 32 0 16 0 17 23;
#X msg 427 1123 32 0 32 0 17 23;
#X msg 439 1144 32 0 32 0 17 23;
#X msg 445 1168 32 0 32 0 17 23;
#X msg 450 1190 32 0 32 0 17 23;
#X msg 458 1213 32 0 32 0 17 23;
#X obj 348 101 bng 12 250 50 0 empty empty str -17 7 0 10 -262144 -262144
-1;
#X msg 392 892 0;
#X obj 473 845 t b b f;
#X obj 452 801 spigot 0;
#X msg 516 770 1;
#X msg 359 888 1;
#X obj 429 599 t f f;
#X msg 480 769 0;
#X obj 348 988 select 0 1 2 3 4 5 6 7;
#X obj 336 952 spigot 1;
#X obj 645 -178 inlet;
#X text 643 -199 preset (0..7);
#X msg 573 -139 color 111 0 -1;
#X msg 596 -92 color 0 0 -1;
#X obj 242 299 clip 4 4096;
#X obj 714 -279 inlet~;
#X text 718 -296 audio rec in;
#X obj 1364 432 tabwrite~;
#X obj 227 102 tgl 12 0 empty empty ar 1 5 0 10 -258113 -1 -262144
0 1;
#X obj 1201 245 select 0 1;
#X msg 1364 363 stop;
#X msg 1432 362 start;
#X obj 1300 436 timer;
#X obj 1302 462 / 1000;
#X obj 1297 494 *;
#X obj 1364 465 samplerate~;
#X obj 1282 289 t b b;
#X obj 1256 315 t b b;
#X msg 1192 355 symbol rec;
#X msg 1338 390 set \$1;
#X obj 213 102 tgl 12 1 empty empty a 4 5 0 10 -262144 -1 -1 0 1;
#X obj 169 103 hsl 40 8 0 1 0 1 empty empty sens -2 4 0 10 -262144
-1 -1 1500 1;
#N canvas 1 77 650 604 autorec 0;
#X obj 84 86 inlet~;
#X obj 153 85 inlet;
#X obj 235 89 inlet;
#X obj 283 90 inlet;
#X text 89 63 audio;
#X text 153 66 sens(0..1);
#X text 234 71 on;
#X text 288 71 rec;
#X obj 266 382 outlet;
#X text 274 402 rec;
#N canvas 1 77 450 300 onset 0;
#X obj 110 48 inlet~;
#X obj 113 157 -;
#X obj 108 98 t f f;
#X obj 111 271 outlet;
#X obj 129 212 change;
#X obj 123 184 > 25;
#X obj 110 74 env~;
#X obj 238 80 inlet;
#X text 116 21 audio;
#X text 239 60 sensitivity;
#X obj 129 239 moses 0.1;
#X floatatom 213 201 5 0 0 0 - - -, f 5;
#X connect 0 0 6 0;
#X connect 1 0 5 0;
#X connect 1 0 11 0;
#X connect 2 0 1 1;
#X connect 2 1 1 0;
#X connect 4 0 10 0;
#X connect 5 0 4 0;
#X connect 6 0 2 0;
#X connect 7 0 5 1;
#X connect 10 1 3 0;
#X restore 124 203 pd onset;
#X obj 141 240 spigot;
#N canvas 1 77 450 300 once 0;
#X obj 115 68 inlet;
#X obj 275 67 inlet;
#X obj 178 258 outlet;
#X msg 266 107 1;
#X msg 270 134 0;
#X obj 142 197 t b b;
#X obj 144 167 spigot 1;
#X connect 0 0 6 0;
#X connect 1 0 3 0;
#X connect 3 0 6 1;
#X connect 4 0 6 1;
#X connect 5 0 4 0;
#X connect 5 1 2 0;
#X connect 6 0 5 0;
#X restore 121 281 pd once;
#X obj 219 246 select 0;
#X obj 304 264 select 0;
#X msg 302 287 0;
#X obj 156 152 *;
#X obj 156 181 * 100;
#X obj 155 122 t f f;
#X msg 240 333 1;
#X connect 0 0 10 0;
#X connect 1 0 18 0;
#X connect 2 0 14 0;
#X connect 2 0 11 1;
#X connect 3 0 13 0;
#X connect 10 0 11 0;
#X connect 11 0 12 0;
#X connect 12 0 19 0;
#X connect 13 0 12 1;
#X connect 14 0 15 0;
#X connect 15 0 8 0;
#X connect 16 0 17 0;
#X connect 17 0 10 1;
#X connect 18 0 16 0;
#X connect 18 1 16 1;
#X connect 19 0 8 0;
#X restore 253 -173 pd autorec;
#X msg 978 -252 1024;
#X obj 982 -221 /;
#X obj 971 -294 t b b;
#X obj 999 -272 samplerate~;
#X obj 982 -199 * 1000;
#X obj 821 -245 abs_delayrw1 500;
#N canvas 1 77 450 300 filenametolist 0;
#X obj 60 106 list fromsymbol;
#X obj 55 58 inlet;
#X text 56 33 filname;
#X obj 79 251 outlet;
#X obj 74 159 list prepend set;
#X obj 89 216 route list;
#X connect 0 0 4 0;
#X connect 1 0 0 0;
#X connect 4 0 5 0;
#X connect 5 0 3 0;
#X restore 836 90 pd filenametolist;
#X obj 822 236 list tosymbol;
#X msg 812 124 47 104 111 109 101 47 109 110 98 47 119 97 118 101 95
119 114 107 47 107 97 114 109 97 115 105 110 103 108 101 49 49 54 46
119 97 118;
#X obj 710 409 t b;
#X obj 750 416 delay 100;
#X connect 0 0 13 0;
#X connect 0 0 29 0;
#X connect 0 0 148 2;
#X connect 0 0 147 1;
#X connect 0 0 182 1;
#X connect 2 0 18 0;
#X connect 2 0 14 0;
#X connect 3 0 8 0;
#X connect 4 0 20 0;
#X connect 4 0 124 0;
#X connect 6 0 7 0;
#X connect 7 0 9 0;
#X connect 8 0 6 0;
#X connect 8 1 7 1;
#X connect 9 0 78 1;
#X connect 9 0 139 0;
#X connect 11 0 14 1;
#X connect 12 0 11 0;
#X connect 13 0 12 0;
#X connect 13 1 11 1;
#X connect 14 0 15 0;
#X connect 15 0 16 0;
#X connect 15 1 19 0;
#X connect 16 0 76 1;
#X connect 17 0 31 0;
#X connect 17 0 2 1;
#X connect 17 0 18 1;
#X connect 17 0 148 3;
#X connect 17 0 170 2;
#X connect 17 0 182 3;
#X connect 18 0 1 0;
#X connect 19 0 80 1;
#X connect 20 0 2 0;
#X connect 21 0 20 1;
#X connect 23 0 177 0;
#X connect 25 0 27 0;
#X connect 25 0 170 3;
#X connect 25 0 176 0;
#X connect 25 0 182 4;
#X connect 26 0 28 0;
#X connect 26 0 30 0;
#X connect 26 0 32 0;
#X connect 26 0 35 0;
#X connect 26 0 38 0;
#X connect 26 0 160 0;
#X connect 26 0 162 0;
#X connect 26 0 200 0;
#X connect 26 0 198 0;
#X connect 26 0 218 0;
#X connect 26 0 228 0;
#X connect 26 0 234 0;
#X connect 27 0 28 0;
#X connect 28 0 25 0;
#X connect 29 0 30 0;
#X connect 30 0 0 0;
#X connect 31 0 32 0;
#X connect 32 0 17 0;
#X connect 33 0 34 0;
#X connect 33 0 19 1;
#X connect 33 0 148 1;
#X connect 33 0 170 1;
#X connect 33 0 182 2;
#X connect 34 0 35 0;
#X connect 35 0 33 0;
#X connect 36 0 130 0;
#X connect 36 0 128 0;
#X connect 38 0 130 0;
#X connect 38 0 128 0;
#X connect 39 0 119 0;
#X connect 39 0 120 0;
#X connect 40 0 118 0;
#X connect 41 0 42 1;
#X connect 42 0 66 0;
#X connect 43 0 133 0;
#X connect 43 1 42 0;
#X connect 43 2 130 0;
#X connect 44 0 45 0;
#X connect 45 0 71 0;
#X connect 46 0 60 0;
#X connect 47 0 119 0;
#X connect 48 0 163 1;
#X connect 49 1 53 0;
#X connect 49 1 61 0;
#X connect 49 1 72 0;
#X connect 50 0 52 0;
#X connect 51 0 120 0;
#X connect 52 0 51 0;
#X connect 53 0 51 0;
#X connect 53 1 39 0;
#X connect 53 2 50 0;
#X connect 53 2 54 0;
#X connect 54 0 56 0;
#X connect 55 0 47 0;
#X connect 56 0 55 0;
#X connect 57 0 48 0;
#X connect 57 0 48 1;
#X connect 60 0 44 0;
#X connect 60 1 45 1;
#X connect 61 0 62 0;
#X connect 62 0 133 0;
#X connect 62 1 134 0;
#X connect 65 0 134 1;
#X connect 66 0 40 1;
#X connect 67 0 66 1;
#X connect 68 0 67 0;
#X connect 70 0 71 0;
#X connect 70 1 68 0;
#X connect 70 2 67 1;
#X connect 71 0 43 0;
#X connect 72 0 75 0;
#X connect 74 0 70 0;
#X connect 74 0 65 0;
#X connect 75 0 47 0;
#X connect 76 0 77 0;
#X connect 77 0 49 0;
#X connect 77 1 93 0;
#X connect 78 0 79 0;
#X connect 79 0 75 1;
#X connect 79 1 115 1;
#X connect 80 0 81 0;
#X connect 81 0 74 0;
#X connect 81 1 114 0;
#X connect 82 0 83 0;
#X connect 83 0 46 0;
#X connect 83 1 91 0;
#X connect 84 0 121 0;
#X connect 84 0 122 0;
#X connect 85 0 117 0;
#X connect 86 0 87 1;
#X connect 87 0 108 0;
#X connect 88 0 136 0;
#X connect 88 1 87 0;
#X connect 88 2 128 0;
#X connect 89 0 90 0;
#X connect 90 0 112 0;
#X connect 91 0 104 0;
#X connect 92 0 122 0;
#X connect 93 1 97 0;
#X connect 93 1 105 0;
#X connect 93 1 113 0;
#X connect 94 0 96 0;
#X connect 95 0 121 0;
#X connect 96 0 95 0;
#X connect 97 0 95 0;
#X connect 97 1 84 0;
#X connect 97 2 94 0;
#X connect 97 2 98 0;
#X connect 98 0 100 0;
#X connect 99 0 92 0;
#X connect 100 0 99 0;
#X connect 101 0 132 1;
#X connect 101 0 132 0;
#X connect 104 0 89 0;
#X connect 104 1 90 1;
#X connect 105 0 106 0;
#X connect 106 0 136 0;
#X connect 106 1 137 0;
#X connect 107 0 137 1;
#X connect 108 0 85 1;
#X connect 109 0 108 1;
#X connect 110 0 109 0;
#X connect 111 0 112 0;
#X connect 111 1 110 0;
#X connect 111 2 109 1;
#X connect 112 0 88 0;
#X connect 113 0 115 0;
#X connect 114 0 111 0;
#X connect 114 0 107 0;
#X connect 115 0 92 0;
#X connect 117 0 163 2;
#X connect 118 0 163 0;
#X connect 119 0 57 1;
#X connect 120 0 57 0;
#X connect 121 0 101 0;
#X connect 122 0 101 1;
#X connect 124 0 76 0;
#X connect 124 0 78 0;
#X connect 124 0 80 0;
#X connect 124 0 82 0;
#X connect 125 0 148 0;
#X connect 125 0 166 0;
#X connect 125 0 232 0;
#X connect 127 0 130 0;
#X connect 127 0 128 0;
#X connect 127 1 36 0;
#X connect 128 0 86 0;
#X connect 128 0 107 1;
#X connect 128 0 136 1;
#X connect 130 0 41 0;
#X connect 130 0 65 1;
#X connect 130 0 133 1;
#X connect 132 0 163 3;
#X connect 133 0 40 0;
#X connect 134 0 118 0;
#X connect 136 0 85 0;
#X connect 137 0 117 0;
#X connect 139 0 140 1;
#X connect 140 0 173 0;
#X connect 141 0 174 0;
#X connect 142 0 143 1;
#X connect 143 0 17 0;
#X connect 143 0 0 0;
#X connect 144 0 0 0;
#X connect 144 1 33 0;
#X connect 144 2 17 0;
#X connect 144 3 25 0;
#X connect 144 4 149 0;
#X connect 144 5 150 0;
#X connect 147 0 170 0;
#X connect 149 0 151 0;
#X connect 149 0 159 0;
#X connect 149 0 170 4;
#X connect 149 0 182 5;
#X connect 150 0 156 0;
#X connect 150 0 161 0;
#X connect 150 0 170 5;
#X connect 150 0 182 6;
#X connect 151 0 152 1;
#X connect 151 0 152 0;
#X connect 152 0 153 0;
#X connect 153 0 50 1;
#X connect 153 0 94 1;
#X connect 156 0 157 1;
#X connect 156 0 157 0;
#X connect 157 0 158 0;
#X connect 158 0 100 1;
#X connect 158 0 56 1;
#X connect 159 0 160 0;
#X connect 160 0 149 0;
#X connect 161 0 162 0;
#X connect 162 0 150 0;
#X connect 163 0 37 0;
#X connect 163 1 148 5;
#X connect 163 1 167 0;
#X connect 164 0 147 0;
#X connect 165 0 144 0;
#X connect 166 0 127 0;
#X connect 166 0 140 0;
#X connect 166 0 148 4;
#X connect 166 0 235 0;
#X connect 167 0 166 1;
#X connect 167 0 168 0;
#X connect 167 0 222 0;
#X connect 170 0 172 0;
#X connect 172 0 171 0;
#X connect 173 0 141 0;
#X connect 174 0 207 0;
#X connect 175 0 173 1;
#X connect 175 0 174 1;
#X connect 175 0 207 1;
#X connect 176 0 82 1;
#X connect 177 0 176 0;
#X connect 177 1 176 1;
#X connect 178 0 0 0;
#X connect 178 1 33 0;
#X connect 178 2 17 0;
#X connect 178 3 25 0;
#X connect 178 4 149 0;
#X connect 178 5 150 0;
#X connect 180 0 182 0;
#X connect 181 0 199 0;
#X connect 181 0 206 0;
#X connect 182 0 183 0;
#X connect 183 0 184 0;
#X connect 184 0 185 0;
#X connect 184 1 186 0;
#X connect 184 2 187 0;
#X connect 184 3 188 0;
#X connect 184 4 189 0;
#X connect 184 5 190 0;
#X connect 184 6 191 0;
#X connect 184 7 192 0;
#X connect 185 0 178 0;
#X connect 186 0 178 0;
#X connect 187 0 178 0;
#X connect 188 0 178 0;
#X connect 189 0 178 0;
#X connect 190 0 178 0;
#X connect 191 0 178 0;
#X connect 192 0 178 0;
#X connect 193 0 194 0;
#X connect 193 0 197 0;
#X connect 193 0 205 0;
#X connect 194 0 202 1;
#X connect 195 0 198 0;
#X connect 195 0 200 0;
#X connect 195 1 180 0;
#X connect 195 2 180 1;
#X connect 196 0 195 0;
#X connect 197 0 196 1;
#X connect 198 0 202 1;
#X connect 199 0 202 0;
#X connect 199 1 196 0;
#X connect 200 0 196 1;
#X connect 201 0 185 0;
#X connect 201 1 186 0;
#X connect 201 2 187 0;
#X connect 201 3 188 0;
#X connect 201 4 189 0;
#X connect 201 5 190 0;
#X connect 201 6 191 0;
#X connect 201 7 191 0;
#X connect 201 8 192 0;
#X connect 202 0 201 0;
#X connect 203 0 181 0;
#X connect 205 0 193 0;
#X connect 206 0 193 0;
#X connect 207 0 143 0;
#X connect 208 0 225 0;
#X connect 208 0 231 0;
#X connect 211 0 212 0;
#X connect 211 0 225 3;
#X connect 212 0 220 0;
#X connect 212 1 219 0;
#X connect 213 0 210 0;
#X connect 214 0 210 0;
#X connect 215 0 216 0;
#X connect 216 0 217 0;
#X connect 217 0 127 0;
#X connect 217 0 140 0;
#X connect 217 0 148 4;
#X connect 218 0 217 1;
#X connect 219 0 214 0;
#X connect 219 1 215 0;
#X connect 220 0 215 1;
#X connect 220 0 221 0;
#X connect 220 1 213 0;
#X connect 221 0 148 0;
#X connect 222 0 210 0;
#X connect 223 0 225 2;
#X connect 224 0 225 1;
#X connect 225 0 211 0;
#X connect 226 0 227 0;
#X connect 227 0 230 0;
#X connect 228 0 226 0;
#X connect 228 1 229 0;
#X connect 229 0 227 1;
#X connect 230 0 231 1;
#X connect 231 0 210 0;
#X connect 232 0 234 0;
#X connect 233 0 166 0;
#X connect 233 0 148 0;
#X connect 234 0 233 0;
#X connect 235 0 236 0;
#X connect 236 0 33 0;
#X coords 0 -1 1 1 280 125 1 100 100;
#X restore 109 335 pd beatlp6;
#X connect 1 0 0 0;
#X connect 1 0 0 1;
#X connect 2 0 3 0;
#X connect 2 0 11 0;
#X connect 2 2 3 1;
#X connect 2 2 11 1;
#X connect 3 0 1 0;
#X connect 3 1 9 0;
#X connect 4 0 3 5;
#X connect 4 0 11 6;
#X connect 4 1 5 0;
#X connect 5 0 3 6;
#X connect 5 1 11 7;
#X connect 6 0 3 3;
#X connect 6 0 11 3;
#X connect 7 0 3 2;
#X connect 8 0 11 2;
#X connect 11 0 1 0;
#X connect 11 1 10 0;
