#N canvas 271 449 451 275 10;
#X obj 65 212 dac~;
#X obj 45 49 ctlin 81;
#X obj 111 50 ctlin 82;
#X obj 110 71 / 2;
#X text 43 33 nanopad-x;
#X text 114 32 nanopad-y;
#N canvas 251 188 1540 858 clustersynth128 0;
#X obj 262 182 tgl 15 0 empty empty empty 17 7 0 10 -262144 -1 -1 0
1;
#X obj 289 183 nbx 5 14 10 200 0 1 empty empty dens_(ms) 0 -8 0 10
-262144 -1 -1 16 256;
#X obj 104 131 nbx 5 14 0 127 0 1 empty empty pitch_ctr 0 -8 0 10 -262144
-1 -1 51 256;
#X obj 169 131 nbx 5 14 0 64 0 1 empty empty pitch_rg 0 -8 0 10 -262144
-1 -1 6.1 256;
#X obj 232 151 nbx 5 14 10 10000 0 1 empty empty dur(ms) 0 -8 0 10
-262144 -1 -1 52 256;
#X obj 290 151 nbx 5 14 10 5000 0 1 empty empty ramp(ms) 0 -8 0 10
-262144 -1 -1 12 256;
#X obj 105 162 nbx 5 14 0 100 0 1 empty empty pan_ctr 0 -8 0 10 -262144
-1 -1 50 256;
#X obj 170 162 nbx 5 14 0 50 0 1 empty empty pan_rg 0 -8 0 10 -262144
-1 -1 50 256;
#X obj 148 401 outlet~;
#X obj 315 402 outlet~;
#X obj 116 -2 inlet;
#X obj 168 -2 inlet;
#X obj 296 -2 inlet;
#X obj 348 -2 inlet;
#X obj 219 -2 inlet;
#X obj 220 32 clip 0 1;
#X obj 220 57 int;
#X text 351 56 tabosc-clusters with up to 128 voices;
#X obj 171 182 hradio 15 1 1 4 empty empty wave -25 7 0 10 -262144
-1 -1 2;
#X obj 426 0 inlet;
#X obj 171 344 abs_clustersynth128;
#X text 353 73 7/2011 \, 10/2015 martin brinkmann;
#X obj 309 116 nbx 3 14 1 100 0 1 empty empty rg_scl 0 -8 0 10 -262144
-1 -1 61 256;
#X obj 178 68 *;
#X obj 298 75 / 100;
#X obj 122 315 clip 0 128;
#X obj 226 116 nbx 3 14 0 127 0 1 empty empty p_ofs 0 -8 0 10 -262144
-1 -1 51 256;
#X obj 264 116 nbx 3 14 1 100 0 1 empty empty p_scl 0 -8 0 10 -262144
-1 -1 62 256;
#X obj 122 75 +;
#X obj 136 45 *;
#X obj 156 23 / 100;
#X connect 0 0 20 6;
#X connect 1 0 20 8;
#X connect 2 0 25 0;
#X connect 3 0 20 2;
#X connect 4 0 20 5;
#X connect 5 0 20 7;
#X connect 6 0 20 1;
#X connect 7 0 20 3;
#X connect 10 0 29 0;
#X connect 11 0 23 0;
#X connect 12 0 6 0;
#X connect 13 0 7 0;
#X connect 14 0 15 0;
#X connect 15 0 16 0;
#X connect 16 0 0 0;
#X connect 18 0 20 4;
#X connect 19 0 1 0;
#X connect 20 0 8 0;
#X connect 20 1 9 0;
#X connect 22 0 24 0;
#X connect 23 0 3 0;
#X connect 24 0 23 1;
#X connect 25 0 20 0;
#X connect 26 0 28 1;
#X connect 27 0 30 0;
#X connect 28 0 2 0;
#X connect 29 0 28 0;
#X connect 30 0 29 1;
#X coords 0 -1 1 1 250 100 1 100 100;
#X restore 51 99 pd clustersynth128;
#X obj 177 54 ctlin 83;
#X connect 1 0 6 0;
#X connect 2 0 3 0;
#X connect 3 0 6 1;
#X connect 6 0 0 0;
#X connect 6 1 0 1;
#X connect 7 0 6 2;
