#N canvas 185 139 571 459 10;
#N canvas 283 101 1240 935 drum1 0;
#X obj 21 635 vline~;
#X msg 21 607 \$1 \, \$2 \$3;
#X obj 14 567 pack f f f;
#X obj 105 211 nbx 3 14 1 999 0 1 empty empty empty -5 8 0 10 -262144
-1 -1 260 256;
#X obj 148 211 nbx 3 14 1 999 0 1 empty empty empty -6 8 0 10 -262144
-1 -1 50 256;
#X obj -35 511 float;
#X obj -17 736 *~;
#X obj -55 691 *~;
#X obj -77 657 vline~;
#X obj -83 605 pack f f;
#X obj -128 472 t f f;
#X obj -124 498 *;
#X obj -113 534 * 2000;
#X obj 183 1132 outlet~;
#X obj 179 576 spigot 1;
#X obj -84 422 t f b b;
#X msg 202 551 0;
#X obj 213 521 delay;
#X msg 236 551 1;
#X msg -86 631 \$1 0.5 \, 0 \$2 1;
#X msg 170 612 0.25;
#X text -94 36 trigger/peak;
#X obj 95 438 t f f;
#X obj 112 471 *;
#X obj 76 542 * 500;
#X obj 107 494 t f f;
#X obj 97 518 *;
#X obj -94 56 inlet;
#X obj -94 116 / 128;
#X obj 105 119 hsl 128 15 0 1 0 1 empty empty dec 2 8 0 10 -262144
-1 -1 5000 1;
#X obj -104 574 clip 0 2000;
#X obj 190 1039 *~;
#X obj 189 1062 clip~ -1 1;
#X obj 270 516 t f f;
#X obj 276 541 *;
#X obj 267 591 + 1;
#X obj 274 565 * 32;
#X text 26 -135 drum synth;
#X obj 105 147 hsl 128 15 0 1 0 1 empty empty pdec 2 8 0 10 -262144
-1 -1 5000 1;
#X obj 268 215 hsl 128 15 0 1 0 1 empty empty diz 2 8 0 10 -262144
-1 -1 3200 1;
#X obj 105 635 osc~;
#X obj 106 668 *~;
#X obj 198 211 nbx 3 14 1 999 0 1 empty empty empty -12 8 0 10 -262144
-1 -1 58 256;
#X obj 105 175 hsl 128 15 0 1 0 1 empty empty fm 2 8 0 10 -262144 -1
-1 0 1;
#X obj 170 344 t f f;
#X obj 173 371 *;
#X obj 178 471 * 4000;
#X obj 177 398 t f f;
#X obj 180 425 *;
#X obj 261 464 t f f;
#X obj 267 489 *;
#N canvas 236 674 450 300 sts_osc 0;
#X obj 51 64 inlet~;
#X obj 65 258 outlet~;
#X obj 151 65 inlet;
#X obj 256 62 inlet;
#X text 51 45 freq;
#X text 157 45 sync;
#X text 262 41 wave;
#N canvas 1 77 450 300 sine 0;
#X obj 51 64 inlet~;
#X obj 71 224 outlet~;
#X obj 73 162 osc~;
#X obj 155 69 inlet;
#X obj 222 70 inlet;
#X obj 224 132 switch~;
#X obj 225 100 == 0;
#X connect 0 0 2 0;
#X connect 2 0 1 0;
#X connect 3 0 2 1;
#X connect 4 0 6 0;
#X connect 6 0 5 0;
#X restore 53 152 pd sine;
#N canvas 1 77 604 497 triangle 0;
#X obj 19 95 phasor~;
#X obj 65 133 *~ -1;
#X obj 94 170 +~ 1;
#X obj 72 211 min~;
#X obj 51 64 inlet~;
#X obj 58 317 outlet~;
#X obj 155 69 inlet;
#X obj 222 70 inlet;
#X obj 224 132 switch~;
#X obj 225 100 == 1;
#X obj 72 241 *~ 4;
#X obj 71 274 -~ 1;
#X connect 0 0 1 0;
#X connect 0 0 3 0;
#X connect 1 0 2 0;
#X connect 2 0 3 1;
#X connect 3 0 10 0;
#X connect 4 0 0 0;
#X connect 6 0 0 1;
#X connect 7 0 9 0;
#X connect 9 0 8 0;
#X connect 10 0 11 0;
#X connect 11 0 5 0;
#X restore 122 152 pd triangle;
#N canvas 1 77 753 525 saw 0;
#X obj 52 133 phasor~;
#X obj 53 157 *~ 2;
#X obj 52 179 -~ 1;
#X obj 51 64 inlet~;
#X obj 46 263 outlet~;
#X obj 155 69 inlet;
#X obj 222 70 inlet;
#X obj 224 132 switch~;
#X obj 225 100 == 2;
#X connect 0 0 1 0;
#X connect 1 0 2 0;
#X connect 2 0 4 0;
#X connect 3 0 0 0;
#X connect 5 0 0 1;
#X connect 6 0 8 0;
#X connect 8 0 7 0;
#X restore 222 152 pd saw;
#X connect 0 0 7 0;
#X connect 0 0 9 0;
#X connect 0 0 8 0;
#X connect 2 0 7 1;
#X connect 2 0 9 1;
#X connect 2 0 8 1;
#X connect 3 0 7 2;
#X connect 3 0 9 2;
#X connect 3 0 8 2;
#X connect 7 0 1 0;
#X connect 8 0 1 0;
#X connect 9 0 1 0;
#X restore 21 704 pd sts_osc;
#X obj 190 102 hradio 15 1 1 3 empty empty empty 0 -8 0 10 -262144
-1 -1 0;
#X obj 241 634 noise~;
#X obj 251 908 *~;
#X obj 429 809 *~;
#X obj 486 760 vline~;
#X obj 530 652 pack f f;
#X obj 577 421 t f f;
#X obj 577 453 *;
#X obj 557 482 * 2000;
#X msg 495 730 \$1 0.5 \, 0 \$2 1;
#X obj 268 102 hsl 128 15 0 1 0 1 empty empty ndec 2 8 0 10 -262144
-1 -1 1900 1;
#X obj 552 504 clip 0 2000;
#X obj 317 576 mtof;
#X obj 182 995 +~;
#X obj 223 952 *~;
#X obj 161 955 *~;
#X obj 168 900 * -1;
#X obj 168 924 + 1;
#X obj 268 131 hsl 128 15 0 1 0 1 empty empty cut 2 8 0 10 -262144
-1 -1 1600 1;
#X obj 268 159 hsl 128 15 0 1 0 1 empty empty res 2 8 0 10 -262144
-1 -1 2100 1;
#X obj 367 192 hradio 15 1 1 2 empty empty empty 0 -8 0 10 -262144
-1 -1 1;
#N canvas 1 77 450 300 filters 0;
#X obj 42 78 inlet~;
#X obj 102 75 inlet~;
#X obj 163 75 inlet;
#X obj 225 77 inlet;
#N canvas 484 218 1076 837 hipass2p2z 0;
#X obj -47 497 inlet~;
#X obj 128 927 outlet~;
#X obj 105 93 inlet~;
#X text 401 96 resonance 0..1;
#X text 156 94 cutoff (hz);
#X text 572 141 c= tan(pi*cutf/samplerate);
#X obj 245 49 samplerate~;
#X obj 140 186 expr~ tan($v1);
#X obj 135 159 /~ 44100;
#X obj 108 128 *~ 3.14159;
#X text 91 160 c;
#X obj 143 285 sig~ 1;
#X obj 174 398 /~;
#X obj 210 362 +~;
#X obj 226 333 +~;
#X obj 270 268 *~;
#X obj 266 314 *~;
#X text 573 165 a1= 1/(1+res+c+c*c);
#X text 573 186 a2= -2*a1;
#X text 99 483 a2;
#X text 123 337 a1/a3;
#X text 574 205 b1= 2*(c*c-1)*a1;
#X obj 287 439 -~;
#X obj 310 417 sig~ 1;
#X text 256 428 b1;
#X obj 280 485 *~ 2;
#X obj 261 515 *~;
#X obj 417 339 *~;
#X text 384 379 b2;
#X obj 361 397 sig~ 1;
#X obj 392 429 -~;
#X obj 377 512 *~;
#X obj 394 472 +~;
#X text 573 221 b2= (1-res*c+c*c)*a1;
#X obj 33 690 czero~;
#X obj 59 727 czero~;
#X obj 90 841 cpole~;
#X obj 129 888 cpole~;
#X obj 178 840 *~ -1;
#X obj 184 805 expr~ sqrt($v1);
#X obj -44 595 *~;
#X obj 128 704 *~ -0.5;
#X text 219 845 2nd pole = 1st mirrored on the x axis;
#X text 183 704 b1/2 (x pos);
#X obj 163 748 *~;
#X obj 183 781 -~;
#X text 217 666 pole position from coeffs:;
#X text 218 683 p=-b1/2+j*sqrt(b2-(b1/2)^2) (found somewhere on the
net...);
#X text 573 99 cookbook-like? (i cant remember where i got this from)
hp-filter;
#X obj 343 246 *~ 1.41421;
#X obj 341 194 -~;
#X obj 305 153 sig~ 1;
#X obj 346 95 inlet~;
#X obj 90 670 sig~ 0;
#X obj 73 646 sig~ 1;
#X text 49 624 zeros at fixed pos;
#X obj 509 39 inlet;
#X obj 511 101 switch~;
#X obj 512 69 == 0;
#X connect 0 0 40 0;
#X connect 2 0 9 0;
#X connect 6 0 8 1;
#X connect 7 0 15 0;
#X connect 7 0 16 0;
#X connect 7 0 16 1;
#X connect 7 0 27 0;
#X connect 8 0 7 0;
#X connect 9 0 8 0;
#X connect 11 0 12 0;
#X connect 11 0 13 0;
#X connect 12 0 26 0;
#X connect 12 0 31 0;
#X connect 12 0 40 1;
#X connect 13 0 12 1;
#X connect 14 0 13 1;
#X connect 15 0 14 0;
#X connect 16 0 14 1;
#X connect 16 0 22 0;
#X connect 16 0 32 1;
#X connect 22 0 25 0;
#X connect 23 0 22 1;
#X connect 25 0 26 1;
#X connect 26 0 41 0;
#X connect 27 0 30 1;
#X connect 29 0 30 0;
#X connect 30 0 32 0;
#X connect 31 0 45 0;
#X connect 32 0 31 1;
#X connect 34 0 35 0;
#X connect 34 1 35 1;
#X connect 35 0 36 0;
#X connect 35 1 36 1;
#X connect 36 0 37 0;
#X connect 36 1 37 1;
#X connect 37 0 1 0;
#X connect 38 0 37 3;
#X connect 39 0 36 3;
#X connect 39 0 38 0;
#X connect 40 0 34 0;
#X connect 41 0 36 2;
#X connect 41 0 37 2;
#X connect 41 0 44 0;
#X connect 41 0 44 1;
#X connect 44 0 45 1;
#X connect 45 0 39 0;
#X connect 49 0 15 1;
#X connect 49 0 27 1;
#X connect 50 0 49 0;
#X connect 51 0 50 0;
#X connect 52 0 50 1;
#X connect 53 0 35 3;
#X connect 53 0 34 3;
#X connect 54 0 34 2;
#X connect 54 0 35 2;
#X connect 56 0 58 0;
#X connect 58 0 57 0;
#X restore 51 163 pd hipass2p2z;
#N canvas 713 77 1076 999 lopass2p2z 0;
#X obj -50 465 inlet~;
#X obj 129 919 outlet~;
#X obj 73 85 inlet~;
#X obj 87 200 sig~ 1;
#X obj 121 249 /~;
#X obj 219 59 samplerate~;
#X obj 110 376 sig~ 1;
#X obj 147 408 /~;
#X obj 214 340 +~;
#X obj 187 310 sig~ 1;
#X obj 251 318 *~;
#X obj 181 375 +~;
#X obj 112 295 *~;
#X text 41 361 a1/a3;
#X obj 222 407 sig~ 1;
#X obj 296 433 -~;
#X obj 299 457 *~ 2;
#X obj 286 506 *~;
#X obj 409 334 *~;
#X text 276 435 b1;
#X text 384 379 b2;
#X obj 361 397 sig~ 1;
#X obj 392 429 -~;
#X obj 377 512 *~;
#X text 99 246 c;
#X obj 397 462 +~;
#X obj 147 222 expr~ tan($v1);
#X obj 151 194 /~ 44100;
#X obj 129 153 *~ 3.14159;
#X text 408 73 resonance 0..1;
#X text 124 86 cutoff (hz);
#X text 420 186 a2= 2*a1 \, a3=a1;
#X text 420 150 c= 1/tan(pi*cutf/samplerate);
#X text 422 168 a1= 1/(1+res*c+c*c);
#X text 421 204 b1= 2*(1-c*c)*a1;
#X text 421 220 b2= (1-res*c+c*c)*a1;
#X obj 33 690 czero~;
#X obj 59 727 czero~;
#X obj 73 646 sig~ -1;
#X obj 90 670 sig~ 0;
#X obj 90 841 cpole~;
#X obj 129 888 cpole~;
#X obj 296 199 *~ 1.41421;
#X obj 307 148 -~;
#X obj 353 72 inlet~;
#X obj 279 94 sig~ 1;
#X text 28 627 zeros at fixed pos;
#X obj 178 840 *~ -1;
#X obj 184 805 expr~ sqrt($v1);
#X obj -44 595 *~;
#X obj 128 704 *~ -0.5;
#X text 219 845 2nd pole = 1st mirrored on the x axis;
#X text 183 704 b1/2 (x pos);
#X text 267 11 cookbook-like? (i cant remember where i got this from)
lp-filter;
#X obj 163 748 *~;
#X obj 183 781 -~;
#X text 217 666 pole position from coeffs:;
#X text 218 683 p=-b1/2+j*sqrt(b2-(b1/2)^2) (found somewhere on the
net...);
#X obj 624 68 inlet;
#X obj 626 130 switch~;
#X obj 627 98 == 1;
#X connect 0 0 49 0;
#X connect 2 0 28 0;
#X connect 3 0 4 0;
#X connect 4 0 10 0;
#X connect 4 0 12 0;
#X connect 4 0 12 1;
#X connect 4 0 18 0;
#X connect 5 0 27 1;
#X connect 6 0 7 0;
#X connect 7 0 17 1;
#X connect 7 0 23 0;
#X connect 7 0 49 1;
#X connect 8 0 11 1;
#X connect 9 0 8 0;
#X connect 10 0 8 1;
#X connect 11 0 7 1;
#X connect 12 0 11 0;
#X connect 12 0 15 1;
#X connect 12 0 25 1;
#X connect 14 0 15 0;
#X connect 15 0 16 0;
#X connect 16 0 17 0;
#X connect 17 0 50 0;
#X connect 18 0 22 1;
#X connect 21 0 22 0;
#X connect 22 0 25 0;
#X connect 23 0 55 0;
#X connect 25 0 23 1;
#X connect 26 0 4 1;
#X connect 27 0 26 0;
#X connect 28 0 27 0;
#X connect 36 0 37 0;
#X connect 36 1 37 1;
#X connect 37 0 40 0;
#X connect 37 1 40 1;
#X connect 38 0 36 2;
#X connect 38 0 37 2;
#X connect 39 0 37 3;
#X connect 39 0 36 3;
#X connect 40 0 41 0;
#X connect 40 1 41 1;
#X connect 41 0 1 0;
#X connect 42 0 10 1;
#X connect 42 0 18 1;
#X connect 43 0 42 0;
#X connect 44 0 43 1;
#X connect 45 0 43 0;
#X connect 47 0 41 3;
#X connect 48 0 40 3;
#X connect 48 0 47 0;
#X connect 49 0 36 0;
#X connect 50 0 40 2;
#X connect 50 0 41 2;
#X connect 50 0 54 0;
#X connect 50 0 54 1;
#X connect 54 0 55 1;
#X connect 55 0 48 0;
#X connect 58 0 60 0;
#X connect 60 0 59 0;
#X restore 138 164 pd lopass2p2z;
#X obj 111 243 outlet~;
#X connect 0 0 4 0;
#X connect 0 0 5 0;
#X connect 1 0 4 1;
#X connect 1 0 5 1;
#X connect 2 0 5 2;
#X connect 2 0 4 2;
#X connect 3 0 4 3;
#X connect 3 0 5 3;
#X connect 4 0 6 0;
#X connect 5 0 6 0;
#X restore 265 688 pd filters;
#X obj 375 589 * 0.98;
#X obj 375 611 + 0.01;
#X obj 238 104 vsl 15 110 0 1 0 1 empty empty mx 2 5 0 10 -262144 -1
-1 3318 1;
#X obj 561 805 *~;
#X obj 590 770 vline~;
#X obj 616 681 pack f f f f;
#X obj 698 626 + 1;
#X obj 706 790 *~;
#X obj 735 755 vline~;
#X obj 755 669 pack f f f f;
#X obj 815 612 + 1;
#X obj 672 585 t f f;
#X obj 785 547 * 2;
#X obj 778 587 t f f;
#X obj 834 802 *~;
#X obj 863 767 vline~;
#X obj 883 681 pack f f f f;
#X obj 943 624 + 1;
#X obj 906 599 t f f;
#X obj 268 187 hsl 80 15 0 1 0 1 empty empty clp 2 8 0 10 -262144 -1
-1 0 1;
#X obj 445 430 t f f;
#X obj 449 455 *;
#X obj 866 557 * 3;
#X obj 450 479 t f f;
#X obj 459 503 *;
#X obj 668 509 * 100;
#X obj 777 502 * 50;
#X obj 509 868 *~ 0.5;
#X obj 447 404 -;
#X msg 439 385 1;
#X obj 438 361 t b f;
#X obj 468 570 -;
#X msg 454 548 1;
#X obj 457 524 t b f;
#X obj 470 592 * 0.7;
#X msg 600 739 \$1 0.5 \$3 \, 0 50 \$4;
#X msg 745 724 \$1 0.5 \$3 \, 0 50 \$4;
#X msg 873 736 \$1 0.5 \$3 \, 0 50 \$4;
#X obj 304 605 sig~;
#X obj 315 516 * 60;
#X obj 105 136 hsl 128 8 -0.25 0.25 0 1 empty empty mod 0 4 0 10 -262144
-1 -128992 6000 1;
#X obj -63 357 clip 0 1;
#X obj -104 168 t f f f;
#X obj -58 279 *;
#X obj -58 334 +;
#X obj -64 306 t b f;
#X obj 105 164 hsl 128 8 -0.5 0.5 0 1 empty empty mod 0 4 0 10 -262144
-1 -128992 7700 1;
#X obj 81 333 *;
#X obj 81 388 +;
#X obj 75 360 t b f;
#X obj 105 192 hsl 128 8 -0.5 0.5 0 1 empty empty mod 0 4 0 10 -262144
-1 -128992 6300 1;
#X obj 84 410 clip 0 1;
#X obj 176 318 clip 0 1;
#X obj 196 249 *;
#X obj 184 294 +;
#X obj 193 270 t b f;
#X obj 268 119 hsl 128 8 -0.25 0.25 0 1 empty empty mod 0 4 0 10 -262144
-1 -128992 4700 1;
#X obj 579 395 clip 0 1;
#X obj 584 317 *;
#X obj 584 372 +;
#X obj 578 344 t b f;
#X obj 268 148 hsl 128 8 -0.25 0.25 0 1 empty empty mod 0 4 0 10 -262144
-1 -128992 10500 1;
#X obj 312 448 clip 0 1;
#X obj 315 365 *;
#X obj 317 425 +;
#X obj 311 397 t b f;
#X obj 377 564 clip 0 1;
#X obj 382 486 *;
#X obj 382 541 +;
#X obj 376 513 t b f;
#X obj 268 176 hsl 128 8 -0.5 0.5 0 1 empty empty mod 0 4 0 10 -262144
-1 -128992 10600 1;
#X text 146 198 end;
#X text 102 198 start;
#X text 196 198 fm;
#X obj 268 232 hsl 128 8 -0.5 0.5 0 1 empty empty mod 0 4 0 10 -262144
-1 -128992 6300 1;
#X obj 268 204 hsl 80 8 -0.25 0.25 0 1 empty empty mod 0 4 0 10 -262144
-1 -128992 4400 1;
#X obj 723 407 clip 0 1;
#X obj 728 329 *;
#X obj 728 384 +;
#X obj 722 356 t b f;
#X obj 252 397 clip 0 1;
#X obj 257 319 *;
#X obj 257 374 +;
#X obj 251 346 t b f;
#X obj 255 104 vsl 8 110 -0.5 0.5 0 1 empty empty m 2 5 0 10 -262144
-1 -128992 5665 1;
#X obj 184 807 clip 0 1;
#X obj 189 729 *;
#X obj 189 784 +;
#X obj 183 756 t b f;
#X msg 132 596 0;
#N canvas 315 370 1041 699 preset16 0;
#X obj 22 60 inlet;
#X obj -55 808 outlet, f 8;
#X obj 52 167 list prepend;
#X obj 166 133 f;
#X obj 85 28 inlet;
#X obj 153 -2 inlet;
#X text 28 43 data;
#X text 12 809 data out;
#X msg 508 588;
#X obj 259 36 route 0 1 2 3 4 5 6 7 8 9 10 11 12 13 14 15;
#X text 70 3 store nr;
#X obj 52 125 list;
#X obj 91 67 t b f;
#X obj 153 27 t b f;
#X text 151 -21 recall nr;
#X msg 32 96 symbol set;
#X msg 261 68 0 0.393701 -0.0137795 0.393701 0.106299 0 -0.00393701
260 50 58 0.304404 0.019685 0.149606 -0.0649606 0.125984 0.163386 0.165354
0.334646 0 0.028481 1 0.251969 -0.00393701 1;
#X msg 291 111 0 0.267717 -0.00590551 0.362205 0.00393701 0.149606
0.0590551 394 178 141 0.259843 0.019685 0.275591 0.0019685 0.377953
0.13189 0.204724 0.0511811 0.177215 0.028481 1 0.0551181 0.114173 1
;
#X msg 310 163 1 0.393701 -0.00590551 0.425197 0.106299 0.102362 0.106299
339 40 85 0.267717 0.019685 0.23622 -0.0177165 0.212598 0.163386 0.165354
0.334646 0 0.028481 1 0.173228 0.0275591 1;
#X msg 329 197 0 0.377953 0.0846457 0.968504 0.232283 1 0.0275591 999
345 80 0.858268 0.106299 0.283465 0.17126 0.629921 0.163386 0.338583
0.334646 0 0.028481 0 0 -0.161417 0.797959;
#X msg 346 227 2 0.23622 0.0846457 0.283465 0.232283 0.929134 0.122047
774 113 67 0.637795 0.169291 0.307087 -0.167323 0.354331 -0.135827
0.212598 0.334646 0.392405 0.0474684 0 0 0.232283 0.761225;
#X msg 359 256 0 0.527559 0.0885827 0.543307 -0.106299 0 -0.192913
166 50 43 0.125984 0.177165 0.00787402 -0.167323 0.173228 -0.135827
0.417323 0.334646 0 -0.0727848 1 0 -0.0511811 0.944898;
#X msg 373 285 2 0.283465 -0.00590551 0.653543 0.00393701 0.661417
0.0590551 565 178 74 0.464567 0.019685 0.370079 0.108268 0.472441 -0.0177165
0.244094 0.0511811 0.417722 0.028481 1 0.173228 0.114173 0.871429;
#X msg 387 313 1 0.448819 -0.00590551 0.409449 0.00393701 0.314961
0.0590551 733 37 80 0.519685 -0.0433071 0.228346 0.0688976 0.23622
-0.0177165 0.362205 0.42126 0 -0.0348101 1 0.440945 0.114173 0.779592
;
#X msg 398 346 0 0.346457 -0.0177165 0.125984 0.00393701 0 -0.0354331
905 56 178 0.433071 -0.0433071 0.228346 0.0216535 0.385827 -0.0177165
0.362205 0.42126 0.151899 -0.0348101 1 0.133858 0.248031 1;
#X msg 412 374 0 0.212598 -0.00590551 0.685039 0.00393701 0.125984
0.232283 369 210 66 0.165354 0.019685 0.149606 -0.0767717 0.204724
0.13189 0.472441 0.0511811 0 0.028481 1 0.0551181 0.248031 0.926531
;
#X msg 436 437 0 0.212598 -0.0295276 0.181102 0.00393701 0.141732 0.287402
999 307 171 0.378991 0.157339 0.409449 -0.175197 0.503937 0.0767717
0.346457 0.0511811 0 0.0411392 1 0.23622 -0.0354331 1;
#X msg 422 409 0 0.433071 -0.00590551 0.976378 0.00393701 0.11811 -0.114173
263 42 1 0.149606 0.0748032 0.574803 -0.175197 0.314961 0.13189 0.535433
0.0511811 0 0.028481 1 0 -0.0354331 0.981633;
#X msg 450 467 1 0.307087 -0.0295276 0.141732 0.00393701 0.133858 0.358268
809 307 61 0.516605 0.157339 0.322835 -0.175197 0.362205 0.0570866
0.448819 0.271654 0 0.0411392 1 0.425197 -0.326772 1;
#X msg 464 494 1 0.511811 -0.0137795 0.377953 0.192913 0.244094 -0.106299
291 48 55 0.506239 0.019685 0.283465 -0.0649606 0.354331 -0.112205
0.480315 0.255906 0 0.028481 1 0.755906 0.0748032 0.65102;
#X msg 475 527 2 0.204724 0.00984252 0.456693 0.232283 0.338583 0.232283
341 77 168 0.357982 0.019685 0.338583 0.0295276 0.598425 0.0846457
0.141732 -0.0511811 0.240506 0.142405 0 0.401575 0.0590551 0.559184
;
#X msg 489 555 0 0.251969 -0.00984252 0.338583 0.00393701 0.314961
-0.161417 429 225 115 0.259843 0.019685 0.181102 0.0019685 0.795276
0.116142 0.204724 0.0511811 0 0.028481 1 0.259843 0.169291 0.797959
;
#X connect 0 0 11 1;
#X connect 2 0 9 0;
#X connect 3 0 9 0;
#X connect 4 0 12 0;
#X connect 5 0 13 0;
#X connect 8 0 1 0;
#X connect 9 0 16 0;
#X connect 9 1 17 0;
#X connect 9 2 18 0;
#X connect 9 3 19 0;
#X connect 9 4 20 0;
#X connect 9 5 21 0;
#X connect 9 6 22 0;
#X connect 9 7 23 0;
#X connect 9 8 24 0;
#X connect 9 9 25 0;
#X connect 9 10 27 0;
#X connect 9 11 26 0;
#X connect 9 12 28 0;
#X connect 9 13 29 0;
#X connect 9 14 30 0;
#X connect 9 15 31 0;
#X connect 9 16 8 0;
#X connect 11 0 2 0;
#X connect 12 0 15 0;
#X connect 12 1 2 1;
#X connect 13 0 3 0;
#X connect 13 1 3 1;
#X connect 15 0 11 0;
#X connect 16 0 1 0;
#X connect 17 0 1 0;
#X connect 18 0 1 0;
#X connect 19 0 1 0;
#X connect 20 0 1 0;
#X connect 21 0 1 0;
#X connect 22 0 1 0;
#X connect 23 0 1 0;
#X connect 24 0 1 0;
#X connect 25 0 1 0;
#X connect 26 0 1 0;
#X connect 27 0 1 0;
#X connect 28 0 1 0;
#X connect 29 0 1 0;
#X connect 30 0 1 0;
#X connect 31 0 1 0;
#X coords 0 699 1 698 115 18 0;
#X restore 479 -35 pd preset16;
#X obj 432 -62 f;
#X obj 500 -95 t f b;
#X obj 523 -144 int;
#X obj 564 -143 int;
#X obj 190 228 bng 15 250 50 0 empty empty < 5 8 0 10 -258113 -1 -1
;
#X obj 167 228 bng 15 250 50 0 empty empty > 5 8 0 10 -4034 -1 -1;
#X obj 119 229 nbx 2 14 0 15 0 1 empty empty empty 0 -8 0 10 -262144
-1 -1 0 256;
#X obj 149 228 bng 15 250 50 0 empty empty + 5 8 0 10 -204786 -1 -1
;
#X obj 102 228 bng 15 250 50 0 empty empty - 5 8 0 10 -204786 -1 -1
;
#X obj 113 281 +;
#X msg 108 253 -1;
#X msg 138 256 1;
#X obj 117 330 mod 16;
#X obj 319 543 + 60;
#X obj 188 1100 *~;
#X obj 211 229 hsl 50 8 0.1 1 0 1 empty empty lvl 0 4 0 10 -262144
-1 -128992 4900 1;
#X obj 286 988 t f f;
#X obj 284 1023 *;
#X obj 471 -62 pack f f f f f f f f f f f f f f f f f f f f f f f f
;
#X obj -60 -45 unpack f f f f f f f f f f f f f f f f f f f f f f f
f;
#X connect 0 0 51 0;
#X connect 1 0 0 0;
#X connect 2 0 1 0;
#X connect 3 0 5 1;
#X connect 3 0 183 7;
#X connect 4 0 2 1;
#X connect 4 0 183 8;
#X connect 5 0 2 0;
#X connect 6 0 67 0;
#X connect 7 0 6 0;
#X connect 8 0 7 1;
#X connect 8 0 7 0;
#X connect 9 0 19 0;
#X connect 10 0 11 0;
#X connect 10 1 11 1;
#X connect 11 0 12 0;
#X connect 12 0 30 0;
#X connect 14 0 20 0;
#X connect 14 0 163 0;
#X connect 15 0 9 0;
#X connect 15 1 5 0;
#X connect 15 1 16 0;
#X connect 15 1 17 0;
#X connect 15 2 14 0;
#X connect 16 0 14 1;
#X connect 17 0 18 0;
#X connect 18 0 14 1;
#X connect 19 0 8 0;
#X connect 20 0 51 1;
#X connect 22 0 23 0;
#X connect 22 1 23 1;
#X connect 23 0 25 0;
#X connect 24 0 2 2;
#X connect 25 0 26 0;
#X connect 25 1 26 1;
#X connect 26 0 24 0;
#X connect 27 0 28 0;
#X connect 28 0 116 0;
#X connect 29 0 118 0;
#X connect 29 0 183 1;
#X connect 30 0 9 1;
#X connect 30 0 17 1;
#X connect 31 0 32 0;
#X connect 32 0 179 0;
#X connect 33 0 34 0;
#X connect 33 1 34 1;
#X connect 34 0 36 0;
#X connect 35 0 31 1;
#X connect 36 0 35 0;
#X connect 38 0 122 0;
#X connect 38 0 183 3;
#X connect 39 0 156 0;
#X connect 39 0 183 21;
#X connect 40 0 41 0;
#X connect 41 0 51 0;
#X connect 42 0 40 0;
#X connect 42 0 183 9;
#X connect 43 0 128 0;
#X connect 43 0 183 5;
#X connect 44 0 45 0;
#X connect 44 1 45 1;
#X connect 45 0 47 0;
#X connect 46 0 41 1;
#X connect 47 0 48 0;
#X connect 47 1 48 1;
#X connect 48 0 46 0;
#X connect 49 0 50 0;
#X connect 49 1 50 1;
#X connect 50 0 33 0;
#X connect 51 0 6 1;
#X connect 52 0 51 2;
#X connect 52 0 165 1;
#X connect 53 0 73 0;
#X connect 54 0 66 0;
#X connect 55 0 54 1;
#X connect 56 0 55 1;
#X connect 56 0 55 0;
#X connect 57 0 61 0;
#X connect 58 0 59 0;
#X connect 58 1 59 1;
#X connect 59 0 60 0;
#X connect 60 0 63 0;
#X connect 61 0 56 0;
#X connect 62 0 133 0;
#X connect 62 0 183 12;
#X connect 63 0 57 1;
#X connect 64 0 112 0;
#X connect 65 0 31 0;
#X connect 66 0 65 1;
#X connect 67 0 65 0;
#X connect 68 0 69 0;
#X connect 69 0 67 1;
#X connect 70 0 138 0;
#X connect 70 0 183 14;
#X connect 71 0 142 0;
#X connect 71 0 183 16;
#X connect 72 0 73 3;
#X connect 72 0 183 20;
#X connect 73 0 54 0;
#X connect 74 0 75 0;
#X connect 75 0 73 2;
#X connect 76 0 161 0;
#X connect 76 0 183 10;
#X connect 77 0 101 0;
#X connect 78 0 77 1;
#X connect 78 0 77 0;
#X connect 79 0 109 0;
#X connect 80 0 79 3;
#X connect 81 0 101 0;
#X connect 82 0 81 1;
#X connect 82 0 81 0;
#X connect 83 0 110 0;
#X connect 84 0 83 3;
#X connect 85 0 79 2;
#X connect 85 1 80 0;
#X connect 86 0 87 0;
#X connect 87 0 83 2;
#X connect 87 1 84 0;
#X connect 88 0 101 0;
#X connect 89 0 88 1;
#X connect 89 0 88 0;
#X connect 90 0 111 0;
#X connect 91 0 90 3;
#X connect 92 0 90 2;
#X connect 92 1 91 0;
#X connect 93 0 152 0;
#X connect 93 0 183 18;
#X connect 94 0 95 0;
#X connect 94 1 95 1;
#X connect 95 0 97 0;
#X connect 96 0 92 0;
#X connect 97 0 98 0;
#X connect 97 1 98 1;
#X connect 98 0 107 0;
#X connect 99 0 79 1;
#X connect 99 0 83 1;
#X connect 99 0 90 1;
#X connect 100 0 85 0;
#X connect 100 0 86 0;
#X connect 100 0 96 0;
#X connect 101 0 54 1;
#X connect 102 0 94 0;
#X connect 103 0 102 0;
#X connect 104 0 103 0;
#X connect 104 1 102 1;
#X connect 105 0 108 0;
#X connect 106 0 105 0;
#X connect 107 0 106 0;
#X connect 107 1 105 1;
#X connect 108 0 101 1;
#X connect 109 0 78 0;
#X connect 110 0 82 0;
#X connect 111 0 89 0;
#X connect 112 0 73 1;
#X connect 113 0 178 0;
#X connect 114 0 117 1;
#X connect 114 0 183 2;
#X connect 115 0 10 0;
#X connect 116 0 15 0;
#X connect 116 1 57 0;
#X connect 116 1 79 0;
#X connect 116 1 83 0;
#X connect 116 1 90 0;
#X connect 116 2 117 0;
#X connect 116 2 121 0;
#X connect 116 2 127 0;
#X connect 116 2 132 0;
#X connect 116 2 137 0;
#X connect 116 2 141 0;
#X connect 116 2 151 0;
#X connect 116 2 155 0;
#X connect 116 2 160 0;
#X connect 117 0 119 0;
#X connect 118 0 115 0;
#X connect 119 0 118 0;
#X connect 119 1 118 1;
#X connect 120 0 121 1;
#X connect 120 0 183 4;
#X connect 121 0 123 0;
#X connect 122 0 125 0;
#X connect 123 0 122 0;
#X connect 123 1 122 1;
#X connect 124 0 127 1;
#X connect 124 0 183 6;
#X connect 125 0 22 0;
#X connect 126 0 44 0;
#X connect 127 0 129 0;
#X connect 128 0 126 0;
#X connect 129 0 128 0;
#X connect 129 1 128 1;
#X connect 130 0 132 1;
#X connect 130 0 183 13;
#X connect 131 0 58 0;
#X connect 132 0 134 0;
#X connect 133 0 131 0;
#X connect 134 0 133 0;
#X connect 134 1 133 1;
#X connect 135 0 137 1;
#X connect 135 0 183 15;
#X connect 136 0 113 0;
#X connect 137 0 139 0;
#X connect 138 0 136 0;
#X connect 139 0 138 0;
#X connect 139 1 138 1;
#X connect 140 0 74 0;
#X connect 141 0 143 0;
#X connect 142 0 140 0;
#X connect 143 0 142 0;
#X connect 143 1 142 1;
#X connect 144 0 141 1;
#X connect 144 0 183 17;
#X connect 148 0 155 1;
#X connect 148 0 183 22;
#X connect 149 0 151 1;
#X connect 149 0 183 19;
#X connect 150 0 104 0;
#X connect 150 0 99 0;
#X connect 150 0 100 0;
#X connect 151 0 153 0;
#X connect 152 0 150 0;
#X connect 153 0 152 0;
#X connect 153 1 152 1;
#X connect 154 0 49 0;
#X connect 155 0 157 0;
#X connect 156 0 154 0;
#X connect 157 0 156 0;
#X connect 157 1 156 1;
#X connect 158 0 160 1;
#X connect 158 0 183 11;
#X connect 159 0 68 0;
#X connect 159 0 66 1;
#X connect 160 0 162 0;
#X connect 161 0 159 0;
#X connect 162 0 161 0;
#X connect 162 1 161 1;
#X connect 163 0 40 1;
#X connect 164 0 184 0;
#X connect 165 0 183 0;
#X connect 166 0 164 1;
#X connect 166 1 165 0;
#X connect 167 0 166 0;
#X connect 168 0 164 2;
#X connect 169 0 167 0;
#X connect 170 0 168 0;
#X connect 171 0 167 1;
#X connect 171 0 168 1;
#X connect 171 0 174 1;
#X connect 172 0 176 0;
#X connect 173 0 175 0;
#X connect 174 0 177 0;
#X connect 175 0 174 0;
#X connect 176 0 174 0;
#X connect 177 0 171 0;
#X connect 178 0 64 0;
#X connect 179 0 13 0;
#X connect 180 0 181 0;
#X connect 180 0 183 23;
#X connect 181 0 182 0;
#X connect 181 1 182 1;
#X connect 182 0 179 1;
#X connect 183 0 164 0;
#X connect 184 0 52 0;
#X connect 184 1 29 0;
#X connect 184 2 114 0;
#X connect 184 3 38 0;
#X connect 184 4 120 0;
#X connect 184 5 43 0;
#X connect 184 6 124 0;
#X connect 184 7 3 0;
#X connect 184 8 4 0;
#X connect 184 9 42 0;
#X connect 184 10 76 0;
#X connect 184 11 158 0;
#X connect 184 12 62 0;
#X connect 184 13 130 0;
#X connect 184 14 70 0;
#X connect 184 15 135 0;
#X connect 184 16 71 0;
#X connect 184 17 144 0;
#X connect 184 18 93 0;
#X connect 184 19 149 0;
#X connect 184 20 72 0;
#X connect 184 21 39 0;
#X connect 184 22 148 0;
#X connect 184 23 180 0;
#X coords 0 -1 1 1 300 145 1 100 100;
#X restore 56 188 pd drum1;
#X obj 82 111 notein;
#X obj 57 377 dac~;
#X obj 70 142 stripnote;
#X text 103 46 synth for 'virtual analog' and fm drumsounds;
#X connect 0 0 2 0;
#X connect 0 0 2 1;
#X connect 1 0 3 0;
#X connect 1 1 3 1;
#X connect 3 1 0 0;
