#N canvas 207 217 1028 628 10;
#X obj 455 3 loadbang;
#X msg 460 33 location /home/mnb/samplelib;
#X msg 494 83 location /home/mnb/wave_wrk;
#X msg 504 105 location ..;
#X msg 480 59 location /home/mnb/archiv/sounds;
#X obj 493 143 playlist all 400 300 {Helvetica 10 bold} #FFFFFF yellow
black red;
#X obj 67 477 dac~;
#X obj 39 179 loadbang;
#X text 261 51 2015 martin brinkmann;
#N canvas 320 106 1218 893 graindelay3 0;
#X obj 92 686 outlet~;
#X obj 224 688 outlet~;
#X obj 106 119 hsl 200 15 0 1 0 1 empty empty rate 2 7 0 10 -262144
-1 -1 3600 1;
#X obj -42 319 t f f;
#X obj -54 346 *;
#X obj -68 377 t b f;
#X obj -139 538 metro 30;
#X obj -67 483 * 1000;
#X obj -76 517 clip 1 1000;
#X obj 250 216 nbx 3 14 0 48 0 1 empty empty tpr -20 7 0 10 -262144
-1 -1 0 256;
#X obj 106 216 hsl 64 15 0 1 0 1 empty empty pan_rnd 2 7 0 10 -262144
-1 -1 3700 1;
#X obj -134 507 delay 10;
#X obj -60 458 +;
#X obj -128 386 random;
#X obj -98 314 *;
#X obj -92 286 t f f;
#X obj -180 204 inlet;
#X obj -179 225 t b;
#X text -185 183 metro sync;
#X obj -209 490 delay 0;
#X obj 106 136 hsl 200 10 0 1 0 1 empty empty rate_rnd 2 5 0 10 -262144
-1 -1 5900 1;
#X obj -98 335 *;
#X obj -119 358 * 1000;
#X obj -109 425 / 1000;
#X obj -146 460 clip 10 1000;
#X obj 167 169 hsl 64 15 0 0.49 0 1 empty empty ramp 2 7 0 10 -262144
-1 -1 4800 1;
#X obj 190 216 nbx 3 14 -36 36 0 1 empty empty tp -15 7 0 10 -262144
-1 -1 0 256;
#X floatatom 103 170 9 0 0 0 - - -, f 9;
#X obj 415 122 inlet~;
#X obj 440 420 / 1000;
#X obj 463 453 *;
#X obj 498 416 samplerate~;
#X obj 511 230 loadbang;
#X obj 495 465 / 1000;
#X obj 469 500 /;
#X obj 106 151 hsl 200 15 0 1 0 1 empty empty delaypos 2 7 0 10 -262144
-1 -1 1700 0;
#X obj -32 196 *;
#X obj 103 187 nbx 5 14 1 1000 0 1 empty empty empty 0 -8 0 10 -262144
-1 -1 215 256;
#X obj 162 187 nbx 5 14 0 500 0 1 empty empty empty 0 -8 0 10 -262144
-1 -1 37 256;
#X obj 254 172 nbx 5 14 0 500 0 1 empty empty pr -15 7 0 10 -262144
-1 -1 313 256;
#X text 103 201 len/rnd (ms);
#X obj 279 336 delay 1;
#X obj 49 281 /;
#X msg 27 107 set \$1;
#X msg 51 214 set \$1;
#X obj 75 459 change;
#X obj 51 38 inlet;
#X text 48 17 pos (0..1);
#X obj 250 33 inlet;
#X obj 200 286 +;
#X obj 208 243 t b f;
#X text 253 13 tp;
#X text 419 105 audio in;
#X obj 216 102 nbx 5 14 500 20000 0 1 empty empty maxt -25 7 0 10 -262144
-1 -1 2000 256;
#X obj 293 102 tgl 15 0 empty empty frz -20 7 0 10 -204800 -1 -1 0
1;
#X obj 304 22 loadbang;
#X msg 299 52 0;
#X obj 97 532 +;
#X obj 76 482 t b f;
#X obj 27 368 phasor~;
#X obj 399 50 / 1000;
#X obj 357 75 t b f;
#X msg 359 97 1;
#X obj 370 119 /;
#X obj 29 402 snapshot~;
#X obj 33 443 *;
#X obj 120 623 abs_graindelay_particles20;
#X obj 34 478 *;
#X obj 120 38 inlet;
#X text 119 16 pos mod (-0.5..0.5);
#X obj -37 169 +;
#X obj -58 108 t b f;
#X obj -119 132 metro 200;
#X obj -96 218 f;
#X obj 231 194 hsl 64 15 0 1 0 1 empty empty feedb 2 7 0 10 -262144
-1 -1 0 1;
#X connect 2 0 3 0;
#X connect 3 0 4 0;
#X connect 3 1 4 1;
#X connect 4 0 5 0;
#X connect 4 0 21 1;
#X connect 5 0 11 0;
#X connect 5 1 12 1;
#X connect 6 0 19 0;
#X connect 6 0 64 0;
#X connect 6 0 66 0;
#X connect 7 0 8 0;
#X connect 7 0 24 0;
#X connect 8 0 6 1;
#X connect 9 0 66 7;
#X connect 10 0 66 8;
#X connect 11 0 6 0;
#X connect 12 0 7 0;
#X connect 13 0 23 0;
#X connect 14 0 21 0;
#X connect 15 0 14 0;
#X connect 15 1 14 1;
#X connect 16 0 17 0;
#X connect 17 0 6 0;
#X connect 19 0 13 0;
#X connect 20 0 15 0;
#X connect 21 0 22 0;
#X connect 22 0 13 1;
#X connect 23 0 12 0;
#X connect 24 0 11 1;
#X connect 25 0 66 3;
#X connect 26 0 49 0;
#X connect 27 0 42 0;
#X connect 27 0 45 0;
#X connect 28 0 66 12;
#X connect 29 0 30 0;
#X connect 30 0 34 0;
#X connect 31 0 30 1;
#X connect 31 0 33 0;
#X connect 32 0 31 0;
#X connect 33 0 34 1;
#X connect 34 0 36 1;
#X connect 34 0 41 0;
#X connect 34 0 42 1;
#X connect 35 0 70 0;
#X connect 36 0 45 0;
#X connect 36 0 73 1;
#X connect 37 0 66 1;
#X connect 38 0 66 2;
#X connect 39 0 66 5;
#X connect 41 0 35 0;
#X connect 42 0 43 0;
#X connect 43 0 35 0;
#X connect 44 0 27 0;
#X connect 45 0 58 0;
#X connect 46 0 35 0;
#X connect 48 0 50 0;
#X connect 49 0 66 6;
#X connect 50 0 49 0;
#X connect 50 1 49 1;
#X connect 53 0 29 0;
#X connect 53 0 60 0;
#X connect 53 0 65 1;
#X connect 53 0 66 10;
#X connect 54 0 59 1;
#X connect 54 0 66 9;
#X connect 54 0 67 1;
#X connect 55 0 56 0;
#X connect 55 0 72 0;
#X connect 56 0 54 0;
#X connect 57 0 66 4;
#X connect 58 0 57 0;
#X connect 58 1 57 1;
#X connect 59 0 64 0;
#X connect 60 0 61 0;
#X connect 61 0 62 0;
#X connect 61 1 63 1;
#X connect 62 0 63 0;
#X connect 63 0 59 0;
#X connect 64 0 65 0;
#X connect 65 0 67 0;
#X connect 66 0 0 0;
#X connect 66 1 1 0;
#X connect 67 0 57 0;
#X connect 68 0 71 0;
#X connect 70 0 36 0;
#X connect 71 0 70 0;
#X connect 71 1 70 1;
#X connect 72 0 73 0;
#X connect 73 0 44 0;
#X connect 74 0 66 11;
#X coords 0 -1 1 1 210 135 1 100 100;
#X restore 45 223 pd graindelay3;
#X text 59 21 granular delay with absolute grain (len etc.) parameters
;
#X obj 491 513 readsf~;
#X msg 515 483 open \$1;
#X obj 492 457 t b a;
#X msg 478 481 1;
#X obj 643 483 openpanel;
#X obj 641 457 bng 15 250 50 0 empty empty empty 17 7 0 10 -262144
-1 -1;
#X text 658 459 if the playlist external is missing;
#N canvas 567 269 891 641 lfo1rnd 0;
#X obj -41 455 *;
#X obj -45 -148 loadbang;
#X msg 48 -121 bang;
#X obj -42 499 outlet;
#X obj 107 114 hsl 128 10 0.01 10 1 1 empty empty frq 0 5 0 10 -262144
-1 -1 3800 1;
#X obj 107 126 hsl 128 10 0 1 0 1 empty empty am 0 5 0 10 -262144 -1
-1 0 1;
#X obj 13 -91 metro 5;
#X obj -51 37 float;
#X obj 2 76 / 200;
#X obj -9 51 wrap;
#X obj -66 264 cos;
#X obj -57 133 * 6.28319;
#X obj 57 -147 inlet;
#X text 61 -168 sync;
#X obj 107 138 hsl 128 10 0 1 0 1 empty empty rnd 0 5 0 10 -262144
-1 -1 7500 1;
#X obj -52 419 line;
#X obj -51 395 pack f 5;
#X obj -45 79 + 0.01;
#X obj 28 106 random 1000;
#X obj -52 348 *;
#X obj -41 219 -;
#X msg -40 192 1;
#X obj -32 169 t b f;
#X obj -49 374 +;
#X obj 3 292 *;
#X obj -48 109 t f f;
#X obj -17 350 line;
#X obj -1 318 pack f f;
#X obj 118 208 /;
#X msg 104 187 1;
#X obj 112 168 t b f;
#X obj 113 231 * 5;
#X obj 119 259 *;
#X msg 194 196 1;
#X obj 203 224 -;
#X obj 32 205 clip -1 1;
#X obj 30 163 * 10000;
#X obj 8 233 *;
#X obj 18 131 / 1000;
#X obj 133 1 change;
#X obj 68 53 select -1 1;
#X obj 189 175 t b b f;
#X connect 0 0 3 0;
#X connect 1 0 6 0;
#X connect 2 0 6 0;
#X connect 4 0 8 0;
#X connect 5 0 0 1;
#X connect 6 0 7 0;
#X connect 7 0 17 0;
#X connect 8 0 17 1;
#X connect 8 0 30 0;
#X connect 9 0 7 1;
#X connect 10 0 19 0;
#X connect 10 0 36 0;
#X connect 11 0 10 0;
#X connect 12 0 2 0;
#X connect 14 0 22 0;
#X connect 14 0 24 1;
#X connect 14 0 41 0;
#X connect 15 0 0 0;
#X connect 16 0 15 0;
#X connect 17 0 9 0;
#X connect 17 0 25 0;
#X connect 18 0 38 0;
#X connect 19 0 23 0;
#X connect 20 0 19 1;
#X connect 21 0 20 0;
#X connect 22 0 21 0;
#X connect 22 1 20 1;
#X connect 23 0 16 0;
#X connect 24 0 27 0;
#X connect 25 0 11 0;
#X connect 26 0 23 1;
#X connect 27 0 26 0;
#X connect 28 0 31 0;
#X connect 29 0 28 0;
#X connect 30 0 29 0;
#X connect 30 1 28 1;
#X connect 31 0 32 0;
#X connect 32 0 27 1;
#X connect 33 0 34 0;
#X connect 34 0 32 1;
#X connect 35 0 37 1;
#X connect 35 0 39 0;
#X connect 36 0 35 0;
#X connect 37 0 24 0;
#X connect 38 0 37 0;
#X connect 39 0 40 0;
#X connect 40 0 18 0;
#X connect 40 1 18 0;
#X connect 41 0 29 0;
#X connect 41 1 33 0;
#X connect 41 2 34 1;
#X coords 0 -1 1 1 140 50 1 100 100;
#X restore 146 139 pd lfo1rnd;
#X obj 146 195 * 0.5;
#X connect 0 0 1 0;
#X connect 1 0 5 0;
#X connect 2 0 5 0;
#X connect 3 0 5 0;
#X connect 4 0 5 0;
#X connect 5 0 13 0;
#X connect 7 0 9 0;
#X connect 9 0 6 0;
#X connect 9 1 6 1;
#X connect 11 0 9 4;
#X connect 12 0 11 0;
#X connect 13 0 14 0;
#X connect 13 1 12 0;
#X connect 14 0 11 0;
#X connect 15 0 13 0;
#X connect 16 0 15 0;
#X connect 18 0 19 0;
#X connect 19 0 9 2;
