#N canvas 72 127 1317 695 10;
#X obj 235 120 ctlin 81;
#X obj 327 151 ctlin 82;
#X text 233 104 nanopad-x;
#X text 330 133 nanopad-y;
#X obj 422 157 ctlin 83;
#X text 420 141 nanopad-on;
#X obj 816 53 loadbang;
#X msg 821 83 location /home/mnb/samplelib;
#X msg 855 133 location /home/mnb/wave_wrk;
#X msg 865 155 location ..;
#X msg 841 109 location /home/mnb/archiv/sounds;
#X obj 844 217 playlist all 400 300 {Helvetica 10 bold} #FFFFFF yellow
black red;
#X obj 99 467 dac~;
#X obj 634 125 adc~;
#N canvas 334 126 1218 893 granulator3d 0;
#X obj 150 833 outlet~;
#X obj 332 838 outlet~;
#X obj 443 201 hsl 128 15 0 1 0 1 empty empty rate 2 7 0 10 -262144
-1 -1 1436 1;
#X obj 12 421 t f f;
#X obj 0 448 *;
#X obj -14 479 t b f;
#X obj -85 640 metro 30;
#X obj 47 714 * 1000;
#X obj 38 748 clip 1 1000;
#X obj 655 201 nbx 3 14 0 48 0 1 empty empty tpr -20 7 0 10 -262144
-1 -1 0 256;
#X obj 587 219 hsl 64 15 0 1 0 1 empty empty pan_rnd 2 7 0 10 -262144
-1 -1 2500 1;
#X obj -80 609 delay 10;
#X obj 54 689 +;
#X obj -74 488 random;
#X obj -44 416 *;
#X obj -38 388 t f f;
#X obj -154 403 t b;
#X obj -155 592 delay 0;
#X obj 443 218 hsl 128 10 0 1 0 1 empty empty rate_rnd 2 5 0 10 -262144
-1 -1 2100 1;
#X obj -44 437 *;
#X obj -65 460 * 1000;
#X obj -55 527 / 1000;
#X obj -92 562 clip 10 1000;
#X obj 672 219 hsl 64 15 0 0.49 0 1 empty empty ramp 2 7 0 10 -262144
-1 -1 4900 1;
#X obj 594 201 nbx 3 14 -36 36 0 1 empty empty tp -15 7 0 10 -262144
-1 -1 0 256;
#X floatatom 102 201 9 0 0 0 - - -, f 9;
#X obj 919 -30 inlet;
#X obj 752 -26 inlet~;
#X text 756 -43 audio rec in;
#X obj 575 539 tabwrite~;
#X msg 502 504 set \$1;
#X obj 646 101 tgl 15 0 empty empty ar -12 7 0 10 -258113 -1 -1 0 1
;
#X obj 400 364 select 0 1;
#X msg 552 472 stop;
#X msg 620 471 start;
#X obj 488 545 timer;
#X obj 501 575 / 1000;
#X obj 519 614 *;
#X obj 554 577 samplerate~;
#X obj 404 418 t b b;
#X obj 803 105 loadbang;
#N canvas 1102 168 799 693 readsftotable_upsampled 0;
#X obj 143 205 readsf~;
#X msg 167 175 open \$1;
#X obj 150 110 t b a;
#X msg 130 173 1;
#X obj 148 35 inlet;
#X obj 272 35 inlet;
#X obj 226 421 tabwrite~;
#X msg 239 161 set \$1;
#X obj 379 534 outlet;
#X msg 416 323 stop;
#X msg 484 322 start;
#X obj 352 396 timer;
#X obj 375 424 / 1000;
#X obj 376 461 *;
#X obj 456 390 samplerate~;
#X obj 334 249 t b b;
#X obj 268 269 t b b;
#X obj 471 224 loadbang;
#X obj 379 504 clip 0 1.4112e+06;
#X text 148 16 filename;
#X text 277 11 tablename;
#X text 378 553 samplesize;
#X obj 425 67 block~ 1024 1 16;
#X obj 115 137 delay 30;
#X obj 564 485 pack f s;
#X msg 566 525 \; \$2 resize \$1;
#X connect 0 0 6 0;
#X connect 0 1 16 0;
#X connect 1 0 0 0;
#X connect 2 0 23 0;
#X connect 2 1 1 0;
#X connect 3 0 0 0;
#X connect 4 0 2 0;
#X connect 5 0 7 0;
#X connect 5 0 24 1;
#X connect 7 0 6 0;
#X connect 9 0 6 0;
#X connect 10 0 6 0;
#X connect 11 0 12 0;
#X connect 12 0 13 0;
#X connect 13 0 18 0;
#X connect 14 0 13 1;
#X connect 15 0 10 0;
#X connect 15 1 11 0;
#X connect 16 0 11 1;
#X connect 16 1 9 0;
#X connect 17 0 14 0;
#X connect 18 0 8 0;
#X connect 18 0 24 0;
#X connect 23 0 3 0;
#X connect 23 0 15 0;
#X connect 24 0 25 0;
#X restore 789 504 pd readsftotable_upsampled;
#X obj 667 101 bng 15 250 50 0 empty empty N 5 8 0 10 -261682 -1 -1
;
#X obj 551 626 / 1000;
#X obj 525 661 /;
#X obj 105 182 hsl 635 15 0 1 0 1 empty empty position 2 7 0 10 -262144
-1 -1 15800 0;
#X obj -35 239 *;
#X obj 182 774 abs_granularsample_particles20;
#X obj 832 347 t a b;
#X obj 319 201 nbx 5 14 1 1000 0 1 empty empty empty 0 -8 0 10 -262144
-1 -1 60 256;
#X obj 378 201 nbx 5 14 0 500 0 1 empty empty empty 0 -8 0 10 -262144
-1 -1 65 256;
#X obj 177 201 nbx 5 14 0 500 0 1 empty empty pr -15 7 0 10 -262144
-1 -1 29 256;
#X obj 692 681 pack s f;
#X msg 735 647 1.4112e+06;
#X msg 703 719 \; \$1 resize \$2;
#X obj 665 621 t a b;
#X msg 848 645 1;
#X obj 841 679 pack f s;
#X msg 839 713 \; \$2 normalize \$1;
#X obj 470 398 t b b b;
#X obj 484 745 abs_granularsample_table3;
#X text 244 202 len/rnd (ms);
#X obj 335 497 delay 1;
#X obj 139 406 /;
#X msg 24 202 set \$1;
#X msg -50 274 set \$1;
#X obj 83 490 change;
#X obj 102 -140 inlet;
#X text 918 -49 filename;
#X obj 663 -29 inlet;
#X obj 262 344 +;
#X obj 270 301 t b f;
#X text 666 -49 tp;
#X text 620 66 rec \, normalize;
#X obj 101 117 abs_granulator2_display_large;
#X obj 1010 210 openpanel;
#X obj 728 101 bng 15 250 50 0 empty empty v 4 8 0 10 -262144 -1 -1
;
#X msg 1014 254 set symbol \$1;
#X msg 1016 286 symbol /home/mnb/wave_wrk/cassiniarp4lp.wav;
#X msg -154 377 bang;
#X obj -160 332 loadbang;
#X text -149 351 sync grain trigger;
#X obj -96 -129 inlet;
#X text -246 11 granular sampler with absolute grain (len etc.) parameters
+ (patrameter)recorder (looped);
#X obj 107 229 hsl 128 8 0 1 0 0 empty empty empty -2 -8 0 10 -262144
-1 -1 2699 1;
#X obj 309 222 bng 15 250 50 0 empty empty empty 17 7 0 10 -204786
-1 -1;
#X obj 343 222 nbx 3 14 0 100 0 1 empty empty st -15 7 0 10 -204786
-1 -1 5 256;
#N canvas 101 94 1068 804 xyz-value-looprecorder 0;
#X text 9 144 metro sync;
#X obj -28 -52 timer;
#X msg 16 11 set \$1;
#X msg 5 47 8000;
#X obj -62 -28 t b;
#X obj 117 -19 metro 123;
#X obj 119 -47 moses 100;
#X msg -131 190 tempo 1;
#X obj 10 -78 spigot;
#X obj 9 124 t b;
#X obj -36 65 t b b;
#X msg 280 -100 stop;
#X msg 356 150 0;
#X obj -17 -26 t b f;
#X obj 346 73 t b b;
#X msg 340 131 1 8000;
#X msg 355 108 set 1 \$1;
#X obj 342 173 line 0 100;
#X obj -186 -94 inlet;
#X msg 255 -31 stop;
#X obj 275 118 tgl 15 0 empty empty empty 17 7 0 10 -262144 -1 -1 0
1;
#X obj -82 381 spigot 1;
#X obj -20 384 == 0;
#X obj 562 -25 / 100;
#X text -184 -116 start/sync;
#X obj 505 118 >;
#X obj 519 147 ||;
#X obj 540 118 <;
#X obj 525 89 -;
#X obj 518 43 t b f;
#X msg 514 65 1;
#X obj 462 54 t f f;
#N canvas 1 162 1849 827 qr3xyz_values 0;
#X obj -89 102 inlet;
#X msg 226 300 set;
#X msg 206 351 clear;
#X obj 219 229 t b b;
#X msg 244 268 0;
#X obj 189 193 spigot;
#X obj -87 233 t b b;
#X msg -43 272 1;
#X msg -13 278 0;
#X obj -83 345 spigot 1;
#X text -86 83 trig;
#X obj 448 45 inlet;
#X msg 508 410 addcomma;
#X obj 460 439 t b a;
#X obj 445 327 timer;
#X obj 434 357 int;
#X obj 668 272 moses 0.1;
#X msg 658 291 0;
#X msg 219 159 0;
#X obj 457 99 t b b f b b;
#X obj 376 683 outlet;
#X obj 449 386 pack f f;
#X msg 489 468 add2 \$1 \$2;
#X obj 937 90 inlet;
#X msg 1025 445 addcomma;
#X obj 971 480 t b a;
#X obj 964 361 timer;
#X obj 945 405 int;
#X obj 1165 325 moses 0.1;
#X msg 1160 353 0;
#X obj 954 436 pack f f;
#X obj 929 686 outlet;
#X obj 961 192 t b b f b;
#X obj 903 544 abs_qlistrec3v;
#X msg 999 510 add2 \$1 \$2;
#X msg 504 523;
#X obj 289 554 abs_qlistrec3v;
#X text 936 71 ctl2;
#X text 453 27 ctl;
#X msg 1018 574;
#X obj 1438 59 inlet;
#X msg 1526 414 addcomma;
#X obj 1472 449 t b a;
#X obj 1464 336 timer;
#X obj 1446 374 int;
#X obj 1669 284 moses 0.1;
#X msg 1664 312 0;
#X obj 1457 403 pack f f;
#X obj 1430 655 outlet;
#X obj 1462 161 t b b f b;
#X obj 1404 513 abs_qlistrec3v;
#X msg 1500 479 add2 \$1 \$2;
#X msg 1519 543;
#X text 1437 40 ctl3;
#X obj 504 494 spigot 0;
#X obj 1019 543 spigot 0;
#X obj 1520 512 spigot 0;
#X obj 62 5 inlet;
#X text 60 -18 tempo;
#X obj 158 11 inlet;
#X text 160 -6 arm;
#X obj -60 593 outlet;
#X text -58 613 arm status;
#X obj 37 592 outlet;
#X text 36 613 recording;
#X obj 227 14 inlet;
#X connect 0 0 6 0;
#X connect 1 0 35 0;
#X connect 1 0 39 0;
#X connect 1 0 52 0;
#X connect 2 0 33 0;
#X connect 2 0 36 0;
#X connect 2 0 50 0;
#X connect 3 0 4 0;
#X connect 3 0 2 0;
#X connect 3 0 1 0;
#X connect 3 1 14 0;
#X connect 3 1 26 0;
#X connect 3 1 43 0;
#X connect 4 0 15 1;
#X connect 4 0 27 1;
#X connect 4 0 44 1;
#X connect 5 0 3 0;
#X connect 5 0 7 0;
#X connect 6 0 8 0;
#X connect 6 0 33 0;
#X connect 6 0 36 0;
#X connect 6 0 50 0;
#X connect 6 1 9 0;
#X connect 7 0 9 1;
#X connect 7 0 63 0;
#X connect 8 0 9 1;
#X connect 8 0 61 0;
#X connect 9 0 35 0;
#X connect 9 0 39 0;
#X connect 9 0 52 0;
#X connect 11 0 19 0;
#X connect 12 0 54 0;
#X connect 13 0 12 0;
#X connect 13 1 22 0;
#X connect 14 0 15 1;
#X connect 15 0 21 0;
#X connect 16 0 17 0;
#X connect 16 1 54 1;
#X connect 17 0 54 1;
#X connect 18 0 5 1;
#X connect 19 0 15 0;
#X connect 19 0 18 0;
#X connect 19 1 14 0;
#X connect 19 2 21 1;
#X connect 19 3 14 1;
#X connect 19 4 5 0;
#X connect 21 0 13 0;
#X connect 22 0 54 0;
#X connect 23 0 32 0;
#X connect 24 0 55 0;
#X connect 25 0 24 0;
#X connect 25 1 34 0;
#X connect 26 0 27 1;
#X connect 27 0 30 0;
#X connect 28 0 29 0;
#X connect 28 1 55 1;
#X connect 29 0 55 1;
#X connect 30 0 25 0;
#X connect 32 0 27 0;
#X connect 32 1 26 0;
#X connect 32 2 30 1;
#X connect 32 3 26 1;
#X connect 33 0 31 0;
#X connect 34 0 55 0;
#X connect 35 0 36 1;
#X connect 36 0 20 0;
#X connect 39 0 33 1;
#X connect 40 0 49 0;
#X connect 41 0 56 0;
#X connect 42 0 41 0;
#X connect 42 1 51 0;
#X connect 43 0 44 1;
#X connect 44 0 47 0;
#X connect 45 0 46 0;
#X connect 45 1 56 1;
#X connect 46 0 56 1;
#X connect 47 0 42 0;
#X connect 49 0 44 0;
#X connect 49 1 43 0;
#X connect 49 2 47 1;
#X connect 49 3 43 1;
#X connect 50 0 48 0;
#X connect 51 0 56 0;
#X connect 52 0 50 1;
#X connect 54 0 35 0;
#X connect 55 0 39 0;
#X connect 56 0 52 0;
#X connect 57 0 36 0;
#X connect 57 0 33 0;
#X connect 57 0 50 0;
#X connect 59 0 5 1;
#X connect 59 0 16 0;
#X connect 59 0 28 0;
#X connect 59 0 45 0;
#X connect 65 0 2 0;
#X connect 65 0 1 0;
#X coords 0 827 1 826 60 30 0;
#X restore -51 305 pd qr3xyz_values;
#X obj -143 517 outlet;
#X obj 164 249 inlet;
#X obj 227 251 inlet;
#X obj 291 257 inlet;
#X text -186 -139 absolute-time based looprecorder for xyz ctl values
;
#X obj 35 387 spigot 1;
#X obj 97 390 == 0;
#X obj -26 523 outlet;
#X obj 197 392 spigot 1;
#X obj 259 395 == 0;
#X obj 136 528 outlet;
#X text 223 223 xyz values;
#X obj -179 -39 t b;
#X obj -163 59 spigot 1;
#X obj 579 505 outlet;
#X text 579 523 pos (0..1);
#X text -35 555 xyz;
#X obj 687 525 outlet;
#X obj 678 460 / 1000;
#X text 695 499 looplen (sec);
#X obj 136 -91 t b;
#X obj 316 -138 inlet;
#X text 305 -160 rec-stop \, sync;
#X obj 445 -147 inlet;
#X obj 546 -127 inlet;
#X text 543 -145 clear;
#X obj 293 -63 select 1;
#X obj 653 -129 inlet;
#X text 654 -148 rec;
#X obj 802 410 outlet;
#X text 810 390 recording;
#X text 432 -168 sync tolerance (percent);
#X obj 721 -123 inlet;
#X obj 721 -95 * 1000;
#X connect 1 0 13 0;
#X connect 2 0 3 0;
#X connect 3 0 6 0;
#X connect 3 0 51 0;
#X connect 4 0 1 0;
#X connect 5 0 9 0;
#X connect 5 0 14 0;
#X connect 6 1 5 1;
#X connect 7 0 32 1;
#X connect 8 0 1 1;
#X connect 9 0 7 0;
#X connect 9 0 32 0;
#X connect 10 0 9 0;
#X connect 10 0 3 0;
#X connect 10 1 8 0;
#X connect 11 0 5 0;
#X connect 12 0 17 0;
#X connect 13 0 3 0;
#X connect 13 1 2 0;
#X connect 13 1 16 0;
#X connect 14 0 15 0;
#X connect 14 1 12 0;
#X connect 15 0 17 0;
#X connect 16 0 15 0;
#X connect 17 0 31 0;
#X connect 17 0 47 0;
#X connect 18 0 45 0;
#X connect 19 0 5 0;
#X connect 20 0 22 0;
#X connect 20 0 39 0;
#X connect 20 0 42 0;
#X connect 21 0 33 0;
#X connect 22 0 21 1;
#X connect 23 0 27 1;
#X connect 23 0 29 0;
#X connect 25 0 26 0;
#X connect 26 0 46 1;
#X connect 27 0 26 1;
#X connect 28 0 25 1;
#X connect 29 0 30 0;
#X connect 29 1 28 1;
#X connect 30 0 28 0;
#X connect 31 0 25 0;
#X connect 31 1 27 0;
#X connect 32 0 62 0;
#X connect 32 1 4 0;
#X connect 32 2 21 0;
#X connect 32 3 38 0;
#X connect 32 4 41 0;
#X connect 34 0 32 4;
#X connect 34 0 33 0;
#X connect 35 0 32 5;
#X connect 35 0 40 0;
#X connect 36 0 32 6;
#X connect 36 0 41 0;
#X connect 36 0 43 0;
#X connect 38 0 40 0;
#X connect 39 0 38 1;
#X connect 41 0 43 0;
#X connect 42 0 41 1;
#X connect 45 0 46 0;
#X connect 46 0 53 0;
#X connect 51 0 50 0;
#X connect 53 0 10 0;
#X connect 53 0 5 0;
#X connect 54 0 53 0;
#X connect 56 0 23 0;
#X connect 57 0 11 0;
#X connect 57 0 32 3;
#X connect 59 0 19 0;
#X connect 60 0 59 0;
#X connect 60 0 32 2;
#X connect 60 0 8 1;
#X connect 65 0 66 0;
#X connect 66 0 2 0;
#X connect 66 0 16 0;
#X coords 0 804 1 803 200 50 0;
#X restore 140 5 pd xyz-value-looprecorder;
#X obj 390 222 bng 15 250 50 0 empty empty X 5 8 0 10 -260097 -1 -1
;
#X obj 416 222 tgl 15 0 empty empty empty 17 7 0 10 -258113 -1 -1 0
1;
#X floatatom 241 223 9 0 0 0 - - -, f 9;
#X obj 108 -115 *;
#X obj 157 -97 +;
#X obj 213 104 hsl 90 10 0 1 0 1 empty empty x-mod 2 5 0 10 -262144
-1 -1 3600 1;
#X obj 157 -74 clip 0 1;
#X obj 153 -137 t b f;
#X obj 210 -137 t f b;
#X msg 224 -109 0;
#X obj 314 104 hsl 90 10 0 1 0 1 empty empty y-mod 2 5 0 10 -262144
-1 -1 1700 1;
#X obj 414 104 hsl 90 10 0 1 0 1 empty empty z-mod 2 5 0 10 -262144
-1 -1 1300 1;
#X text 99 -161 xmod \, pos (0..1);
#X obj 273 -148 inlet;
#X obj 261 -104 *;
#X obj 302 -77 +;
#X obj 297 -119 t b f;
#X obj 348 -124 t f b;
#X msg 362 -96 0;
#X text 274 -166 ymod \, rate (0..1);
#X msg 342 63 set \$1;
#X text -94 -152 looper-sync;
#X obj 410 -147 inlet;
#X obj 401 -98 *;
#X obj 434 -79 +;
#X obj 432 -52 clip 0 1;
#X obj 440 -120 t b f;
#X obj 491 -126 t f b;
#X msg 505 -98 0;
#X text 411 -165 zmod \, len (0..1);
#X msg 216 63 set \$1;
#X obj 203 36 * 1000;
#X obj 477 3 / 1000;
#X obj 518 101 tgl 15 1 empty empty m -7 7 0 10 -262144 -1 -1 0 1;
#X obj 559 -163 == 0;
#X obj 108 -90 spigot;
#X obj 239 -67 spigot;
#X obj 389 -73 spigot;
#X obj 93 -62 spigot;
#X obj 216 -45 spigot;
#X obj 373 -50 spigot;
#X obj 300 -53 clip 0 1;
#X obj -34 193 +;
#X obj -39 155 t b f;
#X obj -41 216 clip 0 1;
#X obj 32 334 +;
#X obj 27 296 t b f;
#X obj 25 357 clip 0 1;
#X obj 158 535 +;
#X obj 166 492 t b f;
#X obj 183 462 * 1000;
#X connect 2 0 105 0;
#X connect 3 0 4 0;
#X connect 3 1 4 1;
#X connect 4 0 5 0;
#X connect 4 0 19 1;
#X connect 5 0 11 0;
#X connect 5 1 12 1;
#X connect 6 0 17 0;
#X connect 6 0 47 0;
#X connect 7 0 8 0;
#X connect 7 0 22 0;
#X connect 8 0 6 1;
#X connect 9 0 47 7;
#X connect 10 0 47 8;
#X connect 11 0 6 0;
#X connect 12 0 7 0;
#X connect 13 0 21 0;
#X connect 14 0 19 0;
#X connect 15 0 14 0;
#X connect 15 1 14 1;
#X connect 16 0 6 0;
#X connect 17 0 13 0;
#X connect 18 0 15 0;
#X connect 19 0 20 0;
#X connect 20 0 13 1;
#X connect 21 0 12 0;
#X connect 22 0 11 1;
#X connect 23 0 47 3;
#X connect 24 0 70 0;
#X connect 25 0 63 0;
#X connect 25 0 66 0;
#X connect 26 0 48 0;
#X connect 26 0 77 0;
#X connect 27 0 29 0;
#X connect 30 0 29 0;
#X connect 31 0 32 0;
#X connect 32 0 39 0;
#X connect 32 1 59 0;
#X connect 33 0 29 0;
#X connect 34 0 29 0;
#X connect 35 0 36 0;
#X connect 36 0 37 0;
#X connect 37 0 44 0;
#X connect 38 0 37 1;
#X connect 38 0 43 0;
#X connect 39 0 35 1;
#X connect 39 1 33 0;
#X connect 40 0 38 0;
#X connect 40 0 78 0;
#X connect 41 0 44 0;
#X connect 41 0 74 1;
#X connect 42 0 56 0;
#X connect 43 0 44 1;
#X connect 44 0 46 1;
#X connect 44 0 62 0;
#X connect 44 0 63 1;
#X connect 44 0 74 1;
#X connect 45 0 96 0;
#X connect 46 0 65 0;
#X connect 46 0 66 0;
#X connect 47 0 0 0;
#X connect 47 1 1 0;
#X connect 48 0 41 0;
#X connect 48 0 74 0;
#X connect 48 1 55 0;
#X connect 49 0 120 0;
#X connect 50 0 47 2;
#X connect 51 0 47 5;
#X connect 52 0 54 0;
#X connect 53 0 52 1;
#X connect 55 0 52 0;
#X connect 55 1 53 0;
#X connect 56 0 57 0;
#X connect 57 0 58 0;
#X connect 59 0 34 0;
#X connect 59 1 35 0;
#X connect 59 2 55 0;
#X connect 60 0 47 9;
#X connect 60 0 41 1;
#X connect 60 0 30 0;
#X connect 60 0 55 0;
#X connect 60 0 57 1;
#X connect 60 0 74 2;
#X connect 62 0 45 0;
#X connect 63 0 64 0;
#X connect 64 0 45 0;
#X connect 65 0 25 0;
#X connect 66 0 47 4;
#X connect 67 0 91 0;
#X connect 69 0 71 0;
#X connect 70 0 47 6;
#X connect 71 0 70 0;
#X connect 71 1 70 1;
#X connect 75 0 48 0;
#X connect 75 0 77 0;
#X connect 76 0 75 0;
#X connect 77 0 78 0;
#X connect 78 0 48 0;
#X connect 79 0 16 0;
#X connect 80 0 79 0;
#X connect 82 0 87 0;
#X connect 85 0 87 4;
#X connect 86 0 87 5;
#X connect 87 0 64 0;
#X connect 87 0 130 0;
#X connect 87 1 108 0;
#X connect 87 1 133 0;
#X connect 87 2 119 0;
#X connect 87 3 84 0;
#X connect 87 4 90 0;
#X connect 87 5 89 0;
#X connect 88 0 87 6;
#X connect 89 0 87 7;
#X connect 90 0 87 8;
#X connect 91 0 123 0;
#X connect 91 0 126 0;
#X connect 92 0 94 0;
#X connect 93 0 91 1;
#X connect 94 0 87 1;
#X connect 95 0 92 0;
#X connect 95 1 92 1;
#X connect 96 0 92 0;
#X connect 96 1 97 0;
#X connect 97 0 92 1;
#X connect 98 0 102 1;
#X connect 99 0 111 1;
#X connect 101 0 102 0;
#X connect 102 0 124 0;
#X connect 102 0 127 0;
#X connect 103 0 129 0;
#X connect 104 0 103 0;
#X connect 104 1 103 1;
#X connect 105 0 103 0;
#X connect 105 1 106 0;
#X connect 106 0 103 1;
#X connect 108 0 2 0;
#X connect 110 0 111 0;
#X connect 111 0 125 0;
#X connect 111 0 128 0;
#X connect 112 0 113 0;
#X connect 113 0 87 3;
#X connect 114 0 112 0;
#X connect 114 1 112 1;
#X connect 115 0 112 0;
#X connect 115 1 116 0;
#X connect 116 0 112 1;
#X connect 118 0 49 0;
#X connect 119 0 118 0;
#X connect 119 0 136 0;
#X connect 120 0 115 0;
#X connect 121 0 122 0;
#X connect 121 0 128 1;
#X connect 121 0 126 1;
#X connect 121 0 127 1;
#X connect 122 0 125 1;
#X connect 122 0 124 1;
#X connect 122 0 123 1;
#X connect 123 0 95 0;
#X connect 124 0 104 0;
#X connect 125 0 114 0;
#X connect 126 0 131 0;
#X connect 127 0 134 0;
#X connect 128 0 138 0;
#X connect 129 0 87 2;
#X connect 130 0 132 0;
#X connect 131 0 130 0;
#X connect 131 1 130 1;
#X connect 132 0 46 0;
#X connect 133 0 135 0;
#X connect 134 0 133 0;
#X connect 134 1 133 1;
#X connect 135 0 3 0;
#X connect 136 0 47 1;
#X connect 137 0 136 0;
#X connect 137 1 136 1;
#X connect 138 0 137 0;
#X coords 0 -1 1 1 644 140 1 100 100;
#X restore 96 275 pd granulator3d;
#X obj 218 168 / 128;
#X obj 319 204 / 128;
#X obj 415 238 / 128;
#X obj 422 199 ctlin 64;
#X floatatom 525 219 5 0 0 0 - - -, f 5;
#X obj 59 176 bng 15 250 50 0 empty empty empty 17 7 0 10 -262144 -1
-1;
#X text 529 189 tp;
#X connect 0 0 15 0;
#X connect 1 0 16 0;
#X connect 6 0 7 0;
#X connect 7 0 11 0;
#X connect 8 0 11 0;
#X connect 9 0 11 0;
#X connect 10 0 11 0;
#X connect 11 0 14 6;
#X connect 13 0 14 5;
#X connect 13 1 14 5;
#X connect 14 0 12 0;
#X connect 14 1 12 1;
#X connect 15 0 14 1;
#X connect 16 0 14 2;
#X connect 17 0 14 3;
#X connect 18 0 17 0;
#X connect 19 0 14 4;
#X connect 20 0 14 0;
