#N canvas 275 115 1379 843 10;
#X obj 447 76 loadbang;
#X msg 452 106 location /home/mnb/samplelib;
#X msg 486 156 location /home/mnb/wave_wrk;
#X msg 496 178 location ..;
#X msg 472 132 location /home/mnb/archiv/sounds;
#X obj 485 216 playlist all 400 300 {Helvetica 10 bold} #FFFFFF yellow
black red;
#X obj 148 301 dac~;
#N canvas 53 114 1218 893 granulator3 0;
#X obj 94 672 outlet~;
#X obj 276 677 outlet~;
#X obj 106 119 hsl 200 15 0 1 0 1 empty empty rate 2 7 0 10 -262144
-1 -1 2400 1;
#X obj -42 319 t f f;
#X obj -54 346 *;
#X obj -68 377 t b f;
#X obj -139 538 metro 30;
#X obj -67 483 * 1000;
#X obj -76 517 clip 1 1000;
#X obj 250 212 nbx 3 14 0 48 0 1 empty empty tpr -20 7 0 10 -262144
-1 -1 0 256;
#X obj 106 212 hsl 64 15 0 1 0 1 empty empty pan_rnd 2 7 0 10 -262144
-1 -1 3300 1;
#X obj -134 507 delay 10;
#X obj -60 458 +;
#X obj -128 386 random;
#X obj -98 314 *;
#X obj -92 286 t f f;
#X obj -180 204 inlet;
#X obj -179 225 t b;
#X text -185 183 metro sync;
#X obj -209 490 delay 0;
#X obj 106 137 hsl 200 10 0 1 0 1 empty empty rate_rnd 2 5 0 10 -262144
-1 -1 3300 1;
#X obj -98 335 *;
#X obj -119 358 * 1000;
#X obj -109 425 / 1000;
#X obj -146 460 clip 10 1000;
#X obj 167 171 hsl 64 15 0 0.49 0 1 empty empty ramp 2 7 0 10 -262144
-1 -1 4200 1;
#X obj 190 212 nbx 3 14 -36 36 0 1 empty empty tp -15 7 0 10 -262144
-1 -1 0 256;
#X floatatom 103 172 9 0 0 0 - - -, f 9;
#X obj 755 242 inlet;
#X obj 569 268 inlet~;
#X text 573 251 audio rec in;
#X obj 519 378 tabwrite~;
#X msg 446 343 set \$1;
#X obj 272 102 tgl 15 0 empty empty ar -12 7 0 10 -258113 -1 -1 0 1
;
#X obj 344 203 select 0 1;
#X msg 496 311 stop;
#X msg 564 310 start;
#X obj 432 384 timer;
#X obj 445 414 / 1000;
#X obj 463 453 *;
#X obj 498 416 samplerate~;
#X obj 348 257 t b b;
#X obj 565 191 loadbang;
#N canvas 1104 169 799 693 readsftotable_upsampled 0;
#X obj 143 205 readsf~;
#X msg 167 175 open \$1;
#X obj 150 110 t b a;
#X msg 130 173 1;
#X obj 148 35 inlet;
#X obj 272 35 inlet;
#X obj 226 421 tabwrite~;
#X msg 239 161 set \$1;
#X obj 379 534 outlet;
#X msg 416 323 stop;
#X msg 484 322 start;
#X obj 352 396 timer;
#X obj 375 424 / 1000;
#X obj 376 461 *;
#X obj 456 390 samplerate~;
#X obj 334 249 t b b;
#X obj 268 269 t b b;
#X obj 471 224 loadbang;
#X obj 379 504 clip 0 1.4112e+06;
#X text 148 16 filename;
#X text 277 11 tablename;
#X text 378 553 samplesize;
#X obj 425 67 block~ 1024 1 16;
#X obj 115 137 delay 30;
#X obj 564 485 pack f s;
#X msg 566 525 \; \$2 resize \$1;
#X connect 0 0 6 0;
#X connect 0 1 16 0;
#X connect 1 0 0 0;
#X connect 2 0 23 0;
#X connect 2 1 1 0;
#X connect 3 0 0 0;
#X connect 4 0 2 0;
#X connect 5 0 7 0;
#X connect 5 0 24 1;
#X connect 7 0 6 0;
#X connect 9 0 6 0;
#X connect 10 0 6 0;
#X connect 11 0 12 0;
#X connect 12 0 13 0;
#X connect 13 0 18 0;
#X connect 14 0 13 1;
#X connect 15 0 10 0;
#X connect 15 1 11 0;
#X connect 16 0 11 1;
#X connect 16 1 9 0;
#X connect 17 0 14 0;
#X connect 18 0 8 0;
#X connect 18 0 24 0;
#X connect 23 0 3 0;
#X connect 23 0 15 0;
#X connect 24 0 25 0;
#X restore 733 343 pd readsftotable_upsampled;
#X obj 293 102 bng 15 250 50 0 empty empty N 5 8 0 10 -261682 -1 -1
;
#X obj 495 465 / 1000;
#X obj 469 500 /;
#X obj 106 153 hsl 200 15 0 1 0 1 empty empty position 2 7 0 10 -262144
-1 -1 16400 0;
#X obj -108 130 *;
#X obj 126 613 abs_granularsample_particles20;
#X obj 747 294 t a b;
#X obj 103 191 nbx 5 14 1 1000 0 1 empty empty empty 0 -8 0 10 -262144
-1 -1 249 256;
#X obj 162 191 nbx 5 14 0 500 0 1 empty empty empty 0 -8 0 10 -262144
-1 -1 44 256;
#X obj 254 172 nbx 5 14 0 500 0 1 empty empty pr -15 7 0 10 -262144
-1 -1 50 256;
#X obj 636 520 pack s f;
#X msg 679 486 1.4112e+06;
#X msg 653 549 \; \$1 resize \$2;
#X obj 609 460 t a b;
#X msg 792 484 1;
#X obj 785 518 pack f s;
#X msg 783 552 \; \$2 normalize \$1;
#X obj 414 237 t b b b;
#X obj 428 584 abs_granularsample_table3;
#X text 218 192 len/rnd (ms);
#X obj 279 336 delay 1;
#X obj 49 281 /;
#X msg 27 107 set \$1;
#X msg -54 189 set \$1;
#X obj 57 368 change;
#X obj 134 48 inlet;
#X text 131 27 pos (0..1);
#X text 754 223 filename;
#X obj 222 50 inlet;
#X obj 200 286 +;
#X obj 208 243 t b f;
#X text 225 30 tp;
#X text 319 104 rec \, normalize;
#X connect 2 0 3 0;
#X connect 3 0 4 0;
#X connect 3 1 4 1;
#X connect 4 0 5 0;
#X connect 4 0 21 1;
#X connect 5 0 11 0;
#X connect 5 1 12 1;
#X connect 6 0 19 0;
#X connect 6 0 49 0;
#X connect 7 0 8 0;
#X connect 7 0 24 0;
#X connect 8 0 6 1;
#X connect 9 0 49 7;
#X connect 10 0 49 8;
#X connect 11 0 6 0;
#X connect 12 0 7 0;
#X connect 13 0 23 0;
#X connect 14 0 21 0;
#X connect 15 0 14 0;
#X connect 15 1 14 1;
#X connect 16 0 17 0;
#X connect 17 0 6 0;
#X connect 19 0 13 0;
#X connect 20 0 15 0;
#X connect 21 0 22 0;
#X connect 22 0 13 1;
#X connect 23 0 12 0;
#X connect 24 0 11 1;
#X connect 25 0 49 3;
#X connect 26 0 73 0;
#X connect 27 0 65 0;
#X connect 27 0 68 0;
#X connect 28 0 50 0;
#X connect 29 0 31 0;
#X connect 32 0 31 0;
#X connect 33 0 34 0;
#X connect 34 0 41 0;
#X connect 34 1 61 0;
#X connect 35 0 31 0;
#X connect 36 0 31 0;
#X connect 37 0 38 0;
#X connect 38 0 39 0;
#X connect 39 0 46 0;
#X connect 40 0 39 1;
#X connect 40 0 45 0;
#X connect 41 0 37 1;
#X connect 41 1 35 0;
#X connect 42 0 40 0;
#X connect 43 0 46 0;
#X connect 44 0 58 0;
#X connect 45 0 46 1;
#X connect 46 0 48 1;
#X connect 46 0 64 0;
#X connect 46 0 65 1;
#X connect 47 0 48 0;
#X connect 48 0 67 0;
#X connect 48 0 68 0;
#X connect 49 0 0 0;
#X connect 49 1 1 0;
#X connect 50 0 43 0;
#X connect 50 1 57 0;
#X connect 51 0 49 1;
#X connect 52 0 49 2;
#X connect 53 0 49 5;
#X connect 54 0 56 0;
#X connect 55 0 54 1;
#X connect 57 0 54 0;
#X connect 57 1 55 0;
#X connect 58 0 59 0;
#X connect 59 0 60 0;
#X connect 61 0 36 0;
#X connect 61 1 37 0;
#X connect 61 2 57 0;
#X connect 62 0 49 9;
#X connect 62 0 43 1;
#X connect 62 0 32 0;
#X connect 62 0 57 0;
#X connect 62 0 59 1;
#X connect 64 0 47 0;
#X connect 65 0 66 0;
#X connect 66 0 47 0;
#X connect 67 0 27 0;
#X connect 68 0 49 4;
#X connect 69 0 47 0;
#X connect 72 0 74 0;
#X connect 73 0 49 6;
#X connect 74 0 73 0;
#X connect 74 1 73 1;
#X coords 0 -1 1 1 210 130 1 100 100;
#X restore 123 143 pd granulator3;
#X obj 87 71 loadbang;
#X obj 269 100 adc~;
#X text 107 16 granular sampler with absolute grain (len etc.) parameters
;
#X text 330 45 2015 martin brinkmann;
#X connect 0 0 1 0;
#X connect 1 0 5 0;
#X connect 2 0 5 0;
#X connect 3 0 5 0;
#X connect 4 0 5 0;
#X connect 5 0 7 4;
#X connect 7 0 6 0;
#X connect 7 1 6 1;
#X connect 8 0 7 0;
#X connect 9 0 7 3;
#X connect 9 1 7 3;
