#N canvas 102 234 1121 721 10;
#X obj 260 577 dac~;
#X obj 280 527 *~ 0.5;
#N canvas 206 77 1587 999 tri_ops4p 0;
#X obj 128 117 vsl 8 81 0.1 1 0 1 empty empty a 2 4 0 10 -204800 -1
-1 200 1;
#X obj 166 117 vsl 8 81 0.1 1 0 1 empty empty d 2 4 0 10 -204800 -1
-1 4611 1;
#X obj 240 117 vsl 8 81 0.2 1 0 1 empty empty r 2 4 0 10 -204800 -1
-1 2300 1;
#X obj 202 117 vsl 8 81 0 1 0 1 empty empty s 2 4 0 10 -204800 -1 -1
3300 1;
#X obj 268 115 vradio 15 1 1 5 empty empty empty 0 -8 0 10 -204786
-1 -1 0;
#X obj 202 920 outlet~;
#X obj 314 115 vradio 15 1 1 5 empty empty empty 0 -8 0 10 -262130
-1 -1 0;
#X obj 253 192 nbx 4 14 0.25 16 0 1 empty empty empty 0 -8 0 10 -204786
-1 -1 3 256;
#X obj 103 117 vsl 15 81 0.1 1 0 1 empty empty at 2 4 0 10 -204786
-1 -1 0 1;
#X obj 141 117 vsl 15 81 0.1 1 0 1 empty empty dc 2 4 0 10 -204786
-1 -1 2678 1;
#X obj 215 117 vsl 15 81 0.2 1 0 1 empty empty rl 2 4 0 10 -204786
-1 -1 1800 1;
#X obj 177 117 vsl 15 81 0 1 0 1 empty empty st 2 4 0 10 -204786 -1
-1 800 1;
#X obj 254 117 vsl 12 70 0 0.5 0 1 empty empty fb 2 4 0 10 -204786
-1 -1 2400 1;
#X obj 300 117 vsl 12 70 0 0.5 0 1 empty empty fb 2 4 0 10 -262130
-1 -1 5300 1;
#X obj 331 117 vsl 10 70 0 1 0 1 empty empty l 2 4 0 10 -262130 -1
-1 2180 1;
#X obj 172 207 hsl 80 10 -1 1 0 1 empty empty kt 0 6 0 10 -228856 -1
-1 3950 1;
#X obj 119 117 vsl 8 81 0.1 1 0 1 empty empty a 2 4 0 10 -262130 -1
-1 1100 1;
#X obj 157 117 vsl 8 81 0.1 1 0 1 empty empty d 2 4 0 10 -262130 -1
-1 3767 1;
#X obj 231 117 vsl 8 81 0.2 1 0 1 empty empty r 2 4 0 10 -262130 -1
-1 1800 1;
#X obj 193 117 vsl 8 81 0 1 0 1 empty empty s 2 4 0 10 -262130 -1 -1
1400 1;
#X obj 372 115 vradio 15 1 1 5 empty empty empty 0 -8 0 10 -204800
-1 -1 0;
#X obj 358 117 vsl 12 70 0 0.5 0 1 empty empty fb 2 4 0 10 -204800
-1 -1 2000 1;
#X obj 285 117 vsl 10 70 0 1 0 1 empty empty l 2 4 0 10 -204786 -1
-1 2125 1;
#X obj 389 117 vsl 10 70 0 1 0 1 empty empty l 2 4 0 10 -204800 -1
-1 6500 1;
#X obj 301 192 nbx 4 14 0.25 16 0 1 empty empty empty 0 -8 0 10 -262130
-1 -1 0.5 256;
#X obj 105 207 hsl 60 10 0 1 0 1 empty empty dt 0 6 0 10 -228856 -1
-1 2080 1;
#X obj 165 784 *~;
#X obj 223 783 *~;
#X obj 195 850 *~ 0.25;
#X obj 309 785 *~;
#X obj 234 308 f;
#X obj -370 96 clip 0 1;
#X obj -434 70 inlet;
#X text -433 48 pitch;
#X obj -369 39 inlet;
#X text -330 41 gate;
#X obj -435 136 pack 0 0;
#X obj -457 198 pack 0 0 0;
#X obj -213 361 +;
#X obj -292 114 - 8192;
#X obj -292 159 clip -1 1;
#X obj -292 138 / 8192;
#X obj -247 332 int;
#X obj -290 188 * 2;
#X text -261 189 bend range;
#X obj -225 304 unpack 0 0;
#X obj -286 248 t b f;
#X obj -282 59 inlet;
#X text -276 40 bend;
#X obj -264 446 +;
#X obj -278 423 int;
#X obj -256 395 unpack 0 0;
#X obj -287 545 +;
#X obj -321 516 int;
#X obj -299 488 unpack 0 0;
#X obj -369 64 / 128;
#X obj -173 89 t b;
#N canvas 209 182 1549 845 tri_ops4_frequency_modulation_synthesizer_voice
0;
#X obj -415 34 inlet;
#X obj -424 293 mtof;
#X obj -299 26 inlet;
#X obj 344 306 *;
#X obj 343 355 * 10000;
#X obj 345 332 *;
#X obj -292 61 clip 0 1;
#X obj 393 273 *;
#X obj 392 322 * 10000;
#X obj 394 299 *;
#X obj 441 295 *;
#X obj 440 344 * 10000;
#X obj 442 321 *;
#X text -414 10 pitch;
#X obj -16 922 *~;
#X obj -14 951 outlet~;
#X text -296 13 gate;
#X obj 345 435 line~;
#X msg 346 412 \$1 1.6;
#X obj 66 233 *;
#X obj -18 492 *;
#X obj -215 388 *;
#X obj -27 516 *;
#X obj 102 240 *;
#X obj 86 291 * 10000;
#X obj 88 268 *;
#X obj 137 261 *;
#X obj 136 310 * 10000;
#X obj 138 287 *;
#X obj 187 272 *;
#X obj 186 321 * 10000;
#X obj 188 298 *;
#X obj 125 405 line~;
#X msg 126 382 \$1 1.6;
#X obj -63 878 abs_fm_op1;
#X obj -87 821 *~;
#X obj -203 553 *~;
#X obj -208 437 abs_fm_op1;
#X obj 104 427 *~;
#X obj 326 461 *~;
#X obj 253 293 *;
#X obj -63 558 *;
#X obj -259 153 / 128;
#X obj -260 184 *;
#X obj -61 599 +;
#X obj 556 482 *;
#X obj 560 536 * 10000;
#X obj 562 513 *;
#X obj 621 492 *;
#X obj 620 541 * 10000;
#X obj 622 518 *;
#X obj 669 514 *;
#X obj 668 563 * 10000;
#X obj 670 540 *;
#X obj 563 667 line~;
#X msg 564 644 \$1 1.6;
#X obj 287 401 *;
#X obj 268 440 *;
#X obj 224 728 abs_fm_op1;
#X obj 194 626 *~;
#X obj 544 693 *~;
#X obj 345 532 *;
#X obj 231 497 *;
#X obj 243 520 +;
#X obj 234 768 *~;
#X obj 169 644 *;
#X obj 29 473 *;
#X obj 20 508 *;
#X obj -58 830 *~;
#X obj -21 589 *;
#X obj -19 630 +;
#X obj 151 445 t b f;
#X obj -55 626 +;
#X obj -6 655 +;
#X obj 242 547 +;
#X text 466 439 fb mod;
#X text 197 449 fma mod;
#X obj 429 438 t b f;
#X obj -111 385 +;
#X obj 31 757 +;
#X obj 362 661 +;
#X obj -356 307 +;
#X obj -327 307 +;
#X obj -357 341 mtof;
#X obj -317 339 mtof;
#X obj -286 279 * -1;
#X obj -210 153 *;
#X obj -226 201 * 0.5;
#X obj 575 616 abs_adsr2m;
#X obj 344 393 abs_adsr2m;
#X obj 132 361 abs_adsr2m;
#X text -395 -8 3op fm voice;
#X obj 30 28 inlet;
#X obj 359 -24 inlet;
#X obj 27 53 t f f;
#X text 31 10 fb1;
#X obj 74 28 inlet;
#X obj 71 53 t f f;
#X text 75 10 fb2;
#X obj 114 26 inlet;
#X obj 111 51 t f f;
#X text 119 8 fb3;
#X obj 167 24 inlet;
#X obj 211 24 inlet;
#X obj 251 22 inlet;
#X text 254 3 fm3;
#X text 215 3 fm2;
#X text 174 7 fm1;
#X obj 165 50 t f f;
#X obj 209 50 t f f;
#X obj 249 48 t f f;
#X obj -222 50 inlet;
#X text -224 29 detune;
#X obj -96 30 inlet;
#X obj -21 22 inlet;
#X text -97 9 rat1;
#X text -19 3 rat2;
#X obj -276 658 outlet~;
#X obj 236 819 outlet~;
#X obj -217 87 t b f f;
#X obj 250 466 t b f;
#X obj 10 543 t b f;
#X obj -33 536 t b f;
#X obj -112 117 t b f;
#X obj -18 128 t b f;
#N canvas 1 77 450 300 opwaveformselect 0;
#X obj 144 76 inlet;
#X obj 130 115 select 0 1 2 3 4;
#X msg 80 136 0 1 0 1 1 0;
#X msg 100 161 0.5 1.5 0 2 1 0;
#X msg 136 211 0 0.5 0.75 1 2 1;
#X msg 115 189 0 0.5 0.75 0.5 2 1;
#X msg 174 231 0.5 1 0 1 1 0;
#X obj 107 270 outlet;
#X text 160 270 waveform parameters;
#X text 188 75 int 0..4 (sine \, ...);
#X connect 0 0 1 0;
#X connect 1 0 2 0;
#X connect 1 1 3 0;
#X connect 1 2 5 0;
#X connect 1 3 4 0;
#X connect 1 4 6 0;
#X connect 2 0 7 0;
#X connect 3 0 7 0;
#X connect 4 0 7 0;
#X connect 5 0 7 0;
#X connect 6 0 7 0;
#X restore -150 336 pd opwaveformselect;
#N canvas 1 77 450 300 opwaveformselect 0;
#X obj 144 76 inlet;
#X obj 130 115 select 0 1 2 3 4;
#X msg 80 136 0 1 0 1 1 0;
#X msg 100 161 0.5 1.5 0 2 1 0;
#X msg 136 211 0 0.5 0.75 1 2 1;
#X msg 115 189 0 0.5 0.75 0.5 2 1;
#X msg 174 231 0.5 1 0 1 1 0;
#X obj 107 270 outlet;
#X text 160 270 waveform parameters;
#X text 188 75 int 0..4 (sine \, ...);
#X connect 0 0 1 0;
#X connect 1 0 2 0;
#X connect 1 1 3 0;
#X connect 1 2 5 0;
#X connect 1 3 4 0;
#X connect 1 4 6 0;
#X connect 2 0 7 0;
#X connect 3 0 7 0;
#X connect 4 0 7 0;
#X connect 5 0 7 0;
#X connect 6 0 7 0;
#X restore -23 835 pd opwaveformselect;
#N canvas 1 77 450 300 opwaveformselect 0;
#X obj 144 76 inlet;
#X obj 130 115 select 0 1 2 3 4;
#X msg 80 136 0 1 0 1 1 0;
#X msg 100 161 0.5 1.5 0 2 1 0;
#X msg 136 211 0 0.5 0.75 1 2 1;
#X msg 115 189 0 0.5 0.75 0.5 2 1;
#X msg 174 231 0.5 1 0 1 1 0;
#X obj 107 270 outlet;
#X text 160 270 waveform parameters;
#X text 188 75 int 0..4 (sine \, ...);
#X connect 0 0 1 0;
#X connect 1 0 2 0;
#X connect 1 1 3 0;
#X connect 1 2 5 0;
#X connect 1 3 4 0;
#X connect 1 4 6 0;
#X connect 2 0 7 0;
#X connect 3 0 7 0;
#X connect 4 0 7 0;
#X connect 5 0 7 0;
#X connect 6 0 7 0;
#X restore 277 625 pd opwaveformselect;
#X text -162 858 operator 3;
#X text 303 724 operator 2;
#X text -309 -6 op1->op2 \, op2+op1->op3;
#X text -225 474 operatoor1;
#X obj 216 600 clip~ 0 1;
#X obj 205 565 sig~;
#X obj -79 768 sig~;
#X obj -35 758 sig~;
#X obj 658 6 inlet;
#X obj 558 185 *;
#X obj 722 2 inlet;
#X obj 710 139 *;
#X text 726 -14 fb mod;
#X text 662 -10 fma mod;
#X obj 714 163 *;
#X obj 574 148 / 2;
#N canvas 1 77 1085 696 msg_lfo 0;
#X obj 52 -61 metro 5;
#X obj 51 -29 float;
#X obj 78 17 + 1;
#X obj 108 17 / 200;
#X obj 93 -15 wrap;
#X obj 54 62 cos;
#X obj 54 38 * 6.28319;
#X obj 78 176 outlet;
#X obj 194 -85 inlet;
#X obj 51 -116 loadbang;
#X msg 50 -87 bang;
#X text 208 -113 freq;
#X connect 0 0 1 0;
#X connect 1 0 2 0;
#X connect 2 0 4 0;
#X connect 2 0 6 0;
#X connect 3 0 2 1;
#X connect 4 0 1 1;
#X connect 5 0 7 0;
#X connect 6 0 5 0;
#X connect 8 0 3 0;
#X connect 9 0 10 0;
#X connect 10 0 0 0;
#X restore 558 37 pd msg_lfo;
#X obj 575 118 +;
#X obj 560 90 t b f;
#X obj 357 1 unpack f f f f f f f f f f f f f f f f f f f;
#X obj 573 63 *;
#X obj 669 72 *;
#X obj 720 107 +;
#X obj 705 79 t b f;
#X text 404 -29 3x adsr \, 3x waveform \, keytrack \, lfo freq \, fm-amt
\, fb-amt;
#X obj 713 210 * 0.25;
#X obj 350 683 clip 0 0.25;
#X obj 19 779 clip 0 0.25;
#X obj -123 407 clip 0 0.25;
#X connect 0 0 1 0;
#X connect 0 0 42 0;
#X connect 0 0 81 0;
#X connect 0 0 82 0;
#X connect 1 0 34 0;
#X connect 2 0 6 0;
#X connect 3 0 5 1;
#X connect 3 0 5 0;
#X connect 4 0 89 1;
#X connect 5 0 4 0;
#X connect 6 0 89 0;
#X connect 6 0 90 0;
#X connect 6 0 88 0;
#X connect 7 0 9 1;
#X connect 7 0 9 0;
#X connect 8 0 89 2;
#X connect 9 0 8 0;
#X connect 10 0 12 1;
#X connect 10 0 12 0;
#X connect 11 0 89 4;
#X connect 12 0 11 0;
#X connect 14 0 15 0;
#X connect 17 0 39 0;
#X connect 17 0 39 1;
#X connect 18 0 17 0;
#X connect 19 0 78 0;
#X connect 20 0 22 1;
#X connect 20 0 22 0;
#X connect 21 0 37 0;
#X connect 22 0 122 0;
#X connect 23 0 25 1;
#X connect 23 0 25 0;
#X connect 24 0 90 1;
#X connect 25 0 24 0;
#X connect 26 0 28 1;
#X connect 26 0 28 0;
#X connect 27 0 90 2;
#X connect 28 0 27 0;
#X connect 29 0 31 1;
#X connect 29 0 31 0;
#X connect 30 0 90 4;
#X connect 31 0 30 0;
#X connect 32 0 38 0;
#X connect 32 0 38 1;
#X connect 33 0 32 0;
#X connect 34 0 14 0;
#X connect 35 0 34 1;
#X connect 36 0 35 0;
#X connect 36 0 59 0;
#X connect 36 0 117 0;
#X connect 37 0 36 0;
#X connect 38 0 36 1;
#X connect 39 0 14 1;
#X connect 40 0 79 0;
#X connect 41 0 44 0;
#X connect 42 0 43 0;
#X connect 43 0 41 0;
#X connect 43 0 62 0;
#X connect 43 0 69 0;
#X connect 44 0 72 0;
#X connect 45 0 47 1;
#X connect 45 0 47 0;
#X connect 46 0 88 1;
#X connect 47 0 46 0;
#X connect 48 0 50 1;
#X connect 48 0 50 0;
#X connect 49 0 88 2;
#X connect 50 0 49 0;
#X connect 51 0 53 1;
#X connect 51 0 53 0;
#X connect 52 0 88 4;
#X connect 53 0 52 0;
#X connect 54 0 60 0;
#X connect 54 0 60 1;
#X connect 55 0 54 0;
#X connect 56 0 57 1;
#X connect 56 0 57 0;
#X connect 57 0 120 0;
#X connect 58 0 64 0;
#X connect 59 0 58 1;
#X connect 60 0 64 1;
#X connect 61 0 80 0;
#X connect 62 0 63 0;
#X connect 63 0 74 0;
#X connect 64 0 68 0;
#X connect 64 0 118 0;
#X connect 65 0 58 0;
#X connect 66 0 67 1;
#X connect 66 0 67 0;
#X connect 67 0 121 0;
#X connect 68 0 34 1;
#X connect 69 0 70 0;
#X connect 70 0 73 0;
#X connect 71 0 72 0;
#X connect 71 0 73 0;
#X connect 71 0 74 0;
#X connect 71 1 72 1;
#X connect 71 1 73 1;
#X connect 71 1 74 1;
#X connect 72 0 134 0;
#X connect 73 0 135 0;
#X connect 74 0 133 0;
#X connect 77 0 78 0;
#X connect 77 0 79 0;
#X connect 77 0 80 0;
#X connect 77 1 78 1;
#X connect 77 1 79 1;
#X connect 77 1 80 1;
#X connect 78 0 156 0;
#X connect 79 0 155 0;
#X connect 80 0 154 0;
#X connect 81 0 83 0;
#X connect 82 0 84 0;
#X connect 83 0 65 0;
#X connect 84 0 21 0;
#X connect 85 0 82 1;
#X connect 86 0 87 0;
#X connect 87 0 85 0;
#X connect 87 0 81 1;
#X connect 88 0 55 0;
#X connect 89 0 18 0;
#X connect 90 0 33 0;
#X connect 92 0 94 0;
#X connect 93 0 147 0;
#X connect 94 0 19 0;
#X connect 94 1 19 1;
#X connect 96 0 97 0;
#X connect 97 0 61 0;
#X connect 97 1 61 1;
#X connect 99 0 100 0;
#X connect 100 0 40 0;
#X connect 100 1 40 1;
#X connect 102 0 108 0;
#X connect 103 0 109 0;
#X connect 104 0 110 0;
#X connect 108 0 20 0;
#X connect 108 1 20 1;
#X connect 109 0 66 0;
#X connect 109 1 66 1;
#X connect 110 0 56 0;
#X connect 110 1 56 1;
#X connect 111 0 119 0;
#X connect 113 0 123 0;
#X connect 114 0 124 0;
#X connect 119 0 82 0;
#X connect 119 0 81 0;
#X connect 119 1 86 0;
#X connect 119 2 86 1;
#X connect 120 0 62 0;
#X connect 120 1 63 1;
#X connect 120 1 62 1;
#X connect 121 0 69 0;
#X connect 121 1 70 1;
#X connect 121 1 69 1;
#X connect 122 0 41 0;
#X connect 122 1 44 1;
#X connect 122 1 41 1;
#X connect 123 0 21 0;
#X connect 123 1 21 1;
#X connect 124 0 65 0;
#X connect 124 1 65 1;
#X connect 125 0 37 2;
#X connect 126 0 34 2;
#X connect 127 0 58 2;
#X connect 132 0 59 1;
#X connect 133 0 132 0;
#X connect 134 0 35 1;
#X connect 135 0 68 1;
#X connect 136 0 145 0;
#X connect 137 0 71 0;
#X connect 138 0 151 0;
#X connect 139 0 142 1;
#X connect 139 0 142 0;
#X connect 142 0 153 0;
#X connect 143 0 137 1;
#X connect 143 0 137 0;
#X connect 144 0 148 0;
#X connect 144 0 149 0;
#X connect 145 0 143 0;
#X connect 146 0 145 0;
#X connect 146 1 145 1;
#X connect 147 0 23 1;
#X connect 147 0 23 0;
#X connect 147 1 26 1;
#X connect 147 1 26 0;
#X connect 147 2 90 3;
#X connect 147 3 29 1;
#X connect 147 3 29 0;
#X connect 147 4 45 1;
#X connect 147 4 45 0;
#X connect 147 5 48 1;
#X connect 147 5 48 0;
#X connect 147 6 88 3;
#X connect 147 7 51 1;
#X connect 147 7 51 0;
#X connect 147 8 3 1;
#X connect 147 8 3 0;
#X connect 147 9 7 1;
#X connect 147 9 7 0;
#X connect 147 10 89 3;
#X connect 147 11 10 1;
#X connect 147 11 10 0;
#X connect 147 12 125 0;
#X connect 147 13 127 0;
#X connect 147 14 126 0;
#X connect 147 15 43 1;
#X connect 147 16 144 0;
#X connect 147 17 148 1;
#X connect 147 18 149 1;
#X connect 148 0 146 0;
#X connect 149 0 150 0;
#X connect 150 0 139 1;
#X connect 150 0 139 0;
#X connect 151 0 150 0;
#X connect 151 1 150 1;
#X connect 153 0 77 0;
#X connect 154 0 58 3;
#X connect 155 0 34 3;
#X connect 156 0 37 3;
#X restore -181 386 pd tri_ops4_frequency_modulation_synthesizer_voice
;
#X text -592 -101 3op fm synth;
#X obj 343 117 vsl 10 70 0 1 0 1 empty empty fm 0 4 0 10 -204786 -1
-1 4550 1;
#X obj 401 117 vsl 10 70 0 1 0 1 empty empty fm 0 4 0 10 -204786 -1
-1 4500 1;
#X obj 413 117 vsl 10 70 0 1 0 1 empty empty fm 0 4 0 10 -262130 -1
-1 5150 1;
#X obj -86 90 inlet;
#X obj -5 147 inlet;
#X text -1 131 fb mod;
#X text -82 74 fma mod;
#X obj -98 202 / 128;
#X obj -459 225 route 1 2 3 4;
#N canvas 219 187 1549 845 tri_ops4_frequency_modulation_synthesizer_voice
0;
#X obj -415 34 inlet;
#X obj -424 293 mtof;
#X obj -299 26 inlet;
#X obj 344 306 *;
#X obj 343 355 * 10000;
#X obj 345 332 *;
#X obj -292 61 clip 0 1;
#X obj 393 273 *;
#X obj 392 322 * 10000;
#X obj 394 299 *;
#X obj 441 295 *;
#X obj 440 344 * 10000;
#X obj 442 321 *;
#X text -414 10 pitch;
#X obj -16 922 *~;
#X obj -14 951 outlet~;
#X text -296 13 gate;
#X obj 345 435 line~;
#X msg 346 412 \$1 1.6;
#X obj 66 233 *;
#X obj -18 492 *;
#X obj -215 388 *;
#X obj -27 516 *;
#X obj 102 240 *;
#X obj 86 291 * 10000;
#X obj 88 268 *;
#X obj 137 261 *;
#X obj 136 310 * 10000;
#X obj 138 287 *;
#X obj 187 272 *;
#X obj 186 321 * 10000;
#X obj 188 298 *;
#X obj 125 405 line~;
#X msg 126 382 \$1 1.6;
#X obj -63 878 abs_fm_op1;
#X obj -87 821 *~;
#X obj -203 553 *~;
#X obj -208 437 abs_fm_op1;
#X obj 104 427 *~;
#X obj 326 461 *~;
#X obj 253 293 *;
#X obj -63 558 *;
#X obj -259 153 / 128;
#X obj -260 184 *;
#X obj -61 599 +;
#X obj 556 482 *;
#X obj 560 536 * 10000;
#X obj 562 513 *;
#X obj 621 492 *;
#X obj 620 541 * 10000;
#X obj 622 518 *;
#X obj 669 514 *;
#X obj 668 563 * 10000;
#X obj 670 540 *;
#X obj 563 667 line~;
#X msg 564 644 \$1 1.6;
#X obj 287 401 *;
#X obj 268 440 *;
#X obj 224 728 abs_fm_op1;
#X obj 194 626 *~;
#X obj 544 693 *~;
#X obj 345 532 *;
#X obj 231 497 *;
#X obj 243 520 +;
#X obj 234 768 *~;
#X obj 169 644 *;
#X obj 29 473 *;
#X obj 20 508 *;
#X obj -58 830 *~;
#X obj -21 589 *;
#X obj -19 630 +;
#X obj 151 445 t b f;
#X obj -55 626 +;
#X obj -6 655 +;
#X obj 242 547 +;
#X text 466 439 fb mod;
#X text 197 449 fma mod;
#X obj 429 438 t b f;
#X obj -111 385 +;
#X obj 31 757 +;
#X obj 362 661 +;
#X obj -356 307 +;
#X obj -327 307 +;
#X obj -357 341 mtof;
#X obj -317 339 mtof;
#X obj -286 279 * -1;
#X obj -210 153 *;
#X obj -226 201 * 0.5;
#X obj 575 616 abs_adsr2m;
#X obj 344 393 abs_adsr2m;
#X obj 132 361 abs_adsr2m;
#X text -395 -8 3op fm voice;
#X obj 30 28 inlet;
#X obj 359 -24 inlet;
#X obj 27 53 t f f;
#X text 31 10 fb1;
#X obj 74 28 inlet;
#X obj 71 53 t f f;
#X text 75 10 fb2;
#X obj 114 26 inlet;
#X obj 111 51 t f f;
#X text 119 8 fb3;
#X obj 167 24 inlet;
#X obj 211 24 inlet;
#X obj 251 22 inlet;
#X text 254 3 fm3;
#X text 215 3 fm2;
#X text 174 7 fm1;
#X obj 165 50 t f f;
#X obj 209 50 t f f;
#X obj 249 48 t f f;
#X obj -222 50 inlet;
#X text -224 29 detune;
#X obj -96 30 inlet;
#X obj -21 22 inlet;
#X text -97 9 rat1;
#X text -19 3 rat2;
#X obj -276 658 outlet~;
#X obj 236 819 outlet~;
#X obj -217 87 t b f f;
#X obj 250 466 t b f;
#X obj 10 543 t b f;
#X obj -33 536 t b f;
#X obj -112 117 t b f;
#X obj -18 128 t b f;
#N canvas 1 77 450 300 opwaveformselect 0;
#X obj 144 76 inlet;
#X obj 130 115 select 0 1 2 3 4;
#X msg 80 136 0 1 0 1 1 0;
#X msg 100 161 0.5 1.5 0 2 1 0;
#X msg 136 211 0 0.5 0.75 1 2 1;
#X msg 115 189 0 0.5 0.75 0.5 2 1;
#X msg 174 231 0.5 1 0 1 1 0;
#X obj 107 270 outlet;
#X text 160 270 waveform parameters;
#X text 188 75 int 0..4 (sine \, ...);
#X connect 0 0 1 0;
#X connect 1 0 2 0;
#X connect 1 1 3 0;
#X connect 1 2 5 0;
#X connect 1 3 4 0;
#X connect 1 4 6 0;
#X connect 2 0 7 0;
#X connect 3 0 7 0;
#X connect 4 0 7 0;
#X connect 5 0 7 0;
#X connect 6 0 7 0;
#X restore -150 336 pd opwaveformselect;
#N canvas 1 77 450 300 opwaveformselect 0;
#X obj 144 76 inlet;
#X obj 130 115 select 0 1 2 3 4;
#X msg 80 136 0 1 0 1 1 0;
#X msg 100 161 0.5 1.5 0 2 1 0;
#X msg 136 211 0 0.5 0.75 1 2 1;
#X msg 115 189 0 0.5 0.75 0.5 2 1;
#X msg 174 231 0.5 1 0 1 1 0;
#X obj 107 270 outlet;
#X text 160 270 waveform parameters;
#X text 188 75 int 0..4 (sine \, ...);
#X connect 0 0 1 0;
#X connect 1 0 2 0;
#X connect 1 1 3 0;
#X connect 1 2 5 0;
#X connect 1 3 4 0;
#X connect 1 4 6 0;
#X connect 2 0 7 0;
#X connect 3 0 7 0;
#X connect 4 0 7 0;
#X connect 5 0 7 0;
#X connect 6 0 7 0;
#X restore -23 835 pd opwaveformselect;
#N canvas 1 77 450 300 opwaveformselect 0;
#X obj 144 76 inlet;
#X obj 130 115 select 0 1 2 3 4;
#X msg 80 136 0 1 0 1 1 0;
#X msg 100 161 0.5 1.5 0 2 1 0;
#X msg 136 211 0 0.5 0.75 1 2 1;
#X msg 115 189 0 0.5 0.75 0.5 2 1;
#X msg 174 231 0.5 1 0 1 1 0;
#X obj 107 270 outlet;
#X text 160 270 waveform parameters;
#X text 188 75 int 0..4 (sine \, ...);
#X connect 0 0 1 0;
#X connect 1 0 2 0;
#X connect 1 1 3 0;
#X connect 1 2 5 0;
#X connect 1 3 4 0;
#X connect 1 4 6 0;
#X connect 2 0 7 0;
#X connect 3 0 7 0;
#X connect 4 0 7 0;
#X connect 5 0 7 0;
#X connect 6 0 7 0;
#X restore 277 625 pd opwaveformselect;
#X text -162 858 operator 3;
#X text 303 724 operator 2;
#X text -309 -6 op1->op2 \, op2+op1->op3;
#X text -225 474 operatoor1;
#X obj 216 600 clip~ 0 1;
#X obj 205 565 sig~;
#X obj -79 768 sig~;
#X obj -35 758 sig~;
#X obj 658 6 inlet;
#X obj 575 190 *;
#X obj 722 2 inlet;
#X obj 685 215 *;
#X text 726 -14 fb mod;
#X text 662 -10 fma mod;
#X obj 689 239 *;
#X obj 592 157 / 2;
#N canvas 1 77 1085 696 msg_lfo 0;
#X obj 52 -61 metro 5;
#X obj 51 -29 float;
#X obj 78 17 + 1;
#X obj 108 17 / 200;
#X obj 93 -15 wrap;
#X obj 54 62 cos;
#X obj 54 38 * 6.28319;
#X obj 60 147 outlet;
#X obj 194 -85 inlet;
#X obj 51 -116 loadbang;
#X msg 50 -87 bang;
#X text 208 -113 freq;
#X connect 0 0 1 0;
#X connect 1 0 2 0;
#X connect 2 0 4 0;
#X connect 2 0 6 0;
#X connect 3 0 2 1;
#X connect 4 0 1 1;
#X connect 5 0 7 0;
#X connect 6 0 5 0;
#X connect 8 0 3 0;
#X connect 9 0 10 0;
#X connect 10 0 0 0;
#X restore 558 37 pd msg_lfo;
#X obj 589 121 +;
#X obj 574 93 t b f;
#X obj 357 1 unpack f f f f f f f f f f f f f f f f f f f;
#X obj 573 63 *;
#X obj 669 72 *;
#X obj 720 127 +;
#X obj 714 95 t b f;
#X text 404 -29 3x adsr \, 3x waveform \, keytrack \, lfo freq \, fm-amt
\, fb-amt;
#X obj 678 298 * 0.25;
#X obj 350 683 clip 0 0.25;
#X obj 19 779 clip 0 0.25;
#X obj -123 407 clip 0 0.25;
#X connect 0 0 1 0;
#X connect 0 0 42 0;
#X connect 0 0 81 0;
#X connect 0 0 82 0;
#X connect 1 0 34 0;
#X connect 2 0 6 0;
#X connect 3 0 5 1;
#X connect 3 0 5 0;
#X connect 4 0 89 1;
#X connect 5 0 4 0;
#X connect 6 0 89 0;
#X connect 6 0 90 0;
#X connect 6 0 88 0;
#X connect 7 0 9 1;
#X connect 7 0 9 0;
#X connect 8 0 89 2;
#X connect 9 0 8 0;
#X connect 10 0 12 1;
#X connect 10 0 12 0;
#X connect 11 0 89 4;
#X connect 12 0 11 0;
#X connect 14 0 15 0;
#X connect 17 0 39 0;
#X connect 17 0 39 1;
#X connect 18 0 17 0;
#X connect 19 0 78 0;
#X connect 20 0 22 1;
#X connect 20 0 22 0;
#X connect 21 0 37 0;
#X connect 22 0 122 0;
#X connect 23 0 25 1;
#X connect 23 0 25 0;
#X connect 24 0 90 1;
#X connect 25 0 24 0;
#X connect 26 0 28 1;
#X connect 26 0 28 0;
#X connect 27 0 90 2;
#X connect 28 0 27 0;
#X connect 29 0 31 1;
#X connect 29 0 31 0;
#X connect 30 0 90 4;
#X connect 31 0 30 0;
#X connect 32 0 38 0;
#X connect 32 0 38 1;
#X connect 33 0 32 0;
#X connect 34 0 14 0;
#X connect 35 0 34 1;
#X connect 36 0 35 0;
#X connect 36 0 59 0;
#X connect 36 0 117 0;
#X connect 37 0 36 0;
#X connect 38 0 36 1;
#X connect 39 0 14 1;
#X connect 40 0 79 0;
#X connect 41 0 44 0;
#X connect 42 0 43 0;
#X connect 43 0 41 0;
#X connect 43 0 62 0;
#X connect 43 0 69 0;
#X connect 44 0 72 0;
#X connect 45 0 47 1;
#X connect 45 0 47 0;
#X connect 46 0 88 1;
#X connect 47 0 46 0;
#X connect 48 0 50 1;
#X connect 48 0 50 0;
#X connect 49 0 88 2;
#X connect 50 0 49 0;
#X connect 51 0 53 1;
#X connect 51 0 53 0;
#X connect 52 0 88 4;
#X connect 53 0 52 0;
#X connect 54 0 60 0;
#X connect 54 0 60 1;
#X connect 55 0 54 0;
#X connect 56 0 57 1;
#X connect 56 0 57 0;
#X connect 57 0 120 0;
#X connect 58 0 64 0;
#X connect 59 0 58 1;
#X connect 60 0 64 1;
#X connect 61 0 80 0;
#X connect 62 0 63 0;
#X connect 63 0 74 0;
#X connect 64 0 68 0;
#X connect 64 0 118 0;
#X connect 65 0 58 0;
#X connect 66 0 67 1;
#X connect 66 0 67 0;
#X connect 67 0 121 0;
#X connect 68 0 34 1;
#X connect 69 0 70 0;
#X connect 70 0 73 0;
#X connect 71 0 72 0;
#X connect 71 0 73 0;
#X connect 71 0 74 0;
#X connect 71 1 72 1;
#X connect 71 1 73 1;
#X connect 71 1 74 1;
#X connect 72 0 134 0;
#X connect 73 0 135 0;
#X connect 74 0 133 0;
#X connect 77 0 78 0;
#X connect 77 0 79 0;
#X connect 77 0 80 0;
#X connect 77 1 78 1;
#X connect 77 1 79 1;
#X connect 77 1 80 1;
#X connect 78 0 156 0;
#X connect 79 0 155 0;
#X connect 80 0 154 0;
#X connect 81 0 83 0;
#X connect 82 0 84 0;
#X connect 83 0 65 0;
#X connect 84 0 21 0;
#X connect 85 0 82 1;
#X connect 86 0 87 0;
#X connect 87 0 85 0;
#X connect 87 0 81 1;
#X connect 88 0 55 0;
#X connect 89 0 18 0;
#X connect 90 0 33 0;
#X connect 92 0 94 0;
#X connect 93 0 147 0;
#X connect 94 0 19 0;
#X connect 94 1 19 1;
#X connect 96 0 97 0;
#X connect 97 0 61 0;
#X connect 97 1 61 1;
#X connect 99 0 100 0;
#X connect 100 0 40 0;
#X connect 100 1 40 1;
#X connect 102 0 108 0;
#X connect 103 0 109 0;
#X connect 104 0 110 0;
#X connect 108 0 20 0;
#X connect 108 1 20 1;
#X connect 109 0 66 0;
#X connect 109 1 66 1;
#X connect 110 0 56 0;
#X connect 110 1 56 1;
#X connect 111 0 119 0;
#X connect 113 0 123 0;
#X connect 114 0 124 0;
#X connect 119 0 82 0;
#X connect 119 0 81 0;
#X connect 119 1 86 0;
#X connect 119 2 86 1;
#X connect 120 0 62 0;
#X connect 120 1 63 1;
#X connect 120 1 62 1;
#X connect 121 0 69 0;
#X connect 121 1 70 1;
#X connect 121 1 69 1;
#X connect 122 0 41 0;
#X connect 122 1 44 1;
#X connect 122 1 41 1;
#X connect 123 0 21 0;
#X connect 123 1 21 1;
#X connect 124 0 65 0;
#X connect 124 1 65 1;
#X connect 125 0 37 2;
#X connect 126 0 34 2;
#X connect 127 0 58 2;
#X connect 132 0 59 1;
#X connect 133 0 132 0;
#X connect 134 0 35 1;
#X connect 135 0 68 1;
#X connect 136 0 145 0;
#X connect 137 0 71 0;
#X connect 138 0 151 0;
#X connect 139 0 142 1;
#X connect 139 0 142 0;
#X connect 142 0 153 0;
#X connect 143 0 137 1;
#X connect 143 0 137 0;
#X connect 144 0 148 0;
#X connect 144 0 149 0;
#X connect 145 0 143 0;
#X connect 146 0 145 0;
#X connect 146 1 145 1;
#X connect 147 0 23 1;
#X connect 147 0 23 0;
#X connect 147 1 26 1;
#X connect 147 1 26 0;
#X connect 147 2 90 3;
#X connect 147 3 29 1;
#X connect 147 3 29 0;
#X connect 147 4 45 1;
#X connect 147 4 45 0;
#X connect 147 5 48 1;
#X connect 147 5 48 0;
#X connect 147 6 88 3;
#X connect 147 7 51 1;
#X connect 147 7 51 0;
#X connect 147 8 3 1;
#X connect 147 8 3 0;
#X connect 147 9 7 1;
#X connect 147 9 7 0;
#X connect 147 10 89 3;
#X connect 147 11 10 1;
#X connect 147 11 10 0;
#X connect 147 12 125 0;
#X connect 147 13 127 0;
#X connect 147 14 126 0;
#X connect 147 15 43 1;
#X connect 147 16 144 0;
#X connect 147 17 148 1;
#X connect 147 18 149 1;
#X connect 148 0 146 0;
#X connect 149 0 150 0;
#X connect 150 0 139 1;
#X connect 150 0 139 0;
#X connect 151 0 150 0;
#X connect 151 1 150 1;
#X connect 153 0 77 0;
#X connect 154 0 58 3;
#X connect 155 0 34 3;
#X connect 156 0 37 3;
#X restore -217 471 pd tri_ops4_frequency_modulation_synthesizer_voice
;
#N canvas 215 185 1549 845 tri_ops4_frequency_modulation_synthesizer_voice
0;
#X obj -415 34 inlet;
#X obj -424 293 mtof;
#X obj -299 26 inlet;
#X obj 344 306 *;
#X obj 343 355 * 10000;
#X obj 345 332 *;
#X obj -292 61 clip 0 1;
#X obj 393 273 *;
#X obj 392 322 * 10000;
#X obj 394 299 *;
#X obj 441 295 *;
#X obj 440 344 * 10000;
#X obj 442 321 *;
#X text -414 10 pitch;
#X obj -16 922 *~;
#X obj -14 951 outlet~;
#X text -296 13 gate;
#X obj 345 435 line~;
#X msg 346 412 \$1 1.6;
#X obj 66 233 *;
#X obj -18 492 *;
#X obj -215 388 *;
#X obj -27 516 *;
#X obj 102 240 *;
#X obj 86 291 * 10000;
#X obj 88 268 *;
#X obj 137 261 *;
#X obj 136 310 * 10000;
#X obj 138 287 *;
#X obj 187 272 *;
#X obj 186 321 * 10000;
#X obj 188 298 *;
#X obj 125 405 line~;
#X msg 126 382 \$1 1.6;
#X obj -63 878 abs_fm_op1;
#X obj -87 821 *~;
#X obj -203 553 *~;
#X obj -208 437 abs_fm_op1;
#X obj 104 427 *~;
#X obj 326 461 *~;
#X obj 253 293 *;
#X obj -63 558 *;
#X obj -259 153 / 128;
#X obj -260 184 *;
#X obj -61 599 +;
#X obj 556 482 *;
#X obj 560 536 * 10000;
#X obj 562 513 *;
#X obj 621 492 *;
#X obj 620 541 * 10000;
#X obj 622 518 *;
#X obj 669 514 *;
#X obj 668 563 * 10000;
#X obj 670 540 *;
#X obj 563 667 line~;
#X msg 564 644 \$1 1.6;
#X obj 287 401 *;
#X obj 268 440 *;
#X obj 224 728 abs_fm_op1;
#X obj 194 626 *~;
#X obj 544 693 *~;
#X obj 345 532 *;
#X obj 231 497 *;
#X obj 243 520 +;
#X obj 234 768 *~;
#X obj 169 644 *;
#X obj 29 473 *;
#X obj 20 508 *;
#X obj -58 830 *~;
#X obj -21 589 *;
#X obj -19 630 +;
#X obj 151 445 t b f;
#X obj -55 626 +;
#X obj -6 655 +;
#X obj 242 547 +;
#X text 466 439 fb mod;
#X text 197 449 fma mod;
#X obj 429 438 t b f;
#X obj -111 385 +;
#X obj 31 757 +;
#X obj 362 661 +;
#X obj -356 307 +;
#X obj -327 307 +;
#X obj -357 341 mtof;
#X obj -317 339 mtof;
#X obj -286 279 * -1;
#X obj -210 153 *;
#X obj -226 201 * 0.5;
#X obj 575 616 abs_adsr2m;
#X obj 344 393 abs_adsr2m;
#X obj 132 361 abs_adsr2m;
#X text -395 -8 3op fm voice;
#X obj 30 28 inlet;
#X obj 359 -24 inlet;
#X obj 27 53 t f f;
#X text 31 10 fb1;
#X obj 74 28 inlet;
#X obj 71 53 t f f;
#X text 75 10 fb2;
#X obj 114 26 inlet;
#X obj 111 51 t f f;
#X text 119 8 fb3;
#X obj 167 24 inlet;
#X obj 211 24 inlet;
#X obj 251 22 inlet;
#X text 254 3 fm3;
#X text 215 3 fm2;
#X text 174 7 fm1;
#X obj 165 50 t f f;
#X obj 209 50 t f f;
#X obj 249 48 t f f;
#X obj -222 50 inlet;
#X text -224 29 detune;
#X obj -96 30 inlet;
#X obj -21 22 inlet;
#X text -97 9 rat1;
#X text -19 3 rat2;
#X obj -276 658 outlet~;
#X obj 236 819 outlet~;
#X obj -217 87 t b f f;
#X obj 250 466 t b f;
#X obj 10 543 t b f;
#X obj -33 536 t b f;
#X obj -112 117 t b f;
#X obj -18 128 t b f;
#N canvas 1 77 450 300 opwaveformselect 0;
#X obj 144 76 inlet;
#X obj 130 115 select 0 1 2 3 4;
#X msg 80 136 0 1 0 1 1 0;
#X msg 100 161 0.5 1.5 0 2 1 0;
#X msg 136 211 0 0.5 0.75 1 2 1;
#X msg 115 189 0 0.5 0.75 0.5 2 1;
#X msg 174 231 0.5 1 0 1 1 0;
#X obj 107 270 outlet;
#X text 160 270 waveform parameters;
#X text 188 75 int 0..4 (sine \, ...);
#X connect 0 0 1 0;
#X connect 1 0 2 0;
#X connect 1 1 3 0;
#X connect 1 2 5 0;
#X connect 1 3 4 0;
#X connect 1 4 6 0;
#X connect 2 0 7 0;
#X connect 3 0 7 0;
#X connect 4 0 7 0;
#X connect 5 0 7 0;
#X connect 6 0 7 0;
#X restore -150 336 pd opwaveformselect;
#N canvas 1 77 450 300 opwaveformselect 0;
#X obj 144 76 inlet;
#X obj 130 115 select 0 1 2 3 4;
#X msg 80 136 0 1 0 1 1 0;
#X msg 100 161 0.5 1.5 0 2 1 0;
#X msg 136 211 0 0.5 0.75 1 2 1;
#X msg 115 189 0 0.5 0.75 0.5 2 1;
#X msg 174 231 0.5 1 0 1 1 0;
#X obj 107 270 outlet;
#X text 160 270 waveform parameters;
#X text 188 75 int 0..4 (sine \, ...);
#X connect 0 0 1 0;
#X connect 1 0 2 0;
#X connect 1 1 3 0;
#X connect 1 2 5 0;
#X connect 1 3 4 0;
#X connect 1 4 6 0;
#X connect 2 0 7 0;
#X connect 3 0 7 0;
#X connect 4 0 7 0;
#X connect 5 0 7 0;
#X connect 6 0 7 0;
#X restore -23 835 pd opwaveformselect;
#N canvas 1 77 450 300 opwaveformselect 0;
#X obj 144 76 inlet;
#X obj 130 115 select 0 1 2 3 4;
#X msg 80 136 0 1 0 1 1 0;
#X msg 100 161 0.5 1.5 0 2 1 0;
#X msg 136 211 0 0.5 0.75 1 2 1;
#X msg 115 189 0 0.5 0.75 0.5 2 1;
#X msg 174 231 0.5 1 0 1 1 0;
#X obj 107 270 outlet;
#X text 160 270 waveform parameters;
#X text 188 75 int 0..4 (sine \, ...);
#X connect 0 0 1 0;
#X connect 1 0 2 0;
#X connect 1 1 3 0;
#X connect 1 2 5 0;
#X connect 1 3 4 0;
#X connect 1 4 6 0;
#X connect 2 0 7 0;
#X connect 3 0 7 0;
#X connect 4 0 7 0;
#X connect 5 0 7 0;
#X connect 6 0 7 0;
#X restore 277 625 pd opwaveformselect;
#X text -162 858 operator 3;
#X text 303 724 operator 2;
#X text -309 -6 op1->op2 \, op2+op1->op3;
#X text -225 474 operatoor1;
#X obj 216 600 clip~ 0 1;
#X obj 205 565 sig~;
#X obj -79 768 sig~;
#X obj -35 758 sig~;
#X obj 658 6 inlet;
#X obj 580 212 *;
#X obj 722 2 inlet;
#X obj 728 180 *;
#X text 726 -14 fb mod;
#X text 662 -10 fma mod;
#X obj 732 204 *;
#X obj 586 165 / 2;
#N canvas 1 77 1085 696 msg_lfo 0;
#X obj 52 -61 metro 5;
#X obj 51 -29 float;
#X obj 78 17 + 1;
#X obj 108 17 / 200;
#X obj 93 -15 wrap;
#X obj 54 62 cos;
#X obj 54 38 * 6.28319;
#X obj 78 176 outlet;
#X obj 194 -85 inlet;
#X obj 51 -116 loadbang;
#X msg 50 -87 bang;
#X text 208 -113 freq;
#X connect 0 0 1 0;
#X connect 1 0 2 0;
#X connect 2 0 4 0;
#X connect 2 0 6 0;
#X connect 3 0 2 1;
#X connect 4 0 1 1;
#X connect 5 0 7 0;
#X connect 6 0 5 0;
#X connect 8 0 3 0;
#X connect 9 0 10 0;
#X connect 10 0 0 0;
#X restore 558 37 pd msg_lfo;
#X obj 590 133 +;
#X obj 575 105 t b f;
#X obj 573 63 *;
#X obj 669 72 *;
#X obj 720 107 +;
#X obj 705 79 t b f;
#X obj 357 1 unpack f f f f f f f f f f f f f f f f f f f;
#X text 404 -29 3x adsr \, 3x waveform \, keytrack \, lfo freq \, fm-amt
\, fb-amt;
#X obj 720 239 * 0.25;
#X obj 350 683 clip 0 0.25;
#X obj 19 779 clip 0 0.25;
#X obj -123 407 clip 0 0.25;
#X connect 0 0 1 0;
#X connect 0 0 42 0;
#X connect 0 0 81 0;
#X connect 0 0 82 0;
#X connect 1 0 34 0;
#X connect 2 0 6 0;
#X connect 3 0 5 1;
#X connect 3 0 5 0;
#X connect 4 0 89 1;
#X connect 5 0 4 0;
#X connect 6 0 89 0;
#X connect 6 0 90 0;
#X connect 6 0 88 0;
#X connect 7 0 9 1;
#X connect 7 0 9 0;
#X connect 8 0 89 2;
#X connect 9 0 8 0;
#X connect 10 0 12 1;
#X connect 10 0 12 0;
#X connect 11 0 89 4;
#X connect 12 0 11 0;
#X connect 14 0 15 0;
#X connect 17 0 39 0;
#X connect 17 0 39 1;
#X connect 18 0 17 0;
#X connect 19 0 78 0;
#X connect 20 0 22 1;
#X connect 20 0 22 0;
#X connect 21 0 37 0;
#X connect 22 0 122 0;
#X connect 23 0 25 1;
#X connect 23 0 25 0;
#X connect 24 0 90 1;
#X connect 25 0 24 0;
#X connect 26 0 28 1;
#X connect 26 0 28 0;
#X connect 27 0 90 2;
#X connect 28 0 27 0;
#X connect 29 0 31 1;
#X connect 29 0 31 0;
#X connect 30 0 90 4;
#X connect 31 0 30 0;
#X connect 32 0 38 0;
#X connect 32 0 38 1;
#X connect 33 0 32 0;
#X connect 34 0 14 0;
#X connect 35 0 34 1;
#X connect 36 0 35 0;
#X connect 36 0 59 0;
#X connect 36 0 117 0;
#X connect 37 0 36 0;
#X connect 38 0 36 1;
#X connect 39 0 14 1;
#X connect 40 0 79 0;
#X connect 41 0 44 0;
#X connect 42 0 43 0;
#X connect 43 0 41 0;
#X connect 43 0 62 0;
#X connect 43 0 69 0;
#X connect 44 0 72 0;
#X connect 45 0 47 1;
#X connect 45 0 47 0;
#X connect 46 0 88 1;
#X connect 47 0 46 0;
#X connect 48 0 50 1;
#X connect 48 0 50 0;
#X connect 49 0 88 2;
#X connect 50 0 49 0;
#X connect 51 0 53 1;
#X connect 51 0 53 0;
#X connect 52 0 88 4;
#X connect 53 0 52 0;
#X connect 54 0 60 0;
#X connect 54 0 60 1;
#X connect 55 0 54 0;
#X connect 56 0 57 1;
#X connect 56 0 57 0;
#X connect 57 0 120 0;
#X connect 58 0 64 0;
#X connect 59 0 58 1;
#X connect 60 0 64 1;
#X connect 61 0 80 0;
#X connect 62 0 63 0;
#X connect 63 0 74 0;
#X connect 64 0 68 0;
#X connect 64 0 118 0;
#X connect 65 0 58 0;
#X connect 66 0 67 1;
#X connect 66 0 67 0;
#X connect 67 0 121 0;
#X connect 68 0 34 1;
#X connect 69 0 70 0;
#X connect 70 0 73 0;
#X connect 71 0 72 0;
#X connect 71 0 73 0;
#X connect 71 0 74 0;
#X connect 71 1 72 1;
#X connect 71 1 73 1;
#X connect 71 1 74 1;
#X connect 72 0 134 0;
#X connect 73 0 135 0;
#X connect 74 0 133 0;
#X connect 77 0 78 0;
#X connect 77 0 79 0;
#X connect 77 0 80 0;
#X connect 77 1 78 1;
#X connect 77 1 79 1;
#X connect 77 1 80 1;
#X connect 78 0 156 0;
#X connect 79 0 155 0;
#X connect 80 0 154 0;
#X connect 81 0 83 0;
#X connect 82 0 84 0;
#X connect 83 0 65 0;
#X connect 84 0 21 0;
#X connect 85 0 82 1;
#X connect 86 0 87 0;
#X connect 87 0 85 0;
#X connect 87 0 81 1;
#X connect 88 0 55 0;
#X connect 89 0 18 0;
#X connect 90 0 33 0;
#X connect 92 0 94 0;
#X connect 93 0 151 0;
#X connect 94 0 19 0;
#X connect 94 1 19 1;
#X connect 96 0 97 0;
#X connect 97 0 61 0;
#X connect 97 1 61 1;
#X connect 99 0 100 0;
#X connect 100 0 40 0;
#X connect 100 1 40 1;
#X connect 102 0 108 0;
#X connect 103 0 109 0;
#X connect 104 0 110 0;
#X connect 108 0 20 0;
#X connect 108 1 20 1;
#X connect 109 0 66 0;
#X connect 109 1 66 1;
#X connect 110 0 56 0;
#X connect 110 1 56 1;
#X connect 111 0 119 0;
#X connect 113 0 123 0;
#X connect 114 0 124 0;
#X connect 119 0 82 0;
#X connect 119 0 81 0;
#X connect 119 1 86 0;
#X connect 119 2 86 1;
#X connect 120 0 62 0;
#X connect 120 1 63 1;
#X connect 120 1 62 1;
#X connect 121 0 69 0;
#X connect 121 1 70 1;
#X connect 121 1 69 1;
#X connect 122 0 41 0;
#X connect 122 1 44 1;
#X connect 122 1 41 1;
#X connect 123 0 21 0;
#X connect 123 1 21 1;
#X connect 124 0 65 0;
#X connect 124 1 65 1;
#X connect 125 0 37 2;
#X connect 126 0 34 2;
#X connect 127 0 58 2;
#X connect 132 0 59 1;
#X connect 133 0 132 0;
#X connect 134 0 35 1;
#X connect 135 0 68 1;
#X connect 136 0 145 0;
#X connect 137 0 71 0;
#X connect 138 0 150 0;
#X connect 139 0 142 1;
#X connect 139 0 142 0;
#X connect 142 0 153 0;
#X connect 143 0 137 1;
#X connect 143 0 137 0;
#X connect 144 0 147 0;
#X connect 144 0 148 0;
#X connect 145 0 143 0;
#X connect 146 0 145 0;
#X connect 146 1 145 1;
#X connect 147 0 146 0;
#X connect 148 0 149 0;
#X connect 149 0 139 1;
#X connect 149 0 139 0;
#X connect 150 0 149 0;
#X connect 150 1 149 1;
#X connect 151 0 23 1;
#X connect 151 0 23 0;
#X connect 151 1 26 1;
#X connect 151 1 26 0;
#X connect 151 2 90 3;
#X connect 151 3 29 1;
#X connect 151 3 29 0;
#X connect 151 4 45 1;
#X connect 151 4 45 0;
#X connect 151 5 48 1;
#X connect 151 5 48 0;
#X connect 151 6 88 3;
#X connect 151 7 51 1;
#X connect 151 7 51 0;
#X connect 151 8 3 1;
#X connect 151 8 3 0;
#X connect 151 9 7 1;
#X connect 151 9 7 0;
#X connect 151 10 89 3;
#X connect 151 11 10 1;
#X connect 151 11 10 0;
#X connect 151 12 125 0;
#X connect 151 13 127 0;
#X connect 151 14 126 0;
#X connect 151 15 43 1;
#X connect 151 16 144 0;
#X connect 151 17 147 1;
#X connect 151 18 148 1;
#X connect 153 0 77 0;
#X connect 154 0 58 3;
#X connect 155 0 34 3;
#X connect 156 0 37 3;
#X restore -245 578 pd tri_ops4_frequency_modulation_synthesizer_voice
;
#N canvas 223 189 1549 845 tri_ops4_frequency_modulation_synthesizer_voice
0;
#X obj -415 34 inlet;
#X obj -424 293 mtof;
#X obj -299 26 inlet;
#X obj 344 306 *;
#X obj 343 355 * 10000;
#X obj 345 332 *;
#X obj -292 61 clip 0 1;
#X obj 393 273 *;
#X obj 392 322 * 10000;
#X obj 394 299 *;
#X obj 441 295 *;
#X obj 440 344 * 10000;
#X obj 442 321 *;
#X text -414 10 pitch;
#X obj -16 922 *~;
#X obj -14 951 outlet~;
#X text -296 13 gate;
#X obj 345 435 line~;
#X msg 346 412 \$1 1.6;
#X obj 66 233 *;
#X obj -18 492 *;
#X obj -215 388 *;
#X obj -27 516 *;
#X obj 102 240 *;
#X obj 86 291 * 10000;
#X obj 88 268 *;
#X obj 137 261 *;
#X obj 136 310 * 10000;
#X obj 138 287 *;
#X obj 187 272 *;
#X obj 186 321 * 10000;
#X obj 188 298 *;
#X obj 125 405 line~;
#X msg 126 382 \$1 1.6;
#X obj -63 878 abs_fm_op1;
#X obj -87 821 *~;
#X obj -203 553 *~;
#X obj -208 437 abs_fm_op1;
#X obj 104 427 *~;
#X obj 326 461 *~;
#X obj 253 293 *;
#X obj -63 558 *;
#X obj -259 153 / 128;
#X obj -260 184 *;
#X obj -61 599 +;
#X obj 556 482 *;
#X obj 560 536 * 10000;
#X obj 562 513 *;
#X obj 621 492 *;
#X obj 620 541 * 10000;
#X obj 622 518 *;
#X obj 669 514 *;
#X obj 668 563 * 10000;
#X obj 670 540 *;
#X obj 563 667 line~;
#X msg 564 644 \$1 1.6;
#X obj 287 401 *;
#X obj 268 440 *;
#X obj 224 728 abs_fm_op1;
#X obj 194 626 *~;
#X obj 544 693 *~;
#X obj 345 532 *;
#X obj 231 497 *;
#X obj 243 520 +;
#X obj 234 768 *~;
#X obj 169 644 *;
#X obj 29 473 *;
#X obj 20 508 *;
#X obj -58 830 *~;
#X obj -21 589 *;
#X obj -19 630 +;
#X obj 151 445 t b f;
#X obj -55 626 +;
#X obj -6 655 +;
#X obj 242 547 +;
#X text 466 439 fb mod;
#X text 197 449 fma mod;
#X obj 429 438 t b f;
#X obj -111 385 +;
#X obj 31 757 +;
#X obj 362 661 +;
#X obj -356 307 +;
#X obj -327 307 +;
#X obj -357 341 mtof;
#X obj -317 339 mtof;
#X obj -286 279 * -1;
#X obj -210 153 *;
#X obj -226 201 * 0.5;
#X obj 575 616 abs_adsr2m;
#X obj 344 393 abs_adsr2m;
#X obj 132 361 abs_adsr2m;
#X text -395 -8 3op fm voice;
#X obj 30 28 inlet;
#X obj 359 -24 inlet;
#X obj 27 53 t f f;
#X text 31 10 fb1;
#X obj 74 28 inlet;
#X obj 71 53 t f f;
#X text 75 10 fb2;
#X obj 114 26 inlet;
#X obj 111 51 t f f;
#X text 119 8 fb3;
#X obj 167 24 inlet;
#X obj 211 24 inlet;
#X obj 251 22 inlet;
#X text 254 3 fm3;
#X text 215 3 fm2;
#X text 174 7 fm1;
#X obj 165 50 t f f;
#X obj 209 50 t f f;
#X obj 249 48 t f f;
#X obj -222 50 inlet;
#X text -224 29 detune;
#X obj -96 30 inlet;
#X obj -21 22 inlet;
#X text -97 9 rat1;
#X text -19 3 rat2;
#X obj -276 658 outlet~;
#X obj 236 819 outlet~;
#X obj -217 87 t b f f;
#X obj 250 466 t b f;
#X obj 10 543 t b f;
#X obj -33 536 t b f;
#X obj -112 117 t b f;
#X obj -18 128 t b f;
#N canvas 1 77 450 300 opwaveformselect 0;
#X obj 144 76 inlet;
#X obj 130 115 select 0 1 2 3 4;
#X msg 80 136 0 1 0 1 1 0;
#X msg 100 161 0.5 1.5 0 2 1 0;
#X msg 136 211 0 0.5 0.75 1 2 1;
#X msg 115 189 0 0.5 0.75 0.5 2 1;
#X msg 174 231 0.5 1 0 1 1 0;
#X obj 107 270 outlet;
#X text 160 270 waveform parameters;
#X text 188 75 int 0..4 (sine \, ...);
#X connect 0 0 1 0;
#X connect 1 0 2 0;
#X connect 1 1 3 0;
#X connect 1 2 5 0;
#X connect 1 3 4 0;
#X connect 1 4 6 0;
#X connect 2 0 7 0;
#X connect 3 0 7 0;
#X connect 4 0 7 0;
#X connect 5 0 7 0;
#X connect 6 0 7 0;
#X restore -150 336 pd opwaveformselect;
#N canvas 1 77 450 300 opwaveformselect 0;
#X obj 144 76 inlet;
#X obj 130 115 select 0 1 2 3 4;
#X msg 80 136 0 1 0 1 1 0;
#X msg 100 161 0.5 1.5 0 2 1 0;
#X msg 136 211 0 0.5 0.75 1 2 1;
#X msg 115 189 0 0.5 0.75 0.5 2 1;
#X msg 174 231 0.5 1 0 1 1 0;
#X obj 107 270 outlet;
#X text 160 270 waveform parameters;
#X text 188 75 int 0..4 (sine \, ...);
#X connect 0 0 1 0;
#X connect 1 0 2 0;
#X connect 1 1 3 0;
#X connect 1 2 5 0;
#X connect 1 3 4 0;
#X connect 1 4 6 0;
#X connect 2 0 7 0;
#X connect 3 0 7 0;
#X connect 4 0 7 0;
#X connect 5 0 7 0;
#X connect 6 0 7 0;
#X restore -23 835 pd opwaveformselect;
#N canvas 1 77 450 300 opwaveformselect 0;
#X obj 144 76 inlet;
#X obj 130 115 select 0 1 2 3 4;
#X msg 80 136 0 1 0 1 1 0;
#X msg 100 161 0.5 1.5 0 2 1 0;
#X msg 136 211 0 0.5 0.75 1 2 1;
#X msg 115 189 0 0.5 0.75 0.5 2 1;
#X msg 174 231 0.5 1 0 1 1 0;
#X obj 107 270 outlet;
#X text 160 270 waveform parameters;
#X text 188 75 int 0..4 (sine \, ...);
#X connect 0 0 1 0;
#X connect 1 0 2 0;
#X connect 1 1 3 0;
#X connect 1 2 5 0;
#X connect 1 3 4 0;
#X connect 1 4 6 0;
#X connect 2 0 7 0;
#X connect 3 0 7 0;
#X connect 4 0 7 0;
#X connect 5 0 7 0;
#X connect 6 0 7 0;
#X restore 277 625 pd opwaveformselect;
#X text -162 858 operator 3;
#X text 303 724 operator 2;
#X text -309 -6 op1->op2 \, op2+op1->op3;
#X text -225 474 operatoor1;
#X obj 216 600 clip~ 0 1;
#X obj 205 565 sig~;
#X obj -79 768 sig~;
#X obj -35 758 sig~;
#X obj 658 6 inlet;
#X obj 573 234 *;
#X obj 722 2 inlet;
#X obj 730 174 *;
#X text 726 -14 fb mod;
#X text 662 -10 fma mod;
#X obj 734 198 *;
#X obj 579 187 / 2;
#N canvas 1 77 1085 696 msg_lfo 0;
#X obj 52 -61 metro 5;
#X obj 51 -29 float;
#X obj 78 17 + 1;
#X obj 108 17 / 200;
#X obj 93 -15 wrap;
#X obj 54 62 cos;
#X obj 54 38 * 6.28319;
#X obj 78 176 outlet;
#X obj 194 -85 inlet;
#X obj 51 -116 loadbang;
#X msg 50 -87 bang;
#X text 208 -113 freq;
#X connect 0 0 1 0;
#X connect 1 0 2 0;
#X connect 2 0 4 0;
#X connect 2 0 6 0;
#X connect 3 0 2 1;
#X connect 4 0 1 1;
#X connect 5 0 7 0;
#X connect 6 0 5 0;
#X connect 8 0 3 0;
#X connect 9 0 10 0;
#X connect 10 0 0 0;
#X restore 558 37 pd msg_lfo;
#X obj 585 143 +;
#X obj 570 115 t b f;
#X obj 573 63 *;
#X obj 669 72 *;
#X obj 720 107 +;
#X obj 705 79 t b f;
#X text 404 -29 3x adsr \, 3x waveform \, keytrack \, lfo freq \, fm-amt
\, fb-amt;
#X obj 357 1 unpack f f f f f f f f f f f f f f f f f f f;
#X obj 730 254 * 0.25;
#X obj 350 683 clip 0 0.25;
#X obj 19 779 clip 0 0.25;
#X obj -123 407 clip 0 0.25;
#X connect 0 0 1 0;
#X connect 0 0 42 0;
#X connect 0 0 81 0;
#X connect 0 0 82 0;
#X connect 1 0 34 0;
#X connect 2 0 6 0;
#X connect 3 0 5 1;
#X connect 3 0 5 0;
#X connect 4 0 89 1;
#X connect 5 0 4 0;
#X connect 6 0 89 0;
#X connect 6 0 90 0;
#X connect 6 0 88 0;
#X connect 7 0 9 1;
#X connect 7 0 9 0;
#X connect 8 0 89 2;
#X connect 9 0 8 0;
#X connect 10 0 12 1;
#X connect 10 0 12 0;
#X connect 11 0 89 4;
#X connect 12 0 11 0;
#X connect 14 0 15 0;
#X connect 17 0 39 0;
#X connect 17 0 39 1;
#X connect 18 0 17 0;
#X connect 19 0 78 0;
#X connect 20 0 22 1;
#X connect 20 0 22 0;
#X connect 21 0 37 0;
#X connect 22 0 122 0;
#X connect 23 0 25 1;
#X connect 23 0 25 0;
#X connect 24 0 90 1;
#X connect 25 0 24 0;
#X connect 26 0 28 1;
#X connect 26 0 28 0;
#X connect 27 0 90 2;
#X connect 28 0 27 0;
#X connect 29 0 31 1;
#X connect 29 0 31 0;
#X connect 30 0 90 4;
#X connect 31 0 30 0;
#X connect 32 0 38 0;
#X connect 32 0 38 1;
#X connect 33 0 32 0;
#X connect 34 0 14 0;
#X connect 35 0 34 1;
#X connect 36 0 35 0;
#X connect 36 0 59 0;
#X connect 36 0 117 0;
#X connect 37 0 36 0;
#X connect 38 0 36 1;
#X connect 39 0 14 1;
#X connect 40 0 79 0;
#X connect 41 0 44 0;
#X connect 42 0 43 0;
#X connect 43 0 41 0;
#X connect 43 0 62 0;
#X connect 43 0 69 0;
#X connect 44 0 72 0;
#X connect 45 0 47 1;
#X connect 45 0 47 0;
#X connect 46 0 88 1;
#X connect 47 0 46 0;
#X connect 48 0 50 1;
#X connect 48 0 50 0;
#X connect 49 0 88 2;
#X connect 50 0 49 0;
#X connect 51 0 53 1;
#X connect 51 0 53 0;
#X connect 52 0 88 4;
#X connect 53 0 52 0;
#X connect 54 0 60 0;
#X connect 54 0 60 1;
#X connect 55 0 54 0;
#X connect 56 0 57 1;
#X connect 56 0 57 0;
#X connect 57 0 120 0;
#X connect 58 0 64 0;
#X connect 59 0 58 1;
#X connect 60 0 64 1;
#X connect 61 0 80 0;
#X connect 62 0 63 0;
#X connect 63 0 74 0;
#X connect 64 0 68 0;
#X connect 64 0 118 0;
#X connect 65 0 58 0;
#X connect 66 0 67 1;
#X connect 66 0 67 0;
#X connect 67 0 121 0;
#X connect 68 0 34 1;
#X connect 69 0 70 0;
#X connect 70 0 73 0;
#X connect 71 0 72 0;
#X connect 71 0 73 0;
#X connect 71 0 74 0;
#X connect 71 1 72 1;
#X connect 71 1 73 1;
#X connect 71 1 74 1;
#X connect 72 0 134 0;
#X connect 73 0 135 0;
#X connect 74 0 133 0;
#X connect 77 0 78 0;
#X connect 77 0 79 0;
#X connect 77 0 80 0;
#X connect 77 1 78 1;
#X connect 77 1 79 1;
#X connect 77 1 80 1;
#X connect 78 0 156 0;
#X connect 79 0 155 0;
#X connect 80 0 154 0;
#X connect 81 0 83 0;
#X connect 82 0 84 0;
#X connect 83 0 65 0;
#X connect 84 0 21 0;
#X connect 85 0 82 1;
#X connect 86 0 87 0;
#X connect 87 0 85 0;
#X connect 87 0 81 1;
#X connect 88 0 55 0;
#X connect 89 0 18 0;
#X connect 90 0 33 0;
#X connect 92 0 94 0;
#X connect 93 0 152 0;
#X connect 94 0 19 0;
#X connect 94 1 19 1;
#X connect 96 0 97 0;
#X connect 97 0 61 0;
#X connect 97 1 61 1;
#X connect 99 0 100 0;
#X connect 100 0 40 0;
#X connect 100 1 40 1;
#X connect 102 0 108 0;
#X connect 103 0 109 0;
#X connect 104 0 110 0;
#X connect 108 0 20 0;
#X connect 108 1 20 1;
#X connect 109 0 66 0;
#X connect 109 1 66 1;
#X connect 110 0 56 0;
#X connect 110 1 56 1;
#X connect 111 0 119 0;
#X connect 113 0 123 0;
#X connect 114 0 124 0;
#X connect 119 0 82 0;
#X connect 119 0 81 0;
#X connect 119 1 86 0;
#X connect 119 2 86 1;
#X connect 120 0 62 0;
#X connect 120 1 63 1;
#X connect 120 1 62 1;
#X connect 121 0 69 0;
#X connect 121 1 70 1;
#X connect 121 1 69 1;
#X connect 122 0 41 0;
#X connect 122 1 44 1;
#X connect 122 1 41 1;
#X connect 123 0 21 0;
#X connect 123 1 21 1;
#X connect 124 0 65 0;
#X connect 124 1 65 1;
#X connect 125 0 37 2;
#X connect 126 0 34 2;
#X connect 127 0 58 2;
#X connect 132 0 59 1;
#X connect 133 0 132 0;
#X connect 134 0 35 1;
#X connect 135 0 68 1;
#X connect 136 0 145 0;
#X connect 137 0 71 0;
#X connect 138 0 150 0;
#X connect 139 0 142 1;
#X connect 139 0 142 0;
#X connect 142 0 153 0;
#X connect 143 0 137 1;
#X connect 143 0 137 0;
#X connect 144 0 147 0;
#X connect 144 0 148 0;
#X connect 145 0 143 0;
#X connect 146 0 145 0;
#X connect 146 1 145 1;
#X connect 147 0 146 0;
#X connect 148 0 149 0;
#X connect 149 0 139 1;
#X connect 149 0 139 0;
#X connect 150 0 149 0;
#X connect 150 1 149 1;
#X connect 152 0 23 1;
#X connect 152 0 23 0;
#X connect 152 1 26 1;
#X connect 152 1 26 0;
#X connect 152 2 90 3;
#X connect 152 3 29 1;
#X connect 152 3 29 0;
#X connect 152 4 45 1;
#X connect 152 4 45 0;
#X connect 152 5 48 1;
#X connect 152 5 48 0;
#X connect 152 6 88 3;
#X connect 152 7 51 1;
#X connect 152 7 51 0;
#X connect 152 8 3 1;
#X connect 152 8 3 0;
#X connect 152 9 7 1;
#X connect 152 9 7 0;
#X connect 152 10 89 3;
#X connect 152 11 10 1;
#X connect 152 11 10 0;
#X connect 152 12 125 0;
#X connect 152 13 127 0;
#X connect 152 14 126 0;
#X connect 152 15 43 1;
#X connect 152 16 144 0;
#X connect 152 17 147 1;
#X connect 152 18 148 1;
#X connect 153 0 77 0;
#X connect 154 0 58 3;
#X connect 155 0 34 3;
#X connect 156 0 37 3;
#X restore -313 683 pd tri_ops4_frequency_modulation_synthesizer_voice
;
#X obj -332 658 +;
#X obj -366 629 int;
#X obj -344 601 unpack 0 0;
#X obj -453 177 poly 4 1;
#X text -664 155 set voicecount to 1 and delete other voices for a
mono-synth;
#X obj 4 69 *;
#X obj -20 -159 loadbang;
#X obj -17 43 * 1;
#X obj 232 102 hsl 80 10 0 1 0 1 empty empty vib 0 5 0 10 -262144 -1
-1 4050 1;
#X obj 321 102 hsl 80 10 0 1 0 1 empty empty am 0 5 0 10 -262144 -1
-1 1700 1;
#X obj -22 -113 metro 5;
#X obj -23 -81 float;
#X obj 4 -35 + 1;
#X obj 34 -35 / 200;
#X obj 19 -67 wrap;
#X obj -20 10 cos;
#X obj -20 -14 * 6.28319;
#X text -12 -136 vibrato lfo;
#X obj -287 224 +;
#X obj -337 197 t b f;
#X obj 87 -115 *;
#X obj 74 -91 * 20;
#X obj 74 -69 + 0.5;
#X obj 68 -11 *;
#X obj 263 208 hsl 80 10 0 1 0 1 empty empty lfo 0 5 0 10 -262144 -1
-1 2870 1;
#X obj 351 208 hsl 70 10 0 1 0 1 empty empty am-fm 0 5 0 10 -262144
-1 -1 4400 1;
#X obj 468 275 * 25;
#X obj 470 297 + 0.1;
#X obj 440 247 *;
#X obj 351 195 hsl 70 10 0 1 0 1 empty empty am-fb 0 5 0 10 -262144
-1 -1 2300 1;
#X obj 253 333 pack f f f f f f f f f f f f f f f f f f f;
#X obj 473 251 *;
#X obj 447 366 float;
#X obj 501 539 outlet;
#X obj 412 102 bng 11 250 50 0 empty empty v 3 5 0 10 -262144 -1 -1
;
#X text 498 557 preset;
#X obj 220 -39 inlet;
#X text 218 -55 preset;
#X obj 476 394 pack f f f f f f f f f f f f f f f f f f f f f f f f
f f f f f f f f f;
#X obj 215 -1 unpack f f f f f f f f f f f f f f f f f f f f f f f
f f f f f f f f f f;
#X msg 500 470 set \$1 \$2 \$3 \$4 \$5 \$6 \$7 \$8 \$9 \$10 \$11 \$12
\$13 \$14 \$15 \$16 \$17 \$18 \$19 \$20 \$21 \$22 \$23 \$24 \$25 \$26
\$27 \$28 \$29 \$30 \$31 \$32 \$33;
#X text -593 -83 3/2016 martin brinkmann;
#X obj -3 171 / 128;
#X connect 0 0 101 8;
#X connect 0 0 109 4;
#X connect 1 0 101 9;
#X connect 1 0 109 7;
#X connect 2 0 101 11;
#X connect 2 0 109 13;
#X connect 3 0 101 10;
#X connect 3 0 109 10;
#X connect 4 0 101 12;
#X connect 4 0 109 15;
#X connect 6 0 101 14;
#X connect 6 0 109 18;
#X connect 7 0 57 3;
#X connect 7 0 68 3;
#X connect 7 0 69 3;
#X connect 7 0 70 3;
#X connect 7 0 109 28;
#X connect 8 0 30 1;
#X connect 8 0 109 2;
#X connect 9 0 101 1;
#X connect 9 0 109 5;
#X connect 10 0 101 3;
#X connect 10 0 109 11;
#X connect 11 0 101 2;
#X connect 11 0 109 8;
#X connect 12 0 57 5;
#X connect 12 0 68 5;
#X connect 12 0 69 5;
#X connect 12 0 70 5;
#X connect 12 0 109 14;
#X connect 13 0 57 7;
#X connect 13 0 68 7;
#X connect 13 0 69 7;
#X connect 13 0 70 7;
#X connect 13 0 109 17;
#X connect 14 0 29 1;
#X connect 14 0 109 19;
#X connect 15 0 101 15;
#X connect 15 0 109 27;
#X connect 16 0 101 4;
#X connect 16 0 109 3;
#X connect 17 0 101 5;
#X connect 17 0 109 6;
#X connect 18 0 101 7;
#X connect 18 0 109 12;
#X connect 19 0 101 6;
#X connect 19 0 109 9;
#X connect 20 0 101 13;
#X connect 20 0 109 22;
#X connect 21 0 57 6;
#X connect 21 0 68 6;
#X connect 21 0 69 6;
#X connect 21 0 70 6;
#X connect 21 0 109 21;
#X connect 22 0 26 1;
#X connect 22 0 109 16;
#X connect 23 0 27 1;
#X connect 23 0 109 23;
#X connect 24 0 57 4;
#X connect 24 0 68 4;
#X connect 24 0 69 4;
#X connect 24 0 70 4;
#X connect 24 0 109 29;
#X connect 25 0 57 2;
#X connect 25 0 68 2;
#X connect 25 0 69 2;
#X connect 25 0 70 2;
#X connect 25 0 109 26;
#X connect 26 0 28 0;
#X connect 27 0 28 0;
#X connect 28 0 5 0;
#X connect 29 0 28 0;
#X connect 30 0 101 0;
#X connect 31 0 36 1;
#X connect 31 0 56 0;
#X connect 32 0 36 0;
#X connect 34 0 55 0;
#X connect 36 0 74 0;
#X connect 37 0 67 0;
#X connect 38 0 57 0;
#X connect 39 0 41 0;
#X connect 40 0 43 0;
#X connect 41 0 40 0;
#X connect 42 0 38 0;
#X connect 43 0 89 0;
#X connect 45 0 42 0;
#X connect 45 1 57 1;
#X connect 46 0 42 0;
#X connect 46 0 50 0;
#X connect 46 0 53 0;
#X connect 46 0 72 0;
#X connect 46 1 38 1;
#X connect 46 1 49 1;
#X connect 46 1 52 1;
#X connect 46 1 71 1;
#X connect 47 0 39 0;
#X connect 49 0 68 0;
#X connect 50 0 49 0;
#X connect 51 0 50 0;
#X connect 51 1 68 1;
#X connect 52 0 69 0;
#X connect 53 0 52 0;
#X connect 54 0 53 0;
#X connect 54 1 69 1;
#X connect 55 0 31 0;
#X connect 56 0 30 0;
#X connect 57 0 26 0;
#X connect 57 1 27 0;
#X connect 57 2 29 0;
#X connect 59 0 57 10;
#X connect 59 0 68 10;
#X connect 59 0 69 10;
#X connect 59 0 70 10;
#X connect 59 0 109 20;
#X connect 60 0 57 8;
#X connect 60 0 68 8;
#X connect 60 0 69 8;
#X connect 60 0 70 8;
#X connect 60 0 109 24;
#X connect 61 0 57 9;
#X connect 61 0 68 9;
#X connect 61 0 69 9;
#X connect 61 0 70 9;
#X connect 61 0 109 25;
#X connect 62 0 66 0;
#X connect 63 0 113 0;
#X connect 66 0 57 12;
#X connect 66 0 68 12;
#X connect 66 0 69 12;
#X connect 66 0 70 12;
#X connect 67 0 45 0;
#X connect 67 1 51 0;
#X connect 67 2 54 0;
#X connect 67 3 73 0;
#X connect 68 0 26 0;
#X connect 68 1 27 0;
#X connect 68 2 29 0;
#X connect 69 0 26 0;
#X connect 69 1 27 0;
#X connect 69 2 29 0;
#X connect 70 0 26 0;
#X connect 70 1 27 0;
#X connect 70 2 29 0;
#X connect 71 0 70 0;
#X connect 72 0 71 0;
#X connect 73 0 72 0;
#X connect 73 1 70 1;
#X connect 74 0 37 0;
#X connect 74 1 37 1;
#X connect 74 2 37 2;
#X connect 76 0 90 0;
#X connect 77 0 81 0;
#X connect 78 0 76 0;
#X connect 79 0 91 1;
#X connect 79 0 91 0;
#X connect 79 0 103 1;
#X connect 80 0 94 1;
#X connect 80 0 94 0;
#X connect 80 0 109 1;
#X connect 81 0 82 0;
#X connect 82 0 83 0;
#X connect 83 0 85 0;
#X connect 83 0 87 0;
#X connect 84 0 83 1;
#X connect 85 0 82 1;
#X connect 86 0 78 0;
#X connect 87 0 86 0;
#X connect 89 0 46 0;
#X connect 90 0 89 0;
#X connect 90 1 89 1;
#X connect 91 0 92 0;
#X connect 92 0 93 0;
#X connect 93 0 84 0;
#X connect 94 0 76 1;
#X connect 95 0 99 1;
#X connect 95 0 99 0;
#X connect 95 0 109 31;
#X connect 96 0 101 17;
#X connect 96 0 109 32;
#X connect 97 0 98 0;
#X connect 98 0 101 16;
#X connect 99 0 102 1;
#X connect 99 0 102 0;
#X connect 100 0 101 18;
#X connect 100 0 109 30;
#X connect 101 0 57 11;
#X connect 101 0 68 11;
#X connect 101 0 69 11;
#X connect 101 0 70 11;
#X connect 102 0 97 0;
#X connect 103 0 109 0;
#X connect 105 0 103 0;
#X connect 107 0 110 0;
#X connect 109 0 111 0;
#X connect 110 0 79 0;
#X connect 110 1 80 0;
#X connect 110 2 8 0;
#X connect 110 3 16 0;
#X connect 110 4 0 0;
#X connect 110 5 9 0;
#X connect 110 6 17 0;
#X connect 110 7 1 0;
#X connect 110 8 11 0;
#X connect 110 9 19 0;
#X connect 110 10 3 0;
#X connect 110 11 10 0;
#X connect 110 12 18 0;
#X connect 110 13 2 0;
#X connect 110 14 12 0;
#X connect 110 15 4 0;
#X connect 110 16 22 0;
#X connect 110 17 13 0;
#X connect 110 18 6 0;
#X connect 110 19 14 0;
#X connect 110 20 59 0;
#X connect 110 21 21 0;
#X connect 110 22 20 0;
#X connect 110 23 23 0;
#X connect 110 24 60 0;
#X connect 110 25 61 0;
#X connect 110 26 25 0;
#X connect 110 27 15 0;
#X connect 110 28 7 0;
#X connect 110 29 24 0;
#X connect 110 30 100 0;
#X connect 110 31 95 0;
#X connect 110 32 96 0;
#X connect 111 0 104 0;
#X connect 113 0 57 13;
#X connect 113 0 68 13;
#X connect 113 0 69 13;
#X connect 113 0 70 13;
#X coords 0 -1 1 1 325 120 1 100 100;
#X restore 250 366 pd tri_ops4p;
#N canvas 437 230 1084 744 jxstyle1 0;
#X obj 115 116 nbx 3 14 1 128 0 0 empty empty empty 0 -8 0 10 -262144
-128992 -1 5 256;
#X obj 287 696 outlet;
#X obj 337 696 outlet;
#X obj -43 62 inlet;
#X obj 288 48 inlet;
#X floatatom 187 101 5 0 0 0 - - -, f 5;
#X obj 89 376 abs_jxstyle1;
#X obj 247 48 inlet;
#X msg 488 162 clear;
#X msg 286 150 store;
#X text 253 24 notein;
#X obj 104 131 hsl 128 8 0 127 0 0 empty empty empty -2 -8 0 10 -262144
-1 -1 4800 1;
#X obj 245 355 /;
#X obj 245 378 * 128;
#X obj 244 400 int;
#X obj 245 422 change;
#X obj 168 117 bng 13 250 50 0 empty empty W 4 8 0 10 -4034 -1 -1;
#X obj 142 35 + 1;
#X obj 222 102 bng 12 250 50 0 empty empty X 3 7 0 10 -258113 -1 -1
;
#X obj 380 5 loadbang;
#X obj 201 117 bng 13 250 50 0 empty empty x 3 7 0 10 -262144 -1 -1
;
#X msg 397 147 cls;
#X obj 54 197 clip 0 128;
#X obj 169 64 change;
#X obj 55 176 - 1;
#X msg 257 199 dump;
#X obj 287 172 t b a;
#X obj 184 117 bng 13 250 50 0 empty empty u 4 8 0 10 -262144 -1 -1
;
#X text 292 715 pitch/gate;
#X obj 152 117 bng 13 250 50 0 empty empty > 4 8 0 10 -262144 -1 -1
;
#X obj 101 117 bng 13 250 50 0 empty empty < 4 8 0 10 -262144 -1 -1
;
#X obj 71 55 int;
#X obj 80 77 + 1;
#X obj 100 42 int;
#X obj 112 74 - 1;
#X obj 217 117 bng 13 250 50 0 empty empty x 3 7 0 10 -260097 -1 -1
;
#X msg 190 163 remove;
#X msg 311 512 55 115 272 51 113 278 48 115 278 \\\; \\\; \\\; 60 119
219 \\\; 72 99 326 67 113 336 63 106 348 60 101 342 \\\; \\\; 60 106
394 55 106 383 51 77 410 \\\; 60 110 259 55 111 261 51 110 277 \\\;
;
#X obj 180 195 spigot;
#X obj 136 152 <=;
#X text -45 42 pos16;
#X connect 0 0 24 0;
#X connect 0 0 31 1;
#X connect 0 0 33 1;
#X connect 0 0 39 0;
#X connect 3 0 6 0;
#X connect 4 0 6 4;
#X connect 5 0 39 1;
#X connect 6 0 1 0;
#X connect 6 1 2 0;
#X connect 6 2 5 0;
#X connect 6 2 12 1;
#X connect 6 2 23 0;
#X connect 6 3 12 0;
#X connect 6 4 37 0;
#X connect 7 0 6 3;
#X connect 8 0 6 2;
#X connect 9 0 26 0;
#X connect 12 0 13 0;
#X connect 13 0 14 0;
#X connect 14 0 15 0;
#X connect 15 0 11 0;
#X connect 16 0 9 0;
#X connect 17 0 0 0;
#X connect 18 0 8 0;
#X connect 19 0 37 0;
#X connect 20 0 21 0;
#X connect 21 0 6 2;
#X connect 22 0 6 1;
#X connect 23 0 17 0;
#X connect 24 0 22 0;
#X connect 25 0 6 2;
#X connect 26 0 25 0;
#X connect 26 1 6 2;
#X connect 27 0 0 0;
#X connect 29 0 31 0;
#X connect 30 0 33 0;
#X connect 31 0 32 0;
#X connect 32 0 0 0;
#X connect 33 0 34 0;
#X connect 34 0 0 0;
#X connect 35 0 36 0;
#X connect 36 0 38 0;
#X connect 37 0 6 5;
#X connect 38 0 6 2;
#X connect 39 0 38 1;
#X coords 0 -1 1 1 135 40 1 100 100;
#X restore 250 226 pd jxstyle1;
#X obj 317 167 notein;
#N canvas 216 80 1184 711 songpos96-16 0;
#X obj 318 440 + 1;
#X obj 267 436 float;
#X msg 206 296 1;
#X obj 218 321 /;
#X obj 209 273 t f f;
#X obj 228 344 * 15000;
#X obj 339 355 t b f;
#X obj 263 405 metro 125;
#X msg 340 329 -2;
#X obj 172 17 loadbang;
#X floatatom 126 113 5 30 300 0 bpm - -, f 5;
#X msg -2 85 set \$1;
#X msg 5 139 90;
#X obj 174 112 bng 15 250 50 0 empty empty empty 6 7 0 10 -261234 -1
-1;
#X obj 278 636 outlet;
#X obj 570 496 outlet;
#X text 618 497 bpm->;
#X obj 200 112 bng 15 50 20 0 empty empty empty 6 7 0 10 -204786 -1
-1;
#X obj 208 225 float;
#X obj 435 539 outlet;
#X text 144 343 1/16 in ms;
#X text 485 540 pos96->;
#X obj 259 373 / 6;
#X text 219 371 1/96;
#X obj 280 481 / 6;
#X obj 280 505 int;
#X obj 600 64 + 1;
#X obj 602 29 float;
#X obj 600 96 moses 2;
#X obj 600 155 timer;
#X obj 600 123 t b;
#X obj 648 122 t b b;
#X obj 653 243 /;
#X msg 623 221 60000;
#X obj 618 183 t b f;
#X obj 656 268 moses 10;
#X text 500 72 beatcounter;
#X obj 772 358 float;
#X obj 769 401 + 1;
#X obj 688 426 +;
#X obj 729 396 *;
#X obj 705 328 t f b;
#X obj 698 464 /;
#X msg 884 211 0;
#X text 499 302 mean (as seen on idafx blog);
#X obj 864 324 t f f;
#X obj 921 503 moses 0.1;
#X text 880 303 reset;
#X obj 870 366 /;
#X obj 849 431 < 0.75;
#X obj 903 435 > 1.25;
#X obj 869 391 t f f;
#X obj 877 471 ||;
#X obj 174 54 t b b b;
#X obj 43 -7 inlet;
#X obj 107 -11 inlet;
#X text 329 637 pos16->;
#X text 46 14 sync;
#X text 111 10 tap;
#X obj 279 530 change -1;
#X connect 0 0 1 1;
#X connect 0 0 24 0;
#X connect 0 0 19 0;
#X connect 1 0 0 0;
#X connect 2 0 3 0;
#X connect 3 0 5 0;
#X connect 4 0 2 0;
#X connect 4 1 3 1;
#X connect 5 0 22 0;
#X connect 6 0 7 0;
#X connect 6 1 1 0;
#X connect 7 0 1 0;
#X connect 8 0 6 0;
#X connect 9 0 53 0;
#X connect 10 0 11 0;
#X connect 10 0 18 1;
#X connect 11 0 12 0;
#X connect 12 0 10 0;
#X connect 13 0 8 0;
#X connect 13 0 18 0;
#X connect 17 0 27 0;
#X connect 18 0 4 0;
#X connect 18 0 15 0;
#X connect 22 0 7 1;
#X connect 24 0 25 0;
#X connect 25 0 59 0;
#X connect 26 0 27 1;
#X connect 26 0 28 0;
#X connect 27 0 26 0;
#X connect 28 0 30 0;
#X connect 28 1 31 0;
#X connect 29 0 34 0;
#X connect 29 0 45 0;
#X connect 30 0 29 0;
#X connect 31 0 29 0;
#X connect 31 1 29 1;
#X connect 32 0 35 0;
#X connect 33 0 32 0;
#X connect 34 0 33 0;
#X connect 34 1 32 1;
#X connect 35 1 41 0;
#X connect 37 0 38 0;
#X connect 37 0 40 0;
#X connect 38 0 37 1;
#X connect 38 0 42 1;
#X connect 39 0 42 0;
#X connect 40 0 39 1;
#X connect 41 0 39 0;
#X connect 41 1 37 0;
#X connect 42 0 40 1;
#X connect 42 0 10 0;
#X connect 43 0 37 1;
#X connect 43 0 27 1;
#X connect 45 0 48 1;
#X connect 45 1 48 0;
#X connect 46 1 43 0;
#X connect 48 0 51 0;
#X connect 49 0 52 0;
#X connect 50 0 52 1;
#X connect 51 0 49 0;
#X connect 51 1 50 0;
#X connect 52 0 46 0;
#X connect 53 0 13 0;
#X connect 53 1 13 0;
#X connect 53 2 12 0;
#X connect 54 0 13 0;
#X connect 55 0 17 0;
#X connect 59 0 14 0;
#X coords 0 -1 1 1 120 30 1 100 100;
#X restore 200 69 pd songpos96-16;
#X connect 1 0 0 0;
#X connect 1 0 0 1;
#X connect 2 0 1 0;
#X connect 3 0 2 0;
#X connect 3 1 2 1;
#X connect 4 0 3 1;
#X connect 4 1 3 2;
#X connect 5 0 3 0;
