#N canvas 224 246 450 300 10;
#N canvas 258 274 737 589 lfo1 0;
#X obj 8 192 *;
#X obj 34 -61 loadbang;
#X msg 127 -34 bang;
#X obj 3 229 outlet;
#X obj 8 161 * 1;
#X obj 107 115 hsl 128 10 0.01 10 1 1 empty empty frq 0 5 0 10 -262144
-1 -1 4600 1;
#X obj 107 127 hsl 128 10 0 1 0 1 empty empty am 0 5 0 10 -262144 -1
-1 12700 1;
#X obj 92 -4 metro 5;
#X obj 2 37 float;
#X obj 29 83 + 1;
#X obj 59 83 / 200;
#X obj 44 51 wrap;
#X obj 5 128 cos;
#X obj 5 104 * 6.28319;
#X obj 110 -147 inlet;
#X text 114 -168 sync;
#X connect 0 0 3 0;
#X connect 1 0 7 0;
#X connect 2 0 7 0;
#X connect 4 0 0 0;
#X connect 5 0 10 0;
#X connect 6 0 0 1;
#X connect 7 0 8 0;
#X connect 8 0 9 0;
#X connect 9 0 11 0;
#X connect 9 0 13 0;
#X connect 10 0 9 1;
#X connect 11 0 8 1;
#X connect 12 0 4 0;
#X connect 13 0 12 0;
#X connect 14 0 2 0;
#X coords 0 -1 1 1 140 40 1 100 100;
#X restore 41 20 pd lfo1;
#N canvas 1 80 737 589 lfo1a 0;
#X obj -17 -43 loadbang;
#X obj 107 116 hsl 128 10 0.01 30 1 1 empty empty frq 0 5 0 10 -262144
-1 -1 4600 1;
#X obj 107 128 hsl 128 10 0 1 0 1 empty empty am 0 5 0 10 -262144 -1
-1 12700 1;
#X obj 9 157 osc~;
#X msg 12 51 1;
#X obj 3 229 outlet~;
#X obj 8 192 *~;
#X obj 116 -20 inlet;
#X text 120 -41 sync;
#X connect 0 0 4 0;
#X connect 1 0 3 0;
#X connect 2 0 6 1;
#X connect 3 0 6 0;
#X connect 4 0 3 1;
#X connect 6 0 5 0;
#X connect 7 0 4 0;
#X coords 0 -1 1 1 140 40 1 100 100;
#X restore 194 22 pd lfo1a;
#N canvas 569 270 891 641 lfo1rnd 0;
#X obj -41 455 *;
#X obj -45 -148 loadbang;
#X msg 48 -121 bang;
#X obj -42 499 outlet;
#X obj 107 114 hsl 128 10 0.01 10 1 1 empty empty frq 0 5 0 10 -262144
-1 -1 7600 1;
#X obj 107 126 hsl 128 10 0 1 0 1 empty empty am 0 5 0 10 -262144 -1
-1 12700 1;
#X obj 13 -91 metro 5;
#X obj -51 37 float;
#X obj 2 76 / 200;
#X obj -9 51 wrap;
#X obj -66 264 cos;
#X obj -57 133 * 6.28319;
#X obj 57 -147 inlet;
#X text 61 -168 sync;
#X obj 107 138 hsl 128 10 0 1 0 1 empty empty rnd 0 5 0 10 -262144
-1 -1 11200 1;
#X obj -52 419 line;
#X obj -51 395 pack f 5;
#X obj -45 79 + 0.01;
#X obj 28 106 random 1000;
#X obj -52 348 *;
#X obj -41 219 -;
#X msg -40 192 1;
#X obj -32 169 t b f;
#X obj -49 374 +;
#X obj 3 292 *;
#X obj -48 109 t f f;
#X obj -17 350 line;
#X obj -1 318 pack f f;
#X obj 118 208 /;
#X msg 104 187 1;
#X obj 112 168 t b f;
#X obj 113 231 * 5;
#X obj 119 259 *;
#X msg 194 196 1;
#X obj 203 224 -;
#X obj 32 205 clip -1 1;
#X obj 30 163 * 10000;
#X obj 8 233 *;
#X obj 18 131 / 1000;
#X obj 133 1 change;
#X obj 68 53 select -1 1;
#X obj 189 175 t b b f;
#X connect 0 0 3 0;
#X connect 1 0 6 0;
#X connect 2 0 6 0;
#X connect 4 0 8 0;
#X connect 5 0 0 1;
#X connect 6 0 7 0;
#X connect 7 0 17 0;
#X connect 8 0 17 1;
#X connect 8 0 30 0;
#X connect 9 0 7 1;
#X connect 10 0 19 0;
#X connect 10 0 36 0;
#X connect 11 0 10 0;
#X connect 12 0 2 0;
#X connect 14 0 22 0;
#X connect 14 0 24 1;
#X connect 14 0 41 0;
#X connect 15 0 0 0;
#X connect 16 0 15 0;
#X connect 17 0 9 0;
#X connect 17 0 25 0;
#X connect 18 0 38 0;
#X connect 19 0 23 0;
#X connect 20 0 19 1;
#X connect 21 0 20 0;
#X connect 22 0 21 0;
#X connect 22 1 20 1;
#X connect 23 0 16 0;
#X connect 24 0 27 0;
#X connect 25 0 11 0;
#X connect 26 0 23 1;
#X connect 27 0 26 0;
#X connect 28 0 31 0;
#X connect 29 0 28 0;
#X connect 30 0 29 0;
#X connect 30 1 28 1;
#X connect 31 0 32 0;
#X connect 32 0 27 1;
#X connect 33 0 34 0;
#X connect 34 0 32 1;
#X connect 35 0 37 1;
#X connect 35 0 39 0;
#X connect 36 0 35 0;
#X connect 37 0 24 0;
#X connect 38 0 37 0;
#X connect 39 0 40 0;
#X connect 40 0 18 0;
#X connect 40 1 18 0;
#X connect 41 0 29 0;
#X connect 41 1 33 0;
#X connect 41 2 34 1;
#X coords 0 -1 1 1 140 50 1 100 100;
#X restore 84 115 pd lfo1rnd;
#X floatatom 39 75 5 0 0 0 - - -, f 5;
#X floatatom 81 181 5 0 0 0 - - -, f 5;
#X connect 0 0 3 0;
#X connect 2 0 4 0;
