#N canvas 322 203 816 599 10;
#X obj 72 474 dac~;
#X obj 71 434 *~ 0.5;
#X obj 295 231 route 1;
#X obj 425 221 ctlin 64;
#N canvas 208 77 1587 999 tri_ops4p 0;
#X obj 128 117 vsl 8 81 0.1 1 0 1 empty empty a 2 4 0 10 -204800 -1
-1 700 1;
#X obj 166 117 vsl 8 81 0.1 1 0 1 empty empty d 2 4 0 10 -204800 -1
-1 3600 1;
#X obj 240 117 vsl 8 81 0.2 1 0 1 empty empty r 2 4 0 10 -204800 -1
-1 1900 1;
#X obj 202 117 vsl 8 81 0 1 0 1 empty empty s 2 4 0 10 -204800 -1 -1
3700 1;
#X obj 268 115 vradio 15 1 1 5 empty empty empty 0 -8 0 10 -204786
-1 -1 0;
#X obj 202 920 outlet~;
#X obj 314 115 vradio 15 1 1 5 empty empty empty 0 -8 0 10 -262130
-1 -1 0;
#X obj 253 192 nbx 4 14 0.25 16 0 1 empty empty empty 0 -8 0 10 -204786
-1 -1 1 256;
#X obj 103 117 vsl 15 81 0.1 1 0 1 empty empty at 2 4 0 10 -204786
-1 -1 0 1;
#X obj 141 117 vsl 15 81 0.1 1 0 1 empty empty dc 2 4 0 10 -204786
-1 -1 2300 1;
#X obj 215 117 vsl 15 81 0.2 1 0 1 empty empty rl 2 4 0 10 -204786
-1 -1 2000 1;
#X obj 177 117 vsl 15 81 0 1 0 1 empty empty st 2 4 0 10 -204786 -1
-1 3000 1;
#X obj 254 117 vsl 12 70 0 0.5 0 1 empty empty fb 2 4 0 10 -204786
-1 -1 2300 1;
#X obj 300 117 vsl 12 70 0 0.5 0 1 empty empty fb 2 4 0 10 -262130
-1 -1 4400 1;
#X obj 331 117 vsl 10 70 0 1 0 1 empty empty l 2 4 0 10 -262130 -1
-1 1200 1;
#X obj 172 207 hsl 80 10 -1 1 0 1 empty empty kt 0 6 0 10 -228856 -1
-1 3900 1;
#X obj 119 117 vsl 8 81 0.1 1 0 1 empty empty a 2 4 0 10 -262130 -1
-1 300 1;
#X obj 157 117 vsl 8 81 0.1 1 0 1 empty empty d 2 4 0 10 -262130 -1
-1 1300 1;
#X obj 231 117 vsl 8 81 0.2 1 0 1 empty empty r 2 4 0 10 -262130 -1
-1 2000 1;
#X obj 193 117 vsl 8 81 0 1 0 1 empty empty s 2 4 0 10 -262130 -1 -1
3200 1;
#X obj 372 115 vradio 15 1 1 5 empty empty empty 0 -8 0 10 -204800
-1 -1 2;
#X obj 358 117 vsl 12 70 0 0.5 0 1 empty empty fb 2 4 0 10 -204800
-1 -1 6900 1;
#X obj 285 117 vsl 10 70 0 1 0 1 empty empty l 2 4 0 10 -204786 -1
-1 2900 1;
#X obj 389 117 vsl 10 70 0 1 0 1 empty empty l 2 4 0 10 -204800 -1
-1 4500 1;
#X obj 301 192 nbx 4 14 0.25 16 0 1 empty empty empty 0 -8 0 10 -262130
-1 -1 1.5 256;
#X obj 105 207 hsl 60 10 0 1 0 1 empty empty dt 0 6 0 10 -228856 -1
-1 800 1;
#X obj 165 784 *~;
#X obj 223 783 *~;
#X obj 195 850 *~ 0.25;
#X obj 309 785 *~;
#X obj 234 308 f;
#X obj -370 96 clip 0 1;
#X obj -434 70 inlet;
#X text -433 48 pitch;
#X obj -369 39 inlet;
#X text -330 41 gate;
#X obj -435 136 pack 0 0;
#X obj -457 198 pack 0 0 0;
#X obj -213 361 +;
#X obj -292 114 - 8192;
#X obj -292 159 clip -1 1;
#X obj -292 138 / 8192;
#X obj -247 332 int;
#X obj -290 188 * 2;
#X text -261 189 bend range;
#X obj -225 304 unpack 0 0;
#X obj -286 248 t b f;
#X obj -282 59 inlet;
#X text -276 40 bend;
#X obj -264 446 +;
#X obj -278 423 int;
#X obj -256 395 unpack 0 0;
#X obj -287 545 +;
#X obj -321 516 int;
#X obj -299 488 unpack 0 0;
#X obj -369 64 / 128;
#X obj -173 89 t b;
#N canvas 211 183 1549 845 tri_ops4_frequency_modulation_synthesizer_voice
0;
#X obj -415 34 inlet;
#X obj -424 293 mtof;
#X obj -299 26 inlet;
#X obj 344 306 *;
#X obj 343 355 * 10000;
#X obj 345 332 *;
#X obj -292 61 clip 0 1;
#X obj 393 273 *;
#X obj 392 322 * 10000;
#X obj 394 299 *;
#X obj 441 295 *;
#X obj 440 344 * 10000;
#X obj 442 321 *;
#X text -414 10 pitch;
#X obj -16 922 *~;
#X obj -14 951 outlet~;
#X text -296 13 gate;
#X obj 345 435 line~;
#X msg 346 412 \$1 1.6;
#X obj 66 233 *;
#X obj -18 492 *;
#X obj -215 388 *;
#X obj -27 516 *;
#X obj 102 240 *;
#X obj 86 291 * 10000;
#X obj 88 268 *;
#X obj 137 261 *;
#X obj 136 310 * 10000;
#X obj 138 287 *;
#X obj 187 272 *;
#X obj 186 321 * 10000;
#X obj 188 298 *;
#X obj 125 405 line~;
#X msg 126 382 \$1 1.6;
#X obj -63 878 abs_fm_op1;
#X obj -87 821 *~;
#X obj -203 553 *~;
#X obj -208 437 abs_fm_op1;
#X obj 104 427 *~;
#X obj 326 461 *~;
#X obj 253 293 *;
#X obj -63 558 *;
#X obj -259 153 / 128;
#X obj -260 184 *;
#X obj -61 599 +;
#X obj 556 482 *;
#X obj 560 536 * 10000;
#X obj 562 513 *;
#X obj 621 492 *;
#X obj 620 541 * 10000;
#X obj 622 518 *;
#X obj 669 514 *;
#X obj 668 563 * 10000;
#X obj 670 540 *;
#X obj 563 667 line~;
#X msg 564 644 \$1 1.6;
#X obj 287 401 *;
#X obj 268 440 *;
#X obj 224 728 abs_fm_op1;
#X obj 194 626 *~;
#X obj 544 693 *~;
#X obj 345 532 *;
#X obj 231 497 *;
#X obj 243 520 +;
#X obj 234 768 *~;
#X obj 169 644 *;
#X obj 29 473 *;
#X obj 20 508 *;
#X obj -58 830 *~;
#X obj -21 589 *;
#X obj -19 630 +;
#X obj 151 445 t b f;
#X obj -55 626 +;
#X obj -6 655 +;
#X obj 242 547 +;
#X text 466 439 fb mod;
#X text 197 449 fma mod;
#X obj 429 438 t b f;
#X obj -111 385 +;
#X obj 31 757 +;
#X obj 362 661 +;
#X obj -356 307 +;
#X obj -327 307 +;
#X obj -357 341 mtof;
#X obj -317 339 mtof;
#X obj -286 279 * -1;
#X obj -210 153 *;
#X obj -226 201 * 0.5;
#X obj 575 616 abs_adsr2m;
#X obj 344 393 abs_adsr2m;
#X obj 132 361 abs_adsr2m;
#X text -395 -8 3op fm voice;
#X obj 30 28 inlet;
#X obj 359 -24 inlet;
#X obj 27 53 t f f;
#X text 31 10 fb1;
#X obj 74 28 inlet;
#X obj 71 53 t f f;
#X text 75 10 fb2;
#X obj 114 26 inlet;
#X obj 111 51 t f f;
#X text 119 8 fb3;
#X obj 167 24 inlet;
#X obj 211 24 inlet;
#X obj 251 22 inlet;
#X text 254 3 fm3;
#X text 215 3 fm2;
#X text 174 7 fm1;
#X obj 165 50 t f f;
#X obj 209 50 t f f;
#X obj 249 48 t f f;
#X obj -222 50 inlet;
#X text -224 29 detune;
#X obj -96 30 inlet;
#X obj -21 22 inlet;
#X text -97 9 rat1;
#X text -19 3 rat2;
#X obj -276 658 outlet~;
#X obj 236 819 outlet~;
#X obj -217 87 t b f f;
#X obj 250 466 t b f;
#X obj 10 543 t b f;
#X obj -33 536 t b f;
#X obj -112 117 t b f;
#X obj -18 128 t b f;
#X obj -123 407 clip 0 0.5;
#N canvas 1 77 450 300 opwaveformselect 0;
#X obj 144 76 inlet;
#X obj 130 115 select 0 1 2 3 4;
#X msg 80 136 0 1 0 1 1 0;
#X msg 100 161 0.5 1.5 0 2 1 0;
#X msg 136 211 0 0.5 0.75 1 2 1;
#X msg 115 189 0 0.5 0.75 0.5 2 1;
#X msg 174 231 0.5 1 0 1 1 0;
#X obj 107 270 outlet;
#X text 160 270 waveform parameters;
#X text 188 75 int 0..4 (sine \, ...);
#X connect 0 0 1 0;
#X connect 1 0 2 0;
#X connect 1 1 3 0;
#X connect 1 2 5 0;
#X connect 1 3 4 0;
#X connect 1 4 6 0;
#X connect 2 0 7 0;
#X connect 3 0 7 0;
#X connect 4 0 7 0;
#X connect 5 0 7 0;
#X connect 6 0 7 0;
#X restore -150 336 pd opwaveformselect;
#N canvas 1 77 450 300 opwaveformselect 0;
#X obj 144 76 inlet;
#X obj 130 115 select 0 1 2 3 4;
#X msg 80 136 0 1 0 1 1 0;
#X msg 100 161 0.5 1.5 0 2 1 0;
#X msg 136 211 0 0.5 0.75 1 2 1;
#X msg 115 189 0 0.5 0.75 0.5 2 1;
#X msg 174 231 0.5 1 0 1 1 0;
#X obj 107 270 outlet;
#X text 160 270 waveform parameters;
#X text 188 75 int 0..4 (sine \, ...);
#X connect 0 0 1 0;
#X connect 1 0 2 0;
#X connect 1 1 3 0;
#X connect 1 2 5 0;
#X connect 1 3 4 0;
#X connect 1 4 6 0;
#X connect 2 0 7 0;
#X connect 3 0 7 0;
#X connect 4 0 7 0;
#X connect 5 0 7 0;
#X connect 6 0 7 0;
#X restore -23 835 pd opwaveformselect;
#N canvas 1 77 450 300 opwaveformselect 0;
#X obj 144 76 inlet;
#X obj 130 115 select 0 1 2 3 4;
#X msg 80 136 0 1 0 1 1 0;
#X msg 100 161 0.5 1.5 0 2 1 0;
#X msg 136 211 0 0.5 0.75 1 2 1;
#X msg 115 189 0 0.5 0.75 0.5 2 1;
#X msg 174 231 0.5 1 0 1 1 0;
#X obj 107 270 outlet;
#X text 160 270 waveform parameters;
#X text 188 75 int 0..4 (sine \, ...);
#X connect 0 0 1 0;
#X connect 1 0 2 0;
#X connect 1 1 3 0;
#X connect 1 2 5 0;
#X connect 1 3 4 0;
#X connect 1 4 6 0;
#X connect 2 0 7 0;
#X connect 3 0 7 0;
#X connect 4 0 7 0;
#X connect 5 0 7 0;
#X connect 6 0 7 0;
#X restore 277 625 pd opwaveformselect;
#X text -162 858 operator 3;
#X text 303 724 operator 2;
#X text -309 -6 op1->op2 \, op2+op1->op3;
#X text -225 474 operatoor1;
#X obj 216 600 clip~ 0 1;
#X obj 205 565 sig~;
#X obj -79 768 sig~;
#X obj -35 758 sig~;
#X obj 658 6 inlet;
#X obj 558 185 *;
#X obj 722 2 inlet;
#X obj 710 139 *;
#X text 726 -14 fb mod;
#X text 662 -10 fma mod;
#X obj 714 163 *;
#X obj 574 148 / 2;
#N canvas 1 77 1085 696 msg_lfo 0;
#X obj 52 -61 metro 5;
#X obj 51 -29 float;
#X obj 78 17 + 1;
#X obj 108 17 / 200;
#X obj 93 -15 wrap;
#X obj 54 62 cos;
#X obj 54 38 * 6.28319;
#X obj 78 176 outlet;
#X obj 194 -85 inlet;
#X obj 51 -116 loadbang;
#X msg 50 -87 bang;
#X text 208 -113 freq;
#X connect 0 0 1 0;
#X connect 1 0 2 0;
#X connect 2 0 4 0;
#X connect 2 0 6 0;
#X connect 3 0 2 1;
#X connect 4 0 1 1;
#X connect 5 0 7 0;
#X connect 6 0 5 0;
#X connect 8 0 3 0;
#X connect 9 0 10 0;
#X connect 10 0 0 0;
#X restore 558 37 pd msg_lfo;
#X obj 575 118 +;
#X obj 560 90 t b f;
#X obj 357 1 unpack f f f f f f f f f f f f f f f f f f f;
#X obj 573 63 *;
#X obj 669 72 *;
#X obj 720 107 +;
#X obj 705 79 t b f;
#X text 404 -29 3x adsr \, 3x waveform \, keytrack \, lfo freq \, fm-amt
\, fb-amt;
#X obj 19 779 clip 0 0.5;
#X obj 350 683 clip 0 0.5;
#X obj 713 210 * 0.5;
#X connect 0 0 1 0;
#X connect 0 0 42 0;
#X connect 0 0 81 0;
#X connect 0 0 82 0;
#X connect 1 0 34 0;
#X connect 2 0 6 0;
#X connect 3 0 5 1;
#X connect 3 0 5 0;
#X connect 4 0 89 1;
#X connect 5 0 4 0;
#X connect 6 0 89 0;
#X connect 6 0 90 0;
#X connect 6 0 88 0;
#X connect 7 0 9 1;
#X connect 7 0 9 0;
#X connect 8 0 89 2;
#X connect 9 0 8 0;
#X connect 10 0 12 1;
#X connect 10 0 12 0;
#X connect 11 0 89 4;
#X connect 12 0 11 0;
#X connect 14 0 15 0;
#X connect 17 0 39 0;
#X connect 17 0 39 1;
#X connect 18 0 17 0;
#X connect 19 0 78 0;
#X connect 20 0 22 1;
#X connect 20 0 22 0;
#X connect 21 0 37 0;
#X connect 22 0 122 0;
#X connect 23 0 25 1;
#X connect 23 0 25 0;
#X connect 24 0 90 1;
#X connect 25 0 24 0;
#X connect 26 0 28 1;
#X connect 26 0 28 0;
#X connect 27 0 90 2;
#X connect 28 0 27 0;
#X connect 29 0 31 1;
#X connect 29 0 31 0;
#X connect 30 0 90 4;
#X connect 31 0 30 0;
#X connect 32 0 38 0;
#X connect 32 0 38 1;
#X connect 33 0 32 0;
#X connect 34 0 14 0;
#X connect 35 0 34 1;
#X connect 36 0 35 0;
#X connect 36 0 59 0;
#X connect 36 0 117 0;
#X connect 37 0 36 0;
#X connect 38 0 36 1;
#X connect 39 0 14 1;
#X connect 40 0 79 0;
#X connect 41 0 44 0;
#X connect 42 0 43 0;
#X connect 43 0 41 0;
#X connect 43 0 62 0;
#X connect 43 0 69 0;
#X connect 44 0 72 0;
#X connect 45 0 47 1;
#X connect 45 0 47 0;
#X connect 46 0 88 1;
#X connect 47 0 46 0;
#X connect 48 0 50 1;
#X connect 48 0 50 0;
#X connect 49 0 88 2;
#X connect 50 0 49 0;
#X connect 51 0 53 1;
#X connect 51 0 53 0;
#X connect 52 0 88 4;
#X connect 53 0 52 0;
#X connect 54 0 60 0;
#X connect 54 0 60 1;
#X connect 55 0 54 0;
#X connect 56 0 57 1;
#X connect 56 0 57 0;
#X connect 57 0 120 0;
#X connect 58 0 64 0;
#X connect 59 0 58 1;
#X connect 60 0 64 1;
#X connect 61 0 80 0;
#X connect 62 0 63 0;
#X connect 63 0 74 0;
#X connect 64 0 68 0;
#X connect 64 0 118 0;
#X connect 65 0 58 0;
#X connect 66 0 67 1;
#X connect 66 0 67 0;
#X connect 67 0 121 0;
#X connect 68 0 34 1;
#X connect 69 0 70 0;
#X connect 70 0 73 0;
#X connect 71 0 72 0;
#X connect 71 0 73 0;
#X connect 71 0 74 0;
#X connect 71 1 72 1;
#X connect 71 1 73 1;
#X connect 71 1 74 1;
#X connect 72 0 135 0;
#X connect 73 0 136 0;
#X connect 74 0 134 0;
#X connect 77 0 78 0;
#X connect 77 0 79 0;
#X connect 77 0 80 0;
#X connect 77 1 78 1;
#X connect 77 1 79 1;
#X connect 77 1 80 1;
#X connect 78 0 125 0;
#X connect 79 0 154 0;
#X connect 80 0 155 0;
#X connect 81 0 83 0;
#X connect 82 0 84 0;
#X connect 83 0 65 0;
#X connect 84 0 21 0;
#X connect 85 0 82 1;
#X connect 86 0 87 0;
#X connect 87 0 85 0;
#X connect 87 0 81 1;
#X connect 88 0 55 0;
#X connect 89 0 18 0;
#X connect 90 0 33 0;
#X connect 92 0 94 0;
#X connect 93 0 148 0;
#X connect 94 0 19 0;
#X connect 94 1 19 1;
#X connect 96 0 97 0;
#X connect 97 0 61 0;
#X connect 97 1 61 1;
#X connect 99 0 100 0;
#X connect 100 0 40 0;
#X connect 100 1 40 1;
#X connect 102 0 108 0;
#X connect 103 0 109 0;
#X connect 104 0 110 0;
#X connect 108 0 20 0;
#X connect 108 1 20 1;
#X connect 109 0 66 0;
#X connect 109 1 66 1;
#X connect 110 0 56 0;
#X connect 110 1 56 1;
#X connect 111 0 119 0;
#X connect 113 0 123 0;
#X connect 114 0 124 0;
#X connect 119 0 82 0;
#X connect 119 0 81 0;
#X connect 119 1 86 0;
#X connect 119 2 86 1;
#X connect 120 0 62 0;
#X connect 120 1 63 1;
#X connect 120 1 62 1;
#X connect 121 0 69 0;
#X connect 121 1 70 1;
#X connect 121 1 69 1;
#X connect 122 0 41 0;
#X connect 122 1 44 1;
#X connect 122 1 41 1;
#X connect 123 0 21 0;
#X connect 123 1 21 1;
#X connect 124 0 65 0;
#X connect 124 1 65 1;
#X connect 125 0 37 3;
#X connect 126 0 37 2;
#X connect 127 0 34 2;
#X connect 128 0 58 2;
#X connect 133 0 59 1;
#X connect 134 0 133 0;
#X connect 135 0 35 1;
#X connect 136 0 68 1;
#X connect 137 0 146 0;
#X connect 138 0 71 0;
#X connect 139 0 152 0;
#X connect 140 0 143 1;
#X connect 140 0 143 0;
#X connect 143 0 156 0;
#X connect 144 0 138 1;
#X connect 144 0 138 0;
#X connect 145 0 149 0;
#X connect 145 0 150 0;
#X connect 146 0 144 0;
#X connect 147 0 146 0;
#X connect 147 1 146 1;
#X connect 148 0 23 1;
#X connect 148 0 23 0;
#X connect 148 1 26 1;
#X connect 148 1 26 0;
#X connect 148 2 90 3;
#X connect 148 3 29 1;
#X connect 148 3 29 0;
#X connect 148 4 45 1;
#X connect 148 4 45 0;
#X connect 148 5 48 1;
#X connect 148 5 48 0;
#X connect 148 6 88 3;
#X connect 148 7 51 1;
#X connect 148 7 51 0;
#X connect 148 8 3 1;
#X connect 148 8 3 0;
#X connect 148 9 7 1;
#X connect 148 9 7 0;
#X connect 148 10 89 3;
#X connect 148 11 10 1;
#X connect 148 11 10 0;
#X connect 148 12 126 0;
#X connect 148 13 128 0;
#X connect 148 14 127 0;
#X connect 148 15 43 1;
#X connect 148 16 145 0;
#X connect 148 17 149 1;
#X connect 148 18 150 1;
#X connect 149 0 147 0;
#X connect 150 0 151 0;
#X connect 151 0 140 1;
#X connect 151 0 140 0;
#X connect 152 0 151 0;
#X connect 152 1 151 1;
#X connect 154 0 34 3;
#X connect 155 0 58 3;
#X connect 156 0 77 0;
#X restore -181 386 pd tri_ops4_frequency_modulation_synthesizer_voice
;
#X text -592 -101 3op fm synth;
#X obj 343 117 vsl 10 70 0 1 0 1 empty empty fm 0 4 0 10 -204786 -1
-1 2700 1;
#X obj 401 117 vsl 10 70 0 1 0 1 empty empty fm 0 4 0 10 -204786 -1
-1 5800 1;
#X obj 413 117 vsl 10 70 0 1 0 1 empty empty fm 0 4 0 10 -262130 -1
-1 4600 1;
#X obj -86 90 inlet;
#X obj -5 147 inlet;
#X text -1 131 fb mod;
#X text -82 74 fma mod;
#X obj -98 202 / 128;
#X obj -459 225 route 1 2 3 4;
#N canvas 221 188 1549 845 tri_ops4_frequency_modulation_synthesizer_voice
0;
#X obj -415 34 inlet;
#X obj -424 293 mtof;
#X obj -299 26 inlet;
#X obj 344 306 *;
#X obj 343 355 * 10000;
#X obj 345 332 *;
#X obj -292 61 clip 0 1;
#X obj 393 273 *;
#X obj 392 322 * 10000;
#X obj 394 299 *;
#X obj 441 295 *;
#X obj 440 344 * 10000;
#X obj 442 321 *;
#X text -414 10 pitch;
#X obj -16 922 *~;
#X obj -14 951 outlet~;
#X text -296 13 gate;
#X obj 345 435 line~;
#X msg 346 412 \$1 1.6;
#X obj 66 233 *;
#X obj -18 492 *;
#X obj -215 388 *;
#X obj -27 516 *;
#X obj 102 240 *;
#X obj 86 291 * 10000;
#X obj 88 268 *;
#X obj 137 261 *;
#X obj 136 310 * 10000;
#X obj 138 287 *;
#X obj 187 272 *;
#X obj 186 321 * 10000;
#X obj 188 298 *;
#X obj 125 405 line~;
#X msg 126 382 \$1 1.6;
#X obj -63 878 abs_fm_op1;
#X obj -87 821 *~;
#X obj -203 553 *~;
#X obj -208 437 abs_fm_op1;
#X obj 104 427 *~;
#X obj 326 461 *~;
#X obj 253 293 *;
#X obj -63 558 *;
#X obj -259 153 / 128;
#X obj -260 184 *;
#X obj -61 599 +;
#X obj 556 482 *;
#X obj 560 536 * 10000;
#X obj 562 513 *;
#X obj 621 492 *;
#X obj 620 541 * 10000;
#X obj 622 518 *;
#X obj 669 514 *;
#X obj 668 563 * 10000;
#X obj 670 540 *;
#X obj 563 667 line~;
#X msg 564 644 \$1 1.6;
#X obj 287 401 *;
#X obj 268 440 *;
#X obj 224 728 abs_fm_op1;
#X obj 194 626 *~;
#X obj 544 693 *~;
#X obj 345 532 *;
#X obj 231 497 *;
#X obj 243 520 +;
#X obj 234 768 *~;
#X obj 169 644 *;
#X obj 29 473 *;
#X obj 20 508 *;
#X obj -58 830 *~;
#X obj -21 589 *;
#X obj -19 630 +;
#X obj 151 445 t b f;
#X obj -55 626 +;
#X obj -6 655 +;
#X obj 242 547 +;
#X text 466 439 fb mod;
#X text 197 449 fma mod;
#X obj 429 438 t b f;
#X obj -111 385 +;
#X obj 31 757 +;
#X obj 362 661 +;
#X obj -356 307 +;
#X obj -327 307 +;
#X obj -357 341 mtof;
#X obj -317 339 mtof;
#X obj -286 279 * -1;
#X obj -210 153 *;
#X obj -226 201 * 0.5;
#X obj 575 616 abs_adsr2m;
#X obj 344 393 abs_adsr2m;
#X obj 132 361 abs_adsr2m;
#X text -395 -8 3op fm voice;
#X obj 30 28 inlet;
#X obj 359 -24 inlet;
#X obj 27 53 t f f;
#X text 31 10 fb1;
#X obj 74 28 inlet;
#X obj 71 53 t f f;
#X text 75 10 fb2;
#X obj 114 26 inlet;
#X obj 111 51 t f f;
#X text 119 8 fb3;
#X obj 167 24 inlet;
#X obj 211 24 inlet;
#X obj 251 22 inlet;
#X text 254 3 fm3;
#X text 215 3 fm2;
#X text 174 7 fm1;
#X obj 165 50 t f f;
#X obj 209 50 t f f;
#X obj 249 48 t f f;
#X obj -222 50 inlet;
#X text -224 29 detune;
#X obj -96 30 inlet;
#X obj -21 22 inlet;
#X text -97 9 rat1;
#X text -19 3 rat2;
#X obj -276 658 outlet~;
#X obj 236 819 outlet~;
#X obj -217 87 t b f f;
#X obj 250 466 t b f;
#X obj 10 543 t b f;
#X obj -33 536 t b f;
#X obj -112 117 t b f;
#X obj -18 128 t b f;
#X obj -123 407 clip 0 0.5;
#N canvas 1 77 450 300 opwaveformselect 0;
#X obj 144 76 inlet;
#X obj 130 115 select 0 1 2 3 4;
#X msg 80 136 0 1 0 1 1 0;
#X msg 100 161 0.5 1.5 0 2 1 0;
#X msg 136 211 0 0.5 0.75 1 2 1;
#X msg 115 189 0 0.5 0.75 0.5 2 1;
#X msg 174 231 0.5 1 0 1 1 0;
#X obj 107 270 outlet;
#X text 160 270 waveform parameters;
#X text 188 75 int 0..4 (sine \, ...);
#X connect 0 0 1 0;
#X connect 1 0 2 0;
#X connect 1 1 3 0;
#X connect 1 2 5 0;
#X connect 1 3 4 0;
#X connect 1 4 6 0;
#X connect 2 0 7 0;
#X connect 3 0 7 0;
#X connect 4 0 7 0;
#X connect 5 0 7 0;
#X connect 6 0 7 0;
#X restore -150 336 pd opwaveformselect;
#N canvas 1 77 450 300 opwaveformselect 0;
#X obj 144 76 inlet;
#X obj 130 115 select 0 1 2 3 4;
#X msg 80 136 0 1 0 1 1 0;
#X msg 100 161 0.5 1.5 0 2 1 0;
#X msg 136 211 0 0.5 0.75 1 2 1;
#X msg 115 189 0 0.5 0.75 0.5 2 1;
#X msg 174 231 0.5 1 0 1 1 0;
#X obj 107 270 outlet;
#X text 160 270 waveform parameters;
#X text 188 75 int 0..4 (sine \, ...);
#X connect 0 0 1 0;
#X connect 1 0 2 0;
#X connect 1 1 3 0;
#X connect 1 2 5 0;
#X connect 1 3 4 0;
#X connect 1 4 6 0;
#X connect 2 0 7 0;
#X connect 3 0 7 0;
#X connect 4 0 7 0;
#X connect 5 0 7 0;
#X connect 6 0 7 0;
#X restore -23 835 pd opwaveformselect;
#N canvas 1 77 450 300 opwaveformselect 0;
#X obj 144 76 inlet;
#X obj 130 115 select 0 1 2 3 4;
#X msg 80 136 0 1 0 1 1 0;
#X msg 100 161 0.5 1.5 0 2 1 0;
#X msg 136 211 0 0.5 0.75 1 2 1;
#X msg 115 189 0 0.5 0.75 0.5 2 1;
#X msg 174 231 0.5 1 0 1 1 0;
#X obj 107 270 outlet;
#X text 160 270 waveform parameters;
#X text 188 75 int 0..4 (sine \, ...);
#X connect 0 0 1 0;
#X connect 1 0 2 0;
#X connect 1 1 3 0;
#X connect 1 2 5 0;
#X connect 1 3 4 0;
#X connect 1 4 6 0;
#X connect 2 0 7 0;
#X connect 3 0 7 0;
#X connect 4 0 7 0;
#X connect 5 0 7 0;
#X connect 6 0 7 0;
#X restore 277 625 pd opwaveformselect;
#X text -162 858 operator 3;
#X text 303 724 operator 2;
#X text -309 -6 op1->op2 \, op2+op1->op3;
#X text -225 474 operatoor1;
#X obj 216 600 clip~ 0 1;
#X obj 205 565 sig~;
#X obj -79 768 sig~;
#X obj -35 758 sig~;
#X obj 658 6 inlet;
#X obj 575 190 *;
#X obj 722 2 inlet;
#X obj 685 215 *;
#X text 726 -14 fb mod;
#X text 662 -10 fma mod;
#X obj 689 239 *;
#X obj 592 157 / 2;
#N canvas 1 77 1085 696 msg_lfo 0;
#X obj 52 -61 metro 5;
#X obj 51 -29 float;
#X obj 78 17 + 1;
#X obj 108 17 / 200;
#X obj 93 -15 wrap;
#X obj 54 62 cos;
#X obj 54 38 * 6.28319;
#X obj 60 147 outlet;
#X obj 194 -85 inlet;
#X obj 51 -116 loadbang;
#X msg 50 -87 bang;
#X text 208 -113 freq;
#X connect 0 0 1 0;
#X connect 1 0 2 0;
#X connect 2 0 4 0;
#X connect 2 0 6 0;
#X connect 3 0 2 1;
#X connect 4 0 1 1;
#X connect 5 0 7 0;
#X connect 6 0 5 0;
#X connect 8 0 3 0;
#X connect 9 0 10 0;
#X connect 10 0 0 0;
#X restore 558 37 pd msg_lfo;
#X obj 589 121 +;
#X obj 574 93 t b f;
#X obj 357 1 unpack f f f f f f f f f f f f f f f f f f f;
#X obj 573 63 *;
#X obj 669 72 *;
#X obj 720 127 +;
#X obj 714 95 t b f;
#X text 404 -29 3x adsr \, 3x waveform \, keytrack \, lfo freq \, fm-amt
\, fb-amt;
#X obj 19 779 clip 0 0.5;
#X obj 350 683 clip 0 0.5;
#X obj 678 298 * 0.5;
#X connect 0 0 1 0;
#X connect 0 0 42 0;
#X connect 0 0 81 0;
#X connect 0 0 82 0;
#X connect 1 0 34 0;
#X connect 2 0 6 0;
#X connect 3 0 5 1;
#X connect 3 0 5 0;
#X connect 4 0 89 1;
#X connect 5 0 4 0;
#X connect 6 0 89 0;
#X connect 6 0 90 0;
#X connect 6 0 88 0;
#X connect 7 0 9 1;
#X connect 7 0 9 0;
#X connect 8 0 89 2;
#X connect 9 0 8 0;
#X connect 10 0 12 1;
#X connect 10 0 12 0;
#X connect 11 0 89 4;
#X connect 12 0 11 0;
#X connect 14 0 15 0;
#X connect 17 0 39 0;
#X connect 17 0 39 1;
#X connect 18 0 17 0;
#X connect 19 0 78 0;
#X connect 20 0 22 1;
#X connect 20 0 22 0;
#X connect 21 0 37 0;
#X connect 22 0 122 0;
#X connect 23 0 25 1;
#X connect 23 0 25 0;
#X connect 24 0 90 1;
#X connect 25 0 24 0;
#X connect 26 0 28 1;
#X connect 26 0 28 0;
#X connect 27 0 90 2;
#X connect 28 0 27 0;
#X connect 29 0 31 1;
#X connect 29 0 31 0;
#X connect 30 0 90 4;
#X connect 31 0 30 0;
#X connect 32 0 38 0;
#X connect 32 0 38 1;
#X connect 33 0 32 0;
#X connect 34 0 14 0;
#X connect 35 0 34 1;
#X connect 36 0 35 0;
#X connect 36 0 59 0;
#X connect 36 0 117 0;
#X connect 37 0 36 0;
#X connect 38 0 36 1;
#X connect 39 0 14 1;
#X connect 40 0 79 0;
#X connect 41 0 44 0;
#X connect 42 0 43 0;
#X connect 43 0 41 0;
#X connect 43 0 62 0;
#X connect 43 0 69 0;
#X connect 44 0 72 0;
#X connect 45 0 47 1;
#X connect 45 0 47 0;
#X connect 46 0 88 1;
#X connect 47 0 46 0;
#X connect 48 0 50 1;
#X connect 48 0 50 0;
#X connect 49 0 88 2;
#X connect 50 0 49 0;
#X connect 51 0 53 1;
#X connect 51 0 53 0;
#X connect 52 0 88 4;
#X connect 53 0 52 0;
#X connect 54 0 60 0;
#X connect 54 0 60 1;
#X connect 55 0 54 0;
#X connect 56 0 57 1;
#X connect 56 0 57 0;
#X connect 57 0 120 0;
#X connect 58 0 64 0;
#X connect 59 0 58 1;
#X connect 60 0 64 1;
#X connect 61 0 80 0;
#X connect 62 0 63 0;
#X connect 63 0 74 0;
#X connect 64 0 68 0;
#X connect 64 0 118 0;
#X connect 65 0 58 0;
#X connect 66 0 67 1;
#X connect 66 0 67 0;
#X connect 67 0 121 0;
#X connect 68 0 34 1;
#X connect 69 0 70 0;
#X connect 70 0 73 0;
#X connect 71 0 72 0;
#X connect 71 0 73 0;
#X connect 71 0 74 0;
#X connect 71 1 72 1;
#X connect 71 1 73 1;
#X connect 71 1 74 1;
#X connect 72 0 135 0;
#X connect 73 0 136 0;
#X connect 74 0 134 0;
#X connect 77 0 78 0;
#X connect 77 0 79 0;
#X connect 77 0 80 0;
#X connect 77 1 78 1;
#X connect 77 1 79 1;
#X connect 77 1 80 1;
#X connect 78 0 125 0;
#X connect 79 0 154 0;
#X connect 80 0 155 0;
#X connect 81 0 83 0;
#X connect 82 0 84 0;
#X connect 83 0 65 0;
#X connect 84 0 21 0;
#X connect 85 0 82 1;
#X connect 86 0 87 0;
#X connect 87 0 85 0;
#X connect 87 0 81 1;
#X connect 88 0 55 0;
#X connect 89 0 18 0;
#X connect 90 0 33 0;
#X connect 92 0 94 0;
#X connect 93 0 148 0;
#X connect 94 0 19 0;
#X connect 94 1 19 1;
#X connect 96 0 97 0;
#X connect 97 0 61 0;
#X connect 97 1 61 1;
#X connect 99 0 100 0;
#X connect 100 0 40 0;
#X connect 100 1 40 1;
#X connect 102 0 108 0;
#X connect 103 0 109 0;
#X connect 104 0 110 0;
#X connect 108 0 20 0;
#X connect 108 1 20 1;
#X connect 109 0 66 0;
#X connect 109 1 66 1;
#X connect 110 0 56 0;
#X connect 110 1 56 1;
#X connect 111 0 119 0;
#X connect 113 0 123 0;
#X connect 114 0 124 0;
#X connect 119 0 82 0;
#X connect 119 0 81 0;
#X connect 119 1 86 0;
#X connect 119 2 86 1;
#X connect 120 0 62 0;
#X connect 120 1 63 1;
#X connect 120 1 62 1;
#X connect 121 0 69 0;
#X connect 121 1 70 1;
#X connect 121 1 69 1;
#X connect 122 0 41 0;
#X connect 122 1 44 1;
#X connect 122 1 41 1;
#X connect 123 0 21 0;
#X connect 123 1 21 1;
#X connect 124 0 65 0;
#X connect 124 1 65 1;
#X connect 125 0 37 3;
#X connect 126 0 37 2;
#X connect 127 0 34 2;
#X connect 128 0 58 2;
#X connect 133 0 59 1;
#X connect 134 0 133 0;
#X connect 135 0 35 1;
#X connect 136 0 68 1;
#X connect 137 0 146 0;
#X connect 138 0 71 0;
#X connect 139 0 152 0;
#X connect 140 0 143 1;
#X connect 140 0 143 0;
#X connect 143 0 156 0;
#X connect 144 0 138 1;
#X connect 144 0 138 0;
#X connect 145 0 149 0;
#X connect 145 0 150 0;
#X connect 146 0 144 0;
#X connect 147 0 146 0;
#X connect 147 1 146 1;
#X connect 148 0 23 1;
#X connect 148 0 23 0;
#X connect 148 1 26 1;
#X connect 148 1 26 0;
#X connect 148 2 90 3;
#X connect 148 3 29 1;
#X connect 148 3 29 0;
#X connect 148 4 45 1;
#X connect 148 4 45 0;
#X connect 148 5 48 1;
#X connect 148 5 48 0;
#X connect 148 6 88 3;
#X connect 148 7 51 1;
#X connect 148 7 51 0;
#X connect 148 8 3 1;
#X connect 148 8 3 0;
#X connect 148 9 7 1;
#X connect 148 9 7 0;
#X connect 148 10 89 3;
#X connect 148 11 10 1;
#X connect 148 11 10 0;
#X connect 148 12 126 0;
#X connect 148 13 128 0;
#X connect 148 14 127 0;
#X connect 148 15 43 1;
#X connect 148 16 145 0;
#X connect 148 17 149 1;
#X connect 148 18 150 1;
#X connect 149 0 147 0;
#X connect 150 0 151 0;
#X connect 151 0 140 1;
#X connect 151 0 140 0;
#X connect 152 0 151 0;
#X connect 152 1 151 1;
#X connect 154 0 34 3;
#X connect 155 0 58 3;
#X connect 156 0 77 0;
#X restore -217 471 pd tri_ops4_frequency_modulation_synthesizer_voice
;
#N canvas 217 186 1549 845 tri_ops4_frequency_modulation_synthesizer_voice
0;
#X obj -415 34 inlet;
#X obj -424 293 mtof;
#X obj -299 26 inlet;
#X obj 344 306 *;
#X obj 343 355 * 10000;
#X obj 345 332 *;
#X obj -292 61 clip 0 1;
#X obj 393 273 *;
#X obj 392 322 * 10000;
#X obj 394 299 *;
#X obj 441 295 *;
#X obj 440 344 * 10000;
#X obj 442 321 *;
#X text -414 10 pitch;
#X obj -16 922 *~;
#X obj -14 951 outlet~;
#X text -296 13 gate;
#X obj 345 435 line~;
#X msg 346 412 \$1 1.6;
#X obj 66 233 *;
#X obj -18 492 *;
#X obj -215 388 *;
#X obj -27 516 *;
#X obj 102 240 *;
#X obj 86 291 * 10000;
#X obj 88 268 *;
#X obj 137 261 *;
#X obj 136 310 * 10000;
#X obj 138 287 *;
#X obj 187 272 *;
#X obj 186 321 * 10000;
#X obj 188 298 *;
#X obj 125 405 line~;
#X msg 126 382 \$1 1.6;
#X obj -63 878 abs_fm_op1;
#X obj -87 821 *~;
#X obj -203 553 *~;
#X obj -208 437 abs_fm_op1;
#X obj 104 427 *~;
#X obj 326 461 *~;
#X obj 253 293 *;
#X obj -63 558 *;
#X obj -259 153 / 128;
#X obj -260 184 *;
#X obj -61 599 +;
#X obj 556 482 *;
#X obj 560 536 * 10000;
#X obj 562 513 *;
#X obj 621 492 *;
#X obj 620 541 * 10000;
#X obj 622 518 *;
#X obj 669 514 *;
#X obj 668 563 * 10000;
#X obj 670 540 *;
#X obj 563 667 line~;
#X msg 564 644 \$1 1.6;
#X obj 287 401 *;
#X obj 268 440 *;
#X obj 224 728 abs_fm_op1;
#X obj 194 626 *~;
#X obj 544 693 *~;
#X obj 345 532 *;
#X obj 231 497 *;
#X obj 243 520 +;
#X obj 234 768 *~;
#X obj 169 644 *;
#X obj 29 473 *;
#X obj 20 508 *;
#X obj -58 830 *~;
#X obj -21 589 *;
#X obj -19 630 +;
#X obj 151 445 t b f;
#X obj -55 626 +;
#X obj -6 655 +;
#X obj 242 547 +;
#X text 466 439 fb mod;
#X text 197 449 fma mod;
#X obj 429 438 t b f;
#X obj -111 385 +;
#X obj 31 757 +;
#X obj 362 661 +;
#X obj -356 307 +;
#X obj -327 307 +;
#X obj -357 341 mtof;
#X obj -317 339 mtof;
#X obj -286 279 * -1;
#X obj -210 153 *;
#X obj -226 201 * 0.5;
#X obj 575 616 abs_adsr2m;
#X obj 344 393 abs_adsr2m;
#X obj 132 361 abs_adsr2m;
#X text -395 -8 3op fm voice;
#X obj 30 28 inlet;
#X obj 359 -24 inlet;
#X obj 27 53 t f f;
#X text 31 10 fb1;
#X obj 74 28 inlet;
#X obj 71 53 t f f;
#X text 75 10 fb2;
#X obj 114 26 inlet;
#X obj 111 51 t f f;
#X text 119 8 fb3;
#X obj 167 24 inlet;
#X obj 211 24 inlet;
#X obj 251 22 inlet;
#X text 254 3 fm3;
#X text 215 3 fm2;
#X text 174 7 fm1;
#X obj 165 50 t f f;
#X obj 209 50 t f f;
#X obj 249 48 t f f;
#X obj -222 50 inlet;
#X text -224 29 detune;
#X obj -96 30 inlet;
#X obj -21 22 inlet;
#X text -97 9 rat1;
#X text -19 3 rat2;
#X obj -276 658 outlet~;
#X obj 236 819 outlet~;
#X obj -217 87 t b f f;
#X obj 250 466 t b f;
#X obj 10 543 t b f;
#X obj -33 536 t b f;
#X obj -112 117 t b f;
#X obj -18 128 t b f;
#X obj -123 407 clip 0 0.5;
#N canvas 1 77 450 300 opwaveformselect 0;
#X obj 144 76 inlet;
#X obj 130 115 select 0 1 2 3 4;
#X msg 80 136 0 1 0 1 1 0;
#X msg 100 161 0.5 1.5 0 2 1 0;
#X msg 136 211 0 0.5 0.75 1 2 1;
#X msg 115 189 0 0.5 0.75 0.5 2 1;
#X msg 174 231 0.5 1 0 1 1 0;
#X obj 107 270 outlet;
#X text 160 270 waveform parameters;
#X text 188 75 int 0..4 (sine \, ...);
#X connect 0 0 1 0;
#X connect 1 0 2 0;
#X connect 1 1 3 0;
#X connect 1 2 5 0;
#X connect 1 3 4 0;
#X connect 1 4 6 0;
#X connect 2 0 7 0;
#X connect 3 0 7 0;
#X connect 4 0 7 0;
#X connect 5 0 7 0;
#X connect 6 0 7 0;
#X restore -150 336 pd opwaveformselect;
#N canvas 1 77 450 300 opwaveformselect 0;
#X obj 144 76 inlet;
#X obj 130 115 select 0 1 2 3 4;
#X msg 80 136 0 1 0 1 1 0;
#X msg 100 161 0.5 1.5 0 2 1 0;
#X msg 136 211 0 0.5 0.75 1 2 1;
#X msg 115 189 0 0.5 0.75 0.5 2 1;
#X msg 174 231 0.5 1 0 1 1 0;
#X obj 107 270 outlet;
#X text 160 270 waveform parameters;
#X text 188 75 int 0..4 (sine \, ...);
#X connect 0 0 1 0;
#X connect 1 0 2 0;
#X connect 1 1 3 0;
#X connect 1 2 5 0;
#X connect 1 3 4 0;
#X connect 1 4 6 0;
#X connect 2 0 7 0;
#X connect 3 0 7 0;
#X connect 4 0 7 0;
#X connect 5 0 7 0;
#X connect 6 0 7 0;
#X restore -23 835 pd opwaveformselect;
#N canvas 1 77 450 300 opwaveformselect 0;
#X obj 144 76 inlet;
#X obj 130 115 select 0 1 2 3 4;
#X msg 80 136 0 1 0 1 1 0;
#X msg 100 161 0.5 1.5 0 2 1 0;
#X msg 136 211 0 0.5 0.75 1 2 1;
#X msg 115 189 0 0.5 0.75 0.5 2 1;
#X msg 174 231 0.5 1 0 1 1 0;
#X obj 107 270 outlet;
#X text 160 270 waveform parameters;
#X text 188 75 int 0..4 (sine \, ...);
#X connect 0 0 1 0;
#X connect 1 0 2 0;
#X connect 1 1 3 0;
#X connect 1 2 5 0;
#X connect 1 3 4 0;
#X connect 1 4 6 0;
#X connect 2 0 7 0;
#X connect 3 0 7 0;
#X connect 4 0 7 0;
#X connect 5 0 7 0;
#X connect 6 0 7 0;
#X restore 277 625 pd opwaveformselect;
#X text -162 858 operator 3;
#X text 303 724 operator 2;
#X text -309 -6 op1->op2 \, op2+op1->op3;
#X text -225 474 operatoor1;
#X obj 216 600 clip~ 0 1;
#X obj 205 565 sig~;
#X obj -79 768 sig~;
#X obj -35 758 sig~;
#X obj 658 6 inlet;
#X obj 580 212 *;
#X obj 722 2 inlet;
#X obj 728 180 *;
#X text 726 -14 fb mod;
#X text 662 -10 fma mod;
#X obj 732 204 *;
#X obj 586 165 / 2;
#N canvas 1 77 1085 696 msg_lfo 0;
#X obj 52 -61 metro 5;
#X obj 51 -29 float;
#X obj 78 17 + 1;
#X obj 108 17 / 200;
#X obj 93 -15 wrap;
#X obj 54 62 cos;
#X obj 54 38 * 6.28319;
#X obj 78 176 outlet;
#X obj 194 -85 inlet;
#X obj 51 -116 loadbang;
#X msg 50 -87 bang;
#X text 208 -113 freq;
#X connect 0 0 1 0;
#X connect 1 0 2 0;
#X connect 2 0 4 0;
#X connect 2 0 6 0;
#X connect 3 0 2 1;
#X connect 4 0 1 1;
#X connect 5 0 7 0;
#X connect 6 0 5 0;
#X connect 8 0 3 0;
#X connect 9 0 10 0;
#X connect 10 0 0 0;
#X restore 558 37 pd msg_lfo;
#X obj 590 133 +;
#X obj 575 105 t b f;
#X obj 573 63 *;
#X obj 669 72 *;
#X obj 720 107 +;
#X obj 705 79 t b f;
#X obj 357 1 unpack f f f f f f f f f f f f f f f f f f f;
#X text 404 -29 3x adsr \, 3x waveform \, keytrack \, lfo freq \, fm-amt
\, fb-amt;
#X obj 350 683 clip 0 0.5;
#X obj 19 779 clip 0 0.5;
#X obj 720 239 * 0.5;
#X connect 0 0 1 0;
#X connect 0 0 42 0;
#X connect 0 0 81 0;
#X connect 0 0 82 0;
#X connect 1 0 34 0;
#X connect 2 0 6 0;
#X connect 3 0 5 1;
#X connect 3 0 5 0;
#X connect 4 0 89 1;
#X connect 5 0 4 0;
#X connect 6 0 89 0;
#X connect 6 0 90 0;
#X connect 6 0 88 0;
#X connect 7 0 9 1;
#X connect 7 0 9 0;
#X connect 8 0 89 2;
#X connect 9 0 8 0;
#X connect 10 0 12 1;
#X connect 10 0 12 0;
#X connect 11 0 89 4;
#X connect 12 0 11 0;
#X connect 14 0 15 0;
#X connect 17 0 39 0;
#X connect 17 0 39 1;
#X connect 18 0 17 0;
#X connect 19 0 78 0;
#X connect 20 0 22 1;
#X connect 20 0 22 0;
#X connect 21 0 37 0;
#X connect 22 0 122 0;
#X connect 23 0 25 1;
#X connect 23 0 25 0;
#X connect 24 0 90 1;
#X connect 25 0 24 0;
#X connect 26 0 28 1;
#X connect 26 0 28 0;
#X connect 27 0 90 2;
#X connect 28 0 27 0;
#X connect 29 0 31 1;
#X connect 29 0 31 0;
#X connect 30 0 90 4;
#X connect 31 0 30 0;
#X connect 32 0 38 0;
#X connect 32 0 38 1;
#X connect 33 0 32 0;
#X connect 34 0 14 0;
#X connect 35 0 34 1;
#X connect 36 0 35 0;
#X connect 36 0 59 0;
#X connect 36 0 117 0;
#X connect 37 0 36 0;
#X connect 38 0 36 1;
#X connect 39 0 14 1;
#X connect 40 0 79 0;
#X connect 41 0 44 0;
#X connect 42 0 43 0;
#X connect 43 0 41 0;
#X connect 43 0 62 0;
#X connect 43 0 69 0;
#X connect 44 0 72 0;
#X connect 45 0 47 1;
#X connect 45 0 47 0;
#X connect 46 0 88 1;
#X connect 47 0 46 0;
#X connect 48 0 50 1;
#X connect 48 0 50 0;
#X connect 49 0 88 2;
#X connect 50 0 49 0;
#X connect 51 0 53 1;
#X connect 51 0 53 0;
#X connect 52 0 88 4;
#X connect 53 0 52 0;
#X connect 54 0 60 0;
#X connect 54 0 60 1;
#X connect 55 0 54 0;
#X connect 56 0 57 1;
#X connect 56 0 57 0;
#X connect 57 0 120 0;
#X connect 58 0 64 0;
#X connect 59 0 58 1;
#X connect 60 0 64 1;
#X connect 61 0 80 0;
#X connect 62 0 63 0;
#X connect 63 0 74 0;
#X connect 64 0 68 0;
#X connect 64 0 118 0;
#X connect 65 0 58 0;
#X connect 66 0 67 1;
#X connect 66 0 67 0;
#X connect 67 0 121 0;
#X connect 68 0 34 1;
#X connect 69 0 70 0;
#X connect 70 0 73 0;
#X connect 71 0 72 0;
#X connect 71 0 73 0;
#X connect 71 0 74 0;
#X connect 71 1 72 1;
#X connect 71 1 73 1;
#X connect 71 1 74 1;
#X connect 72 0 135 0;
#X connect 73 0 136 0;
#X connect 74 0 134 0;
#X connect 77 0 78 0;
#X connect 77 0 79 0;
#X connect 77 0 80 0;
#X connect 77 1 78 1;
#X connect 77 1 79 1;
#X connect 77 1 80 1;
#X connect 78 0 125 0;
#X connect 79 0 155 0;
#X connect 80 0 154 0;
#X connect 81 0 83 0;
#X connect 82 0 84 0;
#X connect 83 0 65 0;
#X connect 84 0 21 0;
#X connect 85 0 82 1;
#X connect 86 0 87 0;
#X connect 87 0 85 0;
#X connect 87 0 81 1;
#X connect 88 0 55 0;
#X connect 89 0 18 0;
#X connect 90 0 33 0;
#X connect 92 0 94 0;
#X connect 93 0 152 0;
#X connect 94 0 19 0;
#X connect 94 1 19 1;
#X connect 96 0 97 0;
#X connect 97 0 61 0;
#X connect 97 1 61 1;
#X connect 99 0 100 0;
#X connect 100 0 40 0;
#X connect 100 1 40 1;
#X connect 102 0 108 0;
#X connect 103 0 109 0;
#X connect 104 0 110 0;
#X connect 108 0 20 0;
#X connect 108 1 20 1;
#X connect 109 0 66 0;
#X connect 109 1 66 1;
#X connect 110 0 56 0;
#X connect 110 1 56 1;
#X connect 111 0 119 0;
#X connect 113 0 123 0;
#X connect 114 0 124 0;
#X connect 119 0 82 0;
#X connect 119 0 81 0;
#X connect 119 1 86 0;
#X connect 119 2 86 1;
#X connect 120 0 62 0;
#X connect 120 1 63 1;
#X connect 120 1 62 1;
#X connect 121 0 69 0;
#X connect 121 1 70 1;
#X connect 121 1 69 1;
#X connect 122 0 41 0;
#X connect 122 1 44 1;
#X connect 122 1 41 1;
#X connect 123 0 21 0;
#X connect 123 1 21 1;
#X connect 124 0 65 0;
#X connect 124 1 65 1;
#X connect 125 0 37 3;
#X connect 126 0 37 2;
#X connect 127 0 34 2;
#X connect 128 0 58 2;
#X connect 133 0 59 1;
#X connect 134 0 133 0;
#X connect 135 0 35 1;
#X connect 136 0 68 1;
#X connect 137 0 146 0;
#X connect 138 0 71 0;
#X connect 139 0 151 0;
#X connect 140 0 143 1;
#X connect 140 0 143 0;
#X connect 143 0 156 0;
#X connect 144 0 138 1;
#X connect 144 0 138 0;
#X connect 145 0 148 0;
#X connect 145 0 149 0;
#X connect 146 0 144 0;
#X connect 147 0 146 0;
#X connect 147 1 146 1;
#X connect 148 0 147 0;
#X connect 149 0 150 0;
#X connect 150 0 140 1;
#X connect 150 0 140 0;
#X connect 151 0 150 0;
#X connect 151 1 150 1;
#X connect 152 0 23 1;
#X connect 152 0 23 0;
#X connect 152 1 26 1;
#X connect 152 1 26 0;
#X connect 152 2 90 3;
#X connect 152 3 29 1;
#X connect 152 3 29 0;
#X connect 152 4 45 1;
#X connect 152 4 45 0;
#X connect 152 5 48 1;
#X connect 152 5 48 0;
#X connect 152 6 88 3;
#X connect 152 7 51 1;
#X connect 152 7 51 0;
#X connect 152 8 3 1;
#X connect 152 8 3 0;
#X connect 152 9 7 1;
#X connect 152 9 7 0;
#X connect 152 10 89 3;
#X connect 152 11 10 1;
#X connect 152 11 10 0;
#X connect 152 12 126 0;
#X connect 152 13 128 0;
#X connect 152 14 127 0;
#X connect 152 15 43 1;
#X connect 152 16 145 0;
#X connect 152 17 148 1;
#X connect 152 18 149 1;
#X connect 154 0 58 3;
#X connect 155 0 34 3;
#X connect 156 0 77 0;
#X restore -245 578 pd tri_ops4_frequency_modulation_synthesizer_voice
;
#N canvas 225 190 1549 845 tri_ops4_frequency_modulation_synthesizer_voice
0;
#X obj -415 34 inlet;
#X obj -424 293 mtof;
#X obj -299 26 inlet;
#X obj 344 306 *;
#X obj 343 355 * 10000;
#X obj 345 332 *;
#X obj -292 61 clip 0 1;
#X obj 393 273 *;
#X obj 392 322 * 10000;
#X obj 394 299 *;
#X obj 441 295 *;
#X obj 440 344 * 10000;
#X obj 442 321 *;
#X text -414 10 pitch;
#X obj -16 922 *~;
#X obj -14 951 outlet~;
#X text -296 13 gate;
#X obj 345 435 line~;
#X msg 346 412 \$1 1.6;
#X obj 66 233 *;
#X obj -18 492 *;
#X obj -215 388 *;
#X obj -27 516 *;
#X obj 102 240 *;
#X obj 86 291 * 10000;
#X obj 88 268 *;
#X obj 137 261 *;
#X obj 136 310 * 10000;
#X obj 138 287 *;
#X obj 187 272 *;
#X obj 186 321 * 10000;
#X obj 188 298 *;
#X obj 125 405 line~;
#X msg 126 382 \$1 1.6;
#X obj -63 878 abs_fm_op1;
#X obj -87 821 *~;
#X obj -203 553 *~;
#X obj -208 437 abs_fm_op1;
#X obj 104 427 *~;
#X obj 326 461 *~;
#X obj 253 293 *;
#X obj -63 558 *;
#X obj -259 153 / 128;
#X obj -260 184 *;
#X obj -61 599 +;
#X obj 556 482 *;
#X obj 560 536 * 10000;
#X obj 562 513 *;
#X obj 621 492 *;
#X obj 620 541 * 10000;
#X obj 622 518 *;
#X obj 669 514 *;
#X obj 668 563 * 10000;
#X obj 670 540 *;
#X obj 563 667 line~;
#X msg 564 644 \$1 1.6;
#X obj 287 401 *;
#X obj 268 440 *;
#X obj 224 728 abs_fm_op1;
#X obj 194 626 *~;
#X obj 544 693 *~;
#X obj 345 532 *;
#X obj 231 497 *;
#X obj 243 520 +;
#X obj 234 768 *~;
#X obj 169 644 *;
#X obj 29 473 *;
#X obj 20 508 *;
#X obj -58 830 *~;
#X obj -21 589 *;
#X obj -19 630 +;
#X obj 151 445 t b f;
#X obj -55 626 +;
#X obj -6 655 +;
#X obj 242 547 +;
#X text 466 439 fb mod;
#X text 197 449 fma mod;
#X obj 429 438 t b f;
#X obj -111 385 +;
#X obj 31 757 +;
#X obj 362 661 +;
#X obj -356 307 +;
#X obj -327 307 +;
#X obj -357 341 mtof;
#X obj -317 339 mtof;
#X obj -286 279 * -1;
#X obj -210 153 *;
#X obj -226 201 * 0.5;
#X obj 575 616 abs_adsr2m;
#X obj 344 393 abs_adsr2m;
#X obj 132 361 abs_adsr2m;
#X text -395 -8 3op fm voice;
#X obj 30 28 inlet;
#X obj 359 -24 inlet;
#X obj 27 53 t f f;
#X text 31 10 fb1;
#X obj 74 28 inlet;
#X obj 71 53 t f f;
#X text 75 10 fb2;
#X obj 114 26 inlet;
#X obj 111 51 t f f;
#X text 119 8 fb3;
#X obj 167 24 inlet;
#X obj 211 24 inlet;
#X obj 251 22 inlet;
#X text 254 3 fm3;
#X text 215 3 fm2;
#X text 174 7 fm1;
#X obj 165 50 t f f;
#X obj 209 50 t f f;
#X obj 249 48 t f f;
#X obj -222 50 inlet;
#X text -224 29 detune;
#X obj -96 30 inlet;
#X obj -21 22 inlet;
#X text -97 9 rat1;
#X text -19 3 rat2;
#X obj -276 658 outlet~;
#X obj 236 819 outlet~;
#X obj -217 87 t b f f;
#X obj 250 466 t b f;
#X obj 10 543 t b f;
#X obj -33 536 t b f;
#X obj -112 117 t b f;
#X obj -18 128 t b f;
#X obj -123 407 clip 0 0.5;
#N canvas 1 77 450 300 opwaveformselect 0;
#X obj 144 76 inlet;
#X obj 130 115 select 0 1 2 3 4;
#X msg 80 136 0 1 0 1 1 0;
#X msg 100 161 0.5 1.5 0 2 1 0;
#X msg 136 211 0 0.5 0.75 1 2 1;
#X msg 115 189 0 0.5 0.75 0.5 2 1;
#X msg 174 231 0.5 1 0 1 1 0;
#X obj 107 270 outlet;
#X text 160 270 waveform parameters;
#X text 188 75 int 0..4 (sine \, ...);
#X connect 0 0 1 0;
#X connect 1 0 2 0;
#X connect 1 1 3 0;
#X connect 1 2 5 0;
#X connect 1 3 4 0;
#X connect 1 4 6 0;
#X connect 2 0 7 0;
#X connect 3 0 7 0;
#X connect 4 0 7 0;
#X connect 5 0 7 0;
#X connect 6 0 7 0;
#X restore -150 336 pd opwaveformselect;
#N canvas 1 77 450 300 opwaveformselect 0;
#X obj 144 76 inlet;
#X obj 130 115 select 0 1 2 3 4;
#X msg 80 136 0 1 0 1 1 0;
#X msg 100 161 0.5 1.5 0 2 1 0;
#X msg 136 211 0 0.5 0.75 1 2 1;
#X msg 115 189 0 0.5 0.75 0.5 2 1;
#X msg 174 231 0.5 1 0 1 1 0;
#X obj 107 270 outlet;
#X text 160 270 waveform parameters;
#X text 188 75 int 0..4 (sine \, ...);
#X connect 0 0 1 0;
#X connect 1 0 2 0;
#X connect 1 1 3 0;
#X connect 1 2 5 0;
#X connect 1 3 4 0;
#X connect 1 4 6 0;
#X connect 2 0 7 0;
#X connect 3 0 7 0;
#X connect 4 0 7 0;
#X connect 5 0 7 0;
#X connect 6 0 7 0;
#X restore -23 835 pd opwaveformselect;
#N canvas 1 77 450 300 opwaveformselect 0;
#X obj 144 76 inlet;
#X obj 130 115 select 0 1 2 3 4;
#X msg 80 136 0 1 0 1 1 0;
#X msg 100 161 0.5 1.5 0 2 1 0;
#X msg 136 211 0 0.5 0.75 1 2 1;
#X msg 115 189 0 0.5 0.75 0.5 2 1;
#X msg 174 231 0.5 1 0 1 1 0;
#X obj 107 270 outlet;
#X text 160 270 waveform parameters;
#X text 188 75 int 0..4 (sine \, ...);
#X connect 0 0 1 0;
#X connect 1 0 2 0;
#X connect 1 1 3 0;
#X connect 1 2 5 0;
#X connect 1 3 4 0;
#X connect 1 4 6 0;
#X connect 2 0 7 0;
#X connect 3 0 7 0;
#X connect 4 0 7 0;
#X connect 5 0 7 0;
#X connect 6 0 7 0;
#X restore 277 625 pd opwaveformselect;
#X text -162 858 operator 3;
#X text 303 724 operator 2;
#X text -309 -6 op1->op2 \, op2+op1->op3;
#X text -225 474 operatoor1;
#X obj 216 600 clip~ 0 1;
#X obj 205 565 sig~;
#X obj -79 768 sig~;
#X obj -35 758 sig~;
#X obj 658 6 inlet;
#X obj 573 234 *;
#X obj 722 2 inlet;
#X obj 730 174 *;
#X text 726 -14 fb mod;
#X text 662 -10 fma mod;
#X obj 734 198 *;
#X obj 579 187 / 2;
#N canvas 1 77 1085 696 msg_lfo 0;
#X obj 52 -61 metro 5;
#X obj 51 -29 float;
#X obj 78 17 + 1;
#X obj 108 17 / 200;
#X obj 93 -15 wrap;
#X obj 54 62 cos;
#X obj 54 38 * 6.28319;
#X obj 78 176 outlet;
#X obj 194 -85 inlet;
#X obj 51 -116 loadbang;
#X msg 50 -87 bang;
#X text 208 -113 freq;
#X connect 0 0 1 0;
#X connect 1 0 2 0;
#X connect 2 0 4 0;
#X connect 2 0 6 0;
#X connect 3 0 2 1;
#X connect 4 0 1 1;
#X connect 5 0 7 0;
#X connect 6 0 5 0;
#X connect 8 0 3 0;
#X connect 9 0 10 0;
#X connect 10 0 0 0;
#X restore 558 37 pd msg_lfo;
#X obj 585 143 +;
#X obj 570 115 t b f;
#X obj 573 63 *;
#X obj 669 72 *;
#X obj 720 107 +;
#X obj 705 79 t b f;
#X text 404 -29 3x adsr \, 3x waveform \, keytrack \, lfo freq \, fm-amt
\, fb-amt;
#X obj 357 1 unpack f f f f f f f f f f f f f f f f f f f;
#X obj 19 779 clip 0 0.5;
#X obj 350 683 clip 0 0.5;
#X obj 730 254 * 0.5;
#X connect 0 0 1 0;
#X connect 0 0 42 0;
#X connect 0 0 81 0;
#X connect 0 0 82 0;
#X connect 1 0 34 0;
#X connect 2 0 6 0;
#X connect 3 0 5 1;
#X connect 3 0 5 0;
#X connect 4 0 89 1;
#X connect 5 0 4 0;
#X connect 6 0 89 0;
#X connect 6 0 90 0;
#X connect 6 0 88 0;
#X connect 7 0 9 1;
#X connect 7 0 9 0;
#X connect 8 0 89 2;
#X connect 9 0 8 0;
#X connect 10 0 12 1;
#X connect 10 0 12 0;
#X connect 11 0 89 4;
#X connect 12 0 11 0;
#X connect 14 0 15 0;
#X connect 17 0 39 0;
#X connect 17 0 39 1;
#X connect 18 0 17 0;
#X connect 19 0 78 0;
#X connect 20 0 22 1;
#X connect 20 0 22 0;
#X connect 21 0 37 0;
#X connect 22 0 122 0;
#X connect 23 0 25 1;
#X connect 23 0 25 0;
#X connect 24 0 90 1;
#X connect 25 0 24 0;
#X connect 26 0 28 1;
#X connect 26 0 28 0;
#X connect 27 0 90 2;
#X connect 28 0 27 0;
#X connect 29 0 31 1;
#X connect 29 0 31 0;
#X connect 30 0 90 4;
#X connect 31 0 30 0;
#X connect 32 0 38 0;
#X connect 32 0 38 1;
#X connect 33 0 32 0;
#X connect 34 0 14 0;
#X connect 35 0 34 1;
#X connect 36 0 35 0;
#X connect 36 0 59 0;
#X connect 36 0 117 0;
#X connect 37 0 36 0;
#X connect 38 0 36 1;
#X connect 39 0 14 1;
#X connect 40 0 79 0;
#X connect 41 0 44 0;
#X connect 42 0 43 0;
#X connect 43 0 41 0;
#X connect 43 0 62 0;
#X connect 43 0 69 0;
#X connect 44 0 72 0;
#X connect 45 0 47 1;
#X connect 45 0 47 0;
#X connect 46 0 88 1;
#X connect 47 0 46 0;
#X connect 48 0 50 1;
#X connect 48 0 50 0;
#X connect 49 0 88 2;
#X connect 50 0 49 0;
#X connect 51 0 53 1;
#X connect 51 0 53 0;
#X connect 52 0 88 4;
#X connect 53 0 52 0;
#X connect 54 0 60 0;
#X connect 54 0 60 1;
#X connect 55 0 54 0;
#X connect 56 0 57 1;
#X connect 56 0 57 0;
#X connect 57 0 120 0;
#X connect 58 0 64 0;
#X connect 59 0 58 1;
#X connect 60 0 64 1;
#X connect 61 0 80 0;
#X connect 62 0 63 0;
#X connect 63 0 74 0;
#X connect 64 0 68 0;
#X connect 64 0 118 0;
#X connect 65 0 58 0;
#X connect 66 0 67 1;
#X connect 66 0 67 0;
#X connect 67 0 121 0;
#X connect 68 0 34 1;
#X connect 69 0 70 0;
#X connect 70 0 73 0;
#X connect 71 0 72 0;
#X connect 71 0 73 0;
#X connect 71 0 74 0;
#X connect 71 1 72 1;
#X connect 71 1 73 1;
#X connect 71 1 74 1;
#X connect 72 0 135 0;
#X connect 73 0 136 0;
#X connect 74 0 134 0;
#X connect 77 0 78 0;
#X connect 77 0 79 0;
#X connect 77 0 80 0;
#X connect 77 1 78 1;
#X connect 77 1 79 1;
#X connect 77 1 80 1;
#X connect 78 0 125 0;
#X connect 79 0 154 0;
#X connect 80 0 155 0;
#X connect 81 0 83 0;
#X connect 82 0 84 0;
#X connect 83 0 65 0;
#X connect 84 0 21 0;
#X connect 85 0 82 1;
#X connect 86 0 87 0;
#X connect 87 0 85 0;
#X connect 87 0 81 1;
#X connect 88 0 55 0;
#X connect 89 0 18 0;
#X connect 90 0 33 0;
#X connect 92 0 94 0;
#X connect 93 0 153 0;
#X connect 94 0 19 0;
#X connect 94 1 19 1;
#X connect 96 0 97 0;
#X connect 97 0 61 0;
#X connect 97 1 61 1;
#X connect 99 0 100 0;
#X connect 100 0 40 0;
#X connect 100 1 40 1;
#X connect 102 0 108 0;
#X connect 103 0 109 0;
#X connect 104 0 110 0;
#X connect 108 0 20 0;
#X connect 108 1 20 1;
#X connect 109 0 66 0;
#X connect 109 1 66 1;
#X connect 110 0 56 0;
#X connect 110 1 56 1;
#X connect 111 0 119 0;
#X connect 113 0 123 0;
#X connect 114 0 124 0;
#X connect 119 0 82 0;
#X connect 119 0 81 0;
#X connect 119 1 86 0;
#X connect 119 2 86 1;
#X connect 120 0 62 0;
#X connect 120 1 63 1;
#X connect 120 1 62 1;
#X connect 121 0 69 0;
#X connect 121 1 70 1;
#X connect 121 1 69 1;
#X connect 122 0 41 0;
#X connect 122 1 44 1;
#X connect 122 1 41 1;
#X connect 123 0 21 0;
#X connect 123 1 21 1;
#X connect 124 0 65 0;
#X connect 124 1 65 1;
#X connect 125 0 37 3;
#X connect 126 0 37 2;
#X connect 127 0 34 2;
#X connect 128 0 58 2;
#X connect 133 0 59 1;
#X connect 134 0 133 0;
#X connect 135 0 35 1;
#X connect 136 0 68 1;
#X connect 137 0 146 0;
#X connect 138 0 71 0;
#X connect 139 0 151 0;
#X connect 140 0 143 1;
#X connect 140 0 143 0;
#X connect 143 0 156 0;
#X connect 144 0 138 1;
#X connect 144 0 138 0;
#X connect 145 0 148 0;
#X connect 145 0 149 0;
#X connect 146 0 144 0;
#X connect 147 0 146 0;
#X connect 147 1 146 1;
#X connect 148 0 147 0;
#X connect 149 0 150 0;
#X connect 150 0 140 1;
#X connect 150 0 140 0;
#X connect 151 0 150 0;
#X connect 151 1 150 1;
#X connect 153 0 23 1;
#X connect 153 0 23 0;
#X connect 153 1 26 1;
#X connect 153 1 26 0;
#X connect 153 2 90 3;
#X connect 153 3 29 1;
#X connect 153 3 29 0;
#X connect 153 4 45 1;
#X connect 153 4 45 0;
#X connect 153 5 48 1;
#X connect 153 5 48 0;
#X connect 153 6 88 3;
#X connect 153 7 51 1;
#X connect 153 7 51 0;
#X connect 153 8 3 1;
#X connect 153 8 3 0;
#X connect 153 9 7 1;
#X connect 153 9 7 0;
#X connect 153 10 89 3;
#X connect 153 11 10 1;
#X connect 153 11 10 0;
#X connect 153 12 126 0;
#X connect 153 13 128 0;
#X connect 153 14 127 0;
#X connect 153 15 43 1;
#X connect 153 16 145 0;
#X connect 153 17 148 1;
#X connect 153 18 149 1;
#X connect 154 0 34 3;
#X connect 155 0 58 3;
#X connect 156 0 77 0;
#X restore -313 683 pd tri_ops4_frequency_modulation_synthesizer_voice
;
#X obj -332 658 +;
#X obj -366 629 int;
#X obj -344 601 unpack 0 0;
#X obj -453 177 poly 4 1;
#X text -664 155 set voicecount to 1 and delete other voices for a
mono-synth;
#X obj 4 69 *;
#X obj -20 -159 loadbang;
#X obj -17 43 * 1;
#X obj 232 102 hsl 80 10 0 1 0 1 empty empty vib 0 5 0 10 -262144 -1
-1 4800 1;
#X obj 321 102 hsl 80 10 0 1 0 1 empty empty am 0 5 0 10 -262144 -1
-1 1200 1;
#X obj -22 -113 metro 5;
#X obj -23 -81 float;
#X obj 4 -35 + 1;
#X obj 34 -35 / 200;
#X obj 19 -67 wrap;
#X obj -20 10 cos;
#X obj -20 -14 * 6.28319;
#X text -12 -136 vibrato lfo;
#X obj -287 224 +;
#X obj -337 197 t b f;
#X obj 87 -115 *;
#X obj 74 -91 * 20;
#X obj 74 -69 + 0.5;
#X obj 68 -11 *;
#X obj 263 208 hsl 80 10 0 1 0 1 empty empty lfo 0 5 0 10 -262144 -1
-1 2700 1;
#X obj 351 208 hsl 70 10 0 1 0 1 empty empty am-fm 0 5 0 10 -262144
-1 -1 1500 1;
#X obj 468 275 * 25;
#X obj 470 297 + 0.1;
#X obj 440 247 *;
#X obj 351 195 hsl 70 10 0 1 0 1 empty empty am-fb 0 5 0 10 -262144
-1 -1 2300 1;
#X obj 253 333 pack f f f f f f f f f f f f f f f f f f f;
#X obj 473 251 *;
#X obj 447 366 float;
#X obj 501 539 outlet;
#X obj 412 102 bng 11 250 50 0 empty empty v 3 5 0 10 -262144 -1 -1
;
#X text 498 557 preset;
#X obj 220 -39 inlet;
#X text 218 -55 preset;
#X obj 476 394 pack f f f f f f f f f f f f f f f f f f f f f f f f
f f f f f f f f f;
#X obj 215 -1 unpack f f f f f f f f f f f f f f f f f f f f f f f
f f f f f f f f f f;
#X msg 500 470 set \$1 \$2 \$3 \$4 \$5 \$6 \$7 \$8 \$9 \$10 \$11 \$12
\$13 \$14 \$15 \$16 \$17 \$18 \$19 \$20 \$21 \$22 \$23 \$24 \$25 \$26
\$27 \$28 \$29 \$30 \$31 \$32 \$33;
#X text -593 -83 3/2016 martin brinkmann;
#X obj -3 171 / 128;
#X connect 0 0 101 8;
#X connect 0 0 109 4;
#X connect 1 0 101 9;
#X connect 1 0 109 7;
#X connect 2 0 101 11;
#X connect 2 0 109 13;
#X connect 3 0 101 10;
#X connect 3 0 109 10;
#X connect 4 0 101 12;
#X connect 4 0 109 15;
#X connect 6 0 101 14;
#X connect 6 0 109 18;
#X connect 7 0 57 3;
#X connect 7 0 68 3;
#X connect 7 0 69 3;
#X connect 7 0 70 3;
#X connect 7 0 109 28;
#X connect 8 0 30 1;
#X connect 8 0 109 2;
#X connect 9 0 101 1;
#X connect 9 0 109 5;
#X connect 10 0 101 3;
#X connect 10 0 109 11;
#X connect 11 0 101 2;
#X connect 11 0 109 8;
#X connect 12 0 57 5;
#X connect 12 0 68 5;
#X connect 12 0 69 5;
#X connect 12 0 70 5;
#X connect 12 0 109 14;
#X connect 13 0 57 7;
#X connect 13 0 68 7;
#X connect 13 0 69 7;
#X connect 13 0 70 7;
#X connect 13 0 109 17;
#X connect 14 0 29 1;
#X connect 14 0 109 19;
#X connect 15 0 101 15;
#X connect 15 0 109 27;
#X connect 16 0 101 4;
#X connect 16 0 109 3;
#X connect 17 0 101 5;
#X connect 17 0 109 6;
#X connect 18 0 101 7;
#X connect 18 0 109 12;
#X connect 19 0 101 6;
#X connect 19 0 109 9;
#X connect 20 0 101 13;
#X connect 20 0 109 22;
#X connect 21 0 57 6;
#X connect 21 0 68 6;
#X connect 21 0 69 6;
#X connect 21 0 70 6;
#X connect 21 0 109 21;
#X connect 22 0 26 1;
#X connect 22 0 109 16;
#X connect 23 0 27 1;
#X connect 23 0 109 23;
#X connect 24 0 57 4;
#X connect 24 0 68 4;
#X connect 24 0 69 4;
#X connect 24 0 70 4;
#X connect 24 0 109 29;
#X connect 25 0 57 2;
#X connect 25 0 68 2;
#X connect 25 0 69 2;
#X connect 25 0 70 2;
#X connect 25 0 109 26;
#X connect 26 0 28 0;
#X connect 27 0 28 0;
#X connect 28 0 5 0;
#X connect 29 0 28 0;
#X connect 30 0 101 0;
#X connect 31 0 36 1;
#X connect 31 0 56 0;
#X connect 32 0 36 0;
#X connect 34 0 55 0;
#X connect 36 0 74 0;
#X connect 37 0 67 0;
#X connect 38 0 57 0;
#X connect 39 0 41 0;
#X connect 40 0 43 0;
#X connect 41 0 40 0;
#X connect 42 0 38 0;
#X connect 43 0 89 0;
#X connect 45 0 42 0;
#X connect 45 1 57 1;
#X connect 46 0 42 0;
#X connect 46 0 50 0;
#X connect 46 0 53 0;
#X connect 46 0 72 0;
#X connect 46 1 38 1;
#X connect 46 1 49 1;
#X connect 46 1 52 1;
#X connect 46 1 71 1;
#X connect 47 0 39 0;
#X connect 49 0 68 0;
#X connect 50 0 49 0;
#X connect 51 0 50 0;
#X connect 51 1 68 1;
#X connect 52 0 69 0;
#X connect 53 0 52 0;
#X connect 54 0 53 0;
#X connect 54 1 69 1;
#X connect 55 0 31 0;
#X connect 56 0 30 0;
#X connect 57 0 26 0;
#X connect 57 1 27 0;
#X connect 57 2 29 0;
#X connect 59 0 57 10;
#X connect 59 0 68 10;
#X connect 59 0 69 10;
#X connect 59 0 70 10;
#X connect 59 0 109 20;
#X connect 60 0 57 8;
#X connect 60 0 68 8;
#X connect 60 0 69 8;
#X connect 60 0 70 8;
#X connect 60 0 109 24;
#X connect 61 0 57 9;
#X connect 61 0 68 9;
#X connect 61 0 69 9;
#X connect 61 0 70 9;
#X connect 61 0 109 25;
#X connect 62 0 66 0;
#X connect 63 0 113 0;
#X connect 66 0 57 12;
#X connect 66 0 68 12;
#X connect 66 0 69 12;
#X connect 66 0 70 12;
#X connect 67 0 45 0;
#X connect 67 1 51 0;
#X connect 67 2 54 0;
#X connect 67 3 73 0;
#X connect 68 0 26 0;
#X connect 68 1 27 0;
#X connect 68 2 29 0;
#X connect 69 0 26 0;
#X connect 69 1 27 0;
#X connect 69 2 29 0;
#X connect 70 0 26 0;
#X connect 70 1 27 0;
#X connect 70 2 29 0;
#X connect 71 0 70 0;
#X connect 72 0 71 0;
#X connect 73 0 72 0;
#X connect 73 1 70 1;
#X connect 74 0 37 0;
#X connect 74 1 37 1;
#X connect 74 2 37 2;
#X connect 76 0 90 0;
#X connect 77 0 81 0;
#X connect 78 0 76 0;
#X connect 79 0 91 1;
#X connect 79 0 91 0;
#X connect 79 0 103 1;
#X connect 80 0 94 1;
#X connect 80 0 94 0;
#X connect 80 0 109 1;
#X connect 81 0 82 0;
#X connect 82 0 83 0;
#X connect 83 0 85 0;
#X connect 83 0 87 0;
#X connect 84 0 83 1;
#X connect 85 0 82 1;
#X connect 86 0 78 0;
#X connect 87 0 86 0;
#X connect 89 0 46 0;
#X connect 90 0 89 0;
#X connect 90 1 89 1;
#X connect 91 0 92 0;
#X connect 92 0 93 0;
#X connect 93 0 84 0;
#X connect 94 0 76 1;
#X connect 95 0 99 1;
#X connect 95 0 99 0;
#X connect 95 0 109 31;
#X connect 96 0 101 17;
#X connect 96 0 109 32;
#X connect 97 0 98 0;
#X connect 98 0 101 16;
#X connect 99 0 102 1;
#X connect 99 0 102 0;
#X connect 100 0 101 18;
#X connect 100 0 109 30;
#X connect 101 0 57 11;
#X connect 101 0 68 11;
#X connect 101 0 69 11;
#X connect 101 0 70 11;
#X connect 102 0 97 0;
#X connect 103 0 109 0;
#X connect 105 0 103 0;
#X connect 107 0 110 0;
#X connect 109 0 111 0;
#X connect 110 0 79 0;
#X connect 110 1 80 0;
#X connect 110 2 8 0;
#X connect 110 3 16 0;
#X connect 110 4 0 0;
#X connect 110 5 9 0;
#X connect 110 6 17 0;
#X connect 110 7 1 0;
#X connect 110 8 11 0;
#X connect 110 9 19 0;
#X connect 110 10 3 0;
#X connect 110 11 10 0;
#X connect 110 12 18 0;
#X connect 110 13 2 0;
#X connect 110 14 12 0;
#X connect 110 15 4 0;
#X connect 110 16 22 0;
#X connect 110 17 13 0;
#X connect 110 18 6 0;
#X connect 110 19 14 0;
#X connect 110 20 59 0;
#X connect 110 21 21 0;
#X connect 110 22 20 0;
#X connect 110 23 23 0;
#X connect 110 24 60 0;
#X connect 110 25 61 0;
#X connect 110 26 25 0;
#X connect 110 27 15 0;
#X connect 110 28 7 0;
#X connect 110 29 24 0;
#X connect 110 30 100 0;
#X connect 110 31 95 0;
#X connect 110 32 96 0;
#X connect 111 0 104 0;
#X connect 113 0 57 13;
#X connect 113 0 68 13;
#X connect 113 0 69 13;
#X connect 113 0 70 13;
#X coords 0 -1 1 1 325 120 1 100 100;
#X restore 127 272 pd tri_ops4p;
#N canvas 138 148 1423 873 midilooptrack 0;
#X obj -255 319 abs_miditextrec1;
#X obj -73 197 notein;
#X obj -14 198 bendin;
#X obj 31 202 ctlin;
#X obj 113 118 nbx 3 14 10 999 0 1 empty empty t -10 7 0 10 -262144
-1 -1 110 256;
#X obj 153 135 bng 15 250 50 0 empty empty > 5 7 0 10 -262144 -1 -1
;
#X msg -289 116 symbol arm;
#X msg -229 179 symbol stop;
#X msg -246 143 symbol rec;
#X msg -125 144 symbol clear;
#X msg -48 166 symbol dump;
#X obj 111 290 route 0 1 2 3;
#X msg 837 367 0 1 57 118 \\\; 0.0106425 1 62 120 \\\; 0.0133031 1
67 117 \\\; 0.798186 1 57 0 \\\; 0.0106425 1 67 0 \\\; 0.0319274 1
62 0 \\\; 0.532124 1 57 119 \\\; 0.0106425 1 62 121 \\\; 0 1 65 119
\\\; 1.57775 1 57 0 \\\; 0.0106425 1 62 0 \\\; 0.0106425 1 65 0 \\\;
1.01902 1 57 117 \\\; 0.021285 1 62 121 \\\; 0.0106425 1 65 119 \\\;
0.6013 1 57 0 \\\; 0.119728 1 62 0 \\\; 0.0532124 1 65 0 \\\; 0.646531
1 57 120 \\\; 0.0133031 1 62 122 \\\; 0 1 65 121 \\\; 0.98709 1 62
0 \\\; 0.021285 1 57 0 \\\; 0.00798186 1 65 0 \\\; 0.5135 1 57 119
\\\; 0.0133031 1 62 121 \\\; 0.0106425 1 65 120 \\\; 0.718367 1 62
0 \\\; 0.021285 1 57 0 \\\; 0.021285 1 65 0 \\\;;
#X msg 1225 368 0 1 51 116 \\\; 0.021285 1 48 115 \\\; 0 1 55 119 \\\;
0.0106425 1 60 117 \\\; 0.779562 1 48 0 \\\; 0.0106425 1 51 0 \\\;
0.0106425 1 55 0 \\\; 0.0106425 1 60 0 \\\; 0.64387 1 51 121 \\\; 0
1 55 120 \\\; 0.0106425 1 48 120 \\\; 0.0106425 1 60 117 \\\; 0.345881
1 51 0 \\\; 0.0106425 1 55 0 \\\; 0 1 60 0 \\\; 0.0106425 1 48 0 \\\;
1.03764 1 51 120 \\\; 0.0133031 1 48 117 \\\; 0 1 55 120 \\\; 0 1 58
115 \\\; 0.148995 1 51 0 \\\; 0.0159637 1 55 0 \\\; 0.0106425 1 58
0 \\\; 0.021285 1 48 0 \\\; 0.750295 1 60 119 \\\; 0.0106425 1 51 114
\\\; 0.0106425 1 48 115 \\\; 0 1 55 120 \\\; 0.803507 1 55 0 \\\; 0.0106425
1 51 0 \\\; 0.0292668 1 48 0 \\\; 0.0106425 1 60 0 \\\; 0.564051 1
51 124 \\\; 0 1 55 121 \\\; 0.0106425 1 48 119 \\\; 0 1 60 121 \\\;
1.67087 1 60 0 \\\; 0.0106425 1 48 0 \\\; 0.0106425 1 51 0 \\\; 0.0106425
1 55 0 \\\;;
#X obj 112 264 list prepend 0;
#X msg 86 369 0 1 58 119 \\\; 0.0106425 1 55 112 \\\; 0.021285 1 62
117 \\\; 0.021285 1 67 112 \\\; 1.04562 1 67 0 \\\; 0.0159637 1 55
0 \\\; 0.021285 1 58 0 \\\; 0.021285 1 62 0 \\\; 0.332577 1 55 118
\\\; 0.0106425 1 58 120 \\\; 0 1 62 119 \\\; 1.08553 1 58 0 \\\; 0
1 55 0 \\\; 0.0425699 1 62 0 \\\; 0.364505 1 62 120 \\\; 0.0106425
1 58 119 \\\; 0.0106425 1 67 117 \\\; 0.534785 1 67 0 \\\; 0 1 62 0
\\\; 0 1 58 0 \\\; 0.42836 1 62 120 \\\; 0.00266062 1 55 118 \\\; 0.0106425
1 58 119 \\\; 1.06159 1 55 0 \\\; 0.0345881 1 58 0 \\\; 0.0319274 1
62 0 \\\; 0.372487 1 58 121 \\\; 0.0106425 1 62 120 \\\; 0.0106425
1 67 115 \\\; 0.984429 1 58 0 \\\; 0.021285 1 67 0 \\\; 0 1 62 0 \\\;
0.452305 1 58 125 \\\; 0.0133031 1 62 122 \\\; 0 1 67 121 \\\; 0.452305
1 67 0 \\\; 0 1 58 0 \\\; 0.0106425 1 62 0 \\\;;
#X msg 459 367 0 1 48 113 \\\; 0.0106425 1 51 116 \\\; 0.00266062 1
55 116 \\\; 0.795525 1 55 0 \\\; 0.0106425 1 51 0 \\\; 0.021285 1 48
0 \\\; 0.537445 1 51 120 \\\; 0.021285 1 55 116 \\\; 0.021285 1 60
114 \\\; 0.297989 1 60 0 \\\; 0 1 55 0 \\\; 0.021285 1 51 0 \\\; 0.268723
1 48 121 \\\; 0.0106425 1 51 113 \\\; 0.0106425 1 60 113 \\\; 0.021285
1 55 110 \\\; 0.0744974 1 55 0 \\\; 0 1 51 0 \\\; 0.106425 1 60 0 \\\;
0.151655 1 48 0 \\\; 0.340559 1 51 121 \\\; 0.0319274 1 55 118 \\\;
0 1 60 115 \\\; 0.244777 1 60 0 \\\; 0.0106425 1 55 0 \\\; 0.0319274
1 51 0 \\\; 0.444324 1 51 121 \\\; 0.0425699 1 55 116 \\\; 0 1 60 110
\\\; 0.148995 1 55 0 \\\; 0.021285 1 51 0 \\\; 0.0106425 1 60 0 \\\;
0.30065 1 48 120 \\\; 0.768919 1 48 0 \\\; 0.694422 1 51 122 \\\; 0.021285
1 60 113 \\\; 0.0106425 1 55 117 \\\; 0.17028 1 55 0 \\\; 0.0239456
1 51 0 \\\; 0.021285 1 60 0 \\\; 0.276704 1 51 122 \\\; 0.021285 1
55 120 \\\; 0 1 60 117 \\\; 0.21551 1 55 0 \\\; 0.0638549 1 51 0 \\\;
0.0186243 1 60 0 \\\; 0.420378 1 51 123 \\\; 0.0319274 1 55 119 \\\;
0 1 60 116 \\\; 0.199546 1 55 0 \\\; 0.0744974 1 60 0 \\\; 0.0106425
1 51 0 \\\; 0.372487 1 51 121 \\\; 0.0319274 1 60 117 \\\; 0.0159637
1 55 119 \\\; 0.183583 1 55 0 \\\; 0.0106425 1 51 0 \\\; 0.0425699
1 60 0 \\\;;
#X obj -163 261 t f f;
#X obj -122 260 t f f;
#X obj 156 225 t b f;
#X obj 307 190 t b b;
#X obj 350 189 t b b;
#X obj 388 189 t b b;
#X obj 432 191 t b b;
#X obj 284 273 pack f f;
#X obj 402 275 route 0 1 2 3;
#X obj -259 386 timer;
#X obj -360 508 metro;
#X obj -339 293 t b b;
#X msg -393 96 stop;
#X msg 336 250 \$1 set \$2;
#X obj -348 585 outlet;
#X obj -322 555 spigot;
#X obj -282 590 outlet;
#X obj -256 560 spigot;
#X obj -190 565 outlet;
#X obj -164 535 spigot;
#X obj -116 559 outlet;
#X obj -94 526 spigot;
#X obj -53 484 pack f f;
#X obj -22 295 swap;
#X obj 221 101 tgl 15 1 empty empty m 5 7 0 10 -262144 -1 -128992 1
1;
#X obj 94 -49 inlet;
#X obj 196 135 tgl 15 0 empty empty a 4 7 0 10 -260097 -1 -1 0 1;
#X obj -240 91 select 1;
#X obj 220 135 tgl 15 0 empty empty rc 2 7 0 10 -258113 -1 -1 0 1;
#X obj -166 76 select 0 1;
#X msg -167 10 set 0;
#X msg -122 15 set 1;
#X obj 158 118 bng 15 250 50 0 empty empty st 2 7 0 10 -262144 -262144
-1;
#X obj 602 6 inlet;
#X msg 433 -17 color 111 0 -1;
#X msg 462 11 color 0 0 -1;
#X obj 175 118 hradio 15 1 0 4 empty empty empty 0 -8 0 10 -262144
-1 -1 0;
#X obj 312 164 select 0 1 2 3;
#X obj 603 161 pack f f;
#X msg 646 64 1;
#X msg 666 88 0;
#X obj 603 140 int;
#X obj 316 129 route 0 1;
#X obj 598 106 t b b f;
#X obj 106 152 hsl 128 10 0 128 0 0 empty empty empty -2 -8 0 10 -262144
-1 -1 0 1;
#X obj 58 64 line;
#X obj 33 -11 f;
#X obj -10 -35 t b b;
#X msg -1 33 0;
#X obj -235 605 > 0;
#X obj -234 634 select 1;
#X obj 172 135 bng 15 250 50 0 empty empty [] 3 8 0 9 -262144 -1 -1
;
#X msg -284 60 symbol rewind;
#X msg -348 185 tempo \$1 permin;
#X obj 153 14 pow -1;
#X obj 165 39 * 60000;
#X obj 51 14 *;
#X obj 161 64 t b f;
#X text 130 -49 sync;
#X msg 57 40 128 \$1;
#X obj 56 114 change;
#X obj 55 90 int;
#X obj 94 -26 spigot 1;
#X obj 228 -74 / 1.28;
#X obj 121 136 nbx 2 14 0 99 0 1 empty empty empty -20 7 0 10 -204786
-1 -1 2 256;
#X obj 243 15 min;
#X obj 261 -28 - 100;
#X obj 229 -51 t f f;
#X obj 243 36 <;
#X obj 262 -8 abs;
#X text 274 -54 sync tolerance;
#X text -177 634 jerking pos indicator;
#X text 600 -15 preset (0..3);
#X text -319 608 p/vel;
#X text -191 604 bend;
#X text -115 592 ctl (nr \, val);
#X obj -129 499 pack f f;
#X obj 388 -68 inlet;
#X obj 92 -5 spigot 1;
#X msg 50 -48 0;
#X msg 65 -67 1;
#X obj -223 462 f;
#X text 425 -64 bpm (and restart);
#X obj 386 -42 t b f;
#X obj 103 135 tgl 15 1 empty empty q 5 7 0 10 -262144 -1 -128992 1
1;
#X obj 466 127 int;
#X obj 455 101 spigot;
#X obj 519 75 == 0;
#X obj 512 103 spigot;
#X obj 164 -48 t b;
#X text 408 40 sync pattern switching to beats;
#X msg 563 80 0;
#X obj 466 56 t b b f;
#X obj 87 174 int;
#X msg 93 64 stop;
#X msg 103 340 8;
#X msg 459 330 8;
#X msg 836 328 8;
#X msg 1220 325 8;
#X text -202 422 patternlength;
#N canvas 1 77 509 453 round 0;
#X obj 72 70 inlet;
#X obj 224 49 inlet;
#X obj 144 165 wrap;
#X obj 128 242 >= 0.5;
#X obj 89 130 t f f;
#X obj 103 219 -;
#X obj 85 276 +;
#X obj 31 375 outlet;
#X obj 84 301 spigot;
#X obj 25 312 spigot;
#X obj 47 273 == 0;
#X connect 0 0 4 0;
#X connect 0 0 9 0;
#X connect 1 0 8 1;
#X connect 1 0 10 0;
#X connect 2 0 3 0;
#X connect 2 0 5 1;
#X connect 3 0 6 1;
#X connect 4 0 5 0;
#X connect 4 1 2 0;
#X connect 5 0 6 0;
#X connect 6 0 8 0;
#X connect 8 0 7 0;
#X connect 9 0 7 0;
#X connect 10 0 9 1;
#X restore -263 409 pd round;
#X obj 157 -13 != 1;
#X obj -343 349 spigot 1;
#X obj -286 297 == 0;
#X connect 0 0 31 0;
#X connect 0 1 33 0;
#X connect 0 1 66 0;
#X connect 0 2 35 0;
#X connect 0 3 93 0;
#X connect 0 4 93 1;
#X connect 0 5 26 0;
#X connect 0 5 48 0;
#X connect 0 5 96 0;
#X connect 0 6 14 0;
#X connect 1 0 17 0;
#X connect 1 1 18 0;
#X connect 2 0 0 5;
#X connect 2 0 36 0;
#X connect 3 0 0 6;
#X connect 3 0 40 0;
#X connect 3 1 0 7;
#X connect 3 1 40 1;
#X connect 4 0 0 1;
#X connect 4 0 70 0;
#X connect 4 0 71 0;
#X connect 5 0 27 0;
#X connect 6 0 0 2;
#X connect 6 0 29 0;
#X connect 7 0 0 2;
#X connect 7 0 47 0;
#X connect 7 0 28 0;
#X connect 8 0 0 2;
#X connect 9 0 0 2;
#X connect 9 0 47 0;
#X connect 10 0 0 2;
#X connect 11 0 15 0;
#X connect 11 1 16 0;
#X connect 11 2 12 0;
#X connect 11 3 13 0;
#X connect 12 0 0 8;
#X connect 13 0 0 8;
#X connect 14 0 11 0;
#X connect 15 0 0 8;
#X connect 16 0 0 8;
#X connect 17 0 32 0;
#X connect 17 1 0 3;
#X connect 18 0 34 0;
#X connect 18 1 0 4;
#X connect 19 0 10 0;
#X connect 19 1 14 1;
#X connect 19 1 24 0;
#X connect 20 0 27 0;
#X connect 20 1 15 0;
#X connect 20 1 112 0;
#X connect 21 0 27 0;
#X connect 21 1 16 0;
#X connect 21 1 113 0;
#X connect 22 0 27 0;
#X connect 22 1 12 0;
#X connect 22 1 114 0;
#X connect 23 0 27 0;
#X connect 23 1 13 0;
#X connect 23 1 115 0;
#X connect 24 0 30 0;
#X connect 25 0 112 0;
#X connect 25 1 113 0;
#X connect 25 2 114 0;
#X connect 25 3 115 0;
#X connect 26 0 117 0;
#X connect 27 0 0 0;
#X connect 27 0 64 0;
#X connect 28 0 119 0;
#X connect 28 1 26 1;
#X connect 29 0 27 0;
#X connect 30 0 25 0;
#X connect 32 0 31 0;
#X connect 34 0 33 0;
#X connect 36 0 35 0;
#X connect 38 0 37 0;
#X connect 39 0 38 0;
#X connect 40 0 39 0;
#X connect 40 1 39 1;
#X connect 41 0 38 1;
#X connect 41 0 36 1;
#X connect 41 0 34 1;
#X connect 41 0 32 1;
#X connect 42 0 79 0;
#X connect 42 0 106 0;
#X connect 43 0 44 0;
#X connect 43 0 118 0;
#X connect 44 0 6 0;
#X connect 45 0 46 0;
#X connect 46 0 7 0;
#X connect 46 0 97 0;
#X connect 46 1 8 0;
#X connect 46 1 96 0;
#X connect 47 0 43 0;
#X connect 47 0 45 0;
#X connect 48 0 45 0;
#X connect 49 0 51 0;
#X connect 49 0 56 0;
#X connect 50 0 53 0;
#X connect 51 0 49 0;
#X connect 52 0 49 0;
#X connect 53 0 52 0;
#X connect 53 0 109 0;
#X connect 54 0 20 0;
#X connect 54 1 21 0;
#X connect 54 2 22 0;
#X connect 54 3 23 0;
#X connect 55 0 59 0;
#X connect 56 0 58 1;
#X connect 57 0 58 1;
#X connect 58 0 55 0;
#X connect 59 0 54 0;
#X connect 59 1 19 0;
#X connect 60 0 57 0;
#X connect 60 0 108 0;
#X connect 60 1 58 0;
#X connect 60 2 55 1;
#X connect 62 0 78 1;
#X connect 62 0 80 0;
#X connect 63 0 73 0;
#X connect 64 0 63 0;
#X connect 64 0 78 0;
#X connect 64 1 65 0;
#X connect 65 0 62 0;
#X connect 66 0 67 0;
#X connect 67 0 78 0;
#X connect 68 0 29 0;
#X connect 68 0 69 0;
#X connect 68 0 111 0;
#X connect 69 0 0 2;
#X connect 70 0 27 0;
#X connect 70 0 26 0;
#X connect 71 0 72 0;
#X connect 72 0 74 0;
#X connect 73 0 76 0;
#X connect 74 0 63 0;
#X connect 74 1 73 1;
#X connect 76 0 62 0;
#X connect 77 0 61 0;
#X connect 78 0 77 0;
#X connect 79 0 95 0;
#X connect 80 0 84 0;
#X connect 81 0 85 1;
#X connect 82 0 85 0;
#X connect 83 0 86 0;
#X connect 84 0 82 0;
#X connect 84 1 83 0;
#X connect 85 0 79 1;
#X connect 86 0 82 1;
#X connect 93 0 37 0;
#X connect 94 0 100 0;
#X connect 95 0 5 0;
#X connect 96 0 95 1;
#X connect 97 0 95 1;
#X connect 98 0 27 1;
#X connect 98 0 63 1;
#X connect 98 0 24 1;
#X connect 100 0 5 0;
#X connect 100 1 4 0;
#X connect 101 0 104 0;
#X connect 101 0 105 1;
#X connect 101 0 110 1;
#X connect 101 0 117 1;
#X connect 101 0 120 0;
#X connect 102 0 60 0;
#X connect 103 0 102 0;
#X connect 104 0 103 1;
#X connect 105 0 102 0;
#X connect 106 0 105 0;
#X connect 108 0 105 1;
#X connect 108 0 103 1;
#X connect 109 0 103 0;
#X connect 109 1 110 0;
#X connect 109 2 102 1;
#X connect 110 0 101 0;
#X connect 111 0 62 0;
#X connect 112 0 98 0;
#X connect 113 0 98 0;
#X connect 114 0 98 0;
#X connect 115 0 98 0;
#X connect 117 0 98 0;
#X connect 118 0 95 1;
#X connect 119 0 27 0;
#X connect 120 0 119 1;
#X coords 0 -1 1 1 140 65 1 100 100;
#X restore 140 109 pd midilooptrack;
#N canvas 216 80 1184 711 songpos96-16 0;
#X obj 318 440 + 1;
#X obj 267 436 float;
#X msg 206 296 1;
#X obj 218 321 /;
#X obj 209 273 t f f;
#X obj 228 344 * 15000;
#X obj 339 355 t b f;
#X obj 263 405 metro 125;
#X msg 340 329 -2;
#X obj 172 17 loadbang;
#X floatatom 126 113 5 30 300 0 bpm - -, f 5;
#X msg -2 85 set \$1;
#X msg 5 139 110;
#X obj 174 112 bng 15 250 50 0 empty empty empty 6 7 0 10 -261234 -1
-1;
#X obj 278 636 outlet;
#X obj 570 496 outlet;
#X text 618 497 bpm->;
#X obj 200 112 bng 15 50 20 0 empty empty empty 6 7 0 10 -204786 -1
-1;
#X obj 208 225 float;
#X obj 435 539 outlet;
#X text 144 343 1/16 in ms;
#X text 485 540 pos96->;
#X obj 259 373 / 6;
#X text 219 371 1/96;
#X obj 280 481 / 6;
#X obj 280 505 int;
#X obj 600 64 + 1;
#X obj 602 29 float;
#X obj 600 96 moses 2;
#X obj 600 155 timer;
#X obj 600 123 t b;
#X obj 648 122 t b b;
#X obj 653 243 /;
#X msg 623 221 60000;
#X obj 618 183 t b f;
#X obj 656 268 moses 10;
#X text 500 72 beatcounter;
#X obj 772 358 float;
#X obj 769 401 + 1;
#X obj 688 426 +;
#X obj 729 396 *;
#X obj 705 328 t f b;
#X obj 698 464 /;
#X msg 884 211 0;
#X text 499 302 mean (as seen on idafx blog);
#X obj 864 324 t f f;
#X obj 921 503 moses 0.1;
#X text 880 303 reset;
#X obj 870 366 /;
#X obj 849 431 < 0.75;
#X obj 903 435 > 1.25;
#X obj 869 391 t f f;
#X obj 877 471 ||;
#X obj 174 54 t b b b;
#X obj 43 -7 inlet;
#X obj 107 -11 inlet;
#X text 329 637 pos16->;
#X text 46 14 sync;
#X text 111 10 tap;
#X obj 279 530 change -1;
#X connect 0 0 1 1;
#X connect 0 0 24 0;
#X connect 0 0 19 0;
#X connect 1 0 0 0;
#X connect 2 0 3 0;
#X connect 3 0 5 0;
#X connect 4 0 2 0;
#X connect 4 1 3 1;
#X connect 5 0 22 0;
#X connect 6 0 7 0;
#X connect 6 1 1 0;
#X connect 7 0 1 0;
#X connect 8 0 6 0;
#X connect 9 0 53 0;
#X connect 10 0 11 0;
#X connect 10 0 18 1;
#X connect 11 0 12 0;
#X connect 12 0 10 0;
#X connect 13 0 8 0;
#X connect 13 0 18 0;
#X connect 17 0 27 0;
#X connect 18 0 4 0;
#X connect 18 0 15 0;
#X connect 22 0 7 1;
#X connect 24 0 25 0;
#X connect 25 0 59 0;
#X connect 26 0 27 1;
#X connect 26 0 28 0;
#X connect 27 0 26 0;
#X connect 28 0 30 0;
#X connect 28 1 31 0;
#X connect 29 0 34 0;
#X connect 29 0 45 0;
#X connect 30 0 29 0;
#X connect 31 0 29 0;
#X connect 31 1 29 1;
#X connect 32 0 35 0;
#X connect 33 0 32 0;
#X connect 34 0 33 0;
#X connect 34 1 32 1;
#X connect 35 1 41 0;
#X connect 37 0 38 0;
#X connect 37 0 40 0;
#X connect 38 0 37 1;
#X connect 38 0 42 1;
#X connect 39 0 42 0;
#X connect 40 0 39 1;
#X connect 41 0 39 0;
#X connect 41 1 37 0;
#X connect 42 0 40 1;
#X connect 42 0 10 0;
#X connect 43 0 37 1;
#X connect 43 0 27 1;
#X connect 45 0 48 1;
#X connect 45 1 48 0;
#X connect 46 1 43 0;
#X connect 48 0 51 0;
#X connect 49 0 52 0;
#X connect 50 0 52 1;
#X connect 51 0 49 0;
#X connect 51 1 50 0;
#X connect 52 0 46 0;
#X connect 53 0 13 0;
#X connect 53 1 13 0;
#X connect 53 2 12 0;
#X connect 54 0 13 0;
#X connect 55 0 17 0;
#X connect 59 0 14 0;
#X coords 0 -1 1 1 120 30 1 100 100;
#X restore 40 22 pd songpos96-16;
#N canvas 558 438 450 300 click 0;
#X obj 29 43 inlet;
#X obj 26 263 outlet~;
#X obj 103 114 nbx 4 14 1 999 0 1 empty empty empty 0 -8 0 10 -262144
-1 -1 36 256;
#X obj 30 225 vline~;
#X msg 33 200 \$1 0 \, \$2 0 \, 0 \$3;
#X obj 32 172 pack -1 1 f;
#X obj 102 141 / 100;
#X obj 27 92 t f f;
#X obj 34 127 * -1;
#X connect 0 0 7 0;
#X connect 2 0 6 0;
#X connect 3 0 1 0;
#X connect 4 0 3 0;
#X connect 5 0 4 0;
#X connect 6 0 5 2;
#X connect 7 0 8 0;
#X connect 7 1 5 1;
#X connect 8 0 5 0;
#X coords 0 -1 1 1 50 30 1 100 100;
#X restore 19 212 pd click;
#X msg 28 142 1;
#X obj 41 56 div 4;
#X obj 41 75 change;
#X obj 91 73 t b;
#X obj 29 121 spigot;
#X obj 79 101 tgl 15 0 empty empty empty 17 7 0 10 -262144 -1 -1 0
1;
#X text 43 100 metro;
#X text 280 126 bpm \, store pattern \, pattern select;
#X text 282 108 monitor midi input;
#X text 108 175 pitch;
#X text 146 181 gate/velocity;
#X text 236 193 bend;
#X text 267 181 control (nr \, val);
#X text 281 142 quantize sync/patternswitching/len \, sync tolerance
(percent) \, start \, stop \, arm \, record;
#X connect 1 0 0 0;
#X connect 1 0 0 1;
#X connect 2 0 4 3;
#X connect 3 0 4 4;
#X connect 4 0 1 0;
#X connect 5 0 4 0;
#X connect 5 1 4 1;
#X connect 5 2 4 2;
#X connect 5 3 2 0;
#X connect 6 0 9 0;
#X connect 6 2 5 1;
#X connect 7 0 1 0;
#X connect 8 0 7 0;
#X connect 9 0 10 0;
#X connect 10 0 11 0;
#X connect 10 0 12 0;
#X connect 11 0 5 0;
#X connect 12 0 8 0;
#X connect 13 0 12 1;
