#N canvas 1114 563 391 385 10;
#X obj 115 37 bendin;
#X obj 26 233 *~ 0.5;
#N canvas 407 68 1280 899 oneoscp 1;
#X obj -302 93 clip 0 1;
#X obj 221 117 vsl 15 81 0.2 1 0 1 empty empty d 2 4 0 8 -262144 -1
-1 3400 1;
#X obj 102 115 vradio 15 1 1 3 empty empty okt 0 52 0 8 -262144 -1
-1 2;
#X obj 142 117 vsl 15 81 0 120 0 1 empty empty cf 2 4 0 8 -262144 -1
-1 3100 1;
#X obj 161 117 vsl 15 81 0 0.9 0 1 empty empty rs 2 4 0 8 -262144 -1
-1 4900 1;
#X obj 182 117 vsl 15 81 0 120 0 1 empty empty ev 2 4 0 8 -262144 -1
-1 4000 1;
#X obj -366 67 inlet;
#X text -365 45 pitch;
#X obj -301 36 inlet;
#X text -262 38 gate;
#X obj -165 845 outlet~;
#X obj 102 185 tgl 15 1 empty empty ep 0 -6 0 8 -262144 -1 -1 0 -2
;
#X obj 340 27 inlet;
#X obj 439 121 inlet;
#X text 488 120 env-mod 0..1;
#X text 384 26 cutoff-mod 0..1;
#X obj 439 142 clip 0 1;
#X obj 439 164 * 60;
#X obj 341 52 clip 0 1;
#X obj 341 74 * 60;
#X obj 119 247 +;
#X obj 122 214 t b f;
#X obj 170 252 +;
#X obj 174 220 t b f;
#X obj 122 117 vsl 15 35 0 0.5 0 1 empty empty dt 2 4 0 8 -262144 -1
-1 400 1;
#X obj 122 163 vsl 15 35 0 0.5 0 1 empty empty ph 2 4 0 8 -262144 -1
-1 1400 1;
#X obj 286 292 *;
#X obj 286 340 * 10000;
#X obj 287 318 *;
#X obj 225 254 *;
#X obj 228 302 * 10000;
#X obj 226 280 *;
#X obj 348 314 *;
#X obj 351 362 * 10000;
#X obj 349 340 *;
#X obj 240 117 vsl 15 81 0.2 1 0 1 empty empty s 2 4 0 8 -262144 -1
-1 550 1;
#X obj 259 117 vsl 15 81 0.2 1 0 1 empty empty r 2 4 0 8 -262144 -1
-1 0 1;
#X obj 203 117 vsl 15 81 0.2 1 0 1 empty empty a 2 4 0 8 -262144 -1
-1 300 1;
#X obj 171 103 hsl 101 10 -1 1 0 1 empty empty kt -2 5 0 10 -262144
-1 -1 5600 1;
#N canvas 32 171 872 903 double_saw_subtractive_synth_voice 0;
#X obj 119 156 clip 0 1;
#X obj 106 345 * 12;
#X obj 72 375 +;
#X obj 217 476 *;
#X obj 185 780 *~;
#X obj 194 504 *;
#X obj 30 163 inlet;
#X text 25 135 pitch;
#X obj 120 129 inlet;
#X text 119 107 gate;
#X obj 184 811 outlet~;
#X obj 348 468 *;
#X obj 393 432 + 1;
#X obj 366 391 t b f;
#N canvas 1 78 704 786 doublesaw 0;
#X obj 18 30 inlet;
#X obj 58 123 mtof;
#X obj 59 159 phasor~;
#X obj 70 268 wrap~;
#X text 62 30 <-pitch;
#X text 279 27 <-sync;
#X obj 155 654 outlet~;
#X obj 144 361 hip~ 5;
#X obj 206 152 phasor~;
#X obj 213 264 wrap~;
#X obj 212 97 -;
#X obj 208 117 mtof;
#X obj 58 93 +;
#X obj 228 238 +~;
#X obj 324 292 - 1;
#X obj 324 246 == 0;
#X obj 329 273 * 2;
#X obj 197 321 *~ 1;
#X obj 227 28 inlet;
#X obj 318 173 inlet;
#X obj 369 23 inlet;
#X obj 144 525 *~ 0.125;
#X obj 144 548 rzero~ -1;
#X obj 144 571 rzero~ -1;
#X obj 144 594 rzero~ -1;
#X obj 143 399 *~ 0.2368;
#X obj 144 445 *~ 0.06261;
#X obj 143 422 rpole~ 0.76319;
#X obj 143 468 cpole~ 0.85223 0.20194;
#X obj 142 496 cpole~ 0.85223 -0.2019;
#X obj 392 67 block~ 64 1 8;
#X text 265 439 from pd docs modified for 8 times oversampling;
#X text 308 98 8 times oversampled \, i hope the pitch is right...
;
#X connect 0 0 12 0;
#X connect 0 0 10 0;
#X connect 1 0 2 0;
#X connect 2 0 3 0;
#X connect 3 0 7 0;
#X connect 7 0 25 0;
#X connect 8 0 13 0;
#X connect 9 0 17 0;
#X connect 10 0 11 0;
#X connect 11 0 8 0;
#X connect 12 0 1 0;
#X connect 13 0 9 0;
#X connect 14 0 17 1;
#X connect 15 0 16 0;
#X connect 16 0 14 0;
#X connect 17 0 7 0;
#X connect 18 0 2 1;
#X connect 18 0 8 1;
#X connect 19 0 13 1;
#X connect 19 0 15 0;
#X connect 20 0 10 1;
#X connect 20 0 12 1;
#X connect 21 0 22 0;
#X connect 22 0 23 0;
#X connect 23 0 24 0;
#X connect 24 0 6 0;
#X connect 25 0 27 0;
#X connect 26 0 28 0;
#X connect 27 0 26 0;
#X connect 28 0 29 0;
#X connect 28 1 29 1;
#X connect 29 0 21 0;
#X restore 69 501 pd doublesaw;
#X obj 259 640 clip~ 20 20000;
#N canvas 715 79 1076 1000 lopass2p2z 0;
#X obj -50 465 inlet~;
#X obj 129 919 outlet~;
#X obj 73 85 inlet~;
#X obj 87 200 sig~ 1;
#X obj 121 249 /~;
#X obj 219 59 samplerate~;
#X obj 110 376 sig~ 1;
#X obj 147 408 /~;
#X obj 214 340 +~;
#X obj 187 310 sig~ 1;
#X obj 251 318 *~;
#X obj 181 375 +~;
#X obj 112 295 *~;
#X text 41 361 a1/a3;
#X obj 222 407 sig~ 1;
#X obj 296 433 -~;
#X obj 299 457 *~ 2;
#X obj 286 506 *~;
#X obj 409 334 *~;
#X text 276 435 b1;
#X text 384 379 b2;
#X obj 361 397 sig~ 1;
#X obj 392 429 -~;
#X obj 377 512 *~;
#X text 99 246 c;
#X obj 397 462 +~;
#X obj 147 222 expr~ tan($v1);
#X obj 151 194 /~ 44100;
#X obj 129 153 *~ 3.14159;
#X text 408 73 resonance 0..1;
#X text 124 86 cutoff (hz);
#X text 420 186 a2= 2*a1 \, a3=a1;
#X text 420 150 c= 1/tan(pi*cutf/samplerate);
#X text 422 168 a1= 1/(1+res*c+c*c);
#X text 421 204 b1= 2*(1-c*c)*a1;
#X text 421 220 b2= (1-res*c+c*c)*a1;
#X obj 33 690 czero~;
#X obj 59 727 czero~;
#X obj 73 646 sig~ -1;
#X obj 90 670 sig~ 0;
#X obj 90 841 cpole~;
#X obj 129 888 cpole~;
#X obj 296 199 *~ 1.41421;
#X obj 307 148 -~;
#X obj 353 72 inlet~;
#X obj 279 94 sig~ 1;
#X text 28 627 zeros at fixed pos;
#X obj 178 840 *~ -1;
#X obj 184 805 expr~ sqrt($v1);
#X obj -44 595 *~;
#X obj 128 704 *~ -0.5;
#X text 219 845 2nd pole = 1st mirrored on the x axis;
#X text 183 704 b1/2 (x pos);
#X text 267 11 cookbook-like? (i cant remember where i got this from)
lp-filter;
#X obj 163 748 *~;
#X obj 183 781 -~;
#X text 217 666 pole position from coeffs:;
#X text 218 683 p=-b1/2+j*sqrt(b2-(b1/2)^2) (found somewhere on the
net...);
#X connect 0 0 49 0;
#X connect 2 0 28 0;
#X connect 3 0 4 0;
#X connect 4 0 10 0;
#X connect 4 0 12 0;
#X connect 4 0 12 1;
#X connect 4 0 18 0;
#X connect 5 0 27 1;
#X connect 6 0 7 0;
#X connect 7 0 17 1;
#X connect 7 0 23 0;
#X connect 7 0 49 1;
#X connect 8 0 11 1;
#X connect 9 0 8 0;
#X connect 10 0 8 1;
#X connect 11 0 7 1;
#X connect 12 0 11 0;
#X connect 12 0 15 1;
#X connect 12 0 25 1;
#X connect 14 0 15 0;
#X connect 15 0 16 0;
#X connect 16 0 17 0;
#X connect 17 0 50 0;
#X connect 18 0 22 1;
#X connect 21 0 22 0;
#X connect 22 0 25 0;
#X connect 23 0 55 0;
#X connect 25 0 23 1;
#X connect 26 0 4 1;
#X connect 27 0 26 0;
#X connect 28 0 27 0;
#X connect 36 0 37 0;
#X connect 36 1 37 1;
#X connect 37 0 40 0;
#X connect 37 1 40 1;
#X connect 38 0 36 2;
#X connect 38 0 37 2;
#X connect 39 0 37 3;
#X connect 39 0 36 3;
#X connect 40 0 41 0;
#X connect 40 1 41 1;
#X connect 41 0 1 0;
#X connect 42 0 10 1;
#X connect 42 0 18 1;
#X connect 43 0 42 0;
#X connect 44 0 43 1;
#X connect 45 0 43 0;
#X connect 47 0 41 3;
#X connect 48 0 40 3;
#X connect 48 0 47 0;
#X connect 49 0 36 0;
#X connect 50 0 40 2;
#X connect 50 0 41 2;
#X connect 50 0 54 0;
#X connect 50 0 54 1;
#X connect 54 0 55 1;
#X connect 55 0 48 0;
#X restore 95 703 pd lopass2p2z;
#N canvas 713 79 1076 1000 lopass2p2z 0;
#X obj -50 465 inlet~;
#X obj 129 919 outlet~;
#X obj 73 85 inlet~;
#X obj 87 200 sig~ 1;
#X obj 121 249 /~;
#X obj 219 59 samplerate~;
#X obj 110 376 sig~ 1;
#X obj 147 408 /~;
#X obj 214 340 +~;
#X obj 187 310 sig~ 1;
#X obj 251 318 *~;
#X obj 181 375 +~;
#X obj 112 295 *~;
#X text 41 361 a1/a3;
#X obj 222 407 sig~ 1;
#X obj 296 433 -~;
#X obj 299 457 *~ 2;
#X obj 286 506 *~;
#X obj 409 334 *~;
#X text 276 435 b1;
#X text 384 379 b2;
#X obj 361 397 sig~ 1;
#X obj 392 429 -~;
#X obj 377 512 *~;
#X text 99 246 c;
#X obj 397 462 +~;
#X obj 147 222 expr~ tan($v1);
#X obj 151 194 /~ 44100;
#X obj 129 153 *~ 3.14159;
#X text 408 73 resonance 0..1;
#X text 124 86 cutoff (hz);
#X text 420 186 a2= 2*a1 \, a3=a1;
#X text 420 150 c= 1/tan(pi*cutf/samplerate);
#X text 422 168 a1= 1/(1+res*c+c*c);
#X text 421 204 b1= 2*(1-c*c)*a1;
#X text 421 220 b2= (1-res*c+c*c)*a1;
#X obj 33 690 czero~;
#X obj 59 727 czero~;
#X obj 73 646 sig~ -1;
#X obj 90 670 sig~ 0;
#X obj 90 841 cpole~;
#X obj 129 888 cpole~;
#X obj 296 199 *~ 1.41421;
#X obj 307 148 -~;
#X obj 353 72 inlet~;
#X obj 279 94 sig~ 1;
#X text 28 627 zeros at fixed pos;
#X obj 178 840 *~ -1;
#X obj 184 805 expr~ sqrt($v1);
#X obj -44 595 *~;
#X obj 128 704 *~ -0.5;
#X text 219 845 2nd pole = 1st mirrored on the x axis;
#X text 183 704 b1/2 (x pos);
#X text 267 11 cookbook-like? (i cant remember where i got this from)
lp-filter;
#X obj 163 748 *~;
#X obj 183 781 -~;
#X text 217 666 pole position from coeffs:;
#X text 218 683 p=-b1/2+j*sqrt(b2-(b1/2)^2) (found somewhere on the
net...);
#X connect 0 0 49 0;
#X connect 2 0 28 0;
#X connect 3 0 4 0;
#X connect 4 0 10 0;
#X connect 4 0 12 0;
#X connect 4 0 12 1;
#X connect 4 0 18 0;
#X connect 5 0 27 1;
#X connect 6 0 7 0;
#X connect 7 0 17 1;
#X connect 7 0 23 0;
#X connect 7 0 49 1;
#X connect 8 0 11 1;
#X connect 9 0 8 0;
#X connect 10 0 8 1;
#X connect 11 0 7 1;
#X connect 12 0 11 0;
#X connect 12 0 15 1;
#X connect 12 0 25 1;
#X connect 14 0 15 0;
#X connect 15 0 16 0;
#X connect 16 0 17 0;
#X connect 17 0 50 0;
#X connect 18 0 22 1;
#X connect 21 0 22 0;
#X connect 22 0 25 0;
#X connect 23 0 55 0;
#X connect 25 0 23 1;
#X connect 26 0 4 1;
#X connect 27 0 26 0;
#X connect 28 0 27 0;
#X connect 36 0 37 0;
#X connect 36 1 37 1;
#X connect 37 0 40 0;
#X connect 37 1 40 1;
#X connect 38 0 36 2;
#X connect 38 0 37 2;
#X connect 39 0 37 3;
#X connect 39 0 36 3;
#X connect 40 0 41 0;
#X connect 40 1 41 1;
#X connect 41 0 1 0;
#X connect 42 0 10 1;
#X connect 42 0 18 1;
#X connect 43 0 42 0;
#X connect 44 0 43 1;
#X connect 45 0 43 0;
#X connect 47 0 41 3;
#X connect 48 0 40 3;
#X connect 48 0 47 0;
#X connect 49 0 36 0;
#X connect 50 0 40 2;
#X connect 50 0 41 2;
#X connect 50 0 54 0;
#X connect 50 0 54 1;
#X connect 54 0 55 1;
#X connect 55 0 48 0;
#X restore 105 733 pd lopass2p2z;
#N canvas 102 77 1108 856 adsr1 0;
#X obj -143 147 inlet;
#X msg 15 502 0;
#X obj 63 365 pack f f;
#X msg -148 457 0.75 27.9841;
#X msg 62 393 set \$1 \$2;
#X msg 63 325 bang;
#X obj 125 589 >=;
#X msg 216 752 0.255 789.048;
#X obj 157 632 moses 0.001;
#X obj 150 406 pack f f;
#X msg 151 436 set \$1 \$2;
#X msg 154 350 bang;
#X msg 313 372 set 0 \$1;
#X msg -135 357 bang;
#X msg -136 523 0 16;
#X obj -145 184 clip 0 1;
#X obj -113 211 moses 0.001;
#X obj 15 538 line 0 1;
#X obj -20 376 t f f;
#X obj 9 720 spigot;
#X obj 228 693 delay 0;
#X obj -49 150 inlet;
#X text -8 150 att;
#X obj 22 153 inlet;
#X text 63 153 dec;
#X obj 93 152 inlet;
#X text 134 152 sus;
#X obj 170 152 inlet;
#X text 211 152 rel;
#X obj -106 711 outlet;
#X connect 0 0 15 0;
#X connect 1 0 17 0;
#X connect 2 0 4 0;
#X connect 3 0 17 0;
#X connect 4 0 3 0;
#X connect 5 0 2 0;
#X connect 6 0 8 0;
#X connect 7 0 19 0;
#X connect 8 1 20 0;
#X connect 9 0 10 0;
#X connect 10 0 7 0;
#X connect 11 0 9 0;
#X connect 12 0 14 0;
#X connect 13 0 14 0;
#X connect 14 0 17 0;
#X connect 15 0 16 0;
#X connect 15 0 19 1;
#X connect 16 0 13 0;
#X connect 16 1 2 0;
#X connect 16 1 18 0;
#X connect 17 0 6 0;
#X connect 17 0 29 0;
#X connect 18 0 3 0;
#X connect 18 1 6 1;
#X connect 18 1 1 0;
#X connect 19 0 17 0;
#X connect 20 0 7 0;
#X connect 21 0 2 1;
#X connect 21 0 5 0;
#X connect 23 0 11 0;
#X connect 23 0 9 1;
#X connect 25 0 11 0;
#X connect 25 0 9 0;
#X connect 27 0 12 0;
#X coords 0 0 1 1 120 160 0;
#X restore 223 450 pd adsr1;
#X obj 116 273 moses 0.0001;
#X obj 107 323 - 2;
#X obj 262 614 mtof~;
#X obj 257 588 +~;
#X obj 244 561 *~;
#X obj 201 528 lop~ 600;
#X obj 258 285 - 64;
#X obj 274 342 *;
#X obj 297 550 +;
#X obj 285 504 t b f;
#X obj 212 151 inlet;
#X text 216 134 okt;
#X obj 256 147 inlet;
#X obj 297 148 inlet;
#X text 264 129 phase;
#X text 303 129 detune;
#X obj 593 103 inlet;
#X obj 429 89 inlet;
#X text 421 70 cutoff;
#X obj 346 127 inlet;
#X text 342 108 env pol;
#X obj 474 43 inlet;
#X text 470 25 keytrack;
#X obj 500 91 inlet;
#X text 492 74 resonance;
#X obj 395 47 inlet;
#X text 401 27 env;
#X obj 633 100 inlet;
#X obj 673 89 inlet;
#X obj 718 98 inlet;
#X text 641 56 a d s r;
#X obj 112 568 lop~ 600;
#X connect 0 0 18 0;
#X connect 0 0 19 0;
#X connect 1 0 2 1;
#X connect 2 0 14 0;
#X connect 3 0 5 0;
#X connect 3 0 5 1;
#X connect 4 0 10 0;
#X connect 5 0 24 0;
#X connect 6 0 2 0;
#X connect 6 0 25 0;
#X connect 8 0 0 0;
#X connect 11 0 23 1;
#X connect 12 0 11 1;
#X connect 13 0 11 0;
#X connect 13 1 12 0;
#X connect 14 0 16 0;
#X connect 15 0 16 1;
#X connect 15 0 17 1;
#X connect 16 0 17 0;
#X connect 17 0 4 0;
#X connect 18 0 3 1;
#X connect 18 0 3 0;
#X connect 18 0 50 0;
#X connect 19 1 14 1;
#X connect 20 0 1 0;
#X connect 21 0 15 0;
#X connect 22 0 21 0;
#X connect 23 0 22 0;
#X connect 24 0 23 0;
#X connect 25 0 26 0;
#X connect 26 0 28 0;
#X connect 27 0 22 1;
#X connect 28 0 27 0;
#X connect 28 1 27 1;
#X connect 29 0 20 0;
#X connect 31 0 14 2;
#X connect 32 0 14 3;
#X connect 35 0 18 1;
#X connect 36 0 27 0;
#X connect 38 0 13 0;
#X connect 40 0 26 1;
#X connect 42 0 16 2;
#X connect 42 0 17 2;
#X connect 44 0 11 0;
#X connect 46 0 18 2;
#X connect 47 0 18 3;
#X connect 48 0 18 4;
#X connect 50 0 4 1;
#X restore -60 424 pd double_saw_subtractive_synth_voice;
#X obj -367 133 pack 0 0;
#X obj -389 195 pack 0 0 0;
#X obj -145 358 +;
#X obj -224 111 - 8192;
#X obj -224 156 clip -1 1;
#X obj -224 135 / 8192;
#X obj -179 329 int;
#X obj -222 185 * 2;
#X text -193 186 bend range;
#X obj -157 301 unpack 0 0;
#X obj -222 210 t b f;
#X obj -214 56 inlet;
#X text -208 37 bend;
#X text -123 11 simple 303ish 1-(double)osc polysynth \, vanilla only
now with adsr and keytracking;
#X text 5 34 2015 martin brinkmann;
#N canvas 36 173 872 903 double_saw_subtractive_synth_voice 0;
#X obj 119 156 clip 0 1;
#X obj 106 345 * 12;
#X obj 72 375 +;
#X obj 217 476 *;
#X obj 185 780 *~;
#X obj 194 504 *;
#X obj 30 163 inlet;
#X text 25 135 pitch;
#X obj 120 129 inlet;
#X text 119 107 gate;
#X obj 184 811 outlet~;
#X obj 348 468 *;
#X obj 393 432 + 1;
#X obj 366 391 t b f;
#N canvas 1 78 704 786 doublesaw 0;
#X obj 18 30 inlet;
#X obj 58 123 mtof;
#X obj 59 159 phasor~;
#X obj 70 268 wrap~;
#X text 62 30 <-pitch;
#X text 279 27 <-sync;
#X obj 155 654 outlet~;
#X obj 144 361 hip~ 5;
#X obj 206 152 phasor~;
#X obj 213 264 wrap~;
#X obj 212 97 -;
#X obj 208 117 mtof;
#X obj 58 93 +;
#X obj 228 238 +~;
#X obj 324 292 - 1;
#X obj 324 246 == 0;
#X obj 329 273 * 2;
#X obj 197 321 *~ 1;
#X obj 227 28 inlet;
#X obj 318 173 inlet;
#X obj 369 23 inlet;
#X obj 144 525 *~ 0.125;
#X obj 144 548 rzero~ -1;
#X obj 144 571 rzero~ -1;
#X obj 144 594 rzero~ -1;
#X obj 143 399 *~ 0.2368;
#X obj 144 445 *~ 0.06261;
#X obj 143 422 rpole~ 0.76319;
#X obj 143 468 cpole~ 0.85223 0.20194;
#X obj 142 496 cpole~ 0.85223 -0.2019;
#X obj 392 67 block~ 64 1 8;
#X text 265 439 from pd docs modified for 8 times oversampling;
#X text 308 98 8 times oversampled \, i hope the pitch is right...
;
#X connect 0 0 12 0;
#X connect 0 0 10 0;
#X connect 1 0 2 0;
#X connect 2 0 3 0;
#X connect 3 0 7 0;
#X connect 7 0 25 0;
#X connect 8 0 13 0;
#X connect 9 0 17 0;
#X connect 10 0 11 0;
#X connect 11 0 8 0;
#X connect 12 0 1 0;
#X connect 13 0 9 0;
#X connect 14 0 17 1;
#X connect 15 0 16 0;
#X connect 16 0 14 0;
#X connect 17 0 7 0;
#X connect 18 0 2 1;
#X connect 18 0 8 1;
#X connect 19 0 13 1;
#X connect 19 0 15 0;
#X connect 20 0 10 1;
#X connect 20 0 12 1;
#X connect 21 0 22 0;
#X connect 22 0 23 0;
#X connect 23 0 24 0;
#X connect 24 0 6 0;
#X connect 25 0 27 0;
#X connect 26 0 28 0;
#X connect 27 0 26 0;
#X connect 28 0 29 0;
#X connect 28 1 29 1;
#X connect 29 0 21 0;
#X restore 69 501 pd doublesaw;
#X obj 259 640 clip~ 20 20000;
#N canvas 715 79 1076 1000 lopass2p2z 0;
#X obj -50 465 inlet~;
#X obj 129 919 outlet~;
#X obj 73 85 inlet~;
#X obj 87 200 sig~ 1;
#X obj 121 249 /~;
#X obj 219 59 samplerate~;
#X obj 110 376 sig~ 1;
#X obj 147 408 /~;
#X obj 214 340 +~;
#X obj 187 310 sig~ 1;
#X obj 251 318 *~;
#X obj 181 375 +~;
#X obj 112 295 *~;
#X text 41 361 a1/a3;
#X obj 222 407 sig~ 1;
#X obj 296 433 -~;
#X obj 299 457 *~ 2;
#X obj 286 506 *~;
#X obj 409 334 *~;
#X text 276 435 b1;
#X text 384 379 b2;
#X obj 361 397 sig~ 1;
#X obj 392 429 -~;
#X obj 377 512 *~;
#X text 99 246 c;
#X obj 397 462 +~;
#X obj 147 222 expr~ tan($v1);
#X obj 151 194 /~ 44100;
#X obj 129 153 *~ 3.14159;
#X text 408 73 resonance 0..1;
#X text 124 86 cutoff (hz);
#X text 420 186 a2= 2*a1 \, a3=a1;
#X text 420 150 c= 1/tan(pi*cutf/samplerate);
#X text 422 168 a1= 1/(1+res*c+c*c);
#X text 421 204 b1= 2*(1-c*c)*a1;
#X text 421 220 b2= (1-res*c+c*c)*a1;
#X obj 33 690 czero~;
#X obj 59 727 czero~;
#X obj 73 646 sig~ -1;
#X obj 90 670 sig~ 0;
#X obj 90 841 cpole~;
#X obj 129 888 cpole~;
#X obj 296 199 *~ 1.41421;
#X obj 307 148 -~;
#X obj 353 72 inlet~;
#X obj 279 94 sig~ 1;
#X text 28 627 zeros at fixed pos;
#X obj 178 840 *~ -1;
#X obj 184 805 expr~ sqrt($v1);
#X obj -44 595 *~;
#X obj 128 704 *~ -0.5;
#X text 219 845 2nd pole = 1st mirrored on the x axis;
#X text 183 704 b1/2 (x pos);
#X text 267 11 cookbook-like? (i cant remember where i got this from)
lp-filter;
#X obj 163 748 *~;
#X obj 183 781 -~;
#X text 217 666 pole position from coeffs:;
#X text 218 683 p=-b1/2+j*sqrt(b2-(b1/2)^2) (found somewhere on the
net...);
#X connect 0 0 49 0;
#X connect 2 0 28 0;
#X connect 3 0 4 0;
#X connect 4 0 10 0;
#X connect 4 0 12 0;
#X connect 4 0 12 1;
#X connect 4 0 18 0;
#X connect 5 0 27 1;
#X connect 6 0 7 0;
#X connect 7 0 17 1;
#X connect 7 0 23 0;
#X connect 7 0 49 1;
#X connect 8 0 11 1;
#X connect 9 0 8 0;
#X connect 10 0 8 1;
#X connect 11 0 7 1;
#X connect 12 0 11 0;
#X connect 12 0 15 1;
#X connect 12 0 25 1;
#X connect 14 0 15 0;
#X connect 15 0 16 0;
#X connect 16 0 17 0;
#X connect 17 0 50 0;
#X connect 18 0 22 1;
#X connect 21 0 22 0;
#X connect 22 0 25 0;
#X connect 23 0 55 0;
#X connect 25 0 23 1;
#X connect 26 0 4 1;
#X connect 27 0 26 0;
#X connect 28 0 27 0;
#X connect 36 0 37 0;
#X connect 36 1 37 1;
#X connect 37 0 40 0;
#X connect 37 1 40 1;
#X connect 38 0 36 2;
#X connect 38 0 37 2;
#X connect 39 0 37 3;
#X connect 39 0 36 3;
#X connect 40 0 41 0;
#X connect 40 1 41 1;
#X connect 41 0 1 0;
#X connect 42 0 10 1;
#X connect 42 0 18 1;
#X connect 43 0 42 0;
#X connect 44 0 43 1;
#X connect 45 0 43 0;
#X connect 47 0 41 3;
#X connect 48 0 40 3;
#X connect 48 0 47 0;
#X connect 49 0 36 0;
#X connect 50 0 40 2;
#X connect 50 0 41 2;
#X connect 50 0 54 0;
#X connect 50 0 54 1;
#X connect 54 0 55 1;
#X connect 55 0 48 0;
#X restore 95 703 pd lopass2p2z;
#N canvas 713 79 1076 1000 lopass2p2z 0;
#X obj -50 465 inlet~;
#X obj 129 919 outlet~;
#X obj 73 85 inlet~;
#X obj 87 200 sig~ 1;
#X obj 121 249 /~;
#X obj 219 59 samplerate~;
#X obj 110 376 sig~ 1;
#X obj 147 408 /~;
#X obj 214 340 +~;
#X obj 187 310 sig~ 1;
#X obj 251 318 *~;
#X obj 181 375 +~;
#X obj 112 295 *~;
#X text 41 361 a1/a3;
#X obj 222 407 sig~ 1;
#X obj 296 433 -~;
#X obj 299 457 *~ 2;
#X obj 286 506 *~;
#X obj 409 334 *~;
#X text 276 435 b1;
#X text 384 379 b2;
#X obj 361 397 sig~ 1;
#X obj 392 429 -~;
#X obj 377 512 *~;
#X text 99 246 c;
#X obj 397 462 +~;
#X obj 147 222 expr~ tan($v1);
#X obj 151 194 /~ 44100;
#X obj 129 153 *~ 3.14159;
#X text 408 73 resonance 0..1;
#X text 124 86 cutoff (hz);
#X text 420 186 a2= 2*a1 \, a3=a1;
#X text 420 150 c= 1/tan(pi*cutf/samplerate);
#X text 422 168 a1= 1/(1+res*c+c*c);
#X text 421 204 b1= 2*(1-c*c)*a1;
#X text 421 220 b2= (1-res*c+c*c)*a1;
#X obj 33 690 czero~;
#X obj 59 727 czero~;
#X obj 73 646 sig~ -1;
#X obj 90 670 sig~ 0;
#X obj 90 841 cpole~;
#X obj 129 888 cpole~;
#X obj 296 199 *~ 1.41421;
#X obj 307 148 -~;
#X obj 353 72 inlet~;
#X obj 279 94 sig~ 1;
#X text 28 627 zeros at fixed pos;
#X obj 178 840 *~ -1;
#X obj 184 805 expr~ sqrt($v1);
#X obj -44 595 *~;
#X obj 128 704 *~ -0.5;
#X text 219 845 2nd pole = 1st mirrored on the x axis;
#X text 183 704 b1/2 (x pos);
#X text 267 11 cookbook-like? (i cant remember where i got this from)
lp-filter;
#X obj 163 748 *~;
#X obj 183 781 -~;
#X text 217 666 pole position from coeffs:;
#X text 218 683 p=-b1/2+j*sqrt(b2-(b1/2)^2) (found somewhere on the
net...);
#X connect 0 0 49 0;
#X connect 2 0 28 0;
#X connect 3 0 4 0;
#X connect 4 0 10 0;
#X connect 4 0 12 0;
#X connect 4 0 12 1;
#X connect 4 0 18 0;
#X connect 5 0 27 1;
#X connect 6 0 7 0;
#X connect 7 0 17 1;
#X connect 7 0 23 0;
#X connect 7 0 49 1;
#X connect 8 0 11 1;
#X connect 9 0 8 0;
#X connect 10 0 8 1;
#X connect 11 0 7 1;
#X connect 12 0 11 0;
#X connect 12 0 15 1;
#X connect 12 0 25 1;
#X connect 14 0 15 0;
#X connect 15 0 16 0;
#X connect 16 0 17 0;
#X connect 17 0 50 0;
#X connect 18 0 22 1;
#X connect 21 0 22 0;
#X connect 22 0 25 0;
#X connect 23 0 55 0;
#X connect 25 0 23 1;
#X connect 26 0 4 1;
#X connect 27 0 26 0;
#X connect 28 0 27 0;
#X connect 36 0 37 0;
#X connect 36 1 37 1;
#X connect 37 0 40 0;
#X connect 37 1 40 1;
#X connect 38 0 36 2;
#X connect 38 0 37 2;
#X connect 39 0 37 3;
#X connect 39 0 36 3;
#X connect 40 0 41 0;
#X connect 40 1 41 1;
#X connect 41 0 1 0;
#X connect 42 0 10 1;
#X connect 42 0 18 1;
#X connect 43 0 42 0;
#X connect 44 0 43 1;
#X connect 45 0 43 0;
#X connect 47 0 41 3;
#X connect 48 0 40 3;
#X connect 48 0 47 0;
#X connect 49 0 36 0;
#X connect 50 0 40 2;
#X connect 50 0 41 2;
#X connect 50 0 54 0;
#X connect 50 0 54 1;
#X connect 54 0 55 1;
#X connect 55 0 48 0;
#X restore 105 733 pd lopass2p2z;
#N canvas 102 77 1108 856 adsr1 0;
#X obj -143 147 inlet;
#X msg 15 502 0;
#X obj 63 365 pack f f;
#X msg -148 457 0.75 27.9841;
#X msg 62 393 set \$1 \$2;
#X msg 63 325 bang;
#X obj 125 589 >=;
#X msg 216 752 0.255 789.048;
#X obj 157 632 moses 0.001;
#X obj 150 406 pack f f;
#X msg 151 436 set \$1 \$2;
#X msg 154 350 bang;
#X msg 313 372 set 0 \$1;
#X msg -135 357 bang;
#X msg -136 523 0 16;
#X obj -145 184 clip 0 1;
#X obj -113 211 moses 0.001;
#X obj 15 538 line 0 1;
#X obj -20 376 t f f;
#X obj 9 720 spigot;
#X obj 228 693 delay 0;
#X obj -49 150 inlet;
#X text -8 150 att;
#X obj 22 153 inlet;
#X text 63 153 dec;
#X obj 93 152 inlet;
#X text 134 152 sus;
#X obj 170 152 inlet;
#X text 211 152 rel;
#X obj -106 711 outlet;
#X connect 0 0 15 0;
#X connect 1 0 17 0;
#X connect 2 0 4 0;
#X connect 3 0 17 0;
#X connect 4 0 3 0;
#X connect 5 0 2 0;
#X connect 6 0 8 0;
#X connect 7 0 19 0;
#X connect 8 1 20 0;
#X connect 9 0 10 0;
#X connect 10 0 7 0;
#X connect 11 0 9 0;
#X connect 12 0 14 0;
#X connect 13 0 14 0;
#X connect 14 0 17 0;
#X connect 15 0 16 0;
#X connect 15 0 19 1;
#X connect 16 0 13 0;
#X connect 16 1 2 0;
#X connect 16 1 18 0;
#X connect 17 0 6 0;
#X connect 17 0 29 0;
#X connect 18 0 3 0;
#X connect 18 1 6 1;
#X connect 18 1 1 0;
#X connect 19 0 17 0;
#X connect 20 0 7 0;
#X connect 21 0 2 1;
#X connect 21 0 5 0;
#X connect 23 0 11 0;
#X connect 23 0 9 1;
#X connect 25 0 11 0;
#X connect 25 0 9 0;
#X connect 27 0 12 0;
#X coords 0 0 1 1 120 160 0;
#X restore 223 450 pd adsr1;
#X obj 116 273 moses 0.0001;
#X obj 107 323 - 2;
#X obj 262 614 mtof~;
#X obj 257 588 +~;
#X obj 244 561 *~;
#X obj 167 533 lop~ 600;
#X obj 258 285 - 64;
#X obj 274 342 *;
#X obj 297 550 +;
#X obj 285 504 t b f;
#X obj 212 151 inlet;
#X text 216 134 okt;
#X obj 256 147 inlet;
#X obj 297 148 inlet;
#X text 264 129 phase;
#X text 303 129 detune;
#X obj 593 103 inlet;
#X obj 429 89 inlet;
#X text 421 70 cutoff;
#X obj 346 127 inlet;
#X text 342 108 env pol;
#X obj 474 43 inlet;
#X text 470 25 keytrack;
#X obj 500 91 inlet;
#X text 492 74 resonance;
#X obj 395 47 inlet;
#X text 401 27 env;
#X obj 633 100 inlet;
#X obj 673 89 inlet;
#X obj 718 98 inlet;
#X text 641 56 a d s r;
#X obj 112 568 lop~ 600;
#X connect 0 0 18 0;
#X connect 0 0 19 0;
#X connect 1 0 2 1;
#X connect 2 0 14 0;
#X connect 3 0 5 0;
#X connect 3 0 5 1;
#X connect 4 0 10 0;
#X connect 5 0 24 0;
#X connect 6 0 2 0;
#X connect 6 0 25 0;
#X connect 8 0 0 0;
#X connect 11 0 23 1;
#X connect 12 0 11 1;
#X connect 13 0 11 0;
#X connect 13 1 12 0;
#X connect 14 0 16 0;
#X connect 15 0 16 1;
#X connect 15 0 17 1;
#X connect 16 0 17 0;
#X connect 17 0 4 0;
#X connect 18 0 3 1;
#X connect 18 0 3 0;
#X connect 18 0 50 0;
#X connect 19 1 14 1;
#X connect 20 0 1 0;
#X connect 21 0 15 0;
#X connect 22 0 21 0;
#X connect 23 0 22 0;
#X connect 24 0 4 1;
#X connect 24 0 23 0;
#X connect 25 0 26 0;
#X connect 26 0 28 0;
#X connect 27 0 22 1;
#X connect 28 0 27 0;
#X connect 28 1 27 1;
#X connect 29 0 20 0;
#X connect 31 0 14 2;
#X connect 32 0 14 3;
#X connect 35 0 18 1;
#X connect 36 0 27 0;
#X connect 38 0 13 0;
#X connect 40 0 26 1;
#X connect 42 0 16 2;
#X connect 42 0 17 2;
#X connect 44 0 11 0;
#X connect 46 0 18 2;
#X connect 47 0 18 3;
#X connect 48 0 18 4;
#X connect 50 0 4 1;
#X restore -128 495 pd double_saw_subtractive_synth_voice;
#X obj -176 449 +;
#X obj -210 420 int;
#X obj -188 392 unpack 0 0;
#N canvas 36 173 872 903 double_saw_subtractive_synth_voice 0;
#X obj 119 156 clip 0 1;
#X obj 106 345 * 12;
#X obj 72 375 +;
#X obj 217 476 *;
#X obj 185 780 *~;
#X obj 194 504 *;
#X obj 30 163 inlet;
#X text 25 135 pitch;
#X obj 120 129 inlet;
#X text 119 107 gate;
#X obj 184 811 outlet~;
#X obj 348 468 *;
#X obj 393 432 + 1;
#X obj 366 391 t b f;
#N canvas 1 78 704 786 doublesaw 0;
#X obj 18 30 inlet;
#X obj 58 123 mtof;
#X obj 59 159 phasor~;
#X obj 70 268 wrap~;
#X text 62 30 <-pitch;
#X text 279 27 <-sync;
#X obj 155 654 outlet~;
#X obj 144 361 hip~ 5;
#X obj 206 152 phasor~;
#X obj 213 264 wrap~;
#X obj 212 97 -;
#X obj 208 117 mtof;
#X obj 58 93 +;
#X obj 228 238 +~;
#X obj 324 292 - 1;
#X obj 324 246 == 0;
#X obj 329 273 * 2;
#X obj 197 321 *~ 1;
#X obj 227 28 inlet;
#X obj 318 173 inlet;
#X obj 369 23 inlet;
#X obj 144 525 *~ 0.125;
#X obj 144 548 rzero~ -1;
#X obj 144 571 rzero~ -1;
#X obj 144 594 rzero~ -1;
#X obj 143 399 *~ 0.2368;
#X obj 144 445 *~ 0.06261;
#X obj 143 422 rpole~ 0.76319;
#X obj 143 468 cpole~ 0.85223 0.20194;
#X obj 142 496 cpole~ 0.85223 -0.2019;
#X obj 392 67 block~ 64 1 8;
#X text 265 439 from pd docs modified for 8 times oversampling;
#X text 308 98 8 times oversampled \, i hope the pitch is right...
;
#X connect 0 0 12 0;
#X connect 0 0 10 0;
#X connect 1 0 2 0;
#X connect 2 0 3 0;
#X connect 3 0 7 0;
#X connect 7 0 25 0;
#X connect 8 0 13 0;
#X connect 9 0 17 0;
#X connect 10 0 11 0;
#X connect 11 0 8 0;
#X connect 12 0 1 0;
#X connect 13 0 9 0;
#X connect 14 0 17 1;
#X connect 15 0 16 0;
#X connect 16 0 14 0;
#X connect 17 0 7 0;
#X connect 18 0 2 1;
#X connect 18 0 8 1;
#X connect 19 0 13 1;
#X connect 19 0 15 0;
#X connect 20 0 10 1;
#X connect 20 0 12 1;
#X connect 21 0 22 0;
#X connect 22 0 23 0;
#X connect 23 0 24 0;
#X connect 24 0 6 0;
#X connect 25 0 27 0;
#X connect 26 0 28 0;
#X connect 27 0 26 0;
#X connect 28 0 29 0;
#X connect 28 1 29 1;
#X connect 29 0 21 0;
#X restore 69 501 pd doublesaw;
#X obj 259 640 clip~ 20 20000;
#N canvas 715 79 1076 1000 lopass2p2z 0;
#X obj -50 465 inlet~;
#X obj 129 919 outlet~;
#X obj 73 85 inlet~;
#X obj 87 200 sig~ 1;
#X obj 121 249 /~;
#X obj 219 59 samplerate~;
#X obj 110 376 sig~ 1;
#X obj 147 408 /~;
#X obj 214 340 +~;
#X obj 187 310 sig~ 1;
#X obj 251 318 *~;
#X obj 181 375 +~;
#X obj 112 295 *~;
#X text 41 361 a1/a3;
#X obj 222 407 sig~ 1;
#X obj 296 433 -~;
#X obj 299 457 *~ 2;
#X obj 286 506 *~;
#X obj 409 334 *~;
#X text 276 435 b1;
#X text 384 379 b2;
#X obj 361 397 sig~ 1;
#X obj 392 429 -~;
#X obj 377 512 *~;
#X text 99 246 c;
#X obj 397 462 +~;
#X obj 147 222 expr~ tan($v1);
#X obj 151 194 /~ 44100;
#X obj 129 153 *~ 3.14159;
#X text 408 73 resonance 0..1;
#X text 124 86 cutoff (hz);
#X text 420 186 a2= 2*a1 \, a3=a1;
#X text 420 150 c= 1/tan(pi*cutf/samplerate);
#X text 422 168 a1= 1/(1+res*c+c*c);
#X text 421 204 b1= 2*(1-c*c)*a1;
#X text 421 220 b2= (1-res*c+c*c)*a1;
#X obj 33 690 czero~;
#X obj 59 727 czero~;
#X obj 73 646 sig~ -1;
#X obj 90 670 sig~ 0;
#X obj 90 841 cpole~;
#X obj 129 888 cpole~;
#X obj 296 199 *~ 1.41421;
#X obj 307 148 -~;
#X obj 353 72 inlet~;
#X obj 279 94 sig~ 1;
#X text 28 627 zeros at fixed pos;
#X obj 178 840 *~ -1;
#X obj 184 805 expr~ sqrt($v1);
#X obj -44 595 *~;
#X obj 128 704 *~ -0.5;
#X text 219 845 2nd pole = 1st mirrored on the x axis;
#X text 183 704 b1/2 (x pos);
#X text 267 11 cookbook-like? (i cant remember where i got this from)
lp-filter;
#X obj 163 748 *~;
#X obj 183 781 -~;
#X text 217 666 pole position from coeffs:;
#X text 218 683 p=-b1/2+j*sqrt(b2-(b1/2)^2) (found somewhere on the
net...);
#X connect 0 0 49 0;
#X connect 2 0 28 0;
#X connect 3 0 4 0;
#X connect 4 0 10 0;
#X connect 4 0 12 0;
#X connect 4 0 12 1;
#X connect 4 0 18 0;
#X connect 5 0 27 1;
#X connect 6 0 7 0;
#X connect 7 0 17 1;
#X connect 7 0 23 0;
#X connect 7 0 49 1;
#X connect 8 0 11 1;
#X connect 9 0 8 0;
#X connect 10 0 8 1;
#X connect 11 0 7 1;
#X connect 12 0 11 0;
#X connect 12 0 15 1;
#X connect 12 0 25 1;
#X connect 14 0 15 0;
#X connect 15 0 16 0;
#X connect 16 0 17 0;
#X connect 17 0 50 0;
#X connect 18 0 22 1;
#X connect 21 0 22 0;
#X connect 22 0 25 0;
#X connect 23 0 55 0;
#X connect 25 0 23 1;
#X connect 26 0 4 1;
#X connect 27 0 26 0;
#X connect 28 0 27 0;
#X connect 36 0 37 0;
#X connect 36 1 37 1;
#X connect 37 0 40 0;
#X connect 37 1 40 1;
#X connect 38 0 36 2;
#X connect 38 0 37 2;
#X connect 39 0 37 3;
#X connect 39 0 36 3;
#X connect 40 0 41 0;
#X connect 40 1 41 1;
#X connect 41 0 1 0;
#X connect 42 0 10 1;
#X connect 42 0 18 1;
#X connect 43 0 42 0;
#X connect 44 0 43 1;
#X connect 45 0 43 0;
#X connect 47 0 41 3;
#X connect 48 0 40 3;
#X connect 48 0 47 0;
#X connect 49 0 36 0;
#X connect 50 0 40 2;
#X connect 50 0 41 2;
#X connect 50 0 54 0;
#X connect 50 0 54 1;
#X connect 54 0 55 1;
#X connect 55 0 48 0;
#X restore 95 703 pd lopass2p2z;
#N canvas 713 79 1076 1000 lopass2p2z 0;
#X obj -50 465 inlet~;
#X obj 129 919 outlet~;
#X obj 73 85 inlet~;
#X obj 87 200 sig~ 1;
#X obj 121 249 /~;
#X obj 219 59 samplerate~;
#X obj 110 376 sig~ 1;
#X obj 147 408 /~;
#X obj 214 340 +~;
#X obj 187 310 sig~ 1;
#X obj 251 318 *~;
#X obj 181 375 +~;
#X obj 112 295 *~;
#X text 41 361 a1/a3;
#X obj 222 407 sig~ 1;
#X obj 296 433 -~;
#X obj 299 457 *~ 2;
#X obj 286 506 *~;
#X obj 409 334 *~;
#X text 276 435 b1;
#X text 384 379 b2;
#X obj 361 397 sig~ 1;
#X obj 392 429 -~;
#X obj 377 512 *~;
#X text 99 246 c;
#X obj 397 462 +~;
#X obj 147 222 expr~ tan($v1);
#X obj 151 194 /~ 44100;
#X obj 129 153 *~ 3.14159;
#X text 408 73 resonance 0..1;
#X text 124 86 cutoff (hz);
#X text 420 186 a2= 2*a1 \, a3=a1;
#X text 420 150 c= 1/tan(pi*cutf/samplerate);
#X text 422 168 a1= 1/(1+res*c+c*c);
#X text 421 204 b1= 2*(1-c*c)*a1;
#X text 421 220 b2= (1-res*c+c*c)*a1;
#X obj 33 690 czero~;
#X obj 59 727 czero~;
#X obj 73 646 sig~ -1;
#X obj 90 670 sig~ 0;
#X obj 90 841 cpole~;
#X obj 129 888 cpole~;
#X obj 296 199 *~ 1.41421;
#X obj 307 148 -~;
#X obj 353 72 inlet~;
#X obj 279 94 sig~ 1;
#X text 28 627 zeros at fixed pos;
#X obj 178 840 *~ -1;
#X obj 184 805 expr~ sqrt($v1);
#X obj -44 595 *~;
#X obj 128 704 *~ -0.5;
#X text 219 845 2nd pole = 1st mirrored on the x axis;
#X text 183 704 b1/2 (x pos);
#X text 267 11 cookbook-like? (i cant remember where i got this from)
lp-filter;
#X obj 163 748 *~;
#X obj 183 781 -~;
#X text 217 666 pole position from coeffs:;
#X text 218 683 p=-b1/2+j*sqrt(b2-(b1/2)^2) (found somewhere on the
net...);
#X connect 0 0 49 0;
#X connect 2 0 28 0;
#X connect 3 0 4 0;
#X connect 4 0 10 0;
#X connect 4 0 12 0;
#X connect 4 0 12 1;
#X connect 4 0 18 0;
#X connect 5 0 27 1;
#X connect 6 0 7 0;
#X connect 7 0 17 1;
#X connect 7 0 23 0;
#X connect 7 0 49 1;
#X connect 8 0 11 1;
#X connect 9 0 8 0;
#X connect 10 0 8 1;
#X connect 11 0 7 1;
#X connect 12 0 11 0;
#X connect 12 0 15 1;
#X connect 12 0 25 1;
#X connect 14 0 15 0;
#X connect 15 0 16 0;
#X connect 16 0 17 0;
#X connect 17 0 50 0;
#X connect 18 0 22 1;
#X connect 21 0 22 0;
#X connect 22 0 25 0;
#X connect 23 0 55 0;
#X connect 25 0 23 1;
#X connect 26 0 4 1;
#X connect 27 0 26 0;
#X connect 28 0 27 0;
#X connect 36 0 37 0;
#X connect 36 1 37 1;
#X connect 37 0 40 0;
#X connect 37 1 40 1;
#X connect 38 0 36 2;
#X connect 38 0 37 2;
#X connect 39 0 37 3;
#X connect 39 0 36 3;
#X connect 40 0 41 0;
#X connect 40 1 41 1;
#X connect 41 0 1 0;
#X connect 42 0 10 1;
#X connect 42 0 18 1;
#X connect 43 0 42 0;
#X connect 44 0 43 1;
#X connect 45 0 43 0;
#X connect 47 0 41 3;
#X connect 48 0 40 3;
#X connect 48 0 47 0;
#X connect 49 0 36 0;
#X connect 50 0 40 2;
#X connect 50 0 41 2;
#X connect 50 0 54 0;
#X connect 50 0 54 1;
#X connect 54 0 55 1;
#X connect 55 0 48 0;
#X restore 105 733 pd lopass2p2z;
#N canvas 102 77 1108 856 adsr1 0;
#X obj -143 147 inlet;
#X msg 15 502 0;
#X obj 63 365 pack f f;
#X msg -148 457 0.75 27.9841;
#X msg 62 393 set \$1 \$2;
#X msg 63 325 bang;
#X obj 125 589 >=;
#X msg 216 752 0.255 789.048;
#X obj 157 632 moses 0.001;
#X obj 150 406 pack f f;
#X msg 151 436 set \$1 \$2;
#X msg 154 350 bang;
#X msg 313 372 set 0 \$1;
#X msg -135 357 bang;
#X msg -136 523 0 16;
#X obj -145 184 clip 0 1;
#X obj -113 211 moses 0.001;
#X obj 15 538 line 0 1;
#X obj -20 376 t f f;
#X obj 9 720 spigot;
#X obj 228 693 delay 0;
#X obj -49 150 inlet;
#X text -8 150 att;
#X obj 22 153 inlet;
#X text 63 153 dec;
#X obj 93 152 inlet;
#X text 134 152 sus;
#X obj 170 152 inlet;
#X text 211 152 rel;
#X obj -106 711 outlet;
#X connect 0 0 15 0;
#X connect 1 0 17 0;
#X connect 2 0 4 0;
#X connect 3 0 17 0;
#X connect 4 0 3 0;
#X connect 5 0 2 0;
#X connect 6 0 8 0;
#X connect 7 0 19 0;
#X connect 8 1 20 0;
#X connect 9 0 10 0;
#X connect 10 0 7 0;
#X connect 11 0 9 0;
#X connect 12 0 14 0;
#X connect 13 0 14 0;
#X connect 14 0 17 0;
#X connect 15 0 16 0;
#X connect 15 0 19 1;
#X connect 16 0 13 0;
#X connect 16 1 2 0;
#X connect 16 1 18 0;
#X connect 17 0 6 0;
#X connect 17 0 29 0;
#X connect 18 0 3 0;
#X connect 18 1 6 1;
#X connect 18 1 1 0;
#X connect 19 0 17 0;
#X connect 20 0 7 0;
#X connect 21 0 2 1;
#X connect 21 0 5 0;
#X connect 23 0 11 0;
#X connect 23 0 9 1;
#X connect 25 0 11 0;
#X connect 25 0 9 0;
#X connect 27 0 12 0;
#X coords 0 0 1 1 120 160 0;
#X restore 223 450 pd adsr1;
#X obj 116 273 moses 0.0001;
#X obj 107 323 - 2;
#X obj 262 614 mtof~;
#X obj 257 588 +~;
#X obj 244 561 *~;
#X obj 167 533 lop~ 600;
#X obj 258 285 - 64;
#X obj 274 342 *;
#X obj 297 550 +;
#X obj 285 504 t b f;
#X obj 212 151 inlet;
#X text 216 134 okt;
#X obj 256 147 inlet;
#X obj 297 148 inlet;
#X text 264 129 phase;
#X text 303 129 detune;
#X obj 593 103 inlet;
#X obj 429 89 inlet;
#X text 421 70 cutoff;
#X obj 346 127 inlet;
#X text 342 108 env pol;
#X obj 474 43 inlet;
#X text 470 25 keytrack;
#X obj 500 91 inlet;
#X text 492 74 resonance;
#X obj 395 47 inlet;
#X text 401 27 env;
#X obj 633 100 inlet;
#X obj 673 89 inlet;
#X obj 718 98 inlet;
#X text 641 56 a d s r;
#X obj 112 568 lop~ 600;
#X connect 0 0 18 0;
#X connect 0 0 19 0;
#X connect 1 0 2 1;
#X connect 2 0 14 0;
#X connect 3 0 5 0;
#X connect 3 0 5 1;
#X connect 4 0 10 0;
#X connect 5 0 24 0;
#X connect 6 0 2 0;
#X connect 6 0 25 0;
#X connect 8 0 0 0;
#X connect 11 0 23 1;
#X connect 12 0 11 1;
#X connect 13 0 11 0;
#X connect 13 1 12 0;
#X connect 14 0 16 0;
#X connect 15 0 16 1;
#X connect 15 0 17 1;
#X connect 16 0 17 0;
#X connect 17 0 4 0;
#X connect 18 0 3 1;
#X connect 18 0 3 0;
#X connect 18 0 50 0;
#X connect 19 1 14 1;
#X connect 20 0 1 0;
#X connect 21 0 15 0;
#X connect 22 0 21 0;
#X connect 23 0 22 0;
#X connect 24 0 23 0;
#X connect 25 0 26 0;
#X connect 26 0 28 0;
#X connect 27 0 22 1;
#X connect 28 0 27 0;
#X connect 28 1 27 1;
#X connect 29 0 20 0;
#X connect 31 0 14 2;
#X connect 32 0 14 3;
#X connect 35 0 18 1;
#X connect 36 0 27 0;
#X connect 38 0 13 0;
#X connect 40 0 26 1;
#X connect 42 0 16 2;
#X connect 42 0 17 2;
#X connect 44 0 11 0;
#X connect 46 0 18 2;
#X connect 47 0 18 3;
#X connect 48 0 18 4;
#X connect 50 0 4 1;
#X restore -191 567 pd double_saw_subtractive_synth_voice;
#X obj -219 542 +;
#X obj -253 513 int;
#X obj -231 485 unpack 0 0;
#N canvas 36 173 872 903 double_saw_subtractive_synth_voice 0;
#X obj 119 156 clip 0 1;
#X obj 106 345 * 12;
#X obj 72 375 +;
#X obj 217 476 *;
#X obj 185 780 *~;
#X obj 194 504 *;
#X obj 30 163 inlet;
#X text 25 135 pitch;
#X obj 120 129 inlet;
#X text 119 107 gate;
#X obj 184 811 outlet~;
#X obj 348 468 *;
#X obj 393 432 + 1;
#X obj 366 391 t b f;
#N canvas 1 78 704 786 doublesaw 0;
#X obj 18 30 inlet;
#X obj 58 123 mtof;
#X obj 59 159 phasor~;
#X obj 70 268 wrap~;
#X text 62 30 <-pitch;
#X text 279 27 <-sync;
#X obj 155 654 outlet~;
#X obj 144 361 hip~ 5;
#X obj 206 152 phasor~;
#X obj 213 264 wrap~;
#X obj 212 97 -;
#X obj 208 117 mtof;
#X obj 58 93 +;
#X obj 228 238 +~;
#X obj 324 292 - 1;
#X obj 324 246 == 0;
#X obj 329 273 * 2;
#X obj 197 321 *~ 1;
#X obj 227 28 inlet;
#X obj 318 173 inlet;
#X obj 369 23 inlet;
#X obj 144 525 *~ 0.125;
#X obj 144 548 rzero~ -1;
#X obj 144 571 rzero~ -1;
#X obj 144 594 rzero~ -1;
#X obj 143 399 *~ 0.2368;
#X obj 144 445 *~ 0.06261;
#X obj 143 422 rpole~ 0.76319;
#X obj 143 468 cpole~ 0.85223 0.20194;
#X obj 142 496 cpole~ 0.85223 -0.2019;
#X obj 392 67 block~ 64 1 8;
#X text 265 439 from pd docs modified for 8 times oversampling;
#X text 308 98 8 times oversampled \, i hope the pitch is right...
;
#X connect 0 0 12 0;
#X connect 0 0 10 0;
#X connect 1 0 2 0;
#X connect 2 0 3 0;
#X connect 3 0 7 0;
#X connect 7 0 25 0;
#X connect 8 0 13 0;
#X connect 9 0 17 0;
#X connect 10 0 11 0;
#X connect 11 0 8 0;
#X connect 12 0 1 0;
#X connect 13 0 9 0;
#X connect 14 0 17 1;
#X connect 15 0 16 0;
#X connect 16 0 14 0;
#X connect 17 0 7 0;
#X connect 18 0 2 1;
#X connect 18 0 8 1;
#X connect 19 0 13 1;
#X connect 19 0 15 0;
#X connect 20 0 10 1;
#X connect 20 0 12 1;
#X connect 21 0 22 0;
#X connect 22 0 23 0;
#X connect 23 0 24 0;
#X connect 24 0 6 0;
#X connect 25 0 27 0;
#X connect 26 0 28 0;
#X connect 27 0 26 0;
#X connect 28 0 29 0;
#X connect 28 1 29 1;
#X connect 29 0 21 0;
#X restore 69 501 pd doublesaw;
#X obj 259 640 clip~ 20 20000;
#N canvas 715 79 1076 1000 lopass2p2z 0;
#X obj -50 465 inlet~;
#X obj 129 919 outlet~;
#X obj 73 85 inlet~;
#X obj 87 200 sig~ 1;
#X obj 121 249 /~;
#X obj 219 59 samplerate~;
#X obj 110 376 sig~ 1;
#X obj 147 408 /~;
#X obj 214 340 +~;
#X obj 187 310 sig~ 1;
#X obj 251 318 *~;
#X obj 181 375 +~;
#X obj 112 295 *~;
#X text 41 361 a1/a3;
#X obj 222 407 sig~ 1;
#X obj 296 433 -~;
#X obj 299 457 *~ 2;
#X obj 286 506 *~;
#X obj 409 334 *~;
#X text 276 435 b1;
#X text 384 379 b2;
#X obj 361 397 sig~ 1;
#X obj 392 429 -~;
#X obj 377 512 *~;
#X text 99 246 c;
#X obj 397 462 +~;
#X obj 147 222 expr~ tan($v1);
#X obj 151 194 /~ 44100;
#X obj 129 153 *~ 3.14159;
#X text 408 73 resonance 0..1;
#X text 124 86 cutoff (hz);
#X text 420 186 a2= 2*a1 \, a3=a1;
#X text 420 150 c= 1/tan(pi*cutf/samplerate);
#X text 422 168 a1= 1/(1+res*c+c*c);
#X text 421 204 b1= 2*(1-c*c)*a1;
#X text 421 220 b2= (1-res*c+c*c)*a1;
#X obj 33 690 czero~;
#X obj 59 727 czero~;
#X obj 73 646 sig~ -1;
#X obj 90 670 sig~ 0;
#X obj 90 841 cpole~;
#X obj 129 888 cpole~;
#X obj 296 199 *~ 1.41421;
#X obj 307 148 -~;
#X obj 353 72 inlet~;
#X obj 279 94 sig~ 1;
#X text 28 627 zeros at fixed pos;
#X obj 178 840 *~ -1;
#X obj 184 805 expr~ sqrt($v1);
#X obj -44 595 *~;
#X obj 128 704 *~ -0.5;
#X text 219 845 2nd pole = 1st mirrored on the x axis;
#X text 183 704 b1/2 (x pos);
#X text 267 11 cookbook-like? (i cant remember where i got this from)
lp-filter;
#X obj 163 748 *~;
#X obj 183 781 -~;
#X text 217 666 pole position from coeffs:;
#X text 218 683 p=-b1/2+j*sqrt(b2-(b1/2)^2) (found somewhere on the
net...);
#X connect 0 0 49 0;
#X connect 2 0 28 0;
#X connect 3 0 4 0;
#X connect 4 0 10 0;
#X connect 4 0 12 0;
#X connect 4 0 12 1;
#X connect 4 0 18 0;
#X connect 5 0 27 1;
#X connect 6 0 7 0;
#X connect 7 0 17 1;
#X connect 7 0 23 0;
#X connect 7 0 49 1;
#X connect 8 0 11 1;
#X connect 9 0 8 0;
#X connect 10 0 8 1;
#X connect 11 0 7 1;
#X connect 12 0 11 0;
#X connect 12 0 15 1;
#X connect 12 0 25 1;
#X connect 14 0 15 0;
#X connect 15 0 16 0;
#X connect 16 0 17 0;
#X connect 17 0 50 0;
#X connect 18 0 22 1;
#X connect 21 0 22 0;
#X connect 22 0 25 0;
#X connect 23 0 55 0;
#X connect 25 0 23 1;
#X connect 26 0 4 1;
#X connect 27 0 26 0;
#X connect 28 0 27 0;
#X connect 36 0 37 0;
#X connect 36 1 37 1;
#X connect 37 0 40 0;
#X connect 37 1 40 1;
#X connect 38 0 36 2;
#X connect 38 0 37 2;
#X connect 39 0 37 3;
#X connect 39 0 36 3;
#X connect 40 0 41 0;
#X connect 40 1 41 1;
#X connect 41 0 1 0;
#X connect 42 0 10 1;
#X connect 42 0 18 1;
#X connect 43 0 42 0;
#X connect 44 0 43 1;
#X connect 45 0 43 0;
#X connect 47 0 41 3;
#X connect 48 0 40 3;
#X connect 48 0 47 0;
#X connect 49 0 36 0;
#X connect 50 0 40 2;
#X connect 50 0 41 2;
#X connect 50 0 54 0;
#X connect 50 0 54 1;
#X connect 54 0 55 1;
#X connect 55 0 48 0;
#X restore 95 703 pd lopass2p2z;
#N canvas 713 79 1076 1000 lopass2p2z 0;
#X obj -50 465 inlet~;
#X obj 129 919 outlet~;
#X obj 73 85 inlet~;
#X obj 87 200 sig~ 1;
#X obj 121 249 /~;
#X obj 219 59 samplerate~;
#X obj 110 376 sig~ 1;
#X obj 147 408 /~;
#X obj 214 340 +~;
#X obj 187 310 sig~ 1;
#X obj 251 318 *~;
#X obj 181 375 +~;
#X obj 112 295 *~;
#X text 41 361 a1/a3;
#X obj 222 407 sig~ 1;
#X obj 296 433 -~;
#X obj 299 457 *~ 2;
#X obj 286 506 *~;
#X obj 409 334 *~;
#X text 276 435 b1;
#X text 384 379 b2;
#X obj 361 397 sig~ 1;
#X obj 392 429 -~;
#X obj 377 512 *~;
#X text 99 246 c;
#X obj 397 462 +~;
#X obj 147 222 expr~ tan($v1);
#X obj 151 194 /~ 44100;
#X obj 129 153 *~ 3.14159;
#X text 408 73 resonance 0..1;
#X text 124 86 cutoff (hz);
#X text 420 186 a2= 2*a1 \, a3=a1;
#X text 420 150 c= 1/tan(pi*cutf/samplerate);
#X text 422 168 a1= 1/(1+res*c+c*c);
#X text 421 204 b1= 2*(1-c*c)*a1;
#X text 421 220 b2= (1-res*c+c*c)*a1;
#X obj 33 690 czero~;
#X obj 59 727 czero~;
#X obj 73 646 sig~ -1;
#X obj 90 670 sig~ 0;
#X obj 90 841 cpole~;
#X obj 129 888 cpole~;
#X obj 296 199 *~ 1.41421;
#X obj 307 148 -~;
#X obj 353 72 inlet~;
#X obj 279 94 sig~ 1;
#X text 28 627 zeros at fixed pos;
#X obj 178 840 *~ -1;
#X obj 184 805 expr~ sqrt($v1);
#X obj -44 595 *~;
#X obj 128 704 *~ -0.5;
#X text 219 845 2nd pole = 1st mirrored on the x axis;
#X text 183 704 b1/2 (x pos);
#X text 267 11 cookbook-like? (i cant remember where i got this from)
lp-filter;
#X obj 163 748 *~;
#X obj 183 781 -~;
#X text 217 666 pole position from coeffs:;
#X text 218 683 p=-b1/2+j*sqrt(b2-(b1/2)^2) (found somewhere on the
net...);
#X connect 0 0 49 0;
#X connect 2 0 28 0;
#X connect 3 0 4 0;
#X connect 4 0 10 0;
#X connect 4 0 12 0;
#X connect 4 0 12 1;
#X connect 4 0 18 0;
#X connect 5 0 27 1;
#X connect 6 0 7 0;
#X connect 7 0 17 1;
#X connect 7 0 23 0;
#X connect 7 0 49 1;
#X connect 8 0 11 1;
#X connect 9 0 8 0;
#X connect 10 0 8 1;
#X connect 11 0 7 1;
#X connect 12 0 11 0;
#X connect 12 0 15 1;
#X connect 12 0 25 1;
#X connect 14 0 15 0;
#X connect 15 0 16 0;
#X connect 16 0 17 0;
#X connect 17 0 50 0;
#X connect 18 0 22 1;
#X connect 21 0 22 0;
#X connect 22 0 25 0;
#X connect 23 0 55 0;
#X connect 25 0 23 1;
#X connect 26 0 4 1;
#X connect 27 0 26 0;
#X connect 28 0 27 0;
#X connect 36 0 37 0;
#X connect 36 1 37 1;
#X connect 37 0 40 0;
#X connect 37 1 40 1;
#X connect 38 0 36 2;
#X connect 38 0 37 2;
#X connect 39 0 37 3;
#X connect 39 0 36 3;
#X connect 40 0 41 0;
#X connect 40 1 41 1;
#X connect 41 0 1 0;
#X connect 42 0 10 1;
#X connect 42 0 18 1;
#X connect 43 0 42 0;
#X connect 44 0 43 1;
#X connect 45 0 43 0;
#X connect 47 0 41 3;
#X connect 48 0 40 3;
#X connect 48 0 47 0;
#X connect 49 0 36 0;
#X connect 50 0 40 2;
#X connect 50 0 41 2;
#X connect 50 0 54 0;
#X connect 50 0 54 1;
#X connect 54 0 55 1;
#X connect 55 0 48 0;
#X restore 105 733 pd lopass2p2z;
#N canvas 102 77 1108 856 adsr1 0;
#X obj -143 147 inlet;
#X msg 15 502 0;
#X obj 63 365 pack f f;
#X msg -148 457 0.8125 27.9841;
#X msg 62 393 set \$1 \$2;
#X msg 63 325 bang;
#X obj 125 589 >=;
#X msg 216 752 0.255 789.048;
#X obj 157 632 moses 0.001;
#X obj 150 406 pack f f;
#X msg 151 436 set \$1 \$2;
#X msg 154 350 bang;
#X msg 313 372 set 0 \$1;
#X msg -135 357 bang;
#X msg -136 523 0 16;
#X obj -145 184 clip 0 1;
#X obj -113 211 moses 0.001;
#X obj 15 538 line 0 1;
#X obj -20 376 t f f;
#X obj 9 720 spigot;
#X obj 228 693 delay 0;
#X obj -49 150 inlet;
#X text -8 150 att;
#X obj 22 153 inlet;
#X text 63 153 dec;
#X obj 93 152 inlet;
#X text 134 152 sus;
#X obj 170 152 inlet;
#X text 211 152 rel;
#X obj -106 711 outlet;
#X connect 0 0 15 0;
#X connect 1 0 17 0;
#X connect 2 0 4 0;
#X connect 3 0 17 0;
#X connect 4 0 3 0;
#X connect 5 0 2 0;
#X connect 6 0 8 0;
#X connect 7 0 19 0;
#X connect 8 1 20 0;
#X connect 9 0 10 0;
#X connect 10 0 7 0;
#X connect 11 0 9 0;
#X connect 12 0 14 0;
#X connect 13 0 14 0;
#X connect 14 0 17 0;
#X connect 15 0 16 0;
#X connect 15 0 19 1;
#X connect 16 0 13 0;
#X connect 16 1 2 0;
#X connect 16 1 18 0;
#X connect 17 0 6 0;
#X connect 17 0 29 0;
#X connect 18 0 3 0;
#X connect 18 1 6 1;
#X connect 18 1 1 0;
#X connect 19 0 17 0;
#X connect 20 0 7 0;
#X connect 21 0 2 1;
#X connect 21 0 5 0;
#X connect 23 0 11 0;
#X connect 23 0 9 1;
#X connect 25 0 11 0;
#X connect 25 0 9 0;
#X connect 27 0 12 0;
#X coords 0 0 1 1 120 160 0;
#X restore 223 450 pd adsr1;
#X obj 116 273 moses 0.0001;
#X obj 107 323 - 2;
#X obj 262 614 mtof~;
#X obj 257 588 +~;
#X obj 244 561 *~;
#X obj 167 533 lop~ 600;
#X obj 258 285 - 64;
#X obj 274 342 *;
#X obj 297 550 +;
#X obj 285 504 t b f;
#X obj 212 151 inlet;
#X text 216 134 okt;
#X obj 256 147 inlet;
#X obj 297 148 inlet;
#X text 264 129 phase;
#X text 303 129 detune;
#X obj 593 103 inlet;
#X obj 429 89 inlet;
#X text 421 70 cutoff;
#X obj 346 127 inlet;
#X text 342 108 env pol;
#X obj 474 43 inlet;
#X text 470 25 keytrack;
#X obj 500 91 inlet;
#X text 492 74 resonance;
#X obj 395 47 inlet;
#X text 401 27 env;
#X obj 633 100 inlet;
#X obj 673 89 inlet;
#X obj 718 98 inlet;
#X text 641 56 a d s r;
#X obj 112 568 lop~ 600;
#X connect 0 0 18 0;
#X connect 0 0 19 0;
#X connect 1 0 2 1;
#X connect 2 0 14 0;
#X connect 3 0 5 0;
#X connect 3 0 5 1;
#X connect 4 0 10 0;
#X connect 5 0 24 0;
#X connect 6 0 2 0;
#X connect 6 0 25 0;
#X connect 8 0 0 0;
#X connect 11 0 23 1;
#X connect 12 0 11 1;
#X connect 13 0 11 0;
#X connect 13 1 12 0;
#X connect 14 0 16 0;
#X connect 15 0 16 1;
#X connect 15 0 17 1;
#X connect 16 0 17 0;
#X connect 17 0 4 0;
#X connect 18 0 3 1;
#X connect 18 0 3 0;
#X connect 18 0 50 0;
#X connect 19 1 14 1;
#X connect 20 0 1 0;
#X connect 21 0 15 0;
#X connect 22 0 21 0;
#X connect 23 0 22 0;
#X connect 24 0 23 0;
#X connect 25 0 26 0;
#X connect 26 0 28 0;
#X connect 27 0 22 1;
#X connect 28 0 27 0;
#X connect 28 1 27 1;
#X connect 29 0 20 0;
#X connect 31 0 14 2;
#X connect 32 0 14 3;
#X connect 35 0 18 1;
#X connect 36 0 27 0;
#X connect 38 0 13 0;
#X connect 40 0 26 1;
#X connect 42 0 16 2;
#X connect 42 0 17 2;
#X connect 44 0 11 0;
#X connect 46 0 18 2;
#X connect 47 0 18 3;
#X connect 48 0 18 4;
#X connect 50 0 4 1;
#X restore -231 670 pd double_saw_subtractive_synth_voice;
#X obj -255 639 +;
#X obj -289 610 int;
#X obj -267 582 unpack 0 0;
#X obj -163 822 *~ 0.2;
#N canvas 36 173 872 903 double_saw_subtractive_synth_voice 0;
#X obj 119 156 clip 0 1;
#X obj 106 345 * 12;
#X obj 72 375 +;
#X obj 217 476 *;
#X obj 185 780 *~;
#X obj 194 504 *;
#X obj 30 163 inlet;
#X text 25 135 pitch;
#X obj 120 129 inlet;
#X text 119 107 gate;
#X obj 184 811 outlet~;
#X obj 348 468 *;
#X obj 393 432 + 1;
#X obj 366 391 t b f;
#N canvas 1 78 704 786 doublesaw 0;
#X obj 18 30 inlet;
#X obj 58 123 mtof;
#X obj 59 159 phasor~;
#X obj 70 268 wrap~;
#X text 62 30 <-pitch;
#X text 279 27 <-sync;
#X obj 155 654 outlet~;
#X obj 144 361 hip~ 5;
#X obj 206 152 phasor~;
#X obj 213 264 wrap~;
#X obj 212 97 -;
#X obj 208 117 mtof;
#X obj 58 93 +;
#X obj 228 238 +~;
#X obj 324 292 - 1;
#X obj 324 246 == 0;
#X obj 329 273 * 2;
#X obj 197 321 *~ 1;
#X obj 227 28 inlet;
#X obj 318 173 inlet;
#X obj 369 23 inlet;
#X obj 144 525 *~ 0.125;
#X obj 144 548 rzero~ -1;
#X obj 144 571 rzero~ -1;
#X obj 144 594 rzero~ -1;
#X obj 143 399 *~ 0.2368;
#X obj 144 445 *~ 0.06261;
#X obj 143 422 rpole~ 0.76319;
#X obj 143 468 cpole~ 0.85223 0.20194;
#X obj 142 496 cpole~ 0.85223 -0.2019;
#X obj 392 67 block~ 64 1 8;
#X text 265 439 from pd docs modified for 8 times oversampling;
#X text 308 98 8 times oversampled \, i hope the pitch is right...
;
#X connect 0 0 12 0;
#X connect 0 0 10 0;
#X connect 1 0 2 0;
#X connect 2 0 3 0;
#X connect 3 0 7 0;
#X connect 7 0 25 0;
#X connect 8 0 13 0;
#X connect 9 0 17 0;
#X connect 10 0 11 0;
#X connect 11 0 8 0;
#X connect 12 0 1 0;
#X connect 13 0 9 0;
#X connect 14 0 17 1;
#X connect 15 0 16 0;
#X connect 16 0 14 0;
#X connect 17 0 7 0;
#X connect 18 0 2 1;
#X connect 18 0 8 1;
#X connect 19 0 13 1;
#X connect 19 0 15 0;
#X connect 20 0 10 1;
#X connect 20 0 12 1;
#X connect 21 0 22 0;
#X connect 22 0 23 0;
#X connect 23 0 24 0;
#X connect 24 0 6 0;
#X connect 25 0 27 0;
#X connect 26 0 28 0;
#X connect 27 0 26 0;
#X connect 28 0 29 0;
#X connect 28 1 29 1;
#X connect 29 0 21 0;
#X restore 69 501 pd doublesaw;
#X obj 259 640 clip~ 20 20000;
#N canvas 715 79 1076 1000 lopass2p2z 0;
#X obj -50 465 inlet~;
#X obj 129 919 outlet~;
#X obj 73 85 inlet~;
#X obj 87 200 sig~ 1;
#X obj 121 249 /~;
#X obj 219 59 samplerate~;
#X obj 110 376 sig~ 1;
#X obj 147 408 /~;
#X obj 214 340 +~;
#X obj 187 310 sig~ 1;
#X obj 251 318 *~;
#X obj 181 375 +~;
#X obj 112 295 *~;
#X text 41 361 a1/a3;
#X obj 222 407 sig~ 1;
#X obj 296 433 -~;
#X obj 299 457 *~ 2;
#X obj 286 506 *~;
#X obj 409 334 *~;
#X text 276 435 b1;
#X text 384 379 b2;
#X obj 361 397 sig~ 1;
#X obj 392 429 -~;
#X obj 377 512 *~;
#X text 99 246 c;
#X obj 397 462 +~;
#X obj 147 222 expr~ tan($v1);
#X obj 151 194 /~ 44100;
#X obj 129 153 *~ 3.14159;
#X text 408 73 resonance 0..1;
#X text 124 86 cutoff (hz);
#X text 420 186 a2= 2*a1 \, a3=a1;
#X text 420 150 c= 1/tan(pi*cutf/samplerate);
#X text 422 168 a1= 1/(1+res*c+c*c);
#X text 421 204 b1= 2*(1-c*c)*a1;
#X text 421 220 b2= (1-res*c+c*c)*a1;
#X obj 33 690 czero~;
#X obj 59 727 czero~;
#X obj 73 646 sig~ -1;
#X obj 90 670 sig~ 0;
#X obj 90 841 cpole~;
#X obj 129 888 cpole~;
#X obj 296 199 *~ 1.41421;
#X obj 307 148 -~;
#X obj 353 72 inlet~;
#X obj 279 94 sig~ 1;
#X text 28 627 zeros at fixed pos;
#X obj 178 840 *~ -1;
#X obj 184 805 expr~ sqrt($v1);
#X obj -44 595 *~;
#X obj 128 704 *~ -0.5;
#X text 219 845 2nd pole = 1st mirrored on the x axis;
#X text 183 704 b1/2 (x pos);
#X text 267 11 cookbook-like? (i cant remember where i got this from)
lp-filter;
#X obj 163 748 *~;
#X obj 183 781 -~;
#X text 217 666 pole position from coeffs:;
#X text 218 683 p=-b1/2+j*sqrt(b2-(b1/2)^2) (found somewhere on the
net...);
#X connect 0 0 49 0;
#X connect 2 0 28 0;
#X connect 3 0 4 0;
#X connect 4 0 10 0;
#X connect 4 0 12 0;
#X connect 4 0 12 1;
#X connect 4 0 18 0;
#X connect 5 0 27 1;
#X connect 6 0 7 0;
#X connect 7 0 17 1;
#X connect 7 0 23 0;
#X connect 7 0 49 1;
#X connect 8 0 11 1;
#X connect 9 0 8 0;
#X connect 10 0 8 1;
#X connect 11 0 7 1;
#X connect 12 0 11 0;
#X connect 12 0 15 1;
#X connect 12 0 25 1;
#X connect 14 0 15 0;
#X connect 15 0 16 0;
#X connect 16 0 17 0;
#X connect 17 0 50 0;
#X connect 18 0 22 1;
#X connect 21 0 22 0;
#X connect 22 0 25 0;
#X connect 23 0 55 0;
#X connect 25 0 23 1;
#X connect 26 0 4 1;
#X connect 27 0 26 0;
#X connect 28 0 27 0;
#X connect 36 0 37 0;
#X connect 36 1 37 1;
#X connect 37 0 40 0;
#X connect 37 1 40 1;
#X connect 38 0 36 2;
#X connect 38 0 37 2;
#X connect 39 0 37 3;
#X connect 39 0 36 3;
#X connect 40 0 41 0;
#X connect 40 1 41 1;
#X connect 41 0 1 0;
#X connect 42 0 10 1;
#X connect 42 0 18 1;
#X connect 43 0 42 0;
#X connect 44 0 43 1;
#X connect 45 0 43 0;
#X connect 47 0 41 3;
#X connect 48 0 40 3;
#X connect 48 0 47 0;
#X connect 49 0 36 0;
#X connect 50 0 40 2;
#X connect 50 0 41 2;
#X connect 50 0 54 0;
#X connect 50 0 54 1;
#X connect 54 0 55 1;
#X connect 55 0 48 0;
#X restore 95 703 pd lopass2p2z;
#N canvas 713 79 1076 1000 lopass2p2z 0;
#X obj -50 465 inlet~;
#X obj 129 919 outlet~;
#X obj 73 85 inlet~;
#X obj 87 200 sig~ 1;
#X obj 121 249 /~;
#X obj 219 59 samplerate~;
#X obj 110 376 sig~ 1;
#X obj 147 408 /~;
#X obj 214 340 +~;
#X obj 187 310 sig~ 1;
#X obj 251 318 *~;
#X obj 181 375 +~;
#X obj 112 295 *~;
#X text 41 361 a1/a3;
#X obj 222 407 sig~ 1;
#X obj 296 433 -~;
#X obj 299 457 *~ 2;
#X obj 286 506 *~;
#X obj 409 334 *~;
#X text 276 435 b1;
#X text 384 379 b2;
#X obj 361 397 sig~ 1;
#X obj 392 429 -~;
#X obj 377 512 *~;
#X text 99 246 c;
#X obj 397 462 +~;
#X obj 147 222 expr~ tan($v1);
#X obj 151 194 /~ 44100;
#X obj 129 153 *~ 3.14159;
#X text 408 73 resonance 0..1;
#X text 124 86 cutoff (hz);
#X text 420 186 a2= 2*a1 \, a3=a1;
#X text 420 150 c= 1/tan(pi*cutf/samplerate);
#X text 422 168 a1= 1/(1+res*c+c*c);
#X text 421 204 b1= 2*(1-c*c)*a1;
#X text 421 220 b2= (1-res*c+c*c)*a1;
#X obj 33 690 czero~;
#X obj 59 727 czero~;
#X obj 73 646 sig~ -1;
#X obj 90 670 sig~ 0;
#X obj 90 841 cpole~;
#X obj 129 888 cpole~;
#X obj 296 199 *~ 1.41421;
#X obj 307 148 -~;
#X obj 353 72 inlet~;
#X obj 279 94 sig~ 1;
#X text 28 627 zeros at fixed pos;
#X obj 178 840 *~ -1;
#X obj 184 805 expr~ sqrt($v1);
#X obj -44 595 *~;
#X obj 128 704 *~ -0.5;
#X text 219 845 2nd pole = 1st mirrored on the x axis;
#X text 183 704 b1/2 (x pos);
#X text 267 11 cookbook-like? (i cant remember where i got this from)
lp-filter;
#X obj 163 748 *~;
#X obj 183 781 -~;
#X text 217 666 pole position from coeffs:;
#X text 218 683 p=-b1/2+j*sqrt(b2-(b1/2)^2) (found somewhere on the
net...);
#X connect 0 0 49 0;
#X connect 2 0 28 0;
#X connect 3 0 4 0;
#X connect 4 0 10 0;
#X connect 4 0 12 0;
#X connect 4 0 12 1;
#X connect 4 0 18 0;
#X connect 5 0 27 1;
#X connect 6 0 7 0;
#X connect 7 0 17 1;
#X connect 7 0 23 0;
#X connect 7 0 49 1;
#X connect 8 0 11 1;
#X connect 9 0 8 0;
#X connect 10 0 8 1;
#X connect 11 0 7 1;
#X connect 12 0 11 0;
#X connect 12 0 15 1;
#X connect 12 0 25 1;
#X connect 14 0 15 0;
#X connect 15 0 16 0;
#X connect 16 0 17 0;
#X connect 17 0 50 0;
#X connect 18 0 22 1;
#X connect 21 0 22 0;
#X connect 22 0 25 0;
#X connect 23 0 55 0;
#X connect 25 0 23 1;
#X connect 26 0 4 1;
#X connect 27 0 26 0;
#X connect 28 0 27 0;
#X connect 36 0 37 0;
#X connect 36 1 37 1;
#X connect 37 0 40 0;
#X connect 37 1 40 1;
#X connect 38 0 36 2;
#X connect 38 0 37 2;
#X connect 39 0 37 3;
#X connect 39 0 36 3;
#X connect 40 0 41 0;
#X connect 40 1 41 1;
#X connect 41 0 1 0;
#X connect 42 0 10 1;
#X connect 42 0 18 1;
#X connect 43 0 42 0;
#X connect 44 0 43 1;
#X connect 45 0 43 0;
#X connect 47 0 41 3;
#X connect 48 0 40 3;
#X connect 48 0 47 0;
#X connect 49 0 36 0;
#X connect 50 0 40 2;
#X connect 50 0 41 2;
#X connect 50 0 54 0;
#X connect 50 0 54 1;
#X connect 54 0 55 1;
#X connect 55 0 48 0;
#X restore 105 733 pd lopass2p2z;
#N canvas 102 77 1108 856 adsr1 0;
#X obj -143 147 inlet;
#X msg 15 502 0;
#X obj 63 365 pack f f;
#X msg -148 457 0.8125 27.9841;
#X msg 62 393 set \$1 \$2;
#X msg 63 325 bang;
#X obj 125 589 >=;
#X msg 216 752 0.255 789.048;
#X obj 157 632 moses 0.001;
#X obj 150 406 pack f f;
#X msg 151 436 set \$1 \$2;
#X msg 154 350 bang;
#X msg 313 372 set 0 \$1;
#X msg -135 357 bang;
#X msg -136 523 0 16;
#X obj -145 184 clip 0 1;
#X obj -113 211 moses 0.001;
#X obj 15 538 line 0 1;
#X obj -20 376 t f f;
#X obj 9 720 spigot;
#X obj 228 693 delay 0;
#X obj -49 150 inlet;
#X text -8 150 att;
#X obj 22 153 inlet;
#X text 63 153 dec;
#X obj 93 152 inlet;
#X text 134 152 sus;
#X obj 170 152 inlet;
#X text 211 152 rel;
#X obj -106 711 outlet;
#X connect 0 0 15 0;
#X connect 1 0 17 0;
#X connect 2 0 4 0;
#X connect 3 0 17 0;
#X connect 4 0 3 0;
#X connect 5 0 2 0;
#X connect 6 0 8 0;
#X connect 7 0 19 0;
#X connect 8 1 20 0;
#X connect 9 0 10 0;
#X connect 10 0 7 0;
#X connect 11 0 9 0;
#X connect 12 0 14 0;
#X connect 13 0 14 0;
#X connect 14 0 17 0;
#X connect 15 0 16 0;
#X connect 15 0 19 1;
#X connect 16 0 13 0;
#X connect 16 1 2 0;
#X connect 16 1 18 0;
#X connect 17 0 6 0;
#X connect 17 0 29 0;
#X connect 18 0 3 0;
#X connect 18 1 6 1;
#X connect 18 1 1 0;
#X connect 19 0 17 0;
#X connect 20 0 7 0;
#X connect 21 0 2 1;
#X connect 21 0 5 0;
#X connect 23 0 11 0;
#X connect 23 0 9 1;
#X connect 25 0 11 0;
#X connect 25 0 9 0;
#X connect 27 0 12 0;
#X coords 0 0 1 1 120 160 0;
#X restore 223 450 pd adsr1;
#X obj 116 273 moses 0.0001;
#X obj 107 323 - 2;
#X obj 262 614 mtof~;
#X obj 257 588 +~;
#X obj 244 561 *~;
#X obj 167 533 lop~ 600;
#X obj 258 285 - 64;
#X obj 274 342 *;
#X obj 297 550 +;
#X obj 285 504 t b f;
#X obj 212 151 inlet;
#X text 216 134 okt;
#X obj 256 147 inlet;
#X obj 297 148 inlet;
#X text 264 129 phase;
#X text 303 129 detune;
#X obj 593 103 inlet;
#X obj 429 89 inlet;
#X text 421 70 cutoff;
#X obj 346 127 inlet;
#X text 342 108 env pol;
#X obj 474 43 inlet;
#X text 470 25 keytrack;
#X obj 500 91 inlet;
#X text 492 74 resonance;
#X obj 395 47 inlet;
#X text 401 27 env;
#X obj 633 100 inlet;
#X obj 673 89 inlet;
#X obj 718 98 inlet;
#X text 641 56 a d s r;
#X obj 112 568 lop~ 600;
#X connect 0 0 18 0;
#X connect 0 0 19 0;
#X connect 1 0 2 1;
#X connect 2 0 14 0;
#X connect 3 0 5 0;
#X connect 3 0 5 1;
#X connect 4 0 10 0;
#X connect 5 0 24 0;
#X connect 6 0 2 0;
#X connect 6 0 25 0;
#X connect 8 0 0 0;
#X connect 11 0 23 1;
#X connect 12 0 11 1;
#X connect 13 0 11 0;
#X connect 13 1 12 0;
#X connect 14 0 16 0;
#X connect 15 0 16 1;
#X connect 15 0 17 1;
#X connect 16 0 17 0;
#X connect 17 0 4 0;
#X connect 18 0 3 1;
#X connect 18 0 3 0;
#X connect 18 0 50 0;
#X connect 19 1 14 1;
#X connect 20 0 1 0;
#X connect 21 0 15 0;
#X connect 22 0 21 0;
#X connect 23 0 22 0;
#X connect 24 0 23 0;
#X connect 25 0 26 0;
#X connect 26 0 28 0;
#X connect 27 0 22 1;
#X connect 28 0 27 0;
#X connect 28 1 27 1;
#X connect 29 0 20 0;
#X connect 31 0 14 2;
#X connect 32 0 14 3;
#X connect 35 0 18 1;
#X connect 36 0 27 0;
#X connect 38 0 13 0;
#X connect 40 0 26 1;
#X connect 42 0 16 2;
#X connect 42 0 17 2;
#X connect 44 0 11 0;
#X connect 46 0 18 2;
#X connect 47 0 18 3;
#X connect 48 0 18 4;
#X connect 50 0 4 1;
#X restore -251 786 pd double_saw_subtractive_synth_voice;
#X obj -281 761 +;
#X obj -315 732 int;
#X obj -293 704 unpack 0 0;
#X obj -370 159 poly 5 1;
#X obj -391 222 route 1 2 3 4 5;
#X obj -301 61 / 128;
#X connect 0 0 40 1;
#X connect 1 0 26 1;
#X connect 1 0 26 0;
#X connect 2 0 39 2;
#X connect 2 0 55 2;
#X connect 2 0 59 2;
#X connect 2 0 63 2;
#X connect 2 0 68 2;
#X connect 3 0 21 0;
#X connect 4 0 39 9;
#X connect 4 0 55 9;
#X connect 4 0 59 9;
#X connect 4 0 63 9;
#X connect 4 0 68 9;
#X connect 5 0 23 0;
#X connect 6 0 40 0;
#X connect 8 0 74 0;
#X connect 11 0 39 5;
#X connect 11 0 55 5;
#X connect 11 0 59 5;
#X connect 11 0 63 5;
#X connect 11 0 68 5;
#X connect 12 0 18 0;
#X connect 13 0 16 0;
#X connect 16 0 17 0;
#X connect 17 0 22 0;
#X connect 18 0 19 0;
#X connect 19 0 20 0;
#X connect 20 0 39 7;
#X connect 20 0 55 7;
#X connect 20 0 59 7;
#X connect 20 0 63 7;
#X connect 20 0 68 7;
#X connect 21 0 20 0;
#X connect 21 1 20 1;
#X connect 22 0 39 6;
#X connect 22 0 55 6;
#X connect 22 0 59 6;
#X connect 22 0 63 6;
#X connect 22 0 68 6;
#X connect 23 0 22 0;
#X connect 23 1 22 1;
#X connect 24 0 39 4;
#X connect 24 0 55 4;
#X connect 24 0 59 4;
#X connect 24 0 63 4;
#X connect 24 0 68 4;
#X connect 25 0 39 3;
#X connect 25 0 55 3;
#X connect 25 0 59 3;
#X connect 25 0 63 3;
#X connect 25 0 68 3;
#X connect 26 0 28 1;
#X connect 26 0 28 0;
#X connect 27 0 39 11;
#X connect 27 0 55 11;
#X connect 27 0 59 11;
#X connect 27 0 63 11;
#X connect 27 0 68 11;
#X connect 28 0 27 0;
#X connect 29 0 31 1;
#X connect 29 0 31 0;
#X connect 30 0 39 10;
#X connect 30 0 55 10;
#X connect 30 0 59 10;
#X connect 30 0 63 10;
#X connect 30 0 68 10;
#X connect 31 0 30 0;
#X connect 32 0 34 1;
#X connect 32 0 34 0;
#X connect 33 0 39 13;
#X connect 33 0 55 13;
#X connect 33 0 59 13;
#X connect 33 0 63 13;
#X connect 33 0 68 13;
#X connect 34 0 33 0;
#X connect 35 0 39 12;
#X connect 35 0 55 12;
#X connect 35 0 59 12;
#X connect 35 0 63 12;
#X connect 35 0 68 12;
#X connect 36 0 32 1;
#X connect 36 0 32 0;
#X connect 37 0 29 1;
#X connect 37 0 29 0;
#X connect 38 0 39 8;
#X connect 38 0 55 8;
#X connect 38 0 59 8;
#X connect 38 0 63 8;
#X connect 38 0 68 8;
#X connect 39 0 67 0;
#X connect 40 0 72 0;
#X connect 41 0 73 0;
#X connect 42 0 39 0;
#X connect 43 0 45 0;
#X connect 44 0 47 0;
#X connect 45 0 44 0;
#X connect 46 0 42 0;
#X connect 47 0 50 0;
#X connect 49 0 46 0;
#X connect 49 1 39 1;
#X connect 50 0 46 0;
#X connect 50 0 57 0;
#X connect 50 0 61 0;
#X connect 50 0 65 0;
#X connect 50 0 70 0;
#X connect 50 1 42 1;
#X connect 50 1 56 1;
#X connect 50 1 60 1;
#X connect 50 1 64 1;
#X connect 50 1 69 1;
#X connect 51 0 43 0;
#X connect 55 0 67 0;
#X connect 56 0 55 0;
#X connect 57 0 56 0;
#X connect 58 0 57 0;
#X connect 58 1 55 1;
#X connect 59 0 67 0;
#X connect 60 0 59 0;
#X connect 61 0 60 0;
#X connect 62 0 61 0;
#X connect 62 1 59 1;
#X connect 63 0 67 0;
#X connect 64 0 63 0;
#X connect 65 0 64 0;
#X connect 66 0 65 0;
#X connect 66 1 63 1;
#X connect 67 0 10 0;
#X connect 68 0 67 0;
#X connect 69 0 68 0;
#X connect 70 0 69 0;
#X connect 71 0 70 0;
#X connect 71 1 68 1;
#X connect 72 0 41 0;
#X connect 72 1 41 1;
#X connect 72 2 41 2;
#X connect 73 0 49 0;
#X connect 73 1 58 0;
#X connect 73 2 62 0;
#X connect 73 3 66 0;
#X connect 73 4 71 0;
#X connect 74 0 0 0;
#X coords 0 -1 1 1 180 110 1 100 100;
#X restore 26 126 pd oneoscp;
#X obj 124 61 ctlin 1;
#X obj 137 93 / 128;
#X obj 28 299 outlet~;
#X obj 28 16 inlet;
#X obj 28 38 unpack f f;
#X obj 262 134 tgl 15 0 empty empty empty 17 7 0 10 -262144 -1 -1 1
1;
#X obj 262 154 switch~;
#X connect 0 0 2 2;
#X connect 1 0 5 0;
#X connect 2 0 1 0;
#X connect 3 0 4 0;
#X connect 4 0 2 3;
#X connect 6 0 7 0;
#X connect 7 0 2 0;
#X connect 7 1 2 1;
#X connect 8 0 9 0;
