#N canvas 921 312 669 404 10;
#N canvas 196 77 1184 711 metro16 0;
#X msg 206 296 1;
#X obj 218 321 /;
#X obj 209 273 t f f;
#X obj 225 416 metro 125;
#X obj 172 17 loadbang;
#X floatatom 126 113 5 30 300 0 bpm - -, f 5;
#X msg -2 85 set \$1;
#X msg 5 139 110;
#X obj 174 112 bng 15 250 50 0 empty empty s 5 7 0 10 -262144 -1 -1
;
#X obj 268 486 outlet;
#X obj 570 496 outlet;
#X text 618 497 bpm->;
#X obj 200 112 bng 15 50 20 0 empty empty tt 3 7 0 10 -262144 -1 -1
;
#X obj 208 225 float;
#X obj 600 64 + 1;
#X obj 602 29 float;
#X obj 600 96 moses 2;
#X obj 600 155 timer;
#X obj 600 123 t b;
#X obj 648 122 t b b;
#X obj 653 243 /;
#X msg 623 221 60000;
#X obj 618 183 t b f;
#X obj 656 268 moses 10;
#X text 500 72 beatcounter;
#X obj 772 358 float;
#X obj 769 401 + 1;
#X obj 688 426 +;
#X obj 729 396 *;
#X obj 705 328 t f b;
#X obj 698 464 /;
#X msg 884 211 0;
#X text 499 302 mean (as seen on idafx blog);
#X obj 864 324 t f f;
#X obj 921 503 moses 0.1;
#X text 880 303 reset;
#X obj 870 366 /;
#X obj 849 431 < 0.75;
#X obj 903 435 > 1.25;
#X obj 869 391 t f f;
#X obj 877 471 ||;
#X obj 174 54 t b b b;
#X obj 43 -7 inlet;
#X obj 107 -11 inlet;
#X text 46 14 sync;
#X text 111 10 tap;
#X text 319 487 metro;
#X obj 131 168 t b b;
#X text 127 344 1/4 beat in ms;
#X obj 228 343 * 15000;
#X obj 287 96 f;
#X connect 0 0 1 0;
#X connect 1 0 49 0;
#X connect 2 0 0 0;
#X connect 2 1 1 1;
#X connect 3 0 9 0;
#X connect 4 0 41 0;
#X connect 5 0 6 0;
#X connect 5 0 13 1;
#X connect 5 0 50 1;
#X connect 6 0 7 0;
#X connect 7 0 5 0;
#X connect 8 0 47 0;
#X connect 12 0 15 0;
#X connect 13 0 2 0;
#X connect 13 0 10 0;
#X connect 14 0 15 1;
#X connect 14 0 16 0;
#X connect 15 0 14 0;
#X connect 16 0 18 0;
#X connect 16 1 19 0;
#X connect 17 0 22 0;
#X connect 17 0 33 0;
#X connect 18 0 17 0;
#X connect 19 0 17 0;
#X connect 19 1 17 1;
#X connect 20 0 23 0;
#X connect 21 0 20 0;
#X connect 22 0 21 0;
#X connect 22 1 20 1;
#X connect 23 1 29 0;
#X connect 25 0 26 0;
#X connect 25 0 28 0;
#X connect 26 0 25 1;
#X connect 26 0 30 1;
#X connect 27 0 30 0;
#X connect 28 0 27 1;
#X connect 29 0 27 0;
#X connect 29 1 25 0;
#X connect 30 0 28 1;
#X connect 30 0 5 0;
#X connect 31 0 25 1;
#X connect 31 0 15 1;
#X connect 33 0 36 1;
#X connect 33 1 36 0;
#X connect 34 1 31 0;
#X connect 36 0 39 0;
#X connect 37 0 40 0;
#X connect 38 0 40 1;
#X connect 39 0 37 0;
#X connect 39 1 38 0;
#X connect 40 0 34 0;
#X connect 41 0 8 0;
#X connect 41 1 8 0;
#X connect 41 2 7 0;
#X connect 42 0 8 0;
#X connect 43 0 12 0;
#X connect 47 0 3 0;
#X connect 47 1 13 0;
#X connect 49 0 3 1;
#X coords 0 -1 1 1 120 30 1 100 100;
#X restore 29 15 pd metro16;
#N canvas 1 77 1895 999 randomloopfm 0;
#X obj 194 923 mtof~;
#X obj 181 1034 *~;
#X obj 128 1093 abs_fm_op1fb;
#N canvas 399 351 628 602 mod_osc 0;
#X obj 5 22 inlet~;
#X obj 197 -7 inlet~;
#X obj 131 87 wrap~;
#X obj 91 117 -~;
#X obj 165 360 osc~;
#X obj 85 356 osc~;
#X obj 92 396 *~;
#X obj 165 392 *~;
#X obj 120 478 outlet~;
#X obj 28 171 *~;
#X obj 133 218 *~;
#X obj 280 137 cos~;
#X obj 278 166 +~ 1;
#X obj 261 198 *~ 0.5;
#X obj 277 109 +~ 0.5;
#X obj 216 154 wrap~;
#X obj 179 177 -~;
#X obj 203 127 +~ 0.5;
#X obj 351 138 cos~;
#X obj 352 164 +~ 1;
#X obj 352 197 *~ 0.5;
#X text 246 -3 overtone (float 1..16);
#X text 9 0 freq;
#X connect 0 0 9 0;
#X connect 0 0 10 0;
#X connect 1 0 2 0;
#X connect 1 0 3 0;
#X connect 1 0 14 0;
#X connect 1 0 17 0;
#X connect 1 0 18 0;
#X connect 2 0 3 1;
#X connect 3 0 9 1;
#X connect 4 0 7 0;
#X connect 5 0 6 0;
#X connect 6 0 8 0;
#X connect 7 0 8 0;
#X connect 9 0 5 0;
#X connect 10 0 4 0;
#X connect 11 0 12 0;
#X connect 12 0 13 0;
#X connect 13 0 6 1;
#X connect 14 0 11 0;
#X connect 15 0 16 1;
#X connect 16 0 10 1;
#X connect 17 0 15 0;
#X connect 17 0 16 0;
#X connect 18 0 19 0;
#X connect 19 0 20 0;
#X connect 20 0 7 1;
#X restore 200 990 pd mod_osc;
#X obj -114 567 random 128;
#X obj 124 131 nbx 3 14 2 999 0 1 empty empty empty 0 -8 0 10 -262144
-1 -1 22 256 0;
#X obj -96 423 int;
#X obj -84 446 + 1;
#X obj -101 476 mod;
#X obj -119 392 t b;
#X msg -74 399 0;
#X obj 163 131 nbx 7 14 1 1e+037 0 1 empty empty empty 0 -8 0 10 -262144
-1 -1 731333 256 0;
#X obj -96 522 f;
#X msg -103 545 seed \$1;
#X obj -101 500 select 0;
#X obj 86 1156 *~;
#X obj -115 589 moses;
#X obj -99 719 vline~;
#X msg -97 696 \$1 \$2 \, 0 \$3 \$2;
#X obj -103 671 pack f f f;
#X obj -79 619 -;
#X msg -74 594 128;
#X obj -31 568 t b f;
#X obj -105 619 -;
#X obj -99 643 /;
#N canvas 1 77 450 300 metrodiv 0;
#X obj 50 73 inlet;
#X obj 156 76 inlet;
#X obj 98 164 int;
#X obj 110 187 + 1;
#X obj 93 217 mod;
#X obj 75 133 t b;
#X msg 120 140 0;
#X obj 92 253 select 0;
#X obj 252 76 inlet;
#X obj 91 276 outlet;
#X connect 0 0 5 0;
#X connect 1 0 4 1;
#X connect 2 0 3 0;
#X connect 3 0 4 0;
#X connect 4 0 2 1;
#X connect 4 0 7 0;
#X connect 5 0 2 0;
#X connect 6 0 2 1;
#X connect 7 0 9 0;
#X connect 8 0 6 0;
#X restore -111 355 pd metrodiv;
#X obj 103 131 nbx 1 14 1 9 0 1 empty empty empty 0 -8 0 10 -262144
-1 -1 3 256 0;
#X obj -171 138 t b;
#X obj 82 542 random 128;
#X obj 124 148 nbx 3 14 2 999 0 1 empty empty empty 0 -8 0 10 -262144
-1 -1 160 256 0;
#X obj 100 398 int;
#X obj 112 421 + 1;
#X obj 95 451 mod;
#X obj 77 367 t b;
#X msg 122 374 0;
#X obj 163 148 nbx 7 14 1 1e+037 0 1 empty empty empty 0 -8 0 10 -262144
-1 -1 208939 256 0;
#X obj 100 497 f;
#X msg 93 520 seed \$1;
#X obj 95 475 select 0;
#X obj 81 564 moses;
#X obj 97 694 vline~;
#X msg 99 671 \$1 \$2 \, 0 \$3 \$2;
#X obj 93 646 pack f f f;
#X obj 117 594 -;
#X msg 122 569 128;
#X obj 165 543 t b f;
#X obj 91 594 -;
#X obj 97 618 /;
#N canvas 1 77 450 300 metrodiv 0;
#X obj 50 73 inlet;
#X obj 156 76 inlet;
#X obj 98 164 int;
#X obj 110 187 + 1;
#X obj 93 217 mod;
#X obj 75 133 t b;
#X msg 120 140 0;
#X obj 92 253 select 0;
#X obj 252 76 inlet;
#X obj 91 276 outlet;
#X connect 0 0 5 0;
#X connect 1 0 4 1;
#X connect 2 0 3 0;
#X connect 3 0 4 0;
#X connect 4 0 2 1;
#X connect 4 0 7 0;
#X connect 5 0 2 0;
#X connect 6 0 2 1;
#X connect 7 0 9 0;
#X connect 8 0 6 0;
#X restore 85 330 pd metrodiv;
#X obj 103 148 nbx 1 14 1 9 0 1 empty empty empty 0 -8 0 10 -262144
-1 -1 5 256 0;
#X obj 95 749 *~;
#X obj 200 669 *;
#X obj 304 578 random 128;
#X obj 124 166 nbx 3 14 2 999 0 1 empty empty empty 0 -8 0 10 -262144
-1 -1 12 256 0;
#X obj 322 434 int;
#X obj 334 457 + 1;
#X obj 317 487 mod;
#X obj 299 403 t b;
#X msg 344 410 0;
#X obj 163 166 nbx 7 14 1 1e+037 0 1 empty empty empty 0 -8 0 10 -262144
-1 -1 479927 256 0;
#X obj 322 533 f;
#X msg 315 556 seed \$1;
#X obj 317 511 select 0;
#X obj 303 600 moses;
#X obj 319 730 vline~;
#X msg 321 707 \$1 \$2 \, 0 \$3 \$2;
#X obj 315 682 pack f f f;
#X obj 339 630 -;
#X msg 344 605 128;
#X obj 387 579 t b f;
#X obj 313 630 -;
#X obj 319 654 /;
#N canvas 1 77 450 300 metrodiv 0;
#X obj 50 73 inlet;
#X obj 156 76 inlet;
#X obj 98 164 int;
#X obj 110 187 + 1;
#X obj 93 217 mod;
#X obj 75 133 t b;
#X msg 120 140 0;
#X obj 92 253 select 0;
#X obj 252 76 inlet;
#X obj 91 276 outlet;
#X connect 0 0 5 0;
#X connect 1 0 4 1;
#X connect 2 0 3 0;
#X connect 3 0 4 0;
#X connect 4 0 2 1;
#X connect 4 0 7 0;
#X connect 5 0 2 0;
#X connect 6 0 2 1;
#X connect 7 0 9 0;
#X connect 8 0 6 0;
#X restore 307 366 pd metrodiv;
#X obj 103 166 nbx 1 14 1 9 0 1 empty empty empty 0 -8 0 10 -262144
-1 -1 9 256 0;
#X obj 320 762 *~;
#X obj 278 954 clip~ 1 16;
#X text -143 325 random loop sequencer for amp;
#X text 53 300 random loop sequencer for fm amt;
#X text 275 336 random loop sequencer for fm-ratio;
#X obj 538 583 random 128;
#X obj 124 183 nbx 3 14 2 999 0 1 empty empty empty 0 -8 0 10 -262144
-1 -1 182 256 0;
#X obj 556 439 int;
#X obj 568 462 + 1;
#X obj 551 492 mod;
#X obj 533 408 t b;
#X msg 578 415 0;
#X obj 163 183 nbx 7 14 1 1e+037 0 1 empty empty empty 0 -8 0 10 -262144
-1 -1 702519 256 0;
#X obj 556 538 f;
#X msg 549 561 seed \$1;
#X obj 551 516 select 0;
#X obj 537 605 moses;
#X obj 553 735 vline~;
#X msg 555 712 \$1 \$2 \, 0 \$3 \$2;
#X obj 549 687 pack f f f;
#X obj 573 635 -;
#X msg 578 610 128;
#X obj 621 584 t b f;
#X obj 547 635 -;
#X obj 553 659 /;
#N canvas 1 77 450 300 metrodiv 0;
#X obj 50 73 inlet;
#X obj 156 76 inlet;
#X obj 98 164 int;
#X obj 110 187 + 1;
#X obj 93 217 mod;
#X obj 75 133 t b;
#X msg 120 140 0;
#X obj 92 253 select 0;
#X obj 252 76 inlet;
#X obj 91 276 outlet;
#X connect 0 0 5 0;
#X connect 1 0 4 1;
#X connect 2 0 3 0;
#X connect 3 0 4 0;
#X connect 4 0 2 1;
#X connect 4 0 7 0;
#X connect 5 0 2 0;
#X connect 6 0 2 1;
#X connect 7 0 9 0;
#X connect 8 0 6 0;
#X restore 541 371 pd metrodiv;
#X obj 103 183 nbx 1 14 1 9 0 1 empty empty empty 0 -8 0 10 -262144
-1 -1 7 256 0;
#X obj 554 767 *~;
#X text 509 341 random loop sequencer for feedback;
#X obj 239 132 hsl 40 13 0 127 0 1 empty empty thrsh 1 7 0 10 -262144
-1 -99865 1198 1;
#X obj -55 642 * 10000;
#X obj 289 132 hsl 40 13 0 1 0 1 empty empty att 1 7 0 10 -262144 -1
-99865 62 1;
#X obj -35 614 *;
#X obj 337 132 hsl 40 13 0 1 0 1 empty empty dec 1 7 0 10 -262144 -1
-99865 948 1;
#X obj -1 640 * 10000;
#X obj 19 612 *;
#X obj 239 149 hsl 40 13 0 127 0 1 empty empty thrsh 1 7 0 10 -262144
-1 -99865 2744 1;
#X obj 144 615 * 10000;
#X obj 289 149 hsl 40 13 0 1 0 1 empty empty att 1 7 0 10 -262144 -1
-99865 13 1;
#X obj 164 587 *;
#X obj 337 149 hsl 40 13 0 1 0 1 empty empty dec 1 7 0 10 -262144 -1
-99865 2288 1;
#X obj 198 613 * 10000;
#X obj 218 585 *;
#X obj 385 149 hsl 40 13 0 1 0 1 empty empty amt 1 7 0 10 -262144 -1
-99865 1000 1;
#X obj 239 167 hsl 40 13 0 127 0 1 empty empty thrsh 1 7 0 10 -262144
-1 -99865 1335 1;
#X obj 366 653 * 10000;
#X obj 289 167 hsl 40 13 0 1 0 1 empty empty att 1 7 0 10 -262144 -1
-99865 101 1;
#X obj 386 625 *;
#X obj 337 167 hsl 40 13 0 1 0 1 empty empty dec 1 7 0 10 -262144 -1
-99865 0 1;
#X obj 420 651 * 10000;
#X obj 440 623 *;
#X obj 385 167 hsl 40 13 0 1 0 1 empty empty rat 1 7 0 10 -262144 -1
-99865 1000 1;
#X obj 185 699 * 3;
#X obj 372 736 * 16;
#X obj 239 184 hsl 40 13 0 127 0 1 empty empty thrsh 1 7 0 10 -262144
-1 -99865 539 1;
#X obj 611 650 * 10000;
#X obj 289 184 hsl 40 13 0 1 0 1 empty empty att 1 7 0 10 -262144 -1
-99865 23 1;
#X obj 631 622 *;
#X obj 337 184 hsl 40 13 0 1 0 1 empty empty dec 1 7 0 10 -262144 -1
-99865 20 1;
#X obj 665 648 * 10000;
#X obj 685 620 *;
#X obj 385 184 hsl 40 13 0 1 0 1 empty empty fb 1 7 0 10 -262144 -1
-99865 3400 1;
#X obj 663 719 * 0.25;
#X obj 77 1207 outlet~;
#X obj 104 115 bng 13 250 50 0 empty empty empty 17 7 0 10 -262144
-1 -1;
#N canvas 856 185 450 300 qwrandom4 0;
#X obj 29 222 outlet;
#X obj 100 225 outlet;
#X obj 170 227 outlet;
#X obj 244 226 outlet;
#X obj 144 6 inlet;
#X obj 19 95 / 1000;
#X obj 19 126 *;
#X obj 23 151 * 10;
#X obj 21 175 int;
#X obj 103 93 / 1000;
#X obj 103 124 *;
#X obj 107 149 * 10;
#X obj 105 173 int;
#X obj 189 94 / 1000;
#X obj 189 125 *;
#X obj 193 150 * 10;
#X obj 191 174 int;
#X obj 270 93 / 1000;
#X obj 270 124 *;
#X obj 274 149 * 10;
#X obj 272 173 int;
#X obj 188 71 random 999;
#X obj 269 70 random 999;
#X obj 102 70 random 999;
#X obj 18 72 random 999;
#X text 233 37 rand*quad \, prefer lower nrs;
#X connect 4 0 21 0;
#X connect 4 0 22 0;
#X connect 4 0 23 0;
#X connect 4 0 24 0;
#X connect 5 0 6 1;
#X connect 5 0 6 0;
#X connect 6 0 7 0;
#X connect 7 0 8 0;
#X connect 8 0 0 0;
#X connect 9 0 10 1;
#X connect 9 0 10 0;
#X connect 10 0 11 0;
#X connect 11 0 12 0;
#X connect 12 0 1 0;
#X connect 13 0 14 1;
#X connect 13 0 14 0;
#X connect 14 0 15 0;
#X connect 15 0 16 0;
#X connect 16 0 2 0;
#X connect 17 0 18 1;
#X connect 17 0 18 0;
#X connect 18 0 19 0;
#X connect 19 0 20 0;
#X connect 20 0 3 0;
#X connect 21 0 13 0;
#X connect 22 0 17 0;
#X connect 23 0 9 0;
#X connect 24 0 5 0;
#X restore -35 52 pd qwrandom4;
#N canvas 431 184 951 622 lwrandom4 0;
#X obj 24 437 outlet;
#X obj 306 421 outlet;
#X obj 512 449 outlet;
#X obj 797 440 outlet;
#X obj 344 4 inlet;
#X obj 19 95 / 1000;
#X obj 19 126 *;
#X obj 23 203 int;
#X obj 18 72 random 1000;
#X obj 112 41 t b b;
#X msg 180 176 11;
#X msg 189 144 12;
#X msg 150 218 16;
#X msg 195 208 14;
#X obj 74 105 select 0 1 2 3 4 5 6 7 8;
#X obj 95 70 random 9;
#X obj 64 285 *;
#X msg 76 151 8;
#X msg 103 144 12;
#X msg 116 171 16;
#X msg 144 150 10;
#X msg 141 179 14;
#X obj 281 101 / 1000;
#X obj 281 132 *;
#X obj 290 209 int;
#X obj 280 78 random 1000;
#X obj 301 48 t b b;
#X msg 442 182 11;
#X msg 451 150 12;
#X msg 412 224 16;
#X msg 457 214 14;
#X obj 336 111 select 0 1 2 3 4 5 6 7 8;
#X obj 357 76 random 9;
#X obj 326 291 *;
#X msg 338 157 8;
#X msg 365 150 12;
#X msg 378 177 16;
#X msg 406 156 10;
#X msg 403 185 14;
#X obj 506 112 / 1000;
#X obj 506 143 *;
#X obj 516 220 int;
#X obj 505 89 random 1000;
#X obj 526 59 t b b;
#X msg 667 193 11;
#X msg 676 161 12;
#X msg 637 235 16;
#X msg 682 225 14;
#X obj 561 122 select 0 1 2 3 4 5 6 7 8;
#X obj 582 87 random 9;
#X obj 550 302 *;
#X msg 563 168 8;
#X msg 590 161 12;
#X msg 603 188 16;
#X msg 631 167 10;
#X msg 628 196 14;
#X obj 728 127 / 1000;
#X obj 728 158 *;
#X obj 743 231 int;
#X obj 727 104 random 1000;
#X obj 748 74 t b b;
#X msg 889 208 11;
#X msg 898 176 12;
#X msg 859 250 16;
#X msg 904 240 14;
#X obj 783 137 select 0 1 2 3 4 5 6 7 8;
#X obj 804 102 random 9;
#X obj 772 317 *;
#X msg 785 183 8;
#X msg 812 176 12;
#X msg 825 203 16;
#X msg 853 182 10;
#X msg 850 211 14;
#X obj 20 176 + 1;
#X obj 280 154 * 15;
#X obj 21 149 * 15;
#X obj 294 181 + 1;
#X obj 510 168 * 15;
#X obj 512 193 + 1;
#X obj 745 207 + 1;
#X obj 732 183 * 15;
#X text 463 23 randomize pattern length (slightly prefer usual bar
lengths);
#X connect 4 0 9 0;
#X connect 4 0 26 0;
#X connect 4 0 43 0;
#X connect 4 0 60 0;
#X connect 5 0 6 1;
#X connect 5 0 6 0;
#X connect 6 0 75 0;
#X connect 7 0 16 0;
#X connect 8 0 5 0;
#X connect 9 0 8 0;
#X connect 9 1 15 0;
#X connect 10 0 16 1;
#X connect 11 0 16 1;
#X connect 12 0 16 1;
#X connect 13 0 16 1;
#X connect 14 0 17 0;
#X connect 14 1 18 0;
#X connect 14 2 19 0;
#X connect 14 3 20 0;
#X connect 14 4 21 0;
#X connect 14 5 10 0;
#X connect 14 6 11 0;
#X connect 14 7 13 0;
#X connect 14 8 12 0;
#X connect 15 0 14 0;
#X connect 16 0 0 0;
#X connect 17 0 16 1;
#X connect 18 0 16 1;
#X connect 19 0 16 1;
#X connect 20 0 16 1;
#X connect 21 0 16 1;
#X connect 22 0 23 1;
#X connect 22 0 23 0;
#X connect 23 0 74 0;
#X connect 24 0 33 0;
#X connect 25 0 22 0;
#X connect 26 0 25 0;
#X connect 26 1 32 0;
#X connect 27 0 33 1;
#X connect 28 0 33 1;
#X connect 29 0 33 1;
#X connect 30 0 33 1;
#X connect 31 0 34 0;
#X connect 31 1 35 0;
#X connect 31 2 36 0;
#X connect 31 3 37 0;
#X connect 31 4 38 0;
#X connect 31 5 27 0;
#X connect 31 6 28 0;
#X connect 31 7 30 0;
#X connect 31 8 29 0;
#X connect 32 0 31 0;
#X connect 33 0 1 0;
#X connect 34 0 33 1;
#X connect 35 0 33 1;
#X connect 36 0 33 1;
#X connect 37 0 33 1;
#X connect 38 0 33 1;
#X connect 39 0 40 1;
#X connect 39 0 40 0;
#X connect 40 0 77 0;
#X connect 41 0 50 0;
#X connect 42 0 39 0;
#X connect 43 0 42 0;
#X connect 43 1 49 0;
#X connect 44 0 50 1;
#X connect 45 0 50 1;
#X connect 46 0 50 1;
#X connect 47 0 50 1;
#X connect 48 0 51 0;
#X connect 48 1 52 0;
#X connect 48 2 53 0;
#X connect 48 3 54 0;
#X connect 48 4 55 0;
#X connect 48 5 44 0;
#X connect 48 6 45 0;
#X connect 48 7 47 0;
#X connect 48 8 46 0;
#X connect 49 0 48 0;
#X connect 50 0 2 0;
#X connect 51 0 50 1;
#X connect 52 0 50 1;
#X connect 53 0 50 1;
#X connect 54 0 50 1;
#X connect 55 0 50 1;
#X connect 56 0 57 1;
#X connect 56 0 57 0;
#X connect 57 0 80 0;
#X connect 58 0 67 0;
#X connect 59 0 56 0;
#X connect 60 0 59 0;
#X connect 60 1 66 0;
#X connect 61 0 67 1;
#X connect 62 0 67 1;
#X connect 63 0 67 1;
#X connect 64 0 67 1;
#X connect 65 0 68 0;
#X connect 65 1 69 0;
#X connect 65 2 70 0;
#X connect 65 3 71 0;
#X connect 65 4 72 0;
#X connect 65 5 61 0;
#X connect 65 6 62 0;
#X connect 65 7 64 0;
#X connect 65 8 63 0;
#X connect 66 0 65 0;
#X connect 67 0 3 0;
#X connect 68 0 67 1;
#X connect 69 0 67 1;
#X connect 70 0 67 1;
#X connect 71 0 67 1;
#X connect 72 0 67 1;
#X connect 73 0 7 0;
#X connect 74 0 76 0;
#X connect 75 0 73 0;
#X connect 76 0 24 0;
#X connect 77 0 78 0;
#X connect 78 0 41 0;
#X connect 79 0 58 0;
#X connect 80 0 79 0;
#X restore 78 36 pd lwrandom4;
#X obj 125 115 bng 13 250 50 0 empty empty empty 17 7 0 10 -262144
-1 -1;
#X obj 163 115 bng 13 250 50 0 empty empty empty 17 7 0 10 -262144
-1 -1;
#N canvas 429 183 951 622 brandom4 0;
#X obj 63 233 outlet;
#X obj 278 219 outlet;
#X obj 551 245 outlet;
#X obj 836 236 outlet;
#X obj 344 4 inlet;
#X obj 95 83 random 1e+006;
#X obj 305 81 random 1e+006;
#X obj 472 89 random 1e+006;
#X obj 682 87 random 1e+006;
#X text 463 23 randomize seeds (big nrs);
#X connect 4 0 5 0;
#X connect 4 0 6 0;
#X connect 4 0 7 0;
#X connect 4 0 8 0;
#X connect 5 0 0 0;
#X connect 6 0 1 0;
#X connect 7 0 2 0;
#X connect 8 0 3 0;
#X restore 178 62 pd brandom4;
#X obj 236 115 bng 13 250 50 0 empty empty empty 17 7 0 10 -262144
-1 -1;
#N canvas 854 184 450 300 qwprandom4 0;
#X obj 33 264 outlet;
#X obj 104 267 outlet;
#X obj 174 269 outlet;
#X obj 248 268 outlet;
#X obj 144 6 inlet;
#X obj 19 95 / 1000;
#X obj 8 155 *;
#X obj 18 72 random 999;
#X obj 32 193 +;
#X obj 18 119 t f f;
#X text 141 43 rand*quad+rabd \, slightly prefer lower nrs;
#X obj 31 215 * 64;
#X obj 117 101 / 1000;
#X obj 106 161 *;
#X obj 116 78 random 999;
#X obj 130 199 +;
#X obj 116 125 t f f;
#X obj 129 221 * 64;
#X obj 202 105 / 1000;
#X obj 191 165 *;
#X obj 201 82 random 999;
#X obj 215 203 +;
#X obj 201 129 t f f;
#X obj 214 225 * 64;
#X obj 297 103 / 1000;
#X obj 286 163 *;
#X obj 296 80 random 999;
#X obj 310 201 +;
#X obj 296 127 t f f;
#X obj 309 223 * 64;
#X connect 4 0 7 0;
#X connect 4 0 14 0;
#X connect 4 0 20 0;
#X connect 4 0 26 0;
#X connect 5 0 9 0;
#X connect 6 0 8 0;
#X connect 7 0 5 0;
#X connect 8 0 11 0;
#X connect 9 0 6 1;
#X connect 9 0 6 0;
#X connect 9 1 8 1;
#X connect 11 0 0 0;
#X connect 12 0 16 0;
#X connect 13 0 15 0;
#X connect 14 0 12 0;
#X connect 15 0 17 0;
#X connect 16 0 13 1;
#X connect 16 0 13 0;
#X connect 16 1 15 1;
#X connect 17 0 1 0;
#X connect 18 0 22 0;
#X connect 19 0 21 0;
#X connect 20 0 18 0;
#X connect 21 0 23 0;
#X connect 22 0 19 1;
#X connect 22 0 19 0;
#X connect 22 1 21 1;
#X connect 23 0 2 0;
#X connect 24 0 28 0;
#X connect 25 0 27 0;
#X connect 26 0 24 0;
#X connect 27 0 29 0;
#X connect 28 0 25 1;
#X connect 28 0 25 0;
#X connect 28 1 27 1;
#X connect 29 0 3 0;
#X restore 255 53 pd qwprandom4;
#N canvas 852 183 450 300 qqrandom4 0;
#X obj 25 242 outlet;
#X obj 110 248 outlet;
#X obj 187 247 outlet;
#X obj 297 240 outlet;
#X obj 144 6 inlet;
#X obj 19 95 / 1000;
#X obj 10 128 *;
#X obj 18 72 random 999;
#X obj 117 101 / 1000;
#X obj 112 134 *;
#X obj 116 78 random 999;
#X obj 202 105 / 1000;
#X obj 199 137 *;
#X obj 201 82 random 999;
#X obj 297 103 / 1000;
#X obj 299 138 *;
#X obj 296 80 random 999;
#X obj 11 160 *;
#X obj 113 166 *;
#X obj 200 169 *;
#X obj 300 170 *;
#X text 142 43 rand4 \, prefer lower nrs;
#X connect 4 0 7 0;
#X connect 4 0 10 0;
#X connect 4 0 13 0;
#X connect 4 0 16 0;
#X connect 5 0 6 1;
#X connect 5 0 6 0;
#X connect 6 0 17 1;
#X connect 6 0 17 0;
#X connect 7 0 5 0;
#X connect 8 0 9 1;
#X connect 8 0 9 0;
#X connect 9 0 18 1;
#X connect 9 0 18 0;
#X connect 10 0 8 0;
#X connect 11 0 12 1;
#X connect 11 0 12 0;
#X connect 12 0 19 1;
#X connect 12 0 19 0;
#X connect 13 0 11 0;
#X connect 14 0 15 1;
#X connect 14 0 15 0;
#X connect 15 0 20 1;
#X connect 15 0 20 0;
#X connect 16 0 14 0;
#X connect 17 0 0 0;
#X connect 18 0 1 0;
#X connect 19 0 2 0;
#X connect 20 0 3 0;
#X restore 344 69 pd qqrandom4;
#X obj 287 115 bng 13 250 50 0 empty empty empty 17 7 0 10 -262144
-1 -1;
#X obj 334 115 bng 13 250 50 0 empty empty empty 17 7 0 10 -262144
-1 -1;
#N canvas 850 182 450 300 qrandom4 0;
#X obj 25 242 outlet;
#X obj 110 248 outlet;
#X obj 187 247 outlet;
#X obj 297 240 outlet;
#X obj 144 6 inlet;
#X obj 19 95 / 1000;
#X obj 10 128 *;
#X obj 18 72 random 999;
#X obj 117 101 / 1000;
#X obj 112 134 *;
#X obj 116 78 random 999;
#X obj 202 105 / 1000;
#X obj 199 137 *;
#X obj 201 82 random 999;
#X obj 297 103 / 1000;
#X obj 299 138 *;
#X obj 296 80 random 999;
#X text 142 43 rand2 \, prefer lower nrs;
#X connect 4 0 7 0;
#X connect 4 0 10 0;
#X connect 4 0 13 0;
#X connect 4 0 16 0;
#X connect 5 0 6 1;
#X connect 5 0 6 0;
#X connect 6 0 0 0;
#X connect 7 0 5 0;
#X connect 8 0 9 1;
#X connect 8 0 9 0;
#X connect 9 0 1 0;
#X connect 10 0 8 0;
#X connect 11 0 12 1;
#X connect 11 0 12 0;
#X connect 12 0 2 0;
#X connect 13 0 11 0;
#X connect 14 0 15 1;
#X connect 14 0 15 0;
#X connect 15 0 3 0;
#X connect 16 0 14 0;
#X restore 397 42 pd qrandom4;
#X obj 882 470 random 128;
#X obj 124 214 nbx 3 14 2 999 0 1 empty empty empty 0 -8 0 10 -262144
-1 -1 108 256 0;
#X obj 905 307 int;
#X obj 917 330 + 1;
#X obj 900 360 mod;
#X msg 927 283 0;
#X obj 163 214 nbx 7 14 1 1e+037 0 1 empty empty empty 0 -8 0 10 -262144
-1 -1 420859 256 0;
#X obj 905 406 f;
#X msg 892 445 seed \$1;
#X obj 900 384 select 0;
#X obj 881 491 moses;
#X obj 917 522 -;
#X msg 922 497 128;
#X obj 970 452 t b f;
#X obj 891 522 -;
#X obj 897 546 /;
#N canvas 1 77 450 300 metrodiv 0;
#X obj 50 73 inlet;
#X obj 156 76 inlet;
#X obj 98 164 int;
#X obj 110 187 + 1;
#X obj 93 217 mod;
#X obj 75 133 t b;
#X msg 120 140 0;
#X obj 92 253 select 0;
#X obj 252 76 inlet;
#X obj 91 276 outlet;
#X connect 0 0 5 0;
#X connect 1 0 4 1;
#X connect 2 0 3 0;
#X connect 3 0 4 0;
#X connect 4 0 2 1;
#X connect 4 0 7 0;
#X connect 5 0 2 0;
#X connect 6 0 2 1;
#X connect 7 0 9 0;
#X connect 8 0 6 0;
#X restore 880 252 pd metrodiv;
#X obj 103 214 nbx 1 14 1 9 0 1 empty empty empty 0 -8 0 10 -262144
-1 -1 1 256 0;
#X obj 239 215 hsl 40 13 0 127 0 1 empty empty thrsh 1 7 0 10 -262144
-1 -99865 1066 1;
#X text 683 274 random loop sequencer for pitch;
#X obj 907 577 *;
#X obj 907 601 +;
#X obj 287 215 hsl 40 13 0 127 0 1 empty empty spr 1 7 0 10 -262144
-1 -99865 1700 1;
#X obj 332 214 nbx 3 14 -48 64 0 1 empty empty empty 0 -8 0 10 -262144
-1 -1 38 256 0;
#X obj 12 -12 loadbang;
#X obj 910 658 abs_table1 256;
#X obj 907 624 + 128;
#X obj 374 215 hsl 40 13 127 1 0 1 empty empty slp 1 7 0 10 -262144
-1 -99865 800 1;
#X obj 422 215 hsl 40 13 1 0 0 1 empty empty sld 1 7 0 10 -262144 -1
-99865 1700 1;
#X obj 970 538 random 128;
#X msg 980 513 seed \$1;
#X obj 975 489 + 1;
#X obj 882 276 t b b;
#X obj 913 748 lop~;
#X obj 936 707 * 20;
#X obj 960 563 >;
#X obj 899 771 *~;
#X obj 997 736 line~;
#X msg 995 714 \$1 20;
#X obj 810 756 *~;
#X obj 814 716 line~;
#X msg 817 691 \$1 20;
#X obj 955 587 == 0;
#X obj 900 717 sig~;
#X obj 946 517 t b;
#X obj 852 577 *;
#X text 1005 661 scale;
#X obj -71 24 inlet;
#X obj 937 726 + 0.01;
#X obj -160 24 inlet;
#X obj -113 212 t b;
#X text -166 1 1/16 pulse;
#X text -69 3 reset;
#N canvas 319 372 1041 699 preset16 0;
#X obj 22 60 inlet;
#X obj -55 808 outlet, f 8;
#X obj 52 167 list prepend;
#X obj 166 133 f;
#X obj 85 28 inlet;
#X obj 153 -2 inlet;
#X text 28 43 data;
#X text 12 809 data out;
#X msg 508 588;
#X obj 259 36 route 0 1 2 3 4 5 6 7 8 9 10 11 12 13 14 15;
#X text 70 3 store nr;
#X obj 52 125 list;
#X obj 91 67 t b f;
#X obj 153 27 t b f;
#X text 151 -21 recall nr;
#X msg 32 96 symbol set;
#X msg 489 555 2 84 923647 29.7636 0.0979487 0.307692 7 12 820403 49.7579
0.133974 0.212521 0.461538 1 36 838159 25.3706 0.193221 0.566923 0.794872
2 70 911646 26.3769 0.105128 0.231795 0.435897 1 11 841083 42.3333
52.1026 48 65.6154 0.410256 0 1;
#X msg 475 527 2 72 908171 27.3864 0.0610256 0.35641 1 14 448173 49.5626
0.00974359 0.507179 0.589744 4 64 829553 45.8503 0 0.135641 0.205128
3 128 109812 60.5367 0 0.396667 0.589744 1 24 812384 55.359 32.5641
36 78.5385 0.179487 0 1;
#X msg 464 494 2 55 322308 78.1538 0.538462 1 3 42 594225 64.5746 0
0.129231 0.25641 5 12 735091 33.5736 0 0.666667 0.692308 5 42 170842
32.8572 0 0.348718 0.538462 1 36 55959 58.6154 78.1538 0 68.8462 0.820513
0 1;
#X msg 450 466 2 48 795076 27.3538 0.0258974 0.154359 1 8 288471 57.5478
0.102564 0.276154 0.717949 5 72 556566 69.8217 0.359231 0.574615 0.333333
1 30 805910 84.9623 0.307692 0.763846 0.282051 3 80 831854 68.3846
35.8205 60 72.0769 0.820513 0 1;
#X msg 436 437 4 64 70224 36.1462 0.0512821 0.333333 7 12 148255 56.9221
0.133974 0.494615 0.410256 1 36 557073 66.4633 0.193221 0.49 0.692308
2 70 394429 73.2647 0.105128 0.231795 0.923077 1 16 36952 65.1282 52.1026
40 88.2308 0.564103 0 1;
#X msg 422 409 1 14 240968 56.4987 0.0769231 0.698205 3 84 870274 41.6821
0.258974 0.652051 0.487179 1 80 876265 54.089 0.358974 0.541026 0.205128
3 14 439000 46.4038 0.348718 0.588462 0.74359 2 35 887526 83.5595 29.3077
48 85 0.384615 0 1;
#X msg 412 374 1 55 97410 23.9346 0.434103 0.364872 2 56 967950 54.7077
0.0538462 0.139231 0.564103 3 12 512284 50.8326 0.0512821 0.617949
0.179487 3 144 454698 56.1731 0.0923077 0.357692 0.487179 4 24 833693
44.4826 42.3333 48 91.4615 0.461538 0 1;
#X msg 398 346 2 28 78530 91.1795 0.512821 0.75282 1 72 645581 32.0105
0.461538 0.718974 0.410256 3 96 894103 53.1121 0.461538 0.564103 0.820513
2 33 175966 62.1649 0.410256 0.528205 0.461538 3 33 479927 71.641 32.5641
40 85 0.435897 0 1;
#X msg 387 313 1 28 891434 43.7987 0.128205 0.342564 2 72 680359 41.7797
0.230769 0.590769 0.307692 3 96 487807 36.83 0.589744 0.333333 0.564103
3 33 167584 39.37 0.102564 0.451282 0.769231 4 20 420859 50.9954 58.6154
36 81.7692 0.333333 0 1;
#X msg 373 285 2 32 923647 17.7329 0.0104858 0.354025 8 20 820403 31.9972
2.08514e-006 0.718974 0.307692 1 112 838159 40.0701 0.155539 0.589824
0.102564 1 33 912093 65.4326 0.0801026 0.066564 0.846154 3 80 94965
41.2262 35.8205 40 68.8462 0.923077 0 1;
#X msg 359 256 2 14 830605 56.8244 0 0.364103 4 84 706964 15.7285 0.333333
0.257436 1 5 80 367214 33.5736 0.179487 0.333333 0.948718 1 14 202563
52.3956 0 0.297436 0.0512821 1 32 997021 41.2262 35.8205 12 68.8462
0.923077 0 1;
#X msg 345 228 4 16 97056 27.5167 0.0866667 0.484615 7 12 824504 41.7797
0 0.558462 0.589744 2 48 408025 10.7462 0.264359 0.520256 0.102564
3 240 276387 29.6008 0.262051 0.73 0.871795 2 40 887719 50.9954 48.8462
24 91.4615 0.487179 0 1;
#X msg 329 197 1 55 97410 23.2377 0.291843 0.664103 1 56 967950 53.0144
0.210769 0.378974 0.282051 2 12 512284 25.3706 0.366923 0.545897 0.641026
3 144 454698 45.9154 0.025641 0.294103 0.307692 2 96 229546 54.2518
39.0769 48 78.5385 0.564103 0 1;
#X msg 310 163 1 48 908171 23.9346 0.459744 0.216154 3 8 448173 97.041
0.124615 0.344359 0.358974 1 72 829553 15.0121 0 0.449744 0.666667
3 30 109812 52.9167 0.323077 0.357692 0.897436 3 24 179108 54.2518
16.2821 55 104.385 0.846154 0 1;
#X msg 291 111 2 28 891434 50.1945 0.292051 0.265641 2 72 680359 33.2805
0.410256 0.283077 0.25641 3 96 487807 42.5938 0.155641 0.307692 0.25641
3 33 167584 34.4854 0.08 0.502564 0.871795 1 108 420859 34.7133 55.359
38 101.154 0.564103 0 1;
#X msg 261 68 1 16 11111 43.4731 0.0494872 0.364872 1 16 22222 41.6821
0.0538462 0.344359 0.410256 1 16 33333 37.8069 0.102564 0.361538 0.461538
1 16 44444 46.4038 0.0923077 0.357692 0.487179 1 16 55555 28.2005 35.8205
60 117.308 0.589744 0 1;
#X connect 0 0 11 1;
#X connect 2 0 9 0;
#X connect 3 0 9 0;
#X connect 4 0 12 0;
#X connect 5 0 13 0;
#X connect 8 0 1 0;
#X connect 9 0 31 0;
#X connect 9 1 30 0;
#X connect 9 2 29 0;
#X connect 9 3 28 0;
#X connect 9 4 27 0;
#X connect 9 5 26 0;
#X connect 9 6 25 0;
#X connect 9 7 24 0;
#X connect 9 8 23 0;
#X connect 9 9 22 0;
#X connect 9 10 21 0;
#X connect 9 11 20 0;
#X connect 9 12 19 0;
#X connect 9 13 18 0;
#X connect 9 14 17 0;
#X connect 9 15 16 0;
#X connect 9 16 8 0;
#X connect 11 0 2 0;
#X connect 12 0 15 0;
#X connect 12 1 2 1;
#X connect 13 0 3 0;
#X connect 13 1 3 1;
#X connect 15 0 11 0;
#X connect 16 0 1 0;
#X connect 17 0 1 0;
#X connect 18 0 1 0;
#X connect 19 0 1 0;
#X connect 20 0 1 0;
#X connect 21 0 1 0;
#X connect 22 0 1 0;
#X connect 23 0 1 0;
#X connect 24 0 1 0;
#X connect 25 0 1 0;
#X connect 26 0 1 0;
#X connect 27 0 1 0;
#X connect 28 0 1 0;
#X connect 29 0 1 0;
#X connect 30 0 1 0;
#X connect 31 0 1 0;
#X coords 0 699 1 698 115 18 0;
#X restore 1183 -23 pd preset16;
#X obj 1175 -86 f;
#X obj 1234 -116 t f b;
#X obj 443 138 bng 15 250 50 0 empty empty s 4 7 0 10 -262144 -1 -1
;
#X obj 1257 -164 int;
#X obj 443 171 bng 15 250 50 0 empty empty r 4 7 0 10 -262144 -1 -1
;
#X obj 1298 -164 int;
#X obj 1066 -178 inlet;
#X text 1069 -195 tp;
#X obj 1072 -139 spigot;
#X obj 884 685 +;
#X obj 503 214 tgl 15 1 empty empty tp 2 7 0 10 -262144 -1 -99865 1
1;
#X obj 1179 -48 pack f f f f f f f f f f f f f f f f f f f f f f f
f f f f f f f f f f f f f f, f 78;
#X obj 1192 6 unpack f f f f f f f f f f f f f f f f f f f f f f f
f f f f f f f f f f f f f f, f 80;
#X text 129 -168 sequenced fm-synth. 5 random-loop-sequencers controll
amplitude \, fm-amount \, (quantized) modulator pitch \, feedback \,
and pitch.;
#X text 128 -59 sequencercontrols from l to r: ckock-div \, length(steps)
\, randomseed \, triggerthreshhold \, attack \, decay. for the pitch
sequencer:... \, pitch-spread \, transpose \, slideprobability \, slide
;
#X obj 914 684 - 24;
#X obj 163 199 bng 13 250 50 0 empty empty empty 17 7 0 10 -262144
-1 -1;
#N canvas 431 184 951 622 lwrandom 0;
#X obj 230 403 outlet;
#X obj 344 4 inlet;
#X obj 183 140 / 1000;
#X obj 183 171 *;
#X obj 187 248 int;
#X obj 182 117 random 1000;
#X obj 276 86 t b b;
#X msg 344 221 11;
#X msg 353 189 12;
#X msg 314 263 16;
#X msg 195 208 14;
#X obj 238 150 select 0 1 2 3 4 5 6 7 8;
#X obj 259 115 random 9;
#X obj 228 330 *;
#X msg 240 196 8;
#X msg 267 189 12;
#X msg 280 216 16;
#X msg 308 195 10;
#X msg 305 224 14;
#X obj 184 221 + 1;
#X obj 185 194 * 15;
#X text 267 50 randomize pattern length (slightly prefer usual bar
lengths);
#X connect 1 0 6 0;
#X connect 2 0 3 1;
#X connect 2 0 3 0;
#X connect 3 0 20 0;
#X connect 4 0 13 0;
#X connect 5 0 2 0;
#X connect 6 0 5 0;
#X connect 6 1 12 0;
#X connect 7 0 13 1;
#X connect 8 0 13 1;
#X connect 9 0 13 1;
#X connect 10 0 13 1;
#X connect 11 0 14 0;
#X connect 11 1 15 0;
#X connect 11 2 16 0;
#X connect 11 3 17 0;
#X connect 11 4 18 0;
#X connect 11 5 7 0;
#X connect 11 6 8 0;
#X connect 11 7 10 0;
#X connect 11 8 9 0;
#X connect 12 0 11 0;
#X connect 13 0 0 0;
#X connect 14 0 13 1;
#X connect 15 0 13 1;
#X connect 16 0 13 1;
#X connect 17 0 13 1;
#X connect 18 0 13 1;
#X connect 19 0 4 0;
#X connect 20 0 19 0;
#X restore -84 133 pd lwrandom;
#X obj 125 199 bng 13 250 50 0 empty empty empty 17 7 0 10 -262144
-1 -1;
#X obj 105 199 bng 13 250 50 0 empty empty empty 17 7 0 10 -262144
-1 -1;
#N canvas 429 183 951 622 brandom 0;
#X obj 63 233 outlet;
#X obj 264 17 inlet;
#X obj 124 98 random 1e+006;
#X text 81 20 randomize seed (big nr);
#X connect 1 0 2 0;
#X connect 2 0 0 0;
#X restore -16 154 pd brandom;
#N canvas 856 185 450 300 qwrandom 0;
#X obj 151 215 outlet;
#X obj 144 6 inlet;
#X obj 141 88 / 1000;
#X obj 141 119 *;
#X obj 145 144 * 10;
#X obj 143 168 int;
#X obj 140 65 random 999;
#X text 233 37 rand*quad \, prefer lower nrs;
#X connect 1 0 6 0;
#X connect 2 0 3 1;
#X connect 2 0 3 0;
#X connect 3 0 4 0;
#X connect 4 0 5 0;
#X connect 5 0 0 0;
#X connect 6 0 2 0;
#X restore -68 184 pd qwrandom;
#X obj 487 210 tgl 13 1 empty empty empty 0 -6 0 8 -262144 -1 -1 1
1;
#X obj 487 193 tgl 13 1 empty empty empty 0 -6 0 8 -262144 -1 -1 0
1;
#X obj 487 176 tgl 13 1 empty empty empty 0 -6 0 8 -262144 -1 -1 0
1;
#X obj 487 159 tgl 13 1 empty empty empty 0 -6 0 8 -262144 -1 -1 0
1;
#X obj 487 142 tgl 13 1 empty empty empty 0 -6 0 8 -262144 -1 -1 0
1;
#X obj 487 125 tgl 13 1 empty empty empty 0 -6 0 8 -262144 -1 -1 0
1;
#X obj 487 108 tgl 13 1 empty empty empty 0 -6 0 8 -262144 -1 -1 1
1;
#X obj 470 203 tgl 13 1 empty empty empty 0 -6 0 8 -166441 -1 -1 0
1;
#X obj 470 184 tgl 13 1 empty empty empty 0 -6 0 8 -166441 -1 -1 0
1;
#X obj 470 150 tgl 13 1 empty empty empty 0 -6 0 8 -166441 -1 -1 1
1;
#X obj 470 132 tgl 13 1 empty empty empty 0 -6 0 8 -166441 -1 -1 1
1;
#X obj 470 114 tgl 13 1 empty empty empty 0 -6 0 8 -166441 -1 -1 1
1;
#N canvas 36 470 1143 398 notescalefilter12 0;
#X obj 139 40 inlet;
#X obj 228 93 inlet;
#X obj 297 104 inlet;
#X obj 395 106 inlet;
#X obj 497 109 inlet;
#X obj 1397 320 outlet;
#X obj 181 148 mod 12;
#X obj 181 171 == 0;
#X obj 194 227 +;
#X obj 152 124 t f f;
#X obj 209 193 *;
#X obj 291 154 mod 12;
#X obj 304 233 +;
#X obj 319 199 *;
#X obj 291 176 == 1;
#X obj 395 155 mod 12;
#X obj 408 234 +;
#X obj 423 200 *;
#X obj 395 176 == 2;
#X obj 228 124 == 0;
#X obj 312 129 == 0;
#X obj 413 130 == 0;
#X obj 500 157 mod 12;
#X obj 513 236 +;
#X obj 528 202 *;
#X obj 518 132 == 0;
#X obj 247 198 t f f;
#X obj 351 201 t f f;
#X obj 456 203 t f f;
#X obj 608 108 inlet;
#X obj 611 156 mod 12;
#X obj 624 235 +;
#X obj 639 201 *;
#X obj 629 131 == 0;
#X obj 567 202 t f f;
#X obj 500 178 == 3;
#X obj 611 177 == 4;
#X obj 723 103 inlet;
#X obj 828 105 inlet;
#X obj 930 108 inlet;
#X obj 717 153 mod 12;
#X obj 730 232 +;
#X obj 745 198 *;
#X obj 828 154 mod 12;
#X obj 841 233 +;
#X obj 856 199 *;
#X obj 738 128 == 0;
#X obj 846 129 == 0;
#X obj 933 156 mod 12;
#X obj 946 235 +;
#X obj 961 201 *;
#X obj 951 131 == 0;
#X obj 673 197 t f f;
#X obj 784 200 t f f;
#X obj 889 202 t f f;
#X obj 1041 107 inlet;
#X obj 1044 155 mod 12;
#X obj 1057 234 +;
#X obj 1072 200 *;
#X obj 1062 130 == 0;
#X obj 1000 201 t f f;
#X obj 717 175 == 5;
#X obj 827 175 == 6;
#X obj 933 177 == 7;
#X obj 1044 176 == 8;
#X obj 1154 106 inlet;
#X obj 1259 108 inlet;
#X obj 1361 111 inlet;
#X obj 1148 156 mod 12;
#X obj 1161 235 +;
#X obj 1176 201 *;
#X obj 1259 157 mod 12;
#X obj 1272 236 +;
#X obj 1287 202 *;
#X obj 1169 131 == 0;
#X obj 1277 132 == 0;
#X obj 1364 159 mod 12;
#X obj 1377 238 +;
#X obj 1392 204 *;
#X obj 1382 134 == 0;
#X obj 1104 200 t f f;
#X obj 1215 203 t f f;
#X obj 1320 205 t f f;
#X obj 1148 178 == 9;
#X obj 1259 178 == 10;
#X obj 1364 180 == 11;
#X floatatom 187 278 5 0 0 0 - - -, f 5;
#X connect 0 0 9 0;
#X connect 1 0 19 0;
#X connect 2 0 20 0;
#X connect 3 0 21 0;
#X connect 4 0 25 0;
#X connect 6 0 7 0;
#X connect 7 0 10 0;
#X connect 8 0 26 0;
#X connect 8 0 86 0;
#X connect 9 0 8 0;
#X connect 9 1 6 0;
#X connect 10 0 8 1;
#X connect 11 0 14 0;
#X connect 12 0 27 0;
#X connect 13 0 12 1;
#X connect 14 0 13 0;
#X connect 15 0 18 0;
#X connect 16 0 28 0;
#X connect 17 0 16 1;
#X connect 18 0 17 0;
#X connect 19 0 10 1;
#X connect 20 0 13 1;
#X connect 21 0 17 1;
#X connect 22 0 35 0;
#X connect 23 0 34 0;
#X connect 24 0 23 1;
#X connect 25 0 24 1;
#X connect 26 0 12 0;
#X connect 26 1 11 0;
#X connect 27 0 16 0;
#X connect 27 1 15 0;
#X connect 28 0 23 0;
#X connect 28 1 22 0;
#X connect 29 0 33 0;
#X connect 30 0 36 0;
#X connect 31 0 52 0;
#X connect 32 0 31 1;
#X connect 33 0 32 1;
#X connect 34 0 31 0;
#X connect 34 1 30 0;
#X connect 35 0 24 0;
#X connect 36 0 32 0;
#X connect 37 0 46 0;
#X connect 38 0 47 0;
#X connect 39 0 51 0;
#X connect 40 0 61 0;
#X connect 41 0 53 0;
#X connect 42 0 41 1;
#X connect 43 0 62 0;
#X connect 44 0 54 0;
#X connect 45 0 44 1;
#X connect 46 0 42 1;
#X connect 47 0 45 1;
#X connect 48 0 63 0;
#X connect 49 0 60 0;
#X connect 50 0 49 1;
#X connect 51 0 50 1;
#X connect 52 0 41 0;
#X connect 52 1 40 0;
#X connect 53 0 44 0;
#X connect 53 1 43 0;
#X connect 54 0 49 0;
#X connect 54 1 48 0;
#X connect 55 0 59 0;
#X connect 56 0 64 0;
#X connect 57 0 80 0;
#X connect 58 0 57 1;
#X connect 59 0 58 1;
#X connect 60 0 57 0;
#X connect 60 1 56 0;
#X connect 61 0 42 0;
#X connect 62 0 45 0;
#X connect 63 0 50 0;
#X connect 64 0 58 0;
#X connect 65 0 74 0;
#X connect 66 0 75 0;
#X connect 67 0 79 0;
#X connect 68 0 83 0;
#X connect 69 0 81 0;
#X connect 70 0 69 1;
#X connect 71 0 84 0;
#X connect 72 0 82 0;
#X connect 73 0 72 1;
#X connect 74 0 70 1;
#X connect 75 0 73 1;
#X connect 76 0 85 0;
#X connect 77 0 5 0;
#X connect 78 0 77 1;
#X connect 79 0 78 1;
#X connect 80 0 69 0;
#X connect 80 1 68 0;
#X connect 81 0 72 0;
#X connect 81 1 71 0;
#X connect 82 0 77 0;
#X connect 82 1 76 0;
#X connect 83 0 70 0;
#X connect 84 0 73 0;
#X connect 85 0 78 0;
#X restore 1258 566 pd notescalefilter12;
#X obj 1500 83 int;
#X obj 1526 240 pack f f f f f f f f f f f f;
#X obj 503 112 bng 15 250 50 0 empty empty u 5 8 0 10 -262144 -1 -1
;
#X msg 1490 347 \$2 \$3 \$4 \$5 \$6 \$7 \$8 \$9 \$10 \$11 \$12 \$1
;
#X msg 1488 308 \$12 \$1 \$2 \$3 \$4 \$5 \$6 \$7 \$8 \$9 \$10 \$11
;
#X obj 503 131 bng 15 250 50 0 empty empty d 5 8 0 10 -262144 -1 -1
;
#X obj 1472 55 t b b;
#X obj 1487 267 list;
#X obj 1523 280 list;
#X obj 1521 50 t b b;
#X obj 422 105 nbx 4 14 0 18 0 0 empty empty empty 0 -8 0 10 -262144
-1 -1 0 256 0;
#X obj 422 105 cnv 15 45 15 empty empty empty 20 12 0 14 -262144 -66577
0;
#X symbolatom 423 106 7 0 0 0 - - -, f 7;
#N canvas 631 160 1005 915 scalename 0;
#X obj 336 17 inlet;
#X obj 256 878 outlet;
#X msg 275 159 symbol ionian;
#X msg 760 699 symbol chrmtc;
#X msg 304 180 symbol aeol;
#X msg 336 200 symbol lydian;
#X msg 377 224 symbol mxlyd;
#X msg 402 247 symbol dorian;
#X msg 437 269 symbol locr;
#X msg 469 292 symbol phryg;
#X msg 503 343 symbol blumj;
#X obj 334 46 select 0 1 2 3 4 5 6 7 8 9 10 11 12 13 14 15 16 17;
#X msg 520 369 symbol blumn;
#X msg 534 397 symbol pntmj;
#X msg 552 422 symbol pntmi;
#X msg 565 450 symbol folk;
#X msg 583 477 symbol japan;
#X msg 614 529 symbol gypsy;
#X msg 649 561 symbol arab;
#X msg 676 615 symbol whole;
#X msg 658 590 symbol flamenc;
#X msg 596 504 symbol gameln;
#X connect 0 0 11 0;
#X connect 2 0 1 0;
#X connect 3 0 1 0;
#X connect 4 0 1 0;
#X connect 5 0 1 0;
#X connect 6 0 1 0;
#X connect 7 0 1 0;
#X connect 8 0 1 0;
#X connect 9 0 1 0;
#X connect 10 0 1 0;
#X connect 11 0 2 0;
#X connect 11 1 4 0;
#X connect 11 2 5 0;
#X connect 11 3 6 0;
#X connect 11 4 7 0;
#X connect 11 5 8 0;
#X connect 11 6 9 0;
#X connect 11 7 10 0;
#X connect 11 8 12 0;
#X connect 11 9 13 0;
#X connect 11 10 14 0;
#X connect 11 11 15 0;
#X connect 11 12 16 0;
#X connect 11 13 21 0;
#X connect 11 14 17 0;
#X connect 11 15 18 0;
#X connect 11 16 20 0;
#X connect 11 17 19 0;
#X connect 11 18 3 0;
#X connect 12 0 1 0;
#X connect 13 0 1 0;
#X connect 14 0 1 0;
#X connect 15 0 1 0;
#X connect 16 0 1 0;
#X connect 17 0 1 0;
#X connect 18 0 1 0;
#X connect 19 0 1 0;
#X connect 20 0 1 0;
#X connect 21 0 1 0;
#X restore 1309 146 pd scalename;
#N canvas 115 132 701 818 modepreset 0;
#X obj 42 25 inlet;
#X text 50 1 type;
#X obj 55 1036 outlet;
#X obj 38 903 list split;
#X obj 36 1000 list trim;
#X obj 29 963 list prepend;
#X obj 67 98 f;
#X text 176 273 ionian;
#X text 207 307 aeolian;
#X text 221 343 lydian;
#X text 234 376 mixolydian;
#X text 261 407 dorian;
#X text 272 433 locrian;
#X text 284 468 phrygian;
#X text 466 814 chromatic;
#X text 305 495 blues major;
#X text 318 521 blues minor;
#X text 328 553 pentatonic major;
#X text 339 579 pentatonic minor;
#X text 350 602 folk;
#X text 365 630 japanese;
#X text 380 654 gamelan;
#X text 390 678 gypsy;
#X text 410 707 arabian;
#X text 433 743 flamenco;
#X obj 62 178 select 0 1 2 3 4 5 6 7 8 9 10 11 12 13 14 15 16 17;
#X text 453 769 wholetone;
#X text 217 243 modes for 1 octave;
#X msg 280 742 1 1 0 0 1 1 0 1 1 0 1 0;
#X msg 300 765 1 0 1 0 1 0 1 0 1 0 1 0;
#X msg 317 812 1 1 1 1 1 1 1 1 1 1 1 1;
#X msg 258 710 1 1 0 0 1 1 0 1 1 0 0 1;
#X msg 81 377 1 0 1 0 1 1 0 1 0 1 1 0;
#X msg 21 276 1 0 1 0 1 1 0 1 0 1 0 1;
#X msg 50 308 1 0 1 1 0 1 0 1 1 0 1 0;
#X msg 64 343 1 0 1 0 1 0 1 1 0 1 0 1;
#X msg 103 404 1 0 1 1 0 1 0 1 0 1 1 0;
#X msg 120 433 1 1 0 1 0 1 1 0 1 0 1 0;
#X msg 134 467 1 1 0 1 0 1 0 1 1 0 1 0;
#X msg 157 495 1 0 0 1 1 0 0 1 0 1 1 0;
#X msg 168 521 1 0 0 1 0 1 1 1 0 0 1 0;
#X msg 178 551 1 0 1 0 1 0 0 1 0 1 0 0;
#X msg 201 606 1 1 0 1 1 1 0 1 1 0 1 0;
#X msg 215 628 1 1 0 1 1 1 0 1 1 0 1 0;
#X msg 229 656 1 1 0 1 0 0 0 1 1 0 0 0;
#X msg 241 679 1 0 1 1 0 0 1 1 1 0 0 1;
#X msg 194 579 1 0 0 1 0 1 0 1 0 0 1 0;
#X connect 0 0 6 0;
#X connect 3 0 5 0;
#X connect 3 1 5 1;
#X connect 4 0 2 0;
#X connect 5 0 4 0;
#X connect 6 0 25 0;
#X connect 25 0 33 0;
#X connect 25 1 34 0;
#X connect 25 2 35 0;
#X connect 25 3 32 0;
#X connect 25 4 36 0;
#X connect 25 5 37 0;
#X connect 25 6 38 0;
#X connect 25 7 39 0;
#X connect 25 8 40 0;
#X connect 25 9 41 0;
#X connect 25 10 46 0;
#X connect 25 11 42 0;
#X connect 25 12 43 0;
#X connect 25 13 44 0;
#X connect 25 14 45 0;
#X connect 25 15 31 0;
#X connect 25 16 28 0;
#X connect 25 17 29 0;
#X connect 25 18 30 0;
#X connect 28 0 3 0;
#X connect 29 0 3 0;
#X connect 30 0 3 0;
#X connect 31 0 3 0;
#X connect 32 0 3 0;
#X connect 33 0 3 0;
#X connect 34 0 3 0;
#X connect 35 0 3 0;
#X connect 36 0 3 0;
#X connect 37 0 3 0;
#X connect 38 0 3 0;
#X connect 39 0 3 0;
#X connect 40 0 3 0;
#X connect 41 0 3 0;
#X connect 42 0 3 0;
#X connect 43 0 3 0;
#X connect 44 0 3 0;
#X connect 45 0 3 0;
#X connect 46 0 3 0;
#X restore 1303 120 pd modepreset;
#X obj 1226 386 until;
#X msg 1230 333 256;
#X obj 1227 420 int;
#X obj 1265 422 + 1;
#X obj 1246 303 t b b;
#X msg 1278 336 0;
#X obj 1258 592 - 128;
#X obj 1228 457 t f f;
#X msg 1246 274 bang;
#N canvas 317 371 1041 699 preset16 0;
#X obj 22 60 inlet;
#X obj -55 808 outlet, f 8;
#X obj 52 167 list prepend;
#X obj 166 133 f;
#X obj 85 28 inlet;
#X obj 153 -2 inlet;
#X text 28 43 data;
#X text 12 809 data out;
#X msg 508 588;
#X obj 259 36 route 0 1 2 3 4 5 6 7 8 9 10 11 12 13 14 15;
#X text 70 3 store nr;
#X obj 52 125 list;
#X obj 91 67 t b f;
#X obj 153 27 t b f;
#X text 151 -21 recall nr;
#X msg 32 96 symbol set;
#X msg 489 555 1 0 1 0 1 1 0 1 0 1 0 1 7;
#X msg 475 527 0 0 0 1 1 0 1 0 0 0 1 1 7;
#X msg 464 494 1 0 0 1 0 0 1 0 0 1 1 0 7;
#X msg 450 466 1 0 1 0 1 0 0 1 0 0 0 1 3;
#X msg 436 437 1 0 1 0 1 1 0 1 0 1 0 1 0;
#X msg 422 409 1 0 1 1 0 1 0 1 1 0 1 0 0;
#X msg 412 374 0 1 0 1 1 0 1 0 1 1 0 1 0;
#X msg 398 346 1 0 1 0 1 1 0 0 1 1 0 1 16;
#X msg 387 313 0 0 1 1 0 1 0 0 1 0 0 1 0;
#X msg 373 285 1 0 0 1 0 1 0 1 0 0 1 0 10;
#X msg 359 256 1 0 0 1 0 1 0 1 0 0 1 0 10;
#X msg 345 228 0 1 1 0 1 0 1 0 1 1 0 1 0;
#X msg 329 197 1 0 1 1 0 1 0 0 1 1 0 0 7;
#X msg 310 163 1 1 0 1 0 0 0 1 1 0 0 0 0;
#X msg 291 111 0 0 0 0 1 0 1 0 0 0 0 1 0;
#X msg 261 68 1 1 1 1 1 1 1 1 1 1 1 1 18;
#X connect 0 0 11 1;
#X connect 2 0 9 0;
#X connect 3 0 9 0;
#X connect 4 0 12 0;
#X connect 5 0 13 0;
#X connect 8 0 1 0;
#X connect 9 0 31 0;
#X connect 9 1 30 0;
#X connect 9 2 29 0;
#X connect 9 3 28 0;
#X connect 9 4 27 0;
#X connect 9 5 26 0;
#X connect 9 6 25 0;
#X connect 9 7 24 0;
#X connect 9 8 23 0;
#X connect 9 9 22 0;
#X connect 9 10 21 0;
#X connect 9 11 20 0;
#X connect 9 12 19 0;
#X connect 9 13 18 0;
#X connect 9 14 17 0;
#X connect 9 15 16 0;
#X connect 9 16 8 0;
#X connect 11 0 2 0;
#X connect 12 0 15 0;
#X connect 12 1 2 1;
#X connect 13 0 3 0;
#X connect 13 1 3 1;
#X connect 15 0 11 0;
#X connect 16 0 1 0;
#X connect 17 0 1 0;
#X connect 18 0 1 0;
#X connect 19 0 1 0;
#X connect 20 0 1 0;
#X connect 21 0 1 0;
#X connect 22 0 1 0;
#X connect 23 0 1 0;
#X connect 24 0 1 0;
#X connect 25 0 1 0;
#X connect 26 0 1 0;
#X connect 27 0 1 0;
#X connect 28 0 1 0;
#X connect 29 0 1 0;
#X connect 30 0 1 0;
#X connect 31 0 1 0;
#X coords 0 699 1 698 115 18 0;
#X restore 1431 488 pd preset16;
#X obj 1424 426 f;
#X obj 1477 392 t f b;
#X obj 1421 108 unpack f f f f f f f f f f f f f;
#X obj 1456 432 pack f f f f f f f f f f f f f;
#X text 1099 533 force to scale (create scale-table);
#X obj 1248 251 delay 100;
#X text 408 -117 6/2017 \, 9/2017 martin brinkmann;
#X obj 84 1180 hip~ 20;
#X obj 438 155 nbx 2 14 0 15 0 1 empty empty empty 0 -8 0 10 -262144
-1 -1 1 256 0;
#X connect 0 0 3 0;
#X connect 0 0 2 0;
#X connect 1 0 2 2;
#X connect 2 0 15 0;
#X connect 3 0 1 0;
#X connect 4 0 16 0;
#X connect 5 0 8 1;
#X connect 5 0 215 1;
#X connect 6 0 7 0;
#X connect 7 0 8 0;
#X connect 8 0 6 1;
#X connect 8 0 14 0;
#X connect 9 0 4 0;
#X connect 9 0 6 0;
#X connect 10 0 6 1;
#X connect 11 0 12 1;
#X connect 11 0 215 2;
#X connect 12 0 13 0;
#X connect 13 0 4 0;
#X connect 14 0 12 0;
#X connect 15 0 271 0;
#X connect 16 1 23 0;
#X connect 17 0 15 1;
#X connect 18 0 17 0;
#X connect 19 0 18 0;
#X connect 20 0 24 1;
#X connect 21 0 20 0;
#X connect 22 0 21 0;
#X connect 22 1 20 1;
#X connect 23 0 24 0;
#X connect 24 0 19 0;
#X connect 25 0 9 0;
#X connect 26 0 25 1;
#X connect 26 0 204 1;
#X connect 27 0 25 2;
#X connect 27 0 10 0;
#X connect 27 0 48 2;
#X connect 27 0 72 2;
#X connect 27 0 99 2;
#X connect 27 0 85 0;
#X connect 27 0 155 0;
#X connect 27 0 200 0;
#X connect 28 0 39 0;
#X connect 29 0 32 1;
#X connect 29 0 215 7;
#X connect 30 0 31 0;
#X connect 31 0 32 0;
#X connect 32 0 30 1;
#X connect 32 0 38 0;
#X connect 33 0 28 0;
#X connect 33 0 30 0;
#X connect 34 0 30 1;
#X connect 35 0 36 1;
#X connect 35 0 215 8;
#X connect 36 0 37 0;
#X connect 37 0 28 0;
#X connect 38 0 36 0;
#X connect 39 1 46 0;
#X connect 40 0 50 0;
#X connect 41 0 40 0;
#X connect 42 0 41 0;
#X connect 43 0 47 1;
#X connect 44 0 43 0;
#X connect 45 0 44 0;
#X connect 45 1 43 1;
#X connect 46 0 47 0;
#X connect 47 0 42 0;
#X connect 48 0 33 0;
#X connect 49 0 48 1;
#X connect 49 0 215 6;
#X connect 50 0 1 1;
#X connect 51 0 126 0;
#X connect 52 0 63 0;
#X connect 53 0 56 1;
#X connect 53 0 215 14;
#X connect 54 0 55 0;
#X connect 55 0 56 0;
#X connect 56 0 54 1;
#X connect 56 0 62 0;
#X connect 57 0 52 0;
#X connect 57 0 54 0;
#X connect 58 0 54 1;
#X connect 59 0 60 1;
#X connect 59 0 215 15;
#X connect 60 0 61 0;
#X connect 61 0 52 0;
#X connect 62 0 60 0;
#X connect 63 1 70 0;
#X connect 64 0 74 0;
#X connect 65 0 64 0;
#X connect 66 0 65 0;
#X connect 67 0 71 1;
#X connect 68 0 67 0;
#X connect 69 0 68 0;
#X connect 69 1 67 1;
#X connect 70 0 71 0;
#X connect 71 0 66 0;
#X connect 72 0 57 0;
#X connect 73 0 72 1;
#X connect 73 0 215 13;
#X connect 74 0 75 0;
#X connect 75 0 3 1;
#X connect 79 0 90 0;
#X connect 80 0 83 1;
#X connect 80 0 215 21;
#X connect 81 0 82 0;
#X connect 82 0 83 0;
#X connect 83 0 81 1;
#X connect 83 0 89 0;
#X connect 84 0 79 0;
#X connect 84 0 81 0;
#X connect 85 0 81 1;
#X connect 86 0 87 1;
#X connect 86 0 215 22;
#X connect 87 0 88 0;
#X connect 88 0 79 0;
#X connect 89 0 87 0;
#X connect 90 1 97 0;
#X connect 91 0 101 0;
#X connect 92 0 91 0;
#X connect 93 0 92 0;
#X connect 94 0 98 1;
#X connect 95 0 94 0;
#X connect 96 0 95 0;
#X connect 96 1 94 1;
#X connect 97 0 98 0;
#X connect 98 0 93 0;
#X connect 99 0 84 0;
#X connect 100 0 99 1;
#X connect 100 0 215 20;
#X connect 101 0 2 3;
#X connect 103 0 22 0;
#X connect 103 0 23 1;
#X connect 103 0 16 1;
#X connect 103 0 215 3;
#X connect 104 0 19 1;
#X connect 105 0 106 1;
#X connect 105 0 106 0;
#X connect 105 0 215 4;
#X connect 106 0 104 0;
#X connect 107 0 109 1;
#X connect 107 0 109 0;
#X connect 107 0 215 5;
#X connect 108 0 19 2;
#X connect 109 0 108 0;
#X connect 110 0 39 1;
#X connect 110 0 45 0;
#X connect 110 0 46 1;
#X connect 110 0 215 9;
#X connect 111 0 42 1;
#X connect 112 0 113 1;
#X connect 112 0 113 0;
#X connect 112 0 215 10;
#X connect 113 0 111 0;
#X connect 114 0 116 1;
#X connect 114 0 116 0;
#X connect 114 0 215 11;
#X connect 115 0 42 2;
#X connect 116 0 115 0;
#X connect 117 0 51 1;
#X connect 117 0 51 0;
#X connect 117 0 215 12;
#X connect 118 0 63 1;
#X connect 118 0 70 1;
#X connect 118 0 69 0;
#X connect 118 0 215 16;
#X connect 119 0 66 1;
#X connect 120 0 121 1;
#X connect 120 0 121 0;
#X connect 120 0 215 17;
#X connect 121 0 119 0;
#X connect 122 0 124 1;
#X connect 122 0 124 0;
#X connect 122 0 215 18;
#X connect 123 0 66 2;
#X connect 124 0 123 0;
#X connect 125 0 127 0;
#X connect 125 0 215 19;
#X connect 126 0 50 1;
#X connect 127 0 74 1;
#X connect 128 0 90 1;
#X connect 128 0 97 1;
#X connect 128 0 96 0;
#X connect 128 0 215 23;
#X connect 129 0 93 1;
#X connect 130 0 131 1;
#X connect 130 0 131 0;
#X connect 130 0 215 24;
#X connect 131 0 129 0;
#X connect 132 0 134 1;
#X connect 132 0 134 0;
#X connect 132 0 215 25;
#X connect 133 0 93 2;
#X connect 134 0 133 0;
#X connect 135 0 136 0;
#X connect 135 0 215 26;
#X connect 136 0 101 1;
#X connect 138 0 139 0;
#X connect 139 0 26 0;
#X connect 139 1 49 0;
#X connect 139 2 73 0;
#X connect 139 3 100 0;
#X connect 140 0 5 0;
#X connect 140 1 29 0;
#X connect 140 2 53 0;
#X connect 140 3 80 0;
#X connect 141 0 140 0;
#X connect 142 0 143 0;
#X connect 143 0 11 0;
#X connect 143 1 35 0;
#X connect 143 2 59 0;
#X connect 143 3 86 0;
#X connect 144 0 145 0;
#X connect 145 0 103 0;
#X connect 145 1 110 0;
#X connect 145 2 118 0;
#X connect 145 3 128 0;
#X connect 146 0 105 0;
#X connect 146 1 112 0;
#X connect 146 2 120 0;
#X connect 146 3 130 0;
#X connect 147 0 146 0;
#X connect 148 0 149 0;
#X connect 149 0 107 0;
#X connect 149 1 114 0;
#X connect 149 2 122 0;
#X connect 149 3 132 0;
#X connect 150 0 160 0;
#X connect 151 0 154 1;
#X connect 151 0 215 28;
#X connect 152 0 153 0;
#X connect 153 0 154 0;
#X connect 154 0 152 1;
#X connect 154 0 159 0;
#X connect 155 0 152 1;
#X connect 156 0 157 1;
#X connect 156 0 215 29;
#X connect 157 0 158 0;
#X connect 157 0 181 0;
#X connect 158 0 150 0;
#X connect 159 0 157 0;
#X connect 160 1 164 0;
#X connect 160 1 194 0;
#X connect 161 0 165 1;
#X connect 162 0 161 0;
#X connect 163 0 162 0;
#X connect 163 1 161 1;
#X connect 164 0 165 0;
#X connect 165 0 170 0;
#X connect 166 0 182 0;
#X connect 167 0 166 1;
#X connect 167 0 215 27;
#X connect 168 0 160 1;
#X connect 168 0 164 1;
#X connect 168 0 163 0;
#X connect 168 0 215 30;
#X connect 170 0 171 0;
#X connect 171 0 176 0;
#X connect 172 0 170 1;
#X connect 172 0 215 31;
#X connect 173 0 171 1;
#X connect 173 0 215 32;
#X connect 174 0 27 0;
#X connect 174 0 269 0;
#X connect 175 0 219 0;
#X connect 176 0 175 0;
#X connect 177 0 185 1;
#X connect 177 0 215 33;
#X connect 178 0 195 1;
#X connect 178 0 195 0;
#X connect 178 0 215 34;
#X connect 179 0 185 0;
#X connect 180 0 179 0;
#X connect 181 0 180 0;
#X connect 182 0 150 0;
#X connect 182 0 152 0;
#X connect 183 0 186 0;
#X connect 184 0 198 0;
#X connect 185 0 188 0;
#X connect 185 0 192 0;
#X connect 186 0 0 0;
#X connect 187 0 186 1;
#X connect 188 0 187 0;
#X connect 189 0 0 0;
#X connect 190 0 189 1;
#X connect 191 0 190 0;
#X connect 192 0 191 0;
#X connect 193 0 183 0;
#X connect 193 0 189 0;
#X connect 194 0 179 0;
#X connect 195 0 184 0;
#X connect 197 0 27 0;
#X connect 198 0 183 1;
#X connect 199 0 200 0;
#X connect 200 0 25 0;
#X connect 200 0 48 0;
#X connect 200 0 72 0;
#X connect 200 0 99 0;
#X connect 200 0 166 0;
#X connect 203 0 216 0;
#X connect 204 0 215 0;
#X connect 205 0 203 1;
#X connect 205 1 204 0;
#X connect 206 0 207 0;
#X connect 207 0 205 0;
#X connect 207 0 265 0;
#X connect 208 0 209 0;
#X connect 209 0 203 2;
#X connect 209 0 263 2;
#X connect 210 0 212 0;
#X connect 212 0 213 1;
#X connect 213 0 193 0;
#X connect 214 0 212 1;
#X connect 214 0 215 36;
#X connect 215 0 203 0;
#X connect 216 0 26 0;
#X connect 216 1 5 0;
#X connect 216 2 11 0;
#X connect 216 3 103 0;
#X connect 216 4 105 0;
#X connect 216 5 107 0;
#X connect 216 6 49 0;
#X connect 216 7 29 0;
#X connect 216 8 35 0;
#X connect 216 9 110 0;
#X connect 216 10 112 0;
#X connect 216 11 114 0;
#X connect 216 12 117 0;
#X connect 216 13 73 0;
#X connect 216 14 53 0;
#X connect 216 15 59 0;
#X connect 216 16 118 0;
#X connect 216 17 120 0;
#X connect 216 18 122 0;
#X connect 216 19 125 0;
#X connect 216 20 100 0;
#X connect 216 21 80 0;
#X connect 216 22 86 0;
#X connect 216 23 128 0;
#X connect 216 24 130 0;
#X connect 216 25 132 0;
#X connect 216 26 135 0;
#X connect 216 27 167 0;
#X connect 216 28 151 0;
#X connect 216 29 156 0;
#X connect 216 30 168 0;
#X connect 216 31 172 0;
#X connect 216 32 173 0;
#X connect 216 33 177 0;
#X connect 216 34 178 0;
#X connect 216 36 214 0;
#X connect 219 0 213 0;
#X connect 220 0 224 0;
#X connect 221 0 151 0;
#X connect 222 0 221 0;
#X connect 223 0 225 0;
#X connect 224 0 156 0;
#X connect 225 0 167 0;
#X connect 226 0 238 1;
#X connect 226 0 239 1;
#X connect 226 0 269 0;
#X connect 226 0 264 1;
#X connect 227 0 238 3;
#X connect 227 0 240 2;
#X connect 227 0 269 0;
#X connect 227 0 267 2;
#X connect 228 0 238 5;
#X connect 228 0 240 4;
#X connect 228 0 269 0;
#X connect 228 0 267 4;
#X connect 229 0 238 6;
#X connect 229 0 240 5;
#X connect 229 0 269 0;
#X connect 229 0 267 5;
#X connect 230 0 238 8;
#X connect 230 0 240 7;
#X connect 230 0 269 0;
#X connect 230 0 267 7;
#X connect 231 0 238 10;
#X connect 231 0 240 9;
#X connect 231 0 269 0;
#X connect 231 0 267 9;
#X connect 232 0 238 12;
#X connect 232 0 240 11;
#X connect 232 0 269 0;
#X connect 232 0 267 11;
#X connect 233 0 238 2;
#X connect 233 0 240 1;
#X connect 233 0 269 0;
#X connect 233 0 267 1;
#X connect 234 0 238 4;
#X connect 234 0 240 3;
#X connect 234 0 269 0;
#X connect 234 0 267 3;
#X connect 235 0 238 7;
#X connect 235 0 240 6;
#X connect 235 0 269 0;
#X connect 235 0 267 6;
#X connect 236 0 238 9;
#X connect 236 0 240 8;
#X connect 236 0 269 0;
#X connect 236 0 267 8;
#X connect 237 0 238 11;
#X connect 237 0 240 10;
#X connect 237 0 269 0;
#X connect 237 0 267 10;
#X connect 238 0 260 0;
#X connect 239 0 240 0;
#X connect 240 0 246 1;
#X connect 240 0 247 1;
#X connect 241 0 245 0;
#X connect 241 0 269 0;
#X connect 242 0 266 0;
#X connect 243 0 266 0;
#X connect 244 0 248 0;
#X connect 244 0 269 0;
#X connect 245 0 246 0;
#X connect 245 1 239 0;
#X connect 246 0 243 0;
#X connect 247 0 242 0;
#X connect 248 0 247 0;
#X connect 248 1 239 0;
#X connect 249 0 252 0;
#X connect 249 0 253 0;
#X connect 249 0 267 12;
#X connect 252 0 251 0;
#X connect 253 0 266 0;
#X connect 254 0 256 0;
#X connect 255 0 254 0;
#X connect 256 0 257 0;
#X connect 256 0 261 0;
#X connect 257 0 256 1;
#X connect 258 0 255 0;
#X connect 258 1 259 0;
#X connect 259 0 256 1;
#X connect 260 0 175 2;
#X connect 261 0 238 0;
#X connect 261 1 175 3;
#X connect 262 0 258 0;
#X connect 263 0 266 0;
#X connect 264 0 267 0;
#X connect 265 0 263 1;
#X connect 265 1 264 0;
#X connect 266 0 226 0;
#X connect 266 1 233 0;
#X connect 266 2 227 0;
#X connect 266 3 234 0;
#X connect 266 4 228 0;
#X connect 266 5 229 0;
#X connect 266 6 235 0;
#X connect 266 7 230 0;
#X connect 266 8 236 0;
#X connect 266 9 231 0;
#X connect 266 10 237 0;
#X connect 266 11 232 0;
#X connect 266 12 252 0;
#X connect 267 0 263 0;
#X connect 269 0 262 0;
#X connect 271 0 137 0;
#X connect 272 0 207 1;
#X connect 272 0 209 1;
#X coords 0 -1 1 1 420 130 1 100 100;
#X restore 27 111 pd randomloopfm;
#X obj 38 316 *~ 0.5;
#X obj 445 25 notein;
#X obj 31 361 outlet~;
#X obj 77 89 print;
#X obj 513 137 tgl 15 0 empty empty empty 17 7 0 10 -262144 -1 -1 1
1;
#X obj 513 157 switch~;
#X obj 513 25 inlet;
#X obj 445 86 - 0;
#X connect 0 0 1 0;
#X connect 0 1 1 1;
#X connect 1 0 2 0;
#X connect 2 0 4 0;
#X connect 3 0 9 0;
#X connect 6 0 7 0;
#X connect 9 0 1 2;
