#N canvas 374 250 450 300 10;
#X obj 57 43 adc~;
#X obj 87 222 dac~;
#N canvas 810 152 977 532 reverb3s 0;
#X obj -21 73 inlet~;
#X obj -64 623 outlet~;
#X obj 19 622 outlet~;
#X obj 2 452 *;
#X obj 9 485 *;
#X obj -21 421 t b f f;
#X obj -7 510 -;
#X msg -23 488 1;
#X obj 12 542 * 100;
#X obj 75 472 *;
#X obj 79 496 *;
#X obj 66 445 t f f;
#X obj 81 528 * 100;
#X obj 62 551 * 6000;
#X obj 24 74 inlet~;
#X obj -36 579 abs_rev3rs 100 90 3000 20;
#X obj 104 159 hsl 128 13 0 1 0 1 empty empty size 2 7 0 10 -262144
-1 -1 4800 1;
#X obj 139 469 line~;
#X msg 140 440 \$1 50;
#X text 515 39 just a wrapper for the modification (added roomsize)
of millers reverb3 abstraction from the pd-docs;
#X obj 326 114 inlet~;
#X obj 211 464 *~;
#X obj 104 174 hsl 128 12 0 1 0 1 empty empty mod 2 6 0 10 -262144
-1 -99865 0 1;
#X text -3 55 stereo;
#X text 334 91 size mod;
#X obj 150 407 + 0.01;
#X obj 149 348 *;
#X obj 149 377 * 5;
#X obj 104 114 hsl 128 13 0 1 0 1 empty empty liveness 2 7 0 10 -262144
-1 -1 8600 1;
#X obj 104 129 hsl 128 13 0 1 0 1 empty empty damping 2 7 0 10 -262144
-1 -1 2500 1;
#X obj 104 144 hsl 128 13 0 1 0 1 empty empty crossover 2 7 0 10 -262144
-1 -1 3300 1;
#X connect 0 0 15 0;
#X connect 3 0 4 1;
#X connect 3 0 4 0;
#X connect 4 0 6 1;
#X connect 5 0 7 0;
#X connect 5 1 3 0;
#X connect 5 2 3 1;
#X connect 6 0 8 0;
#X connect 7 0 6 0;
#X connect 8 0 15 3;
#X connect 9 0 10 1;
#X connect 9 0 10 0;
#X connect 10 0 12 0;
#X connect 11 0 9 0;
#X connect 11 1 9 1;
#X connect 12 0 15 5;
#X connect 13 0 15 4;
#X connect 14 0 15 1;
#X connect 15 0 1 0;
#X connect 15 1 2 0;
#X connect 16 0 26 1;
#X connect 16 0 26 0;
#X connect 17 0 15 6;
#X connect 18 0 17 0;
#X connect 20 0 21 0;
#X connect 21 0 15 6;
#X connect 22 0 21 1;
#X connect 25 0 18 0;
#X connect 26 0 27 0;
#X connect 27 0 25 0;
#X connect 28 0 5 0;
#X connect 29 0 11 0;
#X connect 30 0 13 0;
#X coords 0 -1 1 1 135 90 1 100 100;
#X restore 51 80 pd reverb3s;
#X text 100 22 reverb3 with (maybe crude) variable roomsize;
#X connect 0 0 2 0;
#X connect 0 1 2 1;
#X connect 2 0 1 0;
#X connect 2 1 1 1;
