#N canvas 1 77 450 300 10;
#N canvas 1 77 977 518 reverb2 0;
#X obj 25 29 inlet~;
#X obj 6 365 outlet~;
#X obj 97 366 outlet~;
#X obj 105 113 hsl 80 10 1 0 0 1 empty empty lv 2 5 0 10 -262144 -1
-1 4300 1;
#X obj 107 195 *;
#X obj 114 228 *;
#X obj 84 164 t b f f;
#X obj 98 253 -;
#X msg 82 231 1;
#X obj 117 285 * 100;
#X obj 76 321 rev2~ 100 90 3000 20;
#X obj 105 126 hsl 80 10 1 0 0 1 empty empty dp 2 5 0 10 -262144 -1
-1 1300 1;
#X obj 180 215 *;
#X obj 184 239 *;
#X obj 171 188 t f f;
#X obj 186 271 * 100;
#X obj 105 138 hsl 80 10 1 0 0 1 empty empty co 2 5 0 10 -262144 -1
-1 5800 1;
#X obj 167 294 * 6000;
#X connect 0 0 10 0;
#X connect 3 0 6 0;
#X connect 4 0 5 1;
#X connect 4 0 5 0;
#X connect 5 0 7 1;
#X connect 6 0 8 0;
#X connect 6 1 4 0;
#X connect 6 2 4 1;
#X connect 7 0 9 0;
#X connect 8 0 7 0;
#X connect 9 0 10 2;
#X connect 10 0 1 0;
#X connect 10 1 2 0;
#X connect 11 0 14 0;
#X connect 12 0 13 1;
#X connect 12 0 13 0;
#X connect 13 0 15 0;
#X connect 14 0 12 0;
#X connect 14 1 12 1;
#X connect 15 0 10 4;
#X connect 16 0 17 0;
#X connect 17 0 10 3;
#X coords 0 -1 1 1 90 50 1 100 100;
#X restore 49 94 pd reverb2;
#N canvas 844 169 977 518 reverb3 0;
#X obj -21 73 inlet~;
#X obj 6 365 outlet~;
#X obj 124 365 outlet~;
#X obj 105 113 hsl 80 10 1 0 0 1 empty empty lv 2 5 0 10 -262144 -1
-1 4300 1;
#X obj 107 195 *;
#X obj 114 228 *;
#X obj 84 164 t b f f;
#X obj 98 253 -;
#X msg 82 231 1;
#X obj 117 285 * 100;
#X obj 105 126 hsl 80 10 1 0 0 1 empty empty dp 2 5 0 10 -262144 -1
-1 1300 1;
#X obj 180 215 *;
#X obj 184 239 *;
#X obj 171 188 t f f;
#X obj 186 271 * 100;
#X obj 105 138 hsl 80 10 1 0 0 1 empty empty co 2 5 0 10 -262144 -1
-1 5800 1;
#X obj 167 294 * 6000;
#X obj 69 322 rev3~ 100 90 3000 20;
#X obj 24 74 inlet~;
#X connect 0 0 17 0;
#X connect 3 0 6 0;
#X connect 4 0 5 1;
#X connect 4 0 5 0;
#X connect 5 0 7 1;
#X connect 6 0 8 0;
#X connect 6 1 4 0;
#X connect 6 2 4 1;
#X connect 7 0 9 0;
#X connect 8 0 7 0;
#X connect 9 0 17 3;
#X connect 10 0 13 0;
#X connect 11 0 12 1;
#X connect 11 0 12 0;
#X connect 12 0 14 0;
#X connect 13 0 11 0;
#X connect 13 1 11 1;
#X connect 14 0 17 5;
#X connect 15 0 16 0;
#X connect 16 0 17 4;
#X connect 17 0 1 0;
#X connect 17 1 2 0;
#X connect 18 0 17 1;
#X coords 0 -1 1 1 90 50 1 100 100;
#X restore 168 95 pd reverb3;
#X text 49 29 reverb2 and 3 abstractions;
