#N canvas 363 161 1133 758 10;
#N canvas 763 77 753 859 samplebrowser 0;
#X obj 279 -21 loadbang;
#X msg 32 10 location /home/mnb/samplelib;
#X msg 13 -19 location /home/mnb/wave_wrk;
#X msg 10 170 location ..;
#X msg 78 32 location /home/mnb/archiv/sounds;
#X msg 129 59 location /home/mnb/sound_recordings;
#X obj 461 737 outlet;
#X obj 103 119 bng 15 250 50 0 empty empty A 5 8 0 10 -262144 -1 -1
;
#X obj 133 119 bng 15 250 50 0 empty empty empty 17 7 0 10 -262144
-1 -1;
#X obj 153 119 bng 15 250 50 0 empty empty empty 17 7 0 10 -262144
-1 -1;
#X obj 173 119 bng 15 250 50 0 empty empty empty 17 7 0 10 -262144
-1 -1;
#X obj 193 119 bng 15 250 50 0 empty empty empty 17 7 0 10 -262144
-1 -1;
#X msg -9 69 graphics 1;
#X obj 102 157 playlist all 310 390 {Helvetica 13 normal} white grey
black red;
#X msg 174 723 open \$1;
#X msg 137 721 1;
#X obj 125 682 delay 1;
#X obj 161 654 t b a;
#X obj 148 753 readsf~;
#X obj 171 618 spigot;
#X obj 402 614 spigot;
#X msg 241 724 0;
#X obj 378 120 hradio 15 1 1 2 empty empty empty 0 -8 0 10 -262144
-1 -1 0;
#X obj 422 557 != 1;
#X obj 208 591 == 1;
#X obj 95 831 outlet~;
#X obj 332 662 select 1;
#X connect 0 0 12 0;
#X connect 0 0 2 0;
#X connect 1 0 13 0;
#X connect 2 0 13 0;
#X connect 3 0 13 0;
#X connect 4 0 13 0;
#X connect 5 0 13 0;
#X connect 7 0 3 0;
#X connect 8 0 2 0;
#X connect 9 0 4 0;
#X connect 10 0 1 0;
#X connect 11 0 5 0;
#X connect 12 0 13 0;
#X connect 13 0 19 0;
#X connect 13 0 20 0;
#X connect 14 0 18 0;
#X connect 15 0 18 0;
#X connect 16 0 15 0;
#X connect 17 0 16 0;
#X connect 17 1 14 0;
#X connect 18 0 25 0;
#X connect 19 0 17 0;
#X connect 20 0 6 0;
#X connect 21 0 18 0;
#X connect 22 0 23 0;
#X connect 22 0 24 0;
#X connect 22 0 26 0;
#X connect 23 0 20 1;
#X connect 24 0 19 1;
#X connect 26 0 21 0;
#X coords 0 -1 1 1 314 450 1 100 100;
#X restore 720 31 pd samplebrowser;
#X obj 78 250 dac~;
#X obj 191 70 notein;
#N canvas 340 165 1366 874 cuts 0;
#X obj -208 -75 inlet;
#X obj 319 944 outlet~;
#X obj 478 944 outlet~;
#X obj 941 -53 inlet;
#X text 983 -52 <-filename;
#X msg 961 -1 set symbol \$1;
#X text 776 250 read file into table abs;
#X text 781 16 samplelen;
#X msg 978 39 symbol /home/mnb/wave_wrk/isemarp2.wav;
#X msg 927 662 \; \$1 resize 1.4112e+06;
#X obj 435 -37 inlet~;
#X obj 221 103 tgl 12 0 empty empty ar 1 7 0 10 -258113 -1 -99865 0
1;
#X msg 1018 460 \; \$1 normalize 1;
#X obj 235 103 bng 12 250 50 0 empty empty N 4 6 0 10 -261682 -1 -1
;
#X obj 1003 420 symbol;
#N canvas 218 305 682 570 readsftotables_upsampled 0;
#X msg 167 175 open \$1;
#X obj 150 110 t b a;
#X msg 130 173 1;
#X obj 148 35 inlet;
#X obj 272 35 inlet;
#X obj 226 421 tabwrite~;
#X msg 239 161 set \$1;
#X obj 379 534 outlet;
#X msg 416 323 stop;
#X msg 484 322 start;
#X obj 352 396 timer;
#X obj 375 424 / 1000;
#X obj 383 465 *;
#X obj 456 390 samplerate~;
#X obj 334 249 t b b;
#X obj 268 269 t b b;
#X obj 471 224 loadbang;
#X obj 379 504 clip 0 1.4112e+06;
#X text 148 16 filename;
#X text 277 11 tablename;
#X text 378 553 samplesize;
#X obj 425 67 block~ 1024 1 16;
#X obj 115 137 delay 30;
#X obj 346 55 inlet;
#X obj 296 443 tabwrite~;
#X msg 313 181 set \$1;
#X text 351 31 tablename2;
#X obj 143 205 readsf~ 2;
#X connect 0 0 27 0;
#X connect 1 0 22 0;
#X connect 1 1 0 0;
#X connect 2 0 27 0;
#X connect 3 0 1 0;
#X connect 4 0 6 0;
#X connect 6 0 5 0;
#X connect 8 0 5 0;
#X connect 8 0 24 0;
#X connect 9 0 5 0;
#X connect 9 0 24 0;
#X connect 10 0 11 0;
#X connect 11 0 12 0;
#X connect 12 0 17 0;
#X connect 13 0 12 1;
#X connect 14 0 9 0;
#X connect 14 1 10 0;
#X connect 15 0 10 1;
#X connect 15 1 8 0;
#X connect 16 0 13 0;
#X connect 17 0 7 0;
#X connect 22 0 2 0;
#X connect 22 0 14 0;
#X connect 23 0 25 0;
#X connect 25 0 24 0;
#X connect 27 0 5 0;
#X connect 27 1 24 0;
#X connect 27 2 15 0;
#X restore 770 274 pd readsftotables_upsampled;
#X obj 959 532 symbol;
#X msg 938 719 \; \$1 resize 1.4112e+06;
#X msg 975 563 \; \$1 normalize 1;
#X text 439 -54 audio rec in l/r;
#X obj 491 -37 inlet~;
#X obj 182 105 hsl 35 10 0 1 0 1 empty empty sens -2 4 0 10 -262144
-1 -1 1200 1;
#N canvas 1 77 650 604 autorec 0;
#X obj 84 86 inlet~;
#X obj 153 85 inlet;
#X obj 235 89 inlet;
#X obj 283 90 inlet;
#X text 89 63 audio;
#X text 153 66 sens(0..1);
#X text 234 71 on;
#X text 288 71 rec;
#X obj 266 382 outlet;
#X text 274 402 rec;
#N canvas 1 77 450 300 onset 0;
#X obj 110 48 inlet~;
#X obj 113 157 -;
#X obj 108 98 t f f;
#X obj 111 271 outlet;
#X obj 129 212 change;
#X obj 123 184 > 25;
#X obj 110 74 env~;
#X obj 238 80 inlet;
#X text 116 21 audio;
#X text 239 60 sensitivity;
#X obj 129 239 moses 0.1;
#X connect 0 0 6 0;
#X connect 1 0 5 0;
#X connect 2 0 1 1;
#X connect 2 1 1 0;
#X connect 4 0 10 0;
#X connect 5 0 4 0;
#X connect 6 0 2 0;
#X connect 7 0 5 1;
#X connect 10 1 3 0;
#X restore 124 203 pd onset;
#X obj 141 240 spigot;
#N canvas 1 77 450 300 once 0;
#X obj 115 68 inlet;
#X obj 275 67 inlet;
#X obj 178 258 outlet;
#X msg 266 107 1;
#X msg 270 134 0;
#X obj 142 197 t b b;
#X obj 144 167 spigot 1;
#X connect 0 0 6 0;
#X connect 1 0 3 0;
#X connect 3 0 6 1;
#X connect 4 0 6 1;
#X connect 5 0 4 0;
#X connect 5 1 2 0;
#X connect 6 0 5 0;
#X restore 121 281 pd once;
#X obj 219 246 select 0;
#X obj 304 264 select 0;
#X msg 302 287 0;
#X obj 156 152 *;
#X obj 156 181 * 100;
#X obj 155 122 t f f;
#X msg 240 333 1;
#X connect 0 0 10 0;
#X connect 1 0 18 0;
#X connect 2 0 14 0;
#X connect 2 0 11 1;
#X connect 3 0 13 0;
#X connect 10 0 11 0;
#X connect 11 0 12 0;
#X connect 12 0 19 0;
#X connect 13 0 12 1;
#X connect 14 0 15 0;
#X connect 15 0 8 0;
#X connect 16 0 17 0;
#X connect 17 0 10 1;
#X connect 18 0 16 0;
#X connect 18 1 16 1;
#X connect 19 0 8 0;
#X restore 383 22 pd autorec;
#X obj 1196 289 tabwrite~;
#X obj 1058 115 select 0 1;
#X msg 1196 220 stop;
#X msg 1264 219 start;
#X obj 1132 293 timer;
#X obj 1134 319 / 1000;
#X obj 1143 376 *;
#X obj 1188 314 samplerate~;
#X obj 1088 172 t b b;
#X msg 997 151 symbol rec;
#X obj 1264 291 tabwrite~;
#X obj 1161 -23 loadbang;
#X obj 358 640 tabplay~;
#X msg 360 616 set \$1;
#X obj 445 561 abs_atable2;
#X obj 496 642 tabplay~;
#X msg 503 608 set \$1;
#X obj 164 103 tgl 13 0 empty empty a 2 5 0 10 -262144 -1 -1 0 1;
#X obj 254 102 nbx 5 14 0 99 0 1 empty empty s -6 7 0 10 -262144 -1
-1 4.29 256;
#X obj 102 118 abs_sampler4_display_large_flat;
#X obj 144 263 / 100;
#X obj 144 289 *;
#X obj 784 37 f;
#X obj 116 333 f;
#X obj 1143 448 symbol;
#X obj 1121 518 symbol;
#X msg 1118 539 \; \$1 const 0;
#X msg 1134 476 \; \$1 const 0;
#X obj 1114 146 t b b b;
#X obj 149 103 bng 12 250 50 0 empty empty < 3 7 0 10 -4034 -1 -1;
#N canvas 335 122 726 415 savesample 0;
#X obj 63 8 inlet;
#X obj 97 82 inlet;
#X text 102 63 samplelength;
#X text 104 6 save;
#X obj 241 376 soundfiler;
#X obj 455 76 inlet;
#X obj 501 77 inlet;
#X text 470 42 sampletablenames;
#X obj 222 242 list append;
#X obj 241 264 list append;
#X obj 261 288 list append;
#X obj 192 207 symbol;
#X obj 235 133 random 1e+06;
#X msg 241 348 write -wave -nframes \$4 -bytes 4 sample-\$1 \$2 \$3
;
#X msg 233 163 symbol r\$1;
#X obj 192 69 t b b;
#X text 345 147 randomnr \, conncat to list;
#X connect 0 0 15 0;
#X connect 1 0 10 1;
#X connect 5 0 8 1;
#X connect 6 0 9 1;
#X connect 8 0 9 0;
#X connect 9 0 10 0;
#X connect 10 0 13 0;
#X connect 11 0 8 0;
#X connect 12 0 14 0;
#X connect 13 0 4 0;
#X connect 14 0 11 1;
#X connect 15 0 11 0;
#X connect 15 1 12 0;
#X restore 372 380 pd savesample;
#X obj 708 102 nbx 3 14 0 999 0 1 empty empty empty 0 -8 0 10 -262144
-1 -1 100 256;
#X obj 340 910 *~;
#X obj 466 915 *~;
#X obj 419 736 / 100;
#X obj 413 790 line~;
#X msg 415 759 \$1 20;
#X obj 314 102 nbx 5 14 0.01 100 0 1 empty empty l -6 7 0 10 -262144
-1 -1 3.12 256;
#X obj 326 568 abs_atable2;
#X obj 890 86 t a b;
#X msg 941 355 stop;
#X text -99 98 triggernr (0..15);
#X obj 282 307 *;
#X obj 322 213 / 100;
#X obj 263 350 /;
#X obj 373 294 samplerate~;
#X obj 377 264 loadbang;
#X obj 261 375 * 1000;
#X obj 391 859 *~;
#X obj 191 710 vline~;
#X obj 154 616 f;
#X obj 405 -184 int;
#X obj 451 102 bng 15 250 50 0 empty empty 0 5 8 0 10 -166441 -1 -1
;
#X msg 632 -315 0;
#X obj 467 102 bng 15 250 50 0 empty empty 1 5 8 0 10 -262144 -1 -1
;
#X obj 483 102 bng 15 250 50 0 empty empty 2 5 8 0 10 -262144 -1 -1
;
#X obj 499 102 bng 15 250 50 0 empty empty 3 5 8 0 10 -262144 -1 -1
;
#X msg 662 -315 1;
#X msg 691 -316 2;
#X msg 722 -315 3;
#X obj 515 102 bng 15 250 50 0 empty empty 4 5 8 0 10 -262144 -1 -1
;
#X obj 531 102 bng 15 250 50 0 empty empty 5 5 8 0 10 -262144 -1 -1
;
#X obj 547 102 bng 15 250 50 0 empty empty 6 5 8 0 10 -262144 -1 -1
;
#X obj 563 102 bng 15 250 50 0 empty empty 7 5 8 0 10 -262144 -1 -1
;
#X msg 752 -315 4;
#X msg 782 -315 5;
#X msg 811 -316 6;
#X msg 842 -315 7;
#X obj 579 102 bng 15 250 50 0 empty empty 8 5 8 0 10 -262144 -1 -1
;
#X obj 595 102 bng 15 250 50 0 empty empty 9 5 8 0 10 -262144 -1 -1
;
#X obj 611 102 bng 15 250 50 0 empty empty 10 2 8 0 10 -262144 -1 -1
;
#X obj 627 102 bng 15 250 50 0 empty empty 11 2 8 0 10 -262144 -1 -1
;
#X obj 643 102 bng 15 250 50 0 empty empty 12 2 8 0 10 -262144 -1 -1
;
#X obj 659 102 bng 15 250 50 0 empty empty 13 2 8 0 10 -262144 -1 -1
;
#X obj 675 102 bng 15 250 50 0 empty empty 14 2 8 0 10 -262144 -1 -1
;
#X obj 691 102 bng 15 250 50 0 empty empty 15 2 8 0 10 -262144 -1 -1
;
#X msg 873 -315 8;
#X msg 903 -315 9;
#X msg 932 -316 10;
#X msg 963 -315 11;
#X msg 993 -315 12;
#X msg 1023 -315 13;
#X msg 1052 -316 14;
#X msg 1078 -316 15;
#X obj 373 102 hsl 40 8 0 1 0 1 empty empty att 2 4 0 10 -262144 -66577
-1 0 1;
#X obj 373 110 hsl 40 8 0 1 0 1 empty empty dec 2 4 0 10 -262144 -66577
-1 300 1;
#X obj 158 377 *;
#X obj 211 377 *;
#X obj 384 691 == 0;
#X obj 384 666 env~ 16384 8192;
#X obj 369 744 *~;
#X obj 384 715 lop~ 1;
#X text 424 691 maybe a mono sample;
#N canvas 668 277 1041 699 preset16 0;
#X obj 22 60 inlet;
#X obj -55 808 outlet, f 8;
#X obj 52 167 list prepend;
#X obj 166 133 f;
#X obj 85 28 inlet;
#X obj 153 -2 inlet;
#X text 28 43 data;
#X text 12 809 data out;
#X msg 508 588;
#X msg 489 555 59 33 0.128205 0.461538;
#X msg 475 527;
#X msg 464 494;
#X msg 450 466 51 75 0.0769231 0.384615;
#X msg 436 437;
#X msg 422 409;
#X msg 412 374;
#X msg 398 346;
#X msg 387 313 51 75 0.0769231 0.384615;
#X msg 373 285;
#X msg 359 256 78 23 0 0.666667;
#X msg 345 228 67 100 0 0.666667;
#X msg 329 197 84 100 0 0.666667;
#X obj 259 36 route 0 1 2 3 4 5 6 7 8 9 10 11 12 13 14 15;
#X text 70 3 store nr;
#X obj 52 125 list;
#X obj 91 67 t b f;
#X obj 153 27 t b f;
#X text 151 -21 recall nr;
#X msg 32 96 symbol set;
#X msg 291 111 56.83 40 0.0769231 0.384615;
#X msg 310 163 18.21 17 0 0.666667;
#X msg 261 68 4.29 3.12 0 0.0769231;
#X connect 0 0 24 1;
#X connect 2 0 22 0;
#X connect 3 0 22 0;
#X connect 4 0 25 0;
#X connect 5 0 26 0;
#X connect 8 0 1 0;
#X connect 9 0 1 0;
#X connect 10 0 1 0;
#X connect 11 0 1 0;
#X connect 12 0 1 0;
#X connect 13 0 1 0;
#X connect 14 0 1 0;
#X connect 15 0 1 0;
#X connect 16 0 1 0;
#X connect 17 0 1 0;
#X connect 18 0 1 0;
#X connect 19 0 1 0;
#X connect 20 0 1 0;
#X connect 21 0 1 0;
#X connect 22 0 31 0;
#X connect 22 1 29 0;
#X connect 22 2 30 0;
#X connect 22 3 21 0;
#X connect 22 4 20 0;
#X connect 22 5 19 0;
#X connect 22 6 18 0;
#X connect 22 7 17 0;
#X connect 22 8 16 0;
#X connect 22 9 15 0;
#X connect 22 10 14 0;
#X connect 22 11 13 0;
#X connect 22 12 12 0;
#X connect 22 13 11 0;
#X connect 22 14 10 0;
#X connect 22 15 9 0;
#X connect 22 16 8 0;
#X connect 24 0 2 0;
#X connect 25 0 28 0;
#X connect 25 1 2 1;
#X connect 26 0 3 0;
#X connect 26 1 3 1;
#X connect 28 0 24 0;
#X connect 29 0 1 0;
#X connect 30 0 1 0;
#X connect 31 0 1 0;
#X coords 0 699 1 698 115 18 0;
#X restore 623 458 pd preset16;
#X obj 578 429 f;
#X obj 533 348 t f b;
#X obj 642 532 unpack f f f f;
#X obj 604 429 pack f f f f;
#X obj 623 485 spigot 1;
#X obj -149 46 select 39 48 45 43 51 49 36 38 40 42 44 46;
#X text 121 52 <- my nanopad midi-note nrs (change for other controllers)
;
#X obj 729 329 t b f b;
#X msg 704 366 1;
#X msg 749 367 0;
#X obj 711 642 unpack f f f f;
#X obj 764 530 spigot 0;
#X msg 762 389 1;
#X msg 712 391 0;
#X obj 174 338 t f f;
#X obj 218 341 t f f;
#N canvas 1 77 612 481 map_bangs_to_nr_0_15_and_one_bang 0;
#X obj -51 65 inlet;
#X obj -6 65 inlet;
#X obj 37 65 inlet;
#X obj 82 65 inlet;
#X msg 50 158 0;
#X msg 80 158 1;
#X msg 109 157 2;
#X msg 140 158 3;
#X msg 170 158 4;
#X msg 200 158 5;
#X msg 229 157 6;
#X msg 260 158 7;
#X msg 291 158 8;
#X msg 321 158 9;
#X msg 350 157 10;
#X msg 381 158 11;
#X msg 411 158 12;
#X msg 441 158 13;
#X msg 470 157 14;
#X msg 505 156 15;
#X obj 144 314 t b f;
#X obj 191 358 outlet;
#X obj 135 357 outlet;
#X obj 132 65 inlet;
#X obj 177 65 inlet;
#X obj 220 65 inlet;
#X obj 265 65 inlet;
#X obj 310 66 inlet;
#X obj 355 66 inlet;
#X obj 398 66 inlet;
#X obj 443 66 inlet;
#X obj 493 66 inlet;
#X obj 538 66 inlet;
#X obj 581 66 inlet;
#X obj 626 66 inlet;
#X connect 0 0 4 0;
#X connect 1 0 5 0;
#X connect 2 0 6 0;
#X connect 3 0 7 0;
#X connect 4 0 20 0;
#X connect 5 0 20 0;
#X connect 6 0 20 0;
#X connect 7 0 20 0;
#X connect 8 0 20 0;
#X connect 9 0 20 0;
#X connect 10 0 20 0;
#X connect 11 0 20 0;
#X connect 12 0 20 0;
#X connect 13 0 20 0;
#X connect 14 0 20 0;
#X connect 15 0 20 0;
#X connect 16 0 20 0;
#X connect 17 0 20 0;
#X connect 18 0 20 0;
#X connect 19 0 20 0;
#X connect 20 0 22 0;
#X connect 20 1 21 0;
#X connect 23 0 8 0;
#X connect 24 0 9 0;
#X connect 25 0 10 0;
#X connect 26 0 11 0;
#X connect 27 0 12 0;
#X connect 28 0 13 0;
#X connect 29 0 14 0;
#X connect 30 0 15 0;
#X connect 31 0 16 0;
#X connect 32 0 17 0;
#X connect 33 0 18 0;
#X connect 34 0 19 0;
#X restore -161 77 pd map_bangs_to_nr_0_15_and_one_bang;
#X obj 359 -53 int;
#X obj 258 -12 t b;
#X obj 312 -29 delay 20;
#X obj 262 224 -;
#X obj 232 173 t b f;
#X msg 236 199 1;
#X obj 299 266 *;
#X obj 314 238 t b f;
#X obj 152 411 * 5000;
#X obj 209 403 * 5000;
#X msg 568 -115 color 0;
#X obj 489 -91 route 0 1 2 3 4 5 6 7 8 9 10 11 12 13 14 15;
#X obj 506 -162 t f b;
#X msg 487 -117 \$1 color 1;
#X obj 360 -277 loadbang;
#X obj 214 -123 change;
#X obj 217 -91 spigot;
#X msg 237 -59 \$1 bang;
#X obj 436 103 tgl 13 1 empty empty e 3 6 0 10 -262144 -1 -1 0 1;
#X obj 420 103 bng 13 250 50 0 empty empty i 5 8 0 10 -260097 -1 -1
;
#X obj -81 -48 stripnote;
#X obj 17 -125 inlet;
#X obj -46 -123 inlet;
#X text -16 -144 midinote;
#X text -208 -98 nr in (0..15);
#X obj -171 -10 select 0 1 2 3 4 5 6 7 8 9 10 11 12 13 14 15;
#X msg -191 189 1;
#X obj -154 269 f;
#X obj 180 642 pack f f f f;
#X obj 10 -97 / 128;
#X msg 182 676 \$4 \$2 \, 0 \$3 \$1;
#X obj -156 141 t b b;
#X obj -207 -35 t f b;
#X connect 0 0 166 0;
#X connect 3 0 5 0;
#X connect 3 0 42 0;
#X connect 3 0 62 0;
#X connect 5 0 8 0;
#X connect 8 0 42 0;
#X connect 8 0 62 0;
#X connect 10 0 22 0;
#X connect 10 0 23 0;
#X connect 11 0 22 3;
#X connect 11 0 24 0;
#X connect 13 0 14 0;
#X connect 13 0 16 0;
#X connect 14 0 12 0;
#X connect 15 0 45 0;
#X connect 16 0 18 0;
#X connect 20 0 22 0;
#X connect 20 0 33 0;
#X connect 21 0 22 1;
#X connect 22 0 11 0;
#X connect 24 0 31 0;
#X connect 24 1 51 0;
#X connect 24 1 63 0;
#X connect 25 0 23 0;
#X connect 25 0 33 0;
#X connect 26 0 23 0;
#X connect 26 0 33 0;
#X connect 27 0 28 0;
#X connect 28 0 29 0;
#X connect 29 0 45 0;
#X connect 30 0 29 1;
#X connect 31 0 27 1;
#X connect 31 0 32 0;
#X connect 31 1 25 0;
#X connect 32 0 5 0;
#X connect 32 0 42 0;
#X connect 34 0 8 0;
#X connect 34 0 30 0;
#X connect 34 0 37 4;
#X connect 34 0 61 4;
#X connect 35 0 55 0;
#X connect 35 0 113 0;
#X connect 36 0 35 0;
#X connect 36 0 23 0;
#X connect 37 2 15 2;
#X connect 37 2 39 0;
#X connect 37 2 16 1;
#X connect 37 2 9 0;
#X connect 37 2 48 1;
#X connect 37 2 53 3;
#X connect 38 0 56 0;
#X connect 38 0 112 0;
#X connect 39 0 38 0;
#X connect 39 0 33 0;
#X connect 40 0 22 2;
#X connect 41 0 42 1;
#X connect 41 0 43 0;
#X connect 41 0 117 1;
#X connect 41 0 135 0;
#X connect 43 0 44 0;
#X connect 43 0 138 0;
#X connect 44 0 46 1;
#X connect 45 0 44 1;
#X connect 45 0 42 3;
#X connect 45 0 53 1;
#X connect 45 0 65 1;
#X connect 46 0 35 0;
#X connect 46 0 38 0;
#X connect 47 0 50 0;
#X connect 48 0 49 0;
#X connect 51 0 26 0;
#X connect 51 1 27 0;
#X connect 51 2 47 0;
#X connect 51 2 48 0;
#X connect 52 0 53 0;
#X connect 54 0 57 0;
#X connect 55 0 1 0;
#X connect 56 0 2 0;
#X connect 57 0 59 0;
#X connect 58 0 71 1;
#X connect 59 0 58 0;
#X connect 60 0 42 2;
#X connect 60 0 66 0;
#X connect 60 0 120 1;
#X connect 60 0 135 0;
#X connect 61 2 36 0;
#X connect 61 2 15 1;
#X connect 61 2 14 1;
#X connect 61 2 17 0;
#X connect 61 2 42 4;
#X connect 61 2 47 1;
#X connect 61 2 53 2;
#X connect 62 0 15 0;
#X connect 62 1 47 0;
#X connect 62 1 48 0;
#X connect 62 1 63 0;
#X connect 63 0 35 0;
#X connect 63 0 38 0;
#X connect 65 0 67 0;
#X connect 66 0 141 0;
#X connect 67 0 70 0;
#X connect 68 0 67 1;
#X connect 69 0 68 0;
#X connect 70 0 73 1;
#X connect 71 0 55 1;
#X connect 71 0 56 1;
#X connect 72 0 71 0;
#X connect 73 0 162 0;
#X connect 74 0 134 1;
#X connect 74 0 116 2;
#X connect 74 0 146 0;
#X connect 75 0 76 0;
#X connect 76 0 74 0;
#X connect 77 0 80 0;
#X connect 78 0 81 0;
#X connect 79 0 82 0;
#X connect 80 0 74 0;
#X connect 81 0 74 0;
#X connect 82 0 74 0;
#X connect 83 0 87 0;
#X connect 84 0 88 0;
#X connect 85 0 89 0;
#X connect 86 0 90 0;
#X connect 87 0 74 0;
#X connect 88 0 74 0;
#X connect 89 0 74 0;
#X connect 90 0 74 0;
#X connect 91 0 99 0;
#X connect 92 0 100 0;
#X connect 93 0 101 0;
#X connect 94 0 102 0;
#X connect 95 0 103 0;
#X connect 96 0 104 0;
#X connect 97 0 105 0;
#X connect 98 0 106 0;
#X connect 99 0 74 0;
#X connect 100 0 74 0;
#X connect 101 0 74 0;
#X connect 102 0 74 0;
#X connect 103 0 74 0;
#X connect 104 0 74 0;
#X connect 105 0 74 0;
#X connect 106 0 74 0;
#X connect 107 0 120 2;
#X connect 107 0 131 0;
#X connect 107 0 135 0;
#X connect 108 0 120 3;
#X connect 108 0 132 0;
#X connect 108 0 135 0;
#X connect 109 0 142 0;
#X connect 110 0 143 0;
#X connect 111 0 114 0;
#X connect 112 0 111 0;
#X connect 113 0 56 0;
#X connect 114 0 113 1;
#X connect 116 0 121 0;
#X connect 116 0 128 0;
#X connect 117 0 120 0;
#X connect 118 0 116 1;
#X connect 118 1 117 0;
#X connect 119 0 41 0;
#X connect 119 1 60 0;
#X connect 119 2 107 0;
#X connect 119 3 108 0;
#X connect 120 0 116 0;
#X connect 121 0 119 0;
#X connect 122 0 133 0;
#X connect 122 1 133 1;
#X connect 122 2 133 2;
#X connect 122 3 133 3;
#X connect 122 4 133 4;
#X connect 122 5 133 5;
#X connect 122 6 133 6;
#X connect 122 7 133 7;
#X connect 122 8 133 8;
#X connect 122 9 133 9;
#X connect 122 10 133 10;
#X connect 122 11 133 11;
#X connect 124 0 125 0;
#X connect 124 0 130 0;
#X connect 124 1 116 2;
#X connect 124 2 126 0;
#X connect 124 2 129 0;
#X connect 125 0 121 1;
#X connect 126 0 121 1;
#X connect 127 0 43 0;
#X connect 127 1 66 0;
#X connect 127 2 131 0;
#X connect 127 3 132 0;
#X connect 128 0 127 0;
#X connect 129 0 128 1;
#X connect 130 0 128 1;
#X connect 131 0 109 0;
#X connect 131 1 109 1;
#X connect 132 0 110 0;
#X connect 132 1 110 1;
#X connect 133 0 165 0;
#X connect 133 1 124 0;
#X connect 133 1 149 0;
#X connect 134 0 118 0;
#X connect 135 0 136 0;
#X connect 136 0 134 0;
#X connect 137 0 140 0;
#X connect 138 0 139 0;
#X connect 138 1 137 1;
#X connect 139 0 137 0;
#X connect 140 0 65 0;
#X connect 141 0 140 0;
#X connect 141 1 140 1;
#X connect 142 0 162 1;
#X connect 143 0 162 2;
#X connect 144 0 75 0;
#X connect 144 0 77 0;
#X connect 144 0 78 0;
#X connect 144 0 79 0;
#X connect 144 0 83 0;
#X connect 144 0 84 0;
#X connect 144 0 85 0;
#X connect 144 0 86 0;
#X connect 144 0 91 0;
#X connect 144 0 92 0;
#X connect 144 0 93 0;
#X connect 144 0 94 0;
#X connect 144 0 95 0;
#X connect 144 0 96 0;
#X connect 144 0 97 0;
#X connect 144 0 98 0;
#X connect 145 0 75 0;
#X connect 145 1 77 0;
#X connect 145 2 78 0;
#X connect 145 3 79 0;
#X connect 145 4 83 0;
#X connect 145 5 84 0;
#X connect 145 6 85 0;
#X connect 145 7 86 0;
#X connect 145 8 91 0;
#X connect 145 9 92 0;
#X connect 145 10 93 0;
#X connect 145 11 94 0;
#X connect 145 12 95 0;
#X connect 145 13 96 0;
#X connect 145 14 97 0;
#X connect 145 15 98 0;
#X connect 146 0 147 0;
#X connect 146 1 144 0;
#X connect 147 0 145 0;
#X connect 148 0 76 0;
#X connect 149 0 150 0;
#X connect 150 0 151 0;
#X connect 151 0 145 0;
#X connect 152 0 150 1;
#X connect 154 0 122 0;
#X connect 154 1 161 1;
#X connect 155 0 163 0;
#X connect 156 0 154 0;
#X connect 159 0 133 0;
#X connect 159 1 133 1;
#X connect 159 2 133 2;
#X connect 159 3 133 3;
#X connect 159 4 133 4;
#X connect 159 5 133 5;
#X connect 159 6 133 6;
#X connect 159 7 133 7;
#X connect 159 8 133 8;
#X connect 159 9 133 9;
#X connect 159 10 133 10;
#X connect 159 11 133 11;
#X connect 159 12 133 12;
#X connect 159 13 133 13;
#X connect 159 14 133 14;
#X connect 159 15 133 15;
#X connect 160 0 161 1;
#X connect 161 0 162 3;
#X connect 162 0 164 0;
#X connect 163 0 154 1;
#X connect 164 0 72 0;
#X connect 165 0 46 0;
#X connect 165 0 73 0;
#X connect 165 1 161 0;
#X connect 166 0 159 0;
#X connect 166 1 160 0;
#X coords 0 -1 1 1 645 60 1 100 100;
#X restore 62 148 pd cuts;
#X msg 36 72 0;
#X msg 74 72 1;
#X msg 103 75 2;
#X connect 0 1 3 5;
#X connect 2 0 3 1;
#X connect 2 1 3 2;
#X connect 3 0 1 0;
#X connect 3 1 1 1;
#X connect 4 0 3 0;
#X connect 5 0 3 0;
#X connect 6 0 3 0;
