#N canvas 365 91 633 465 10;
#X obj 43 387 dac~;
#X obj 51 352 *~ 0.5;
#N canvas 837 172 692 434 sampler1 0;
#X obj 46 380 outlet~;
#X obj 59 40 inlet~;
#X obj 137 46 inlet;
#X obj 13 40 inlet;
#X obj 279 55 inlet;
#X obj 349 45 inlet;
#X text 63 21 audioin;
#X text 352 16 playtrig;
#X text 0 20 rectrig;
#X text 284 28 tp (semi);
#X obj 288 181 samplerate~;
#X obj 192 103 nbx 4 14 0.01 42 0 1 empty empty empty 0 -8 0 10 -262144
-1 -1 1 256;
#X obj 265 208 *;
#X obj 316 126 loadbang;
#X obj 184 337 pack f f;
#X msg 182 361 \; \$1sampletable resize \$2;
#X obj 187 309 int;
#X obj 194 287 delay 100;
#X obj 261 243 t b f;
#X obj 47 354 abs_sampler1;
#X obj 173 102 bng 15 250 50 0 empty empty empty 17 7 0 10 -258113
-1 -1;
#X obj 107 121 hsl 128 15 0 1 0 1 empty empty empty -2 -8 0 10 -262144
-1 -1 0 1;
#X obj 100 328 *;
#X text 133 28 startpoint (0..1);
#X connect 1 0 19 2;
#X connect 2 0 21 0;
#X connect 3 0 20 0;
#X connect 4 0 19 4;
#X connect 5 0 19 5;
#X connect 10 0 12 1;
#X connect 11 0 12 0;
#X connect 12 0 18 0;
#X connect 12 0 19 0;
#X connect 13 0 10 0;
#X connect 14 0 15 0;
#X connect 16 0 14 0;
#X connect 17 0 16 0;
#X connect 18 0 17 0;
#X connect 18 0 22 0;
#X connect 18 1 14 1;
#X connect 18 1 22 1;
#X connect 19 0 0 0;
#X connect 19 1 16 1;
#X connect 20 0 19 1;
#X connect 21 0 22 0;
#X connect 22 0 19 3;
#X coords 0 -1 1 1 140 40 1 100 100;
#X restore 74 262 pd sampler1;
#X obj 220 133 moses 0.1;
#X obj 206 102 notein;
#X obj 189 226 - 60;
#X obj 281 176 t b f;
#X obj 134 232 / 100;
#X floatatom 137 204 5 0 0 0 - - -, f 5;
#X obj 46 228 bng 15 250 50 0 empty empty empty 17 7 0 10 -262144 -1
-1;
#X obj 66 159 adc~;
#X text 18 47 simple sampler/player;
#X text 3 208 trigger rec;
#X text 115 179 startpoint (percent);
#X text 197 198 tp;
#X text 227 246 trigger playback;
#X connect 1 0 0 0;
#X connect 1 0 0 1;
#X connect 2 0 1 0;
#X connect 3 1 6 0;
#X connect 4 0 3 0;
#X connect 5 0 2 3;
#X connect 6 0 2 4;
#X connect 6 1 5 0;
#X connect 7 0 2 2;
#X connect 8 0 7 0;
#X connect 9 0 2 0;
#X connect 10 0 2 1;
#X connect 10 1 2 1;
