#N canvas 179 155 1364 704 10;
#N canvas 763 77 753 859 samplebrowser 0;
#X obj 279 -21 loadbang;
#X msg 32 10 location /home/mnb/samplelib;
#X msg 13 -19 location /home/mnb/wave_wrk;
#X msg 10 170 location ..;
#X msg 78 32 location /home/mnb/archiv/sounds;
#X msg 129 59 location /home/mnb/sound_recordings;
#X obj 461 737 outlet;
#X obj 103 119 bng 15 250 50 0 empty empty A 5 8 0 10 -262144 -1 -1
;
#X obj 133 119 bng 15 250 50 0 empty empty empty 17 7 0 10 -262144
-1 -1;
#X obj 153 119 bng 15 250 50 0 empty empty empty 17 7 0 10 -262144
-1 -1;
#X obj 173 119 bng 15 250 50 0 empty empty empty 17 7 0 10 -262144
-1 -1;
#X obj 193 119 bng 15 250 50 0 empty empty empty 17 7 0 10 -262144
-1 -1;
#X msg -9 69 graphics 1;
#X obj 102 157 playlist all 310 390 {Helvetica 13 normal} white grey
black red;
#X msg 174 723 open \$1;
#X msg 137 721 1;
#X obj 125 682 delay 1;
#X obj 161 654 t b a;
#X obj 148 753 readsf~;
#X obj 171 618 spigot;
#X obj 402 614 spigot;
#X msg 241 724 0;
#X obj 378 120 hradio 15 1 1 2 empty empty empty 0 -8 0 10 -262144
-1 -1 0;
#X obj 422 557 != 1;
#X obj 208 591 == 1;
#X obj 95 831 outlet~;
#X obj 332 662 select 1;
#X connect 0 0 12 0;
#X connect 0 0 2 0;
#X connect 1 0 13 0;
#X connect 2 0 13 0;
#X connect 3 0 13 0;
#X connect 4 0 13 0;
#X connect 5 0 13 0;
#X connect 7 0 3 0;
#X connect 8 0 2 0;
#X connect 9 0 4 0;
#X connect 10 0 1 0;
#X connect 11 0 5 0;
#X connect 12 0 13 0;
#X connect 13 0 19 0;
#X connect 13 0 20 0;
#X connect 14 0 18 0;
#X connect 15 0 18 0;
#X connect 16 0 15 0;
#X connect 17 0 16 0;
#X connect 17 1 14 0;
#X connect 18 0 25 0;
#X connect 19 0 17 0;
#X connect 20 0 6 0;
#X connect 21 0 18 0;
#X connect 22 0 23 0;
#X connect 22 0 24 0;
#X connect 22 0 26 0;
#X connect 23 0 20 1;
#X connect 24 0 19 1;
#X connect 26 0 21 0;
#X coords 0 -1 1 1 314 450 1 100 100;
#X restore 530 44 pd samplebrowser;
#N canvas 511 323 1042 672 player 0;
#X obj 28 808 outlet~;
#X obj 314 806 outlet~;
#X msg 176 263 open \$1;
#X msg 139 261 1;
#X obj 253 23 inlet;
#X text 253 4 filename;
#X symbolatom 101 120 24 0 0 0 - - -, f 24;
#X obj 284 119 bng 15 250 50 0 empty empty empty 17 7 0 10 -262144
-1 -262144;
#X obj 180 293 readsf~ 2;
#X obj 58 27 inlet;
#X msg 256 222 color 1;
#X msg 256 253 color 0;
#X obj 163 194 t b a b;
#X obj 139 52 splitfilename;
#X obj 163 168 symbol;
#X obj 372 72 loadbang;
#X obj 361 216 spigot;
#X obj 155 364 == 0;
#X obj 155 339 env~ 16384 8192;
#X obj 140 417 *~;
#X obj 155 388 lop~ 1;
#X text 195 364 maybe a mono sample;
#X obj 284 102 tgl 15 1 empty empty empty 17 7 0 10 -262144 -1 -1 1
1;
#X obj 127 222 delay 1;
#X obj 217 101 hsl 64 8 0 1 0 1 empty empty lp -2 5 0 10 -262144 -1
-1 6300 1;
#X obj 217 110 hsl 64 8 0 1 0 1 empty empty hp -2 5 0 10 -262144 -1
-1 0 1;
#X obj 435 425 *;
#X obj 438 400 t f f;
#X obj 382 420 *;
#X obj 385 395 t f f;
#X obj 201 103 tgl 12 1 empty empty fl 0 7 0 10 -262144 -1 -128992
0 1;
#X obj 221 746 lop~;
#X obj 224 770 hip~;
#X obj 369 483 * 20000;
#X obj 367 505 + 20;
#X obj 421 491 * 20000;
#X obj 419 513 + 20;
#X obj 274 745 lop~;
#X obj 277 769 hip~;
#N canvas 267 214 774 561 drywet 0;
#X obj 174 270 inlet~;
#X obj 118 481 outlet~;
#X obj 212 409 *~;
#X obj 123 403 *~;
#X obj 117 357 * -1;
#X obj 117 381 + 1;
#X obj 217 477 outlet~;
#X obj 259 263 clip 0 1;
#X obj 273 221 inlet;
#X connect 0 0 3 1;
#X connect 0 0 2 0;
#X connect 2 0 6 0;
#X connect 3 0 1 0;
#X connect 4 0 5 0;
#X connect 5 0 3 0;
#X connect 7 0 4 0;
#X connect 7 0 2 1;
#X connect 8 0 7 0;
#X restore 147 703 pd drywet;
#N canvas 267 214 774 561 drywet 0;
#X obj 174 270 inlet~;
#X obj 118 481 outlet~;
#X obj 212 409 *~;
#X obj 123 403 *~;
#X obj 117 357 * -1;
#X obj 117 381 + 1;
#X obj 217 477 outlet~;
#X obj 259 263 clip 0 1;
#X obj 273 221 inlet;
#X connect 0 0 3 1;
#X connect 0 0 2 0;
#X connect 2 0 6 0;
#X connect 3 0 1 0;
#X connect 4 0 5 0;
#X connect 5 0 3 0;
#X connect 7 0 4 0;
#X connect 7 0 2 1;
#X connect 8 0 7 0;
#X restore 224 694 pd drywet;
#X obj 425 460 *;
#X obj 378 454 *;
#X obj 338 624 line;
#X obj 344 656 line;
#X msg 361 583 \$1 50;
#X msg 395 607 \$1 50;
#X obj 605 782 outlet;
#X msg 316 570 100;
#X text 344 565 <--window (msec);
#X text -66 662 PITCH SHIFTER from pd doc;
#X obj 210 657 abs_pitchshift1;
#X obj 90 660 abs_pitchshift1;
#N canvas 267 214 774 561 drywet 0;
#X obj 174 270 inlet~;
#X obj 118 481 outlet~;
#X obj 212 409 *~;
#X obj 123 403 *~;
#X obj 117 357 * -1;
#X obj 117 381 + 1;
#X obj 217 477 outlet~;
#X obj 259 263 clip 0 1;
#X obj 273 221 inlet;
#X connect 0 0 3 1;
#X connect 0 0 2 0;
#X connect 2 0 6 0;
#X connect 3 0 1 0;
#X connect 4 0 5 0;
#X connect 5 0 3 0;
#X connect 7 0 4 0;
#X connect 7 0 2 1;
#X connect 8 0 7 0;
#X restore 131 597 pd drywet;
#N canvas 267 214 774 561 drywet 0;
#X obj 174 270 inlet~;
#X obj 118 481 outlet~;
#X obj 212 409 *~;
#X obj 123 403 *~;
#X obj 117 357 * -1;
#X obj 117 381 + 1;
#X obj 217 477 outlet~;
#X obj 259 263 clip 0 1;
#X obj 273 221 inlet;
#X connect 0 0 3 1;
#X connect 0 0 2 0;
#X connect 2 0 6 0;
#X connect 3 0 1 0;
#X connect 4 0 5 0;
#X connect 5 0 3 0;
#X connect 7 0 4 0;
#X connect 7 0 2 1;
#X connect 8 0 7 0;
#X restore 218 597 pd drywet;
#X obj 248 120 nbx 3 14 -48 48 0 1 empty empty empty 0 -8 0 10 -262144
-1 -1 0 256;
#X obj 277 332 == 0;
#X obj 199 4 inlet;
#X text 202 -16 tp;
#X obj 187 103 tgl 12 1 empty empty tp 0 7 0 9 -262144 -1 -128992 0
1;
#X obj 396 151 spigot;
#X obj 413 293 +;
#X obj 421 250 t b f;
#X obj 290 395 == 0;
#N canvas 1 77 450 300 filenametolist 0;
#X obj 60 106 list fromsymbol;
#X obj 55 58 inlet;
#X text 56 33 filname;
#X obj 79 251 outlet;
#X obj 74 159 list prepend set;
#X obj 89 216 route list;
#X connect 0 0 4 0;
#X connect 1 0 0 0;
#X connect 4 0 5 0;
#X connect 5 0 3 0;
#X restore 463 66 pd filenametolist;
#X obj 473 226 list tosymbol;
#X msg 474 124;
#X connect 2 0 8 0;
#X connect 3 0 8 0;
#X connect 4 0 13 0;
#X connect 4 0 14 0;
#X connect 4 0 64 0;
#X connect 7 0 14 0;
#X connect 8 0 19 0;
#X connect 8 0 53 0;
#X connect 8 1 18 0;
#X connect 8 1 54 0;
#X connect 8 2 11 0;
#X connect 8 2 16 0;
#X connect 9 0 7 0;
#X connect 10 0 7 0;
#X connect 11 0 7 0;
#X connect 12 0 23 0;
#X connect 12 1 2 0;
#X connect 12 2 10 0;
#X connect 13 1 6 0;
#X connect 14 0 12 0;
#X connect 15 0 11 0;
#X connect 15 0 48 0;
#X connect 15 0 66 0;
#X connect 16 0 7 0;
#X connect 16 0 47 0;
#X connect 17 0 20 0;
#X connect 18 0 17 0;
#X connect 19 0 54 0;
#X connect 20 0 19 1;
#X connect 22 0 16 1;
#X connect 23 0 3 0;
#X connect 24 0 27 0;
#X connect 25 0 29 0;
#X connect 26 0 41 1;
#X connect 26 0 41 0;
#X connect 27 0 26 0;
#X connect 27 1 26 1;
#X connect 28 0 42 1;
#X connect 28 0 42 0;
#X connect 29 0 28 0;
#X connect 29 1 28 1;
#X connect 30 0 39 1;
#X connect 30 0 40 1;
#X connect 31 0 32 0;
#X connect 32 0 0 0;
#X connect 33 0 34 0;
#X connect 34 0 46 0;
#X connect 35 0 36 0;
#X connect 36 0 45 0;
#X connect 37 0 38 0;
#X connect 38 0 1 0;
#X connect 39 0 0 0;
#X connect 39 1 31 0;
#X connect 40 0 1 0;
#X connect 40 1 37 0;
#X connect 41 0 35 0;
#X connect 42 0 33 0;
#X connect 43 0 37 1;
#X connect 43 0 31 1;
#X connect 44 0 38 1;
#X connect 44 0 32 1;
#X connect 45 0 43 0;
#X connect 46 0 44 0;
#X connect 48 0 51 2;
#X connect 48 0 52 2;
#X connect 51 0 40 0;
#X connect 52 0 39 0;
#X connect 53 0 52 0;
#X connect 53 1 39 0;
#X connect 54 0 51 0;
#X connect 54 1 40 0;
#X connect 55 0 61 0;
#X connect 56 0 53 1;
#X connect 56 0 54 1;
#X connect 56 0 63 0;
#X connect 57 0 60 0;
#X connect 59 0 60 1;
#X connect 60 0 62 0;
#X connect 61 0 56 0;
#X connect 61 0 51 1;
#X connect 61 0 52 1;
#X connect 62 0 61 0;
#X connect 62 1 61 1;
#X connect 63 0 51 3;
#X connect 63 0 52 3;
#X connect 64 0 66 0;
#X connect 65 0 14 0;
#X connect 65 0 13 0;
#X connect 66 0 65 0;
#X coords 0 -1 1 1 200 35 1 100 100;
#X restore 89 560 pd player;
#X obj 110 632 dac~;
#X text 57 413 diskstreaming sampleplayer with filter and pitchshifter
;
#X connect 0 1 1 2;
#X connect 1 0 2 0;
#X connect 1 1 2 1;
