#N canvas 597 198 753 459 10;
#X obj 39 345 dac~;
#X obj 268 -14 loadbang;
#X obj 285 125 playlist all 400 205 {Helvetica 10 bold} white yellow
black red;
#X msg 272 12 location /home/mnb/samplelib;
#X msg 282 63 location /home/mnb/wave_wrk;
#X msg 316 84 location ..;
#X msg 283 39 location /home/mnb/archiv/sounds;
#X msg -27 165 bang;
#X obj 93 138 > 0;
#X obj 50 289 *~;
#X obj 155 117 tgl 15 1 empty empty empty 17 7 0 10 -262144 -1 -1 0
1;
#X obj 97 165 ||;
#X obj 132 138 t b f;
#N canvas 392 378 1073 626 samplelooper2 0;
#X obj 105 118 hsl 280 15 0 1 0 1 empty empty pos 2 8 0 10 -262144
-1 -1 436 0;
#X obj 143 480 abs_samplelooper1;
#X msg 78 179 bang;
#X obj 167 505 outlet~;
#X obj -3 60 inlet;
#X obj 523 109 inlet;
#X obj 265 257 openpanel;
#X obj 200 104 bng 12 250 50 0 empty empty > 4 7 1 8 -204786 -1 -1
;
#X msg 337 337 set symbol \$1;
#X msg 315 375 symbol /home/mnb/archiv/sounds/06_12/gssugarc.wav;
#X text 529 88 filename;
#X symbolatom 217 103 28 0 0 0 - - -, f 28;
#X text -5 43 sync;
#X obj 82 -162 inlet;
#X obj 82 -141 / 128;
#X obj 153 -162 inlet;
#X obj 153 -141 / 128;
#X obj 196 -163 inlet;
#X text 84 -176 start;
#X text 156 -176 len;
#X text 195 -180 tp;
#X obj 278 136 nbx 5 14 -36 36 0 1 empty empty tp -13 8 0 10 -262144
-1 -1 0 256;
#X obj 196 -142 clip -36 36;
#X obj 337 135 hsl 48 15 0 1 0 1 empty empty smooth 2 8 0 10 -262144
-1 -1 0 1;
#X msg 3 347 1.05946;
#X obj 15 376 pow;
#X obj 29 318 t b f;
#X text 82 399 2 pitch factor;
#X obj 29 296 * -1;
#X obj -9 402 clip 0.0625 8;
#X obj 276 476 soundfiler;
#X obj 431 425 pack s s;
#X msg 388 448 read -resize \$1 \$2;
#X obj 457 397 t b a;
#X obj 306 300 t b a;
#X obj 366 -173 inlet;
#X text 363 -189 bpm;
#X obj 343 -123 pow -1;
#X obj 343 -98 / 4;
#X obj 386 -73 samplerate~;
#X obj 342 -49 *;
#X obj 343 -75 * 60;
#X obj 364 -152 t f b;
#X text 377 -42 1/16 in samples;
#X obj 329 -23 /;
#X obj 406 105 *;
#X obj 419 60 t b f;
#X obj 340 14 t b f;
#X msg 329 42 1;
#X obj 347 68 /;
#X obj 114 136 nbx 4 14 0 16 0 1 empty empty ln -13 7 0 10 -262144
-1 -1 0.75 256;
#X obj 227 136 nbx 3 14 1 100 0 1 empty empty qt -13 7 0 10 -262144
-1 -1 25 256;
#X obj 174 136 nbx 3 14 1 16 0 1 empty empty rg -13 7 0 10 -262144
-1 -1 2 256;
#X obj 153 -109 *;
#X obj 72 281 moses 10;
#X obj 151 -61 int;
#X obj 240 -48 / 100;
#X obj 151 -80 /;
#X obj 154 -14 *;
#X obj 152 -39 + 1;
#X text 183 -99 range;
#X text 243 -28 quantize;
#X obj 571 221 loadbang;
#X floatatom 402 155 5 0 0 0 - - -, f 5;
#X obj 193 281 float;
#X obj 39 229 metro 100;
#X connect 0 0 1 1;
#X connect 1 0 3 0;
#X connect 1 1 33 0;
#X connect 1 2 54 0;
#X connect 1 3 2 0;
#X connect 2 0 64 0;
#X connect 2 0 65 0;
#X connect 4 0 2 0;
#X connect 5 0 34 0;
#X connect 6 0 34 0;
#X connect 7 0 6 0;
#X connect 8 0 9 0;
#X connect 9 0 11 0;
#X connect 9 0 31 0;
#X connect 13 0 14 0;
#X connect 14 0 0 0;
#X connect 15 0 16 0;
#X connect 16 0 53 0;
#X connect 17 0 22 0;
#X connect 21 0 28 0;
#X connect 22 0 21 0;
#X connect 23 0 1 4;
#X connect 24 0 25 0;
#X connect 25 0 29 0;
#X connect 26 0 24 0;
#X connect 26 1 25 1;
#X connect 28 0 26 0;
#X connect 29 0 1 3;
#X connect 30 0 1 5;
#X connect 30 0 64 1;
#X connect 31 0 32 0;
#X connect 32 0 30 0;
#X connect 33 0 9 0;
#X connect 33 1 31 1;
#X connect 34 0 9 0;
#X connect 34 1 8 0;
#X connect 35 0 42 0;
#X connect 37 0 38 0;
#X connect 38 0 41 0;
#X connect 39 0 40 1;
#X connect 40 0 44 1;
#X connect 41 0 40 0;
#X connect 42 0 37 0;
#X connect 42 1 39 0;
#X connect 44 0 47 0;
#X connect 45 0 1 2;
#X connect 45 0 63 0;
#X connect 46 0 45 0;
#X connect 46 1 45 1;
#X connect 47 0 48 0;
#X connect 47 1 49 1;
#X connect 48 0 49 0;
#X connect 49 0 45 0;
#X connect 50 0 46 0;
#X connect 51 0 56 0;
#X connect 52 0 53 1;
#X connect 53 0 57 0;
#X connect 54 1 65 1;
#X connect 55 0 59 0;
#X connect 56 0 57 1;
#X connect 56 0 58 1;
#X connect 57 0 55 0;
#X connect 58 0 50 0;
#X connect 59 0 58 0;
#X connect 62 0 9 0;
#X connect 64 0 44 0;
#X connect 65 0 1 0;
#X coords 0 -1 1 1 290 55 1 100 100;
#X restore -27 197 pd samplelooper2;
#X msg 205 78 120;
#X text -40 -16 samplelooper with variable length and looppoint;
#X text -3 12 nanopad-x;
#X text 58 12 nanopad-y;
#X obj 120 28 ctlin 83;
#X text 118 12 nanopad-on;
#N canvas 31 174 1849 827 qr3xyz 0;
#X obj 92 12 inlet;
#X msg 226 300 set;
#X msg 36 55 tempo 1;
#X msg 206 351 clear;
#X obj 219 229 t b b;
#X msg 244 268 0;
#X obj 189 193 spigot;
#X obj 141 113 tgl 15 0 empty empty empty 17 7 0 10 -258113 -1 -1 0
1;
#X obj 33 29 loadbang;
#X obj -87 233 t b b;
#X msg -43 272 1;
#X msg -5 275 0;
#X obj -83 345 spigot 1;
#X text 95 -7 trig;
#X obj 103 113 bng 15 250 50 0 empty empty empty 17 7 0 10 -262144
-1 -1;
#X obj 448 45 inlet;
#X msg 508 410 addcomma;
#X obj 460 439 t b a;
#X obj 445 327 timer;
#X obj 434 357 int;
#X obj 668 272 moses 0.1;
#X msg 658 291 0;
#X msg 219 159 0;
#X obj 457 99 t b b f b b;
#X obj 376 683 outlet;
#X obj 449 386 pack f f;
#X msg 489 468 add2 \$1 \$2;
#X obj 937 90 inlet;
#X msg 1025 445 addcomma;
#X obj 971 480 t b a;
#X obj 964 361 timer;
#X obj 945 405 int;
#X obj 1165 325 moses 0.1;
#X msg 1160 353 0;
#X obj 954 436 pack f f;
#X obj 929 686 outlet;
#X obj 961 192 t b b f b;
#X obj 903 544 abs_qlistrec3v;
#X msg 999 510 add2 \$1 \$2;
#X msg 504 523 0 4 \, 46 19 \, 37 18 \, 8 30 \, 7 31 \, 8 32 \, 11
33 \, 15 34 \, 24 45 \, 8 46 \, 10 47 \, 46 61 \, 8 62 \, 10 63 \,
17 67 \, 10 69 \, 8 70 \, 8 71 \, 7 72 \, 11 77 \, 8 78 \, 43 82 \,
10 84 \, 8 85 \, 8 86 \, 10 87 \, 8 88 \, 15 91 \, 39 90 \, 233 88
\, 11 87 \, 24 86 \, 27 85 \, 18 83 \, 15 78 \, 11 77 \, 8 76 \, 18
77 \, 8 78 \, 15 77 \, 258 43 \, 44 39 \, 236 40 \, 11 39 \, 7 38 \,
17 37 \, 11 34 \, 7 33 \, 223 101 \, 7 99 \, 8 89 \, 136 68 \, 7 67
\, 8 65 \, 11 63 \, 15 62 \, 264 29 \, 18 28 \, 18 27 \, 8 26 \, 7
25 \, 18 23 \, 8 19 \, 8 18 \,;
#X obj 289 554 abs_qlistrec3v;
#X text 936 71 ctl2;
#X text 453 27 ctl;
#X msg 1018 574 46 35 \, 27 36 \, 10 35 \, 8 45 \, 7 46 \, 60 55 \,
18 54 \, 46 57 \, 71 56 \, 20 51 \, 26 49 \, 8 47 \, 8 45 \, 74 44
\, 27 43 \, 233 67 \, 11 68 \, 24 67 \, 18 68 \, 8 69 \, 74 74 \, 8
75 \, 7 76 \, 8 79 \, 258 73 \, 8 74 \, 18 75 \, 253 40 \, 18 39 \,
8 38 \, 8 35 \, 18 34 \, 223 19 \, 7 20 \, 8 14 \, 136 17 \, 307 69
\, 26 71 \, 20 70 \, 7 69 \,;
#X obj 1438 59 inlet;
#X msg 1526 414 addcomma;
#X obj 1472 449 t b a;
#X obj 1464 336 timer;
#X obj 1446 374 int;
#X obj 1669 284 moses 0.1;
#X msg 1664 312 0;
#X obj 1457 403 pack f f;
#X obj 1430 655 outlet;
#X obj 1462 161 t b b f b;
#X obj 1404 513 abs_qlistrec3v;
#X msg 1500 479 add2 \$1 \$2;
#X msg 1519 543 0 127 \, 15 0 \, 30 127 \, 149 0 \, 30 127 \, 249 0
\, 220 127 \, 187 0 \, 233 127 \, 60 0 \, 220 127 \, 63 0 \, 214 127
\, 27 0 \, 124 127 \, 68 0 \, 240 127 \, 104 0 \,;
#X text 1437 40 ctl3;
#X obj 504 494 spigot 0;
#X obj 1019 543 spigot 0;
#X obj 1520 512 spigot 0;
#X connect 0 0 14 0;
#X connect 1 0 39 0;
#X connect 1 0 43 0;
#X connect 1 0 56 0;
#X connect 2 0 37 0;
#X connect 2 0 40 0;
#X connect 2 0 54 0;
#X connect 3 0 37 0;
#X connect 3 0 40 0;
#X connect 3 0 54 0;
#X connect 4 0 5 0;
#X connect 4 0 3 0;
#X connect 4 0 1 0;
#X connect 4 1 18 0;
#X connect 4 1 30 0;
#X connect 4 1 47 0;
#X connect 5 0 19 1;
#X connect 5 0 31 1;
#X connect 5 0 48 1;
#X connect 6 0 4 0;
#X connect 6 0 10 0;
#X connect 7 0 6 1;
#X connect 7 0 20 0;
#X connect 7 0 32 0;
#X connect 7 0 49 0;
#X connect 8 0 2 0;
#X connect 9 0 11 0;
#X connect 9 0 37 0;
#X connect 9 0 40 0;
#X connect 9 0 54 0;
#X connect 9 1 12 0;
#X connect 10 0 12 1;
#X connect 11 0 12 1;
#X connect 11 0 7 0;
#X connect 12 0 39 0;
#X connect 12 0 43 0;
#X connect 12 0 56 0;
#X connect 14 0 9 0;
#X connect 15 0 23 0;
#X connect 15 0 24 0;
#X connect 16 0 58 0;
#X connect 17 0 16 0;
#X connect 17 1 26 0;
#X connect 18 0 19 1;
#X connect 19 0 25 0;
#X connect 20 0 21 0;
#X connect 20 1 58 1;
#X connect 21 0 58 1;
#X connect 22 0 6 1;
#X connect 23 0 19 0;
#X connect 23 0 22 0;
#X connect 23 1 18 0;
#X connect 23 2 25 1;
#X connect 23 3 18 1;
#X connect 23 4 6 0;
#X connect 25 0 17 0;
#X connect 26 0 58 0;
#X connect 27 0 35 0;
#X connect 27 0 36 0;
#X connect 28 0 59 0;
#X connect 29 0 28 0;
#X connect 29 1 38 0;
#X connect 30 0 31 1;
#X connect 31 0 34 0;
#X connect 32 0 33 0;
#X connect 32 1 59 1;
#X connect 33 0 59 1;
#X connect 34 0 29 0;
#X connect 36 0 31 0;
#X connect 36 1 30 0;
#X connect 36 2 34 1;
#X connect 36 3 30 1;
#X connect 37 0 35 0;
#X connect 38 0 59 0;
#X connect 39 0 40 1;
#X connect 40 0 24 0;
#X connect 43 0 37 1;
#X connect 44 0 52 0;
#X connect 44 0 53 0;
#X connect 45 0 60 0;
#X connect 46 0 45 0;
#X connect 46 1 55 0;
#X connect 47 0 48 1;
#X connect 48 0 51 0;
#X connect 49 0 50 0;
#X connect 49 1 60 1;
#X connect 50 0 60 1;
#X connect 51 0 46 0;
#X connect 53 0 48 0;
#X connect 53 1 47 0;
#X connect 53 2 51 1;
#X connect 53 3 47 1;
#X connect 54 0 52 0;
#X connect 55 0 60 0;
#X connect 56 0 54 1;
#X connect 58 0 39 0;
#X connect 59 0 43 0;
#X connect 60 0 56 0;
#X coords 0 -1 1 1 60 30 1 100 100;
#X restore 14 75 pd qr3xyz;
#X obj -5 28 ctlin 81;
#X obj 60 29 ctlin 82;
#X connect 1 0 3 0;
#X connect 1 0 14 0;
#X connect 2 0 13 5;
#X connect 3 0 2 0;
#X connect 4 0 2 0;
#X connect 5 0 2 0;
#X connect 6 0 2 0;
#X connect 7 0 13 0;
#X connect 8 0 7 0;
#X connect 8 0 11 0;
#X connect 9 0 0 0;
#X connect 9 0 0 1;
#X connect 10 0 12 0;
#X connect 11 0 9 1;
#X connect 12 0 11 0;
#X connect 12 1 11 1;
#X connect 13 0 9 0;
#X connect 14 0 13 4;
#X connect 18 0 20 3;
#X connect 20 0 13 1;
#X connect 20 1 13 2;
#X connect 20 2 8 0;
#X connect 21 0 20 1;
#X connect 22 0 20 2;
