#N canvas 86 190 1152 584 10;
#N canvas 216 80 1184 711 songpos96-16 0;
#X obj 318 440 + 1;
#X obj 267 436 float;
#X msg 206 296 1;
#X obj 218 321 /;
#X obj 209 273 t f f;
#X obj 228 344 * 15000;
#X obj 339 355 t b f;
#X obj 263 405 metro 125;
#X msg 340 329 -2;
#X obj 172 17 loadbang;
#X floatatom 126 113 5 30 300 0 bpm - -, f 5;
#X msg -2 85 set \$1;
#X msg 5 139 110;
#X obj 174 112 bng 15 250 50 0 empty empty empty 6 7 0 10 -261234 -1
-1;
#X obj 278 636 outlet;
#X obj 570 496 outlet;
#X text 618 497 bpm->;
#X obj 200 112 bng 15 50 20 0 empty empty empty 6 7 0 10 -204786 -1
-1;
#X obj 208 225 float;
#X obj 435 539 outlet;
#X text 144 343 1/16 in ms;
#X text 485 540 pos96->;
#X obj 259 373 / 6;
#X text 219 371 1/96;
#X obj 280 481 / 6;
#X obj 280 505 int;
#X obj 600 64 + 1;
#X obj 602 29 float;
#X obj 600 96 moses 2;
#X obj 600 155 timer;
#X obj 600 123 t b;
#X obj 648 122 t b b;
#X obj 653 243 /;
#X msg 623 221 60000;
#X obj 618 183 t b f;
#X obj 656 268 moses 10;
#X text 500 72 beatcounter;
#X obj 772 358 float;
#X obj 769 401 + 1;
#X obj 688 426 +;
#X obj 729 396 *;
#X obj 705 328 t f b;
#X obj 698 464 /;
#X msg 884 211 0;
#X text 499 302 mean (as seen on idafx blog);
#X obj 864 324 t f f;
#X obj 921 503 moses 0.1;
#X text 880 303 reset;
#X obj 870 366 /;
#X obj 849 431 < 0.75;
#X obj 903 435 > 1.25;
#X obj 869 391 t f f;
#X obj 877 471 ||;
#X obj 174 54 t b b b;
#X obj 43 -7 inlet;
#X obj 107 -11 inlet;
#X text 329 637 pos16->;
#X text 46 14 sync;
#X text 111 10 tap;
#X obj 279 530 change -1;
#X connect 0 0 1 1;
#X connect 0 0 24 0;
#X connect 0 0 19 0;
#X connect 1 0 0 0;
#X connect 2 0 3 0;
#X connect 3 0 5 0;
#X connect 4 0 2 0;
#X connect 4 1 3 1;
#X connect 5 0 22 0;
#X connect 6 0 7 0;
#X connect 6 1 1 0;
#X connect 7 0 1 0;
#X connect 8 0 6 0;
#X connect 9 0 53 0;
#X connect 10 0 11 0;
#X connect 10 0 18 1;
#X connect 11 0 12 0;
#X connect 12 0 10 0;
#X connect 13 0 8 0;
#X connect 13 0 18 0;
#X connect 17 0 27 0;
#X connect 18 0 4 0;
#X connect 18 0 15 0;
#X connect 22 0 7 1;
#X connect 24 0 25 0;
#X connect 25 0 59 0;
#X connect 26 0 27 1;
#X connect 26 0 28 0;
#X connect 27 0 26 0;
#X connect 28 0 30 0;
#X connect 28 1 31 0;
#X connect 29 0 34 0;
#X connect 29 0 45 0;
#X connect 30 0 29 0;
#X connect 31 0 29 0;
#X connect 31 1 29 1;
#X connect 32 0 35 0;
#X connect 33 0 32 0;
#X connect 34 0 33 0;
#X connect 34 1 32 1;
#X connect 35 1 41 0;
#X connect 37 0 38 0;
#X connect 37 0 40 0;
#X connect 38 0 37 1;
#X connect 38 0 42 1;
#X connect 39 0 42 0;
#X connect 40 0 39 1;
#X connect 41 0 39 0;
#X connect 41 1 37 0;
#X connect 42 0 40 1;
#X connect 42 0 10 0;
#X connect 43 0 37 1;
#X connect 43 0 27 1;
#X connect 45 0 48 1;
#X connect 45 1 48 0;
#X connect 46 1 43 0;
#X connect 48 0 51 0;
#X connect 49 0 52 0;
#X connect 50 0 52 1;
#X connect 51 0 49 0;
#X connect 51 1 50 0;
#X connect 52 0 46 0;
#X connect 53 0 13 0;
#X connect 53 1 13 0;
#X connect 53 2 12 0;
#X connect 54 0 13 0;
#X connect 55 0 17 0;
#X connect 59 0 14 0;
#X coords 0 -1 1 1 120 30 1 100 100;
#X restore 42 84 pd songpos96-16;
#N canvas 329 77 1369 942 samplecuts 0;
#X obj 433 945 outlet~;
#X obj 746 452 samplerate~;
#X obj 730 142 bng 14 250 50 0 empty empty V 5 9 1 8 -204786 -1 -1
;
#X obj 814 35 openpanel;
#X obj 796 95 loadbang;
#X obj 810 66 t b a;
#X msg 841 133 set symbol \$1;
#X obj 568 620 soundfiler;
#X obj 548 459 t b a;
#X obj 564 571 pack \$0 s;
#X msg 568 596 read -resize \$2 \$1osp1;
#X obj 545 531 float;
#X obj 405 753 phasor~;
#X obj 686 138 nbx 3 14 -96 96 0 1 empty empty tp 0 -8 0 10 -262144
-1 -1 -4 256;
#X obj 411 811 +~;
#X obj 406 784 *~;
#X obj 414 835 +~;
#X obj 419 858 wrap~;
#X obj 425 884 *~;
#X obj 697 566 /;
#X msg 746 418 bang;
#X obj 724 598 t b f;
#X obj 736 650 /;
#X msg 725 621 1;
#X obj 670 535 *;
#X msg 480 665 1;
#X obj 661 501 t b f;
#X obj 413 717 *~;
#X msg 825 174 symbol /home/mnb/wave_wrk/rubber_world_vox2.wav;
#X obj 101 159 abs_sampler2_display_large_flat;
#X obj 903 35 inlet;
#X obj 432 914 abs_oneshot2p;
#X msg 505 760 symbol \$1osp1;
#X obj 104 202 hsl 638 12 0 1 0 1 empty empty loopstart -2 7 0 10 -262144
-1 -128992 31000 1;
#X obj 104 217 hsl 638 12 0 1 0 1 empty empty loopend -2 7 0 10 -262144
-1 -162280 37600 1;
#X obj 367 339 -;
#X obj 617 319 +;
#X obj 410 412 clip 0 1;
#X obj 322 371 float;
#X obj 280 314 t b f;
#X msg 386 636 1.05946;
#X obj 397 678 pow;
#X obj 427 612 t b f;
#X obj 19 47 inlet;
#X obj 15 369 mod;
#X obj 108 113 hsl 128 12 0 1 0 1 empty empty geom -2 7 0 10 -262144
-1 -128992 3100 1;
#X obj 253 112 nbx 3 14 1 128 0 1 empty empty ln -12 7 0 10 -262144
-1 -1 16 256;
#X obj 15 412 <;
#X obj 64 379 *;
#X obj 119 337 t b f;
#X obj 15 473 *;
#X obj 108 143 hsl 128 12 0 1 0 1 empty empty mod_amt -2 7 0 10 -262144
-1 -128992 800 1;
#X obj 108 128 hsl 128 12 0 1 0 1 empty empty empty -2 -8 0 10 -262144
-1 -1 794 1;
#X obj 195 410 /;
#X obj 253 131 nbx 3 14 1 16 0 1 empty empty dv -12 7 0 10 -262144
-1 -1 2 256;
#X obj 22 338 div;
#X obj -12 563 mod;
#X obj 309 113 hsl 128 12 0 1 0 1 empty empty empty -2 -8 0 10 -262144
-1 -1 5100 1;
#X obj 444 112 nbx 3 14 1 128 0 1 empty empty empty 0 -8 0 10 -262144
-1 -1 35 256;
#X obj -12 606 <;
#X obj 37 573 *;
#X obj 92 531 t b f;
#X obj -12 667 *;
#X obj 309 143 hsl 128 12 0 1 0 1 empty empty empty -2 -8 0 10 -262144
-1 -1 2000 1;
#X obj 309 128 hsl 128 12 0 1 0 1 empty empty empty -2 -8 0 10 -262144
-1 -1 11974 1;
#X obj 188 475 /;
#X obj 444 131 nbx 3 14 1 16 0 1 empty empty empty 0 -8 0 10 -262144
-1 -1 1 256;
#X obj -5 532 div;
#X obj 44 743 +;
#X obj -19 312 t f f;
#X obj 114 879 wrap;
#X obj 78 670 mod;
#X obj 503 113 hsl 128 12 0 1 0 1 empty empty empty -2 -8 0 10 -262144
-1 -1 10700 1;
#X obj 638 112 nbx 3 14 1 128 0 1 empty empty empty 0 -8 0 10 -262144
-1 -1 24 256;
#X obj 78 713 <;
#X obj 127 680 *;
#X obj 182 638 t b f;
#X obj 78 774 *;
#X obj 503 143 hsl 128 12 0 1 0 1 empty empty empty -2 -8 0 10 -262144
-1 -1 1300 1;
#X obj 503 128 hsl 128 12 0 1 0 1 empty empty empty -2 -8 0 10 -262144
-1 -1 5292 1;
#X obj 278 582 /;
#X obj 638 131 nbx 3 14 1 16 0 1 empty empty empty 0 -8 0 10 -262144
-1 -1 1 256;
#X obj 85 639 div;
#X obj 95 851 +;
#X obj 610 348 pipe 1;
#X obj 294 750 select 0;
#X obj 716 108 bng 15 250 50 0 empty empty empty 17 7 0 10 -262144
-1 -1;
#X obj 243 688 +;
#X obj 260 725 +;
#X msg 598 374 set \$1;
#X obj 699 60 delay 1;
#X text 17 25 songpospos (1/16);
#X text 944 33 filename;
#X obj 487 51 inlet;
#X obj 472 550 +;
#X obj 466 514 t b f;
#X text 486 28 tp (semi);
#X text 58 63 samplelooper with loop-pos modulated by 3 songpos based
square-"lfos";
#X connect 1 0 19 1;
#X connect 2 0 3 0;
#X connect 3 0 5 0;
#X connect 4 0 28 0;
#X connect 4 0 20 0;
#X connect 4 0 25 0;
#X connect 4 0 90 0;
#X connect 5 0 28 0;
#X connect 5 1 6 0;
#X connect 6 0 28 0;
#X connect 7 0 26 0;
#X connect 7 0 18 1;
#X connect 7 0 29 1;
#X connect 8 0 11 0;
#X connect 8 0 25 0;
#X connect 8 1 9 1;
#X connect 9 0 10 0;
#X connect 10 0 7 0;
#X connect 11 0 9 0;
#X connect 11 0 32 0;
#X connect 12 0 15 0;
#X connect 13 0 94 0;
#X connect 14 0 16 0;
#X connect 15 0 14 0;
#X connect 16 0 17 0;
#X connect 17 0 18 0;
#X connect 18 0 31 0;
#X connect 19 0 21 0;
#X connect 20 0 1 0;
#X connect 21 0 23 0;
#X connect 21 1 22 1;
#X connect 22 0 27 1;
#X connect 23 0 22 0;
#X connect 24 0 19 0;
#X connect 25 0 12 1;
#X connect 26 0 24 0;
#X connect 26 1 24 1;
#X connect 27 0 12 0;
#X connect 28 0 8 0;
#X connect 28 0 29 0;
#X connect 30 0 5 0;
#X connect 31 0 0 0;
#X connect 31 1 11 1;
#X connect 31 1 32 0;
#X connect 32 0 29 2;
#X connect 33 0 14 1;
#X connect 33 0 36 0;
#X connect 33 0 35 1;
#X connect 34 0 39 0;
#X connect 35 0 38 1;
#X connect 36 0 84 0;
#X connect 37 0 36 1;
#X connect 37 0 15 1;
#X connect 37 0 24 0;
#X connect 38 0 37 0;
#X connect 39 0 38 0;
#X connect 39 1 35 0;
#X connect 40 0 41 0;
#X connect 41 0 27 0;
#X connect 42 0 40 0;
#X connect 42 1 41 1;
#X connect 43 0 69 0;
#X connect 44 0 47 0;
#X connect 44 0 53 0;
#X connect 44 0 87 0;
#X connect 45 0 49 0;
#X connect 46 0 44 1;
#X connect 46 0 48 0;
#X connect 46 0 53 1;
#X connect 47 0 50 0;
#X connect 48 0 47 1;
#X connect 49 0 48 0;
#X connect 49 1 48 1;
#X connect 50 0 68 1;
#X connect 51 0 50 1;
#X connect 53 0 52 0;
#X connect 54 0 55 1;
#X connect 55 0 44 0;
#X connect 56 0 59 0;
#X connect 56 0 65 0;
#X connect 56 0 87 1;
#X connect 57 0 61 0;
#X connect 58 0 56 1;
#X connect 58 0 60 0;
#X connect 58 0 65 1;
#X connect 59 0 62 0;
#X connect 60 0 59 1;
#X connect 61 0 60 0;
#X connect 61 1 60 1;
#X connect 62 0 68 0;
#X connect 63 0 62 1;
#X connect 65 0 64 0;
#X connect 66 0 67 1;
#X connect 67 0 56 0;
#X connect 68 0 83 0;
#X connect 69 0 67 0;
#X connect 69 1 55 0;
#X connect 69 1 82 0;
#X connect 70 0 16 1;
#X connect 71 0 74 0;
#X connect 71 0 80 0;
#X connect 71 0 88 1;
#X connect 72 0 76 0;
#X connect 73 0 71 1;
#X connect 73 0 75 0;
#X connect 73 0 80 1;
#X connect 74 0 77 0;
#X connect 75 0 74 1;
#X connect 76 0 75 0;
#X connect 76 1 75 1;
#X connect 77 0 83 1;
#X connect 78 0 77 1;
#X connect 80 0 79 0;
#X connect 81 0 82 1;
#X connect 82 0 71 0;
#X connect 83 0 70 0;
#X connect 84 0 89 0;
#X connect 85 0 86 0;
#X connect 85 0 25 0;
#X connect 87 0 88 0;
#X connect 88 0 85 0;
#X connect 89 0 34 0;
#X connect 90 0 33 0;
#X connect 93 0 95 0;
#X connect 94 0 42 0;
#X connect 95 0 94 0;
#X connect 95 1 94 1;
#X coords 0 -1 1 1 645 130 1 100 100;
#X restore 38 159 pd samplecuts;
#X obj 68 418 dac~;
#X obj 40 380 hip~ 20;
#X obj 117 378 hip~ 20;
#X obj 37 336 abs_stereochorus1;
#X obj 647 21 loadbang;
#X obj 705 155 playlist all 400 205 {Helvetica 10 bold} white yellow
black red;
#X msg 651 47 location /home/mnb/samplelib;
#X msg 694 89 location /home/mnb/wave_wrk;
#X msg 1028 120 location ..;
#X msg 677 68 location /home/mnb/archiv/sounds;
#X msg 712 109 location /home/mnb/sound_recordings;
#X obj 38 306 *~ 0.25;
#X text 215 28 sampleloopcutter \, 1/2016 martin brinkmann;
#X connect 0 0 1 0;
#X connect 1 0 13 0;
#X connect 3 0 2 0;
#X connect 4 0 2 1;
#X connect 5 0 3 0;
#X connect 5 1 4 0;
#X connect 6 0 8 0;
#X connect 7 0 1 2;
#X connect 8 0 7 0;
#X connect 9 0 7 0;
#X connect 10 0 7 0;
#X connect 11 0 7 0;
#X connect 12 0 7 0;
#X connect 13 0 5 0;
