#N canvas 145 159 1443 670 10;
#X obj 716 8 loadbang;
#X obj 743 161 playlist all 600 310 {Helvetica 10 bold} white yellow
black red;
#X msg 718 31 location /home/mnb/samplelib;
#X msg 754 75 location /home/mnb/wave_wrk;
#X msg 773 121 location ..;
#X msg 740 54 location /home/mnb/archiv/sounds;
#X msg 766 96 location /home/mnb/sound_recordings;
#N canvas 545 180 1193 856 drumsq332 0;
#X obj 285 -390 inlet;
#X obj -104 361 outlet;
#X obj 116 160 hsl 480 8 0 31 0 0 empty empty empty -2 -8 0 10 -262144
-1 -1 16997 1;
#X obj 575 101 nbx 2 12 2 32 0 1 empty empty len -20 7 0 10 -204786
-1 -1 32 256;
#X obj 287 -180 mod;
#X text 297 -415 pos16;
#X obj 103 145 tgl 12 1 empty empty empty 17 7 0 10 -262144 -1 -1 1
1;
#X obj 118 145 tgl 12 1 empty empty empty 17 7 0 10 -262144 -1 -1 0
1;
#X obj 133 145 tgl 12 1 empty empty empty 17 7 0 10 -262144 -1 -1 0
1;
#X obj 148 145 tgl 12 1 empty empty empty 17 7 0 10 -262144 -1 -1 0
1;
#X obj 166 145 tgl 12 1 empty empty empty 17 7 0 10 -262144 -1 -1 1
1;
#X obj 181 145 tgl 12 1 empty empty empty 17 7 0 10 -262144 -1 -1 0
1;
#X obj 196 145 tgl 12 1 empty empty empty 17 7 0 10 -262144 -1 -1 0
1;
#X obj 211 145 tgl 12 1 empty empty empty 17 7 0 10 -262144 -1 -1 0
1;
#X obj 230 145 tgl 12 1 empty empty empty 17 7 0 10 -262144 -1 -1 1
1;
#X obj 245 145 tgl 12 1 empty empty empty 17 7 0 10 -262144 -1 -1 0
1;
#X obj 260 145 tgl 12 1 empty empty empty 17 7 0 10 -262144 -1 -1 0
1;
#X obj 275 145 tgl 12 1 empty empty empty 17 7 0 10 -262144 -1 -1 0
1;
#X obj 293 145 tgl 12 1 empty empty empty 17 7 0 10 -262144 -1 -1 1
1;
#X obj 308 145 tgl 12 1 empty empty empty 17 7 0 10 -262144 -1 -1 0
1;
#X obj 323 145 tgl 12 1 empty empty empty 17 7 0 10 -262144 -1 -1 0
1;
#X obj 338 145 tgl 12 1 empty empty empty 17 7 0 10 -262144 -1 -1 0
1;
#X obj 358 145 tgl 12 1 empty empty empty 17 7 0 10 -262144 -1 -1 1
1;
#X obj 373 145 tgl 12 1 empty empty empty 17 7 0 10 -262144 -1 -1 0
1;
#X obj 388 145 tgl 12 1 empty empty empty 17 7 0 10 -262144 -1 -1 0
1;
#X obj 403 145 tgl 12 1 empty empty empty 17 7 0 10 -262144 -1 -1 0
1;
#X obj 421 145 tgl 12 1 empty empty empty 17 7 0 10 -262144 -1 -1 1
1;
#X obj 436 145 tgl 12 1 empty empty empty 17 7 0 10 -262144 -1 -1 0
1;
#X obj 451 145 tgl 12 1 empty empty empty 17 7 0 10 -262144 -1 -1 0
1;
#X obj 466 145 tgl 12 1 empty empty empty 17 7 0 10 -262144 -1 -1 0
1;
#X obj 485 145 tgl 12 1 empty empty empty 17 7 0 10 -262144 -1 -1 1
1;
#X obj 500 145 tgl 12 1 empty empty empty 17 7 0 10 -262144 -1 -1 0
1;
#X obj 515 145 tgl 12 1 empty empty empty 17 7 0 10 -262144 -1 -1 0
1;
#X obj 530 145 tgl 12 1 empty empty empty 17 7 0 10 -262144 -1 -1 0
1;
#X obj 548 145 tgl 12 1 empty empty empty 17 7 0 10 -262144 -1 -1 1
1;
#X obj 563 145 tgl 12 1 empty empty empty 17 7 0 10 -262144 -1 -1 0
1;
#X obj 578 145 tgl 12 1 empty empty empty 17 7 0 10 -262144 -1 -1 0
1;
#X obj 593 145 tgl 12 1 empty empty empty 17 7 0 10 -262144 -1 -1 0
1;
#X obj -379 249 f;
#X obj -351 249 f;
#X obj -324 249 f;
#X obj -296 249 f;
#X obj -265 250 f;
#X obj -237 250 f;
#X obj -210 250 f;
#X obj -182 250 f;
#X obj -154 250 f;
#X obj -126 250 f;
#X obj -99 250 f;
#X obj -71 250 f;
#X obj -40 251 f;
#X obj -12 251 f;
#X obj 15 251 f;
#X obj 43 251 f;
#X obj 72 251 f;
#X obj 99 250 f;
#X obj 126 250 f;
#X obj 154 250 f;
#X obj 185 251 f;
#X obj 213 251 f;
#X obj 240 251 f;
#X obj 268 251 f;
#X obj 296 251 f;
#X obj 324 251 f;
#X obj 351 251 f;
#X obj 379 251 f;
#X obj 410 252 f;
#X obj 438 252 f;
#X obj 465 252 f;
#X obj 493 252 f;
#X obj 67 360 outlet;
#X obj 103 130 tgl 12 1 empty empty empty 17 7 0 10 -262144 -1 -1 0
1;
#X obj 118 130 tgl 12 1 empty empty empty 17 7 0 10 -262144 -1 -1 0
1;
#X obj 133 130 tgl 12 1 empty empty empty 17 7 0 10 -262144 -1 -1 1
1;
#X obj 148 130 tgl 12 1 empty empty empty 17 7 0 10 -262144 -1 -1 1
1;
#X obj 166 130 tgl 12 1 empty empty empty 17 7 0 10 -262144 -1 -1 0
1;
#X obj 181 130 tgl 12 1 empty empty empty 17 7 0 10 -262144 -1 -1 0
1;
#X obj 196 130 tgl 12 1 empty empty empty 17 7 0 10 -262144 -1 -1 0
1;
#X obj 211 130 tgl 12 1 empty empty empty 17 7 0 10 -262144 -1 -1 1
1;
#X obj 230 130 tgl 12 1 empty empty empty 17 7 0 10 -262144 -1 -1 0
1;
#X obj 245 130 tgl 12 1 empty empty empty 17 7 0 10 -262144 -1 -1 1
1;
#X obj 260 130 tgl 12 1 empty empty empty 17 7 0 10 -262144 -1 -1 0
1;
#X obj 275 130 tgl 12 1 empty empty empty 17 7 0 10 -262144 -1 -1 1
1;
#X obj 293 130 tgl 12 1 empty empty empty 17 7 0 10 -262144 -1 -1 0
1;
#X obj 308 130 tgl 12 1 empty empty empty 17 7 0 10 -262144 -1 -1 0
1;
#X obj 323 130 tgl 12 1 empty empty empty 17 7 0 10 -262144 -1 -1 1
1;
#X obj 338 130 tgl 12 1 empty empty empty 17 7 0 10 -262144 -1 -1 0
1;
#X obj 358 130 tgl 12 1 empty empty empty 17 7 0 10 -262144 -1 -1 0
1;
#X obj 373 130 tgl 12 1 empty empty empty 17 7 0 10 -262144 -1 -1 0
1;
#X obj 388 130 tgl 12 1 empty empty empty 17 7 0 10 -262144 -1 -1 0
1;
#X obj 403 130 tgl 12 1 empty empty empty 17 7 0 10 -262144 -1 -1 0
1;
#X obj 421 130 tgl 12 1 empty empty empty 17 7 0 10 -262144 -1 -1 1
1;
#X obj 436 130 tgl 12 1 empty empty empty 17 7 0 10 -262144 -1 -1 0
1;
#X obj 451 130 tgl 12 1 empty empty empty 17 7 0 10 -262144 -1 -1 0
1;
#X obj 466 130 tgl 12 1 empty empty empty 17 7 0 10 -262144 -1 -1 0
1;
#X obj 485 130 tgl 12 1 empty empty empty 17 7 0 10 -262144 -1 -1 0
1;
#X obj 500 130 tgl 12 1 empty empty empty 17 7 0 10 -262144 -1 -1 0
1;
#X obj 515 130 tgl 12 1 empty empty empty 17 7 0 10 -262144 -1 -1 0
1;
#X obj 530 130 tgl 12 1 empty empty empty 17 7 0 10 -262144 -1 -1 0
1;
#X obj 548 130 tgl 12 1 empty empty empty 17 7 0 10 -262144 -1 -1 1
1;
#X obj 563 130 tgl 12 1 empty empty empty 17 7 0 10 -262144 -1 -1 1
1;
#X obj 578 130 tgl 12 1 empty empty empty 17 7 0 10 -262144 -1 -1 0
1;
#X obj 593 130 tgl 12 1 empty empty empty 17 7 0 10 -262144 -1 -1 1
1;
#X obj -309 218 f;
#X obj -281 218 f;
#X obj -254 218 f;
#X obj -226 218 f;
#X obj -195 219 f;
#X obj -167 219 f;
#X obj -140 219 f;
#X obj -112 219 f;
#X obj -84 219 f;
#X obj -56 219 f;
#X obj -29 219 f;
#X obj -1 219 f;
#X obj 30 220 f;
#X obj 58 220 f;
#X obj 85 220 f;
#X obj 113 220 f;
#X obj 141 219 f;
#X obj 169 219 f;
#X obj 196 219 f;
#X obj 224 219 f;
#X obj 255 220 f;
#X obj 283 220 f;
#X obj 310 220 f;
#X obj 338 220 f;
#X obj 366 220 f;
#X obj 394 220 f;
#X obj 421 220 f;
#X obj 449 220 f;
#X obj 480 221 f;
#X obj 508 221 f;
#X obj 535 221 f;
#X obj 563 221 f;
#X obj -147 329 moses 0.1;
#X obj 20 336 moses 0.1;
#X obj -93 -50 select 0 1 2 3 4 5 6 7 8 9 10 11 12 13 14 15 16 17 18
19 20 21 22 23 24 25 26 27 28 29 30 31;
#X obj -194 3 select 0 1 2 3 4 5 6 7 8 9 10 11 12 13 14 15 16 17 18
19 20 21 22 23 24 25 26 27 28 29 30 31;
#X obj 306 371 outlet;
#X obj 103 116 tgl 12 1 empty empty empty 17 7 0 10 -262144 -1 -1 1
1;
#X obj 118 116 tgl 12 1 empty empty empty 17 7 0 10 -262144 -1 -1 0
1;
#X obj 133 116 tgl 12 1 empty empty empty 17 7 0 10 -262144 -1 -1 1
1;
#X obj 148 116 tgl 12 1 empty empty empty 17 7 0 10 -262144 -1 -1 0
1;
#X obj 166 116 tgl 12 1 empty empty empty 17 7 0 10 -262144 -1 -1 1
1;
#X obj 181 116 tgl 12 1 empty empty empty 17 7 0 10 -262144 -1 -1 0
1;
#X obj 196 116 tgl 12 1 empty empty empty 17 7 0 10 -262144 -1 -1 1
1;
#X obj 211 116 tgl 12 1 empty empty empty 17 7 0 10 -262144 -1 -1 0
1;
#X obj 230 116 tgl 12 1 empty empty empty 17 7 0 10 -262144 -1 -1 1
1;
#X obj 245 116 tgl 12 1 empty empty empty 17 7 0 10 -262144 -1 -1 1
1;
#X obj 260 116 tgl 12 1 empty empty empty 17 7 0 10 -262144 -1 -1 1
1;
#X obj 275 116 tgl 12 1 empty empty empty 17 7 0 10 -262144 -1 -1 0
1;
#X obj 293 116 tgl 12 1 empty empty empty 17 7 0 10 -262144 -1 -1 1
1;
#X obj 308 116 tgl 12 1 empty empty empty 17 7 0 10 -262144 -1 -1 0
1;
#X obj 323 116 tgl 12 1 empty empty empty 17 7 0 10 -262144 -1 -1 1
1;
#X obj 338 116 tgl 12 1 empty empty empty 17 7 0 10 -262144 -1 -1 0
1;
#X obj 358 116 tgl 12 1 empty empty empty 17 7 0 10 -262144 -1 -1 1
1;
#X obj 373 116 tgl 12 1 empty empty empty 17 7 0 10 -262144 -1 -1 0
1;
#X obj 388 116 tgl 12 1 empty empty empty 17 7 0 10 -262144 -1 -1 1
1;
#X obj 403 116 tgl 12 1 empty empty empty 17 7 0 10 -262144 -1 -1 1
1;
#X obj 421 116 tgl 12 1 empty empty empty 17 7 0 10 -262144 -1 -1 1
1;
#X obj 436 116 tgl 12 1 empty empty empty 17 7 0 10 -262144 -1 -1 0
1;
#X obj 451 116 tgl 12 1 empty empty empty 17 7 0 10 -262144 -1 -1 1
1;
#X obj 466 116 tgl 12 1 empty empty empty 17 7 0 10 -262144 -1 -1 0
1;
#X obj 485 116 tgl 12 1 empty empty empty 17 7 0 10 -262144 -1 -1 1
1;
#X obj 500 116 tgl 12 1 empty empty empty 17 7 0 10 -262144 -1 -1 0
1;
#X obj 515 116 tgl 12 1 empty empty empty 17 7 0 10 -262144 -1 -1 1
1;
#X obj 530 116 tgl 12 1 empty empty empty 17 7 0 10 -262144 -1 -1 0
1;
#X obj 548 116 tgl 12 1 empty empty empty 17 7 0 10 -262144 -1 -1 1
1;
#X obj 563 116 tgl 12 1 empty empty empty 17 7 0 10 -262144 -1 -1 0
1;
#X obj 578 116 tgl 12 1 empty empty empty 17 7 0 10 -262144 -1 -1 1
1;
#X obj 593 116 tgl 12 1 empty empty empty 17 7 0 10 -262144 -1 -1 1
1;
#X obj -142 185 f;
#X obj -114 185 f;
#X obj -87 185 f;
#X obj -59 185 f;
#X obj -28 186 f;
#X obj 0 186 f;
#X obj 27 186 f;
#X obj 55 186 f;
#X obj 83 186 f;
#X obj 111 186 f;
#X obj 138 186 f;
#X obj 166 186 f;
#X obj 197 187 f;
#X obj 225 187 f;
#X obj 252 187 f;
#X obj 280 187 f;
#X obj 308 186 f;
#X obj 336 186 f;
#X obj 363 186 f;
#X obj 391 186 f;
#X obj 422 187 f;
#X obj 450 187 f;
#X obj 477 187 f;
#X obj 505 187 f;
#X obj 533 187 f;
#X obj 561 187 f;
#X obj 588 187 f;
#X obj 616 187 f;
#X obj 647 188 f;
#X obj 675 188 f;
#X obj 702 188 f;
#X obj 730 188 f;
#X obj 259 347 moses 0.1;
#X obj 17 -102 select 0 1 2 3 4 5 6 7 8 9 10 11 12 13 14 15 16 17 18
19 20 21 22 23 24 25 26 27 28 29 30 31;
#X connect 0 0 4 0;
#X connect 3 0 4 1;
#X connect 4 0 2 0;
#X connect 4 0 137 0;
#X connect 4 0 138 0;
#X connect 4 0 205 0;
#X connect 6 0 38 1;
#X connect 7 0 39 1;
#X connect 8 0 40 1;
#X connect 9 0 41 1;
#X connect 10 0 42 1;
#X connect 11 0 43 1;
#X connect 12 0 44 1;
#X connect 13 0 45 1;
#X connect 14 0 46 1;
#X connect 15 0 47 1;
#X connect 16 0 48 1;
#X connect 17 0 49 1;
#X connect 18 0 50 1;
#X connect 19 0 51 1;
#X connect 20 0 52 1;
#X connect 21 0 53 1;
#X connect 22 0 54 1;
#X connect 23 0 55 1;
#X connect 24 0 56 1;
#X connect 25 0 57 1;
#X connect 26 0 58 1;
#X connect 27 0 59 1;
#X connect 28 0 60 1;
#X connect 29 0 61 1;
#X connect 30 0 62 1;
#X connect 31 0 63 1;
#X connect 32 0 64 1;
#X connect 33 0 65 1;
#X connect 34 0 66 1;
#X connect 35 0 67 1;
#X connect 36 0 68 1;
#X connect 37 0 69 1;
#X connect 38 0 135 0;
#X connect 39 0 135 0;
#X connect 40 0 135 0;
#X connect 41 0 135 0;
#X connect 42 0 135 0;
#X connect 43 0 135 0;
#X connect 44 0 135 0;
#X connect 45 0 135 0;
#X connect 46 0 135 0;
#X connect 47 0 135 0;
#X connect 48 0 135 0;
#X connect 49 0 135 0;
#X connect 50 0 135 0;
#X connect 51 0 135 0;
#X connect 52 0 135 0;
#X connect 53 0 135 0;
#X connect 54 0 135 0;
#X connect 55 0 135 0;
#X connect 56 0 135 0;
#X connect 57 0 135 0;
#X connect 58 0 135 0;
#X connect 59 0 135 0;
#X connect 60 0 135 0;
#X connect 61 0 135 0;
#X connect 62 0 135 0;
#X connect 63 0 135 0;
#X connect 64 0 135 0;
#X connect 65 0 135 0;
#X connect 66 0 135 0;
#X connect 67 0 135 0;
#X connect 68 0 135 0;
#X connect 69 0 135 0;
#X connect 71 0 103 1;
#X connect 72 0 104 1;
#X connect 73 0 105 1;
#X connect 74 0 106 1;
#X connect 75 0 107 1;
#X connect 76 0 108 1;
#X connect 77 0 109 1;
#X connect 78 0 110 1;
#X connect 79 0 111 1;
#X connect 80 0 112 1;
#X connect 81 0 113 1;
#X connect 82 0 114 1;
#X connect 83 0 115 1;
#X connect 84 0 116 1;
#X connect 85 0 117 1;
#X connect 86 0 118 1;
#X connect 87 0 119 1;
#X connect 88 0 120 1;
#X connect 89 0 121 1;
#X connect 90 0 122 1;
#X connect 91 0 123 1;
#X connect 92 0 124 1;
#X connect 93 0 125 1;
#X connect 94 0 126 1;
#X connect 95 0 127 1;
#X connect 96 0 128 1;
#X connect 97 0 129 1;
#X connect 98 0 130 1;
#X connect 99 0 131 1;
#X connect 100 0 132 1;
#X connect 101 0 133 1;
#X connect 102 0 134 1;
#X connect 103 0 136 0;
#X connect 104 0 136 0;
#X connect 105 0 136 0;
#X connect 106 0 136 0;
#X connect 107 0 136 0;
#X connect 108 0 136 0;
#X connect 109 0 136 0;
#X connect 110 0 136 0;
#X connect 111 0 136 0;
#X connect 112 0 136 0;
#X connect 113 0 136 0;
#X connect 114 0 136 0;
#X connect 115 0 136 0;
#X connect 116 0 136 0;
#X connect 117 0 136 0;
#X connect 118 0 136 0;
#X connect 119 0 136 0;
#X connect 120 0 136 0;
#X connect 121 0 136 0;
#X connect 122 0 136 0;
#X connect 123 0 136 0;
#X connect 124 0 136 0;
#X connect 125 0 136 0;
#X connect 126 0 136 0;
#X connect 127 0 136 0;
#X connect 128 0 136 0;
#X connect 129 0 136 0;
#X connect 130 0 136 0;
#X connect 131 0 136 0;
#X connect 132 0 136 0;
#X connect 133 0 136 0;
#X connect 134 0 136 0;
#X connect 135 1 1 0;
#X connect 136 1 70 0;
#X connect 137 0 103 0;
#X connect 137 1 104 0;
#X connect 137 2 105 0;
#X connect 137 3 106 0;
#X connect 137 4 107 0;
#X connect 137 5 108 0;
#X connect 137 6 109 0;
#X connect 137 7 110 0;
#X connect 137 8 111 0;
#X connect 137 9 112 0;
#X connect 137 10 113 0;
#X connect 137 11 114 0;
#X connect 137 12 115 0;
#X connect 137 13 116 0;
#X connect 137 14 117 0;
#X connect 137 15 118 0;
#X connect 137 16 119 0;
#X connect 137 17 120 0;
#X connect 137 18 121 0;
#X connect 137 19 122 0;
#X connect 137 20 123 0;
#X connect 137 21 124 0;
#X connect 137 22 125 0;
#X connect 137 23 126 0;
#X connect 137 24 127 0;
#X connect 137 25 128 0;
#X connect 137 26 129 0;
#X connect 137 27 130 0;
#X connect 137 28 131 0;
#X connect 137 29 132 0;
#X connect 137 30 133 0;
#X connect 137 31 134 0;
#X connect 138 0 38 0;
#X connect 138 1 39 0;
#X connect 138 2 40 0;
#X connect 138 3 41 0;
#X connect 138 4 42 0;
#X connect 138 5 43 0;
#X connect 138 6 44 0;
#X connect 138 7 45 0;
#X connect 138 8 46 0;
#X connect 138 9 47 0;
#X connect 138 10 48 0;
#X connect 138 11 49 0;
#X connect 138 12 50 0;
#X connect 138 13 51 0;
#X connect 138 14 52 0;
#X connect 138 15 53 0;
#X connect 138 16 54 0;
#X connect 138 17 55 0;
#X connect 138 18 56 0;
#X connect 138 19 57 0;
#X connect 138 20 58 0;
#X connect 138 21 59 0;
#X connect 138 22 60 0;
#X connect 138 23 61 0;
#X connect 138 24 62 0;
#X connect 138 25 63 0;
#X connect 138 26 64 0;
#X connect 138 27 65 0;
#X connect 138 28 66 0;
#X connect 138 29 67 0;
#X connect 138 30 68 0;
#X connect 138 31 69 0;
#X connect 140 0 172 1;
#X connect 141 0 173 1;
#X connect 142 0 174 1;
#X connect 143 0 175 1;
#X connect 144 0 176 1;
#X connect 145 0 177 1;
#X connect 146 0 178 1;
#X connect 147 0 179 1;
#X connect 148 0 180 1;
#X connect 149 0 181 1;
#X connect 150 0 182 1;
#X connect 151 0 183 1;
#X connect 152 0 184 1;
#X connect 153 0 185 1;
#X connect 154 0 186 1;
#X connect 155 0 187 1;
#X connect 156 0 188 1;
#X connect 157 0 189 1;
#X connect 158 0 190 1;
#X connect 159 0 191 1;
#X connect 160 0 192 1;
#X connect 161 0 193 1;
#X connect 162 0 194 1;
#X connect 163 0 195 1;
#X connect 164 0 196 1;
#X connect 165 0 197 1;
#X connect 166 0 198 1;
#X connect 167 0 199 1;
#X connect 168 0 200 1;
#X connect 169 0 201 1;
#X connect 170 0 202 1;
#X connect 171 0 203 1;
#X connect 172 0 204 0;
#X connect 173 0 204 0;
#X connect 174 0 204 0;
#X connect 175 0 204 0;
#X connect 176 0 204 0;
#X connect 177 0 204 0;
#X connect 178 0 204 0;
#X connect 179 0 204 0;
#X connect 180 0 204 0;
#X connect 181 0 204 0;
#X connect 182 0 204 0;
#X connect 183 0 204 0;
#X connect 184 0 204 0;
#X connect 185 0 204 0;
#X connect 186 0 204 0;
#X connect 187 0 204 0;
#X connect 188 0 204 0;
#X connect 189 0 204 0;
#X connect 190 0 204 0;
#X connect 191 0 204 0;
#X connect 192 0 204 0;
#X connect 193 0 204 0;
#X connect 194 0 204 0;
#X connect 195 0 204 0;
#X connect 196 0 204 0;
#X connect 197 0 204 0;
#X connect 198 0 204 0;
#X connect 199 0 204 0;
#X connect 200 0 204 0;
#X connect 201 0 204 0;
#X connect 202 0 204 0;
#X connect 203 0 204 0;
#X connect 204 1 139 0;
#X connect 205 0 172 0;
#X connect 205 1 173 0;
#X connect 205 2 174 0;
#X connect 205 3 175 0;
#X connect 205 4 176 0;
#X connect 205 5 177 0;
#X connect 205 6 178 0;
#X connect 205 7 179 0;
#X connect 205 8 180 0;
#X connect 205 9 181 0;
#X connect 205 10 182 0;
#X connect 205 11 183 0;
#X connect 205 12 184 0;
#X connect 205 13 185 0;
#X connect 205 14 186 0;
#X connect 205 15 187 0;
#X connect 205 16 188 0;
#X connect 205 17 189 0;
#X connect 205 18 190 0;
#X connect 205 19 191 0;
#X connect 205 20 192 0;
#X connect 205 21 193 0;
#X connect 205 22 194 0;
#X connect 205 23 195 0;
#X connect 205 24 196 0;
#X connect 205 25 197 0;
#X connect 205 26 198 0;
#X connect 205 27 199 0;
#X connect 205 28 200 0;
#X connect 205 29 201 0;
#X connect 205 30 202 0;
#X connect 205 31 203 0;
#X coords 0 -1 1 1 510 70 1 100 100;
#X restore 170 299 pd drumsq332;
#N canvas 255 79 785 755 akick2 0;
#X obj 378 305 line~;
#X msg 339 272 0 \$1;
#X obj 141 565 *~;
#X obj 351 345 *~;
#X obj 117 430 *~;
#X obj 132 529 osc~;
#X obj 101 461 +~;
#X msg 176 493 1;
#X obj -64 806 outlet~;
#X obj 345 69 inlet;
#X obj 106 157 hsl 128 8 0 127 0 1 empty empty pam 134 5 0 8 -262144
-1 -1 3300 1;
#X obj 38 216 mtof;
#X obj 106 137 hsl 128 8 0 127 0 1 empty empty p 134 4 0 8 -262144
-1 -1 2000 1;
#X obj -1 216 mtof;
#X obj 106 114 hsl 128 8 10 800 0 1 empty empty dec 134 5 0 8 -262144
-1 -1 5200 1;
#X obj 113 492 +~;
#X obj 305 202 +;
#X msg 292 138 0;
#X text 390 67 <-trigger/level in;
#X obj 339 239 float;
#X msg 388 243 \$1;
#X obj 376 130 t b f;
#X obj 106 170 hsl 128 8 1 5 0 1 empty empty dz 133 4 0 8 -262144 -1
-1 4300 1;
#X obj 106 180 hsl 128 8 0.1 0.8 0 1 empty empty chr 133 4 0 8 -262144
-1 -1 7300 1;
#X obj -64 781 /~;
#X obj -24 707 abs~;
#X obj 33 731 +~;
#X obj -57 675 *~;
#X text -139 719 distortion;
#X obj 341 381 *~;
#X obj 329 406 lop~ 400;
#X obj 106 147 hsl 128 8 10 800 0 1 empty empty pdc 134 5 0 8 -262144
-1 -1 2600 1;
#X obj 192 324 line~;
#X msg 180 296 0 \$1;
#X obj 177 232 +;
#X obj 180 263 float;
#X obj 186 349 *~;
#X obj 178 375 *~;
#X text 388 273 amp env;
#X msg 234 296 1;
#X text 225 273 pitch env;
#X obj 106 124 hsl 128 8 1 5 0 1 empty empty shp 133 4 0 8 -262144
-1 -1 2700 1;
#X obj 322 527 /~;
#X obj 313 465 *~;
#X text 364 518 env shape;
#X obj 367 490 +~ 1;
#X connect 0 0 3 1;
#X connect 0 0 3 0;
#X connect 1 0 0 0;
#X connect 2 0 27 0;
#X connect 3 0 29 0;
#X connect 3 0 29 1;
#X connect 4 0 6 1;
#X connect 5 0 2 0;
#X connect 6 0 15 0;
#X connect 7 0 5 1;
#X connect 9 0 17 0;
#X connect 9 0 21 0;
#X connect 10 0 11 0;
#X connect 11 0 4 0;
#X connect 12 0 13 0;
#X connect 13 0 6 0;
#X connect 14 0 16 1;
#X connect 15 0 5 0;
#X connect 16 0 19 0;
#X connect 17 0 16 0;
#X connect 17 0 34 0;
#X connect 19 0 1 0;
#X connect 20 0 0 0;
#X connect 21 0 19 0;
#X connect 21 0 7 0;
#X connect 21 0 35 0;
#X connect 21 1 20 0;
#X connect 21 1 39 0;
#X connect 22 0 27 1;
#X connect 23 0 26 1;
#X connect 24 0 8 0;
#X connect 25 0 26 0;
#X connect 26 0 24 1;
#X connect 27 0 24 0;
#X connect 27 0 25 0;
#X connect 29 0 30 0;
#X connect 30 0 43 0;
#X connect 31 0 34 1;
#X connect 32 0 36 0;
#X connect 32 0 36 1;
#X connect 33 0 32 0;
#X connect 34 0 35 0;
#X connect 35 0 33 0;
#X connect 36 0 37 0;
#X connect 36 0 37 1;
#X connect 37 0 4 1;
#X connect 39 0 32 0;
#X connect 41 0 43 1;
#X connect 42 0 2 1;
#X connect 43 0 42 0;
#X connect 43 0 45 0;
#X connect 45 0 42 1;
#X coords 0 -1 1 1 160 90 1 100 100;
#X restore 197 384 pd akick2;
#N canvas 97 62 1056 743 asnare1 0;
#X obj 378 305 line~;
#X msg 371 254 0 \$1;
#X obj 175 656 *~;
#X obj 355 336 *~;
#X obj 144 336 *~;
#X obj 135 370 +~;
#X obj 319 373 lop~ 200;
#X msg 419 249 1;
#X obj 256 457 *~;
#X msg 173 372 1;
#X obj 214 740 outlet~;
#X obj 371 58 inlet;
#X obj 106 126 hsl 128 8 0 127 0 1 empty empty amt 134 5 0 8 -262144
-1 -1 4700 1;
#X obj 170 307 mtof;
#X obj 106 137 hsl 128 8 0 127 0 1 empty empty p 134 3 0 8 -262144
-1 -1 6200 1;
#X obj 37 218 mtof;
#X obj 106 114 hsl 128 8 1.27 800 1 1 empty empty dec 134 4 0 8 -262144
-1 -1 4500 1;
#X obj 134 406 +~;
#X obj 304 163 +;
#X msg 331 96 0;
#X text 416 56 <-trigger/level in;
#X text 391 332 quadratic pitch/amp env;
#X obj 133 434 phasor~;
#X obj 85 520 *~;
#X obj 135 594 +~;
#X obj 145 624 hip~ 5;
#X obj 145 518 -~;
#X obj 191 448 loadbang;
#X obj 153 551 *~;
#X msg 131 489 1;
#X obj 211 711 +~;
#X obj 275 492 noise~;
#X obj 596 363 line~;
#X msg 589 312 0 \$1;
#X obj 573 394 *~;
#X obj 537 431 lop~ 200;
#X msg 653 308 1;
#X obj 106 149 hsl 128 8 1.27 800 1 1 empty empty ndc 134 4 0 8 -262144
-1 -1 6600 1;
#X obj 519 238 +;
#X msg 549 154 0;
#X obj 284 577 *~;
#X obj 106 159 hsl 128 8 0 127 0 1 empty empty np 134 3 0 8 -262144
-1 -1 8200 1;
#X obj 358 478 mtof;
#X obj 285 536 lop~;
#X obj 371 230 float;
#X obj 351 177 t f b b;
#X obj 580 279 float;
#X obj 569 235 t f b b;
#X obj 9 471 expr~ $v1<0.5;
#X obj 165 487 expr~ $v1>=0.5;
#X connect 0 0 3 1;
#X connect 0 0 3 0;
#X connect 1 0 0 0;
#X connect 2 0 30 0;
#X connect 3 0 6 0;
#X connect 4 0 5 1;
#X connect 5 0 17 0;
#X connect 6 0 4 0;
#X connect 6 0 8 1;
#X connect 7 0 0 0;
#X connect 8 0 2 1;
#X connect 9 0 22 1;
#X connect 11 0 19 0;
#X connect 11 0 39 0;
#X connect 11 0 45 0;
#X connect 11 0 47 0;
#X connect 12 0 13 0;
#X connect 13 0 4 1;
#X connect 14 0 15 0;
#X connect 15 0 5 0;
#X connect 16 0 18 1;
#X connect 17 0 22 0;
#X connect 18 0 44 0;
#X connect 19 0 18 0;
#X connect 22 0 23 1;
#X connect 22 0 26 1;
#X connect 22 0 48 0;
#X connect 22 0 49 0;
#X connect 23 0 24 0;
#X connect 24 0 25 0;
#X connect 25 0 2 0;
#X connect 26 0 28 0;
#X connect 27 0 29 0;
#X connect 28 0 24 1;
#X connect 29 0 26 0;
#X connect 30 0 10 0;
#X connect 31 0 43 0;
#X connect 32 0 34 1;
#X connect 32 0 34 0;
#X connect 33 0 32 0;
#X connect 34 0 35 0;
#X connect 35 0 40 1;
#X connect 36 0 32 0;
#X connect 37 0 38 1;
#X connect 38 0 46 0;
#X connect 39 0 38 0;
#X connect 40 0 30 1;
#X connect 41 0 42 0;
#X connect 42 0 43 1;
#X connect 43 0 40 0;
#X connect 44 0 1 0;
#X connect 45 0 8 0;
#X connect 45 1 9 0;
#X connect 45 1 44 0;
#X connect 45 2 7 0;
#X connect 46 0 33 0;
#X connect 47 1 46 0;
#X connect 47 2 36 0;
#X connect 48 0 23 0;
#X connect 49 0 28 1;
#X coords 0 -1 1 1 160 70 1 100 100;
#X restore 368 384 pd asnare1;
#N canvas 118 189 1056 743 ahihat2 0;
#X obj 245 704 outlet~;
#X obj 329 190 inlet;
#X text 374 188 <-trigger/level in;
#X obj 334 433 line~;
#X msg 271 394 0 22.3549;
#X obj 311 464 *~;
#X obj 302 521 lop~ 200;
#X msg 359 399 1;
#X obj 107 115 hsl 128 8 1.27 5000 1 1 dmp10 dmp10r dec 134 4 0 8 -262144
-1 -1 4400 1;
#X obj 250 264 +;
#X msg 252 234 0;
#X obj 243 674 *~;
#X obj 272 288 *;
#X msg 271 315 set 0 \$1;
#X obj 329 341 t b b;
#X obj 311 213 t f f;
#X obj 74 440 clip~ -1 1;
#X obj 74 372 bp~ 8906 1.437;
#X obj 74 394 bp~ 8906 1.437;
#N canvas 1 79 744 501 squarebattery 0;
#X obj 346 142 *~ 0.7;
#X obj 105 124 *~ 0.9;
#X obj 105 79 * 210;
#X obj 345 94 * 540;
#X obj 462 104 * 550;
#X obj 569 103 * 800;
#X obj 269 92 * 380;
#X obj 187 91 * 320;
#X obj 105 404 outlet~;
#X obj 105 11 inlet;
#X text 151 13 tuning;
#N canvas 1 79 438 462 square 0;
#X obj 132 215 -~ 0.5;
#X obj 42 197 wrap~;
#X obj 42 220 -~ 0.5;
#X obj 42 175 -~ 0.5;
#X obj 42 289 -~;
#X obj 42 317 outlet~;
#X obj 42 94 phasor~;
#X obj 42 64 inlet;
#X connect 0 0 4 1;
#X connect 1 0 2 0;
#X connect 2 0 4 0;
#X connect 3 0 1 0;
#X connect 4 0 5 0;
#X connect 6 0 3 0;
#X connect 6 0 0 0;
#X connect 7 0 6 0;
#X restore 345 114 pd square;
#N canvas 0 50 438 462 square 0;
#X obj 132 215 -~ 0.5;
#X obj 42 197 wrap~;
#X obj 42 220 -~ 0.5;
#X obj 42 175 -~ 0.5;
#X obj 42 289 -~;
#X obj 42 317 outlet~;
#X obj 42 94 phasor~;
#X obj 42 64 inlet;
#X connect 0 0 4 1;
#X connect 1 0 2 0;
#X connect 2 0 4 0;
#X connect 3 0 1 0;
#X connect 4 0 5 0;
#X connect 6 0 3 0;
#X connect 6 0 0 0;
#X connect 7 0 6 0;
#X restore 462 128 pd square;
#N canvas 0 50 438 462 square 0;
#X obj 132 215 -~ 0.5;
#X obj 42 197 wrap~;
#X obj 42 220 -~ 0.5;
#X obj 42 175 -~ 0.5;
#X obj 42 289 -~;
#X obj 42 317 outlet~;
#X obj 42 94 phasor~;
#X obj 42 64 inlet;
#X connect 0 0 4 1;
#X connect 1 0 2 0;
#X connect 2 0 4 0;
#X connect 3 0 1 0;
#X connect 4 0 5 0;
#X connect 6 0 3 0;
#X connect 6 0 0 0;
#X connect 7 0 6 0;
#X restore 569 128 pd square;
#N canvas 0 50 438 462 square 0;
#X obj 132 215 -~ 0.5;
#X obj 42 197 wrap~;
#X obj 42 220 -~ 0.5;
#X obj 42 175 -~ 0.5;
#X obj 42 289 -~;
#X obj 42 317 outlet~;
#X obj 42 94 phasor~;
#X obj 42 64 inlet;
#X connect 0 0 4 1;
#X connect 1 0 2 0;
#X connect 2 0 4 0;
#X connect 3 0 1 0;
#X connect 4 0 5 0;
#X connect 6 0 3 0;
#X connect 6 0 0 0;
#X connect 7 0 6 0;
#X restore 269 115 pd square;
#N canvas 0 50 438 462 square 0;
#X obj 132 215 -~ 0.5;
#X obj 42 197 wrap~;
#X obj 42 220 -~ 0.5;
#X obj 42 175 -~ 0.5;
#X obj 42 289 -~;
#X obj 42 317 outlet~;
#X obj 42 94 phasor~;
#X obj 42 64 inlet;
#X connect 0 0 4 1;
#X connect 1 0 2 0;
#X connect 2 0 4 0;
#X connect 3 0 1 0;
#X connect 4 0 5 0;
#X connect 6 0 3 0;
#X connect 6 0 0 0;
#X connect 7 0 6 0;
#X restore 187 119 pd square;
#N canvas 0 50 438 462 square 0;
#X obj 132 215 -~ 0.5;
#X obj 42 197 wrap~;
#X obj 42 220 -~ 0.5;
#X obj 42 175 -~ 0.5;
#X obj 42 289 -~;
#X obj 42 317 outlet~;
#X obj 42 94 phasor~;
#X obj 42 64 inlet;
#X connect 0 0 4 1;
#X connect 1 0 2 0;
#X connect 2 0 4 0;
#X connect 3 0 1 0;
#X connect 4 0 5 0;
#X connect 6 0 3 0;
#X connect 6 0 0 0;
#X connect 7 0 6 0;
#X restore 105 101 pd square;
#X connect 0 0 8 0;
#X connect 1 0 8 0;
#X connect 2 0 16 0;
#X connect 3 0 11 0;
#X connect 4 0 12 0;
#X connect 5 0 13 0;
#X connect 6 0 14 0;
#X connect 7 0 15 0;
#X connect 9 0 2 0;
#X connect 9 0 3 0;
#X connect 9 0 4 0;
#X connect 9 0 5 0;
#X connect 9 0 6 0;
#X connect 9 0 7 0;
#X connect 11 0 0 0;
#X connect 12 0 8 0;
#X connect 13 0 8 0;
#X connect 14 0 8 0;
#X connect 15 0 8 0;
#X connect 16 0 1 0;
#X restore 75 328 pd squarebattery;
#X obj 74 417 *~ 150;
#X obj 108 127 hsl 128 8 0 2 0 1 empty empty tun 134 4 0 8 -262144
-1 -1 11500 1;
#X obj 294 559 *~ 0.1;
#X text 348 482 quadratic amp env;
#N canvas 482 221 1076 837 hipass8000 0;
#X obj 7 151 inlet~;
#X obj 182 581 outlet~;
#X obj 87 344 czero~;
#X obj 113 381 czero~;
#X obj 144 495 cpole~;
#X obj 183 542 cpole~;
#X obj 144 324 sig~ 0;
#X obj 127 300 sig~ 1;
#X text 98 279 zeros at fixed pos;
#X obj 180 435 sig~ 0.264714;
#X obj 208 464 sig~ 0.444066;
#X obj 224 493 sig~ -0.444066;
#X obj 36 255 *~ 0.449174;
#X text 52 86 highpassfilter at 8000 hz with low resonance;
#X connect 0 0 12 0;
#X connect 2 0 3 0;
#X connect 2 1 3 1;
#X connect 3 0 4 0;
#X connect 3 1 4 1;
#X connect 4 0 5 0;
#X connect 4 1 5 1;
#X connect 5 0 1 0;
#X connect 6 0 3 3;
#X connect 6 0 2 3;
#X connect 7 0 2 2;
#X connect 7 0 3 2;
#X connect 9 0 4 2;
#X connect 9 0 5 2;
#X connect 10 0 4 3;
#X connect 11 0 5 3;
#X connect 12 0 2 0;
#X restore 76 350 pd hipass8000;
#X connect 1 0 15 0;
#X connect 3 0 5 1;
#X connect 3 0 5 0;
#X connect 4 0 3 0;
#X connect 5 0 6 0;
#X connect 6 0 22 0;
#X connect 7 0 3 0;
#X connect 8 0 9 1;
#X connect 9 0 12 0;
#X connect 10 0 9 0;
#X connect 11 0 0 0;
#X connect 12 0 13 0;
#X connect 13 0 4 0;
#X connect 13 0 14 0;
#X connect 14 0 4 0;
#X connect 14 1 7 0;
#X connect 15 0 10 0;
#X connect 15 1 12 1;
#X connect 16 0 11 0;
#X connect 17 0 18 0;
#X connect 18 0 20 0;
#X connect 19 0 24 0;
#X connect 20 0 16 0;
#X connect 21 0 19 0;
#X connect 22 0 11 1;
#X connect 24 0 17 0;
#X coords 0 -1 1 1 160 40 1 100 100;
#X restore 540 392 pd ahihat2;
#N canvas 17 88 790 312 fix-pan-mix8 0;
#X obj 30 39 inlet~;
#X obj 101 41 inlet~;
#X obj 55 225 outlet~;
#X obj 180 226 outlet~;
#X obj 186 42 inlet~;
#X obj 269 44 inlet~;
#X obj 354 42 inlet~;
#X obj 430 44 inlet~;
#X obj 504 44 inlet~;
#X obj 579 47 inlet~;
#N canvas 0 50 450 300 pan1 0;
#X obj 120 15 inlet;
#X obj 297 51 inlet~;
#X obj 256 225 outlet~;
#X obj 336 218 outlet~;
#X obj 251 149 *~;
#X obj 323 154 *~;
#X obj 276 122 + 1;
#X obj 335 113 * -1;
#X obj 208 75 * -1;
#X obj 160 42 clip 0 1;
#X connect 0 0 9 0;
#X connect 1 0 4 0;
#X connect 1 0 5 1;
#X connect 4 0 2 0;
#X connect 5 0 3 0;
#X connect 6 0 4 1;
#X connect 7 0 5 0;
#X connect 8 0 6 0;
#X connect 8 0 7 0;
#X connect 9 0 8 0;
#X restore 22 105 pd pan1;
#X msg 9 79 0.5;
#N canvas 0 50 450 300 pan1 0;
#X obj 120 15 inlet;
#X obj 297 51 inlet~;
#X obj 256 225 outlet~;
#X obj 336 218 outlet~;
#X obj 251 149 *~;
#X obj 323 154 *~;
#X obj 276 122 + 1;
#X obj 335 113 * -1;
#X obj 208 75 * -1;
#X obj 160 42 clip 0 1;
#X connect 0 0 9 0;
#X connect 1 0 4 0;
#X connect 1 0 5 1;
#X connect 4 0 2 0;
#X connect 5 0 3 0;
#X connect 6 0 4 1;
#X connect 7 0 5 0;
#X connect 8 0 6 0;
#X connect 8 0 7 0;
#X connect 9 0 8 0;
#X restore 102 110 pd pan1;
#X msg 91 78 0.5;
#N canvas 0 50 450 300 pan1 0;
#X obj 120 15 inlet;
#X obj 297 51 inlet~;
#X obj 256 225 outlet~;
#X obj 336 218 outlet~;
#X obj 251 149 *~;
#X obj 323 154 *~;
#X obj 276 122 + 1;
#X obj 335 113 * -1;
#X obj 208 75 * -1;
#X obj 160 42 clip 0 1;
#X connect 0 0 9 0;
#X connect 1 0 4 0;
#X connect 1 0 5 1;
#X connect 4 0 2 0;
#X connect 5 0 3 0;
#X connect 6 0 4 1;
#X connect 7 0 5 0;
#X connect 8 0 6 0;
#X connect 8 0 7 0;
#X connect 9 0 8 0;
#X restore 183 101 pd pan1;
#X msg 170 75 0.5;
#N canvas 0 50 450 300 pan1 0;
#X obj 120 15 inlet;
#X obj 297 51 inlet~;
#X obj 256 225 outlet~;
#X obj 336 218 outlet~;
#X obj 251 149 *~;
#X obj 323 154 *~;
#X obj 276 122 + 1;
#X obj 335 113 * -1;
#X obj 208 75 * -1;
#X obj 160 42 clip 0 1;
#X connect 0 0 9 0;
#X connect 1 0 4 0;
#X connect 1 0 5 1;
#X connect 4 0 2 0;
#X connect 5 0 3 0;
#X connect 6 0 4 1;
#X connect 7 0 5 0;
#X connect 8 0 6 0;
#X connect 8 0 7 0;
#X connect 9 0 8 0;
#X restore 261 112 pd pan1;
#X msg 260 78 0.5;
#N canvas 0 50 450 300 pan1 0;
#X obj 120 15 inlet;
#X obj 297 51 inlet~;
#X obj 256 225 outlet~;
#X obj 336 218 outlet~;
#X obj 251 149 *~;
#X obj 323 154 *~;
#X obj 276 122 + 1;
#X obj 335 113 * -1;
#X obj 208 75 * -1;
#X obj 160 42 clip 0 1;
#X connect 0 0 9 0;
#X connect 1 0 4 0;
#X connect 1 0 5 1;
#X connect 4 0 2 0;
#X connect 5 0 3 0;
#X connect 6 0 4 1;
#X connect 7 0 5 0;
#X connect 8 0 6 0;
#X connect 8 0 7 0;
#X connect 9 0 8 0;
#X restore 341 108 pd pan1;
#X msg 338 77 0.5;
#N canvas 0 50 450 300 pan1 0;
#X obj 120 15 inlet;
#X obj 297 51 inlet~;
#X obj 256 225 outlet~;
#X obj 336 218 outlet~;
#X obj 251 149 *~;
#X obj 323 154 *~;
#X obj 276 122 + 1;
#X obj 335 113 * -1;
#X obj 208 75 * -1;
#X obj 160 42 clip 0 1;
#X connect 0 0 9 0;
#X connect 1 0 4 0;
#X connect 1 0 5 1;
#X connect 4 0 2 0;
#X connect 5 0 3 0;
#X connect 6 0 4 1;
#X connect 7 0 5 0;
#X connect 8 0 6 0;
#X connect 8 0 7 0;
#X connect 9 0 8 0;
#X restore 436 102 pd pan1;
#X msg 423 76 0.5;
#N canvas 0 50 450 300 pan1 0;
#X obj 120 15 inlet;
#X obj 297 51 inlet~;
#X obj 256 225 outlet~;
#X obj 336 218 outlet~;
#X obj 251 149 *~;
#X obj 323 154 *~;
#X obj 276 122 + 1;
#X obj 335 113 * -1;
#X obj 208 75 * -1;
#X obj 160 42 clip 0 1;
#X connect 0 0 9 0;
#X connect 1 0 4 0;
#X connect 1 0 5 1;
#X connect 4 0 2 0;
#X connect 5 0 3 0;
#X connect 6 0 4 1;
#X connect 7 0 5 0;
#X connect 8 0 6 0;
#X connect 8 0 7 0;
#X connect 9 0 8 0;
#X restore 508 103 pd pan1;
#X msg 501 75 0.5;
#N canvas 0 50 450 300 pan1 0;
#X obj 120 15 inlet;
#X obj 297 51 inlet~;
#X obj 256 225 outlet~;
#X obj 336 218 outlet~;
#X obj 251 149 *~;
#X obj 323 154 *~;
#X obj 276 122 + 1;
#X obj 335 113 * -1;
#X obj 208 75 * -1;
#X obj 160 42 clip 0 1;
#X connect 0 0 9 0;
#X connect 1 0 4 0;
#X connect 1 0 5 1;
#X connect 4 0 2 0;
#X connect 5 0 3 0;
#X connect 6 0 4 1;
#X connect 7 0 5 0;
#X connect 8 0 6 0;
#X connect 8 0 7 0;
#X connect 9 0 8 0;
#X restore 587 102 pd pan1;
#X msg 574 76 0.5;
#X obj 316 11 loadbang;
#X connect 0 0 10 1;
#X connect 1 0 12 1;
#X connect 4 0 14 1;
#X connect 5 0 16 1;
#X connect 6 0 18 1;
#X connect 7 0 20 1;
#X connect 8 0 22 1;
#X connect 9 0 24 1;
#X connect 10 0 2 0;
#X connect 10 1 3 0;
#X connect 11 0 10 0;
#X connect 12 0 2 0;
#X connect 12 1 3 0;
#X connect 13 0 12 0;
#X connect 14 0 2 0;
#X connect 14 1 3 0;
#X connect 15 0 14 0;
#X connect 16 0 2 0;
#X connect 16 1 3 0;
#X connect 17 0 16 0;
#X connect 18 0 2 0;
#X connect 18 1 3 0;
#X connect 19 0 18 0;
#X connect 20 0 2 0;
#X connect 20 1 3 0;
#X connect 21 0 20 0;
#X connect 22 0 2 0;
#X connect 22 1 3 0;
#X connect 23 0 22 0;
#X connect 24 0 2 0;
#X connect 24 1 3 0;
#X connect 25 0 24 0;
#X connect 26 0 11 0;
#X connect 26 0 13 0;
#X connect 26 0 15 0;
#X connect 26 0 17 0;
#X connect 26 0 19 0;
#X connect 26 0 21 0;
#X connect 26 0 23 0;
#X connect 26 0 25 0;
#X restore 132 528 pd fix-pan-mix8;
#X obj 170 607 dac~;
#X obj 155 567 hip~ 20;
#X obj 219 567 hip~ 20;
#N canvas 38 77 1559 922 s_loop_seq1 0;
#X obj -27 -165 inlet;
#X obj -25 378 select 0 1 2 3 4 5 6 7 8 9 10 11 12 13 14 15;
#X obj -42 -44 mod 16;
#X obj 279 674 spigot 1;
#X obj 130 149 hsl 640 8 0 15 0 0 empty empty empty -2 -8 0 10 -262144
-1 -1 46860 1;
#X text 17 -165 pos16;
#X obj -26 -74 change;
#X obj 111 121 nbx 3 14 -24 24 0 1 empty empty p 0 -8 0 10 -233017
-1 -262144 0 256;
#X obj 121 138 hsl 24 8 0 127 0 1 empty empty empty 0 -9 0 10 -262144
-1 -1 2300 1;
#X obj -20 -105 div 1;
#X obj 569 102 nbx 2 14 1 16 0 1 empty empty pl -12 7 0 10 -262144
-1 -1 1 256;
#X obj 599 102 nbx 2 14 2 16 0 1 empty empty empty -18 7 0 10 -262144
-1 -1 16 256;
#X obj -27 482 f;
#X obj -2 482 f;
#X obj -50 429 t b b;
#X obj 353 623 > 0;
#X obj 153 121 nbx 3 14 -24 24 0 1 empty empty empty 0 -8 0 10 -262144
-1 -262144 0 256;
#X obj 164 138 hsl 24 8 0 127 0 1 empty empty empty 0 -9 0 10 -262144
-1 -1 0 1;
#X obj 30 482 f;
#X obj 55 482 f;
#X obj 7 429 t b b;
#X obj 195 121 nbx 3 14 -24 24 0 1 empty empty empty 0 -8 0 10 -262144
-1 -262144 0 256;
#X obj 206 138 hsl 24 8 0 127 0 1 empty empty empty 0 -9 0 10 -262144
-1 -1 0 1;
#X obj 87 482 f;
#X obj 112 482 f;
#X obj 64 429 t b b;
#X obj 237 121 nbx 3 14 -24 24 0 1 empty empty empty 0 -8 0 10 -262144
-1 -262144 0 256;
#X obj 247 138 hsl 24 8 0 127 0 1 empty empty empty 0 -9 0 10 -262144
-1 -1 0 1;
#X obj 144 482 f;
#X obj 169 482 f;
#X obj 121 429 t b b;
#X obj 340 720 pack f f;
#X obj 279 121 nbx 3 14 -24 24 0 1 empty empty empty 0 -8 0 10 -262144
-1 -262144 0 256;
#X obj 289 138 hsl 24 8 0 127 0 1 empty empty empty 0 -9 0 10 -262144
-1 -1 0 1;
#X obj 204 481 f;
#X obj 229 481 f;
#X obj 181 428 t b b;
#X obj 321 121 nbx 3 14 -24 24 0 1 empty empty empty 0 -8 0 10 -262144
-1 -262144 0 256;
#X obj 331 138 hsl 24 8 0 127 0 1 empty empty empty 0 -9 0 10 -262144
-1 -1 0 1;
#X obj 261 481 f;
#X obj 286 481 f;
#X obj 238 428 t b b;
#X obj 363 121 nbx 3 14 -24 24 0 1 empty empty empty 0 -8 0 10 -262144
-1 -262144 0 256;
#X obj 373 138 hsl 24 8 0 127 0 1 empty empty empty 0 -9 0 10 -262144
-1 -1 0 1;
#X obj 318 481 f;
#X obj 343 481 f;
#X obj 295 428 t b b;
#X obj 405 121 nbx 3 14 -24 24 0 1 empty empty empty 0 -8 0 10 -262144
-1 -262144 0 256;
#X obj 416 138 hsl 24 8 0 127 0 1 empty empty empty 0 -9 0 10 -262144
-1 -1 0 1;
#X obj 375 481 f;
#X obj 400 481 f;
#X obj 352 428 t b b;
#X obj 447 121 nbx 3 14 -24 24 0 1 empty empty empty 0 -8 0 10 -262144
-1 -262144 0 256;
#X obj 457 138 hsl 24 8 0 127 0 1 empty empty empty 0 -9 0 10 -262144
-1 -1 0 1;
#X obj 443 482 f;
#X obj 468 482 f;
#X obj 420 429 t b b;
#X obj 489 121 nbx 3 14 -24 24 0 1 empty empty empty 0 -8 0 10 -262144
-1 -262144 0 256;
#X obj 499 138 hsl 24 8 0 127 0 1 empty empty empty 0 -9 0 10 -262144
-1 -1 0 1;
#X obj 500 482 f;
#X obj 525 482 f;
#X obj 477 429 t b b;
#X obj 531 121 nbx 3 14 -24 24 0 1 empty empty empty 0 -8 0 10 -262144
-1 -262144 0 256;
#X obj 541 138 hsl 24 8 0 127 0 1 empty empty empty 0 -9 0 10 -262144
-1 -1 0 1;
#X obj 557 482 f;
#X obj 582 482 f;
#X obj 534 429 t b b;
#X obj 573 121 nbx 3 14 -24 24 0 1 empty empty empty 0 -8 0 10 -233017
-1 -262144 -3 256;
#X obj 583 138 hsl 24 8 0 127 0 1 empty empty empty 0 -9 0 10 -262144
-1 -1 2300 1;
#X obj 614 482 f;
#X obj 639 482 f;
#X obj 591 429 t b b;
#X obj 615 121 nbx 3 14 -24 24 0 1 empty empty empty 0 -8 0 10 -262144
-1 -262144 0 256;
#X obj 625 138 hsl 24 8 0 127 0 1 empty empty empty 0 -9 0 10 -262144
-1 -1 0 1;
#X obj 674 481 f;
#X obj 699 481 f;
#X obj 651 428 t b b;
#X obj 657 121 nbx 3 14 -24 24 0 1 empty empty empty 0 -8 0 10 -262144
-1 -262144 0 256;
#X obj 667 138 hsl 24 8 0 127 0 1 empty empty empty 0 -9 0 10 -262144
-1 -1 0 1;
#X obj 731 481 f;
#X obj 756 481 f;
#X obj 708 428 t b b;
#X obj 699 121 nbx 3 14 -24 24 0 1 empty empty empty 0 -8 0 10 -262144
-1 -262144 0 256;
#X obj 709 138 hsl 24 8 0 127 0 1 empty empty empty 0 -9 0 10 -262144
-1 -1 0 1;
#X obj 788 481 f;
#X obj 813 481 f;
#X obj 765 428 t b b;
#X obj 741 121 nbx 3 14 -24 24 0 1 empty empty empty 0 -8 0 10 -262144
-1 -262144 0 256;
#X obj 751 138 hsl 24 8 0 127 0 1 empty empty empty 0 -9 0 10 -262144
-1 -1 0 1;
#X obj 845 481 f;
#X obj 870 481 f;
#X obj 822 428 t b b;
#N canvas 1 77 450 300 scol 0;
#X obj 72 28 inlet;
#X obj 41 251 outlet;
#X obj 74 66 > 0;
#X msg 49 144 color \$1;
#X obj 59 105 * 100;
#X connect 0 0 2 0;
#X connect 2 0 4 0;
#X connect 3 0 1 0;
#X connect 4 0 3 0;
#X restore -1 62 pd scol;
#N canvas 1 77 450 300 scol 0;
#X obj 72 28 inlet;
#X obj 41 251 outlet;
#X obj 74 66 > 0;
#X msg 49 144 color \$1;
#X obj 59 105 * 100;
#X connect 0 0 2 0;
#X connect 2 0 4 0;
#X connect 3 0 1 0;
#X connect 4 0 3 0;
#X restore 50 62 pd scol;
#N canvas 1 77 450 300 scol 0;
#X obj 72 28 inlet;
#X obj 41 251 outlet;
#X obj 74 66 > 0;
#X msg 49 144 color \$1;
#X obj 59 105 * 100;
#X connect 0 0 2 0;
#X connect 2 0 4 0;
#X connect 3 0 1 0;
#X connect 4 0 3 0;
#X restore 103 62 pd scol;
#N canvas 1 77 450 300 scol 0;
#X obj 72 28 inlet;
#X obj 41 251 outlet;
#X obj 74 66 > 0;
#X msg 49 144 color \$1;
#X obj 59 105 * 100;
#X connect 0 0 2 0;
#X connect 2 0 4 0;
#X connect 3 0 1 0;
#X connect 4 0 3 0;
#X restore 154 62 pd scol;
#N canvas 1 77 450 300 scol 0;
#X obj 72 28 inlet;
#X obj 41 251 outlet;
#X obj 74 66 > 0;
#X msg 49 144 color \$1;
#X obj 59 105 * 100;
#X connect 0 0 2 0;
#X connect 2 0 4 0;
#X connect 3 0 1 0;
#X connect 4 0 3 0;
#X restore 205 62 pd scol;
#N canvas 1 77 450 300 scol 0;
#X obj 72 28 inlet;
#X obj 41 251 outlet;
#X obj 74 66 > 0;
#X msg 49 144 color \$1;
#X obj 59 105 * 100;
#X connect 0 0 2 0;
#X connect 2 0 4 0;
#X connect 3 0 1 0;
#X connect 4 0 3 0;
#X restore 256 62 pd scol;
#N canvas 1 77 450 300 scol 0;
#X obj 72 28 inlet;
#X obj 41 251 outlet;
#X obj 74 66 > 0;
#X msg 49 144 color \$1;
#X obj 59 105 * 100;
#X connect 0 0 2 0;
#X connect 2 0 4 0;
#X connect 3 0 1 0;
#X connect 4 0 3 0;
#X restore 309 62 pd scol;
#N canvas 1 77 450 300 scol 0;
#X obj 72 28 inlet;
#X obj 41 251 outlet;
#X obj 74 66 > 0;
#X msg 49 144 color \$1;
#X obj 59 105 * 100;
#X connect 0 0 2 0;
#X connect 2 0 4 0;
#X connect 3 0 1 0;
#X connect 4 0 3 0;
#X restore 360 62 pd scol;
#N canvas 1 77 450 300 scol 0;
#X obj 72 28 inlet;
#X obj 41 251 outlet;
#X obj 74 66 > 0;
#X msg 49 144 color \$1;
#X obj 59 105 * 100;
#X connect 0 0 2 0;
#X connect 2 0 4 0;
#X connect 3 0 1 0;
#X connect 4 0 3 0;
#X restore 411 62 pd scol;
#N canvas 1 77 450 300 scol 0;
#X obj 72 28 inlet;
#X obj 41 251 outlet;
#X obj 74 66 > 0;
#X msg 49 144 color \$1;
#X obj 59 105 * 100;
#X connect 0 0 2 0;
#X connect 2 0 4 0;
#X connect 3 0 1 0;
#X connect 4 0 3 0;
#X restore 462 62 pd scol;
#N canvas 1 77 450 300 scol 0;
#X obj 72 28 inlet;
#X obj 41 251 outlet;
#X obj 74 66 > 0;
#X msg 49 144 color \$1;
#X obj 59 105 * 100;
#X connect 0 0 2 0;
#X connect 2 0 4 0;
#X connect 3 0 1 0;
#X connect 4 0 3 0;
#X restore 515 62 pd scol;
#N canvas 1 77 450 300 scol 0;
#X obj 72 28 inlet;
#X obj 41 251 outlet;
#X obj 74 66 > 0;
#X msg 49 144 color \$1;
#X obj 59 105 * 100;
#X connect 0 0 2 0;
#X connect 2 0 4 0;
#X connect 3 0 1 0;
#X connect 4 0 3 0;
#X restore 566 62 pd scol;
#N canvas 1 77 450 300 scol 0;
#X obj 72 28 inlet;
#X obj 41 251 outlet;
#X obj 74 66 > 0;
#X msg 49 144 color \$1;
#X obj 59 105 * 100;
#X connect 0 0 2 0;
#X connect 2 0 4 0;
#X connect 3 0 1 0;
#X connect 4 0 3 0;
#X restore 617 62 pd scol;
#N canvas 1 77 450 300 scol 0;
#X obj 72 28 inlet;
#X obj 41 251 outlet;
#X obj 74 66 > 0;
#X msg 49 144 color \$1;
#X obj 59 105 * 100;
#X connect 0 0 2 0;
#X connect 2 0 4 0;
#X connect 3 0 1 0;
#X connect 4 0 3 0;
#X restore 668 62 pd scol;
#N canvas 1 77 450 300 scol 0;
#X obj 72 28 inlet;
#X obj 41 251 outlet;
#X obj 74 66 > 0;
#X msg 49 144 color \$1;
#X obj 59 105 * 100;
#X connect 0 0 2 0;
#X connect 2 0 4 0;
#X connect 3 0 1 0;
#X connect 4 0 3 0;
#X restore 721 62 pd scol;
#N canvas 1 77 450 300 scol 0;
#X obj 72 28 inlet;
#X obj 41 251 outlet;
#X obj 74 66 > 0;
#X msg 49 144 color \$1;
#X obj 59 105 * 100;
#X connect 0 0 2 0;
#X connect 2 0 4 0;
#X connect 3 0 1 0;
#X connect 4 0 3 0;
#X restore 772 62 pd scol;
#X obj 130 179 hsl 640 8 0 15 0 0 empty empty empty -2 -8 0 10 -262144
-1 -1 38340 1;
#X obj 111 162 nbx 3 14 -1 99 0 1 empty empty empty 0 -8 0 10 -233017
-1 -262144 1 256;
#X obj 153 162 nbx 3 14 -1 99 0 1 empty empty empty 0 -8 0 10 -262144
-1 -262144 -1 256;
#N canvas 1 77 450 300 scol 0;
#X obj 72 28 inlet;
#X obj 41 251 outlet;
#X msg 49 144 color \$1;
#X obj 59 105 * 100;
#X obj 74 66 > -1;
#X connect 0 0 4 0;
#X connect 2 0 1 0;
#X connect 3 0 2 0;
#X connect 4 0 3 0;
#X restore 44 29 pd scol;
#X obj 195 162 nbx 3 14 -1 99 0 1 empty empty empty 0 -8 0 10 -262144
-1 -262144 -1 256;
#N canvas 1 77 450 300 scol 0;
#X obj 72 28 inlet;
#X obj 41 251 outlet;
#X msg 49 144 color \$1;
#X obj 59 105 * 100;
#X obj 74 66 > -1;
#X connect 0 0 4 0;
#X connect 2 0 1 0;
#X connect 3 0 2 0;
#X connect 4 0 3 0;
#X restore 96 28 pd scol;
#X obj 237 162 nbx 3 14 -1 99 0 1 empty empty empty 0 -8 0 10 -262144
-1 -262144 -1 256;
#N canvas 1 77 450 300 scol 0;
#X obj 72 28 inlet;
#X obj 41 251 outlet;
#X msg 49 144 color \$1;
#X obj 59 105 * 100;
#X obj 74 66 > -1;
#X connect 0 0 4 0;
#X connect 2 0 1 0;
#X connect 3 0 2 0;
#X connect 4 0 3 0;
#X restore 147 27 pd scol;
#X obj 760 582 select 0 1 2 3 4 5 6 7 8 9 10 11 12 13 14 15;
#X obj 49 -57 mod 16;
#X obj 70 -93 change;
#X obj 71 -118 div 1;
#X obj 279 162 nbx 3 14 -1 99 0 1 empty empty empty 0 -8 0 10 -262144
-1 -262144 -1 256;
#N canvas 1 77 450 300 scol 0;
#X obj 72 28 inlet;
#X obj 41 251 outlet;
#X msg 49 144 color \$1;
#X obj 59 105 * 100;
#X obj 74 66 > -1;
#X connect 0 0 4 0;
#X connect 2 0 1 0;
#X connect 3 0 2 0;
#X connect 4 0 3 0;
#X restore 200 28 pd scol;
#X obj 321 162 nbx 3 14 -1 99 0 1 empty empty empty 0 -8 0 10 -233017
-1 -262144 49 256;
#N canvas 1 77 450 300 scol 0;
#X obj 72 28 inlet;
#X obj 41 251 outlet;
#X obj 74 66 > 0;
#X msg 49 144 color \$1;
#X obj 59 105 * 100;
#X connect 0 0 2 0;
#X connect 2 0 4 0;
#X connect 3 0 1 0;
#X connect 4 0 3 0;
#X restore 251 27 pd scol;
#X obj 363 162 nbx 3 14 -1 99 0 1 empty empty empty 0 -8 0 10 -262144
-1 -262144 -1 256;
#N canvas 1 77 450 300 scol 0;
#X obj 72 28 inlet;
#X obj 41 251 outlet;
#X msg 49 144 color \$1;
#X obj 59 105 * 100;
#X obj 74 66 > -1;
#X connect 0 0 4 0;
#X connect 2 0 1 0;
#X connect 3 0 2 0;
#X connect 4 0 3 0;
#X restore 303 26 pd scol;
#X obj 405 162 nbx 3 14 0 99 0 1 empty empty empty 0 -8 0 10 -233017
-1 -262144 68 256;
#N canvas 1 77 450 300 scol 0;
#X obj 72 28 inlet;
#X obj 41 251 outlet;
#X msg 49 144 color \$1;
#X obj 59 105 * 100;
#X obj 74 66 > -1;
#X connect 0 0 4 0;
#X connect 2 0 1 0;
#X connect 3 0 2 0;
#X connect 4 0 3 0;
#X restore 354 25 pd scol;
#X obj 447 162 nbx 3 14 -1 99 0 1 empty empty empty 0 -8 0 10 -262144
-1 -262144 -1 256;
#N canvas 1 77 450 300 scol 0;
#X obj 72 28 inlet;
#X obj 41 251 outlet;
#X msg 49 144 color \$1;
#X obj 59 105 * 100;
#X obj 74 66 > -1;
#X connect 0 0 4 0;
#X connect 2 0 1 0;
#X connect 3 0 2 0;
#X connect 4 0 3 0;
#X restore 411 28 pd scol;
#X obj 489 162 nbx 3 14 -1 99 0 1 empty empty empty 0 -8 0 10 -262144
-1 -262144 -1 256;
#N canvas 1 77 450 300 scol 0;
#X obj 72 28 inlet;
#X obj 41 251 outlet;
#X msg 49 144 color \$1;
#X obj 59 105 * 100;
#X obj 74 66 > -1;
#X connect 0 0 4 0;
#X connect 2 0 1 0;
#X connect 3 0 2 0;
#X connect 4 0 3 0;
#X restore 462 27 pd scol;
#X obj 532 162 nbx 3 14 -1 99 0 1 empty empty empty 0 -8 0 10 -262144
-1 -262144 -1 256;
#N canvas 1 77 450 300 scol 0;
#X obj 72 28 inlet;
#X obj 41 251 outlet;
#X msg 49 144 color \$1;
#X obj 59 105 * 100;
#X obj 74 66 > -1;
#X connect 0 0 4 0;
#X connect 2 0 1 0;
#X connect 3 0 2 0;
#X connect 4 0 3 0;
#X restore 514 26 pd scol;
#X obj 573 162 nbx 3 14 -1 99 0 1 empty empty empty 0 -8 0 10 -262144
-1 -262144 -1 256;
#N canvas 1 77 450 300 scol 0;
#X obj 72 28 inlet;
#X obj 41 251 outlet;
#X msg 49 144 color \$1;
#X obj 59 105 * 100;
#X obj 74 66 > -1;
#X connect 0 0 4 0;
#X connect 2 0 1 0;
#X connect 3 0 2 0;
#X connect 4 0 3 0;
#X restore 565 25 pd scol;
#X obj 615 162 nbx 3 14 -1 99 0 1 empty empty empty 0 -8 0 10 -233017
-1 -262144 76 256;
#N canvas 1 77 450 300 scol 0;
#X obj 72 28 inlet;
#X obj 41 251 outlet;
#X msg 49 144 color \$1;
#X obj 59 105 * 100;
#X obj 74 66 > -1;
#X connect 0 0 4 0;
#X connect 2 0 1 0;
#X connect 3 0 2 0;
#X connect 4 0 3 0;
#X restore 618 26 pd scol;
#X obj 657 162 nbx 3 14 -1 99 0 1 empty empty empty 0 -8 0 10 -262144
-1 -262144 -1 256;
#N canvas 1 77 450 300 scol 0;
#X obj 72 28 inlet;
#X obj 41 251 outlet;
#X msg 49 144 color \$1;
#X obj 59 105 * 100;
#X obj 74 66 > -1;
#X connect 0 0 4 0;
#X connect 2 0 1 0;
#X connect 3 0 2 0;
#X connect 4 0 3 0;
#X restore 669 25 pd scol;
#X obj 699 162 nbx 3 14 -1 99 0 1 empty empty empty 0 -8 0 10 -262144
-1 -262144 -1 256;
#N canvas 1 77 450 300 scol 0;
#X obj 72 28 inlet;
#X obj 41 251 outlet;
#X msg 49 144 color \$1;
#X obj 59 105 * 100;
#X obj 74 66 > -1;
#X connect 0 0 4 0;
#X connect 2 0 1 0;
#X connect 3 0 2 0;
#X connect 4 0 3 0;
#X restore 721 24 pd scol;
#X obj 741 162 nbx 3 14 -1 99 0 1 empty empty empty 0 -8 0 10 -262144
-1 -262144 -1 256;
#N canvas 1 77 450 300 scol 0;
#X obj 72 28 inlet;
#X obj 41 251 outlet;
#X msg 49 144 color \$1;
#X obj 59 105 * 100;
#X obj 74 66 > -1;
#X connect 0 0 4 0;
#X connect 2 0 1 0;
#X connect 3 0 2 0;
#X connect 4 0 3 0;
#X restore 772 23 pd scol;
#X obj 643 654 f;
#X obj 673 654 f;
#X obj 703 654 f;
#X obj 733 654 f;
#X obj 763 654 f;
#X obj 793 654 f;
#X obj 823 654 f;
#X obj 853 654 f;
#X obj 883 654 f;
#X obj 913 654 f;
#X obj 943 654 f;
#X obj 973 654 f;
#X obj 1003 654 f;
#X obj 1033 654 f;
#X obj 1063 654 f;
#X obj 1093 654 f;
#X obj 643 102 nbx 2 14 1 16 0 1 empty empty sp -12 7 0 10 -262144
-1 -1 3 256;
#X obj 674 102 nbx 2 14 2 16 0 1 empty empty empty -18 7 0 10 -262144
-1 -1 16 256;
#X obj 143 -57 mod 16;
#X obj 164 -93 change;
#X obj 165 -118 div 1;
#X obj 719 102 nbx 2 14 1 16 0 1 empty empty ll -12 7 0 10 -262144
-1 -1 4 256;
#X obj 749 102 nbx 2 14 2 16 0 1 empty empty empty -18 7 0 10 -262144
-1 -1 14 256;
#X obj 130 209 hsl 640 8 0 15 0 0 empty empty empty -2 -8 0 10 -262144
-1 -1 0 1;
#X obj 111 192 nbx 3 14 0 99 0 1 empty empty empty 0 -8 0 10 -233017
-1 -262144 4 256;
#N canvas 1 77 450 300 scol 0;
#X obj 72 28 inlet;
#X obj 41 251 outlet;
#X obj 74 66 > 0;
#X msg 49 144 color \$1;
#X obj 59 105 * 100;
#X connect 0 0 2 0;
#X connect 2 0 4 0;
#X connect 3 0 1 0;
#X connect 4 0 3 0;
#X restore 5 1 pd scol;
#X obj 153 192 nbx 3 14 0 99 0 1 empty empty empty 0 -8 0 10 -262144
-1 -262144 0 256;
#N canvas 1 77 450 300 scol 0;
#X obj 72 28 inlet;
#X obj 41 251 outlet;
#X obj 74 66 > 0;
#X msg 49 144 color \$1;
#X obj 59 105 * 100;
#X connect 0 0 2 0;
#X connect 2 0 4 0;
#X connect 3 0 1 0;
#X connect 4 0 3 0;
#X restore 56 0 pd scol;
#X obj 195 192 nbx 3 14 0 99 0 1 empty empty empty 0 -8 0 10 -233017
-1 -262144 9 256;
#N canvas 1 77 450 300 scol 0;
#X obj 72 28 inlet;
#X obj 41 251 outlet;
#X obj 74 66 > 0;
#X msg 49 144 color \$1;
#X obj 59 105 * 100;
#X connect 0 0 2 0;
#X connect 2 0 4 0;
#X connect 3 0 1 0;
#X connect 4 0 3 0;
#X restore 108 -1 pd scol;
#X obj 237 192 nbx 3 14 0 99 0 1 empty empty empty 0 -8 0 10 -262144
-1 -262144 0 256;
#N canvas 1 77 450 300 scol 0;
#X obj 72 28 inlet;
#X obj 41 251 outlet;
#X obj 74 66 > 0;
#X msg 49 144 color \$1;
#X obj 59 105 * 100;
#X connect 0 0 2 0;
#X connect 2 0 4 0;
#X connect 3 0 1 0;
#X connect 4 0 3 0;
#X restore 159 -2 pd scol;
#X obj 1056 780 select 0 1 2 3 4 5 6 7 8 9 10 11 12 13 14 15;
#X obj 279 192 nbx 3 14 0 99 0 1 empty empty empty 0 -8 0 10 -262144
-1 -262144 0 256;
#N canvas 1 77 450 300 scol 0;
#X obj 72 28 inlet;
#X obj 41 251 outlet;
#X obj 74 66 > 0;
#X msg 49 144 color \$1;
#X obj 59 105 * 100;
#X connect 0 0 2 0;
#X connect 2 0 4 0;
#X connect 3 0 1 0;
#X connect 4 0 3 0;
#X restore 212 -1 pd scol;
#X obj 321 192 nbx 3 14 0 99 0 1 empty empty empty 0 -8 0 10 -233017
-1 -262144 0 256;
#N canvas 1 77 450 300 scol 0;
#X obj 72 28 inlet;
#X obj 41 251 outlet;
#X msg 49 144 color \$1;
#X obj 59 105 * 100;
#X obj 74 66 > -1;
#X connect 0 0 4 0;
#X connect 2 0 1 0;
#X connect 3 0 2 0;
#X connect 4 0 3 0;
#X restore 263 -2 pd scol;
#X obj 363 192 nbx 3 14 0 99 0 1 empty empty empty 0 -8 0 10 -262144
-1 -262144 0 256;
#N canvas 1 77 450 300 scol 0;
#X obj 72 28 inlet;
#X obj 41 251 outlet;
#X obj 74 66 > 0;
#X msg 49 144 color \$1;
#X obj 59 105 * 100;
#X connect 0 0 2 0;
#X connect 2 0 4 0;
#X connect 3 0 1 0;
#X connect 4 0 3 0;
#X restore 315 -3 pd scol;
#X obj 405 192 nbx 3 14 0 99 0 1 empty empty empty 0 -8 0 10 -262144
-1 -262144 0 256;
#N canvas 1 77 450 300 scol 0;
#X obj 72 28 inlet;
#X obj 41 251 outlet;
#X obj 74 66 > 0;
#X msg 49 144 color \$1;
#X obj 59 105 * 100;
#X connect 0 0 2 0;
#X connect 2 0 4 0;
#X connect 3 0 1 0;
#X connect 4 0 3 0;
#X restore 366 -4 pd scol;
#X obj 447 192 nbx 3 14 0 99 0 1 empty empty empty 0 -8 0 10 -233017
-1 -262144 7 256;
#N canvas 1 77 450 300 scol 0;
#X obj 72 28 inlet;
#X obj 41 251 outlet;
#X obj 74 66 > 0;
#X msg 49 144 color \$1;
#X obj 59 105 * 100;
#X connect 0 0 2 0;
#X connect 2 0 4 0;
#X connect 3 0 1 0;
#X connect 4 0 3 0;
#X restore 423 -1 pd scol;
#X obj 489 192 nbx 3 14 0 99 0 1 empty empty empty 0 -8 0 10 -262144
-1 -262144 0 256;
#N canvas 1 77 450 300 scol 0;
#X obj 72 28 inlet;
#X obj 41 251 outlet;
#X obj 74 66 > 0;
#X msg 49 144 color \$1;
#X obj 59 105 * 100;
#X connect 0 0 2 0;
#X connect 2 0 4 0;
#X connect 3 0 1 0;
#X connect 4 0 3 0;
#X restore 474 -2 pd scol;
#X obj 532 192 nbx 3 14 0 99 0 1 empty empty empty 0 -8 0 10 -233017
-1 -262144 11 256;
#N canvas 1 77 450 300 scol 0;
#X obj 72 28 inlet;
#X obj 41 251 outlet;
#X obj 74 66 > 0;
#X msg 49 144 color \$1;
#X obj 59 105 * 100;
#X connect 0 0 2 0;
#X connect 2 0 4 0;
#X connect 3 0 1 0;
#X connect 4 0 3 0;
#X restore 526 -3 pd scol;
#X obj 573 192 nbx 3 14 0 99 0 1 empty empty empty 0 -8 0 10 -262144
-1 -262144 0 256;
#N canvas 1 77 450 300 scol 0;
#X obj 72 28 inlet;
#X obj 41 251 outlet;
#X obj 74 66 > 0;
#X msg 49 144 color \$1;
#X obj 59 105 * 100;
#X connect 0 0 2 0;
#X connect 2 0 4 0;
#X connect 3 0 1 0;
#X connect 4 0 3 0;
#X restore 577 -4 pd scol;
#X obj 615 192 nbx 3 14 0 99 0 1 empty empty empty 0 -8 0 10 -262144
-1 -262144 0 256;
#N canvas 1 77 450 300 scol 0;
#X obj 72 28 inlet;
#X obj 41 251 outlet;
#X obj 74 66 > 0;
#X msg 49 144 color \$1;
#X obj 59 105 * 100;
#X connect 0 0 2 0;
#X connect 2 0 4 0;
#X connect 3 0 1 0;
#X connect 4 0 3 0;
#X restore 630 -3 pd scol;
#X obj 657 192 nbx 3 14 0 99 0 1 empty empty empty 0 -8 0 10 -233017
-1 -262144 6 256;
#N canvas 1 77 450 300 scol 0;
#X obj 72 28 inlet;
#X obj 41 251 outlet;
#X obj 74 66 > 0;
#X msg 49 144 color \$1;
#X obj 59 105 * 100;
#X connect 0 0 2 0;
#X connect 2 0 4 0;
#X connect 3 0 1 0;
#X connect 4 0 3 0;
#X restore 681 -4 pd scol;
#X obj 699 192 nbx 3 14 0 99 0 1 empty empty empty 0 -8 0 10 -262144
-1 -262144 0 256;
#N canvas 1 77 450 300 scol 0;
#X obj 72 28 inlet;
#X obj 41 251 outlet;
#X obj 74 66 > 0;
#X msg 49 144 color \$1;
#X obj 59 105 * 100;
#X connect 0 0 2 0;
#X connect 2 0 4 0;
#X connect 3 0 1 0;
#X connect 4 0 3 0;
#X restore 733 -5 pd scol;
#X obj 741 192 nbx 3 14 0 99 0 1 empty empty empty 0 -8 0 10 -262144
-1 -262144 0 256;
#N canvas 1 77 450 300 scol 0;
#X obj 72 28 inlet;
#X obj 41 251 outlet;
#X obj 74 66 > 0;
#X msg 49 144 color \$1;
#X obj 59 105 * 100;
#X connect 0 0 2 0;
#X connect 2 0 4 0;
#X connect 3 0 1 0;
#X connect 4 0 3 0;
#X restore 784 -6 pd scol;
#X obj 939 852 f;
#X obj 969 852 f;
#X obj 999 852 f;
#X obj 1029 852 f;
#X obj 1059 852 f;
#X obj 1089 852 f;
#X obj 1119 852 f;
#X obj 1149 852 f;
#X obj 1179 852 f;
#X obj 1209 852 f;
#X obj 1239 852 f;
#X obj 1269 852 f;
#X obj 1299 852 f;
#X obj 1329 852 f;
#X obj 1359 852 f;
#X obj 1389 852 f;
#X obj 1096 977 moses 0.001;
#X obj -5 1321 abs_samplelooper1;
#X msg -41 1073 bang;
#X obj 61 1450 outlet~;
#X obj 963 -41 inlet;
#X msg 34 933 set symbol \$1;
#X msg 8 1076 symbol /home/mnb/wave_wrk/karma2bbk123.wav;
#X text 969 -62 filename;
#X obj 338 102 hsl 48 15 0 1 0 1 empty empty smooth 2 8 0 10 -262144
-1 -1 0 1;
#X msg 304 954 1.05946;
#X obj 297 984 pow;
#X obj 330 925 t b f;
#X text 375 1007 2 pitch factor;
#X obj 330 903 * -1;
#X obj 292 1009 clip 0.0625 8;
#X obj 57 1192 soundfiler;
#X obj 71 1134 pack s s;
#X msg 66 1159 read -resize \$1 \$2;
#X obj 97 1106 t b a;
#X obj 3 896 t b a;
#X obj -48 1173 moses 10;
#X obj -58 797 loadbang;
#X obj 777 858 / 100;
#X obj 61 1416 *~;
#X obj 407 820 unpack f f;
#X obj 1084 1007 / 100;
#X obj 526 950 / 128;
#X obj 446 943 moses 0.1;
#X obj 401 102 hsl 48 15 0 1 0 1 empty empty decay 2 8 0 10 -262144
-1 -1 4700 1;
#X obj 586 1042 t f f;
#X obj 589 1067 *;
#X obj 581 1100 * 10000;
#X obj 182 1351 line~;
#X obj 529 1131 pack f f;
#X obj 496 1079 t b f;
#X msg 519 1107 0;
#X obj 567 1244 f;
#X obj 590 1208 select 1;
#X obj 589 1161 unpack f f;
#X obj 590 1184 > 9995;
#X obj 490 102 nbx 3 14 -24 24 0 1 empty empty tp -12 7 0 10 -262144
-1 -1 0 256;
#X obj 377 865 +;
#X text 101 174 sp;
#X text 102 205 ll;
#X text 101 142 pl;
#X obj 105 219 abs_sampler2_display_large_flat;
#X obj 109 260 hsl 635 8 0 1 0 0 empty empty empty -2 -8 0 10 -262144
-1 -1 0 1;
#X obj 7 334 / 100;
#N canvas 1 77 450 300 scol 0;
#X obj 72 28 inlet;
#X obj 41 251 outlet;
#X msg 49 144 color \$1;
#X obj 59 105 * 100;
#X obj 74 66 > -1;
#X connect 0 0 4 0;
#X connect 2 0 1 0;
#X connect 3 0 2 0;
#X connect 4 0 3 0;
#X restore -7 30 pd scol;
#X obj 800 779 moses 0;
#X obj 762 221 vradio 15 1 1 3 empty empty empty 0 -8 0 10 -262144
-1 -1 0;
#X obj 1169 1005 /;
#X obj 860 225 select 0 1 2;
#X msg 858 262 1;
#X msg 891 262 2;
#X msg 922 262 4;
#X obj 18 304 f;
#X obj -74 1134 metro 100;
#X connect 0 0 9 0;
#X connect 0 0 119 0;
#X connect 0 0 164 0;
#X connect 1 0 14 0;
#X connect 1 1 20 0;
#X connect 1 2 25 0;
#X connect 1 3 30 0;
#X connect 1 4 36 0;
#X connect 1 5 41 0;
#X connect 1 6 46 0;
#X connect 1 7 51 0;
#X connect 1 8 56 0;
#X connect 1 9 61 0;
#X connect 1 10 66 0;
#X connect 1 11 71 0;
#X connect 1 12 76 0;
#X connect 1 13 81 0;
#X connect 1 14 86 0;
#X connect 1 15 91 0;
#X connect 2 0 1 0;
#X connect 2 0 4 0;
#X connect 3 0 31 0;
#X connect 6 0 2 0;
#X connect 7 0 12 1;
#X connect 8 0 13 1;
#X connect 8 0 92 0;
#X connect 9 0 6 0;
#X connect 10 0 9 1;
#X connect 11 0 2 1;
#X connect 12 0 3 0;
#X connect 13 0 15 0;
#X connect 13 0 31 1;
#X connect 14 0 12 0;
#X connect 14 1 13 0;
#X connect 15 0 3 1;
#X connect 16 0 18 1;
#X connect 17 0 19 1;
#X connect 17 0 93 0;
#X connect 18 0 3 0;
#X connect 19 0 15 0;
#X connect 19 0 31 1;
#X connect 20 0 18 0;
#X connect 20 1 19 0;
#X connect 21 0 23 1;
#X connect 22 0 24 1;
#X connect 22 0 94 0;
#X connect 23 0 3 0;
#X connect 24 0 15 0;
#X connect 24 0 31 1;
#X connect 25 0 23 0;
#X connect 25 1 24 0;
#X connect 26 0 28 1;
#X connect 27 0 29 1;
#X connect 27 0 95 0;
#X connect 28 0 3 0;
#X connect 29 0 15 0;
#X connect 29 0 31 1;
#X connect 30 0 28 0;
#X connect 30 1 29 0;
#X connect 31 0 241 0;
#X connect 32 0 34 1;
#X connect 33 0 35 1;
#X connect 33 0 96 0;
#X connect 34 0 3 0;
#X connect 35 0 15 0;
#X connect 35 0 31 1;
#X connect 36 0 34 0;
#X connect 36 1 35 0;
#X connect 37 0 39 1;
#X connect 38 0 40 1;
#X connect 38 0 97 0;
#X connect 39 0 3 0;
#X connect 40 0 15 0;
#X connect 40 0 31 1;
#X connect 41 0 39 0;
#X connect 41 1 40 0;
#X connect 42 0 44 1;
#X connect 43 0 45 1;
#X connect 43 0 98 0;
#X connect 44 0 3 0;
#X connect 45 0 15 0;
#X connect 45 0 31 1;
#X connect 46 0 44 0;
#X connect 46 1 45 0;
#X connect 47 0 49 1;
#X connect 48 0 50 1;
#X connect 48 0 99 0;
#X connect 49 0 3 0;
#X connect 50 0 15 0;
#X connect 50 0 31 1;
#X connect 51 0 49 0;
#X connect 51 1 50 0;
#X connect 52 0 54 1;
#X connect 53 0 55 1;
#X connect 53 0 100 0;
#X connect 54 0 3 0;
#X connect 55 0 15 0;
#X connect 55 0 31 1;
#X connect 56 0 54 0;
#X connect 56 1 55 0;
#X connect 57 0 59 1;
#X connect 58 0 60 1;
#X connect 58 0 101 0;
#X connect 59 0 3 0;
#X connect 60 0 15 0;
#X connect 60 0 31 1;
#X connect 61 0 59 0;
#X connect 61 1 60 0;
#X connect 62 0 64 1;
#X connect 63 0 65 1;
#X connect 63 0 102 0;
#X connect 64 0 3 0;
#X connect 65 0 15 0;
#X connect 65 0 31 1;
#X connect 66 0 64 0;
#X connect 66 1 65 0;
#X connect 67 0 69 1;
#X connect 68 0 70 1;
#X connect 68 0 103 0;
#X connect 69 0 3 0;
#X connect 70 0 15 0;
#X connect 70 0 31 1;
#X connect 71 0 69 0;
#X connect 71 1 70 0;
#X connect 72 0 74 1;
#X connect 73 0 75 1;
#X connect 73 0 104 0;
#X connect 74 0 3 0;
#X connect 75 0 15 0;
#X connect 75 0 31 1;
#X connect 76 0 74 0;
#X connect 76 1 75 0;
#X connect 77 0 79 1;
#X connect 78 0 80 1;
#X connect 78 0 105 0;
#X connect 79 0 3 0;
#X connect 80 0 15 0;
#X connect 80 0 31 1;
#X connect 81 0 79 0;
#X connect 81 1 80 0;
#X connect 82 0 84 1;
#X connect 83 0 85 1;
#X connect 83 0 106 0;
#X connect 84 0 3 0;
#X connect 85 0 15 0;
#X connect 85 0 31 1;
#X connect 86 0 84 0;
#X connect 86 1 85 0;
#X connect 87 0 89 1;
#X connect 88 0 90 1;
#X connect 88 0 107 0;
#X connect 89 0 3 0;
#X connect 90 0 15 0;
#X connect 90 0 31 1;
#X connect 91 0 89 0;
#X connect 91 1 90 0;
#X connect 92 0 7 0;
#X connect 93 0 16 0;
#X connect 94 0 21 0;
#X connect 95 0 26 0;
#X connect 96 0 32 0;
#X connect 97 0 37 0;
#X connect 98 0 42 0;
#X connect 99 0 47 0;
#X connect 100 0 52 0;
#X connect 101 0 57 0;
#X connect 102 0 62 0;
#X connect 103 0 67 0;
#X connect 104 0 72 0;
#X connect 105 0 77 0;
#X connect 106 0 82 0;
#X connect 107 0 87 0;
#X connect 109 0 265 0;
#X connect 109 0 144 1;
#X connect 109 0 273 0;
#X connect 110 0 111 0;
#X connect 110 0 145 1;
#X connect 110 0 273 0;
#X connect 111 0 110 0;
#X connect 112 0 113 0;
#X connect 112 0 146 1;
#X connect 112 0 273 0;
#X connect 113 0 112 0;
#X connect 114 0 115 0;
#X connect 114 0 147 1;
#X connect 114 0 273 0;
#X connect 115 0 114 0;
#X connect 116 0 144 0;
#X connect 116 1 145 0;
#X connect 116 2 146 0;
#X connect 116 3 147 0;
#X connect 116 4 148 0;
#X connect 116 5 149 0;
#X connect 116 6 150 0;
#X connect 116 7 151 0;
#X connect 116 8 152 0;
#X connect 116 9 153 0;
#X connect 116 10 154 0;
#X connect 116 11 155 0;
#X connect 116 12 156 0;
#X connect 116 13 157 0;
#X connect 116 14 158 0;
#X connect 116 15 159 0;
#X connect 117 0 116 0;
#X connect 117 0 108 0;
#X connect 118 0 117 0;
#X connect 119 0 118 0;
#X connect 120 0 121 0;
#X connect 120 0 148 1;
#X connect 120 0 273 0;
#X connect 121 0 120 0;
#X connect 122 0 123 0;
#X connect 122 0 149 1;
#X connect 122 0 273 0;
#X connect 123 0 122 0;
#X connect 124 0 125 0;
#X connect 124 0 150 1;
#X connect 124 0 273 0;
#X connect 125 0 124 0;
#X connect 126 0 127 0;
#X connect 126 0 151 1;
#X connect 126 0 273 0;
#X connect 127 0 126 0;
#X connect 128 0 129 0;
#X connect 128 0 152 1;
#X connect 128 0 273 0;
#X connect 129 0 128 0;
#X connect 130 0 131 0;
#X connect 130 0 153 1;
#X connect 130 0 273 0;
#X connect 131 0 130 0;
#X connect 132 0 133 0;
#X connect 132 0 154 1;
#X connect 132 0 273 0;
#X connect 133 0 132 0;
#X connect 134 0 135 0;
#X connect 134 0 155 1;
#X connect 134 0 273 0;
#X connect 135 0 134 0;
#X connect 136 0 137 0;
#X connect 136 0 156 1;
#X connect 136 0 273 0;
#X connect 137 0 136 0;
#X connect 138 0 139 0;
#X connect 138 0 157 1;
#X connect 138 0 273 0;
#X connect 139 0 138 0;
#X connect 140 0 141 0;
#X connect 140 0 158 1;
#X connect 140 0 273 0;
#X connect 141 0 140 0;
#X connect 142 0 143 0;
#X connect 142 0 159 1;
#X connect 142 0 273 0;
#X connect 143 0 142 0;
#X connect 144 0 266 0;
#X connect 145 0 266 0;
#X connect 146 0 266 0;
#X connect 147 0 266 0;
#X connect 148 0 266 0;
#X connect 149 0 266 0;
#X connect 150 0 266 0;
#X connect 151 0 266 0;
#X connect 152 0 266 0;
#X connect 153 0 266 0;
#X connect 154 0 266 0;
#X connect 155 0 266 0;
#X connect 156 0 266 0;
#X connect 157 0 266 0;
#X connect 158 0 266 0;
#X connect 159 0 266 0;
#X connect 160 0 119 1;
#X connect 161 0 117 1;
#X connect 162 0 167 0;
#X connect 162 0 176 0;
#X connect 163 0 162 0;
#X connect 164 0 163 0;
#X connect 165 0 164 1;
#X connect 166 0 162 1;
#X connect 168 0 169 0;
#X connect 168 0 201 1;
#X connect 169 0 168 0;
#X connect 170 0 171 0;
#X connect 170 0 202 1;
#X connect 171 0 170 0;
#X connect 172 0 173 0;
#X connect 172 0 203 1;
#X connect 173 0 172 0;
#X connect 174 0 175 0;
#X connect 174 0 204 1;
#X connect 175 0 174 0;
#X connect 176 0 201 0;
#X connect 176 1 202 0;
#X connect 176 2 203 0;
#X connect 176 3 204 0;
#X connect 176 4 205 0;
#X connect 176 5 206 0;
#X connect 176 6 207 0;
#X connect 176 7 208 0;
#X connect 176 8 209 0;
#X connect 176 9 210 0;
#X connect 176 10 211 0;
#X connect 176 11 212 0;
#X connect 176 12 213 0;
#X connect 176 13 214 0;
#X connect 176 14 215 0;
#X connect 176 15 216 0;
#X connect 177 0 178 0;
#X connect 177 0 205 1;
#X connect 178 0 177 0;
#X connect 179 0 180 0;
#X connect 179 0 206 1;
#X connect 180 0 179 0;
#X connect 181 0 182 0;
#X connect 181 0 207 1;
#X connect 182 0 181 0;
#X connect 183 0 184 0;
#X connect 183 0 208 1;
#X connect 184 0 183 0;
#X connect 185 0 186 0;
#X connect 185 0 209 1;
#X connect 186 0 185 0;
#X connect 187 0 188 0;
#X connect 187 0 210 1;
#X connect 188 0 187 0;
#X connect 189 0 190 0;
#X connect 189 0 211 1;
#X connect 190 0 189 0;
#X connect 191 0 192 0;
#X connect 191 0 212 1;
#X connect 192 0 191 0;
#X connect 193 0 194 0;
#X connect 193 0 213 1;
#X connect 194 0 193 0;
#X connect 195 0 196 0;
#X connect 195 0 214 1;
#X connect 196 0 195 0;
#X connect 197 0 198 0;
#X connect 197 0 215 1;
#X connect 198 0 197 0;
#X connect 199 0 200 0;
#X connect 199 0 216 1;
#X connect 200 0 199 0;
#X connect 201 0 217 0;
#X connect 202 0 217 0;
#X connect 203 0 217 0;
#X connect 204 0 217 0;
#X connect 205 0 217 0;
#X connect 206 0 217 0;
#X connect 207 0 217 0;
#X connect 208 0 217 0;
#X connect 209 0 217 0;
#X connect 210 0 217 0;
#X connect 211 0 217 0;
#X connect 212 0 217 0;
#X connect 213 0 217 0;
#X connect 214 0 217 0;
#X connect 215 0 217 0;
#X connect 216 0 217 0;
#X connect 217 1 268 0;
#X connect 218 0 240 0;
#X connect 218 1 235 0;
#X connect 218 1 262 2;
#X connect 218 2 237 0;
#X connect 218 3 219 0;
#X connect 219 0 274 0;
#X connect 221 0 236 0;
#X connect 222 0 223 0;
#X connect 223 0 233 0;
#X connect 223 0 262 0;
#X connect 225 0 218 4;
#X connect 226 0 227 0;
#X connect 227 0 231 0;
#X connect 228 0 226 0;
#X connect 228 1 227 1;
#X connect 230 0 228 0;
#X connect 231 0 218 3;
#X connect 232 0 218 5;
#X connect 232 0 262 1;
#X connect 233 0 234 0;
#X connect 234 0 232 0;
#X connect 235 0 223 0;
#X connect 235 1 233 1;
#X connect 236 0 223 0;
#X connect 236 1 222 0;
#X connect 237 1 274 1;
#X connect 238 0 223 0;
#X connect 239 0 218 1;
#X connect 240 0 220 0;
#X connect 241 0 258 0;
#X connect 241 1 243 0;
#X connect 241 1 244 0;
#X connect 242 0 218 2;
#X connect 243 0 251 0;
#X connect 244 1 219 0;
#X connect 245 0 246 0;
#X connect 246 0 247 0;
#X connect 246 1 247 1;
#X connect 247 0 248 0;
#X connect 248 0 250 1;
#X connect 249 0 240 1;
#X connect 250 0 249 0;
#X connect 250 0 255 0;
#X connect 251 0 252 0;
#X connect 251 1 249 0;
#X connect 251 1 253 1;
#X connect 252 0 250 0;
#X connect 253 0 249 0;
#X connect 254 0 253 0;
#X connect 255 1 256 0;
#X connect 256 0 254 0;
#X connect 257 0 258 1;
#X connect 258 0 230 0;
#X connect 264 0 263 0;
#X connect 265 0 109 0;
#X connect 266 1 239 0;
#X connect 266 1 244 0;
#X connect 267 0 269 0;
#X connect 268 0 242 0;
#X connect 268 0 244 0;
#X connect 269 0 270 0;
#X connect 269 1 271 0;
#X connect 269 2 272 0;
#X connect 270 0 268 1;
#X connect 271 0 268 1;
#X connect 272 0 268 1;
#X connect 273 0 264 0;
#X connect 274 0 218 0;
#X coords 0 -1 1 1 680 170 1 100 100;
#X restore 23 113 pd s_loop_seq1;
#N canvas 1 84 486 449 swingpos 0;
#X obj 221 225 mod 2;
#X obj 188 302 delay 0;
#X obj 217 276 *;
#X obj 302 185 *;
#X obj 219 199 t b f f;
#X obj 106 118 hsl 64 8 0 0.4 0 1 empty empty empty -33 4 0 10 -262144
-1 -1 2100 1;
#X obj 229 330 int;
#X obj 199 32 inlet;
#X obj 371 17 inlet;
#X text 211 49 pos;
#X text 383 33 bpm;
#X text 96 136 swing factor;
#X obj 229 359 outlet;
#X msg 365 86 1;
#X obj 377 111 /;
#X obj 368 63 t f f;
#X obj 387 134 * 15000;
#X text 303 133 1/16 in ms;
#X connect 0 0 2 0;
#X connect 1 0 6 0;
#X connect 2 0 1 1;
#X connect 3 0 2 1;
#X connect 4 0 1 0;
#X connect 4 1 0 0;
#X connect 4 2 6 1;
#X connect 5 0 3 0;
#X connect 6 0 12 0;
#X connect 7 0 4 0;
#X connect 8 0 15 0;
#X connect 13 0 14 0;
#X connect 14 0 16 0;
#X connect 15 0 13 0;
#X connect 15 1 14 1;
#X connect 16 0 3 1;
#X coords 0 -1 1 1 75 30 1 100 100;
#X restore 89 73 pd swingpos;
#N canvas 216 80 1184 711 songpos96-16 0;
#X obj 318 440 + 1;
#X obj 267 436 float;
#X msg 206 296 1;
#X obj 218 321 /;
#X obj 209 273 t f f;
#X obj 228 344 * 15000;
#X obj 339 355 t b f;
#X obj 263 405 metro 125;
#X msg 340 329 -2;
#X obj 172 17 loadbang;
#X floatatom 126 113 5 30 300 0 bpm - -, f 5;
#X msg -2 85 set \$1;
#X msg 5 139 92;
#X obj 174 112 bng 15 250 50 0 empty empty empty 6 7 0 10 -261234 -1
-1;
#X obj 278 636 outlet;
#X obj 570 496 outlet;
#X text 618 497 bpm->;
#X obj 200 112 bng 15 50 20 0 empty empty empty 6 7 0 10 -204786 -1
-1;
#X obj 208 225 float;
#X obj 435 539 outlet;
#X text 144 343 1/16 in ms;
#X text 485 540 pos96->;
#X obj 259 373 / 6;
#X text 219 371 1/96;
#X obj 280 481 / 6;
#X obj 280 505 int;
#X obj 600 64 + 1;
#X obj 602 29 float;
#X obj 600 96 moses 2;
#X obj 600 155 timer;
#X obj 600 123 t b;
#X obj 648 122 t b b;
#X obj 653 243 /;
#X msg 623 221 60000;
#X obj 618 183 t b f;
#X obj 656 268 moses 10;
#X text 500 72 beatcounter;
#X obj 772 358 float;
#X obj 769 401 + 1;
#X obj 688 426 +;
#X obj 729 396 *;
#X obj 705 328 t f b;
#X obj 698 464 /;
#X msg 884 211 0;
#X text 499 302 mean (as seen on idafx blog);
#X obj 864 324 t f f;
#X obj 921 503 moses 0.1;
#X text 880 303 reset;
#X obj 870 366 /;
#X obj 849 431 < 0.75;
#X obj 903 435 > 1.25;
#X obj 869 391 t f f;
#X obj 877 471 ||;
#X obj 174 54 t b b b;
#X obj 43 -7 inlet;
#X obj 107 -11 inlet;
#X text 329 637 pos16->;
#X text 46 14 sync;
#X text 111 10 tap;
#X obj 279 530 change -1;
#X connect 0 0 1 1;
#X connect 0 0 24 0;
#X connect 0 0 19 0;
#X connect 1 0 0 0;
#X connect 2 0 3 0;
#X connect 3 0 5 0;
#X connect 4 0 2 0;
#X connect 4 1 3 1;
#X connect 5 0 22 0;
#X connect 6 0 7 0;
#X connect 6 1 1 0;
#X connect 7 0 1 0;
#X connect 8 0 6 0;
#X connect 9 0 53 0;
#X connect 10 0 11 0;
#X connect 10 0 18 1;
#X connect 11 0 12 0;
#X connect 12 0 10 0;
#X connect 13 0 8 0;
#X connect 13 0 18 0;
#X connect 17 0 27 0;
#X connect 18 0 4 0;
#X connect 18 0 15 0;
#X connect 22 0 7 1;
#X connect 24 0 25 0;
#X connect 25 0 59 0;
#X connect 26 0 27 1;
#X connect 26 0 28 0;
#X connect 27 0 26 0;
#X connect 28 0 30 0;
#X connect 28 1 31 0;
#X connect 29 0 34 0;
#X connect 29 0 45 0;
#X connect 30 0 29 0;
#X connect 31 0 29 0;
#X connect 31 1 29 1;
#X connect 32 0 35 0;
#X connect 33 0 32 0;
#X connect 34 0 33 0;
#X connect 34 1 32 1;
#X connect 35 1 41 0;
#X connect 37 0 38 0;
#X connect 37 0 40 0;
#X connect 38 0 37 1;
#X connect 38 0 42 1;
#X connect 39 0 42 0;
#X connect 40 0 39 1;
#X connect 41 0 39 0;
#X connect 41 1 37 0;
#X connect 42 0 40 1;
#X connect 42 0 10 0;
#X connect 43 0 37 1;
#X connect 43 0 27 1;
#X connect 45 0 48 1;
#X connect 45 1 48 0;
#X connect 46 1 43 0;
#X connect 48 0 51 0;
#X connect 49 0 52 0;
#X connect 50 0 52 1;
#X connect 51 0 49 0;
#X connect 51 1 50 0;
#X connect 52 0 46 0;
#X connect 53 0 13 0;
#X connect 53 1 13 0;
#X connect 53 2 12 0;
#X connect 54 0 13 0;
#X connect 55 0 17 0;
#X connect 59 0 14 0;
#X coords 0 -1 1 1 120 30 1 100 100;
#X restore 46 28 pd songpos96-16;
#X connect 0 0 2 0;
#X connect 1 0 15 1;
#X connect 2 0 1 0;
#X connect 3 0 1 0;
#X connect 4 0 1 0;
#X connect 5 0 1 0;
#X connect 6 0 1 0;
#X connect 7 0 8 0;
#X connect 7 1 9 0;
#X connect 7 2 10 0;
#X connect 8 0 11 1;
#X connect 9 0 11 2;
#X connect 10 0 11 3;
#X connect 11 0 13 0;
#X connect 11 1 14 0;
#X connect 13 0 12 0;
#X connect 14 0 12 1;
#X connect 15 0 11 0;
#X connect 16 0 7 0;
#X connect 17 0 16 0;
#X connect 17 0 15 0;
#X connect 17 2 16 1;
