#N canvas 550 385 1171 596 10;
#X floatatom 9 165 5 0 0 0 - - -, f 5;
#X floatatom 400 178 5 0 0 0 - - -, f 5;
#N canvas 247 104 1474 918 scene_sq1 0;
#X obj 201 -107 route 0 1 2 3 4 5 6 7 8 9 10 11 12 13 14 15;
#X obj 96 16 bng 10 250 50 0 empty empty 2 3 5 0 7 -262144 -1 -258113
;
#X obj 565 -252 * 6;
#X obj 1 26 cnv 8 95 8 empty empty empty 20 12 0 14 -99865 -66577 0
;
#X obj 97 26 cnv 8 94 8 empty empty empty 20 12 0 14 -191407 -66577
0;
#X obj 192 26 cnv 8 96 8 empty empty empty 20 12 0 14 -99865 -66577
0;
#X obj 289 26 cnv 8 95 8 empty empty empty 20 12 0 14 -191407 -66577
0;
#X obj 385 26 cnv 8 95 8 empty empty empty 20 12 0 14 -99865 -66577
0;
#X obj 481 26 cnv 8 96 8 empty empty empty 20 12 0 14 -191407 -66577
0;
#X obj 577 26 cnv 8 95 8 empty empty empty 20 12 0 14 -99865 -66577
0;
#X obj 673 26 cnv 8 95 8 empty empty empty 20 12 0 14 -191407 -66577
0;
#X msg 206 -133 \$1 pos \$2 \$3;
#X obj 517 -186 pack f f f;
#X obj 130 3 bng 10 250 50 0 empty empty 3 3 5 0 7 -262144 -1 -258113
;
#X obj 130 3 bng 10 250 50 0 empty empty 4 3 5 0 7 -262144 -1 -258113
;
#X obj 130 3 bng 10 250 50 0 empty empty 5 3 5 0 7 -262144 -1 -258113
;
#X obj 130 3 bng 10 250 50 0 empty empty 6 3 5 0 7 -262144 -1 -258113
;
#X obj 130 3 bng 10 250 50 0 empty empty 7 3 5 0 7 -262144 -1 -258113
;
#X obj 130 3 bng 10 250 50 0 empty empty 8 3 5 0 7 -262144 -1 -258113
;
#X obj 130 3 bng 10 250 50 0 empty empty 9 3 5 0 7 -262144 -1 -258113
;
#X obj 130 3 bng 10 250 50 0 empty empty 10 2 5 0 7 -262144 -1 -258113
;
#X obj 130 3 bng 10 250 50 0 empty empty 11 2 5 0 7 -262144 -1 -258113
;
#X obj 130 3 bng 10 250 50 0 empty empty 12 2 5 0 7 -262144 -1 -258113
;
#X obj 130 3 bng 10 250 50 0 empty empty 13 2 5 0 7 -262144 -1 -258113
;
#X obj 130 3 bng 10 250 50 0 empty empty 14 2 5 0 7 -262144 -1 -258113
;
#X obj 130 3 bng 10 250 50 0 empty empty 15 2 5 0 7 -262144 -1 -258113
;
#X obj 130 3 bng 10 250 50 0 empty empty 16 2 5 0 7 -262144 -1 -258113
;
#X msg -530 -400 0;
#X msg -500 -400 1;
#X msg -439 -400 3;
#X msg -469 -400 2;
#X msg -409 -400 4;
#X msg -379 -400 5;
#X msg -348 -400 6;
#X msg -319 -400 7;
#X msg -290 -400 8;
#X msg -260 -400 9;
#X msg -229 -400 10;
#X msg -199 -400 11;
#X msg -169 -400 12;
#X msg -139 -400 13;
#X msg -108 -400 14;
#X msg -79 -400 15;
#X obj 59 -321 int;
#X obj 83 -321 int;
#X obj 142 -358 route 0 1 2 3 4 5 6 7 8 9 10 11 12 13 14 15;
#X obj 108 -321 int;
#X obj 134 -321 int;
#X msg 186 -427 \$1 bang;
#X obj -123 -543 int;
#X obj 80 -388 route 0 1 2 3 4 5 6 7 8 9 10 11 12 13 14 15;
#X floatatom 629 2 5 1 16 0 - - -, f 5;
#X floatatom 724 2 5 0 128 0 - - -, f 5;
#X obj -37 -460 int;
#X obj -13 -430 pack f f;
#X obj 4 -497 t b f;
#X msg 733 -29 set \$1;
#X obj 161 -318 int;
#X obj 185 -318 int;
#X obj 210 -318 int;
#X obj 236 -318 int;
#X obj 264 -324 int;
#X obj 288 -324 int;
#X obj 313 -324 int;
#X obj 339 -324 int;
#X obj 366 -320 int;
#X obj 390 -320 int;
#X obj 415 -320 int;
#X obj 441 -320 int;
#X obj -126 -233 pack f f f f f f f f f f f f f f f f;
#X msg -126 -214 set \$1 \$2 \$3 \$4 \$5 \$6 \$7 \$8 \$9 \$10 \$11
\$12 \$13 \$14 \$15 \$16;
#X obj -111 -167 unpack f f f f f f f f f f f f f f f f;
#X msg 663 -133 set \$1;
#X text 598 0 nr;
#X text 688 0 pos;
#X obj 310 -551 int;
#X obj 341 -556 + 1;
#X obj 305 -581 until;
#X msg 350 -582 0;
#X obj 304 -604 t f b;
#X msg 219 -625 16;
#X obj 161 -656 loadbang;
#X obj 492 -310 moses 0;
#X obj 303 -215 int;
#X obj 3 -529 - 1;
#X obj 764 -73 + 1;
#X obj 311 -526 t f f;
#X msg 597 -249 16;
#X obj 538 -285 t f b;
#X obj 0 16 bng 10 250 50 0 empty empty 1 3 5 0 7 -166441 -1 -258113
;
#X obj 677 -165 + 1;
#X obj 582 -32 - 1;
#X msg 110 -112 \$1 color 0;
#X msg 102 -83 \$1 color 1;
#X obj -192 42 int;
#X obj -161 37 + 1;
#X obj -197 12 until;
#X msg -152 11 0;
#X obj -198 -16 t f b;
#X msg -201 -40 16;
#X obj -58 -501 t f b f;
#X obj 514 -518 int;
#X obj 546 -512 + 1;
#X obj 510 -540 until;
#X msg 556 -541 0;
#X obj 509 -568 t f b;
#X msg 534 -595 16;
#X obj 479 -718 inlet;
#X obj 598 -459 ==;
#X obj 511 -483 t f f;
#X obj 596 -300 outlet;
#X obj 598 -436 select 1;
#X obj 594 -373 int;
#X obj 307 -189 spigot 1;
#X obj 379 -208 spigot 0;
#X obj 557 -629 t b b f b;
#X msg 460 -600 1;
#X msg 467 -574 0;
#X msg 626 -583 1;
#X msg 659 -582 0;
#X obj 478 -683 mod;
#X obj 532 2 nbx 3 13 11 128 0 1 empty empty empty 0 -8 0 10 -262144
-1 -1 32 256;
#X text 506 0 len;
#X obj 4 31 hsl 762 8 0 127 0 0 empty empty empty -2 -8 0 10 -262144
-1 -1 1798 1;
#X obj 594 -350 + 1;
#X obj 711 3 bng 10 250 50 0 empty empty empty 17 7 0 10 -262144 -1
-1;
#X obj 758 3 bng 10 250 50 0 empty empty empty 17 7 0 10 -262144 -1
-1;
#X obj 815 -40 int;
#X obj 812 -17 + 1;
#X obj 810 64 int;
#X obj 807 87 - 1;
#X obj 727 58 moses 0;
#X obj 616 3 bng 10 250 50 0 empty empty empty 17 7 0 10 -262144 -1
-1;
#X obj 664 3 bng 10 250 50 0 empty empty empty 17 7 0 10 -262144 -1
-1;
#X obj 687 62 int;
#X obj 678 106 + 1;
#X obj 633 105 int;
#X obj 630 128 - 1;
#X obj 574 115 moses 1;
#X msg 214 -563 1;
#X obj 487 -276 t b b;
#X msg 511 -239 3;
#X obj 110 1 cnv 14 30 14 empty empty empty 20 12 0 14 -262144 -262144
0;
#X msg 479 -240 130;
#X text 520 -718 1/16 counter;
#X obj 745 -373 int;
#X obj 705 -397 t f b;
#X obj 677 -420 moses;
#X obj 704 -371 min;
#X obj 704 -444 + 1;
#X obj 787 -402 int;
#X obj 719 -350 change;
#X obj 843 -97 outlet;
#X obj 759 -282 int;
#X obj 761 -255 + 1;
#X obj 759 -316 t b;
#X obj 925 -357 int;
#X obj 883 -415 t f b;
#X obj 884 -355 min;
#X obj 837 -466 moses 0;
#X obj 878 -281 int;
#X obj 878 -261 + 1;
#X obj 882 -327 change;
#X obj 883 -304 t b;
#X text 852 -444 find min scene nr;
#X text 657 -462 find next higher nr;
#X text -396 -463 click->bang nr;
#X text 26 -343 scene pos memory;
#X text 278 -172 block ui while getting current;
#X text 548 -233 position bangs;
#X text -160 -24 bangs->white;
#X obj 743 -188 ==;
#X obj 846 -145 int;
#X obj 869 -234 int;
#X obj 797 -196 select 1;
#X obj 754 -167 change;
#X obj 764 -232 t f f;
#X text 710 -215 next nr greater or less;
#X text 108 -704 scene sequencer outputs a nr 1..16 at a position in
time 1..128 (for example 1/16 steps);
#X text 842 -82 next nr (only works if time moves forward);
#X text 591 -284 current nr output;
#X obj 796 33 clip 0 127;
#X obj 683 83 clip 0 15;
#X text 559 -649 find scene nr at current pos;
#X obj 593 -325 spigot 1;
#X obj 846 -123 spigot 1;
#X obj 454 3 tgl 10 1 empty empty out 17 7 0 10 -262144 -1 -1 1 1;
#X obj 959 185 outlet;
#X text 956 204 clicked scene nr;
#X obj -315 107 + 1;
#X obj 369 -453 spigot 0;
#X obj 160 -622 t b b b;
#X msg 411 -476 1;
#X msg -129 -190 0 16 -1 -1 -1 -1 -1 -1 -1 -1 -1 -1 -1 -1 -1 -1;
#X text 205 -456 prevent clear on 1st clock;
#X obj 579 3 bng 10 250 50 0 empty empty empty 17 7 0 10 -258113 -1
-1;
#X text 252 -430 update at every clock;
#X text -109 -148 store 2 msg/reatore from msg;
#X obj 363 147 int;
#X obj 394 142 + 1;
#X obj 358 117 until;
#X msg 403 116 0;
#X obj 361 85 t f b;
#X msg 363 62 16;
#X text 397 68 init;
#X obj 361 189 t f b;
#X msg 386 215 0;
#X connect 0 0 89 0;
#X connect 0 1 1 0;
#X connect 0 2 13 0;
#X connect 0 3 14 0;
#X connect 0 4 15 0;
#X connect 0 5 16 0;
#X connect 0 6 17 0;
#X connect 0 7 18 0;
#X connect 0 8 19 0;
#X connect 0 9 20 0;
#X connect 0 10 21 0;
#X connect 0 11 22 0;
#X connect 0 12 23 0;
#X connect 0 13 24 0;
#X connect 0 14 25 0;
#X connect 0 15 26 0;
#X connect 1 0 28 0;
#X connect 2 0 12 1;
#X connect 11 0 0 0;
#X connect 12 0 11 0;
#X connect 13 0 30 0;
#X connect 14 0 29 0;
#X connect 15 0 31 0;
#X connect 16 0 32 0;
#X connect 17 0 33 0;
#X connect 18 0 34 0;
#X connect 19 0 35 0;
#X connect 20 0 36 0;
#X connect 21 0 37 0;
#X connect 22 0 38 0;
#X connect 23 0 39 0;
#X connect 24 0 40 0;
#X connect 25 0 41 0;
#X connect 26 0 42 0;
#X connect 27 0 49 0;
#X connect 28 0 49 0;
#X connect 29 0 49 0;
#X connect 30 0 49 0;
#X connect 31 0 49 0;
#X connect 32 0 49 0;
#X connect 33 0 49 0;
#X connect 34 0 49 0;
#X connect 35 0 49 0;
#X connect 36 0 49 0;
#X connect 37 0 49 0;
#X connect 38 0 49 0;
#X connect 39 0 49 0;
#X connect 40 0 49 0;
#X connect 41 0 49 0;
#X connect 42 0 49 0;
#X connect 43 0 69 0;
#X connect 43 0 83 0;
#X connect 44 0 69 1;
#X connect 44 0 83 0;
#X connect 45 0 43 0;
#X connect 45 1 44 0;
#X connect 45 2 46 0;
#X connect 45 3 47 0;
#X connect 45 4 57 0;
#X connect 45 5 58 0;
#X connect 45 6 59 0;
#X connect 45 7 60 0;
#X connect 45 8 61 0;
#X connect 45 9 62 0;
#X connect 45 10 63 0;
#X connect 45 11 64 0;
#X connect 45 12 65 0;
#X connect 45 13 66 0;
#X connect 45 14 67 0;
#X connect 45 15 68 0;
#X connect 46 0 69 2;
#X connect 46 0 83 0;
#X connect 47 0 69 3;
#X connect 47 0 83 0;
#X connect 48 0 45 0;
#X connect 49 0 100 0;
#X connect 49 0 189 0;
#X connect 50 0 43 1;
#X connect 50 1 44 1;
#X connect 50 2 46 1;
#X connect 50 3 47 1;
#X connect 50 4 57 1;
#X connect 50 5 58 1;
#X connect 50 6 59 1;
#X connect 50 7 60 1;
#X connect 50 8 61 1;
#X connect 50 9 62 1;
#X connect 50 10 63 1;
#X connect 50 11 64 1;
#X connect 50 12 65 1;
#X connect 50 13 66 1;
#X connect 50 14 67 1;
#X connect 50 15 68 1;
#X connect 51 0 91 0;
#X connect 51 0 134 1;
#X connect 51 0 136 1;
#X connect 52 0 84 0;
#X connect 52 0 127 1;
#X connect 52 0 181 0;
#X connect 53 0 54 0;
#X connect 53 0 86 0;
#X connect 54 0 50 0;
#X connect 55 0 53 0;
#X connect 55 1 54 1;
#X connect 56 0 52 0;
#X connect 57 0 69 4;
#X connect 57 0 83 0;
#X connect 58 0 69 5;
#X connect 58 0 83 0;
#X connect 59 0 69 6;
#X connect 59 0 83 0;
#X connect 60 0 69 7;
#X connect 60 0 83 0;
#X connect 61 0 69 8;
#X connect 61 0 83 0;
#X connect 62 0 69 9;
#X connect 62 0 83 0;
#X connect 63 0 69 10;
#X connect 63 0 83 0;
#X connect 64 0 69 11;
#X connect 64 0 83 0;
#X connect 65 0 69 12;
#X connect 65 0 83 0;
#X connect 66 0 69 13;
#X connect 66 0 83 0;
#X connect 67 0 69 14;
#X connect 67 0 83 0;
#X connect 68 0 69 15;
#X connect 68 0 83 0;
#X connect 69 0 70 0;
#X connect 70 0 193 0;
#X connect 71 0 43 1;
#X connect 71 1 44 1;
#X connect 71 2 46 1;
#X connect 71 3 47 1;
#X connect 71 4 57 1;
#X connect 71 5 58 1;
#X connect 71 6 59 1;
#X connect 71 7 60 1;
#X connect 71 8 61 1;
#X connect 71 9 62 1;
#X connect 71 10 63 1;
#X connect 71 11 64 1;
#X connect 71 12 65 1;
#X connect 71 13 66 1;
#X connect 71 14 67 1;
#X connect 71 15 68 1;
#X connect 72 0 51 0;
#X connect 75 0 76 0;
#X connect 75 0 86 0;
#X connect 76 0 75 1;
#X connect 77 0 75 0;
#X connect 78 0 75 1;
#X connect 79 0 77 0;
#X connect 79 1 78 0;
#X connect 80 0 79 0;
#X connect 81 0 191 0;
#X connect 82 0 140 0;
#X connect 82 1 88 0;
#X connect 83 0 113 0;
#X connect 83 0 114 0;
#X connect 84 0 55 0;
#X connect 85 0 56 0;
#X connect 85 0 127 1;
#X connect 85 0 129 1;
#X connect 86 0 12 0;
#X connect 86 1 48 0;
#X connect 87 0 12 2;
#X connect 88 0 2 0;
#X connect 88 1 87 0;
#X connect 89 0 27 0;
#X connect 90 0 72 0;
#X connect 90 0 134 1;
#X connect 90 0 136 1;
#X connect 91 0 49 0;
#X connect 92 0 0 0;
#X connect 93 0 0 0;
#X connect 94 0 95 0;
#X connect 94 0 92 0;
#X connect 95 0 94 1;
#X connect 96 0 94 0;
#X connect 97 0 94 1;
#X connect 98 0 96 0;
#X connect 98 1 97 0;
#X connect 99 0 98 0;
#X connect 100 0 93 0;
#X connect 100 1 99 0;
#X connect 100 2 53 1;
#X connect 100 2 48 0;
#X connect 100 2 90 0;
#X connect 101 0 102 0;
#X connect 101 0 109 0;
#X connect 102 0 101 1;
#X connect 103 0 101 0;
#X connect 104 0 101 1;
#X connect 105 0 103 0;
#X connect 105 1 104 0;
#X connect 106 0 105 0;
#X connect 107 0 120 0;
#X connect 108 0 111 0;
#X connect 109 0 190 0;
#X connect 109 1 112 1;
#X connect 109 1 153 1;
#X connect 109 1 160 1;
#X connect 111 0 112 0;
#X connect 112 0 124 0;
#X connect 113 0 85 0;
#X connect 113 0 82 0;
#X connect 114 0 108 0;
#X connect 114 0 147 0;
#X connect 114 0 159 0;
#X connect 115 0 116 0;
#X connect 115 0 117 0;
#X connect 115 0 171 0;
#X connect 115 1 106 0;
#X connect 115 2 108 1;
#X connect 115 2 149 0;
#X connect 115 3 118 0;
#X connect 115 3 119 0;
#X connect 115 3 150 0;
#X connect 116 0 113 1;
#X connect 117 0 114 1;
#X connect 118 0 114 1;
#X connect 119 0 113 1;
#X connect 120 0 115 0;
#X connect 120 0 123 0;
#X connect 121 0 120 1;
#X connect 121 0 150 1;
#X connect 124 0 171 1;
#X connect 124 0 184 0;
#X connect 125 0 129 0;
#X connect 126 0 127 0;
#X connect 127 0 128 0;
#X connect 128 0 52 0;
#X connect 129 0 130 0;
#X connect 130 0 131 0;
#X connect 131 1 52 0;
#X connect 132 0 136 0;
#X connect 133 0 134 0;
#X connect 134 0 182 0;
#X connect 135 0 51 0;
#X connect 136 0 137 0;
#X connect 137 0 138 0;
#X connect 138 1 51 0;
#X connect 139 0 51 0;
#X connect 140 0 143 0;
#X connect 140 1 141 0;
#X connect 141 0 12 2;
#X connect 143 0 12 1;
#X connect 145 0 148 1;
#X connect 146 0 148 0;
#X connect 146 1 145 0;
#X connect 147 1 146 0;
#X connect 148 0 145 1;
#X connect 148 0 151 0;
#X connect 149 0 147 1;
#X connect 150 0 145 1;
#X connect 150 0 156 1;
#X connect 151 0 155 0;
#X connect 153 0 154 0;
#X connect 154 0 176 0;
#X connect 155 0 153 0;
#X connect 156 0 158 1;
#X connect 157 0 158 0;
#X connect 157 1 156 0;
#X connect 158 0 156 1;
#X connect 158 0 162 0;
#X connect 159 1 157 0;
#X connect 160 0 161 0;
#X connect 161 0 173 1;
#X connect 162 0 163 0;
#X connect 163 0 160 0;
#X connect 171 0 175 0;
#X connect 172 0 185 0;
#X connect 173 0 172 0;
#X connect 174 0 173 0;
#X connect 175 0 174 0;
#X connect 176 0 171 0;
#X connect 176 1 172 0;
#X connect 181 0 129 1;
#X connect 182 0 135 0;
#X connect 184 0 110 0;
#X connect 185 0 152 0;
#X connect 186 0 184 1;
#X connect 186 0 185 1;
#X connect 189 0 187 0;
#X connect 190 0 48 0;
#X connect 191 0 192 0;
#X connect 191 1 80 0;
#X connect 191 2 193 0;
#X connect 191 2 139 0;
#X connect 192 0 190 1;
#X connect 193 0 71 0;
#X connect 195 0 203 0;
#X connect 198 0 199 0;
#X connect 198 0 205 0;
#X connect 199 0 198 1;
#X connect 200 0 198 0;
#X connect 201 0 198 1;
#X connect 202 0 200 0;
#X connect 202 1 201 0;
#X connect 203 0 202 0;
#X connect 205 0 100 0;
#X connect 205 1 206 0;
#X connect 206 0 84 0;
#X coords 0 -1 1 1 770 40 1 0 0;
#X restore 9 93 pd scene_sq1;
#N canvas 218 81 1184 711 songpos96-16 0;
#X obj 318 440 + 1;
#X obj 267 436 float;
#X msg 206 296 1;
#X obj 218 321 /;
#X obj 209 273 t f f;
#X obj 228 344 * 15000;
#X obj 339 355 t b f;
#X obj 263 405 metro 125;
#X msg 340 329 -2;
#X obj 172 17 loadbang;
#X floatatom 126 113 5 30 300 0 bpm - -, f 5;
#X msg -2 85 set \$1;
#X msg 5 139 110;
#X obj 174 112 bng 15 250 50 0 empty empty empty 6 7 0 10 -261234 -1
-1;
#X obj 278 636 outlet;
#X obj 570 496 outlet;
#X text 618 497 bpm->;
#X obj 200 112 bng 15 50 20 0 empty empty empty 6 7 0 10 -204786 -1
-1;
#X obj 208 225 float;
#X obj 435 539 outlet;
#X text 144 343 1/16 in ms;
#X text 485 540 pos96->;
#X obj 259 373 / 6;
#X text 219 371 1/96;
#X obj 280 481 / 6;
#X obj 280 505 int;
#X obj 279 530 change;
#X obj 600 64 + 1;
#X obj 602 29 float;
#X obj 600 96 moses 2;
#X obj 600 155 timer;
#X obj 600 123 t b;
#X obj 648 122 t b b;
#X obj 653 243 /;
#X msg 623 221 60000;
#X obj 618 183 t b f;
#X obj 656 268 moses 10;
#X text 500 72 beatcounter;
#X obj 772 358 float;
#X obj 769 401 + 1;
#X obj 688 426 +;
#X obj 729 396 *;
#X obj 705 328 t f b;
#X obj 698 464 /;
#X msg 884 211 0;
#X text 499 302 mean (as seen on idafx blog);
#X obj 864 324 t f f;
#X obj 921 503 moses 0.1;
#X text 880 303 reset;
#X obj 870 366 /;
#X obj 849 431 < 0.75;
#X obj 903 435 > 1.25;
#X obj 869 391 t f f;
#X obj 877 471 ||;
#X obj 174 54 t b b b;
#X obj 43 -7 inlet;
#X obj 107 -11 inlet;
#X text 329 637 pos16->;
#X text 46 14 sync;
#X text 111 10 tap;
#X connect 0 0 1 1;
#X connect 0 0 24 0;
#X connect 0 0 19 0;
#X connect 1 0 0 0;
#X connect 2 0 3 0;
#X connect 3 0 5 0;
#X connect 4 0 2 0;
#X connect 4 1 3 1;
#X connect 5 0 22 0;
#X connect 6 0 7 0;
#X connect 6 1 1 0;
#X connect 7 0 1 0;
#X connect 8 0 6 0;
#X connect 9 0 54 0;
#X connect 10 0 11 0;
#X connect 10 0 18 1;
#X connect 11 0 12 0;
#X connect 12 0 10 0;
#X connect 13 0 8 0;
#X connect 13 0 18 0;
#X connect 17 0 28 0;
#X connect 18 0 4 0;
#X connect 18 0 15 0;
#X connect 22 0 7 1;
#X connect 24 0 25 0;
#X connect 25 0 26 0;
#X connect 26 0 14 0;
#X connect 27 0 28 1;
#X connect 27 0 29 0;
#X connect 28 0 27 0;
#X connect 29 0 31 0;
#X connect 29 1 32 0;
#X connect 30 0 35 0;
#X connect 30 0 46 0;
#X connect 31 0 30 0;
#X connect 32 0 30 0;
#X connect 32 1 30 1;
#X connect 33 0 36 0;
#X connect 34 0 33 0;
#X connect 35 0 34 0;
#X connect 35 1 33 1;
#X connect 36 1 42 0;
#X connect 38 0 39 0;
#X connect 38 0 41 0;
#X connect 39 0 38 1;
#X connect 39 0 43 1;
#X connect 40 0 43 0;
#X connect 41 0 40 1;
#X connect 42 0 40 0;
#X connect 42 1 38 0;
#X connect 43 0 41 1;
#X connect 43 0 10 0;
#X connect 44 0 38 1;
#X connect 44 0 28 1;
#X connect 46 0 49 1;
#X connect 46 1 49 0;
#X connect 47 1 44 0;
#X connect 49 0 52 0;
#X connect 50 0 53 0;
#X connect 51 0 53 1;
#X connect 52 0 50 0;
#X connect 52 1 51 0;
#X connect 53 0 47 0;
#X connect 54 0 13 0;
#X connect 54 1 13 0;
#X connect 54 2 12 0;
#X connect 55 0 13 0;
#X connect 56 0 17 0;
#X coords 0 -1 1 1 120 30 1 100 100;
#X restore 49 14 pd songpos96-16;
#X floatatom 774 170 5 0 0 0 - - -, f 5;
#X text 777 188 clicked nr;
#X text 403 194 next nr;
#X text 6 181 current nr;
#X floatatom 7 361 5 0 0 0 - - -, f 5;
#X text 4 377 current nr;
#X floatatom 791 389 5 0 0 0 - - -, f 5;
#X floatatom 405 391 5 0 0 0 - - -, f 5;
#X text 408 407 next nr;
#X text 229 74 old version \, for historical reasons...;
#N canvas 168 77 1701 999 scene_sq1b 0;
#X obj 201 -107 route 0 1 2 3 4 5 6 7 8 9 10 11 12 13 14 15;
#X obj 120 16 bng 10 250 50 0 empty empty 2 3 5 0 7 -262144 -1 -258113
;
#X obj 534 -299 * 6;
#X obj 1 26 cnv 8 95 8 empty empty empty 20 12 0 14 -99865 -66577 0
;
#X obj 97 26 cnv 8 94 8 empty empty empty 20 12 0 14 -191407 -66577
0;
#X obj 192 26 cnv 8 96 8 empty empty empty 20 12 0 14 -99865 -66577
0;
#X obj 289 26 cnv 8 95 8 empty empty empty 20 12 0 14 -191407 -66577
0;
#X obj 385 26 cnv 8 95 8 empty empty empty 20 12 0 14 -99865 -66577
0;
#X obj 481 26 cnv 8 96 8 empty empty empty 20 12 0 14 -191407 -66577
0;
#X obj 577 26 cnv 8 95 8 empty empty empty 20 12 0 14 -99865 -66577
0;
#X obj 673 26 cnv 8 95 8 empty empty empty 20 12 0 14 -191407 -66577
0;
#X msg 206 -133 \$1 pos \$2 \$3;
#X obj 486 -233 pack f f f;
#X obj 168 16 bng 10 250 50 0 empty empty 3 3 5 0 7 -262144 -1 -258113
;
#X obj 276 16 bng 10 250 50 0 empty empty 4 3 5 0 7 -262144 -1 -258113
;
#X obj 210 16 bng 10 250 50 0 empty empty 5 3 5 0 7 -262144 -1 -258113
;
#X obj 130 3 bng 10 250 50 0 empty empty 6 3 5 0 7 -262144 -1 -258113
;
#X obj 130 3 bng 10 250 50 0 empty empty 7 3 5 0 7 -262144 -1 -258113
;
#X obj 130 3 bng 10 250 50 0 empty empty 8 3 5 0 7 -262144 -1 -258113
;
#X obj 130 3 bng 10 250 50 0 empty empty 9 3 5 0 7 -262144 -1 -258113
;
#X obj 130 3 bng 10 250 50 0 empty empty 10 2 5 0 7 -262144 -1 -258113
;
#X obj 130 3 bng 10 250 50 0 empty empty 11 2 5 0 7 -262144 -1 -258113
;
#X obj 130 3 bng 10 250 50 0 empty empty 12 2 5 0 7 -262144 -1 -258113
;
#X obj 130 3 bng 10 250 50 0 empty empty 13 2 5 0 7 -262144 -1 -258113
;
#X obj 130 3 bng 10 250 50 0 empty empty 14 2 5 0 7 -262144 -1 -258113
;
#X obj 130 3 bng 10 250 50 0 empty empty 15 2 5 0 7 -262144 -1 -258113
;
#X obj 130 3 bng 10 250 50 0 empty empty 16 2 5 0 7 -262144 -1 -258113
;
#X msg -530 -400 0;
#X msg -500 -400 1;
#X msg -439 -400 3;
#X msg -469 -400 2;
#X msg -409 -400 4;
#X msg -379 -400 5;
#X msg -348 -400 6;
#X msg -319 -400 7;
#X msg -290 -400 8;
#X msg -260 -400 9;
#X msg -229 -400 10;
#X msg -199 -400 11;
#X msg -169 -400 12;
#X msg -139 -400 13;
#X msg -108 -400 14;
#X msg -79 -400 15;
#X obj 13 -536 int;
#X floatatom 633 2 5 1 16 0 - - -, f 5;
#X floatatom 728 2 5 0 128 0 - - -, f 5;
#X msg 687 -35 set \$1;
#X msg 595 -45 set \$1;
#X text 602 0 nr;
#X text 692 0 pos;
#X obj 161 -656 loadbang;
#X obj 366 -378 moses 0;
#X msg 566 -296 16;
#X obj 507 -332 t f b;
#X obj 48 16 bng 10 250 50 0 empty empty 1 3 5 0 7 -166441 -1 -258113
;
#X obj 499 -87 + 1;
#X obj 253 -256 - 1;
#X msg 110 -112 \$1 color 0;
#X msg 102 -83 \$1 color 1;
#X obj -192 42 int;
#X obj -161 37 + 1;
#X obj -197 12 until;
#X msg -152 11 0;
#X obj -198 -16 t f b;
#X msg -201 -40 16;
#X obj 703 -467 int;
#X obj 735 -461 + 1;
#X obj 699 -489 until;
#X msg 745 -490 0;
#X obj 698 -517 t f b;
#X msg 694 -541 16;
#X obj 479 -718 inlet;
#X obj 814 -436 ==;
#X obj 700 -432 t f f;
#X obj 830 -263 outlet;
#X obj 814 -413 select 1;
#X obj 810 -350 int;
#X obj 478 -683 mod;
#X obj 536 2 nbx 3 13 11 128 0 1 empty empty empty 0 -8 0 10 -262144
-1 -1 48 256;
#X text 510 0 len;
#X obj 4 31 hsl 762 8 0 127 0 0 empty empty empty -2 -8 0 10 -262144
-1 -1 11385 1;
#X obj 811 -329 + 1;
#X obj 715 3 bng 10 250 50 0 empty empty empty 17 7 0 10 -262144 -1
-1;
#X obj 762 3 bng 10 250 50 0 empty empty empty 17 7 0 10 -262144 -1
-1;
#X obj 815 -40 int;
#X obj 812 -17 + 1;
#X obj 815 60 int;
#X obj 807 87 - 1;
#X obj 727 58 moses 0;
#X obj 620 3 bng 10 250 50 0 empty empty empty 17 7 0 10 -262144 -1
-1;
#X obj 668 3 bng 10 250 50 0 empty empty empty 17 7 0 10 -262144 -1
-1;
#X obj 686 113 int;
#X obj 677 157 + 1;
#X obj 633 105 int;
#X obj 630 128 - 1;
#X obj 575 115 moses 1;
#X msg 229 -585 1;
#X obj 456 -323 t b b;
#X msg 480 -286 3;
#X obj 110 1 cnv 14 30 14 empty empty empty 20 12 0 14 -262144 -262144
0;
#X msg 448 -287 130;
#X text 520 -718 1/16 counter;
#X text -396 -463 click->bang nr;
#X text -160 -24 bangs->white;
#X text 108 -704 scene sequencer outputs a nr 1..16 at a position in
time 1..128 (for example 1/16 steps);
#X text 825 -247 current nr output;
#X obj 682 134 clip 0 15;
#X text 659 -627 find scene nr at current pos;
#X obj 583 3 bng 10 250 50 0 empty empty empty 17 7 0 10 -258113 -1
-1;
#X obj 333 195 int;
#X obj 376 200 + 1;
#X obj 328 165 until;
#X msg 385 174 0;
#X obj 331 133 t f b;
#X msg 333 110 16;
#X text 406 145 init;
#X obj 391 -283 int;
#X obj 234 231 t f b;
#X obj 197 -188 t f b;
#X text 517 -280 position the bangs;
#X obj 422 -393 delay 50;
#X obj 506 -141 abs_table1 16;
#X text 40 -533 selected nr;
#X obj 400 235 t b f;
#X obj 57 186 int;
#X obj 88 181 + 1;
#X obj 52 156 until;
#X msg 97 155 0;
#X obj 51 128 t f b;
#X msg 48 104 16;
#X obj 52 218 t f f;
#X obj 328 -408 - 1;
#X msg 429 274 -1;
#X obj 834 33 clip 0 128;
#X obj 182 -616 t b b b;
#N canvas 1 77 450 300 list2array 0;
#X obj 117 210 list split 1;
#X obj 119 121 until;
#X obj 76 172 list append;
#X obj 239 167 int;
#X obj 281 172 + 1;
#X msg 269 146 0;
#X obj 212 200 bang;
#X obj 130 87 t b b l;
#X obj 214 268 outlet;
#X obj 106 271 outlet;
#X text 266 272 index;
#X text 150 274 value;
#X obj 129 45 inlet;
#X text 131 26 list;
#X connect 0 0 9 0;
#X connect 0 1 2 1;
#X connect 0 2 6 0;
#X connect 1 0 2 0;
#X connect 1 0 3 0;
#X connect 2 0 0 0;
#X connect 3 0 4 0;
#X connect 4 0 3 1;
#X connect 4 0 8 0;
#X connect 5 0 3 1;
#X connect 5 0 8 0;
#X connect 6 0 1 1;
#X connect 7 0 1 0;
#X connect 7 1 5 0;
#X connect 7 2 2 1;
#X connect 12 0 7 0;
#X restore 921 -32 pd list2array;
#N canvas 213 245 837 691 array2list 0;
#X obj 165 60 inlet;
#X obj 81 437 outlet;
#X obj 14 43 inlet;
#X obj 302 442 outlet;
#X obj 15 91 t b b b;
#X obj 95 177 spigot 0;
#X text 84 456 list;
#X text 357 444 counter;
#X text 21 20 start;
#X text 171 44 values;
#X obj 224 219 until;
#X obj 222 245 int;
#X obj 227 169 t b b;
#X msg 256 197 0;
#X obj 252 245 + 1;
#X msg 85 133 1;
#X msg 11 142 0;
#X obj 183 306 t l;
#X obj 90 278 list prepend;
#X obj 83 340 list;
#X msg 224 194 16;
#X connect 0 0 5 0;
#X connect 2 0 4 0;
#X connect 4 0 16 0;
#X connect 4 0 19 0;
#X connect 4 1 12 0;
#X connect 4 2 15 0;
#X connect 4 2 18 1;
#X connect 5 0 18 0;
#X connect 10 0 11 0;
#X connect 11 0 14 0;
#X connect 11 0 3 0;
#X connect 12 0 20 0;
#X connect 12 1 13 0;
#X connect 13 0 11 0;
#X connect 14 0 11 1;
#X connect 15 0 5 1;
#X connect 16 0 5 1;
#X connect 17 0 18 1;
#X connect 18 0 17 0;
#X connect 18 0 19 1;
#X connect 19 0 1 0;
#X connect 20 0 10 0;
#X restore 721 -191 pd array2list;
#X msg 923 -78 9 21 29 47 36 -1 -1 -1 -1 -1 -1 -1 -1 -1 -1 -1 -1;
#X obj 718 -159 list prepend set;
#X obj 725 -136 list trim;
#X obj 718 -216 t b b b;
#X obj 678 -273 spigot 1;
#X obj 1361 92 outlet;
#X text 1356 108 clicked nr output;
#X msg 782 -242 0;
#X msg 673 -223 1;
#X obj 1156 -124 outlet;
#X text 1155 -104 next nr (only works if time moves forward);
#X obj 810 -298 spigot 1;
#X obj 454 3 tgl 10 1 empty empty out 17 7 0 10 -262144 -1 -1 1 1;
#X obj 1156 -144 spigot 1;
#X obj 1360 70 spigot 1;
#X obj 1107 -444 int;
#X obj 1067 -468 t f b;
#X obj 1039 -491 moses;
#X obj 1066 -442 min;
#X obj 1066 -515 + 1;
#X obj 1129 -474 int;
#X obj 1081 -421 change;
#X obj 1121 -353 int;
#X obj 1123 -326 + 1;
#X obj 1121 -387 t b;
#X obj 1287 -428 int;
#X obj 1245 -486 t f b;
#X obj 1246 -426 min;
#X obj 1199 -537 moses 0;
#X obj 1240 -352 int;
#X obj 1240 -332 + 1;
#X obj 1244 -398 change;
#X obj 1245 -375 t b;
#X text 1214 -515 find min scene nr;
#X text 1001 -533 find next higher nr;
#X obj 1105 -259 ==;
#X obj 1158 -180 int;
#X obj 1231 -305 int;
#X obj 1159 -267 select 1;
#X obj 1116 -238 change;
#X obj 1126 -303 t f f;
#X text 1072 -286 next nr greater or less;
#X obj 708 -600 t b f b;
#X floatatom 1233 -148 5 0 0 0 - - -, f 5;
#X text 1010 -592 find scene nr at next pos;
#X connect 0 0 54 0;
#X connect 0 1 1 0;
#X connect 0 2 13 0;
#X connect 0 3 14 0;
#X connect 0 4 15 0;
#X connect 0 5 16 0;
#X connect 0 6 17 0;
#X connect 0 7 18 0;
#X connect 0 8 19 0;
#X connect 0 9 20 0;
#X connect 0 10 21 0;
#X connect 0 11 22 0;
#X connect 0 12 23 0;
#X connect 0 13 24 0;
#X connect 0 14 25 0;
#X connect 0 15 26 0;
#X connect 1 0 28 0;
#X connect 2 0 12 1;
#X connect 11 0 0 0;
#X connect 12 0 11 0;
#X connect 13 0 30 0;
#X connect 14 0 29 0;
#X connect 15 0 31 0;
#X connect 16 0 32 0;
#X connect 17 0 33 0;
#X connect 18 0 34 0;
#X connect 19 0 35 0;
#X connect 20 0 36 0;
#X connect 21 0 37 0;
#X connect 22 0 38 0;
#X connect 23 0 39 0;
#X connect 24 0 40 0;
#X connect 25 0 41 0;
#X connect 26 0 42 0;
#X connect 27 0 43 0;
#X connect 28 0 43 0;
#X connect 29 0 43 0;
#X connect 30 0 43 0;
#X connect 31 0 43 0;
#X connect 32 0 43 0;
#X connect 33 0 43 0;
#X connect 34 0 43 0;
#X connect 35 0 43 0;
#X connect 36 0 43 0;
#X connect 37 0 43 0;
#X connect 38 0 43 0;
#X connect 39 0 43 0;
#X connect 40 0 43 0;
#X connect 41 0 43 0;
#X connect 42 0 43 0;
#X connect 43 0 116 1;
#X connect 43 0 118 0;
#X connect 43 0 121 3;
#X connect 43 0 121 0;
#X connect 43 0 55 0;
#X connect 44 0 56 0;
#X connect 44 0 91 1;
#X connect 44 0 93 1;
#X connect 45 0 84 1;
#X connect 45 0 133 0;
#X connect 46 0 45 0;
#X connect 47 0 44 0;
#X connect 50 0 134 0;
#X connect 51 0 97 0;
#X connect 51 1 53 0;
#X connect 52 0 12 2;
#X connect 53 0 2 0;
#X connect 53 1 52 0;
#X connect 54 0 27 0;
#X connect 55 0 47 0;
#X connect 55 0 91 1;
#X connect 55 0 93 1;
#X connect 55 0 151 0;
#X connect 56 0 43 0;
#X connect 56 0 118 0;
#X connect 57 0 0 0;
#X connect 58 0 0 0;
#X connect 59 0 60 0;
#X connect 59 0 57 0;
#X connect 60 0 59 1;
#X connect 61 0 59 0;
#X connect 62 0 59 1;
#X connect 63 0 61 0;
#X connect 63 1 62 0;
#X connect 64 0 63 0;
#X connect 65 0 66 0;
#X connect 65 0 73 0;
#X connect 66 0 65 1;
#X connect 67 0 65 0;
#X connect 68 0 65 1;
#X connect 69 0 67 0;
#X connect 69 1 68 0;
#X connect 70 0 69 0;
#X connect 71 0 77 0;
#X connect 72 0 75 0;
#X connect 73 0 121 1;
#X connect 73 1 76 1;
#X connect 73 1 159 1;
#X connect 73 1 166 1;
#X connect 75 0 76 0;
#X connect 76 0 81 0;
#X connect 77 0 80 0;
#X connect 77 0 179 0;
#X connect 78 0 77 1;
#X connect 78 0 157 1;
#X connect 81 0 148 0;
#X connect 82 0 86 0;
#X connect 83 0 84 0;
#X connect 84 0 85 0;
#X connect 85 0 45 0;
#X connect 86 0 87 0;
#X connect 87 0 88 0;
#X connect 88 1 45 0;
#X connect 89 0 93 0;
#X connect 90 0 91 0;
#X connect 91 0 106 0;
#X connect 92 0 44 0;
#X connect 93 0 94 0;
#X connect 94 0 95 0;
#X connect 95 1 44 0;
#X connect 96 0 44 0;
#X connect 97 0 100 0;
#X connect 97 1 98 0;
#X connect 98 0 12 2;
#X connect 100 0 12 1;
#X connect 106 0 92 0;
#X connect 108 0 114 0;
#X connect 109 0 110 0;
#X connect 109 0 117 0;
#X connect 109 0 123 0;
#X connect 110 0 109 1;
#X connect 111 0 109 0;
#X connect 112 0 109 1;
#X connect 113 0 111 0;
#X connect 113 1 112 0;
#X connect 114 0 113 0;
#X connect 116 0 12 0;
#X connect 117 0 12 0;
#X connect 117 1 97 0;
#X connect 118 0 58 0;
#X connect 118 1 64 0;
#X connect 120 0 116 0;
#X connect 120 0 140 0;
#X connect 121 0 131 0;
#X connect 121 0 46 0;
#X connect 121 0 86 1;
#X connect 121 0 84 1;
#X connect 121 1 141 0;
#X connect 121 1 136 1;
#X connect 123 0 132 0;
#X connect 123 1 121 3;
#X connect 124 0 125 0;
#X connect 124 0 130 0;
#X connect 125 0 124 1;
#X connect 126 0 124 0;
#X connect 127 0 124 1;
#X connect 128 0 126 0;
#X connect 128 1 127 0;
#X connect 129 0 128 0;
#X connect 130 0 116 0;
#X connect 130 1 121 0;
#X connect 131 0 51 0;
#X connect 132 0 121 2;
#X connect 133 0 86 1;
#X connect 133 0 120 0;
#X connect 133 0 131 0;
#X connect 133 0 121 2;
#X connect 134 0 96 0;
#X connect 134 1 129 0;
#X connect 134 2 137 0;
#X connect 135 0 121 2;
#X connect 135 1 121 3;
#X connect 136 0 138 0;
#X connect 136 1 121 1;
#X connect 137 0 135 0;
#X connect 138 0 139 0;
#X connect 139 0 137 0;
#X connect 140 0 145 0;
#X connect 140 1 136 0;
#X connect 140 2 144 0;
#X connect 141 0 72 0;
#X connect 141 0 154 0;
#X connect 141 0 165 0;
#X connect 144 0 141 1;
#X connect 145 0 141 1;
#X connect 148 0 74 0;
#X connect 149 0 148 1;
#X connect 149 0 150 1;
#X connect 149 0 151 1;
#X connect 150 0 146 0;
#X connect 151 0 142 0;
#X connect 152 0 155 1;
#X connect 153 0 155 0;
#X connect 153 1 152 0;
#X connect 154 1 153 0;
#X connect 155 0 152 1;
#X connect 155 0 158 0;
#X connect 156 0 154 1;
#X connect 157 0 152 1;
#X connect 157 0 162 1;
#X connect 158 0 161 0;
#X connect 159 0 160 0;
#X connect 160 0 177 0;
#X connect 161 0 159 0;
#X connect 162 0 164 1;
#X connect 163 0 164 0;
#X connect 163 1 162 0;
#X connect 164 0 162 1;
#X connect 164 0 168 0;
#X connect 165 1 163 0;
#X connect 166 0 167 0;
#X connect 167 0 174 1;
#X connect 168 0 169 0;
#X connect 169 0 166 0;
#X connect 172 0 176 0;
#X connect 173 0 150 0;
#X connect 173 0 180 0;
#X connect 174 0 173 0;
#X connect 175 0 174 0;
#X connect 176 0 175 0;
#X connect 177 0 172 0;
#X connect 177 1 173 0;
#X connect 179 0 70 0;
#X connect 179 1 72 1;
#X connect 179 1 156 0;
#X connect 179 2 157 0;
#X coords 0 -1 1 1 775 40 1 0 0;
#X restore 12 281 pd scene_sq1b;
#X text 788 403 selected nr;
#X connect 2 0 0 0;
#X connect 2 1 1 0;
#X connect 2 2 4 0;
#X connect 3 0 2 0;
#X connect 3 0 14 0;
#X connect 14 0 8 0;
#X connect 14 1 11 0;
#X connect 14 2 10 0;
