#N canvas 372 124 450 300 10;
#N canvas 1 77 976 853 stereochorus2 0;
#X obj 12 37 inlet~;
#X obj 81 738 outlet~;
#X obj 475 654 outlet~;
#X obj 84 422 cos~;
#X obj 75 471 +~ 1;
#X obj 160 448 cos~;
#X obj 165 478 +~ 1;
#X obj 171 318 phasor~;
#X obj 182 548 *~ 0.3;
#X obj 251 456 cos~;
#X obj 259 485 +~ 1;
#X obj 329 453 cos~;
#X obj 334 483 +~ 1;
#X obj 92 548 *~ 0.31;
#X obj 160 420 +~ 0.16666;
#X obj 325 421 +~ 0.5;
#X obj 250 420 +~ 0.33333;
#X obj 404 449 cos~;
#X obj 405 473 +~ 1;
#X obj 430 546 *~ 0.3;
#X obj 479 454 cos~;
#X obj 484 484 +~ 1;
#X obj 495 543 *~ 0.31;
#X obj 394 420 +~ 0.66666;
#X obj 475 422 +~ 0.833333;
#X obj 270 553 *~ 0.29;
#X obj 347 547 *~ 0.29;
#X obj 106 114 hsl 128 10 0 1 0 1 empty empty speed 0 5 0 10 -262144
-1 -162280 3000 1;
#X obj 159 171 t f f;
#X obj 165 195 *;
#X obj 169 223 * 9.9;
#X obj 173 249 + 0.1;
#X obj -5 587 abs_dly_short_vd1;
#X obj 96 505 *~;
#X obj 106 127 hsl 128 10 0 1 0 1 empty empty depth 0 5 0 10 -262144
-1 -162280 2000 1;
#X obj 211 162 t f f;
#X obj 217 186 *;
#X obj 223 248 + 1;
#X obj 72 328 *~ 0.16666;
#X obj 347 311 line~;
#X msg 226 278 \$1 30;
#X obj 187 513 *~;
#X obj 124 590 abs_dly_short_vd1;
#X obj 277 521 *~;
#X obj 248 593 abs_dly_short_vd1;
#X obj 367 595 abs_dly_short_vd1;
#X obj 338 514 *~;
#X obj 426 513 *~;
#X obj 496 598 abs_dly_short_vd1;
#X obj 484 516 *~;
#X obj 620 601 abs_dly_short_vd1;
#X obj 223 219 * 20;
#X text 124 39 stereochorus with 6 delays;
#X connect 0 0 38 0;
#X connect 3 0 4 0;
#X connect 4 0 33 0;
#X connect 5 0 6 0;
#X connect 6 0 41 0;
#X connect 7 0 3 0;
#X connect 7 0 14 0;
#X connect 7 0 15 0;
#X connect 7 0 16 0;
#X connect 7 0 23 0;
#X connect 7 0 24 0;
#X connect 8 0 42 1;
#X connect 9 0 10 0;
#X connect 10 0 43 0;
#X connect 11 0 12 0;
#X connect 12 0 46 0;
#X connect 13 0 32 1;
#X connect 14 0 5 0;
#X connect 15 0 11 0;
#X connect 16 0 9 0;
#X connect 17 0 18 0;
#X connect 18 0 47 0;
#X connect 19 0 48 1;
#X connect 20 0 21 0;
#X connect 21 0 49 0;
#X connect 22 0 50 1;
#X connect 23 0 17 0;
#X connect 24 0 20 0;
#X connect 25 0 44 1;
#X connect 26 0 45 1;
#X connect 27 0 28 0;
#X connect 28 0 29 0;
#X connect 28 1 29 1;
#X connect 29 0 30 0;
#X connect 30 0 31 0;
#X connect 31 0 7 0;
#X connect 32 0 1 0;
#X connect 33 0 13 0;
#X connect 34 0 35 0;
#X connect 35 0 36 0;
#X connect 35 1 36 1;
#X connect 36 0 51 0;
#X connect 37 0 40 0;
#X connect 38 0 32 0;
#X connect 38 0 42 0;
#X connect 38 0 44 0;
#X connect 38 0 45 0;
#X connect 38 0 48 0;
#X connect 38 0 50 0;
#X connect 39 0 33 1;
#X connect 39 0 41 1;
#X connect 39 0 43 1;
#X connect 39 0 47 1;
#X connect 39 0 49 1;
#X connect 40 0 39 0;
#X connect 41 0 8 0;
#X connect 42 0 2 0;
#X connect 43 0 25 0;
#X connect 44 0 1 0;
#X connect 45 0 2 0;
#X connect 46 0 26 0;
#X connect 47 0 19 0;
#X connect 48 0 1 0;
#X connect 49 0 22 0;
#X connect 50 0 2 0;
#X connect 51 0 37 0;
#X coords 0 -1 1 1 140 40 1 100 100;
#X restore 48 54 pd stereochorus2;
