#N canvas 368 182 939 642 10;
#X obj 81 427 dac~;
#X obj 84 403 *~ 0.5;
#N canvas 1 77 592 473 midimono 0;
#X obj 179 125 stripnote;
#X obj 304 226 select;
#X obj 295 123 float;
#X obj 282 70 t b f;
#X obj 304 197 float;
#X obj 295 152 sel 0;
#X obj 175 8 notein;
#X obj 246 320 outlet;
#X msg 317 252 0;
#X obj 136 317 outlet;
#X text 273 47 taken from the pd doc-monosynth-example;
#X connect 0 0 1 1;
#X connect 0 0 9 0;
#X connect 1 0 8 0;
#X connect 2 0 5 0;
#X connect 3 0 2 0;
#X connect 3 1 4 1;
#X connect 4 0 1 0;
#X connect 5 0 4 0;
#X connect 5 1 7 0;
#X connect 6 0 0 0;
#X connect 6 0 3 0;
#X connect 6 1 0 1;
#X connect 6 1 2 1;
#X connect 8 0 7 0;
#X restore 151 17 pd midimono;
#X obj 22 6 bendin;
#X obj 77 137 +;
#X obj 21 29 - 8192;
#X obj 21 74 clip -1 1;
#X obj 21 53 / 8192;
#X msg 113 57 bang;
#X obj 116 85 int;
#X obj 38 112 * 2;
#X text 61 114 bend range;
#N canvas 124 77 1612 997 3osc1 0;
#N canvas 713 77 1076 999 lopass2p2z 0;
#X obj -50 465 inlet~;
#X obj 129 919 outlet~;
#X obj 73 85 inlet~;
#X obj 87 200 sig~ 1;
#X obj 121 249 /~;
#X obj 219 59 samplerate~;
#X obj 110 376 sig~ 1;
#X obj 147 408 /~;
#X obj 214 340 +~;
#X obj 187 310 sig~ 1;
#X obj 251 318 *~;
#X obj 181 375 +~;
#X obj 112 295 *~;
#X text 41 361 a1/a3;
#X obj 222 407 sig~ 1;
#X obj 296 433 -~;
#X obj 299 457 *~ 2;
#X obj 286 506 *~;
#X obj 409 334 *~;
#X text 276 435 b1;
#X text 384 379 b2;
#X obj 361 397 sig~ 1;
#X obj 392 429 -~;
#X obj 377 512 *~;
#X text 99 246 c;
#X obj 397 462 +~;
#X obj 147 222 expr~ tan($v1);
#X obj 151 194 /~ 44100;
#X obj 129 153 *~ 3.14159;
#X text 408 73 resonance 0..1;
#X text 124 86 cutoff (hz);
#X text 420 186 a2= 2*a1 \, a3=a1;
#X text 420 150 c= 1/tan(pi*cutf/samplerate);
#X text 422 168 a1= 1/(1+res*c+c*c);
#X text 421 204 b1= 2*(1-c*c)*a1;
#X text 421 220 b2= (1-res*c+c*c)*a1;
#X obj 33 690 czero~;
#X obj 59 727 czero~;
#X obj 73 646 sig~ -1;
#X obj 90 670 sig~ 0;
#X obj 90 841 cpole~;
#X obj 129 888 cpole~;
#X obj 296 199 *~ 1.41421;
#X obj 307 148 -~;
#X obj 353 72 inlet~;
#X obj 279 94 sig~ 1;
#X text 28 627 zeros at fixed pos;
#X obj 178 840 *~ -1;
#X obj 184 805 expr~ sqrt($v1);
#X obj -44 595 *~;
#X obj 128 704 *~ -0.5;
#X text 219 845 2nd pole = 1st mirrored on the x axis;
#X text 183 704 b1/2 (x pos);
#X text 267 11 cookbook-like? (i cant remember where i got this from)
lp-filter;
#X obj 163 748 *~;
#X obj 183 781 -~;
#X text 217 666 pole position from coeffs:;
#X text 218 683 p=-b1/2+j*sqrt(b2-(b1/2)^2) (found somewhere on the
net...);
#X connect 0 0 49 0;
#X connect 2 0 28 0;
#X connect 3 0 4 0;
#X connect 4 0 10 0;
#X connect 4 0 12 0;
#X connect 4 0 12 1;
#X connect 4 0 18 0;
#X connect 5 0 27 1;
#X connect 6 0 7 0;
#X connect 7 0 17 1;
#X connect 7 0 23 0;
#X connect 7 0 49 1;
#X connect 8 0 11 1;
#X connect 9 0 8 0;
#X connect 10 0 8 1;
#X connect 11 0 7 1;
#X connect 12 0 11 0;
#X connect 12 0 15 1;
#X connect 12 0 25 1;
#X connect 14 0 15 0;
#X connect 15 0 16 0;
#X connect 16 0 17 0;
#X connect 17 0 50 0;
#X connect 18 0 22 1;
#X connect 21 0 22 0;
#X connect 22 0 25 0;
#X connect 23 0 55 0;
#X connect 25 0 23 1;
#X connect 26 0 4 1;
#X connect 27 0 26 0;
#X connect 28 0 27 0;
#X connect 36 0 37 0;
#X connect 36 1 37 1;
#X connect 37 0 40 0;
#X connect 37 1 40 1;
#X connect 38 0 36 2;
#X connect 38 0 37 2;
#X connect 39 0 37 3;
#X connect 39 0 36 3;
#X connect 40 0 41 0;
#X connect 40 1 41 1;
#X connect 41 0 1 0;
#X connect 42 0 10 1;
#X connect 42 0 18 1;
#X connect 43 0 42 0;
#X connect 44 0 43 1;
#X connect 45 0 43 0;
#X connect 47 0 41 3;
#X connect 48 0 40 3;
#X connect 48 0 47 0;
#X connect 49 0 36 0;
#X connect 50 0 40 2;
#X connect 50 0 41 2;
#X connect 50 0 54 0;
#X connect 50 0 54 1;
#X connect 54 0 55 1;
#X connect 55 0 48 0;
#X restore 72 851 pd lopass2p2z;
#N canvas 713 79 1076 1000 lopass2p2z 0;
#X obj -50 465 inlet~;
#X obj 129 919 outlet~;
#X obj 73 85 inlet~;
#X obj 87 200 sig~ 1;
#X obj 121 249 /~;
#X obj 219 59 samplerate~;
#X obj 110 376 sig~ 1;
#X obj 147 408 /~;
#X obj 214 340 +~;
#X obj 187 310 sig~ 1;
#X obj 251 318 *~;
#X obj 181 375 +~;
#X obj 112 295 *~;
#X text 41 361 a1/a3;
#X obj 222 407 sig~ 1;
#X obj 296 433 -~;
#X obj 299 457 *~ 2;
#X obj 286 506 *~;
#X obj 409 334 *~;
#X text 276 435 b1;
#X text 384 379 b2;
#X obj 361 397 sig~ 1;
#X obj 392 429 -~;
#X obj 377 512 *~;
#X text 99 246 c;
#X obj 397 462 +~;
#X obj 147 222 expr~ tan($v1);
#X obj 151 194 /~ 44100;
#X obj 129 153 *~ 3.14159;
#X text 408 73 resonance 0..1;
#X text 124 86 cutoff (hz);
#X text 420 186 a2= 2*a1 \, a3=a1;
#X text 420 150 c= 1/tan(pi*cutf/samplerate);
#X text 422 168 a1= 1/(1+res*c+c*c);
#X text 421 204 b1= 2*(1-c*c)*a1;
#X text 421 220 b2= (1-res*c+c*c)*a1;
#X obj 33 690 czero~;
#X obj 59 727 czero~;
#X obj 73 646 sig~ -1;
#X obj 90 670 sig~ 0;
#X obj 90 841 cpole~;
#X obj 129 888 cpole~;
#X obj 296 199 *~ 1.41421;
#X obj 307 148 -~;
#X obj 353 72 inlet~;
#X obj 279 94 sig~ 1;
#X text 28 627 zeros at fixed pos;
#X obj 178 840 *~ -1;
#X obj 184 805 expr~ sqrt($v1);
#X obj -44 595 *~;
#X obj 128 704 *~ -0.5;
#X text 219 845 2nd pole = 1st mirrored on the x axis;
#X text 183 704 b1/2 (x pos);
#X text 267 11 cookbook-like? (i cant remember where i got this from)
lp-filter;
#X obj 163 748 *~;
#X obj 183 781 -~;
#X text 217 666 pole position from coeffs:;
#X text 218 683 p=-b1/2+j*sqrt(b2-(b1/2)^2) (found somewhere on the
net...);
#X connect 0 0 49 0;
#X connect 2 0 28 0;
#X connect 3 0 4 0;
#X connect 4 0 10 0;
#X connect 4 0 12 0;
#X connect 4 0 12 1;
#X connect 4 0 18 0;
#X connect 5 0 27 1;
#X connect 6 0 7 0;
#X connect 7 0 17 1;
#X connect 7 0 23 0;
#X connect 7 0 49 1;
#X connect 8 0 11 1;
#X connect 9 0 8 0;
#X connect 10 0 8 1;
#X connect 11 0 7 1;
#X connect 12 0 11 0;
#X connect 12 0 15 1;
#X connect 12 0 25 1;
#X connect 14 0 15 0;
#X connect 15 0 16 0;
#X connect 16 0 17 0;
#X connect 17 0 50 0;
#X connect 18 0 22 1;
#X connect 21 0 22 0;
#X connect 22 0 25 0;
#X connect 23 0 55 0;
#X connect 25 0 23 1;
#X connect 26 0 4 1;
#X connect 27 0 26 0;
#X connect 28 0 27 0;
#X connect 36 0 37 0;
#X connect 36 1 37 1;
#X connect 37 0 40 0;
#X connect 37 1 40 1;
#X connect 38 0 36 2;
#X connect 38 0 37 2;
#X connect 39 0 37 3;
#X connect 39 0 36 3;
#X connect 40 0 41 0;
#X connect 40 1 41 1;
#X connect 41 0 1 0;
#X connect 42 0 10 1;
#X connect 42 0 18 1;
#X connect 43 0 42 0;
#X connect 44 0 43 1;
#X connect 45 0 43 0;
#X connect 47 0 41 3;
#X connect 48 0 40 3;
#X connect 48 0 47 0;
#X connect 49 0 36 0;
#X connect 50 0 40 2;
#X connect 50 0 41 2;
#X connect 50 0 54 0;
#X connect 50 0 54 1;
#X connect 54 0 55 1;
#X connect 55 0 48 0;
#X restore 114 876 pd lopass2p2z;
#X obj 226 762 mtof~;
#X obj 482 517 abs_adsr2a;
#X obj 136 950 outlet~;
#N canvas 471 124 1322 921 three_oscillator_block_16times_oversampled
0;
#X obj 302 875 outlet~;
#X obj 43 139 inlet~;
#X text 40 113 frequency;
#X obj 120 137 inlet;
#X text 117 114 waveform;
#X obj 180 137 inlet;
#X text 178 113 fm-amount;
#X obj 249 134 inlet;
#X text 247 113 rm-amount;
#X obj 316 135 inlet;
#X text 314 114 pwm-amount;
#X obj 439 142 inlet~;
#X text 436 116 frequency;
#X obj 516 140 inlet;
#X text 513 117 waveform;
#X obj 578 131 inlet;
#X text 574 116 fm-amount;
#X obj 645 137 inlet;
#X text 643 116 rm-amount;
#X obj 712 138 inlet;
#X text 710 117 pwm-amount;
#X text 129 89 osc1;
#X text 555 89 osc2;
#X obj 830 33 inlet~;
#X text 827 7 frequency;
#X obj 907 31 inlet;
#X text 904 8 waveform;
#X text 876 -15 osc3/modulator;
#X obj 1001 327 inlet;
#X obj 1055 328 inlet;
#X obj 1103 328 inlet;
#X text 1039 294 osc mix;
#X obj 180 566 *~;
#X obj 278 571 *~;
#X obj 357 580 *~;
#X obj 213 532 line~;
#X msg 219 510 \$1 20;
#X obj 314 539 line~;
#X msg 320 517 \$1 20;
#X obj 462 543 line~;
#X msg 468 521 \$1 20;
#X obj 159 343 +~;
#X obj 187 279 + 1;
#X obj 188 258 * -1;
#X obj 186 304 sig~;
#X obj 303 662 *~ 0.064;
#X obj 303 685 rpole~ 0.93538;
#X obj 303 708 *~ 0.00431;
#X obj 303 731 cpole~ 0.96559 0.05592;
#X obj 303 757 cpole~ 0.96559 -0.05592;
#X obj 303 780 *~ 0.125;
#X obj 303 803 rzero~ -1;
#X obj 303 826 rzero~ -1;
#X obj 303 849 rzero~ -1;
#X obj 1020 56 block~ 64 1 16;
#X obj 450 368 +~;
#X obj 450 316 + 1;
#X obj 451 295 * -1;
#X obj 453 339 sig~;
#X obj 249 310 *~;
#X obj 127 312 *~;
#X obj 512 365 *~;
#X obj 372 344 *~;
#N canvas 1 77 805 601 multiwaveosc1 0;
#X obj 120 578 outlet~;
#X obj 2 81 inlet~;
#X text -2 65 frequency;
#X obj 239 159 inlet~;
#X text 246 143 pwm;
#X obj 100 61 inlet~;
#X obj 24 289 wrap~;
#X text 103 42 fm;
#X obj 117 163 inlet~;
#X text 125 142 rm;
#X obj 121 547 *~;
#X obj 310 159 inlet;
#N canvas 152 90 450 300 sine 0;
#X obj 95 78 inlet~;
#X obj 197 77 inlet;
#X obj 181 122 switch~;
#X obj 84 261 outlet~;
#X obj 91 186 cos~;
#X connect 0 0 4 0;
#X connect 1 0 2 0;
#X connect 4 0 3 0;
#X restore -16 444 pd sine;
#N canvas 426 319 450 300 saw 0;
#X obj 95 78 inlet~;
#X obj 197 77 inlet;
#X obj 181 122 switch~;
#X obj 84 261 outlet~;
#X obj 82 152 *~ 2;
#X obj 82 180 -~ 1;
#X connect 0 0 4 0;
#X connect 1 0 2 0;
#X connect 4 0 5 0;
#X connect 5 0 3 0;
#X restore 159 444 pd saw;
#N canvas 150 89 450 300 tri 0;
#X obj 63 89 inlet~;
#X obj 197 77 inlet;
#X obj 181 122 switch~;
#X obj 39 266 outlet~;
#X obj 85 138 *~ -1;
#X obj 85 163 +~ 1;
#X obj 38 186 min~;
#X obj 41 209 *~ 4;
#X obj 46 234 -~ 1;
#X connect 0 0 4 0;
#X connect 0 0 6 0;
#X connect 1 0 2 0;
#X connect 4 0 5 0;
#X connect 5 0 6 1;
#X connect 6 0 7 0;
#X connect 7 0 8 0;
#X connect 8 0 3 0;
#X restore 39 443 pd tri;
#N canvas 485 349 450 300 pulse 0;
#X obj 95 78 inlet~;
#X obj 243 77 inlet;
#X obj 227 122 switch~;
#X obj 69 240 outlet~;
#X obj 85 208 clip~ -1 1;
#X obj 89 180 *~ 500;
#X obj 90 115 cos~;
#X obj 163 73 inlet~;
#X text 164 50 pwm;
#X obj 103 147 +~;
#X connect 0 0 6 0;
#X connect 1 0 2 0;
#X connect 4 0 3 0;
#X connect 5 0 4 0;
#X connect 6 0 9 0;
#X connect 7 0 9 1;
#X connect 9 0 5 0;
#X restore 94 444 pd pulse;
#X obj 15 152 phasor~;
#X obj 230 245 == 3;
#X obj 273 248 == 2;
#X obj 317 247 == 1;
#X obj 362 247 == 0;
#X text 299 48 keysync;
#X obj 301 65 inlet;
#X obj 628 74 inlet;
#X text 632 52 pw;
#X obj 625 131 sig~;
#X connect 1 0 16 0;
#X connect 3 0 15 1;
#X connect 5 0 16 0;
#X connect 6 0 12 0;
#X connect 6 0 15 0;
#X connect 6 0 13 0;
#X connect 6 0 14 0;
#X connect 8 0 10 1;
#X connect 10 0 0 0;
#X connect 11 0 17 0;
#X connect 11 0 18 0;
#X connect 11 0 19 0;
#X connect 11 0 20 0;
#X connect 12 0 10 0;
#X connect 13 0 10 0;
#X connect 14 0 10 0;
#X connect 15 0 10 0;
#X connect 16 0 6 0;
#X connect 17 0 12 1;
#X connect 18 0 14 1;
#X connect 19 0 15 2;
#X connect 20 0 13 1;
#X connect 22 0 16 1;
#X connect 23 0 25 0;
#X connect 25 0 15 1;
#X restore 325 424 pd multiwaveosc1;
#N canvas 27 262 805 601 multiwaveosc1mod 0;
#X obj 2 81 inlet~;
#X text -2 65 frequency;
#X obj 287 89 inlet;
#N canvas 152 90 450 300 sine 0;
#X obj 95 78 inlet~;
#X obj 197 77 inlet;
#X obj 181 122 switch~;
#X obj 84 261 outlet~;
#X obj 91 186 cos~;
#X connect 0 0 4 0;
#X connect 1 0 2 0;
#X connect 4 0 3 0;
#X restore -16 444 pd sine;
#N canvas 426 319 450 300 saw 0;
#X obj 95 78 inlet~;
#X obj 197 77 inlet;
#X obj 181 122 switch~;
#X obj 84 261 outlet~;
#X obj 82 152 *~ 2;
#X obj 82 180 -~ 1;
#X connect 0 0 4 0;
#X connect 1 0 2 0;
#X connect 4 0 5 0;
#X connect 5 0 3 0;
#X restore 159 444 pd saw;
#N canvas 150 89 450 300 tri 0;
#X obj 63 89 inlet~;
#X obj 197 77 inlet;
#X obj 181 122 switch~;
#X obj 39 266 outlet~;
#X obj 85 138 *~ -1;
#X obj 85 163 +~ 1;
#X obj 38 186 min~;
#X obj 41 209 *~ 4;
#X obj 46 234 -~ 1;
#X connect 0 0 4 0;
#X connect 0 0 6 0;
#X connect 1 0 2 0;
#X connect 4 0 5 0;
#X connect 5 0 6 1;
#X connect 6 0 7 0;
#X connect 7 0 8 0;
#X connect 8 0 3 0;
#X restore 39 443 pd tri;
#N canvas 481 347 450 300 pulse 0;
#X obj 95 78 inlet~;
#X obj 243 77 inlet;
#X obj 227 122 switch~;
#X obj 69 240 outlet~;
#X obj 85 208 clip~ -1 1;
#X obj 89 180 *~ 500;
#X obj 90 115 cos~;
#X obj 163 73 inlet~;
#X text 164 50 pwm;
#X obj 103 147 +~;
#X connect 0 0 6 0;
#X connect 1 0 2 0;
#X connect 4 0 3 0;
#X connect 5 0 4 0;
#X connect 6 0 9 0;
#X connect 7 0 9 1;
#X connect 9 0 5 0;
#X restore 94 444 pd pulse;
#X obj 24 154 phasor~;
#X obj 230 245 == 3;
#X obj 273 248 == 2;
#X obj 317 247 == 1;
#X obj 362 247 == 0;
#X text 352 73 keysync;
#X obj 354 90 inlet;
#X obj 121 547 outlet~;
#X text 636 141 pw;
#X obj 629 157 inlet;
#X obj 615 195 sig~;
#X connect 0 0 7 0;
#X connect 2 0 8 0;
#X connect 2 0 9 0;
#X connect 2 0 10 0;
#X connect 2 0 11 0;
#X connect 3 0 14 0;
#X connect 4 0 14 0;
#X connect 5 0 14 0;
#X connect 6 0 14 0;
#X connect 7 0 3 0;
#X connect 7 0 5 0;
#X connect 7 0 6 0;
#X connect 7 0 4 0;
#X connect 8 0 3 1;
#X connect 9 0 5 1;
#X connect 10 0 6 2;
#X connect 11 0 4 1;
#X connect 13 0 7 1;
#X connect 16 0 17 0;
#X connect 17 0 6 1;
#X restore 845 120 pd multiwaveosc1mod;
#N canvas 1 77 805 601 multiwaveosc1sync 0;
#X obj 120 578 outlet~;
#X obj 2 81 inlet~;
#X text -2 65 frequency;
#X obj 242 169 inlet~;
#X text 249 153 pwm;
#X obj 349 102 inlet~;
#X text 347 85 sync;
#X obj 133 64 inlet~;
#X obj 24 289 wrap~;
#X text 136 45 fm;
#X obj 186 121 inlet~;
#X text 194 100 rm;
#X obj 121 547 *~;
#X obj 313 169 inlet;
#N canvas 152 90 450 300 sine 0;
#X obj 95 78 inlet~;
#X obj 197 77 inlet;
#X obj 181 122 switch~;
#X obj 84 261 outlet~;
#X obj 91 186 cos~;
#X connect 0 0 4 0;
#X connect 1 0 2 0;
#X connect 4 0 3 0;
#X restore -16 444 pd sine;
#N canvas 424 318 450 300 saw 0;
#X obj 95 78 inlet~;
#X obj 197 77 inlet;
#X obj 181 122 switch~;
#X obj 84 261 outlet~;
#X obj 82 152 *~ 2;
#X obj 82 180 -~ 1;
#X connect 0 0 4 0;
#X connect 1 0 2 0;
#X connect 4 0 5 0;
#X connect 5 0 3 0;
#X restore 159 444 pd saw;
#N canvas 150 89 450 300 tri 0;
#X obj 63 89 inlet~;
#X obj 197 77 inlet;
#X obj 181 122 switch~;
#X obj 39 266 outlet~;
#X obj 85 138 *~ -1;
#X obj 85 163 +~ 1;
#X obj 38 186 min~;
#X obj 41 209 *~ 4;
#X obj 46 234 -~ 1;
#X connect 0 0 4 0;
#X connect 0 0 6 0;
#X connect 1 0 2 0;
#X connect 4 0 5 0;
#X connect 5 0 6 1;
#X connect 6 0 7 0;
#X connect 7 0 8 0;
#X connect 8 0 3 0;
#X restore 39 443 pd tri;
#N canvas 0 77 1920 1003 pulse 0;
#X obj 95 78 inlet~;
#X obj 243 77 inlet;
#X obj 227 122 switch~;
#X obj 69 240 outlet~;
#X obj 85 208 clip~ -1 1;
#X obj 89 180 *~ 500;
#X obj 90 115 cos~;
#X obj 163 73 inlet~;
#X text 164 50 pwm;
#X obj 103 147 +~;
#X connect 0 0 6 0;
#X connect 1 0 2 0;
#X connect 4 0 3 0;
#X connect 5 0 4 0;
#X connect 6 0 9 0;
#X connect 7 0 9 1;
#X connect 9 0 5 0;
#X restore 94 444 pd pulse;
#X obj 11 142 phasor~;
#X obj 29 177 samphold~;
#X obj 17 211 -~;
#X obj 230 245 == 3;
#X obj 273 248 == 2;
#X obj 317 247 == 1;
#X obj 362 247 == 0;
#X obj 510 61 inlet;
#X text 516 36 keysync;
#X obj 628 74 inlet;
#X text 632 52 pw;
#X obj 625 131 sig~;
#X connect 1 0 18 0;
#X connect 3 0 17 1;
#X connect 5 0 19 1;
#X connect 7 0 18 0;
#X connect 8 0 14 0;
#X connect 8 0 17 0;
#X connect 8 0 15 0;
#X connect 8 0 16 0;
#X connect 10 0 12 1;
#X connect 12 0 0 0;
#X connect 13 0 21 0;
#X connect 13 0 22 0;
#X connect 13 0 23 0;
#X connect 13 0 24 0;
#X connect 14 0 12 0;
#X connect 15 0 12 0;
#X connect 16 0 12 0;
#X connect 17 0 12 0;
#X connect 18 0 19 0;
#X connect 18 0 20 0;
#X connect 19 0 20 1;
#X connect 20 0 8 0;
#X connect 21 0 14 1;
#X connect 22 0 16 1;
#X connect 23 0 17 2;
#X connect 24 0 15 1;
#X connect 25 0 19 0;
#X connect 27 0 29 0;
#X connect 29 0 17 1;
#X restore 97 438 pd multiwaveosc1sync;
#X obj 377 139 inlet;
#X obj 264 404 *~;
#X text 383 115 sync2-1;
#X obj 1171 62 inlet;
#X text 1177 43 keysync;
#X obj 153 220 * 2500;
#X obj 514 203 * 2500;
#X obj 188 171 *;
#X obj 184 195 *;
#X obj 765 658 outlet~;
#X text 818 650 not antialiased \, its only for filter-lfo;
#X obj 156 316 *~;
#X obj 423 348 *~;
#X obj 1140 137 moses 0.0001;
#X msg 1173 197 1;
#X msg 1207 220 reset;
#X obj 976 9 inlet~;
#X text 978 -10 mod-osc-env;
#X obj 741 187 *~;
#X obj 1292 59 inlet;
#X obj 1346 60 inlet;
#X obj 1394 60 inlet;
#X text 1330 26 pw 1 2 3;
#X obj 557 152 *;
#X obj 538 176 *;
#X connect 1 0 65 0;
#X connect 3 0 65 4;
#X connect 5 0 73 1;
#X connect 5 0 73 0;
#X connect 7 0 43 0;
#X connect 7 0 77 1;
#X connect 9 0 59 1;
#X connect 11 0 63 0;
#X connect 13 0 63 5;
#X connect 15 0 89 1;
#X connect 15 0 89 0;
#X connect 17 0 57 0;
#X connect 17 0 78 1;
#X connect 19 0 61 1;
#X connect 23 0 64 0;
#X connect 25 0 64 1;
#X connect 28 0 36 0;
#X connect 29 0 38 0;
#X connect 30 0 40 0;
#X connect 32 0 45 0;
#X connect 33 0 45 0;
#X connect 34 0 45 0;
#X connect 35 0 32 1;
#X connect 36 0 35 0;
#X connect 37 0 33 1;
#X connect 38 0 37 0;
#X connect 39 0 34 1;
#X connect 40 0 39 0;
#X connect 41 0 65 2;
#X connect 42 0 44 0;
#X connect 43 0 42 0;
#X connect 44 0 41 1;
#X connect 45 0 46 0;
#X connect 46 0 47 0;
#X connect 47 0 48 0;
#X connect 48 0 49 0;
#X connect 48 1 49 1;
#X connect 49 0 50 0;
#X connect 50 0 51 0;
#X connect 51 0 52 0;
#X connect 52 0 53 0;
#X connect 53 0 0 0;
#X connect 55 0 63 2;
#X connect 56 0 58 0;
#X connect 57 0 56 0;
#X connect 58 0 55 1;
#X connect 59 0 65 3;
#X connect 60 0 65 1;
#X connect 61 0 63 3;
#X connect 62 0 63 1;
#X connect 63 0 33 0;
#X connect 63 0 67 0;
#X connect 64 0 84 0;
#X connect 65 0 32 0;
#X connect 66 0 67 1;
#X connect 67 0 65 5;
#X connect 69 0 79 0;
#X connect 71 0 60 1;
#X connect 72 0 62 1;
#X connect 73 0 74 1;
#X connect 73 0 74 0;
#X connect 74 0 71 0;
#X connect 77 0 41 0;
#X connect 78 0 55 0;
#X connect 79 1 80 0;
#X connect 79 1 81 0;
#X connect 80 0 63 4;
#X connect 80 0 64 2;
#X connect 81 0 65 6;
#X connect 82 0 84 1;
#X connect 84 0 75 0;
#X connect 84 0 34 0;
#X connect 84 0 61 0;
#X connect 84 0 78 0;
#X connect 84 0 62 0;
#X connect 84 0 59 0;
#X connect 84 0 77 0;
#X connect 84 0 60 0;
#X connect 85 0 65 7;
#X connect 86 0 63 6;
#X connect 87 0 64 3;
#X connect 89 0 90 1;
#X connect 89 0 90 0;
#X connect 90 0 72 0;
#X restore -30 453 pd three_oscillator_block_16times_oversampled;
#X obj -29 31 inlet;
#X obj 125 187 hradio 15 1 1 4 empty empty wave 3 8 0 10 -261682 -1
-99865 0;
#X obj 318 105 vsl 15 80 0 120 0 1 empty empty cf 2 4 0 8 -204800 -1
-1 1000 1;
#X obj 352 105 vsl 15 80 0 0.85 0 1 empty empty rs 2 4 0 8 -204800
-1 -1 3900 1;
#X obj 616 580 *;
#X obj 178 207 tgl 15 1 empty empty ep 2 7 0 8 -262144 -1 -1 0 -2;
#X obj 650 550 + 1;
#X obj 622 524 t b f;
#X obj 497 357 *;
#X obj 497 405 * 10000;
#X obj 498 383 *;
#X obj 410 323 *;
#X obj 413 371 * 10000;
#X obj 411 349 *;
#X obj 580 372 *;
#X obj 583 420 * 10000;
#X obj 581 398 *;
#X obj 314 715 +~;
#X obj 301 688 *~;
#X obj 406 625 +;
#X obj 406 565 t b f;
#X obj 60 -53 inlet;
#X obj 408 825 abs_adsr2a;
#X obj 131 926 *~;
#X obj 387 108 vsl 15 80 0.2 1 0 1 empty empty d 5 5 0 8 -262144 -1
-1 3400 1;
#X obj 246 517 *;
#X obj 246 565 * 10000;
#X obj 247 543 *;
#X obj 187 501 *;
#X obj 179 561 * 10000;
#X obj 180 528 *;
#X obj 341 565 *;
#X obj 327 617 * 10000;
#X obj 342 591 *;
#X obj 404 108 vsl 15 80 0 1 0 1 empty empty s 5 5 0 8 -262144 -1 -1
2300 1;
#X obj 421 108 vsl 15 80 0.2 1 0 1 empty empty r 5 5 0 8 -262144 -1
-1 1700 1;
#X obj 370 108 vsl 15 80 0.2 1 0 1 empty empty a 5 5 0 8 -262144 -1
-1 0 1;
#X obj 289 816 sig~;
#X obj 310 563 *;
#X obj 267 105 vsl 15 60 0 1 0 1 empty empty 1 5 5 0 8 -261682 -1 -1
4300 1;
#X obj 284 105 vsl 15 60 0 1 0 1 empty empty 2 5 5 0 8 -262130 -1 -1
4700 1;
#X obj 301 105 vsl 15 60 0 1 0 1 empty empty 3 5 5 0 8 -204786 -1 -1
3800 1;
#X obj 141 121 vsl 15 60 0 1 0 1 empty empty rm 2 4 0 8 -261682 -1
-1 0 1;
#X obj 125 121 vsl 15 60 0 1 0 1 empty empty fm 2 4 0 8 -261682 -1
-1 2700 1;
#X obj 158 121 vsl 15 60 0 1 0 1 empty empty pm 2 4 0 8 -261682 -1
-1 0 1;
#X obj 190 187 hradio 15 1 1 4 empty empty wave 3 8 0 10 -262130 -1
-99865 0;
#X obj 208 122 vsl 15 60 0 1 0 1 empty empty rm 2 4 0 8 -262130 -1
-1 0 1;
#X obj 191 122 vsl 15 60 0 1 0 1 empty empty fm 2 4 0 8 -262130 -1
-1 0 1;
#X obj 225 122 vsl 15 60 0 1 0 1 empty empty pm 2 4 0 8 -262130 -1
-1 0 1;
#X obj 255 172 hradio 15 1 1 4 empty empty wave 3 8 0 10 -204786 -1
-99865 1;
#X obj 31 185 +;
#X obj 191 104 nbx 5 14 -24 24 0 1 empty empty empty 0 -8 0 10 -262130
-1 -1 0.01 256;
#X obj 263 384 *;
#X obj 285 410 *;
#X obj 141 406 sig~;
#X obj 136 354 +;
#X obj 255 191 nbx 5 14 -99 999 0 1 empty empty empty 0 -8 0 10 -204786
-1 -1 -12.01 256;
#X obj 266 207 hsl 80 15 0 1 0 1 empty empty a 2 7 0 10 -262144 -1
-1 0 1;
#X obj 355 207 hsl 80 15 0 1 0 1 empty empty d 2 7 0 10 -262144 -1
-1 3500 1;
#X obj 266 225 hsl 80 15 0 1 0 1 empty empty s 2 7 0 10 -262144 -1
-1 5700 1;
#X obj 355 225 hsl 80 15 0 1 0 1 empty empty r 2 7 0 10 -262144 -1
-1 2200 1;
#X obj 348 194 hsl 70 10 -1 1 0 1 empty empty kt -2 5 0 10 -204800
-1 -1 1500 1;
#X obj 198 207 hsl 60 15 0 1 0 1 empty empty >filter 2 7 0 10 -262144
-1 -1 4600 1;
#X obj 572 498 * 120;
#X obj 311 190 hradio 15 1 1 2 empty empty fix 2 8 0 10 -204786 -1
-99865 0;
#X obj 166 225 tgl 15 1 empty empty ep 2 7 0 8 -262144 -1 -1 0 -2;
#X obj 186 225 hsl 60 15 0 1 0 1 empty empty >pitch 2 7 0 10 -262144
-1 -1 0 1;
#X obj 112 225 tgl 15 1 empty empty 1 5 8 0 8 -262144 -1 -1 0 1;
#X obj 130 225 tgl 15 1 empty empty 2 5 8 0 8 -262144 -1 -1 0 1;
#X obj 147 225 tgl 15 1 empty empty 3 5 8 0 8 -262144 -1 -1 0 1;
#X obj 166 347 == 0;
#X obj 237 352 *;
#X obj 139 378 spigot;
#X obj 183 377 spigot;
#X obj 199 308 t b f;
#X obj 335 105 vsl 15 80 0 1 0 1 empty empty fm 2 4 0 8 -204800 -1
-1 0 1;
#X obj 218 733 *~;
#X obj 249 691 * 36;
#X obj 262 666 *;
#X obj 244 711 sig~;
#X obj 404 506 - 64;
#X obj 405 533 *;
#X obj 734 554 *;
#X obj 783 531 + 1;
#X obj 749 496 t b f;
#X obj 682 764 *~;
#X obj 711 693 *;
#X obj 709 666 t b f;
#X obj 746 765 *~;
#X obj 763 714 *;
#X obj 761 687 t b f;
#X obj 803 769 *~;
#X obj 828 730 *;
#X obj 826 703 t b f;
#X obj -32 247 mtof~;
#X obj -30 165 sig~;
#X obj 34 265 mtof~;
#X obj 31 210 sig~;
#X obj 686 496 * 48;
#N canvas 1 77 450 300 softclip 0;
#X obj 134 48 inlet~;
#X obj 135 200 outlet~;
#X obj 136 164 /~;
#X obj 174 88 abs~;
#X obj 183 133 +~ 1;
#X connect 0 0 2 0;
#X connect 0 0 3 0;
#X connect 2 0 1 0;
#X connect 3 0 4 0;
#X connect 4 0 2 1;
#X restore 122 900 pd softclip;
#X obj 104 207 tgl 15 1 empty empty ep 2 7 0 8 -262144 -1 -1 0 -2;
#X obj 124 207 hsl 50 15 0 1 0 1 empty empty >osc3 2 7 0 10 -262144
-1 -1 4300 1;
#X obj 32 649 *;
#X obj 48 624 + 1;
#X obj 14 599 t b f;
#X obj 83 701 *~;
#X obj 75 599 -;
#X msg 72 576 1;
#X obj 80 551 t b f;
#X obj 119 642 sig~;
#X obj 107 172 vradio 15 1 1 2 empty empty sc 1 6 0 10 -261682 -1 -99865
0;
#X obj 175 121 vsl 10 60 0 0.99 0 1 empty empty pw 0 3 0 8 -261682
-1 -1 0 1;
#X obj 242 122 vsl 10 60 0 0.99 0 1 empty empty pw 0 3 0 8 -262130
-1 -1 0 1;
#X obj 255 107 vsl 10 60 0 0.99 0 1 empty empty pw 0 3 0 8 -204786
-1 -1 0 1;
#X text 489 820 amp-env;
#X text 523 535 mod-env;
#X text 587 546 filtermod;
#X text 764 558 pitchmod;
#X text 403 46 classic 3 osc monosynth \, 3rd osc can be used as modulator
for fm \, rm \, pwm and filter-fm;
#X text 567 111 5/2017 martin brinkmann;
#X text 58 -72 gate (midi velocity 0..127);
#X text -60 9 pitch (note nr);
#X obj 57 -26 / 128;
#X obj 102 117 vsl 10 50 0 1 0 1 empty empty v 2 3 0 8 -262144 -1 -1
2500 1;
#X obj 113 117 vsl 10 50 0 1 0 1 empty empty a 2 3 0 8 -262144 -1 -1
0 1;
#X obj 900 474 float;
#X obj 904 497 pack f f f f f f f f f f f f f f f f f f f f f f f f
f f f f f f f f f f f f f f f f f f, f 89;
#X obj 836 -99 unpack f f f f f f f f f f f f f f f f f f f f f f f
f f f f f f f f f f f f f f f f f f f, f 91;
#X obj 403 -59 inlet;
#X text 401 -80 cutoff-mod;
#X obj 485 -58 inlet;
#X text 484 -80 filter-env-mod;
#X obj 282 -103 inlet;
#X text 279 -124 vibrato-depth;
#X obj 401 -38 / 128;
#X obj 484 -35 / 128;
#X obj 596 -78 inlet;
#X obj 595 -55 / 128;
#X obj 685 -59 inlet;
#X text 684 -81 pitch-mod-amt;
#X obj 131 47 osc~;
#X obj 128 17 * 30;
#X obj 101 48 *;
#X obj 130 74 *~;
#X obj 237 -10 *;
#X obj 137 427 mtof~;
#X obj 168 49 * 12;
#X obj 192 21 *;
#X obj 274 20 +;
#X obj 285 -7 t b f;
#X obj 226 47 clip 0 1;
#X obj 282 -80 / 128;
#X obj 401 672 +;
#X obj 433 636 t b f;
#X obj 186 800 clip~ 7 20000;
#X obj 393 -13 * 60;
#X obj 477 -13 * 60;
#X obj 584 521 +;
#X obj 615 491 t b f;
#X obj 697 526 +;
#X obj 719 461 t b f;
#X obj 684 -36 / 3;
#X obj 277 -41 *;
#X obj 97 488 clip~ -1 1;
#X obj 124 537 sig~;
#X text 594 -98 osc3-mod-env-amt;
#X obj 402 895 *~;
#X obj 27 84 change;
#X obj 24 62 > 0;
#X obj 60 113 *;
#X obj 38 11 t f f;
#X obj 1024 621 outlet;
#X text 1021 639 preset;
#X obj 839 -122 inlet;
#X text 837 -138 preset;
#X msg 1023 552 set \$1 \$2 \$3 \$4 \$5 \$6 \$7 \$8 \$9 \$10 \$11 \$12
\$13 \$14 \$15 \$16 \$17 \$18 \$19 \$20 \$21 \$22 \$23 \$24 \$25 \$26
\$27 \$28 \$29 \$30 \$31 \$32 \$33;
#X obj 426 193 bng 11 250 50 0 empty empty v 3 5 0 10 -262144 -1 -1
;
#X connect 0 0 1 0;
#X connect 1 0 105 0;
#X connect 2 0 160 0;
#X connect 3 0 24 0;
#X connect 3 0 91 0;
#X connect 3 0 94 0;
#X connect 3 0 97 0;
#X connect 3 0 111 0;
#X connect 5 0 0 0;
#X connect 5 1 82 0;
#X connect 6 0 56 0;
#X connect 6 0 61 0;
#X connect 6 0 86 0;
#X connect 6 0 101 0;
#X connect 7 0 5 1;
#X connect 7 0 132 23;
#X connect 8 0 25 0;
#X connect 8 0 132 15;
#X connect 9 0 43 0;
#X connect 9 0 132 17;
#X connect 10 0 24 1;
#X connect 11 0 13 0;
#X connect 11 0 132 31;
#X connect 12 0 10 1;
#X connect 13 0 10 0;
#X connect 13 1 12 0;
#X connect 14 0 16 1;
#X connect 14 0 16 0;
#X connect 15 0 3 2;
#X connect 16 0 15 0;
#X connect 17 0 19 1;
#X connect 17 0 19 0;
#X connect 18 0 3 1;
#X connect 19 0 18 0;
#X connect 20 0 22 1;
#X connect 20 0 22 0;
#X connect 21 0 3 4;
#X connect 22 0 21 0;
#X connect 23 0 2 0;
#X connect 24 0 23 0;
#X connect 25 0 158 0;
#X connect 26 0 25 0;
#X connect 26 1 25 1;
#X connect 27 0 128 0;
#X connect 28 0 172 1;
#X connect 28 0 172 0;
#X connect 29 0 4 0;
#X connect 30 0 31 1;
#X connect 30 0 31 0;
#X connect 30 0 132 19;
#X connect 31 0 33 1;
#X connect 31 0 33 0;
#X connect 32 0 28 2;
#X connect 33 0 32 0;
#X connect 34 0 36 1;
#X connect 34 0 36 0;
#X connect 35 0 28 1;
#X connect 36 0 35 0;
#X connect 37 0 39 1;
#X connect 37 0 39 0;
#X connect 38 0 28 4;
#X connect 39 0 38 0;
#X connect 40 0 44 1;
#X connect 40 0 44 0;
#X connect 40 0 132 20;
#X connect 41 0 37 1;
#X connect 41 0 37 0;
#X connect 41 0 132 21;
#X connect 42 0 34 1;
#X connect 42 0 34 0;
#X connect 42 0 132 18;
#X connect 43 0 1 2;
#X connect 43 0 0 2;
#X connect 44 0 28 3;
#X connect 45 0 77 1;
#X connect 45 0 77 0;
#X connect 45 0 132 12;
#X connect 46 0 58 1;
#X connect 46 0 58 0;
#X connect 46 0 132 13;
#X connect 47 0 59 1;
#X connect 47 0 59 0;
#X connect 47 0 132 14;
#X connect 48 0 5 3;
#X connect 48 0 132 3;
#X connect 49 0 5 2;
#X connect 49 0 132 2;
#X connect 50 0 5 4;
#X connect 50 0 132 4;
#X connect 51 0 5 7;
#X connect 51 0 132 24;
#X connect 52 0 5 9;
#X connect 52 0 132 8;
#X connect 53 0 5 8;
#X connect 53 0 132 7;
#X connect 54 0 5 10;
#X connect 54 0 132 9;
#X connect 55 0 5 12;
#X connect 55 0 132 25;
#X connect 56 0 103 0;
#X connect 57 0 56 1;
#X connect 57 0 132 6;
#X connect 58 0 5 15;
#X connect 59 0 5 16;
#X connect 60 0 151 0;
#X connect 61 0 78 0;
#X connect 62 0 61 1;
#X connect 62 0 132 26;
#X connect 62 0 79 0;
#X connect 63 0 17 1;
#X connect 63 0 17 0;
#X connect 63 0 132 33;
#X connect 64 0 14 1;
#X connect 64 0 14 0;
#X connect 64 0 132 34;
#X connect 65 0 3 3;
#X connect 65 0 132 40;
#X connect 66 0 20 1;
#X connect 66 0 20 0;
#X connect 66 0 132 41;
#X connect 67 0 87 1;
#X connect 67 0 132 28;
#X connect 68 0 69 0;
#X connect 68 0 132 32;
#X connect 69 0 163 0;
#X connect 70 0 80 0;
#X connect 70 0 132 27;
#X connect 71 0 90 0;
#X connect 71 0 132 38;
#X connect 72 0 104 0;
#X connect 72 0 132 39;
#X connect 73 0 93 0;
#X connect 73 0 132 35;
#X connect 74 0 96 0;
#X connect 74 0 132 36;
#X connect 75 0 99 0;
#X connect 75 0 132 37;
#X connect 76 0 78 1;
#X connect 77 0 5 14;
#X connect 78 0 60 0;
#X connect 79 0 60 0;
#X connect 80 0 62 0;
#X connect 80 1 76 0;
#X connect 80 1 79 1;
#X connect 81 0 84 1;
#X connect 81 0 84 0;
#X connect 81 0 132 16;
#X connect 82 0 2 0;
#X connect 83 0 85 0;
#X connect 84 0 83 0;
#X connect 85 0 82 1;
#X connect 86 0 87 0;
#X connect 87 0 26 0;
#X connect 88 0 92 0;
#X connect 88 0 95 0;
#X connect 88 0 98 0;
#X connect 89 0 88 1;
#X connect 90 0 88 0;
#X connect 90 1 89 0;
#X connect 91 0 100 0;
#X connect 92 0 91 1;
#X connect 93 0 92 0;
#X connect 93 1 92 1;
#X connect 94 0 102 0;
#X connect 95 0 94 1;
#X connect 96 0 95 0;
#X connect 96 1 95 1;
#X connect 97 0 5 11;
#X connect 98 0 97 1;
#X connect 99 0 98 0;
#X connect 99 1 98 1;
#X connect 100 0 5 0;
#X connect 101 0 100 0;
#X connect 102 0 5 6;
#X connect 103 0 102 0;
#X connect 104 0 165 0;
#X connect 105 0 29 0;
#X connect 106 0 110 0;
#X connect 106 0 132 29;
#X connect 107 0 132 30;
#X connect 107 0 108 0;
#X connect 107 0 114 0;
#X connect 108 0 111 1;
#X connect 109 0 108 1;
#X connect 110 0 108 0;
#X connect 110 1 109 0;
#X connect 111 0 169 0;
#X connect 112 0 115 0;
#X connect 113 0 112 0;
#X connect 114 0 113 0;
#X connect 114 1 112 1;
#X connect 115 0 169 0;
#X connect 116 0 5 5;
#X connect 116 0 132 22;
#X connect 117 0 5 18;
#X connect 117 0 132 5;
#X connect 118 0 5 19;
#X connect 118 0 132 10;
#X connect 119 0 5 20;
#X connect 119 0 132 11;
#X connect 128 0 176 0;
#X connect 129 0 131 1;
#X connect 129 0 148 1;
#X connect 129 0 148 0;
#X connect 130 0 132 1;
#X connect 130 0 155 0;
#X connect 131 0 132 0;
#X connect 132 0 181 0;
#X connect 133 0 129 0;
#X connect 133 1 130 0;
#X connect 133 2 49 0;
#X connect 133 3 48 0;
#X connect 133 4 50 0;
#X connect 133 5 117 0;
#X connect 133 6 57 0;
#X connect 133 7 53 0;
#X connect 133 8 52 0;
#X connect 133 9 54 0;
#X connect 133 10 118 0;
#X connect 133 11 119 0;
#X connect 133 12 45 0;
#X connect 133 13 46 0;
#X connect 133 14 47 0;
#X connect 133 15 8 0;
#X connect 133 16 81 0;
#X connect 133 17 9 0;
#X connect 133 18 42 0;
#X connect 133 19 30 0;
#X connect 133 20 40 0;
#X connect 133 21 41 0;
#X connect 133 22 116 0;
#X connect 133 23 7 0;
#X connect 133 24 51 0;
#X connect 133 25 55 0;
#X connect 133 26 62 0;
#X connect 133 27 70 0;
#X connect 133 28 67 0;
#X connect 133 29 106 0;
#X connect 133 30 107 0;
#X connect 133 31 11 0;
#X connect 133 32 68 0;
#X connect 133 33 63 0;
#X connect 133 34 64 0;
#X connect 133 35 73 0;
#X connect 133 36 74 0;
#X connect 133 37 75 0;
#X connect 133 38 71 0;
#X connect 133 39 72 0;
#X connect 133 40 65 0;
#X connect 133 41 66 0;
#X connect 134 0 140 0;
#X connect 136 0 141 0;
#X connect 138 0 157 0;
#X connect 140 0 161 0;
#X connect 141 0 162 0;
#X connect 142 0 143 0;
#X connect 143 0 170 0;
#X connect 144 0 167 0;
#X connect 146 0 149 0;
#X connect 147 0 146 0;
#X connect 148 0 147 0;
#X connect 149 0 100 0;
#X connect 149 0 102 0;
#X connect 150 0 153 1;
#X connect 150 0 153 0;
#X connect 151 0 5 11;
#X connect 152 0 149 1;
#X connect 153 0 152 0;
#X connect 154 0 156 0;
#X connect 155 0 154 0;
#X connect 155 1 154 1;
#X connect 156 0 150 1;
#X connect 156 0 150 0;
#X connect 157 0 168 1;
#X connect 157 0 168 0;
#X connect 158 0 23 1;
#X connect 159 0 158 0;
#X connect 159 1 158 1;
#X connect 160 0 0 1;
#X connect 160 0 1 1;
#X connect 161 0 159 0;
#X connect 162 0 164 0;
#X connect 163 0 10 0;
#X connect 164 0 163 0;
#X connect 164 1 163 1;
#X connect 165 0 88 0;
#X connect 166 0 165 0;
#X connect 166 1 165 1;
#X connect 167 0 166 0;
#X connect 168 0 154 0;
#X connect 169 0 5 13;
#X connect 170 0 169 0;
#X connect 172 0 29 1;
#X connect 173 0 5 17;
#X connect 173 0 146 1;
#X connect 173 0 175 0;
#X connect 174 0 173 0;
#X connect 175 0 28 0;
#X connect 175 0 3 0;
#X connect 176 0 174 0;
#X connect 176 1 175 1;
#X connect 179 0 133 0;
#X connect 181 0 177 0;
#X connect 182 0 131 0;
#X coords 0 -1 1 1 340 145 1 100 100;
#X restore 81 202 pd 3osc1;
#X obj 194 171 ctlin 1;
#X obj 249 171 ctlin 64;
#X obj 316 171 ctlin 65;
#X obj 444 173 ctlin 67;
#X obj 379 170 ctlin 66;
#X text 240 153 cutoff-mod;
#X text 316 152 filter-env-mod;
#X text 149 151 vibrato-depth;
#X text 500 163 pitch-mod-amt;
#X text 411 151 osc3-mod-env-amt;
#X msg 472 398 0.510204 0 0.457627 0 0 0 0.01 0 0 0 0 0 0.728814 0.79661
0.644068 15.1899 0 0.41962 0.2 0.544304 0.392405 0.372152 0 0 0 1 -12.01
0 -0.565217 0 0.877551 0 0.779661;
#X connect 1 0 0 0;
#X connect 1 0 0 1;
#X connect 2 0 9 0;
#X connect 2 1 12 1;
#X connect 3 0 5 0;
#X connect 4 0 12 0;
#X connect 5 0 7 0;
#X connect 6 0 10 0;
#X connect 7 0 6 0;
#X connect 8 0 9 0;
#X connect 9 0 4 0;
#X connect 10 0 4 1;
#X connect 10 0 8 0;
#X connect 12 0 1 0;
#X connect 12 1 23 0;
#X connect 13 0 12 2;
#X connect 14 0 12 3;
#X connect 15 0 12 4;
#X connect 16 0 12 6;
#X connect 17 0 12 5;
#X connect 23 0 12 7;
