#N canvas 694 251 1195 563 10;
#X obj 110 257 *~ 0.5;
#X obj 228 59 bendin;
#N canvas 689 67 1231 872 tri_ops4p 1;
#X obj 172 758 outlet~;
#X obj 172 704 *~;
#X obj 249 704 *~;
#X obj 172 731 *~ 0.25;
#X obj 211 704 *~;
#X obj 183 137 clip 0 1;
#X obj 121 93 inlet;
#X text 122 71 pitch;
#X obj 183 91 inlet;
#X text 222 93 gate;
#X obj 120 159 pack 0 0;
#X obj 119 330 pack 0 0 0;
#X obj 275 121 - 8192;
#X obj 275 163 clip -1 1;
#X obj 275 142 / 8192;
#X obj 275 184 * 2;
#X text 335 154 bend range;
#X obj 275 100 inlet;
#X text 275 79 bend;
#X obj 183 114 / 128;
#X obj 183 160 t b;
#X text 53 -9 3op fm synth;
#X obj 387 102 inlet;
#X obj 443 101 inlet;
#X text 447 85 fb mod;
#X text 385 85 fma mod;
#X obj 388 129 / 128;
#X obj 119 402 route 1 2 3 4;
#N canvas 355 65 1549 917 tri_ops4_frequency_modulation_synthesizer_voice
0;
#X obj 686 592 mtof;
#X obj 106 48 clip 0 1;
#X obj 737 765 *~;
#X obj 737 794 outlet~;
#X obj 752 721 line~;
#X msg 752 700 \$1 1.6;
#X obj 184 436 *;
#X obj 199 620 line~;
#X msg 199 599 \$1 1.6;
#X obj 738 621 abs_fm_op1;
#X obj 754 557 *~;
#X obj 184 664 *~;
#X obj 184 529 abs_fm_op1;
#X obj 199 641 *~;
#X obj 752 742 *~;
#X obj 768 472 *;
#X obj 1095 329 / 128;
#X obj 1095 353 *;
#X obj 768 492 +;
#X obj 479 690 line~;
#X msg 479 667 \$1 1.6;
#X obj 462 594 abs_fm_op1;
#X obj 481 527 *~;
#X obj 479 713 *~, f 4;
#X obj 496 425 *;
#X obj 496 445 +;
#X obj 464 737 *~;
#X obj 458 372 *;
#X obj 752 435 *~;
#X obj 767 340 *;
#X obj 767 361 +;
#X obj 768 512 +;
#X obj 767 382 +;
#X obj 496 465 +;
#X obj 241 435 +;
#X obj 852 536 +;
#X obj 571 515 +;
#X obj 154 299 +;
#X obj 198 300 +;
#X obj 154 322 mtof;
#X obj 199 323 mtof;
#X obj 217 281 * -1;
#X obj 479 644 abs_adsr2m;
#X obj 752 679 abs_adsr2m;
#X obj 199 578 abs_adsr2m;
#X text 409 12 3op fm voice;
#X obj 998 61 inlet;
#X obj 195 20 inlet;
#X obj 184 729 outlet~;
#X obj 464 769 outlet~;
#X obj 511 386 t b f;
#X obj 782 288 t b f;
#X obj 768 452 t b f;
#X obj 201 392 t b f;
#X obj 457 343 t b f;
#N canvas 1 77 450 300 opwaveformselect 0;
#X obj 144 76 inlet;
#X obj 130 115 select 0 1 2 3 4;
#X msg 80 136 0 1 0 1 1 0;
#X msg 100 161 0.5 1.5 0 2 1 0;
#X msg 136 211 0 0.5 0.75 1 2 1;
#X msg 115 189 0 0.5 0.75 0.5 2 1;
#X msg 174 231 0.5 1 0 1 1 0;
#X obj 107 270 outlet;
#X text 160 270 waveform parameters;
#X text 188 75 int 0..4 (sine \, ...);
#X connect 0 0 1 0;
#X connect 1 0 2 0;
#X connect 1 1 3 0;
#X connect 1 2 5 0;
#X connect 1 3 4 0;
#X connect 1 4 6 0;
#X connect 2 0 7 0;
#X connect 3 0 7 0;
#X connect 4 0 7 0;
#X connect 5 0 7 0;
#X connect 6 0 7 0;
#X restore 196 505 pd opwaveformselect;
#N canvas 1 77 450 300 opwaveformselect 0;
#X obj 144 76 inlet;
#X obj 130 115 select 0 1 2 3 4;
#X msg 80 136 0 1 0 1 1 0;
#X msg 100 161 0.5 1.5 0 2 1 0;
#X msg 136 211 0 0.5 0.75 1 2 1;
#X msg 115 189 0 0.5 0.75 0.5 2 1;
#X msg 174 231 0.5 1 0 1 1 0;
#X obj 107 270 outlet;
#X text 160 270 waveform parameters;
#X text 188 75 int 0..4 (sine \, ...);
#X connect 0 0 1 0;
#X connect 1 0 2 0;
#X connect 1 1 3 0;
#X connect 1 2 5 0;
#X connect 1 3 4 0;
#X connect 1 4 6 0;
#X connect 2 0 7 0;
#X connect 3 0 7 0;
#X connect 4 0 7 0;
#X connect 5 0 7 0;
#X connect 6 0 7 0;
#X restore 778 598 pd opwaveformselect;
#N canvas 1 77 450 300 opwaveformselect 0;
#X obj 144 76 inlet;
#X obj 130 115 select 0 1 2 3 4;
#X msg 80 136 0 1 0 1 1 0;
#X msg 100 161 0.5 1.5 0 2 1 0;
#X msg 136 211 0 0.5 0.75 1 2 1;
#X msg 115 189 0 0.5 0.75 0.5 2 1;
#X msg 174 231 0.5 1 0 1 1 0;
#X obj 107 270 outlet;
#X text 160 270 waveform parameters;
#X text 188 75 int 0..4 (sine \, ...);
#X connect 0 0 1 0;
#X connect 1 0 2 0;
#X connect 1 1 3 0;
#X connect 1 2 5 0;
#X connect 1 3 4 0;
#X connect 1 4 6 0;
#X connect 2 0 7 0;
#X connect 3 0 7 0;
#X connect 4 0 7 0;
#X connect 5 0 7 0;
#X connect 6 0 7 0;
#X restore 501 572 pd opwaveformselect;
#X text 540 598 operator 2;
#X text 495 14 op1->op2 \, op2+op1->op3;
#X text 102 663 operatoor1;
#X obj 496 505 clip~ 0 1;
#X obj 496 485 sig~;
#X obj 768 532 sig~;
#X obj 767 403 sig~;
#X obj 1198 372 *;
#X obj 1318 329 *;
#X obj 1318 353 *;
#X obj 1198 347 / 2;
#N canvas 1 77 1085 696 msg_lfo 0;
#X obj 52 -61 metro 5;
#X obj 51 -29 float;
#X obj 78 17 + 1;
#X obj 108 17 / 200;
#X obj 93 -15 wrap;
#X obj 54 62 cos;
#X obj 54 38 * 6.28319;
#X obj 78 176 outlet;
#X obj 194 -85 inlet;
#X obj 51 -116 loadbang;
#X msg 50 -87 bang;
#X text 208 -113 freq;
#X connect 0 0 1 0;
#X connect 1 0 2 0;
#X connect 2 0 4 0;
#X connect 2 0 6 0;
#X connect 3 0 2 1;
#X connect 4 0 1 1;
#X connect 5 0 7 0;
#X connect 6 0 5 0;
#X connect 8 0 3 0;
#X connect 9 0 10 0;
#X connect 10 0 0 0;
#X restore 1198 243 pd msg_lfo;
#X obj 1198 321 +;
#X obj 1198 295 t b f;
#X obj 1198 269 *;
#X obj 1282 274 *;
#X obj 1318 305 +;
#X obj 1318 281 t b f;
#X text 1043 56 3x adsr \, 3x waveform \, keytrack \, lfo freq \, fm-amt
\, fb-amt;
#X obj 1318 377 * 0.25;
#X obj 571 537 clip 0 0.25;
#X obj 851 557 clip 0 0.25;
#X obj 241 457 clip 0 0.25;
#X obj 1105 132 unpack f f f;
#X obj 1188 129 unpack f f f f;
#X obj 998 83 list trim;
#X obj 194 41 list trim;
#X obj 194 63 route detune rat fb fm;
#X obj 1109 178 pack f f f f f f f;
#X obj 1110 199 unpack f f f f f f f;
#X obj 718 156 expr pow($f1 \, 4);
#X obj 780 134 expr pow($f1 \, 4);
#X obj 511 101 expr pow($f1 \, 4);
#X obj 338 195 expr pow($f1 \, 2);
#X obj 570 166 expr pow($f1 \, 2);
#X obj 865 115 expr pow($f1 \, 2);
#X obj 1319 411 s \$0-fb_mod;
#X obj 571 471 r \$0-fb_mod;
#X obj 571 493 t b f;
#X obj 241 391 r \$0-fb_mod;
#X obj 241 413 t b f;
#X obj 854 490 r \$0-fb_mod;
#X obj 854 514 t b f;
#X obj 1197 394 s \$0-msg_lfo;
#X obj 527 426 r \$0-msg_lfo;
#X obj 528 447 t b f;
#X obj 807 339 r \$0-msg_lfo;
#X obj 808 360 t b f;
#X obj 806 449 r \$0-msg_lfo;
#X obj 807 470 t b f;
#X obj 106 71 s \$0-gate;
#X obj 199 557 r \$0-gate;
#X obj 752 658 r \$0-gate;
#X obj 479 621 r \$0-gate;
#X obj 221 218 expr pow($f1 \, 2) * 0.5;
#X obj 194 190 t b f;
#X obj 154 275 t f;
#X obj 1095 377 s \$0-pitch_cent;
#X obj 496 405 r \$0-pitch_cent;
#X obj 785 430 r \$0-pitch_cent;
#X obj 767 319 r \$0-pitch_cent;
#X obj 1110 225 s \$0-wave0;
#X obj 196 484 r \$0-wave0;
#X obj 1118 247 s \$0-wave1;
#X obj 501 552 r \$0-wave1;
#X obj 1126 270 s \$0-wave2;
#X obj 785 577 r \$0-wave2;
#X obj 26 48 s \$0-pitch;
#X obj 154 250 r \$0-pitch;
#X obj 685 570 r \$0-pitch;
#X obj 1095 305 r \$0-pitch;
#X obj 984 183 s \$0-adsr0;
#X obj 1006 204 s \$0-adsr1;
#X obj 1033 228 s \$0-adsr2;
#X obj 266 557 r \$0-adsr0;
#X obj 541 621 r \$0-adsr1;
#X obj 809 646 r \$0-adsr2;
#X obj 226 87 unpack f f;
#X floatatom 457 163 5 0 0 2 rat2 - -, f 5;
#X floatatom 250 167 5 0 0 2 rat1 - -, f 5;
#X obj 339 96 unpack f f f;
#X floatatom 338 166 5 0 0 2 fb1 - -, f 5;
#X floatatom 571 146 5 0 0 2 fb2 - -, f 5;
#X floatatom 865 91 5 0 0 2 fb3 - -, f 5;
#X obj 26 24 inlet pitch;
#X obj 106 24 inlet gate;
#X obj 513 40 unpack f f f;
#X floatatom 511 81 5 0 0 2 fm3 - -, f 5;
#X floatatom 780 112 5 0 0 2 fm2 - -, f 5;
#X floatatom 718 133 5 0 0 2 fm1 - -, f 5;
#X obj 998 104 route adsr0 adsr1 adsr2 wave ktLfoFmFb trigger mod;
#X obj 1302 134 unpack f f;
#X floatatom 1304 187 5 0 0 2 fma_mod - -, f 5;
#X floatatom 1359 185 5 0 0 2 fb_mod - -, f 5;
#X connect 0 0 9 0;
#X connect 1 0 108 0;
#X connect 2 0 3 0;
#X connect 4 0 14 0;
#X connect 4 0 14 1;
#X connect 5 0 4 0;
#X connect 6 0 12 0;
#X connect 7 0 13 0;
#X connect 7 0 13 1;
#X connect 8 0 7 0;
#X connect 9 0 2 0;
#X connect 10 0 9 1;
#X connect 11 0 10 0;
#X connect 11 0 22 0;
#X connect 11 0 48 0;
#X connect 12 0 11 0;
#X connect 13 0 11 1;
#X connect 14 0 2 1;
#X connect 15 0 18 0;
#X connect 16 0 17 0;
#X connect 17 0 115 0;
#X connect 18 0 31 0;
#X connect 19 0 23 0;
#X connect 19 0 23 1;
#X connect 20 0 19 0;
#X connect 21 0 26 0;
#X connect 22 0 21 1;
#X connect 23 0 26 1;
#X connect 24 0 25 0;
#X connect 25 0 33 0;
#X connect 26 0 28 0;
#X connect 26 0 49 0;
#X connect 27 0 21 0;
#X connect 28 0 9 1;
#X connect 29 0 30 0;
#X connect 30 0 32 0;
#X connect 31 0 63 0;
#X connect 32 0 64 0;
#X connect 33 0 62 0;
#X connect 34 0 80 0;
#X connect 35 0 79 0;
#X connect 36 0 78 0;
#X connect 37 0 39 0;
#X connect 38 0 40 0;
#X connect 39 0 27 0;
#X connect 40 0 6 0;
#X connect 41 0 38 1;
#X connect 42 0 20 0;
#X connect 43 0 5 0;
#X connect 44 0 8 0;
#X connect 46 0 83 0;
#X connect 47 0 84 0;
#X connect 50 0 24 0;
#X connect 50 1 25 1;
#X connect 50 1 24 1;
#X connect 51 0 29 0;
#X connect 51 1 30 1;
#X connect 51 1 29 1;
#X connect 52 0 15 0;
#X connect 52 1 18 1;
#X connect 52 1 15 1;
#X connect 53 0 6 0;
#X connect 53 1 6 1;
#X connect 54 0 27 0;
#X connect 54 1 27 1;
#X connect 55 0 12 2;
#X connect 56 0 9 2;
#X connect 57 0 21 2;
#X connect 61 0 22 1;
#X connect 62 0 61 0;
#X connect 63 0 10 1;
#X connect 64 0 28 1;
#X connect 65 0 101 0;
#X connect 66 0 67 1;
#X connect 66 0 67 0;
#X connect 67 0 77 0;
#X connect 68 0 65 1;
#X connect 68 0 65 0;
#X connect 69 0 72 0;
#X connect 69 0 73 0;
#X connect 70 0 68 0;
#X connect 71 0 70 0;
#X connect 71 1 70 1;
#X connect 72 0 71 0;
#X connect 73 0 74 0;
#X connect 74 0 66 1;
#X connect 74 0 66 0;
#X connect 75 0 74 0;
#X connect 75 1 74 1;
#X connect 77 0 94 0;
#X connect 78 0 21 3;
#X connect 79 0 9 3;
#X connect 80 0 12 3;
#X connect 81 0 86 0;
#X connect 81 1 86 1;
#X connect 81 2 86 2;
#X connect 82 0 86 3;
#X connect 82 1 86 4;
#X connect 82 2 86 5;
#X connect 82 3 86 6;
#X connect 83 0 148 0;
#X connect 84 0 85 0;
#X connect 85 0 113 0;
#X connect 85 1 135 0;
#X connect 85 2 138 0;
#X connect 85 3 144 0;
#X connect 86 0 87 0;
#X connect 87 0 119 0;
#X connect 87 1 121 0;
#X connect 87 2 123 0;
#X connect 87 3 17 1;
#X connect 87 4 69 0;
#X connect 87 5 72 1;
#X connect 87 6 73 1;
#X connect 88 0 52 0;
#X connect 89 0 51 0;
#X connect 90 0 50 0;
#X connect 91 0 34 0;
#X connect 92 0 36 0;
#X connect 93 0 35 0;
#X connect 95 0 96 0;
#X connect 96 0 36 0;
#X connect 96 1 36 1;
#X connect 97 0 98 0;
#X connect 98 0 34 0;
#X connect 98 1 34 1;
#X connect 99 0 100 0;
#X connect 100 0 35 0;
#X connect 100 1 35 1;
#X connect 102 0 103 0;
#X connect 103 0 33 0;
#X connect 103 1 33 1;
#X connect 104 0 105 0;
#X connect 105 0 32 0;
#X connect 105 1 32 1;
#X connect 106 0 107 0;
#X connect 107 0 31 0;
#X connect 107 1 31 1;
#X connect 109 0 44 0;
#X connect 110 0 43 0;
#X connect 111 0 42 0;
#X connect 112 0 41 0;
#X connect 112 0 37 1;
#X connect 113 0 38 0;
#X connect 113 0 37 0;
#X connect 113 1 112 0;
#X connect 114 0 37 0;
#X connect 114 0 38 0;
#X connect 116 0 24 0;
#X connect 117 0 15 0;
#X connect 118 0 29 0;
#X connect 120 0 55 0;
#X connect 122 0 57 0;
#X connect 124 0 56 0;
#X connect 126 0 114 0;
#X connect 127 0 0 0;
#X connect 128 0 16 0;
#X connect 132 0 44 1;
#X connect 133 0 42 1;
#X connect 134 0 43 1;
#X connect 135 0 137 0;
#X connect 135 1 136 0;
#X connect 136 0 54 0;
#X connect 137 0 53 0;
#X connect 138 0 139 0;
#X connect 138 1 140 0;
#X connect 138 2 141 0;
#X connect 139 0 91 0;
#X connect 140 0 92 0;
#X connect 141 0 93 0;
#X connect 142 0 125 0;
#X connect 143 0 1 0;
#X connect 144 0 145 0;
#X connect 144 1 146 0;
#X connect 144 2 147 0;
#X connect 145 0 90 0;
#X connect 146 0 89 0;
#X connect 147 0 88 0;
#X connect 148 0 129 0;
#X connect 148 1 130 0;
#X connect 148 2 131 0;
#X connect 148 3 81 0;
#X connect 148 4 82 0;
#X connect 148 5 86 0;
#X connect 148 6 149 0;
#X connect 149 0 150 0;
#X connect 149 1 151 0;
#X connect 150 0 70 0;
#X connect 151 0 75 0;
#X restore 176 489 pd tri_ops4_frequency_modulation_synthesizer_voice
;
#X obj 119 309 poly 4 1;
#X text 45 50 set voicecount to 1 and delete other voices for a mono-synth
;
#X obj 505 177 *;
#X obj 505 9 loadbang;
#X obj 505 156 * 1;
#X obj 593 250 hsl 80 15 0 1 0 1 empty empty vib 8 5 0 10 -262144 -1
-1 4050 1;
#X obj 680 250 hsl 80 15 0 1 0 1 empty empty am 8 5 0 10 -262144 -1
-1 2700 1;
#X obj 505 51 metro 5;
#X obj 505 72 float;
#X obj 505 93 + 1;
#X obj 559 70 wrap;
#X obj 505 135 cos;
#X obj 505 114 * 6.28319;
#X text 505 30 vibrato lfo;
#X obj 275 205 +;
#X obj 310 186 t b f;
#X obj 534 158 *;
#X obj 632 0 inlet;
#X obj 445 125 / 128;
#X obj 854 583 outlet;
#X text 851 601 preset;
#X msg 183 183 trigger;
#X obj 183 206 s \$0-from_gui;
#X obj 473 465 r \$0-from_gui;
#X obj 71 584 r \$0-vol;
#X obj 71 648 unpack f f f;
#X obj 855 387 pack f f;
#X obj 855 365 t b f;
#X obj 855 409 list prepend mod;
#X obj 726 408 pack f f;
#X obj 734 384 t b f;
#X obj 726 432 list prepend vibAm;
#X obj 853 471 r \$0-from_gui;
#X obj 854 493 t a;
#X obj 71 626 route vol;
#X obj 71 606 list trim;
#N canvas 2162 189 747 691 organize_presets 0;
#X obj 128 62 inlet;
#X obj 128 109 t a a;
#X obj 155 133 unpack s;
#X obj 128 84 list trim;
#N canvas 726 344 450 300 set_msg 0;
#X obj 116 94 list prepend;
#X obj 116 116 list prepend set;
#X obj 116 138 list trim;
#X obj 116 67 inlet;
#X obj 185 66 inlet;
#X obj 116 167 outlet;
#X connect 0 0 1 0;
#X connect 1 0 2 0;
#X connect 2 0 5 0;
#X connect 3 0 0 0;
#X connect 4 0 0 1;
#X restore 128 190 pd set_msg;
#N canvas 726 344 450 300 set_msg 0;
#X obj 116 94 list prepend;
#X obj 116 116 list prepend set;
#X obj 116 138 list trim;
#X obj 116 67 inlet;
#X obj 185 66 inlet;
#X obj 116 167 outlet;
#X connect 0 0 1 0;
#X connect 1 0 2 0;
#X connect 2 0 5 0;
#X connect 3 0 0 0;
#X connect 4 0 0 1;
#X restore 165 215 pd set_msg;
#N canvas 726 344 450 300 set_msg 0;
#X obj 116 94 list prepend;
#X obj 116 116 list prepend set;
#X obj 116 138 list trim;
#X obj 116 67 inlet;
#X obj 185 66 inlet;
#X obj 116 167 outlet;
#X connect 0 0 1 0;
#X connect 1 0 2 0;
#X connect 2 0 5 0;
#X connect 3 0 0 0;
#X connect 4 0 0 1;
#X restore 201 193 pd set_msg;
#N canvas 726 344 450 300 set_msg 0;
#X obj 116 94 list prepend;
#X obj 116 116 list prepend set;
#X obj 116 138 list trim;
#X obj 116 67 inlet;
#X obj 185 66 inlet;
#X obj 116 167 outlet;
#X connect 0 0 1 0;
#X connect 1 0 2 0;
#X connect 2 0 5 0;
#X connect 3 0 0 0;
#X connect 4 0 0 1;
#X restore 239 215 pd set_msg;
#N canvas 726 344 450 300 set_msg 0;
#X obj 116 94 list prepend;
#X obj 116 116 list prepend set;
#X obj 116 138 list trim;
#X obj 116 67 inlet;
#X obj 185 66 inlet;
#X obj 116 167 outlet;
#X connect 0 0 1 0;
#X connect 1 0 2 0;
#X connect 2 0 5 0;
#X connect 3 0 0 0;
#X connect 4 0 0 1;
#X restore 277 194 pd set_msg;
#N canvas 726 344 450 300 set_msg 0;
#X obj 116 94 list prepend;
#X obj 116 116 list prepend set;
#X obj 116 138 list trim;
#X obj 116 67 inlet;
#X obj 185 66 inlet;
#X obj 116 167 outlet;
#X connect 0 0 1 0;
#X connect 1 0 2 0;
#X connect 2 0 5 0;
#X connect 3 0 0 0;
#X connect 4 0 0 1;
#X restore 313 215 pd set_msg;
#N canvas 726 344 450 300 set_msg 0;
#X obj 116 94 list prepend;
#X obj 116 116 list prepend set;
#X obj 116 138 list trim;
#X obj 116 67 inlet;
#X obj 185 66 inlet;
#X obj 116 167 outlet;
#X connect 0 0 1 0;
#X connect 1 0 2 0;
#X connect 2 0 5 0;
#X connect 3 0 0 0;
#X connect 4 0 0 1;
#X restore 351 195 pd set_msg;
#N canvas 726 344 450 300 set_msg 0;
#X obj 116 94 list prepend;
#X obj 116 116 list prepend set;
#X obj 116 138 list trim;
#X obj 116 67 inlet;
#X obj 185 66 inlet;
#X obj 116 167 outlet;
#X connect 0 0 1 0;
#X connect 1 0 2 0;
#X connect 2 0 5 0;
#X connect 3 0 0 0;
#X connect 4 0 0 1;
#X restore 387 215 pd set_msg;
#N canvas 726 344 450 300 set_msg 0;
#X obj 116 94 list prepend;
#X obj 116 116 list prepend set;
#X obj 116 138 list trim;
#X obj 116 67 inlet;
#X obj 185 66 inlet;
#X obj 116 167 outlet;
#X connect 0 0 1 0;
#X connect 1 0 2 0;
#X connect 2 0 5 0;
#X connect 3 0 0 0;
#X connect 4 0 0 1;
#X restore 429 195 pd set_msg;
#N canvas 726 344 450 300 set_msg 0;
#X obj 116 94 list prepend;
#X obj 116 116 list prepend set;
#X obj 116 138 list trim;
#X obj 116 67 inlet;
#X obj 185 66 inlet;
#X obj 116 167 outlet;
#X connect 0 0 1 0;
#X connect 1 0 2 0;
#X connect 2 0 5 0;
#X connect 3 0 0 0;
#X connect 4 0 0 1;
#X restore 464 217 pd set_msg;
#N canvas 726 344 450 300 set_msg 0;
#X obj 116 94 list prepend;
#X obj 116 116 list prepend set;
#X obj 116 138 list trim;
#X obj 116 67 inlet;
#X obj 185 66 inlet;
#X obj 116 167 outlet;
#X connect 0 0 1 0;
#X connect 1 0 2 0;
#X connect 2 0 5 0;
#X connect 3 0 0 0;
#X connect 4 0 0 1;
#X restore 502 194 pd set_msg;
#X msg 104 262 adsr0 0.1 0.3 0.5 0.38;
#X msg 104 284 adsr1 0.1 0.4 0.5 0.31;
#X msg 104 306 adsr2 0.139375 0.528737 0.325 0.27;
#X msg 104 328 wave 0 0 0;
#X msg 296 261 ktLfoFmFb 0 0.309335 0 0;
#X msg 296 281 detune 0.2;
#X msg 296 303 rat 2 2;
#X msg 463 259 fb 0 0 0;
#X msg 464 281 fm 0.5 0 0.5;
#X msg 464 304 vol 0.438406 0.347826 0.304348;
#X obj 128 159 route adsr0 adsr1 adsr2 wave ktLfoFmFb vibAm detune
rat fb fm vol, f 70;
#X obj 295 56 inlet trigger-outlet;
#X obj 296 579 outlet;
#X obj 295 78 t b b;
#X msg 349 436 set;
#X obj 322 504 list trim;
#X obj 296 434 t a;
#X msg 296 529 addcomma;
#X obj 296 456 t b a;
#X obj 322 482 list prepend add2;
#X connect 0 0 3 0;
#X connect 1 0 25 0;
#X connect 1 1 2 0;
#X connect 2 0 4 1;
#X connect 2 0 5 1;
#X connect 2 0 14 1;
#X connect 2 0 13 1;
#X connect 2 0 12 1;
#X connect 2 0 11 1;
#X connect 2 0 10 1;
#X connect 2 0 9 1;
#X connect 2 0 8 1;
#X connect 2 0 7 1;
#X connect 2 0 6 1;
#X connect 3 0 1 0;
#X connect 4 0 15 0;
#X connect 5 0 16 0;
#X connect 6 0 17 0;
#X connect 7 0 18 0;
#X connect 8 0 19 0;
#X connect 10 0 20 0;
#X connect 11 0 21 0;
#X connect 12 0 22 0;
#X connect 13 0 23 0;
#X connect 14 0 24 0;
#X connect 15 0 31 0;
#X connect 16 0 31 0;
#X connect 17 0 31 0;
#X connect 18 0 31 0;
#X connect 19 0 31 0;
#X connect 20 0 31 0;
#X connect 21 0 31 0;
#X connect 22 0 31 0;
#X connect 23 0 31 0;
#X connect 24 0 31 0;
#X connect 25 0 4 0;
#X connect 25 1 5 0;
#X connect 25 2 6 0;
#X connect 25 3 7 0;
#X connect 25 4 8 0;
#X connect 25 5 9 0;
#X connect 25 6 10 0;
#X connect 25 7 11 0;
#X connect 25 8 12 0;
#X connect 25 9 13 0;
#X connect 25 10 14 0;
#X connect 26 0 28 0;
#X connect 28 0 15 0;
#X connect 28 0 24 0;
#X connect 28 0 23 0;
#X connect 28 0 22 0;
#X connect 28 0 21 0;
#X connect 28 0 20 0;
#X connect 28 0 19 0;
#X connect 28 0 18 0;
#X connect 28 0 17 0;
#X connect 28 0 16 0;
#X connect 28 1 29 0;
#X connect 29 0 27 0;
#X connect 30 0 27 0;
#X connect 31 0 33 0;
#X connect 32 0 27 0;
#X connect 33 0 32 0;
#X connect 33 1 34 0;
#X connect 34 0 30 0;
#X restore 854 518 pd organize_presets;
#X obj 942 471 r \$0-vol;
#X obj 778 85 unpack f f;
#X text 52 9 3/2016 martin brinkmann \; styling 3/2018 x roemer;
#N canvas 2041 265 557 426 adsr 0;
#X obj 87 117 vsl 15 81 0.1 1 0 1 empty empty a 3 5 0 10 -141715 -1
-262144 0 1;
#X obj 102 117 vsl 15 81 0.1 1 0 1 empty empty d 3 5 0 10 -141715 -1
-262144 1778 1;
#X obj 132 117 vsl 15 81 0.2 1 0 1 empty empty r 3 5 0 10 -141715 -1
-262144 1800 1;
#X obj 117 117 vsl 15 81 0 1 0 1 empty empty s 3 5 0 10 -141715 -1
-262144 4000 1;
#X obj 87 72 unpack f f f f;
#X obj 87 36 inlet;
#X obj 88 266 pack f f f f;
#X obj 88 295 list prepend adsr0;
#X obj 88 237 t b f;
#X obj 122 237 t b f;
#X obj 156 237 t b f;
#X obj 190 237 t b f;
#X obj 88 326 s \$0-from_gui;
#X obj 222 33 inlet;
#X connect 0 0 8 0;
#X connect 1 0 9 0;
#X connect 2 0 11 0;
#X connect 3 0 10 0;
#X connect 4 0 0 0;
#X connect 4 1 1 0;
#X connect 4 2 3 0;
#X connect 4 3 2 0;
#X connect 5 0 4 0;
#X connect 6 0 7 0;
#X connect 7 0 12 0;
#X connect 8 0 6 0;
#X connect 8 1 6 0;
#X connect 9 0 6 0;
#X connect 9 1 6 1;
#X connect 10 0 6 0;
#X connect 10 1 6 2;
#X connect 11 0 6 0;
#X connect 11 1 6 3;
#X connect 13 0 0 0;
#X connect 13 0 3 0;
#X connect 13 0 2 0;
#X connect 13 0 1 0;
#X coords 0 -1 1 1 60 86 2 87 117;
#X restore 590 151 pd adsr;
#N canvas 2041 265 557 426 adsr 0;
#X obj 87 117 vsl 15 81 0.1 1 0 1 empty empty a 3 5 0 10 -204786 -1
-1 0 1;
#X obj 102 117 vsl 15 81 0.1 1 0 1 empty empty d 3 5 0 10 -204786 -1
-1 2667 1;
#X obj 132 117 vsl 15 81 0.2 1 0 1 empty empty r 3 5 0 10 -204786 -1
-1 1100 1;
#X obj 117 117 vsl 15 81 0 1 0 1 empty empty s 3 5 0 10 -204786 -1
-1 4000 1;
#X obj 87 72 unpack f f f f;
#X obj 87 36 inlet;
#X obj 88 266 pack f f f f;
#X obj 88 237 t b f;
#X obj 122 237 t b f;
#X obj 156 237 t b f;
#X obj 190 237 t b f;
#X obj 88 326 s \$0-from_gui;
#X obj 222 33 inlet;
#X obj 88 295 list prepend adsr1;
#X connect 0 0 7 0;
#X connect 1 0 8 0;
#X connect 2 0 10 0;
#X connect 3 0 9 0;
#X connect 4 0 0 0;
#X connect 4 1 1 0;
#X connect 4 2 3 0;
#X connect 4 3 2 0;
#X connect 5 0 4 0;
#X connect 6 0 13 0;
#X connect 7 0 6 0;
#X connect 7 1 6 0;
#X connect 8 0 6 0;
#X connect 8 1 6 1;
#X connect 9 0 6 0;
#X connect 9 1 6 2;
#X connect 10 0 6 0;
#X connect 10 1 6 3;
#X connect 12 0 0 0;
#X connect 12 0 3 0;
#X connect 12 0 2 0;
#X connect 12 0 1 0;
#X connect 13 0 11 0;
#X coords 0 -1 1 1 60 86 2 87 117;
#X restore 650 151 pd adsr;
#N canvas 2041 265 557 426 adsr 0;
#X obj 87 117 vsl 15 81 0.1 1 0 1 empty empty a 3 5 0 10 -141715 -1
-262144 350 1;
#X obj 102 117 vsl 15 81 0.1 1 0 1 empty empty d 3 5 0 10 -141715 -1
-262144 3811 1;
#X obj 132 117 vsl 15 81 0.2 1 0 1 empty empty r 3 5 0 10 -141715 -1
-262144 700 1;
#X obj 117 117 vsl 15 81 0 1 0 1 empty empty s 3 5 0 10 -141715 -1
-262144 2600 1;
#X obj 87 72 unpack f f f f;
#X obj 87 36 inlet;
#X obj 88 266 pack f f f f;
#X obj 88 237 t b f;
#X obj 122 237 t b f;
#X obj 156 237 t b f;
#X obj 190 237 t b f;
#X obj 88 326 s \$0-from_gui;
#X obj 222 33 inlet;
#X obj 88 295 list prepend adsr2;
#X connect 0 0 7 0;
#X connect 1 0 8 0;
#X connect 2 0 10 0;
#X connect 3 0 9 0;
#X connect 4 0 0 0;
#X connect 4 1 1 0;
#X connect 4 2 3 0;
#X connect 4 3 2 0;
#X connect 5 0 4 0;
#X connect 6 0 13 0;
#X connect 7 0 6 0;
#X connect 7 1 6 0;
#X connect 8 0 6 0;
#X connect 8 1 6 1;
#X connect 9 0 6 0;
#X connect 9 1 6 2;
#X connect 10 0 6 0;
#X connect 10 1 6 3;
#X connect 12 0 0 0;
#X connect 12 0 3 0;
#X connect 12 0 2 0;
#X connect 12 0 1 0;
#X connect 13 0 11 0;
#X coords 0 -1 1 1 60 86 2 87 117;
#X restore 710 151 pd adsr;
#N canvas 0 0 306 317 flash-time 0;
#X obj 96 521 outlet;
#X obj 162 230 t b f;
#X obj 96 268 +;
#X obj 96 293 t b f;
#X obj 96 324 +;
#X obj 19 208 * -65536;
#X obj 96 208 * -256;
#X obj 162 208 * -1;
#X obj 96 355 - 1;
#X obj 96 385 list prepend 0;
#X obj 115 456 t b a;
#X obj 104 124 vradio 15 1 0 2 empty empty empty 0 -8 0 10 -262144
-1 -1 0;
#X text 120 120 1.bg;
#X obj 103 105 nbx 3 14 0 255 0 0 \$0-dummy \$0-r empty 0 -8 0 10 -262144
-258113 -1 0 256 0;
#X obj 133 105 nbx 3 14 0 255 0 0 \$0-dummy \$0-g empty 0 -8 0 10 -262144
-13381 -1 0 256 0;
#X obj 163 105 nbx 3 14 0 255 0 0 \$0-dummy \$0-b empty 0 -8 0 10 -262144
-4160 -1 0 256 0;
#X text 120 137 2.label;
#X obj 96 410 route 0 1;
#X obj 96 497 pack 0 0;
#X connect 1 0 2 0;
#X connect 1 1 2 1;
#X connect 2 0 3 0;
#X connect 3 0 4 0;
#X connect 3 1 4 1;
#X connect 4 0 8 0;
#X connect 5 0 4 0;
#X connect 6 0 2 0;
#X connect 7 0 1 0;
#X connect 8 0 9 0;
#X connect 9 0 17 0;
#X connect 10 0 18 0;
#X connect 10 1 18 1;
#X connect 11 0 9 1;
#X connect 13 0 5 0;
#X connect 14 0 6 0;
#X connect 15 0 7 0;
#X connect 17 0 18 0;
#X connect 17 1 10 0;
#X connect 18 0 0 0;
#X coords 0 -1 1 1 102 58 2 100 100;
#X restore 969 35 pd flash-time;
#X msg 967 101 color \$1 \$2;
#X obj 526 319 expr (pow($f1 \, 2) * 20 + 0.5) / 200;
#X obj 855 431 s \$0-from_gui;
#X obj 374 467 t a;
#N canvas 1947 115 1245 779 fms 0;
#X obj 531 204 vradio 15 1 1 5 empty empty empty 0 -8 0 10 -204786
-1 -1 0;
#X obj 580 204 vradio 15 1 1 5 empty empty empty 0 -8 0 10 -262130
-1 -1 0;
#X obj 516 281 nbx 4 14 0.25 16 0 1 empty empty empty 0 -8 0 10 -204786
-1 -1 2 256 0;
#X obj 516 204 vsl 15 70 0 0.5 0 1 empty empty fb 2 6 0 10 -204786
-1 -1 0 1;
#X obj 565 204 vsl 15 70 0 0.5 0 1 empty empty fb 2 6 0 10 -262130
-1 -1 0 1;
#X obj 595 204 vsl 15 70 0 1 0 1 empty empty l 2 6 0 10 -262130 -1
-1 2400 1;
#X obj 619 187 hsl 80 15 -1 1 0 1 empty empty kt 4 6 0 10 -228856 -1
-1 3950 1;
#X obj 644 204 vradio 15 1 1 5 empty empty empty 0 -8 0 10 -204800
-1 -1 0;
#X obj 629 204 vsl 15 70 0 0.5 0 1 empty empty fb 2 6 0 10 -204800
-1 -1 0 1;
#X obj 546 204 vsl 15 70 0 1 0 1 empty empty l 2 6 0 10 -204786 -1
-1 3025 1;
#X obj 659 204 vsl 15 70 0 1 0 1 empty empty l 2 6 0 10 -204800 -1
-1 2100 1;
#X obj 565 281 nbx 4 14 0.25 16 0 1 empty empty empty 0 -8 0 10 -262130
-1 -1 2 256 0;
#X obj 516 187 hsl 60 15 0 1 0 1 empty empty dt 6 6 0 10 -228856 -1
-1 1180 1;
#X obj 610 204 vsl 15 70 0 1 0 1 empty empty fm 0 6 0 10 -204786 -1
-1 3450 1;
#X obj 674 204 vsl 15 70 0 1 0 1 empty empty fm 0 6 0 10 -204786 -1
-1 0 1;
#X obj 689 204 vsl 15 70 0 1 0 1 empty empty fm 0 6 0 10 -262130 -1
-1 3450 1;
#X obj 516 297 hsl 80 14 0 1 0 1 empty empty lfo 4 5 0 10 -262144 -1
-1 6090 1;
#X obj 629 281 hsl 70 14 0 1 0 1 empty empty am-fm 4 5 0 10 -262144
-1 -1 2800 1;
#X obj 629 297 hsl 70 14 0 1 0 1 empty empty am-fb 4 5 0 10 -262144
-1 -1 3600 1;
#X obj 372 17 inlet;
#X obj 333 636 outlet;
#X obj 797 444 pack f f f f;
#X obj 797 469 list prepend ktLfoFmFb;
#X obj 664 458 list prepend wave;
#X obj 664 436 pack f f f;
#X msg 121 515 detune \$1;
#X obj 201 488 pack f f;
#X obj 201 515 list prepend rat;
#X obj 833 349 pack f f f;
#X obj 833 371 list prepend vol;
#X obj 834 393 s \$0-vol;
#X obj 833 326 t b f;
#X obj 871 326 t b f;
#X obj 310 487 pack f f f;
#X obj 310 515 list prepend fb;
#X obj 254 465 t b f;
#X obj 310 463 t b f;
#X obj 350 463 t b f;
#X obj 415 482 pack f f f;
#X obj 415 458 t b f;
#X obj 455 458 t b f;
#X obj 415 515 list prepend fm;
#X obj 516 481 pack f f;
#X obj 517 459 t b f;
#X obj 516 515 list prepend mod;
#X obj 644 532 t a;
#X obj 702 413 t b f;
#X obj 665 413 t b f;
#X obj 732 510 r \$0-vol;
#X obj 380 91 unpack f f f;
#X obj 460 91 unpack f f f f;
#X obj 552 91 unpack f f;
#X obj 620 91 unpack f f f;
#X obj 700 91 unpack f f f;
#X obj 780 91 unpack f f f;
#X obj 818 422 expr pow($f1 \, 4) * 25 + 0.1;
#X obj 333 596 t a;
#X obj 644 625 outlet to_presets;
#X obj 516 626 outlet from_gui;
#X obj 372 42 route wave ktLfoFmFb vibAm detune rat fb fm vol, f 75
;
#X connect 0 0 24 0;
#X connect 1 0 46 0;
#X connect 2 0 26 0;
#X connect 3 0 33 0;
#X connect 4 0 36 0;
#X connect 5 0 31 0;
#X connect 6 0 21 0;
#X connect 7 0 24 1;
#X connect 7 0 47 0;
#X connect 8 0 37 0;
#X connect 9 0 28 0;
#X connect 10 0 32 0;
#X connect 11 0 35 0;
#X connect 12 0 25 0;
#X connect 12 0 56 0;
#X connect 13 0 38 0;
#X connect 14 0 39 0;
#X connect 15 0 40 0;
#X connect 16 0 55 0;
#X connect 17 0 21 2;
#X connect 18 0 21 3;
#X connect 19 0 59 0;
#X connect 21 0 22 0;
#X connect 22 0 45 0;
#X connect 22 0 58 0;
#X connect 23 0 45 0;
#X connect 23 0 58 0;
#X connect 24 0 23 0;
#X connect 25 0 45 0;
#X connect 26 0 27 0;
#X connect 27 0 45 0;
#X connect 27 0 56 0;
#X connect 28 0 29 0;
#X connect 29 0 30 0;
#X connect 31 0 28 0;
#X connect 31 1 28 1;
#X connect 32 0 28 0;
#X connect 32 1 28 2;
#X connect 33 0 34 0;
#X connect 34 0 45 0;
#X connect 34 0 56 0;
#X connect 35 0 26 0;
#X connect 35 1 26 1;
#X connect 36 0 33 0;
#X connect 36 1 33 1;
#X connect 37 0 33 0;
#X connect 37 1 33 2;
#X connect 38 0 41 0;
#X connect 39 0 38 0;
#X connect 39 1 38 1;
#X connect 40 0 38 0;
#X connect 40 1 38 2;
#X connect 41 0 45 0;
#X connect 41 0 56 0;
#X connect 42 0 44 0;
#X connect 43 0 42 0;
#X connect 43 1 42 1;
#X connect 44 0 45 0;
#X connect 44 0 58 0;
#X connect 45 0 57 0;
#X connect 46 0 24 0;
#X connect 46 1 24 2;
#X connect 47 0 24 0;
#X connect 47 1 24 1;
#X connect 48 0 45 0;
#X connect 49 0 0 0;
#X connect 49 1 7 0;
#X connect 49 2 1 0;
#X connect 50 0 6 0;
#X connect 50 1 16 0;
#X connect 50 2 17 0;
#X connect 50 3 18 0;
#X connect 51 0 2 0;
#X connect 51 1 11 0;
#X connect 52 0 3 0;
#X connect 52 1 4 0;
#X connect 52 2 8 0;
#X connect 53 0 13 0;
#X connect 53 1 14 0;
#X connect 53 2 15 0;
#X connect 54 0 9 0;
#X connect 54 1 5 0;
#X connect 54 2 10 0;
#X connect 55 0 21 1;
#X connect 56 0 20 0;
#X connect 59 0 49 0;
#X connect 59 1 50 0;
#X connect 59 3 12 0;
#X connect 59 4 51 0;
#X connect 59 5 52 0;
#X connect 59 6 53 0;
#X connect 59 7 54 0;
#X coords 0 -1 1 1 188 124 2 516 187;
#X restore 771 151 pd fms;
#X obj 632 25 route adsr0 adsr1 adsr2 vibAm, f 33;
#X obj 856 307 s \$0-from_gui;
#N canvas 272 364 450 323 router 0;
#X obj 191 123 t b f;
#X obj 179 170 +;
#X obj 179 148 int;
#X obj 179 101 unpack 0 0;
#X obj 179 217 outlet;
#X obj 250 217 outlet;
#X obj 177 49 inlet;
#X obj 232 49 inlet;
#X connect 0 0 2 0;
#X connect 0 1 1 1;
#X connect 1 0 4 0;
#X connect 2 0 1 0;
#X connect 3 0 2 0;
#X connect 3 1 5 0;
#X connect 6 0 3 0;
#X connect 7 0 0 0;
#X restore 176 463 pd router;
#N canvas 1959 72 1549 871 tri_ops4_frequency_modulation_synthesizer_voice
0;
#X obj 686 592 mtof;
#X obj 106 48 clip 0 1;
#X obj 737 765 *~;
#X obj 737 794 outlet~;
#X obj 752 721 line~;
#X msg 752 700 \$1 1.6;
#X obj 184 436 *;
#X obj 199 620 line~;
#X msg 199 599 \$1 1.6;
#X obj 738 621 abs_fm_op1;
#X obj 754 557 *~;
#X obj 184 664 *~;
#X obj 184 529 abs_fm_op1;
#X obj 199 641 *~;
#X obj 752 742 *~;
#X obj 768 472 *;
#X obj 1095 329 / 128;
#X obj 1095 353 *;
#X obj 768 492 +;
#X obj 479 690 line~;
#X msg 479 667 \$1 1.6;
#X obj 462 594 abs_fm_op1;
#X obj 481 527 *~;
#X obj 479 713 *~, f 4;
#X obj 496 425 *;
#X obj 496 445 +;
#X obj 464 737 *~;
#X obj 458 372 *;
#X obj 752 435 *~;
#X obj 767 340 *;
#X obj 767 361 +;
#X obj 768 512 +;
#X obj 767 382 +;
#X obj 496 465 +;
#X obj 241 435 +;
#X obj 852 536 +;
#X obj 571 515 +;
#X obj 154 299 +;
#X obj 198 300 +;
#X obj 154 322 mtof;
#X obj 199 323 mtof;
#X obj 217 281 * -1;
#X obj 479 644 abs_adsr2m;
#X obj 752 679 abs_adsr2m;
#X obj 199 578 abs_adsr2m;
#X text 409 12 3op fm voice;
#X obj 998 61 inlet;
#X obj 195 20 inlet;
#X obj 184 729 outlet~;
#X obj 464 769 outlet~;
#X obj 511 386 t b f;
#X obj 782 288 t b f;
#X obj 768 452 t b f;
#X obj 201 392 t b f;
#X obj 457 343 t b f;
#N canvas 1 77 450 300 opwaveformselect 0;
#X obj 144 76 inlet;
#X obj 130 115 select 0 1 2 3 4;
#X msg 80 136 0 1 0 1 1 0;
#X msg 100 161 0.5 1.5 0 2 1 0;
#X msg 136 211 0 0.5 0.75 1 2 1;
#X msg 115 189 0 0.5 0.75 0.5 2 1;
#X msg 174 231 0.5 1 0 1 1 0;
#X obj 107 270 outlet;
#X text 160 270 waveform parameters;
#X text 188 75 int 0..4 (sine \, ...);
#X connect 0 0 1 0;
#X connect 1 0 2 0;
#X connect 1 1 3 0;
#X connect 1 2 5 0;
#X connect 1 3 4 0;
#X connect 1 4 6 0;
#X connect 2 0 7 0;
#X connect 3 0 7 0;
#X connect 4 0 7 0;
#X connect 5 0 7 0;
#X connect 6 0 7 0;
#X restore 196 505 pd opwaveformselect;
#N canvas 1 77 450 300 opwaveformselect 0;
#X obj 144 76 inlet;
#X obj 130 115 select 0 1 2 3 4;
#X msg 80 136 0 1 0 1 1 0;
#X msg 100 161 0.5 1.5 0 2 1 0;
#X msg 136 211 0 0.5 0.75 1 2 1;
#X msg 115 189 0 0.5 0.75 0.5 2 1;
#X msg 174 231 0.5 1 0 1 1 0;
#X obj 107 270 outlet;
#X text 160 270 waveform parameters;
#X text 188 75 int 0..4 (sine \, ...);
#X connect 0 0 1 0;
#X connect 1 0 2 0;
#X connect 1 1 3 0;
#X connect 1 2 5 0;
#X connect 1 3 4 0;
#X connect 1 4 6 0;
#X connect 2 0 7 0;
#X connect 3 0 7 0;
#X connect 4 0 7 0;
#X connect 5 0 7 0;
#X connect 6 0 7 0;
#X restore 778 598 pd opwaveformselect;
#N canvas 1 77 450 300 opwaveformselect 0;
#X obj 144 76 inlet;
#X obj 130 115 select 0 1 2 3 4;
#X msg 80 136 0 1 0 1 1 0;
#X msg 100 161 0.5 1.5 0 2 1 0;
#X msg 136 211 0 0.5 0.75 1 2 1;
#X msg 115 189 0 0.5 0.75 0.5 2 1;
#X msg 174 231 0.5 1 0 1 1 0;
#X obj 107 270 outlet;
#X text 160 270 waveform parameters;
#X text 188 75 int 0..4 (sine \, ...);
#X connect 0 0 1 0;
#X connect 1 0 2 0;
#X connect 1 1 3 0;
#X connect 1 2 5 0;
#X connect 1 3 4 0;
#X connect 1 4 6 0;
#X connect 2 0 7 0;
#X connect 3 0 7 0;
#X connect 4 0 7 0;
#X connect 5 0 7 0;
#X connect 6 0 7 0;
#X restore 501 572 pd opwaveformselect;
#X text 540 598 operator 2;
#X text 495 14 op1->op2 \, op2+op1->op3;
#X text 102 663 operatoor1;
#X obj 496 505 clip~ 0 1;
#X obj 496 485 sig~;
#X obj 768 532 sig~;
#X obj 767 403 sig~;
#X obj 1198 372 *;
#X obj 1318 329 *;
#X obj 1318 353 *;
#X obj 1198 347 / 2;
#N canvas 1 77 1085 696 msg_lfo 0;
#X obj 52 -61 metro 5;
#X obj 51 -29 float;
#X obj 78 17 + 1;
#X obj 108 17 / 200;
#X obj 93 -15 wrap;
#X obj 54 62 cos;
#X obj 54 38 * 6.28319;
#X obj 78 176 outlet;
#X obj 194 -85 inlet;
#X obj 51 -116 loadbang;
#X msg 50 -87 bang;
#X text 208 -113 freq;
#X connect 0 0 1 0;
#X connect 1 0 2 0;
#X connect 2 0 4 0;
#X connect 2 0 6 0;
#X connect 3 0 2 1;
#X connect 4 0 1 1;
#X connect 5 0 7 0;
#X connect 6 0 5 0;
#X connect 8 0 3 0;
#X connect 9 0 10 0;
#X connect 10 0 0 0;
#X restore 1198 243 pd msg_lfo;
#X obj 1198 321 +;
#X obj 1198 295 t b f;
#X obj 1198 269 *;
#X obj 1282 274 *;
#X obj 1318 305 +;
#X obj 1318 281 t b f;
#X text 1043 56 3x adsr \, 3x waveform \, keytrack \, lfo freq \, fm-amt
\, fb-amt;
#X obj 1318 377 * 0.25;
#X obj 571 537 clip 0 0.25;
#X obj 851 557 clip 0 0.25;
#X obj 241 457 clip 0 0.25;
#X obj 1105 132 unpack f f f;
#X obj 1188 129 unpack f f f f;
#X obj 998 83 list trim;
#X obj 194 41 list trim;
#X obj 194 63 route detune rat fb fm;
#X obj 1109 178 pack f f f f f f f;
#X obj 1110 199 unpack f f f f f f f;
#X obj 718 156 expr pow($f1 \, 4);
#X obj 780 134 expr pow($f1 \, 4);
#X obj 511 101 expr pow($f1 \, 4);
#X obj 338 195 expr pow($f1 \, 2);
#X obj 570 166 expr pow($f1 \, 2);
#X obj 865 115 expr pow($f1 \, 2);
#X obj 1319 411 s \$0-fb_mod;
#X obj 571 471 r \$0-fb_mod;
#X obj 571 493 t b f;
#X obj 241 391 r \$0-fb_mod;
#X obj 241 413 t b f;
#X obj 854 490 r \$0-fb_mod;
#X obj 854 514 t b f;
#X obj 1197 394 s \$0-msg_lfo;
#X obj 527 426 r \$0-msg_lfo;
#X obj 528 447 t b f;
#X obj 807 339 r \$0-msg_lfo;
#X obj 808 360 t b f;
#X obj 806 449 r \$0-msg_lfo;
#X obj 807 470 t b f;
#X obj 106 71 s \$0-gate;
#X obj 199 557 r \$0-gate;
#X obj 752 658 r \$0-gate;
#X obj 479 621 r \$0-gate;
#X obj 221 218 expr pow($f1 \, 2) * 0.5;
#X obj 194 190 t b f;
#X obj 154 275 t f;
#X obj 1095 377 s \$0-pitch_cent;
#X obj 496 405 r \$0-pitch_cent;
#X obj 785 430 r \$0-pitch_cent;
#X obj 767 319 r \$0-pitch_cent;
#X obj 1110 225 s \$0-wave0;
#X obj 196 484 r \$0-wave0;
#X obj 1118 247 s \$0-wave1;
#X obj 501 552 r \$0-wave1;
#X obj 1126 270 s \$0-wave2;
#X obj 785 577 r \$0-wave2;
#X obj 26 48 s \$0-pitch;
#X obj 154 250 r \$0-pitch;
#X obj 685 570 r \$0-pitch;
#X obj 1095 305 r \$0-pitch;
#X obj 984 183 s \$0-adsr0;
#X obj 1006 204 s \$0-adsr1;
#X obj 1033 228 s \$0-adsr2;
#X obj 266 557 r \$0-adsr0;
#X obj 541 621 r \$0-adsr1;
#X obj 809 646 r \$0-adsr2;
#X obj 226 87 unpack f f;
#X floatatom 457 163 5 0 0 2 rat2 - -, f 5;
#X floatatom 250 167 5 0 0 2 rat1 - -, f 5;
#X obj 339 96 unpack f f f;
#X floatatom 338 166 5 0 0 2 fb1 - -, f 5;
#X floatatom 571 146 5 0 0 2 fb2 - -, f 5;
#X floatatom 865 91 5 0 0 2 fb3 - -, f 5;
#X obj 26 24 inlet pitch;
#X obj 106 24 inlet gate;
#X obj 513 40 unpack f f f;
#X floatatom 511 81 5 0 0 2 fm3 - -, f 5;
#X floatatom 780 112 5 0 0 2 fm2 - -, f 5;
#X floatatom 718 133 5 0 0 2 fm1 - -, f 5;
#X obj 998 104 route adsr0 adsr1 adsr2 wave ktLfoFmFb trigger mod;
#X obj 1302 134 unpack f f;
#X floatatom 1304 187 5 0 0 2 fma_mod - -, f 5;
#X floatatom 1359 185 5 0 0 2 fb_mod - -, f 5;
#X connect 0 0 9 0;
#X connect 1 0 108 0;
#X connect 2 0 3 0;
#X connect 4 0 14 0;
#X connect 4 0 14 1;
#X connect 5 0 4 0;
#X connect 6 0 12 0;
#X connect 7 0 13 0;
#X connect 7 0 13 1;
#X connect 8 0 7 0;
#X connect 9 0 2 0;
#X connect 10 0 9 1;
#X connect 11 0 10 0;
#X connect 11 0 22 0;
#X connect 11 0 48 0;
#X connect 12 0 11 0;
#X connect 13 0 11 1;
#X connect 14 0 2 1;
#X connect 15 0 18 0;
#X connect 16 0 17 0;
#X connect 17 0 115 0;
#X connect 18 0 31 0;
#X connect 19 0 23 0;
#X connect 19 0 23 1;
#X connect 20 0 19 0;
#X connect 21 0 26 0;
#X connect 22 0 21 1;
#X connect 23 0 26 1;
#X connect 24 0 25 0;
#X connect 25 0 33 0;
#X connect 26 0 28 0;
#X connect 26 0 49 0;
#X connect 27 0 21 0;
#X connect 28 0 9 1;
#X connect 29 0 30 0;
#X connect 30 0 32 0;
#X connect 31 0 63 0;
#X connect 32 0 64 0;
#X connect 33 0 62 0;
#X connect 34 0 80 0;
#X connect 35 0 79 0;
#X connect 36 0 78 0;
#X connect 37 0 39 0;
#X connect 38 0 40 0;
#X connect 39 0 27 0;
#X connect 40 0 6 0;
#X connect 41 0 38 1;
#X connect 42 0 20 0;
#X connect 43 0 5 0;
#X connect 44 0 8 0;
#X connect 46 0 83 0;
#X connect 47 0 84 0;
#X connect 50 0 24 0;
#X connect 50 1 25 1;
#X connect 50 1 24 1;
#X connect 51 0 29 0;
#X connect 51 1 30 1;
#X connect 51 1 29 1;
#X connect 52 0 15 0;
#X connect 52 1 18 1;
#X connect 52 1 15 1;
#X connect 53 0 6 0;
#X connect 53 1 6 1;
#X connect 54 0 27 0;
#X connect 54 1 27 1;
#X connect 55 0 12 2;
#X connect 56 0 9 2;
#X connect 57 0 21 2;
#X connect 61 0 22 1;
#X connect 62 0 61 0;
#X connect 63 0 10 1;
#X connect 64 0 28 1;
#X connect 65 0 101 0;
#X connect 66 0 67 1;
#X connect 66 0 67 0;
#X connect 67 0 77 0;
#X connect 68 0 65 1;
#X connect 68 0 65 0;
#X connect 69 0 72 0;
#X connect 69 0 73 0;
#X connect 70 0 68 0;
#X connect 71 0 70 0;
#X connect 71 1 70 1;
#X connect 72 0 71 0;
#X connect 73 0 74 0;
#X connect 74 0 66 1;
#X connect 74 0 66 0;
#X connect 75 0 74 0;
#X connect 75 1 74 1;
#X connect 77 0 94 0;
#X connect 78 0 21 3;
#X connect 79 0 9 3;
#X connect 80 0 12 3;
#X connect 81 0 86 0;
#X connect 81 1 86 1;
#X connect 81 2 86 2;
#X connect 82 0 86 3;
#X connect 82 1 86 4;
#X connect 82 2 86 5;
#X connect 82 3 86 6;
#X connect 83 0 148 0;
#X connect 84 0 85 0;
#X connect 85 0 113 0;
#X connect 85 1 135 0;
#X connect 85 2 138 0;
#X connect 85 3 144 0;
#X connect 86 0 87 0;
#X connect 87 0 119 0;
#X connect 87 1 121 0;
#X connect 87 2 123 0;
#X connect 87 3 17 1;
#X connect 87 4 69 0;
#X connect 87 5 72 1;
#X connect 87 6 73 1;
#X connect 88 0 52 0;
#X connect 89 0 51 0;
#X connect 90 0 50 0;
#X connect 91 0 34 0;
#X connect 92 0 36 0;
#X connect 93 0 35 0;
#X connect 95 0 96 0;
#X connect 96 0 36 0;
#X connect 96 1 36 1;
#X connect 97 0 98 0;
#X connect 98 0 34 0;
#X connect 98 1 34 1;
#X connect 99 0 100 0;
#X connect 100 0 35 0;
#X connect 100 1 35 1;
#X connect 102 0 103 0;
#X connect 103 0 33 0;
#X connect 103 1 33 1;
#X connect 104 0 105 0;
#X connect 105 0 32 0;
#X connect 105 1 32 1;
#X connect 106 0 107 0;
#X connect 107 0 31 0;
#X connect 107 1 31 1;
#X connect 109 0 44 0;
#X connect 110 0 43 0;
#X connect 111 0 42 0;
#X connect 112 0 41 0;
#X connect 112 0 37 1;
#X connect 113 0 38 0;
#X connect 113 0 37 0;
#X connect 113 1 112 0;
#X connect 114 0 37 0;
#X connect 114 0 38 0;
#X connect 116 0 24 0;
#X connect 117 0 15 0;
#X connect 118 0 29 0;
#X connect 120 0 55 0;
#X connect 122 0 57 0;
#X connect 124 0 56 0;
#X connect 126 0 114 0;
#X connect 127 0 0 0;
#X connect 128 0 16 0;
#X connect 132 0 44 1;
#X connect 133 0 42 1;
#X connect 134 0 43 1;
#X connect 135 0 137 0;
#X connect 135 1 136 0;
#X connect 136 0 54 0;
#X connect 137 0 53 0;
#X connect 138 0 139 0;
#X connect 138 1 140 0;
#X connect 138 2 141 0;
#X connect 139 0 91 0;
#X connect 140 0 92 0;
#X connect 141 0 93 0;
#X connect 142 0 125 0;
#X connect 143 0 1 0;
#X connect 144 0 145 0;
#X connect 144 1 146 0;
#X connect 144 2 147 0;
#X connect 145 0 90 0;
#X connect 146 0 89 0;
#X connect 147 0 88 0;
#X connect 148 0 129 0;
#X connect 148 1 130 0;
#X connect 148 2 131 0;
#X connect 148 3 81 0;
#X connect 148 4 82 0;
#X connect 148 5 86 0;
#X connect 148 6 149 0;
#X connect 149 0 150 0;
#X connect 149 1 151 0;
#X connect 150 0 70 0;
#X connect 151 0 75 0;
#X restore 189 537 pd tri_ops4_frequency_modulation_synthesizer_voice
;
#N canvas 272 364 450 323 router 0;
#X obj 191 123 t b f;
#X obj 179 170 +;
#X obj 179 148 int;
#X obj 179 101 unpack 0 0;
#X obj 179 217 outlet;
#X obj 250 217 outlet;
#X obj 177 49 inlet;
#X obj 232 49 inlet;
#X connect 0 0 2 0;
#X connect 0 1 1 1;
#X connect 1 0 4 0;
#X connect 2 0 1 0;
#X connect 3 0 2 0;
#X connect 3 1 5 0;
#X connect 6 0 3 0;
#X connect 7 0 0 0;
#X restore 189 514 pd router;
#X obj 228 429 t a;
#N canvas 1959 72 1549 871 tri_ops4_frequency_modulation_synthesizer_voice
0;
#X obj 686 592 mtof;
#X obj 106 48 clip 0 1;
#X obj 737 765 *~;
#X obj 737 794 outlet~;
#X obj 752 721 line~;
#X msg 752 700 \$1 1.6;
#X obj 184 436 *;
#X obj 199 620 line~;
#X msg 199 599 \$1 1.6;
#X obj 738 621 abs_fm_op1;
#X obj 754 557 *~;
#X obj 184 664 *~;
#X obj 184 529 abs_fm_op1;
#X obj 199 641 *~;
#X obj 752 742 *~;
#X obj 768 472 *;
#X obj 1095 329 / 128;
#X obj 1095 353 *;
#X obj 768 492 +;
#X obj 479 690 line~;
#X msg 479 667 \$1 1.6;
#X obj 462 594 abs_fm_op1;
#X obj 481 527 *~;
#X obj 479 713 *~, f 4;
#X obj 496 425 *;
#X obj 496 445 +;
#X obj 464 737 *~;
#X obj 458 372 *;
#X obj 752 435 *~;
#X obj 767 340 *;
#X obj 767 361 +;
#X obj 768 512 +;
#X obj 767 382 +;
#X obj 496 465 +;
#X obj 241 435 +;
#X obj 852 536 +;
#X obj 571 515 +;
#X obj 154 299 +;
#X obj 198 300 +;
#X obj 154 322 mtof;
#X obj 199 323 mtof;
#X obj 217 281 * -1;
#X obj 479 644 abs_adsr2m;
#X obj 752 679 abs_adsr2m;
#X obj 199 578 abs_adsr2m;
#X text 409 12 3op fm voice;
#X obj 998 61 inlet;
#X obj 195 20 inlet;
#X obj 184 729 outlet~;
#X obj 464 769 outlet~;
#X obj 511 386 t b f;
#X obj 782 288 t b f;
#X obj 768 452 t b f;
#X obj 201 392 t b f;
#X obj 457 343 t b f;
#N canvas 1 77 450 300 opwaveformselect 0;
#X obj 144 76 inlet;
#X obj 130 115 select 0 1 2 3 4;
#X msg 80 136 0 1 0 1 1 0;
#X msg 100 161 0.5 1.5 0 2 1 0;
#X msg 136 211 0 0.5 0.75 1 2 1;
#X msg 115 189 0 0.5 0.75 0.5 2 1;
#X msg 174 231 0.5 1 0 1 1 0;
#X obj 107 270 outlet;
#X text 160 270 waveform parameters;
#X text 188 75 int 0..4 (sine \, ...);
#X connect 0 0 1 0;
#X connect 1 0 2 0;
#X connect 1 1 3 0;
#X connect 1 2 5 0;
#X connect 1 3 4 0;
#X connect 1 4 6 0;
#X connect 2 0 7 0;
#X connect 3 0 7 0;
#X connect 4 0 7 0;
#X connect 5 0 7 0;
#X connect 6 0 7 0;
#X restore 196 505 pd opwaveformselect;
#N canvas 1 77 450 300 opwaveformselect 0;
#X obj 144 76 inlet;
#X obj 130 115 select 0 1 2 3 4;
#X msg 80 136 0 1 0 1 1 0;
#X msg 100 161 0.5 1.5 0 2 1 0;
#X msg 136 211 0 0.5 0.75 1 2 1;
#X msg 115 189 0 0.5 0.75 0.5 2 1;
#X msg 174 231 0.5 1 0 1 1 0;
#X obj 107 270 outlet;
#X text 160 270 waveform parameters;
#X text 188 75 int 0..4 (sine \, ...);
#X connect 0 0 1 0;
#X connect 1 0 2 0;
#X connect 1 1 3 0;
#X connect 1 2 5 0;
#X connect 1 3 4 0;
#X connect 1 4 6 0;
#X connect 2 0 7 0;
#X connect 3 0 7 0;
#X connect 4 0 7 0;
#X connect 5 0 7 0;
#X connect 6 0 7 0;
#X restore 778 598 pd opwaveformselect;
#N canvas 1 77 450 300 opwaveformselect 0;
#X obj 144 76 inlet;
#X obj 130 115 select 0 1 2 3 4;
#X msg 80 136 0 1 0 1 1 0;
#X msg 100 161 0.5 1.5 0 2 1 0;
#X msg 136 211 0 0.5 0.75 1 2 1;
#X msg 115 189 0 0.5 0.75 0.5 2 1;
#X msg 174 231 0.5 1 0 1 1 0;
#X obj 107 270 outlet;
#X text 160 270 waveform parameters;
#X text 188 75 int 0..4 (sine \, ...);
#X connect 0 0 1 0;
#X connect 1 0 2 0;
#X connect 1 1 3 0;
#X connect 1 2 5 0;
#X connect 1 3 4 0;
#X connect 1 4 6 0;
#X connect 2 0 7 0;
#X connect 3 0 7 0;
#X connect 4 0 7 0;
#X connect 5 0 7 0;
#X connect 6 0 7 0;
#X restore 501 572 pd opwaveformselect;
#X text 540 598 operator 2;
#X text 495 14 op1->op2 \, op2+op1->op3;
#X text 102 663 operatoor1;
#X obj 496 505 clip~ 0 1;
#X obj 496 485 sig~;
#X obj 768 532 sig~;
#X obj 767 403 sig~;
#X obj 1198 372 *;
#X obj 1318 329 *;
#X obj 1318 353 *;
#X obj 1198 347 / 2;
#N canvas 1 77 1085 696 msg_lfo 0;
#X obj 52 -61 metro 5;
#X obj 51 -29 float;
#X obj 78 17 + 1;
#X obj 108 17 / 200;
#X obj 93 -15 wrap;
#X obj 54 62 cos;
#X obj 54 38 * 6.28319;
#X obj 78 176 outlet;
#X obj 194 -85 inlet;
#X obj 51 -116 loadbang;
#X msg 50 -87 bang;
#X text 208 -113 freq;
#X connect 0 0 1 0;
#X connect 1 0 2 0;
#X connect 2 0 4 0;
#X connect 2 0 6 0;
#X connect 3 0 2 1;
#X connect 4 0 1 1;
#X connect 5 0 7 0;
#X connect 6 0 5 0;
#X connect 8 0 3 0;
#X connect 9 0 10 0;
#X connect 10 0 0 0;
#X restore 1198 243 pd msg_lfo;
#X obj 1198 321 +;
#X obj 1198 295 t b f;
#X obj 1198 269 *;
#X obj 1282 274 *;
#X obj 1318 305 +;
#X obj 1318 281 t b f;
#X text 1043 56 3x adsr \, 3x waveform \, keytrack \, lfo freq \, fm-amt
\, fb-amt;
#X obj 1318 377 * 0.25;
#X obj 571 537 clip 0 0.25;
#X obj 851 557 clip 0 0.25;
#X obj 241 457 clip 0 0.25;
#X obj 1105 132 unpack f f f;
#X obj 1188 129 unpack f f f f;
#X obj 998 83 list trim;
#X obj 194 41 list trim;
#X obj 194 63 route detune rat fb fm;
#X obj 1109 178 pack f f f f f f f;
#X obj 1110 199 unpack f f f f f f f;
#X obj 718 156 expr pow($f1 \, 4);
#X obj 780 134 expr pow($f1 \, 4);
#X obj 511 101 expr pow($f1 \, 4);
#X obj 338 195 expr pow($f1 \, 2);
#X obj 570 166 expr pow($f1 \, 2);
#X obj 865 115 expr pow($f1 \, 2);
#X obj 1319 411 s \$0-fb_mod;
#X obj 571 471 r \$0-fb_mod;
#X obj 571 493 t b f;
#X obj 241 391 r \$0-fb_mod;
#X obj 241 413 t b f;
#X obj 854 490 r \$0-fb_mod;
#X obj 854 514 t b f;
#X obj 1197 394 s \$0-msg_lfo;
#X obj 527 426 r \$0-msg_lfo;
#X obj 528 447 t b f;
#X obj 807 339 r \$0-msg_lfo;
#X obj 808 360 t b f;
#X obj 806 449 r \$0-msg_lfo;
#X obj 807 470 t b f;
#X obj 106 71 s \$0-gate;
#X obj 199 557 r \$0-gate;
#X obj 752 658 r \$0-gate;
#X obj 479 621 r \$0-gate;
#X obj 221 218 expr pow($f1 \, 2) * 0.5;
#X obj 194 190 t b f;
#X obj 154 275 t f;
#X obj 1095 377 s \$0-pitch_cent;
#X obj 496 405 r \$0-pitch_cent;
#X obj 785 430 r \$0-pitch_cent;
#X obj 767 319 r \$0-pitch_cent;
#X obj 1110 225 s \$0-wave0;
#X obj 196 484 r \$0-wave0;
#X obj 1118 247 s \$0-wave1;
#X obj 501 552 r \$0-wave1;
#X obj 1126 270 s \$0-wave2;
#X obj 785 577 r \$0-wave2;
#X obj 26 48 s \$0-pitch;
#X obj 154 250 r \$0-pitch;
#X obj 685 570 r \$0-pitch;
#X obj 1095 305 r \$0-pitch;
#X obj 984 183 s \$0-adsr0;
#X obj 1006 204 s \$0-adsr1;
#X obj 1033 228 s \$0-adsr2;
#X obj 266 557 r \$0-adsr0;
#X obj 541 621 r \$0-adsr1;
#X obj 809 646 r \$0-adsr2;
#X obj 226 87 unpack f f;
#X floatatom 457 163 5 0 0 2 rat2 - -, f 5;
#X floatatom 250 167 5 0 0 2 rat1 - -, f 5;
#X obj 339 96 unpack f f f;
#X floatatom 338 166 5 0 0 2 fb1 - -, f 5;
#X floatatom 571 146 5 0 0 2 fb2 - -, f 5;
#X floatatom 865 91 5 0 0 2 fb3 - -, f 5;
#X obj 26 24 inlet pitch;
#X obj 106 24 inlet gate;
#X obj 513 40 unpack f f f;
#X floatatom 511 81 5 0 0 2 fm3 - -, f 5;
#X floatatom 780 112 5 0 0 2 fm2 - -, f 5;
#X floatatom 718 133 5 0 0 2 fm1 - -, f 5;
#X obj 998 104 route adsr0 adsr1 adsr2 wave ktLfoFmFb trigger mod;
#X obj 1302 134 unpack f f;
#X floatatom 1304 187 5 0 0 2 fma_mod - -, f 5;
#X floatatom 1359 185 5 0 0 2 fb_mod - -, f 5;
#X connect 0 0 9 0;
#X connect 1 0 108 0;
#X connect 2 0 3 0;
#X connect 4 0 14 0;
#X connect 4 0 14 1;
#X connect 5 0 4 0;
#X connect 6 0 12 0;
#X connect 7 0 13 0;
#X connect 7 0 13 1;
#X connect 8 0 7 0;
#X connect 9 0 2 0;
#X connect 10 0 9 1;
#X connect 11 0 10 0;
#X connect 11 0 22 0;
#X connect 11 0 48 0;
#X connect 12 0 11 0;
#X connect 13 0 11 1;
#X connect 14 0 2 1;
#X connect 15 0 18 0;
#X connect 16 0 17 0;
#X connect 17 0 115 0;
#X connect 18 0 31 0;
#X connect 19 0 23 0;
#X connect 19 0 23 1;
#X connect 20 0 19 0;
#X connect 21 0 26 0;
#X connect 22 0 21 1;
#X connect 23 0 26 1;
#X connect 24 0 25 0;
#X connect 25 0 33 0;
#X connect 26 0 28 0;
#X connect 26 0 49 0;
#X connect 27 0 21 0;
#X connect 28 0 9 1;
#X connect 29 0 30 0;
#X connect 30 0 32 0;
#X connect 31 0 63 0;
#X connect 32 0 64 0;
#X connect 33 0 62 0;
#X connect 34 0 80 0;
#X connect 35 0 79 0;
#X connect 36 0 78 0;
#X connect 37 0 39 0;
#X connect 38 0 40 0;
#X connect 39 0 27 0;
#X connect 40 0 6 0;
#X connect 41 0 38 1;
#X connect 42 0 20 0;
#X connect 43 0 5 0;
#X connect 44 0 8 0;
#X connect 46 0 83 0;
#X connect 47 0 84 0;
#X connect 50 0 24 0;
#X connect 50 1 25 1;
#X connect 50 1 24 1;
#X connect 51 0 29 0;
#X connect 51 1 30 1;
#X connect 51 1 29 1;
#X connect 52 0 15 0;
#X connect 52 1 18 1;
#X connect 52 1 15 1;
#X connect 53 0 6 0;
#X connect 53 1 6 1;
#X connect 54 0 27 0;
#X connect 54 1 27 1;
#X connect 55 0 12 2;
#X connect 56 0 9 2;
#X connect 57 0 21 2;
#X connect 61 0 22 1;
#X connect 62 0 61 0;
#X connect 63 0 10 1;
#X connect 64 0 28 1;
#X connect 65 0 101 0;
#X connect 66 0 67 1;
#X connect 66 0 67 0;
#X connect 67 0 77 0;
#X connect 68 0 65 1;
#X connect 68 0 65 0;
#X connect 69 0 72 0;
#X connect 69 0 73 0;
#X connect 70 0 68 0;
#X connect 71 0 70 0;
#X connect 71 1 70 1;
#X connect 72 0 71 0;
#X connect 73 0 74 0;
#X connect 74 0 66 1;
#X connect 74 0 66 0;
#X connect 75 0 74 0;
#X connect 75 1 74 1;
#X connect 77 0 94 0;
#X connect 78 0 21 3;
#X connect 79 0 9 3;
#X connect 80 0 12 3;
#X connect 81 0 86 0;
#X connect 81 1 86 1;
#X connect 81 2 86 2;
#X connect 82 0 86 3;
#X connect 82 1 86 4;
#X connect 82 2 86 5;
#X connect 82 3 86 6;
#X connect 83 0 148 0;
#X connect 84 0 85 0;
#X connect 85 0 113 0;
#X connect 85 1 135 0;
#X connect 85 2 138 0;
#X connect 85 3 144 0;
#X connect 86 0 87 0;
#X connect 87 0 119 0;
#X connect 87 1 121 0;
#X connect 87 2 123 0;
#X connect 87 3 17 1;
#X connect 87 4 69 0;
#X connect 87 5 72 1;
#X connect 87 6 73 1;
#X connect 88 0 52 0;
#X connect 89 0 51 0;
#X connect 90 0 50 0;
#X connect 91 0 34 0;
#X connect 92 0 36 0;
#X connect 93 0 35 0;
#X connect 95 0 96 0;
#X connect 96 0 36 0;
#X connect 96 1 36 1;
#X connect 97 0 98 0;
#X connect 98 0 34 0;
#X connect 98 1 34 1;
#X connect 99 0 100 0;
#X connect 100 0 35 0;
#X connect 100 1 35 1;
#X connect 102 0 103 0;
#X connect 103 0 33 0;
#X connect 103 1 33 1;
#X connect 104 0 105 0;
#X connect 105 0 32 0;
#X connect 105 1 32 1;
#X connect 106 0 107 0;
#X connect 107 0 31 0;
#X connect 107 1 31 1;
#X connect 109 0 44 0;
#X connect 110 0 43 0;
#X connect 111 0 42 0;
#X connect 112 0 41 0;
#X connect 112 0 37 1;
#X connect 113 0 38 0;
#X connect 113 0 37 0;
#X connect 113 1 112 0;
#X connect 114 0 37 0;
#X connect 114 0 38 0;
#X connect 116 0 24 0;
#X connect 117 0 15 0;
#X connect 118 0 29 0;
#X connect 120 0 55 0;
#X connect 122 0 57 0;
#X connect 124 0 56 0;
#X connect 126 0 114 0;
#X connect 127 0 0 0;
#X connect 128 0 16 0;
#X connect 132 0 44 1;
#X connect 133 0 42 1;
#X connect 134 0 43 1;
#X connect 135 0 137 0;
#X connect 135 1 136 0;
#X connect 136 0 54 0;
#X connect 137 0 53 0;
#X connect 138 0 139 0;
#X connect 138 1 140 0;
#X connect 138 2 141 0;
#X connect 139 0 91 0;
#X connect 140 0 92 0;
#X connect 141 0 93 0;
#X connect 142 0 125 0;
#X connect 143 0 1 0;
#X connect 144 0 145 0;
#X connect 144 1 146 0;
#X connect 144 2 147 0;
#X connect 145 0 90 0;
#X connect 146 0 89 0;
#X connect 147 0 88 0;
#X connect 148 0 129 0;
#X connect 148 1 130 0;
#X connect 148 2 131 0;
#X connect 148 3 81 0;
#X connect 148 4 82 0;
#X connect 148 5 86 0;
#X connect 148 6 149 0;
#X connect 149 0 150 0;
#X connect 149 1 151 0;
#X connect 150 0 70 0;
#X connect 151 0 75 0;
#X restore 201 588 pd tri_ops4_frequency_modulation_synthesizer_voice
;
#N canvas 272 364 450 323 router 0;
#X obj 191 123 t b f;
#X obj 179 170 +;
#X obj 179 148 int;
#X obj 179 101 unpack 0 0;
#X obj 179 217 outlet;
#X obj 250 217 outlet;
#X obj 177 49 inlet;
#X obj 232 49 inlet;
#X connect 0 0 2 0;
#X connect 0 1 1 1;
#X connect 1 0 4 0;
#X connect 2 0 1 0;
#X connect 3 0 2 0;
#X connect 3 1 5 0;
#X connect 6 0 3 0;
#X connect 7 0 0 0;
#X restore 201 565 pd router;
#N canvas 1959 72 1549 871 tri_ops4_frequency_modulation_synthesizer_voice
0;
#X obj 686 592 mtof;
#X obj 106 48 clip 0 1;
#X obj 737 765 *~;
#X obj 737 794 outlet~;
#X obj 752 721 line~;
#X msg 752 700 \$1 1.6;
#X obj 184 436 *;
#X obj 199 620 line~;
#X msg 199 599 \$1 1.6;
#X obj 738 621 abs_fm_op1;
#X obj 754 557 *~;
#X obj 184 664 *~;
#X obj 184 529 abs_fm_op1;
#X obj 199 641 *~;
#X obj 752 742 *~;
#X obj 768 472 *;
#X obj 1095 329 / 128;
#X obj 1095 353 *;
#X obj 768 492 +;
#X obj 479 690 line~;
#X msg 479 667 \$1 1.6;
#X obj 462 594 abs_fm_op1;
#X obj 481 527 *~;
#X obj 479 713 *~, f 4;
#X obj 496 425 *;
#X obj 496 445 +;
#X obj 464 737 *~;
#X obj 458 372 *;
#X obj 752 435 *~;
#X obj 767 340 *;
#X obj 767 361 +;
#X obj 768 512 +;
#X obj 767 382 +;
#X obj 496 465 +;
#X obj 241 435 +;
#X obj 852 536 +;
#X obj 571 515 +;
#X obj 154 299 +;
#X obj 198 300 +;
#X obj 154 322 mtof;
#X obj 199 323 mtof;
#X obj 217 281 * -1;
#X obj 479 644 abs_adsr2m;
#X obj 752 679 abs_adsr2m;
#X obj 199 578 abs_adsr2m;
#X text 409 12 3op fm voice;
#X obj 998 61 inlet;
#X obj 195 20 inlet;
#X obj 184 729 outlet~;
#X obj 464 769 outlet~;
#X obj 511 386 t b f;
#X obj 782 288 t b f;
#X obj 768 452 t b f;
#X obj 201 392 t b f;
#X obj 457 343 t b f;
#N canvas 1 77 450 300 opwaveformselect 0;
#X obj 144 76 inlet;
#X obj 130 115 select 0 1 2 3 4;
#X msg 80 136 0 1 0 1 1 0;
#X msg 100 161 0.5 1.5 0 2 1 0;
#X msg 136 211 0 0.5 0.75 1 2 1;
#X msg 115 189 0 0.5 0.75 0.5 2 1;
#X msg 174 231 0.5 1 0 1 1 0;
#X obj 107 270 outlet;
#X text 160 270 waveform parameters;
#X text 188 75 int 0..4 (sine \, ...);
#X connect 0 0 1 0;
#X connect 1 0 2 0;
#X connect 1 1 3 0;
#X connect 1 2 5 0;
#X connect 1 3 4 0;
#X connect 1 4 6 0;
#X connect 2 0 7 0;
#X connect 3 0 7 0;
#X connect 4 0 7 0;
#X connect 5 0 7 0;
#X connect 6 0 7 0;
#X restore 196 505 pd opwaveformselect;
#N canvas 1 77 450 300 opwaveformselect 0;
#X obj 144 76 inlet;
#X obj 130 115 select 0 1 2 3 4;
#X msg 80 136 0 1 0 1 1 0;
#X msg 100 161 0.5 1.5 0 2 1 0;
#X msg 136 211 0 0.5 0.75 1 2 1;
#X msg 115 189 0 0.5 0.75 0.5 2 1;
#X msg 174 231 0.5 1 0 1 1 0;
#X obj 107 270 outlet;
#X text 160 270 waveform parameters;
#X text 188 75 int 0..4 (sine \, ...);
#X connect 0 0 1 0;
#X connect 1 0 2 0;
#X connect 1 1 3 0;
#X connect 1 2 5 0;
#X connect 1 3 4 0;
#X connect 1 4 6 0;
#X connect 2 0 7 0;
#X connect 3 0 7 0;
#X connect 4 0 7 0;
#X connect 5 0 7 0;
#X connect 6 0 7 0;
#X restore 778 598 pd opwaveformselect;
#N canvas 1 77 450 300 opwaveformselect 0;
#X obj 144 76 inlet;
#X obj 130 115 select 0 1 2 3 4;
#X msg 80 136 0 1 0 1 1 0;
#X msg 100 161 0.5 1.5 0 2 1 0;
#X msg 136 211 0 0.5 0.75 1 2 1;
#X msg 115 189 0 0.5 0.75 0.5 2 1;
#X msg 174 231 0.5 1 0 1 1 0;
#X obj 107 270 outlet;
#X text 160 270 waveform parameters;
#X text 188 75 int 0..4 (sine \, ...);
#X connect 0 0 1 0;
#X connect 1 0 2 0;
#X connect 1 1 3 0;
#X connect 1 2 5 0;
#X connect 1 3 4 0;
#X connect 1 4 6 0;
#X connect 2 0 7 0;
#X connect 3 0 7 0;
#X connect 4 0 7 0;
#X connect 5 0 7 0;
#X connect 6 0 7 0;
#X restore 501 572 pd opwaveformselect;
#X text 540 598 operator 2;
#X text 495 14 op1->op2 \, op2+op1->op3;
#X text 102 663 operatoor1;
#X obj 496 505 clip~ 0 1;
#X obj 496 485 sig~;
#X obj 768 532 sig~;
#X obj 767 403 sig~;
#X obj 1198 372 *;
#X obj 1318 329 *;
#X obj 1318 353 *;
#X obj 1198 347 / 2;
#N canvas 1 77 1085 696 msg_lfo 0;
#X obj 52 -61 metro 5;
#X obj 51 -29 float;
#X obj 78 17 + 1;
#X obj 108 17 / 200;
#X obj 93 -15 wrap;
#X obj 54 62 cos;
#X obj 54 38 * 6.28319;
#X obj 78 176 outlet;
#X obj 194 -85 inlet;
#X obj 51 -116 loadbang;
#X msg 50 -87 bang;
#X text 208 -113 freq;
#X connect 0 0 1 0;
#X connect 1 0 2 0;
#X connect 2 0 4 0;
#X connect 2 0 6 0;
#X connect 3 0 2 1;
#X connect 4 0 1 1;
#X connect 5 0 7 0;
#X connect 6 0 5 0;
#X connect 8 0 3 0;
#X connect 9 0 10 0;
#X connect 10 0 0 0;
#X restore 1198 243 pd msg_lfo;
#X obj 1198 321 +;
#X obj 1198 295 t b f;
#X obj 1198 269 *;
#X obj 1282 274 *;
#X obj 1318 305 +;
#X obj 1318 281 t b f;
#X text 1043 56 3x adsr \, 3x waveform \, keytrack \, lfo freq \, fm-amt
\, fb-amt;
#X obj 1318 377 * 0.25;
#X obj 571 537 clip 0 0.25;
#X obj 851 557 clip 0 0.25;
#X obj 241 457 clip 0 0.25;
#X obj 1105 132 unpack f f f;
#X obj 1188 129 unpack f f f f;
#X obj 998 83 list trim;
#X obj 194 41 list trim;
#X obj 194 63 route detune rat fb fm;
#X obj 1109 178 pack f f f f f f f;
#X obj 1110 199 unpack f f f f f f f;
#X obj 718 156 expr pow($f1 \, 4);
#X obj 780 134 expr pow($f1 \, 4);
#X obj 511 101 expr pow($f1 \, 4);
#X obj 338 195 expr pow($f1 \, 2);
#X obj 570 166 expr pow($f1 \, 2);
#X obj 865 115 expr pow($f1 \, 2);
#X obj 1319 411 s \$0-fb_mod;
#X obj 571 471 r \$0-fb_mod;
#X obj 571 493 t b f;
#X obj 241 391 r \$0-fb_mod;
#X obj 241 413 t b f;
#X obj 854 490 r \$0-fb_mod;
#X obj 854 514 t b f;
#X obj 1197 394 s \$0-msg_lfo;
#X obj 527 426 r \$0-msg_lfo;
#X obj 528 447 t b f;
#X obj 807 339 r \$0-msg_lfo;
#X obj 808 360 t b f;
#X obj 806 449 r \$0-msg_lfo;
#X obj 807 470 t b f;
#X obj 106 71 s \$0-gate;
#X obj 199 557 r \$0-gate;
#X obj 752 658 r \$0-gate;
#X obj 479 621 r \$0-gate;
#X obj 221 218 expr pow($f1 \, 2) * 0.5;
#X obj 194 190 t b f;
#X obj 154 275 t f;
#X obj 1095 377 s \$0-pitch_cent;
#X obj 496 405 r \$0-pitch_cent;
#X obj 785 430 r \$0-pitch_cent;
#X obj 767 319 r \$0-pitch_cent;
#X obj 1110 225 s \$0-wave0;
#X obj 196 484 r \$0-wave0;
#X obj 1118 247 s \$0-wave1;
#X obj 501 552 r \$0-wave1;
#X obj 1126 270 s \$0-wave2;
#X obj 785 577 r \$0-wave2;
#X obj 26 48 s \$0-pitch;
#X obj 154 250 r \$0-pitch;
#X obj 685 570 r \$0-pitch;
#X obj 1095 305 r \$0-pitch;
#X obj 984 183 s \$0-adsr0;
#X obj 1006 204 s \$0-adsr1;
#X obj 1033 228 s \$0-adsr2;
#X obj 266 557 r \$0-adsr0;
#X obj 541 621 r \$0-adsr1;
#X obj 809 646 r \$0-adsr2;
#X obj 226 87 unpack f f;
#X floatatom 457 163 5 0 0 2 rat2 - -, f 5;
#X floatatom 250 167 5 0 0 2 rat1 - -, f 5;
#X obj 339 96 unpack f f f;
#X floatatom 338 166 5 0 0 2 fb1 - -, f 5;
#X floatatom 571 146 5 0 0 2 fb2 - -, f 5;
#X floatatom 865 91 5 0 0 2 fb3 - -, f 5;
#X obj 26 24 inlet pitch;
#X obj 106 24 inlet gate;
#X obj 513 40 unpack f f f;
#X floatatom 511 81 5 0 0 2 fm3 - -, f 5;
#X floatatom 780 112 5 0 0 2 fm2 - -, f 5;
#X floatatom 718 133 5 0 0 2 fm1 - -, f 5;
#X obj 998 104 route adsr0 adsr1 adsr2 wave ktLfoFmFb trigger mod;
#X obj 1302 134 unpack f f;
#X floatatom 1304 187 5 0 0 2 fma_mod - -, f 5;
#X floatatom 1359 185 5 0 0 2 fb_mod - -, f 5;
#X connect 0 0 9 0;
#X connect 1 0 108 0;
#X connect 2 0 3 0;
#X connect 4 0 14 0;
#X connect 4 0 14 1;
#X connect 5 0 4 0;
#X connect 6 0 12 0;
#X connect 7 0 13 0;
#X connect 7 0 13 1;
#X connect 8 0 7 0;
#X connect 9 0 2 0;
#X connect 10 0 9 1;
#X connect 11 0 10 0;
#X connect 11 0 22 0;
#X connect 11 0 48 0;
#X connect 12 0 11 0;
#X connect 13 0 11 1;
#X connect 14 0 2 1;
#X connect 15 0 18 0;
#X connect 16 0 17 0;
#X connect 17 0 115 0;
#X connect 18 0 31 0;
#X connect 19 0 23 0;
#X connect 19 0 23 1;
#X connect 20 0 19 0;
#X connect 21 0 26 0;
#X connect 22 0 21 1;
#X connect 23 0 26 1;
#X connect 24 0 25 0;
#X connect 25 0 33 0;
#X connect 26 0 28 0;
#X connect 26 0 49 0;
#X connect 27 0 21 0;
#X connect 28 0 9 1;
#X connect 29 0 30 0;
#X connect 30 0 32 0;
#X connect 31 0 63 0;
#X connect 32 0 64 0;
#X connect 33 0 62 0;
#X connect 34 0 80 0;
#X connect 35 0 79 0;
#X connect 36 0 78 0;
#X connect 37 0 39 0;
#X connect 38 0 40 0;
#X connect 39 0 27 0;
#X connect 40 0 6 0;
#X connect 41 0 38 1;
#X connect 42 0 20 0;
#X connect 43 0 5 0;
#X connect 44 0 8 0;
#X connect 46 0 83 0;
#X connect 47 0 84 0;
#X connect 50 0 24 0;
#X connect 50 1 25 1;
#X connect 50 1 24 1;
#X connect 51 0 29 0;
#X connect 51 1 30 1;
#X connect 51 1 29 1;
#X connect 52 0 15 0;
#X connect 52 1 18 1;
#X connect 52 1 15 1;
#X connect 53 0 6 0;
#X connect 53 1 6 1;
#X connect 54 0 27 0;
#X connect 54 1 27 1;
#X connect 55 0 12 2;
#X connect 56 0 9 2;
#X connect 57 0 21 2;
#X connect 61 0 22 1;
#X connect 62 0 61 0;
#X connect 63 0 10 1;
#X connect 64 0 28 1;
#X connect 65 0 101 0;
#X connect 66 0 67 1;
#X connect 66 0 67 0;
#X connect 67 0 77 0;
#X connect 68 0 65 1;
#X connect 68 0 65 0;
#X connect 69 0 72 0;
#X connect 69 0 73 0;
#X connect 70 0 68 0;
#X connect 71 0 70 0;
#X connect 71 1 70 1;
#X connect 72 0 71 0;
#X connect 73 0 74 0;
#X connect 74 0 66 1;
#X connect 74 0 66 0;
#X connect 75 0 74 0;
#X connect 75 1 74 1;
#X connect 77 0 94 0;
#X connect 78 0 21 3;
#X connect 79 0 9 3;
#X connect 80 0 12 3;
#X connect 81 0 86 0;
#X connect 81 1 86 1;
#X connect 81 2 86 2;
#X connect 82 0 86 3;
#X connect 82 1 86 4;
#X connect 82 2 86 5;
#X connect 82 3 86 6;
#X connect 83 0 148 0;
#X connect 84 0 85 0;
#X connect 85 0 113 0;
#X connect 85 1 135 0;
#X connect 85 2 138 0;
#X connect 85 3 144 0;
#X connect 86 0 87 0;
#X connect 87 0 119 0;
#X connect 87 1 121 0;
#X connect 87 2 123 0;
#X connect 87 3 17 1;
#X connect 87 4 69 0;
#X connect 87 5 72 1;
#X connect 87 6 73 1;
#X connect 88 0 52 0;
#X connect 89 0 51 0;
#X connect 90 0 50 0;
#X connect 91 0 34 0;
#X connect 92 0 36 0;
#X connect 93 0 35 0;
#X connect 95 0 96 0;
#X connect 96 0 36 0;
#X connect 96 1 36 1;
#X connect 97 0 98 0;
#X connect 98 0 34 0;
#X connect 98 1 34 1;
#X connect 99 0 100 0;
#X connect 100 0 35 0;
#X connect 100 1 35 1;
#X connect 102 0 103 0;
#X connect 103 0 33 0;
#X connect 103 1 33 1;
#X connect 104 0 105 0;
#X connect 105 0 32 0;
#X connect 105 1 32 1;
#X connect 106 0 107 0;
#X connect 107 0 31 0;
#X connect 107 1 31 1;
#X connect 109 0 44 0;
#X connect 110 0 43 0;
#X connect 111 0 42 0;
#X connect 112 0 41 0;
#X connect 112 0 37 1;
#X connect 113 0 38 0;
#X connect 113 0 37 0;
#X connect 113 1 112 0;
#X connect 114 0 37 0;
#X connect 114 0 38 0;
#X connect 116 0 24 0;
#X connect 117 0 15 0;
#X connect 118 0 29 0;
#X connect 120 0 55 0;
#X connect 122 0 57 0;
#X connect 124 0 56 0;
#X connect 126 0 114 0;
#X connect 127 0 0 0;
#X connect 128 0 16 0;
#X connect 132 0 44 1;
#X connect 133 0 42 1;
#X connect 134 0 43 1;
#X connect 135 0 137 0;
#X connect 135 1 136 0;
#X connect 136 0 54 0;
#X connect 137 0 53 0;
#X connect 138 0 139 0;
#X connect 138 1 140 0;
#X connect 138 2 141 0;
#X connect 139 0 91 0;
#X connect 140 0 92 0;
#X connect 141 0 93 0;
#X connect 142 0 125 0;
#X connect 143 0 1 0;
#X connect 144 0 145 0;
#X connect 144 1 146 0;
#X connect 144 2 147 0;
#X connect 145 0 90 0;
#X connect 146 0 89 0;
#X connect 147 0 88 0;
#X connect 148 0 129 0;
#X connect 148 1 130 0;
#X connect 148 2 131 0;
#X connect 148 3 81 0;
#X connect 148 4 82 0;
#X connect 148 5 86 0;
#X connect 148 6 149 0;
#X connect 149 0 150 0;
#X connect 149 1 151 0;
#X connect 150 0 70 0;
#X connect 151 0 75 0;
#X restore 212 635 pd tri_ops4_frequency_modulation_synthesizer_voice
;
#N canvas 272 364 450 323 router 0;
#X obj 191 123 t b f;
#X obj 179 170 +;
#X obj 179 148 int;
#X obj 179 101 unpack 0 0;
#X obj 179 217 outlet;
#X obj 250 217 outlet;
#X obj 177 49 inlet;
#X obj 232 49 inlet;
#X connect 0 0 2 0;
#X connect 0 1 1 1;
#X connect 1 0 4 0;
#X connect 2 0 1 0;
#X connect 3 0 2 0;
#X connect 3 1 5 0;
#X connect 6 0 3 0;
#X connect 7 0 0 0;
#X restore 212 612 pd router;
#X obj 57 472 bng 15 50 50 0 empty empty empty 17 7 0 10 -262144 -1
-1;
#X obj 79 478 bng 15 50 50 0 empty empty empty 17 7 0 10 -262144 -1
-1;
#X obj 98 479 bng 15 50 50 0 empty empty empty 17 7 0 10 -262144 -1
-1;
#X obj 120 478 bng 15 50 50 0 empty empty empty 17 7 0 10 -262144 -1
-1;
#X obj 121 378 print a;
#X obj 172 378 print b;
#X obj 223 378 print c;
#X obj 274 378 print d;
#X connect 1 0 3 0;
#X connect 2 0 3 0;
#X connect 3 0 0 0;
#X connect 4 0 3 0;
#X connect 5 0 10 1;
#X connect 5 0 20 0;
#X connect 6 0 10 0;
#X connect 8 0 19 0;
#X connect 10 0 29 0;
#X connect 12 0 14 0;
#X connect 13 0 15 0;
#X connect 14 0 13 0;
#X connect 15 0 43 0;
#X connect 17 0 12 0;
#X connect 19 0 5 0;
#X connect 20 0 50 0;
#X connect 22 0 26 0;
#X connect 23 0 47 0;
#X connect 26 0 55 0;
#X connect 27 0 80 0;
#X connect 27 0 88 0;
#X connect 27 1 82 0;
#X connect 27 1 89 0;
#X connect 27 2 85 0;
#X connect 27 2 90 0;
#X connect 27 3 87 0;
#X connect 27 3 91 0;
#X connect 28 0 1 0;
#X connect 28 1 4 0;
#X connect 28 2 2 0;
#X connect 29 0 11 0;
#X connect 29 1 11 1;
#X connect 29 2 11 2;
#X connect 31 0 44 0;
#X connect 32 0 36 0;
#X connect 33 0 31 0;
#X connect 34 0 58 0;
#X connect 34 0 74 0;
#X connect 35 0 45 1;
#X connect 35 0 45 0;
#X connect 35 0 59 0;
#X connect 36 0 37 0;
#X connect 37 0 38 0;
#X connect 38 0 39 0;
#X connect 38 0 41 0;
#X connect 39 0 37 1;
#X connect 40 0 33 0;
#X connect 41 0 40 0;
#X connect 43 0 83 0;
#X connect 44 0 43 0;
#X connect 44 1 43 1;
#X connect 45 0 31 1;
#X connect 46 0 78 0;
#X connect 47 0 56 0;
#X connect 50 0 51 0;
#X connect 52 0 28 3;
#X connect 52 0 81 3;
#X connect 52 0 86 3;
#X connect 52 0 84 3;
#X connect 53 0 64 0;
#X connect 54 0 1 1;
#X connect 54 1 4 1;
#X connect 54 2 2 1;
#X connect 55 0 57 0;
#X connect 56 0 55 0;
#X connect 56 1 55 1;
#X connect 57 0 62 0;
#X connect 57 0 75 0;
#X connect 58 0 60 0;
#X connect 59 0 58 0;
#X connect 59 1 58 1;
#X connect 60 0 62 0;
#X connect 61 0 62 0;
#X connect 62 0 65 0;
#X connect 63 0 54 0;
#X connect 64 0 63 0;
#X connect 65 0 48 0;
#X connect 66 0 62 0;
#X connect 67 0 34 0;
#X connect 67 1 35 0;
#X connect 72 0 73 0;
#X connect 74 0 38 1;
#X connect 76 0 28 2;
#X connect 76 0 81 2;
#X connect 76 0 84 2;
#X connect 76 0 86 2;
#X connect 77 0 76 0;
#X connect 77 1 79 0;
#X connect 77 2 62 0;
#X connect 78 0 69 0;
#X connect 78 1 70 0;
#X connect 78 2 71 0;
#X connect 78 3 67 0;
#X connect 78 4 77 0;
#X connect 80 0 28 0;
#X connect 80 1 28 1;
#X connect 81 0 1 0;
#X connect 81 1 4 0;
#X connect 81 2 2 0;
#X connect 82 0 81 0;
#X connect 82 1 81 1;
#X connect 83 0 80 1;
#X connect 83 0 82 1;
#X connect 83 0 85 1;
#X connect 83 0 87 1;
#X connect 84 0 1 0;
#X connect 84 1 4 0;
#X connect 84 2 2 0;
#X connect 85 0 84 0;
#X connect 85 1 84 1;
#X connect 86 0 1 0;
#X connect 86 1 4 0;
#X connect 86 2 2 0;
#X connect 87 0 86 0;
#X connect 87 1 86 1;
#X coords 0 -1 1 1 373 128 1 588 149;
#X restore 110 111 pd tri_ops4p;
#X obj 313 60 ctlin 1;
#X obj 385 62 ctlin 64;
#X obj 111 284 outlet~;
#X obj 116 67 unpack f f;
#X obj 112 24 inlet;
#X msg 783 74 adsr0 0.1 0.35875 0.375 0.4 \, vol 0.42029 0.173913 0.652174
\, fm 0.391304 0.84058 0.666667 \, fb 0.166667 0.318841 0.5 \, rat
1 1.5 \, detune 0.101695 \, ktLfoFmFb -0.0126582 0.441103 0.217391
0.333333 \, wave 0 2 0 \, adsr2 0.17875 0.505 0.4625 0.39 \, adsr1
0.13375 0.24625 0.4 0.4 \,;
#X msg 365 370 adsr0 0.1 0.401275 0.1 0.38 \, vol 0.307971 0.315942
0.942029 \, fm 0.65942 0.652174 0.746377 \, fb 0.173913 0.384058 0.144928
\, rat 3 0.5 \, detune 0.149153 \, ktLfoFmFb 0 0.53547 0.637681 0.333333
\, wave 0 0 0 \, adsr2 0.1225 0.618738 0.4125 0.43 \, adsr1 0.22375
0.523787 0.175 0.38 \,;
#X msg 784 23 adsr0 0.1 0.3 0.5 0.38 \, vol 0.25 0.2 1 \, fm 0.5 0
0.5 \, fb 0 0 0 \, rat 2 3 \, detune 0.2 \, ktLfoFmFb 0 0.3025 0 0
\, wave 0 0 0 \, adsr2 0.1 0.45 0.5 0.38 \, adsr1 0.1 0.4 0.5 0.38
\,;
#X msg 785 148 adsr0 0.415 0.603775 0.425 0.51 \, vol 0.289855 0 0.985507
\, fm 0.73913 0.536232 0.572464 \, fb 0.253623 0.289855 0.253623 \,
rat 1.5 3 \, detune 0.132203 \, ktLfoFmFb 0.0253165 0.350722 0.42029
0.130435 \, wave 1 0 1 \, adsr2 0.51625 0.45 0.5 0.45 \, adsr1 0.3025
0.321288 0.6625 0.52 \,;
#X msg 784 223 adsr0 0.1 0.37 0.2625 0.35 \, vol 0 0.275362 1 \, fm
0.550725 0.782609 0.297101 \, fb 0.333333 0 0.057971 \, rat 3 5.5 \,
detune 0.216949 \, ktLfoFmFb -0.911392 0.3025 0.608696 0.231884 \,
wave 0 0 0 \, adsr2 0.1 0.584988 0.6125 0.47 \, adsr1 0.235 0.400037
0.1875 0.38 \,;
#X msg 783 298 adsr0 0.1 0.401275 0.1 0.38 \, vol 0.25 0.330435 1 \,
fm 0.702899 0.565217 0.557971 \, fb 0.181159 0 0 \, rat 4 3 \, detune
0.2 \, ktLfoFmFb 0 0.477878 0.289855 0.202899 \, wave 2 1 2 \, adsr2
0.1225 0.618738 0.4125 0.43 \, adsr1 0.22375 0.523787 0.175 0.38 \,
;
#X msg 786 373 adsr0 0.1 0.401275 0.1 0.38 \, vol 0.307971 0.315942
0.942029 \, fm 0.65942 0.652174 0.746377 \, fb 0.173913 0.384058 0.144928
\, rat 3 0.5 \, detune 0.149153 \, ktLfoFmFb 0 0.53547 0.637681 0.333333
\, wave 0 0 0 \, adsr2 0.1225 0.618738 0.4125 0.43 \, adsr1 0.22375
0.523787 0.175 0.38 \,;
#X connect 0 0 5 0;
#X connect 1 0 2 2;
#X connect 2 0 0 0;
#X connect 2 1 9 0;
#X connect 3 0 2 3;
#X connect 4 0 2 4;
#X connect 6 0 2 0;
#X connect 6 1 2 1;
#X connect 7 0 6 0;
#X connect 8 0 2 5;
#X connect 10 0 2 5;
#X connect 11 0 2 5;
#X connect 12 0 2 5;
#X connect 13 0 2 5;
#X connect 14 0 2 5;
