#N canvas 291 385 400 363 10;
#N canvas 1 77 592 473 midimono 0;
#X obj 179 125 stripnote;
#X obj 304 226 select;
#X obj 295 123 float;
#X obj 282 70 t b f;
#X obj 304 197 float;
#X obj 295 152 sel 0;
#X obj 175 8 notein;
#X obj 246 320 outlet;
#X msg 317 252 0;
#X obj 136 317 outlet;
#X text 273 47 taken from the pd doc-monosynth-example;
#X obj 246 226 / 128;
#X connect 0 0 1 1;
#X connect 0 0 9 0;
#X connect 1 0 8 0;
#X connect 2 0 5 0;
#X connect 3 0 2 0;
#X connect 3 1 4 1;
#X connect 4 0 1 0;
#X connect 5 0 4 0;
#X connect 5 1 11 0;
#X connect 6 0 0 0;
#X connect 6 0 3 0;
#X connect 6 1 0 1;
#X connect 6 1 2 1;
#X connect 8 0 7 0;
#X connect 11 0 7 0;
#X restore 281 10 pd midimono;
#X obj 22 6 bendin;
#X obj 144 67 +;
#X obj 21 29 - 8192;
#X obj 21 74 clip -1 1;
#X obj 21 53 / 8192;
#X msg 185 10 bang;
#X obj 188 38 int;
#X obj 105 42 * 2;
#X text 90 23 bend range;
#X obj 28 299 dac~;
#X obj 26 233 *~ 0.5;
#N canvas 309 214 807 703 qwertz-keys 0;
#X msg -121 181 0;
#X msg -89 182 1;
#X msg -57 182 2;
#X msg -23 182 3;
#X msg 10 182 4;
#X msg 44 182 5;
#X msg 78 183 6;
#X msg 116 182 7;
#X msg 150 182 8;
#X msg 182 183 9;
#X msg 214 183 10;
#X msg 247 182 11;
#X msg 281 183 12;
#X msg 315 183 13;
#X msg 351 183 14;
#X msg 387 183 15;
#X msg 427 183 16;
#X obj -173 623 outlet;
#X obj 66 654 outlet;
#X obj -97 71 key;
#X obj -25 128 select 113 50 119 51 101 114 53 116 54 122 55 117 105
57 111 48 112;
#X obj 20 78 keyup;
#X obj 11 541 ==;
#X msg -121 468 1;
#X msg 87 593 0;
#X obj 12 568 moses 0.1;
#X obj -146 435 + 48;
#X obj 69 621 change;
#X text -3 111 q2w3er5t6z7ui9o0p \, 'upper manual';
#X text -3 17 monophonic qwertz keyboard. german keyboard layout. turn
key-auto-repeat off!;
#X msg 123 356 0;
#X msg 155 357 1;
#X msg 187 357 2;
#X msg 221 357 3;
#X msg 254 357 4;
#X msg 288 357 5;
#X msg 322 358 6;
#X msg 360 357 7;
#X msg 394 357 8;
#X msg 426 358 9;
#X msg 465 359 10;
#X msg 501 360 11;
#X obj 121 424 + 36;
#X floatatom -124 112 5 0 0 0 - - -, f 5;
#X text 321 297 ysxdcvgbhnjm \, 'lower manaul';
#X obj 172 317 select 121 115 120 100 99 118 103 98 104 110 106 109
;
#X connect 0 0 26 0;
#X connect 1 0 26 0;
#X connect 2 0 26 0;
#X connect 3 0 26 0;
#X connect 4 0 26 0;
#X connect 5 0 26 0;
#X connect 6 0 26 0;
#X connect 7 0 26 0;
#X connect 8 0 26 0;
#X connect 9 0 26 0;
#X connect 10 0 26 0;
#X connect 11 0 26 0;
#X connect 12 0 26 0;
#X connect 13 0 26 0;
#X connect 14 0 26 0;
#X connect 15 0 26 0;
#X connect 16 0 26 0;
#X connect 19 0 20 0;
#X connect 19 0 22 1;
#X connect 19 0 43 0;
#X connect 19 0 45 0;
#X connect 20 0 0 0;
#X connect 20 1 1 0;
#X connect 20 2 2 0;
#X connect 20 3 3 0;
#X connect 20 4 4 0;
#X connect 20 5 5 0;
#X connect 20 6 6 0;
#X connect 20 7 7 0;
#X connect 20 8 8 0;
#X connect 20 9 9 0;
#X connect 20 10 10 0;
#X connect 20 11 11 0;
#X connect 20 12 12 0;
#X connect 20 13 13 0;
#X connect 20 14 14 0;
#X connect 20 15 15 0;
#X connect 20 16 16 0;
#X connect 21 0 22 0;
#X connect 22 0 25 0;
#X connect 23 0 27 0;
#X connect 24 0 27 0;
#X connect 25 1 24 0;
#X connect 26 0 23 0;
#X connect 26 0 17 0;
#X connect 27 0 18 0;
#X connect 30 0 42 0;
#X connect 31 0 42 0;
#X connect 32 0 42 0;
#X connect 33 0 42 0;
#X connect 34 0 42 0;
#X connect 35 0 42 0;
#X connect 36 0 42 0;
#X connect 37 0 42 0;
#X connect 38 0 42 0;
#X connect 39 0 42 0;
#X connect 40 0 42 0;
#X connect 41 0 42 0;
#X connect 42 0 23 0;
#X connect 42 0 17 0;
#X connect 45 0 30 0;
#X connect 45 1 31 0;
#X connect 45 2 32 0;
#X connect 45 3 33 0;
#X connect 45 4 34 0;
#X connect 45 5 35 0;
#X connect 45 6 36 0;
#X connect 45 7 37 0;
#X connect 45 8 38 0;
#X connect 45 9 39 0;
#X connect 45 10 40 0;
#X connect 45 11 41 0;
#X restore 281 33 pd qwertz-keys;
#N canvas 604 142 1184 875 two_oneosc2 0;
#X obj 5 149 clip 0 1;
#X obj 249 115 vsl 15 81 0.2 1 0 1 empty empty d 2 4 0 8 -262144 -1
-1 3300 1;
#X obj 103 112 vradio 15 1 1 3 empty empty okt 0 52 0 8 -262144 -1
-1 1;
#X obj -113 334 * 12;
#X obj -147 364 +;
#X obj 176 115 vsl 15 81 0 120 0 1 empty empty cf 2 4 0 8 -262144 -1
-1 1700 1;
#X obj 195 115 vsl 15 81 0 0.9 0 1 empty empty rs 2 4 0 8 -262144 -1
-1 3400 1;
#X obj 213 115 vsl 15 64 0 120 0 1 empty empty ev 2 4 0 8 -262144 -1
-1 4500 1;
#X obj -33 793 *~;
#X obj -173 171 inlet;
#X text -134 173 pitch;
#X obj 6 122 inlet;
#X text 45 124 gate;
#X obj -34 824 outlet~;
#X obj 206 470 *;
#X obj 213 184 tgl 15 1 empty empty ep 2 7 0 8 -262144 -1 -1 0 -2;
#X obj 233 429 + 1;
#X obj 136 384 t b f;
#X obj 116 5 inlet;
#X obj 462 88 inlet;
#X text 511 87 env-mod 0..1;
#X text 160 4 cutoff-mod 0..1;
#X obj 462 109 clip 0 1;
#X obj 462 131 * 60;
#X obj 117 30 clip 0 1;
#X obj 117 52 * 60;
#X obj 168 481 +;
#X obj 153 211 t b f;
#X obj 194 252 +;
#X obj 198 220 t b f;
#N canvas 1 78 704 786 doublesaw 0;
#X obj 18 30 inlet;
#X obj 58 123 mtof;
#X obj 59 159 phasor~;
#X obj 70 268 wrap~;
#X text 62 30 <-pitch;
#X text 279 27 <-sync;
#X obj 155 654 outlet~;
#X obj 144 361 hip~ 5;
#X obj 206 152 phasor~;
#X obj 213 264 wrap~;
#X obj 212 97 -;
#X obj 208 117 mtof;
#X obj 58 93 +;
#X obj 228 238 +~;
#X obj 324 292 - 1;
#X obj 324 246 == 0;
#X obj 329 273 * 2;
#X obj 197 321 *~ 1;
#X obj 227 28 inlet;
#X obj 318 173 inlet;
#X obj 369 23 inlet;
#X obj 144 525 *~ 0.125;
#X obj 144 548 rzero~ -1;
#X obj 144 571 rzero~ -1;
#X obj 144 594 rzero~ -1;
#X obj 143 399 *~ 0.2368;
#X obj 144 445 *~ 0.06261;
#X obj 143 422 rpole~ 0.76319;
#X obj 143 468 cpole~ 0.85223 0.20194;
#X obj 142 496 cpole~ 0.85223 -0.2019;
#X obj 392 67 block~ 64 1 8;
#X text 265 439 from pd docs modified for 8 times oversampling;
#X text 308 98 8 times oversampled \, i hope the pitch is right...
;
#X connect 0 0 12 0;
#X connect 0 0 10 0;
#X connect 1 0 2 0;
#X connect 2 0 3 0;
#X connect 3 0 7 0;
#X connect 7 0 25 0;
#X connect 8 0 13 0;
#X connect 9 0 17 0;
#X connect 10 0 11 0;
#X connect 11 0 8 0;
#X connect 12 0 1 0;
#X connect 13 0 9 0;
#X connect 14 0 17 1;
#X connect 15 0 16 0;
#X connect 16 0 14 0;
#X connect 17 0 7 0;
#X connect 18 0 2 1;
#X connect 18 0 8 1;
#X connect 19 0 13 1;
#X connect 19 0 15 0;
#X connect 20 0 10 1;
#X connect 20 0 12 1;
#X connect 21 0 22 0;
#X connect 22 0 23 0;
#X connect 23 0 24 0;
#X connect 24 0 6 0;
#X connect 25 0 27 0;
#X connect 26 0 28 0;
#X connect 27 0 26 0;
#X connect 28 0 29 0;
#X connect 28 1 29 1;
#X connect 29 0 21 0;
#X restore -74 456 pd doublesaw;
#X obj 117 642 clip~ 20 20000;
#N canvas 715 79 1076 1000 lopass2p2z 0;
#X obj -50 465 inlet~;
#X obj 129 919 outlet~;
#X obj 73 85 inlet~;
#X obj 87 200 sig~ 1;
#X obj 121 249 /~;
#X obj 219 59 samplerate~;
#X obj 110 376 sig~ 1;
#X obj 147 408 /~;
#X obj 214 340 +~;
#X obj 187 310 sig~ 1;
#X obj 251 318 *~;
#X obj 181 375 +~;
#X obj 112 295 *~;
#X text 41 361 a1/a3;
#X obj 222 407 sig~ 1;
#X obj 296 433 -~;
#X obj 299 457 *~ 2;
#X obj 286 506 *~;
#X obj 409 334 *~;
#X text 276 435 b1;
#X text 384 379 b2;
#X obj 361 397 sig~ 1;
#X obj 392 429 -~;
#X obj 377 512 *~;
#X text 99 246 c;
#X obj 397 462 +~;
#X obj 147 222 expr~ tan($v1);
#X obj 151 194 /~ 44100;
#X obj 129 153 *~ 3.14159;
#X text 408 73 resonance 0..1;
#X text 124 86 cutoff (hz);
#X text 420 186 a2= 2*a1 \, a3=a1;
#X text 420 150 c= 1/tan(pi*cutf/samplerate);
#X text 422 168 a1= 1/(1+res*c+c*c);
#X text 421 204 b1= 2*(1-c*c)*a1;
#X text 421 220 b2= (1-res*c+c*c)*a1;
#X obj 33 690 czero~;
#X obj 59 727 czero~;
#X obj 73 646 sig~ -1;
#X obj 90 670 sig~ 0;
#X obj 90 841 cpole~;
#X obj 129 888 cpole~;
#X obj 296 199 *~ 1.41421;
#X obj 307 148 -~;
#X obj 353 72 inlet~;
#X obj 279 94 sig~ 1;
#X text 28 627 zeros at fixed pos;
#X obj 178 840 *~ -1;
#X obj 184 805 expr~ sqrt($v1);
#X obj -44 595 *~;
#X obj 128 704 *~ -0.5;
#X text 219 845 2nd pole = 1st mirrored on the x axis;
#X text 183 704 b1/2 (x pos);
#X text 267 11 cookbook-like? (i cant remember where i got this from)
lp-filter;
#X obj 163 748 *~;
#X obj 183 781 -~;
#X text 217 666 pole position from coeffs:;
#X text 218 683 p=-b1/2+j*sqrt(b2-(b1/2)^2) (found somewhere on the
net...);
#X connect 0 0 49 0;
#X connect 2 0 28 0;
#X connect 3 0 4 0;
#X connect 4 0 10 0;
#X connect 4 0 12 0;
#X connect 4 0 12 1;
#X connect 4 0 18 0;
#X connect 5 0 27 1;
#X connect 6 0 7 0;
#X connect 7 0 17 1;
#X connect 7 0 23 0;
#X connect 7 0 49 1;
#X connect 8 0 11 1;
#X connect 9 0 8 0;
#X connect 10 0 8 1;
#X connect 11 0 7 1;
#X connect 12 0 11 0;
#X connect 12 0 15 1;
#X connect 12 0 25 1;
#X connect 14 0 15 0;
#X connect 15 0 16 0;
#X connect 16 0 17 0;
#X connect 17 0 50 0;
#X connect 18 0 22 1;
#X connect 21 0 22 0;
#X connect 22 0 25 0;
#X connect 23 0 55 0;
#X connect 25 0 23 1;
#X connect 26 0 4 1;
#X connect 27 0 26 0;
#X connect 28 0 27 0;
#X connect 36 0 37 0;
#X connect 36 1 37 1;
#X connect 37 0 40 0;
#X connect 37 1 40 1;
#X connect 38 0 36 2;
#X connect 38 0 37 2;
#X connect 39 0 37 3;
#X connect 39 0 36 3;
#X connect 40 0 41 0;
#X connect 40 1 41 1;
#X connect 41 0 1 0;
#X connect 42 0 10 1;
#X connect 42 0 18 1;
#X connect 43 0 42 0;
#X connect 44 0 43 1;
#X connect 45 0 43 0;
#X connect 47 0 41 3;
#X connect 48 0 40 3;
#X connect 48 0 47 0;
#X connect 49 0 36 0;
#X connect 50 0 40 2;
#X connect 50 0 41 2;
#X connect 50 0 54 0;
#X connect 50 0 54 1;
#X connect 54 0 55 1;
#X connect 55 0 48 0;
#X restore -124 692 pd lopass2p2z;
#N canvas 713 79 1076 1000 lopass2p2z 0;
#X obj -50 465 inlet~;
#X obj 129 919 outlet~;
#X obj 73 85 inlet~;
#X obj 87 200 sig~ 1;
#X obj 121 249 /~;
#X obj 219 59 samplerate~;
#X obj 110 376 sig~ 1;
#X obj 147 408 /~;
#X obj 214 340 +~;
#X obj 187 310 sig~ 1;
#X obj 251 318 *~;
#X obj 181 375 +~;
#X obj 112 295 *~;
#X text 41 361 a1/a3;
#X obj 222 407 sig~ 1;
#X obj 296 433 -~;
#X obj 299 457 *~ 2;
#X obj 286 506 *~;
#X obj 409 334 *~;
#X text 276 435 b1;
#X text 384 379 b2;
#X obj 361 397 sig~ 1;
#X obj 392 429 -~;
#X obj 377 512 *~;
#X text 99 246 c;
#X obj 397 462 +~;
#X obj 147 222 expr~ tan($v1);
#X obj 151 194 /~ 44100;
#X obj 129 153 *~ 3.14159;
#X text 408 73 resonance 0..1;
#X text 124 86 cutoff (hz);
#X text 420 186 a2= 2*a1 \, a3=a1;
#X text 420 150 c= 1/tan(pi*cutf/samplerate);
#X text 422 168 a1= 1/(1+res*c+c*c);
#X text 421 204 b1= 2*(1-c*c)*a1;
#X text 421 220 b2= (1-res*c+c*c)*a1;
#X obj 33 690 czero~;
#X obj 59 727 czero~;
#X obj 73 646 sig~ -1;
#X obj 90 670 sig~ 0;
#X obj 90 841 cpole~;
#X obj 129 888 cpole~;
#X obj 296 199 *~ 1.41421;
#X obj 307 148 -~;
#X obj 353 72 inlet~;
#X obj 279 94 sig~ 1;
#X text 28 627 zeros at fixed pos;
#X obj 178 840 *~ -1;
#X obj 184 805 expr~ sqrt($v1);
#X obj -44 595 *~;
#X obj 128 704 *~ -0.5;
#X text 219 845 2nd pole = 1st mirrored on the x axis;
#X text 183 704 b1/2 (x pos);
#X text 267 11 cookbook-like? (i cant remember where i got this from)
lp-filter;
#X obj 163 748 *~;
#X obj 183 781 -~;
#X text 217 666 pole position from coeffs:;
#X text 218 683 p=-b1/2+j*sqrt(b2-(b1/2)^2) (found somewhere on the
net...);
#X connect 0 0 49 0;
#X connect 2 0 28 0;
#X connect 3 0 4 0;
#X connect 4 0 10 0;
#X connect 4 0 12 0;
#X connect 4 0 12 1;
#X connect 4 0 18 0;
#X connect 5 0 27 1;
#X connect 6 0 7 0;
#X connect 7 0 17 1;
#X connect 7 0 23 0;
#X connect 7 0 49 1;
#X connect 8 0 11 1;
#X connect 9 0 8 0;
#X connect 10 0 8 1;
#X connect 11 0 7 1;
#X connect 12 0 11 0;
#X connect 12 0 15 1;
#X connect 12 0 25 1;
#X connect 14 0 15 0;
#X connect 15 0 16 0;
#X connect 16 0 17 0;
#X connect 17 0 50 0;
#X connect 18 0 22 1;
#X connect 21 0 22 0;
#X connect 22 0 25 0;
#X connect 23 0 55 0;
#X connect 25 0 23 1;
#X connect 26 0 4 1;
#X connect 27 0 26 0;
#X connect 28 0 27 0;
#X connect 36 0 37 0;
#X connect 36 1 37 1;
#X connect 37 0 40 0;
#X connect 37 1 40 1;
#X connect 38 0 36 2;
#X connect 38 0 37 2;
#X connect 39 0 37 3;
#X connect 39 0 36 3;
#X connect 40 0 41 0;
#X connect 40 1 41 1;
#X connect 41 0 1 0;
#X connect 42 0 10 1;
#X connect 42 0 18 1;
#X connect 43 0 42 0;
#X connect 44 0 43 1;
#X connect 45 0 43 0;
#X connect 47 0 41 3;
#X connect 48 0 40 3;
#X connect 48 0 47 0;
#X connect 49 0 36 0;
#X connect 50 0 40 2;
#X connect 50 0 41 2;
#X connect 50 0 54 0;
#X connect 50 0 54 1;
#X connect 54 0 55 1;
#X connect 55 0 48 0;
#X restore -114 722 pd lopass2p2z;
#X obj 158 115 vsl 15 35 0 0.5 0 1 empty empty dt 2 4 0 8 -262144 -1
-1 100 1;
#X obj 158 161 vsl 15 35 0 0.5 0 1 empty empty ph 2 4 0 8 -262144 -1
-1 0 1;
#X obj 336 288 *;
#X obj 336 336 * 10000;
#X obj 337 314 *;
#X obj 249 254 *;
#X obj 252 302 * 10000;
#X obj 250 280 *;
#X obj 398 310 *;
#X obj 401 358 * 10000;
#X obj 399 336 *;
#X obj 266 115 vsl 15 81 0.2 1 0 1 empty empty s 2 4 0 8 -262144 -1
-1 4600 1;
#X obj 283 115 vsl 15 81 0.2 1 0 1 empty empty r 2 4 0 8 -262144 -1
-1 2100 1;
#X obj 232 115 vsl 15 81 0.2 1 0 1 empty empty a 2 4 0 8 -262144 -1
-1 0 1;
#X obj -93 267 moses 0.0001;
#X obj -112 312 - 2;
#X obj 120 616 mtof~;
#X obj 115 590 +~;
#X obj 102 563 *~;
#X obj 195 101 hsl 101 10 -1 1 0 1 empty empty kt -2 5 0 10 -262144
-1 -1 7400 1;
#X obj 33 246 - 64;
#X obj 55 331 *;
#X obj 155 552 +;
#X obj 143 506 t b f;
#X text 437 50 2015 martin brinkmann;
#X text 324 20 303ish (or 202ish?) 2-osc synth \, vanilla only now
with adsr and keytracking;
#N canvas 1 78 704 786 doublesaw 0;
#X obj 18 30 inlet;
#X obj 58 123 mtof;
#X obj 59 159 phasor~;
#X obj 70 268 wrap~;
#X text 62 30 <-pitch;
#X text 279 27 <-sync;
#X obj 155 654 outlet~;
#X obj 144 361 hip~ 5;
#X obj 206 152 phasor~;
#X obj 213 264 wrap~;
#X obj 212 97 -;
#X obj 208 117 mtof;
#X obj 58 93 +;
#X obj 228 238 +~;
#X obj 324 292 - 1;
#X obj 324 246 == 0;
#X obj 329 273 * 2;
#X obj 197 321 *~ 1;
#X obj 227 28 inlet;
#X obj 318 173 inlet;
#X obj 369 23 inlet;
#X obj 144 525 *~ 0.125;
#X obj 144 548 rzero~ -1;
#X obj 144 571 rzero~ -1;
#X obj 144 594 rzero~ -1;
#X obj 143 399 *~ 0.2368;
#X obj 144 445 *~ 0.06261;
#X obj 143 422 rpole~ 0.76319;
#X obj 143 468 cpole~ 0.85223 0.20194;
#X obj 142 496 cpole~ 0.85223 -0.2019;
#X obj 392 67 block~ 64 1 8;
#X text 265 439 from pd docs modified for 8 times oversampling;
#X text 308 98 8 times oversampled \, i hope the pitch is right...
;
#X connect 0 0 12 0;
#X connect 0 0 10 0;
#X connect 1 0 2 0;
#X connect 2 0 3 0;
#X connect 3 0 7 0;
#X connect 7 0 25 0;
#X connect 8 0 13 0;
#X connect 9 0 17 0;
#X connect 10 0 11 0;
#X connect 11 0 8 0;
#X connect 12 0 1 0;
#X connect 13 0 9 0;
#X connect 14 0 17 1;
#X connect 15 0 16 0;
#X connect 16 0 14 0;
#X connect 17 0 7 0;
#X connect 18 0 2 1;
#X connect 18 0 8 1;
#X connect 19 0 13 1;
#X connect 19 0 15 0;
#X connect 20 0 10 1;
#X connect 20 0 12 1;
#X connect 21 0 22 0;
#X connect 22 0 23 0;
#X connect 23 0 24 0;
#X connect 24 0 6 0;
#X connect 25 0 27 0;
#X connect 26 0 28 0;
#X connect 27 0 26 0;
#X connect 28 0 29 0;
#X connect 28 1 29 1;
#X connect 29 0 21 0;
#X restore -167 462 pd doublesaw;
#X obj -168 433 +;
#X obj 140 115 vsl 15 35 0 0.5 0 1 empty empty dt 2 4 0 8 -262144 -1
-1 200 1;
#X obj 140 161 vsl 15 35 0 0.5 0 1 empty empty ph 2 4 0 8 -262144 -1
-1 0 1;
#X obj -119 641 +~;
#X obj -77 595 *~;
#X obj -139 598 *~;
#X obj -121 555 * -1;
#X obj -121 579 + 1;
#X obj 122 114 vsl 15 35 0 1 0 1 empty empty bl 2 4 0 8 -262144 -1
-1 1400 1;
#X obj 102 168 nbx 3 14 -24 24 0 1 empty empty empty 0 -8 0 10 -262144
-1 -1 -12 256;
#X obj 102 184 nbx 3 14 -50 50 0 1 empty empty empty 0 -8 0 10 -262144
-1 -1 1 256;
#X obj -111 399 +;
#X obj -103 367 t b f;
#X obj 87 210 / 100;
#X obj -91 424 -;
#X obj 81 452 abs_adsr2a;
#X obj 75 478 *~;
#X obj 52 506 *~;
#X connect 0 0 48 0;
#X connect 0 0 76 0;
#X connect 1 0 36 1;
#X connect 1 0 36 0;
#X connect 2 0 49 0;
#X connect 3 0 4 1;
#X connect 4 0 61 0;
#X connect 4 0 75 0;
#X connect 5 0 27 0;
#X connect 6 0 32 2;
#X connect 6 0 33 2;
#X connect 7 0 29 0;
#X connect 8 0 13 0;
#X connect 9 0 4 0;
#X connect 9 0 54 0;
#X connect 11 0 0 0;
#X connect 14 0 52 1;
#X connect 15 0 17 0;
#X connect 16 0 14 1;
#X connect 17 0 14 0;
#X connect 17 1 16 0;
#X connect 18 0 24 0;
#X connect 19 0 22 0;
#X connect 22 0 23 0;
#X connect 23 0 28 0;
#X connect 24 0 25 0;
#X connect 25 0 26 0;
#X connect 26 0 56 0;
#X connect 27 0 26 0;
#X connect 27 1 26 1;
#X connect 28 0 14 0;
#X connect 29 0 28 0;
#X connect 29 1 28 1;
#X connect 30 0 65 0;
#X connect 31 0 32 1;
#X connect 31 0 33 1;
#X connect 32 0 33 0;
#X connect 33 0 8 0;
#X connect 34 0 30 3;
#X connect 35 0 30 2;
#X connect 36 0 38 1;
#X connect 36 0 38 0;
#X connect 37 0 76 2;
#X connect 38 0 37 0;
#X connect 39 0 41 1;
#X connect 39 0 41 0;
#X connect 40 0 76 1;
#X connect 41 0 40 0;
#X connect 42 0 44 1;
#X connect 42 0 44 0;
#X connect 43 0 76 4;
#X connect 44 0 43 0;
#X connect 45 0 76 3;
#X connect 46 0 42 1;
#X connect 46 0 42 0;
#X connect 47 0 39 1;
#X connect 47 0 39 0;
#X connect 48 1 30 1;
#X connect 48 1 60 1;
#X connect 49 0 3 0;
#X connect 50 0 31 0;
#X connect 51 0 50 0;
#X connect 52 0 51 0;
#X connect 53 0 55 1;
#X connect 54 0 55 0;
#X connect 55 0 57 0;
#X connect 56 0 51 1;
#X connect 57 0 56 0;
#X connect 57 1 56 1;
#X connect 60 0 66 0;
#X connect 61 0 60 0;
#X connect 62 0 60 3;
#X connect 63 0 60 2;
#X connect 64 0 32 0;
#X connect 65 0 64 1;
#X connect 66 0 64 0;
#X connect 67 0 68 0;
#X connect 68 0 66 1;
#X connect 69 0 65 1;
#X connect 69 0 67 0;
#X connect 70 0 72 0;
#X connect 71 0 74 0;
#X connect 72 0 61 1;
#X connect 73 0 72 0;
#X connect 73 1 72 1;
#X connect 74 0 73 0;
#X connect 74 0 75 1;
#X connect 75 0 30 0;
#X connect 76 0 77 1;
#X connect 76 0 77 0;
#X connect 77 0 78 0;
#X connect 77 0 78 1;
#X connect 78 0 52 0;
#X connect 78 0 8 1;
#X coords 0 -1 1 1 200 100 1 100 100;
#X restore 26 126 pd two_oneosc2;
#X connect 0 0 7 0;
#X connect 0 1 13 1;
#X connect 1 0 3 0;
#X connect 2 0 13 0;
#X connect 3 0 5 0;
#X connect 4 0 8 0;
#X connect 5 0 4 0;
#X connect 6 0 7 0;
#X connect 7 0 2 0;
#X connect 8 0 2 1;
#X connect 8 0 6 0;
#X connect 11 0 10 1;
#X connect 11 0 10 0;
#X connect 12 0 13 0;
#X connect 12 1 13 1;
#X connect 13 0 11 0;
