#N canvas 232 326 538 397 10;
#N canvas 1 77 592 473 midimono 0;
#X obj 179 125 stripnote;
#X obj 304 226 select;
#X obj 295 123 float;
#X obj 282 70 t b f;
#X obj 304 197 float;
#X obj 295 152 sel 0;
#X obj 175 8 notein;
#X obj 246 320 outlet;
#X msg 317 252 0;
#X obj 136 317 outlet;
#X text 273 47 taken from the pd doc-monosynth-example;
#X obj 246 226 / 128;
#X connect 0 0 1 1;
#X connect 0 0 9 0;
#X connect 1 0 8 0;
#X connect 2 0 5 0;
#X connect 3 0 2 0;
#X connect 3 1 4 1;
#X connect 4 0 1 0;
#X connect 5 0 4 0;
#X connect 5 1 11 0;
#X connect 6 0 0 0;
#X connect 6 0 3 0;
#X connect 6 1 0 1;
#X connect 6 1 2 1;
#X connect 8 0 7 0;
#X connect 11 0 7 0;
#X restore 274 13 pd midimono;
#X obj 15 9 bendin;
#X obj 137 70 +;
#X obj 14 32 - 8192;
#X obj 14 77 clip -1 1;
#X obj 14 56 / 8192;
#X msg 178 13 bang;
#X obj 181 41 int;
#X obj 98 45 * 2;
#X text 83 26 bend range;
#X obj 95 286 dac~;
#X obj 132 240 *~ 0.5;
#N canvas 369 221 963 689 two_op1m 0;
#X obj -255 39 inlet;
#X obj -424 293 mtof;
#X obj 242 118 vsl 12 81 0.1 1 0 1 empty empty a 2 4 0 8 -262144 -1
-1 0 1;
#X obj -204 37 inlet;
#X obj 295 278 *;
#X obj 294 327 * 10000;
#X obj 296 304 *;
#X obj -197 72 clip 0 1;
#X obj 256 118 vsl 12 81 0.1 1 0 1 empty empty d 2 4 0 8 -262144 -1
-1 4200 1;
#X obj 284 118 vsl 12 81 0.2 1 0 1 empty empty r 2 4 0 8 -262144 -1
-1 1600 1;
#X obj 270 118 vsl 12 81 0 1 0 1 empty empty s 2 4 0 8 -262144 -1 -1
1400 1;
#X obj 355 283 *;
#X obj 354 332 * 10000;
#X obj 356 309 *;
#X obj 403 305 *;
#X obj 402 354 * 10000;
#X obj 404 331 *;
#X text -258 24 pitch;
#X obj -25 701 *~;
#X obj 118 121 vradio 15 1 1 5 empty empty empty 0 -8 0 10 -262144
-1 -1 0;
#X obj -38 828 outlet~;
#X text -201 24 gate;
#X obj 310 449 line~;
#X obj -133 213 select 0 1 2 3 4;
#X msg -183 234 0 1 0 1 1 0;
#X msg -163 259 0.5 1.5 0 2 1 0;
#X msg -127 309 0 0.5 0.75 1 2 1;
#X msg -148 287 0 0.5 0.75 0.5 2 1;
#X msg -89 329 0.5 1 0 1 1 0;
#X msg 311 426 \$1 1.6;
#X obj 76 237 *;
#X obj 225 121 vradio 15 1 1 5 empty empty empty 0 -8 0 10 -262144
-1 -1 1;
#X obj -2 462 select 0 1 2 3 4;
#X msg -22 487 0 1 0 1 1 0;
#X msg -2 512 0.5 1.5 0 2 1 0;
#X msg 34 562 0 0.5 0.75 1 2 1;
#X msg 13 540 0 0.5 0.75 0.5 2 1;
#X msg 72 582 0.5 1 0 1 1 0;
#X obj 167 207 hsl 128 10 0 1 0 1 empty empty fm 0 6 0 10 -262144 -1
-1 7500 1;
#X obj -72 395 *;
#X obj -215 388 *;
#X obj 109 204 nbx 4 14 0.25 16 0 1 empty empty empty 0 -8 0 10 -262144
-1 -1 3 256;
#X obj -81 419 *;
#X obj 135 118 vsl 12 81 0.1 1 0 1 empty empty a 2 4 0 8 -262144 -1
-1 0 1;
#X obj 102 240 *;
#X obj 86 291 * 10000;
#X obj 88 268 *;
#X obj 149 118 vsl 12 81 0.1 1 0 1 empty empty d 2 4 0 8 -262144 -1
-1 2100 1;
#X obj 177 118 vsl 12 81 0.2 1 0 1 empty empty r 2 4 0 8 -262144 -1
-1 2000 1;
#X obj 163 118 vsl 12 81 0 1 0 1 empty empty s 2 4 0 8 -262144 -1 -1
0 1;
#X obj 137 261 *;
#X obj 136 310 * 10000;
#X obj 138 287 *;
#X obj 187 272 *;
#X obj 186 321 * 10000;
#X obj 188 298 *;
#X obj 125 405 line~;
#X msg 126 382 \$1 1.6;
#X obj -62 653 abs_fm_op1;
#X obj -132 565 *~;
#X obj -167 500 *~;
#X obj -209 425 abs_fm_op1;
#X obj 90 427 *~;
#X obj 291 475 *~;
#X obj 104 118 vsl 12 81 0 0.5 0 1 empty empty fb 2 4 0 8 -262144 -1
-1 4800 1;
#X obj 253 293 *;
#X obj 211 118 vsl 12 81 0 0.5 0 1 empty empty fb 2 4 0 8 -262144 -1
-1 3900 1;
#X obj 195 118 vsl 10 81 0 1 0 1 empty empty b 2 4 0 8 -262144 -1 -1
5700 1;
#X obj -39 801 +~;
#X obj -17 771 *~;
#X obj -79 774 *~;
#X obj -72 719 * -1;
#X obj -72 743 + 1;
#X text 107 28 2op fm monosynth;
#X obj 214 103 hsl 80 10 -1 1 0 1 empty empty kt 0 6 0 10 -262144 -1
-1 3600 1;
#X obj -117 461 *;
#X obj -259 153 / 128;
#X obj -260 184 *;
#X obj -115 502 +;
#X obj -57 38 inlet;
#X text -53 22 mod;
#X obj -63 106 *;
#X obj -102 547 clip 0 1;
#X obj -27 394 t b f;
#X obj -86 522 +;
#X obj -57 59 / 256;
#X obj 124 363 abs_adsr2m;
#X obj 309 407 abs_adsr2m;
#X connect 0 0 1 0;
#X connect 0 0 76 0;
#X connect 1 0 40 0;
#X connect 1 0 58 0;
#X connect 2 0 4 1;
#X connect 2 0 4 0;
#X connect 3 0 7 0;
#X connect 4 0 6 1;
#X connect 4 0 6 0;
#X connect 5 0 87 1;
#X connect 6 0 5 0;
#X connect 7 0 86 0;
#X connect 7 0 87 0;
#X connect 8 0 11 1;
#X connect 8 0 11 0;
#X connect 9 0 14 1;
#X connect 9 0 14 0;
#X connect 10 0 87 3;
#X connect 11 0 13 1;
#X connect 11 0 13 0;
#X connect 12 0 87 2;
#X connect 13 0 12 0;
#X connect 14 0 16 1;
#X connect 14 0 16 0;
#X connect 15 0 87 4;
#X connect 16 0 15 0;
#X connect 18 0 69 0;
#X connect 19 0 23 0;
#X connect 22 0 63 0;
#X connect 22 0 63 1;
#X connect 23 0 24 0;
#X connect 23 1 25 0;
#X connect 23 2 27 0;
#X connect 23 3 26 0;
#X connect 23 4 28 0;
#X connect 24 0 61 2;
#X connect 25 0 61 2;
#X connect 26 0 61 2;
#X connect 27 0 61 2;
#X connect 28 0 61 2;
#X connect 29 0 22 0;
#X connect 30 0 61 3;
#X connect 31 0 32 0;
#X connect 32 0 33 0;
#X connect 32 1 34 0;
#X connect 32 2 36 0;
#X connect 32 3 35 0;
#X connect 32 4 37 0;
#X connect 33 0 58 2;
#X connect 34 0 58 2;
#X connect 35 0 58 2;
#X connect 36 0 58 2;
#X connect 37 0 58 2;
#X connect 38 0 39 1;
#X connect 38 0 39 0;
#X connect 39 0 42 1;
#X connect 39 0 42 0;
#X connect 40 0 61 0;
#X connect 41 0 40 1;
#X connect 42 0 78 1;
#X connect 42 0 75 1;
#X connect 43 0 44 1;
#X connect 43 0 44 0;
#X connect 44 0 46 1;
#X connect 44 0 46 0;
#X connect 45 0 86 1;
#X connect 46 0 45 0;
#X connect 47 0 50 1;
#X connect 47 0 50 0;
#X connect 48 0 53 1;
#X connect 48 0 53 0;
#X connect 49 0 86 3;
#X connect 50 0 52 1;
#X connect 50 0 52 0;
#X connect 51 0 86 2;
#X connect 52 0 51 0;
#X connect 53 0 55 1;
#X connect 53 0 55 0;
#X connect 54 0 86 4;
#X connect 55 0 54 0;
#X connect 56 0 62 0;
#X connect 56 0 62 1;
#X connect 57 0 56 0;
#X connect 58 0 18 0;
#X connect 59 0 58 1;
#X connect 60 0 59 0;
#X connect 60 0 70 0;
#X connect 61 0 60 0;
#X connect 62 0 60 1;
#X connect 63 0 18 1;
#X connect 64 0 30 1;
#X connect 64 0 30 0;
#X connect 65 0 58 3;
#X connect 66 0 65 1;
#X connect 66 0 65 0;
#X connect 67 0 71 0;
#X connect 67 0 69 1;
#X connect 68 0 20 0;
#X connect 69 0 68 1;
#X connect 70 0 68 0;
#X connect 71 0 72 0;
#X connect 72 0 70 1;
#X connect 74 0 77 1;
#X connect 75 0 78 0;
#X connect 76 0 77 0;
#X connect 77 0 75 0;
#X connect 78 0 84 0;
#X connect 79 0 85 0;
#X connect 81 0 83 0;
#X connect 82 0 59 1;
#X connect 83 0 84 0;
#X connect 83 1 84 1;
#X connect 84 0 82 0;
#X connect 85 0 81 1;
#X connect 85 0 81 0;
#X connect 86 0 57 0;
#X connect 87 0 29 0;
#X coords 0 -1 1 1 200 120 1 100 100;
#X restore 132 109 pd two_op1m;
#X obj 344 65 ctlin 1;
#X connect 0 0 7 0;
#X connect 0 1 12 1;
#X connect 1 0 3 0;
#X connect 2 0 12 0;
#X connect 3 0 5 0;
#X connect 4 0 8 0;
#X connect 5 0 4 0;
#X connect 6 0 7 0;
#X connect 7 0 2 0;
#X connect 8 0 2 1;
#X connect 8 0 6 0;
#X connect 11 0 10 0;
#X connect 11 0 10 1;
#X connect 12 0 11 0;
#X connect 13 0 12 2;
