#N canvas 362 266 450 300 10;
#N canvas 292 77 1352 999 wiiplinkr 0;
#X text 8 144 metro sync;
#X obj 105 157 tgl 15 0 empty empty empty 17 7 0 10 -258113 -1 -1 0
1;
#X obj 159 138 bng 15 250 50 0 empty empty empty 17 7 0 10 -204786
-1 -1;
#X obj 106 177 hsl 128 8 0 1 0 0 empty empty empty -2 -8 0 10 -262144
-1 -1 1276 0;
#X obj -29 -52 timer;
#X msg -11 15 set \$1;
#X msg -25 40 6968.89;
#X obj -63 -28 t b;
#X obj 116 -19 metro 123;
#X obj 118 -47 moses 100;
#X msg -132 190 tempo 1;
#X obj 9 -78 spigot;
#X obj 8 124 t b;
#X obj -37 65 t b b;
#X msg 242 15 stop;
#X msg 371 151 0;
#X obj -18 -26 t b f;
#X obj 361 74 t b b;
#X msg 355 132 1 6968.89;
#X msg 370 109 set 1 \$1;
#X obj 357 174 line 0 100;
#X obj -187 -94 inlet;
#X floatatom 102 121 9 0 0 0 - - -, f 9;
#X obj 124 157 bng 15 250 50 0 empty empty X 5 8 0 10 -260097 -1 -1
;
#X obj 256 -59 select 0 1;
#X msg 251 -17 stop;
#X obj 161 120 tgl 15 1 empty empty empty 17 7 0 10 -262144 -1 -1 0
1;
#X obj 119 139 nbx 3 14 0 100 0 1 empty empty st -15 7 0 10 -204786
-1 -1 0 256;
#X obj 561 -25 / 100;
#X text -185 -116 start/sync;
#X obj 504 118 >;
#X obj 518 147 ||;
#X obj 539 118 <;
#X obj 524 89 -;
#X obj 517 43 t b f;
#X msg 513 65 1;
#X obj 461 54 t f f;
#N canvas 1 161 1849 827 qr3xyz_values 0;
#X obj -89 102 inlet;
#X msg 226 300 set;
#X msg 206 351 clear;
#X obj 219 229 t b b;
#X msg 244 268 0;
#X obj 189 193 spigot;
#X obj -87 233 t b b;
#X msg -43 272 1;
#X msg -13 278 0;
#X obj -83 345 spigot 1;
#X text -86 83 trig;
#X obj 448 45 inlet;
#X msg 508 410 addcomma;
#X obj 460 439 t b a;
#X obj 445 327 timer;
#X obj 434 357 int;
#X obj 668 272 moses 0.1;
#X msg 658 291 0;
#X msg 219 159 0;
#X obj 457 99 t b b f b b;
#X obj 376 683 outlet;
#X obj 449 386 pack f f;
#X msg 489 468 add2 \$1 \$2;
#X obj 937 90 inlet;
#X msg 1025 445 addcomma;
#X obj 971 480 t b a;
#X obj 964 361 timer;
#X obj 945 405 int;
#X obj 1165 325 moses 0.1;
#X msg 1160 353 0;
#X obj 954 436 pack f f;
#X obj 929 686 outlet;
#X obj 961 192 t b b f b;
#X obj 903 544 abs_qlistrec3v;
#X msg 999 510 add2 \$1 \$2;
#X msg 504 523;
#X obj 289 554 abs_qlistrec3v;
#X text 936 71 ctl2;
#X text 453 27 ctl;
#X msg 1018 574;
#X obj 1438 59 inlet;
#X msg 1526 414 addcomma;
#X obj 1472 449 t b a;
#X obj 1464 336 timer;
#X obj 1446 374 int;
#X obj 1669 284 moses 0.1;
#X msg 1664 312 0;
#X obj 1457 403 pack f f;
#X obj 1430 655 outlet;
#X obj 1462 161 t b b f b;
#X obj 1404 513 abs_qlistrec3v;
#X msg 1500 479 add2 \$1 \$2;
#X msg 1519 543;
#X text 1437 40 ctl3;
#X obj 504 494 spigot 0;
#X obj 1019 543 spigot 0;
#X obj 1520 512 spigot 0;
#X obj 62 5 inlet;
#X text 60 -18 tempo;
#X obj 158 11 inlet;
#X text 160 -6 arm;
#X obj -60 593 outlet;
#X text -58 613 arm status;
#X obj 37 592 outlet;
#X text 36 613 recording;
#X obj 227 14 inlet;
#X connect 0 0 6 0;
#X connect 1 0 35 0;
#X connect 1 0 39 0;
#X connect 1 0 52 0;
#X connect 2 0 33 0;
#X connect 2 0 36 0;
#X connect 2 0 50 0;
#X connect 3 0 4 0;
#X connect 3 0 2 0;
#X connect 3 0 1 0;
#X connect 3 1 14 0;
#X connect 3 1 26 0;
#X connect 3 1 43 0;
#X connect 4 0 15 1;
#X connect 4 0 27 1;
#X connect 4 0 44 1;
#X connect 5 0 3 0;
#X connect 5 0 7 0;
#X connect 6 0 8 0;
#X connect 6 0 33 0;
#X connect 6 0 36 0;
#X connect 6 0 50 0;
#X connect 6 1 9 0;
#X connect 7 0 9 1;
#X connect 7 0 63 0;
#X connect 8 0 9 1;
#X connect 8 0 61 0;
#X connect 9 0 35 0;
#X connect 9 0 39 0;
#X connect 9 0 52 0;
#X connect 11 0 19 0;
#X connect 12 0 54 0;
#X connect 13 0 12 0;
#X connect 13 1 22 0;
#X connect 14 0 15 1;
#X connect 15 0 21 0;
#X connect 16 0 17 0;
#X connect 16 1 54 1;
#X connect 17 0 54 1;
#X connect 18 0 5 1;
#X connect 19 0 15 0;
#X connect 19 0 18 0;
#X connect 19 1 14 0;
#X connect 19 2 21 1;
#X connect 19 3 14 1;
#X connect 19 4 5 0;
#X connect 21 0 13 0;
#X connect 22 0 54 0;
#X connect 23 0 32 0;
#X connect 24 0 55 0;
#X connect 25 0 24 0;
#X connect 25 1 34 0;
#X connect 26 0 27 1;
#X connect 27 0 30 0;
#X connect 28 0 29 0;
#X connect 28 1 55 1;
#X connect 29 0 55 1;
#X connect 30 0 25 0;
#X connect 32 0 27 0;
#X connect 32 1 26 0;
#X connect 32 2 30 1;
#X connect 32 3 26 1;
#X connect 33 0 31 0;
#X connect 34 0 55 0;
#X connect 35 0 36 1;
#X connect 36 0 20 0;
#X connect 39 0 33 1;
#X connect 40 0 49 0;
#X connect 41 0 56 0;
#X connect 42 0 41 0;
#X connect 42 1 51 0;
#X connect 43 0 44 1;
#X connect 44 0 47 0;
#X connect 45 0 46 0;
#X connect 45 1 56 1;
#X connect 46 0 56 1;
#X connect 47 0 42 0;
#X connect 49 0 44 0;
#X connect 49 1 43 0;
#X connect 49 2 47 1;
#X connect 49 3 43 1;
#X connect 50 0 48 0;
#X connect 51 0 56 0;
#X connect 52 0 50 1;
#X connect 54 0 35 0;
#X connect 55 0 39 0;
#X connect 56 0 52 0;
#X connect 57 0 36 0;
#X connect 57 0 33 0;
#X connect 57 0 50 0;
#X connect 59 0 5 1;
#X connect 59 0 16 0;
#X connect 59 0 28 0;
#X connect 59 0 45 0;
#X connect 65 0 2 0;
#X connect 65 0 1 0;
#X coords 0 827 1 826 60 30 0;
#X restore -52 305 pd qr3xyz_values;
#X text -187 -139 absolute-time based looprecorder for xyz ctl values
;
#X obj -163 -25 t b;
#X obj -164 59 spigot 1;
#X floatatom 616 867 5 0 0 0 - - -, f 5;
#X obj 170 944 route 0 1 2 3 4 5 6 7 8 9 10 11 12 13 14 15 16 17 18
19 20 21 22 23;
#X msg 286 1266 bang;
#N canvas 0 50 450 300 distri 0;
#X obj 147 43 inlet~;
#X obj 75 202 outlet~;
#X obj 220 194 outlet~;
#X obj 194 142 *~ 0.3;
#X obj 136 82 clip~ -1 1;
#X connect 0 0 4 0;
#X connect 3 0 2 0;
#X connect 4 0 1 0;
#X connect 4 0 3 0;
#X restore 431 1273 pd distri;
#N canvas 0 50 450 300 distri 0;
#X obj 132 45 inlet~;
#X obj 75 202 outlet~;
#X obj 220 194 outlet~;
#X obj 193 143 *~ 0.3;
#X obj 136 82 clip~ -1 1;
#X connect 0 0 4 0;
#X connect 3 0 2 0;
#X connect 4 0 3 0;
#X connect 4 0 1 0;
#X restore 118 1273 pd distri;
#X obj 8 1166 abs_plk2dg;
#X obj 573 1327 clip~ -0.5 0.5;
#X obj 457 1402 + 100;
#X obj 441 1374 random 400;
#X obj 611 778 random 200;
#X obj 534 1364 lop~ 250;
#X obj 490 1481 *~ 5000;
#X obj 614 820 + 50;
#X obj 173 1336 outlet~;
#X obj 495 1321 outlet~;
#X obj 712 1191 inlet~;
#X obj 554 463 t b;
#X obj 494 402 loadbang;
#X msg 585 412 bang;
#X obj 55 1052 abs_plk2dg;
#X obj 139 1052 abs_plk2dg;
#X obj 220 1052 abs_plk2dg;
#X obj 305 1052 abs_plk2dg;
#X obj 386 1053 abs_plk2dg;
#X obj 472 1052 abs_plk2dg;
#X obj 551 1051 abs_plk2dg;
#X obj 635 1049 abs_plk2dg;
#X obj 61 1110 abs_plk2dg;
#X obj 145 1110 abs_plk2dg;
#X obj 226 1110 abs_plk2dg;
#X obj 311 1110 abs_plk2dg;
#X obj 395 1110 abs_plk2dg;
#X obj 476 1110 abs_plk2dg;
#X obj 556 1111 abs_plk2dg;
#X obj 641 1107 abs_plk2dg;
#X obj 92 1166 abs_plk2dg;
#X obj 173 1166 abs_plk2dg;
#X obj 258 1165 abs_plk2dg;
#X obj 340 1165 abs_plk2dg;
#X obj 419 1168 abs_plk2dg;
#X obj 503 1167 abs_plk2dg;
#X obj 588 1163 abs_plk2dg;
#X text 712 1173 ext fm;
#X obj 544 1516 throw~;
#X msg 645 1451 set \$1uniquecatch;
#X obj 462 851 abs_uniquecatch1;
#X obj 524 1450 abs_delayrw1 500;
#X obj 201 766 mtof;
#X obj 168 893 pack f f f f;
#X obj 58 799 +;
#X obj 44 855 int;
#X obj 54 824 t b f;
#X msg 3 762 1;
#X obj 22 940 moses 0.1;
#X msg 9 835 0;
#X obj 203 679 clip -1 1;
#X obj 281 664 clip -1 1;
#X obj 289 699 + 1;
#N canvas 161 73 739 534 speedchangedetect 0;
#X obj 153 -521 t f b;
#X obj 154 -442 -;
#X obj 181 -469 float;
#X obj 140 -345 > 0.1;
#X obj 142 -315 moses 0.1;
#X obj 146 -410 abs;
#X obj 213 -160 outlet;
#X obj 150 -559 inlet;
#X text 204 -502 speed;
#X text 196 -558 <- events;
#X obj 274 -481 inlet;
#X text 315 -480 <-threshhold 0..1;
#X obj 218 -284 *;
#X obj 143 -386 t f f;
#X obj 220 -201 clip 0 127;
#X obj 220 -242 * 100;
#X connect 0 0 1 0;
#X connect 0 0 2 1;
#X connect 0 1 2 0;
#X connect 1 0 5 0;
#X connect 2 0 1 1;
#X connect 3 0 4 0;
#X connect 4 1 12 0;
#X connect 5 0 13 0;
#X connect 7 0 0 0;
#X connect 10 0 3 1;
#X connect 12 0 15 0;
#X connect 13 0 3 0;
#X connect 13 1 12 1;
#X connect 14 0 6 0;
#X connect 15 0 14 0;
#X restore 40 711 pd speedchangedetect;
#N canvas 161 73 739 534 speedchangedetect 0;
#X obj 153 -521 t f b;
#X obj 154 -442 -;
#X obj 181 -469 float;
#X obj 140 -345 > 0.1;
#X obj 142 -315 moses 0.1;
#X obj 146 -410 abs;
#X obj 213 -160 outlet;
#X obj 150 -559 inlet;
#X text 204 -502 speed;
#X text 196 -558 <- events;
#X obj 274 -481 inlet;
#X text 315 -480 <-threshhold 0..1;
#X obj 218 -284 *;
#X obj 143 -386 t f f;
#X obj 220 -201 clip 0 127;
#X obj 220 -242 * 100;
#X connect 0 0 1 0;
#X connect 0 0 2 1;
#X connect 0 1 2 0;
#X connect 1 0 5 0;
#X connect 2 0 1 1;
#X connect 3 0 4 0;
#X connect 4 1 12 0;
#X connect 5 0 13 0;
#X connect 7 0 0 0;
#X connect 10 0 3 1;
#X connect 12 0 15 0;
#X connect 13 0 3 0;
#X connect 13 1 12 1;
#X connect 14 0 6 0;
#X connect 15 0 14 0;
#X restore -19 638 pd speedchangedetect;
#N canvas 161 73 739 534 speedchangedetect 0;
#X obj 153 -521 t f b;
#X obj 154 -442 -;
#X obj 181 -469 float;
#X obj 140 -345 > 0.1;
#X obj 142 -315 moses 0.1;
#X obj 146 -410 abs;
#X obj 213 -160 outlet;
#X obj 150 -559 inlet;
#X text 204 -502 speed;
#X text 196 -558 <- events;
#X obj 274 -481 inlet;
#X text 315 -480 <-threshhold 0..1;
#X obj 218 -284 *;
#X obj 143 -386 t f f;
#X obj 220 -201 clip 0 127;
#X obj 220 -242 * 100;
#X connect 0 0 1 0;
#X connect 0 0 2 1;
#X connect 0 1 2 0;
#X connect 1 0 5 0;
#X connect 2 0 1 1;
#X connect 3 0 4 0;
#X connect 4 1 12 0;
#X connect 5 0 13 0;
#X connect 7 0 0 0;
#X connect 10 0 3 1;
#X connect 12 0 15 0;
#X connect 13 0 3 0;
#X connect 13 1 12 1;
#X connect 14 0 6 0;
#X connect 15 0 14 0;
#X restore -54 598 pd speedchangedetect;
#X msg 134 564 0.05;
#X obj 23 914 > 23;
#X obj 204 709 * 64;
#X obj 204 737 + 64;
#X obj 203 649 * 0.5;
#X obj 284 743 * 0.24;
#X obj 387 690 clip -1 1;
#X obj 295 846 + 0.5;
#X obj 370 762 * 0.25;
#X obj 179 105 vsl 10 64 -2 2 0 0 empty empty empty 0 -9 0 10 -262144
-1 -1 2400 1;
#X obj 193 105 vsl 10 64 -2 2 0 0 empty empty empty 0 -9 0 10 -262144
-1 -1 2600 1;
#X obj 207 105 vsl 10 64 -2 2 0 0 empty empty empty 0 -9 0 10 -262144
-1 -1 2800 1;
#X msg 365 -166 disconnect;
#X msg 337 -215 discover;
#X obj 355 -137 wiimote;
#X obj 354 -51 unpack 0 0 0;
#X msg 356 -189 reportAcceleration 1;
#X obj 413 -215 loadbang;
#X obj 356 -114 route acceleration;
#X obj 225 105 vsl 10 64 0 1 0 0 empty empty empty 0 -9 0 10 -262144
-1 -1 600 1;
#X obj 857 866 *;
#X obj 720 1243 *~;
#X obj 149 159 bng 12 250 50 0 empty empty d 3 7 0 10 -159808 -1 -1
;
#X obj 164 159 bng 12 250 50 0 empty empty x 3 7 0 10 -159808 -1 -1
;
#X obj 359 -79 spigot 1;
#X obj 453 -23 == 0;
#X obj -95 397 spigot 1;
#X obj -49 446 spigot 1;
#X obj 1 470 spigot 1;
#X connect 1 0 11 1;
#X connect 1 0 24 0;
#X connect 1 0 37 2;
#X connect 2 0 13 0;
#X connect 2 0 8 0;
#X connect 4 0 16 0;
#X connect 5 0 6 0;
#X connect 6 0 9 0;
#X connect 6 0 22 0;
#X connect 7 0 4 0;
#X connect 8 0 12 0;
#X connect 8 0 17 0;
#X connect 9 1 8 1;
#X connect 10 0 37 1;
#X connect 11 0 4 1;
#X connect 12 0 10 0;
#X connect 12 0 37 0;
#X connect 13 0 12 0;
#X connect 13 0 6 0;
#X connect 13 1 11 0;
#X connect 14 0 8 0;
#X connect 15 0 20 0;
#X connect 16 0 6 0;
#X connect 16 1 5 0;
#X connect 16 1 19 0;
#X connect 17 0 18 0;
#X connect 17 1 15 0;
#X connect 18 0 20 0;
#X connect 19 0 18 0;
#X connect 20 0 3 0;
#X connect 20 0 36 0;
#X connect 21 0 39 0;
#X connect 23 0 14 0;
#X connect 23 0 37 3;
#X connect 24 1 25 0;
#X connect 25 0 8 0;
#X connect 26 0 127 0;
#X connect 26 0 128 1;
#X connect 26 0 129 1;
#X connect 26 0 130 1;
#X connect 27 0 28 0;
#X connect 28 0 32 1;
#X connect 28 0 34 0;
#X connect 30 0 31 0;
#X connect 31 0 40 1;
#X connect 32 0 31 1;
#X connect 33 0 30 1;
#X connect 34 0 35 0;
#X connect 34 1 33 1;
#X connect 35 0 33 0;
#X connect 36 0 30 0;
#X connect 36 1 32 0;
#X connect 37 0 1 0;
#X connect 37 1 7 0;
#X connect 37 2 106 0;
#X connect 37 2 128 0;
#X connect 37 3 97 0;
#X connect 37 3 129 0;
#X connect 37 4 108 0;
#X connect 37 4 130 0;
#X connect 39 0 40 0;
#X connect 40 0 2 0;
#X connect 41 0 46 1;
#X connect 41 0 60 1;
#X connect 41 0 61 1;
#X connect 41 0 62 1;
#X connect 41 0 63 1;
#X connect 41 0 64 1;
#X connect 41 0 65 1;
#X connect 41 0 66 1;
#X connect 41 0 67 1;
#X connect 41 0 68 1;
#X connect 41 0 69 1;
#X connect 41 0 70 1;
#X connect 41 0 71 1;
#X connect 41 0 72 1;
#X connect 41 0 73 1;
#X connect 41 0 74 1;
#X connect 41 0 75 1;
#X connect 41 0 76 1;
#X connect 41 0 77 1;
#X connect 41 0 78 1;
#X connect 41 0 79 1;
#X connect 41 0 80 1;
#X connect 41 0 81 1;
#X connect 41 0 82 1;
#X connect 42 0 60 0;
#X connect 42 1 61 0;
#X connect 42 2 62 0;
#X connect 42 3 63 0;
#X connect 42 4 64 0;
#X connect 42 5 65 0;
#X connect 42 6 66 0;
#X connect 42 7 67 0;
#X connect 42 8 68 0;
#X connect 42 9 69 0;
#X connect 42 10 70 0;
#X connect 42 11 71 0;
#X connect 42 12 72 0;
#X connect 42 13 73 0;
#X connect 42 14 74 0;
#X connect 42 15 75 0;
#X connect 42 16 46 0;
#X connect 42 17 76 0;
#X connect 42 18 77 0;
#X connect 42 19 78 0;
#X connect 42 20 79 0;
#X connect 42 21 80 0;
#X connect 42 22 81 0;
#X connect 42 23 82 0;
#X connect 43 0 49 0;
#X connect 44 0 51 0;
#X connect 44 1 55 0;
#X connect 45 0 51 0;
#X connect 45 1 54 0;
#X connect 46 0 45 0;
#X connect 46 1 44 0;
#X connect 47 0 51 0;
#X connect 48 0 87 1;
#X connect 49 0 48 0;
#X connect 50 0 53 0;
#X connect 51 0 87 0;
#X connect 52 0 84 0;
#X connect 53 0 41 0;
#X connect 56 0 123 0;
#X connect 57 0 43 0;
#X connect 57 0 50 0;
#X connect 57 0 86 0;
#X connect 57 0 102 0;
#X connect 58 0 57 0;
#X connect 59 0 57 0;
#X connect 60 0 45 0;
#X connect 60 1 44 0;
#X connect 61 0 45 0;
#X connect 61 1 44 0;
#X connect 62 0 45 0;
#X connect 62 1 44 0;
#X connect 63 0 45 0;
#X connect 63 1 44 0;
#X connect 64 0 45 0;
#X connect 64 1 44 0;
#X connect 65 0 45 0;
#X connect 65 1 44 0;
#X connect 66 0 45 0;
#X connect 66 1 44 0;
#X connect 67 0 45 0;
#X connect 67 1 44 0;
#X connect 68 0 45 0;
#X connect 68 1 44 0;
#X connect 69 0 45 0;
#X connect 69 1 44 0;
#X connect 70 0 45 0;
#X connect 70 1 44 0;
#X connect 71 0 45 0;
#X connect 71 1 44 0;
#X connect 72 0 45 0;
#X connect 72 1 44 0;
#X connect 73 0 45 0;
#X connect 73 1 44 0;
#X connect 74 0 45 0;
#X connect 74 1 44 0;
#X connect 75 0 45 0;
#X connect 75 1 44 0;
#X connect 76 0 45 0;
#X connect 76 1 44 0;
#X connect 77 0 45 0;
#X connect 77 1 44 0;
#X connect 78 0 45 0;
#X connect 78 1 44 0;
#X connect 79 0 45 0;
#X connect 79 1 44 0;
#X connect 80 0 45 0;
#X connect 80 1 44 0;
#X connect 81 0 45 0;
#X connect 81 1 44 0;
#X connect 82 0 45 0;
#X connect 82 1 44 0;
#X connect 85 0 84 0;
#X connect 86 0 60 2;
#X connect 86 0 61 2;
#X connect 86 0 62 2;
#X connect 86 0 63 2;
#X connect 86 0 64 2;
#X connect 86 0 65 2;
#X connect 86 0 66 2;
#X connect 86 0 67 2;
#X connect 86 0 68 2;
#X connect 86 0 69 2;
#X connect 86 0 70 2;
#X connect 86 0 71 2;
#X connect 86 0 72 2;
#X connect 86 0 73 2;
#X connect 86 0 74 2;
#X connect 86 0 75 2;
#X connect 86 0 82 2;
#X connect 86 0 81 2;
#X connect 86 0 80 2;
#X connect 86 0 79 2;
#X connect 86 0 78 2;
#X connect 86 0 77 2;
#X connect 86 0 76 2;
#X connect 86 0 46 2;
#X connect 86 1 85 0;
#X connect 87 0 52 0;
#X connect 88 0 89 1;
#X connect 89 0 42 0;
#X connect 90 0 92 0;
#X connect 91 0 90 1;
#X connect 91 0 89 0;
#X connect 91 0 103 0;
#X connect 92 0 91 0;
#X connect 92 1 91 1;
#X connect 93 0 90 0;
#X connect 94 1 95 0;
#X connect 95 0 91 0;
#X connect 96 0 104 0;
#X connect 97 0 98 0;
#X connect 98 0 107 0;
#X connect 99 0 93 0;
#X connect 100 0 93 0;
#X connect 101 0 93 0;
#X connect 102 0 101 1;
#X connect 102 0 100 1;
#X connect 102 0 99 1;
#X connect 103 0 94 0;
#X connect 104 0 105 0;
#X connect 105 0 88 0;
#X connect 106 0 96 0;
#X connect 107 0 89 2;
#X connect 108 0 110 0;
#X connect 109 0 89 3;
#X connect 110 0 109 0;
#X connect 111 0 97 0;
#X connect 111 0 37 4;
#X connect 111 0 101 0;
#X connect 112 0 100 0;
#X connect 112 0 106 0;
#X connect 112 0 37 5;
#X connect 113 0 108 0;
#X connect 113 0 99 0;
#X connect 113 0 37 6;
#X connect 114 0 116 0;
#X connect 115 0 116 0;
#X connect 116 0 120 0;
#X connect 117 0 111 0;
#X connect 117 1 112 0;
#X connect 117 2 113 0;
#X connect 118 0 116 0;
#X connect 119 0 118 0;
#X connect 120 0 126 0;
#X connect 121 0 122 1;
#X connect 121 0 122 0;
#X connect 122 0 123 1;
#X connect 123 0 47 0;
#X connect 124 0 115 0;
#X connect 125 0 114 0;
#X connect 126 0 117 0;
#X connect 127 0 126 1;
#X connect 128 0 101 0;
#X connect 129 0 100 0;
#X connect 130 0 99 0;
#X coords 0 -1 1 1 140 90 1 100 100;
#X restore 83 97 pd wiiplinkr;
#X obj 227 41 adc~;
#X obj 82 230 dac~;
#X obj 77 58 bng 15 250 50 0 empty empty empty 17 7 0 10 -262144 -1
-1;
#X text 67 9 plink xyz-looper with wiimote control;
#X connect 0 0 2 0;
#X connect 0 1 2 1;
#X connect 1 0 0 1;
#X connect 1 1 0 1;
#X connect 3 0 0 0;
