#N canvas 64 204 1206 688 10;
#X obj 131 541 dac~;
#X text 40 214 nanopad-x;
#X text 112 214 nanopad-y;
#X obj 44 230 ctlin 81;
#X obj 113 230 ctlin 82;
#X obj 181 229 ctlin 83;
#X text 179 213 nanopad-on;
#X obj 348 18 loadbang;
#X obj 378 178 playlist all 800 410 {Helvetica 10 bold} white yellow
black red;
#X msg 353 48 location /home/mnb/samplelib;
#X msg 389 92 location /home/mnb/wave_wrk;
#X msg 408 138 location ..;
#X msg 375 71 location /home/mnb/archiv/sounds;
#X msg 292 302 open \$1;
#X obj 269 276 t b a;
#X msg 255 300 1;
#X msg 401 113 location /home/mnb/sound_recordings;
#X obj 268 332 readsf~ 2;
#N canvas 1 127 1706 820 xyfx2 0;
#X obj -263 31 inlet~;
#X obj 168 889 outlet~;
#X obj -335 34 inlet~;
#X obj 20 890 outlet~;
#N canvas 265 213 774 561 drywet 0;
#X obj 174 270 inlet~;
#X obj 118 481 outlet~;
#X obj 212 409 *~;
#X obj 122 417 *~;
#X obj 217 477 outlet~;
#X obj 259 263 clip 0 1;
#X obj 261 228 inlet;
#X obj 257 316 line~;
#X msg 257 293 \$1 10;
#X obj 138 349 *~ -1;
#X obj 129 374 +~ 1;
#X connect 0 0 3 1;
#X connect 0 0 2 0;
#X connect 2 0 4 0;
#X connect 3 0 1 0;
#X connect 5 0 8 0;
#X connect 6 0 5 0;
#X connect 7 0 2 1;
#X connect 7 0 9 0;
#X connect 8 0 7 0;
#X connect 9 0 10 0;
#X connect 10 0 3 0;
#X restore -35 545 pd drywet;
#N canvas 265 213 774 561 drywet 0;
#X obj 174 270 inlet~;
#X obj 118 481 outlet~;
#X obj 212 409 *~;
#X obj 123 403 *~;
#X obj 217 477 outlet~;
#X obj 259 263 clip 0 1;
#X obj 273 221 inlet;
#X obj 257 316 line~;
#X msg 257 293 \$1 10;
#X obj 117 381 +~ 1;
#X obj 117 357 *~ -1;
#X connect 0 0 3 1;
#X connect 0 0 2 0;
#X connect 2 0 4 0;
#X connect 3 0 1 0;
#X connect 5 0 8 0;
#X connect 6 0 5 0;
#X connect 7 0 2 1;
#X connect 7 0 10 0;
#X connect 8 0 7 0;
#X connect 9 0 3 0;
#X connect 10 0 9 0;
#X restore 83 539 pd drywet;
#X obj 207 -165 inlet;
#X obj 262 -163 inlet;
#X obj 105 117 hsl 128 8 0 127 0 1 empty empty x 2 4 0 10 -262144 -1
-128992 4200 1;
#X obj 105 126 hsl 128 8 0 127 0 1 empty empty y 2 4 0 10 -262144 -1
-128992 600 1;
#X obj 240 126 tgl 12 1 empty empty on 1 5 0 10 -262144 -1 -99865 1
1;
#X obj 236 432 > 0;
#X obj 282 409 * 2000;
#X obj 236 540 pack f f;
#X obj 201 101 nbx 4 14 -99 99 0 1 empty empty empty -7 7 0 10 -262144
-1 -1 0 256;
#X obj 323 -166 inlet;
#X obj 234 564 line;
#X obj 405 439 == 0;
#X obj 232 591 *;
#X obj 229 621 +;
#X obj 372 541 t b f;
#X text 244 -161 xy;
#X text 327 -181 on;
#X obj 7 412 / 128;
#X obj 48 422 / 128;
#X text 12 92 metro sync;
#X obj 230 151 tgl 12 0 empty empty empty 17 7 0 10 -258113 -1 -1 0
1;
#X obj 246 151 bng 12 250 50 0 empty empty empty 17 7 0 10 -204786
-1 -1;
#X obj 104 165 hsl 152 8 0 1 0 0 empty empty empty -2 -8 0 10 -228856
-1 -1 0 0;
#X obj -25 -104 timer;
#X msg -7 -37 set \$1;
#X msg -21 -12 6000;
#X obj -70 -44 t b;
#X obj 120 -71 metro 123;
#X obj 130 -98 moses 100;
#X msg -93 175 tempo 1;
#X obj 13 -130 spigot;
#X obj 12 72 t b;
#X obj -33 13 t b b;
#X msg 185 -1 stop;
#X msg 297 47 0;
#X obj -14 -78 t b f;
#X obj 287 -30 t b b;
#X msg 281 28 1 6000;
#X msg 296 5 set 1 \$1;
#X obj 283 70 line 0 100;
#X obj -167 -156 inlet;
#X obj 215 151 bng 12 250 50 0 empty empty X 3 8 0 10 -258113 -1 -1
;
#X obj 199 -75 select 0 1;
#X msg 194 -33 stop;
#X obj 102 136 tgl 12 1 empty empty sq 1 5 0 10 -262144 -1 -99865 1
1;
#X obj 132 151 nbx 3 12 0 100 0 1 empty empty empty -15 7 0 10 -204786
-1 -1 0 256;
#X obj 487 -129 / 100;
#X text -179 -174 start/sync;
#X obj 430 14 >;
#X obj 444 43 ||;
#X obj 465 14 <;
#X obj 450 -15 -;
#X obj 443 -61 t b f;
#X msg 439 -39 1;
#X obj 387 -50 t f f;
#N canvas 1 159 1849 827 qr3xyz_values 0;
#X obj -89 102 inlet;
#X msg 226 300 set;
#X msg 206 351 clear;
#X obj 219 229 t b b;
#X msg 244 268 0;
#X obj 189 193 spigot;
#X obj -87 233 t b b;
#X msg -43 272 1;
#X msg -13 278 0;
#X obj -83 345 spigot 1;
#X text -86 83 trig;
#X obj 448 45 inlet;
#X msg 508 410 addcomma;
#X obj 460 439 t b a;
#X obj 445 327 timer;
#X obj 434 357 int;
#X obj 668 272 moses 0.1;
#X msg 658 291 0;
#X msg 219 159 0;
#X obj 457 99 t b b f b b;
#X obj 376 683 outlet;
#X obj 449 386 pack f f;
#X msg 489 468 add2 \$1 \$2;
#X obj 937 90 inlet;
#X msg 1025 445 addcomma;
#X obj 971 480 t b a;
#X obj 964 361 timer;
#X obj 945 405 int;
#X obj 1165 325 moses 0.1;
#X msg 1160 353 0;
#X obj 954 436 pack f f;
#X obj 929 686 outlet;
#X obj 961 192 t b b f b;
#X obj 903 544 abs_qlistrec3v;
#X msg 999 510 add2 \$1 \$2;
#X msg 504 523;
#X obj 289 554 abs_qlistrec3v;
#X text 936 71 ctl2;
#X text 453 27 ctl;
#X msg 1018 574;
#X obj 1438 59 inlet;
#X msg 1526 414 addcomma;
#X obj 1472 449 t b a;
#X obj 1464 336 timer;
#X obj 1446 374 int;
#X obj 1669 284 moses 0.1;
#X msg 1664 312 0;
#X obj 1457 403 pack f f;
#X obj 1430 655 outlet;
#X obj 1462 161 t b b f b;
#X obj 1404 513 abs_qlistrec3v;
#X msg 1500 479 add2 \$1 \$2;
#X msg 1519 543;
#X text 1437 40 ctl3;
#X obj 504 494 spigot 0;
#X obj 1019 543 spigot 0;
#X obj 1520 512 spigot 0;
#X obj 62 5 inlet;
#X text 60 -18 tempo;
#X obj 158 11 inlet;
#X text 160 -6 arm;
#X obj -60 593 outlet;
#X text -58 613 arm status;
#X obj 37 592 outlet;
#X text 36 613 recording;
#X obj 227 14 inlet;
#X connect 0 0 6 0;
#X connect 1 0 35 0;
#X connect 1 0 39 0;
#X connect 1 0 52 0;
#X connect 2 0 33 0;
#X connect 2 0 36 0;
#X connect 2 0 50 0;
#X connect 3 0 4 0;
#X connect 3 0 2 0;
#X connect 3 0 1 0;
#X connect 3 1 14 0;
#X connect 3 1 26 0;
#X connect 3 1 43 0;
#X connect 4 0 15 1;
#X connect 4 0 27 1;
#X connect 4 0 44 1;
#X connect 5 0 3 0;
#X connect 5 0 7 0;
#X connect 6 0 8 0;
#X connect 6 0 33 0;
#X connect 6 0 36 0;
#X connect 6 0 50 0;
#X connect 6 1 9 0;
#X connect 7 0 9 1;
#X connect 7 0 63 0;
#X connect 8 0 9 1;
#X connect 8 0 61 0;
#X connect 9 0 35 0;
#X connect 9 0 39 0;
#X connect 9 0 52 0;
#X connect 11 0 19 0;
#X connect 12 0 54 0;
#X connect 13 0 12 0;
#X connect 13 1 22 0;
#X connect 14 0 15 1;
#X connect 15 0 21 0;
#X connect 16 0 17 0;
#X connect 16 1 54 1;
#X connect 17 0 54 1;
#X connect 18 0 5 1;
#X connect 19 0 15 0;
#X connect 19 0 18 0;
#X connect 19 1 14 0;
#X connect 19 2 21 1;
#X connect 19 3 14 1;
#X connect 19 4 5 0;
#X connect 21 0 13 0;
#X connect 22 0 54 0;
#X connect 23 0 32 0;
#X connect 24 0 55 0;
#X connect 25 0 24 0;
#X connect 25 1 34 0;
#X connect 26 0 27 1;
#X connect 27 0 30 0;
#X connect 28 0 29 0;
#X connect 28 1 55 1;
#X connect 29 0 55 1;
#X connect 30 0 25 0;
#X connect 32 0 27 0;
#X connect 32 1 26 0;
#X connect 32 2 30 1;
#X connect 32 3 26 1;
#X connect 33 0 31 0;
#X connect 34 0 55 0;
#X connect 35 0 36 1;
#X connect 36 0 20 0;
#X connect 39 0 33 1;
#X connect 40 0 49 0;
#X connect 41 0 56 0;
#X connect 42 0 41 0;
#X connect 42 1 51 0;
#X connect 43 0 44 1;
#X connect 44 0 47 0;
#X connect 45 0 46 0;
#X connect 45 1 56 1;
#X connect 46 0 56 1;
#X connect 47 0 42 0;
#X connect 49 0 44 0;
#X connect 49 1 43 0;
#X connect 49 2 47 1;
#X connect 49 3 43 1;
#X connect 50 0 48 0;
#X connect 51 0 56 0;
#X connect 52 0 50 1;
#X connect 54 0 35 0;
#X connect 55 0 39 0;
#X connect 56 0 52 0;
#X connect 57 0 36 0;
#X connect 57 0 33 0;
#X connect 57 0 50 0;
#X connect 59 0 5 1;
#X connect 59 0 16 0;
#X connect 59 0 28 0;
#X connect 59 0 45 0;
#X connect 65 0 2 0;
#X connect 65 0 1 0;
#X coords 0 827 1 826 60 30 0;
#X restore -67 253 pd qr3xyz_values;
#X obj -162 -113 t b;
#X obj -119 17 spigot 1;
#X obj -46 322 spigot 1;
#X obj 14 322 spigot 1;
#X obj 75 325 spigot 1;
#X obj -90 -159 inlet;
#X text -84 -175 rec/stop/sync;
#X obj 169 151 nbx 4 12 0 9999 0 0 empty empty empty -15 7 0 10 -262144
-1 -1 0 256;
#X obj 193 103 cnv 11 45 11 empty empty empty 20 12 0 14 -262144 -66577
0;
#X symbolatom 196 101 8 0 0 0 - - -, f 8;
#X obj 84 51 t a;
#X obj 588 399 mod;
#X msg 584 447 set \$1;
#X obj 34 32 / 1000;
#X obj 102 151 nbx 2 12 0 16 0 1 empty empty empty 0 -8 0 10 -204786
-1 -1 0 256;
#X obj 184 104 bng 10 250 50 0 empty empty - 3 4 0 10 -262144 -1 -1
;
#X obj 347 190 int;
#X obj 190 54 * 1000;
#X msg 249 192 0;
#X obj 121 139 hsl 50 8 0 1 0 1 empty empty a 2 4 0 10 -262144 -66577
-128992 700 1;
#X obj 178 139 hsl 50 8 0 1 0 1 empty empty d 2 4 0 10 -262144 -66577
-128992 2100 1;
#X obj 277 360 t f f;
#X obj 283 388 *;
#X obj 324 418 * 2000;
#X obj 319 369 t f f;
#X obj 325 397 *;
#X obj 300 509 f;
#X obj 326 510 f;
#X obj 223 457 t f f;
#X obj 250 482 select 1 0;
#X obj 26 643 abs_multixyfx2;
#X obj 388 65 + 1;
#X obj 362 63 int;
#X obj 248 104 bng 10 250 50 0 empty empty + 3 4 0 10 -262144 -1 -1
;
#X obj 265 94 f;
#X obj 360 144 t b;
#X obj 266 118 change;
#X obj 390 195 int;
#X obj 359 209 - 1;
#X obj 402 214 + 1;
#X connect 0 0 5 0;
#X connect 2 0 4 0;
#X connect 4 0 3 0;
#X connect 4 1 92 0;
#X connect 5 0 1 0;
#X connect 5 1 92 1;
#X connect 6 0 8 0;
#X connect 7 0 9 0;
#X connect 8 0 23 0;
#X connect 8 0 61 4;
#X connect 9 0 24 0;
#X connect 9 0 61 5;
#X connect 10 0 17 0;
#X connect 10 0 20 0;
#X connect 11 0 90 0;
#X connect 12 0 88 1;
#X connect 13 0 16 0;
#X connect 14 0 73 0;
#X connect 14 0 78 1;
#X connect 14 0 99 1;
#X connect 15 0 11 0;
#X connect 15 0 61 6;
#X connect 16 0 18 0;
#X connect 17 0 18 1;
#X connect 18 0 19 0;
#X connect 19 0 5 1;
#X connect 19 0 4 1;
#X connect 20 0 19 0;
#X connect 20 1 19 1;
#X connect 23 0 92 2;
#X connect 24 0 92 3;
#X connect 26 0 36 1;
#X connect 26 0 48 0;
#X connect 26 0 61 2;
#X connect 27 0 38 0;
#X connect 27 0 33 0;
#X connect 29 0 41 0;
#X connect 30 0 31 0;
#X connect 31 0 34 0;
#X connect 31 0 75 0;
#X connect 32 0 29 0;
#X connect 33 0 37 0;
#X connect 33 0 42 0;
#X connect 34 1 33 1;
#X connect 35 0 61 1;
#X connect 36 0 29 1;
#X connect 37 0 35 0;
#X connect 37 0 61 0;
#X connect 38 0 37 0;
#X connect 38 0 31 0;
#X connect 38 1 36 0;
#X connect 39 0 33 0;
#X connect 40 0 45 0;
#X connect 41 0 31 0;
#X connect 41 1 30 0;
#X connect 41 1 44 0;
#X connect 42 0 43 0;
#X connect 42 1 40 0;
#X connect 43 0 45 0;
#X connect 44 0 43 0;
#X connect 45 0 60 0;
#X connect 45 0 96 1;
#X connect 46 0 62 0;
#X connect 47 0 39 0;
#X connect 47 0 61 3;
#X connect 47 0 80 0;
#X connect 48 1 49 0;
#X connect 49 0 33 0;
#X connect 50 0 64 1;
#X connect 50 0 65 1;
#X connect 50 0 66 1;
#X connect 51 0 52 0;
#X connect 52 0 56 1;
#X connect 52 0 58 0;
#X connect 54 0 55 0;
#X connect 55 0 63 1;
#X connect 56 0 55 1;
#X connect 57 0 54 1;
#X connect 58 0 59 0;
#X connect 58 1 57 1;
#X connect 59 0 57 0;
#X connect 60 0 54 0;
#X connect 60 1 56 0;
#X connect 61 0 26 0;
#X connect 61 1 32 0;
#X connect 61 2 64 0;
#X connect 61 2 97 0;
#X connect 61 3 65 0;
#X connect 61 3 97 0;
#X connect 61 4 66 0;
#X connect 61 4 97 0;
#X connect 62 0 63 0;
#X connect 63 0 27 0;
#X connect 64 0 23 0;
#X connect 65 0 24 0;
#X connect 66 0 11 0;
#X connect 67 0 27 0;
#X connect 69 0 79 0;
#X connect 72 0 71 0;
#X connect 73 0 74 0;
#X connect 73 0 92 4;
#X connect 74 0 14 0;
#X connect 75 0 69 0;
#X connect 77 0 78 0;
#X connect 78 0 100 0;
#X connect 79 0 44 0;
#X connect 79 0 30 0;
#X connect 80 0 26 0;
#X connect 81 0 83 0;
#X connect 82 0 86 0;
#X connect 83 0 84 0;
#X connect 83 1 84 1;
#X connect 84 0 12 0;
#X connect 85 0 89 1;
#X connect 86 0 87 0;
#X connect 86 1 87 1;
#X connect 87 0 85 0;
#X connect 88 0 13 1;
#X connect 89 0 13 1;
#X connect 90 0 13 0;
#X connect 90 1 91 0;
#X connect 91 0 88 0;
#X connect 91 1 89 0;
#X connect 92 0 3 0;
#X connect 92 1 1 0;
#X connect 92 2 72 0;
#X connect 92 3 73 1;
#X connect 94 0 93 0;
#X connect 95 0 99 0;
#X connect 96 0 98 0;
#X connect 97 0 96 0;
#X connect 98 0 28 0;
#X connect 99 0 101 0;
#X connect 100 0 14 0;
#X connect 101 0 14 0;
#X coords 0 -1 1 1 160 75 1 100 100;
#X restore 122 405 pd xyfx2;
#X connect 3 0 18 4;
#X connect 4 0 18 5;
#X connect 5 0 18 6;
#X connect 7 0 9 0;
#X connect 8 0 14 0;
#X connect 9 0 8 0;
#X connect 10 0 8 0;
#X connect 11 0 8 0;
#X connect 12 0 8 0;
#X connect 13 0 17 0;
#X connect 14 0 15 0;
#X connect 14 1 13 0;
#X connect 15 0 17 0;
#X connect 16 0 8 0;
#X connect 17 0 18 0;
#X connect 17 1 18 1;
#X connect 18 0 0 0;
#X connect 18 1 0 1;
