#N canvas 79 225 844 587 10;
#N canvas 123 105 1068 804 xyzlooprecorder 0;
#X text 9 144 metro sync;
#X obj 178 118 tgl 15 0 empty empty empty 17 7 0 10 -258113 -1 -1 0
1;
#X obj 159 118 bng 15 250 50 0 empty empty empty 17 7 0 10 -204786
-1 -1;
#X obj 109 137 hsl 180 8 0 1 0 0 empty empty empty -2 -8 0 10 -262144
-1 -1 17900 0;
#X obj -28 -52 timer;
#X msg -10 15 set \$1;
#X msg -24 40 10000;
#X obj -62 -28 t b;
#X obj 117 -19 metro 123;
#X obj 119 -47 moses 100;
#X msg -131 190 tempo 1;
#X obj 10 -78 spigot;
#X obj 9 124 t b;
#X obj -36 65 t b b;
#X msg 243 15 stop;
#X msg 356 150 0;
#X obj -17 -26 t b f;
#X obj 346 73 t b b;
#X msg 340 131 1 10000;
#X msg 355 108 set 1 \$1;
#X obj 342 173 line 0 100;
#X obj -186 -94 inlet;
#X floatatom 217 119 9 0 0 0 - - -, f 9;
#X obj 197 118 bng 15 250 50 0 empty empty X 5 8 0 10 -260097 -1 -1
;
#X msg 252 -17 stop;
#X obj 275 118 tgl 15 0 empty empty empty 17 7 0 10 -262144 -1 -1 0
1;
#X obj -82 381 spigot 1;
#X obj -20 384 == 0;
#X obj 119 119 nbx 3 14 0 100 0 1 empty empty st -15 7 0 10 -204786
-1 -1 2 256;
#X obj 562 -25 / 100;
#X text -184 -116 start/sync;
#X obj 505 118 >;
#X obj 519 147 ||;
#X obj 540 118 <;
#X obj 525 89 -;
#X obj 518 43 t b f;
#X msg 514 65 1;
#X obj 462 54 t f f;
#N canvas 1 163 1849 827 qr3xyz_values 0;
#X obj -89 102 inlet;
#X msg 226 300 set;
#X msg 206 351 clear;
#X obj 219 229 t b b;
#X msg 244 268 0;
#X obj 189 193 spigot;
#X obj -87 233 t b b;
#X msg -43 272 1;
#X msg -13 278 0;
#X obj -83 345 spigot 1;
#X text -86 83 trig;
#X obj 448 45 inlet;
#X msg 508 410 addcomma;
#X obj 460 439 t b a;
#X obj 445 327 timer;
#X obj 434 357 int;
#X obj 668 272 moses 0.1;
#X msg 658 291 0;
#X msg 219 159 0;
#X obj 457 99 t b b f b b;
#X obj 376 683 outlet;
#X obj 449 386 pack f f;
#X msg 489 468 add2 \$1 \$2;
#X obj 937 90 inlet;
#X msg 1025 445 addcomma;
#X obj 971 480 t b a;
#X obj 964 361 timer;
#X obj 945 405 int;
#X obj 1165 325 moses 0.1;
#X msg 1160 353 0;
#X obj 954 436 pack f f;
#X obj 929 686 outlet;
#X obj 961 192 t b b f b;
#X obj 903 544 abs_qlistrec3v;
#X msg 999 510 add2 \$1 \$2;
#X msg 504 523;
#X obj 289 554 abs_qlistrec3v;
#X text 936 71 ctl2;
#X text 453 27 ctl;
#X msg 1018 574;
#X obj 1438 59 inlet;
#X msg 1526 414 addcomma;
#X obj 1472 449 t b a;
#X obj 1464 336 timer;
#X obj 1446 374 int;
#X obj 1669 284 moses 0.1;
#X msg 1664 312 0;
#X obj 1457 403 pack f f;
#X obj 1430 655 outlet;
#X obj 1462 161 t b b f b;
#X obj 1404 513 abs_qlistrec3v;
#X msg 1500 479 add2 \$1 \$2;
#X msg 1519 543;
#X text 1437 40 ctl3;
#X obj 504 494 spigot 0;
#X obj 1019 543 spigot 0;
#X obj 1520 512 spigot 0;
#X obj 62 5 inlet;
#X text 60 -18 tempo;
#X obj 158 11 inlet;
#X text 160 -6 arm;
#X obj -60 593 outlet;
#X text -58 613 arm status;
#X obj 37 592 outlet;
#X text 36 613 recording;
#X obj 227 14 inlet;
#X connect 0 0 6 0;
#X connect 1 0 35 0;
#X connect 1 0 39 0;
#X connect 1 0 52 0;
#X connect 2 0 33 0;
#X connect 2 0 36 0;
#X connect 2 0 50 0;
#X connect 3 0 4 0;
#X connect 3 0 2 0;
#X connect 3 0 1 0;
#X connect 3 1 14 0;
#X connect 3 1 26 0;
#X connect 3 1 43 0;
#X connect 4 0 15 1;
#X connect 4 0 27 1;
#X connect 4 0 44 1;
#X connect 5 0 3 0;
#X connect 5 0 7 0;
#X connect 6 0 8 0;
#X connect 6 0 33 0;
#X connect 6 0 36 0;
#X connect 6 0 50 0;
#X connect 6 1 9 0;
#X connect 7 0 9 1;
#X connect 7 0 63 0;
#X connect 8 0 9 1;
#X connect 8 0 61 0;
#X connect 9 0 35 0;
#X connect 9 0 39 0;
#X connect 9 0 52 0;
#X connect 11 0 19 0;
#X connect 12 0 54 0;
#X connect 13 0 12 0;
#X connect 13 1 22 0;
#X connect 14 0 15 1;
#X connect 15 0 21 0;
#X connect 16 0 17 0;
#X connect 16 1 54 1;
#X connect 17 0 54 1;
#X connect 18 0 5 1;
#X connect 19 0 15 0;
#X connect 19 0 18 0;
#X connect 19 1 14 0;
#X connect 19 2 21 1;
#X connect 19 3 14 1;
#X connect 19 4 5 0;
#X connect 21 0 13 0;
#X connect 22 0 54 0;
#X connect 23 0 32 0;
#X connect 24 0 55 0;
#X connect 25 0 24 0;
#X connect 25 1 34 0;
#X connect 26 0 27 1;
#X connect 27 0 30 0;
#X connect 28 0 29 0;
#X connect 28 1 55 1;
#X connect 29 0 55 1;
#X connect 30 0 25 0;
#X connect 32 0 27 0;
#X connect 32 1 26 0;
#X connect 32 2 30 1;
#X connect 32 3 26 1;
#X connect 33 0 31 0;
#X connect 34 0 55 0;
#X connect 35 0 36 1;
#X connect 36 0 20 0;
#X connect 39 0 33 1;
#X connect 40 0 49 0;
#X connect 41 0 56 0;
#X connect 42 0 41 0;
#X connect 42 1 51 0;
#X connect 43 0 44 1;
#X connect 44 0 47 0;
#X connect 45 0 46 0;
#X connect 45 1 56 1;
#X connect 46 0 56 1;
#X connect 47 0 42 0;
#X connect 49 0 44 0;
#X connect 49 1 43 0;
#X connect 49 2 47 1;
#X connect 49 3 43 1;
#X connect 50 0 48 0;
#X connect 51 0 56 0;
#X connect 52 0 50 1;
#X connect 54 0 35 0;
#X connect 55 0 39 0;
#X connect 56 0 52 0;
#X connect 57 0 36 0;
#X connect 57 0 33 0;
#X connect 57 0 50 0;
#X connect 59 0 5 1;
#X connect 59 0 16 0;
#X connect 59 0 28 0;
#X connect 59 0 45 0;
#X connect 65 0 2 0;
#X connect 65 0 1 0;
#X coords 0 827 1 826 60 30 0;
#X restore -51 305 pd qr3xyz_values;
#X obj -21 499 outlet;
#X obj 164 249 inlet;
#X obj 227 251 inlet;
#X obj 291 257 inlet;
#X text -186 -139 absolute-time based looprecorder for xyz ctl values
;
#X obj 35 387 spigot 1;
#X obj 97 390 == 0;
#X obj 96 505 outlet;
#X obj 197 392 spigot 1;
#X obj 259 395 == 0;
#X obj 258 510 outlet;
#X text 223 223 xyz values;
#X obj -162 -25 t b;
#X obj -163 59 spigot 1;
#X obj 257 -59 select 1;
#X obj 259 84 * 1000;
#X obj 93 69 / 1000;
#X connect 1 0 11 1;
#X connect 1 0 38 2;
#X connect 1 0 53 0;
#X connect 2 0 13 0;
#X connect 2 0 8 0;
#X connect 4 0 16 0;
#X connect 5 0 6 0;
#X connect 6 0 9 0;
#X connect 6 0 55 0;
#X connect 7 0 4 0;
#X connect 8 0 12 0;
#X connect 8 0 17 0;
#X connect 9 1 8 1;
#X connect 10 0 38 1;
#X connect 11 0 4 1;
#X connect 12 0 10 0;
#X connect 12 0 38 0;
#X connect 13 0 12 0;
#X connect 13 0 6 0;
#X connect 13 1 11 0;
#X connect 14 0 8 0;
#X connect 15 0 20 0;
#X connect 16 0 6 0;
#X connect 16 1 5 0;
#X connect 16 1 19 0;
#X connect 17 0 18 0;
#X connect 17 1 15 0;
#X connect 18 0 20 0;
#X connect 19 0 18 0;
#X connect 20 0 3 0;
#X connect 20 0 37 0;
#X connect 21 0 51 0;
#X connect 22 0 54 0;
#X connect 23 0 14 0;
#X connect 23 0 38 3;
#X connect 24 0 8 0;
#X connect 25 0 27 0;
#X connect 25 0 45 0;
#X connect 25 0 48 0;
#X connect 26 0 39 0;
#X connect 27 0 26 1;
#X connect 28 0 29 0;
#X connect 29 0 33 1;
#X connect 29 0 35 0;
#X connect 31 0 32 0;
#X connect 32 0 52 1;
#X connect 33 0 32 1;
#X connect 34 0 31 1;
#X connect 35 0 36 0;
#X connect 35 1 34 1;
#X connect 36 0 34 0;
#X connect 37 0 31 0;
#X connect 37 1 33 0;
#X connect 38 0 1 0;
#X connect 38 1 7 0;
#X connect 38 2 26 0;
#X connect 38 3 44 0;
#X connect 38 4 47 0;
#X connect 40 0 38 4;
#X connect 40 0 39 0;
#X connect 41 0 38 5;
#X connect 41 0 46 0;
#X connect 42 0 38 6;
#X connect 42 0 47 0;
#X connect 42 0 49 0;
#X connect 44 0 46 0;
#X connect 45 0 44 1;
#X connect 47 0 49 0;
#X connect 48 0 47 1;
#X connect 51 0 52 0;
#X connect 52 0 2 0;
#X connect 53 0 24 0;
#X connect 54 0 5 0;
#X connect 54 0 19 0;
#X connect 55 0 22 0;
#X coords 0 -1 1 1 200 50 1 100 100;
#X restore -57 147 pd xyzlooprecorder;
#X obj -19 42 ctlin 81;
#X obj 58 46 ctlin 82;
#X text -21 26 nanopad-x;
#X text 61 28 nanopad-y;
#X obj 144 46 ctlin 83;
#X text 142 30 nanopad-on;
#X floatatom -82 222 5 0 0 0 - - -, f 5;
#X floatatom 16 219 5 0 0 0 - - -, f 5;
#X floatatom 116 222 5 0 0 0 - - -, f 5;
#X obj -82 26 bng 15 250 50 0 empty empty empty 17 7 0 10 -262144 -1
-1;
#X connect 0 0 7 0;
#X connect 0 1 8 0;
#X connect 0 2 9 0;
#X connect 1 0 0 1;
#X connect 2 0 0 2;
#X connect 5 0 0 3;
#X connect 10 0 0 0;
