#N canvas 0 3 1423 791 10;
#X obj 6 -52 cnv 15 1200 60 empty empty Beispiele-III 140 30 0 56 -99865
-260097 0;
#X obj 6 9 cnv 15 3200 4000 empty empty empty 20 32 0 28 -228856 -1
0;
#X obj 274 359 midiinput;
#X obj 193 472 osci 3;
#X obj 574 477 osci 4;
#X obj 192 661 volume 2;
#X obj 575 662 volume 3;
#X obj 306 789 plopp 2;
#X obj 305 1213 graindelay 1;
#X obj 306 1403 room 1;
#X obj 285 1625 output 2;
#X obj 653 985 tapedelay 1;
#X obj 706 1249 verb 2;
#X obj 752 1709 phaser 3;
#X obj 728 2010 output 2;
#X obj 306 1021 chorus 3;
#X obj 750 1912 limits;
#X text 386 1613 Anschließen zum Ausprobieren!;
#X text 825 2012 Anschließen zum Ausprobieren!;
#X obj 1432 241 sequenzer 2;
#X obj 1433 572 grin 2;
#X obj 1434 890 graindelay 2;
#X obj 1434 1084 grainy 3;
#X obj 1407 1297 output 2;
#X text 1504 1299 Anschließen zum Ausprobieren!;
#X obj 1323 424 input 8;
#X text 1446 99 Dieses Beispiel zeigt ein Instrument \, das aus allen
granularen Modulen (google dazu 'granulare Klangsynthese') zusammengesetzt
ist. Das Instrument wird von einem Sequenzer gesteuert. Zuallererst
muss in [grin] ein Klang aufgenommen werden. Dann sollte aus diesem
mit dem Positions- und Längeregler ein Grain ausgeschnitten werden.
Dann kann der Sequenzer aktiviert werden \, sodass dieser über Grin
eine Melodie erzeugt. Mit den angeschlossenen Modulen können diesem
Klang weitere Effekte hinzugefügt werden.;
#X obj 2259 336 noise;
#X obj 2260 516 plopp 7;
#X obj 2261 825 graindelay 2;
#X obj 2261 1054 flanger 8;
#X obj 2452 360 steps 6;
#X obj 2241 1296 output 2;
#X text 2336 1279 Anschließen zum Ausprobieren!;
#X obj 2839 243 presets;
#X text 176 40 ALLE BEISPIELE MÜSSEN VOR DEM AUSPROBIEREN AN EINEN
OUTPUT ANGESCHLOSSEN WERDEN! BITTE DAFÜR NACH UNTEN SCROLLEN.;
#X obj 817 361 presets;
#X text 2480 178 BEISPIEL 3;
#X text 2365 210 Hier wird aus mit einem Rauschgenerator und einem
[plopp] Modul ein Soundeffekt gestaltet. Der [steps] Seuqenzer aktiviert
die Hüllkurve des Filters und lässt ihn so öffnen. Zusätzlich wird
der Klang durch [graindelay] und [flanger] interessanter gemacht.;
#X text 553 307 BEISPIEL 1;
#X obj 730 1431 speed 2;
#X text 419 335 Ein vielseitigerer Synthesizer mit zwei Oscillatoren
\, Filter mit Hüllkurve \, Graindelay und Halleffekt. Das Signal wird
mitten in der Kette angezapft und dann durch ein experimentelle Effektkette
geschleust \, um den Sound weiter zu bereichern.;
#X text 1577 60 BEISPIEL 2;
#X obj 1896 125 presets;
#X obj 2629 751 grainy;
#X obj 2695 1774 output;
#X obj 2629 938 verb 88;
#X obj 2626 1113 drops 3;
#X obj 2578 1291 delayer 76;
#X obj 2780 1294 delayer 87;
#X obj 2581 1493 filter 55;
#X obj 2773 1502 filter 77;
#X text 2366 278 Außerdem wir das Signal kurz vor dem Output nochmal
angezapft und weiterverarbeitet \, bis es aus einem zweiten Ausgang
zu hören ist.;
#X text 2757 1744 Anschließen zum Ausprobieren!;
#X text 177 89 Im Ordner 'Beispiel III' finden sich für jedes Beispiel
Presetdateien \, die geladen werden können. Diese zeigen typische
Einstellungen für die Beispiele. Außerdem können dort auch Beispielaudiosamples
für die Sampler und Sequenbzbänke für die Sequenzer geladen werden.
;
#X obj 1287 55 levlink;
#X connect 2 0 3 0;
#X connect 2 0 4 0;
#X connect 2 0 7 1;
#X connect 3 0 5 0;
#X connect 4 0 6 0;
#X connect 5 0 7 0;
#X connect 6 0 7 0;
#X connect 7 0 15 0;
#X connect 8 0 9 0;
#X connect 8 0 11 0;
#X connect 11 0 12 0;
#X connect 12 0 40 0;
#X connect 13 0 16 0;
#X connect 15 0 8 0;
#X connect 19 0 20 0;
#X connect 20 0 21 0;
#X connect 21 0 22 0;
#X connect 25 0 20 1;
#X connect 27 0 28 0;
#X connect 28 0 29 0;
#X connect 29 0 30 0;
#X connect 30 0 44 0;
#X connect 31 0 28 1;
#X connect 40 0 13 0;
#X connect 44 0 46 0;
#X connect 46 0 47 0;
#X connect 47 0 48 0;
#X connect 47 0 49 0;
#X connect 48 0 50 0;
#X connect 49 0 51 0;
#X connect 55 0 19 0;
