#N canvas 0 0 1423 798 10;
#X obj 102 102 cnv 15 360 220 empty empty add 10 200 0 30 -33289 -262144
0;
#X obj 346 244 vsl 15 50 0 127 0 0 \$0sus \$0sus_r Sustain -12 -9 0
10 -162280 -260097 -262144 2450 1;
#X obj 277 260 hsl 50 15 0 127 0 0 \$0att \$0att_r Attack 5 -8 0 10
-162280 -260097 -262144 49 1;
#X obj 278 277 nbx 4 14 -1e+037 1e+037 0 0 empty \$0attshow empty 0
-8 0 11 -99865 -260097 -260097 5.032 256 0;
#X obj 383 261 hsl 50 15 0 127 0 0 \$0rel \$0rel_r Release/Decay -10
-8 0 10 -162280 -260097 -262144 49 1;
#X obj 384 278 nbx 4 14 -1e+037 1e+037 0 0 empty \$0relshow empty 0
-8 0 11 -99865 -260097 -260097 5.032 256 0;
#X obj 332 300 nbx 4 14 -1e+037 1e+037 0 0 empty \$0susshow empty 0
-8 0 11 -99865 -260097 -260097 0.5 256 0;
#X obj -226 65 inlet;
#X obj -220 419 outlet~;
#X obj 754 -116 loadbang;
#X obj 762 64 s \$0Freq_r;
#X obj 866 4 s \$0att_r;
#X obj 953 12 s \$0rel_r;
#X msg 1037 -13 63.5;
#X obj 1035 7 s \$0sus_r;
#X msg 854 -22 1.258;
#X obj -226 149 pack 0 0 0;
#X obj -224 186 route 1 2 3 4;
#X obj -226 119 poly 4 1;
#X obj -141 -92 r \$0on;
#X obj 14 -49 s \$0freqshow;
#X obj -142 -66 * 127;
#X obj -154 32 pack f f;
#X obj -140 -32 t b f;
#X obj -151 -5 f;
#X obj -43 20 sel 0;
#X msg -80 93 stop;
#X obj 180 -14 route stop;
#X obj 175 21 bng 15 250 50 0 empty empty empty 17 7 0 10 -262144 -1
-1;
#X obj 1551 -199 r toolssavebank;
#X obj 1761 -282 r toolssavebang;
#X obj 2000 357 s toolssavelists;
#X obj 1790 -178 f;
#X obj 1443 -80 route;
#X obj 1911 -337 loadbang;
#X obj 1912 -281 \$1;
#X obj 1911 -309 del 5;
#X obj 1790 -219 del;
#X obj 362 -64 inlet;
#X obj 678 156 inlet;
#X obj 685 166 inlet;
#X obj 698 176 inlet;
#X obj 324 -72 inlet;
#X obj 109 236 hsl 40 15 0 127 0 0 \$0det \$0det_r detune 5 -8 0 10
-162280 -260097 -262144 1950 1;
#X obj 109 253 nbx 4 14 -1e+037 1e+037 0 0 empty \$0detshow empty 0
-8 0 11 -99865 -260097 -260097 0 256 0;
#X obj 799 201 s \$0det_r;
#X msg 806 144 63.5;
#X obj 159 256 bng 10 250 50 0 \$0nodet \$0nodet_r empty 17 7 0 10
-262144 -1 -1;
#X obj 6 220 r \$0nodet;
#X msg 7 246 63.5;
#X obj 7 281 s \$0det_r;
#X obj 723 198 inlet;
#X obj -24 -195 r \$0Freq;
#X obj -30 -95 mtof;
#X obj -24 -127 + 21;
#X obj -25 -164 / 1.155;
#X obj -55 -63 int;
#X msg 749 -4 55.4462;
#N canvas 0 0 1440 818 guts 0;
#X obj -72 486 osc~;
#X obj 143 487 osc~;
#X obj 143 547 *~;
#X obj 256 487 osc~;
#X obj 255 547 *~;
#X obj 370 487 osc~;
#X obj 369 547 *~;
#X obj 592 487 osc~;
#X obj 593 547 *~;
#X obj 483 487 osc~;
#X obj 483 547 *~;
#N canvas 691 227 411 228 addmidivol 0;
#X text 142 93 Lautstärkeregelung des 4 Obertons.;
#X floatatom 28 42 5 0 0 0 - - -, f 5;
#X obj 28 65 / 127;
#X msg 28 88 \$1 100;
#X obj 28 112 line~;
#X obj 28 191 outlet~;
#X obj 28 13 r \$0Add_OT4volctl;
#X obj 28 139 *~ 1;
#X connect 1 0 2 0;
#X connect 2 0 3 0;
#X connect 3 0 4 0;
#X connect 4 0 7 0;
#X connect 6 0 1 0;
#X connect 7 0 5 0;
#X restore 498 516 pd addmidivol;
#N canvas 688 232 450 300 addmidivol 0;
#X floatatom 41 66 5 0 0 0 - - -, f 5;
#X obj 41 89 / 127;
#X msg 41 112 \$1 100;
#X obj 41 136 line~;
#X obj 41 215 outlet~;
#X obj 41 37 r \$0Add_OT5volctl;
#X obj 40 166 *~ 1;
#X connect 0 0 1 0;
#X connect 1 0 2 0;
#X connect 2 0 3 0;
#X connect 3 0 6 0;
#X connect 5 0 0 0;
#X connect 6 0 4 0;
#X restore 608 516 pd addmidivol;
#N canvas 691 227 450 220 addmidivol 0;
#X text 146 92 Lautstärkeregelung des 3 Obertons.;
#X floatatom 26 39 5 0 0 0 - - -, f 5;
#X obj 26 62 / 127;
#X msg 26 85 \$1 100;
#X obj 26 109 line~;
#X obj 26 188 outlet~;
#X obj 26 10 r \$0Add_OT3volctl;
#X obj 26 136 *~ 1;
#X connect 1 0 2 0;
#X connect 2 0 3 0;
#X connect 3 0 4 0;
#X connect 4 0 7 0;
#X connect 6 0 1 0;
#X connect 7 0 5 0;
#X restore 384 516 pd addmidivol;
#N canvas 688 232 450 242 addmidivol 0;
#X floatatom 26 52 5 0 0 0 - - -, f 5;
#X obj 26 75 / 127;
#X msg 26 98 \$1 100;
#X obj 26 122 line~;
#X obj 26 201 outlet~;
#X obj 26 23 r \$0Add_OT2volctl;
#X obj 26 149 *~ 1;
#X connect 0 0 1 0;
#X connect 1 0 2 0;
#X connect 2 0 3 0;
#X connect 3 0 6 0;
#X connect 5 0 0 0;
#X connect 6 0 4 0;
#X restore 270 516 pd addmidivol;
#N canvas 679 247 450 232 addmidivol 0;
#X floatatom 27 53 5 0 0 0 - - -, f 5;
#X obj 27 76 / 127;
#X msg 27 99 \$1 100;
#X obj 27 123 line~;
#X obj 27 202 outlet~;
#X obj 27 24 r \$0Add_OT1volctl;
#X obj 27 150 *~ 1;
#X connect 0 0 1 0;
#X connect 1 0 2 0;
#X connect 2 0 3 0;
#X connect 3 0 6 0;
#X connect 5 0 0 0;
#X connect 6 0 4 0;
#X restore 158 516 pd addmidivol;
#X obj 419 821 outlet~;
#X text -200 542 Lautstärkekontrollen;
#X text 478 821 Ausgabe;
#X obj 143 402 *~;
#X obj 256 402 *~;
#X obj 370 402 *~;
#X obj 483 403 *~;
#X obj 592 402 *~;
#N canvas 679 247 450 232 addmidivol 0;
#X floatatom 27 53 5 0 0 0 - - -, f 5;
#X obj 27 76 / 127;
#X msg 27 99 \$1 100;
#X text 152 104 Lautstärkeregelung des 1 Obertons.;
#X obj 27 123 line~;
#X obj 27 202 outlet~;
#X obj 27 24 r \$0Add_OT0volctl;
#X obj 27 150 *~ 1;
#X connect 0 0 1 0;
#X connect 1 0 2 0;
#X connect 2 0 4 0;
#X connect 4 0 7 0;
#X connect 6 0 0 0;
#X connect 7 0 5 0;
#X restore -55 516 pd addmidivol;
#X obj -71 542 *~;
#X obj 2 647 +~;
#X obj 321 218 r \$0Add_freq1;
#X obj 331 227 r \$0Add_freq2;
#X obj 345 240 r \$0Add_freq3;
#X obj 356 250 r \$0Add_freq4;
#X obj 366 260 r \$0Add_freq5;
#X obj 747 410 r \$0att;
#X obj 881 411 r \$0rel;
#X obj 811 229 r \$0sus;
#X obj 811 262 / 127;
#X obj 811 679 vline~;
#X obj 1047 241 moses 1;
#X floatatom 1048 273 5 0 0 0 - - -, f 5;
#X floatatom 1101 298 5 0 0 0 - - -, f 5;
#X obj 855 579 pack f f;
#X obj 1100 274 / 127;
#X obj 743 527 pack f f f f;
#X msg 725 573 \$1 \$2 \, \$3 \$4 \$2;
#X obj 881 444 * 4;
#X obj 747 443 * 4;
#X obj 745 479 s \$0attshow;
#X obj 723 309 s \$0susshow;
#X obj 914 478 s \$0relshow;
#X obj 828 343 *;
#X obj 844 284 t b f;
#X obj 814 314 f;
#X obj 709 497 f;
#X obj 796 437 t b f;
#X obj 1080 329 t f f;
#X obj 417 773 *~;
#X obj 156 49 r \$0det;
#X floatatom 158 114 10 0 0 0 - - -, f 10;
#X obj 157 69 / 1098.71;
#X obj 158 92 + 0.942207;
#X obj 75 51 / 63.5;
#X obj 73 77 - 1;
#X obj 66 105 s \$0detshow;
#X obj -71 147 sig~;
#X obj -71 76 inlet;
#X obj -71 113 unpack 0 0;
#X obj -71 180 *~;
#X obj -158 105 r \$0freqshow;
#X obj 453 779 r \$0relvol;
#X obj 417 797 /~;
#X connect 0 0 25 0;
#X connect 1 0 2 0;
#X connect 2 0 26 1;
#X connect 3 0 4 0;
#X connect 4 0 26 1;
#X connect 5 0 6 0;
#X connect 6 0 26 1;
#X connect 7 0 8 0;
#X connect 8 0 26 1;
#X connect 9 0 10 0;
#X connect 10 0 26 1;
#X connect 11 0 10 1;
#X connect 12 0 8 1;
#X connect 13 0 6 1;
#X connect 14 0 4 1;
#X connect 15 0 2 1;
#X connect 19 0 1 0;
#X connect 20 0 3 0;
#X connect 21 0 5 0;
#X connect 22 0 9 0;
#X connect 23 0 7 0;
#X connect 24 0 25 1;
#X connect 25 0 26 0;
#X connect 26 0 55 0;
#X connect 27 0 19 1;
#X connect 28 0 20 1;
#X connect 29 0 21 1;
#X connect 30 0 22 1;
#X connect 31 0 23 1;
#X connect 32 0 45 0;
#X connect 33 0 44 0;
#X connect 34 0 35 0;
#X connect 35 0 47 0;
#X connect 35 0 51 1;
#X connect 36 0 55 1;
#X connect 37 0 38 0;
#X connect 37 1 41 0;
#X connect 38 0 40 0;
#X connect 39 0 54 0;
#X connect 40 0 36 0;
#X connect 41 0 39 0;
#X connect 42 0 43 0;
#X connect 43 0 36 0;
#X connect 44 0 40 1;
#X connect 44 0 42 3;
#X connect 44 0 48 0;
#X connect 45 0 42 1;
#X connect 45 0 46 0;
#X connect 49 0 53 0;
#X connect 50 0 51 0;
#X connect 50 1 49 1;
#X connect 51 0 49 0;
#X connect 52 0 42 0;
#X connect 53 0 52 0;
#X connect 53 1 42 2;
#X connect 54 0 50 0;
#X connect 54 1 52 1;
#X connect 55 0 69 0;
#X connect 56 0 58 0;
#X connect 56 0 60 0;
#X connect 57 0 66 1;
#X connect 58 0 59 0;
#X connect 59 0 57 0;
#X connect 60 0 61 0;
#X connect 61 0 62 0;
#X connect 63 0 66 0;
#X connect 64 0 65 0;
#X connect 65 0 63 0;
#X connect 65 1 37 0;
#X connect 66 0 0 0;
#X connect 66 0 19 0;
#X connect 66 0 20 0;
#X connect 66 0 21 0;
#X connect 66 0 22 0;
#X connect 66 0 23 0;
#X connect 67 0 63 0;
#X connect 68 0 69 1;
#X connect 69 0 16 0;
#X restore -223 278 pd guts;
#X obj 223 143 nbx 4 14 -1e+037 1e+037 0 0 empty \$0Add_freq1 empty
0 -8 0 9 -99865 -260097 -1 2 256 0;
#X obj 172 108 nbx 5 14 -1e+037 1e+037 0 0 empty \$0freqshow empty
0 -8 0 13 -99865 -260097 -1 440 256 0;
#X obj 195 126 vsl 20 60 0 127 0 0 \$0Add_OT0volctl \$0Add_OT0volctl_ctl
empty -100 58 0 10 -191407 -260097 -1 5900 1;
#X obj 236 161 vsl 15 60 0 127 0 0 \$0Add_OT1volctl \$0Add_OT1volctl_ctl
empty -68 58 0 10 -191407 -260097 -1 0 1;
#X obj 282 161 vsl 15 60 0 127 0 0 \$0Add_OT2volctl \$0Add_OT2volctl_ctl
empty -68 58 0 10 -191407 -260097 -1 0 1;
#X obj 143 124 vsl 15 70 0.127 127 0 0 \$0Freq \$0Freq_r Frequenz -30
-9 0 12 -162280 -260097 -262144 3009 1;
#X obj 105 198 nbx 5 14 -1e+037 1e+037 0 0 \$0freqshow_s \$0freqshow
empty 0 -8 0 11 -99865 -260097 -260097 440 256 0;
#X obj 115 152 tgl 20 0 \$0on \$0on_r Ton -1 -8 0 12 -162280 -260097
-262144 0 1;
#X obj 226 127 hsl 35 15 0 127 0 0 \$0Add_OT1ctl \$0Add_OT1ctl_ctl
OT1 10 8 0 10 -191407 -260097 -1 0 1;
#X obj 268 143 nbx 4 14 -1e+037 1e+037 0 0 empty \$0Add_freq2 empty
0 -8 0 9 -99865 -260097 -1 3 256 0;
#X obj 271 127 hsl 35 15 0 127 0 0 \$0Add_OT2ctl \$0Add_OT2ctl_ctl
OT2 10 8 0 10 -191407 -260097 -1 0 1;
#X obj 313 143 nbx 4 14 -1e+037 1e+037 0 0 empty \$0Add_freq3 empty
0 -8 0 9 -99865 -260097 -1 4 256 0;
#X obj 327 161 vsl 15 60 0 127 0 0 \$0Add_OT3volctl \$0Add_OT3volctl_ctl
empty -68 58 0 10 -191407 -260097 -1 0 1;
#X obj 372 161 vsl 15 60 0 127 0 0 \$0Add_OT4volctl \$0Add_OT4volctl_ctl
empty -68 58 0 10 -191407 -260097 -1 0 1;
#X obj 316 127 hsl 35 15 0 127 0 0 \$0Add_OT3ctl \$0Add_OT3ctl_ctl
OT3 10 8 0 10 -191407 -260097 -1 0 1;
#X obj 358 143 nbx 4 14 -1e+037 1e+037 0 0 empty \$0Add_freq4 empty
0 -8 0 9 -99865 -260097 -1 5 256 0;
#X obj 361 127 hsl 35 15 0 127 0 0 \$0Add_OT4ctl \$0Add_OT4ctl_ctl
OT4 10 8 0 10 -191407 -260097 -1 0 1;
#X obj 417 161 vsl 15 60 0 127 0 0 \$0Add_OT5volctl \$0Add_OT5volctl_ctl
empty -68 58 0 10 -191407 -260097 -1 0 1;
#X obj 403 143 nbx 4 14 -1e+037 1e+037 0 0 empty \$0Add_freq5 empty
0 -8 0 9 -99865 -260097 -1 6 256 0;
#X obj 406 127 hsl 35 15 0 127 0 0 \$0Add_OT5ctl \$0Add_OT5ctl_ctl
OT5 10 8 0 10 -191407 -260097 -1 0 1;
#X obj 943 81 s \$0Add_OT1ctl_ctl;
#X obj 953 91 s \$0Add_OT2ctl_ctl;
#X obj 963 101 s \$0Add_OT3ctl_ctl;
#X obj 983 126 s \$0Add_OT5ctl_ctl;
#X obj 973 111 s \$0Add_OT4ctl_ctl;
#N canvas 720 0 704 802 addpitchcontrols 0;
#X text 649 179 Ausgabe;
#X floatatom 603 70 5 0 0 0 - - -, f 5;
#X text 694 25 Empfang der Controllerdaten;
#X obj 310 126 + 3;
#X obj 310 99 / 63.5;
#X text 649 105 untere Grenze des Midiwerts und Skalierung;
#X obj 405 126 + 4;
#X obj 505 126 + 5;
#X obj 505 99 / 31.75;
#X obj 603 123 + 6;
#X obj 603 96 / 25.4;
#X obj 405 99 / 42.3333;
#X obj 215 126 + 2;
#X obj 215 97 / 127;
#X text 777 182 Hier werden die eingehenden Mididaten so umgeformt
\, dass sie für ADDs Klangerzeugung funktionieren.;
#X obj 215 26 r \$0Add_OT1ctl;
#X obj 310 26 r \$0Add_OT2ctl;
#X obj 405 26 r \$0Add_OT3ctl;
#X obj 505 26 r \$0Add_OT4ctl;
#X obj 603 26 r \$0Add_OT5ctl;
#X obj 105 176 s \$0Add_freq1;
#X obj 115 186 s \$0Add_freq2;
#X obj 129 199 s \$0Add_freq3;
#X obj 140 209 s \$0Add_freq4;
#X obj 150 219 s \$0Add_freq5;
#X connect 1 0 10 0;
#X connect 3 0 21 0;
#X connect 4 0 3 0;
#X connect 6 0 22 0;
#X connect 7 0 23 0;
#X connect 8 0 7 0;
#X connect 9 0 24 0;
#X connect 10 0 9 0;
#X connect 11 0 6 0;
#X connect 12 0 20 0;
#X connect 13 0 12 0;
#X connect 15 0 13 0;
#X connect 16 0 4 0;
#X connect 17 0 11 0;
#X connect 18 0 8 0;
#X connect 19 0 1 0;
#X restore -117 390 pd addpitchcontrols;
#X msg 982 41 0;
#N canvas 0 0 1440 818 volume 0;
#X obj 123 121 r \$0Add_OT0volctl;
#X obj 123 149 / 127;
#X obj 240 142 / 127;
#X obj 240 114 r \$0Add_OT1volctl;
#X obj 239 172 t b f;
#X obj 362 145 / 127;
#X obj 361 175 t b f;
#X obj 362 116 r \$0Add_OT2volctl;
#X obj 479 145 / 127;
#X obj 478 175 t b f;
#X obj 479 116 r \$0Add_OT3volctl;
#X obj 599 147 / 127;
#X obj 598 177 t b f;
#X obj 600 118 r \$0Add_OT4volctl;
#X obj 721 148 / 127;
#X obj 720 178 t b f;
#X obj 726 117 r \$0Add_OT5volctl;
#X obj 398 346 pack 0 0 0 0 0 0;
#X obj 399 380 sum;
#X floatatom 400 417 5 0 0 0 - - -, f 5;
#X obj 400 451 s \$0relvol;
#X connect 0 0 1 0;
#X connect 1 0 17 0;
#X connect 2 0 4 0;
#X connect 3 0 2 0;
#X connect 4 0 17 0;
#X connect 4 1 17 1;
#X connect 5 0 6 0;
#X connect 6 0 17 0;
#X connect 6 1 17 2;
#X connect 7 0 5 0;
#X connect 8 0 9 0;
#X connect 9 0 17 0;
#X connect 9 1 17 3;
#X connect 10 0 8 0;
#X connect 11 0 12 0;
#X connect 12 0 17 0;
#X connect 12 1 17 4;
#X connect 13 0 11 0;
#X connect 14 0 15 0;
#X connect 15 0 17 0;
#X connect 15 1 17 5;
#X connect 16 0 14 0;
#X connect 17 0 18 0;
#X connect 18 0 19 0;
#X connect 19 0 20 0;
#X restore -119 367 pd volume;
#X obj 1140 68 s \$0Add_OT0volctl_ctl;
#X msg 1144 44 127;
#X msg 1188 153 0;
#X obj 1169 184 s \$0Add_OT1volctl_ctl;
#X obj 1181 200 s \$0Add_OT2volctl_ctl;
#X obj 1189 212 s \$0Add_OT3volctl_ctl;
#X obj 1208 255 s \$0Add_OT5volctl_ctl;
#N canvas 0 0 1440 818 guts 0;
#X obj -72 486 osc~;
#X obj 143 487 osc~;
#X obj 143 547 *~;
#X obj 256 487 osc~;
#X obj 255 547 *~;
#X obj 370 487 osc~;
#X obj 369 547 *~;
#X obj 592 487 osc~;
#X obj 593 547 *~;
#X obj 483 487 osc~;
#X obj 483 547 *~;
#N canvas 691 227 411 228 addmidivol 0;
#X text 142 93 Lautstärkeregelung des 4 Obertons.;
#X floatatom 28 42 5 0 0 0 - - -, f 5;
#X obj 28 65 / 127;
#X msg 28 88 \$1 100;
#X obj 28 112 line~;
#X obj 28 191 outlet~;
#X obj 28 13 r \$0Add_OT4volctl;
#X obj 28 139 *~ 1;
#X connect 1 0 2 0;
#X connect 2 0 3 0;
#X connect 3 0 4 0;
#X connect 4 0 7 0;
#X connect 6 0 1 0;
#X connect 7 0 5 0;
#X restore 498 516 pd addmidivol;
#N canvas 688 232 450 300 addmidivol 0;
#X floatatom 41 66 5 0 0 0 - - -, f 5;
#X obj 41 89 / 127;
#X msg 41 112 \$1 100;
#X obj 41 136 line~;
#X obj 41 215 outlet~;
#X obj 41 37 r \$0Add_OT5volctl;
#X obj 40 166 *~ 1;
#X connect 0 0 1 0;
#X connect 1 0 2 0;
#X connect 2 0 3 0;
#X connect 3 0 6 0;
#X connect 5 0 0 0;
#X connect 6 0 4 0;
#X restore 608 516 pd addmidivol;
#N canvas 691 227 450 220 addmidivol 0;
#X text 146 92 Lautstärkeregelung des 3 Obertons.;
#X floatatom 26 39 5 0 0 0 - - -, f 5;
#X obj 26 62 / 127;
#X msg 26 85 \$1 100;
#X obj 26 109 line~;
#X obj 26 188 outlet~;
#X obj 26 10 r \$0Add_OT3volctl;
#X obj 26 136 *~ 1;
#X connect 1 0 2 0;
#X connect 2 0 3 0;
#X connect 3 0 4 0;
#X connect 4 0 7 0;
#X connect 6 0 1 0;
#X connect 7 0 5 0;
#X restore 384 516 pd addmidivol;
#N canvas 688 232 450 242 addmidivol 0;
#X floatatom 26 52 5 0 0 0 - - -, f 5;
#X obj 26 75 / 127;
#X msg 26 98 \$1 100;
#X obj 26 122 line~;
#X obj 26 201 outlet~;
#X obj 26 23 r \$0Add_OT2volctl;
#X obj 26 149 *~ 1;
#X connect 0 0 1 0;
#X connect 1 0 2 0;
#X connect 2 0 3 0;
#X connect 3 0 6 0;
#X connect 5 0 0 0;
#X connect 6 0 4 0;
#X restore 270 516 pd addmidivol;
#N canvas 679 247 450 232 addmidivol 0;
#X floatatom 27 53 5 0 0 0 - - -, f 5;
#X obj 27 76 / 127;
#X msg 27 99 \$1 100;
#X obj 27 123 line~;
#X obj 27 202 outlet~;
#X obj 27 24 r \$0Add_OT1volctl;
#X obj 27 150 *~ 1;
#X connect 0 0 1 0;
#X connect 1 0 2 0;
#X connect 2 0 3 0;
#X connect 3 0 6 0;
#X connect 5 0 0 0;
#X connect 6 0 4 0;
#X restore 158 516 pd addmidivol;
#X obj 419 821 outlet~;
#X text -200 542 Lautstärkekontrollen;
#X text 478 821 Ausgabe;
#X obj 143 402 *~;
#X obj 256 402 *~;
#X obj 370 402 *~;
#X obj 483 403 *~;
#X obj 592 402 *~;
#N canvas 679 247 450 232 addmidivol 0;
#X floatatom 27 53 5 0 0 0 - - -, f 5;
#X obj 27 76 / 127;
#X msg 27 99 \$1 100;
#X text 152 104 Lautstärkeregelung des 1 Obertons.;
#X obj 27 123 line~;
#X obj 27 202 outlet~;
#X obj 27 24 r \$0Add_OT0volctl;
#X obj 27 150 *~ 1;
#X connect 0 0 1 0;
#X connect 1 0 2 0;
#X connect 2 0 4 0;
#X connect 4 0 7 0;
#X connect 6 0 0 0;
#X connect 7 0 5 0;
#X restore -55 516 pd addmidivol;
#X obj -71 542 *~;
#X obj 2 647 +~;
#X obj 321 218 r \$0Add_freq1;
#X obj 331 227 r \$0Add_freq2;
#X obj 345 240 r \$0Add_freq3;
#X obj 356 250 r \$0Add_freq4;
#X obj 366 260 r \$0Add_freq5;
#X obj 747 410 r \$0att;
#X obj 881 411 r \$0rel;
#X obj 811 229 r \$0sus;
#X obj 811 262 / 127;
#X obj 811 679 vline~;
#X obj 1047 241 moses 1;
#X floatatom 1048 273 5 0 0 0 - - -, f 5;
#X floatatom 1101 298 5 0 0 0 - - -, f 5;
#X obj 855 579 pack f f;
#X obj 1100 274 / 127;
#X obj 743 527 pack f f f f;
#X msg 725 573 \$1 \$2 \, \$3 \$4 \$2;
#X obj 881 444 * 4;
#X obj 747 443 * 4;
#X obj 745 479 s \$0attshow;
#X obj 723 309 s \$0susshow;
#X obj 914 478 s \$0relshow;
#X obj 828 343 *;
#X obj 844 284 t b f;
#X obj 814 314 f;
#X obj 709 497 f;
#X obj 796 437 t b f;
#X obj 1080 329 t f f;
#X obj 417 773 *~;
#X obj 156 49 r \$0det;
#X floatatom 158 114 10 0 0 0 - - -, f 10;
#X obj 157 69 / 1098.71;
#X obj 158 92 + 0.942207;
#X obj 75 51 / 63.5;
#X obj 73 77 - 1;
#X obj 66 105 s \$0detshow;
#X obj -71 147 sig~;
#X obj -71 76 inlet;
#X obj -71 113 unpack 0 0;
#X obj -71 180 *~;
#X obj -158 105 r \$0freqshow;
#X obj 453 779 r \$0relvol;
#X obj 418 796 /~;
#X connect 0 0 25 0;
#X connect 1 0 2 0;
#X connect 2 0 26 1;
#X connect 3 0 4 0;
#X connect 4 0 26 1;
#X connect 5 0 6 0;
#X connect 6 0 26 1;
#X connect 7 0 8 0;
#X connect 8 0 26 1;
#X connect 9 0 10 0;
#X connect 10 0 26 1;
#X connect 11 0 10 1;
#X connect 12 0 8 1;
#X connect 13 0 6 1;
#X connect 14 0 4 1;
#X connect 15 0 2 1;
#X connect 19 0 1 0;
#X connect 20 0 3 0;
#X connect 21 0 5 0;
#X connect 22 0 9 0;
#X connect 23 0 7 0;
#X connect 24 0 25 1;
#X connect 25 0 26 0;
#X connect 26 0 55 0;
#X connect 27 0 19 1;
#X connect 28 0 20 1;
#X connect 29 0 21 1;
#X connect 30 0 22 1;
#X connect 31 0 23 1;
#X connect 32 0 45 0;
#X connect 33 0 44 0;
#X connect 34 0 35 0;
#X connect 35 0 47 0;
#X connect 35 0 51 1;
#X connect 36 0 55 1;
#X connect 37 0 38 0;
#X connect 37 1 41 0;
#X connect 38 0 40 0;
#X connect 39 0 54 0;
#X connect 40 0 36 0;
#X connect 41 0 39 0;
#X connect 42 0 43 0;
#X connect 43 0 36 0;
#X connect 44 0 40 1;
#X connect 44 0 42 3;
#X connect 44 0 48 0;
#X connect 45 0 42 1;
#X connect 45 0 46 0;
#X connect 49 0 53 0;
#X connect 50 0 51 0;
#X connect 50 1 49 1;
#X connect 51 0 49 0;
#X connect 52 0 42 0;
#X connect 53 0 52 0;
#X connect 53 1 42 2;
#X connect 54 0 50 0;
#X connect 54 1 52 1;
#X connect 55 0 69 0;
#X connect 56 0 58 0;
#X connect 56 0 60 0;
#X connect 57 0 66 1;
#X connect 58 0 59 0;
#X connect 59 0 57 0;
#X connect 60 0 61 0;
#X connect 61 0 62 0;
#X connect 63 0 66 0;
#X connect 64 0 65 0;
#X connect 65 0 63 0;
#X connect 65 1 37 0;
#X connect 66 0 0 0;
#X connect 66 0 19 0;
#X connect 66 0 20 0;
#X connect 66 0 21 0;
#X connect 66 0 22 0;
#X connect 66 0 23 0;
#X connect 67 0 63 0;
#X connect 68 0 69 1;
#X connect 69 0 16 0;
#X restore -209 295 pd guts;
#N canvas 0 0 1440 818 guts 0;
#X obj -72 486 osc~;
#X obj 143 487 osc~;
#X obj 143 547 *~;
#X obj 256 487 osc~;
#X obj 255 547 *~;
#X obj 370 487 osc~;
#X obj 369 547 *~;
#X obj 592 487 osc~;
#X obj 593 547 *~;
#X obj 483 487 osc~;
#X obj 483 547 *~;
#N canvas 691 227 411 228 addmidivol 0;
#X text 142 93 Lautstärkeregelung des 4 Obertons.;
#X floatatom 28 42 5 0 0 0 - - -, f 5;
#X obj 28 65 / 127;
#X msg 28 88 \$1 100;
#X obj 28 112 line~;
#X obj 28 191 outlet~;
#X obj 28 13 r \$0Add_OT4volctl;
#X obj 28 139 *~ 1;
#X connect 1 0 2 0;
#X connect 2 0 3 0;
#X connect 3 0 4 0;
#X connect 4 0 7 0;
#X connect 6 0 1 0;
#X connect 7 0 5 0;
#X restore 498 516 pd addmidivol;
#N canvas 688 232 450 300 addmidivol 0;
#X floatatom 41 66 5 0 0 0 - - -, f 5;
#X obj 41 89 / 127;
#X msg 41 112 \$1 100;
#X obj 41 136 line~;
#X obj 41 215 outlet~;
#X obj 41 37 r \$0Add_OT5volctl;
#X obj 40 166 *~ 1;
#X connect 0 0 1 0;
#X connect 1 0 2 0;
#X connect 2 0 3 0;
#X connect 3 0 6 0;
#X connect 5 0 0 0;
#X connect 6 0 4 0;
#X restore 608 516 pd addmidivol;
#N canvas 691 227 450 220 addmidivol 0;
#X text 146 92 Lautstärkeregelung des 3 Obertons.;
#X floatatom 26 39 5 0 0 0 - - -, f 5;
#X obj 26 62 / 127;
#X msg 26 85 \$1 100;
#X obj 26 109 line~;
#X obj 26 188 outlet~;
#X obj 26 10 r \$0Add_OT3volctl;
#X obj 26 136 *~ 1;
#X connect 1 0 2 0;
#X connect 2 0 3 0;
#X connect 3 0 4 0;
#X connect 4 0 7 0;
#X connect 6 0 1 0;
#X connect 7 0 5 0;
#X restore 384 516 pd addmidivol;
#N canvas 688 232 450 242 addmidivol 0;
#X floatatom 26 52 5 0 0 0 - - -, f 5;
#X obj 26 75 / 127;
#X msg 26 98 \$1 100;
#X obj 26 122 line~;
#X obj 26 201 outlet~;
#X obj 26 23 r \$0Add_OT2volctl;
#X obj 26 149 *~ 1;
#X connect 0 0 1 0;
#X connect 1 0 2 0;
#X connect 2 0 3 0;
#X connect 3 0 6 0;
#X connect 5 0 0 0;
#X connect 6 0 4 0;
#X restore 270 516 pd addmidivol;
#N canvas 679 247 450 232 addmidivol 0;
#X floatatom 27 53 5 0 0 0 - - -, f 5;
#X obj 27 76 / 127;
#X msg 27 99 \$1 100;
#X obj 27 123 line~;
#X obj 27 202 outlet~;
#X obj 27 24 r \$0Add_OT1volctl;
#X obj 27 150 *~ 1;
#X connect 0 0 1 0;
#X connect 1 0 2 0;
#X connect 2 0 3 0;
#X connect 3 0 6 0;
#X connect 5 0 0 0;
#X connect 6 0 4 0;
#X restore 158 516 pd addmidivol;
#X obj 419 821 outlet~;
#X text -200 542 Lautstärkekontrollen;
#X text 478 821 Ausgabe;
#X obj 143 402 *~;
#X obj 256 402 *~;
#X obj 370 402 *~;
#X obj 483 403 *~;
#X obj 592 402 *~;
#N canvas 679 247 450 232 addmidivol 0;
#X floatatom 27 53 5 0 0 0 - - -, f 5;
#X obj 27 76 / 127;
#X msg 27 99 \$1 100;
#X text 152 104 Lautstärkeregelung des 1 Obertons.;
#X obj 27 123 line~;
#X obj 27 202 outlet~;
#X obj 27 24 r \$0Add_OT0volctl;
#X obj 27 150 *~ 1;
#X connect 0 0 1 0;
#X connect 1 0 2 0;
#X connect 2 0 4 0;
#X connect 4 0 7 0;
#X connect 6 0 0 0;
#X connect 7 0 5 0;
#X restore -55 516 pd addmidivol;
#X obj -71 542 *~;
#X obj 2 647 +~;
#X obj 321 218 r \$0Add_freq1;
#X obj 331 227 r \$0Add_freq2;
#X obj 345 240 r \$0Add_freq3;
#X obj 356 250 r \$0Add_freq4;
#X obj 366 260 r \$0Add_freq5;
#X obj 747 410 r \$0att;
#X obj 881 411 r \$0rel;
#X obj 811 229 r \$0sus;
#X obj 811 262 / 127;
#X obj 811 679 vline~;
#X obj 1047 241 moses 1;
#X floatatom 1048 273 5 0 0 0 - - -, f 5;
#X floatatom 1101 298 5 0 0 0 - - -, f 5;
#X obj 855 579 pack f f;
#X obj 1100 274 / 127;
#X obj 743 527 pack f f f f;
#X msg 725 573 \$1 \$2 \, \$3 \$4 \$2;
#X obj 881 444 * 4;
#X obj 747 443 * 4;
#X obj 745 479 s \$0attshow;
#X obj 723 309 s \$0susshow;
#X obj 914 478 s \$0relshow;
#X obj 828 343 *;
#X obj 844 284 t b f;
#X obj 814 314 f;
#X obj 709 497 f;
#X obj 796 437 t b f;
#X obj 1080 329 t f f;
#X obj 417 773 *~;
#X obj 156 49 r \$0det;
#X floatatom 158 114 10 0 0 0 - - -, f 10;
#X obj 157 69 / 1098.71;
#X obj 158 92 + 0.942207;
#X obj 75 51 / 63.5;
#X obj 73 77 - 1;
#X obj 66 105 s \$0detshow;
#X obj -71 147 sig~;
#X obj -71 76 inlet;
#X obj -71 113 unpack 0 0;
#X obj -71 180 *~;
#X obj -158 105 r \$0freqshow;
#X obj 453 779 r \$0relvol;
#X obj 418 796 /~;
#X connect 0 0 25 0;
#X connect 1 0 2 0;
#X connect 2 0 26 1;
#X connect 3 0 4 0;
#X connect 4 0 26 1;
#X connect 5 0 6 0;
#X connect 6 0 26 1;
#X connect 7 0 8 0;
#X connect 8 0 26 1;
#X connect 9 0 10 0;
#X connect 10 0 26 1;
#X connect 11 0 10 1;
#X connect 12 0 8 1;
#X connect 13 0 6 1;
#X connect 14 0 4 1;
#X connect 15 0 2 1;
#X connect 19 0 1 0;
#X connect 20 0 3 0;
#X connect 21 0 5 0;
#X connect 22 0 9 0;
#X connect 23 0 7 0;
#X connect 24 0 25 1;
#X connect 25 0 26 0;
#X connect 26 0 55 0;
#X connect 27 0 19 1;
#X connect 28 0 20 1;
#X connect 29 0 21 1;
#X connect 30 0 22 1;
#X connect 31 0 23 1;
#X connect 32 0 45 0;
#X connect 33 0 44 0;
#X connect 34 0 35 0;
#X connect 35 0 47 0;
#X connect 35 0 51 1;
#X connect 36 0 55 1;
#X connect 37 0 38 0;
#X connect 37 1 41 0;
#X connect 38 0 40 0;
#X connect 39 0 54 0;
#X connect 40 0 36 0;
#X connect 41 0 39 0;
#X connect 42 0 43 0;
#X connect 43 0 36 0;
#X connect 44 0 40 1;
#X connect 44 0 42 3;
#X connect 44 0 48 0;
#X connect 45 0 42 1;
#X connect 45 0 46 0;
#X connect 49 0 53 0;
#X connect 50 0 51 0;
#X connect 50 1 49 1;
#X connect 51 0 49 0;
#X connect 52 0 42 0;
#X connect 53 0 52 0;
#X connect 53 1 42 2;
#X connect 54 0 50 0;
#X connect 54 1 52 1;
#X connect 55 0 69 0;
#X connect 56 0 58 0;
#X connect 56 0 60 0;
#X connect 57 0 66 1;
#X connect 58 0 59 0;
#X connect 59 0 57 0;
#X connect 60 0 61 0;
#X connect 61 0 62 0;
#X connect 63 0 66 0;
#X connect 64 0 65 0;
#X connect 65 0 63 0;
#X connect 65 1 37 0;
#X connect 66 0 0 0;
#X connect 66 0 19 0;
#X connect 66 0 20 0;
#X connect 66 0 21 0;
#X connect 66 0 22 0;
#X connect 66 0 23 0;
#X connect 67 0 63 0;
#X connect 68 0 69 1;
#X connect 69 0 16 0;
#X restore -192 316 pd guts;
#N canvas 0 0 1440 818 guts 0;
#X obj -72 486 osc~;
#X obj 143 487 osc~;
#X obj 143 547 *~;
#X obj 256 487 osc~;
#X obj 255 547 *~;
#X obj 370 487 osc~;
#X obj 369 547 *~;
#X obj 592 487 osc~;
#X obj 593 547 *~;
#X obj 483 487 osc~;
#X obj 483 547 *~;
#N canvas 691 227 411 228 addmidivol 0;
#X text 142 93 Lautstärkeregelung des 4 Obertons.;
#X floatatom 28 42 5 0 0 0 - - -, f 5;
#X obj 28 65 / 127;
#X msg 28 88 \$1 100;
#X obj 28 112 line~;
#X obj 28 191 outlet~;
#X obj 28 13 r \$0Add_OT4volctl;
#X obj 28 139 *~ 1;
#X connect 1 0 2 0;
#X connect 2 0 3 0;
#X connect 3 0 4 0;
#X connect 4 0 7 0;
#X connect 6 0 1 0;
#X connect 7 0 5 0;
#X restore 498 516 pd addmidivol;
#N canvas 688 232 450 300 addmidivol 0;
#X floatatom 41 66 5 0 0 0 - - -, f 5;
#X obj 41 89 / 127;
#X msg 41 112 \$1 100;
#X obj 41 136 line~;
#X obj 41 215 outlet~;
#X obj 41 37 r \$0Add_OT5volctl;
#X obj 40 166 *~ 1;
#X connect 0 0 1 0;
#X connect 1 0 2 0;
#X connect 2 0 3 0;
#X connect 3 0 6 0;
#X connect 5 0 0 0;
#X connect 6 0 4 0;
#X restore 608 516 pd addmidivol;
#N canvas 691 227 450 220 addmidivol 0;
#X text 146 92 Lautstärkeregelung des 3 Obertons.;
#X floatatom 26 39 5 0 0 0 - - -, f 5;
#X obj 26 62 / 127;
#X msg 26 85 \$1 100;
#X obj 26 109 line~;
#X obj 26 188 outlet~;
#X obj 26 10 r \$0Add_OT3volctl;
#X obj 26 136 *~ 1;
#X connect 1 0 2 0;
#X connect 2 0 3 0;
#X connect 3 0 4 0;
#X connect 4 0 7 0;
#X connect 6 0 1 0;
#X connect 7 0 5 0;
#X restore 384 516 pd addmidivol;
#N canvas 688 232 450 242 addmidivol 0;
#X floatatom 26 52 5 0 0 0 - - -, f 5;
#X obj 26 75 / 127;
#X msg 26 98 \$1 100;
#X obj 26 122 line~;
#X obj 26 201 outlet~;
#X obj 26 23 r \$0Add_OT2volctl;
#X obj 26 149 *~ 1;
#X connect 0 0 1 0;
#X connect 1 0 2 0;
#X connect 2 0 3 0;
#X connect 3 0 6 0;
#X connect 5 0 0 0;
#X connect 6 0 4 0;
#X restore 270 516 pd addmidivol;
#N canvas 679 247 450 232 addmidivol 0;
#X floatatom 27 53 5 0 0 0 - - -, f 5;
#X obj 27 76 / 127;
#X msg 27 99 \$1 100;
#X obj 27 123 line~;
#X obj 27 202 outlet~;
#X obj 27 24 r \$0Add_OT1volctl;
#X obj 27 150 *~ 1;
#X connect 0 0 1 0;
#X connect 1 0 2 0;
#X connect 2 0 3 0;
#X connect 3 0 6 0;
#X connect 5 0 0 0;
#X connect 6 0 4 0;
#X restore 158 516 pd addmidivol;
#X obj 419 821 outlet~;
#X text -200 542 Lautstärkekontrollen;
#X text 478 821 Ausgabe;
#X obj 143 402 *~;
#X obj 256 402 *~;
#X obj 370 402 *~;
#X obj 483 403 *~;
#X obj 592 402 *~;
#N canvas 679 247 450 232 addmidivol 0;
#X floatatom 27 53 5 0 0 0 - - -, f 5;
#X obj 27 76 / 127;
#X msg 27 99 \$1 100;
#X text 152 104 Lautstärkeregelung des 1 Obertons.;
#X obj 27 123 line~;
#X obj 27 202 outlet~;
#X obj 27 24 r \$0Add_OT0volctl;
#X obj 27 150 *~ 1;
#X connect 0 0 1 0;
#X connect 1 0 2 0;
#X connect 2 0 4 0;
#X connect 4 0 7 0;
#X connect 6 0 0 0;
#X connect 7 0 5 0;
#X restore -55 516 pd addmidivol;
#X obj -71 542 *~;
#X obj 2 647 +~;
#X obj 321 218 r \$0Add_freq1;
#X obj 331 227 r \$0Add_freq2;
#X obj 345 240 r \$0Add_freq3;
#X obj 356 250 r \$0Add_freq4;
#X obj 366 260 r \$0Add_freq5;
#X obj 747 410 r \$0att;
#X obj 881 411 r \$0rel;
#X obj 811 229 r \$0sus;
#X obj 811 262 / 127;
#X obj 811 679 vline~;
#X obj 1047 241 moses 1;
#X floatatom 1048 273 5 0 0 0 - - -, f 5;
#X floatatom 1101 298 5 0 0 0 - - -, f 5;
#X obj 855 579 pack f f;
#X obj 1100 274 / 127;
#X obj 743 527 pack f f f f;
#X msg 725 573 \$1 \$2 \, \$3 \$4 \$2;
#X obj 881 444 * 4;
#X obj 747 443 * 4;
#X obj 745 479 s \$0attshow;
#X obj 723 309 s \$0susshow;
#X obj 914 478 s \$0relshow;
#X obj 828 343 *;
#X obj 844 284 t b f;
#X obj 814 314 f;
#X obj 709 497 f;
#X obj 796 437 t b f;
#X obj 1080 329 t f f;
#X obj 417 773 *~;
#X obj 156 49 r \$0det;
#X floatatom 158 114 10 0 0 0 - - -, f 10;
#X obj 157 69 / 1098.71;
#X obj 158 92 + 0.942207;
#X obj 75 51 / 63.5;
#X obj 73 77 - 1;
#X obj 66 105 s \$0detshow;
#X obj -71 147 sig~;
#X obj -71 76 inlet;
#X obj -71 113 unpack 0 0;
#X obj -71 180 *~;
#X obj -158 105 r \$0freqshow;
#X obj 453 779 r \$0relvol;
#X obj 416 797 /~;
#X connect 0 0 25 0;
#X connect 1 0 2 0;
#X connect 2 0 26 1;
#X connect 3 0 4 0;
#X connect 4 0 26 1;
#X connect 5 0 6 0;
#X connect 6 0 26 1;
#X connect 7 0 8 0;
#X connect 8 0 26 1;
#X connect 9 0 10 0;
#X connect 10 0 26 1;
#X connect 11 0 10 1;
#X connect 12 0 8 1;
#X connect 13 0 6 1;
#X connect 14 0 4 1;
#X connect 15 0 2 1;
#X connect 19 0 1 0;
#X connect 20 0 3 0;
#X connect 21 0 5 0;
#X connect 22 0 9 0;
#X connect 23 0 7 0;
#X connect 24 0 25 1;
#X connect 25 0 26 0;
#X connect 26 0 55 0;
#X connect 27 0 19 1;
#X connect 28 0 20 1;
#X connect 29 0 21 1;
#X connect 30 0 22 1;
#X connect 31 0 23 1;
#X connect 32 0 45 0;
#X connect 33 0 44 0;
#X connect 34 0 35 0;
#X connect 35 0 47 0;
#X connect 35 0 51 1;
#X connect 36 0 55 1;
#X connect 37 0 38 0;
#X connect 37 1 41 0;
#X connect 38 0 40 0;
#X connect 39 0 54 0;
#X connect 40 0 36 0;
#X connect 41 0 39 0;
#X connect 42 0 43 0;
#X connect 43 0 36 0;
#X connect 44 0 40 1;
#X connect 44 0 42 3;
#X connect 44 0 48 0;
#X connect 45 0 42 1;
#X connect 45 0 46 0;
#X connect 49 0 53 0;
#X connect 50 0 51 0;
#X connect 50 1 49 1;
#X connect 51 0 49 0;
#X connect 52 0 42 0;
#X connect 53 0 52 0;
#X connect 53 1 42 2;
#X connect 54 0 50 0;
#X connect 54 1 52 1;
#X connect 55 0 69 0;
#X connect 56 0 58 0;
#X connect 56 0 60 0;
#X connect 57 0 66 1;
#X connect 58 0 59 0;
#X connect 59 0 57 0;
#X connect 60 0 61 0;
#X connect 61 0 62 0;
#X connect 63 0 66 0;
#X connect 64 0 65 0;
#X connect 65 0 63 0;
#X connect 65 1 37 0;
#X connect 66 0 0 0;
#X connect 66 0 19 0;
#X connect 66 0 20 0;
#X connect 66 0 21 0;
#X connect 66 0 22 0;
#X connect 66 0 23 0;
#X connect 67 0 63 0;
#X connect 68 0 69 1;
#X connect 69 0 16 0;
#X restore -151 309 pd guts;
#X obj 411 -64 inlet;
#X obj 430 -48 inlet;
#X obj 451 -25 inlet;
#X obj 470 -9 inlet;
#X obj 507 1 inlet;
#X obj 526 17 inlet;
#X obj 541 37 inlet;
#X obj 553 55 inlet;
#X obj 586 79 inlet;
#X obj 605 95 inlet;
#X obj 1443 -110 route add;
#X obj 1782 -78 symbol add;
#X obj 1429 25 s \$0Freq_r;
#X obj 1488 79 s \$0att_r;
#X obj 1513 99 s \$0rel_r;
#X obj 1535 121 s \$0sus_r;
#X obj 1453 51 s \$0det_r;
#X obj 1680 264 s \$0Add_OT1ctl_ctl;
#X obj 1690 274 s \$0Add_OT2ctl_ctl;
#X obj 1700 284 s \$0Add_OT3ctl_ctl;
#X obj 1720 309 s \$0Add_OT5ctl_ctl;
#X obj 1710 294 s \$0Add_OT4ctl_ctl;
#X obj 1565 156 s \$0Add_OT0volctl_ctl;
#X obj 1609 199 s \$0Add_OT1volctl_ctl;
#X obj 1619 209 s \$0Add_OT2volctl_ctl;
#X obj 1629 219 s \$0Add_OT3volctl_ctl;
#X obj 1650 245 s \$0Add_OT5volctl_ctl;
#X obj 1442 -57 unpack f f f f f f f f f f f f f f f f;
#X obj 1790 -148 t b f b b b b b b b b b b b b b b b b;
#X obj 2046 -273 r \$0Freq;
#X obj 2070 -248 r \$0det;
#X obj 2105 -220 r \$0att;
#X obj 2130 -200 r \$0rel;
#X obj 2152 -178 r \$0sus;
#X obj 2182 -143 r \$0Add_OT0volctl;
#X obj 2226 -101 r \$0Add_OT1volctl;
#X obj 2236 -91 r \$0Add_OT2volctl;
#X obj 2247 -80 r \$0Add_OT3volctl;
#X obj 2273 -25 r \$0Add_OT5volctl;
#X obj 2345 16 r \$0Add_OT1ctl;
#X obj 2355 30 r \$0Add_OT2ctl;
#X obj 2365 39 r \$0Add_OT3ctl;
#X obj 2375 49 r \$0Add_OT4ctl;
#X obj 2385 64 r \$0Add_OT5ctl;
#X obj 1954 -54 f;
#X obj 1964 -44 f;
#X obj 2006 -30 f;
#X obj 2016 -20 f;
#X obj 2043 7 f;
#X obj 2053 17 f;
#X obj 2128 55 f;
#X obj 2160 75 f;
#X obj 2216 107 f;
#X obj 2242 111 f;
#X obj 2287 148 f;
#X obj 2311 162 f;
#X obj 2330 177 f;
#X obj 2362 188 f;
#X obj 2383 200 f;
#X obj 2413 219 f;
#X obj 2001 322 pack s f f f f f f f f f f f f f f f f f;
#X obj 223 253 bng 15 250 50 0 \$0rec \$0rec_r rec -22 7 0 10 -191407
-1 -262144;
#X obj 723 419 s \$0Add_OT1ctl_ctl;
#X obj 733 429 s \$0Add_OT2ctl_ctl;
#X obj 743 439 s \$0Add_OT3ctl_ctl;
#X obj 763 464 s \$0Add_OT5ctl_ctl;
#X obj 753 449 s \$0Add_OT4ctl_ctl;
#X msg 762 379 0;
#X msg 938 451 0;
#X obj 919 490 s \$0Add_OT1volctl_ctl;
#X obj 929 500 s \$0Add_OT2volctl_ctl;
#X obj 939 510 s \$0Add_OT3volctl_ctl;
#X obj 968 549 s \$0Add_OT5volctl_ctl;
#X obj 877 416 s \$0Add_OT0volctl_ctl;
#X msg 881 392 127;
#X obj 838 314 r \$0sine;
#X obj 223 235 bng 15 250 50 0 \$0sine \$0sine_r sin -22 7 0 10 -191407
-1 -262144;
#X obj 398 546 s \$0Add_OT1ctl_ctl;
#X obj 408 556 s \$0Add_OT2ctl_ctl;
#X obj 418 566 s \$0Add_OT3ctl_ctl;
#X obj 438 591 s \$0Add_OT5ctl_ctl;
#X obj 428 576 s \$0Add_OT4ctl_ctl;
#X obj 594 617 s \$0Add_OT1volctl_ctl;
#X obj 552 543 s \$0Add_OT0volctl_ctl;
#X msg 556 519 127;
#X obj 623 459 r \$0rec;
#X msg 437 505 127;
#X obj 747 625 s \$0Add_OT2volctl_ctl;
#X obj 668 673 s \$0Add_OT3volctl_ctl;
#X obj 949 685 s \$0Add_OT5volctl_ctl;
#X msg 613 578 42.3333;
#X msg 761 589 25.4;
#X msg 803 585 18.1428;
#X msg 900 599 14.1111;
#X msg 972 618 11.5455;
#X obj 1199 232 s \$0Add_OT4volctl_ctl;
#X obj 1637 228 s \$0Add_OT4volctl_ctl;
#X obj 2271 -55 r \$0Add_OT4volctl;
#X obj 878 654 s \$0Add_OT4volctl_ctl;
#X obj 947 519 s \$0Add_OT4volctl_ctl;
#X obj 223 271 bng 15 250 50 0 \$0saw \$0saw_r saw -22 7 0 10 -191407
-1 -262144;
#X obj 223 289 bng 15 250 50 0 \$0bell \$0bell_r bell -25 7 0 10 -191407
-1 -262144;
#X obj 1161 573 s \$0Add_OT1ctl_ctl;
#X obj 1171 583 s \$0Add_OT2ctl_ctl;
#X obj 1181 593 s \$0Add_OT3ctl_ctl;
#X obj 1201 618 s \$0Add_OT5ctl_ctl;
#X obj 1191 603 s \$0Add_OT4ctl_ctl;
#X obj 1357 644 s \$0Add_OT1volctl_ctl;
#X obj 1315 570 s \$0Add_OT0volctl_ctl;
#X msg 1319 546 127;
#X obj 1510 652 s \$0Add_OT2volctl_ctl;
#X obj 1518 709 s \$0Add_OT3volctl_ctl;
#X obj 1712 712 s \$0Add_OT5volctl_ctl;
#X obj 1641 681 s \$0Add_OT4volctl_ctl;
#X obj 1390 486 r \$0saw;
#X msg 1200 532 0;
#X msg 1376 605 63.5;
#X msg 1495 612 42.3333;
#X msg 1582 619 31.75;
#X msg 1663 626 25.4;
#X msg 1735 645 21.1667;
#X obj 1011 894 s \$0Add_OT1ctl_ctl;
#X obj 1021 904 s \$0Add_OT2ctl_ctl;
#X obj 1031 914 s \$0Add_OT3ctl_ctl;
#X obj 1051 939 s \$0Add_OT5ctl_ctl;
#X obj 1041 924 s \$0Add_OT4ctl_ctl;
#X obj 1273 940 s \$0Add_OT1volctl_ctl;
#X obj 1231 866 s \$0Add_OT0volctl_ctl;
#X obj 1426 948 s \$0Add_OT2volctl_ctl;
#X obj 1434 1005 s \$0Add_OT3volctl_ctl;
#X obj 1628 1008 s \$0Add_OT5volctl_ctl;
#X obj 1557 977 s \$0Add_OT4volctl_ctl;
#X msg 1412 908 42.3333;
#X obj 1264 755 r \$0bell;
#X msg 1016 832 55;
#X msg 1052 838 76.5;
#X msg 1095 837 66;
#X msg 1126 840 37.7;
#X msg 1167 848 95;
#X msg 1292 901 76;
#X msg 1235 842 110;
#X msg 1498 915 69;
#X msg 1579 922 80;
#X msg 1651 941 97;
#X obj -222 375 *~ 0.25;
#X obj 938 1012 s \$0att_r;
#X obj 1025 1020 s \$0rel_r;
#X obj 1107 1015 s \$0sus_r;
#X msg 926 986 1.258;
#X msg 1109 995 10;
#X msg 996 976 127;
#X connect 7 0 18 0;
#X connect 7 0 27 0;
#X connect 9 0 57 0;
#X connect 9 0 15 0;
#X connect 9 0 13 0;
#X connect 9 0 46 0;
#X connect 9 0 85 0;
#X connect 9 0 88 0;
#X connect 9 0 89 0;
#X connect 13 0 14 0;
#X connect 15 0 11 0;
#X connect 15 0 12 0;
#X connect 16 0 17 0;
#X connect 17 0 58 0;
#X connect 17 1 94 0;
#X connect 17 2 95 0;
#X connect 17 3 96 0;
#X connect 18 0 16 0;
#X connect 18 1 16 1;
#X connect 18 2 16 2;
#X connect 19 0 21 0;
#X connect 19 0 25 0;
#X connect 21 0 23 0;
#X connect 22 0 58 0;
#X connect 23 0 24 0;
#X connect 23 1 22 1;
#X connect 24 0 22 0;
#X connect 25 0 26 0;
#X connect 26 0 18 0;
#X connect 27 0 28 0;
#X connect 28 0 26 0;
#X connect 29 0 107 0;
#X connect 30 0 37 0;
#X connect 32 0 125 0;
#X connect 33 0 124 0;
#X connect 34 0 36 0;
#X connect 35 0 32 1;
#X connect 35 0 33 1;
#X connect 35 0 37 1;
#X connect 36 0 35 0;
#X connect 37 0 32 0;
#X connect 38 0 64 0;
#X connect 39 0 2 0;
#X connect 40 0 1 0;
#X connect 41 0 4 0;
#X connect 42 0 66 0;
#X connect 46 0 45 0;
#X connect 48 0 49 0;
#X connect 49 0 50 0;
#X connect 51 0 43 0;
#X connect 52 0 55 0;
#X connect 53 0 56 0;
#X connect 54 0 53 0;
#X connect 55 0 54 0;
#X connect 56 0 24 1;
#X connect 56 0 20 0;
#X connect 57 0 10 0;
#X connect 58 0 241 0;
#X connect 85 0 79 0;
#X connect 85 0 81 0;
#X connect 85 0 83 0;
#X connect 85 0 80 0;
#X connect 85 0 82 0;
#X connect 88 0 87 0;
#X connect 89 0 90 0;
#X connect 89 0 91 0;
#X connect 89 0 92 0;
#X connect 89 0 93 0;
#X connect 89 0 192 0;
#X connect 94 0 241 0;
#X connect 95 0 241 0;
#X connect 96 0 241 0;
#X connect 97 0 67 0;
#X connect 98 0 62 0;
#X connect 99 0 69 0;
#X connect 100 0 63 0;
#X connect 101 0 73 0;
#X connect 102 0 71 0;
#X connect 103 0 75 0;
#X connect 104 0 72 0;
#X connect 105 0 78 0;
#X connect 106 0 76 0;
#X connect 107 0 33 0;
#X connect 108 0 157 0;
#X connect 124 0 109 0;
#X connect 124 1 113 0;
#X connect 124 2 110 0;
#X connect 124 3 111 0;
#X connect 124 4 112 0;
#X connect 124 5 119 0;
#X connect 124 6 120 0;
#X connect 124 7 121 0;
#X connect 124 8 122 0;
#X connect 124 9 193 0;
#X connect 124 10 123 0;
#X connect 124 11 114 0;
#X connect 124 12 115 0;
#X connect 124 13 116 0;
#X connect 124 14 118 0;
#X connect 124 15 117 0;
#X connect 125 0 108 0;
#X connect 125 1 157 1;
#X connect 125 2 141 0;
#X connect 125 3 142 0;
#X connect 125 4 143 0;
#X connect 125 5 144 0;
#X connect 125 6 145 0;
#X connect 125 7 146 0;
#X connect 125 8 147 0;
#X connect 125 9 148 0;
#X connect 125 10 149 0;
#X connect 125 11 150 0;
#X connect 125 12 151 0;
#X connect 125 13 152 0;
#X connect 125 14 153 0;
#X connect 125 15 154 0;
#X connect 125 16 155 0;
#X connect 125 17 156 0;
#X connect 126 0 141 1;
#X connect 127 0 142 1;
#X connect 128 0 143 1;
#X connect 129 0 144 1;
#X connect 130 0 145 1;
#X connect 131 0 146 1;
#X connect 132 0 147 1;
#X connect 133 0 148 1;
#X connect 134 0 149 1;
#X connect 135 0 151 1;
#X connect 136 0 152 1;
#X connect 137 0 153 1;
#X connect 138 0 154 1;
#X connect 139 0 155 1;
#X connect 140 0 156 1;
#X connect 141 0 157 2;
#X connect 142 0 157 3;
#X connect 143 0 157 4;
#X connect 144 0 157 5;
#X connect 145 0 157 6;
#X connect 146 0 157 7;
#X connect 147 0 157 8;
#X connect 148 0 157 9;
#X connect 149 0 157 10;
#X connect 150 0 157 11;
#X connect 151 0 157 12;
#X connect 152 0 157 13;
#X connect 153 0 157 14;
#X connect 154 0 157 15;
#X connect 155 0 157 16;
#X connect 156 0 157 17;
#X connect 157 0 31 0;
#X connect 164 0 159 0;
#X connect 164 0 161 0;
#X connect 164 0 163 0;
#X connect 164 0 160 0;
#X connect 164 0 162 0;
#X connect 165 0 166 0;
#X connect 165 0 167 0;
#X connect 165 0 168 0;
#X connect 165 0 169 0;
#X connect 165 0 196 0;
#X connect 171 0 170 0;
#X connect 172 0 164 0;
#X connect 172 0 171 0;
#X connect 172 0 165 0;
#X connect 181 0 180 0;
#X connect 182 0 183 0;
#X connect 182 0 181 0;
#X connect 182 0 187 0;
#X connect 182 0 188 0;
#X connect 182 0 189 0;
#X connect 182 0 190 0;
#X connect 182 0 191 0;
#X connect 183 0 174 0;
#X connect 183 0 176 0;
#X connect 183 0 178 0;
#X connect 183 0 175 0;
#X connect 183 0 177 0;
#X connect 187 0 179 0;
#X connect 188 0 184 0;
#X connect 189 0 185 0;
#X connect 190 0 195 0;
#X connect 191 0 186 0;
#X connect 194 0 150 1;
#X connect 206 0 205 0;
#X connect 211 0 212 0;
#X connect 211 0 206 0;
#X connect 211 0 213 0;
#X connect 211 0 214 0;
#X connect 211 0 215 0;
#X connect 211 0 216 0;
#X connect 211 0 217 0;
#X connect 212 0 199 0;
#X connect 212 0 201 0;
#X connect 212 0 203 0;
#X connect 212 0 200 0;
#X connect 212 0 202 0;
#X connect 213 0 204 0;
#X connect 214 0 207 0;
#X connect 215 0 208 0;
#X connect 216 0 210 0;
#X connect 217 0 209 0;
#X connect 229 0 225 0;
#X connect 230 0 231 0;
#X connect 230 0 237 0;
#X connect 230 0 236 0;
#X connect 230 0 229 0;
#X connect 230 0 238 0;
#X connect 230 0 239 0;
#X connect 230 0 240 0;
#X connect 230 0 232 0;
#X connect 230 0 234 0;
#X connect 230 0 235 0;
#X connect 230 0 233 0;
#X connect 230 0 246 0;
#X connect 230 0 245 0;
#X connect 230 0 247 0;
#X connect 231 0 218 0;
#X connect 232 0 219 0;
#X connect 233 0 220 0;
#X connect 234 0 222 0;
#X connect 235 0 221 0;
#X connect 236 0 223 0;
#X connect 237 0 224 0;
#X connect 238 0 226 0;
#X connect 239 0 228 0;
#X connect 240 0 227 0;
#X connect 241 0 8 0;
#X connect 245 0 242 0;
#X connect 246 0 244 0;
#X connect 247 0 243 0;
#X coords 0 -1 1 1 364 224 1 100 100;
