#N canvas 0 0 704 802 10;
#X obj 102 102 cnv 15 200 96 empty empty adsr 4 22 0 16 -33289 -262144
0;
#X obj 221 111 vsl 15 50 0 127 0 0 \$0sus \$0sus_r Sustain -12 76 0
10 -162280 -260097 -262144 2450 1;
#X obj 123 145 hsl 50 15 0.125 127 1 0 \$0att \$0att_r Attack 5 8 0
10 -162280 -260097 -262144 1634 1;
#X obj 124 162 nbx 4 14 -1e+037 1e+037 0 0 empty \$0attshow empty 0
-8 0 11 -99865 -260097 -260097 12.5782 256;
#X obj 247 129 hsl 50 15 0.125 127 1 0 \$0rel \$0rel_r Release 4 8
0 10 -162280 -260097 -262144 1634 1;
#X obj 248 146 nbx 4 14 -1e+037 1e+037 0 0 empty \$0relshow empty 0
-8 0 11 -99865 -260097 -260097 20.1251 256;
#X obj 207 167 nbx 4 14 -1e+037 1e+037 0 0 empty \$0susshow empty 0
-8 0 11 -99865 -260097 -260097 0.5 256;
#X obj -564 316 outlet~;
#X obj 754 -116 loadbang;
#X obj 866 4 s \$0att_r;
#X obj 953 12 s \$0rel_r;
#X msg 1037 -13 63.5;
#X obj 1035 7 s \$0sus_r;
#X msg 854 -22 1.258;
#X obj 1551 -199 r toolssavebank;
#X obj 1761 -282 r toolssavebang;
#X obj 1980 -92 f;
#X obj 1925 -98 f;
#X obj 1835 10 s toolssavelists;
#X obj 1790 -178 f;
#X obj 1553 -81 route;
#X obj 1911 -337 loadbang;
#X obj 1912 -281 \$1;
#X obj 1911 -309 del 5;
#X obj 1790 -219 del;
#X obj 2052 -64 f;
#X obj 1589 106 s \$0rel_r;
#X obj 2104 -97 r \$0rel;
#X obj 2087 -57 f;
#X obj 172 -62 inlet;
#X obj 233 -45 inlet;
#X obj 278 -32 inlet;
#X obj 123 -78 inlet;
#X obj -570 261 *~;
#X obj -541 -145 unpack f f;
#X obj -596 -211 inlet;
#X obj -598 -181 route bang;
#X msg -533 -107 127;
#X obj -570 -77 del;
#X obj 156 110 hsl 50 15 0.25 127 1 0 \$0dec \$0dec_r Decay 8 8 0 10
-162280 -260097 -262144 1271 1;
#X obj 157 127 nbx 4 14 -1e+037 1e+037 0 0 empty \$0decshow empty 0
-8 0 11 -99865 -260097 -260097 5.03347 256;
#X obj -652 -190 inlet~;
#X obj -524 -228 pack f f f;
#X obj -540 -309 r \$0attshow;
#X obj -461 -313 r \$0decshow;
#X obj -439 -296 r \$0relshow;
#X obj -528 -196 sum;
#X obj -501 -258 t b f;
#X obj -452 -261 t b f;
#X msg -570 -32 0;
#X obj 783 10 s \$0dec_r;
#X obj 1553 -111 route adsr;
#X obj 1782 -79 symbol adsr;
#X obj 1788 -127 t b f b b b b;
#X obj 1836 -25 pack s f f f f f;
#X obj 2012 -149 r \$0dec;
#X obj 2074 -125 r \$0sus;
#X obj 1552 -57 unpack f f f f;
#X obj 1529 74 s \$0sus_r;
#X obj 1502 107 s \$0dec_r;
#X obj 1396 78 s \$0att_r;
#X obj -405 20 r \$0att;
#X obj -194 107 r \$0rel;
#X obj -341 -161 r \$0sus;
#X obj -341 -128 / 127;
#X obj -341 289 vline~;
#X obj -105 -149 moses 1;
#X floatatom -104 -117 5 0 0 0 - - -;
#X floatatom -51 -92 5 0 0 0 - - -;
#X obj -297 189 pack f f;
#X obj -52 -116 / 127;
#X obj -409 137 pack f f f f;
#X msg -427 183 \$1 \$2 \, \$3 \$4 \$2;
#X obj -407 89 s \$0attshow;
#X obj -429 -81 s \$0susshow;
#X obj -161 174 s \$0relshow;
#X obj -324 -47 *;
#X obj -308 -106 t b f;
#X obj -338 -76 f;
#X obj -443 107 f;
#X obj -356 47 t b f;
#X obj -72 -61 t f f;
#X obj -80 73 s \$0decshow;
#X obj -83 1 r \$0dec;
#X obj -80 36 * 4;
#X obj -405 53 * 10;
#X obj -194 140 * 16;
#X obj 1946 -180 r \$0att;
#X connect 8 0 13 0;
#X connect 8 0 11 0;
#X connect 11 0 12 0;
#X connect 13 0 9 0;
#X connect 13 0 10 0;
#X connect 13 0 50 0;
#X connect 14 0 51 0;
#X connect 15 0 24 0;
#X connect 16 0 54 3;
#X connect 17 0 54 2;
#X connect 19 0 53 0;
#X connect 20 0 57 0;
#X connect 21 0 23 0;
#X connect 22 0 19 1;
#X connect 22 0 20 1;
#X connect 22 0 24 1;
#X connect 23 0 22 0;
#X connect 24 0 19 0;
#X connect 25 0 54 4;
#X connect 27 0 28 1;
#X connect 28 0 54 5;
#X connect 29 0 39 0;
#X connect 30 0 1 0;
#X connect 31 0 4 0;
#X connect 32 0 2 0;
#X connect 33 0 7 0;
#X connect 34 1 66 0;
#X connect 35 0 36 0;
#X connect 36 0 37 0;
#X connect 36 0 38 0;
#X connect 36 1 34 0;
#X connect 37 0 66 0;
#X connect 38 0 49 0;
#X connect 41 0 33 0;
#X connect 42 0 46 0;
#X connect 43 0 42 0;
#X connect 44 0 47 0;
#X connect 45 0 48 0;
#X connect 46 0 38 1;
#X connect 47 0 42 0;
#X connect 47 1 42 1;
#X connect 48 0 42 0;
#X connect 48 1 42 2;
#X connect 49 0 66 0;
#X connect 51 0 20 0;
#X connect 52 0 54 0;
#X connect 53 0 52 0;
#X connect 53 1 54 1;
#X connect 53 2 17 0;
#X connect 53 3 16 0;
#X connect 53 4 25 0;
#X connect 53 5 28 0;
#X connect 54 0 18 0;
#X connect 55 0 16 1;
#X connect 56 0 25 1;
#X connect 57 0 60 0;
#X connect 57 1 59 0;
#X connect 57 2 58 0;
#X connect 57 3 26 0;
#X connect 61 0 85 0;
#X connect 62 0 86 0;
#X connect 63 0 64 0;
#X connect 64 0 74 0;
#X connect 64 0 78 1;
#X connect 65 0 33 1;
#X connect 66 0 67 0;
#X connect 66 1 70 0;
#X connect 67 0 69 0;
#X connect 68 0 81 0;
#X connect 69 0 65 0;
#X connect 70 0 68 0;
#X connect 71 0 72 0;
#X connect 72 0 65 0;
#X connect 76 0 80 0;
#X connect 77 0 78 0;
#X connect 77 1 76 1;
#X connect 78 0 76 0;
#X connect 79 0 71 0;
#X connect 80 0 79 0;
#X connect 80 1 71 2;
#X connect 81 0 77 0;
#X connect 81 1 79 1;
#X connect 83 0 84 0;
#X connect 84 0 82 0;
#X connect 84 0 71 3;
#X connect 85 0 71 1;
#X connect 85 0 73 0;
#X connect 86 0 69 1;
#X connect 86 0 75 0;
#X connect 87 0 17 1;
#X coords 0 -1 1 1 202 100 1 100 100;
