#N canvas 0 0 1440 818 10;
#X obj 114 358 phasor~;
#X obj -24 400 cos~;
#X obj -24 428 +~ 1;
#X obj -24 454 *~ 0.5;
#X obj -5 527 *~;
#X obj 106 440 cos~;
#X obj 106 468 +~ 1;
#X obj 106 494 *~ 0.5;
#X obj 125 538 *~;
#X obj 236 440 cos~;
#X obj 236 468 +~ 1;
#X obj 236 494 *~ 0.5;
#X obj 255 538 *~;
#X obj 236 405 +~ 0.66;
#X obj 106 405 +~ 0.33;
#X obj -5 593 *~ 0.33;
#X obj 125 593 *~ 0.33;
#X obj 255 593 *~ 0.33;
#X obj -253 154 inlet~;
#X obj 102 102 cnv 15 116 175 empty empty chorus 12 12 0 24 -233017
-1 0;
#X obj 120 235 hsl 80 20 0.127 127 1 0 \$0speed_ctl \$0speed_ctl_r
speed 20 -8 0 12 -99865 -260097 -1 400 1;
#X obj 167 147 vsl 20 50 0 127 0 0 \$0depth_ctl \$0depth_ctl_r depth
0 -9 0 12 -99865 -260097 -1 2600 1;
#X obj 118 147 vsl 20 50 0 127 0 0 \$0wet \$0wet_r wet 0 -9 0 12 -99865
-260097 -1 4900 1;
#X obj 133 256 nbx 5 14 -1e+037 1e+037 0 0 \$0speedshow_s \$0speedshow
empty 0 -8 0 10 -262144 -1 -1 0.257911 256;
#X obj 167 201 nbx 4 15 -1e+037 1e+037 0 0 \$0depshow_s \$0depshow
empty 0 -8 0 10 -262144 -1 -1 26.5541 256;
#X obj 118 201 nbx 3 14 -1e+037 1e+037 0 0 \$0wetshow_s \$0wetshow
empty 0 -8 0 10 -262144 -1 -1 1 256;
#X obj -225 657 outlet~;
#X obj -240 546 *~;
#X obj -139 541 *~;
#X obj -186 334 r \$0wet;
#X obj -186 367 / 127;
#X obj -200 405 - 1;
#X obj -207 431 abs;
#X floatatom -208 455 5 0 0 0 - - -;
#X floatatom -145 428 5 0 0 0 - - -;
#X obj -226 517 line~;
#X msg -224 490 \$1 15;
#X obj -122 500 line~;
#X msg -120 473 \$1 15;
#X obj 36 414 r \$0depth;
#X obj 122 295 r \$0speed;
#X obj -173 265 delwrite~ \$0CHORUS 10000;
#X obj -5 570 vd~ \$0CHORUS;
#X obj 125 572 vd~ \$0CHORUS;
#X obj 255 571 vd~ \$0CHORUS;
#X obj -141 455 s \$0wetshow;
#X obj -155 126 * 0.393307;
#X obj -161 151 + 0.05;
#X obj -170 181 s \$0depth;
#X obj -20 174 * 0.0393307;
#X obj -21 148 r \$0speed_ctl;
#X obj -21 197 + 0.005;
#X obj -22 229 s \$0speed;
#X obj -129 216 s \$0depshow;
#X obj -7 264 s \$0speedshow;
#X obj 177 57 inlet;
#X obj 123 51 inlet;
#X obj 222 57 inlet;
#X obj 346 168 loadbang;
#X obj 357 259 s \$0wet_r;
#X obj 318 297 s \$0speed_ctl_r;
#X msg 331 208 63.5;
#X obj 509 357 r toolssavebank;
#X obj 719 274 r toolssavebang;
#X obj 938 464 f;
#X obj 883 458 f;
#X obj 793 566 s toolssavelists;
#X obj 748 378 f;
#X obj 511 475 route;
#X obj 869 219 loadbang;
#X obj 870 275 \$1;
#X obj 869 247 del 5;
#X obj 748 337 del;
#X obj 793 523 pack s f f f f;
#X obj 1010 492 f;
#X obj 746 427 t b f b b b;
#X obj 512 501 unpack f f f;
#X obj 511 445 route chorus;
#X obj 740 478 symbol chorus;
#X obj 480 559 s \$0wet_r;
#X obj 545 536 s $depth_ctl_r;
#X obj 584 562 s \$0speed_ctl_r;
#X obj 927 366 r \$0wet;
#X obj 1057 364 r $depth_ctl;
#X obj 1154 396 r \$0speed_ctl;
#X obj 115 339 line~;
#X msg 120 316 \$1 15;
#X obj 32 500 line~;
#X msg 54 472 \$1 15;
#X msg 298 250 5;
#X msg 414 207 26;
#X obj 480 241 s \$0depth_ctl_r;
#X obj -156 94 r \$0depth_ctl;
#X connect 0 0 1 0;
#X connect 0 0 14 0;
#X connect 0 0 13 0;
#X connect 1 0 2 0;
#X connect 2 0 3 0;
#X connect 3 0 4 0;
#X connect 4 0 42 0;
#X connect 5 0 6 0;
#X connect 6 0 7 0;
#X connect 7 0 8 0;
#X connect 8 0 43 0;
#X connect 9 0 10 0;
#X connect 10 0 11 0;
#X connect 11 0 12 0;
#X connect 12 0 44 0;
#X connect 13 0 9 0;
#X connect 14 0 5 0;
#X connect 15 0 28 0;
#X connect 16 0 28 0;
#X connect 17 0 28 0;
#X connect 18 0 27 0;
#X connect 18 0 41 0;
#X connect 27 0 26 0;
#X connect 28 0 26 0;
#X connect 29 0 30 0;
#X connect 30 0 31 0;
#X connect 30 0 34 0;
#X connect 31 0 32 0;
#X connect 32 0 33 0;
#X connect 33 0 36 0;
#X connect 34 0 38 0;
#X connect 34 0 45 0;
#X connect 35 0 27 1;
#X connect 36 0 35 0;
#X connect 37 0 28 1;
#X connect 38 0 37 0;
#X connect 39 0 88 0;
#X connect 40 0 86 0;
#X connect 42 0 15 0;
#X connect 43 0 16 0;
#X connect 44 0 17 0;
#X connect 46 0 47 0;
#X connect 47 0 48 0;
#X connect 47 0 53 0;
#X connect 49 0 51 0;
#X connect 50 0 49 0;
#X connect 51 0 52 0;
#X connect 51 0 54 0;
#X connect 55 0 21 0;
#X connect 56 0 22 0;
#X connect 57 0 20 0;
#X connect 58 0 61 0;
#X connect 58 0 89 0;
#X connect 58 0 90 0;
#X connect 61 0 59 0;
#X connect 62 0 77 0;
#X connect 63 0 72 0;
#X connect 64 0 73 3;
#X connect 65 0 73 2;
#X connect 67 0 75 0;
#X connect 68 0 76 0;
#X connect 69 0 71 0;
#X connect 70 0 67 1;
#X connect 70 0 68 1;
#X connect 70 0 72 1;
#X connect 71 0 70 0;
#X connect 72 0 67 0;
#X connect 73 0 66 0;
#X connect 74 0 73 4;
#X connect 75 0 78 0;
#X connect 75 1 73 1;
#X connect 75 2 65 0;
#X connect 75 3 64 0;
#X connect 75 4 74 0;
#X connect 76 0 79 0;
#X connect 76 1 80 0;
#X connect 76 2 81 0;
#X connect 77 0 68 0;
#X connect 78 0 73 0;
#X connect 82 0 65 1;
#X connect 83 0 64 1;
#X connect 84 0 74 1;
#X connect 85 0 0 0;
#X connect 86 0 85 0;
#X connect 87 0 4 1;
#X connect 87 0 8 1;
#X connect 87 0 12 1;
#X connect 88 0 87 0;
#X connect 89 0 60 0;
#X connect 90 0 91 0;
#X connect 92 0 46 0;
#X coords 0 -1 1 1 120 179 1 100 100;
