#N canvas 213 216 1125 533 10;
#X obj 193 316 f;
#X obj 228 317 + 1;
#X obj 195 268 metro;
#X obj 270 78 r \$0bpm;
#X msg 271 204 60000;
#X obj 271 225 /;
#X obj 271 177 t b f;
#X obj 190 206 loadbang;
#X obj 191 240 tgl 15 0 empty empty empty 17 7 0 10 -262144 -1 -1 1
1;
#X obj 336 268 f;
#X obj 337 219 sel 0;
#X obj 102 102 cnv 15 52 128 empty empty Clock 6 12 0 14 -33289 -260097
0;
#X obj 112 126 vsl 30 60 1.27 127 1 0 \$0bpm \$0bpm_r Bpm 2 74 0 14
-162280 -260097 -262144 3111 1;
#X obj 109 209 nbx 3 14 -1e+037 1e+037 0 0 \$0bpm_show_s \$0bpm_show
empty 0 -8 0 10 -228856 -1 -1 120 256 0;
#X obj 268 155 int;
#X obj 175 179 s \$0bpm_show;
#X obj 270 127 + 11;
#X obj 270 105 * 7.6;
#X obj 395 129 loadbang;
#X obj 402 184 s \$0bpm_r;
#X msg 392 159 14.4;
#X obj 214 542 outlet;
#X msg 218 511 Pulse \$1;
#X msg 297 499 BPM \$1;
#X obj 486 282 r toolssavebank;
#X obj 697 146 r toolssavebang;
#X obj 861 330 f;
#X obj 771 438 s toolssavelists;
#X obj 726 250 f;
#X obj 489 347 route;
#X obj 847 91 loadbang;
#X obj 848 147 \$1;
#X obj 847 119 del 5;
#X obj 726 209 del;
#X obj 724 299 t b f b b;
#X obj 771 395 pack s f f;
#X obj 489 317 route clock;
#X obj 718 350 symbol clock;
#X obj 485 458 s \$0bpm_r;
#X obj 876 289 r \$0bpm;
#X obj 193 344 % 32;
#X obj 271 252 / 8;
#X obj 193 372 select 0 2 4 6 8 10 12 14 16 18 20 22 24 26 28 30;
#X floatatom 223 462 5 0 0 0 - - -, f 5;
#X msg 111 409 0;
#X msg 139 410 1;
#X msg 167 410 2;
#X msg 195 411 3;
#X msg 227 411 4;
#X msg 255 412 5;
#X msg 283 412 6;
#X msg 312 414 7;
#X msg 341 413 8;
#X msg 369 414 9;
#X msg 397 413 10;
#X msg 425 415 11;
#X msg 457 415 12;
#X msg 485 416 13;
#X msg 513 416 14;
#X msg 542 417 15;
#X msg 139 509 Phase \$1;
#X obj 138 68 inlet;
#X connect 0 0 1 0;
#X connect 0 0 40 0;
#X connect 1 0 0 1;
#X connect 2 0 0 0;
#X connect 3 0 17 0;
#X connect 4 0 5 0;
#X connect 5 0 41 0;
#X connect 6 0 4 0;
#X connect 6 1 5 1;
#X connect 7 0 8 0;
#X connect 8 0 2 0;
#X connect 9 0 23 0;
#X connect 10 0 9 0;
#X connect 14 0 6 0;
#X connect 14 0 15 0;
#X connect 14 0 9 1;
#X connect 16 0 14 0;
#X connect 17 0 16 0;
#X connect 18 0 20 0;
#X connect 20 0 19 0;
#X connect 22 0 21 0;
#X connect 23 0 21 0;
#X connect 24 0 36 0;
#X connect 25 0 33 0;
#X connect 26 0 35 2;
#X connect 28 0 34 0;
#X connect 29 0 38 0;
#X connect 30 0 32 0;
#X connect 31 0 28 1;
#X connect 31 0 29 1;
#X connect 31 0 33 1;
#X connect 32 0 31 0;
#X connect 33 0 28 0;
#X connect 34 0 37 0;
#X connect 34 1 35 1;
#X connect 34 2 26 0;
#X connect 35 0 27 0;
#X connect 36 0 29 0;
#X connect 37 0 35 0;
#X connect 39 0 26 1;
#X connect 40 0 42 0;
#X connect 40 0 60 0;
#X connect 40 0 10 0;
#X connect 41 0 2 1;
#X connect 42 0 44 0;
#X connect 42 1 45 0;
#X connect 42 2 46 0;
#X connect 42 3 47 0;
#X connect 42 4 48 0;
#X connect 42 5 49 0;
#X connect 42 6 50 0;
#X connect 42 7 51 0;
#X connect 42 8 52 0;
#X connect 42 9 53 0;
#X connect 42 10 54 0;
#X connect 42 11 55 0;
#X connect 42 12 56 0;
#X connect 42 13 57 0;
#X connect 42 14 58 0;
#X connect 42 15 59 0;
#X connect 43 0 22 0;
#X connect 44 0 43 0;
#X connect 45 0 43 0;
#X connect 46 0 43 0;
#X connect 47 0 43 0;
#X connect 48 0 43 0;
#X connect 49 0 43 0;
#X connect 50 0 43 0;
#X connect 51 0 43 0;
#X connect 52 0 43 0;
#X connect 53 0 43 0;
#X connect 54 0 43 0;
#X connect 55 0 43 0;
#X connect 56 0 43 0;
#X connect 57 0 43 0;
#X connect 58 0 43 0;
#X connect 59 0 43 0;
#X connect 60 0 21 0;
#X connect 61 0 12 0;
#X coords 0 -1 1 1 56 132 1 100 100;
