#N canvas 0 0 1440 818 10;
#X obj -1 154 ctlin;
#X floatatom 12 187 5 0 0 0 - - -;
#X floatatom 26 219 5 0 0 0 - - -;
#X obj 26 291 s \$0showchannelnumber;
#X obj 12 262 s \$0showcontrolnumber;
#X obj -188 299 f;
#X obj -215 335 sel 1;
#X obj -188 117 bng 15 250 50 0 empty \$0hitit empty 17 7 0 10 -262144
-1 -1;
#X obj -326 205 ctlin;
#X floatatom -313 239 5 0 0 0 - - -;
#X floatatom -298 268 5 0 0 0 - - -;
#X msg -256 354 1;
#X obj -326 409 spigot;
#X obj -325 448 spigot;
#X obj -66 352 f;
#X obj -160 374 sel 1;
#X msg -240 381 0;
#X msg -206 415 1;
#X msg -190 442 0;
#X obj -40 317 r \$0activechannel_r;
#X obj -69 451 s \$0activechannel;
#X obj 357 640 r toolssavebank;
#X obj 567 557 r toolssavebang;
#X obj 731 741 f;
#X obj 641 849 s toolssavelists;
#X obj 596 661 f;
#X obj 359 758 route;
#X obj 717 502 loadbang;
#X obj 718 558 \$1;
#X obj 717 530 del 5;
#X obj 596 620 del;
#X obj 594 710 t b f b b;
#X obj 101 102 cnv 15 94 92 empty empty control 5 10 0 12 -99865 -260097
0;
#X obj 104 151 bng 20 250 50 0 \$0hitit \$0hitit_r zuweisen 24 10 0
10 -228856 -260097 -262144;
#X obj 103 133 nbx 3 14 -1e+037 1e+037 0 0 \$0showcontrolnumber_s \$0showcontrolnumber
control 0 -7 0 10 -228856 -1 -1 19 256;
#X obj 151 133 nbx 3 14 -1e+037 1e+037 0 0 \$0showchannelnumber_s \$0showchannelnumber
channel 0 -8 0 10 -228856 -1 -1 1 256;
#X obj 103 175 nbx 3 14 -1e+037 1e+037 0 0 \$0activectl_s \$0activectl
empty 0 -8 0 10 -228856 -1 -1 1 256;
#X obj 151 175 nbx 3 14 -1e+037 1e+037 0 0 \$0activechannel_s \$0activechannel
empty 0 -8 0 10 -228856 -1 -1 19 256;
#X obj 849 757 f;
#X obj 588 761 symbol control;
#X obj 359 728 route control;
#X obj 362 784 unpack f f;
#X obj 641 806 pack s f f f;
#X obj 746 701 r \$0activechannel;
#X obj 875 719 r \$0activectl;
#X obj 304 836 s \$0activechannel_r;
#X obj 433 854 s \$0activectl_r;
#X obj -323 492 outlet;
#X obj -159 326 s \$0activectl;
#X obj -163 237 r \$0activectl_r;
#X connect 0 1 1 0;
#X connect 0 2 2 0;
#X connect 1 0 4 0;
#X connect 1 0 5 1;
#X connect 2 0 3 0;
#X connect 2 0 14 1;
#X connect 5 0 6 1;
#X connect 5 0 48 0;
#X connect 6 0 11 0;
#X connect 6 1 16 0;
#X connect 7 0 5 0;
#X connect 7 0 14 0;
#X connect 8 0 12 0;
#X connect 8 1 9 0;
#X connect 8 2 10 0;
#X connect 9 0 6 0;
#X connect 10 0 15 0;
#X connect 11 0 12 1;
#X connect 12 0 13 0;
#X connect 13 0 47 0;
#X connect 14 0 15 1;
#X connect 14 0 20 0;
#X connect 15 0 17 0;
#X connect 15 1 18 0;
#X connect 16 0 12 1;
#X connect 17 0 13 1;
#X connect 18 0 13 1;
#X connect 19 0 14 0;
#X connect 21 0 40 0;
#X connect 22 0 30 0;
#X connect 23 0 42 2;
#X connect 25 0 31 0;
#X connect 26 0 41 0;
#X connect 27 0 29 0;
#X connect 28 0 25 1;
#X connect 28 0 26 1;
#X connect 28 0 30 1;
#X connect 29 0 28 0;
#X connect 30 0 25 0;
#X connect 31 0 39 0;
#X connect 31 1 42 1;
#X connect 31 2 23 0;
#X connect 31 3 38 0;
#X connect 38 0 42 3;
#X connect 39 0 42 0;
#X connect 40 0 26 0;
#X connect 41 0 45 0;
#X connect 41 1 46 0;
#X connect 42 0 24 0;
#X connect 43 0 23 1;
#X connect 44 0 38 1;
#X connect 49 0 5 0;
#X coords 0 -1 1 1 96 96 1 100 100;
