#N canvas 0 0 1423 798 10;
#X obj -334 442 wrap~;
#X obj -350 483 -~;
#X obj -334 422 +~ 0.1;
#X obj -334 463 -~ 0.1;
#X obj -417 152 inlet~;
#X obj -414 652 outlet~;
#X obj -350 402 *~ 32767;
#X obj -350 503 /~ 32767;
#X obj 65 353 / 127;
#X msg 41 514 2;
#X obj 87 510 t b f;
#X obj 84 551 pow;
#X obj 88 442 int;
#X obj 92 602 / 2;
#X obj 44 613 int;
#X obj 65 372 * 23;
#X obj 67 412 + 1;
#X obj 101 102 cnv 15 88 106 empty empty crush 32 12 0 18 -233017 -1
0;
#X obj 107 107 vsl 20 70 1.27 127 1 0 \$0Bitdepth \$0Bitdepth_r empty
0 -9 0 10 -99865 -260097 -1 350 1;
#X obj 107 181 nbx 4 20 -1e+037 1e+037 0 0 \$0bitshow_s \$0bitshow
empty 84 14 0 12 -262144 -1 -1 2 256 0;
#X obj 147 145 tgl 25 0 \$0on \$0on_r an 5 -8 0 12 -99865 -260097 -1
1 1;
#X obj 61 317 r \$0Bitdepth;
#X obj 102 468 s \$0bitshow;
#X obj -409 284 *~;
#X obj -350 597 *~;
#X obj -325 19 r \$0on;
#X obj -330 128 abs;
#X obj -283 178 line~;
#X obj -327 179 line~;
#X msg -333 152 \$1 10;
#X msg -283 155 \$1 10;
#X obj -329 102 - 1;
#X obj 396 82 loadbang;
#X obj 405 448 r toolssavebank;
#X obj 509 314 r toolssavebang;
#X obj 673 498 f;
#X obj 583 606 s toolssavelists;
#X obj 538 418 f;
#X obj 408 513 route;
#X obj 659 259 loadbang;
#X obj 660 315 \$1;
#X obj 659 287 del 5;
#X obj 538 377 del;
#X obj 688 458 r \$0Bitdepth;
#X obj 405 609 s \$0Bitdepth_r;
#X obj 753 490 r \$0on;
#X obj 733 521 f;
#X obj 584 563 pack s f f f;
#X obj 536 467 t b f b b;
#X obj 409 551 unpack f f;
#X obj 458 582 s \$0on_r;
#X obj 427 182 s \$0Bitdepth_r;
#X msg 427 156 127;
#X obj 544 158 s \$0on_r;
#X msg 521 120 1;
#X obj 408 483 route crush;
#X obj 530 518 symbol crush;
#X obj 162 42 inlet;
#X obj 181 66 inlet;
#X connect 0 0 3 0;
#X connect 1 0 7 0;
#X connect 2 0 0 0;
#X connect 3 0 1 1;
#X connect 4 0 23 0;
#X connect 4 0 6 0;
#X connect 6 0 2 0;
#X connect 6 0 1 0;
#X connect 7 0 24 0;
#X connect 8 0 15 0;
#X connect 9 0 11 0;
#X connect 10 0 9 0;
#X connect 10 1 11 1;
#X connect 11 0 13 0;
#X connect 12 0 22 0;
#X connect 13 0 14 0;
#X connect 14 0 6 1;
#X connect 14 0 7 1;
#X connect 15 0 16 0;
#X connect 16 0 12 0;
#X connect 16 0 10 0;
#X connect 21 0 8 0;
#X connect 23 0 5 0;
#X connect 24 0 5 0;
#X connect 25 0 30 0;
#X connect 25 0 31 0;
#X connect 26 0 29 0;
#X connect 27 0 24 1;
#X connect 28 0 23 1;
#X connect 29 0 28 0;
#X connect 30 0 27 0;
#X connect 31 0 26 0;
#X connect 32 0 52 0;
#X connect 32 0 54 0;
#X connect 33 0 55 0;
#X connect 34 0 42 0;
#X connect 35 0 47 2;
#X connect 37 0 48 0;
#X connect 38 0 49 0;
#X connect 39 0 41 0;
#X connect 40 0 37 1;
#X connect 40 0 38 1;
#X connect 40 0 42 1;
#X connect 41 0 40 0;
#X connect 42 0 37 0;
#X connect 43 0 35 1;
#X connect 45 0 46 1;
#X connect 46 0 47 3;
#X connect 47 0 36 0;
#X connect 48 0 56 0;
#X connect 48 1 47 1;
#X connect 48 2 35 0;
#X connect 48 3 46 0;
#X connect 49 0 44 0;
#X connect 49 1 50 0;
#X connect 52 0 51 0;
#X connect 54 0 53 0;
#X connect 55 0 38 0;
#X connect 56 0 47 0;
#X connect 57 0 18 0;
#X connect 58 0 20 0;
#X coords 0 -1 1 1 90 110 1 100 100;
