#N canvas 123 70 1280 693 10;
#X obj 397 89 inlet~;
#X obj 603 169 *~;
#X obj 637 132 line~;
#X msg 635 106 \$1 10;
#X obj 637 32 r \$0fb;
#X obj 517 311 *~;
#X obj 583 335 line~;
#X msg 581 309 \$1 10;
#X obj 587 220 r \$0vol;
#X obj 450 140 delwrite~ \$0del 2000;
#X obj 388 372 outlet~;
#X obj 389 338 +~;
#X obj 101 102 cnv 15 148 180 empty empty delayertoo 5 12 0 18 -233017
-1 0;
#X obj 111 233 hsl 100 20 0.127 127 1 0 \$0deltime \$0deltime_r Time
38 -12 0 16 -99865 -260097 -1 2957 1;
#X obj 108 147 vsl 20 70 0 127 0 0 \$0fb \$0fb_r Feedback 0 -9 0 14
-99865 -260097 -1 0 1;
#X obj 194 154 vsl 20 50 0 127 0 0 \$0vol \$0vol_r dry/wet -2 -14 0
12 -99865 -260097 -1 3200 1;
#X obj 108 254 nbx 5 16 -1e+037 1e+037 0 0 \$0timeshow_s \$0timeshow
empty 0 -8 0 12 -262144 -1 -1 15.7431 256 0;
#X obj 129 148 nbx 4 16 -1e+037 1e+037 0 0 \$0fbshow_s \$0fbshow empty
0 -8 0 12 -262144 -1 -1 0 256 0;
#X obj 194 208 nbx 4 14 -1e+037 1e+037 0 0 \$0volshow_s \$0volshow
empty 0 -8 0 12 -262144 -1 -1 0.653061 256 0;
#X obj 641 70 / 127;
#X obj 712 92 s \$0fbshow;
#X obj 464 77 * 15.748;
#X obj 466 40 r \$0deltime;
#X floatatom 464 99 5 0 0 0 - - -, f 5;
#X obj 537 105 s \$0timeshow;
#X obj 855 135 loadbang;
#X msg 851 166 1;
#X obj 832 199 s \$0deltime_r;
#X obj 585 250 / 127;
#X obj 658 276 s \$0volshow;
#X obj 924 195 s \$0vol_r;
#X obj 357 493 r toolssavebank;
#X obj 567 410 r toolssavebang;
#X obj 786 600 f;
#X obj 731 594 f;
#X obj 641 702 s toolssavelists;
#X obj 596 514 f;
#X obj 359 611 route;
#X obj 717 355 loadbang;
#X obj 718 411 \$1;
#X obj 717 383 del 5;
#X obj 596 473 del;
#X obj 1002 185 s \$0fb_r;
#X obj 641 659 pack s f f f f;
#X obj 858 628 f;
#X obj 775 502 r \$0deltime;
#X obj 905 500 r \$0vol;
#X obj 1002 532 r \$0fb;
#X obj 594 563 t b f b b b;
#X obj 360 637 unpack f f f;
#X obj 328 695 s \$0deltime_r;
#X obj 393 672 s \$0vol_r;
#X obj 432 698 s \$0fb_r;
#X obj 894 61 inlet;
#X obj 938 63 inlet;
#X obj 985 61 inlet;
#X obj 469 217 delread~ \$0del;
#X msg 915 160 0;
#X obj 387 291 *~;
#X obj 445 251 -~ 1;
#X obj 445 275 abs~;
#X obj 588 614 symbol delayertoo;
#X obj 359 581 route delayertoo;
#X connect 0 0 9 0;
#X connect 0 0 58 0;
#X connect 1 0 9 0;
#X connect 2 0 1 1;
#X connect 3 0 2 0;
#X connect 4 0 19 0;
#X connect 5 0 11 1;
#X connect 6 0 5 1;
#X connect 6 0 59 0;
#X connect 7 0 6 0;
#X connect 8 0 28 0;
#X connect 11 0 10 0;
#X connect 19 0 3 0;
#X connect 19 0 20 0;
#X connect 21 0 23 0;
#X connect 22 0 21 0;
#X connect 23 0 24 0;
#X connect 23 0 56 0;
#X connect 25 0 26 0;
#X connect 25 0 57 0;
#X connect 26 0 27 0;
#X connect 28 0 7 0;
#X connect 28 0 29 0;
#X connect 31 0 62 0;
#X connect 32 0 41 0;
#X connect 33 0 43 3;
#X connect 34 0 43 2;
#X connect 36 0 48 0;
#X connect 37 0 49 0;
#X connect 38 0 40 0;
#X connect 39 0 36 1;
#X connect 39 0 37 1;
#X connect 39 0 41 1;
#X connect 40 0 39 0;
#X connect 41 0 36 0;
#X connect 43 0 35 0;
#X connect 44 0 43 4;
#X connect 45 0 34 1;
#X connect 46 0 33 1;
#X connect 47 0 44 1;
#X connect 48 0 61 0;
#X connect 48 1 43 1;
#X connect 48 2 34 0;
#X connect 48 3 33 0;
#X connect 48 4 44 0;
#X connect 49 0 50 0;
#X connect 49 1 51 0;
#X connect 49 2 52 0;
#X connect 53 0 14 0;
#X connect 54 0 13 0;
#X connect 55 0 15 0;
#X connect 56 0 1 0;
#X connect 56 0 5 0;
#X connect 57 0 30 0;
#X connect 58 0 11 0;
#X connect 59 0 60 0;
#X connect 60 0 58 1;
#X connect 61 0 43 0;
#X connect 62 0 37 0;
#X coords 0 -1 1 1 150 184 1 100 100;
