#N canvas 0 0 1423 798 10;
#X obj -1215 394 delwrite~ \$0comp 5000;
#X obj -1082 489 *~;
#X floatatom -1046 412 5 0 0 0 - - -, f 5;
#X floatatom -1193 597 5 0 0 0 - - -, f 5;
#X obj -1485 757 +~;
#X obj -1269 761 delwrite~ \$0comp2 5000;
#X obj -1480 989 +~;
#X obj -1264 1041 delwrite~ \$0comp3 5000;
#X obj -1480 1332 +~;
#X obj -1195 627 delread~ \$0comp;
#X text -484 412 Außerdem die Delreads aus früheren Delayline lesen
lassen. Dabei alle Kombis zulassen/ausprobieren;
#X obj -1196 729 spigot~;
#X floatatom -1089 594 5 0 0 0 - - -, f 5;
#X floatatom -980 594 5 0 0 0 - - -, f 5;
#X obj -982 624 delread~ \$0comp3;
#X obj -1091 624 delread~ \$0comp2;
#X obj -1009 493 *~;
#X floatatom -973 416 5 0 0 0 - - -, f 5;
#X obj -915 489 *~;
#X floatatom -879 412 5 0 0 0 - - -, f 5;
#X obj -866 868 *~;
#X floatatom -976 906 5 0 0 0 - - -, f 5;
#X obj -978 936 delread~ \$0comp;
#X obj -978 1008 spigot~;
#X obj -939 982 tgl 15 0 empty empty empty 17 7 0 10 -262144 -1 -1
1 1;
#X floatatom -870 911 5 0 0 0 - - -, f 5;
#X floatatom -761 911 5 0 0 0 - - -, f 5;
#X obj -763 941 delread~ \$0comp3;
#X obj -872 941 delread~ \$0comp2;
#X obj -910 1009 spigot~;
#X obj -871 983 tgl 15 0 empty empty empty 17 7 0 10 -262144 -1 -1
1 1;
#X obj -790 879 *~;
#X obj -674 888 *~;
#X obj -1045 1228 *~;
#X floatatom -1156 1267 5 0 0 0 - - -, f 5;
#X obj -1158 1297 delread~ \$0comp;
#X obj -1160 1361 spigot~;
#X obj -1121 1335 tgl 15 0 empty empty empty 17 7 0 10 -262144 -1 -1
1 1;
#X floatatom -1035 1269 5 0 0 0 - - -, f 5;
#X floatatom -944 1264 5 0 0 0 - - -, f 5;
#X obj -945 1294 delread~ \$0comp3;
#X obj -1054 1294 delread~ \$0comp2;
#X obj -1092 1362 spigot~;
#X obj -1053 1336 tgl 15 0 empty empty empty 17 7 0 10 -262144 -1 -1
1 1;
#X obj -971 1356 spigot~;
#X obj -919 1339 tgl 15 0 empty empty empty 17 7 0 10 -262144 -1 -1
1 1;
#X obj -972 1232 *~;
#X obj -878 1228 *~;
#X text -545 246 Man darf im Feedback Network nur auf frühere Delaylines
zurückgreifen. Bsp. bei Delread 1 auf die 3 Vorzugreifen verursacht
Feedbacks \, die sich allerdings musikalisch einsetzen lassen.;
#X text -486 366 Das Feedback kann in 'fremden' Delraeds frei geregelt
werden und erzeugt keine Schleifen \, WENN FRÜHERE DELREADS in SPÄTERE
DELWRITES SCHREIBEN. SONST FEEDBACK.;
#X text -678 774 produziert geiles FB;
#X text -994 388 PRODUZIERT GEILE FBs;
#X text -862 272 Produziert HArte FBs;
#X obj 745 700 unpack 0 0 0;
#X obj 546 717 unpack 0 0 0;
#X obj 387 666 unpack 0 0 0;
#X text -815 167 Die Generierten Werte die Delaytime müssen in den
unteren Bereichen wahrscheinlihcer sein!!!!!!;
#X obj -1487 202 inlet~;
#X obj -1165 667 r \$0on1;
#X obj -1158 704 tgl 15 0 empty empty empty 17 7 0 10 -262144 -1 -1
1 1;
#X obj -860 964 r \$0on3;
#X obj -929 961 r \$0on2;
#X obj -804 1275 r \$0on4;
#X obj -735 1278 r \$0on5;
#X obj -665 1278 r \$0on6;
#X obj 548 622 r \$0random;
#X obj 751 621 r \$0random;
#X obj 101 102 cnv 15 350 330 empty empty DelayNet 10 315 0 18 -233017
-66577 0;
#X obj 166 125 tgl 20 0 \$0on1 \$0on1_r on 4 9 0 10 -128992 -260097
-262144 1 1;
#X obj 129 113 vsl 15 60 0 127 0 0 \$0-1-1_fb \$0-1-1_fb_r fb 1 30
0 10 -128992 -260097 -262144 5200 1;
#X obj 149 161 hsl 60 15 1.27 127 1 0 \$0-1-1_pos \$0-1-1_pos_r position
7 7 0 10 -128992 -260097 -262144 4057 1;
#X obj 244 114 vsl 15 60 0 127 0 0 \$0-1-2_fb \$0-1-2_fb_r fb 1 30
0 10 -128992 -258113 -262144 0 1;
#X obj 359 113 vsl 15 60 0 127 0 0 \$0-1-3_fb \$0-1-3_fb_r fb 1 30
0 10 -128992 -258113 -262144 0 1;
#X obj 165 220 tgl 20 0 \$0on2 \$0on2_r on 4 9 0 10 -128992 -260097
-262144 1 1;
#X obj 128 208 vsl 15 60 0 127 0 0 \$0-2-1_fb \$0-2-1_fb_r fb 1 30
0 10 -128992 -260097 -262144 0 1;
#X obj 148 255 hsl 60 15 1.27 127 1 0 \$0-2-1_pos \$0-2-1_pos_r position
7 7 0 10 -128992 -260097 -262144 4771 1;
#X obj 278 220 tgl 20 0 \$0on3 \$0on3_r on 4 9 0 10 -128992 -260097
-262144 1 1;
#X obj 241 208 vsl 15 60 0 127 0 0 \$0-2-2_fb \$0-2-2_fb_r fb 1 30
0 10 -128992 -260097 -262144 3800 1;
#X obj 261 256 hsl 60 15 1.27 127 1 0 \$0-2-2_pos \$0-2-2_pos_r position
7 7 0 10 -128992 -260097 -262144 4145 1;
#X obj 360 207 vsl 15 60 0 127 0 0 \$0-2-3_fb \$0-2-3_fb_r fb 1 30
0 10 -128992 -258113 -262144 0 1;
#X obj 165 316 tgl 20 0 \$0on4 \$0on4_r on 4 9 0 10 -128992 -260097
-262144 1 1;
#X obj 128 304 vsl 15 60 0 127 0 0 \$0-3-1_fb \$0-3-1_fb_r fb 1 30
0 10 -128992 -260097 -262144 0 1;
#X obj 148 352 hsl 60 15 1.27 127 1 0 \$0-3-1_pos \$0-3-1_pos_r position
7 7 0 10 -128992 -260097 -262144 4001 1;
#X obj 278 317 tgl 20 0 \$0on5 \$0on5_r on 4 9 0 10 -128992 -260097
-262144 1 1;
#X obj 241 305 vsl 15 60 0 127 0 0 \$0-3-2_fb \$0-3-2_fb_r fb 1 30
0 10 -128992 -260097 -262144 3777 1;
#X obj 261 353 hsl 60 15 1.27 127 1 0 \$0-3-2_pos \$0-3-2_pos_r position
7 7 0 10 -128992 -260097 -262144 3715 1;
#X obj 397 316 tgl 20 0 \$0on6 \$0on6_r on 4 9 0 10 -128992 -260097
-262144 1 1;
#X obj 360 304 vsl 15 60 0 127 0 0 \$0-3-3_fb \$0-3-3_fb_r fb 1 30
0 10 -128992 -260097 -262144 5700 1;
#X obj 380 352 hsl 60 15 1.27 127 1 0 \$0-3-3_pos \$0-3-3_pos_r position
7 7 0 10 -128992 -260097 -262144 2722 1;
#X obj 264 162 hsl 60 15 1.27 127 1 0 \$0-1-2_pos \$0-1-2_pos_r position
7 7 0 10 -128992 -260097 -262144 3177 1;
#X obj 379 161 hsl 60 15 1.27 127 1 0 \$0-1-3_pos \$0-1-3_pos_r position
7 7 0 10 -128992 -260097 -262144 4943 1;
#X obj 380 255 hsl 60 15 1.27 127 1 0 \$0-2-3_pos \$0-2-3_pos_r position
7 7 0 10 -128992 -260097 -262144 5083 1;
#X obj -1193 568 pow 1.7582;
#X obj -1090 565 pow 1.7582;
#X obj -983 567 pow 1.7582;
#X obj -1932 20 loadbang;
#X obj -1954 141 s \$0on1_r;
#X msg -1763 90 1.27;
#X obj 161 178 nbx 5 14 -1e+037 1e+037 0 0 \$0-1-1_pos_show_s \$0-1-1_pos_show
empty 0 -8 0 10 -128992 -262144 -262144 398.547 256 0;
#X obj 111 178 nbx 3 14 -1e+037 1e+037 0 0 \$0-1-1_fb_show_s \$0-1-1_fb_show
empty 0 -8 0 10 -128992 -262144 -1 0.881356 256 0;
#X obj -1046 301 / 127;
#X obj 392 178 nbx 5 14 -1e+037 1e+037 0 0 \$0-1-3_pos_show_s \$0-1-3_pos_show
empty 0 -8 0 10 -128992 -262144 -262144 1344.42 256 0;
#X obj 342 178 nbx 3 14 -1e+037 1e+037 0 0 \$0-1-3_fb_show_s \$0-1-3_fb_show
empty 0 -8 0 10 -128992 -262144 -1 0 256 0;
#X obj 276 179 nbx 5 14 -1e+037 1e+037 0 0 \$0-1-2_pos_show_s \$0-1-2_pos_show
empty 0 -8 0 10 -128992 -262144 -262144 119.124 256 0;
#X obj 226 179 nbx 3 14 -1e+037 1e+037 0 0 \$0-1-2_fb_show_s \$0-1-2_fb_show
empty 0 -8 0 10 -128992 -262144 -1 0 256 0;
#X msg -2075 68 0;
#X obj 161 272 nbx 5 14 -1e+037 1e+037 0 0 \$0-2-1_pos_show_s \$0-2-1_pos_show
empty 0 -8 0 10 -128992 -262144 -262144 1061.75 256 0;
#X obj 111 272 nbx 3 14 -1e+037 1e+037 0 0 \$0-2-1_fb_show_s \$0-2-1_fb_show
empty 0 -8 0 10 -128992 -262144 -1 0 256 0;
#X obj 394 272 nbx 5 14 -1e+037 1e+037 0 0 \$0-2-3_pos_show_s \$0-2-3_pos_show
empty 0 -8 0 10 -128992 -262144 -262144 1629.21 256 0;
#X obj 344 272 nbx 3 14 -1e+037 1e+037 0 0 \$0-2-3_fb_show_s \$0-2-3_fb_show
empty 0 -8 0 10 -128992 -262144 -1 0 256 0;
#X obj 276 273 nbx 5 14 -1e+037 1e+037 0 0 \$0-2-2_pos_show_s \$0-2-2_pos_show
empty 0 -8 0 10 -128992 -262144 -262144 449.705 256 0;
#X obj 226 273 nbx 3 14 -1e+037 1e+037 0 0 \$0-2-2_fb_show_s \$0-2-2_fb_show
empty 0 -8 0 10 -128992 -262144 -1 0.644068 256 0;
#X obj 161 369 nbx 5 14 -1e+037 1e+037 0 0 \$0-3-1_pos_show_s \$0-3-1_pos_show
empty 0 -8 0 10 -128992 -262144 -262144 369.066 256 0;
#X obj 111 369 nbx 3 14 -1e+037 1e+037 0 0 \$0-3-1_fb_show_s \$0-3-1_fb_show
empty 0 -8 0 10 -128992 -262144 -1 0 256 0;
#X obj 392 369 nbx 5 14 -1e+037 1e+037 0 0 \$0-3-3_pos_show_s \$0-3-3_pos_show
empty 0 -8 0 10 -128992 -262144 -262144 63.7999 256 0;
#X obj 342 369 nbx 3 14 -1e+037 1e+037 0 0 \$0-3-3_fb_show_s \$0-3-3_fb_show
empty 0 -8 0 10 -128992 -262144 -1 0.966102 256 0;
#X obj 276 370 nbx 5 14 -1e+037 1e+037 0 0 \$0-3-2_pos_show_s \$0-3-2_pos_show
empty 0 -8 0 10 -128992 -262144 -262144 249.257 256 0;
#X obj 226 370 nbx 3 14 -1e+037 1e+037 0 0 \$0-3-2_fb_show_s \$0-3-2_fb_show
empty 0 -8 0 10 -128992 -262144 -1 0.64017 256 0;
#X obj -1122 822 pow 1.7582;
#X obj -1019 819 pow 1.7582;
#X obj -912 821 pow 1.7582;
#X obj -816 784 / 127;
#X obj -750 821 / 127;
#X obj -1063 1146 / 127;
#X obj -989 1140 / 127;
#X obj -856 1138 / 127;
#X obj -836 1234 pow 1.7582;
#X obj -733 1231 pow 1.7582;
#X obj -626 1233 pow 1.7582;
#X obj 218 102 cnv 5 5 300 empty empty empty 20 12 0 14 -1 -66577 0
;
#X obj 333 102 cnv 5 5 300 empty empty empty 20 12 0 14 -1 -66577 0
;
#X obj 101 196 cnv 5 350 5 empty empty empty 20 12 0 14 -1 -66577 0
;
#X obj 101 292 cnv 5 350 5 empty empty empty 20 12 0 14 -1 -66577 0
;
#X obj 101 397 cnv 5 350 5 empty empty empty 20 12 0 14 -1 -66577 0
;
#X obj -1932 162 s \$0on2_r;
#X obj -1921 180 s \$0on3_r;
#X obj -1895 203 s \$0on4_r;
#X obj -1873 224 s \$0on5_r;
#X obj -1862 242 s \$0on6_r;
#X obj -1477 1370 *~ 0.25;
#X msg -1953 113 0;
#X obj -1512 1495 *~;
#X obj -1534 1448 z~ 64;
#X obj -1510 1526 outlet~;
#X obj -1492 1465 limiter~ 50;
#X obj -1792 -361 r toolssavebank;
#X obj -1358 -439 r toolssavebang;
#X obj -1139 -249 f;
#X obj -1194 -255 f;
#X obj -650 8 s toolssavelists;
#X obj -1329 -335 f;
#X obj -1790 -243 route;
#X obj -1208 -494 loadbang;
#X obj -1207 -438 \$1;
#X obj -1208 -466 del 5;
#X obj -1329 -376 del;
#X obj -1093 -248 f;
#X obj -1005 -248 f;
#X obj -1050 -247 f;
#X obj -952 -238 f;
#X obj -869 -232 f;
#X obj -1790 -273 route delaynet;
#X obj -1313 -194 symbol delaynet;
#X obj -766 -216 f;
#X obj -821 -222 f;
#X obj -720 -215 f;
#X obj -632 -215 f;
#X obj -677 -214 f;
#X obj -579 -205 f;
#X obj -496 -199 f;
#X obj -400 -198 f;
#X obj -455 -204 f;
#X obj -354 -197 f;
#X obj -266 -197 f;
#X obj -311 -196 f;
#X obj -213 -187 f;
#X obj -130 -181 f;
#X obj -1813 -161 s \$0on1_r;
#X obj -1791 -140 s \$0on2_r;
#X obj -1780 -122 s \$0on3_r;
#X obj -1754 -99 s \$0on4_r;
#X obj -1732 -78 s \$0on5_r;
#X obj -1721 -60 s \$0on6_r;
#X obj -1135 -424 r \$0on1;
#X obj -1112 -403 r \$0on2;
#X obj -1102 -385 r \$0on3;
#X obj -1075 -361 r \$0on4;
#X obj -1036 -334 r \$0on5;
#X obj -999 -316 r \$0on6;
#X obj -83 -180 f;
#X obj -42 -182 f;
#X obj 5 -181 f;
#X obj -1791 -217 unpack f f f f f f f f f f f f f f f f f f f f f
f f f f;
#X obj 52 -182 f;
#X obj -654 -316 t b f b b b b b b b b b b b b b b b b b b b b b b
b b b;
#X obj -642 -28 pack s f f f f f f f f f f f f f f f f f f f f f f
f f f f;
#X obj -1432 -145 s \$0random_r;
#X obj 16 -251 r \$0random;
#X obj 550 689 tripleRand 1271;
#X obj 544 741 / 10;
#X obj 734 726 / 10;
#X obj 782 727 / 10;
#X obj 810 728 / 10;
#X obj 748 670 tripleRand 1271;
#X obj 391 636 tripleRand 1271;
#X obj 382 694 / 10;
#X obj 420 702 / 10;
#X obj 427 412 bng 15 250 50 0 \$0random \$0random_r randomize! -71
8 0 12 -128992 -260097 -1;
#X obj 390 596 r \$0random;
#X obj 783 959 unpack 0 0 0;
#X obj 788 891 r \$0random;
#X obj 781 1002 / 10;
#X obj 829 1003 / 10;
#X obj 857 1004 / 10;
#X obj 786 929 tripleRand 1271;
#X obj 417 960 unpack 0 0 0;
#X obj 422 869 r \$0random;
#X obj 421 930 tripleRand 1271;
#X obj 553 1062 unpack 0 0 0;
#X obj 554 990 r \$0random;
#X obj 556 1032 tripleRand 1271;
#X obj 550 1108 / 10;
#X obj 598 1109 / 10;
#X obj 645 1096 / 10;
#X obj 386 994 / 10;
#X obj 424 1002 / 10;
#X obj 460 1022 / 10;
#X obj 297 1242 s \$0on1_r;
#X obj 319 1263 s \$0on2_r;
#X obj 330 1281 s \$0on3_r;
#X obj 356 1304 s \$0on4_r;
#X obj 378 1325 s \$0on5_r;
#X obj 389 1343 s \$0on6_r;
#X obj 365 1108 r \$0random;
#X obj 310 1159 random 2;
#X obj 320 1169 random 2;
#X obj 330 1179 random 2;
#X obj 340 1189 random 2;
#X obj 350 1199 random 2;
#X obj 360 1209 random 2;
#X obj 132 1 inlet;
#X obj 142 11 inlet;
#X obj 152 21 inlet;
#X obj 200 9 inlet;
#X obj 210 19 inlet;
#X obj 220 29 inlet;
#X obj 270 14 inlet;
#X obj 280 24 inlet;
#X obj 290 34 inlet;
#X obj 340 17 inlet;
#X obj 350 27 inlet;
#X obj 360 37 inlet;
#X obj 401 18 inlet;
#X obj 411 28 inlet;
#X obj 421 38 inlet;
#X obj 465 25 inlet;
#X obj 475 35 inlet;
#X obj 485 45 inlet;
#X obj 581 25 inlet;
#X obj 591 35 inlet;
#X obj 636 27 inlet;
#X obj 646 37 inlet;
#X obj 690 36 inlet;
#X obj 700 46 inlet;
#X obj 766 46 inlet;
#X obj 277 598 bng 15 250 50 0 empty empty empty 17 7 0 10 -262144
-1 -1;
#X obj 382 723 s \$0-2-1_fb_r;
#X obj 420 743 s \$0-2-2_fb_r;
#X obj 542 770 s \$0-1-1_fb_r;
#X obj 727 776 s \$0-1-1_pos_r;
#X obj 750 798 s \$0-1-2_pos_r;
#X obj 781 816 s \$0-1-3_pos_r;
#X obj 386 1023 s \$0-3-1_fb_r;
#X obj 424 1043 s \$0-3-2_fb_r;
#X obj 460 1063 s \$0-3-3_fb_r;
#X obj 548 1160 s \$0-3-1_pos_r;
#X obj 572 1182 s \$0-3-2_pos_r;
#X obj 603 1199 s \$0-3-3_pos_r;
#X obj 774 1052 s \$0-2-1_pos_r;
#X obj 797 1074 s \$0-2-2_pos_r;
#X obj 828 1091 s \$0-2-3_pos_r;
#X obj -1703 -168 s \$0-1-1_fb_r;
#X obj -1693 -150 s \$0-1-2_fb_r;
#X obj -1673 -130 s \$0-1-3_fb_r;
#X obj -1673 -106 s \$0-2-1_fb_r;
#X obj -1664 -87 s \$0-2-2_fb_r;
#X obj -1645 -73 s \$0-2-3_fb_r;
#X obj -1617 -50 s \$0-3-1_fb_r;
#X obj -1606 -35 s \$0-3-2_fb_r;
#X obj -1594 -21 s \$0-3-3_fb_r;
#X obj -1464 -36 s \$0-3-3_pos_r;
#X obj -1474 -46 s \$0-3-2_pos_r;
#X obj -1484 -56 s \$0-3-1_pos_r;
#X obj -1505 -75 s \$0-2-3_pos_r;
#X obj -1515 -86 s \$0-2-2_pos_r;
#X obj -1528 -105 s \$0-2-1_pos_r;
#X obj -1563 -136 s \$0-1-3_pos_r;
#X obj -1574 -153 s \$0-1-2_pos_r;
#X obj -1582 -171 s \$0-1-1_pos_r;
#X obj -1645 281 s \$0-3-3_pos_r;
#X obj -1655 259 s \$0-3-2_pos_r;
#X obj -1665 244 s \$0-3-1_pos_r;
#X obj -1689 220 s \$0-2-3_pos_r;
#X obj -1694 202 s \$0-2-2_pos_r;
#X obj -1705 191 s \$0-2-1_pos_r;
#X obj -1739 169 s \$0-1-3_pos_r;
#X obj -1755 151 s \$0-1-2_pos_r;
#X obj -1738 125 s \$0-1-1_pos_r;
#X obj -2001 251 s \$0-3-3_fb_r;
#X obj -2013 238 s \$0-3-2_fb_r;
#X obj -2024 223 s \$0-3-1_fb_r;
#X obj -2067 195 s \$0-2-3_fb_r;
#X obj -2086 181 s \$0-2-2_fb_r;
#X obj -2095 162 s \$0-2-1_fb_r;
#X obj -2095 138 s \$0-1-3_fb_r;
#X obj -2069 118 s \$0-1-2_fb_r;
#X obj -2061 93 s \$0-1-1_fb_r;
#X obj -1055 271 r \$0-1-1_fb;
#X obj -985 325 r \$0-1-2_fb;
#X obj -870 315 r \$0-1-3_fb;
#X obj -883 438 s \$0-1-3_fb_show;
#X obj -975 458 s \$0-1-2_fb_show;
#X obj -1048 435 s \$0-1-1_fb_show;
#X obj -969 657 s \$0-1-3_pos_show;
#X obj -1106 654 s \$0-1-2_pos_show;
#X obj -1308 615 s \$0-1-1_pos_show;
#X obj -825 754 r \$0-2-1_fb;
#X obj -759 791 r \$0-2-2_fb;
#X obj -639 798 r \$0-2-3_fb;
#X obj -599 878 s \$0-2-1_fb_show;
#X obj -603 908 s \$0-2-2_fb_show;
#X obj -593 933 s \$0-2-3_fb_show;
#X obj -1104 938 s \$0-2-1_pos_show;
#X obj -1108 968 s \$0-2-2_pos_show;
#X obj -1098 993 s \$0-2-3_pos_show;
#X obj -1078 1110 r \$0-3-1_fb;
#X obj -990 1115 r \$0-3-2_fb;
#X obj -864 1109 r \$0-3-3_fb;
#X obj -890 1185 s \$0-3-3_fb_show;
#X obj -1006 1169 s \$0-3-2_fb_show;
#X obj -1126 1180 s \$0-3-1_fb_show;
#X obj -836 1211 r \$0-3-1_pos;
#X obj -732 1209 r \$0-3-2_pos;
#X obj -627 1209 r \$0-3-3_pos;
#X obj -817 1349 s \$0-3-1_pos_show;
#X obj -822 1380 s \$0-3-2_pos_show;
#X obj -812 1405 s \$0-3-3_pos_show;
#X obj -1193 545 r \$0-1-1_pos;
#X obj -1089 543 r \$0-1-2_pos;
#X obj -983 543 r \$0-1-3_pos;
#X obj -1018 797 r \$0-2-2_pos;
#X obj -912 797 r \$0-2-3_pos;
#X obj -1082 774 r \$0-2-1_pos;
#X obj -256 -484 r \$0-1-1_pos;
#X obj -224 -458 r \$0-1-2_pos;
#X obj -211 -437 r \$0-1-3_pos;
#X obj -186 -426 r \$0-2-1_pos;
#X obj -170 -399 r \$0-2-2_pos;
#X obj -155 -379 r \$0-2-3_pos;
#X obj -134 -352 r \$0-3-1_pos;
#X obj -94 -330 r \$0-3-2_pos;
#X obj -75 -309 r \$0-3-3_pos;
#X obj -615 -502 r \$0-1-1_fb;
#X obj -605 -484 r \$0-1-2_fb;
#X obj -584 -462 r \$0-1-3_fb;
#X obj -564 -440 r \$0-2-1_fb;
#X obj -550 -419 r \$0-2-2_fb;
#X obj -523 -402 r \$0-2-3_fb;
#X obj -502 -384 r \$0-3-1_fb;
#X obj -486 -366 r \$0-3-2_fb;
#X obj -474 -347 r \$0-3-3_fb;
#X obj -861 344 / 508;
#X obj -976 355 / 508;
#X obj -631 827 / 508;
#X connect 1 0 0 0;
#X connect 2 0 1 1;
#X connect 2 0 322 0;
#X connect 3 0 9 0;
#X connect 4 0 5 0;
#X connect 4 0 6 0;
#X connect 6 0 7 0;
#X connect 6 0 8 0;
#X connect 8 0 139 0;
#X connect 9 0 1 0;
#X connect 9 0 11 0;
#X connect 11 1 4 1;
#X connect 12 0 15 0;
#X connect 12 0 324 0;
#X connect 13 0 14 0;
#X connect 13 0 323 0;
#X connect 14 0 18 0;
#X connect 15 0 16 0;
#X connect 16 0 0 0;
#X connect 17 0 16 1;
#X connect 17 0 321 0;
#X connect 18 0 0 0;
#X connect 19 0 18 1;
#X connect 19 0 320 0;
#X connect 20 0 5 0;
#X connect 21 0 22 0;
#X connect 21 0 332 0;
#X connect 22 0 20 0;
#X connect 22 0 23 0;
#X connect 23 1 6 1;
#X connect 24 0 23 1;
#X connect 25 0 28 0;
#X connect 25 0 333 0;
#X connect 26 0 27 0;
#X connect 26 0 334 0;
#X connect 27 0 32 0;
#X connect 28 0 29 0;
#X connect 28 0 31 0;
#X connect 29 1 6 1;
#X connect 30 0 29 1;
#X connect 31 0 5 0;
#X connect 32 0 5 0;
#X connect 33 0 7 0;
#X connect 34 0 35 0;
#X connect 34 0 344 0;
#X connect 35 0 33 0;
#X connect 35 0 36 0;
#X connect 36 1 8 1;
#X connect 37 0 36 1;
#X connect 38 0 41 0;
#X connect 38 0 345 0;
#X connect 39 0 40 0;
#X connect 39 0 346 0;
#X connect 40 0 44 0;
#X connect 40 0 47 0;
#X connect 41 0 42 0;
#X connect 41 0 46 0;
#X connect 42 1 8 1;
#X connect 43 0 42 1;
#X connect 44 1 8 1;
#X connect 45 0 44 1;
#X connect 46 0 7 0;
#X connect 47 0 7 0;
#X connect 53 0 200 0;
#X connect 53 1 201 0;
#X connect 53 2 202 0;
#X connect 54 0 199 0;
#X connect 55 0 205 0;
#X connect 55 1 206 0;
#X connect 57 0 0 0;
#X connect 57 0 4 0;
#X connect 58 0 59 0;
#X connect 59 0 11 1;
#X connect 60 0 30 0;
#X connect 61 0 24 0;
#X connect 62 0 37 0;
#X connect 63 0 43 0;
#X connect 64 0 45 0;
#X connect 65 0 198 0;
#X connect 66 0 203 0;
#X connect 92 0 3 0;
#X connect 92 0 325 0;
#X connect 93 0 12 0;
#X connect 94 0 13 0;
#X connect 95 0 140 0;
#X connect 95 0 97 0;
#X connect 95 0 105 0;
#X connect 97 0 299 0;
#X connect 97 0 300 0;
#X connect 97 0 301 0;
#X connect 97 0 302 0;
#X connect 97 0 303 0;
#X connect 97 0 304 0;
#X connect 97 0 305 0;
#X connect 97 0 306 0;
#X connect 97 0 307 0;
#X connect 100 0 2 0;
#X connect 105 0 308 0;
#X connect 105 0 309 0;
#X connect 105 0 310 0;
#X connect 105 0 311 0;
#X connect 105 0 312 0;
#X connect 105 0 313 0;
#X connect 105 0 314 0;
#X connect 105 0 315 0;
#X connect 105 0 316 0;
#X connect 118 0 21 0;
#X connect 119 0 25 0;
#X connect 120 0 26 0;
#X connect 121 0 20 1;
#X connect 121 0 329 0;
#X connect 122 0 31 1;
#X connect 122 0 330 0;
#X connect 123 0 33 1;
#X connect 123 0 340 0;
#X connect 124 0 46 1;
#X connect 124 0 339 0;
#X connect 125 0 47 1;
#X connect 125 0 338 0;
#X connect 126 0 34 0;
#X connect 127 0 38 0;
#X connect 128 0 39 0;
#X connect 139 0 142 0;
#X connect 139 0 144 0;
#X connect 140 0 96 0;
#X connect 140 0 134 0;
#X connect 140 0 135 0;
#X connect 140 0 136 0;
#X connect 140 0 137 0;
#X connect 140 0 138 0;
#X connect 141 0 143 0;
#X connect 142 0 141 0;
#X connect 144 0 141 1;
#X connect 145 0 161 0;
#X connect 146 0 155 0;
#X connect 147 0 195 3;
#X connect 148 0 195 2;
#X connect 150 0 194 0;
#X connect 151 0 192 0;
#X connect 152 0 154 0;
#X connect 153 0 150 1;
#X connect 153 0 151 1;
#X connect 153 0 155 1;
#X connect 154 0 153 0;
#X connect 155 0 150 0;
#X connect 156 0 195 4;
#X connect 157 0 195 6;
#X connect 158 0 195 5;
#X connect 159 0 195 7;
#X connect 160 0 195 8;
#X connect 161 0 151 0;
#X connect 162 0 195 0;
#X connect 163 0 195 10;
#X connect 164 0 195 9;
#X connect 165 0 195 11;
#X connect 166 0 195 13;
#X connect 167 0 195 12;
#X connect 168 0 195 14;
#X connect 169 0 195 15;
#X connect 170 0 195 17;
#X connect 171 0 195 16;
#X connect 172 0 195 18;
#X connect 173 0 195 20;
#X connect 174 0 195 19;
#X connect 175 0 195 21;
#X connect 176 0 195 22;
#X connect 183 0 148 1;
#X connect 184 0 147 1;
#X connect 185 0 156 1;
#X connect 186 0 158 1;
#X connect 187 0 157 1;
#X connect 188 0 159 1;
#X connect 189 0 195 23;
#X connect 190 0 195 24;
#X connect 191 0 195 25;
#X connect 192 0 177 0;
#X connect 192 1 178 0;
#X connect 192 2 179 0;
#X connect 192 3 180 0;
#X connect 192 4 181 0;
#X connect 192 5 182 0;
#X connect 192 6 281 0;
#X connect 192 7 282 0;
#X connect 192 8 283 0;
#X connect 192 9 284 0;
#X connect 192 10 285 0;
#X connect 192 11 286 0;
#X connect 192 12 287 0;
#X connect 192 13 288 0;
#X connect 192 14 289 0;
#X connect 192 15 298 0;
#X connect 192 16 297 0;
#X connect 192 17 296 0;
#X connect 192 18 295 0;
#X connect 192 19 294 0;
#X connect 192 20 293 0;
#X connect 192 21 292 0;
#X connect 192 22 291 0;
#X connect 192 23 290 0;
#X connect 192 24 196 0;
#X connect 193 0 195 26;
#X connect 194 0 162 0;
#X connect 194 1 195 1;
#X connect 194 2 148 0;
#X connect 194 3 147 0;
#X connect 194 4 156 0;
#X connect 194 5 158 0;
#X connect 194 6 157 0;
#X connect 194 7 159 0;
#X connect 194 8 160 0;
#X connect 194 9 164 0;
#X connect 194 10 163 0;
#X connect 194 11 165 0;
#X connect 194 12 167 0;
#X connect 194 13 166 0;
#X connect 194 14 168 0;
#X connect 194 15 169 0;
#X connect 194 16 171 0;
#X connect 194 17 170 0;
#X connect 194 18 172 0;
#X connect 194 19 174 0;
#X connect 194 20 173 0;
#X connect 194 21 175 0;
#X connect 194 22 176 0;
#X connect 194 23 189 0;
#X connect 194 24 190 0;
#X connect 194 25 191 0;
#X connect 194 26 193 0;
#X connect 195 0 149 0;
#X connect 197 0 193 1;
#X connect 198 0 54 0;
#X connect 199 0 268 0;
#X connect 200 0 269 0;
#X connect 201 0 270 0;
#X connect 202 0 271 0;
#X connect 203 0 53 0;
#X connect 204 0 55 0;
#X connect 205 0 266 0;
#X connect 206 0 267 0;
#X connect 208 0 204 0;
#X connect 208 0 265 0;
#X connect 209 0 211 0;
#X connect 209 1 212 0;
#X connect 209 2 213 0;
#X connect 210 0 214 0;
#X connect 211 0 278 0;
#X connect 212 0 279 0;
#X connect 213 0 280 0;
#X connect 214 0 209 0;
#X connect 215 0 224 0;
#X connect 215 1 225 0;
#X connect 215 2 226 0;
#X connect 216 0 217 0;
#X connect 217 0 215 0;
#X connect 218 0 221 0;
#X connect 218 1 222 0;
#X connect 218 2 223 0;
#X connect 219 0 220 0;
#X connect 220 0 218 0;
#X connect 221 0 275 0;
#X connect 222 0 276 0;
#X connect 223 0 277 0;
#X connect 224 0 272 0;
#X connect 225 0 273 0;
#X connect 226 0 274 0;
#X connect 233 0 234 0;
#X connect 233 0 235 0;
#X connect 233 0 236 0;
#X connect 233 0 237 0;
#X connect 233 0 239 0;
#X connect 233 0 238 0;
#X connect 234 0 227 0;
#X connect 235 0 228 0;
#X connect 236 0 229 0;
#X connect 237 0 230 0;
#X connect 238 0 231 0;
#X connect 239 0 232 0;
#X connect 240 0 68 0;
#X connect 241 0 69 0;
#X connect 242 0 70 0;
#X connect 243 0 73 0;
#X connect 244 0 75 0;
#X connect 245 0 74 0;
#X connect 246 0 76 0;
#X connect 247 0 78 0;
#X connect 248 0 77 0;
#X connect 249 0 80 0;
#X connect 250 0 82 0;
#X connect 251 0 81 0;
#X connect 252 0 83 0;
#X connect 253 0 85 0;
#X connect 254 0 84 0;
#X connect 255 0 86 0;
#X connect 256 0 88 0;
#X connect 257 0 87 0;
#X connect 258 0 71 0;
#X connect 259 0 89 0;
#X connect 260 0 72 0;
#X connect 261 0 90 0;
#X connect 262 0 79 0;
#X connect 263 0 91 0;
#X connect 264 0 207 0;
#X connect 317 0 100 0;
#X connect 318 0 372 0;
#X connect 319 0 371 0;
#X connect 326 0 121 0;
#X connect 327 0 122 0;
#X connect 328 0 373 0;
#X connect 335 0 123 0;
#X connect 336 0 124 0;
#X connect 337 0 125 0;
#X connect 341 0 126 0;
#X connect 342 0 127 0;
#X connect 343 0 128 0;
#X connect 347 0 92 0;
#X connect 348 0 93 0;
#X connect 349 0 94 0;
#X connect 350 0 119 0;
#X connect 351 0 120 0;
#X connect 352 0 118 0;
#X connect 353 0 170 1;
#X connect 354 0 172 1;
#X connect 355 0 174 1;
#X connect 356 0 173 1;
#X connect 357 0 175 1;
#X connect 358 0 176 1;
#X connect 359 0 189 1;
#X connect 360 0 190 1;
#X connect 361 0 191 1;
#X connect 362 0 160 1;
#X connect 363 0 164 1;
#X connect 364 0 163 1;
#X connect 365 0 165 1;
#X connect 366 0 167 1;
#X connect 367 0 166 1;
#X connect 368 0 168 1;
#X connect 369 0 169 1;
#X connect 370 0 171 1;
#X connect 371 0 19 0;
#X connect 372 0 17 0;
#X connect 373 0 32 1;
#X connect 373 0 331 0;
#X coords 0 -1 1 1 357 334 1 100 100;
