#N canvas 279 224 724 514 10;
#X obj 293 168 samphold~;
#X obj 367 124 phasor~ 100;
#X obj 298 290 +~ 0.5;
#X obj 298 332 hip~ 5;
#X obj 363 -44 r \$0Bitdepth;
#X obj 362 -3 t b f;
#X msg 374 39 2;
#X obj 371 79 pow 32;
#X obj 446 107 s \$0showdepth;
#X obj 101 102 cnv 15 88 116 empty empty down 35 18 0 20 -233017 -1
0;
#X obj 109 112 vsl 20 70 24 1 0 0 \$0Bitdepth \$0Bitdepth_r empty 0
-9 0 10 -99865 -260097 -1 3500 1;
#X obj 109 186 nbx 4 24 -1e+037 1e+037 0 0 \$0showdepth_s \$0showdepth
empty 84 14 0 12 -262144 -1 -1 0.507246 256;
#X obj 278 81 inlet~;
#X obj 290 365 outlet~;
#X obj 101 34 loadbang;
#X msg 108 70 32;
#X obj 149 150 tgl 25 0 \$0on \$0on_r an 5 -8 0 12 -99865 -260097 -1
1 1;
#X obj 180 56 s \$0on_r;
#X msg 183 33 1;
#X obj 247 234 *~;
#X obj 290 130 *~;
#X obj 271 -109 r \$0on;
#X obj 266 0 abs;
#X obj 313 50 line~;
#X obj 269 51 line~;
#X msg 263 24 \$1 10;
#X msg 313 27 \$1 10;
#X obj 267 -26 - 1;
#X obj 436 23 - 24;
#X obj 444 52 abs;
#X obj 448 81 / 23;
#X obj 598 190 r toolssavebank;
#X obj 702 56 r toolssavebang;
#X obj 866 240 f;
#X obj 776 348 s toolssavelists;
#X obj 731 160 f;
#X obj 601 255 route;
#X obj 852 1 loadbang;
#X obj 853 57 \$1;
#X obj 852 29 del 5;
#X obj 731 119 del;
#X obj 601 225 route down;
#X obj 723 260 symbol down;
#X obj 881 200 r \$0Bitdepth;
#X obj 598 351 s \$0Bitdepth_r;
#X obj 946 232 r \$0on;
#X obj 926 263 f;
#X obj 777 305 pack s f f f;
#X obj 729 209 t b f b b;
#X obj 602 293 unpack f f;
#X obj 651 324 s \$0on_r;
#X obj 611 -84 inlet;
#X obj 658 -82 inlet;
#X obj 561 -52 / 127;
#X obj 559 -26 - 1;
#X obj 556 -3 abs;
#X obj 557 23 * 23;
#X obj 560 51 + 1;
#X connect 0 0 2 0;
#X connect 1 0 0 1;
#X connect 2 0 3 0;
#X connect 3 0 13 0;
#X connect 4 0 5 0;
#X connect 4 0 28 0;
#X connect 5 0 6 0;
#X connect 5 1 7 1;
#X connect 6 0 7 0;
#X connect 7 0 1 0;
#X connect 12 0 19 0;
#X connect 12 0 20 0;
#X connect 14 0 15 0;
#X connect 14 0 18 0;
#X connect 15 0 10 0;
#X connect 18 0 17 0;
#X connect 19 0 13 0;
#X connect 20 0 0 0;
#X connect 21 0 26 0;
#X connect 21 0 27 0;
#X connect 22 0 25 0;
#X connect 23 0 20 1;
#X connect 24 0 19 1;
#X connect 25 0 24 0;
#X connect 26 0 23 0;
#X connect 27 0 22 0;
#X connect 28 0 29 0;
#X connect 29 0 30 0;
#X connect 30 0 8 0;
#X connect 31 0 41 0;
#X connect 32 0 40 0;
#X connect 33 0 47 2;
#X connect 35 0 48 0;
#X connect 36 0 49 0;
#X connect 37 0 39 0;
#X connect 38 0 35 1;
#X connect 38 0 36 1;
#X connect 38 0 40 1;
#X connect 39 0 38 0;
#X connect 40 0 35 0;
#X connect 41 0 36 0;
#X connect 42 0 47 0;
#X connect 43 0 33 1;
#X connect 45 0 46 1;
#X connect 46 0 47 3;
#X connect 47 0 34 0;
#X connect 48 0 42 0;
#X connect 48 1 47 1;
#X connect 48 2 33 0;
#X connect 48 3 46 0;
#X connect 49 0 44 0;
#X connect 49 1 50 0;
#X connect 51 0 53 0;
#X connect 52 0 16 0;
#X connect 53 0 54 0;
#X connect 54 0 55 0;
#X connect 55 0 56 0;
#X connect 56 0 57 0;
#X connect 57 0 10 0;
#X coords 0 -1 1 1 90 120 2 100 100;
