#N canvas 104 124 1234 514 10;
#X obj 101 102 cnv 15 108 156 empty empty drops 40 16 0 20 -233017
-1 0;
#X obj 109 113 vsl 20 60 0 127 0 0 \$0time \$0time_r empty 0 -9 0 10
-99865 -260097 -1 4950 1;
#X obj 109 231 nbx 3 20 -1e+037 1e+037 0 0 \$0showlen_s \$0showlen
length 50 12 0 12 -262144 -1 -1 0.50495 256;
#X obj 101 34 loadbang;
#X obj 164 151 tgl 20 0 \$0on \$0on_r an 3 -10 0 12 -99865 -260097
-1 1 1;
#X obj 420 52 loadbang;
#X obj 360 209 metro 1000;
#X obj 360 166 r \$0on;
#X obj 420 96 s \$0on_r;
#X msg 420 74 1;
#X obj 451 211 random 1000;
#X obj 516 115 r \$0time;
#X obj 365 292 bng 15 250 50 0 empty empty empty 17 7 0 10 -262144
-1 -1;
#X floatatom 567 178 5 0 0 0 - - -;
#X obj 349 436 line~;
#X obj 311 68 inlet~;
#X obj 307 461 *~;
#X obj 412 378 del 50;
#X obj 507 185 + 100;
#X obj 347 382 pack f f;
#X obj 594 242 r \$0len;
#X obj 408 433 pack f f;
#X obj 112 209 hsl 80 20 0 127 0 0 \$0len \$0len_r empty -2 -8 0 10
-99865 -260097 -1 3950 1;
#X floatatom 422 355 5 0 0 0 - - -;
#X obj 422 333 clip 0 100;
#X obj 499 337 / 2;
#X floatatom 534 252 5 0 0 0 - - -;
#X obj 594 265 / 127;
#X obj 542 302 *;
#X floatatom 542 324 5 0 0 0 - - -;
#X obj 631 397 s \$0showlen;
#X obj 109 177 nbx 3 20 -1e+037 1e+037 0 0 \$0showtime_s \$0showtime
time 50 12 0 12 -262144 -1 -1 0.5 256;
#X obj 570 208 s \$0showtime;
#X obj 564 128 / 127;
#X obj 302 504 outlet~;
#X msg 108 70 63.5;
#X obj 185 66 s \$0len_r;
#X msg 346 360 1;
#X msg 411 398 0;
#X obj 553 281 t b f;
#X obj 515 155 * 40;
#X obj 603 298 + 0.01;
#X obj 631 375 / 1.01;
#X obj 823 145 r toolssavebank;
#X obj 974 15 r toolssavebang;
#X obj 1193 205 f;
#X obj 1138 199 f;
#X obj 1048 307 s toolssavelists;
#X obj 1003 119 f;
#X obj 825 263 route;
#X obj 1124 -40 loadbang;
#X obj 1125 16 \$1;
#X obj 1124 -12 del 5;
#X obj 1003 78 del;
#X obj 1001 168 t b f b b b;
#X obj 825 233 route drops;
#X obj 995 219 symbol drops;
#X obj 1162 119 r \$0time;
#X obj 1212 148 r \$0len;
#X obj 1048 264 pack s f f f;
#X obj 826 289 unpack f f;
#X obj 825 347 s \$0time_r;
#X obj 886 324 s \$0len_r;
#X obj 615 33 inlet;
#X obj 663 32 inlet;
#X obj 713 35 inlet;
#X connect 3 0 35 0;
#X connect 5 0 9 0;
#X connect 6 0 10 0;
#X connect 6 0 12 0;
#X connect 7 0 6 0;
#X connect 9 0 8 0;
#X connect 10 0 6 1;
#X connect 10 0 26 0;
#X connect 11 0 33 0;
#X connect 11 0 40 0;
#X connect 12 0 17 0;
#X connect 12 0 37 0;
#X connect 13 0 32 0;
#X connect 14 0 16 1;
#X connect 15 0 16 0;
#X connect 16 0 34 0;
#X connect 17 0 38 0;
#X connect 18 0 10 1;
#X connect 19 0 14 0;
#X connect 20 0 27 0;
#X connect 21 0 14 0;
#X connect 23 0 19 1;
#X connect 23 0 21 1;
#X connect 24 0 23 0;
#X connect 25 0 24 0;
#X connect 25 0 17 1;
#X connect 26 0 28 0;
#X connect 27 0 41 0;
#X connect 28 0 29 0;
#X connect 29 0 25 0;
#X connect 33 0 13 0;
#X connect 35 0 1 0;
#X connect 35 0 36 0;
#X connect 37 0 19 0;
#X connect 38 0 21 0;
#X connect 39 0 28 0;
#X connect 39 1 28 1;
#X connect 40 0 18 0;
#X connect 41 0 39 0;
#X connect 41 0 42 0;
#X connect 42 0 30 0;
#X connect 43 0 55 0;
#X connect 44 0 53 0;
#X connect 45 0 59 3;
#X connect 46 0 59 2;
#X connect 48 0 54 0;
#X connect 49 0 60 0;
#X connect 50 0 52 0;
#X connect 51 0 48 1;
#X connect 51 0 49 1;
#X connect 51 0 53 1;
#X connect 52 0 51 0;
#X connect 53 0 48 0;
#X connect 54 0 56 0;
#X connect 54 1 59 1;
#X connect 54 2 46 0;
#X connect 54 3 45 0;
#X connect 55 0 49 0;
#X connect 56 0 59 0;
#X connect 57 0 46 1;
#X connect 58 0 45 1;
#X connect 59 0 47 0;
#X connect 60 0 61 0;
#X connect 60 1 62 0;
#X connect 63 0 1 0;
#X connect 64 0 22 0;
#X connect 65 0 4 0;
#X coords 0 -1 1 1 110 160 2 100 100;
