#N canvas 0 0 1423 798 10;
#X obj 516 -56 inlet~;
#X obj 507 169 vcf~;
#X floatatom 611 31 5 0 0 0 - - -, f 5;
#X floatatom 720 69 5 0 0 0 - - -, f 5;
#X obj 320 -7 line~;
#X msg 320 -30 \$1 10;
#X obj 364 -7 line~;
#X msg 364 -30 \$1 10;
#X obj 271 -7 line~;
#X msg 271 -30 \$1 10;
#X obj 468 74 *~;
#X obj 506 74 *~;
#X obj 550 73 *~;
#X obj 512 316 outlet~;
#X msg 221 -66 1;
#X msg 257 -66 0;
#X msg 305 -72 1;
#X msg 341 -72 0;
#X msg 379 -75 1;
#X msg 415 -75 0;
#X obj 101 102 cnv 15 154 206 empty empty Filter 20 14 0 22 -233017
-1 0;
#X obj 169 141 vradio 25 1 0 3 \$0filttype \$0filttype_r empty 0 -8
0 10 -99865 -260097 -1 0;
#X obj 295 -202 r \$0filttype;
#X text 198 169 Bandpass;
#X obj 120 158 vsl 20 60 0.15 127 1 0 \$0Q \$0Q_r Q 4 -16 0 20 -99865
-260097 -1 3190 1;
#X obj 609 -34 r \$0Freq;
#X obj 740 -34 r \$0Q;
#X obj 738 -2 / 8;
#X msg 646 -109 5.74;
#X obj 106 222 nbx 4 18 -1e+037 1e+037 0 0 \$0Qshow_s \$0Qshow empty
0 -8 0 12 -262144 -1 -1 0.717713 256 0;
#X obj 770 60 s \$0Qshow;
#X obj 109 262 hsl 120 20 0 127 0 0 \$0Freq \$0Freq_r Frequenz 25 -8
0 14 -99865 -260097 -1 2811 1;
#X obj 169 282 nbx 5 20 -1e+037 1e+037 0 0 \$0Freqshow_s \$0Freqshow
empty 0 -8 0 12 -262144 -1 -1 920.899 256 0;
#X obj 623 98 s \$0Freqshow;
#X obj 576 -72 s \$0Freq_r;
#X obj 600 -138 loadbang;
#X obj 295 -142 sel 0 1 2;
#X msg 715 -108 0;
#X obj 713 -78 s \$0filttype_r;
#X text 197 144 Tiefpass;
#X msg 578 -103 30;
#X obj 609 155 sig~;
#X text 198 195 Hochpass;
#X obj 940 169 r toolssavebank;
#X obj 1150 86 r toolssavebang;
#X obj 1369 276 f;
#X obj 1314 270 f;
#X obj 1224 378 s toolssavelists;
#X obj 1179 190 f;
#X obj 942 287 route;
#X obj 1300 31 loadbang;
#X obj 1301 87 \$1;
#X obj 1300 59 del 5;
#X obj 1179 149 del;
#X obj 1441 304 f;
#X obj 891 475 s \$0Freq_r;
#X obj 1177 239 t b f b b b;
#X obj 943 313 unpack f f f;
#X obj 1225 343 pack s f f f f;
#X obj 943 257 route filter;
#X obj 1171 290 symbol filter;
#X obj 918 442 s \$0Q_r;
#X obj 779 447 s \$0filttype_r;
#X obj 1341 147 r \$0filttype;
#X obj 1421 202 r \$0Freq;
#X obj 1500 214 r \$0Q;
#X obj 463 226 vcf_lp4~;
#X obj 548 220 vcf_hp4~;
#X obj 579 101 line~;
#X msg 584 63 \$1 25;
#X obj 931 -3 inlet;
#X obj 974 -5 inlet;
#X obj 1019 -3 inlet;
#X obj 646 -85 s \$0Q_r;
#X obj 611 -4 pow 1.998;
#X obj 636 17 + 27;
#N canvas 0 22 462 312 rh_scalelog 0;
#X obj 20 155 exp;
#X obj 20 107 *;
#X obj 20 130 +;
#X obj 98 87 log;
#X obj 194 84 log;
#X obj 123 123 t b f;
#X obj 123 145 -;
#X obj 20 183 outlet;
#X obj 20 19 inlet;
#X obj 98 23 inlet;
#X obj 194 24 inlet;
#X connect 0 0 7 0;
#X connect 1 0 2 0;
#X connect 2 0 0 0;
#X connect 3 0 2 1;
#X connect 3 0 5 0;
#X connect 4 0 6 0;
#X connect 5 0 6 0;
#X connect 5 1 6 1;
#X connect 6 0 1 1;
#X connect 8 0 1 0;
#X connect 9 0 3 0;
#X connect 10 0 4 0;
#X restore 805 -31 pd rh_scalelog;
#X msg 852 -55 0.1;
#X obj 695 2 / 127;
#X msg 898 -55 120;
#X obj 1010 28 + 1;
#X connect 0 0 10 0;
#X connect 0 0 11 0;
#X connect 0 0 12 0;
#X connect 1 0 13 0;
#X connect 2 0 33 0;
#X connect 2 0 69 0;
#X connect 3 0 30 0;
#X connect 3 0 41 0;
#X connect 4 0 11 1;
#X connect 5 0 4 0;
#X connect 6 0 12 1;
#X connect 7 0 6 0;
#X connect 8 0 10 1;
#X connect 9 0 8 0;
#X connect 10 0 66 0;
#X connect 11 0 1 0;
#X connect 12 0 67 0;
#X connect 14 0 9 0;
#X connect 15 0 9 0;
#X connect 16 0 5 0;
#X connect 17 0 5 0;
#X connect 18 0 7 0;
#X connect 19 0 7 0;
#X connect 22 0 36 0;
#X connect 25 0 74 0;
#X connect 26 0 27 0;
#X connect 26 0 78 0;
#X connect 27 0 3 0;
#X connect 28 0 73 0;
#X connect 35 0 40 0;
#X connect 35 0 28 0;
#X connect 35 0 37 0;
#X connect 35 0 77 0;
#X connect 35 0 79 0;
#X connect 36 0 14 0;
#X connect 36 0 17 0;
#X connect 36 0 19 0;
#X connect 36 1 15 0;
#X connect 36 1 16 0;
#X connect 36 1 19 0;
#X connect 36 2 15 0;
#X connect 36 2 17 0;
#X connect 36 2 18 0;
#X connect 37 0 38 0;
#X connect 40 0 34 0;
#X connect 41 0 66 2;
#X connect 41 0 67 2;
#X connect 43 0 59 0;
#X connect 44 0 53 0;
#X connect 45 0 58 3;
#X connect 46 0 58 2;
#X connect 48 0 56 0;
#X connect 49 0 57 0;
#X connect 50 0 52 0;
#X connect 51 0 48 1;
#X connect 51 0 49 1;
#X connect 51 0 53 1;
#X connect 52 0 51 0;
#X connect 53 0 48 0;
#X connect 54 0 58 4;
#X connect 56 0 60 0;
#X connect 56 1 58 1;
#X connect 56 2 46 0;
#X connect 56 3 45 0;
#X connect 56 4 54 0;
#X connect 57 0 62 0;
#X connect 57 1 55 0;
#X connect 57 2 61 0;
#X connect 58 0 47 0;
#X connect 59 0 49 0;
#X connect 60 0 58 0;
#X connect 63 0 46 1;
#X connect 64 0 45 1;
#X connect 65 0 54 1;
#X connect 66 0 13 0;
#X connect 67 0 13 0;
#X connect 68 0 1 1;
#X connect 68 0 66 1;
#X connect 68 0 67 1;
#X connect 69 0 68 0;
#X connect 70 0 31 0;
#X connect 71 0 24 0;
#X connect 72 0 80 0;
#X connect 74 0 75 0;
#X connect 75 0 2 0;
#X connect 76 0 1 2;
#X connect 77 0 76 1;
#X connect 78 0 76 0;
#X connect 79 0 76 2;
#X connect 80 0 21 0;
#X coords 0 -1 1 1 156 210 1 100 100;
