#N canvas 720 0 704 802 12;
#X obj -473 -355 +~ 1;
#X obj -473 -328 *~ 0.5;
#X obj -475 -452 delwrite~ \$0-delay1 5000;
#X obj -473 -32 vd~ \$0-delay1;
#X text -477 -428 Low Frequency Oscillator;
#X text -337 -32 x[n-t];
#X text -399 -194 t (ms);
#X text -538 8 x[n];
#X obj -473 33 *~ 1;
#X text -460 66 y[n] = x[n] + ax[n-t];
#X obj -473 -382 osc~ 1;
#X text -430 33 ax[n-t];
#X obj -502 65 +~;
#X text -3 -427 The flanger est un traitement audio où le signal original
est mixé avec une version retardé de lui même et dont le temps de
retard est contrôlé par un LFO (low frequency oscillator) \; donnant
l’effet de flanging.;
#X text -3 -327 Cela produit un filtre en peigne (y[n] = x[n] + ax[n-t])
qui balaye les fréquences selon la fréquence (rate Hz) \, la profondeur
(depth ms) et un offset (shift ms) du LFO et un coefficient a (feedback
0-1) de réinjection.;
#X text -3 -227 Une des premières utilisations de cet effet se trouve
sur le morceau "Tomorrow Never Knows" de l’album « Revolver » des
Beatles \, où le flanging est utilisé pour artificiellement doubler
la voix de John Lennon;
#X obj -473 -269 *~ 1;
#X obj -473 -229 +~ 0.001;
#X obj -551 -310 loadbang;
#X obj -670 -182 s \$0wet_r;
#X msg -670 -212 127;
#X obj -552 -260 s \$0speed_ctl_r;
#X msg -551 -285 1.28;
#X msg -591 -260 95.25;
#X obj -628 -208 s \$0shift_ctl_r;
#X obj -591 -235 s \$0depth_ctl_r;
#X msg -629 -238 2.3;
#X obj 102 102 cnv 15 116 185 empty empty flanger 5 12 0 24 -233017
-1 0;
#X obj 121 203 hsl 80 20 0.127 127 1 0 \$0speed_ctl \$0speed_ctl_r
speed 20 11 0 12 -99865 -260097 -262144 2900 1;
#X obj 168 145 vsl 20 30 0 127 0 0 \$0depth_ctl \$0depth_ctl_r depth
0 -9 0 12 -99865 -260097 -1 2900 1;
#X obj 119 145 vsl 20 30 0 127 0 0 \$0wet \$0wet_r int 0 -9 0 12 -99865
-260097 -1 2900 1;
#X obj 134 224 nbx 5 14 -1e+037 1e+037 0 0 \$0speedshow_s \$0speedshow
empty 0 -8 0 10 -262144 -1 -1 0.534501 256;
#X obj 168 179 nbx 4 15 -1e+037 1e+037 0 0 \$0depshow_s \$0depshow
empty 0 -8 0 10 -262144 -1 -1 4 256;
#X obj 119 179 nbx 3 14 -1e+037 1e+037 0 0 \$0wetshow_s \$0wetshow
empty 0 -8 0 10 -262144 -1 -1 1 256;
#X obj 121 244 hsl 80 20 0.127 127 1 0 \$0shift_ctl \$0shift_ctl_r
shift 20 11 0 12 -99865 -260097 -262144 7900 1;
#X obj 134 265 nbx 5 14 -1e+037 1e+037 0 0 \$0shiftshow_s \$0shiftshow
empty 0 -8 0 10 -262144 -1 -1 0.349606 256;
#X obj 105 -127 inlet;
#X obj 115 -117 inlet;
#X obj 142 -102 inlet;
#X obj 152 -92 inlet;
#X obj 695 -635 r toolssavebank;
#X obj 905 -718 r toolssavebang;
#X obj 1124 -528 f;
#X obj 1069 -534 f;
#X obj 979 -426 s toolssavelists;
#X obj 934 -614 f;
#X obj 697 -517 route;
#X obj 1055 -773 loadbang;
#X obj 1056 -717 \$1;
#X obj 1055 -745 del 5;
#X obj 934 -655 del;
#X obj 1196 -500 f;
#X obj 666 -433 s \$0wet_r;
#X obj 731 -456 s $depth_ctl_r;
#X obj 770 -430 s \$0speed_ctl_r;
#X obj 1113 -626 r \$0wet;
#X obj 1243 -628 r $depth_ctl;
#X obj 1340 -596 r \$0speed_ctl;
#X obj 697 -547 route phaser;
#X obj 926 -514 symbol phaser;
#X obj 932 -565 t b f b b b b;
#X obj 979 -469 pack s f f f f f;
#X obj 1302 -499 r \$0shift_ctl;
#X obj 1264 -457 f;
#X obj 698 -491 unpack f f f f;
#X obj 788 -379 s \$0shift_ctl_r;
#X obj -502 -481 inlet~;
#X obj -502 182 outlet~;
#X obj -305 -9 r \$0wet;
#X obj -304 24 / 127;
#X obj -331 70 s \$0wetshow;
#X obj -147 -288 r \$0shift_ctl;
#X obj -201 -260 / 211.667;
#X obj -278 -204 s \$0shiftshow;
#X obj -354 -367 r \$0depth_ctl;
#X obj -347 -288 s \$0depshow;
#X obj -417 -569 r \$0speed_ctl;
#X obj -381 -505 s \$0speedshow;
#X obj -405 -533 / 3;
#X obj -370 -340 / 31.75;
#X obj -283 -327 / 127;
#X connect 0 0 1 0;
#X connect 1 0 16 0;
#X connect 3 0 8 0;
#X connect 8 0 12 1;
#X connect 10 0 0 0;
#X connect 12 0 67 0;
#X connect 16 0 17 0;
#X connect 17 0 3 0;
#X connect 18 0 22 0;
#X connect 18 0 23 0;
#X connect 18 0 26 0;
#X connect 18 0 20 0;
#X connect 20 0 19 0;
#X connect 22 0 21 0;
#X connect 23 0 25 0;
#X connect 26 0 24 0;
#X connect 36 0 30 0;
#X connect 37 0 29 0;
#X connect 38 0 28 0;
#X connect 39 0 34 0;
#X connect 40 0 58 0;
#X connect 41 0 50 0;
#X connect 42 0 61 3;
#X connect 43 0 61 2;
#X connect 45 0 60 0;
#X connect 46 0 64 0;
#X connect 47 0 49 0;
#X connect 48 0 45 1;
#X connect 48 0 46 1;
#X connect 48 0 50 1;
#X connect 49 0 48 0;
#X connect 50 0 45 0;
#X connect 51 0 61 4;
#X connect 55 0 43 1;
#X connect 56 0 42 1;
#X connect 57 0 51 1;
#X connect 58 0 46 0;
#X connect 59 0 61 0;
#X connect 60 0 59 0;
#X connect 60 1 61 1;
#X connect 60 2 43 0;
#X connect 60 3 42 0;
#X connect 60 4 51 0;
#X connect 60 5 63 0;
#X connect 61 0 44 0;
#X connect 62 0 63 1;
#X connect 64 0 52 0;
#X connect 64 1 53 0;
#X connect 64 2 54 0;
#X connect 64 3 65 0;
#X connect 66 0 12 0;
#X connect 66 0 2 0;
#X connect 68 0 69 0;
#X connect 69 0 70 0;
#X connect 69 0 8 1;
#X connect 71 0 72 0;
#X connect 72 0 73 0;
#X connect 72 0 17 1;
#X connect 74 0 79 0;
#X connect 74 0 80 0;
#X connect 76 0 78 0;
#X connect 78 0 77 0;
#X connect 78 0 10 0;
#X connect 79 0 16 1;
#X connect 80 0 75 0;
#X coords 0 -1 1 1 120 189 1 100 100;
