#N canvas 470 59 704 725 10;
#X obj 101 102 cnv 15 265 195 empty empty glocken 5 180 0 20 -33289
-262144 0;
#X obj 266 124 vradio 17 1 0 4 \$0-waveform_VCO \$0waveform_VCO_in
Form -5 -10 0 11 -162280 -260097 -262144 0;
#X obj 262 225 vsl 15 50 0 127 0 0 \$0sus \$0sus_r Sustain -12 -9 0
10 -162280 -260097 -262144 772 1;
#X obj 198 238 hsl 50 15 0 127 0 0 \$0att \$0att_r Attack 5 -8 0 10
-162280 -260097 -262144 19 1;
#X obj 195 254 nbx 4 14 -1e+037 1e+037 0 0 empty \$0attshow empty 0
-8 0 11 -99865 -260097 -260097 2 256 0;
#X obj 294 239 hsl 50 15 0 127 0 0 \$0rel \$0rel_r Release/Decay -10
-8 0 10 -162280 -260097 -262144 4900 1;
#X obj 291 255 nbx 4 14 -1e+037 1e+037 0 0 empty \$0relshow empty 0
-8 0 11 -99865 -260097 -260097 508 256 0;
#X obj 249 279 nbx 4 14 -1e+037 1e+037 0 0 empty \$0susshow empty 0
-8 0 11 -99865 -260097 -260097 0.15748 256 0;
#X obj 137 122 vsl 15 70 0.127 127 0 0 \$0Freq \$0Freq_r Frequenz -30
-9 0 12 -162280 -260097 -262144 3009 1;
#X obj 104 196 nbx 5 14 -1e+037 1e+037 0 0 \$0freqshow_s \$0freqshow
empty 0 -8 0 11 -99865 -260097 -260097 440 256 0;
#X obj -226 65 inlet;
#X obj -227 514 outlet~;
#X obj 746 -103 loadbang;
#X obj 762 64 s \$0Freq_r;
#X obj 866 4 s \$0att_r;
#X obj 953 12 s \$0rel_r;
#X obj 1035 7 s \$0sus_r;
#X obj 243 132 cnv 5 1 1 empty empty sin 0 0 0 10 -33289 -262144 0
;
#X obj 243 149 cnv 5 1 1 empty empty rec 0 0 0 10 -33289 -262144 0
;
#X obj 243 166 cnv 5 1 1 empty empty saw 0 0 0 10 -33289 -262144 0
;
#X obj 243 184 cnv 5 1 1 empty empty tri 0 0 0 10 -33289 -262144 0
;
#X msg 635 -36 0;
#X obj 630 18 s \$0waveform_VCO_in;
#N canvas 720 0 704 802 voice 0;
#X obj 86 -9 inlet;
#X obj 300 -30 r \$0det;
#X floatatom 302 35 10 0 0 0 - - -, f 10;
#X obj 301 -10 / 1098.71;
#X obj 302 13 + 0.942207;
#X obj 202 -33 / 63.5;
#X obj 200 -7 - 1;
#X obj 193 21 s \$0detshow;
#X obj 22 622 osc~;
#X obj 21 584 +~;
#X obj 107 566 *~;
#X obj 55 691 *~;
#X obj 465 525 r \$0att;
#X obj 599 526 r \$0rel;
#X obj 529 344 r \$0sus;
#X obj 529 377 / 127;
#X obj 529 794 vline~;
#X obj 765 356 moses 1;
#X floatatom 766 388 5 0 0 0 - - -, f 5;
#X floatatom 819 413 5 0 0 0 - - -, f 5;
#X obj 573 694 pack f f;
#X obj 818 389 / 127;
#X obj 461 642 pack f f f f;
#X msg 443 688 \$1 \$2 \, \$3 \$4 \$2;
#X obj 599 559 * 4;
#X obj 465 558 * 4;
#X obj 463 594 s \$0attshow;
#X obj 441 424 s \$0susshow;
#X obj 632 593 s \$0relshow;
#X obj 86 34 unpack 0 0;
#N canvas 429 242 526 186 VCO1 0;
#X obj -215 -79 inlet~;
#X obj -59 0 switch~;
#X obj -59 -54 + 1;
#X obj -214 70 outlet~;
#X obj -59 -27 == 1;
#X obj -215 13 osc~;
#X text -174 10 Sinusschwingung;
#X text -17 -49 Der Oscillator ist nur aktiviert \, wenn er in der
GUI ausgewählt ist;
#X obj -59 -78 r \$0-waveform_VCO;
#X connect 0 0 5 0;
#X connect 2 0 4 0;
#X connect 4 0 1 0;
#X connect 5 0 3 0;
#X connect 8 0 2 0;
#X restore 96 447 pd VCO1;
#N canvas 453 243 488 252 VCO2 0;
#X obj -210 7 inlet~;
#X obj -83 89 switch~;
#X obj -83 31 + 1;
#X obj -210 196 outlet~;
#X obj -83 62 == 2;
#X obj -210 88 phasor~;
#X obj -210 142 -~ 0.5;
#X obj -210 169 *~ 2;
#X obj -210 115 expr~ $v1 > 0.5;
#X text -53 25 Der Oscillator ist nur aktiviert \, wenn er in der GUI
ausgewählt ist;
#X text -159 137 Rechteckschwingung;
#X obj -83 7 r \$0-waveform_VCO;
#X connect 0 0 5 0;
#X connect 2 0 4 0;
#X connect 4 0 1 0;
#X connect 5 0 8 0;
#X connect 6 0 7 0;
#X connect 7 0 3 0;
#X connect 8 0 6 0;
#X connect 11 0 2 0;
#X restore 151 447 pd VCO2;
#N canvas 397 255 527 146 VCO3 0;
#X obj -182 -40 inlet~;
#X obj -24 39 switch~;
#X obj -24 -14 + 1;
#X obj -183 65 outlet~;
#X obj -182 -13 phasor~;
#X obj -182 14 -~ 0.5;
#X obj -183 42 *~ 2;
#X text 11 -12 Der Oscillator ist nur aktiviert \, wenn er in der GUI
ausgewählt ist;
#X text -145 29 Sägezahnschwingung;
#X obj -24 12 == 3;
#X obj -24 -37 r \$0-waveform_VCO;
#X connect 0 0 4 0;
#X connect 2 0 9 0;
#X connect 4 0 5 0;
#X connect 5 0 6 0;
#X connect 6 0 3 0;
#X connect 9 0 1 0;
#X connect 10 0 2 0;
#X restore 208 447 pd VCO3;
#N canvas 517 238 456 302 VCO5 0;
#X obj -181 -40 inlet~;
#X obj -99 41 switch~;
#X obj -99 -13 + 1;
#X obj -181 224 outlet~;
#X obj -181 44 phasor~;
#X obj -160 91 *~ -1;
#X obj -160 112 +~ 1;
#X obj -182 152 min~;
#X obj -182 174 *~ 4;
#X obj -182 197 -~ 1;
#X text -153 134 Dreieckschwingung;
#X text -66 -9 Der Oscillator ist nur aktiviert \, wenn er in der GUI
ausgewählt ist;
#X obj -99 14 == 4;
#X obj -99 -33 r \$0-waveform_VCO;
#X connect 0 0 4 0;
#X connect 2 0 12 0;
#X connect 4 0 5 0;
#X connect 4 0 7 0;
#X connect 5 0 6 0;
#X connect 6 0 7 1;
#X connect 7 0 8 0;
#X connect 8 0 9 0;
#X connect 9 0 3 0;
#X connect 12 0 1 0;
#X connect 13 0 2 0;
#X restore 260 447 pd VCO5;
#X obj 227 364 +~;
#N canvas 429 242 526 186 VCO1 0;
#X obj -215 -79 inlet~;
#X obj -59 0 switch~;
#X obj -59 -54 + 1;
#X obj -214 70 outlet~;
#X obj -59 -27 == 1;
#X obj -215 13 osc~;
#X text -174 10 Sinusschwingung;
#X text -17 -49 Der Oscillator ist nur aktiviert \, wenn er in der
GUI ausgewählt ist;
#X obj -59 -78 r \$0-waveform_VCO;
#X connect 0 0 5 0;
#X connect 2 0 4 0;
#X connect 4 0 1 0;
#X connect 5 0 3 0;
#X connect 8 0 2 0;
#X restore 272 275 pd VCO1;
#N canvas 453 243 488 252 VCO2 0;
#X obj -210 7 inlet~;
#X obj -83 89 switch~;
#X obj -83 31 + 1;
#X obj -210 196 outlet~;
#X obj -83 62 == 2;
#X obj -210 88 phasor~;
#X obj -210 142 -~ 0.5;
#X obj -210 169 *~ 2;
#X obj -210 115 expr~ $v1 > 0.5;
#X text -53 25 Der Oscillator ist nur aktiviert \, wenn er in der GUI
ausgewählt ist;
#X text -159 137 Rechteckschwingung;
#X obj -83 7 r \$0-waveform_VCO;
#X connect 0 0 5 0;
#X connect 2 0 4 0;
#X connect 4 0 1 0;
#X connect 5 0 8 0;
#X connect 6 0 7 0;
#X connect 7 0 3 0;
#X connect 8 0 6 0;
#X connect 11 0 2 0;
#X restore 327 275 pd VCO2;
#N canvas 397 255 527 146 VCO3 0;
#X obj -182 -40 inlet~;
#X obj -24 39 switch~;
#X obj -24 -14 + 1;
#X obj -183 65 outlet~;
#X obj -182 -13 phasor~;
#X obj -182 14 -~ 0.5;
#X obj -183 42 *~ 2;
#X text 11 -12 Der Oscillator ist nur aktiviert \, wenn er in der GUI
ausgewählt ist;
#X text -145 29 Sägezahnschwingung;
#X obj -24 12 == 3;
#X obj -24 -37 r \$0-waveform_VCO;
#X connect 0 0 4 0;
#X connect 2 0 9 0;
#X connect 4 0 5 0;
#X connect 5 0 6 0;
#X connect 6 0 3 0;
#X connect 9 0 1 0;
#X connect 10 0 2 0;
#X restore 384 275 pd VCO3;
#N canvas 517 238 456 302 VCO5 0;
#X obj -181 -40 inlet~;
#X obj -99 41 switch~;
#X obj -99 -13 + 1;
#X obj -181 224 outlet~;
#X obj -181 44 phasor~;
#X obj -160 91 *~ -1;
#X obj -160 112 +~ 1;
#X obj -182 152 min~;
#X obj -182 174 *~ 4;
#X obj -182 197 -~ 1;
#X text -153 134 Dreieckschwingung;
#X text -66 -9 Der Oscillator ist nur aktiviert \, wenn er in der GUI
ausgewählt ist;
#X obj -99 14 == 4;
#X obj -99 -33 r \$0-waveform_VCO;
#X connect 0 0 4 0;
#X connect 2 0 12 0;
#X connect 4 0 5 0;
#X connect 4 0 7 0;
#X connect 5 0 6 0;
#X connect 6 0 7 1;
#X connect 7 0 8 0;
#X connect 8 0 9 0;
#X connect 9 0 3 0;
#X connect 12 0 1 0;
#X connect 13 0 2 0;
#X restore 436 275 pd VCO5;
#X obj 289 342 *~;
#X obj 305 187 *~;
#X floatatom 350 173 5 0 0 0 - - -, f 5;
#X obj 81 368 *~;
#X floatatom 125 343 5 0 0 0 - - -, f 5;
#X obj 180 543 pow 1.2;
#X obj 564 238 pow 1.2;
#X text 445 -44 Tune 1;
#X text 128 325 Tune 2;
#X obj 415 -16 / 1.27;
#X obj 409 8 moses 50;
#X obj 406 56 / 100;
#X obj 405 81 + 0.5;
#X obj 453 61 / 50;
#X obj 115 209 / 1.27;
#X obj 109 233 moses 50;
#X obj 106 281 / 100;
#X obj 105 306 + 0.5;
#X obj 153 286 / 50;
#X obj 84 142 *~;
#X obj 85 66 sig~;
#X obj 228 498 r \$0Int_1;
#X obj 569 191 r \$0Int_2;
#X obj 112 183 r \$0tune_1;
#X obj 414 -61 r \$0tune_2;
#X obj 43 736 outlet~;
#X obj 3 7 r \$0freqshow;
#X obj 114 382 s \$0tune_1_show;
#X obj 364 211 s \$0tune_2_show;
#X obj 546 458 *;
#X obj 562 399 t b f;
#X obj 532 429 f;
#X obj 427 612 f;
#X obj 514 552 t b f;
#X obj 798 444 t f f;
#X connect 0 0 29 0;
#X connect 1 0 3 0;
#X connect 1 0 5 0;
#X connect 2 0 58 1;
#X connect 3 0 4 0;
#X connect 4 0 2 0;
#X connect 5 0 6 0;
#X connect 6 0 7 0;
#X connect 8 0 11 0;
#X connect 9 0 8 0;
#X connect 10 0 9 1;
#X connect 11 0 64 0;
#X connect 12 0 25 0;
#X connect 13 0 24 0;
#X connect 14 0 15 0;
#X connect 15 0 27 0;
#X connect 15 0 70 1;
#X connect 16 0 11 1;
#X connect 17 0 18 0;
#X connect 17 1 21 0;
#X connect 18 0 20 0;
#X connect 19 0 73 0;
#X connect 20 0 16 0;
#X connect 21 0 19 0;
#X connect 22 0 23 0;
#X connect 23 0 16 0;
#X connect 24 0 20 1;
#X connect 24 0 22 3;
#X connect 24 0 28 0;
#X connect 25 0 22 1;
#X connect 25 0 26 0;
#X connect 29 0 59 0;
#X connect 29 1 17 0;
#X connect 30 0 10 0;
#X connect 31 0 10 0;
#X connect 32 0 10 0;
#X connect 33 0 10 0;
#X connect 34 0 30 0;
#X connect 34 0 31 0;
#X connect 34 0 32 0;
#X connect 34 0 33 0;
#X connect 35 0 39 0;
#X connect 36 0 39 0;
#X connect 37 0 39 0;
#X connect 38 0 39 0;
#X connect 39 0 34 1;
#X connect 40 0 35 0;
#X connect 40 0 36 0;
#X connect 40 0 37 0;
#X connect 40 0 38 0;
#X connect 41 0 40 1;
#X connect 41 0 67 0;
#X connect 42 0 34 0;
#X connect 43 0 42 1;
#X connect 43 0 66 0;
#X connect 44 0 10 1;
#X connect 45 0 39 1;
#X connect 48 0 49 0;
#X connect 49 0 50 0;
#X connect 49 1 52 0;
#X connect 50 0 51 0;
#X connect 51 0 41 0;
#X connect 52 0 41 0;
#X connect 53 0 54 0;
#X connect 54 0 55 0;
#X connect 54 1 57 0;
#X connect 55 0 56 0;
#X connect 56 0 43 0;
#X connect 57 0 43 0;
#X connect 58 0 9 0;
#X connect 58 0 40 0;
#X connect 58 0 42 0;
#X connect 59 0 58 0;
#X connect 60 0 44 0;
#X connect 61 0 45 0;
#X connect 62 0 53 0;
#X connect 63 0 48 0;
#X connect 65 0 59 0;
#X connect 68 0 72 0;
#X connect 69 0 70 0;
#X connect 69 1 68 1;
#X connect 70 0 68 0;
#X connect 71 0 22 0;
#X connect 72 0 71 0;
#X connect 72 1 22 2;
#X connect 73 0 69 0;
#X connect 73 1 71 1;
#X restore -206 382 pd voice 1;
#X obj -226 149 pack 0 0 0;
#X obj -224 186 route 1 2 3 4;
#X obj 109 150 tgl 20 0 \$0on \$0on_r Ton -1 -8 0 12 -162280 -260097
-262144 0 1;
#X obj -141 -92 r \$0on;
#X obj 14 -49 s \$0freqshow;
#X obj -142 -66 * 127;
#X obj -154 32 pack f f;
#X obj -140 -32 t b f;
#X obj -151 -5 f;
#X obj -43 20 sel 0;
#X msg -80 93 stop;
#X obj -18 54 route stop;
#X obj -23 89 bng 15 250 50 0 empty empty empty 17 7 0 10 -262144 -1
-1;
#X obj 1551 -199 r toolssavebank;
#X obj 1761 -282 r toolssavebang;
#X obj 1980 -92 f;
#X obj 1925 -98 f;
#X obj 1835 10 s toolssavelists;
#X obj 1790 -178 f;
#X obj 1553 -81 route;
#X obj 1911 -337 loadbang;
#X obj 1912 -281 \$1;
#X obj 1911 -309 del 5;
#X obj 1790 -219 del;
#X obj 2052 -64 f;
#X obj 1502 107 s \$0Freq_r;
#X obj 1529 74 s \$0att_r;
#X obj 1589 106 s \$0rel_r;
#X obj 1617 76 s \$0sus_r;
#X obj 1390 79 s \$0waveform_VCO_in;
#X obj 2012 -149 r \$0Freq;
#X obj 2074 -125 r \$0att;
#X obj 2104 -97 r \$0rel;
#X obj 2172 -99 r \$0sus;
#X obj 2142 -51 f;
#X obj 2087 -57 f;
#X obj 2214 -23 f;
#X obj 1946 -180 r \$0-waveform_VCO;
#X obj 351 -71 inlet;
#X obj 518 49 inlet;
#X obj 528 59 inlet;
#X obj 538 69 inlet;
#X obj 304 -72 inlet;
#X obj 388 -27 inlet;
#X obj 108 223 hsl 40 15 0 127 0 0 \$0det \$0det_r detune 3 7 0 10
-162280 -260097 -262144 1950 1;
#X obj 108 240 nbx 4 14 -1e+037 1e+037 0 0 empty \$0detshow empty 0
-8 0 11 -99865 -260097 -260097 0 256 0;
#X obj 799 201 s \$0det_r;
#X msg 806 144 63.5;
#X obj 158 243 bng 10 250 50 0 \$0nodet \$0nodet_r empty 17 7 0 10
-262144 -1 -1;
#X obj -38 195 r \$0nodet;
#X msg -37 221 63.5;
#X obj -37 256 s \$0det_r;
#X obj 585 82 inlet;
#X obj 2291 18 f;
#X obj -24 -195 r \$0Freq;
#X obj -30 -95 mtof;
#X obj -24 -127 + 21;
#X obj -25 -164 / 1.155;
#X obj -55 -63 int;
#X msg 749 -4 55.4462;
#X obj 202 140 vsl 15 40 0.127 127 0 0 \$0Int_1 \$0Int_1_r Int -2 -9
0 12 -162280 -260097 -262144 1226 1;
#X obj 191 106 cnv 15 5 5 empty empty Mod:1 0 8 0 14 -33289 -260097
0;
#X obj 307 106 cnv 15 5 5 empty empty Mod:2 0 8 0 14 -33289 -260097
0;
#X obj 190 186 hsl 40 15 0 127 0 0 \$0tune_1 \$0tune_1_r tune 6 7 0
10 -162280 -260097 -262144 2401 1;
#X obj 315 140 vsl 15 40 0.127 127 0 0 \$0Int_2 \$0Int_2_r Int -2 -9
0 12 -162280 -260097 -262144 0 1;
#X obj 303 186 hsl 40 15 0 127 0 0 \$0tune_2 \$0tune_2_r tune 6 7 0
10 -162280 -260097 -262144 3062 1;
#X obj 187 202 nbx 4 14 -1e+037 1e+037 0 0 empty \$0tune_1_show empty
0 -8 0 11 -99865 -260097 -260097 1.2315 256 0;
#X obj 300 202 nbx 4 14 -1e+037 1e+037 0 0 empty \$0tune_2_show empty
0 -8 0 11 -99865 -260097 -260097 1.57008 256 0;
#X obj 398 -17 inlet;
#X obj 414 -2 inlet;
#X obj 429 7 inlet;
#X obj 674 174 s \$0tune_1_r;
#X obj 712 219 s \$0tune_2_r;
#X obj 879 157 s \$0Int_1_r;
#X obj 926 124 s \$0Int_2_r;
#X obj 1692 45 s \$0tune_1_r;
#X obj 1702 55 s \$0tune_2_r;
#X obj 1658 3 s \$0Int_1_r;
#X obj 1668 13 s \$0Int_2_r;
#X obj 2238 -71 r \$0det;
#X obj 1662 106 s \$0det_r;
#X obj 1782 -78 symbol glocken;
#X obj 1553 -111 route glocken;
#X obj 1788 -129 t b f b b b b b b b b b b;
#X obj 1835 -21 pack s f f f f f f f f f f f;
#X obj 2326 41 f;
#X obj 2349 69 f;
#X obj 2389 104 f;
#X obj 2285 -41 r \$0Int_1;
#X obj 2330 -6 r \$0Int_2;
#X obj 2365 28 r \$0tune_1;
#X obj 2420 85 r \$0tune_2;
#X obj 1552 -57 unpack f f f f f f f f f f;
#X msg 1037 -13 20;
#X msg 854 -22 0.5;
#X msg 917 -22 127;
#N canvas 720 0 704 802 voice 0;
#X obj 86 -9 inlet;
#X obj 300 -30 r \$0det;
#X floatatom 302 35 10 0 0 0 - - -, f 10;
#X obj 301 -10 / 1098.71;
#X obj 302 13 + 0.942207;
#X obj 202 -33 / 63.5;
#X obj 200 -7 - 1;
#X obj 193 21 s \$0detshow;
#X obj 22 622 osc~;
#X obj 21 584 +~;
#X obj 107 566 *~;
#X obj 55 691 *~;
#X obj 465 525 r \$0att;
#X obj 599 526 r \$0rel;
#X obj 529 344 r \$0sus;
#X obj 529 377 / 127;
#X obj 529 794 vline~;
#X obj 765 356 moses 1;
#X floatatom 766 388 5 0 0 0 - - -, f 5;
#X floatatom 819 413 5 0 0 0 - - -, f 5;
#X obj 573 694 pack f f;
#X obj 818 389 / 127;
#X obj 461 642 pack f f f f;
#X msg 443 688 \$1 \$2 \, \$3 \$4 \$2;
#X obj 599 559 * 4;
#X obj 465 558 * 4;
#X obj 463 594 s \$0attshow;
#X obj 441 424 s \$0susshow;
#X obj 632 593 s \$0relshow;
#X obj 86 34 unpack 0 0;
#N canvas 429 242 526 186 VCO1 0;
#X obj -215 -79 inlet~;
#X obj -59 0 switch~;
#X obj -59 -54 + 1;
#X obj -214 70 outlet~;
#X obj -59 -27 == 1;
#X obj -215 13 osc~;
#X text -174 10 Sinusschwingung;
#X text -17 -49 Der Oscillator ist nur aktiviert \, wenn er in der
GUI ausgewählt ist;
#X obj -59 -78 r \$0-waveform_VCO;
#X connect 0 0 5 0;
#X connect 2 0 4 0;
#X connect 4 0 1 0;
#X connect 5 0 3 0;
#X connect 8 0 2 0;
#X restore 96 447 pd VCO1;
#N canvas 453 243 488 252 VCO2 0;
#X obj -210 7 inlet~;
#X obj -83 89 switch~;
#X obj -83 31 + 1;
#X obj -210 196 outlet~;
#X obj -83 62 == 2;
#X obj -210 88 phasor~;
#X obj -210 142 -~ 0.5;
#X obj -210 169 *~ 2;
#X obj -210 115 expr~ $v1 > 0.5;
#X text -53 25 Der Oscillator ist nur aktiviert \, wenn er in der GUI
ausgewählt ist;
#X text -159 137 Rechteckschwingung;
#X obj -83 7 r \$0-waveform_VCO;
#X connect 0 0 5 0;
#X connect 2 0 4 0;
#X connect 4 0 1 0;
#X connect 5 0 8 0;
#X connect 6 0 7 0;
#X connect 7 0 3 0;
#X connect 8 0 6 0;
#X connect 11 0 2 0;
#X restore 151 447 pd VCO2;
#N canvas 397 255 527 146 VCO3 0;
#X obj -182 -40 inlet~;
#X obj -24 39 switch~;
#X obj -24 -14 + 1;
#X obj -183 65 outlet~;
#X obj -182 -13 phasor~;
#X obj -182 14 -~ 0.5;
#X obj -183 42 *~ 2;
#X text 11 -12 Der Oscillator ist nur aktiviert \, wenn er in der GUI
ausgewählt ist;
#X text -145 29 Sägezahnschwingung;
#X obj -24 12 == 3;
#X obj -24 -37 r \$0-waveform_VCO;
#X connect 0 0 4 0;
#X connect 2 0 9 0;
#X connect 4 0 5 0;
#X connect 5 0 6 0;
#X connect 6 0 3 0;
#X connect 9 0 1 0;
#X connect 10 0 2 0;
#X restore 208 447 pd VCO3;
#N canvas 517 238 456 302 VCO5 0;
#X obj -181 -40 inlet~;
#X obj -99 41 switch~;
#X obj -99 -13 + 1;
#X obj -181 224 outlet~;
#X obj -181 44 phasor~;
#X obj -160 91 *~ -1;
#X obj -160 112 +~ 1;
#X obj -182 152 min~;
#X obj -182 174 *~ 4;
#X obj -182 197 -~ 1;
#X text -153 134 Dreieckschwingung;
#X text -66 -9 Der Oscillator ist nur aktiviert \, wenn er in der GUI
ausgewählt ist;
#X obj -99 14 == 4;
#X obj -99 -33 r \$0-waveform_VCO;
#X connect 0 0 4 0;
#X connect 2 0 12 0;
#X connect 4 0 5 0;
#X connect 4 0 7 0;
#X connect 5 0 6 0;
#X connect 6 0 7 1;
#X connect 7 0 8 0;
#X connect 8 0 9 0;
#X connect 9 0 3 0;
#X connect 12 0 1 0;
#X connect 13 0 2 0;
#X restore 260 447 pd VCO5;
#X obj 227 364 +~;
#N canvas 429 242 526 186 VCO1 0;
#X obj -215 -79 inlet~;
#X obj -59 0 switch~;
#X obj -59 -54 + 1;
#X obj -214 70 outlet~;
#X obj -59 -27 == 1;
#X obj -215 13 osc~;
#X text -174 10 Sinusschwingung;
#X text -17 -49 Der Oscillator ist nur aktiviert \, wenn er in der
GUI ausgewählt ist;
#X obj -59 -78 r \$0-waveform_VCO;
#X connect 0 0 5 0;
#X connect 2 0 4 0;
#X connect 4 0 1 0;
#X connect 5 0 3 0;
#X connect 8 0 2 0;
#X restore 272 275 pd VCO1;
#N canvas 453 243 488 252 VCO2 0;
#X obj -210 7 inlet~;
#X obj -83 89 switch~;
#X obj -83 31 + 1;
#X obj -210 196 outlet~;
#X obj -83 62 == 2;
#X obj -210 88 phasor~;
#X obj -210 142 -~ 0.5;
#X obj -210 169 *~ 2;
#X obj -210 115 expr~ $v1 > 0.5;
#X text -53 25 Der Oscillator ist nur aktiviert \, wenn er in der GUI
ausgewählt ist;
#X text -159 137 Rechteckschwingung;
#X obj -83 7 r \$0-waveform_VCO;
#X connect 0 0 5 0;
#X connect 2 0 4 0;
#X connect 4 0 1 0;
#X connect 5 0 8 0;
#X connect 6 0 7 0;
#X connect 7 0 3 0;
#X connect 8 0 6 0;
#X connect 11 0 2 0;
#X restore 327 275 pd VCO2;
#N canvas 397 255 527 146 VCO3 0;
#X obj -182 -40 inlet~;
#X obj -24 39 switch~;
#X obj -24 -14 + 1;
#X obj -183 65 outlet~;
#X obj -182 -13 phasor~;
#X obj -182 14 -~ 0.5;
#X obj -183 42 *~ 2;
#X text 11 -12 Der Oscillator ist nur aktiviert \, wenn er in der GUI
ausgewählt ist;
#X text -145 29 Sägezahnschwingung;
#X obj -24 12 == 3;
#X obj -24 -37 r \$0-waveform_VCO;
#X connect 0 0 4 0;
#X connect 2 0 9 0;
#X connect 4 0 5 0;
#X connect 5 0 6 0;
#X connect 6 0 3 0;
#X connect 9 0 1 0;
#X connect 10 0 2 0;
#X restore 384 275 pd VCO3;
#N canvas 517 238 456 302 VCO5 0;
#X obj -181 -40 inlet~;
#X obj -99 41 switch~;
#X obj -99 -13 + 1;
#X obj -181 224 outlet~;
#X obj -181 44 phasor~;
#X obj -160 91 *~ -1;
#X obj -160 112 +~ 1;
#X obj -182 152 min~;
#X obj -182 174 *~ 4;
#X obj -182 197 -~ 1;
#X text -153 134 Dreieckschwingung;
#X text -66 -9 Der Oscillator ist nur aktiviert \, wenn er in der GUI
ausgewählt ist;
#X obj -99 14 == 4;
#X obj -99 -33 r \$0-waveform_VCO;
#X connect 0 0 4 0;
#X connect 2 0 12 0;
#X connect 4 0 5 0;
#X connect 4 0 7 0;
#X connect 5 0 6 0;
#X connect 6 0 7 1;
#X connect 7 0 8 0;
#X connect 8 0 9 0;
#X connect 9 0 3 0;
#X connect 12 0 1 0;
#X connect 13 0 2 0;
#X restore 436 275 pd VCO5;
#X obj 289 342 *~;
#X obj 305 187 *~;
#X floatatom 350 173 5 0 0 0 - - -, f 5;
#X obj 81 368 *~;
#X floatatom 125 343 5 0 0 0 - - -, f 5;
#X obj 180 543 pow 1.2;
#X obj 564 238 pow 1.2;
#X text 445 -44 Tune 1;
#X text 128 325 Tune 2;
#X obj 415 -16 / 1.27;
#X obj 409 8 moses 50;
#X obj 406 56 / 100;
#X obj 405 81 + 0.5;
#X obj 453 61 / 50;
#X obj 115 209 / 1.27;
#X obj 109 233 moses 50;
#X obj 106 281 / 100;
#X obj 105 306 + 0.5;
#X obj 153 286 / 50;
#X obj 84 142 *~;
#X obj 85 66 sig~;
#X obj 228 498 r \$0Int_1;
#X obj 569 191 r \$0Int_2;
#X obj 112 183 r \$0tune_1;
#X obj 414 -61 r \$0tune_2;
#X obj 43 736 outlet~;
#X obj 3 7 r \$0freqshow;
#X obj 114 382 s \$0tune_1_show;
#X obj 364 211 s \$0tune_2_show;
#X obj 546 458 *;
#X obj 562 399 t b f;
#X obj 532 429 f;
#X obj 427 612 f;
#X obj 514 552 t b f;
#X obj 798 444 t f f;
#X connect 0 0 29 0;
#X connect 1 0 3 0;
#X connect 1 0 5 0;
#X connect 2 0 58 1;
#X connect 3 0 4 0;
#X connect 4 0 2 0;
#X connect 5 0 6 0;
#X connect 6 0 7 0;
#X connect 8 0 11 0;
#X connect 9 0 8 0;
#X connect 10 0 9 1;
#X connect 11 0 64 0;
#X connect 12 0 25 0;
#X connect 13 0 24 0;
#X connect 14 0 15 0;
#X connect 15 0 27 0;
#X connect 15 0 70 1;
#X connect 16 0 11 1;
#X connect 17 0 18 0;
#X connect 17 1 21 0;
#X connect 18 0 20 0;
#X connect 19 0 73 0;
#X connect 20 0 16 0;
#X connect 21 0 19 0;
#X connect 22 0 23 0;
#X connect 23 0 16 0;
#X connect 24 0 20 1;
#X connect 24 0 22 3;
#X connect 24 0 28 0;
#X connect 25 0 22 1;
#X connect 25 0 26 0;
#X connect 29 0 59 0;
#X connect 29 1 17 0;
#X connect 30 0 10 0;
#X connect 31 0 10 0;
#X connect 32 0 10 0;
#X connect 33 0 10 0;
#X connect 34 0 30 0;
#X connect 34 0 31 0;
#X connect 34 0 32 0;
#X connect 34 0 33 0;
#X connect 35 0 39 0;
#X connect 36 0 39 0;
#X connect 37 0 39 0;
#X connect 38 0 39 0;
#X connect 39 0 34 1;
#X connect 40 0 35 0;
#X connect 40 0 36 0;
#X connect 40 0 37 0;
#X connect 40 0 38 0;
#X connect 41 0 40 1;
#X connect 41 0 67 0;
#X connect 42 0 34 0;
#X connect 43 0 42 1;
#X connect 43 0 66 0;
#X connect 44 0 10 1;
#X connect 45 0 39 1;
#X connect 48 0 49 0;
#X connect 49 0 50 0;
#X connect 49 1 52 0;
#X connect 50 0 51 0;
#X connect 51 0 41 0;
#X connect 52 0 41 0;
#X connect 53 0 54 0;
#X connect 54 0 55 0;
#X connect 54 1 57 0;
#X connect 55 0 56 0;
#X connect 56 0 43 0;
#X connect 57 0 43 0;
#X connect 58 0 9 0;
#X connect 58 0 40 0;
#X connect 58 0 42 0;
#X connect 59 0 58 0;
#X connect 60 0 44 0;
#X connect 61 0 45 0;
#X connect 62 0 53 0;
#X connect 63 0 48 0;
#X connect 65 0 59 0;
#X connect 68 0 72 0;
#X connect 69 0 70 0;
#X connect 69 1 68 1;
#X connect 70 0 68 0;
#X connect 71 0 22 0;
#X connect 72 0 71 0;
#X connect 72 1 22 2;
#X connect 73 0 69 0;
#X connect 73 1 71 1;
#X restore -142 395 pd voice 2;
#N canvas 720 0 704 802 voice 0;
#X obj 86 -9 inlet;
#X obj 300 -30 r \$0det;
#X floatatom 302 35 10 0 0 0 - - -, f 10;
#X obj 301 -10 / 1098.71;
#X obj 302 13 + 0.942207;
#X obj 202 -33 / 63.5;
#X obj 200 -7 - 1;
#X obj 193 21 s \$0detshow;
#X obj 22 622 osc~;
#X obj 21 584 +~;
#X obj 107 566 *~;
#X obj 55 691 *~;
#X obj 465 525 r \$0att;
#X obj 599 526 r \$0rel;
#X obj 529 344 r \$0sus;
#X obj 529 377 / 127;
#X obj 529 794 vline~;
#X obj 765 356 moses 1;
#X floatatom 766 388 5 0 0 0 - - -, f 5;
#X floatatom 819 413 5 0 0 0 - - -, f 5;
#X obj 573 694 pack f f;
#X obj 818 389 / 127;
#X obj 461 642 pack f f f f;
#X msg 443 688 \$1 \$2 \, \$3 \$4 \$2;
#X obj 599 559 * 4;
#X obj 465 558 * 4;
#X obj 463 594 s \$0attshow;
#X obj 441 424 s \$0susshow;
#X obj 632 593 s \$0relshow;
#X obj 86 34 unpack 0 0;
#N canvas 429 242 526 186 VCO1 0;
#X obj -215 -79 inlet~;
#X obj -59 0 switch~;
#X obj -59 -54 + 1;
#X obj -214 70 outlet~;
#X obj -59 -27 == 1;
#X obj -215 13 osc~;
#X text -174 10 Sinusschwingung;
#X text -17 -49 Der Oscillator ist nur aktiviert \, wenn er in der
GUI ausgewählt ist;
#X obj -59 -78 r \$0-waveform_VCO;
#X connect 0 0 5 0;
#X connect 2 0 4 0;
#X connect 4 0 1 0;
#X connect 5 0 3 0;
#X connect 8 0 2 0;
#X restore 96 447 pd VCO1;
#N canvas 453 243 488 252 VCO2 0;
#X obj -210 7 inlet~;
#X obj -83 89 switch~;
#X obj -83 31 + 1;
#X obj -210 196 outlet~;
#X obj -83 62 == 2;
#X obj -210 88 phasor~;
#X obj -210 142 -~ 0.5;
#X obj -210 169 *~ 2;
#X obj -210 115 expr~ $v1 > 0.5;
#X text -53 25 Der Oscillator ist nur aktiviert \, wenn er in der GUI
ausgewählt ist;
#X text -159 137 Rechteckschwingung;
#X obj -83 7 r \$0-waveform_VCO;
#X connect 0 0 5 0;
#X connect 2 0 4 0;
#X connect 4 0 1 0;
#X connect 5 0 8 0;
#X connect 6 0 7 0;
#X connect 7 0 3 0;
#X connect 8 0 6 0;
#X connect 11 0 2 0;
#X restore 151 447 pd VCO2;
#N canvas 397 255 527 146 VCO3 0;
#X obj -182 -40 inlet~;
#X obj -24 39 switch~;
#X obj -24 -14 + 1;
#X obj -183 65 outlet~;
#X obj -182 -13 phasor~;
#X obj -182 14 -~ 0.5;
#X obj -183 42 *~ 2;
#X text 11 -12 Der Oscillator ist nur aktiviert \, wenn er in der GUI
ausgewählt ist;
#X text -145 29 Sägezahnschwingung;
#X obj -24 12 == 3;
#X obj -24 -37 r \$0-waveform_VCO;
#X connect 0 0 4 0;
#X connect 2 0 9 0;
#X connect 4 0 5 0;
#X connect 5 0 6 0;
#X connect 6 0 3 0;
#X connect 9 0 1 0;
#X connect 10 0 2 0;
#X restore 208 447 pd VCO3;
#N canvas 517 238 456 302 VCO5 0;
#X obj -181 -40 inlet~;
#X obj -99 41 switch~;
#X obj -99 -13 + 1;
#X obj -181 224 outlet~;
#X obj -181 44 phasor~;
#X obj -160 91 *~ -1;
#X obj -160 112 +~ 1;
#X obj -182 152 min~;
#X obj -182 174 *~ 4;
#X obj -182 197 -~ 1;
#X text -153 134 Dreieckschwingung;
#X text -66 -9 Der Oscillator ist nur aktiviert \, wenn er in der GUI
ausgewählt ist;
#X obj -99 14 == 4;
#X obj -99 -33 r \$0-waveform_VCO;
#X connect 0 0 4 0;
#X connect 2 0 12 0;
#X connect 4 0 5 0;
#X connect 4 0 7 0;
#X connect 5 0 6 0;
#X connect 6 0 7 1;
#X connect 7 0 8 0;
#X connect 8 0 9 0;
#X connect 9 0 3 0;
#X connect 12 0 1 0;
#X connect 13 0 2 0;
#X restore 260 447 pd VCO5;
#X obj 227 364 +~;
#N canvas 429 242 526 186 VCO1 0;
#X obj -215 -79 inlet~;
#X obj -59 0 switch~;
#X obj -59 -54 + 1;
#X obj -214 70 outlet~;
#X obj -59 -27 == 1;
#X obj -215 13 osc~;
#X text -174 10 Sinusschwingung;
#X text -17 -49 Der Oscillator ist nur aktiviert \, wenn er in der
GUI ausgewählt ist;
#X obj -59 -78 r \$0-waveform_VCO;
#X connect 0 0 5 0;
#X connect 2 0 4 0;
#X connect 4 0 1 0;
#X connect 5 0 3 0;
#X connect 8 0 2 0;
#X restore 272 275 pd VCO1;
#N canvas 453 243 488 252 VCO2 0;
#X obj -210 7 inlet~;
#X obj -83 89 switch~;
#X obj -83 31 + 1;
#X obj -210 196 outlet~;
#X obj -83 62 == 2;
#X obj -210 88 phasor~;
#X obj -210 142 -~ 0.5;
#X obj -210 169 *~ 2;
#X obj -210 115 expr~ $v1 > 0.5;
#X text -53 25 Der Oscillator ist nur aktiviert \, wenn er in der GUI
ausgewählt ist;
#X text -159 137 Rechteckschwingung;
#X obj -83 7 r \$0-waveform_VCO;
#X connect 0 0 5 0;
#X connect 2 0 4 0;
#X connect 4 0 1 0;
#X connect 5 0 8 0;
#X connect 6 0 7 0;
#X connect 7 0 3 0;
#X connect 8 0 6 0;
#X connect 11 0 2 0;
#X restore 327 275 pd VCO2;
#N canvas 397 255 527 146 VCO3 0;
#X obj -182 -40 inlet~;
#X obj -24 39 switch~;
#X obj -24 -14 + 1;
#X obj -183 65 outlet~;
#X obj -182 -13 phasor~;
#X obj -182 14 -~ 0.5;
#X obj -183 42 *~ 2;
#X text 11 -12 Der Oscillator ist nur aktiviert \, wenn er in der GUI
ausgewählt ist;
#X text -145 29 Sägezahnschwingung;
#X obj -24 12 == 3;
#X obj -24 -37 r \$0-waveform_VCO;
#X connect 0 0 4 0;
#X connect 2 0 9 0;
#X connect 4 0 5 0;
#X connect 5 0 6 0;
#X connect 6 0 3 0;
#X connect 9 0 1 0;
#X connect 10 0 2 0;
#X restore 384 275 pd VCO3;
#N canvas 517 238 456 302 VCO5 0;
#X obj -181 -40 inlet~;
#X obj -99 41 switch~;
#X obj -99 -13 + 1;
#X obj -181 224 outlet~;
#X obj -181 44 phasor~;
#X obj -160 91 *~ -1;
#X obj -160 112 +~ 1;
#X obj -182 152 min~;
#X obj -182 174 *~ 4;
#X obj -182 197 -~ 1;
#X text -153 134 Dreieckschwingung;
#X text -66 -9 Der Oscillator ist nur aktiviert \, wenn er in der GUI
ausgewählt ist;
#X obj -99 14 == 4;
#X obj -99 -33 r \$0-waveform_VCO;
#X connect 0 0 4 0;
#X connect 2 0 12 0;
#X connect 4 0 5 0;
#X connect 4 0 7 0;
#X connect 5 0 6 0;
#X connect 6 0 7 1;
#X connect 7 0 8 0;
#X connect 8 0 9 0;
#X connect 9 0 3 0;
#X connect 12 0 1 0;
#X connect 13 0 2 0;
#X restore 436 275 pd VCO5;
#X obj 289 342 *~;
#X obj 305 187 *~;
#X floatatom 350 173 5 0 0 0 - - -, f 5;
#X obj 81 368 *~;
#X floatatom 125 343 5 0 0 0 - - -, f 5;
#X obj 180 543 pow 1.2;
#X obj 564 238 pow 1.2;
#X text 445 -44 Tune 1;
#X text 128 325 Tune 2;
#X obj 415 -16 / 1.27;
#X obj 409 8 moses 50;
#X obj 406 56 / 100;
#X obj 405 81 + 0.5;
#X obj 453 61 / 50;
#X obj 115 209 / 1.27;
#X obj 109 233 moses 50;
#X obj 106 281 / 100;
#X obj 105 306 + 0.5;
#X obj 153 286 / 50;
#X obj 84 142 *~;
#X obj 85 66 sig~;
#X obj 228 498 r \$0Int_1;
#X obj 569 191 r \$0Int_2;
#X obj 112 183 r \$0tune_1;
#X obj 414 -61 r \$0tune_2;
#X obj 43 736 outlet~;
#X obj 3 7 r \$0freqshow;
#X obj 114 382 s \$0tune_1_show;
#X obj 364 211 s \$0tune_2_show;
#X obj 546 458 *;
#X obj 562 399 t b f;
#X obj 532 429 f;
#X obj 427 612 f;
#X obj 514 552 t b f;
#X obj 798 444 t f f;
#X connect 0 0 29 0;
#X connect 1 0 3 0;
#X connect 1 0 5 0;
#X connect 2 0 58 1;
#X connect 3 0 4 0;
#X connect 4 0 2 0;
#X connect 5 0 6 0;
#X connect 6 0 7 0;
#X connect 8 0 11 0;
#X connect 9 0 8 0;
#X connect 10 0 9 1;
#X connect 11 0 64 0;
#X connect 12 0 25 0;
#X connect 13 0 24 0;
#X connect 14 0 15 0;
#X connect 15 0 27 0;
#X connect 15 0 70 1;
#X connect 16 0 11 1;
#X connect 17 0 18 0;
#X connect 17 1 21 0;
#X connect 18 0 20 0;
#X connect 19 0 73 0;
#X connect 20 0 16 0;
#X connect 21 0 19 0;
#X connect 22 0 23 0;
#X connect 23 0 16 0;
#X connect 24 0 20 1;
#X connect 24 0 22 3;
#X connect 24 0 28 0;
#X connect 25 0 22 1;
#X connect 25 0 26 0;
#X connect 29 0 59 0;
#X connect 29 1 17 0;
#X connect 30 0 10 0;
#X connect 31 0 10 0;
#X connect 32 0 10 0;
#X connect 33 0 10 0;
#X connect 34 0 30 0;
#X connect 34 0 31 0;
#X connect 34 0 32 0;
#X connect 34 0 33 0;
#X connect 35 0 39 0;
#X connect 36 0 39 0;
#X connect 37 0 39 0;
#X connect 38 0 39 0;
#X connect 39 0 34 1;
#X connect 40 0 35 0;
#X connect 40 0 36 0;
#X connect 40 0 37 0;
#X connect 40 0 38 0;
#X connect 41 0 40 1;
#X connect 41 0 67 0;
#X connect 42 0 34 0;
#X connect 43 0 42 1;
#X connect 43 0 66 0;
#X connect 44 0 10 1;
#X connect 45 0 39 1;
#X connect 48 0 49 0;
#X connect 49 0 50 0;
#X connect 49 1 52 0;
#X connect 50 0 51 0;
#X connect 51 0 41 0;
#X connect 52 0 41 0;
#X connect 53 0 54 0;
#X connect 54 0 55 0;
#X connect 54 1 57 0;
#X connect 55 0 56 0;
#X connect 56 0 43 0;
#X connect 57 0 43 0;
#X connect 58 0 9 0;
#X connect 58 0 40 0;
#X connect 58 0 42 0;
#X connect 59 0 58 0;
#X connect 60 0 44 0;
#X connect 61 0 45 0;
#X connect 62 0 53 0;
#X connect 63 0 48 0;
#X connect 65 0 59 0;
#X connect 68 0 72 0;
#X connect 69 0 70 0;
#X connect 69 1 68 1;
#X connect 70 0 68 0;
#X connect 71 0 22 0;
#X connect 72 0 71 0;
#X connect 72 1 22 2;
#X connect 73 0 69 0;
#X connect 73 1 71 1;
#X restore -118 427 pd voice 3;
#N canvas 720 0 704 802 voice 0;
#X obj 86 -9 inlet;
#X obj 300 -30 r \$0det;
#X floatatom 302 35 10 0 0 0 - - -, f 10;
#X obj 301 -10 / 1098.71;
#X obj 302 13 + 0.942207;
#X obj 202 -33 / 63.5;
#X obj 200 -7 - 1;
#X obj 193 21 s \$0detshow;
#X obj 22 622 osc~;
#X obj 21 584 +~;
#X obj 107 566 *~;
#X obj 55 691 *~;
#X obj 465 525 r \$0att;
#X obj 599 526 r \$0rel;
#X obj 529 344 r \$0sus;
#X obj 529 377 / 127;
#X obj 529 794 vline~;
#X obj 765 356 moses 1;
#X floatatom 766 388 5 0 0 0 - - -, f 5;
#X floatatom 819 413 5 0 0 0 - - -, f 5;
#X obj 573 694 pack f f;
#X obj 818 389 / 127;
#X obj 461 642 pack f f f f;
#X msg 443 688 \$1 \$2 \, \$3 \$4 \$2;
#X obj 599 559 * 4;
#X obj 465 558 * 4;
#X obj 463 594 s \$0attshow;
#X obj 441 424 s \$0susshow;
#X obj 632 593 s \$0relshow;
#X obj 86 34 unpack 0 0;
#N canvas 429 242 526 186 VCO1 0;
#X obj -215 -79 inlet~;
#X obj -59 0 switch~;
#X obj -59 -54 + 1;
#X obj -214 70 outlet~;
#X obj -59 -27 == 1;
#X obj -215 13 osc~;
#X text -174 10 Sinusschwingung;
#X text -17 -49 Der Oscillator ist nur aktiviert \, wenn er in der
GUI ausgewählt ist;
#X obj -59 -78 r \$0-waveform_VCO;
#X connect 0 0 5 0;
#X connect 2 0 4 0;
#X connect 4 0 1 0;
#X connect 5 0 3 0;
#X connect 8 0 2 0;
#X restore 96 447 pd VCO1;
#N canvas 453 243 488 252 VCO2 0;
#X obj -210 7 inlet~;
#X obj -83 89 switch~;
#X obj -83 31 + 1;
#X obj -210 196 outlet~;
#X obj -83 62 == 2;
#X obj -210 88 phasor~;
#X obj -210 142 -~ 0.5;
#X obj -210 169 *~ 2;
#X obj -210 115 expr~ $v1 > 0.5;
#X text -53 25 Der Oscillator ist nur aktiviert \, wenn er in der GUI
ausgewählt ist;
#X text -159 137 Rechteckschwingung;
#X obj -83 7 r \$0-waveform_VCO;
#X connect 0 0 5 0;
#X connect 2 0 4 0;
#X connect 4 0 1 0;
#X connect 5 0 8 0;
#X connect 6 0 7 0;
#X connect 7 0 3 0;
#X connect 8 0 6 0;
#X connect 11 0 2 0;
#X restore 151 447 pd VCO2;
#N canvas 397 255 527 146 VCO3 0;
#X obj -182 -40 inlet~;
#X obj -24 39 switch~;
#X obj -24 -14 + 1;
#X obj -183 65 outlet~;
#X obj -182 -13 phasor~;
#X obj -182 14 -~ 0.5;
#X obj -183 42 *~ 2;
#X text 11 -12 Der Oscillator ist nur aktiviert \, wenn er in der GUI
ausgewählt ist;
#X text -145 29 Sägezahnschwingung;
#X obj -24 12 == 3;
#X obj -24 -37 r \$0-waveform_VCO;
#X connect 0 0 4 0;
#X connect 2 0 9 0;
#X connect 4 0 5 0;
#X connect 5 0 6 0;
#X connect 6 0 3 0;
#X connect 9 0 1 0;
#X connect 10 0 2 0;
#X restore 208 447 pd VCO3;
#N canvas 517 238 456 302 VCO5 0;
#X obj -181 -40 inlet~;
#X obj -99 41 switch~;
#X obj -99 -13 + 1;
#X obj -181 224 outlet~;
#X obj -181 44 phasor~;
#X obj -160 91 *~ -1;
#X obj -160 112 +~ 1;
#X obj -182 152 min~;
#X obj -182 174 *~ 4;
#X obj -182 197 -~ 1;
#X text -153 134 Dreieckschwingung;
#X text -66 -9 Der Oscillator ist nur aktiviert \, wenn er in der GUI
ausgewählt ist;
#X obj -99 14 == 4;
#X obj -99 -33 r \$0-waveform_VCO;
#X connect 0 0 4 0;
#X connect 2 0 12 0;
#X connect 4 0 5 0;
#X connect 4 0 7 0;
#X connect 5 0 6 0;
#X connect 6 0 7 1;
#X connect 7 0 8 0;
#X connect 8 0 9 0;
#X connect 9 0 3 0;
#X connect 12 0 1 0;
#X connect 13 0 2 0;
#X restore 260 447 pd VCO5;
#X obj 227 364 +~;
#N canvas 429 242 526 186 VCO1 0;
#X obj -215 -79 inlet~;
#X obj -59 0 switch~;
#X obj -59 -54 + 1;
#X obj -214 70 outlet~;
#X obj -59 -27 == 1;
#X obj -215 13 osc~;
#X text -174 10 Sinusschwingung;
#X text -17 -49 Der Oscillator ist nur aktiviert \, wenn er in der
GUI ausgewählt ist;
#X obj -59 -78 r \$0-waveform_VCO;
#X connect 0 0 5 0;
#X connect 2 0 4 0;
#X connect 4 0 1 0;
#X connect 5 0 3 0;
#X connect 8 0 2 0;
#X restore 272 275 pd VCO1;
#N canvas 453 243 488 252 VCO2 0;
#X obj -210 7 inlet~;
#X obj -83 89 switch~;
#X obj -83 31 + 1;
#X obj -210 196 outlet~;
#X obj -83 62 == 2;
#X obj -210 88 phasor~;
#X obj -210 142 -~ 0.5;
#X obj -210 169 *~ 2;
#X obj -210 115 expr~ $v1 > 0.5;
#X text -53 25 Der Oscillator ist nur aktiviert \, wenn er in der GUI
ausgewählt ist;
#X text -159 137 Rechteckschwingung;
#X obj -83 7 r \$0-waveform_VCO;
#X connect 0 0 5 0;
#X connect 2 0 4 0;
#X connect 4 0 1 0;
#X connect 5 0 8 0;
#X connect 6 0 7 0;
#X connect 7 0 3 0;
#X connect 8 0 6 0;
#X connect 11 0 2 0;
#X restore 327 275 pd VCO2;
#N canvas 397 255 527 146 VCO3 0;
#X obj -182 -40 inlet~;
#X obj -24 39 switch~;
#X obj -24 -14 + 1;
#X obj -183 65 outlet~;
#X obj -182 -13 phasor~;
#X obj -182 14 -~ 0.5;
#X obj -183 42 *~ 2;
#X text 11 -12 Der Oscillator ist nur aktiviert \, wenn er in der GUI
ausgewählt ist;
#X text -145 29 Sägezahnschwingung;
#X obj -24 12 == 3;
#X obj -24 -37 r \$0-waveform_VCO;
#X connect 0 0 4 0;
#X connect 2 0 9 0;
#X connect 4 0 5 0;
#X connect 5 0 6 0;
#X connect 6 0 3 0;
#X connect 9 0 1 0;
#X connect 10 0 2 0;
#X restore 384 275 pd VCO3;
#N canvas 517 238 456 302 VCO5 0;
#X obj -181 -40 inlet~;
#X obj -99 41 switch~;
#X obj -99 -13 + 1;
#X obj -181 224 outlet~;
#X obj -181 44 phasor~;
#X obj -160 91 *~ -1;
#X obj -160 112 +~ 1;
#X obj -182 152 min~;
#X obj -182 174 *~ 4;
#X obj -182 197 -~ 1;
#X text -153 134 Dreieckschwingung;
#X text -66 -9 Der Oscillator ist nur aktiviert \, wenn er in der GUI
ausgewählt ist;
#X obj -99 14 == 4;
#X obj -99 -33 r \$0-waveform_VCO;
#X connect 0 0 4 0;
#X connect 2 0 12 0;
#X connect 4 0 5 0;
#X connect 4 0 7 0;
#X connect 5 0 6 0;
#X connect 6 0 7 1;
#X connect 7 0 8 0;
#X connect 8 0 9 0;
#X connect 9 0 3 0;
#X connect 12 0 1 0;
#X connect 13 0 2 0;
#X restore 436 275 pd VCO5;
#X obj 289 342 *~;
#X obj 305 187 *~;
#X floatatom 350 173 5 0 0 0 - - -, f 5;
#X obj 81 368 *~;
#X floatatom 125 343 5 0 0 0 - - -, f 5;
#X obj 180 543 pow 1.2;
#X obj 564 238 pow 1.2;
#X text 445 -44 Tune 1;
#X text 128 325 Tune 2;
#X obj 415 -16 / 1.27;
#X obj 409 8 moses 50;
#X obj 406 56 / 100;
#X obj 405 81 + 0.5;
#X obj 453 61 / 50;
#X obj 115 209 / 1.27;
#X obj 109 233 moses 50;
#X obj 106 281 / 100;
#X obj 105 306 + 0.5;
#X obj 153 286 / 50;
#X obj 84 142 *~;
#X obj 85 66 sig~;
#X obj 228 498 r \$0Int_1;
#X obj 569 191 r \$0Int_2;
#X obj 112 183 r \$0tune_1;
#X obj 414 -61 r \$0tune_2;
#X obj 43 736 outlet~;
#X obj 3 7 r \$0freqshow;
#X obj 114 382 s \$0tune_1_show;
#X obj 364 211 s \$0tune_2_show;
#X obj 546 458 *;
#X obj 562 399 t b f;
#X obj 532 429 f;
#X obj 427 612 f;
#X obj 514 552 t b f;
#X obj 798 444 t f f;
#X connect 0 0 29 0;
#X connect 1 0 3 0;
#X connect 1 0 5 0;
#X connect 2 0 58 1;
#X connect 3 0 4 0;
#X connect 4 0 2 0;
#X connect 5 0 6 0;
#X connect 6 0 7 0;
#X connect 8 0 11 0;
#X connect 9 0 8 0;
#X connect 10 0 9 1;
#X connect 11 0 64 0;
#X connect 12 0 25 0;
#X connect 13 0 24 0;
#X connect 14 0 15 0;
#X connect 15 0 27 0;
#X connect 15 0 70 1;
#X connect 16 0 11 1;
#X connect 17 0 18 0;
#X connect 17 1 21 0;
#X connect 18 0 20 0;
#X connect 19 0 73 0;
#X connect 20 0 16 0;
#X connect 21 0 19 0;
#X connect 22 0 23 0;
#X connect 23 0 16 0;
#X connect 24 0 20 1;
#X connect 24 0 22 3;
#X connect 24 0 28 0;
#X connect 25 0 22 1;
#X connect 25 0 26 0;
#X connect 29 0 59 0;
#X connect 29 1 17 0;
#X connect 30 0 10 0;
#X connect 31 0 10 0;
#X connect 32 0 10 0;
#X connect 33 0 10 0;
#X connect 34 0 30 0;
#X connect 34 0 31 0;
#X connect 34 0 32 0;
#X connect 34 0 33 0;
#X connect 35 0 39 0;
#X connect 36 0 39 0;
#X connect 37 0 39 0;
#X connect 38 0 39 0;
#X connect 39 0 34 1;
#X connect 40 0 35 0;
#X connect 40 0 36 0;
#X connect 40 0 37 0;
#X connect 40 0 38 0;
#X connect 41 0 40 1;
#X connect 41 0 67 0;
#X connect 42 0 34 0;
#X connect 43 0 42 1;
#X connect 43 0 66 0;
#X connect 44 0 10 1;
#X connect 45 0 39 1;
#X connect 48 0 49 0;
#X connect 49 0 50 0;
#X connect 49 1 52 0;
#X connect 50 0 51 0;
#X connect 51 0 41 0;
#X connect 52 0 41 0;
#X connect 53 0 54 0;
#X connect 54 0 55 0;
#X connect 54 1 57 0;
#X connect 55 0 56 0;
#X connect 56 0 43 0;
#X connect 57 0 43 0;
#X connect 58 0 9 0;
#X connect 58 0 40 0;
#X connect 58 0 42 0;
#X connect 59 0 58 0;
#X connect 60 0 44 0;
#X connect 61 0 45 0;
#X connect 62 0 53 0;
#X connect 63 0 48 0;
#X connect 65 0 59 0;
#X connect 68 0 72 0;
#X connect 69 0 70 0;
#X connect 69 1 68 1;
#X connect 70 0 68 0;
#X connect 71 0 22 0;
#X connect 72 0 71 0;
#X connect 72 1 22 2;
#X connect 73 0 69 0;
#X connect 73 1 71 1;
#X restore -66 435 pd voice 4;
#X obj -226 119 poly 4 1;
#X msg 654 137 78.2;
#X msg 703 125 99.7;
#X msg 895 87 40;
#X msg 941 79 51;
#X obj -227 480 *~ 0.5;
#X connect 10 0 35 0;
#X connect 10 0 123 0;
#X connect 12 0 83 0;
#X connect 12 0 118 0;
#X connect 12 0 117 0;
#X connect 12 0 21 0;
#X connect 12 0 71 0;
#X connect 12 0 125 0;
#X connect 12 0 127 0;
#X connect 12 0 119 0;
#X connect 12 0 124 0;
#X connect 12 0 126 0;
#X connect 21 0 22 0;
#X connect 23 0 128 0;
#X connect 24 0 25 0;
#X connect 25 0 23 0;
#X connect 25 1 120 0;
#X connect 25 2 121 0;
#X connect 25 3 122 0;
#X connect 27 0 29 0;
#X connect 27 0 33 0;
#X connect 29 0 31 0;
#X connect 30 0 23 0;
#X connect 31 0 32 0;
#X connect 31 1 30 1;
#X connect 32 0 30 0;
#X connect 33 0 34 0;
#X connect 34 0 123 0;
#X connect 35 0 36 0;
#X connect 36 0 34 0;
#X connect 37 0 106 0;
#X connect 38 0 47 0;
#X connect 39 0 108 3;
#X connect 40 0 108 2;
#X connect 42 0 107 0;
#X connect 43 0 116 0;
#X connect 44 0 46 0;
#X connect 45 0 42 1;
#X connect 45 0 43 1;
#X connect 45 0 47 1;
#X connect 46 0 45 0;
#X connect 47 0 42 0;
#X connect 48 0 108 4;
#X connect 54 0 39 1;
#X connect 55 0 48 1;
#X connect 56 0 59 1;
#X connect 57 0 58 1;
#X connect 58 0 108 6;
#X connect 59 0 108 5;
#X connect 60 0 108 7;
#X connect 61 0 40 1;
#X connect 62 0 8 0;
#X connect 63 0 3 0;
#X connect 64 0 2 0;
#X connect 65 0 5 0;
#X connect 66 0 26 0;
#X connect 67 0 84 0;
#X connect 71 0 70 0;
#X connect 73 0 74 0;
#X connect 74 0 75 0;
#X connect 76 0 68 0;
#X connect 77 0 108 8;
#X connect 78 0 81 0;
#X connect 79 0 82 0;
#X connect 80 0 79 0;
#X connect 81 0 80 0;
#X connect 82 0 32 1;
#X connect 82 0 28 0;
#X connect 83 0 13 0;
#X connect 92 0 87 0;
#X connect 93 0 88 0;
#X connect 94 0 89 0;
#X connect 103 0 60 1;
#X connect 105 0 108 0;
#X connect 106 0 43 0;
#X connect 107 0 105 0;
#X connect 107 1 108 1;
#X connect 107 2 40 0;
#X connect 107 3 39 0;
#X connect 107 4 48 0;
#X connect 107 5 59 0;
#X connect 107 6 58 0;
#X connect 107 7 60 0;
#X connect 107 8 77 0;
#X connect 107 9 109 0;
#X connect 107 10 110 0;
#X connect 107 11 111 0;
#X connect 108 0 41 0;
#X connect 109 0 108 9;
#X connect 110 0 108 10;
#X connect 111 0 108 11;
#X connect 112 0 77 1;
#X connect 113 0 109 1;
#X connect 114 0 110 1;
#X connect 115 0 111 1;
#X connect 116 0 53 0;
#X connect 116 1 49 0;
#X connect 116 2 50 0;
#X connect 116 3 51 0;
#X connect 116 4 52 0;
#X connect 116 5 104 0;
#X connect 116 6 101 0;
#X connect 116 7 102 0;
#X connect 116 8 99 0;
#X connect 116 9 100 0;
#X connect 117 0 16 0;
#X connect 118 0 14 0;
#X connect 119 0 15 0;
#X connect 120 0 128 0;
#X connect 121 0 128 0;
#X connect 122 0 128 0;
#X connect 123 0 24 0;
#X connect 123 1 24 1;
#X connect 123 2 24 2;
#X connect 124 0 95 0;
#X connect 125 0 96 0;
#X connect 126 0 97 0;
#X connect 127 0 98 0;
#X connect 128 0 11 0;
#X coords 0 -1 1 1 267 199 1 100 100;
