#N canvas 167 52 948 693 10;
#N canvas 0 0 1440 818 Live_Granular 0;
#X obj 57 415 phasor~;
#X obj 58 595 *~ -1;
#X obj 58 620 +~ 1;
#X obj 158 709 sig~ 1;
#X obj 223 717 cos~;
#X obj 159 742 -~;
#X obj 160 767 *~ 0.5;
#X obj 81 796 *~;
#X obj 89 682 samphold~;
#X obj 58 709 *~;
#X obj 90 654 sig~;
#X floatatom 167 394 5 0 0 0 - - -;
#X floatatom 120 317 10 0 0 0 - - -;
#X floatatom 89 377 5 0 0 0 - - -;
#X floatatom 251 243 5 0 0 0 - - -;
#X obj 251 264 t b f;
#X obj 167 368 / 44.1;
#X obj 444 564 *~ -1;
#X obj 445 597 +~ 1;
#X obj 538 693 sig~ 1;
#X obj 602 700 cos~;
#X obj 539 724 -~;
#X obj 540 749 *~ 0.5;
#X obj 467 781 *~;
#X obj 479 662 samphold~;
#X obj 445 689 *~;
#X obj 480 634 sig~;
#X obj 465 477 +~ 0.5;
#X obj 465 499 wrap~;
#X obj 118 45 vsl 15 128 100 30000 0 0 empty empty empty 0 -8 0 8 -262144
-1 -1 0 1;
#X obj 118 181 t b f;
#X obj 251 163 vsl 15 73 -36 36 0 0 empty empty empty 0 -8 0 8 -262144
-1 -1 3600 1;
#X obj 120 338 expr (pow(2 \, ($f2/12)) - 1) * (44100/$f1);
#X text 268 227 -36;
#X text 274 155 36;
#X text 137 38 30000;
#X text 135 162 100;
#X obj 450 861 *~;
#X floatatom 497 831 5 0 0 0 - - -;
#X text 546 830 0-1;
#X text 262 724 Hanning;
#X text 347 44 3.7.2.2. Granular live Feedback;
#X text 200 131 Transposition (Half steps);
#X text 83 17 window width;
#X text 566 894 www.pd-tutorial.com;
#X text 577 877 Johannes Kreidler;
#X floatatom 602 770 5 0 100 0 - - -;
#X obj 602 799 / 100;
#X obj 351 902 delwrite~ \$0b1 5000;
#X obj 468 732 vd~ \$0b1;
#X obj 81 752 vd~ \$0b1;
#X obj 136 932 outlet~;
#X obj 118 8 r \$0window_width;
#X obj 251 80 r \$0transposition;
#X obj 601 742 r \$0GranularFeedback;
#X text 731 740 0 -100;
#X text 237 6 100 - 30000;
#X text 362 78 -36 - 36;
#X obj 357 769 inlet~;
#X obj 135 879 +~;
#X connect 0 0 1 0;
#X connect 0 0 4 0;
#X connect 0 0 8 1;
#X connect 0 0 27 0;
#X connect 1 0 2 0;
#X connect 2 0 9 0;
#X connect 3 0 5 0;
#X connect 4 0 5 1;
#X connect 5 0 6 0;
#X connect 6 0 7 1;
#X connect 7 0 37 0;
#X connect 7 0 59 0;
#X connect 8 0 9 1;
#X connect 9 0 50 0;
#X connect 10 0 8 0;
#X connect 11 0 26 0;
#X connect 11 0 10 0;
#X connect 12 0 16 0;
#X connect 12 0 32 0;
#X connect 13 0 0 0;
#X connect 14 0 15 0;
#X connect 15 0 12 0;
#X connect 15 1 32 1;
#X connect 16 0 11 0;
#X connect 17 0 18 0;
#X connect 18 0 25 0;
#X connect 19 0 21 0;
#X connect 20 0 21 1;
#X connect 21 0 22 0;
#X connect 22 0 23 1;
#X connect 23 0 37 0;
#X connect 23 0 59 1;
#X connect 24 0 25 1;
#X connect 25 0 49 0;
#X connect 26 0 24 0;
#X connect 27 0 28 0;
#X connect 28 0 17 0;
#X connect 28 0 24 1;
#X connect 28 0 20 0;
#X connect 29 0 30 0;
#X connect 30 0 14 0;
#X connect 30 1 12 0;
#X connect 31 0 14 0;
#X connect 32 0 13 0;
#X connect 37 0 48 0;
#X connect 38 0 37 1;
#X connect 46 0 47 0;
#X connect 47 0 38 0;
#X connect 49 0 23 0;
#X connect 50 0 7 0;
#X connect 52 0 29 0;
#X connect 53 0 31 0;
#X connect 54 0 46 0;
#X connect 58 0 48 0;
#X connect 59 0 51 0;
#X restore 562 28 pd Live_Granular;
#X text 462 -104 0 -100;
#X text 591 -172 100 - 30000;
#X obj 583 -196 s \$0window_width;
#X obj 760 -80 s \$0transposition;
#X obj 420 -122 s \$0GranularFeedback;
#X floatatom 760 -143 5 0 0 0 - - -;
#X obj 275 -453 loadbang;
#X obj 559 -37 inlet~;
#X obj 563 77 outlet~;
#X obj 101 102 cnv 15 228 166 empty empty Grainy 20 18 0 20 -233017
-1 0;
#X obj 121 155 vsl 20 80 0 127 0 0 \$0midifb \$0midifb_r Feedback -14
-11 0 12 -99865 -260097 -1 3000 1;
#X obj 160 184 hsl 100 20 0.0001 127 1 0 \$0midiwinwidth \$0midiwinwidth_r
Width 30 -9 0 12 -99865 -260097 -1 0 1;
#X obj 277 156 vsl 20 80 0 127 0 0 \$0miditransposition \$0miditransposition_r
Transposition -45 -11 0 12 -99865 -260097 -1 6350 1;
#X obj 419 -236 r \$0midifb;
#X obj 578 -352 r \$0midiwinwidth;
#X obj 761 -237 r \$0miditransposition;
#X obj 420 -202 / 1.27;
#X obj 277 -393 s \$0midifb_r;
#X msg 274 -429 30;
#X obj 111 239 nbx 3 18 -1e+037 1e+037 0 0 \$0showfb_s \$0showfb empty
0 -8 0 12 -262144 -1 -1 0.23622 256;
#X obj 485 -174 / 100;
#X obj 486 -147 s \$0showfb;
#X obj 579 -271 + 100;
#X floatatom 642 -256 7 0 0 0 - - -;
#X obj 578 -322 * 235.433;
#X obj 174 205 nbx 5 18 -1e+037 1e+037 0 0 \$0showwin_s \$0showwin
empty 0 -8 0 12 -262144 -1 -1 100.024 256;
#X obj 643 -234 s \$0showwin;
#X msg 141 -422 0.0001;
#X obj 140 -386 s \$0midiwinwidth_r;
#X obj 761 -209 - 63.5;
#X msg 356 -433 63.5;
#X obj 358 -409 s \$0miditransposition_r;
#X obj 760 -114 clip -36 36;
#X obj 760 -175 / 1.76389;
#X obj 266 240 nbx 3 18 -1e+037 1e+037 0 0 \$0showtrans_s \$0showfbtrans
empty 0 -8 0 12 -262144 -1 -1 0 256;
#X obj 873 -122 s \$0showfbtrans;
#X obj 532 322 r toolssavebank;
#X obj 742 239 r toolssavebang;
#X obj 961 429 f;
#X obj 906 423 f;
#X obj 816 531 s toolssavelists;
#X obj 771 343 f;
#X obj 534 440 route;
#X obj 892 184 loadbang;
#X obj 893 240 \$1;
#X obj 892 212 del 5;
#X obj 771 302 del;
#X obj 816 488 pack s f f f f;
#X obj 1033 457 f;
#X obj 769 392 t b f b b b;
#X obj 535 466 unpack f f f;
#X obj 763 443 symbol grainy;
#X obj 534 410 route grainy;
#X obj 944 366 r \$0midifb;
#X obj 1034 369 r \$0midiwinwidth;
#X obj 1145 374 r \$0miditransposition;
#X obj 472 535 s \$0midifb_r;
#X obj 533 560 s \$0midiwinwidth_r;
#X obj 602 533 s \$0miditransposition_r;
#X obj 641 -33 inlet;
#X obj 701 -34 inlet;
#X obj 746 -33 inlet;
#X connect 0 0 9 0;
#X connect 6 0 33 0;
#X connect 6 0 36 0;
#X connect 7 0 19 0;
#X connect 7 0 28 0;
#X connect 7 0 31 0;
#X connect 8 0 0 0;
#X connect 14 0 17 0;
#X connect 15 0 25 0;
#X connect 16 0 30 0;
#X connect 17 0 5 0;
#X connect 17 0 21 0;
#X connect 19 0 18 0;
#X connect 21 0 22 0;
#X connect 23 0 3 0;
#X connect 23 0 24 0;
#X connect 24 0 27 0;
#X connect 25 0 23 0;
#X connect 28 0 29 0;
#X connect 30 0 34 0;
#X connect 31 0 32 0;
#X connect 33 0 4 0;
#X connect 34 0 6 0;
#X connect 37 0 53 0;
#X connect 38 0 47 0;
#X connect 39 0 48 3;
#X connect 40 0 48 2;
#X connect 42 0 50 0;
#X connect 43 0 51 0;
#X connect 44 0 46 0;
#X connect 45 0 42 1;
#X connect 45 0 43 1;
#X connect 45 0 47 1;
#X connect 46 0 45 0;
#X connect 47 0 42 0;
#X connect 48 0 41 0;
#X connect 49 0 48 4;
#X connect 50 0 52 0;
#X connect 50 1 48 1;
#X connect 50 2 40 0;
#X connect 50 3 39 0;
#X connect 50 4 49 0;
#X connect 51 0 57 0;
#X connect 51 1 58 0;
#X connect 51 2 59 0;
#X connect 52 0 48 0;
#X connect 53 0 43 0;
#X connect 54 0 40 1;
#X connect 55 0 39 1;
#X connect 56 0 49 1;
#X connect 60 0 11 0;
#X connect 61 0 12 0;
#X connect 62 0 13 0;
#X coords 0 -1 1 1 230 170 1 100 100;
