#N canvas 75 52 1280 693 10;
#X obj 101 102 cnv 15 208 176 empty empty graindelay 10 12 0 20 -233017
-1 0;
#X obj 111 245 hsl 100 20 0.254 127 1 0 \$0feedbackpos \$0feedbackpos_r
Time 20 -10 0 16 -99865 -260097 -1 6628 1;
#X obj 108 147 vsl 20 70 0 127 0 0 \$0feedbackamount \$0feedbackamount_r
Feedback 0 -9 0 14 -99865 -260097 -1 4600 1;
#X obj 266 124 vsl 20 50 0 127 0 0 \$0vol \$0vol_r Volume -9 -9 0 12
-99865 -260097 -1 4900 1;
#X obj 214 249 nbx 5 16 -1e+037 1e+037 0 0 \$0timeshow_s \$0timeshow
empty 0 -8 0 12 -262144 -1 -1 128.234 256;
#X obj 129 145 nbx 4 16 -1e+037 1e+037 0 0 \$0fbshow_s \$0fbshow empty
0 -8 0 12 -262144 -1 -1 0.666667 256;
#X obj 257 178 nbx 3 14 -1e+037 1e+037 0 0 \$0volshow_s \$0volshow
empty 0 -8 0 12 -262144 -1 -1 1 256;
#X obj 855 135 loadbang;
#X obj 426 418 *~;
#X obj 428 218 +~;
#X obj 528 47 noise~;
#X obj 355 31 inlet~;
#X obj 365 557 outlet~;
#X obj 464 393 line~;
#X obj 528 70 *~;
#X obj 529 148 samphold~;
#X obj 428 247 clip~ 0.02 500;
#N canvas 0 0 450 300 jitterphasor 0;
#X obj 99 164 phasor~ 7;
#X obj 99 66 random 127;
#X obj 99 115 + 0.5;
#X obj 99 92 / 12.7;
#X obj 99 42 metro 10000;
#X obj 99 20 loadbang;
#X obj 99 189 outlet~;
#X connect 0 0 6 0;
#X connect 1 0 3 0;
#X connect 2 0 0 0;
#X connect 3 0 2 0;
#X connect 4 0 1 0;
#X connect 5 0 4 0;
#X restore 580 117 pd jitterphasor;
#X obj 529 171 lop~ 5;
#X obj 547 2 sig~;
#X obj 547 23 lop~ 5;
#X obj 530 191 *~;
#X obj 430 324 vd~ \$0-graindel 200;
#X msg 464 370 \$1 500;
#X obj 366 520 +~;
#X obj 547 -37 r \$0feedbackjitter;
#X obj 428 81 r \$0feedbackpos;
#X obj 577 288 r \$0feedbackamount;
#X obj 411 477 *~;
#X obj 457 466 line~;
#X msg 473 440 \$1 10;
#X obj 554 421 r \$0vol;
#X obj 849 212 s \$0vol_r;
#X obj 541 370 / 127;
#X obj 539 399 s \$0fbshow;
#X obj 388 278 delwrite~ \$0-graindel 1000;
#X obj 427 154 line~ 50;
#X obj 444 132 s \$0timeshow;
#X obj 428 105 * 7.8745;
#X obj 553 483 s \$0volshow;
#X obj 554 443 / 127;
#X obj 194 152 vsl 20 60 0.06355 127 1 0 \$0feedbackjitter \$0feedbackjitter_r
Jitter 0 -9 0 14 -99865 -260097 -1 2900 1;
#X obj 194 216 nbx 4 16 -1e+037 1e+037 0 0 \$0jittershow_s \$0jittershow
empty 0 -8 0 12 -262144 -1 -1 0 256;
#X obj 547 -17 * 1.5748;
#X obj 915 182 s \$0feedbackpos_r;
#X msg 918 159 6.35;
#X msg 851 166 127;
#X obj 810 404 r toolssavebank;
#X obj 1020 321 r toolssavebang;
#X obj 1239 511 f;
#X obj 1184 505 f;
#X obj 1094 613 s toolssavelists;
#X obj 1049 425 f;
#X obj 812 522 route;
#X obj 1170 266 loadbang;
#X obj 1171 322 \$1;
#X obj 1170 294 del 5;
#X obj 1049 384 del;
#X obj 1311 539 f;
#X obj 812 492 route graindelay;
#X obj 1041 525 symbol graindelay;
#X obj 1047 474 t b f b b b b;
#X obj 1373 559 f;
#X obj 1094 570 pack s f f f f f;
#X obj 813 548 unpack f f f f;
#X obj 1399 358 r \$0feedbackjitter;
#X obj 1287 351 r \$0feedbackpos;
#X obj 1520 364 r \$0feedbackamount;
#X obj 1228 355 r \$0vol;
#X obj 733 654 s \$0vol_r;
#X obj 793 650 s \$0feedbackpos_r;
#X obj 904 657 s \$0feedbackjitter_r;
#X obj 1025 663 s \$0feedbackamount_r;
#X obj 798 7 inlet;
#X obj 808 17 inlet;
#X obj 818 27 inlet;
#X obj 828 37 inlet;
#X obj 620 21 s \$0jittershow;
#X connect 7 0 46 0;
#X connect 7 0 45 0;
#X connect 8 0 28 0;
#X connect 8 0 35 0;
#X connect 9 0 16 0;
#X connect 10 0 14 0;
#X connect 10 0 14 1;
#X connect 11 0 24 0;
#X connect 11 0 35 0;
#X connect 13 0 8 1;
#X connect 14 0 15 0;
#X connect 15 0 18 0;
#X connect 16 0 22 0;
#X connect 17 0 15 1;
#X connect 18 0 21 0;
#X connect 19 0 20 0;
#X connect 20 0 21 1;
#X connect 21 0 9 1;
#X connect 22 0 8 0;
#X connect 23 0 13 0;
#X connect 24 0 12 0;
#X connect 25 0 43 0;
#X connect 26 0 38 0;
#X connect 27 0 33 0;
#X connect 28 0 24 1;
#X connect 29 0 28 1;
#X connect 30 0 29 0;
#X connect 31 0 40 0;
#X connect 33 0 34 0;
#X connect 33 0 23 0;
#X connect 36 0 9 0;
#X connect 38 0 36 0;
#X connect 38 0 37 0;
#X connect 40 0 39 0;
#X connect 40 0 30 0;
#X connect 43 0 19 0;
#X connect 43 0 77 0;
#X connect 45 0 44 0;
#X connect 46 0 32 0;
#X connect 47 0 59 0;
#X connect 48 0 57 0;
#X connect 49 0 63 3;
#X connect 50 0 63 2;
#X connect 52 0 61 0;
#X connect 53 0 64 0;
#X connect 54 0 56 0;
#X connect 55 0 52 1;
#X connect 55 0 53 1;
#X connect 55 0 57 1;
#X connect 56 0 55 0;
#X connect 57 0 52 0;
#X connect 58 0 63 4;
#X connect 59 0 53 0;
#X connect 60 0 63 0;
#X connect 61 0 60 0;
#X connect 61 1 63 1;
#X connect 61 2 50 0;
#X connect 61 3 49 0;
#X connect 61 4 58 0;
#X connect 61 5 62 0;
#X connect 62 0 63 5;
#X connect 63 0 51 0;
#X connect 64 0 69 0;
#X connect 64 1 70 0;
#X connect 64 2 71 0;
#X connect 64 3 72 0;
#X connect 65 0 58 1;
#X connect 66 0 49 1;
#X connect 67 0 62 1;
#X connect 68 0 50 1;
#X connect 73 0 2 0;
#X connect 74 0 1 0;
#X connect 75 0 41 0;
#X connect 76 0 3 0;
#X coords 0 -1 1 1 210 180 1 100 100;
