#N canvas 0 0 1423 798 10;
#X obj 121 -288 loadbang;
#X obj 101 -184 s \$0attack_r;
#X floatatom -565 -472 5 0 0 0 - - -, f 5;
#X obj -481 197 *~;
#X obj -980 242 vline~;
#X obj -727 -561 bng 15 250 50 0 empty \$0kickit empty 17 7 0 10 -262144
-1 -1;
#X obj -729 -539 t b b b;
#X obj -145 -300 s \$0waveclipctl;
#X obj -542 -427 t b f;
#X obj -567 -400 pack f f;
#X obj -569 -425 f;
#X obj -613 -312 vline~;
#X obj -542 -567 r \$0tune;
#X obj -149 -356 loadbang;
#X obj -544 -290 *~;
#X obj -608 -250 +~;
#X obj -297 -386 loadbang;
#X obj -446 -396 phasor~;
#X obj -446 -369 -~ 0.5;
#X obj -447 -341 *~ 2;
#X msg -452 -422 2071;
#N canvas 229 263 335 248 AM 0;
#X obj 61 21 inlet~;
#X obj 13 246 outlet~;
#X obj 62 178 *~;
#X obj 77 95 osc~;
#X obj 78 144 *~;
#X obj 14 214 *~ 0.7;
#X text 108 142 Intensität;
#X text 157 60 Frequenz der Modulation;
#X text 63 213 Lautstärkenregulierung;
#X obj 172 7 loadbang;
#X msg 186 32 0.35;
#X msg 130 50 67.5;
#X connect 0 0 2 0;
#X connect 0 0 5 0;
#X connect 2 0 5 0;
#X connect 3 0 4 0;
#X connect 4 0 2 1;
#X connect 5 0 1 0;
#X connect 9 0 10 0;
#X connect 9 0 11 0;
#X connect 10 0 4 1;
#X connect 11 0 3 0;
#X restore -475 239 pd AM;
#X obj -493 -22 +~;
#N canvas 192 279 315 261 Noise 0;
#X obj 43 -16 noise~;
#X obj 43 103 hip~;
#X obj 42 205 outlet~;
#X obj 43 167 *~;
#X text 170 153 Lautstärkelevel;
#X text 87 -17 Rauschgenerator;
#X text 186 30 Tiefpassfilter;
#X text 187 85 Hochpassfilter;
#X obj 93 23 r \$0tune;
#X obj 98 46 * 78.7402;
#X obj 95 132 r \$0noise;
#X obj 92 162 / 127;
#X obj 144 191 s \$0shownoise;
#X floatatom 94 91 5 0 0 0 - - -, f 5;
#X obj 91 69 + 3000;
#X connect 0 0 1 0;
#X connect 1 0 3 0;
#X connect 3 0 2 0;
#X connect 8 0 9 0;
#X connect 9 0 14 0;
#X connect 10 0 11 0;
#X connect 11 0 3 1;
#X connect 11 0 12 0;
#X connect 14 0 1 1;
#X connect 14 0 13 0;
#X restore -478 -62 pd Noise;
#X obj -542 -186 phasor~;
#X obj -542 -159 -~ 0.5;
#X obj -543 -125 *~ 2;
#X obj -542 -545 * 40;
#X obj -495 75 /~ 2;
#N canvas 486 249 450 300 waveshape 0;
#X obj 115 5 clip~ -1 1;
#X obj 188 -73 * -1;
#X floatatom 240 -11 7 0 0 0 - - -, f 7;
#X obj 116 166 /~;
#X floatatom 188 -52 7 0 0 0 - - -, f 7;
#N canvas 590 139 404 272 Waveshapecontrols 0;
#X obj 44 70 / 127;
#X floatatom 44 92 5 0 0 0 - - -, f 5;
#X obj 44 213 outlet;
#X obj 44 27 - 127;
#X obj 44 47 abs;
#X floatatom 44 136 5 0 0 0 - - -, f 5;
#X obj 43 115 + 0.189207;
#X obj 44 157 pow 4;
#X obj 44 183 + 0.025;
#X text 140 89 Die Controllerwerte für das Clipping;
#X text 140 103 werden skaliert und begrenzt.;
#X obj 103 30 / 127;
#X obj 44 6 r \$0waveclipctl;
#X obj 103 53 s \$0waveclipshow;
#X connect 0 0 1 0;
#X connect 1 0 6 0;
#X connect 3 0 4 0;
#X connect 4 0 0 0;
#X connect 5 0 7 0;
#X connect 6 0 5 0;
#X connect 7 0 8 0;
#X connect 8 0 2 0;
#X connect 11 0 13 0;
#X connect 12 0 3 0;
#X connect 12 0 11 0;
#X restore 240 -90 pd Waveshapecontrols;
#X text 87 -42 Waveshaping;
#X text 288 -12 obere Begrenzung;
#X text 237 -53 untere Begrenzung;
#X text 207 111 Anpassung der Laustärke;
#X text 207 124 des geclippten Signals.;
#X obj 130 133 line~;
#X msg 130 111 \$1 5;
#X obj 130 92 clip 0.05 1;
#X obj 130 72 + 0.05;
#X obj 119 197 outlet~;
#X obj 116 -68 inlet~;
#X connect 0 0 3 0;
#X connect 1 0 4 0;
#X connect 2 0 0 2;
#X connect 2 0 14 0;
#X connect 3 0 15 0;
#X connect 4 0 0 1;
#X connect 5 0 1 0;
#X connect 5 0 2 0;
#X connect 11 0 3 1;
#X connect 12 0 11 0;
#X connect 13 0 12 0;
#X connect 14 0 13 0;
#X connect 16 0 0 0;
#X restore -523 -103 pd waveshape;
#X msg -146 -330 60;
#X msg -651 -512 0;
#X obj -49 -192 s \$0noise_r;
#X msg -22 -265 127;
#X obj 30 -163 s \$0tune_r;
#X obj 297 -183 s \$0decay_r;
#X obj -64 -91 inlet;
#X obj 102 102 cnv 15 125 155 empty empty hihat 38 12 0 16 -33289 -260097
0;
#X obj 115 138 vsl 15 60 0 127 0 0 \$0tune \$0tune_r sound -6 -9 0
11 -228856 -260097 -262144 5900 1;
#X obj 197 138 vsl 15 60 0 127 0 0 \$0noise \$0noise_r noise -9 -9
0 11 -228856 -260097 -262144 5900 1;
#X obj 151 165 bng 25 250 50 0 \$0kickit \$0kickit_r empty 17 7 0 10
-228856 -260097 -1;
#X obj 115 201 nbx 5 14 -1e+037 1e+037 0 0 \$0tuneshow_s \$0tuneshow
empty 0 -8 0 10 -262144 -1 -1 1 256 0;
#X obj 179 201 nbx 3 14 -1e+037 1e+037 0 0 \$0shownoise_s \$0shownoise
empty 0 -8 0 10 -262144 -1 -1 1 256 0;
#X obj 109 222 hsl 50 15 0.00127 127 1 0 \$0attack \$0attack_r attack
7 7 0 10 -228856 -260097 -1 0 1;
#X obj 173 223 hsl 50 15 0.0127 127 0 0 \$0decay \$0decay_r decay 9
7 0 10 -228856 -260097 -1 771 1;
#X obj 119 237 nbx 4 14 -1e+037 1e+037 0 0 \$0attackshow_s \$0attackshow
empty 0 -8 0 10 -262144 -1 -1 0.001 256 0;
#X obj 179 238 nbx 4 14 -1e+037 1e+037 0 0 \$0decayshow_s \$0decayshow
empty 0 -8 0 10 -262144 -1 -1 47.244 256 0;
#X obj 154 -49 inlet;
#X obj 221 -27 inlet;
#X obj 364 4 inlet;
#X obj 401 18 inlet;
#X obj -332 481 r toolssavebank;
#X obj -122 398 r toolssavebang;
#X obj 97 588 f;
#X obj 42 582 f;
#X obj -41 736 s toolssavelists;
#X obj -93 502 f;
#X obj -330 599 route;
#X obj 28 343 loadbang;
#X obj 29 399 \$1;
#X obj 28 371 del 5;
#X obj -93 461 del;
#X obj 169 616 f;
#X obj 215 637 f;
#X obj -95 551 t b f b b b b b;
#X obj -391 -490 s \$0tuneshow;
#X obj -329 625 unpack f f f f;
#X obj -269 763 s \$0attack_r;
#X obj -182 795 s \$0decay_r;
#X obj -364 668 s \$0tune_r;
#X obj -316 694 s \$0noise_r;
#X obj 69 459 r \$0tune;
#X obj 149 514 r \$0noise;
#X obj 228 526 r \$0attack;
#X obj 247 586 r \$0decay;
#X obj -40 707 pack s f f f f f;
#X obj -329 570 route hats;
#X obj -101 602 symbol hats;
#X obj -487 411 outlet~;
#X obj -548 -504 + 1000;
#X msg -297 -358 12000;
#X msg 109 -214 0.00127;
#X obj -733 -5 r \$0decay;
#X obj -797 -75 r \$0attack;
#X obj -810 21 +;
#X obj -824 -4 f;
#X obj -785 -5 t b f;
#X obj -813 43 t b f;
#X obj -863 67 f;
#X obj -756 50 t b f;
#X obj -799 -38 / 1.27;
#X obj -741 23 * 2.3622;
#X obj -728 93 s \$0decayshow;
#X obj -741 139 s \$0attackshow;
#X obj -861 112 pack f f f f;
#X obj -726 -75 loadbang;
#X msg -733 -39 1;
#X msg -950 162 1 \$1 \, \$4 15 \$1 \, 0 \$3 \$2;
#X obj -823 86 + 15;
#X obj -653 60 t b f;
#X msg -648 35 0.2;
#X obj -522 -451 * 1.2356;
#X floatatom -286 -283 5 0 0 0 - - -, f 5;
#X obj -286 -304 + 1000;
#X obj -279 -324 * 100;
#X obj -206 -443 hsl 128 15 0 127 0 0 empty empty empty -2 -8 0 10
-262144 -1 -1 12700 1;
#X obj -190 -521 r \$0tune;
#X msg -603 -355 \$2 0 \, \$1 8;
#X obj -520 -59 *~ 0.4;
#X obj -472 346 *~ 0.65;
#X msg 44 -255 64;
#X msg 282 -222 20;
#X obj -67 -52 route bang;
#X obj -239 6 r \$0decay;
#X obj -331 -65 r \$0attack;
#X obj -234 -68 r \$0length;
#X obj -389 179 vline~;
#X obj -329 32 +;
#X obj -330 7 f;
#X obj -291 6 t b f;
#X obj -332 54 t b f;
#X obj -347 80 f;
#X obj -262 61 t b f;
#X obj -333 -28 / 1.27;
#X obj -247 34 * 2.3622;
#X obj -234 104 s \$0decayshow;
#X obj -215 73 s \$0lengthshow;
#X obj -247 150 s \$0attackshow;
#X obj -226 -33 / 1.27;
#X obj -404 209 *~;
#X obj -14 -17 unpack 0 0;
#X floatatom 37 38 5 0 0 0 - - -, f 5;
#X obj 37 62 / 127;
#X obj -360 112 pack f f f f;
#X msg -390 152 \$1 \$2 \, 0 \$4 \$3;
#X obj -422 110 t l b b;
#X obj -11 13 moses 0.1;
#X obj -727 -589 r \$0kickit;
#X obj -934 133 list;
#X obj -659 -394 list;
#X obj -458 -488 / 6080;
#X connect 0 0 110 0;
#X connect 0 0 33 0;
#X connect 0 0 81 0;
#X connect 0 0 111 0;
#X connect 2 0 10 0;
#X connect 2 0 101 0;
#X connect 2 0 140 0;
#X connect 3 0 21 0;
#X connect 4 0 3 1;
#X connect 5 0 6 0;
#X connect 6 0 138 0;
#X connect 6 1 139 0;
#X connect 6 2 31 0;
#X connect 8 0 10 0;
#X connect 8 1 9 1;
#X connect 9 0 139 1;
#X connect 10 0 9 0;
#X connect 11 0 15 0;
#X connect 12 0 27 0;
#X connect 13 0 30 0;
#X connect 14 0 15 1;
#X connect 15 0 24 0;
#X connect 16 0 20 0;
#X connect 16 0 80 0;
#X connect 17 0 18 0;
#X connect 18 0 19 0;
#X connect 19 0 14 0;
#X connect 20 0 17 0;
#X connect 21 0 109 0;
#X connect 22 0 28 0;
#X connect 23 0 22 1;
#X connect 24 0 25 0;
#X connect 25 0 26 0;
#X connect 26 0 29 0;
#X connect 27 0 79 0;
#X connect 28 0 3 0;
#X connect 28 0 129 0;
#X connect 29 0 108 0;
#X connect 30 0 7 0;
#X connect 31 0 24 1;
#X connect 33 0 32 0;
#X connect 36 0 112 0;
#X connect 47 0 38 0;
#X connect 48 0 39 0;
#X connect 49 0 43 0;
#X connect 50 0 44 0;
#X connect 51 0 76 0;
#X connect 52 0 61 0;
#X connect 53 0 75 3;
#X connect 54 0 75 2;
#X connect 56 0 64 0;
#X connect 57 0 66 0;
#X connect 58 0 60 0;
#X connect 59 0 56 1;
#X connect 59 0 57 1;
#X connect 59 0 61 1;
#X connect 60 0 59 0;
#X connect 61 0 56 0;
#X connect 62 0 75 4;
#X connect 63 0 75 5;
#X connect 64 0 77 0;
#X connect 64 1 75 1;
#X connect 64 2 54 0;
#X connect 64 3 53 0;
#X connect 64 4 62 0;
#X connect 64 5 63 0;
#X connect 66 0 69 0;
#X connect 66 1 70 0;
#X connect 66 2 67 0;
#X connect 66 3 68 0;
#X connect 71 0 54 1;
#X connect 72 0 53 1;
#X connect 73 0 62 1;
#X connect 74 0 63 1;
#X connect 75 0 55 0;
#X connect 76 0 57 0;
#X connect 77 0 75 0;
#X connect 79 0 2 0;
#X connect 80 0 14 1;
#X connect 81 0 1 0;
#X connect 82 0 91 0;
#X connect 83 0 90 0;
#X connect 84 0 87 0;
#X connect 85 0 84 0;
#X connect 85 0 88 0;
#X connect 86 0 85 0;
#X connect 86 1 84 1;
#X connect 87 0 88 0;
#X connect 87 1 98 0;
#X connect 88 0 94 0;
#X connect 89 0 88 0;
#X connect 89 1 94 2;
#X connect 90 0 85 0;
#X connect 90 0 93 0;
#X connect 91 0 89 0;
#X connect 91 0 92 0;
#X connect 94 0 138 1;
#X connect 95 0 96 0;
#X connect 95 0 100 0;
#X connect 96 0 86 0;
#X connect 97 0 4 0;
#X connect 98 0 94 1;
#X connect 99 0 94 0;
#X connect 99 1 94 3;
#X connect 100 0 99 0;
#X connect 101 0 8 0;
#X connect 102 0 14 1;
#X connect 103 0 102 0;
#X connect 104 0 103 0;
#X connect 105 0 104 0;
#X connect 106 0 105 0;
#X connect 107 0 11 0;
#X connect 108 0 22 0;
#X connect 109 0 78 0;
#X connect 110 0 34 0;
#X connect 111 0 35 0;
#X connect 112 0 40 0;
#X connect 112 1 130 0;
#X connect 113 0 124 0;
#X connect 114 0 123 0;
#X connect 115 0 128 0;
#X connect 116 0 129 1;
#X connect 117 0 120 0;
#X connect 118 0 117 0;
#X connect 118 0 121 0;
#X connect 119 0 118 0;
#X connect 119 1 117 1;
#X connect 120 0 121 0;
#X connect 120 1 133 2;
#X connect 121 0 133 1;
#X connect 122 0 121 0;
#X connect 122 1 133 3;
#X connect 123 0 118 0;
#X connect 123 0 127 0;
#X connect 124 0 122 0;
#X connect 124 0 125 0;
#X connect 128 0 126 0;
#X connect 128 0 119 0;
#X connect 129 0 21 0;
#X connect 130 1 136 0;
#X connect 131 0 132 0;
#X connect 132 0 133 0;
#X connect 133 0 135 0;
#X connect 134 0 116 0;
#X connect 135 0 134 0;
#X connect 135 1 139 0;
#X connect 135 2 31 0;
#X connect 136 1 131 0;
#X connect 137 0 5 0;
#X connect 138 0 97 0;
#X connect 139 0 107 0;
#X connect 140 0 65 0;
#X coords 0 -1 1 1 129 159 1 100 100;
