#N canvas 721 319 668 337 10;
#X obj 101 102 cnv 15 76 90 empty empty Input 3 10 0 16 -233017 -1
0;
#X obj 300 207 outlet~;
#X obj 107 131 vsl 25 50 0 127 0 0 \$0midivol \$0midivol_r empty 0
-9 0 10 -99865 -260097 -1 0 1;
#X obj 133 170 nbx 3 16 -1e+037 1e+037 0 0 \$0show_s \$0show empty
0 -8 0 10 -262144 -1 -1 0 256 0;
#X obj 301 136 *~;
#X obj 363 119 line~;
#X msg 363 88 \$1 15;
#X obj 368 28 r \$0midivol;
#X obj 417 68 s \$0show;
#X obj 269 65 adc~;
#X obj 565 157 s \$0midivol_r;
#X obj 565 98 loadbang;
#X obj 359 56 / 63.5;
#X obj 476 253 r toolssavebank;
#X obj 687 117 r toolssavebang;
#X obj 851 301 f;
#X obj 761 409 s toolssavelists;
#X obj 716 221 f;
#X obj 479 318 route;
#X obj 837 62 loadbang;
#X obj 838 118 \$1;
#X obj 837 90 del 5;
#X obj 716 180 del;
#X obj 714 270 t b f b b;
#X obj 761 366 pack s f f;
#X obj 479 288 route input;
#X obj 708 321 symbol input;
#X obj 476 414 s \$0midivol_r;
#X obj 866 261 r \$0midivol;
#X obj 501 28 inlet;
#X msg 565 132 0;
#X obj 238 171 env~;
#X floatatom 238 222 5 0 0 0 - - -, f 5;
#X obj 240 200 > 97;
#X obj 157 108 bng 14 69 30 0 \$0clip_s \$0clip empty -4 24 0 10 -128992
-258113 -258113;
#X obj 237 261 tgl 15 0 empty empty empty 17 7 0 10 -262144 -1 -1 0
1;
#X obj 238 241 change;
#X obj 242 282 metro 100;
#X obj 246 305 s \$0clip;
#X connect 4 0 1 0;
#X connect 4 0 31 0;
#X connect 5 0 4 1;
#X connect 6 0 5 0;
#X connect 7 0 12 0;
#X connect 9 0 4 0;
#X connect 11 0 30 0;
#X connect 12 0 6 0;
#X connect 12 0 8 0;
#X connect 13 0 25 0;
#X connect 14 0 22 0;
#X connect 15 0 24 2;
#X connect 17 0 23 0;
#X connect 18 0 27 0;
#X connect 19 0 21 0;
#X connect 20 0 17 1;
#X connect 20 0 18 1;
#X connect 20 0 22 1;
#X connect 21 0 20 0;
#X connect 22 0 17 0;
#X connect 23 0 26 0;
#X connect 23 1 24 1;
#X connect 23 2 15 0;
#X connect 24 0 16 0;
#X connect 25 0 18 0;
#X connect 26 0 24 0;
#X connect 28 0 15 1;
#X connect 29 0 2 0;
#X connect 30 0 10 0;
#X connect 31 0 33 0;
#X connect 32 0 36 0;
#X connect 33 0 32 0;
#X connect 35 0 37 0;
#X connect 36 0 35 0;
#X connect 37 0 38 0;
#X coords 0 -1 1 1 78 94 1 100 100;
