#N canvas 0 0 1423 798 10;
#X obj -766 168 osc~;
#X obj -766 120 vline~;
#X msg -710 123 0;
#X obj -763 25 pack f f f;
#X obj -764 -79 r \$0start;
#X obj -673 -108 r \$0length;
#X obj -514 9 r \$0decay;
#X obj -766 210 *~;
#X obj -606 -62 r \$0attack;
#X obj -509 -65 r \$0length;
#X obj -664 182 vline~;
#X msg -662 160 1 \$1 \, 0 \$3 \$2;
#X obj -604 35 +;
#X obj -605 10 f;
#X obj -566 9 t b f;
#X obj -643 106 pack f f f;
#X obj -607 57 t b f;
#X obj -644 81 f;
#X obj -537 64 t b f;
#X obj -903 132 *;
#X obj -859 36 r \$0kick;
#X obj -906 55 f;
#X obj -860 99 + 2;
#X obj -905 -61 / 127;
#X obj -906 -38 * 60;
#X obj -863 56 / 127;
#X obj -861 123 t b f;
#X obj -905 -85 r \$0end;
#X obj -902 200 s \$0start;
#X obj -38 -93 inlet;
#X obj -814 -50 bng 15 250 50 0 empty \$0kickit empty 17 7 0 10 -262144
-1 -1;
#X obj -608 -25 / 1.27;
#X obj -504 500 loadbang;
#X obj -607 598 s \$0decay_r;
#X obj -674 596 s \$0end_r;
#X obj -509 107 s \$0decayshow;
#X obj -490 76 s \$0lengthshow;
#X obj -522 153 s \$0attackshow;
#X obj -882 13 s \$0endshow;
#X obj -748 -24 t b f;
#X obj -700 -13 t b f;
#X obj -860 79 * 28;
#X msg -766 91 \$1 \, \$3 \$2;
#X obj -501 -30 / 1.27;
#X obj -687 -75 / 1.27;
#X obj -905 -19 + 35;
#X obj -816 -28 t b b b;
#X msg -580 532 66;
#X msg -647 523 10;
#X obj -436 608 s \$0kick_r;
#X msg -433 581 49;
#X msg -516 574 0.0127;
#X msg -343 566 20;
#X obj -328 605 s \$0length_r;
#X obj 102 102 cnv 15 125 200 empty empty kick 41 12 0 16 -33289 -260097
0;
#X obj 125 138 vsl 15 60 0 127 0 0 \$0end \$0end_r tune -6 -9 0 11
-228856 -260097 -262144 1565 1;
#X obj 187 138 vsl 15 60 1.27 127 1 0 \$0kick \$0kick_r kick -6 -9
0 11 -228856 -260097 -262144 5900 1;
#X obj 151 165 bng 25 250 50 0 \$0kickit \$0kickit_r empty 17 7 0 10
-228856 -260097 -1;
#X obj 128 227 hsl 75 15 1 127 0 0 \$0length \$0length_r dauer 18 8
0 11 -228856 -260097 -1 7400 1;
#X obj 125 201 nbx 3 14 -1e+037 1e+037 0 0 \$0endshow_s \$0endshow
empty 0 -8 0 10 -262144 -1 -1 50.9153 256 0;
#X obj -852 164 s \$0kickshow;
#X obj 169 201 nbx 4 14 -1e+037 1e+037 0 0 \$0kickshow_s \$0kickshow
empty 0 -8 0 10 -262144 -1 -1 1 256 0;
#X obj 107 262 hsl 50 15 0.0127 127 1 0 \$0attack \$0attack_r attack
7 7 0 10 -228856 -260097 -1 0 1;
#X obj 169 263 hsl 50 15 0.0127 127 1 0 \$0decay \$0decay_r decay 9
7 0 10 -228856 -260097 -1 4900 1;
#X obj 148 242 nbx 3 14 -1e+037 1e+037 0 0 \$0length_s \$0length empty
0 -8 0 10 -262144 -1 -1 127 256 0;
#X obj 117 277 nbx 4 14 -1e+037 1e+037 0 0 \$0attackshow_s \$0attackshow
empty 0 -8 0 10 -262144 -1 -1 0.01 256 0;
#X obj 175 278 nbx 4 14 -1e+037 1e+037 0 0 \$0decayshow_s \$0decayshow
empty 0 -8 0 10 -262144 -1 -1 762 256 0;
#X obj -766 271 outlet~;
#X obj 154 -49 inlet;
#X obj 221 -27 inlet;
#X obj 297 -18 inlet;
#X obj 364 4 inlet;
#X obj 401 18 inlet;
#X obj -131 591 r toolssavebank;
#X obj 79 508 r toolssavebang;
#X obj 298 698 f;
#X obj 243 692 f;
#X obj 153 800 s toolssavelists;
#X obj 108 612 f;
#X obj -129 709 route;
#X obj 229 453 loadbang;
#X obj 230 509 \$1;
#X obj 229 481 del 5;
#X obj 108 571 del;
#X obj 370 726 f;
#X obj 155 757 pack s f f f f f f f f f;
#X obj 471 753 f;
#X obj 416 747 f;
#X obj 100 712 symbol base;
#X obj -128 680 route base;
#X obj 106 661 t b f b b b b b;
#X obj 483 725 r \$0decay;
#X obj -528 624 s \$0attack_r;
#X obj 448 696 r \$0attack;
#X obj 270 569 r \$0end;
#X obj 350 624 r \$0kick;
#X obj 429 636 r \$0length;
#X obj -128 735 unpack f f f f f;
#X obj 18 905 s \$0decay_r;
#X obj -17 876 s \$0attack_r;
#X obj -71 838 s \$0length_r;
#X obj -115 804 s \$0kick_r;
#X obj -162 778 s \$0end_r;
#X obj -766 239 *~ 2;
#X obj -38 -56 route bang;
#X obj -210 2 r \$0decay;
#X obj -302 -69 r \$0attack;
#X obj -205 -72 r \$0length;
#X obj -360 175 vline~;
#X obj -300 28 +;
#X obj -301 3 f;
#X obj -262 2 t b f;
#X obj -303 50 t b f;
#X obj -318 76 f;
#X obj -233 57 t b f;
#X obj -304 -32 / 1.27;
#X obj -205 100 s \$0decayshow;
#X obj -186 69 s \$0lengthshow;
#X obj -218 146 s \$0attackshow;
#X obj -197 -37 / 1.27;
#X obj -375 205 *~;
#X obj 15 -21 unpack 0 0;
#X floatatom 66 34 5 0 0 0 - - -, f 5;
#X obj 66 58 / 127;
#X obj -331 108 pack f f f f;
#X msg -361 148 \$1 \$2 \, 0 \$4 \$3;
#X obj -407 -94 t l b b;
#X obj 18 9 moses 0.1;
#X msg -449 49 2.3622;
#X obj -522 38 * 6;
#X obj -218 30 * 6;
#X obj -661 129 list;
#X obj -778 59 list;
#X connect 0 0 120 0;
#X connect 0 0 7 0;
#X connect 1 0 0 0;
#X connect 2 0 0 1;
#X connect 3 0 132 1;
#X connect 4 0 3 0;
#X connect 5 0 44 0;
#X connect 6 0 129 0;
#X connect 7 0 103 0;
#X connect 8 0 31 0;
#X connect 9 0 43 0;
#X connect 10 0 7 1;
#X connect 11 0 10 0;
#X connect 12 0 16 0;
#X connect 13 0 12 0;
#X connect 13 0 17 0;
#X connect 14 0 13 0;
#X connect 14 1 12 1;
#X connect 15 0 131 1;
#X connect 16 0 17 0;
#X connect 16 1 15 1;
#X connect 17 0 15 0;
#X connect 18 0 17 0;
#X connect 18 1 15 2;
#X connect 19 0 28 0;
#X connect 20 0 25 0;
#X connect 21 0 19 0;
#X connect 22 0 26 0;
#X connect 23 0 24 0;
#X connect 24 0 45 0;
#X connect 25 0 41 0;
#X connect 25 0 60 0;
#X connect 26 0 21 0;
#X connect 26 1 19 1;
#X connect 27 0 23 0;
#X connect 29 0 104 0;
#X connect 30 0 46 0;
#X connect 31 0 13 0;
#X connect 31 0 37 0;
#X connect 32 0 50 0;
#X connect 32 0 47 0;
#X connect 32 0 48 0;
#X connect 32 0 51 0;
#X connect 32 0 52 0;
#X connect 39 0 3 0;
#X connect 39 1 3 1;
#X connect 40 0 3 0;
#X connect 40 1 3 2;
#X connect 41 0 22 0;
#X connect 42 0 1 0;
#X connect 43 0 36 0;
#X connect 43 0 14 0;
#X connect 44 0 39 0;
#X connect 45 0 21 0;
#X connect 45 0 38 0;
#X connect 45 0 40 0;
#X connect 46 0 131 0;
#X connect 46 1 132 0;
#X connect 46 2 2 0;
#X connect 47 0 33 0;
#X connect 48 0 34 0;
#X connect 50 0 49 0;
#X connect 51 0 92 0;
#X connect 52 0 53 0;
#X connect 68 0 55 0;
#X connect 69 0 56 0;
#X connect 70 0 58 0;
#X connect 71 0 62 0;
#X connect 72 0 63 0;
#X connect 73 0 89 0;
#X connect 74 0 83 0;
#X connect 75 0 85 3;
#X connect 76 0 85 2;
#X connect 78 0 90 0;
#X connect 79 0 97 0;
#X connect 80 0 82 0;
#X connect 81 0 78 1;
#X connect 81 0 79 1;
#X connect 81 0 83 1;
#X connect 82 0 81 0;
#X connect 83 0 78 0;
#X connect 84 0 85 4;
#X connect 85 0 77 0;
#X connect 86 0 85 6;
#X connect 87 0 85 5;
#X connect 88 0 85 0;
#X connect 89 0 79 0;
#X connect 90 0 88 0;
#X connect 90 1 85 1;
#X connect 90 2 76 0;
#X connect 90 3 75 0;
#X connect 90 4 84 0;
#X connect 90 5 87 0;
#X connect 90 6 86 0;
#X connect 91 0 86 1;
#X connect 93 0 87 1;
#X connect 94 0 76 1;
#X connect 95 0 75 1;
#X connect 96 0 84 1;
#X connect 97 0 102 0;
#X connect 97 1 101 0;
#X connect 97 2 100 0;
#X connect 97 3 99 0;
#X connect 97 4 98 0;
#X connect 103 0 67 0;
#X connect 104 0 57 0;
#X connect 104 1 121 0;
#X connect 105 0 130 0;
#X connect 106 0 115 0;
#X connect 107 0 119 0;
#X connect 108 0 120 1;
#X connect 109 0 112 0;
#X connect 110 0 109 0;
#X connect 110 0 113 0;
#X connect 111 0 110 0;
#X connect 111 1 109 1;
#X connect 112 0 113 0;
#X connect 112 1 124 2;
#X connect 113 0 124 1;
#X connect 114 0 113 0;
#X connect 114 1 124 3;
#X connect 115 0 110 0;
#X connect 115 0 118 0;
#X connect 119 0 117 0;
#X connect 119 0 111 0;
#X connect 120 0 103 0;
#X connect 121 1 127 0;
#X connect 122 0 123 0;
#X connect 123 0 124 0;
#X connect 124 0 126 0;
#X connect 125 0 108 0;
#X connect 126 0 125 0;
#X connect 126 1 132 0;
#X connect 126 2 2 0;
#X connect 127 1 122 0;
#X connect 129 0 18 0;
#X connect 129 0 35 0;
#X connect 130 0 114 0;
#X connect 130 0 116 0;
#X connect 131 0 11 0;
#X connect 132 0 42 0;
#X coords 0 -1 1 1 129 204 1 100 100;
