#N canvas 0 0 1423 798 10;
#X obj -485 -188 r \$0bpm;
#X obj 102 102 cnv 15 120 150 empty empty lev:LINK 4 12 0 14 -33289
-260097 0;
#X obj 177 114 vsl 30 60 0 127 0 0 \$0bpm \$0bpm_r Bpm 2 74 0 14 -162280
-260097 -262144 1705 1;
#X obj 177 197 nbx 3 14 -1e+037 1e+037 0 0 \$0bpm_show_s \$0bpm_show
empty 0 -8 0 10 -228856 -1 -1 120 256;
#X obj -580 -87 s \$0bpm_show;
#X obj -932 143 loadbang;
#X obj -925 198 s \$0bpm_r;
#X obj -776 538 outlet;
#X msg -773 495 Pulse \$1;
#X msg -693 495 BPM \$1;
#X obj -736 130 link/abl_link~;
#X msg -574 61 tempo \$1;
#X msg -785 62 resolution \$1;
#X msg -682 82 reset \$1 \$2;
#X obj -682 61 pack f f;
#X floatatom -675 180 5 0 0 1 beat_time - -;
#X floatatom -712 198 5 0 0 1 phase - -;
#X floatatom -749 220 5 0 0 1 step - -;
#X floatatom -638 159 5 0 0 1 tempo - -;
#X obj -862 42 tgl 15 0 empty empty empty 17 7 0 10 -262144 -1 -1 0
1;
#X floatatom -574 42 5 0 0 2 tempo - -;
#X floatatom -637 42 5 0 0 2 quantum - -;
#X floatatom -682 42 5 0 0 2 beat - -;
#X floatatom -785 42 5 0 0 2 resolution - -;
#X msg -862 62 connect \$1;
#X floatatom -532 137 5 0 0 0 - - -;
#X obj -532 115 r #abl_link_num_peers;
#X msg -482 61 offset \$1;
#X floatatom -482 42 5 0 0 2 offset(ms) - -;
#X obj -679 -78 loadbang;
#X msg -598 1 120;
#X obj -653 283 f;
#X obj -676 256 sel 0;
#X obj -865 -46 r \$0connect;
#X obj -533 166 s \$0numpeers;
#X obj 127 135 tgl 25 0 \$0connect \$0connect_r verbinden -13 32 0
10 -191407 -260097 -262144 0 1;
#X obj 108 183 nbx 2 14 -1e+037 1e+037 0 0 \$0numpeers_s \$0numpeers
Teilnehmer 0 22 0 10 -228856 -1 -262144 0 256;
#X text -1255 -29 DasLinux-Objekt auch in den Link-Ordner \, damit
es auch unter Linux läuft.;
#X text -1207 -70 Noch einen Offset Regler?;
#X text -1262 12 womöglich hier noch 32tel Infos über Phase mit rausschicken
\, die dann in Steps verwendet werden können? Einfach bei Vielfachen
von 0.125 bangen lassen und unter Phase \$1 ausgeben. Ähnlich dann
bei Clock;
#X obj 120 218 hsl 80 15 0 127 0 0 \$0Offset \$0Offset_r Korrektur
13 8 0 10 -191407 -260097 -1 3950 1;
#X obj 132 234 nbx 5 14 -1e+037 1e+037 0 0 \$0offset_show_s \$0offset_show
empty 0 -8 0 10 -228856 -1 -1 0 256;
#X obj -527 226 loadbang;
#X obj -528 288 s \$0Offset_r;
#X msg -528 247 63.5;
#X obj -393 -86 r \$0Offset;
#X obj -394 -65 - 63.5;
#X obj -394 -20 * 2;
#X obj -487 -123 int;
#X obj -473 -92 + 30;
#X obj -488 -148 pow 1.25;
#X msg -935 173 36.7;
#X obj -628 207 spigot;
#X obj -438 393 r toolssavebank;
#X obj -227 257 r toolssavebang;
#X obj -63 441 f;
#X obj -153 549 s toolssavelists;
#X obj -198 361 f;
#X obj -435 458 route;
#X obj -77 202 loadbang;
#X obj -76 258 \$1;
#X obj -77 230 del 5;
#X obj -198 320 del;
#X obj -200 410 t b f b b;
#X obj -435 428 route link;
#X obj -206 461 symbol link;
#X obj -436 554 s \$0Offset_r;
#X obj -48 400 r \$0Offset;
#X obj -153 506 pack s f f f;
#X obj -435 506 unpack f f;
#X obj -376 532 s \$0bpm_r;
#X obj -4 438 r \$0bpm;
#X obj -16 468 f;
#X obj -366 47 s \$0offset_show;
#X msg -790 0 8;
#X obj -837 370 select 0 2 4 6 8 10 12 14 16 18 20 22 24 26 28 30;
#X floatatom -807 460 5 0 0 0 - - -;
#X msg -919 407 0;
#X msg -891 408 1;
#X msg -863 408 2;
#X msg -835 409 3;
#X msg -803 409 4;
#X msg -775 410 5;
#X msg -747 410 6;
#X msg -718 412 7;
#X msg -689 411 8;
#X msg -661 412 9;
#X msg -633 411 10;
#X msg -605 413 11;
#X msg -573 413 12;
#X msg -891 507 Phase \$1;
#X msg -545 413 13;
#X msg -512 412 14;
#X msg -483 412 15;
#X obj 182 53 inlet;
#X obj 196 75 inlet;
#X connect 0 0 50 0;
#X connect 5 0 51 0;
#X connect 8 0 7 0;
#X connect 9 0 7 0;
#X connect 10 0 17 0;
#X connect 10 1 16 0;
#X connect 10 2 15 0;
#X connect 10 3 18 0;
#X connect 11 0 10 0;
#X connect 12 0 10 0;
#X connect 13 0 10 0;
#X connect 14 0 13 0;
#X connect 17 0 32 0;
#X connect 17 0 90 0;
#X connect 17 0 75 0;
#X connect 18 0 31 0;
#X connect 18 0 52 0;
#X connect 19 0 24 0;
#X connect 19 0 52 1;
#X connect 20 0 11 0;
#X connect 21 0 14 1;
#X connect 22 0 14 0;
#X connect 23 0 12 0;
#X connect 24 0 10 0;
#X connect 25 0 34 0;
#X connect 26 0 25 0;
#X connect 27 0 10 0;
#X connect 28 0 27 0;
#X connect 29 0 74 0;
#X connect 29 0 30 0;
#X connect 30 0 20 0;
#X connect 31 0 9 0;
#X connect 32 0 31 0;
#X connect 33 0 19 0;
#X connect 42 0 44 0;
#X connect 44 0 43 0;
#X connect 45 0 46 0;
#X connect 46 0 47 0;
#X connect 47 0 28 0;
#X connect 47 0 73 0;
#X connect 48 0 49 0;
#X connect 49 0 20 0;
#X connect 49 0 4 0;
#X connect 50 0 48 0;
#X connect 51 0 6 0;
#X connect 52 0 4 0;
#X connect 53 0 64 0;
#X connect 54 0 62 0;
#X connect 55 0 68 2;
#X connect 57 0 63 0;
#X connect 58 0 69 0;
#X connect 59 0 61 0;
#X connect 60 0 57 1;
#X connect 60 0 58 1;
#X connect 60 0 62 1;
#X connect 61 0 60 0;
#X connect 62 0 57 0;
#X connect 63 0 65 0;
#X connect 63 1 68 1;
#X connect 63 2 55 0;
#X connect 63 3 72 0;
#X connect 64 0 58 0;
#X connect 65 0 68 0;
#X connect 67 0 55 1;
#X connect 68 0 56 0;
#X connect 69 0 66 0;
#X connect 69 1 70 0;
#X connect 71 0 72 1;
#X connect 72 0 68 3;
#X connect 74 0 23 0;
#X connect 75 0 77 0;
#X connect 75 1 78 0;
#X connect 75 2 79 0;
#X connect 75 3 80 0;
#X connect 75 4 81 0;
#X connect 75 5 82 0;
#X connect 75 6 83 0;
#X connect 75 7 84 0;
#X connect 75 8 85 0;
#X connect 75 9 86 0;
#X connect 75 10 87 0;
#X connect 75 11 88 0;
#X connect 75 12 89 0;
#X connect 75 13 91 0;
#X connect 75 14 92 0;
#X connect 75 15 93 0;
#X connect 76 0 8 0;
#X connect 77 0 76 0;
#X connect 78 0 76 0;
#X connect 79 0 76 0;
#X connect 80 0 76 0;
#X connect 81 0 76 0;
#X connect 82 0 76 0;
#X connect 83 0 76 0;
#X connect 84 0 76 0;
#X connect 85 0 76 0;
#X connect 86 0 76 0;
#X connect 87 0 76 0;
#X connect 88 0 76 0;
#X connect 89 0 76 0;
#X connect 90 0 7 0;
#X connect 91 0 76 0;
#X connect 92 0 76 0;
#X connect 93 0 76 0;
#X connect 94 0 2 0;
#X connect 95 0 40 0;
#X coords 0 -1 1 1 124 154 1 100 100;
