#N canvas 65 52 1063 693 10;
#X obj 515 305 *~;
#X obj 493 258 z~ 64;
#X obj 525 191 inlet~;
#X obj 517 336 outlet~;
#X obj 535 275 limiter~ 50;
#X obj 398 280 *~;
#X obj 524 223 *~;
#X obj 405 219 line~;
#X msg 398 184 \$1 10;
#X msg 462 169 \$1 10;
#X obj 448 194 line~;
#X obj 398 -38 r \$0on;
#X msg 375 56 1;
#X msg 404 50 0;
#X msg 443 61 1;
#X msg 472 55 0;
#X obj 581 21 s \$0on_r;
#X obj 570 -26 loadbang;
#X msg 581 -1 1;
#X obj 101 102 cnv 15 78 66 empty empty limits 5 12 0 20 -233017 -1
0;
#X obj 135 130 tgl 30 0 \$0on \$0on_r an -25 15 0 16 -99865 -260097
-1 1 1;
#X obj 397 12 sel 1 0;
#X obj 711 191 r toolssavebank;
#X obj 922 55 r toolssavebang;
#X obj 1086 239 f;
#X obj 996 347 s toolssavelists;
#X obj 951 159 f;
#X obj 714 256 route;
#X obj 1072 0 loadbang;
#X obj 1073 56 \$1;
#X obj 1072 28 del 5;
#X obj 951 118 del;
#X obj 949 208 t b f b b;
#X obj 996 304 pack s f f;
#X obj 714 226 route limit;
#X obj 943 259 symbol limit;
#X obj 711 352 s \$0on_r;
#X obj 1101 199 r \$0on;
#X connect 0 0 3 0;
#X connect 1 0 0 0;
#X connect 2 0 5 0;
#X connect 2 0 6 0;
#X connect 4 0 0 1;
#X connect 5 0 3 0;
#X connect 6 0 1 0;
#X connect 6 0 4 0;
#X connect 7 0 5 1;
#X connect 8 0 7 0;
#X connect 9 0 10 0;
#X connect 10 0 6 1;
#X connect 11 0 21 0;
#X connect 12 0 9 0;
#X connect 13 0 8 0;
#X connect 14 0 8 0;
#X connect 15 0 9 0;
#X connect 17 0 18 0;
#X connect 18 0 16 0;
#X connect 21 0 12 0;
#X connect 21 0 13 0;
#X connect 21 1 14 0;
#X connect 21 1 15 0;
#X connect 22 0 34 0;
#X connect 23 0 31 0;
#X connect 24 0 33 2;
#X connect 26 0 32 0;
#X connect 27 0 36 0;
#X connect 28 0 30 0;
#X connect 29 0 26 1;
#X connect 29 0 27 1;
#X connect 29 0 31 1;
#X connect 30 0 29 0;
#X connect 31 0 26 0;
#X connect 32 0 35 0;
#X connect 32 1 33 1;
#X connect 32 2 24 0;
#X connect 33 0 25 0;
#X connect 34 0 27 0;
#X connect 35 0 33 0;
#X connect 37 0 24 1;
#X coords 0 -1 1 1 80 70 1 100 100;
