#N canvas 0 0 1423 798 10;
#X obj -551 -465 inlet;
#X floatatom -553 -407 5 0 0 0 - - -, f 5;
#X obj -149 -259 route 1 2 3 4;
#X obj -113 27 sel 0;
#X msg -113 48 0;
#X obj -116 122 spigot;
#X obj -42 78 sel 1;
#X msg -42 105 0;
#X obj -114 75 t b f;
#X msg -115 97 1;
#X obj -423 469 route end;
#X obj -374 576 route end;
#X obj 96 568 list split 2;
#X obj -262 600 route end;
#X obj -374 -444 route stop;
#X obj 180 621 list split 2;
#X obj 245 656 list split 2;
#X obj -85 615 route end;
#X obj 44 662 route end;
#X obj -149 -311 poly 4 1;
#X obj -149 -286 pack f f f;
#X obj -457 394 textfile;
#X obj -233 152 bng 15 50 20 0 empty empty empty 17 7 0 10 -262144
-1 -1;
#X obj -423 220 spigot;
#X obj -242 79 r \$0rec;
#X obj -233 179 spigot;
#X obj -186 134 - 1;
#X obj -187 155 abs;
#X obj -279 105 f;
#X msg -206 259 clear;
#X obj -201 234 sel 1;
#X obj -641 80 sel 0;
#X msg -641 101 rewind;
#X obj -423 433 list split 2;
#X obj -341 468 list split 2;
#X obj -270 522 list split 2;
#X obj -83 547 list split 2;
#X floatatom -510 -407 5 0 0 0 - - -, f 5;
#X msg -511 -360 60000;
#X obj -509 -387 t b f;
#X obj -509 -333 /;
#X floatatom -510 -308 5 0 0 0 - - -, f 5;
#X obj -511 -280 / 4;
#X floatatom -512 -256 5 0 0 0 - - -, f 5;
#X obj -575 -60 del;
#X obj -581 -94 bng 15 50 10 0 empty empty empty 17 7 0 10 -262144
-1 -1;
#X msg -496 142 add end;
#X obj -598 -121 t f f f f;
#X obj -492 201 spigot;
#X obj -149 -232 zl rev;
#X obj -149 -209 route 0;
#X msg -429 346 add2 \$1 \$2;
#X obj -99 -208 zl rev;
#X obj -99 -185 route 0;
#X obj -48 -183 zl rev;
#X obj -48 -160 route 0;
#X obj 2 -159 zl rev;
#X obj 2 -136 route 0;
#X msg -149 -182 \$1 0;
#X msg -100 -159 \$1 0;
#X msg -50 -133 \$1 0;
#X msg 4 -110 \$1 0;
#X obj -468 2 t b b b b b;
#X msg -309 -118 list no;
#X obj -460 79 route symbol;
#X obj 145 692 route end;
#X obj 217 718 route end;
#X obj 336 739 route end;
#X obj 316 694 list split 2;
#X obj -636 329 sel 15;
#X obj -637 361 del;
#X obj -574 320 - 1;
#X msg -647 458 stop 0;
#X obj 220 -408 gate 4;
#X obj 330 -526 + 1;
#X obj 330 -495 sel 1;
#X msg 338 -455 1;
#X obj 220 -357 + 16;
#X floatatom 232 -251 5 0 0 0 - - -, f 5;
#X obj 409 -494 sel 2;
#X obj 385 -337 spigot;
#X msg 478 -462 1;
#X msg 371 -457 0;
#X obj 384 -375 sel 15;
#X msg 384 -306 2;
#X obj 453 -338 spigot;
#X obj 451 -376 sel 31;
#X msg 452 -307 1;
#X obj 582 -500 sel 3;
#X obj 733 -504 sel 4;
#X obj 619 -339 spigot;
#X obj 617 -378 sel 47;
#X msg 618 -308 1;
#X obj 538 -344 spigot;
#X obj 536 -382 sel 31;
#X msg 547 -463 0;
#X msg 599 -464 1;
#X msg 537 -313 3;
#X msg 703 -469 0;
#X msg 753 -468 1;
#X obj 250 -356 + 32;
#X msg 416 -460 0;
#X obj 283 -357 + 48;
#X obj 783 -343 spigot;
#X msg 782 -312 1;
#X obj 694 -342 spigot;
#X obj 692 -380 sel 47;
#X msg 693 -311 4;
#X obj 781 -382 sel 63;
#X obj -818 133 r \$0length;
#X obj -816 175 sel 0 1 2 3;
#X msg -829 206 15;
#X msg -801 209 31;
#X msg -763 213 47;
#X msg -730 210 63;
#X obj -741 7 s \$0length_r;
#X msg -737 -50 1;
#X msg -764 -47 0;
#X obj -279 70 sel 0;
#X obj -235 -297 zl rev;
#X obj -240 -268 route 0;
#X obj -236 -241 zl rev;
#X obj -185 -416 unpack f f;
#X obj -202 -356 pack f f;
#X obj -130 148 s \$0rec_r;
#X obj -70 -25 r \$0rec;
#X obj 293 -553 r \$0length;
#X obj -153 420 pack 0 0;
#X obj -105 396 \$0;
#X obj -149 366 t f b;
#X msg -152 449 \; \$2canvas_r color \$1;
#X msg -182 334 13;
#X obj -182 307 sel 1;
#X msg -135 337 12;
#X obj -130 312 sel 0;
#X obj -584 834 outlet;
#X obj -505 793 spigot;
#X obj -578 650 r \$0onoff;
#X obj 575 -7 loadbang;
#X obj 631 52 s \$0onoff_r;
#X msg 602 22 1;
#X obj 102 102 cnv 15 200 205 empty empty loopmidi 20 12 0 14 -66577
-260097 0;
#X obj 195 138 hradio 15 1 0 4 \$0length \$0length_r Takte 63 8 0 10
-162280 -260097 -262144 0;
#X obj 112 185 cnv 15 180 60 \$0canvas_s \$0canvas_r empty 20 12 0
14 -33289 -262144 0;
#X obj 126 130 tgl 30 0 \$0rec \$0rec_r Aufnahme-nächster-Durchgang
-10 40 0 10 -162280 -258113 -262144 0 1;
#X obj 130 194 hradio 9 1 0 16 empty empty empty 0 -8 0 10 -228856
-260097 -1 0;
#X obj 130 205 hradio 9 1 0 16 empty empty empty 0 -8 0 10 -228856
-260097 -1 0;
#X obj 130 216 hradio 9 1 0 16 empty empty empty 0 -8 0 10 -228856
-260097 -1 0;
#X obj 130 227 hradio 9 1 0 16 empty empty empty 0 -8 0 10 -228856
-260097 -1 0;
#X obj 127 268 tgl 30 0 \$0onoff \$0onoff_r Ausgabe -5 -7 0 10 -162280
-260097 -262144 0 1;
#X obj 230 269 bng 15 250 50 0 \$0Add_seq_save_bang \$0Add_seq_save_bang_ctl
save 18 7 0 10 -162280 -260097 -262144;
#X obj 258 287 bng 15 250 50 0 \$0Add_seq_load_bang \$0Add_seq_load_bang_ctl
load -28 7 0 10 -191407 -260097 -262144;
#X obj 516 252 savepanel;
#X obj 516 167 del 50;
#X obj 516 140 bng 15 250 50 0 empty \$0Add_seq_save_bang empty 17
7 0 10 -262144 -1 -1;
#X obj 619 266 bng 15 250 50 0 empty \$0Add_seq_load_bang empty 17
7 0 10 -262144 -1 -1;
#X msg 646 354 clear;
#X obj 619 453 openpanel;
#X obj 619 357 bng 15 250 50 0 empty empty empty 17 7 0 10 -262144
-1 -1;
#X msg 619 476 read \$1;
#X obj 619 299 t b b;
#X msg 516 311 write \$1;
#X obj 619 383 getdir;
#X obj 516 197 getdir;
#X msg 516 224 symbol \$1;
#X msg 620 410 symbol \$1;
#X obj 710 308 s \$0seqsave;
#X obj 752 402 r \$0seqsave_r;
#X obj 1099 247 r toolssavebank;
#X obj 1528 354 f;
#X obj 1473 348 f;
#X obj 1383 456 s toolssavelists;
#X obj 1338 268 f;
#X obj 1101 365 route;
#X obj 1459 109 loadbang;
#X obj 1460 165 \$1;
#X obj 1459 137 del 5;
#X obj 1338 227 del;
#X obj 1593 368 symbol;
#X obj 1235 469 list2symbol;
#X obj 492 37 s \$0length_r;
#X msg 481 8 0;
#X obj 1101 335 route midiloop;
#X obj 1330 368 symbol midiloop;
#X obj 1494 266 r \$0length;
#X obj 1384 421 pack s f f f s;
#X obj 1343 268 t b f b b b;
#X obj 1634 345 r \$0seqsave;
#X obj 1104 391 list split 2;
#X obj 1102 424 unpack f f;
#X obj 1560 297 r \$0onoff;
#X obj 1049 553 s \$0onoff_r;
#X obj 936 524 s \$0length_r;
#X obj 1234 562 s \$0seqsave_r;
#X obj 1300 535 s \$0seqsave;
#X obj -719 674 sel 0;
#X msg -707 720 stop 0;
#X obj 185 269 bng 15 250 50 0 \$0erase \$0erase_r löschen -9 24 0
9 -191407 -1 -262144;
#X obj -277 349 r \$0erase;
#X msg -272 383 clear;
#X obj -752 518 r \$0rec;
#X obj -709 606 sel 1;
#X obj -598 503 r \$0rec;
#X obj -639 553 spigot;
#X obj -599 524 - 1;
#X obj -592 544 abs;
#X obj -78 -408 / 2;
#X obj -204 -378 pipe 0 0 63.5;
#X obj -553 -434 route Pulse BPM Phase;
#X obj 235 -47 inlet;
#X obj 277 1 inlet;
#X obj 315 14 inlet;
#X obj -760 -406 sel 0 4 8 12;
#X obj -765 -243 *~;
#X obj -764 -287 osc~ 440;
#X obj -763 -313 vline~;
#X msg -723 -365 880 \, 440 15;
#X obj -702 -261 vline~;
#X obj -770 -124 dac~;
#X msg -703 -294 1 5 \, 0 30 5;
#X msg -808 -363 1600 \, 440 20;
#X obj -760 -196 *~ 0.5;
#X obj -759 -157 *~;
#X obj -716 -174 r \$0metroon;
#X obj 251 108 tgl 15 0 \$0metroon \$0metroon_r klick 19 9 0 9 -162280
-260097 -262144 0 1;
#X obj -512 -229 - 3;
#X obj -469 -24 del 3;
#X obj -407 37 list;
#X obj -397 47 list;
#X obj -387 57 list;
#X obj -377 67 list;
#X obj -395 169 list;
#X obj 1311 132 r toolsdirectory;
#X obj 1312 158 bng 15 250 50 0 empty empty empty 17 7 0 10 -262144
-1 -1;
#X obj 1364 194 clip 1 56;
#X obj 633 115 r toolsdirectory;
#X obj 740 134 \$1;
#X obj 707 153 ftos;
#X obj 646 169 pack s s;
#X obj 766 103 loadbang;
#X msg 650 197 symbol \$1Loopmidi\$2loop;
#X obj 247 48 + 1;
#X connect 0 0 208 0;
#X connect 1 0 73 1;
#X connect 1 0 212 0;
#X connect 2 0 49 0;
#X connect 2 1 52 0;
#X connect 2 2 54 0;
#X connect 2 3 56 0;
#X connect 3 0 4 0;
#X connect 4 0 8 0;
#X connect 5 0 124 0;
#X connect 6 0 7 0;
#X connect 7 0 5 1;
#X connect 8 0 9 0;
#X connect 8 1 5 0;
#X connect 9 0 5 1;
#X connect 10 1 136 0;
#X connect 11 1 136 0;
#X connect 12 0 18 0;
#X connect 12 1 15 0;
#X connect 13 1 136 0;
#X connect 14 1 122 0;
#X connect 15 0 65 0;
#X connect 15 1 16 0;
#X connect 16 0 66 0;
#X connect 16 1 68 0;
#X connect 17 1 136 0;
#X connect 18 1 136 0;
#X connect 19 0 20 0;
#X connect 19 1 20 1;
#X connect 19 2 20 2;
#X connect 20 0 2 0;
#X connect 21 0 33 0;
#X connect 22 0 25 0;
#X connect 23 0 51 0;
#X connect 24 0 28 1;
#X connect 25 0 21 0;
#X connect 26 0 27 0;
#X connect 27 0 25 1;
#X connect 28 0 23 1;
#X connect 28 0 26 0;
#X connect 28 0 48 1;
#X connect 28 0 132 0;
#X connect 28 0 134 0;
#X connect 29 0 21 0;
#X connect 30 0 29 0;
#X connect 31 0 32 0;
#X connect 32 0 21 0;
#X connect 33 0 10 0;
#X connect 33 1 34 0;
#X connect 34 0 11 0;
#X connect 34 1 35 0;
#X connect 35 0 13 0;
#X connect 35 1 36 0;
#X connect 36 0 17 0;
#X connect 36 1 12 0;
#X connect 37 0 39 0;
#X connect 38 0 40 0;
#X connect 39 0 38 0;
#X connect 39 1 40 1;
#X connect 40 0 41 0;
#X connect 41 0 42 0;
#X connect 42 0 43 0;
#X connect 43 0 206 0;
#X connect 43 0 225 0;
#X connect 44 0 46 0;
#X connect 44 0 226 0;
#X connect 45 0 44 0;
#X connect 46 0 48 0;
#X connect 47 0 31 0;
#X connect 47 1 45 0;
#X connect 47 2 118 0;
#X connect 47 3 3 0;
#X connect 48 0 21 0;
#X connect 49 0 50 0;
#X connect 50 0 58 0;
#X connect 51 0 21 0;
#X connect 52 0 53 0;
#X connect 53 0 59 0;
#X connect 54 0 55 0;
#X connect 55 0 60 0;
#X connect 56 0 57 0;
#X connect 57 0 61 0;
#X connect 58 0 227 1;
#X connect 59 0 228 1;
#X connect 60 0 229 1;
#X connect 61 0 230 1;
#X connect 62 0 63 0;
#X connect 62 1 227 0;
#X connect 62 2 228 0;
#X connect 62 3 229 0;
#X connect 62 4 230 0;
#X connect 63 0 227 1;
#X connect 63 0 228 1;
#X connect 63 0 229 1;
#X connect 63 0 230 1;
#X connect 64 1 23 0;
#X connect 65 1 136 0;
#X connect 66 1 136 0;
#X connect 67 1 136 0;
#X connect 68 0 67 0;
#X connect 69 0 70 0;
#X connect 70 0 72 0;
#X connect 71 0 70 1;
#X connect 72 0 203 0;
#X connect 73 0 78 0;
#X connect 73 0 145 0;
#X connect 73 1 77 0;
#X connect 73 1 146 0;
#X connect 73 2 100 0;
#X connect 73 2 147 0;
#X connect 73 3 102 0;
#X connect 73 3 148 0;
#X connect 74 0 75 0;
#X connect 74 0 79 0;
#X connect 74 0 88 0;
#X connect 74 0 89 0;
#X connect 75 0 76 0;
#X connect 75 0 82 0;
#X connect 76 0 73 0;
#X connect 77 0 78 0;
#X connect 78 0 83 0;
#X connect 78 0 86 0;
#X connect 78 0 91 0;
#X connect 78 0 94 0;
#X connect 78 0 106 0;
#X connect 78 0 108 0;
#X connect 78 0 69 0;
#X connect 78 0 47 0;
#X connect 78 0 22 0;
#X connect 79 0 81 0;
#X connect 79 0 101 0;
#X connect 80 0 84 0;
#X connect 81 0 80 1;
#X connect 81 0 85 1;
#X connect 82 0 80 1;
#X connect 83 0 80 0;
#X connect 84 0 73 0;
#X connect 85 0 87 0;
#X connect 86 0 85 0;
#X connect 87 0 73 0;
#X connect 88 0 95 0;
#X connect 88 0 96 0;
#X connect 89 0 99 0;
#X connect 89 0 98 0;
#X connect 90 0 92 0;
#X connect 91 0 90 0;
#X connect 92 0 73 0;
#X connect 93 0 97 0;
#X connect 94 0 93 0;
#X connect 95 0 85 1;
#X connect 95 0 105 1;
#X connect 96 0 93 1;
#X connect 96 0 90 1;
#X connect 96 0 80 1;
#X connect 97 0 73 0;
#X connect 98 0 90 1;
#X connect 98 0 85 1;
#X connect 99 0 105 1;
#X connect 99 0 103 1;
#X connect 99 0 93 1;
#X connect 99 0 80 1;
#X connect 100 0 78 0;
#X connect 101 0 93 1;
#X connect 101 0 105 1;
#X connect 102 0 78 0;
#X connect 103 0 104 0;
#X connect 104 0 73 0;
#X connect 105 0 107 0;
#X connect 106 0 105 0;
#X connect 107 0 73 0;
#X connect 108 0 103 0;
#X connect 109 0 110 0;
#X connect 110 0 111 0;
#X connect 110 1 112 0;
#X connect 110 2 113 0;
#X connect 110 3 114 0;
#X connect 111 0 69 1;
#X connect 112 0 69 1;
#X connect 113 0 69 1;
#X connect 114 0 69 1;
#X connect 116 0 115 0;
#X connect 117 0 115 0;
#X connect 118 0 28 0;
#X connect 119 0 120 0;
#X connect 120 1 121 0;
#X connect 121 0 231 0;
#X connect 122 0 207 0;
#X connect 122 1 207 1;
#X connect 123 0 119 0;
#X connect 123 0 19 0;
#X connect 125 0 6 0;
#X connect 125 0 30 0;
#X connect 126 0 74 0;
#X connect 127 0 130 0;
#X connect 128 0 127 1;
#X connect 129 0 127 0;
#X connect 129 1 128 0;
#X connect 131 0 129 0;
#X connect 132 0 131 0;
#X connect 133 0 129 0;
#X connect 134 0 133 0;
#X connect 136 0 135 0;
#X connect 137 0 136 1;
#X connect 137 0 195 0;
#X connect 138 0 140 0;
#X connect 138 0 181 0;
#X connect 140 0 139 0;
#X connect 152 0 161 0;
#X connect 152 0 166 0;
#X connect 153 0 163 0;
#X connect 154 0 153 0;
#X connect 155 0 160 0;
#X connect 156 0 21 0;
#X connect 157 0 159 0;
#X connect 157 0 166 0;
#X connect 158 0 162 0;
#X connect 159 0 21 0;
#X connect 159 0 196 0;
#X connect 160 0 158 0;
#X connect 160 1 156 0;
#X connect 161 0 21 0;
#X connect 162 0 165 0;
#X connect 163 0 164 0;
#X connect 164 0 152 0;
#X connect 165 0 157 0;
#X connect 167 0 159 0;
#X connect 168 0 182 0;
#X connect 169 0 185 3;
#X connect 170 0 185 2;
#X connect 172 0 186 0;
#X connect 173 0 188 0;
#X connect 174 0 176 0;
#X connect 175 0 172 1;
#X connect 175 0 173 1;
#X connect 175 0 234 0;
#X connect 176 0 175 0;
#X connect 177 0 172 0;
#X connect 178 0 185 4;
#X connect 179 0 193 0;
#X connect 179 0 194 0;
#X connect 181 0 180 0;
#X connect 182 0 173 0;
#X connect 183 0 185 0;
#X connect 184 0 170 1;
#X connect 185 0 171 0;
#X connect 186 0 183 0;
#X connect 186 1 185 1;
#X connect 186 2 170 0;
#X connect 186 3 169 0;
#X connect 186 4 178 0;
#X connect 187 0 178 1;
#X connect 188 0 189 0;
#X connect 188 1 179 0;
#X connect 189 0 192 0;
#X connect 189 1 191 0;
#X connect 190 0 169 1;
#X connect 195 0 196 0;
#X connect 196 0 135 0;
#X connect 198 0 199 0;
#X connect 199 0 21 0;
#X connect 199 0 196 0;
#X connect 200 0 201 0;
#X connect 201 0 196 0;
#X connect 202 0 204 0;
#X connect 203 0 136 0;
#X connect 204 0 205 0;
#X connect 205 0 203 1;
#X connect 206 0 207 2;
#X connect 207 0 123 0;
#X connect 207 1 123 1;
#X connect 208 0 1 0;
#X connect 208 1 37 0;
#X connect 208 3 14 0;
#X connect 208 3 135 0;
#X connect 209 0 149 0;
#X connect 210 0 241 0;
#X connect 211 0 144 0;
#X connect 212 0 220 0;
#X connect 212 1 216 0;
#X connect 212 2 216 0;
#X connect 212 3 216 0;
#X connect 213 0 221 0;
#X connect 214 0 213 0;
#X connect 215 0 214 0;
#X connect 216 0 215 0;
#X connect 216 0 219 0;
#X connect 217 0 213 1;
#X connect 219 0 217 0;
#X connect 220 0 215 0;
#X connect 220 0 219 0;
#X connect 221 0 222 0;
#X connect 222 0 218 0;
#X connect 222 0 218 1;
#X connect 223 0 222 1;
#X connect 225 0 44 1;
#X connect 225 0 71 0;
#X connect 226 0 62 0;
#X connect 227 0 64 0;
#X connect 228 0 64 0;
#X connect 229 0 64 0;
#X connect 230 0 64 0;
#X connect 231 0 23 0;
#X connect 232 0 233 0;
#X connect 233 0 177 0;
#X connect 234 0 177 1;
#X connect 235 0 238 0;
#X connect 236 0 237 0;
#X connect 237 0 238 1;
#X connect 238 0 240 0;
#X connect 239 0 236 0;
#X connect 240 0 161 0;
#X connect 240 0 166 0;
#X connect 241 0 142 0;
#X coords 0 -1 1 1 204 209 1 100 100;
