#N canvas 0 0 1423 798 10;
#X obj 102 102 cnv 15 354 166 empty \$0canvas_r looper 10 16 0 24 -33289
-262144 0;
#X obj 175 179 tgl 40 0 \$0RecordOnOff \$0RecordOnOff_r Aufnehmen -10
-8 0 12 -191407 -258113 -258113 0 1;
#X obj 124 144 bng 30 250 50 0 \$0read \$0read_r laden -3 40 0 12 -228856
-260097 -262144;
#X obj 123 206 bng 30 250 50 0 \$0write \$0write_r speichern -14 40
0 12 -228856 -260097 -262144;
#X obj 406 129 tgl 30 0 \$0play \$0play_r Ausgabe -7 -8 0 12 -191407
-260097 -262144 0 1;
#X obj -316 688 soundfiler;
#X obj -319 504 openpanel;
#X obj -319 432 getdir;
#X msg -319 459 symbol \$1;
#X obj -321 401 bng 15 250 50 0 empty \$0read empty 17 7 0 10 -262144
-1 -1;
#X obj -312 601 zl join;
#X obj -226 603 \$0;
#X msg -225 630 \$1sample;
#X obj -226 587 bng 15 250 50 0 empty empty empty 17 7 0 10 -262144
-1 -1;
#N canvas 0 0 1440 818 record 0;
#X msg 26 183 stop;
#X msg 90 233 1;
#X msg 38 234 0;
#X obj 47 290 metro 1;
#X obj 47 359 counter;
#X msg 80 326 bang;
#X floatatom 36 71 5 0 0 0 - - -, f 5;
#X obj -7 99 sel 1;
#X obj 47 105 sel 0;
#X obj 130 223 tabwrite~ \$0sample;
#X msg 379 264 0;
#X obj 379 291 s \$0RecordOnOff_r;
#X obj 184 379 del 100;
#X obj 180 348 bng 15 250 50 0 empty empty empty 17 7 0 10 -262144
-1 -1;
#X obj 300 409 s \$0loaded;
#X obj 148 140 r~ \$0sigrec;
#X obj 372 234 sel 60000;
#X obj 37 35 r \$0Record;
#X msg 91 151 bang;
#X connect 0 0 2 0;
#X connect 1 0 3 0;
#X connect 2 0 3 0;
#X connect 2 0 5 0;
#X connect 2 0 13 0;
#X connect 3 0 4 0;
#X connect 4 0 16 0;
#X connect 5 0 4 2;
#X connect 6 0 8 0;
#X connect 6 0 7 0;
#X connect 7 0 18 0;
#X connect 8 0 0 0;
#X connect 10 0 11 0;
#X connect 12 0 14 0;
#X connect 13 0 12 0;
#X connect 15 0 9 0;
#X connect 16 0 10 0;
#X connect 17 0 6 0;
#X connect 18 0 1 0;
#X connect 18 0 9 0;
#X restore 237 680 pd record;
#X obj -242 896 / 44100;
#X obj -260 927 s \$0lenSound;
#X obj -241 957 s \$0durSound;
#X obj -466 802 \$0;
#X msg -466 842 \; \$1sample normalize;
#X obj -441 488 bng 15 250 50 0 empty \$0write empty 17 7 0 10 -262144
-1 -1;
#X obj -441 525 getdir;
#X msg -441 552 symbol \$1;
#X obj -439 714 zl join;
#X obj -354 687 \$0;
#X msg -353 714 \$1sample;
#X obj -355 658 bng 15 250 50 0 empty empty empty 17 7 0 10 -262144
-1 -1;
#X obj -437 751 soundfiler;
#X obj -441 597 savepanel;
#X obj 1384 -85 phasor~;
#X obj 1290 -185 sig~;
#X obj 1415 501 tabread4~ \$0sample;
#X floatatom 1288 -287 5 0 0 0 - - -, f 5;
#X obj 1289 -224 /;
#X msg 1289 -247 1;
#X obj 1289 -266 t b f;
#X obj -385 -214 loadbang;
#X msg 1421 -120 0;
#X obj 1431 -198 r \$0restart;
#X obj 1410 628 *~;
#X obj 1466 627 line~;
#X obj 1470 555 r \$0play;
#X obj 1410 673 outlet~;
#X obj 722 -943 r toolssavebank;
#X obj 1151 -836 f;
#X obj 1096 -842 f;
#X obj 1006 -734 s toolssavelists;
#X obj 961 -922 f;
#X obj 719 -872 route;
#X obj 994 -1097 loadbang;
#X obj 1085 -1010 \$1;
#X obj 1082 -1053 del 5;
#X obj 961 -963 del;
#X obj -110 558 s \$0filename;
#X obj -250 491 r \$0filename_r;
#X obj 1280 -313 r \$0durSoundnew;
#X obj -290 985 s \$0loaded;
#X obj -288 857 t b b f f;
#X obj -191 183 r \$0read;
#X msg -221 214 0;
#X obj -204 264 s \$0RecordOnOff_r;
#X obj -90 174 r \$0write;
#X obj -241 731 sel 0;
#X msg -173 784 \; \$1sample const 0;
#X obj -177 756 \$0;
#X obj -324 107 r \$0RecordOnOff;
#X msg -326 172 0;
#X obj -326 138 sel 1;
#X obj -327 210 s \$0play_r;
#X obj -249 530 t s b;
#X obj 1208 -85 phasor~;
#X obj 1207 -40 +~ 1;
#X obj 1207 -63 *~ -1;
#X obj 1241 105 *~;
#X obj 1391 105 *~;
#X obj 1270 48 r \$0back;
#X obj 1284 96 abs;
#X obj 1283 69 - 1;
#X msg -222 -151 0;
#X obj -221 -120 s \$0back_r;
#X obj 1285 -865 r \$0filename;
#X obj 881 -719 s \$0filename_r;
#X obj 1258 -829 symbol;
#X obj 850 -765 list2symbol;
#X obj 1208 2 *~ 1;
#X obj 815 -52 inlet;
#X obj 621 -58 inlet;
#X obj 746 -55 inlet;
#X obj 686 -61 inlet;
#X obj 915 -699 s \$0filename;
#X obj 516 -70 inlet~;
#X obj 516 -11 s~ \$0sigrec;
#N canvas 768 10 613 525 beat 0;
#X obj 100 -556 gate 4;
#X obj 210 -674 + 1;
#X obj 210 -643 sel 1;
#X msg 218 -603 1;
#X obj 100 -505 + 16;
#X floatatom 112 -399 5 0 0 0 - - -, f 5;
#X obj 289 -642 sel 2;
#X obj 265 -485 spigot;
#X msg 358 -610 1;
#X msg 251 -605 0;
#X obj 264 -523 sel 15;
#X msg 264 -454 2;
#X obj 333 -486 spigot;
#X obj 331 -524 sel 31;
#X msg 332 -455 1;
#X obj 462 -648 sel 3;
#X obj 613 -652 sel 4;
#X obj 499 -487 spigot;
#X obj 497 -526 sel 47;
#X msg 498 -456 1;
#X obj 418 -492 spigot;
#X obj 416 -530 sel 31;
#X msg 427 -611 0;
#X msg 479 -612 1;
#X msg 417 -461 3;
#X msg 583 -617 0;
#X msg 541 -615 1;
#X obj 130 -504 + 32;
#X msg 296 -608 0;
#X obj 163 -505 + 48;
#X obj 663 -491 spigot;
#X msg 662 -460 1;
#X obj 574 -490 spigot;
#X obj 572 -528 sel 47;
#X msg 575 -453 4;
#X obj 661 -530 sel 63;
#X obj 173 -701 r \$0length;
#X obj 60 -638 inlet;
#X obj 95 -356 outlet;
#X obj 173 -669 f;
#X floatatom 286 -373 5 0 0 0 - - -, f 5;
#X obj 286 -327 s \$0takt;
#X obj 301 -700 loadbang;
#X obj 126 -639 sel 14;
#X connect 0 0 5 0;
#X connect 0 1 4 0;
#X connect 0 2 27 0;
#X connect 0 3 29 0;
#X connect 1 0 2 0;
#X connect 1 0 6 0;
#X connect 1 0 15 0;
#X connect 1 0 16 0;
#X connect 2 0 3 0;
#X connect 2 0 9 0;
#X connect 3 0 0 0;
#X connect 3 0 40 0;
#X connect 4 0 5 0;
#X connect 5 0 10 0;
#X connect 5 0 13 0;
#X connect 5 0 18 0;
#X connect 5 0 21 0;
#X connect 5 0 33 0;
#X connect 5 0 35 0;
#X connect 5 0 38 0;
#X connect 6 0 8 0;
#X connect 6 0 28 0;
#X connect 7 0 11 0;
#X connect 8 0 7 1;
#X connect 8 0 12 1;
#X connect 9 0 7 1;
#X connect 10 0 7 0;
#X connect 11 0 0 0;
#X connect 11 0 40 0;
#X connect 12 0 14 0;
#X connect 13 0 12 0;
#X connect 14 0 0 0;
#X connect 14 0 40 0;
#X connect 15 0 22 0;
#X connect 15 0 23 0;
#X connect 16 0 26 0;
#X connect 16 0 25 0;
#X connect 17 0 19 0;
#X connect 18 0 17 0;
#X connect 19 0 0 0;
#X connect 19 0 40 0;
#X connect 20 0 24 0;
#X connect 21 0 20 0;
#X connect 22 0 12 1;
#X connect 22 0 32 1;
#X connect 23 0 20 1;
#X connect 23 0 17 1;
#X connect 23 0 7 1;
#X connect 24 0 0 0;
#X connect 24 0 40 0;
#X connect 25 0 17 1;
#X connect 25 0 12 1;
#X connect 26 0 32 1;
#X connect 26 0 30 1;
#X connect 26 0 20 1;
#X connect 26 0 7 1;
#X connect 27 0 5 0;
#X connect 28 0 20 1;
#X connect 28 0 32 1;
#X connect 29 0 5 0;
#X connect 30 0 31 0;
#X connect 31 0 0 0;
#X connect 31 0 40 0;
#X connect 32 0 34 0;
#X connect 33 0 32 0;
#X connect 34 0 0 0;
#X connect 34 0 40 0;
#X connect 35 0 30 0;
#X connect 36 0 39 1;
#X connect 37 0 0 1;
#X connect 37 0 43 0;
#X connect 39 0 1 0;
#X connect 40 0 41 0;
#X connect 42 0 3 0;
#X connect 43 0 39 0;
#X restore 385 -583 pd beat;
#X obj 239 243 hradio 15 1 0 4 \$0length \$0length_r Takte 63 8 0 10
-191407 -260097 -262144 1;
#X obj 385 -626 route Pulse BPM;
#X obj 386 -678 inlet;
#X msg 483 -552 60000;
#X obj 485 -579 t b f;
#X obj 485 -525 /;
#X floatatom 484 -500 5 0 0 0 - - -, f 5;
#X obj 485 -472 * 4;
#X obj 509 -350 / 1000;
#X obj 509 -316 * 44100;
#X obj 1383 -10 *~;
#X obj 488 -437 f;
#X obj 1252 -28 r \$0lensound;
#X msg 1471 591 \$1 20;
#X obj 584 -321 s \$0durSoundnew;
#X obj 380 -468 s \$0restart;
#X text -121 639 hier flag -resize weg!!!;
#X obj 240 -410 r \$0RecordOnOff;
#X obj 223 -346 f;
#X obj 221 -316 s \$0Record;
#X floatatom 119 -420 5 0 0 0 - - -, f 5;
#X obj 385 -535 sel 0;
#X obj 407 -242 \$0;
#X obj 366 -263 t f b;
#X obj 362 -218 pack f f;
#X msg 362 -192 \; \$2sample resize \$1;
#X obj 119 -389 spigot;
#X msg 114 -318 0;
#X obj 115 -293 s \$0RecordOnOff_r;
#X obj 509 -228 s \$0lensound;
#X obj 444 -599 change;
#X obj 1528 -19 unsig~ 5;
#X obj 241 201 hsl 147 15 0 1 0 0 \$0pos_s \$0pos empty -2 -8 0 10
-228856 -260097 -1 0 1;
#X obj 1551 33 s \$0pos;
#X obj 116 -351 sel 15;
#X obj -86 -497 r \$0length;
#X obj -93 -453 sel 0 1 2 3;
#X msg -97 -424 15;
#X msg -69 -421 31;
#X msg -31 -417 47;
#X msg 2 -420 63;
#X obj -89 -476 f;
#X obj 45 -488 sel 0;
#X obj 430 -301 change;
#X obj 1508 -59 *~;
#X obj 1552 -62 *~;
#X obj 1531 -148 r \$0back;
#X obj 1545 -100 abs;
#X obj 1544 -127 - 1;
#X obj 239 121 cnv 15 150 80 empty empty empty 20 12 0 14 -233017 -66577
0;
#N canvas 0 0 450 300 (subpatch) 0;
#X array \$0sample 352800 float 4 black black;
#X coords 0 1 352799 -1 150 80 1;
#X restore 239 121 graph;
#X obj 339 217 nbx 5 14 -1e+037 1e+037 0 0 \$0takt_s \$0takt Takt -27
8 0 10 -228856 -1 -262144 1 256 0;
#X obj 192 252 cnv 15 2 2 empty \$0canvas_r Länge: 0 0 0 12 -33289
-262144 0;
#X obj -400 -64 s \$0length_r;
#X msg -403 -125 0;
#X obj -313 -123 s \$0play_r;
#X obj 55 -103 pack 0 0;
#X obj 103 -127 \$0;
#X obj 59 -157 t f b;
#X msg 56 -74 \; \$2canvas_r color \$1;
#X msg 26 -189 13;
#X obj 26 -216 sel 1;
#X obj 78 -211 sel 0;
#X msg 73 -186 12;
#X obj 743 -704 s \$0back_r;
#X obj 643 -698 s \$0length_r;
#X obj 722 -903 route looper;
#X obj 953 -822 symbol looper;
#X obj 971 -892 t b f b b b;
#X obj 1224 -896 r \$0back;
#X obj 1134 -899 r \$0length;
#X obj 721 -837 list split 2;
#X obj 725 -799 unpack f f;
#X msg -318 560 read -maxsize 1e+008 \$1;
#X msg -441 632 write -wave \$1;
#N canvas 577 285 450 300 window 0;
#X obj 24 -335 expr~ tanh($v1*$v2);
#X obj 24 -357 cos~;
#X obj 24 -376 *~ 0.5;
#X obj 24 -397 -~ 0.5;
#X obj 135 -366 sig~ 2;
#X obj 23 -427 inlet~;
#X obj 23 -306 outlet~;
#X msg 134 -396 250;
#X obj 186 -405 loadbang;
#X connect 0 0 6 0;
#X connect 1 0 0 0;
#X connect 2 0 1 0;
#X connect 3 0 2 0;
#X connect 4 0 0 1;
#X connect 5 0 3 0;
#X connect 7 0 4 0;
#X connect 8 0 7 0;
#X restore 1453 356 pd window;
#X obj 1414 546 *~;
#X msg -383 -93 3;
#X obj -152 -877 sel 0 4 8 12;
#X obj -157 -714 *~;
#X obj -156 -758 osc~ 440;
#X obj -155 -784 vline~;
#X msg -115 -836 880 \, 440 15;
#X obj -94 -732 vline~;
#X obj -162 -595 dac~;
#X msg -95 -765 1 5 \, 0 30 5;
#X msg -200 -834 1600 \, 440 20;
#X obj -152 -667 *~ 0.5;
#X obj -151 -628 *~;
#X obj -108 -645 r \$0metroon;
#X obj 405 247 tgl 15 0 \$0metroon \$0metroon_r klick 19 9 0 9 -162280
-260097 -262144 0 1;
#X obj -373 -149 del 25;
#X obj 268 306 bng 15 250 50 0 \$0restart \$0restart_r neustart -12
19 0 9 -191407 -260097 -262144;
#X obj 408 181 tgl 25 0 \$0back \$0back_r rückwärts -11 -9 0 9 -191407
-260097 -262144 0 1;
#X obj 488 -411 * 4;
#X obj 1006 -777 pack s f f f s;
#X msg -104 522 symbol \$1;
#X obj 874 -1055 r toolsdirectory;
#X obj 875 -1029 bng 15 250 50 0 empty empty empty 17 7 0 10 -262144
-1 -1;
#X obj 1002 -1012 clip 1 88;
#X obj -68 266 r toolsdirectory;
#X obj -11 342 \$1;
#X obj -10 369 ftos;
#X obj -56 413 pack s s;
#X obj -11 317 loadbang;
#X obj -52 475 t s b;
#X msg -26 444 symbol \$1Looper\$2loop.wav;
#X obj 804 -17 + 1;
#X connect 5 0 62 0;
#X connect 6 0 166 0;
#X connect 6 0 53 0;
#X connect 7 0 8 0;
#X connect 8 0 6 0;
#X connect 9 0 7 0;
#X connect 9 0 13 0;
#X connect 10 0 5 0;
#X connect 11 0 12 0;
#X connect 12 0 10 1;
#X connect 13 0 11 0;
#X connect 15 0 17 0;
#X connect 18 0 19 0;
#X connect 20 0 21 0;
#X connect 20 0 26 0;
#X connect 21 0 22 0;
#X connect 22 0 28 0;
#X connect 23 0 27 0;
#X connect 24 0 25 0;
#X connect 25 0 23 1;
#X connect 26 0 24 0;
#X connect 28 0 167 0;
#X connect 28 0 189 0;
#X connect 29 0 103 0;
#X connect 29 0 138 0;
#X connect 29 0 168 0;
#X connect 30 0 70 0;
#X connect 30 0 29 0;
#X connect 31 0 169 0;
#X connect 32 0 35 0;
#X connect 33 0 30 0;
#X connect 34 0 33 0;
#X connect 35 0 34 0;
#X connect 35 1 33 1;
#X connect 36 0 78 0;
#X connect 36 0 147 0;
#X connect 36 0 184 0;
#X connect 37 0 29 1;
#X connect 37 0 70 1;
#X connect 38 0 37 0;
#X connect 39 0 42 0;
#X connect 40 0 39 1;
#X connect 41 0 106 0;
#X connect 43 0 159 0;
#X connect 44 0 188 3;
#X connect 45 0 188 2;
#X connect 47 0 161 0;
#X connect 48 0 164 0;
#X connect 49 0 51 0;
#X connect 50 0 47 1;
#X connect 50 0 48 1;
#X connect 50 0 192 0;
#X connect 51 0 50 0;
#X connect 52 0 47 0;
#X connect 54 0 69 0;
#X connect 55 0 32 0;
#X connect 57 0 56 0;
#X connect 57 2 16 0;
#X connect 57 3 15 0;
#X connect 58 0 59 0;
#X connect 59 0 60 0;
#X connect 61 0 59 0;
#X connect 62 0 64 0;
#X connect 64 0 63 0;
#X connect 65 0 67 0;
#X connect 66 0 68 0;
#X connect 67 0 66 0;
#X connect 69 0 166 0;
#X connect 69 1 13 0;
#X connect 70 0 72 0;
#X connect 71 0 84 0;
#X connect 71 0 137 0;
#X connect 72 0 71 0;
#X connect 73 0 31 0;
#X connect 74 0 31 0;
#X connect 75 0 73 1;
#X connect 75 0 77 0;
#X connect 76 0 74 1;
#X connect 77 0 76 0;
#X connect 78 0 79 0;
#X connect 80 0 82 1;
#X connect 82 0 188 4;
#X connect 83 0 81 0;
#X connect 83 0 89 0;
#X connect 84 0 73 0;
#X connect 85 0 200 0;
#X connect 86 0 4 0;
#X connect 87 0 186 0;
#X connect 88 0 1 0;
#X connect 90 0 91 0;
#X connect 92 0 113 0;
#X connect 92 0 114 0;
#X connect 94 0 171 0;
#X connect 94 0 92 0;
#X connect 94 1 123 0;
#X connect 95 0 94 0;
#X connect 96 0 98 0;
#X connect 97 0 96 0;
#X connect 97 1 98 1;
#X connect 98 0 99 0;
#X connect 99 0 100 0;
#X connect 100 0 104 0;
#X connect 101 0 102 0;
#X connect 101 0 107 0;
#X connect 102 0 122 0;
#X connect 102 0 136 0;
#X connect 103 0 74 0;
#X connect 104 0 187 0;
#X connect 105 0 84 1;
#X connect 105 0 103 1;
#X connect 106 0 40 0;
#X connect 110 0 111 1;
#X connect 111 0 112 0;
#X connect 111 0 119 1;
#X connect 111 0 154 0;
#X connect 113 0 119 0;
#X connect 113 0 135 0;
#X connect 114 0 111 0;
#X connect 114 0 108 0;
#X connect 115 0 117 1;
#X connect 116 0 117 0;
#X connect 116 1 115 0;
#X connect 117 0 118 0;
#X connect 119 0 127 0;
#X connect 120 0 121 0;
#X connect 120 0 155 0;
#X connect 123 0 97 0;
#X connect 124 0 126 0;
#X connect 127 0 120 0;
#X connect 128 0 134 1;
#X connect 129 0 130 0;
#X connect 129 1 131 0;
#X connect 129 2 132 0;
#X connect 129 3 133 0;
#X connect 130 0 127 1;
#X connect 131 0 127 1;
#X connect 132 0 127 1;
#X connect 133 0 127 1;
#X connect 134 0 129 0;
#X connect 135 0 134 0;
#X connect 136 0 116 0;
#X connect 137 0 124 0;
#X connect 138 0 124 0;
#X connect 139 0 137 1;
#X connect 139 0 141 0;
#X connect 140 0 138 1;
#X connect 141 0 140 0;
#X connect 147 0 148 0;
#X connect 149 0 152 0;
#X connect 150 0 149 1;
#X connect 151 0 149 0;
#X connect 151 1 150 0;
#X connect 153 0 151 0;
#X connect 154 0 153 0;
#X connect 155 0 156 0;
#X connect 156 0 151 0;
#X connect 159 0 48 0;
#X connect 160 0 188 0;
#X connect 161 0 160 0;
#X connect 161 1 188 1;
#X connect 161 2 45 0;
#X connect 161 3 44 0;
#X connect 161 4 82 0;
#X connect 162 0 44 1;
#X connect 163 0 45 1;
#X connect 164 0 165 0;
#X connect 164 1 83 0;
#X connect 165 0 158 0;
#X connect 165 1 157 0;
#X connect 166 0 10 0;
#X connect 167 0 23 0;
#X connect 168 0 169 1;
#X connect 169 0 39 0;
#X connect 170 0 146 0;
#X connect 171 0 179 0;
#X connect 171 1 175 0;
#X connect 171 2 175 0;
#X connect 171 3 175 0;
#X connect 172 0 180 0;
#X connect 173 0 172 0;
#X connect 174 0 173 0;
#X connect 175 0 174 0;
#X connect 175 0 178 0;
#X connect 176 0 172 1;
#X connect 178 0 176 0;
#X connect 179 0 174 0;
#X connect 179 0 178 0;
#X connect 180 0 181 0;
#X connect 181 0 177 0;
#X connect 181 0 177 1;
#X connect 182 0 181 1;
#X connect 184 0 170 0;
#X connect 187 0 101 0;
#X connect 188 0 46 0;
#X connect 189 0 53 0;
#X connect 190 0 191 0;
#X connect 191 0 52 0;
#X connect 192 0 52 1;
#X connect 193 0 196 0;
#X connect 194 0 195 0;
#X connect 195 0 196 1;
#X connect 196 0 199 0;
#X connect 197 0 194 0;
#X connect 198 0 167 0;
#X connect 198 1 26 0;
#X connect 199 0 198 0;
#X connect 199 0 53 0;
#X connect 200 0 93 0;
#X coords 0 -1 1 1 358 170 1 100 100;
