#N canvas 0 0 1423 798 10;
#X obj 102 102 cnv 15 110 40 empty empty midiinput 17 7 0 14 -199729
-1 0;
#X obj 635 -4 notein;
#X floatatom 635 18 5 0 0 0 - - -, f 5;
#X floatatom 667 131 5 0 0 0 - - -, f 5;
#X obj 623 145 mtof;
#X obj 623 184 pack f f;
#X obj 623 241 outlet;
#N canvas 0 0 1440 818 tastatur 0;
#X obj 691 -354 t b f;
#X obj 691 -292 zl nth;
#X obj 753 -414 loadbang;
#X obj 691 -215 +;
#X obj 1339 -223 outlet;
#X obj 850 -107 outlet;
#X msg 336 -646 1;
#X msg 364 -646 2;
#X msg 393 -646 3;
#X msg 423 -646 4;
#X msg 452 -646 5;
#X msg 483 -646 6;
#X msg 513 -646 7;
#X msg 543 -646 8;
#X msg 570 -646 9;
#X msg 601 -646 10;
#X msg 631 -646 11;
#X msg 663 -646 12;
#X msg 695 -646 13;
#X floatatom 572 -546 5 0 0 0 - - -, f 5;
#X obj 350 -902 route 1 0;
#X obj 265 -824 bng 15 250 50 0 empty empty empty 17 7 0 10 -262144
-1 -1;
#X obj 290 -824 bng 15 250 50 0 empty empty empty 17 7 0 10 -262144
-1 -1;
#X obj 316 -824 bng 15 250 50 0 empty empty empty 17 7 0 10 -262144
-1 -1;
#X obj 341 -824 bng 15 250 50 0 empty empty empty 17 7 0 10 -262144
-1 -1;
#X obj 367 -824 bng 15 250 50 0 empty empty empty 17 7 0 10 -262144
-1 -1;
#X obj 393 -824 bng 15 250 50 0 empty empty empty 17 7 0 10 -262144
-1 -1;
#X obj 418 -824 bng 15 250 50 0 empty empty empty 17 7 0 10 -262144
-1 -1;
#X obj 444 -824 bng 15 250 50 0 empty empty empty 17 7 0 10 -262144
-1 -1;
#X obj 469 -824 bng 15 250 50 0 empty empty empty 17 7 0 10 -262144
-1 -1;
#X obj 495 -824 bng 15 250 50 0 empty empty empty 17 7 0 10 -262144
-1 -1;
#X obj 521 -824 bng 15 250 50 0 empty empty empty 17 7 0 10 -262144
-1 -1;
#X obj 546 -824 bng 15 250 50 0 empty empty empty 17 7 0 10 -262144
-1 -1;
#X obj 572 -824 bng 15 250 50 0 empty empty empty 17 7 0 10 -262144
-1 -1;
#X msg 691 -160 \$1 127;
#X msg 892 -781 1;
#X msg 921 -781 2;
#X msg 947 -781 3;
#X msg 976 -781 4;
#X msg 1004 -781 5;
#X msg 1033 -781 6;
#X msg 1060 -781 7;
#X msg 1087 -781 8;
#X msg 1114 -782 9;
#X msg 1143 -781 10;
#X msg 1176 -781 11;
#X msg 1209 -781 12;
#X msg 1238 -781 13;
#X floatatom 1065 -651 5 0 0 0 - - -, f 5;
#X obj 874 -907 bng 15 250 50 0 empty empty empty 17 7 0 10 -262144
-1 -1;
#X obj 896 -907 bng 15 250 50 0 empty empty empty 17 7 0 10 -262144
-1 -1;
#X obj 920 -907 bng 15 250 50 0 empty empty empty 17 7 0 10 -262144
-1 -1;
#X obj 942 -907 bng 15 250 50 0 empty empty empty 17 7 0 10 -262144
-1 -1;
#X obj 964 -907 bng 15 250 50 0 empty empty empty 17 7 0 10 -262144
-1 -1;
#X obj 986 -907 bng 15 250 50 0 empty empty empty 17 7 0 10 -262144
-1 -1;
#X obj 1010 -907 bng 15 250 50 0 empty empty empty 17 7 0 10 -262144
-1 -1;
#X obj 1032 -907 bng 15 250 50 0 empty empty empty 17 7 0 10 -262144
-1 -1;
#X obj 1053 -907 bng 15 250 50 0 empty empty empty 17 7 0 10 -262144
-1 -1;
#X obj 1076 -907 bng 15 250 50 0 empty empty empty 17 7 0 10 -262144
-1 -1;
#X obj 1100 -907 bng 15 250 50 0 empty empty empty 17 7 0 10 -262144
-1 -1;
#X obj 1122 -907 bng 15 250 50 0 empty empty empty 17 7 0 10 -262144
-1 -1;
#X obj 1146 -907 bng 15 250 50 0 empty empty empty 17 7 0 10 -262144
-1 -1;
#X obj 976 -357 t b f;
#X obj 976 -295 zl nth;
#X obj 977 -222 +;
#X msg 976 -163 \$1 0;
#X obj 265 -795 onebang;
#X obj 290 -774 onebang;
#X obj 316 -749 onebang;
#X obj 341 -728 onebang;
#X obj 367 -797 onebang;
#X obj 393 -776 onebang;
#X obj 418 -751 onebang;
#X obj 444 -730 onebang;
#X obj 469 -799 onebang;
#X obj 494 -775 onebang;
#X obj 521 -753 onebang;
#X obj 546 -732 onebang;
#X obj 572 -798 onebang;
#X obj 1339 -388 sum;
#X msg 1413 -616 0;
#X msg 1423 -606 0;
#X msg 1433 -596 0;
#X msg 1443 -586 0;
#X msg 1453 -576 0;
#X msg 1465 -568 0;
#X msg 1475 -558 0;
#X msg 1485 -548 0;
#X msg 1495 -538 0;
#X msg 1505 -528 0;
#X msg 1512 -523 0;
#X msg 1522 -513 0;
#X msg 1529 -508 0;
#X obj 1339 -359 == 0;
#X obj 1339 -330 sel 1;
#X msg 1339 -290 0;
#X obj 1513 -647 loadbang;
#X obj 1370 -513 bng 15 250 50 0 empty empty empty 17 7 0 10 -262144
-1 -1;
#X obj 605 -957 loadbang;
#X obj 1370 -493 del 1;
#X obj 216 -475 f;
#X obj 129 -479 f;
#X obj 216 -390 + 12;
#X obj 129 -384 - 12;
#X obj 281 -410 loadbang;
#X floatatom 129 -425 5 0 0 0 - - -, f 5;
#X floatatom 216 -429 5 0 0 0 - - -, f 5;
#X floatatom 176 -340 5 0 0 0 - - -, f 5;
#X obj 176 -258 s \$0oct;
#X obj 176 -286 change;
#X obj 144 -506 r \$0oct;
#X obj 231 -502 r \$0oct;
#X obj 216 -527 bng 15 250 50 0 empty empty empty 17 7 0 10 -262144
-1 -1;
#X obj 129 -528 bng 15 250 50 0 empty empty empty 17 7 0 10 -262144
-1 -1;
#X obj 130 -572 route 121 120;
#X obj 176 -315 clip -60 24;
#X obj 691 -188 mtof;
#X obj 977 -190 mtof;
#X msg 281 -382 -0;
#X obj 387 -984 keyup;
#X obj 321 -985 key;
#X msg 296 -951 1 \$1;
#X msg 383 -958 0 \$1;
#X floatatom 211 -956 5 0 0 0 - - -, f 5;
#X obj 350 -865 route 97 119 115 101 100 102 116 103 122 104 117 106
107 111 108 112 246 228;
#X obj 592 -822 bng 15 250 50 0 empty empty empty 17 7 0 10 -262144
-1 -1;
#X obj 617 -824 bng 15 250 50 0 empty empty empty 17 7 0 10 -262144
-1 -1;
#X obj 643 -824 bng 15 250 50 0 empty empty empty 17 7 0 10 -262144
-1 -1;
#X obj 668 -824 bng 15 250 50 0 empty empty empty 17 7 0 10 -262144
-1 -1;
#X obj 616 -753 onebang;
#X obj 643 -731 onebang;
#X obj 668 -799 onebang;
#X obj 592 -776 onebang;
#X obj 695 -823 bng 15 250 50 0 empty empty empty 17 7 0 10 -262144
-1 -1;
#X obj 695 -777 onebang;
#X msg 726 -646 14;
#X msg 757 -646 15;
#X msg 790 -647 16;
#X msg 822 -646 17;
#X msg 853 -646 18;
#X obj 911 -957 route 97 119 115 101 100 102 116 103 122 104 117 106
107 111 108 112 246 228;
#X obj 1170 -906 bng 15 250 50 0 empty empty empty 17 7 0 10 -262144
-1 -1;
#X obj 1193 -906 bng 15 250 50 0 empty empty empty 17 7 0 10 -262144
-1 -1;
#X obj 1217 -906 bng 15 250 50 0 empty empty empty 17 7 0 10 -262144
-1 -1;
#X obj 1239 -906 bng 15 250 50 0 empty empty empty 17 7 0 10 -262144
-1 -1;
#X obj 1263 -906 bng 15 250 50 0 empty empty empty 17 7 0 10 -262144
-1 -1;
#X msg 1270 -784 14;
#X msg 1301 -784 15;
#X msg 1334 -785 16;
#X msg 1366 -784 17;
#X msg 1397 -784 18;
#X obj 1341 -419 pack 0 0 0 0 0 0 0 0 0 0 0 0 0 0 0 0 0 0 0;
#X msg 1537 -502 0;
#X msg 1547 -492 0;
#X msg 1554 -487 0;
#X msg 1564 -477 0;
#X msg 1574 -467 0;
#X msg 753 -391 60 61 62 63 64 65 66 67 68 69 70 71 72 73 74 75 76
77;
#X connect 0 0 1 0;
#X connect 0 1 1 1;
#X connect 1 0 3 0;
#X connect 2 0 157 0;
#X connect 3 0 116 0;
#X connect 6 0 19 0;
#X connect 6 0 151 1;
#X connect 7 0 19 0;
#X connect 7 0 151 2;
#X connect 8 0 19 0;
#X connect 8 0 151 3;
#X connect 9 0 19 0;
#X connect 9 0 151 4;
#X connect 10 0 19 0;
#X connect 10 0 151 5;
#X connect 11 0 19 0;
#X connect 11 0 151 6;
#X connect 12 0 19 0;
#X connect 12 0 151 7;
#X connect 13 0 19 0;
#X connect 13 0 151 8;
#X connect 14 0 19 0;
#X connect 14 0 151 9;
#X connect 15 0 19 0;
#X connect 15 0 151 10;
#X connect 16 0 19 0;
#X connect 16 0 151 11;
#X connect 17 0 19 0;
#X connect 17 0 151 12;
#X connect 18 0 19 0;
#X connect 18 0 151 13;
#X connect 19 0 0 0;
#X connect 20 0 114 0;
#X connect 20 0 124 0;
#X connect 20 1 97 0;
#X connect 20 1 140 0;
#X connect 21 0 66 0;
#X connect 22 0 67 0;
#X connect 23 0 68 0;
#X connect 24 0 69 0;
#X connect 25 0 70 0;
#X connect 26 0 71 0;
#X connect 27 0 72 0;
#X connect 28 0 73 0;
#X connect 29 0 74 0;
#X connect 30 0 75 0;
#X connect 31 0 76 0;
#X connect 32 0 77 0;
#X connect 33 0 78 0;
#X connect 34 0 5 0;
#X connect 35 0 48 0;
#X connect 36 0 48 0;
#X connect 37 0 48 0;
#X connect 38 0 48 0;
#X connect 39 0 48 0;
#X connect 40 0 48 0;
#X connect 41 0 48 0;
#X connect 42 0 48 0;
#X connect 43 0 48 0;
#X connect 44 0 48 0;
#X connect 45 0 48 0;
#X connect 46 0 48 0;
#X connect 47 0 48 0;
#X connect 48 0 62 0;
#X connect 49 0 35 0;
#X connect 49 0 66 1;
#X connect 49 0 80 0;
#X connect 50 0 36 0;
#X connect 50 0 67 1;
#X connect 50 0 81 0;
#X connect 51 0 37 0;
#X connect 51 0 68 1;
#X connect 51 0 82 0;
#X connect 52 0 38 0;
#X connect 52 0 69 1;
#X connect 52 0 83 0;
#X connect 53 0 39 0;
#X connect 53 0 70 1;
#X connect 53 0 84 0;
#X connect 54 0 40 0;
#X connect 54 0 71 1;
#X connect 54 0 85 0;
#X connect 55 0 41 0;
#X connect 55 0 72 1;
#X connect 55 0 86 0;
#X connect 56 0 42 0;
#X connect 56 0 73 1;
#X connect 56 0 87 0;
#X connect 57 0 43 0;
#X connect 57 0 74 1;
#X connect 57 0 88 0;
#X connect 58 0 44 0;
#X connect 58 0 75 1;
#X connect 58 0 89 0;
#X connect 59 0 45 0;
#X connect 59 0 76 1;
#X connect 59 0 90 0;
#X connect 60 0 46 0;
#X connect 60 0 77 1;
#X connect 60 0 91 0;
#X connect 61 0 47 0;
#X connect 61 0 78 1;
#X connect 61 0 92 0;
#X connect 62 0 63 0;
#X connect 62 1 63 1;
#X connect 63 0 64 0;
#X connect 64 0 117 0;
#X connect 65 0 5 0;
#X connect 66 0 6 0;
#X connect 67 0 7 0;
#X connect 68 0 8 0;
#X connect 69 0 9 0;
#X connect 70 0 10 0;
#X connect 71 0 11 0;
#X connect 72 0 12 0;
#X connect 73 0 13 0;
#X connect 74 0 14 0;
#X connect 75 0 15 0;
#X connect 76 0 16 0;
#X connect 77 0 17 0;
#X connect 78 0 18 0;
#X connect 79 0 93 0;
#X connect 80 0 151 1;
#X connect 81 0 151 2;
#X connect 82 0 151 3;
#X connect 83 0 151 4;
#X connect 84 0 151 5;
#X connect 85 0 151 6;
#X connect 86 0 151 7;
#X connect 87 0 151 8;
#X connect 88 0 151 9;
#X connect 89 0 151 10;
#X connect 90 0 151 11;
#X connect 91 0 151 12;
#X connect 92 0 151 13;
#X connect 93 0 94 0;
#X connect 94 0 95 0;
#X connect 95 0 4 0;
#X connect 96 0 80 0;
#X connect 96 0 81 0;
#X connect 96 0 82 0;
#X connect 96 0 83 0;
#X connect 96 0 84 0;
#X connect 96 0 85 0;
#X connect 96 0 86 0;
#X connect 96 0 87 0;
#X connect 96 0 88 0;
#X connect 96 0 89 0;
#X connect 96 0 90 0;
#X connect 96 0 91 0;
#X connect 96 0 92 0;
#X connect 96 0 152 0;
#X connect 96 0 156 0;
#X connect 96 0 155 0;
#X connect 96 0 154 0;
#X connect 96 0 153 0;
#X connect 97 0 99 0;
#X connect 98 0 66 1;
#X connect 98 0 67 1;
#X connect 98 0 68 1;
#X connect 98 0 69 1;
#X connect 98 0 70 1;
#X connect 98 0 71 1;
#X connect 98 0 72 1;
#X connect 98 0 73 1;
#X connect 98 0 74 1;
#X connect 98 0 75 1;
#X connect 98 0 76 1;
#X connect 98 0 77 1;
#X connect 98 0 78 1;
#X connect 98 0 132 1;
#X connect 98 0 129 1;
#X connect 98 0 130 1;
#X connect 98 0 131 1;
#X connect 98 0 134 1;
#X connect 99 0 151 0;
#X connect 100 0 106 0;
#X connect 101 0 105 0;
#X connect 102 0 107 0;
#X connect 103 0 107 0;
#X connect 104 0 118 0;
#X connect 105 0 103 0;
#X connect 106 0 102 0;
#X connect 107 0 115 0;
#X connect 109 0 108 0;
#X connect 109 0 3 1;
#X connect 109 0 64 1;
#X connect 110 0 101 1;
#X connect 111 0 100 1;
#X connect 112 0 100 0;
#X connect 113 0 101 0;
#X connect 114 0 113 0;
#X connect 114 1 112 0;
#X connect 115 0 109 0;
#X connect 116 0 34 0;
#X connect 117 0 65 0;
#X connect 118 0 107 0;
#X connect 119 0 122 0;
#X connect 120 0 121 0;
#X connect 120 0 123 0;
#X connect 121 0 20 0;
#X connect 122 0 20 0;
#X connect 124 0 21 0;
#X connect 124 1 22 0;
#X connect 124 2 23 0;
#X connect 124 3 24 0;
#X connect 124 4 25 0;
#X connect 124 5 26 0;
#X connect 124 6 27 0;
#X connect 124 7 28 0;
#X connect 124 8 29 0;
#X connect 124 9 30 0;
#X connect 124 10 31 0;
#X connect 124 11 32 0;
#X connect 124 12 33 0;
#X connect 124 13 125 0;
#X connect 124 14 126 0;
#X connect 124 15 127 0;
#X connect 124 16 128 0;
#X connect 124 17 133 0;
#X connect 125 0 132 0;
#X connect 126 0 129 0;
#X connect 127 0 130 0;
#X connect 128 0 131 0;
#X connect 129 0 136 0;
#X connect 130 0 137 0;
#X connect 131 0 138 0;
#X connect 132 0 135 0;
#X connect 133 0 134 0;
#X connect 134 0 139 0;
#X connect 135 0 19 0;
#X connect 135 0 151 14;
#X connect 136 0 19 0;
#X connect 136 0 151 15;
#X connect 137 0 19 0;
#X connect 137 0 151 16;
#X connect 138 0 19 0;
#X connect 138 0 151 17;
#X connect 139 0 19 0;
#X connect 139 0 151 18;
#X connect 140 0 49 0;
#X connect 140 1 50 0;
#X connect 140 2 51 0;
#X connect 140 3 52 0;
#X connect 140 4 53 0;
#X connect 140 5 54 0;
#X connect 140 6 55 0;
#X connect 140 7 56 0;
#X connect 140 8 57 0;
#X connect 140 9 58 0;
#X connect 140 10 59 0;
#X connect 140 11 60 0;
#X connect 140 12 61 0;
#X connect 140 13 141 0;
#X connect 140 14 142 0;
#X connect 140 15 143 0;
#X connect 140 16 144 0;
#X connect 140 17 145 0;
#X connect 141 0 146 0;
#X connect 141 0 132 1;
#X connect 141 0 152 0;
#X connect 142 0 147 0;
#X connect 142 0 129 1;
#X connect 142 0 153 0;
#X connect 143 0 148 0;
#X connect 143 0 130 1;
#X connect 143 0 154 0;
#X connect 144 0 149 0;
#X connect 144 0 131 1;
#X connect 144 0 155 0;
#X connect 145 0 150 0;
#X connect 145 0 134 1;
#X connect 145 0 156 0;
#X connect 146 0 48 0;
#X connect 147 0 48 0;
#X connect 148 0 48 0;
#X connect 149 0 48 0;
#X connect 150 0 48 0;
#X connect 151 0 79 0;
#X connect 152 0 151 14;
#X connect 153 0 151 15;
#X connect 154 0 151 16;
#X connect 155 0 151 17;
#X connect 156 0 151 18;
#X connect 157 0 1 0;
#X connect 157 0 63 0;
#X restore 825 91 pd tastatur;
#X msg 862 144 stop \$1;
#X obj 119 127 tgl 9 0 \$0blockpads \$0blockpads_r block\ pads 12 3
0 9 -262144 -260097 -1 1 1;
#X obj 444 108 spigot;
#X obj 495 107 spigot;
#X obj 289 55 loadbang;
#X msg 301 99 0;
#X obj 291 182 s \$0blockpads_r;
#X obj 401 34 abs;
#X obj 398 10 - 1;
#X obj 423 -21 r \$0blockpads;
#X obj 498 155 moses 43.5;
#X connect 1 0 2 0;
#X connect 1 1 3 0;
#X connect 2 0 11 0;
#X connect 2 0 10 0;
#X connect 3 0 5 1;
#X connect 4 0 5 0;
#X connect 5 0 6 0;
#X connect 7 0 6 0;
#X connect 7 1 8 0;
#X connect 8 0 6 0;
#X connect 10 0 4 0;
#X connect 11 0 18 0;
#X connect 12 0 13 0;
#X connect 13 0 14 0;
#X connect 15 0 10 1;
#X connect 16 0 15 0;
#X connect 17 0 16 0;
#X connect 17 0 11 1;
#X connect 18 1 4 0;
#X coords 0 -1 1 1 114 44 1 100 100;
