#N canvas 0 0 1423 798 10;
#X obj 101 102 cnv 15 222 170 empty empty modurand 5 148 0 21 -33289
-262144 0;
#X floatatom -88 116 5 0 0 0 - - -, f 5;
#X obj -126 571 outlet;
#X obj 189 221 nbx 4 14 -1e+037 1e+037 0 0 \$0freqshow_s \$0freqshow
empty 0 -8 0 11 -99865 -260097 -260097 1.0002 256 0;
#X obj -87 74 r \$0Freq;
#X obj -90 415 r \$0center;
#X obj 21 340 r \$0ampli;
#X obj 83 564 tabwrite~ \$0array1;
#X obj 159 123 cnv 15 100 70 empty empty empty 100 12 0 14 -233017
-66577 0;
#N canvas 0 0 450 300 (subpatch) 0;
#X array \$0array1 1378 float 4 black black;
#X coords 0 128 1377 -1 100 70 1;
#X restore 159 123 graph;
#X obj 85 430 loadbang;
#X obj 160 200 hsl 100 20 0.01 127 1 0 \$0Freq \$0Freq_r Frequenz 19
10 0 13 -191407 -260097 -262144 4825 1;
#X obj 129 124 vsl 20 70 0 127 0 0 \$0center \$0center_r empty 0 -9
0 10 -191407 -260097 -1 3450 1;
#X obj 269 124 vsl 20 70 0 127 0 0 \$0ampli \$0ampli_r empty 0 -9 0
10 -191407 -260097 -1 3450 1;
#X msg -22 200 seed \$1;
#X obj -22 147 loadbang;
#X obj -22 176 \$0;
#X obj -141 242 metro 5;
#X msg -88 161 1000;
#X obj -88 141 t b f;
#X obj -85 189 /;
#X floatatom -86 213 5 0 0 0 - - -, f 5;
#X obj -157 199 loadbang;
#X obj -210 227 tgl 15 0 empty empty empty 17 7 0 10 -262144 -1 -1
1 1;
#X obj -130 392 *;
#X obj -128 447 +;
#X obj -139 314 random 1000;
#X obj -128 472 clip 0 127;
#X obj -127 542 line 0 50;
#X obj -137 360 - 1;
#X obj -137 338 / 500;
#X obj -38 117 s \$0freqshow;
#X obj 20 362 / 1;
#X obj 26 521 sig~;
#X obj -238 177 change;
#X msg -239 205 1;
#X obj 252 325 t b f;
#X obj 255 373 /;
#X floatatom 259 398 5 0 0 0 - - -, f 5;
#X msg 252 345 127;
#X obj -127 504 pack 0 0;
#X obj 262 416 clip 0 100;
#X obj 86 472 metro 50;
#X obj 457 26 loadbang;
#X msg 459 61 1;
#X obj 460 90 s \$0Freq_r;
#X obj 624 93 s \$0center_r;
#X obj 544 121 s \$0ampli_r;
#X msg 545 96 63.5;
#X msg 620 62 63.5;
#X obj 622 19 r \$0centermiddle;
#X obj 547 -6 r \$0amplimiddle;
#X obj 107 197 nbx 4 14 -1e+037 1e+037 0 0 \$0centershow_s \$0centershow
Zentrum 0 21 0 10 -99865 -260097 -262144 63.5 256 0;
#X obj 269 197 nbx 4 14 -1e+037 1e+037 0 0 \$0amplishow_s \$0amplishow
Amplitude -4 21 0 10 -99865 -260097 -262144 63.5 256 0;
#X obj 131 106 bng 15 250 50 0 \$0centermiddle \$0centermiddle_r empty
17 7 0 10 -191407 -260097 -1;
#X obj 271 106 bng 15 250 50 0 \$0amplimiddle \$0amplimiddle_r empty
17 7 0 10 -191407 -260097 -1;
#X obj -42 464 s \$0centershow;
#X obj 48 386 s \$0amplishow;
#X obj 539 361 r toolssavebank;
#X obj 749 278 r toolssavebang;
#X obj 968 468 f;
#X obj 913 462 f;
#X obj 823 570 s toolssavelists;
#X obj 778 382 f;
#X obj 541 479 route;
#X obj 899 223 loadbang;
#X obj 900 279 \$1;
#X obj 899 251 del 5;
#X obj 778 341 del;
#X obj 1040 496 f;
#X obj 951 405 r \$0Freq;
#X obj 1041 408 r \$0ampli;
#X obj 1152 412 r \$0center;
#X obj 479 574 s \$0Freq_r;
#X obj 540 599 s \$0ampli_r;
#X obj 609 572 s \$0center_r;
#X obj 541 449 route modrand;
#X obj 770 482 symbol modrand;
#X obj 158 43 inlet;
#X obj 168 53 inlet;
#X obj 178 63 inlet;
#X obj 249 237 hsl 60 15 0.127 127 1 0 \$0line \$0line_r Übergang
9 5 0 10 -191407 -260097 -262144 1326 1;
#X obj 250 252 nbx 5 14 -1e+037 1e+037 0 0 \$0lineshow_s \$0lineshow
ms 57 6 0 10 -99865 -260097 -262144 4.72227 256 0;
#X obj 326 49 inlet;
#X obj 330 332 r \$0line;
#X obj 338 367 / 127;
#X obj 346 431 t b f;
#X floatatom 288 452 5 0 0 0 - - -, f 5;
#X obj 288 473 *;
#X floatatom 285 499 5 0 0 0 - - -, f 5;
#X obj 284 548 s \$0lineshow;
#X obj 704 171 s \$0line_r;
#X msg 652 122 0.6;
#X obj 1096 519 f;
#X obj 1123 491 r \$0line;
#X obj 777 431 t b f b b b b;
#X obj 823 526 pack s f f f f f;
#X obj 543 509 unpack f f f f;
#X obj 629 538 s \$0line_r;
#X connect 1 0 19 0;
#X connect 1 0 31 0;
#X connect 1 0 36 0;
#X connect 4 0 1 0;
#X connect 5 0 25 1;
#X connect 5 0 56 0;
#X connect 6 0 32 0;
#X connect 10 0 42 0;
#X connect 14 0 26 0;
#X connect 15 0 16 0;
#X connect 16 0 14 0;
#X connect 17 0 26 0;
#X connect 18 0 20 0;
#X connect 19 0 18 0;
#X connect 19 1 20 1;
#X connect 20 0 21 0;
#X connect 21 0 17 1;
#X connect 21 0 34 0;
#X connect 21 0 87 0;
#X connect 22 0 17 0;
#X connect 23 0 17 0;
#X connect 24 0 25 0;
#X connect 25 0 27 0;
#X connect 26 0 30 0;
#X connect 27 0 40 0;
#X connect 28 0 2 0;
#X connect 28 0 33 0;
#X connect 29 0 24 0;
#X connect 30 0 29 0;
#X connect 32 0 24 1;
#X connect 32 0 57 0;
#X connect 33 0 7 0;
#X connect 34 0 35 0;
#X connect 35 0 23 0;
#X connect 36 0 39 0;
#X connect 36 1 37 1;
#X connect 37 0 38 0;
#X connect 38 0 41 0;
#X connect 39 0 37 0;
#X connect 40 0 28 0;
#X connect 42 0 7 0;
#X connect 43 0 44 0;
#X connect 43 0 48 0;
#X connect 43 0 49 0;
#X connect 43 0 92 0;
#X connect 44 0 45 0;
#X connect 48 0 47 0;
#X connect 49 0 46 0;
#X connect 50 0 49 0;
#X connect 51 0 48 0;
#X connect 58 0 76 0;
#X connect 59 0 68 0;
#X connect 60 0 96 3;
#X connect 61 0 96 2;
#X connect 63 0 95 0;
#X connect 64 0 97 0;
#X connect 65 0 67 0;
#X connect 66 0 63 1;
#X connect 66 0 64 1;
#X connect 66 0 68 1;
#X connect 67 0 66 0;
#X connect 68 0 63 0;
#X connect 69 0 96 4;
#X connect 70 0 61 1;
#X connect 71 0 60 1;
#X connect 72 0 69 1;
#X connect 76 0 64 0;
#X connect 77 0 96 0;
#X connect 78 0 11 0;
#X connect 79 0 12 0;
#X connect 80 0 13 0;
#X connect 83 0 81 0;
#X connect 84 0 85 0;
#X connect 85 0 86 0;
#X connect 86 0 87 0;
#X connect 86 1 88 1;
#X connect 87 0 88 0;
#X connect 88 0 89 0;
#X connect 89 0 90 0;
#X connect 89 0 40 1;
#X connect 92 0 91 0;
#X connect 93 0 96 5;
#X connect 94 0 93 1;
#X connect 95 0 77 0;
#X connect 95 1 96 1;
#X connect 95 2 61 0;
#X connect 95 3 60 0;
#X connect 95 4 69 0;
#X connect 95 5 93 0;
#X connect 96 0 62 0;
#X connect 97 0 73 0;
#X connect 97 1 74 0;
#X connect 97 2 75 0;
#X connect 97 3 98 0;
#X coords 0 -1 1 1 224 174 1 100 100;
