#N canvas 490 153 450 519 10;
#X obj 362 75 pink~;
#X obj 290 76 noise~;
#X obj 290 133 *~;
#X obj 363 139 *~;
#X obj 339 -78 r \$0style;
#X obj 340 -45 sel 0 1;
#X obj 223 -68 loadbang;
#X msg 318 -20 1;
#X msg 355 -18 0;
#X msg 353 2 1;
#X msg 390 4 0;
#X obj 378 114 line~;
#X obj 304 112 line~;
#X msg 317 41 \$1 20;
#X msg 388 48 \$1 20;
#X obj 395 198 line~;
#X obj 420 147 / 127;
#X msg 417 176 \$1 15;
#X obj 429 102 r \$0vol;
#X obj 312 191 *~;
#X obj 315 267 outlet~;
#X obj 102 102 cnv 15 130 120 empty empty Noise 2 12 0 24 -66577 -262144
0;
#X obj 108 146 vradio 30 1 0 2 \$0style \$0style_r empty 0 -8 0 10
-128992 -260097 -1 0;
#X obj 143 162 cnv 10 2 2 empty empty white 0 0 0 14 -66577 -262144
0;
#X obj 143 191 cnv 10 2 2 empty empty pink 0 0 0 14 -66577 -262144
0;
#X obj 200 153 vsl 20 50 0 127 0 0 \$0vol \$0vol_r Vol 0 -9 0 12 -162280
-260097 -262144 4900 1;
#X obj 216 -3 s \$0style_r;
#X msg 218 -27 0;
#X msg 191 -27 127;
#X obj 165 19 s \$0vol_r;
#X obj 598 196 r toolssavebank;
#X obj 702 62 r toolssavebang;
#X obj 866 246 f;
#X obj 776 354 s toolssavelists;
#X obj 731 166 f;
#X obj 601 261 route;
#X obj 852 7 loadbang;
#X obj 853 63 \$1;
#X obj 852 35 del 5;
#X obj 731 125 del;
#X obj 926 269 f;
#X obj 777 311 pack s f f f;
#X obj 729 215 t b f b b;
#X obj 602 299 unpack f f;
#X obj 601 231 route noise;
#X obj 723 266 symbol noise;
#X obj 598 357 s \$0style_r;
#X obj 881 206 r \$0style;
#X obj 651 330 s \$0vol_r;
#X obj 946 238 r \$0vol;
#X obj 523 66 inlet;
#X connect 0 0 3 0;
#X connect 1 0 2 0;
#X connect 2 0 19 0;
#X connect 3 0 19 0;
#X connect 4 0 5 0;
#X connect 5 0 7 0;
#X connect 5 0 8 0;
#X connect 5 1 9 0;
#X connect 5 1 10 0;
#X connect 6 0 27 0;
#X connect 6 0 28 0;
#X connect 7 0 13 0;
#X connect 8 0 14 0;
#X connect 9 0 14 0;
#X connect 10 0 13 0;
#X connect 11 0 3 1;
#X connect 12 0 2 1;
#X connect 13 0 12 0;
#X connect 14 0 11 0;
#X connect 15 0 19 1;
#X connect 16 0 17 0;
#X connect 17 0 15 0;
#X connect 18 0 16 0;
#X connect 19 0 20 0;
#X connect 27 0 26 0;
#X connect 28 0 29 0;
#X connect 30 0 44 0;
#X connect 31 0 39 0;
#X connect 32 0 41 2;
#X connect 34 0 42 0;
#X connect 35 0 43 0;
#X connect 36 0 38 0;
#X connect 37 0 34 1;
#X connect 37 0 35 1;
#X connect 37 0 39 1;
#X connect 38 0 37 0;
#X connect 39 0 34 0;
#X connect 40 0 41 3;
#X connect 41 0 33 0;
#X connect 42 0 45 0;
#X connect 42 1 41 1;
#X connect 42 2 32 0;
#X connect 42 3 40 0;
#X connect 43 0 46 0;
#X connect 43 1 48 0;
#X connect 44 0 35 0;
#X connect 45 0 41 0;
#X connect 47 0 32 1;
#X connect 49 0 40 1;
#X connect 50 0 25 0;
#X coords 0 -1 1 1 134 124 1 100 100;
