#N canvas 0 0 612 500 10;
#X obj -158 37 inlet;
#X obj -37 78 + 1;
#X obj -158 114 f;
#X obj -158 178 outlet;
#X obj -42 37 r \$0number;
#X obj -40 132 s \$0shownumber;
#X obj 101 102 cnv 15 88 48 empty empty Nummer 22 10 0 12 -99865 -260097
0;
#X obj 105 120 hradio 10 1 0 8 \$0number \$0number_ctl empty 0 -8 0
10 -228856 -260097 -1 0;
#X obj 118 133 nbx 5 14 -1e+037 1e+037 0 0 \$0shownumber_s \$0shownumber
empty 0 -8 0 10 -228856 -1 -1 1 256;
#X obj 138 231 loadbang;
#X obj 138 293 s \$0number_ctl;
#X msg 139 269 0;
#X obj 109 444 r toolssavebank;
#X obj 319 361 r toolssavebang;
#X obj 483 545 f;
#X obj 393 653 s toolssavelists;
#X obj 348 465 f;
#X obj 111 562 route;
#X obj 469 306 loadbang;
#X obj 470 362 \$1;
#X obj 469 334 del 5;
#X obj 348 424 del;
#X obj 346 514 t b f b b;
#X obj 111 532 route nummer;
#X obj 340 565 symbol nummer;
#X obj 393 610 pack s f f;
#X obj 498 505 r \$0number;
#X obj 110 609 s \$0number_ctl;
#X obj -159 73 bng 15 250 50 0 empty empty empty 17 7 0 10 -262144
-1 -1;
#X connect 0 0 28 0;
#X connect 1 0 2 1;
#X connect 1 0 5 0;
#X connect 2 0 3 0;
#X connect 4 0 1 0;
#X connect 9 0 11 0;
#X connect 11 0 10 0;
#X connect 12 0 23 0;
#X connect 13 0 21 0;
#X connect 14 0 25 2;
#X connect 16 0 22 0;
#X connect 17 0 27 0;
#X connect 18 0 20 0;
#X connect 19 0 16 1;
#X connect 19 0 17 1;
#X connect 19 0 21 1;
#X connect 20 0 19 0;
#X connect 21 0 16 0;
#X connect 22 0 24 0;
#X connect 22 1 25 1;
#X connect 22 2 14 0;
#X connect 23 0 17 0;
#X connect 24 0 25 0;
#X connect 25 0 15 0;
#X connect 26 0 14 1;
#X connect 28 0 2 0;
#X coords 0 -1 1 1 90 52 1 100 100;
