#N canvas 0 0 1440 818 10;
#X obj 101 102 cnv 15 140 55 empty empty oktave 4 10 0 16 -199729 -1
0;
#X obj 103 122 hradio 15 1 0 9 \$0oct \$0oct_r empty 0 -8 0 9 -262144
-260097 -1 4;
#X obj 292 43 loadbang;
#X obj 290 91 s \$0oct_r;
#X msg 297 70 4;
#X obj -204 -42 r \$0oct;
#X obj -418 -23 inlet;
#X obj -418 8 route stop;
#X msg -418 57 stop \$1;
#X obj -359 82 *;
#X msg -111 82 1;
#X msg -77 79 2;
#X msg -40 82 4;
#X msg -2 82 8;
#X msg 28 84 16;
#X obj -202 -13 sel 0 1 2 3 4 5 6 7 8;
#X msg -147 82 0.5;
#X floatatom -104 117 5 0 0 0 - - -;
#X obj -415 184 outlet;
#X msg -186 84 0.25;
#X msg -231 83 0.125;
#X msg -279 79 0.0625;
#X obj 104 145 cnv 5 2 2 empty empty -4 -2 2 0 12 -191407 -66577 0
;
#X obj 118 145 cnv 5 2 2 empty empty -3 -2 2 0 12 -191407 -66577 0
;
#X obj 133 145 cnv 5 2 2 empty empty -2 -2 2 0 12 -191407 -66577 0
;
#X obj 148 145 cnv 5 2 2 empty empty -1 -2 2 0 12 -191407 -66577 0
;
#X obj 184 145 cnv 5 2 2 empty empty 1 -2 2 0 12 -191407 -66577 0;
#X obj 199 145 cnv 5 2 2 empty empty 2 -2 2 0 12 -191407 -66577 0;
#X obj 213 145 cnv 5 2 2 empty empty 3 -2 2 0 12 -191407 -66577 0;
#X obj 228 145 cnv 5 2 2 empty empty 4 -2 2 0 12 -191407 -66577 0;
#X obj 168 145 cnv 5 2 2 empty empty 0 -2 2 0 14 -191407 -66577 0;
#X obj 857 401 r toolssavebank;
#X obj 1067 318 r toolssavebang;
#X obj 1231 502 f;
#X obj 1141 610 s toolssavelists;
#X obj 1096 422 f;
#X obj 859 519 route;
#X obj 1217 263 loadbang;
#X obj 1218 319 \$1;
#X obj 1217 291 del 5;
#X obj 1096 381 del;
#X obj 1092 471 t b f b;
#X obj 1141 567 pack s f f;
#X obj 1246 462 r \$0oct;
#X obj 852 606 s \$0oct_r;
#X obj 859 489 route oktave;
#X obj 1088 520 symbol oktave;
#X obj 205 28 inlet;
#X obj -101 146 change;
#X obj -103 176 bng 15 250 50 0 empty empty empty 17 7 0 10 -262144
-1 -1;
#X msg -180 211 0;
#X obj -361 34 unpack f f;
#X obj -360 124 pack f 127;
#X connect 2 0 4 0;
#X connect 4 0 3 0;
#X connect 5 0 15 0;
#X connect 6 0 7 0;
#X connect 7 0 8 0;
#X connect 7 1 51 0;
#X connect 8 0 18 0;
#X connect 9 0 52 0;
#X connect 10 0 17 0;
#X connect 11 0 17 0;
#X connect 12 0 17 0;
#X connect 13 0 17 0;
#X connect 14 0 17 0;
#X connect 15 0 21 0;
#X connect 15 1 20 0;
#X connect 15 2 19 0;
#X connect 15 3 16 0;
#X connect 15 4 10 0;
#X connect 15 5 11 0;
#X connect 15 6 12 0;
#X connect 15 7 13 0;
#X connect 15 8 14 0;
#X connect 16 0 17 0;
#X connect 17 0 9 1;
#X connect 17 0 48 0;
#X connect 19 0 17 0;
#X connect 20 0 17 0;
#X connect 21 0 17 0;
#X connect 31 0 45 0;
#X connect 32 0 40 0;
#X connect 33 0 42 2;
#X connect 35 0 41 0;
#X connect 36 0 44 0;
#X connect 37 0 39 0;
#X connect 38 0 35 1;
#X connect 38 0 36 1;
#X connect 38 0 40 1;
#X connect 39 0 38 0;
#X connect 40 0 35 0;
#X connect 41 0 46 0;
#X connect 41 1 42 1;
#X connect 41 2 33 0;
#X connect 42 0 34 0;
#X connect 43 0 33 1;
#X connect 45 0 36 0;
#X connect 46 0 42 0;
#X connect 47 0 1 0;
#X connect 48 0 49 0;
#X connect 49 0 50 0;
#X connect 50 0 8 0;
#X connect 51 0 9 0;
#X connect 51 1 52 1;
#X connect 52 0 18 0;
#X coords 0 -1 1 1 142 59 1 100 100;
