#N canvas 0 0 1423 798 10;
#X obj 101 102 cnv 15 84 86 empty empty Output 4 8 0 16 -233017 -1
0;
#X obj 105 131 vsl 20 50 0 127 0 0 \$0midivol \$0midivol_r empty 0
-9 0 10 -99865 -260097 -1 4900 1;
#X obj 126 170 nbx 3 14 -1e+037 1e+037 0 0 \$0show_s \$0show empty
0 -8 0 10 -262144 -1 -1 1 256 0;
#X obj 245 133 *~;
#X obj 363 119 line~;
#X msg 363 88 \$1 15;
#X obj 368 28 r \$0midivol;
#X obj 417 68 s \$0show;
#X obj 565 157 s \$0midivol_r;
#X obj 565 98 loadbang;
#X obj 229 50 inlet~;
#X obj 278 229 dac~;
#X msg 565 132 127;
#X obj 359 56 / 127;
#X obj 167 174 tgl 10 0 \$0DSP \$0DSP_r DSP -1 -5 0 9 -99865 -260097
-1 1 1;
#X obj 500 150 r \$0DSP;
#X obj 502 178 sel 0 1;
#X msg 492 222 \; pd dsp 0;
#X msg 535 275 \; pd dsp 1;
#X obj 616 196 s \$0DSP_r;
#X msg 607 127 1;
#X obj 289 46 inlet~;
#X obj 304 143 *~;
#X obj 509 -208 r toolssavebank;
#X obj 720 -344 r toolssavebang;
#X obj 884 -160 f;
#X obj 794 -52 s toolssavelists;
#X obj 749 -240 f;
#X obj 512 -143 route;
#X obj 870 -399 loadbang;
#X obj 871 -343 \$1;
#X obj 870 -371 del 5;
#X obj 749 -281 del;
#X obj 747 -191 t b f b b;
#X obj 794 -95 pack s f f;
#X obj 512 -173 route output;
#X obj 509 -47 s \$0midivol_r;
#X obj 899 -200 r \$0midivol;
#X obj 741 -140 symbol output;
#X obj 261 189 *~ 0.25;
#X obj 310 191 *~ 0.25;
#X obj 490 8 inlet;
#X obj 261 301 throw~ signalleft;
#X obj 310 321 throw~ signalright;
#X obj 138 140 tgl 20 0 \$0rec \$0rec_r record -7 -6 0 10 -99865 -258113
-1 1 1;
#X obj 688 188 s \$0rec_r;
#X obj 311 269 *~;
#X obj 379 241 line~;
#X obj 379 191 r \$0rec;
#X msg 379 218 \$1 30;
#X obj 262 270 *~;
#X obj 73 249 env~;
#X floatatom 73 300 5 0 0 0 - - -, f 5;
#X obj 75 278 > 97;
#X obj 168 106 bng 14 69 30 0 \$0clip_s \$0clip empty -3 22 0 9 -128992
-258113 -258113;
#X obj 72 339 tgl 15 0 empty empty empty 17 7 0 10 -262144 -1 -1 0
1;
#X obj 73 319 change;
#X obj 77 360 metro 100;
#X obj 81 383 s \$0clip;
#X obj 146 245 env~;
#X floatatom 146 296 5 0 0 0 - - -, f 5;
#X obj 148 274 > 97;
#X obj 145 335 tgl 15 0 empty empty empty 17 7 0 10 -262144 -1 -1 0
1;
#X obj 146 315 change;
#X obj 150 356 metro 100;
#X obj 154 379 s \$0clip;
#X obj 783 -301 clip 1 133;
#X connect 3 0 39 0;
#X connect 4 0 3 1;
#X connect 4 0 22 1;
#X connect 5 0 4 0;
#X connect 6 0 13 0;
#X connect 9 0 12 0;
#X connect 9 0 20 0;
#X connect 10 0 3 0;
#X connect 12 0 8 0;
#X connect 13 0 5 0;
#X connect 13 0 7 0;
#X connect 15 0 16 0;
#X connect 16 0 17 0;
#X connect 16 1 18 0;
#X connect 20 0 19 0;
#X connect 20 0 45 0;
#X connect 21 0 22 0;
#X connect 22 0 40 0;
#X connect 23 0 35 0;
#X connect 24 0 32 0;
#X connect 25 0 34 2;
#X connect 27 0 33 0;
#X connect 28 0 36 0;
#X connect 29 0 31 0;
#X connect 30 0 27 1;
#X connect 30 0 28 1;
#X connect 30 0 66 0;
#X connect 31 0 30 0;
#X connect 32 0 27 0;
#X connect 33 0 38 0;
#X connect 33 1 34 1;
#X connect 33 2 25 0;
#X connect 34 0 26 0;
#X connect 35 0 28 0;
#X connect 37 0 25 1;
#X connect 38 0 34 0;
#X connect 39 0 11 0;
#X connect 39 0 50 0;
#X connect 39 0 51 0;
#X connect 40 0 11 1;
#X connect 40 0 46 0;
#X connect 40 0 59 0;
#X connect 41 0 1 0;
#X connect 46 0 43 0;
#X connect 47 0 46 1;
#X connect 47 0 50 1;
#X connect 48 0 49 0;
#X connect 49 0 47 0;
#X connect 50 0 42 0;
#X connect 51 0 53 0;
#X connect 52 0 56 0;
#X connect 53 0 52 0;
#X connect 55 0 57 0;
#X connect 56 0 55 0;
#X connect 57 0 58 0;
#X connect 59 0 61 0;
#X connect 60 0 63 0;
#X connect 61 0 60 0;
#X connect 62 0 64 0;
#X connect 63 0 62 0;
#X connect 64 0 65 0;
#X connect 66 0 32 1;
#X coords 0 -1 1 1 86 90 1 100 100;
