#N canvas 401 10 740 805 12;
#X obj -203 -184 +~ 1;
#X obj -203 -157 *~ 0.5;
#X text -207 -257 Low Frequency Oscillator;
#X text -67 139 x[n-t];
#X text -268 179 x[n];
#X text -190 237 y[n] = x[n] + ax[n-t];
#X text -114 178 Feedback (0-1);
#X obj -203 -211 osc~ 1;
#X text -160 204 ax[n-t];
#X text -58 -89 Shift (ms);
#X obj -232 236 +~;
#X obj -546 120 loadbang;
#N canvas 0 22 622 635 apset~ 0;
#N canvas 0 22 450 300 ap~ 0;
#X obj 127 160 rpole~;
#X obj 127 135 rzero_rev~;
#X obj 127 92 inlet~;
#X obj 127 185 outlet~;
#X obj 204 92 inlet~;
#X connect 0 0 3 0;
#X connect 1 0 0 0;
#X connect 2 0 1 0;
#X connect 4 0 1 1;
#X connect 4 0 0 1;
#X restore 155 36 pd ap~;
#N canvas 0 22 450 300 ap~ 0;
#X obj 127 160 rpole~;
#X obj 127 135 rzero_rev~;
#X obj 127 92 inlet~;
#X obj 127 185 outlet~;
#X obj 204 92 inlet~;
#X connect 0 0 3 0;
#X connect 1 0 0 0;
#X connect 2 0 1 0;
#X connect 4 0 1 1;
#X connect 4 0 0 1;
#X restore 155 66 pd ap~;
#N canvas 0 22 450 300 ap~ 0;
#X obj 127 160 rpole~;
#X obj 127 135 rzero_rev~;
#X obj 127 92 inlet~;
#X obj 127 185 outlet~;
#X obj 204 92 inlet~;
#X connect 0 0 3 0;
#X connect 1 0 0 0;
#X connect 2 0 1 0;
#X connect 4 0 1 1;
#X connect 4 0 0 1;
#X restore 155 96 pd ap~;
#N canvas 0 22 450 300 ap~ 0;
#X obj 127 160 rpole~;
#X obj 127 135 rzero_rev~;
#X obj 127 92 inlet~;
#X obj 127 185 outlet~;
#X obj 204 92 inlet~;
#X connect 0 0 3 0;
#X connect 1 0 0 0;
#X connect 2 0 1 0;
#X connect 4 0 1 1;
#X connect 4 0 0 1;
#X restore 155 126 pd ap~;
#N canvas 0 22 450 300 ap~ 0;
#X obj 127 160 rpole~;
#X obj 127 135 rzero_rev~;
#X obj 127 92 inlet~;
#X obj 127 185 outlet~;
#X obj 204 92 inlet~;
#X connect 0 0 3 0;
#X connect 1 0 0 0;
#X connect 2 0 1 0;
#X connect 4 0 1 1;
#X connect 4 0 0 1;
#X restore 155 156 pd ap~;
#N canvas 0 22 450 300 ap~ 0;
#X obj 127 160 rpole~;
#X obj 127 135 rzero_rev~;
#X obj 127 92 inlet~;
#X obj 127 185 outlet~;
#X obj 204 92 inlet~;
#X connect 0 0 3 0;
#X connect 1 0 0 0;
#X connect 2 0 1 0;
#X connect 4 0 1 1;
#X connect 4 0 0 1;
#X restore 155 186 pd ap~;
#N canvas 0 22 450 300 ap~ 0;
#X obj 127 160 rpole~;
#X obj 127 135 rzero_rev~;
#X obj 127 92 inlet~;
#X obj 127 185 outlet~;
#X obj 204 92 inlet~;
#X connect 0 0 3 0;
#X connect 1 0 0 0;
#X connect 2 0 1 0;
#X connect 4 0 1 1;
#X connect 4 0 0 1;
#X restore 155 216 pd ap~;
#N canvas 0 22 450 300 ap~ 0;
#X obj 127 160 rpole~;
#X obj 127 135 rzero_rev~;
#X obj 127 92 inlet~;
#X obj 127 185 outlet~;
#X obj 204 92 inlet~;
#X connect 0 0 3 0;
#X connect 1 0 0 0;
#X connect 2 0 1 0;
#X connect 4 0 1 1;
#X connect 4 0 0 1;
#X restore 155 246 pd ap~;
#N canvas 0 22 450 300 ap~ 0;
#X obj 127 160 rpole~;
#X obj 127 135 rzero_rev~;
#X obj 127 92 inlet~;
#X obj 127 185 outlet~;
#X obj 204 92 inlet~;
#X connect 0 0 3 0;
#X connect 1 0 0 0;
#X connect 2 0 1 0;
#X connect 4 0 1 1;
#X connect 4 0 0 1;
#X restore 155 276 pd ap~;
#N canvas 0 22 450 300 ap~ 0;
#X obj 127 160 rpole~;
#X obj 127 135 rzero_rev~;
#X obj 127 92 inlet~;
#X obj 127 185 outlet~;
#X obj 204 92 inlet~;
#X connect 0 0 3 0;
#X connect 1 0 0 0;
#X connect 2 0 1 0;
#X connect 4 0 1 1;
#X connect 4 0 0 1;
#X restore 155 306 pd ap~;
#N canvas 0 22 450 300 ap~ 0;
#X obj 127 160 rpole~;
#X obj 127 135 rzero_rev~;
#X obj 127 92 inlet~;
#X obj 127 185 outlet~;
#X obj 204 92 inlet~;
#X connect 0 0 3 0;
#X connect 1 0 0 0;
#X connect 2 0 1 0;
#X connect 4 0 1 1;
#X connect 4 0 0 1;
#X restore 155 336 pd ap~;
#N canvas 0 22 450 300 ap~ 0;
#X obj 127 160 rpole~;
#X obj 127 135 rzero_rev~;
#X obj 127 92 inlet~;
#X obj 127 185 outlet~;
#X obj 204 92 inlet~;
#X connect 0 0 3 0;
#X connect 1 0 0 0;
#X connect 2 0 1 0;
#X connect 4 0 1 1;
#X connect 4 0 0 1;
#X restore 155 366 pd ap~;
#N canvas 0 22 450 300 ap~ 0;
#X obj 127 160 rpole~;
#X obj 127 135 rzero_rev~;
#X obj 127 92 inlet~;
#X obj 127 185 outlet~;
#X obj 204 92 inlet~;
#X connect 0 0 3 0;
#X connect 1 0 0 0;
#X connect 2 0 1 0;
#X connect 4 0 1 1;
#X connect 4 0 0 1;
#X restore 155 396 pd ap~;
#N canvas 0 22 450 300 ap~ 0;
#X obj 127 160 rpole~;
#X obj 127 135 rzero_rev~;
#X obj 127 92 inlet~;
#X obj 127 185 outlet~;
#X obj 204 92 inlet~;
#X connect 0 0 3 0;
#X connect 1 0 0 0;
#X connect 2 0 1 0;
#X connect 4 0 1 1;
#X connect 4 0 0 1;
#X restore 155 426 pd ap~;
#N canvas 0 22 450 300 ap~ 0;
#X obj 127 160 rpole~;
#X obj 127 135 rzero_rev~;
#X obj 127 92 inlet~;
#X obj 127 185 outlet~;
#X obj 204 92 inlet~;
#X connect 0 0 3 0;
#X connect 1 0 0 0;
#X connect 2 0 1 0;
#X connect 4 0 1 1;
#X connect 4 0 0 1;
#X restore 155 456 pd ap~;
#N canvas 0 22 450 300 ap~ 0;
#X obj 127 160 rpole~;
#X obj 127 135 rzero_rev~;
#X obj 127 92 inlet~;
#X obj 127 185 outlet~;
#X obj 204 92 inlet~;
#X connect 0 0 3 0;
#X connect 1 0 0 0;
#X connect 2 0 1 0;
#X connect 4 0 1 1;
#X connect 4 0 0 1;
#X restore 155 486 pd ap~;
#X obj 155 6 inlet~;
#X obj 225 6 inlet~;
#X obj 155 511 outlet~;
#X connect 0 0 1 0;
#X connect 1 0 2 0;
#X connect 2 0 3 0;
#X connect 3 0 4 0;
#X connect 4 0 5 0;
#X connect 5 0 6 0;
#X connect 6 0 7 0;
#X connect 7 0 8 0;
#X connect 8 0 9 0;
#X connect 9 0 10 0;
#X connect 10 0 11 0;
#X connect 11 0 12 0;
#X connect 12 0 13 0;
#X connect 13 0 14 0;
#X connect 14 0 15 0;
#X connect 15 0 18 0;
#X connect 16 0 0 0;
#X connect 17 0 0 1;
#X connect 17 0 1 1;
#X connect 17 0 2 1;
#X connect 17 0 3 1;
#X connect 17 0 4 1;
#X connect 17 0 5 1;
#X connect 17 0 6 1;
#X connect 17 0 7 1;
#X connect 17 0 8 1;
#X connect 17 0 9 1;
#X connect 17 0 10 1;
#X connect 17 0 11 1;
#X connect 17 0 12 1;
#X connect 17 0 13 1;
#X connect 17 0 14 1;
#X connect 17 0 15 1;
#X restore -203 140 pd apset~;
#X obj -203 -98 *~ 0.3;
#X obj -203 -58 +~ 0.6;
#X obj -135 116 clip~ 0 1;
#X text -661 -248 The all-pass filters alter the phases of the different
frequency components in the signal depending on the rate (Hz) \, the
depth (ms) and the shift (ms) of the LFO and the feedback coefficient
a (0-1).;
#X text -661 -337 The all-pass filter can be created with an one zero
filter (y[n] = -a[n] * x[n] + x[n-1]) and a pole filter (y[n] = x[n]
+ a[n] * y[n-1]) and the coefficient is driven by a LFO (low frequency
oscillator).;
#X text -661 -388 The phaser is an effect unit where the original signal
is mixed with a version of itself filtered by a set of variable all-pass
filters.;
#X text -661 -58 The phaser is a famous guitar effect that can be found
in several music like "Another Brick In The Wall (Part 3)" from the
Pink Floyd or more recently in "Paranoid Android" from Radiohead.;
#X text -662 -158 The number of all-pass filters determines the number
of notches affecting the sound. This example uses 16 all-pass filters
resulting in 8 notches. Other implementations can use much more filters
(or less) and the output can be fed back to the input.;
#X obj -229 -327 inlet~;
#X obj -229 338 outlet~;
#X obj 102 102 cnv 15 116 185 empty empty phaser 12 12 0 24 -233017
-1 0;
#X obj 120 203 hsl 80 20 0.127 127 1 0 \$0speed_ctl \$0speed_ctl_r
speed 20 11 0 12 -99865 -260097 -262144 2642 1;
#X obj 167 145 vsl 20 30 0 127 0 0 \$0depth_ctl \$0depth_ctl_r depth
0 -9 0 12 -99865 -260097 -1 2175 1;
#X obj 118 145 vsl 20 30 0 127 0 0 \$0wet \$0wet_r int 0 -9 0 12 -99865
-260097 -1 2900 1;
#X obj 133 224 nbx 5 14 -1e+037 1e+037 0 0 \$0speedshow_s \$0speedshow
empty 0 -8 0 10 -262144 -1 -1 0.100761 256 0;
#X obj 167 179 nbx 4 15 -1e+037 1e+037 0 0 \$0depshow_s \$0depshow
empty 0 -8 0 10 -262144 -1 -1 0.75 256 0;
#X obj 118 179 nbx 3 14 -1e+037 1e+037 0 0 \$0wetshow_s \$0wetshow
empty 0 -8 0 10 -262144 -1 -1 1 256 0;
#X obj -10 141 r \$0wet;
#X obj -9 174 / 127;
#X obj -36 220 s \$0wetshow;
#X obj -80 -211 r \$0depth_ctl;
#X obj -96 -184 / 127;
#X obj -73 -132 s \$0depshow;
#X obj -95 -338 r \$0speed_ctl;
#X obj -82 -301 / 12.7;
#X obj -59 -274 s \$0speedshow;
#X obj 120 244 hsl 80 20 0.127 127 1 0 \$0shift_ctl \$0shift_ctl_r
shift 20 11 0 12 -99865 -260097 -262144 3313 1;
#X obj 133 265 nbx 5 14 -1e+037 1e+037 0 0 \$0shiftshow_s \$0shiftshow
empty 0 -8 0 10 -262144 -1 -1 0.0108706 256 0;
#X obj -39 -68 r \$0shift_ctl;
#X obj -93 -40 / 211.667;
#X obj -170 16 s \$0shiftshow;
#X obj -665 248 s \$0wet_r;
#X msg -665 218 127;
#X obj -547 170 s \$0speed_ctl_r;
#X msg -546 145 1.28;
#X msg -586 170 95.25;
#X obj -623 222 s \$0shift_ctl_r;
#X obj -586 195 s \$0depth_ctl_r;
#X msg -624 192 2.3;
#X obj 104 -127 inlet;
#X obj 114 -117 inlet;
#X obj 141 -102 inlet;
#X obj 151 -92 inlet;
#X obj 294 -125 r toolssavebank;
#X obj 504 -208 r toolssavebang;
#X obj 723 -18 f;
#X obj 668 -24 f;
#X obj 578 84 s toolssavelists;
#X obj 533 -104 f;
#X obj 296 -7 route;
#X obj 654 -263 loadbang;
#X obj 655 -207 \$1;
#X obj 654 -235 del 5;
#X obj 533 -145 del;
#X obj 795 10 f;
#X obj 265 77 s \$0wet_r;
#X obj 330 54 s $depth_ctl_r;
#X obj 369 80 s \$0speed_ctl_r;
#X obj 712 -116 r \$0wet;
#X obj 939 -86 r \$0speed_ctl;
#X obj 296 -37 route phaser;
#X obj 525 -4 symbol phaser;
#X obj 531 -55 t b f b b b b;
#X obj 578 41 pack s f f f f f;
#X obj 901 11 r \$0shift_ctl;
#X obj 863 53 f;
#X obj 297 19 unpack f f f f;
#X obj 387 131 s \$0shift_ctl_r;
#X obj -164 187 line~;
#X obj -203 204 *~;
#X msg -128 157 \$1 15;
#X obj 842 -118 r \$0depth_ctl;
#X connect 0 0 1 0;
#X connect 1 0 13 0;
#X connect 7 0 0 0;
#X connect 10 0 22 0;
#X connect 11 0 47 0;
#X connect 11 0 48 0;
#X connect 11 0 51 0;
#X connect 11 0 45 0;
#X connect 12 0 82 0;
#X connect 13 0 14 0;
#X connect 14 0 15 0;
#X connect 15 0 12 1;
#X connect 21 0 12 0;
#X connect 21 0 10 0;
#X connect 30 0 31 0;
#X connect 31 0 32 0;
#X connect 31 0 83 0;
#X connect 33 0 34 0;
#X connect 34 0 13 1;
#X connect 34 0 35 0;
#X connect 36 0 37 0;
#X connect 37 0 7 0;
#X connect 37 0 38 0;
#X connect 41 0 42 0;
#X connect 42 0 14 1;
#X connect 42 0 43 0;
#X connect 45 0 44 0;
#X connect 47 0 46 0;
#X connect 48 0 50 0;
#X connect 51 0 49 0;
#X connect 52 0 26 0;
#X connect 53 0 25 0;
#X connect 54 0 24 0;
#X connect 55 0 39 0;
#X connect 56 0 73 0;
#X connect 57 0 66 0;
#X connect 58 0 76 3;
#X connect 59 0 76 2;
#X connect 61 0 75 0;
#X connect 62 0 79 0;
#X connect 63 0 65 0;
#X connect 64 0 61 1;
#X connect 64 0 62 1;
#X connect 64 0 66 1;
#X connect 65 0 64 0;
#X connect 66 0 61 0;
#X connect 67 0 76 4;
#X connect 71 0 59 1;
#X connect 72 0 67 1;
#X connect 73 0 62 0;
#X connect 74 0 76 0;
#X connect 75 0 74 0;
#X connect 75 1 76 1;
#X connect 75 2 59 0;
#X connect 75 3 58 0;
#X connect 75 4 67 0;
#X connect 75 5 78 0;
#X connect 76 0 60 0;
#X connect 77 0 78 1;
#X connect 78 0 76 5;
#X connect 79 0 68 0;
#X connect 79 1 69 0;
#X connect 79 2 70 0;
#X connect 79 3 80 0;
#X connect 81 0 82 1;
#X connect 82 0 10 1;
#X connect 83 0 81 0;
#X connect 84 0 58 1;
#X coords 0 -1 1 1 120 189 2 100 100;
