#N canvas 0 0 1423 798 10;
#X obj 516 -56 inlet~;
#X obj 507 169 vcf~;
#X floatatom 604 -157 10 0 0 0 - - -, f 10;
#X floatatom 751 203 5 0 0 0 - - -, f 5;
#X obj 320 -7 line~;
#X msg 320 -30 \$1 10;
#X obj 364 -7 line~;
#X msg 364 -30 \$1 10;
#X obj 271 -7 line~;
#X msg 271 -30 \$1 10;
#X obj 468 74 *~;
#X obj 506 74 *~;
#X obj 550 73 *~;
#X obj 506 387 outlet~;
#X msg 221 -66 1;
#X msg 257 -66 0;
#X msg 305 -72 1;
#X msg 341 -72 0;
#X msg 379 -75 1;
#X msg 415 -75 0;
#X obj 101 102 cnv 15 276 220 empty empty Plopp 20 14 0 22 -233017
-1 0;
#X obj 108 135 vradio 20 1 0 3 \$0filttype \$0filttype_r empty 0 -8
0 10 -99865 -260097 -1 0;
#X obj 295 -202 r \$0filttype;
#X text 130 156 Bandpass;
#X obj 108 207 vsl 20 60 0.15 127 1 0 \$0Q \$0Q_r Q 23 30 0 24 -99865
-260097 -1 3190 1;
#X obj 734 -174 * 126;
#X obj 598 -210 r \$0Freq;
#X obj 752 153 r \$0Q;
#X obj 751 180 / 8;
#X msg 486 -299 5.74;
#X obj 130 250 nbx 4 20 -1e+037 1e+037 0 0 \$0Qshow_s \$0Qshow empty
0 -8 0 14 -262144 -1 -1 0.717713 256 0;
#X obj 762 240 s \$0Qshow;
#X obj 109 290 hsl 100 20 0 127 0 0 \$0Freq \$0Freq_r Frequenz 17 -8
0 14 -99865 -260097 -1 2339 1;
#X obj 213 290 nbx 5 20 -1e+037 1e+037 0 0 \$0Freqshow_s \$0Freqshow
empty 0 -8 0 14 -262144 -1 -1 920.399 256 0;
#X obj 681 -134 s \$0Freqshow;
#X obj 416 -262 s \$0Freq_r;
#X obj 526 -350 loadbang;
#X obj 295 -142 sel 0 1 2;
#X msg 555 -298 0;
#X obj 553 -268 s \$0filttype_r;
#X text 130 135 Tiefpass;
#X msg 418 -293 30;
#X obj 609 155 sig~;
#X text 130 176 Hochpass;
#X obj 940 169 r toolssavebank;
#X obj 1150 86 r toolssavebang;
#X obj 1369 276 f;
#X obj 1314 270 f;
#X obj 1224 378 s toolssavelists;
#X obj 1179 190 f;
#X obj 942 287 route;
#X obj 1300 31 loadbang;
#X obj 1301 87 \$1;
#X obj 1300 59 del 5;
#X obj 1179 149 del;
#X obj 1441 304 f;
#X obj 891 475 s \$0Freq_r;
#X obj 918 442 s \$0Q_r;
#X obj 779 447 s \$0filttype_r;
#X obj 1341 147 r \$0filttype;
#X obj 1421 202 r \$0Freq;
#X obj 1500 214 r \$0Q;
#X obj 463 226 vcf_lp4~;
#X obj 548 220 vcf_hp4~;
#X obj 631 -75 line~;
#X obj 1025 -21 inlet;
#X obj 1068 -23 inlet;
#X obj 1122 -35 inlet;
#X text 1185 -214 Tiefpassfilter;
#X text 1118 -257 FILTERBANK / SUBSTRAKTIVE SYNTHESE;
#X msg 628 -101 \$1 10;
#N canvas 288 115 704 802 filtenv 0;
#X obj 7 418 vline~;
#X obj -17 -27 - 1;
#X obj -17 -3 abs;
#X obj 7 357 list;
#X obj 28 322 pack f f f f f;
#X obj 8 456 outlet~;
#X floatatom 276 76 5 0 0 0 - - -, f 5;
#X obj 276 99 == 1;
#X floatatom 276 122 5 0 0 0 - - -, f 5;
#X obj 425 205 spigot;
#X floatatom 458 174 5 0 0 0 - - -, f 5;
#X obj 276 142 sel 1;
#X msg 276 181 1;
#X obj 41 123 t b f;
#X obj 77 172 t b f;
#X obj 273 211 t b f;
#X obj 514 79 sel 1;
#X obj 514 117 f;
#X obj 514 48 != 1;
#X floatatom 365 65 5 0 0 0 - - -, f 5;
#X obj 364 168 *;
#X obj 364 129 t b f;
#X obj 276 161 del 1;
#X obj -16 -79 r \$0Add_FiltEnvInt;
#X msg 7 386 \$1 5 \, 1 \$3 5 \, \$5 \$4 \$3;
#X obj 458 133 - 1;
#X obj 458 152 abs;
#X obj 461 -1 r \$0sus;
#X obj 54 64 r \$0att;
#X obj 101 115 r \$0rel;
#X obj 96 143 * 2;
#X obj 470 30 / 127;
#X obj -17 -53 / 127;
#X obj 42 -18 s \$0intshow;
#X obj 588 58 s \$0susshow;
#X obj 141 151 s \$0relshow;
#X obj 123 89 s \$0attshow;
#X obj 7 248 r \$0trigger;
#X obj 55 91 * 4;
#X obj 302 283 clip 0.001 1;
#X obj -17 24 clip 0.001 1;
#X connect 0 0 5 0;
#X connect 1 0 2 0;
#X connect 2 0 40 0;
#X connect 3 0 24 0;
#X connect 4 0 3 1;
#X connect 6 0 7 0;
#X connect 6 0 18 0;
#X connect 7 0 8 0;
#X connect 8 0 11 0;
#X connect 8 0 25 0;
#X connect 9 0 15 0;
#X connect 10 0 9 1;
#X connect 11 0 22 0;
#X connect 12 0 15 0;
#X connect 13 0 4 0;
#X connect 13 1 4 2;
#X connect 14 0 4 0;
#X connect 14 1 4 3;
#X connect 15 0 4 0;
#X connect 15 1 39 0;
#X connect 16 0 17 0;
#X connect 17 0 20 0;
#X connect 18 0 16 0;
#X connect 19 0 21 0;
#X connect 20 0 9 0;
#X connect 21 0 20 0;
#X connect 21 1 20 1;
#X connect 22 0 12 0;
#X connect 23 0 32 0;
#X connect 24 0 0 0;
#X connect 25 0 26 0;
#X connect 26 0 10 0;
#X connect 27 0 31 0;
#X connect 28 0 38 0;
#X connect 29 0 30 0;
#X connect 30 0 14 0;
#X connect 30 0 35 0;
#X connect 31 0 17 0;
#X connect 31 0 34 0;
#X connect 32 0 1 0;
#X connect 32 0 33 0;
#X connect 37 0 3 0;
#X connect 38 0 13 0;
#X connect 38 0 36 0;
#X connect 39 0 4 4;
#X connect 40 0 4 0;
#X connect 40 0 6 0;
#X connect 40 0 19 0;
#X restore 683 -90 pd filtenv;
#X obj 631 -25 *~;
#X obj 816 20 r \$0key;
#X obj 288 209 vsl 15 50 0 127 0 0 \$0sus \$0sus_r Sustain -12 -9 0
10 -66577 -260097 -1 2450 1;
#X obj 222 225 hsl 50 15 0.127 127 1 0 \$0att \$0att_r Attack 5 -8
0 10 -66577 -260097 -1 2150 1;
#X obj 223 242 nbx 4 14 -1e+037 1e+037 0 0 empty \$0attshow empty 0
-8 0 11 -262144 -1 -260097 10.5242 256 0;
#X obj 319 226 hsl 50 15 0 127 0 0 \$0rel \$0rel_r Decay 15 -8 0 10
-66577 -260097 -1 772 1;
#X obj 320 243 nbx 4 14 -1e+037 1e+037 0 0 empty \$0relshow empty 0
-8 0 11 -262144 -1 -1 40 256 0;
#X obj 273 264 nbx 4 14 -1e+037 1e+037 0 0 empty \$0susshow empty 0
-8 0 11 -262144 -1 -260097 0.5 256 0;
#X obj 318 134 vsl 15 30 0 127 0 0 \$0key \$0key_r key -2 -9 0 10 -66577
-260097 -1 0 1;
#X obj 300 169 nbx 3 14 -1e+037 1e+037 0 0 empty \$0keyshow empty 0
-8 0 11 -262144 -1 -260097 0 256 0;
#X obj 219 128 vsl 20 50 0 127 0 0 \$0Add_FiltEnvInt \$0Add_FiltEnvInt_r
Intensität -18 -9 0 10 -66577 -260097 -1 1620 1;
#X obj 219 183 nbx 4 14 -1e+037 1e+037 0 0 \$0intshow_s \$0intshow
empty 0 -8 0 11 -262144 -1 -260097 0.330709 256 0;
#X obj 815 43 / 127;
#X obj 759 -238 s \$0key_r;
#X obj 851 -290 s \$0sus_r;
#X obj 691 -252 s \$0rel_r;
#X obj 723 -286 s \$0att_r;
#X msg 799 -318 63.5;
#X msg 771 -261 0;
#X obj 848 -188 s \$0Add_FiltEnvInt_r;
#X msg 849 -220 42;
#X obj 815 76 s \$0keyshow;
#X obj 859 -104 inlet;
#X obj 863 -34 unpack f f;
#X obj 890 15 bng 15 250 50 0 empty empty empty 17 7 0 10 -262144 -1
-1;
#X obj 891 44 s \$0trigger;
#X obj 646 29 +~;
#X obj 716 75 line~;
#X msg 718 47 \$1 5;
#X obj 739 24 *;
#X msg 658 -304 20;
#X obj 1083 499 s \$0key_r;
#X obj 1033 450 s \$0sus_r;
#X obj 1057 475 s \$0rel_r;
#X obj 1022 419 s \$0att_r;
#X obj 995 396 s \$0Add_FiltEnvInt_r;
#X obj 1226 335 pack s f f f f f f f f f;
#X obj 1542 331 f;
#X obj 1487 325 f;
#X obj 1577 352 f;
#X obj 1611 387 f;
#X obj 1646 408 f;
#X obj 1177 239 t b f b b b b b b b b;
#X obj 1519 274 r \$0Add_FiltEnvInt;
#X obj 1555 303 r \$0att;
#X obj 1591 326 r \$0sus;
#X obj 1625 358 r \$0rel;
#X obj 1664 384 r \$0key;
#X obj 943 258 route plopp;
#X obj 1171 290 symbol plopp;
#X obj 943 313 unpack f f f f f f f f;
#X obj 902 -96 loadbang;
#X obj 906 -69 del 25;
#X obj 1191 -52 inlet;
#X obj 1237 -47 inlet;
#X obj 1290 -47 inlet;
#X obj 1336 -42 inlet;
#X obj 1380 -45 inlet;
#X obj 804 -71 route stop;
#X obj 939 -19 > 0;
#X obj 919 3 sel 1;
#X obj 989 -66 bng 15 250 50 0 empty empty empty 17 7 0 10 -262144
-1 -1;
#X obj 993 -97 route bang;
#X obj 486 -275 s \$0Q_r;
#X obj 597 -188 pow 1.998;
#X obj 605 -131 + 26.5;
#N canvas 0 22 462 312 rh_scalelog 0;
#X obj 20 155 exp;
#X obj 20 107 *;
#X obj 20 130 +;
#X obj 98 87 log;
#X obj 194 84 log;
#X obj 123 123 t b f;
#X obj 123 145 -;
#X obj 20 183 outlet;
#X obj 20 19 inlet;
#X obj 98 23 inlet;
#X obj 194 24 inlet;
#X connect 0 0 7 0;
#X connect 1 0 2 0;
#X connect 2 0 0 0;
#X connect 3 0 2 1;
#X connect 3 0 5 0;
#X connect 4 0 6 0;
#X connect 5 0 6 0;
#X connect 5 1 6 1;
#X connect 6 0 1 1;
#X connect 8 0 1 0;
#X connect 9 0 3 0;
#X connect 10 0 4 0;
#X restore 722 296 pd rh_scalelog;
#X msg 769 272 0.1;
#X obj 720 271 / 127;
#X msg 815 272 120;
#X obj 690 230 / 127;
#X obj 1111 -3 + 1;
#X connect 0 0 10 0;
#X connect 0 0 11 0;
#X connect 0 0 12 0;
#X connect 1 0 13 0;
#X connect 2 0 137 0;
#X connect 3 0 31 0;
#X connect 3 0 42 0;
#X connect 4 0 11 1;
#X connect 5 0 4 0;
#X connect 6 0 12 1;
#X connect 7 0 6 0;
#X connect 8 0 10 1;
#X connect 9 0 8 0;
#X connect 10 0 62 0;
#X connect 11 0 1 0;
#X connect 12 0 63 0;
#X connect 14 0 9 0;
#X connect 15 0 9 0;
#X connect 16 0 5 0;
#X connect 17 0 5 0;
#X connect 18 0 7 0;
#X connect 19 0 7 0;
#X connect 22 0 37 0;
#X connect 26 0 136 0;
#X connect 27 0 28 0;
#X connect 27 0 142 0;
#X connect 28 0 3 0;
#X connect 29 0 135 0;
#X connect 36 0 41 0;
#X connect 36 0 29 0;
#X connect 36 0 38 0;
#X connect 36 0 102 0;
#X connect 36 0 89 0;
#X connect 36 0 90 0;
#X connect 36 0 92 0;
#X connect 36 0 139 0;
#X connect 36 0 141 0;
#X connect 37 0 14 0;
#X connect 37 0 17 0;
#X connect 37 0 19 0;
#X connect 37 1 15 0;
#X connect 37 1 16 0;
#X connect 37 1 19 0;
#X connect 37 2 15 0;
#X connect 37 2 17 0;
#X connect 37 2 18 0;
#X connect 38 0 39 0;
#X connect 41 0 35 0;
#X connect 42 0 62 2;
#X connect 42 0 63 2;
#X connect 44 0 120 0;
#X connect 45 0 54 0;
#X connect 46 0 108 3;
#X connect 47 0 108 2;
#X connect 49 0 114 0;
#X connect 50 0 122 0;
#X connect 51 0 53 0;
#X connect 52 0 49 1;
#X connect 52 0 50 1;
#X connect 52 0 54 1;
#X connect 53 0 52 0;
#X connect 54 0 49 0;
#X connect 55 0 108 4;
#X connect 59 0 47 1;
#X connect 60 0 46 1;
#X connect 61 0 55 1;
#X connect 62 0 13 0;
#X connect 63 0 13 0;
#X connect 64 0 72 0;
#X connect 65 0 32 0;
#X connect 66 0 24 0;
#X connect 67 0 143 0;
#X connect 70 0 64 0;
#X connect 71 0 72 1;
#X connect 72 0 98 0;
#X connect 73 0 84 0;
#X connect 84 0 93 0;
#X connect 84 0 101 1;
#X connect 89 0 86 0;
#X connect 90 0 85 0;
#X connect 92 0 91 0;
#X connect 94 0 130 0;
#X connect 94 0 134 0;
#X connect 95 0 101 0;
#X connect 95 1 131 0;
#X connect 96 0 97 0;
#X connect 98 0 1 1;
#X connect 98 0 63 1;
#X connect 98 0 62 1;
#X connect 99 0 98 1;
#X connect 100 0 99 0;
#X connect 101 0 100 0;
#X connect 102 0 87 0;
#X connect 102 0 88 0;
#X connect 108 0 48 0;
#X connect 109 0 108 6;
#X connect 110 0 108 5;
#X connect 111 0 108 7;
#X connect 112 0 108 8;
#X connect 113 0 108 9;
#X connect 114 0 121 0;
#X connect 114 1 108 1;
#X connect 114 2 47 0;
#X connect 114 3 46 0;
#X connect 114 4 55 0;
#X connect 114 5 110 0;
#X connect 114 6 109 0;
#X connect 114 7 111 0;
#X connect 114 8 112 0;
#X connect 114 9 113 0;
#X connect 115 0 110 1;
#X connect 116 0 109 1;
#X connect 117 0 111 1;
#X connect 118 0 112 1;
#X connect 119 0 113 1;
#X connect 120 0 50 0;
#X connect 121 0 108 0;
#X connect 122 0 58 0;
#X connect 122 1 56 0;
#X connect 122 2 57 0;
#X connect 122 3 107 0;
#X connect 122 4 106 0;
#X connect 122 5 104 0;
#X connect 122 6 105 0;
#X connect 122 7 103 0;
#X connect 123 0 124 0;
#X connect 124 0 96 0;
#X connect 125 0 82 0;
#X connect 126 0 75 0;
#X connect 127 0 74 0;
#X connect 128 0 77 0;
#X connect 129 0 80 0;
#X connect 130 1 95 0;
#X connect 131 0 132 0;
#X connect 132 0 96 0;
#X connect 133 0 96 0;
#X connect 134 0 133 0;
#X connect 136 0 2 0;
#X connect 137 0 70 0;
#X connect 137 0 34 0;
#X connect 138 0 1 2;
#X connect 139 0 138 1;
#X connect 140 0 138 0;
#X connect 141 0 138 2;
#X connect 142 0 140 0;
#X connect 143 0 21 0;
#X coords 0 -1 1 1 278 224 1 100 100;
