#N canvas 71 35 1280 728 10;
#N canvas 429 242 526 186 VCO1 0;
#X obj -215 -79 inlet~;
#X obj -59 0 switch~;
#X obj -59 -54 + 1;
#X obj -214 70 outlet~;
#X obj -59 -27 == 1;
#X obj -215 13 osc~;
#X text -174 10 Sinusschwingung;
#X text -17 -49 Der Oscillator ist nur aktiviert \, wenn er in der
GUI ausgewählt ist;
#X obj -59 -78 r \$0-waveform_VCO;
#X connect 0 0 5 0;
#X connect 2 0 4 0;
#X connect 4 0 1 0;
#X connect 5 0 3 0;
#X connect 8 0 2 0;
#X restore 388 212 pd VCO1;
#N canvas 453 243 488 252 VCO2 0;
#X obj -210 7 inlet~;
#X obj -83 89 switch~;
#X obj -83 31 + 1;
#X obj -210 196 outlet~;
#X obj -83 62 == 2;
#X obj -210 88 phasor~;
#X obj -210 142 -~ 0.5;
#X obj -210 169 *~ 2;
#X obj -210 115 expr~ $v1 > 0.5;
#X text -53 25 Der Oscillator ist nur aktiviert \, wenn er in der GUI
ausgewählt ist;
#X text -159 137 Rechteckschwingung;
#X obj -83 7 r \$0-waveform_VCO;
#X connect 0 0 5 0;
#X connect 2 0 4 0;
#X connect 4 0 1 0;
#X connect 5 0 8 0;
#X connect 6 0 7 0;
#X connect 7 0 3 0;
#X connect 8 0 6 0;
#X connect 11 0 2 0;
#X restore 447 212 pd VCO2;
#N canvas 397 255 527 146 VCO3 0;
#X obj -182 -40 inlet~;
#X obj -24 39 switch~;
#X obj -24 -14 + 1;
#X obj -183 65 outlet~;
#X obj -24 12 == 3;
#X obj -182 -13 phasor~;
#X obj -182 14 -~ 0.5;
#X obj -183 42 *~ 2;
#X text 11 -12 Der Oscillator ist nur aktiviert \, wenn er in der GUI
ausgewählt ist;
#X text -145 29 Sägezahnschwingung;
#X obj -23 -38 r \$0-waveform_VCO;
#X connect 0 0 5 0;
#X connect 2 0 4 0;
#X connect 4 0 1 0;
#X connect 5 0 6 0;
#X connect 6 0 7 0;
#X connect 7 0 3 0;
#X connect 10 0 2 0;
#X restore 507 212 pd VCO3;
#N canvas 518 262 456 302 VCO4 0;
#X obj -181 -40 inlet~;
#X obj -99 41 switch~;
#X obj -99 -13 + 1;
#X obj -181 224 outlet~;
#X obj -181 44 phasor~;
#X obj -160 91 *~ -1;
#X obj -160 112 +~ 1;
#X obj -182 152 min~;
#X obj -182 174 *~ 4;
#X obj -182 197 -~ 1;
#X text -153 134 Dreieckschwingung;
#X text -66 -9 Der Oscillator ist nur aktiviert \, wenn er in der GUI
ausgewählt ist;
#X obj -99 14 == 4;
#X obj -99 -33 r \$0-waveform_VCO;
#X connect 0 0 4 0;
#X connect 2 0 12 0;
#X connect 4 0 5 0;
#X connect 4 0 7 0;
#X connect 5 0 6 0;
#X connect 6 0 7 1;
#X connect 7 0 8 0;
#X connect 8 0 9 0;
#X connect 9 0 3 0;
#X connect 12 0 1 0;
#X connect 13 0 2 0;
#X restore 557 212 pd VCO4;
#X obj 391 408 *~;
#X text 423 406 Intensität;
#X obj 387 157 sig~;
#X obj 386 98 r \$0freq;
#X obj 438 382 line~;
#X msg 493 347 \$1 15;
#X obj 493 306 r \$0-AM-int;
#X obj 635 141 inlet~;
#X obj 635 189 *~;
#X obj 739 65 r \$0-waveform_VCO;
#X floatatom 739 87 5 0 0 0 - - -;
#X obj 738 113 sel 4;
#X msg 733 182 \$1 15;
#X obj 733 204 line~;
#X msg 728 145 1;
#X msg 767 145 0;
#X obj 386 119 * 125.984;
#X obj 441 150 s \$0freqshow;
#X obj 350 310 inlet~;
#X obj 352 442 *~;
#X obj 495 38 s \$0freq_r;
#X msg 494 12 12.7;
#X obj 482 -11 loadbang;
#X obj 493 328 / 127;
#X obj 512 382 s \$0intshow;
#X obj 614 79 s \$0-waveform_VCO_r;
#X msg 613 58 0;
#X obj 353 25 s \$0-AM-int_r;
#X msg 443 -1 63.5;
#X obj 101 102 cnv 15 218 176 empty empty Ring 10 12 0 24 -233017 -1
0;
#X obj 229 118 vradio 25 1 0 5 \$0-waveform_VCO \$0-waveform_VCO_r
empty 0 -8 0 10 -99865 -260097 -1 0;
#X obj 115 150 hsl 100 20 0.03175 127 1 0 \$0freq \$0freq_r Frequenz
15 -12 0 14 -99865 -260097 -1 7152 1;
#X text 258 120 Sinus;
#X text 258 146 Square;
#X text 258 170 Saw;
#X text 258 195 Triangle;
#X text 258 220 Input 2;
#X obj 140 171 nbx 5 14 -1e+037 1e+037 0 0 \$0freqshow_s \$0freqshow
empty 0 -8 0 10 -262144 -1 -1 1600.57 256;
#X obj 152 208 vsl 20 40 0 127 0 0 \$0-AM-int \$0-AM-int_r Intensität
-13 -10 0 10 -99865 -260097 -1 1950 1;
#X obj 151 252 nbx 4 14 -1e+037 1e+037 0 0 \$0intshow_s \$0intshow
empty 0 -8 0 10 -262144 -1 -1 0.5 256;
#X obj 353 495 outlet~;
#X obj 601 351 sel 0;
#X msg 603 411 1 15;
#X obj 603 385 del 1;
#X obj 525 411 line~;
#X obj 883 362 r toolssavebank;
#X obj 1093 279 r toolssavebang;
#X obj 1312 469 f;
#X obj 1257 463 f;
#X obj 1167 571 s toolssavelists;
#X obj 1122 383 f;
#X obj 885 480 route;
#X obj 1243 224 loadbang;
#X obj 1244 280 \$1;
#X obj 1243 252 del 5;
#X obj 1122 342 del;
#X obj 1167 528 pack s f f f f;
#X obj 1384 497 f;
#X obj 1120 432 t b f b b b;
#X obj 886 506 unpack f f f;
#X obj 885 449 route ring;
#X obj 1114 483 symbol ring;
#X obj 1295 406 r \$0-waveform_VCO;
#X obj 1394 377 r \$0freq;
#X obj 1496 414 r \$0-AM-int;
#X obj 953 573 s \$0-AM-int_r;
#X obj 884 600 s \$0freq_r;
#X obj 823 574 s \$0-waveform_VCO_r;
#X obj 917 66 inlet;
#X obj 927 76 inlet;
#X connect 0 0 4 0;
#X connect 1 0 4 0;
#X connect 2 0 4 0;
#X connect 3 0 4 0;
#X connect 4 0 23 1;
#X connect 6 0 0 0;
#X connect 6 0 1 0;
#X connect 6 0 2 0;
#X connect 6 0 3 0;
#X connect 7 0 20 0;
#X connect 8 0 4 1;
#X connect 9 0 8 0;
#X connect 10 0 27 0;
#X connect 10 0 45 0;
#X connect 11 0 12 0;
#X connect 12 0 4 0;
#X connect 13 0 14 0;
#X connect 14 0 15 0;
#X connect 15 0 18 0;
#X connect 15 1 19 0;
#X connect 16 0 17 0;
#X connect 17 0 12 1;
#X connect 18 0 16 0;
#X connect 19 0 16 0;
#X connect 20 0 6 0;
#X connect 20 0 21 0;
#X connect 22 0 23 0;
#X connect 23 0 44 0;
#X connect 25 0 24 0;
#X connect 26 0 25 0;
#X connect 26 0 30 0;
#X connect 26 0 32 0;
#X connect 27 0 9 0;
#X connect 27 0 28 0;
#X connect 30 0 29 0;
#X connect 32 0 31 0;
#X connect 45 0 47 0;
#X connect 46 0 48 0;
#X connect 47 0 46 0;
#X connect 48 0 23 1;
#X connect 49 0 64 0;
#X connect 50 0 59 0;
#X connect 51 0 60 3;
#X connect 52 0 60 2;
#X connect 54 0 62 0;
#X connect 55 0 63 0;
#X connect 56 0 58 0;
#X connect 57 0 54 1;
#X connect 57 0 55 1;
#X connect 57 0 59 1;
#X connect 58 0 57 0;
#X connect 59 0 54 0;
#X connect 60 0 53 0;
#X connect 61 0 60 4;
#X connect 62 0 65 0;
#X connect 62 1 60 1;
#X connect 62 2 52 0;
#X connect 62 3 51 0;
#X connect 62 4 61 0;
#X connect 63 0 71 0;
#X connect 63 1 70 0;
#X connect 63 2 69 0;
#X connect 64 0 55 0;
#X connect 65 0 60 0;
#X connect 66 0 52 1;
#X connect 67 0 51 1;
#X connect 68 0 61 1;
#X connect 72 0 35 0;
#X connect 73 0 42 0;
#X coords 0 -1 1 1 220 180 1 100 100;
