#N canvas 2918 199 769 571 10;
#X obj 101 101 cnv 15 90 83 empty empty reverb 4 5 1 11 -233017 -1
0;
#X obj 485 294 freeverb~;
#X msg 529 248 roomsize \$1;
#X msg 612 247 damping \$1;
#X msg 529 204 freeze \$1;
#X obj 529 226 r \$0size;
#X obj 103 125 hsl 80 10 0 0.99 0 0 \$0wet \$0wet_r dry/wet\ 0.25 2
-9 1 10 -99865 -260097 -1 2000 1;
#X obj 612 137 r \$0wet;
#X obj 612 159 t b f;
#X msg 612 181 1;
#X obj 612 203 -;
#X obj 529 182 r \$0Freeze;
#X obj 396 60 inlet~;
#X obj 406 520 outlet~;
#X obj 296 75 loadbang;
#X msg 296 138 0.5;
#X obj 296 159 s \$0damp_r;
#X obj 296 117 s \$0wet_r;
#X msg 296 180 0.85;
#X obj 296 201 s \$0size_r;
#X obj 612 225 r \$0damp;
#X obj 659 162 s \$0wetshow;
#X obj 529 138 pink~;
#X obj 529 160 *~ 1e-005;
#X msg 296 96 0;
#X obj 405 470 *~, f 2;
#X obj 442 466 *~;
#X obj 463 428 line~;
#X obj 419 429 line~;
#X msg 465 406 \$1 10;
#X msg 420 404 \$1 10;
#X msg 296 222 wet 1;
#X obj 103 147 hsl 80 10 0 0.99 0 0 \$0size \$0size_r size\ 0.17 2
-9 1 10 -99865 -260097 -1 1383 1;
#X obj 103 169 hsl 80 10 0 0.99 0 0 \$0damp \$0damp_r damp\ 0.5 2 -9
1 10 -99865 -260097 -1 3990 1;
#X obj 42 378 s \$0size_r;
#X obj 42 231 r \$0size;
#X msg 42 315 size \$1;
#X obj 42 336 l2s;
#X msg 42 357 label \$1;
#X obj 42 252 * 100;
#X obj 42 273 int;
#X obj 42 294 / 100;
#X obj 114 336 l2s;
#X msg 114 357 label \$1;
#X obj 114 252 * 100;
#X obj 114 273 int;
#X obj 114 294 / 100;
#X obj 114 231 r \$0wet;
#X obj 114 378 s \$0wet_r;
#X msg 114 315 dry/wet \$1;
#X obj 186 337 l2s;
#X msg 186 358 label \$1;
#X obj 186 253 * 100;
#X obj 186 274 int;
#X obj 186 295 / 100;
#X obj 186 232 r \$0damp;
#X msg 186 316 damp \$1;
#X obj 186 379 s \$0damp_r;
#X obj 178 103 tgl 10 0 empty empty empty 17 7 0 10 -262144 -1 -1 0
1;
#X obj 208 118 switch~;
#X connect 1 0 26 0;
#X connect 2 0 1 0;
#X connect 3 0 1 0;
#X connect 4 0 1 0;
#X connect 5 0 2 0;
#X connect 7 0 8 0;
#X connect 7 0 29 0;
#X connect 7 0 21 0;
#X connect 8 0 9 0;
#X connect 8 1 10 1;
#X connect 9 0 10 0;
#X connect 10 0 30 0;
#X connect 11 0 4 0;
#X connect 12 0 1 0;
#X connect 12 0 25 0;
#X connect 14 0 15 0;
#X connect 14 0 18 0;
#X connect 14 0 24 0;
#X connect 14 0 31 0;
#X connect 15 0 16 0;
#X connect 18 0 19 0;
#X connect 20 0 3 0;
#X connect 22 0 23 0;
#X connect 23 0 1 0;
#X connect 24 0 17 0;
#X connect 25 0 13 0;
#X connect 26 0 13 0;
#X connect 27 0 26 1;
#X connect 28 0 25 1;
#X connect 29 0 27 0;
#X connect 30 0 28 0;
#X connect 31 0 1 0;
#X connect 35 0 39 0;
#X connect 36 0 37 0;
#X connect 37 0 38 0;
#X connect 38 0 34 0;
#X connect 39 0 40 0;
#X connect 40 0 41 0;
#X connect 41 0 36 0;
#X connect 42 0 43 0;
#X connect 43 0 48 0;
#X connect 44 0 45 0;
#X connect 45 0 46 0;
#X connect 46 0 49 0;
#X connect 47 0 44 0;
#X connect 49 0 42 0;
#X connect 50 0 51 0;
#X connect 51 0 57 0;
#X connect 52 0 53 0;
#X connect 53 0 54 0;
#X connect 54 0 56 0;
#X connect 55 0 52 0;
#X connect 56 0 50 0;
#X connect 58 0 59 0;
#X coords 0 -1 1 1 92 85 2 100 100;
