#N canvas 0 0 1423 798 10;
#X obj 102 2 cnv 15 605 314 empty empty empty 10 15 0 17 -66577 -260097
0;
#X obj 107 207 cnv 15 10 10 empty empty Tonalität 4 12 0 10 -66577
-260097 0;
#X obj 132 225 cnv 15 15 15 empty empty Dur 0 10 0 10 -66577 -261682
0;
#X obj 131 241 cnv 15 15 15 empty empty Chrom. 0 10 0 10 -66577 -261682
0;
#X obj 132 257 cnv 15 15 15 empty empty Moll 0 10 0 10 -66577 -261682
0;
#X obj 112 228 vradio 15 1 0 3 \$0Add_seq_key_mode \$0Add_seq_key_mode_ctl
empty 0 -8 0 10 -54094 -260097 -1 1;
#X obj 225 237 bng 15 250 50 0 \$0Add_randomseq \$0Add_randomseq_ctl
empty -55 4 0 10 -54094 -260097 -261682;
#X obj 225 259 bng 15 250 50 0 \$0Add_seqdrawreset \$0Add_seqdrawreset_ctl
0 -10 8 0 10 -54094 -260097 -261682;
#X obj 186 239 cnv 15 1 1 empty empty erzeuge 0 0 0 9 -66577 -261682
0;
#X obj 104 132 nbx 4 14 -1e+037 1e+037 0 0 \$0Add_seqtemp_s \$0Add_seqtemp
empty 0 -8 0 10 -54094 -260097 -260097 120 256 0;
#X obj 190 209 cnv 5 10 5 empty empty Start 0 0 0 10 -66577 -261682
0;
#X obj 201 22 vradio 15 1 0 5 \$0Add_seq_skalar \$0Add_seq_skalar_ctl
Notenwerte -18 -10 0 10 -99865 -260097 -262144 3;
#X obj 168 181 bng 15 250 50 0 \$0Add_seqtimereset \$0Add_seqtimereset_ctl
Neustart -52 8 0 10 -54094 -260097 -261682;
#N canvas 636 7 704 802 sequencer 0;
#N canvas 97 145 1050 821 addmakesequence 0;
#N canvas 0 0 450 300 counter 0;
#X obj 121 147 f;
#X obj 177 147 + 1;
#X msg 228 225 0;
#X obj 122 94 inlet;
#X obj 122 250 outlet;
#X obj 270 226 outlet;
#X obj 184 194 moses 16;
#X connect 0 0 1 0;
#X connect 0 0 4 0;
#X connect 1 0 6 0;
#X connect 2 0 0 1;
#X connect 2 0 5 0;
#X connect 3 0 0 0;
#X connect 6 0 0 1;
#X connect 6 1 2 0;
#X restore 71 -163 pd counter;
#X obj 121 -191 spigot;
#X obj 71 -237 t b b;
#X msg 124 -214 1;
#X obj 71 -256 bng 15 250 50 0 empty empty empty 17 7 0 10 -66577 -1
-1;
#X floatatom 17 -92 5 0 0 0 - - -, f 5;
#X obj 17 184 pack;
#X obj 71 -191 del 10;
#X msg 211 -234 0;
#X obj 71 -133 bng 15 250 50 0 empty empty empty 17 7 0 10 -262144
-1 -1;
#X obj 71 8 zl nth;
#X floatatom 71 36 5 0 0 0 - - -, f 5;
#X msg 71 -108 0 0 0 0 0 0 0 0 0 1 1 1 1 2 2 2 2 3 3 3 3 4 4 4 4 5
5 5 5 6 6 6 6 7 7 7 7 8 8 8 8 9 9 9 9 10 10 10 10 11 11 11 12 12 12
12 13 14 14 15 16 17 18 19 20 21 22 23 24 25 26;
#X obj 104 -24 random 71;
#X obj 17 164 pipe 1;
#N canvas 720 0 703 821 Add_seq_table_Reset 0;
#X msg -304 -660 1;
#X obj -304 -750 r \$0Add_seqdrawreset;
#X obj -304 -627 s \$0Add_seq_att_skalar_ctl;
#X obj -269 -575 s \$0Add_seq_rel_skalar_ctl;
#X connect 0 0 2 0;
#X connect 0 0 3 0;
#X connect 1 0 0 0;
#X restore 372 -173 pd Add_seq_table_Reset;
#X obj 15 274 outlet;
#X obj 71 -287 r \$0Add_randomseq;
#X obj 211 -212 s \$0Add_prenr;
#N canvas 794 84 450 300 seed 0;
#X obj 47 48 loadbang;
#X obj 47 83 time;
#X obj 68 107 * 1000;
#X msg 68 145 seed \$1;
#X obj 68 176 outlet;
#X connect 0 0 1 0;
#X connect 1 3 2 0;
#X connect 2 0 3 0;
#X connect 3 0 4 0;
#X restore 128 -54 pd seed;
#N canvas 53 92 1080 300 trans 0;
#X obj -8400 -61 bng 15 250 50 0 empty empty empty 17 7 0 10 -262144
-1 -1;
#X msg -8400 -24 -2;
#X obj -8373 -61 bng 15 250 50 0 empty empty empty 17 7 0 10 -262144
-1 -1;
#X msg -8373 -24 0;
#X obj -8346 -61 bng 15 250 50 0 empty empty empty 17 7 0 10 -262144
-1 -1;
#X obj -8319 -61 bng 15 250 50 0 empty empty empty 17 7 0 10 -262144
-1 -1;
#X msg -8346 -24 2;
#X msg -8319 -24 3;
#X obj -8291 -61 bng 15 250 50 0 empty empty empty 17 7 0 10 -262144
-1 -1;
#X msg -8291 -24 5;
#X obj -8264 -61 bng 15 250 50 0 empty empty empty 17 7 0 10 -262144
-1 -1;
#X obj -8237 -61 bng 15 250 50 0 empty empty empty 17 7 0 10 -262144
-1 -1;
#X obj -8210 -61 bng 15 250 50 0 empty empty empty 17 7 0 10 -262144
-1 -1;
#X obj -8183 -61 bng 15 250 50 0 empty empty empty 17 7 0 10 -262144
-1 -1;
#X obj -8155 -61 bng 15 250 50 0 empty empty empty 17 7 0 10 -262144
-1 -1;
#X msg -8264 -24 7;
#X msg -8237 -24 8;
#X msg -8210 -24 10;
#X msg -8183 -24 12;
#X msg -8155 -24 14;
#X obj -8128 -61 bng 15 250 50 0 empty empty empty 17 7 0 10 -262144
-1 -1;
#X obj -8101 -61 bng 15 250 50 0 empty empty empty 17 7 0 10 -262144
-1 -1;
#X obj -8074 -61 bng 15 250 50 0 empty empty empty 17 7 0 10 -262144
-1 -1;
#X obj -8047 -61 bng 15 250 50 0 empty empty empty 17 7 0 10 -262144
-1 -1;
#X obj -8020 -61 bng 15 250 50 0 empty empty empty 17 7 0 10 -262144
-1 -1;
#X obj -7992 -61 bng 15 250 50 0 empty empty empty 17 7 0 10 -262144
-1 -1;
#X msg -8128 -24 15;
#X msg -8101 -24 17;
#X msg -8074 -24 19;
#X msg -8047 -24 20;
#X msg -8020 -24 22;
#X msg -7992 -24 24;
#X obj -8886 -180 inlet;
#X obj -8499 55 outlet;
#X obj -8912 -59 bng 15 250 50 0 empty empty empty 17 7 0 10 -262144
-1 -1;
#X obj -8885 -59 bng 15 250 50 0 empty empty empty 17 7 0 10 -262144
-1 -1;
#X msg -8885 -22 0;
#X obj -8858 -59 bng 15 250 50 0 empty empty empty 17 7 0 10 -262144
-1 -1;
#X obj -8831 -59 bng 15 250 50 0 empty empty empty 17 7 0 10 -262144
-1 -1;
#X msg -8858 -22 2;
#X obj -8803 -59 bng 15 250 50 0 empty empty empty 17 7 0 10 -262144
-1 -1;
#X msg -8803 -22 5;
#X obj -8776 -59 bng 15 250 50 0 empty empty empty 17 7 0 10 -262144
-1 -1;
#X obj -8749 -59 bng 15 250 50 0 empty empty empty 17 7 0 10 -262144
-1 -1;
#X obj -8722 -59 bng 15 250 50 0 empty empty empty 17 7 0 10 -262144
-1 -1;
#X obj -8695 -59 bng 15 250 50 0 empty empty empty 17 7 0 10 -262144
-1 -1;
#X obj -8667 -59 bng 15 250 50 0 empty empty empty 17 7 0 10 -262144
-1 -1;
#X msg -8776 -22 7;
#X msg -8695 -22 12;
#X msg -8667 -22 14;
#X obj -8640 -59 bng 15 250 50 0 empty empty empty 17 7 0 10 -262144
-1 -1;
#X obj -8613 -59 bng 15 250 50 0 empty empty empty 17 7 0 10 -262144
-1 -1;
#X obj -8586 -59 bng 15 250 50 0 empty empty empty 17 7 0 10 -262144
-1 -1;
#X obj -8559 -59 bng 15 250 50 0 empty empty empty 17 7 0 10 -262144
-1 -1;
#X obj -8532 -59 bng 15 250 50 0 empty empty empty 17 7 0 10 -262144
-1 -1;
#X obj -8504 -59 bng 15 250 50 0 empty empty empty 17 7 0 10 -262144
-1 -1;
#X msg -8613 -22 17;
#X msg -8586 -22 19;
#X msg -8504 -22 24;
#X msg -8912 -22 -1;
#X msg -8831 -22 4;
#X msg -8749 -22 9;
#X msg -8722 -22 11;
#X msg -8640 -22 16;
#X msg -8559 -22 21;
#X msg -8532 -22 23;
#X obj -8919 -143 gate 3;
#X obj -8825 -160 + 1;
#X obj -8919 -117 sel -2 -1 0 1 2 3 4 5 6 7 8 9 10 11 12 13 14 15 16
17 18 19 20 21 22 23 24 25 26;
#X obj -8406 -117 sel -2 -1 0 1 2 3 4 5 6 7 8 9 10 11 12 13 14 15 16
17 18 19 20 21 22 23 24 25 26;
#X obj -8476 -59 bng 15 250 50 0 empty empty empty 17 7 0 10 -262144
-1 -1;
#X msg -8476 -22 26;
#X obj -7964 -61 bng 15 250 50 0 empty empty empty 17 7 0 10 -262144
-1 -1;
#X msg -7964 -24 26;
#X obj -8825 -184 r \$0Add_seq_key_mode;
#X connect 0 0 1 0;
#X connect 1 0 33 0;
#X connect 2 0 3 0;
#X connect 3 0 33 0;
#X connect 4 0 6 0;
#X connect 5 0 7 0;
#X connect 6 0 33 0;
#X connect 7 0 33 0;
#X connect 8 0 9 0;
#X connect 9 0 33 0;
#X connect 10 0 15 0;
#X connect 11 0 16 0;
#X connect 12 0 17 0;
#X connect 13 0 18 0;
#X connect 14 0 19 0;
#X connect 15 0 33 0;
#X connect 16 0 33 0;
#X connect 17 0 33 0;
#X connect 18 0 33 0;
#X connect 19 0 33 0;
#X connect 20 0 26 0;
#X connect 21 0 27 0;
#X connect 22 0 28 0;
#X connect 23 0 29 0;
#X connect 24 0 30 0;
#X connect 25 0 31 0;
#X connect 26 0 33 0;
#X connect 27 0 33 0;
#X connect 28 0 33 0;
#X connect 29 0 33 0;
#X connect 30 0 33 0;
#X connect 31 0 33 0;
#X connect 32 0 66 1;
#X connect 34 0 59 0;
#X connect 35 0 36 0;
#X connect 36 0 33 0;
#X connect 37 0 39 0;
#X connect 38 0 60 0;
#X connect 39 0 33 0;
#X connect 40 0 41 0;
#X connect 41 0 33 0;
#X connect 42 0 47 0;
#X connect 43 0 61 0;
#X connect 44 0 62 0;
#X connect 45 0 48 0;
#X connect 46 0 49 0;
#X connect 47 0 33 0;
#X connect 48 0 33 0;
#X connect 49 0 33 0;
#X connect 50 0 63 0;
#X connect 51 0 56 0;
#X connect 52 0 57 0;
#X connect 53 0 64 0;
#X connect 54 0 65 0;
#X connect 55 0 58 0;
#X connect 56 0 33 0;
#X connect 57 0 33 0;
#X connect 58 0 33 0;
#X connect 59 0 33 0;
#X connect 60 0 33 0;
#X connect 61 0 33 0;
#X connect 62 0 33 0;
#X connect 63 0 33 0;
#X connect 64 0 33 0;
#X connect 65 0 33 0;
#X connect 66 0 68 0;
#X connect 66 2 69 0;
#X connect 67 0 66 0;
#X connect 68 0 34 0;
#X connect 68 1 34 0;
#X connect 68 2 35 0;
#X connect 68 3 37 0;
#X connect 68 4 37 0;
#X connect 68 5 38 0;
#X connect 68 6 38 0;
#X connect 68 7 40 0;
#X connect 68 8 42 0;
#X connect 68 9 42 0;
#X connect 68 10 43 0;
#X connect 68 11 43 0;
#X connect 68 12 44 0;
#X connect 68 13 44 0;
#X connect 68 14 45 0;
#X connect 68 15 46 0;
#X connect 68 16 46 0;
#X connect 68 17 50 0;
#X connect 68 18 50 0;
#X connect 68 19 51 0;
#X connect 68 20 52 0;
#X connect 68 21 52 0;
#X connect 68 22 53 0;
#X connect 68 23 53 0;
#X connect 68 24 54 0;
#X connect 68 25 54 0;
#X connect 68 26 55 0;
#X connect 68 27 70 0;
#X connect 68 28 70 0;
#X connect 69 0 0 0;
#X connect 69 1 2 0;
#X connect 69 2 2 0;
#X connect 69 3 4 0;
#X connect 69 4 4 0;
#X connect 69 5 5 0;
#X connect 69 6 8 0;
#X connect 69 7 8 0;
#X connect 69 8 10 0;
#X connect 69 9 10 0;
#X connect 69 10 11 0;
#X connect 69 11 12 0;
#X connect 69 12 12 0;
#X connect 69 13 13 0;
#X connect 69 14 13 0;
#X connect 69 15 14 0;
#X connect 69 16 14 0;
#X connect 69 17 20 0;
#X connect 69 18 21 0;
#X connect 69 19 21 0;
#X connect 69 20 22 0;
#X connect 69 21 22 0;
#X connect 69 22 23 0;
#X connect 69 23 24 0;
#X connect 69 24 24 0;
#X connect 69 25 25 0;
#X connect 69 26 25 0;
#X connect 69 27 72 0;
#X connect 69 28 72 0;
#X connect 70 0 71 0;
#X connect 71 0 33 0;
#X connect 72 0 73 0;
#X connect 73 0 33 0;
#X connect 74 0 67 0;
#X restore -56 123 pd trans;
#X obj 40 71 gate 3;
#X obj -96 5 + 1;
#X obj -96 -19 r \$0Add_seq_key_mode;
#X obj 342 -10 r \$0currentseq;
#X msg 102 176 1 0;
#X obj 20 124 + 1;
#X obj 109 90 sel 1;
#N canvas 249 153 1080 323 trans 0;
#X obj -8400 -61 bng 15 250 50 0 empty empty empty 17 7 0 10 -262144
-1 -1;
#X msg -8400 -24 -2;
#X obj -8373 -61 bng 15 250 50 0 empty empty empty 17 7 0 10 -262144
-1 -1;
#X msg -8373 -24 0;
#X obj -8346 -61 bng 15 250 50 0 empty empty empty 17 7 0 10 -262144
-1 -1;
#X obj -8319 -61 bng 15 250 50 0 empty empty empty 17 7 0 10 -262144
-1 -1;
#X msg -8346 -24 2;
#X msg -8319 -24 3;
#X obj -8291 -61 bng 15 250 50 0 empty empty empty 17 7 0 10 -262144
-1 -1;
#X msg -8291 -24 5;
#X obj -8264 -61 bng 15 250 50 0 empty empty empty 17 7 0 10 -262144
-1 -1;
#X obj -8237 -61 bng 15 250 50 0 empty empty empty 17 7 0 10 -262144
-1 -1;
#X obj -8210 -61 bng 15 250 50 0 empty empty empty 17 7 0 10 -262144
-1 -1;
#X obj -8183 -61 bng 15 250 50 0 empty empty empty 17 7 0 10 -262144
-1 -1;
#X obj -8155 -61 bng 15 250 50 0 empty empty empty 17 7 0 10 -262144
-1 -1;
#X msg -8264 -24 7;
#X msg -8237 -24 8;
#X msg -8210 -24 10;
#X msg -8183 -24 12;
#X msg -8155 -24 14;
#X obj -8128 -61 bng 15 250 50 0 empty empty empty 17 7 0 10 -262144
-1 -1;
#X obj -8101 -61 bng 15 250 50 0 empty empty empty 17 7 0 10 -262144
-1 -1;
#X obj -8074 -61 bng 15 250 50 0 empty empty empty 17 7 0 10 -262144
-1 -1;
#X obj -8047 -61 bng 15 250 50 0 empty empty empty 17 7 0 10 -262144
-1 -1;
#X obj -8020 -61 bng 15 250 50 0 empty empty empty 17 7 0 10 -262144
-1 -1;
#X obj -7992 -61 bng 15 250 50 0 empty empty empty 17 7 0 10 -262144
-1 -1;
#X msg -8128 -24 15;
#X msg -8101 -24 17;
#X msg -8074 -24 19;
#X msg -8047 -24 20;
#X msg -8020 -24 22;
#X msg -7992 -24 24;
#X obj -8886 -180 inlet;
#X obj -8499 55 outlet;
#X obj -8912 -59 bng 15 250 50 0 empty empty empty 17 7 0 10 -262144
-1 -1;
#X obj -8885 -59 bng 15 250 50 0 empty empty empty 17 7 0 10 -262144
-1 -1;
#X msg -8885 -22 0;
#X obj -8858 -59 bng 15 250 50 0 empty empty empty 17 7 0 10 -262144
-1 -1;
#X obj -8831 -59 bng 15 250 50 0 empty empty empty 17 7 0 10 -262144
-1 -1;
#X msg -8858 -22 2;
#X obj -8803 -59 bng 15 250 50 0 empty empty empty 17 7 0 10 -262144
-1 -1;
#X msg -8803 -22 5;
#X obj -8776 -59 bng 15 250 50 0 empty empty empty 17 7 0 10 -262144
-1 -1;
#X obj -8749 -59 bng 15 250 50 0 empty empty empty 17 7 0 10 -262144
-1 -1;
#X obj -8722 -59 bng 15 250 50 0 empty empty empty 17 7 0 10 -262144
-1 -1;
#X obj -8695 -59 bng 15 250 50 0 empty empty empty 17 7 0 10 -262144
-1 -1;
#X obj -8667 -59 bng 15 250 50 0 empty empty empty 17 7 0 10 -262144
-1 -1;
#X msg -8776 -22 7;
#X msg -8695 -22 12;
#X msg -8667 -22 14;
#X obj -8640 -59 bng 15 250 50 0 empty empty empty 17 7 0 10 -262144
-1 -1;
#X obj -8613 -59 bng 15 250 50 0 empty empty empty 17 7 0 10 -262144
-1 -1;
#X obj -8586 -59 bng 15 250 50 0 empty empty empty 17 7 0 10 -262144
-1 -1;
#X obj -8559 -59 bng 15 250 50 0 empty empty empty 17 7 0 10 -262144
-1 -1;
#X obj -8532 -59 bng 15 250 50 0 empty empty empty 17 7 0 10 -262144
-1 -1;
#X obj -8504 -59 bng 15 250 50 0 empty empty empty 17 7 0 10 -262144
-1 -1;
#X msg -8613 -22 17;
#X msg -8586 -22 19;
#X msg -8504 -22 24;
#X msg -8912 -22 -1;
#X msg -8831 -22 4;
#X msg -8749 -22 9;
#X msg -8722 -22 11;
#X msg -8640 -22 16;
#X msg -8559 -22 21;
#X msg -8532 -22 23;
#X obj -8919 -143 gate 3;
#X obj -8825 -160 + 1;
#X obj -8919 -117 sel -2 -1 0 1 2 3 4 5 6 7 8 9 10 11 12 13 14 15 16
17 18 19 20 21 22 23 24 25 26;
#X obj -8406 -117 sel -2 -1 0 1 2 3 4 5 6 7 8 9 10 11 12 13 14 15 16
17 18 19 20 21 22 23 24 25 26;
#X obj -8476 -59 bng 15 250 50 0 empty empty empty 17 7 0 10 -262144
-1 -1;
#X msg -8476 -22 26;
#X obj -7964 -61 bng 15 250 50 0 empty empty empty 17 7 0 10 -262144
-1 -1;
#X msg -7964 -24 26;
#X obj -8825 -184 r \$0Add_seq_key_mode;
#X connect 0 0 1 0;
#X connect 1 0 33 0;
#X connect 2 0 3 0;
#X connect 3 0 33 0;
#X connect 4 0 6 0;
#X connect 5 0 7 0;
#X connect 6 0 33 0;
#X connect 7 0 33 0;
#X connect 8 0 9 0;
#X connect 9 0 33 0;
#X connect 10 0 15 0;
#X connect 11 0 16 0;
#X connect 12 0 17 0;
#X connect 13 0 18 0;
#X connect 14 0 19 0;
#X connect 15 0 33 0;
#X connect 16 0 33 0;
#X connect 17 0 33 0;
#X connect 18 0 33 0;
#X connect 19 0 33 0;
#X connect 20 0 26 0;
#X connect 21 0 27 0;
#X connect 22 0 28 0;
#X connect 23 0 29 0;
#X connect 24 0 30 0;
#X connect 25 0 31 0;
#X connect 26 0 33 0;
#X connect 27 0 33 0;
#X connect 28 0 33 0;
#X connect 29 0 33 0;
#X connect 30 0 33 0;
#X connect 31 0 33 0;
#X connect 32 0 66 1;
#X connect 34 0 59 0;
#X connect 35 0 36 0;
#X connect 36 0 33 0;
#X connect 37 0 39 0;
#X connect 38 0 60 0;
#X connect 39 0 33 0;
#X connect 40 0 41 0;
#X connect 41 0 33 0;
#X connect 42 0 47 0;
#X connect 43 0 61 0;
#X connect 44 0 62 0;
#X connect 45 0 48 0;
#X connect 46 0 49 0;
#X connect 47 0 33 0;
#X connect 48 0 33 0;
#X connect 49 0 33 0;
#X connect 50 0 63 0;
#X connect 51 0 56 0;
#X connect 52 0 57 0;
#X connect 53 0 64 0;
#X connect 54 0 65 0;
#X connect 55 0 58 0;
#X connect 56 0 33 0;
#X connect 57 0 33 0;
#X connect 58 0 33 0;
#X connect 59 0 33 0;
#X connect 60 0 33 0;
#X connect 61 0 33 0;
#X connect 62 0 33 0;
#X connect 63 0 33 0;
#X connect 64 0 33 0;
#X connect 65 0 33 0;
#X connect 66 0 68 0;
#X connect 66 2 69 0;
#X connect 67 0 66 0;
#X connect 68 0 34 0;
#X connect 68 1 34 0;
#X connect 68 2 35 0;
#X connect 68 3 37 0;
#X connect 68 4 37 0;
#X connect 68 5 38 0;
#X connect 68 6 38 0;
#X connect 68 7 40 0;
#X connect 68 8 42 0;
#X connect 68 9 42 0;
#X connect 68 10 43 0;
#X connect 68 11 43 0;
#X connect 68 12 44 0;
#X connect 68 13 44 0;
#X connect 68 14 45 0;
#X connect 68 15 46 0;
#X connect 68 16 46 0;
#X connect 68 17 50 0;
#X connect 68 18 50 0;
#X connect 68 19 51 0;
#X connect 68 20 52 0;
#X connect 68 21 52 0;
#X connect 68 22 53 0;
#X connect 68 23 53 0;
#X connect 68 24 54 0;
#X connect 68 25 54 0;
#X connect 68 26 55 0;
#X connect 68 27 70 0;
#X connect 68 28 70 0;
#X connect 69 0 0 0;
#X connect 69 1 2 0;
#X connect 69 2 2 0;
#X connect 69 3 4 0;
#X connect 69 4 4 0;
#X connect 69 5 5 0;
#X connect 69 6 8 0;
#X connect 69 7 8 0;
#X connect 69 8 10 0;
#X connect 69 9 10 0;
#X connect 69 10 11 0;
#X connect 69 11 12 0;
#X connect 69 12 12 0;
#X connect 69 13 13 0;
#X connect 69 14 13 0;
#X connect 69 15 14 0;
#X connect 69 16 14 0;
#X connect 69 17 20 0;
#X connect 69 18 21 0;
#X connect 69 19 21 0;
#X connect 69 20 22 0;
#X connect 69 21 22 0;
#X connect 69 22 23 0;
#X connect 69 23 24 0;
#X connect 69 24 24 0;
#X connect 69 25 25 0;
#X connect 69 26 25 0;
#X connect 69 27 72 0;
#X connect 69 28 72 0;
#X connect 70 0 71 0;
#X connect 71 0 33 0;
#X connect 72 0 73 0;
#X connect 73 0 33 0;
#X connect 74 0 67 0;
#X restore 331 278 pd trans;
#X obj 332 237 list split 1;
#X obj 332 154 until;
#X obj 332 192 list append;
#X obj 358 121 t b l;
#X obj 456 211 bang;
#X obj 510 302 f;
#X obj 555 302 + 1;
#X msg 507 218 0;
#X obj 518 267 bng 15 250 50 0 empty empty empty 17 7 0 10 -262144
-1 -1;
#X obj 331 349 pack f f;
#X obj 347 25 t l b;
#N canvas 794 84 450 300 seed 0;
#X obj 47 48 loadbang;
#X obj 47 83 time;
#X obj 68 107 * 1000;
#X msg 68 145 seed \$1;
#X obj 68 176 outlet;
#X connect 0 0 1 0;
#X connect 1 3 2 0;
#X connect 2 0 3 0;
#X connect 3 0 4 0;
#X restore 717 0 pd seed;
#X obj 627 -174 until;
#X obj 627 -148 f;
#X obj 657 -148 + 1;
#X msg 627 -197 16;
#X msg 743 -171 0;
#X obj 711 -122 sel 16;
#X obj 712 -99 del 1;
#X obj 626 -55 allow 1 2 3 4 5 6 7 8 9 10 11 12 13 14 15 16;
#X obj 680 140 / 127;
#X obj 635 167 pack;
#X obj 636 212 outlet;
#X obj 798 21 sel 2;
#X msg 796 58 1 1;
#X obj 678 -13 bng 15 250 50 0 empty empty empty 17 7 0 10 -262144
-1 -1;
#X obj 680 116 zl nth;
#X obj 693 30 random 25;
#X msg 680 80 0 0 0 0 0 0 0 10 20 30 40 50 60 70 80 90 100 110 120
127 127 127 127 127 127;
#X connect 0 0 9 0;
#X connect 0 0 5 0;
#X connect 0 1 1 1;
#X connect 1 0 7 0;
#X connect 2 0 7 0;
#X connect 2 1 3 0;
#X connect 3 0 1 1;
#X connect 4 0 2 0;
#X connect 4 0 8 0;
#X connect 5 0 26 0;
#X connect 5 0 27 0;
#X connect 6 0 16 0;
#X connect 7 0 0 0;
#X connect 7 0 1 0;
#X connect 8 0 18 0;
#X connect 9 0 12 0;
#X connect 9 0 13 0;
#X connect 10 0 11 0;
#X connect 11 0 21 1;
#X connect 12 0 10 0;
#X connect 13 0 10 1;
#X connect 14 0 6 0;
#X connect 17 0 4 0;
#X connect 17 0 44 0;
#X connect 19 0 13 0;
#X connect 20 0 6 1;
#X connect 21 0 20 0;
#X connect 21 1 6 1;
#X connect 21 2 20 0;
#X connect 22 0 21 0;
#X connect 23 0 22 0;
#X connect 24 0 39 0;
#X connect 25 0 16 0;
#X connect 26 0 14 0;
#X connect 27 0 25 0;
#X connect 28 0 38 1;
#X connect 28 0 37 0;
#X connect 29 0 28 0;
#X connect 29 1 31 1;
#X connect 29 2 33 0;
#X connect 30 0 31 0;
#X connect 31 0 29 0;
#X connect 32 0 30 0;
#X connect 32 1 31 1;
#X connect 33 0 30 1;
#X connect 34 0 35 0;
#X connect 34 0 38 0;
#X connect 35 0 34 1;
#X connect 36 0 34 0;
#X connect 37 0 34 0;
#X connect 38 0 16 0;
#X connect 39 0 32 0;
#X connect 39 1 36 0;
#X connect 40 0 56 0;
#X connect 41 0 42 0;
#X connect 42 0 43 0;
#X connect 42 0 46 0;
#X connect 42 0 48 0;
#X connect 42 0 52 0;
#X connect 43 0 42 1;
#X connect 44 0 41 0;
#X connect 45 0 42 0;
#X connect 46 0 47 0;
#X connect 47 0 45 0;
#X connect 48 0 50 0;
#X connect 48 0 54 0;
#X connect 49 0 50 1;
#X connect 50 0 51 0;
#X connect 52 0 53 0;
#X connect 53 0 51 0;
#X connect 54 0 57 0;
#X connect 54 0 56 0;
#X connect 55 0 49 0;
#X connect 56 0 55 1;
#X connect 57 0 55 0;
#X restore 344 -73 pd addmakesequence;
#X obj 169 28 bng 15 250 50 0 empty \$0Add_seqdrawreset empty 17 7
0 10 -262144 -1 -1;
#N canvas 720 0 704 802 Sequencer_Guts 0;
#X obj 37 142 % 16;
#X obj 37 118 counter;
#X obj 37 -169 tgl 15 0 empty empty empty 17 7 0 10 -66577 -260097
-1 0 1;
#X obj 37 -100 metro;
#X floatatom 37 164 5 0 0 0 - - -, f 5;
#N canvas 298 53 565 171 addseqdirection 0;
#X msg 27 66 1;
#X msg 147 65 0;
#X text 337 58 Hier Erklärung;
#X obj 90 101 outlet;
#X obj 27 25 r \$0Add_seqDirBack;
#X obj 147 24 r \$0Add_seqDirFor;
#X obj 206 48 r \$0Add_trigseq;
#X connect 0 0 3 0;
#X connect 1 0 3 0;
#X connect 4 0 0 0;
#X connect 5 0 1 0;
#X connect 6 0 1 0;
#X restore -100 101 pd addseqdirection;
#X obj -26 -52 bng 15 250 50 0 empty empty empty 17 7 0 10 -66577 -1
-1;
#X obj 64 -173 /;
#X msg 64 -192 60000;
#X floatatom 64 -151 10 0 0 0 - - -, f 10;
#X obj 64 -216 t b f;
#N canvas 566 325 285 266 scale 0;
#X obj 24 63 inlet;
#X msg 24 159 1;
#X msg 64 159 2;
#X msg 104 159 4;
#X obj 24 237 outlet;
#X obj 104 124 sel 4;
#X obj 64 124 sel 3;
#X obj 24 124 sel 2;
#X obj -56 124 sel 0;
#X obj -16 124 sel 1;
#X msg -16 159 0.5;
#X obj -56 159 0.25;
#X connect 0 0 5 0;
#X connect 0 0 6 0;
#X connect 0 0 7 0;
#X connect 0 0 9 0;
#X connect 0 0 8 0;
#X connect 1 0 4 0;
#X connect 2 0 4 0;
#X connect 3 0 4 0;
#X connect 5 0 3 0;
#X connect 6 0 2 0;
#X connect 7 0 1 0;
#X connect 8 0 11 0;
#X connect 9 0 10 0;
#X connect 10 0 4 0;
#X connect 11 0 4 0;
#X restore 169 -214 pd scale;
#X obj 64 -130 /;
#X obj 169 -193 t b f;
#N canvas 347 206 508 500 seqnote 0;
#X floatatom 209 192 5 0 100 0 - - -, f 5;
#X floatatom 83 301 5 0 1 0 - - -, f 5;
#X text 314 145 Aufräumen und Erläutern;
#X obj 139 85 > 0;
#X obj 38 85 > 0;
#X obj 38 208 + 1;
#X obj 139 208 - 1;
#X obj 38 114 sel 1;
#X obj 139 114 sel 1;
#X obj 154 329 loadbang;
#X obj 83 338 clip 0 4;
#X msg 154 350 2;
#X obj 38 48 r \$0Add_seqSpeed+;
#X obj 139 48 r \$0Add_seqSpeed-;
#X obj 209 222 s \$0Add_seq_skalar_ctl;
#X obj 209 167 v \$0seqt;
#X obj 83 367 v \$0seqt;
#X obj 83 254 r \$0Add_seq_skalar_ctl;
#X connect 0 0 5 0;
#X connect 0 0 6 0;
#X connect 0 0 14 0;
#X connect 1 0 10 0;
#X connect 3 0 8 0;
#X connect 4 0 7 0;
#X connect 5 0 1 0;
#X connect 6 0 1 0;
#X connect 7 0 5 0;
#X connect 7 0 15 0;
#X connect 8 0 6 0;
#X connect 8 0 15 0;
#X connect 9 0 11 0;
#X connect 9 0 15 0;
#X connect 10 0 16 0;
#X connect 11 0 16 0;
#X connect 12 0 4 0;
#X connect 13 0 3 0;
#X connect 15 0 0 0;
#X connect 17 0 1 0;
#X restore 624 -226 pd seqnote;
#X obj 37 191 spigot;
#X floatatom 83 174 5 0 0 0 - - -, f 5;
#N canvas 206 126 450 300 select 0;
#X obj 100 65 sel 0 1 2 3 4 5 6 7 8 9 10 11 12 13 14 15;
#X obj 219 121 sel 0 2 4 6 8 10 12 14;
#X obj 297 166 sel 0 4 8 12;
#X obj 23 185 sel 0 8;
#X obj -18 156 sel 0;
#X obj 70 8 inlet;
#X obj 62 266 bng 15 250 50 0 empty empty empty 17 7 0 10 -262144 -1
-1;
#X floatatom 123 24 5 0 0 0 - - -, f 5;
#X obj 34 59 gate 5;
#X obj 109 42 + 1;
#X obj 61 284 outlet;
#X obj 124 3 r \$0Add_seq_skalar;
#X connect 0 0 6 0;
#X connect 0 1 6 0;
#X connect 0 2 6 0;
#X connect 0 3 6 0;
#X connect 0 4 6 0;
#X connect 0 5 6 0;
#X connect 0 6 6 0;
#X connect 0 7 6 0;
#X connect 0 8 6 0;
#X connect 0 9 6 0;
#X connect 0 10 6 0;
#X connect 0 11 6 0;
#X connect 0 12 6 0;
#X connect 0 13 6 0;
#X connect 0 14 6 0;
#X connect 0 15 6 0;
#X connect 1 0 6 0;
#X connect 1 1 6 0;
#X connect 1 2 6 0;
#X connect 1 3 6 0;
#X connect 1 4 6 0;
#X connect 1 5 6 0;
#X connect 1 6 6 0;
#X connect 1 7 6 0;
#X connect 2 0 6 0;
#X connect 2 1 6 0;
#X connect 2 2 6 0;
#X connect 2 3 6 0;
#X connect 3 0 6 0;
#X connect 3 1 6 0;
#X connect 4 0 6 0;
#X connect 5 0 8 1;
#X connect 6 0 10 0;
#X connect 7 0 9 0;
#X connect 8 0 4 0;
#X connect 8 1 3 0;
#X connect 8 2 2 0;
#X connect 8 3 1 0;
#X connect 8 4 0 0;
#X connect 9 0 8 0;
#X connect 11 0 7 0;
#X restore 297 -42 pd select;
#X floatatom 297 -75 5 0 0 0 - - -, f 5;
#X obj 297 -14 bng 15 250 50 0 empty empty empty 17 7 0 10 -262144
-1 -1;
#X floatatom 453 -267 5 0 0 0 - - -, f 5;
#X floatatom 420 305 5 0 0 0 - - -, f 5;
#X obj 433 280 t b f;
#X obj -26 -77 sel 1;
#X obj 420 330 * 1;
#N canvas 579 82 450 300 notoneinput 0;
#X obj 93 108 inlet;
#X obj 93 136 sel 1;
#X msg 93 160 0;
#X obj 82 194 s \$0Add_notein1_ctl;
#X obj 83 214 s \$0Add_notein2_ctl;
#X obj 81 235 s \$0Add_notein3_ctl;
#X obj 83 260 s \$0Add_notein4_ctl;
#X obj 81 282 s \$0Add_notein5_ctl;
#X connect 0 0 1 0;
#X connect 1 0 2 0;
#X connect 2 0 3 0;
#X connect 2 0 4 0;
#X connect 2 0 5 0;
#X connect 2 0 6 0;
#X connect 2 0 7 0;
#X restore 306 -259 pd notoneinput;
#X obj 37 233 outlet;
#X floatatom 342 289 8 0 0 0 - - -, f 8;
#X obj 453 -145 f;
#X obj 37 -276 r \$0Add_trigseq;
#X obj 453 -124 s \$0Add_seqtemp;
#X obj 542 297 s \$0Add_seqduration_show;
#X obj 451 248 r \$0Add_seqduration;
#X obj 516 334 s \$0Add_seq_noteduration;
#X obj 78 71 r \$0Add_seqtimereset;
#X obj 92 -98 s \$0Add_seq_temp_ms;
#X obj 64 -240 r \$0Add_seqtemp;
#X obj 83 154 r \$0Add_trigseq;
#X obj 169 -240 r \$0Add_seq_skalar;
#X obj 297 -102 r \$0LoopPulse;
#X obj 38 54 spigot;
#X msg 88 17 1;
#X obj 131 11 loadbang;
#X obj -26 -98 == 1;
#X obj -60 -148 sel 0;
#X obj 453 -290 r \$0Add_network_bpm;
#X obj 420 355 s \$0duration;
#X obj 253 57 spigot;
#X msg 379 41 1;
#X msg 416 45 0;
#X obj 379 -10 r \$0connect;
#X obj 379 12 sel 1 0;
#X obj 453 -222 spigot;
#X obj 51 -33 r \$0connect;
#X obj 51 -11 sel 1 0;
#X msg 52 26 0;
#X obj -92 -31 r \$0connect;
#X obj -26 13 spigot;
#X obj 119 117 r \$0numbersteps;
#X connect 0 0 4 0;
#X connect 1 0 0 0;
#X connect 2 0 3 0;
#X connect 3 0 40 0;
#X connect 4 0 15 0;
#X connect 5 0 1 1;
#X connect 6 0 57 0;
#X connect 7 0 9 0;
#X connect 8 0 7 0;
#X connect 9 0 12 0;
#X connect 10 0 8 0;
#X connect 10 1 7 1;
#X connect 11 0 13 0;
#X connect 12 0 3 1;
#X connect 12 0 35 0;
#X connect 12 0 27 0;
#X connect 13 0 9 0;
#X connect 13 1 12 1;
#X connect 15 0 26 0;
#X connect 16 0 15 1;
#X connect 17 0 19 0;
#X connect 18 0 17 0;
#X connect 19 0 47 0;
#X connect 20 0 52 0;
#X connect 21 0 24 0;
#X connect 21 0 33 0;
#X connect 22 0 21 0;
#X connect 22 1 24 1;
#X connect 22 1 31 0;
#X connect 23 0 6 0;
#X connect 24 0 46 0;
#X connect 27 0 21 0;
#X connect 28 0 30 0;
#X connect 29 0 25 0;
#X connect 29 0 2 0;
#X connect 29 0 43 0;
#X connect 29 0 44 0;
#X connect 32 0 22 0;
#X connect 34 0 1 2;
#X connect 36 0 10 0;
#X connect 37 0 16 0;
#X connect 38 0 11 0;
#X connect 39 0 18 0;
#X connect 40 0 1 0;
#X connect 41 0 40 1;
#X connect 42 0 41 0;
#X connect 43 0 23 0;
#X connect 44 0 1 2;
#X connect 45 0 20 0;
#X connect 47 0 1 0;
#X connect 48 0 47 1;
#X connect 48 0 52 1;
#X connect 49 0 47 1;
#X connect 49 0 52 1;
#X connect 50 0 51 0;
#X connect 51 0 48 0;
#X connect 51 1 49 0;
#X connect 52 0 28 0;
#X connect 53 0 54 0;
#X connect 54 0 55 0;
#X connect 54 1 41 0;
#X connect 55 0 40 1;
#X connect 56 0 57 1;
#X connect 57 0 1 2;
#X connect 58 0 0 1;
#X restore -64 253 pd Sequencer_Guts;
#N canvas 395 22 632 754 Sequencer_Output 0;
#X floatatom -425 95 5 0 0 0 - - -, f 5;
#X floatatom -280 89 5 0 0 0 - - -, f 5;
#X obj -280 56 inlet;
#X obj -425 58 inlet;
#X obj -280 109 * 127;
#X obj -425 166 +;
#X obj -410 140 r \$0MidiBase;
#X obj -425 241 s \$0freqout;
#X obj -425 206 mtof;
#X obj -280 156 s \$0ampout;
#X connect 0 0 5 0;
#X connect 1 0 4 0;
#X connect 2 0 1 0;
#X connect 3 0 0 0;
#X connect 4 0 9 0;
#X connect 5 0 8 0;
#X connect 6 0 5 1;
#X connect 8 0 7 0;
#X restore 101 419 pd Sequencer_Output;
#X msg 169 55 init;
#X msg 234 54 pitch \$1 \$2;
#X obj 220 -259 bng 15 250 50 0 empty empty empty 17 7 0 10 -262144
-1 -1;
#N canvas 482 337 498 304 network 0;
#X obj -116 138 int;
#X obj -116 164 spigot;
#X obj -116 118 r \$0Add_seqtempfloat;
#X obj -116 194 s \$0Add_seqtemp;
#X msg -62 66 0;
#X msg -26 63 1;
#X obj 17 57 loadbang;
#X obj -88 -8 r LoopEnsembleConnectLocal;
#X obj 0 17 r LoopEnsembleDisconnect;
#X obj -85 37 r LoopEnsembleConnect;
#X connect 0 0 1 0;
#X connect 1 0 3 0;
#X connect 2 0 0 0;
#X connect 4 0 1 1;
#X connect 5 0 1 1;
#X connect 6 0 5 0;
#X connect 7 0 4 0;
#X connect 8 0 5 0;
#X connect 9 0 4 0;
#X restore -50 15 pd network;
#X obj 266 -153 f;
#X obj 304 -153 + 1;
#X obj 266 -176 until;
#X floatatom 266 -129 5 0 0 0 - - -, f 5;
#X obj 99 4 mux 2;
#X floatatom 127 -121 5 0 0 0 - - -, f 5;
#X msg 127 -201 1;
#X msg 159 -148 0;
#X obj 633 431 list-lastx;
#X obj 633 454 list-rev;
#X obj 758 431 list-lastx;
#X obj 758 454 list-rev;
#X msg 765 345 16;
#X msg 358 -195 0;
#X msg 266 -197 16;
#X msg 367 54 volume \$1 \$2;
#X obj 633 389 mux 2;
#X obj 758 405 mux 2;
#N canvas 448 149 482 345 loadSequence 0;
#X obj 65 195 outlet;
#X obj 147 134 zl nth;
#X obj 351 52 f;
#X obj 389 52 + 1;
#X obj 351 29 until;
#X obj 65 151 pack;
#X obj 147 81 list;
#X floatatom 351 76 5 0 0 0 - - -, f 5;
#X obj 257 92 t f b f;
#X obj 351 -87 bng 15 250 50 0 empty empty empty 17 7 0 10 -262144
-1 -1;
#X obj 351 -22 del 20;
#X msg 351 8 16;
#X msg 448 35 1;
#X obj 168 -104 r \$0Add_seq_pitchlist_load;
#X text 46 40 HIER VERÄNDERT;
#X obj 65 109 - 0;
#X connect 1 0 5 1;
#X connect 2 0 3 0;
#X connect 2 0 7 0;
#X connect 3 0 2 1;
#X connect 4 0 2 0;
#X connect 5 0 0 0;
#X connect 6 0 1 0;
#X connect 7 0 8 0;
#X connect 8 0 15 0;
#X connect 8 1 6 0;
#X connect 8 2 1 1;
#X connect 9 0 12 0;
#X connect 9 0 10 0;
#X connect 10 0 11 0;
#X connect 11 0 4 0;
#X connect 12 0 2 1;
#X connect 13 0 6 1;
#X connect 13 0 9 0;
#X connect 15 0 5 0;
#X restore 234 -7 pd loadSequence;
#N canvas 402 23 450 300 loadVolume 0;
#X obj -5800 -60 zl nth;
#X obj -5596 -142 f;
#X obj -5558 -142 + 1;
#X obj -5596 -165 until;
#X obj -5882 -43 pack;
#X obj -5800 -113 list;
#X floatatom -5596 -118 5 0 0 0 - - -, f 5;
#X obj -5690 -102 t f b f;
#X obj -5596 -281 bng 15 250 50 0 empty empty empty 17 7 0 10 -262144
-1 -1;
#X obj -5596 -216 del 20;
#X msg -5596 -186 16;
#X msg -5499 -159 1;
#X obj -5882 -19 outlet;
#X obj -5779 -298 r \$0Add_seq_vollist_load;
#X obj -5882 -85 - 0;
#X connect 0 0 4 1;
#X connect 1 0 2 0;
#X connect 1 0 6 0;
#X connect 2 0 1 1;
#X connect 3 0 1 0;
#X connect 4 0 12 0;
#X connect 5 0 0 0;
#X connect 6 0 7 0;
#X connect 7 0 14 0;
#X connect 7 1 5 0;
#X connect 7 2 0 1;
#X connect 8 0 11 0;
#X connect 8 0 9 0;
#X connect 9 0 10 0;
#X connect 10 0 3 0;
#X connect 11 0 1 1;
#X connect 13 0 5 1;
#X connect 13 0 8 0;
#X connect 14 0 4 0;
#X restore 367 -7 pd loadVolume;
#X text 384 -158 Wenn der SaveBang kommt \, wird die Pianoroll kurz
vom Counter getrennt und gibt ihren ganzen Inhalt aus.;
#X text 574 510 Hier wird der Inhalt der Pianoroll beim Speichern in
Listen aufgenommen;
#N canvas 737 16 450 300 savebangs 0;
#X obj 50 249 outlet;
#X msg 116 150 1;
#X msg 126 160 2;
#X msg 136 170 3;
#X msg 146 180 4;
#X msg 156 190 5;
#X msg 166 200 6;
#X msg 176 210 7;
#X msg 186 220 8;
#X obj 116 86 r \$0Add_seqpreset1_sav;
#X obj 126 96 r \$0Add_seqpreset2_sav;
#X obj 135 105 r \$0Add_seqpreset3_sav;
#X obj 146 116 r \$0Add_seqpreset4_sav;
#X obj 156 126 r \$0Add_seqpreset5_sav;
#X obj 166 136 r \$0Add_seqpreset6_sav;
#X obj 176 146 r \$0Add_seqpreset7_sav;
#X obj 186 156 r \$0Add_seqpreset8_sav;
#X obj 161 251 s \$0Add_saveNr;
#X connect 1 0 17 0;
#X connect 2 0 17 0;
#X connect 3 0 17 0;
#X connect 4 0 17 0;
#X connect 5 0 17 0;
#X connect 6 0 17 0;
#X connect 7 0 17 0;
#X connect 8 0 17 0;
#X connect 9 0 0 0;
#X connect 9 0 1 0;
#X connect 10 0 0 0;
#X connect 10 0 2 0;
#X connect 11 0 0 0;
#X connect 11 0 3 0;
#X connect 12 0 0 0;
#X connect 12 0 4 0;
#X connect 13 0 0 0;
#X connect 13 0 5 0;
#X connect 14 0 0 0;
#X connect 14 0 6 0;
#X connect 15 0 0 0;
#X connect 15 0 7 0;
#X connect 16 0 0 0;
#X connect 16 0 8 0;
#X restore 220 -286 pd savebangs;
#X floatatom 863 339 5 0 0 0 - - -, f 5;
#N canvas 376 96 880 643 AddSaveSequence 0;
#X obj 84 28 inlet;
#X obj 15 103 route 1 2 3 4 5 6 7 8;
#X obj 10 -100 list;
#X obj 149 -100 list;
#X obj 247 -100 list;
#X obj 385 -214 t b f;
#X obj 495 -214 t b f;
#X obj 268 -152 pack f f f;
#X obj 115 -136 t b b b;
#X obj -6 161 list;
#X obj 4 171 list;
#X obj 14 181 list;
#X obj 24 191 list;
#X obj 34 201 list;
#X obj 44 211 list;
#X obj 54 221 list;
#X obj 64 231 list;
#X obj 117 -55 list append;
#X obj 15 -27 list append;
#X obj 15 76 list prepend;
#X obj 8 296 list split 16;
#X obj 45 319 list split 16;
#X obj 82 421 unpack f f f;
#X obj 65 -166 del 20;
#X obj 8 268 spigot;
#X obj -240 66 t b b b b b b b b b;
#X msg 146 283 1;
#X msg 108 228 0;
#X floatatom 74 262 5 0 0 0 - - -, f 5;
#X obj 146 221 loadbang;
#X obj 145 255 del 20;
#X obj -240 44 del 5;
#X obj -185 -97 r \$0Add_seq_save_bang;
#X obj 185 96 r \$0Add_seqpreset1;
#X obj 198 115 r \$0Add_seqpreset2;
#X obj 214 134 r \$0Add_seqpreset3;
#X obj 228 154 r \$0Add_seqpreset4;
#X obj 237 174 r \$0Add_seqpreset5;
#X obj 250 194 r \$0Add_seqpreset6;
#X obj 261 214 r \$0Add_seqpreset7;
#X obj 278 235 r \$0Add_seqpreset8;
#X obj 8 363 s \$0Add_seq_pitchlist_load;
#X obj 45 388 s \$0Add_seq_vollist_load;
#X obj 82 460 s \$0Add_seqduration_ctl;
#X obj 221 460 s \$0Add_seq_skalar_ctl;
#X obj 357 459 s \$0Add_seq_key_mode_ctl;
#X obj 268 -237 r \$0Add_seqduration;
#X obj 385 -237 r \$0Add_seq_skalar;
#X obj 495 -237 r \$0Add_seq_key_mode;
#X obj 170 -195 r \$0Add_seq_vollist;
#X obj 31 -196 r \$0Add_seq_pitchlist;
#X obj -175 359 s \$0Add_SeqListsSave;
#X obj 184 59 r \$0Add_StartupSeqPresets;
#X obj -214 -12 r \$0tempbang_sav;
#X connect 0 0 19 1;
#X connect 1 0 9 1;
#X connect 1 1 10 1;
#X connect 1 2 11 1;
#X connect 1 3 12 1;
#X connect 1 4 13 1;
#X connect 1 5 14 1;
#X connect 1 6 15 1;
#X connect 1 7 16 1;
#X connect 2 0 18 0;
#X connect 3 0 17 0;
#X connect 4 0 17 1;
#X connect 5 0 7 0;
#X connect 5 1 7 1;
#X connect 6 0 7 0;
#X connect 6 1 7 2;
#X connect 7 0 4 1;
#X connect 8 0 2 0;
#X connect 8 1 3 0;
#X connect 8 2 4 0;
#X connect 9 0 24 0;
#X connect 9 0 51 0;
#X connect 10 0 24 0;
#X connect 10 0 51 0;
#X connect 11 0 24 0;
#X connect 11 0 51 0;
#X connect 12 0 24 0;
#X connect 12 0 51 0;
#X connect 13 0 24 0;
#X connect 13 0 51 0;
#X connect 14 0 24 0;
#X connect 14 0 51 0;
#X connect 15 0 24 0;
#X connect 15 0 51 0;
#X connect 16 0 24 0;
#X connect 16 0 51 0;
#X connect 17 0 18 1;
#X connect 18 0 19 0;
#X connect 19 0 1 0;
#X connect 20 0 41 0;
#X connect 20 1 21 0;
#X connect 21 0 42 0;
#X connect 21 1 22 0;
#X connect 22 0 43 0;
#X connect 22 1 44 0;
#X connect 22 2 45 0;
#X connect 23 0 8 0;
#X connect 24 0 20 0;
#X connect 25 0 16 0;
#X connect 25 1 15 0;
#X connect 25 2 14 0;
#X connect 25 3 13 0;
#X connect 25 4 12 0;
#X connect 25 5 11 0;
#X connect 25 6 10 0;
#X connect 25 7 9 0;
#X connect 25 8 27 0;
#X connect 26 0 28 0;
#X connect 27 0 28 0;
#X connect 27 0 30 0;
#X connect 28 0 24 1;
#X connect 29 0 30 0;
#X connect 30 0 26 0;
#X connect 31 0 25 0;
#X connect 32 0 31 0;
#X connect 33 0 9 0;
#X connect 34 0 10 0;
#X connect 35 0 11 0;
#X connect 36 0 12 0;
#X connect 37 0 13 0;
#X connect 38 0 14 0;
#X connect 39 0 15 0;
#X connect 40 0 16 0;
#X connect 46 0 7 0;
#X connect 47 0 5 0;
#X connect 48 0 6 0;
#X connect 49 0 3 1;
#X connect 50 0 2 1;
#X connect 50 0 23 0;
#X connect 52 0 1 0;
#X connect 53 0 31 0;
#X restore 863 412 pd AddSaveSequence;
#X obj 159 -174 del 10;
#X obj 220 -234 t b b b;
#X obj 667 119 loadbang;
#X obj 633 488 s \$0Add_seq_pitchlist;
#X obj 758 488 s \$0Add_seq_vollist;
#X obj 765 269 r \$0Add_saveNr;
#N canvas 0 0 1440 818 \$0sequencer 0;
#X obj 539 103 vsl 10 212 0 1 0 0 \$0step16vol empty empty 0 -9 0 10
-262144 -258049 -1 21100 0;
#X obj 521 103 vsl 17 212 -2.5 26.5 0 0 \$0step16pitch empty empty
0 -9 0 10 -1 -260097 -1 1819 0;
#X obj 511 103 vsl 10 212 0 1 0 0 \$0step15vol empty empty 0 -9 0 10
-262144 -258049 -1 21100 0;
#X obj 493 103 vsl 17 212 -2.5 26.5 0 0 \$0step15pitch empty empty
0 -9 0 10 -1 -260097 -1 1819 0;
#X obj 483 103 vsl 10 212 0 1 0 0 \$0step14vol empty empty 0 -9 0 10
-262144 -258049 -1 21100 0;
#X obj 465 103 vsl 17 212 -2.5 26.5 0 0 \$0step14pitch empty empty
0 -9 0 10 -1 -260097 -1 1819 0;
#X obj 455 103 vsl 10 212 0 1 0 0 \$0step13vol empty empty 0 -9 0 10
-262144 -258049 -1 21100 0;
#X obj 437 103 vsl 17 212 -2.5 26.5 0 0 \$0step13pitch empty empty
0 -9 0 10 -1 -260097 -1 1819 0;
#X obj 427 103 vsl 10 212 0 1 0 0 \$0step12vol empty empty 0 -9 0 10
-262144 -258049 -1 21100 0;
#X obj 409 103 vsl 17 212 -2.5 26.5 0 0 \$0step12pitch empty empty
0 -9 0 10 -1 -260097 -1 1819 0;
#X obj 399 103 vsl 10 212 0 1 0 0 \$0step11vol empty empty 0 -9 0 10
-262144 -258049 -1 21100 0;
#X obj 381 103 vsl 17 212 -2.5 26.5 0 0 \$0step11pitch empty empty
0 -9 0 10 -1 -260097 -1 1819 0;
#X obj 371 103 vsl 10 212 0 1 0 0 \$0step10vol empty empty 0 -9 0 10
-262144 -258049 -1 21100 0;
#X obj 353 103 vsl 17 212 -2.5 26.5 0 0 \$0step10pitch empty empty
0 -9 0 10 -1 -260097 -1 1819 0;
#X obj 343 103 vsl 10 212 0 1 0 0 \$0step9vol empty empty 0 -9 0 10
-262144 -258049 -1 21100 0;
#X obj 325 103 vsl 17 212 -2.5 26.5 0 0 \$0step9pitch empty empty 0
-9 0 10 -1 -260097 -1 1819 0;
#X obj 315 103 vsl 10 212 0 1 0 0 \$0step8vol empty empty 0 -9 0 10
-262144 -258049 -1 21100 0;
#X obj 297 103 vsl 17 212 -2.5 26.5 0 0 \$0step8pitch empty empty 0
-9 0 10 -1 -260097 -1 6900 0;
#X obj 287 103 vsl 10 212 0 1 0 0 \$0step7vol empty empty 0 -9 0 10
-262144 -258049 -1 21100 0;
#X obj 269 103 vsl 17 212 -2.5 26.5 0 0 \$0step7pitch empty empty 0
-9 0 10 -1 -260097 -1 6000 0;
#X obj 259 103 vsl 10 212 0 1 0 0 \$0step6vol empty empty 0 -9 0 10
-262144 -258049 -1 21100 0;
#X obj 241 103 vsl 17 212 -2.5 26.5 0 0 \$0step6pitch empty empty 0
-9 0 10 -1 -260097 -1 7200 0;
#X obj 231 103 vsl 10 212 0 1 0 0 \$0step5vol empty empty 0 -9 0 10
-262144 -258049 -1 21100 0;
#X obj 213 103 vsl 17 212 -2.5 26.5 0 0 \$0step5pitch empty empty 0
-9 0 10 -1 -260097 -1 6000 0;
#X obj 203 103 vsl 10 212 0 1 0 0 \$0step4vol empty empty 0 -9 0 10
-262144 -258049 -1 21100 0;
#X obj 185 103 vsl 17 212 -2.5 26.5 0 0 \$0step4pitch empty empty 0
-9 0 10 -1 -260097 -1 5800 0;
#X obj 175 103 vsl 10 212 0 1 0 0 \$0step3vol empty empty 0 -9 0 10
-262144 -258049 -1 21100 0;
#X obj 157 103 vsl 17 212 -2.5 26.5 0 0 \$0step3pitch empty empty 0
-9 0 10 -1 -260097 -1 4100 0;
#X obj 147 103 vsl 10 212 0 1 0 0 \$0step2vol empty empty 0 -9 0 10
-262144 -258049 -1 21100 0;
#X obj 129 103 vsl 17 212 -2.5 26.5 0 0 \$0step2pitch empty empty 0
-9 0 10 -1 -260097 -1 8600 0;
#X obj 119 103 vsl 10 212 0 1 0 0 \$0step1vol empty empty 0 -9 0 10
-262144 -258049 -1 21100 0;
#X obj 101 103 vsl 17 212 -2.5 26.5 0 0 \$0step1pitch empty empty 0
-9 0 10 -1 -260097 -1 11700 0;
#X obj 101 321 nbx 2 14 -1e+037 1e+037 0 0 empty \$0step1pitch_int
empty 0 -8 0 10 -262144 -1 -1 14 256 0;
#X obj 129 321 nbx 2 14 -1e+037 1e+037 0 0 empty \$0step2pitch_int
empty 0 -8 0 10 -262144 -1 -1 9 256 0;
#X obj 101 335 bng 28 130 30 0 empty \$0Step1Bang empty 17 7 0 10 -1
-260097 -260097;
#X obj 158 321 nbx 2 14 -1e+037 1e+037 0 0 empty \$0step3pitch_int
empty 0 -8 0 10 -262144 -1 -1 3 256 0;
#X obj 185 321 nbx 2 14 -1e+037 1e+037 0 0 empty \$0step4pitch_int
empty 0 -8 0 10 -262144 -1 -1 5 256 0;
#X obj 213 321 nbx 2 14 -1e+037 1e+037 0 0 empty \$0step5pitch_int
empty 0 -8 0 10 -262144 -1 -1 6 256 0;
#X obj 241 321 nbx 2 14 -1e+037 1e+037 0 0 empty \$0step6pitch_int
empty 0 -8 0 10 -262144 -1 -1 7 256 0;
#X obj 269 321 nbx 2 14 -1e+037 1e+037 0 0 empty \$0step7pitch_int
empty 0 -8 0 10 -262144 -1 -1 6 256 0;
#X obj 296 321 nbx 2 14 -1e+037 1e+037 0 0 empty \$0step8pitch_int
empty 0 -8 0 10 -262144 -1 -1 7 256 0;
#X obj 326 321 nbx 2 14 -1e+037 1e+037 0 0 empty \$0step9pitch_int
empty 0 -8 0 10 -262144 -1 -1 0 256 0;
#X obj 354 321 nbx 2 14 -1e+037 1e+037 0 0 empty \$0step10pitch_int
empty 0 -8 0 10 -262144 -1 -1 0 256 0;
#X obj 383 321 nbx 2 14 -1e+037 1e+037 0 0 empty \$0step11pitch_int
empty 0 -8 0 10 -262144 -1 -1 0 256 0;
#X obj 410 321 nbx 2 14 -1e+037 1e+037 0 0 empty \$0step12pitch_int
empty 0 -8 0 10 -262144 -1 -1 0 256 0;
#X obj 438 321 nbx 2 14 -1e+037 1e+037 0 0 empty \$0step13pitch_int
empty 0 -8 0 10 -262144 -1 -1 0 256 0;
#X obj 466 321 nbx 2 14 -1e+037 1e+037 0 0 empty \$0step14pitch_int
empty 0 -8 0 10 -262144 -1 -1 0 256 0;
#X obj 494 321 nbx 2 14 -1e+037 1e+037 0 0 empty \$0step15pitch_int
empty 0 -8 0 10 -262144 -1 -1 0 256 0;
#X obj 521 321 nbx 2 14 -1e+037 1e+037 0 0 empty \$0step16pitch_int
empty 0 -8 0 10 -262144 -1 -1 0 256 0;
#X obj 129 335 bng 28 130 30 0 empty \$0Step2Bang empty 17 7 0 10 -1
-260097 -260097;
#X obj 157 335 bng 28 130 30 0 empty \$0Step3Bang empty 17 7 0 10 -1
-260097 -260097;
#X obj 186 335 bng 28 130 30 0 empty \$0Step4Bang empty 17 7 0 10 -1
-260097 -260097;
#X obj 212 335 bng 28 130 50 0 empty \$0Step5Bang empty 17 7 0 10 -1
-260097 -260097;
#X obj 240 335 bng 28 130 50 0 empty \$0Step6Bang empty 17 7 0 10 -1
-260097 -260097;
#X obj 268 335 bng 28 130 50 0 empty \$0Step7Bang empty 17 7 0 10 -1
-260097 -260097;
#X obj 297 335 bng 28 130 50 0 empty \$0Step8Bang empty 17 7 0 10 -1
-260097 -260097;
#X obj 325 335 bng 28 130 50 0 empty \$0Step9Bang empty 17 7 0 10 -1
-260097 -260097;
#X obj 353 335 bng 28 130 50 0 empty \$0Step10Bang empty 17 7 0 10
-1 -260097 -260097;
#X obj 381 335 bng 28 130 50 0 empty \$0Step11Bang empty 17 7 0 10
-1 -260097 -260097;
#X obj 410 335 bng 28 130 50 0 empty \$0Step12Bang empty 17 7 0 10
-1 -260097 -260097;
#X obj 436 335 bng 28 130 50 0 empty \$0Step13Bang empty 17 7 0 10
-1 -260097 -260097;
#X obj 464 335 bng 28 130 50 0 empty \$0Step14Bang empty 17 7 0 10
-1 -260097 -260097;
#X obj 492 335 bng 28 130 50 0 empty \$0Step15Bang empty 17 7 0 10
-1 -260097 -260097;
#X obj 521 335 bng 28 130 50 0 empty \$0Step16Bang empty 17 7 0 10
-1 -260097 -260097;
#N canvas 0 0 1440 818 integer 0;
#X obj 155 57 int;
#X obj 155 5 r \$0step2pitch;
#X obj 155 87 s \$0step2pitch_int;
#X obj 290 56 int;
#X obj 419 59 int;
#X obj 290 4 r \$0step3pitch;
#X obj 31 65 int;
#X obj 31 13 r \$0step1pitch;
#X obj 31 95 s \$0step1pitch_int;
#X obj 417 7 r \$0step4pitch;
#X obj 418 89 s \$0step4pitch_int;
#X obj 166 180 int;
#X obj 301 179 int;
#X obj 430 182 int;
#X obj 42 188 int;
#X obj 43 142 r \$0step5pitch;
#X obj 43 217 s \$0step5pitch_int;
#X obj 165 134 r \$0step6pitch;
#X obj 167 209 s \$0step6pitch_int;
#X obj 301 134 r \$0step7pitch;
#X obj 301 208 s \$0step7pitch_int;
#X obj 429 136 r \$0step8pitch;
#X obj 430 211 s \$0step8pitch_int;
#X obj 150 299 int;
#X obj 285 298 int;
#X obj 414 301 int;
#X obj 26 307 int;
#X obj 162 432 int;
#X obj 297 431 int;
#X obj 426 434 int;
#X obj 38 440 int;
#X obj 30 264 r \$0step9pitch;
#X obj 26 337 s \$0step9pitch_int;
#X obj 155 256 r \$0step10pitch;
#X obj 150 329 s \$0step10pitch_int;
#X obj 289 256 r \$0step11pitch;
#X obj 284 328 s \$0step11pitch_int;
#X obj 416 258 r \$0step12pitch;
#X obj 413 331 s \$0step12pitch_int;
#X obj 38 384 r \$0step13pitch;
#X obj 38 470 s \$0step13pitch_int;
#X obj 160 376 r \$0step14pitch;
#X obj 162 462 s \$0step14pitch_int;
#X obj 297 376 r \$0step15pitch;
#X obj 296 461 s \$0step15pitch_int;
#X obj 424 378 r \$0step16pitch;
#X obj 425 464 s \$0step16pitch_int;
#X obj 289 86 s \$0step3pitch_int;
#X obj 32 37 + 0.5;
#X obj 159 31 + 0.5;
#X obj 287 34 + 0.5;
#X obj 418 36 + 0.5;
#X obj 45 163 + 0.5;
#X obj 172 157 + 0.5;
#X obj 300 160 + 0.5;
#X obj 431 162 + 0.5;
#X obj 35 414 + 0.5;
#X obj 158 406 + 0.5;
#X obj 293 405 + 0.5;
#X obj 422 408 + 0.5;
#X obj 29 287 + 0.5;
#X obj 152 279 + 0.5;
#X obj 287 278 + 0.5;
#X obj 416 281 + 0.5;
#X connect 0 0 2 0;
#X connect 1 0 49 0;
#X connect 3 0 47 0;
#X connect 4 0 10 0;
#X connect 5 0 50 0;
#X connect 6 0 8 0;
#X connect 7 0 48 0;
#X connect 9 0 51 0;
#X connect 11 0 18 0;
#X connect 12 0 20 0;
#X connect 13 0 22 0;
#X connect 14 0 16 0;
#X connect 15 0 52 0;
#X connect 17 0 53 0;
#X connect 19 0 54 0;
#X connect 21 0 55 0;
#X connect 23 0 34 0;
#X connect 24 0 36 0;
#X connect 25 0 38 0;
#X connect 26 0 32 0;
#X connect 27 0 42 0;
#X connect 28 0 44 0;
#X connect 29 0 46 0;
#X connect 30 0 40 0;
#X connect 31 0 60 0;
#X connect 33 0 61 0;
#X connect 35 0 62 0;
#X connect 37 0 63 0;
#X connect 39 0 56 0;
#X connect 41 0 57 0;
#X connect 43 0 58 0;
#X connect 45 0 59 0;
#X connect 48 0 6 0;
#X connect 49 0 0 0;
#X connect 50 0 3 0;
#X connect 51 0 4 0;
#X connect 52 0 14 0;
#X connect 53 0 11 0;
#X connect 54 0 12 0;
#X connect 55 0 13 0;
#X connect 56 0 30 0;
#X connect 57 0 27 0;
#X connect 58 0 28 0;
#X connect 59 0 29 0;
#X connect 60 0 26 0;
#X connect 61 0 23 0;
#X connect 62 0 24 0;
#X connect 63 0 25 0;
#X restore 867 -60 pd integer;
#X obj 115 32 route 1 2 3 4 5 6 7 8 9 10 11 12 13 14 15 16;
#X obj 382 11 route 1 2 3 4 5 6 7 8 9 10 11 12 13 14 15 16;
#X msg 288 -57 0;
#X msg 446 -111 1;
#X obj 143 -134 inlet;
#X obj -115 481 r \$0step1pitch_int;
#X obj -87 509 r \$0step2pitch_int;
#X obj -52 530 r \$0step3pitch_int;
#X obj -26 554 r \$0step4pitch_int;
#X obj 91 633 r \$0step8pitch_int;
#X obj 63 613 r \$0step7pitch_int;
#X obj 32 594 r \$0step6pitch_int;
#X obj 3 572 r \$0step5pitch_int;
#X obj 92 476 r \$0step9pitch_int;
#X obj 120 501 r \$0step10pitch_int;
#X obj 155 522 r \$0step11pitch_int;
#X obj 182 543 r \$0step12pitch_int;
#X obj 213 559 r \$0step13pitch_int;
#X obj 235 581 r \$0step14pitch_int;
#X obj 268 602 r \$0step15pitch_int;
#X obj 295 625 r \$0step16pitch_int;
#X obj -130 515 f;
#X obj -102 536 f;
#X obj -69 556 f;
#X obj -41 577 f;
#X obj -13 597 f;
#X obj 15 618 f;
#X obj 48 638 f;
#X obj 76 659 f;
#X obj 77 504 f;
#X obj 105 525 f;
#X obj 138 545 f;
#X obj 166 566 f;
#X obj 194 586 f;
#X obj 222 607 f;
#X obj 255 627 f;
#X obj 283 648 f;
#X obj -73 403 sel 1 2 3 4 5 6 7 8 9 10 11 12 13 14 15 16;
#X obj 83 756 outlet;
#X obj 786 223 f;
#X obj 814 244 f;
#X obj 847 264 f;
#X obj 875 285 f;
#X obj 903 305 f;
#X obj 931 326 f;
#X obj 964 346 f;
#X obj 992 367 f;
#X obj 993 212 f;
#X obj 1021 233 f;
#X obj 1054 253 f;
#X obj 1082 274 f;
#X obj 1110 294 f;
#X obj 1138 315 f;
#X obj 1171 335 f;
#X obj 1199 356 f;
#X obj 843 111 sel 1 2 3 4 5 6 7 8 9 10 11 12 13 14 15 16;
#X obj 999 464 outlet;
#X obj 801 189 r \$0step1vol;
#X obj 829 217 r \$0step2vol;
#X obj 864 238 r \$0step3vol;
#X obj 890 262 r \$0step4vol;
#X obj 919 281 r \$0step5vol;
#X obj 948 302 r \$0step6vol;
#X obj 978 321 r \$0step7vol;
#X obj 1007 341 r \$0step8vol;
#X obj 1008 184 r \$0step9vol;
#X obj 1036 209 r \$0step10vol;
#X obj 1071 230 r \$0step11vol;
#X obj 1098 251 r \$0step12vol;
#X obj 1129 267 r \$0step13vol;
#X obj 1151 289 r \$0step14vol;
#X obj 1183 312 r \$0step15vol;
#X obj 1211 333 r \$0step16vol;
#X obj 491 474 s \$0Step1Bang;
#X obj 491 496 s \$0Step2Bang;
#X obj 490 522 s \$0Step3Bang;
#X obj 489 544 s \$0Step4Bang;
#X obj 488 573 s \$0Step5Bang;
#X obj 488 595 s \$0Step6Bang;
#X obj 487 621 s \$0Step7Bang;
#X obj 487 643 s \$0Step8Bang;
#X obj 600 473 s \$0Step9Bang;
#X obj 600 495 s \$0Step10Bang;
#X obj 599 521 s \$0Step11Bang;
#X obj 599 543 s \$0Step12Bang;
#X obj 597 572 s \$0Step13Bang;
#X obj 595 592 s \$0Step14Bang;
#X obj 596 620 s \$0Step15Bang;
#X obj 596 642 s \$0Step16Bang;
#X obj 144 -102 route pitch volume init step;
#X obj 330 -74 + 1;
#X obj 849 558 r \$0step1pitch_int;
#X obj 877 586 r \$0step2pitch_int;
#X obj 912 607 r \$0step3pitch_int;
#X obj 938 631 r \$0step4pitch_int;
#X obj 1055 710 r \$0step8pitch_int;
#X obj 1027 690 r \$0step7pitch_int;
#X obj 996 671 r \$0step6pitch_int;
#X obj 967 649 r \$0step5pitch_int;
#X obj 1056 553 r \$0step9pitch_int;
#X obj 1084 578 r \$0step10pitch_int;
#X obj 1119 599 r \$0step11pitch_int;
#X obj 1146 620 r \$0step12pitch_int;
#X obj 1177 636 r \$0step13pitch_int;
#X obj 1199 658 r \$0step14pitch_int;
#X obj 1232 679 r \$0step15pitch_int;
#X obj 1259 702 r \$0step16pitch_int;
#X obj 985 757 pack f f f f f f f f f f f f f f f f f;
#X obj 805 633 bng 15 250 50 0 empty empty empty 17 7 0 10 -262144
-1 -1;
#X obj 985 788 list split 1;
#X obj 1018 819 s \$0currentseq;
#X obj 759 512 r \$0Add_seq_key_mode;
#X obj 758 538 change;
#X obj 758 568 allow 0 2;
#X obj 839 669 del 10;
#X connect 65 0 31 0;
#X connect 65 1 29 0;
#X connect 65 2 27 0;
#X connect 65 3 25 0;
#X connect 65 4 23 0;
#X connect 65 5 21 0;
#X connect 65 6 19 0;
#X connect 65 7 17 0;
#X connect 65 8 15 0;
#X connect 65 9 13 0;
#X connect 65 10 11 0;
#X connect 65 11 9 0;
#X connect 65 12 7 0;
#X connect 65 13 5 0;
#X connect 65 14 3 0;
#X connect 65 15 1 0;
#X connect 66 0 30 0;
#X connect 66 1 28 0;
#X connect 66 2 26 0;
#X connect 66 3 24 0;
#X connect 66 4 22 0;
#X connect 66 5 20 0;
#X connect 66 6 18 0;
#X connect 66 7 16 0;
#X connect 66 8 14 0;
#X connect 66 9 12 0;
#X connect 66 10 10 0;
#X connect 66 11 8 0;
#X connect 66 12 6 0;
#X connect 66 13 4 0;
#X connect 66 14 2 0;
#X connect 66 15 0 0;
#X connect 67 0 31 0;
#X connect 67 0 29 0;
#X connect 67 0 27 0;
#X connect 67 0 25 0;
#X connect 67 0 23 0;
#X connect 67 0 21 0;
#X connect 67 0 19 0;
#X connect 67 0 17 0;
#X connect 67 0 15 0;
#X connect 67 0 13 0;
#X connect 67 0 11 0;
#X connect 67 0 9 0;
#X connect 67 0 7 0;
#X connect 67 0 5 0;
#X connect 67 0 3 0;
#X connect 67 0 1 0;
#X connect 68 0 30 0;
#X connect 68 0 28 0;
#X connect 68 0 26 0;
#X connect 68 0 24 0;
#X connect 68 0 22 0;
#X connect 68 0 20 0;
#X connect 68 0 18 0;
#X connect 68 0 16 0;
#X connect 68 0 14 0;
#X connect 68 0 12 0;
#X connect 68 0 10 0;
#X connect 68 0 8 0;
#X connect 68 0 6 0;
#X connect 68 0 4 0;
#X connect 68 0 2 0;
#X connect 68 0 0 0;
#X connect 69 0 154 0;
#X connect 70 0 86 1;
#X connect 71 0 87 1;
#X connect 72 0 88 1;
#X connect 73 0 89 1;
#X connect 74 0 93 1;
#X connect 75 0 92 1;
#X connect 76 0 91 1;
#X connect 77 0 90 1;
#X connect 78 0 94 1;
#X connect 79 0 95 1;
#X connect 80 0 96 1;
#X connect 81 0 97 1;
#X connect 82 0 98 1;
#X connect 83 0 99 1;
#X connect 84 0 100 1;
#X connect 85 0 101 1;
#X connect 86 0 103 0;
#X connect 87 0 103 0;
#X connect 88 0 103 0;
#X connect 89 0 103 0;
#X connect 90 0 103 0;
#X connect 91 0 103 0;
#X connect 92 0 103 0;
#X connect 93 0 103 0;
#X connect 94 0 103 0;
#X connect 95 0 103 0;
#X connect 96 0 103 0;
#X connect 97 0 103 0;
#X connect 98 0 103 0;
#X connect 99 0 103 0;
#X connect 100 0 103 0;
#X connect 101 0 103 0;
#X connect 102 0 86 0;
#X connect 102 0 138 0;
#X connect 102 1 87 0;
#X connect 102 1 139 0;
#X connect 102 2 88 0;
#X connect 102 2 140 0;
#X connect 102 3 89 0;
#X connect 102 3 141 0;
#X connect 102 4 90 0;
#X connect 102 4 142 0;
#X connect 102 5 91 0;
#X connect 102 5 143 0;
#X connect 102 6 92 0;
#X connect 102 6 144 0;
#X connect 102 7 93 0;
#X connect 102 7 145 0;
#X connect 102 8 94 0;
#X connect 102 8 146 0;
#X connect 102 9 95 0;
#X connect 102 9 147 0;
#X connect 102 10 96 0;
#X connect 102 10 148 0;
#X connect 102 11 97 0;
#X connect 102 11 149 0;
#X connect 102 12 98 0;
#X connect 102 12 150 0;
#X connect 102 13 99 0;
#X connect 102 13 151 0;
#X connect 102 14 100 0;
#X connect 102 14 152 0;
#X connect 102 15 101 0;
#X connect 102 15 153 0;
#X connect 104 0 121 0;
#X connect 105 0 121 0;
#X connect 106 0 121 0;
#X connect 107 0 121 0;
#X connect 108 0 121 0;
#X connect 109 0 121 0;
#X connect 110 0 121 0;
#X connect 111 0 121 0;
#X connect 112 0 121 0;
#X connect 113 0 121 0;
#X connect 114 0 121 0;
#X connect 115 0 121 0;
#X connect 116 0 121 0;
#X connect 117 0 121 0;
#X connect 118 0 121 0;
#X connect 119 0 121 0;
#X connect 120 0 104 0;
#X connect 120 1 105 0;
#X connect 120 2 106 0;
#X connect 120 3 107 0;
#X connect 120 4 108 0;
#X connect 120 5 109 0;
#X connect 120 6 110 0;
#X connect 120 7 111 0;
#X connect 120 8 112 0;
#X connect 120 9 113 0;
#X connect 120 10 114 0;
#X connect 120 11 115 0;
#X connect 120 12 116 0;
#X connect 120 13 117 0;
#X connect 120 14 118 0;
#X connect 120 15 119 0;
#X connect 122 0 104 1;
#X connect 123 0 105 1;
#X connect 124 0 106 1;
#X connect 125 0 107 1;
#X connect 126 0 108 1;
#X connect 127 0 109 1;
#X connect 128 0 110 1;
#X connect 129 0 111 1;
#X connect 130 0 112 1;
#X connect 131 0 113 1;
#X connect 132 0 114 1;
#X connect 133 0 115 1;
#X connect 134 0 116 1;
#X connect 135 0 117 1;
#X connect 136 0 118 1;
#X connect 137 0 119 1;
#X connect 154 0 65 0;
#X connect 154 1 66 0;
#X connect 154 2 67 0;
#X connect 154 2 68 0;
#X connect 154 3 155 0;
#X connect 155 0 120 0;
#X connect 155 0 102 0;
#X connect 156 0 172 1;
#X connect 157 0 172 2;
#X connect 158 0 172 3;
#X connect 159 0 172 4;
#X connect 160 0 172 8;
#X connect 161 0 172 7;
#X connect 162 0 172 6;
#X connect 163 0 172 5;
#X connect 164 0 172 9;
#X connect 165 0 172 10;
#X connect 166 0 172 11;
#X connect 167 0 172 12;
#X connect 168 0 172 13;
#X connect 169 0 172 14;
#X connect 170 0 172 15;
#X connect 171 0 172 16;
#X connect 172 0 174 0;
#X connect 173 0 179 0;
#X connect 174 1 175 0;
#X connect 176 0 177 0;
#X connect 177 0 178 0;
#X connect 178 0 173 0;
#X connect 179 0 172 0;
#X coords 0 -1 1 1 450 264 2 100 100;
#X restore 101 100 pd \$0sequencer;
#X msg 96 47 step \$1;
#X obj 692 369 bng 15 250 50 0 empty empty empty 17 7 0 10 -262144
-1 -1;
#X obj 725 204 s \$0Add_seqpreset1_ctl;
#X obj 704 149 del 50;
#X connect 0 0 5 0;
#X connect 0 1 23 0;
#X connect 1 0 4 0;
#X connect 2 0 12 0;
#X connect 4 0 39 0;
#X connect 5 0 39 0;
#X connect 6 0 34 0;
#X connect 8 0 9 0;
#X connect 8 0 11 0;
#X connect 9 0 8 1;
#X connect 10 0 8 0;
#X connect 11 0 12 1;
#X connect 12 0 40 0;
#X connect 13 0 12 2;
#X connect 13 0 24 2;
#X connect 13 0 25 2;
#X connect 14 0 13 0;
#X connect 14 0 33 0;
#X connect 15 0 13 0;
#X connect 16 0 17 0;
#X connect 17 0 36 0;
#X connect 18 0 19 0;
#X connect 19 0 37 0;
#X connect 20 0 18 1;
#X connect 20 0 16 1;
#X connect 21 0 8 1;
#X connect 22 0 10 0;
#X connect 23 0 39 0;
#X connect 24 0 16 0;
#X connect 25 0 18 0;
#X connect 26 0 5 0;
#X connect 27 0 23 0;
#X connect 30 0 6 0;
#X connect 31 0 32 0;
#X connect 33 0 15 0;
#X connect 34 0 22 0;
#X connect 34 1 14 0;
#X connect 34 2 21 0;
#X connect 35 0 20 0;
#X connect 35 0 43 0;
#X connect 38 0 31 0;
#X connect 38 0 20 0;
#X connect 39 0 3 0;
#X connect 39 0 24 1;
#X connect 39 1 3 1;
#X connect 39 1 25 1;
#X connect 40 0 39 0;
#X connect 41 0 16 1;
#X connect 43 0 42 0;
#X coords 0 -1 1 1 452 264 2 100 100;
#X restore 251 6 pd sequencer;
#X obj 219 29 cnv 15 10 10 empty empty 1/1 0 0 0 10 -66577 -260097
0;
#X obj 219 44 cnv 15 10 10 empty empty 1/2 0 0 0 10 -66577 -260097
0;
#X obj 219 59 cnv 15 10 10 empty empty 1/4 0 0 0 10 -66577 -260097
0;
#X obj 219 74 cnv 15 10 10 empty empty 1/8 0 0 0 10 -66577 -260097
0;
#X obj 219 90 cnv 15 10 10 empty empty 1/16 0 0 0 10 -66577 -260097
0;
#N canvas 475 228 726 488 startbutton 0;
#X obj 101 -239 select 0 1;
#X obj 119 -297 loadbang;
#X msg 119 -274 0;
#X msg 324 -153 label ►;
#X msg 553 -173 label ■;
#X obj 98 -363 cnv 15 24 24 \$0startstop_canvas_bg \$0startstop_canvas_bg
empty 20 12 0 14 -258699 -262144 0;
#X obj 101 -360 tgl 18 0 \$0Add_trigseq \$0Add_trigseq_r empty -2 -7
0 9 -54094 -260097 -33289 0 1;
#X msg 129 -119 color -43073;
#X msg 101 -148 color 13;
#X obj 101 -360 cnv 16 18 18 \$0startstop_canvas \$0startstop_canvas
► 4 6 1 10 -66577 -260097 0;
#X obj 432 -40 s \$0startstop_canvas;
#X obj 101 -46 s \$0startstop_canvas_bg;
#X msg 400 -132 label_font 1 10;
#X msg 324 -103 label_pos 4 6;
#X msg 552 -123 label_pos 5 6;
#X connect 0 0 8 0;
#X connect 0 0 3 0;
#X connect 0 0 12 0;
#X connect 0 0 13 0;
#X connect 0 1 7 0;
#X connect 0 1 4 0;
#X connect 0 1 14 0;
#X connect 1 0 2 0;
#X connect 2 0 0 0;
#X connect 3 0 10 0;
#X connect 4 0 10 0;
#X connect 6 0 0 0;
#X connect 7 0 11 0;
#X connect 8 0 11 0;
#X connect 12 0 10 0;
#X connect 13 0 10 0;
#X connect 14 0 10 0;
#X coords 0 -1 1 1 24 24 2 98 -363;
#X restore 193 177 pd startbutton;
#X obj 172 37 vsl 20 60 0.01 0.99 0 0 \$0Add_seqduration \$0Add_seqduration_ctl
Notendauer 0 70 0 10 -99865 -260097 -262144 5900 1;
#X obj 112 25 vsl 25 100 30 1500 1 0 \$0Add_seqtempfloat \$0Add_seqtemp_ctl
Bpm 3 -10 0 11 -99865 -260097 -262144 3512 1;
#X obj 186 250 cnv 15 10 10 empty empty Sequenz 0 0 0 9 -66577 -261682
0;
#N canvas 0 0 1423 798 AddSequencerSave 0;
#X msg 8 179 clear;
#X obj 65 295 textfile;
#X obj 65 269 zl join;
#X msg 65 243 add;
#X obj 65 206 t b l;
#X obj 229 124 savepanel;
#X obj 229 39 del 50;
#X obj 229 12 bng 15 250 50 0 empty \$0Add_seq_save_bang empty 17 7
0 10 -262144 -1 -1;
#X obj 332 138 bng 15 250 50 0 empty \$0Add_seq_load_bang empty 17
7 0 10 -262144 -1 -1;
#X msg 359 226 clear;
#X msg 358 536 rewind;
#X obj 331 588 until;
#X obj 331 615 f;
#X obj 369 614 + 1;
#X msg 389 564 0;
#X obj 292 632 + 1;
#X obj 63 438 zl join;
#X obj 140 404 t f b;
#X text 409 325 Load;
#X obj 332 325 openpanel;
#X obj 332 229 bng 15 250 50 0 empty empty empty 17 7 0 10 -262144
-1 -1;
#X msg 332 348 read \$1;
#X obj 332 171 t b b;
#X obj 331 480 del 20;
#X obj 331 458 bng 15 250 50 0 empty empty empty 17 7 0 10 -262144
-1 -1;
#X obj 331 502 t b b;
#X msg 331 564 8;
#X obj 63 491 s \$0Add_StartupSeqPresets;
#X obj 65 154 r \$0Add_SeqListsSave;
#X obj 552 164 del 50;
#X obj 522 338 loadbang;
#X obj 524 374 t b b;
#X msg 551 435 clear;
#X obj 520 519 del 20;
#X obj 520 497 bng 15 250 50 0 empty empty empty 17 7 0 10 -262144
-1 -1;
#X obj 520 541 t b b;
#X msg 229 183 write \$1;
#X obj 332 255 getdir;
#X msg 333 282 symbol \$1/Sequenzen;
#X obj 229 69 getdir;
#X obj 406 41 metro 5000;
#X obj 814 24 s \$0tempbang_sav;
#X obj 405 -24 loadbang;
#X obj 405 -5 del 1000;
#X msg 552 189 write sequencersave;
#X msg 521 474 read sequencersave;
#X obj 13 111 r \$0Add_seq_save_bang;
#X msg 229 96 symbol \$1;
#X obj 718 283 s \$0banksave;
#X obj 465 274 r \$0banksave_r;
#X obj 61 590 s \$0Add_seqpreset1_ctl;
#X obj 64 548 del 50;
#X obj 27 504 bng 15 250 50 0 empty empty empty 17 7 0 10 -262144 -1
-1;
#X obj 730 -64 r toolsdirectory;
#X obj 739 94 \$1;
#X obj 740 121 ftos;
#X obj 694 165 pack s s;
#X obj 739 69 loadbang;
#X obj 690 100 symbol;
#X obj 804 -30 bng 15 250 50 0 empty empty empty 17 7 0 10 -262144
-1 -1;
#X msg 693 213 symbol \$1Sequenzer\$2SeqBank;
#X obj 683 45 del 6;
#X obj 810 -6 t b b;
#X connect 0 0 1 0;
#X connect 1 0 16 1;
#X connect 2 0 1 0;
#X connect 3 0 2 0;
#X connect 4 0 3 0;
#X connect 4 1 2 1;
#X connect 5 0 48 0;
#X connect 5 0 36 0;
#X connect 6 0 39 0;
#X connect 7 0 6 0;
#X connect 8 0 14 0;
#X connect 8 0 22 0;
#X connect 9 0 1 0;
#X connect 10 0 1 0;
#X connect 11 0 12 0;
#X connect 12 0 13 0;
#X connect 12 0 15 0;
#X connect 13 0 12 1;
#X connect 14 0 12 1;
#X connect 15 0 17 0;
#X connect 16 0 27 0;
#X connect 16 0 52 0;
#X connect 17 0 16 0;
#X connect 17 1 1 0;
#X connect 19 0 21 0;
#X connect 19 0 48 0;
#X connect 20 0 37 0;
#X connect 21 0 24 0;
#X connect 21 0 1 0;
#X connect 22 0 20 0;
#X connect 22 1 9 0;
#X connect 23 0 25 0;
#X connect 24 0 23 0;
#X connect 25 0 26 0;
#X connect 25 1 10 0;
#X connect 26 0 11 0;
#X connect 28 0 4 0;
#X connect 29 0 44 0;
#X connect 31 0 45 0;
#X connect 31 1 32 0;
#X connect 32 0 1 0;
#X connect 33 0 35 0;
#X connect 34 0 33 0;
#X connect 35 0 26 0;
#X connect 35 1 10 0;
#X connect 36 0 1 0;
#X connect 37 0 38 0;
#X connect 38 0 19 0;
#X connect 39 0 47 0;
#X connect 40 0 29 0;
#X connect 40 0 0 0;
#X connect 42 0 43 0;
#X connect 44 0 1 0;
#X connect 45 0 34 0;
#X connect 45 0 1 0;
#X connect 46 0 0 0;
#X connect 47 0 5 0;
#X connect 49 0 21 0;
#X connect 49 0 14 0;
#X connect 51 0 50 0;
#X connect 52 0 51 0;
#X connect 53 0 59 0;
#X connect 53 0 58 1;
#X connect 54 0 55 0;
#X connect 55 0 56 1;
#X connect 56 0 60 0;
#X connect 57 0 54 0;
#X connect 58 0 56 0;
#X connect 59 0 62 0;
#X connect 60 0 36 0;
#X connect 60 0 48 0;
#X connect 61 0 58 0;
#X connect 62 0 41 0;
#X connect 62 0 61 0;
#X connect 62 1 0 0;
#X restore 657 -261 pd AddSequencerSave;
#X obj -99 -237 s \$0Add_network_bpm;
#X obj -142 -214 s \$0LoopPulse;
#X obj -142 -317 inlet;
#X obj -142 -280 route Pulse BPM;
#X obj 180 298 nbx 5 14 -1e+037 1e+037 0 0 empty \$0Add_basicfreq empty
0 -8 0 10 -66577 -260097 -260097 55 256 0;
#X symbolatom 236 298 2 0 0 0 - #0AddShowTone #0AddShowTone_send,
f 2;
#N canvas 47 171 450 300 basicFreq 0;
#X floatatom -90 64 5 0 0 0 - - -, f 5;
#X obj -90 146 mtof;
#X obj -90 171 s \$0Add_basicfreq;
#X obj -90 89 int;
#X obj -90 14 r \$0Add_mainfreqmidi;
#X obj -90 38 / 1.62;
#X obj -90 117 + 12;
#X obj -16 134 s \$0MidiBase;
#X connect 0 0 3 0;
#X connect 1 0 2 0;
#X connect 3 0 6 0;
#X connect 4 0 5 0;
#X connect 5 0 0 0;
#X connect 6 0 1 0;
#X connect 6 0 7 0;
#X restore -102 -14 pd basicFreq;
#N canvas 640 0 632 754 showtone 0;
#X msg 46 155 symbol C;
#X msg 109 198 symbol D;
#X msg 169 243 symbol E;
#X msg 196 265 symbol F;
#X msg 73 177 symbol C#;
#X msg 136 220 symbol D#;
#X msg 232 286 symbol F#;
#X msg 259 306 symbol G;
#X msg 270 337 symbol G#;
#X msg 303 359 symbol A;
#X msg 330 381 symbol A#;
#X msg 366 402 symbol H;
#X floatatom 205 -64 5 0 0 0 - - -, f 5;
#X obj 205 -42 ftom;
#X floatatom 205 -14 5 0 0 0 - - -, f 5;
#X floatatom 205 30 5 0 0 0 - - -, f 5;
#X obj 205 118 sel 0 1 2 3 4 5 6 7 8 9 10 11;
#X obj 205 56 % 12;
#X floatatom 203 78 5 0 0 0 - - -, f 5;
#X obj 205 -90 r \$0Add_basicfreq;
#X obj 62 417 s \$0AddShowTone;
#X obj 205 9 - 12;
#X connect 0 0 20 0;
#X connect 1 0 20 0;
#X connect 2 0 20 0;
#X connect 3 0 20 0;
#X connect 4 0 20 0;
#X connect 5 0 20 0;
#X connect 6 0 20 0;
#X connect 7 0 20 0;
#X connect 8 0 20 0;
#X connect 9 0 20 0;
#X connect 10 0 20 0;
#X connect 11 0 20 0;
#X connect 12 0 13 0;
#X connect 13 0 14 0;
#X connect 14 0 21 0;
#X connect 15 0 17 0;
#X connect 16 0 0 0;
#X connect 16 1 4 0;
#X connect 16 2 1 0;
#X connect 16 3 5 0;
#X connect 16 4 2 0;
#X connect 16 5 3 0;
#X connect 16 6 6 0;
#X connect 16 7 7 0;
#X connect 16 8 8 0;
#X connect 16 9 9 0;
#X connect 16 10 10 0;
#X connect 16 11 11 0;
#X connect 17 0 18 0;
#X connect 18 0 16 0;
#X connect 19 0 12 0;
#X connect 21 0 15 0;
#X restore -100 13 pd showtone;
#X obj 114 281 hsl 128 15 11 127 0 0 \$0Add_mainfreqmidi \$0Add_mainfreqmidi_ctl
Grundton -2 25 0 11 -99865 -260097 -262144 2628 1;
#X obj -100 -95 loadbang;
#X obj -47 -33 s \$0Add_mainfreqmidi_ctl;
#X msg -100 -71 35;
#X obj 34 -91 s \$0Add_seqtemp_ctl;
#X msg 72 -138 1;
#X obj 73 -114 s \$0Add_seqduration_ctl;
#X obj 140 -134 s \$0Add_seq_skalar_ctl;
#X msg 139 -161 3;
#X msg 272 -185 1;
#X obj 271 -162 s \$0Add_seq_key_mode_ctl;
#X msg 35 -121 120.2;
#X obj 838 -306 key;
#X floatatom 838 -277 5 0 0 0 - - -, f 5;
#X obj 838 -248 sel 32;
#X obj 837 -224 tgl 15 0 empty empty empty 17 7 0 10 -262144 -1 -1
0 1;
#X obj 839 -205 s \$0Add_trigseq_r;
#X obj -171 156 r \$0freqout;
#X floatatom -170 188 5 0 0 0 - - -, f 5;
#X obj -87 244 change;
#X obj -168 274 makenote 1;
#X obj -169 240 pipe 1;
#X obj -142 171 r \$0ampout;
#X floatatom -140 204 5 0 0 0 - - -, f 5;
#X floatatom -88 221 5 0 0 0 - - -, f 5;
#X obj -84 191 r \$0duration;
#X floatatom -168 306 5 0 0 0 - - -, f 5;
#X floatatom -111 303 5 0 0 0 - - -, f 5;
#X obj -168 337 pack f f;
#X obj -168 368 outlet;
#X obj 264 281 bng 15 50 10 0 \$0LoopPulse_send \$0LoopPulse Netzwerk
0 22 0 10 -128992 -260097 -262144;
#X obj 284 281 tgl 15 0 \$0connect \$0connect_ctl verbinden 17 7 0
10 -128992 -260097 -262144 0 1;
#X obj 990 63 r toolssavebank;
#X obj 1419 170 f;
#X obj 1364 164 f;
#X obj 1274 272 s toolssavelists;
#X obj 1249 90 f;
#X obj 992 181 route;
#X obj 1350 -75 loadbang;
#X obj 1351 -19 \$1;
#X obj 1229 43 del;
#X obj 992 151 route sequenzer;
#X obj 1221 184 symbol sequenzer;
#X obj 827 340 s \$0Add_seqtemp_ctl;
#X obj 941 369 s \$0Add_mainfreqmidi_ctl;
#X obj 1390 43 r \$0Add_seqtempfloat;
#X obj 1456 74 r \$0Add_mainfreqmidi;
#X obj 758 -159 inlet;
#X obj 755 -81 s \$0Add_seqpreset1_ctl;
#X obj 757 -128 sel 1 2 3 4 5 6 7 8;
#X obj 765 -71 s \$0Add_seqpreset2_ctl;
#X obj 775 -61 s \$0Add_seqpreset3_ctl;
#X obj 785 -51 s \$0Add_seqpreset4_ctl;
#X obj 795 -41 s \$0Add_seqpreset5_ctl;
#X obj 805 -31 s \$0Add_seqpreset6_ctl;
#X obj 815 -21 s \$0Add_seqpreset7_ctl;
#X obj 825 -11 s \$0Add_seqpreset8_ctl;
#X obj 544 -151 inlet;
#X obj 563 -139 inlet;
#X obj 584 -130 inlet;
#X obj 550 -100 + 1;
#X obj 607 -112 inlet;
#X obj 630 -90 inlet;
#X obj 653 -71 inlet;
#X obj 685 -57 inlet;
#X obj 381 277 bng 15 250 50 0 \$0Add_seqpreset1 \$0Add_seqpreset1_ctl
1 -10 8 0 10 -54094 -260097 -261682;
#X obj 412 277 bng 15 250 50 0 \$0Add_seqpreset2 \$0Add_seqpreset2_ctl
2 -10 8 0 10 -54094 -260097 -261682;
#X obj 443 277 bng 15 250 50 0 \$0Add_seqpreset3 \$0Add_seqpreset3_ctl
3 -10 8 0 10 -54094 -260097 -261682;
#X obj 474 277 bng 15 250 50 0 \$0Add_seqpreset4 \$0Add_seqpreset4_ctl
4 -10 8 0 10 -54094 -260097 -261682;
#X obj 505 277 bng 15 250 50 0 \$0Add_seqpreset5 \$0Add_seqpreset5_ctl
5 -10 8 0 10 -54094 -260097 -261682;
#X obj 536 277 bng 15 250 50 0 \$0Add_seqpreset6 \$0Add_seqpreset6_ctl
6 -10 8 0 10 -54094 -260097 -261682;
#X obj 567 277 bng 15 250 50 0 \$0Add_seqpreset7 \$0Add_seqpreset7_ctl
7 -10 8 0 10 -54094 -260097 -261682;
#X obj 598 277 bng 15 250 50 0 \$0Add_seqpreset8 \$0Add_seqpreset8_ctl
8 -10 8 0 10 -54094 -260097 -261682;
#X obj 382 295 bng 13 250 50 0 \$0Add_seqpreset1_sav \$0Add_seqpreset1_sav_ctl
empty -10 8 0 10 -260097 -1 -261682;
#X obj 413 295 bng 13 250 50 0 \$0Add_seqpreset2_sav \$0Add_seqpreset2_sav_ctl
empty -10 8 0 10 -260097 -1 -261682;
#X obj 444 295 bng 13 250 50 0 \$0Add_seqpreset3_sav \$0Add_seqpreset3_sav_ctl
empty -10 8 0 10 -260097 -1 -261682;
#X obj 475 295 bng 13 250 50 0 \$0Add_seqpreset4_sav \$0Add_seqpreset4_sav_ctl
empty -10 8 0 10 -260097 -1 -261682;
#X obj 506 295 bng 13 250 50 0 \$0Add_seqpreset5_sav \$0Add_seqpreset5_sav_ctl
empty -10 8 0 10 -260097 -1 -261682;
#X obj 537 295 bng 13 250 50 0 \$0Add_seqpreset6_sav \$0Add_seqpreset6_sav_ctl
empty -10 8 0 10 -260097 -1 -261682;
#X obj 568 295 bng 13 250 50 0 \$0Add_seqpreset7_sav \$0Add_seqpreset7_sav_ctl
empty -10 8 0 10 -260097 -1 -261682;
#X obj 599 295 bng 13 250 50 0 \$0Add_seqpreset8_sav \$0Add_seqpreset8_sav_ctl
empty -10 8 0 10 -260097 -1 -261682;
#X obj 659 276 bng 15 250 50 0 \$0Add_seq_save_bang \$0Add_seq_save_bang_ctl
save 18 7 0 10 -128992 -260097 -262144;
#X obj 687 294 bng 15 250 50 0 \$0Add_seq_load_bang \$0Add_seq_load_bang_ctl
load -28 7 0 10 -128992 -260097 -262144;
#X obj 628 290 cnv 10 10 10 empty empty Bank 0 0 0 10 -66577 -260097
0;
#X obj 1670 271 symbol;
#X obj 1700 244 r \$0banksave;
#X obj 1301 346 list2symbol;
#X obj 1366 412 s \$0banksave;
#X obj 1300 439 s \$0banksave_r;
#X obj 1454 182 f;
#X obj 1471 107 r \$0connect;
#X obj 997 316 s \$0connect_ctl;
#X obj 390 -211 inlet;
#X obj 366 -129 s \$0Add_trigseq_r;
#X obj 451 -199 inlet;
#X obj 453 -170 sel 1 2 3 4 5 6 7 8;
#X obj -188 -48 s \$0Add_seqdrawreset_ctl;
#X obj 1547 197 f;
#X obj 1492 191 f;
#X obj 1582 209 f;
#X obj 1501 142 r \$0Add_seqduration;
#X obj 1565 163 r \$0Add_seq_skalar;
#X obj 1606 185 r \$0Add_seq_key_mode;
#X obj 1039 341 s \$0Add_seqduration_ctl;
#X obj 1103 362 s \$0Add_seq_skalar_ctl;
#X obj 1144 384 s \$0Add_seq_key_mode_ctl;
#X obj 167 135 hsl 60 10 0 127 0 0 \$0stepsnumberctl \$0stepsnumberctl_r
Sequenzlänge -1 -6 0 9 -99865 -260097 -262144 5900 1;
#X obj 372 355 r \$0stepsnumberctl;
#X obj 373 399 int;
#X floatatom 372 440 5 0 0 0 - - -, f 5;
#X obj 372 376 / 9.0714;
#X obj 372 419 + 2;
#X obj 371 461 s \$0numbersteps;
#X obj -185 48 s \$0stepsnumberctl_r;
#X msg -178 14 127;
#X obj 206 147 nbx 2 14 -1e+037 1e+037 0 0 \$0numbersteps_s \$0numbersteps
empty 0 -8 0 10 -54094 -260097 -260097 16 256 0;
#X obj 1643 224 f;
#X obj 1675 205 r \$0stepsnumberctl;
#X obj 1227 133 t b f b b b b b b b b;
#X obj 1333 254 pack s f f f f f f f f s;
#X obj 994 207 list split 7;
#X obj 993 240 unpack f f f f f f f;
#X obj 1128 428 s \$0stepsnumberctl_r;
#X obj 713 -21 inlet;
#X obj 258 -71 * 11.5748;
#X obj 259 -53 + 30;
#X obj 1191 -33 r toolsdirectory;
#X obj 1192 -7 bng 15 250 50 0 empty empty empty 17 7 0 10 -262144
-1 -1;
#X obj 1350 -47 del 5;
#X obj 1305 -7 * 4;
#X obj 1261 24 clip 8 20;
#X connect 26 0 27 0;
#X connect 27 0 25 0;
#X connect 27 1 24 0;
#X connect 33 0 35 0;
#X connect 33 0 43 0;
#X connect 33 0 37 0;
#X connect 33 0 40 0;
#X connect 33 0 41 0;
#X connect 33 0 128 0;
#X connect 33 0 146 0;
#X connect 35 0 34 0;
#X connect 37 0 38 0;
#X connect 40 0 39 0;
#X connect 41 0 42 0;
#X connect 43 0 36 0;
#X connect 45 0 46 0;
#X connect 46 0 47 0;
#X connect 47 0 48 0;
#X connect 49 0 50 0;
#X connect 50 0 53 0;
#X connect 51 0 52 2;
#X connect 52 0 58 0;
#X connect 52 1 59 0;
#X connect 53 0 52 0;
#X connect 54 0 55 0;
#X connect 55 0 52 1;
#X connect 56 0 51 0;
#X connect 57 0 56 0;
#X connect 58 0 60 0;
#X connect 59 0 60 1;
#X connect 60 0 61 0;
#X connect 64 0 73 0;
#X connect 65 0 151 3;
#X connect 66 0 151 2;
#X connect 68 0 150 0;
#X connect 69 0 152 0;
#X connect 70 0 160 0;
#X connect 71 0 68 1;
#X connect 71 0 69 1;
#X connect 71 0 161 0;
#X connect 72 0 68 0;
#X connect 73 0 69 0;
#X connect 74 0 151 0;
#X connect 77 0 66 1;
#X connect 78 0 65 1;
#X connect 79 0 81 0;
#X connect 81 0 80 0;
#X connect 81 1 82 0;
#X connect 81 2 83 0;
#X connect 81 3 84 0;
#X connect 81 4 85 0;
#X connect 81 5 86 0;
#X connect 81 6 87 0;
#X connect 81 7 88 0;
#X connect 89 0 156 0;
#X connect 90 0 92 0;
#X connect 91 0 20 0;
#X connect 92 0 11 0;
#X connect 93 0 12 0;
#X connect 94 0 6 0;
#X connect 95 0 7 0;
#X connect 96 0 32 0;
#X connect 116 0 151 9;
#X connect 117 0 116 1;
#X connect 118 0 119 0;
#X connect 118 0 120 0;
#X connect 121 0 151 4;
#X connect 122 0 121 1;
#X connect 124 0 125 0;
#X connect 126 0 127 0;
#X connect 127 0 97 0;
#X connect 127 1 98 0;
#X connect 127 2 99 0;
#X connect 127 3 100 0;
#X connect 127 4 101 0;
#X connect 127 5 102 0;
#X connect 127 6 103 0;
#X connect 127 7 104 0;
#X connect 129 0 151 6;
#X connect 130 0 151 5;
#X connect 131 0 151 7;
#X connect 132 0 130 1;
#X connect 133 0 129 1;
#X connect 134 0 131 1;
#X connect 139 0 142 0;
#X connect 140 0 143 0;
#X connect 141 0 144 0;
#X connect 142 0 140 0;
#X connect 143 0 141 0;
#X connect 146 0 145 0;
#X connect 148 0 151 8;
#X connect 149 0 148 1;
#X connect 150 0 74 0;
#X connect 150 1 151 1;
#X connect 150 2 66 0;
#X connect 150 3 65 0;
#X connect 150 4 121 0;
#X connect 150 5 130 0;
#X connect 150 6 129 0;
#X connect 150 7 131 0;
#X connect 150 8 148 0;
#X connect 150 9 116 0;
#X connect 151 0 67 0;
#X connect 152 0 153 0;
#X connect 152 1 118 0;
#X connect 153 0 75 0;
#X connect 153 1 76 0;
#X connect 153 2 123 0;
#X connect 153 3 135 0;
#X connect 153 4 136 0;
#X connect 153 5 137 0;
#X connect 153 6 154 0;
#X connect 155 0 138 0;
#X connect 156 0 157 0;
#X connect 157 0 21 0;
#X connect 158 0 159 0;
#X connect 159 0 72 0;
#X connect 160 0 71 0;
#X connect 161 0 162 0;
#X connect 162 0 72 1;
#X coords 0 -1 1 1 609 318 1 100 0;
