#N canvas 360 0 703 798 10;
#X obj 102 102 cnv 15 430 160 empty empty simple 10 16 0 24 -66577
-262144 0;
#X obj 177 159 tgl 30 0 \$0RecordOnOff \$0RecordOnOff_r Aufnehmen -15
-8 0 12 -191407 -258113 -258113 0 1;
#X obj 126 166 bng 20 250 50 0 \$0read \$0read_r laden -7 30 0 12 -228856
-260097 -262144;
#X obj 126 208 bng 20 250 50 0 \$0write \$0write_r speichern -15 30
0 12 -228856 -260097 -262144;
#X obj 239 191 hsl 145 25 0 127 0 0 \$0end_ctrl \$0end_r Ende 52 10
0 18 -228856 -260097 -1 14400 1;
#X obj 239 166 hsl 145 25 0 127 0 0 \$0begin_ctrl \$0begin_r Start
47 10 0 18 -228856 -260097 -1 0 1;
#X obj 472 131 vsl 30 80 0 127 0 0 \$0speed \$0speed_r Speed -10 -12
0 16 -191407 -260097 -262144 1975 1;
#X obj 503 209 bng 20 250 50 0 \$0zerospeed \$0zerospeed_r 1 6 7 0
14 -191407 -260097 -260097;
#X obj 439 214 nbx 5 16 -1e+037 1e+037 0 0 \$0speedshow_s \$0speedshow
empty 0 -8 0 12 -128992 -260097 -1 1 256 0;
#N canvas 0 0 450 300 (subpatch) 0;
#X array \$0sample 62313 float 4 black black;
#X coords 0 1 62312 -1 150 50 1;
#X restore 236 116 graph;
#X obj -44 906 soundfiler;
#X obj -47 722 openpanel;
#X obj -47 650 getdir;
#X msg -47 677 symbol \$1;
#X obj -49 619 bng 15 250 50 0 empty \$0read empty 17 7 0 10 -262144
-1 -1;
#X obj -40 819 zl join;
#X obj 40 831 \$0;
#X msg 41 858 \$1sample;
#X obj 40 815 bng 15 250 50 0 empty empty empty 17 7 0 10 -262144 -1
-1;
#X obj -5 1033 / 44100;
#X obj -24 1064 s \$0lenSound;
#X obj -4 1094 s \$0durSound;
#X obj -168 1008 \$0;
#X msg -194 1060 \; \$1sample normalize;
#X obj -169 706 bng 15 250 50 0 empty \$0write empty 17 7 0 10 -262144
-1 -1;
#X obj -169 743 getdir;
#X msg -169 770 symbol \$1;
#X obj -167 932 zl join;
#X obj -82 905 \$0;
#X msg -81 932 \$1sample;
#X obj -83 876 bng 15 250 50 0 empty empty empty 17 7 0 10 -262144
-1 -1;
#X msg -169 850 write -wave -normalize \$1;
#X obj -165 969 soundfiler;
#X obj -169 815 savepanel;
#X obj 920 216 phasor~;
#X obj 912 20 sig~;
#X obj 918 560 tabread4~ \$0sample;
#X obj 913 431 *~;
#X obj 976 287 r \$0lenSound;
#X floatatom 910 -82 5 0 0 0 - - -, f 5;
#X obj 911 -19 /;
#X msg 911 -42 1;
#X obj 911 -61 t b f;
#X obj 912 74 *~;
#X obj 938 54 line~;
#X msg 950 34 \$1 25;
#X obj 916 508 +~;
#X obj 1149 482 line~;
#X msg 1149 460 \$1 25;
#X obj 1144 181 r \$0begin;
#X obj 1112 293 *;
#X obj 1168 276 r \$0lenSound;
#X obj 973 360 f;
#X obj 973 401 -;
#X obj 1111 317 t b f f;
#X obj 1116 255 / 127;
#X obj 973 432 / 44100;
#X obj 918 589 *~;
#X obj 1030 594 line~;
#X msg 1063 536 0;
#X msg 1107 534 1;
#X obj 1262 445 change;
#X obj 1263 472 bng 15 250 50 0 empty empty empty 17 7 0 10 -262144
-1 -1;
#X msg 1065 563 \$1 25;
#X obj 975 333 *;
#X obj 1043 219 r \$0end;
#X obj 1018 267 / 127;
#X obj 1018 308 t b f;
#X obj 974 311 f;
#X obj 1162 -49 r \$0speed;
#X obj 1018 -62 r \$0zerospeed;
#X obj 1019 -10 s \$0speed_r;
#X obj 1162 -16 / 31.75;
#X obj 1167 42 clip 0.125 4;
#X msg 1017 -36 31.75;
#X obj 48 -684 loadbang;
#X obj 1181 80 s \$0speedshow;
#X obj 918 721 *~;
#X obj 556 736 line~;
#X obj 918 766 outlet~;
#X obj 473 -608 r toolssavebank;
#X obj 902 -501 f;
#X obj 847 -507 f;
#X obj 757 -399 s toolssavelists;
#X obj 712 -587 f;
#X obj 470 -537 route;
#X obj 745 -762 loadbang;
#X obj 844 -671 \$1;
#X obj 833 -718 del 5;
#X obj 712 -628 del;
#X obj 974 -473 f;
#X obj 413 -395 s \$0begin_r;
#X obj 475 -371 s \$0end_r;
#X obj 543 -397 s \$0speed_r;
#X obj 885 -564 r \$0begin;
#X obj 975 -561 r \$0end;
#X obj 1086 -556 r \$0speed;
#X obj 162 776 s \$0filename;
#X obj 22 709 r \$0filename_r;
#X obj 7 -525 s \$0speed_r;
#X msg 7 -557 31.75;
#X msg 72 -585 0;
#X msg 160 -638 127;
#X obj 179 -566 s \$0end_r;
#X obj 67 -553 s \$0begin_r;
#X obj 970 453 s \$0durSoundnew;
#X obj 902 -108 r \$0durSoundnew;
#X obj 1208 407 r \$0begin;
#X obj 1257 382 r \$0end;
#X obj 1256 509 del 100;
#X obj 1121 217 f;
#X obj -53 1122 s \$0loaded;
#X obj -51 994 t b b f f;
#X obj 1145 138 r \$0loaded;
#X obj 1019 242 f;
#X obj 318 362 r \$0read;
#X msg 341 406 0;
#X obj 341 441 s \$0RecordOnOff_r;
#X obj 404 379 r \$0write;
#X obj 31 949 sel 0;
#X msg 99 1002 \; \$1sample const 0;
#X obj 95 974 \$0;
#X obj -105 -100 r \$0RecordOnOff;
#X msg -107 -35 0;
#X obj -107 -69 sel 1;
#X obj -108 3 s \$0play_r;
#X obj 23 748 t s b;
#X msg -46 778 read -resize -maxsize 1e+008 \$1;
#X obj 412 156 bng 30 250 50 0 \$0OneShot \$0OneShot_r Abspielen -15
-12 0 12 -191407 -260097 -262144;
#X obj 957 165 r \$0OneShot;
#X obj 730 444 * 1000;
#X obj 732 418 r \$0durSoundnew;
#X obj 783 452 r \$0speedshow;
#X obj 751 500 /;
#X obj 738 468 f;
#X obj 782 475 t b f;
#X msg 155 -518 0;
#X obj 156 -487 s \$0back_r;
#X obj 1227 -467 r \$0filename;
#X obj 703 -312 s \$0filename_r;
#X obj 1095 -481 f;
#X obj 1200 -431 symbol;
#X obj 672 -358 list2symbol;
#X obj 121 -171 s \$0begin;
#X obj 225 -169 s \$0end;
#X obj 88 -284 r \$0begin_ctrl;
#X obj 224 -286 r \$0end_ctrl;
#X obj 226 -219 clip;
#X msg 254 -240 127;
#X obj 341 -335 loadbang;
#X obj 106 -227 clip;
#X msg 129 -253 0;
#X obj -115 -253 spigot;
#X obj -82 -295 - 1;
#X obj -81 -276 abs;
#X obj -129 -213 f;
#X obj -39 -253 sel 1;
#X obj -133 -168 s \$0end_r;
#X floatatom -80 -328 5 0 0 0 - - -, f 5;
#X obj -46 -381 t b f;
#X obj -82 -389 f;
#X obj -84 -409 r \$0end_ctrl;
#X obj 10 -392 r \$0begin_ctrl;
#X obj -82 -356 <;
#X obj -80 -222 del 1;
#X obj 91 -57 max;
#X obj 66 -108 r \$0end_ctrl;
#X obj 160 -91 r \$0begin_ctrl;
#X floatatom 92 -15 5 0 0 0 - - -, f 5;
#X obj 93 45 s \$0end_r;
#X obj 93 17 change;
#X obj 169 -252 + 0.5;
#X obj 172 -234 - 0.5;
#X obj 69 -475 s \$0begin;
#X obj 273 -581 s \$0end;
#X obj 532 -164 inlet;
#X obj 396 -167 inlet;
#X obj 578 -163 inlet;
#X obj 622 -163 inlet;
#X obj 755 -158 inlet;
#X obj 737 -292 s \$0filename;
#X obj 253 223 hsl 50 15 0 127 0 0 \$0att \$0att_r Attack -38 4 0 10
-162280 -260097 -262144 0 1;
#X obj 254 239 nbx 4 14 -1e+037 1e+037 0 0 empty \$0attshow empty 0
-8 0 11 -99865 -260097 -260097 0 256 0;
#X obj 315 223 hsl 50 15 0 127 0 0 \$0rel \$0rel_r Release 62 4 0 10
-162280 -260097 -262144 0 1;
#X obj 315 239 nbx 4 14 -1e+037 1e+037 0 0 empty \$0relshow empty 0
-8 0 11 -99865 -260097 -260097 0 256 0;
#X floatatom 1171 301 5 0 0 0 - - -, f 5;
#X obj 561 614 r \$0OneShot;
#X obj 670 717 del;
#X msg 669 748 0;
#X msg 958 192 0;
#X obj 483 500 r \$0att;
#X obj 565 412 * 1000;
#X obj 567 386 r \$0durSoundnew;
#X obj 618 420 r \$0speedshow;
#X obj 586 468 /;
#X obj 573 436 f;
#X obj 617 443 t b f;
#X obj 487 582 *;
#X obj 586 496 t b f;
#X obj 485 557 f;
#X obj 484 528 / 254;
#X obj 385 545 s \$0attshow;
#X obj 680 587 *;
#X obj 679 506 r \$0rel;
#X obj 680 531 / 254;
#X obj 680 555 f;
#X obj 744 544 s \$0relshow;
#X obj 554 679 pack f f;
#X msg 553 650 1;
#X obj 291 -517 s \$0att_r;
#X msg 282 -542 0;
#X obj 258 -481 s \$0rel_r;
#X obj 682 658 f;
#X obj 684 696 -;
#X obj 680 617 t b f;
#X obj 669 771 pack f f;
#X obj 667 -164 inlet;
#X obj 711 -164 inlet;
#X obj 757 -442 pack s f f f f f f s;
#X obj 1105 -512 r \$0att;
#X obj 1160 -480 f;
#X obj 1170 -511 r \$0rel;
#X obj 722 -557 t b f b b b b b b;
#X obj 472 -502 list split 5;
#X obj 476 -464 unpack f f f f f;
#X obj 591 -350 s \$0att_r;
#X obj 473 -568 route simple;
#X obj 704 -487 symbol simple;
#X obj 615 -328 s \$0rel_r;
#X obj 450 -165 inlet~;
#X obj 450 -106 s~ \$0sigrec;
#N canvas 386 39 818 771 record 0;
#X obj 1244 469 / 44100;
#X floatatom 824 -161 5 0 0 0 - - -, f 5;
#X obj 835 -202 r \$0RecordOnOff;
#X obj 1244 530 s \$0durSound;
#X obj 1216 500 s \$0lenSound;
#X obj 1206 439 t f f;
#X obj 946 619 \$0;
#X msg 949 650 \; \$1sample normalize;
#X msg 569 420 0;
#X obj 564 390 sel 30000;
#X obj 569 447 s \$0RecordOnOff_r;
#X obj 943 550 bng 15 250 50 0 empty empty empty 17 7 0 10 -262144
-1 -1;
#X obj 1063 611 s \$0loaded;
#X obj 601 -57 r~ \$0sigrec;
#X obj 734 444 *~;
#X msg 782 404 1;
#X msg 848 427 0;
#X obj 873 -77 bng 15 250 50 0 empty \$0startrec record-start 17 7
0 10 -262144 -1 -1;
#X obj 782 -27 bng 15 250 50 0 empty \$0stoprec record-stop 17 7 0
10 -262144 -1 -1;
#X floatatom 1003 388 5 0 0 2 recording_length(ms) - -, f 5;
#X obj 1003 509 pack \$1 \$0;
#X obj 855 80 t b b;
#X obj 801 516 bng 15 250 50 0 empty empty empty 17 7 0 10 -262144
-1 -1;
#X obj 1003 435 * 44.1;
#X floatatom 734 338 5 0 0 0 - - -, f 5;
#X obj 821 270 tgl 15 0 empty empty empty 17 7 0 10 -262144 -1 -1 0
1;
#X obj 734 361 sig~;
#X msg 821 240 1;
#X msg 881 253 0;
#X obj 821 190 t b b;
#X obj 1003 354 f;
#X obj 773 310 + 1;
#X obj 734 316 1;
#X msg 868 299 1;
#X obj 734 254 metro 1;
#X msg 654 -12 1;
#X msg 654 9 0;
#X obj 590 26 *~;
#X text 504 255 This patch counts the recording time;
#X text 342 105 When [start] is pressed the audio signal is held up
in the delay line. with every update from [metro] the signal is held
for another millisecond. when the recording is stopped \, the counter
stops at the current time. The array is resized to the amount of samples
that is needed for that amount of time and the audio is played back
into it.;
#X text 1030 409 because we start 1 ms ahead;
#X text 1120 538 array is resized;
#X obj 870 -106 sel 1;
#X obj 777 -61 sel 0;
#X msg 1003 530 \; \$2sample resize \$1;
#X obj 734 552 tabwrite~ \$0sample;
#X obj 782 -8 t b b b;
#X text 591 67 Maximal length is 30 sec;
#X obj 591 49 delwrite~ \$0example 30000;
#X obj 734 385 vd~ \$0example;
#X obj 947 581 del 500;
#X obj 1003 408 - 1;
#X connect 0 0 3 0;
#X connect 1 0 42 0;
#X connect 1 0 43 0;
#X connect 2 0 1 0;
#X connect 5 0 4 0;
#X connect 5 1 0 0;
#X connect 6 0 7 0;
#X connect 8 0 10 0;
#X connect 9 0 8 0;
#X connect 11 0 50 0;
#X connect 13 0 37 0;
#X connect 14 0 45 0;
#X connect 15 0 14 1;
#X connect 16 0 14 1;
#X connect 17 0 21 0;
#X connect 17 0 35 0;
#X connect 18 0 36 0;
#X connect 18 0 46 0;
#X connect 19 0 51 0;
#X connect 20 0 44 0;
#X connect 20 0 11 0;
#X connect 21 0 29 0;
#X connect 21 1 16 0;
#X connect 22 0 45 0;
#X connect 23 0 20 0;
#X connect 23 0 5 0;
#X connect 24 0 26 0;
#X connect 24 0 30 1;
#X connect 24 0 9 0;
#X connect 24 0 50 1;
#X connect 25 0 34 0;
#X connect 26 0 49 0;
#X connect 27 0 25 0;
#X connect 28 0 25 0;
#X connect 29 0 27 0;
#X connect 29 1 33 0;
#X connect 30 0 19 0;
#X connect 31 0 32 1;
#X connect 32 0 24 0;
#X connect 32 0 31 0;
#X connect 33 0 32 0;
#X connect 34 0 32 0;
#X connect 35 0 37 1;
#X connect 36 0 37 1;
#X connect 37 0 48 0;
#X connect 42 0 17 0;
#X connect 43 0 18 0;
#X connect 46 0 15 0;
#X connect 46 1 22 0;
#X connect 46 2 28 0;
#X connect 46 2 30 0;
#X connect 49 0 14 0;
#X connect 50 0 6 0;
#X connect 50 0 12 0;
#X connect 51 0 23 0;
#X restore 124 1088 pd record;
#X obj 1053 756 vline~;
#X obj 394 -69 route bang;
#X obj 447 -34 unpack 0 0;
#X floatatom 498 21 5 0 0 0 - - -, f 5;
#X obj 498 45 / 127;
#X obj 450 -4 moses 0.1;
#X msg 1054 704 0 1 \, \$1 \$2 1 \, 0 \$3 \$4;
#X obj 983 713 *~;
#X obj 1051 674 pack 0 0 0 0;
#X obj 1053 729 t l b;
#X msg 168 740 symbol \$1;
#X obj 654 -717 r toolsdirectory;
#X obj 655 -691 bng 15 250 50 0 empty empty empty 17 7 0 10 -262144
-1 -1;
#X obj 746 -648 clip 1 88;
#X obj -112 344 r toolsdirectory;
#X obj -55 420 \$1;
#X obj -54 447 ftos;
#X obj -100 491 pack s s;
#X obj -55 395 loadbang;
#X obj -96 553 t s b;
#X msg -70 522 symbol \$1Simple\$2Sample.wav;
#X connect 10 0 112 0;
#X connect 10 0 119 0;
#X connect 11 0 127 0;
#X connect 11 0 97 0;
#X connect 12 0 13 0;
#X connect 13 0 11 0;
#X connect 14 0 12 0;
#X connect 14 0 18 0;
#X connect 15 0 10 0;
#X connect 16 0 17 0;
#X connect 17 0 15 1;
#X connect 18 0 16 0;
#X connect 19 0 21 0;
#X connect 22 0 23 0;
#X connect 24 0 25 0;
#X connect 24 0 30 0;
#X connect 25 0 26 0;
#X connect 26 0 33 0;
#X connect 27 0 32 0;
#X connect 28 0 29 0;
#X connect 29 0 27 1;
#X connect 30 0 28 0;
#X connect 31 0 27 0;
#X connect 33 0 31 0;
#X connect 33 0 242 0;
#X connect 34 0 37 0;
#X connect 35 0 43 0;
#X connect 36 0 57 0;
#X connect 37 0 46 0;
#X connect 38 0 68 0;
#X connect 39 0 42 0;
#X connect 40 0 35 0;
#X connect 41 0 40 0;
#X connect 42 0 41 0;
#X connect 42 1 40 1;
#X connect 43 0 34 0;
#X connect 44 0 43 1;
#X connect 45 0 44 0;
#X connect 46 0 36 0;
#X connect 47 0 46 1;
#X connect 48 0 47 0;
#X connect 49 0 110 0;
#X connect 50 0 54 0;
#X connect 51 0 50 1;
#X connect 51 0 185 0;
#X connect 52 0 53 0;
#X connect 53 0 37 1;
#X connect 53 0 56 0;
#X connect 54 0 52 0;
#X connect 54 1 53 1;
#X connect 54 2 48 0;
#X connect 55 0 50 0;
#X connect 56 0 105 0;
#X connect 57 0 77 0;
#X connect 57 0 239 0;
#X connect 58 0 57 1;
#X connect 59 0 63 0;
#X connect 60 0 63 0;
#X connect 61 0 62 0;
#X connect 62 0 59 0;
#X connect 62 0 109 0;
#X connect 63 0 58 0;
#X connect 64 0 52 0;
#X connect 65 0 114 0;
#X connect 66 0 67 0;
#X connect 67 0 68 0;
#X connect 67 1 64 1;
#X connect 68 0 64 0;
#X connect 69 0 72 0;
#X connect 70 0 74 0;
#X connect 72 0 73 0;
#X connect 73 0 45 0;
#X connect 73 0 76 0;
#X connect 74 0 71 0;
#X connect 75 0 100 0;
#X connect 75 0 101 0;
#X connect 75 0 102 0;
#X connect 75 0 136 0;
#X connect 75 0 210 0;
#X connect 77 0 79 0;
#X connect 78 0 77 1;
#X connect 80 0 226 0;
#X connect 81 0 218 3;
#X connect 82 0 218 2;
#X connect 84 0 222 0;
#X connect 85 0 223 0;
#X connect 86 0 88 0;
#X connect 87 0 84 1;
#X connect 87 0 85 1;
#X connect 87 0 245 0;
#X connect 88 0 87 0;
#X connect 89 0 84 0;
#X connect 90 0 218 4;
#X connect 94 0 82 1;
#X connect 95 0 81 1;
#X connect 96 0 90 1;
#X connect 98 0 126 0;
#X connect 100 0 99 0;
#X connect 101 0 104 0;
#X connect 101 0 173 0;
#X connect 102 0 103 0;
#X connect 102 0 174 0;
#X connect 106 0 39 0;
#X connect 107 0 61 0;
#X connect 108 0 61 0;
#X connect 109 0 60 0;
#X connect 110 0 55 0;
#X connect 112 0 111 0;
#X connect 112 1 22 0;
#X connect 112 2 20 0;
#X connect 112 3 19 0;
#X connect 113 0 110 0;
#X connect 113 0 114 0;
#X connect 114 0 66 0;
#X connect 116 0 117 0;
#X connect 119 0 121 0;
#X connect 121 0 120 0;
#X connect 122 0 124 0;
#X connect 123 0 125 0;
#X connect 124 0 123 0;
#X connect 126 0 127 0;
#X connect 126 1 18 0;
#X connect 127 0 15 0;
#X connect 129 0 189 0;
#X connect 130 0 134 0;
#X connect 131 0 130 0;
#X connect 132 0 135 0;
#X connect 133 0 212 0;
#X connect 134 0 133 0;
#X connect 135 0 134 0;
#X connect 135 1 133 1;
#X connect 136 0 137 0;
#X connect 138 0 141 1;
#X connect 140 0 218 5;
#X connect 141 0 218 7;
#X connect 142 0 139 0;
#X connect 142 0 180 0;
#X connect 145 0 150 0;
#X connect 145 0 171 0;
#X connect 146 0 147 0;
#X connect 146 0 172 0;
#X connect 147 0 144 0;
#X connect 148 0 147 2;
#X connect 149 0 148 0;
#X connect 149 0 151 0;
#X connect 150 0 143 0;
#X connect 151 0 150 1;
#X connect 152 0 155 1;
#X connect 153 0 154 0;
#X connect 154 0 152 1;
#X connect 155 0 157 0;
#X connect 156 0 164 0;
#X connect 158 0 153 0;
#X connect 158 0 156 0;
#X connect 159 0 160 0;
#X connect 159 1 163 1;
#X connect 160 0 163 0;
#X connect 161 0 160 0;
#X connect 161 0 152 0;
#X connect 162 0 159 0;
#X connect 163 0 158 0;
#X connect 164 0 155 0;
#X connect 165 0 168 0;
#X connect 166 0 165 0;
#X connect 167 0 165 1;
#X connect 168 0 170 0;
#X connect 170 0 169 0;
#X connect 171 0 147 1;
#X connect 172 0 150 2;
#X connect 175 0 6 0;
#X connect 176 0 233 0;
#X connect 177 0 5 0;
#X connect 178 0 4 0;
#X connect 179 0 1 0;
#X connect 186 0 187 0;
#X connect 186 0 208 0;
#X connect 187 0 188 0;
#X connect 188 0 215 0;
#X connect 189 0 34 1;
#X connect 190 0 200 0;
#X connect 191 0 195 0;
#X connect 192 0 191 0;
#X connect 193 0 196 0;
#X connect 194 0 198 0;
#X connect 195 0 194 0;
#X connect 196 0 195 0;
#X connect 196 1 194 1;
#X connect 197 0 207 1;
#X connect 197 0 240 1;
#X connect 198 0 199 0;
#X connect 198 0 205 0;
#X connect 198 1 197 1;
#X connect 198 1 202 1;
#X connect 199 0 197 0;
#X connect 200 0 199 0;
#X connect 200 0 201 0;
#X connect 202 0 214 0;
#X connect 202 0 215 1;
#X connect 202 0 240 2;
#X connect 203 0 204 0;
#X connect 204 0 205 0;
#X connect 204 0 206 0;
#X connect 205 0 202 0;
#X connect 207 0 78 0;
#X connect 208 0 207 0;
#X connect 210 0 209 0;
#X connect 210 0 211 0;
#X connect 212 0 213 0;
#X connect 213 0 187 1;
#X connect 213 0 240 3;
#X connect 214 0 212 0;
#X connect 214 1 213 1;
#X connect 215 0 78 0;
#X connect 216 0 181 0;
#X connect 217 0 183 0;
#X connect 218 0 83 0;
#X connect 219 0 140 1;
#X connect 220 0 218 6;
#X connect 221 0 220 1;
#X connect 222 0 227 0;
#X connect 222 1 218 1;
#X connect 222 2 82 0;
#X connect 222 3 81 0;
#X connect 222 4 90 0;
#X connect 222 5 140 0;
#X connect 222 6 220 0;
#X connect 222 7 141 0;
#X connect 223 0 224 0;
#X connect 223 1 142 0;
#X connect 224 0 91 0;
#X connect 224 1 92 0;
#X connect 224 2 93 0;
#X connect 224 3 225 0;
#X connect 224 4 228 0;
#X connect 226 0 85 0;
#X connect 227 0 218 0;
#X connect 229 0 230 0;
#X connect 232 0 239 1;
#X connect 233 0 128 0;
#X connect 233 1 234 0;
#X connect 234 1 237 0;
#X connect 235 0 236 0;
#X connect 236 0 240 0;
#X connect 237 1 235 0;
#X connect 238 0 241 0;
#X connect 239 0 79 0;
#X connect 240 0 238 0;
#X connect 241 0 232 0;
#X connect 241 1 189 0;
#X connect 242 0 97 0;
#X connect 243 0 244 0;
#X connect 244 0 89 0;
#X connect 245 0 89 1;
#X connect 246 0 249 0;
#X connect 247 0 248 0;
#X connect 248 0 249 1;
#X connect 249 0 252 0;
#X connect 250 0 247 0;
#X connect 251 0 31 0;
#X connect 251 1 30 0;
#X connect 252 0 251 0;
#X connect 252 0 97 0;
#X coords 0 -1 1 1 434 164 1 100 100;
