#N canvas 37 46 1349 705 10;
#X obj 77 5 vline~;
#X obj 77 26 *~;
#X obj 214 -10 noise~;
#X obj 338 142 *~;
#X obj 526 30 vline~;
#X obj 526 51 *~;
#X obj 526 72 *~;
#X obj 215 65 lop~ 1200;
#X obj 272 372 *~ 0.7;
#X obj 209 -210 t b b b;
#X obj 167 233 vcf~ 30;
#X obj 296 235 vcf~ 30;
#X obj 344 235 vcf~ 30;
#X obj 235 235 vcf~ 15;
#X obj 13 65 +~ 150;
#X obj 277 273 *~ 15;
#X obj 327 273 *~ 3;
#X obj 56 67 +~ 305;
#X obj 98 67 +~ 490;
#X obj 140 67 +~ 700;
#X obj 592 170 vline~;
#X obj 591 197 *~;
#X obj 736 168 vline~;
#X obj 733 194 *~;
#X obj 560 220 *~;
#X obj 630 248 *~;
#X obj 559 126 lop~ 1000;
#X obj 629 197 hip~ 950;
#X obj 234 274 *~ 30;
#X obj 680 174 * 0.95;
#X obj 592 224 expr ($f1/500) + 0.4;
#X obj 559 248 *~ 0.7;
#X obj 320 372 *~ 0.5;
#X obj 188 273 *~ 25;
#X obj 219 -233 bng 15 250 50 0 empty empty empty 0 -6 0 10 -262144
-1 -1;
#X obj 214 11 expr~ if ($v1 == 0 \, 0 \, (if ($v1 < 0 \, -1 \, 1)))
;
#X obj 214 31 *~ 0.5;
#X text 268 -7 TOTAL DISTORTION;
#X text 596 273 the snare cables;
#X text 217 -29 noise impulse;
#X text 37 -33 frequency descends a bit;
#X text 534 -6 impulse envelope;
#X text 320 111 formants;
#X text 237 -234 hit it;
#X text 796 336 sg 2008;
#X floatatom 1154 381 5 0 0 0 - - -;
#X obj 699 79 pack f f;
#X obj 739 46 r \$0decay;
#X obj 525 -41 pack f f;
#X obj 565 -74 r \$0decay;
#X msg 525 10 \$1 0 0 \, 0 \$2 1;
#X msg 736 148 \$1 0 0 \, 0 \$2 0;
#X obj 1160 411 s \$0decay;
#X obj 68 -98 pack f f;
#X obj 111 -134 r \$0sound;
#X obj 1056 450 s \$0sound;
#X floatatom 1048 430 5 0 0 0 - - -;
#X obj 1058 330 + 1;
#X obj 74 -50 expr ($f1/$f2) + 5;
#X obj 1058 358 / 50;
#X obj 1056 384 pow 5.65;
#X obj 1153 356 * 4;
#X obj -118 18 * 2.905;
#X obj -80 6 * 3.27;
#X msg 76 -18 \$1 1 0 \, 0 65 1;
#X obj -30 11 * 4.7;
#X obj -152 -69 * 4;
#X obj -181 12 + 50;
#X obj -109 -181 r \$0tune;
#X msg 591 150 \$1 0 0 \, 0 \$2 0;
#X obj 1056 406 + 0.325;
#X obj 376 416 *~ 0.5;
#X obj 527 357 clip~ -1 1;
#X obj 611 87 + 900;
#X floatatom 1186 272 5 0 0 0 - - -;
#X obj 1187 301 + 50;
#X obj 1184 251 pow 1.9;
#X obj 1198 335 s \$0farbe;
#X obj 647 39 r \$0farbe;
#X obj 836 -248 loadbang;
#X msg 842 -221 35;
#X msg 905 -153 33;
#X msg 827 -189 100;
#X msg 740 -154 25;
#X obj 228 -150 + 50;
#X obj 228 -174 random 51;
#X obj 494 -124 expr ($f1/800) + 0.875;
#X obj 533 457 outlet~;
#X obj 216 -374 inlet;
#X obj 131 -253 t b b;
#X msg 179 -226 1;
#X obj 538 435 *~;
#X obj 610 415 vline~;
#X obj 308 -244 t f b;
#X obj 256 -292 unpack f f;
#X obj 333 -178 / 127;
#X obj 204 -322 route bang;
#X obj 124 -277 bng 15 250 50 0 empty empty empty 17 7 0 10 -262144
-1 -1;
#X obj 650 297 t f f;
#X obj 620 351 pack f f f;
#X msg 617 376 0 \, \$1 1 0 \, \$3 15 1 \, 0 \$2 16;
#X obj 672 319 * 0.6;
#X obj 1117 -157 cnv 15 125 196 empty empty snarezwo 24 12 0 16 -33289
-260097 0;
#X obj 1130 -119 vsl 15 60 0 127 0 0 \$0tune \$0tune_r tune -6 -9 0
11 -228856 -260097 -262144 1161 1;
#X obj 1211 -119 vsl 15 60 0 127 0 0 \$0farbemidi \$0farbe_r farbe
-8 -9 0 11 -228856 -260097 -262144 1626 1;
#X obj 1165 -100 bng 25 250 50 0 \$0kickit \$0kickit_r empty 17 7 0
10 -228856 -260097 -1;
#X obj 1151 2 hsl 50 15 1 127 0 0 \$0soundmidi \$0sound_r sound 11
7 0 10 -228856 -260097 -1 3850 1;
#X obj 1130 -56 nbx 3 14 -1e+037 1e+037 0 0 \$0showtune_s \$0showtune
empty 0 -8 0 10 -262144 -1 -1 149.964 256;
#X obj 1193 -56 nbx 3 14 -1e+037 1e+037 0 0 \$0noiseshow_s \$0noiseshow
empty 0 -8 0 10 -262144 -1 -1 0.275593 256;
#X obj 1136 -34 hsl 80 15 0.0127 127 0 0 \$0decaymidi \$0decay_r decay
26 7 0 10 -228856 -260097 -1 2052 1;
#X obj 1160 19 nbx 3 14 -1e+037 1e+037 0 0 \$0showsnap_s \$0showsnap
empty 0 -8 0 10 -262144 -1 -1 0.787402 256;
#X obj 1156 -17 nbx 4 14 -1e+037 1e+037 0 0 \$0decayshow_s \$0decayshow
empty 0 -8 0 10 -262144 -1 -1 131.989 256;
#X obj 781 -120 s \$0tune_r;
#X obj 941 -127 s \$0decay_r;
#X obj 879 -91 s \$0farbe_r;
#X obj 1185 197 r \$0farbemidi;
#X obj 1098 332 r \$0decaymidi;
#X obj 1120 188 / 127;
#X obj 1097 238 s \$0noiseshow;
#X obj -128 -30 s \$0showtune;
#X obj 1145 439 s \$0decayshow;
#X obj 1049 291 r \$0soundmidi;
#X obj 805 -148 s \$0sound_r;
#X obj 982 331 / 127;
#X obj 952 371 s \$0showsnap;
#X obj 1153 -226 inlet;
#X obj 118 -318 r \$0kickit;
#X obj 170 -287 s \$0kickit_r;
#X obj 1198 -208 inlet;
#X obj 1260 -192 inlet;
#X obj 1291 -140 inlet;
#X obj 1233 -698 r toolssavebank;
#X obj 1443 -781 r toolssavebang;
#X obj 1662 -591 f;
#X obj 1607 -597 f;
#X obj 1522 -414 s toolssavelists;
#X obj 1472 -677 f;
#X obj 1235 -580 route;
#X obj 1593 -836 loadbang;
#X obj 1594 -780 \$1;
#X obj 1593 -808 del 5;
#X obj 1472 -718 del;
#X obj 1734 -563 f;
#X obj 1780 -542 f;
#X obj 1634 -720 r \$0tune;
#X obj 1202 -511 s \$0tune_r;
#X obj 1236 -609 route snarezwo;
#X obj 1464 -577 symbol snarezwo;
#X obj 1793 -653 r \$0soundmidi;
#X obj 1812 -593 r \$0decaymidi;
#X obj 1524 -457 pack s f f f f f;
#X obj 1471 -628 t b f b b b b;
#X obj 1249 -485 s \$0farbe_r;
#X obj 1293 -451 s \$0sound_r;
#X obj 1347 -413 s \$0decay_r;
#X obj 1237 -554 unpack f f f f;
#X obj 1714 -666 r \$0farbemidi;
#X obj 290 -269 moses 0.1;
#X connect 0 0 1 0;
#X connect 0 0 1 1;
#X connect 1 0 14 0;
#X connect 1 0 17 0;
#X connect 1 0 18 0;
#X connect 1 0 19 0;
#X connect 2 0 35 0;
#X connect 3 0 10 0;
#X connect 3 0 11 0;
#X connect 3 0 12 0;
#X connect 3 0 13 0;
#X connect 4 0 5 0;
#X connect 4 0 5 1;
#X connect 5 0 6 0;
#X connect 5 0 6 1;
#X connect 6 0 3 0;
#X connect 7 0 3 1;
#X connect 8 0 71 0;
#X connect 9 1 85 0;
#X connect 10 0 33 0;
#X connect 11 0 15 0;
#X connect 12 0 16 0;
#X connect 13 0 28 0;
#X connect 14 0 10 1;
#X connect 15 0 8 0;
#X connect 16 0 8 0;
#X connect 17 0 13 1;
#X connect 18 0 11 1;
#X connect 19 0 12 1;
#X connect 20 0 21 0;
#X connect 20 0 21 1;
#X connect 21 0 24 1;
#X connect 22 0 23 0;
#X connect 22 0 23 1;
#X connect 23 0 25 1;
#X connect 24 0 31 0;
#X connect 25 0 32 0;
#X connect 26 0 24 0;
#X connect 26 0 27 0;
#X connect 27 0 25 0;
#X connect 28 0 8 0;
#X connect 29 0 27 1;
#X connect 30 0 31 1;
#X connect 31 0 32 0;
#X connect 32 0 71 0;
#X connect 33 0 8 0;
#X connect 34 0 9 0;
#X connect 35 0 36 0;
#X connect 36 0 26 0;
#X connect 36 0 7 0;
#X connect 45 0 52 0;
#X connect 45 0 99 1;
#X connect 45 0 120 0;
#X connect 46 0 51 0;
#X connect 46 0 69 0;
#X connect 47 0 46 1;
#X connect 48 0 50 0;
#X connect 49 0 48 1;
#X connect 50 0 4 0;
#X connect 51 0 22 0;
#X connect 53 0 58 0;
#X connect 54 0 53 1;
#X connect 56 0 55 0;
#X connect 57 0 59 0;
#X connect 58 0 64 0;
#X connect 59 0 60 0;
#X connect 60 0 70 0;
#X connect 61 0 45 0;
#X connect 62 0 17 1;
#X connect 63 0 18 1;
#X connect 64 0 0 0;
#X connect 65 0 19 1;
#X connect 66 0 67 0;
#X connect 67 0 62 0;
#X connect 67 0 14 1;
#X connect 67 0 63 0;
#X connect 67 0 65 0;
#X connect 67 0 119 0;
#X connect 68 0 66 0;
#X connect 69 0 20 0;
#X connect 70 0 56 0;
#X connect 71 0 72 0;
#X connect 72 0 91 0;
#X connect 73 0 29 0;
#X connect 73 0 26 1;
#X connect 74 0 75 0;
#X connect 75 0 77 0;
#X connect 76 0 74 0;
#X connect 78 0 73 1;
#X connect 79 0 80 0;
#X connect 79 0 81 0;
#X connect 79 0 82 0;
#X connect 79 0 83 0;
#X connect 80 0 114 0;
#X connect 81 0 113 0;
#X connect 82 0 122 0;
#X connect 83 0 112 0;
#X connect 84 0 53 0;
#X connect 84 0 30 0;
#X connect 84 0 73 0;
#X connect 84 0 86 0;
#X connect 85 0 84 0;
#X connect 86 0 46 0;
#X connect 86 0 48 0;
#X connect 88 0 96 0;
#X connect 89 0 90 0;
#X connect 89 1 34 0;
#X connect 90 0 98 0;
#X connect 91 0 87 0;
#X connect 92 0 91 1;
#X connect 93 0 95 0;
#X connect 93 1 34 0;
#X connect 94 1 157 0;
#X connect 95 0 98 0;
#X connect 96 0 127 0;
#X connect 96 1 94 0;
#X connect 97 0 89 0;
#X connect 98 0 99 0;
#X connect 98 1 101 0;
#X connect 99 0 100 0;
#X connect 100 0 92 0;
#X connect 101 0 99 2;
#X connect 115 0 76 0;
#X connect 115 0 117 0;
#X connect 116 0 61 0;
#X connect 117 0 118 0;
#X connect 121 0 57 0;
#X connect 121 0 123 0;
#X connect 123 0 124 0;
#X connect 125 0 103 0;
#X connect 126 0 97 0;
#X connect 128 0 104 0;
#X connect 129 0 109 0;
#X connect 130 0 106 0;
#X connect 131 0 146 0;
#X connect 132 0 141 0;
#X connect 133 0 150 3;
#X connect 134 0 150 2;
#X connect 136 0 151 0;
#X connect 137 0 155 0;
#X connect 138 0 140 0;
#X connect 139 0 136 1;
#X connect 139 0 137 1;
#X connect 139 0 141 1;
#X connect 140 0 139 0;
#X connect 141 0 136 0;
#X connect 142 0 150 4;
#X connect 143 0 150 5;
#X connect 144 0 134 1;
#X connect 146 0 137 0;
#X connect 147 0 150 0;
#X connect 148 0 142 1;
#X connect 149 0 143 1;
#X connect 150 0 135 0;
#X connect 151 0 147 0;
#X connect 151 1 150 1;
#X connect 151 2 134 0;
#X connect 151 3 133 0;
#X connect 151 4 142 0;
#X connect 151 5 143 0;
#X connect 155 0 145 0;
#X connect 155 1 152 0;
#X connect 155 2 153 0;
#X connect 155 3 154 0;
#X connect 156 0 133 1;
#X connect 157 1 93 0;
#X coords 0 -1 1 1 127 200 1 1116 -159;
