#N canvas -8 -8 1440 818 10;
#X obj 471 -363 loadbang;
#X obj 451 -259 s \$0attack_r;
#X floatatom -215 -547 5 0 0 0 - - -;
#X obj -409 -25 r \$0decay;
#X obj -107 98 *~;
#X obj -473 -95 r \$0attack;
#X obj -630 167 vline~;
#X obj -486 1 +;
#X obj -500 -24 f;
#X obj -461 -25 t b f;
#X obj -489 23 t b f;
#X obj -539 47 f;
#X obj -432 30 t b f;
#X obj 63 -142 inlet;
#X obj -467 -635 bng 15 250 50 0 empty \$0kickit empty 17 7 0 10 -262144
-1 -1;
#X obj -475 -58 / 1.27;
#X obj -417 3 * 2.3622;
#X obj -404 73 s \$0decayshow;
#X obj -417 119 s \$0attackshow;
#X obj -379 -614 t b b b;
#X obj 205 -375 s \$0waveclipctl;
#X obj -192 -502 t b f;
#X obj -217 -475 pack f f;
#X obj -219 -500 f;
#X obj -263 -387 vline~;
#X obj -192 -642 r \$0tune;
#X obj 201 -431 loadbang;
#X obj -194 -365 *~;
#X msg -253 -430 \$2 0 \, \$1 33.52;
#X obj -253 -326 +~;
#X obj 53 -461 loadbang;
#X obj -96 -471 phasor~;
#X obj -96 -444 -~ 0.5;
#X obj -97 -416 *~ 2;
#N canvas 229 263 335 248 AM 0;
#X obj 61 21 inlet~;
#X obj 13 246 outlet~;
#X obj 62 178 *~;
#X obj 77 95 osc~;
#X obj 78 144 *~;
#X obj 14 214 *~ 0.7;
#X text 108 142 Intensit채t;
#X text 63 213 Lautst채rkenregulierung;
#X obj 172 7 loadbang;
#X obj 108 -2 r \$0showtune;
#X msg 186 32 0.33;
#X obj 110 65 * 2.2;
#X connect 0 0 2 0;
#X connect 0 0 5 0;
#X connect 2 0 5 0;
#X connect 3 0 4 0;
#X connect 4 0 2 1;
#X connect 5 0 1 0;
#X connect 8 0 10 0;
#X connect 9 0 11 0;
#X connect 10 0 4 1;
#X connect 11 0 3 0;
#X restore -227 -168 pd AM;
#X obj -122 -64 +~;
#N canvas 237 320 315 238 Noise 0;
#X obj 43 -16 noise~;
#X obj 42 205 outlet~;
#X obj 43 167 *~;
#X obj 93 23 r \$0tune;
#X obj 95 132 r \$0noise;
#X obj 92 162 / 127;
#X obj 43 54 hip~;
#X obj 122 -37 loadbang;
#X msg 113 -12 50;
#X obj 43 103 vcf_lp4~;
#X obj 178 9 r \$0snappy;
#X obj 91 69 + 6000;
#X obj 180 39 / 40;
#X obj 175 60 + 0.767;
#X obj 98 46 * 67;
#X obj 98 196 s \$0noiseshow;
#X connect 0 0 6 0;
#X connect 2 0 1 0;
#X connect 3 0 14 0;
#X connect 4 0 5 0;
#X connect 5 0 2 1;
#X connect 5 0 15 0;
#X connect 6 0 9 0;
#X connect 7 0 8 0;
#X connect 8 0 6 1;
#X connect 9 0 2 0;
#X connect 10 0 12 0;
#X connect 11 0 9 1;
#X connect 12 0 13 0;
#X connect 13 0 9 2;
#X connect 14 0 11 0;
#X restore -128 -137 pd Noise;
#X obj -145 0 /~ 2;
#N canvas 486 249 450 300 waveshape 0;
#X obj 115 5 clip~ -1 1;
#X obj 188 -73 * -1;
#X floatatom 240 -11 7 0 0 0 - - -;
#X obj 116 166 /~;
#X floatatom 188 -52 7 0 0 0 - - -;
#N canvas 590 139 404 272 Waveshapecontrols 0;
#X obj 44 70 / 127;
#X floatatom 44 92 5 0 0 0 - - -;
#X obj 44 213 outlet;
#X obj 44 27 - 127;
#X obj 44 47 abs;
#X floatatom 44 136 5 0 0 0 - - -;
#X obj 43 115 + 0.189207;
#X obj 44 157 pow 4;
#X obj 44 183 + 0.025;
#X text 140 89 Die Controllerwerte f체r das Clipping;
#X text 140 103 werden skaliert und begrenzt.;
#X obj 103 30 / 127;
#X obj 44 6 r \$0waveclipctl;
#X obj 103 53 s \$0waveclipshow;
#X connect 0 0 1 0;
#X connect 1 0 6 0;
#X connect 3 0 4 0;
#X connect 4 0 0 0;
#X connect 5 0 7 0;
#X connect 6 0 5 0;
#X connect 7 0 8 0;
#X connect 8 0 2 0;
#X connect 11 0 13 0;
#X connect 12 0 3 0;
#X connect 12 0 11 0;
#X restore 240 -90 pd Waveshapecontrols;
#X text 87 -42 Waveshaping;
#X text 288 -12 obere Begrenzung;
#X text 237 -53 untere Begrenzung;
#X text 207 111 Anpassung der Laust채rke;
#X text 207 124 des geclippten Signals.;
#X obj 130 133 line~;
#X msg 130 111 \$1 5;
#X obj 130 92 clip 0.05 1;
#X obj 130 72 + 0.05;
#X obj 119 197 outlet~;
#X obj 116 -68 inlet~;
#X connect 0 0 3 0;
#X connect 1 0 4 0;
#X connect 2 0 0 2;
#X connect 2 0 14 0;
#X connect 3 0 15 0;
#X connect 4 0 0 1;
#X connect 5 0 1 0;
#X connect 5 0 2 0;
#X connect 11 0 3 1;
#X connect 12 0 11 0;
#X connect 13 0 12 0;
#X connect 14 0 13 0;
#X connect 16 0 0 0;
#X restore -237 -123 pd waveshape;
#X msg -301 -587 0;
#X obj 301 -267 s \$0noise_r;
#X msg 328 -340 127;
#X obj 380 -238 s \$0tune_r;
#X obj 647 -258 s \$0decay_r;
#X msg 204 -405 53;
#X obj -127 -601 s \$0showtune;
#X obj -192 -261 osc~;
#X obj -156 -531 * 2;
#X obj -19 -583 t b f;
#X obj -24 -656 r \$0snappy;
#X obj -26 -629 / 42.333;
#X obj -21 -606 + 1.1;
#X obj -192 -619 * 1;
#X obj -192 -600 + 130;
#X msg 53 -434 200;
#X obj -67 -537 * 8;
#X obj -153 -91 *~ 0.45;
#X obj -537 92 pack f f f f;
#X obj -402 -95 loadbang;
#X obj -252 26 r \$0snappy;
#X obj -252 70 - 1;
#X obj -252 92 abs;
#X floatatom -252 114 5 0 0 0 - - -;
#X msg -409 -59 1;
#X msg -626 142 1 \$1 \, \$4 15 \$1 \, 0 \$3 \$2;
#X obj -499 66 + 15;
#X obj -458 70 t b f;
#X obj -252 48 / 100;
#X msg 459 -289 0.00127;
#X msg 632 -297 45;
#X obj 612 -189 s \$0snappy_r;
#X msg 395 -331 39;
#X msg 608 -223 68;
#X obj 102 102 cnv 15 125 196 empty empty snare 35 12 0 16 -33289 -260097
0;
#X obj 115 140 vsl 15 60 0 127 0 0 \$0tune \$0tune_r tune -6 -9 0 11
-228856 -260097 -262144 1812 1;
#X obj 196 140 vsl 15 60 0 127 0 0 \$0noise \$0noise_r noise -8 -9
0 11 -228856 -260097 -262144 5900 1;
#X obj 150 159 bng 25 250 50 0 \$0kickit \$0kickit_r empty 17 7 0 10
-228856 -260097 -1;
#X obj 128 220 hsl 75 15 1 127 0 0 \$0snappy \$0snappy_r snappy 18
8 0 11 -228856 -260097 -1 3935 1;
#X obj 115 203 nbx 3 14 -1e+037 1e+037 0 0 \$0showtune_s \$0showtune
empty 0 -8 0 10 -262144 -1 -1 169.004 256;
#X obj 178 203 nbx 3 14 -1e+037 1e+037 0 0 \$0noiseshow_s \$0noiseshow
empty 0 -8 0 10 -262144 -1 -1 1 256;
#X obj 109 261 hsl 50 15 0.0127 127 1 0 \$0attack \$0attack_r attack
7 7 0 10 -228856 -260097 -1 0 1;
#X obj 173 262 hsl 50 15 0.0127 127 0 0 \$0decay \$0decay_r decay 9
7 0 10 -228856 -260097 -1 1736 1;
#X obj 148 235 nbx 3 14 -1e+037 1e+037 0 0 \$0showsnap_s \$0showsnap
empty 0 -8 0 10 -262144 -1 -1 0.535444 256;
#X obj 119 276 nbx 4 14 -1e+037 1e+037 0 0 \$0attackshow_s \$0attackshow
empty 0 -8 0 10 -262144 -1 -1 0.01 256;
#X obj 179 277 nbx 4 14 -1e+037 1e+037 0 0 \$0decayshow_s \$0decayshow
empty 0 -8 0 10 -262144 -1 -1 106.305 256;
#X obj 242 47 inlet;
#X obj 309 69 inlet;
#X obj 385 78 inlet;
#X obj 452 100 inlet;
#X obj 489 114 inlet;
#X obj 73 -642 / 127;
#X obj 75 -611 s \$0showsnap;
#X obj -125 291 outlet~;
#X obj 443 190 r toolssavebank;
#X obj 653 107 r toolssavebang;
#X obj 872 297 f;
#X obj 817 291 f;
#X obj 727 399 s toolssavelists;
#X obj 682 211 f;
#X obj 445 308 route;
#X obj 803 52 loadbang;
#X obj 804 108 \$1;
#X obj 803 80 del 5;
#X obj 682 170 del;
#X obj 944 325 f;
#X obj 729 356 pack s f f f f f f f f f;
#X obj 1045 352 f;
#X obj 990 346 f;
#X obj 680 260 t b f b b b b b;
#X obj 1057 324 r \$0decay;
#X obj 1022 295 r \$0attack;
#X obj 446 334 unpack f f f f f;
#X obj 592 504 s \$0decay_r;
#X obj 557 475 s \$0attack_r;
#X obj 446 279 route snare;
#X obj 673 311 symbol snare;
#X obj 844 168 r \$0tune;
#X obj 924 222 r \$0noise;
#X obj 1003 235 r \$0snappy;
#X obj 412 377 s \$0tune_r;
#X obj 459 403 s \$0noise_r;
#X obj 503 437 s \$0snappy_r;
#X obj -61 127 r \$0snappy;
#X obj -127 195 *~;
#X obj -61 147 / 100;
#X obj -86 179 clip 0.1 1;
#X obj -123 271 *~ 3.4;
#X obj 50 -90 route bang;
#X obj 107 -47 unpack 0 0;
#X floatatom 158 8 5 0 0 0 - - -;
#X obj 158 32 / 127;
#X obj 108 -21 moses 0.1;
#X obj -297 250 r \$0decay;
#X obj -361 180 r \$0attack;
#X obj -478 479 vline~;
#X obj -374 276 +;
#X obj -388 251 f;
#X obj -349 250 t b f;
#X obj -377 298 t b f;
#X obj -427 322 f;
#X obj -320 305 t b f;
#X obj -363 217 / 1.27;
#X obj -305 278 * 2.3622;
#X obj -292 348 s \$0decayshow;
#X obj -305 394 s \$0attackshow;
#X obj -425 367 pack f f f f;
#X obj -290 180 loadbang;
#X msg -297 216 1;
#X obj -387 341 + 15;
#X obj -278 314 t b f;
#X obj -178 111 *~;
#X msg -479 443 \$1 \$2 \, \$5 15 \$2 \, 0 \$4 \$3;
#X obj -510 339 t f b b;
#X obj -492 396 list append;
#X obj -234 284 *;
#X obj -207 255 t b f;
#X obj -232 249 f;
#X obj -2 62 t f f;
#X obj -270 -472 list;
#X obj -610 113 list;
#X connect 0 0 71 0;
#X connect 0 0 41 0;
#X connect 0 0 68 0;
#X connect 0 0 69 0;
#X connect 0 0 72 0;
#X connect 2 0 23 0;
#X connect 2 0 47 0;
#X connect 3 0 16 0;
#X connect 4 0 123 0;
#X connect 5 0 15 0;
#X connect 6 0 4 1;
#X connect 7 0 10 0;
#X connect 8 0 7 0;
#X connect 8 0 11 0;
#X connect 9 0 8 0;
#X connect 9 1 7 1;
#X connect 10 0 11 0;
#X connect 10 1 65 0;
#X connect 11 0 57 0;
#X connect 12 0 11 0;
#X connect 12 1 57 2;
#X connect 13 0 127 0;
#X connect 14 0 19 0;
#X connect 15 0 8 0;
#X connect 15 0 18 0;
#X connect 16 0 12 0;
#X connect 16 0 17 0;
#X connect 19 0 159 0;
#X connect 19 1 158 0;
#X connect 19 2 39 0;
#X connect 21 0 23 0;
#X connect 21 1 22 1;
#X connect 22 0 158 1;
#X connect 23 0 22 0;
#X connect 24 0 29 0;
#X connect 25 0 52 0;
#X connect 26 0 44 0;
#X connect 27 0 29 1;
#X connect 28 0 24 0;
#X connect 29 0 46 0;
#X connect 30 0 54 0;
#X connect 31 0 32 0;
#X connect 32 0 33 0;
#X connect 33 0 27 0;
#X connect 34 0 38 0;
#X connect 35 0 37 0;
#X connect 36 0 35 1;
#X connect 37 0 4 0;
#X connect 37 0 150 0;
#X connect 38 0 56 0;
#X connect 39 0 46 1;
#X connect 41 0 40 0;
#X connect 44 0 20 0;
#X connect 46 0 34 0;
#X connect 47 0 21 0;
#X connect 48 0 2 0;
#X connect 48 1 47 1;
#X connect 49 0 50 0;
#X connect 49 0 90 0;
#X connect 50 0 51 0;
#X connect 51 0 48 0;
#X connect 52 0 53 0;
#X connect 53 0 2 0;
#X connect 53 0 45 0;
#X connect 53 0 55 0;
#X connect 54 0 27 1;
#X connect 55 0 31 0;
#X connect 56 0 35 0;
#X connect 57 0 159 1;
#X connect 58 0 63 0;
#X connect 59 0 67 0;
#X connect 60 0 61 0;
#X connect 61 0 62 0;
#X connect 62 0 66 0;
#X connect 62 0 156 0;
#X connect 63 0 9 0;
#X connect 64 0 6 0;
#X connect 65 0 57 1;
#X connect 66 0 57 0;
#X connect 66 1 57 3;
#X connect 67 0 60 0;
#X connect 68 0 1 0;
#X connect 69 0 43 0;
#X connect 71 0 42 0;
#X connect 72 0 70 0;
#X connect 85 0 74 0;
#X connect 86 0 75 0;
#X connect 87 0 77 0;
#X connect 88 0 80 0;
#X connect 89 0 81 0;
#X connect 90 0 91 0;
#X connect 93 0 114 0;
#X connect 94 0 103 0;
#X connect 95 0 105 3;
#X connect 96 0 105 2;
#X connect 98 0 108 0;
#X connect 99 0 111 0;
#X connect 100 0 102 0;
#X connect 101 0 98 1;
#X connect 101 0 99 1;
#X connect 101 0 103 1;
#X connect 102 0 101 0;
#X connect 103 0 98 0;
#X connect 104 0 105 4;
#X connect 105 0 97 0;
#X connect 106 0 105 6;
#X connect 107 0 105 5;
#X connect 108 0 115 0;
#X connect 108 1 105 1;
#X connect 108 2 96 0;
#X connect 108 3 95 0;
#X connect 108 4 104 0;
#X connect 108 5 107 0;
#X connect 108 6 106 0;
#X connect 109 0 106 1;
#X connect 110 0 107 1;
#X connect 111 0 119 0;
#X connect 111 1 120 0;
#X connect 111 2 121 0;
#X connect 111 3 113 0;
#X connect 111 4 112 0;
#X connect 114 0 99 0;
#X connect 115 0 105 0;
#X connect 116 0 96 1;
#X connect 117 0 95 1;
#X connect 118 0 104 1;
#X connect 122 0 124 0;
#X connect 123 0 126 0;
#X connect 124 0 125 0;
#X connect 125 0 123 1;
#X connect 126 0 92 0;
#X connect 127 0 76 0;
#X connect 127 1 128 0;
#X connect 128 1 131 0;
#X connect 129 0 130 0;
#X connect 130 0 157 0;
#X connect 131 1 129 0;
#X connect 132 0 142 0;
#X connect 133 0 141 0;
#X connect 134 0 150 1;
#X connect 135 0 138 0;
#X connect 136 0 135 0;
#X connect 136 0 139 0;
#X connect 137 0 136 0;
#X connect 137 1 135 1;
#X connect 138 0 139 0;
#X connect 138 1 148 0;
#X connect 139 0 145 0;
#X connect 140 0 139 0;
#X connect 140 1 145 2;
#X connect 141 0 136 0;
#X connect 141 0 144 0;
#X connect 142 0 140 0;
#X connect 142 0 143 0;
#X connect 145 0 153 1;
#X connect 146 0 147 0;
#X connect 147 0 137 0;
#X connect 148 0 145 1;
#X connect 149 0 145 0;
#X connect 149 1 145 3;
#X connect 150 0 123 0;
#X connect 151 0 134 0;
#X connect 152 0 153 0;
#X connect 152 1 158 0;
#X connect 152 2 39 0;
#X connect 153 0 151 0;
#X connect 154 0 149 0;
#X connect 155 0 156 0;
#X connect 155 1 154 1;
#X connect 156 0 154 0;
#X connect 157 0 152 0;
#X connect 157 1 155 0;
#X connect 158 0 28 0;
#X connect 159 0 64 0;
#X coords 0 -1 1 1 129 200 1 100 100;
