#N canvas 0 0 1440 818 10;
#X declare -lib Gem;
#X obj -51 8 inlet~;
#X obj -51 91 *~;
#X obj -20 91 *~;
#X obj -51 58 rfft~;
#X obj -51 173 clip~ 0 1;
#X obj -51 149 /~ 511;
#N canvas 300 485 450 300 hueToRgb 0;
#X obj 138 53 inlet~;
#X obj 103 131 -~ 0.666666;
#X obj 103 182 clip~ 0 1;
#X obj 103 156 *~ 3;
#X obj 199 157 *~ 3;
#X obj 199 208 wrap~;
#X obj 199 183 clip~ 1e-005 1.00001;
#X obj 199 132 -~ 0.333333;
#X obj 377 139 *~ 3;
#X obj 377 189 wrap~;
#X obj 377 164 clip~ 1e-005 1.00001;
#X obj 103 207 outlet~;
#X obj 198 237 outlet~;
#X obj 377 237 outlet~;
#X connect 0 0 1 0;
#X connect 0 0 7 0;
#X connect 0 0 8 0;
#X connect 1 0 3 0;
#X connect 2 0 11 0;
#X connect 3 0 2 0;
#X connect 4 0 6 0;
#X connect 5 0 12 0;
#X connect 6 0 5 0;
#X connect 7 0 4 0;
#X connect 8 0 10 0;
#X connect 9 0 13 0;
#X connect 10 0 9 0;
#X restore -51 207 pd hueToRgb;
#X obj -51 119 *~ 1;
#N canvas 664 328 564 367 gemrendering 0;
#X obj 27 30 gemhead;
#X obj 120 17 inlet~;
#X obj 191 17 inlet~;
#X obj 261 17 inlet~;
#X obj 47 196 rotateXYZ 0 0 90;
#X obj 47 257 translateXYZ 1.5 0 0;
#X obj 27 136 pix_sig2pix~ 512 512;
#X obj 27 295 square 3;
#X obj 321 17 inlet~;
#X obj 27 171 pix_texture;
#X obj 47 226 scaleXYZ 2 1 1;
#X obj 381 10 block~ 262144 128;
#X connect 0 0 6 0;
#X connect 1 0 6 0;
#X connect 2 0 6 1;
#X connect 3 0 6 2;
#X connect 4 0 10 0;
#X connect 5 0 7 0;
#X connect 6 0 9 0;
#X connect 8 0 6 3;
#X connect 9 0 4 0;
#X connect 10 0 5 0;
#X restore -51 275 pd gemrendering;
#X obj -51 33 *~ 1;
#X obj 204 399 sel 1 0;
#X obj 272 543 gemwin;
#X msg 404 546 destroy;
#X msg 275 502 create \, 1;
#X obj 124 37 loadbang;
#X obj 166 67 bng 15 250 50 0 empty empty empty 17 7 0 10 -262144 -1
-1;
#X obj 104 452 switch~ 512 4 1;
#X obj 124 62 f 0;
#X obj 261 38 declare -lib Gem;
#X obj 102 102 cnv 15 100 55 empty empty sonogramm 5 10 0 14 -162280
-258113 0;
#X obj 109 130 tgl 20 0 \$0dummy \$0dummy_r on 4 -6 0 10 -228856 -258113
-1 0 1;
#X obj 140 135 hsl 50 15 1 10 0 0 \$0dummyToo \$0dummyToo_r volume
5 -8 0 10 -228856 -258113 -1 0 1;
#X connect 0 0 9 0;
#X connect 1 0 7 0;
#X connect 2 0 7 0;
#X connect 3 0 1 0;
#X connect 3 0 1 1;
#X connect 3 1 2 0;
#X connect 3 1 2 1;
#X connect 4 0 6 0;
#X connect 5 0 4 0;
#X connect 6 0 8 0;
#X connect 6 1 8 1;
#X connect 6 2 8 2;
#X connect 7 0 5 0;
#X connect 9 0 3 0;
#X connect 10 0 13 0;
#X connect 10 1 12 0;
#X connect 12 0 11 0;
#X connect 13 0 11 0;
#X connect 14 0 17 0;
#X connect 15 0 17 0;
#X connect 17 0 20 0;
#X connect 20 0 16 0;
#X connect 20 0 10 0;
#X connect 21 0 9 1;
#X coords 0 -1 1 1 104 59 1 100 100;
