#N canvas -8 -8 1440 818 10;
#X obj 510 135 inlet~;
#X obj 489 315 vcf~;
#X floatatom 572 -4 5 0 0 0 - - -;
#X floatatom 720 69 5 0 0 0 - - -;
#X obj 320 -7 line~;
#X msg 320 -30 \$1 10;
#X obj 364 -7 line~;
#X msg 364 -30 \$1 10;
#X obj 271 -7 line~;
#X msg 271 -30 \$1 10;
#X obj 450 220 *~;
#X obj 488 220 *~;
#X obj 532 219 *~;
#X obj 494 462 outlet~;
#X msg 221 -66 1;
#X msg 257 -66 0;
#X msg 305 -72 1;
#X msg 341 -72 0;
#X msg 379 -75 1;
#X msg 415 -75 0;
#X obj 101 102 cnv 15 154 206 empty empty stepfilter 2 14 0 18 -233017
-1 0;
#X obj 173 131 vradio 20 1 0 3 \$0filttype \$0filttype_r empty 0 -8
0 10 -99865 -260097 -1 0;
#X obj 295 -169 r \$0filttype;
#X text 196 152 Bandpass;
#X obj 120 158 vsl 20 60 0.15 127 1 0 \$0Q \$0Q_r Q 4 -16 0 20 -99865
-260097 -1 3190 1;
#X obj 571 -87 r \$0Freq;
#X obj 740 -34 r \$0Q;
#X obj 738 -2 / 8;
#X msg 1131 -159 5.74;
#X obj 106 222 nbx 4 18 -1e+037 1e+037 0 0 \$0Qshow_s \$0Qshow empty
0 -8 0 12 -262144 -1 -1 0.717713 256;
#X obj 724 106 s \$0Qshow;
#X obj 107 264 hsl 120 20 0 127 0 0 \$0Freq \$0Freq_r Frequenz 25 -8
0 14 -99865 -260097 -1 2811 1;
#X obj 167 284 nbx 5 20 -1e+037 1e+037 0 0 \$0Freqshow_s \$0Freqshow
empty 0 -8 0 12 -262144 -1 -1 926.985 256;
#X obj 553 24 s \$0Freqshow;
#X obj 1061 -122 s \$0Freq_r;
#X obj 1085 -188 loadbang;
#X obj 295 -142 sel 0 1 2;
#X msg 1200 -158 0;
#X obj 1198 -128 s \$0filttype_r;
#X text 195 132 Tiefpass;
#X msg 1063 -153 30;
#X text 196 172 Hochpass;
#X obj 940 169 r toolssavebank;
#X obj 1150 86 r toolssavebang;
#X obj 1369 276 f;
#X obj 1314 270 f;
#X obj 1224 378 s toolssavelists;
#X obj 1179 190 f;
#X obj 942 287 route;
#X obj 1300 31 loadbang;
#X obj 1301 87 \$1;
#X obj 1300 59 del 5;
#X obj 1179 149 del;
#X obj 1441 304 f;
#X obj 891 475 s \$0Freq_r;
#X obj 918 442 s \$0Q_r;
#X obj 779 447 s \$0filttype_r;
#X obj 1341 147 r \$0filttype;
#X obj 1421 202 r \$0Freq;
#X obj 1500 214 r \$0Q;
#X obj 445 372 vcf_lp4~;
#X obj 530 366 vcf_hp4~;
#X obj 573 256 line~;
#X obj 931 -3 inlet;
#X obj 974 -5 inlet;
#X obj 1106 1 inlet;
#X obj 1131 -135 s \$0Q_r;
#X obj 572 -29 + 27;
#X obj 825 -361 inlet;
#X obj 825 -336 unpack 0 0;
#X floatatom 825 -246 5 0 0 0 - - -;
#X obj 824 -271 ftom;
#X obj 794 152 s \$0Freq_r;
#X obj 942 -160 s \$0Q_r;
#X obj 880 -312 / 127;
#X obj 949 -268 + 1;
#X obj 946 -190 + 6.14;
#X obj 952 -216 - 1;
#X msg 588 216 \$1 50;
#X obj 570 64 pack 0 0;
#X obj 650 -43 r \$0trans;
#X obj 183 214 hsl 45 15 0 127 0 0 \$0trans \$0trans_r Übergangzeit
-10 -8 0 10 -99865 -260097 -1 260 1;
#X obj 652 -19 * 2;
#X obj 654 3 + 5;
#X obj 621 129 s \$0transshow;
#X obj 180 230 nbx 6 14 -1e+037 1e+037 0 0 \$0transshow_s \$0transshow
empty 0 -8 0 9 -262144 -1 -1 20.0091 256;
#X obj 952 -247 pow 5.5;
#X obj 654 278 line~;
#X obj 654 245 pack 0 0;
#X obj 604 288 line;
#X obj 1184 -81 s \$0trans_r;
#X msg 1232 -104 7.506;
#X obj 1047 -9 inlet;
#X obj 1171 290 symbol stepfilter;
#X obj 943 257 route stepfilter;
#X obj 1487 308 f;
#X obj 1511 268 r \$0trans;
#X obj 1177 239 t b f b b b b;
#X obj 1225 343 pack s f f f f f;
#X obj 943 313 unpack f f f f;
#X obj 1017 363 s \$0trans_r;
#X obj 877 -291 moses 1e-005;
#X obj 794 39 - 27;
#X floatatom 794 127 5 0 0 0 - - -;
#X obj 825 -189 mtof;
#X floatatom 838 -157 5 0 0 0 - - -;
#X obj 825 -218 + 12;
#X obj 571 -57 pow 2;
#X obj 794 66 pow 0.5;
#N canvas 0 22 462 312 rh_scalelog 0;
#X obj 20 155 exp;
#X obj 20 107 *;
#X obj 20 130 +;
#X obj 98 87 log;
#X obj 194 84 log;
#X obj 123 123 t b f;
#X obj 123 145 -;
#X obj 20 183 outlet;
#X obj 20 19 inlet;
#X obj 98 23 inlet;
#X obj 194 24 inlet;
#X connect 0 0 7 0;
#X connect 1 0 2 0;
#X connect 2 0 0 0;
#X connect 3 0 2 1;
#X connect 3 0 5 0;
#X connect 4 0 6 0;
#X connect 5 0 6 0;
#X connect 5 1 6 1;
#X connect 6 0 1 1;
#X connect 8 0 1 0;
#X connect 9 0 3 0;
#X connect 10 0 4 0;
#X restore 851 -52 pd rh_scalelog;
#X msg 898 -76 0.1;
#X obj 849 -77 / 127;
#X msg 944 -76 120;
#X obj 638 203 pack 0 0;
#X connect 0 0 10 0;
#X connect 0 0 11 0;
#X connect 0 0 12 0;
#X connect 1 0 13 0;
#X connect 2 0 33 0;
#X connect 2 0 79 0;
#X connect 3 0 30 0;
#X connect 3 0 88 0;
#X connect 4 0 11 1;
#X connect 5 0 4 0;
#X connect 6 0 12 1;
#X connect 7 0 6 0;
#X connect 8 0 10 1;
#X connect 9 0 8 0;
#X connect 10 0 60 0;
#X connect 11 0 1 0;
#X connect 12 0 61 0;
#X connect 14 0 9 0;
#X connect 15 0 9 0;
#X connect 16 0 5 0;
#X connect 17 0 5 0;
#X connect 18 0 7 0;
#X connect 19 0 7 0;
#X connect 22 0 36 0;
#X connect 25 0 107 0;
#X connect 26 0 27 0;
#X connect 26 0 111 0;
#X connect 27 0 3 0;
#X connect 28 0 66 0;
#X connect 35 0 40 0;
#X connect 35 0 28 0;
#X connect 35 0 37 0;
#X connect 35 0 91 0;
#X connect 35 0 112 0;
#X connect 35 0 110 0;
#X connect 36 0 14 0;
#X connect 36 0 17 0;
#X connect 36 0 19 0;
#X connect 36 1 15 0;
#X connect 36 1 16 0;
#X connect 36 1 19 0;
#X connect 36 2 15 0;
#X connect 36 2 17 0;
#X connect 36 2 18 0;
#X connect 37 0 38 0;
#X connect 40 0 34 0;
#X connect 42 0 94 0;
#X connect 43 0 52 0;
#X connect 44 0 98 3;
#X connect 45 0 98 2;
#X connect 47 0 97 0;
#X connect 48 0 99 0;
#X connect 49 0 51 0;
#X connect 50 0 47 1;
#X connect 50 0 48 1;
#X connect 50 0 52 1;
#X connect 51 0 50 0;
#X connect 52 0 47 0;
#X connect 53 0 98 4;
#X connect 57 0 45 1;
#X connect 58 0 44 1;
#X connect 59 0 53 1;
#X connect 60 0 13 0;
#X connect 61 0 13 0;
#X connect 62 0 1 1;
#X connect 62 0 60 1;
#X connect 62 0 61 1;
#X connect 63 0 31 0;
#X connect 64 0 24 0;
#X connect 65 0 21 0;
#X connect 67 0 2 0;
#X connect 68 0 69 0;
#X connect 69 0 71 0;
#X connect 69 1 74 0;
#X connect 70 0 106 0;
#X connect 71 0 70 0;
#X connect 74 0 101 0;
#X connect 75 0 86 0;
#X connect 76 0 73 0;
#X connect 77 0 76 0;
#X connect 78 0 62 0;
#X connect 79 0 62 0;
#X connect 80 0 82 0;
#X connect 82 0 83 0;
#X connect 83 0 79 1;
#X connect 83 0 84 0;
#X connect 83 0 88 1;
#X connect 83 0 113 1;
#X connect 86 0 77 0;
#X connect 87 0 61 2;
#X connect 87 0 60 2;
#X connect 88 0 87 0;
#X connect 89 0 1 2;
#X connect 91 0 90 0;
#X connect 92 0 81 0;
#X connect 93 0 98 0;
#X connect 94 0 48 0;
#X connect 95 0 98 5;
#X connect 96 0 95 1;
#X connect 97 0 93 0;
#X connect 97 1 98 1;
#X connect 97 2 45 0;
#X connect 97 3 44 0;
#X connect 97 4 53 0;
#X connect 97 5 95 0;
#X connect 98 0 46 0;
#X connect 99 0 56 0;
#X connect 99 1 54 0;
#X connect 99 2 55 0;
#X connect 99 3 100 0;
#X connect 101 1 75 0;
#X connect 102 0 108 0;
#X connect 103 0 72 0;
#X connect 104 0 105 0;
#X connect 104 0 102 0;
#X connect 106 0 104 0;
#X connect 107 0 67 0;
#X connect 108 0 103 0;
#X connect 109 0 113 0;
#X connect 110 0 109 1;
#X connect 111 0 109 0;
#X connect 112 0 109 2;
#X connect 113 0 89 0;
#X coords 0 -1 1 1 156 210 1 100 100;
