#N canvas -8 -8 1440 818 10;
#X obj 388 83 inlet~;
#X obj 603 169 *~;
#X obj 637 132 line~;
#X msg 635 106 \$1 10;
#X obj 637 32 r \$0fb;
#X obj 527 252 *~;
#X obj 582 316 line~;
#X msg 580 290 \$1 10;
#X obj 579 205 r \$0vol;
#X obj 450 140 delwrite~ \$0del 2000;
#X obj 388 322 outlet~;
#X obj 389 288 +~;
#X obj 101 102 cnv 15 148 156 empty empty syncdelay 4 10 0 18 -233017
-1 0;
#X obj 162 141 vsl 20 60 0 127 0 0 \$0fb \$0fb_r Feedback -14 -9 0
12 -99865 -260097 -1 5700 1;
#X obj 215 156 vsl 10 30 0 127 0 0 \$0vol \$0vol_r Volume -12 -9 0
10 -99865 -260097 -1 2900 1;
#X obj 153 204 nbx 4 14 -1e+037 1e+037 0 0 \$0fbshow_s \$0fbshow empty
0 -8 0 10 -262144 -1 -1 0.966102 256;
#X obj 204 189 nbx 3 12 -1e+037 1e+037 0 0 \$0volshow_s \$0volshow
empty 0 -8 0 10 -262144 -1 -1 1 256;
#X obj 641 70 / 127;
#X obj 712 92 s \$0fbshow;
#X obj 455 -4 * 15.748;
#X obj 457 -41 r \$0deltime;
#X floatatom 455 18 5 0 0 0 - - -;
#X obj 528 24 s \$0timeshow;
#X obj 1051 247 loadbang;
#X msg 1039 315 1;
#X obj 1020 348 s \$0deltime_r;
#X obj 577 235 / 127;
#X obj 659 250 s \$0volshow;
#X obj 1112 344 s \$0vol_r;
#X msg 1103 309 127;
#X obj 357 493 r toolssavebank;
#X obj 567 410 r toolssavebang;
#X obj 786 600 f;
#X obj 731 594 f;
#X obj 641 702 s toolssavelists;
#X obj 596 514 f;
#X obj 359 611 route;
#X obj 717 355 loadbang;
#X obj 718 411 \$1;
#X obj 717 383 del 5;
#X obj 596 473 del;
#X obj 1190 334 s \$0fb_r;
#X obj 858 628 f;
#X obj 775 502 r \$0deltime;
#X obj 905 500 r \$0vol;
#X obj 1002 532 r \$0fb;
#X obj 286 698 s \$0deltime_r;
#X obj 351 675 s \$0vol_r;
#X obj 390 701 s \$0fb_r;
#X obj 1014 44 inlet;
#X obj 957 50 inlet;
#X obj 1080 47 inlet;
#X obj 105 227 hradio 15 1 0 8 \$0multi \$0multi_r empty 0 -8 0 10
-99865 -260097 -1 6;
#X obj 833 22 inlet;
#X obj 833 45 route BPM;
#X obj 894 77 r \$0bpm;
#X msg 895 203 60000;
#X obj 895 224 /;
#X obj 895 176 t b f;
#X obj 116 150 vsl 10 50 1.27 127 1 0 \$0bpm \$0bpm_r Bpm -4 -8 0 12
-99865 -260097 -1 4384 1;
#X obj 107 204 nbx 3 14 -1e+037 1e+037 0 0 \$0bpm_show_s \$0bpm_show
empty 0 -8 0 10 -262144 -1 -1 120 256;
#X obj 892 154 int;
#X obj 799 178 s \$0bpm_show;
#X obj 894 126 + 11;
#X obj 894 104 * 7.6;
#X obj 1154 307 s \$0bpm_r;
#X msg 1147 278 14.4;
#X obj 154 244 cnv 5 10 10 empty empty 4 0 6 0 10 -228856 -260097 0
;
#X obj 254 363 cnv 15 10 10 empty empty 1/2 0 0 0 10 -66577 -260097
0;
#X obj 254 384 cnv 15 10 10 empty empty 1/4 0 0 0 10 -66577 -260097
0;
#X obj 254 403 cnv 15 10 10 empty empty 1/8 0 0 0 10 -66577 -260097
0;
#X obj 254 424 cnv 15 10 10 empty empty 1/16 0 0 0 10 -66577 -260097
0;
#X obj 40 363 sel 0 1 2 3 4 5 6 7;
#X floatatom 72 533 5 0 0 0 - - -;
#X msg -7 419 4;
#X msg 24 415 2;
#X msg 51 429 1;
#X msg 82 425 0.5;
#X msg 109 417 0.25;
#X msg 140 413 0.125;
#X msg 179 440 0.0625;
#X msg -44 438 6;
#X floatatom 897 251 5 0 0 0 - - -;
#X obj 919 289 *;
#X obj 944 226 t b f;
#X obj 82 642 / 3;
#X obj 83 670 * 2;
#X floatatom 84 693 5 0 0 0 - - -;
#X msg 123 607 1;
#X msg 172 606 3;
#X msg 162 632 2;
#X obj 231 227 tgl 15 0 \$0triole \$0triole_r 1/3 0 -5 0 9 -99865 -260097
-1 1 1;
#X obj 176 479 r \$0triole;
#X obj 129 552 sel 0 1;
#X obj 469 217 vd~ \$0del;
#X obj 176 500 t b f;
#X obj 169 244 cnv 5 10 10 empty empty 8 0 6 0 10 -228856 -260097 0
;
#X obj 180 244 cnv 5 10 10 empty empty 16 0 6 0 10 -228856 -260097
0;
#X obj 197 244 cnv 5 10 10 empty empty 32 0 6 0 10 -228856 -260097
0;
#X obj 212 244 cnv 5 10 10 empty empty 64 0 6 0 10 -228856 -260097
0;
#X obj 105 244 cnv 5 10 10 empty empty 3/4 0 6 0 8 -228856 -260097
0;
#X obj 124 244 cnv 5 10 10 empty empty 1 0 6 0 10 -228856 -260097 0
;
#X obj 139 244 cnv 5 10 10 empty empty 2 0 6 0 10 -228856 -260097 0
;
#X msg 975 350 0;
#X obj 975 384 s \$0triole_r;
#X obj 1130 46 inlet;
#X obj 1196 49 inlet;
#X obj 39 332 r \$0multi;
#X obj 1111 423 s \$0multi_r;
#X msg 1121 387 3;
#X obj 1003 601 r \$0bpm;
#X obj 933 627 f;
#X obj 1043 631 r \$0multi;
#X obj 1019 662 f;
#X obj 1105 659 r \$0triole;
#X obj 1084 684 f;
#X obj 590 614 symbol syncdelay;
#X obj 620 551 t b f b b b b b b;
#X obj 635 666 pack s f f f f f f f;
#X obj 359 581 route syncdelay;
#X obj 360 637 unpack f f f f f f;
#X obj 418 673 s \$0bpm_r;
#X obj 448 703 s \$0multi_r;
#X obj 485 669 s \$0triole_r;
#X connect 0 0 9 0;
#X connect 0 0 11 0;
#X connect 1 0 9 0;
#X connect 2 0 1 1;
#X connect 3 0 2 0;
#X connect 4 0 17 0;
#X connect 5 0 11 1;
#X connect 6 0 5 1;
#X connect 7 0 6 0;
#X connect 8 0 26 0;
#X connect 11 0 10 0;
#X connect 17 0 3 0;
#X connect 17 0 18 0;
#X connect 19 0 21 0;
#X connect 20 0 19 0;
#X connect 21 0 22 0;
#X connect 21 0 94 0;
#X connect 23 0 24 0;
#X connect 23 0 29 0;
#X connect 23 0 66 0;
#X connect 23 0 103 0;
#X connect 23 0 109 0;
#X connect 24 0 25 0;
#X connect 26 0 7 0;
#X connect 26 0 27 0;
#X connect 29 0 28 0;
#X connect 30 0 119 0;
#X connect 31 0 40 0;
#X connect 32 0 118 3;
#X connect 33 0 118 2;
#X connect 35 0 117 0;
#X connect 36 0 120 0;
#X connect 37 0 39 0;
#X connect 38 0 35 1;
#X connect 38 0 36 1;
#X connect 38 0 40 1;
#X connect 39 0 38 0;
#X connect 40 0 35 0;
#X connect 42 0 118 4;
#X connect 43 0 33 1;
#X connect 44 0 32 1;
#X connect 45 0 42 1;
#X connect 49 0 13 0;
#X connect 50 0 59 0;
#X connect 51 0 14 0;
#X connect 53 0 54 0;
#X connect 54 0 58 0;
#X connect 54 0 62 0;
#X connect 55 0 64 0;
#X connect 56 0 57 0;
#X connect 57 0 82 0;
#X connect 58 0 56 0;
#X connect 58 1 57 1;
#X connect 61 0 58 0;
#X connect 61 0 62 0;
#X connect 63 0 61 0;
#X connect 64 0 63 0;
#X connect 66 0 65 0;
#X connect 72 0 81 0;
#X connect 72 1 74 0;
#X connect 72 2 75 0;
#X connect 72 3 76 0;
#X connect 72 4 77 0;
#X connect 72 5 78 0;
#X connect 72 6 79 0;
#X connect 72 7 80 0;
#X connect 73 0 85 0;
#X connect 74 0 73 0;
#X connect 75 0 73 0;
#X connect 76 0 73 0;
#X connect 77 0 73 0;
#X connect 78 0 73 0;
#X connect 79 0 73 0;
#X connect 80 0 73 0;
#X connect 81 0 73 0;
#X connect 82 0 83 0;
#X connect 83 0 94 0;
#X connect 84 0 82 0;
#X connect 84 1 83 1;
#X connect 85 0 86 0;
#X connect 86 0 87 0;
#X connect 87 0 84 0;
#X connect 88 0 86 1;
#X connect 88 0 85 1;
#X connect 89 0 85 1;
#X connect 90 0 86 1;
#X connect 92 0 95 0;
#X connect 93 0 88 0;
#X connect 93 1 89 0;
#X connect 93 1 90 0;
#X connect 94 0 1 0;
#X connect 94 0 5 0;
#X connect 95 0 73 0;
#X connect 95 1 93 0;
#X connect 103 0 104 0;
#X connect 105 0 52 0;
#X connect 106 0 91 0;
#X connect 107 0 72 0;
#X connect 109 0 108 0;
#X connect 110 0 111 1;
#X connect 111 0 118 5;
#X connect 112 0 113 1;
#X connect 113 0 118 6;
#X connect 114 0 115 1;
#X connect 115 0 118 7;
#X connect 116 0 118 0;
#X connect 117 0 116 0;
#X connect 117 1 118 1;
#X connect 117 2 33 0;
#X connect 117 3 32 0;
#X connect 117 4 42 0;
#X connect 117 5 111 0;
#X connect 117 6 113 0;
#X connect 117 7 115 0;
#X connect 118 0 34 0;
#X connect 119 0 36 0;
#X connect 120 0 46 0;
#X connect 120 1 47 0;
#X connect 120 2 48 0;
#X connect 120 3 121 0;
#X connect 120 4 122 0;
#X connect 120 5 123 0;
#X coords 0 -1 1 1 150 160 1 100 100;
