#N canvas 360 78 1034 629 10;
#X obj 355 0 loadbang;
#X obj 200 -38 catch~ \$0-feedback;
#N canvas 0 22 561 322 guts 0;
#X obj 120 61 metro 2000;
#X obj 202 157 expr 1/($f1*0.001);
#X floatatom 275 80 10 0 0 0 - - -;
#X msg 175 142 0;
#X obj 112 222 phasor~ 0.5;
#X obj 44 154 tabwrite~ \$0-thetape;
#X obj 164 243 s~ \$0-phase;
#N canvas 0 22 450 300 loop 0;
#X obj 110 95 snapshot~ 5;
#X floatatom 110 117 10 0 0 0 - - -;
#X obj 109 53 tgl 15 0 empty empty empty 17 7 0 10 -262144 -1 -1 1
1;
#X obj 110 73 metro 50;
#X obj 109 141 outlet;
#X obj 107 28 loadbang;
#X obj 168 72 inlet~;
#X connect 0 0 1 0;
#X connect 1 0 4 0;
#X connect 2 0 3 0;
#X connect 3 0 0 0;
#X connect 5 0 2 0;
#X connect 6 0 0 0;
#X restore 112 242 pd loop;
#X obj 202 204 s mssample;
#X floatatom 308 189 10 0 0 0 - - -;
#X obj 275 118 * 44.1;
#X obj 202 180 f;
#X obj 252 22 r \$0-tapespeed;
#X obj 112 262 s \$0-loopprogress;
#X obj 120 29 r \$0-recorderase;
#X obj 44 61 inlet~;
#X obj 182 174 bng 15 250 50 0 empty empty empty 17 7 0 10 -262144
-1 -1;
#X obj 252 44 expr 1000/$f1;
#X text 338 81 length;
#X obj 354 25 loadbang;
#X obj 353 48 f 2000;
#X connect 0 0 3 0;
#X connect 0 0 5 0;
#X connect 0 0 11 0;
#X connect 0 0 16 0;
#X connect 2 0 0 1;
#X connect 2 0 1 0;
#X connect 2 0 10 0;
#X connect 3 0 4 1;
#X connect 4 0 6 0;
#X connect 4 0 7 0;
#X connect 7 0 13 0;
#X connect 10 0 9 0;
#X connect 10 0 11 1;
#X connect 11 0 8 0;
#X connect 12 0 4 0;
#X connect 12 0 17 0;
#X connect 14 0 0 0;
#X connect 15 0 5 0;
#X connect 17 0 0 1;
#X connect 17 0 10 0;
#X connect 19 0 20 0;
#X connect 20 0 2 0;
#X restore 183 -13 pd guts;
#X obj 34 158 catch~ \$0-output;
#X msg 2 -15 0.5;
#X obj 316 -80 table \$0-thetape 352800;
#X obj 101 102 cnv 15 420 240 empty empty TapeDelay 100 20 0 28 -228856
-1 0;
#X obj 170 151 hsl 300 20 0 1 0 0 empty \$0-loopprogress The-Tape-Loop
98 10 0 11 -128992 -262144 -262144 1475 1;
#N canvas 432 159 558 480 h1 0;
#X obj 85 185 *~ 0;
#X obj -11 164 tabread4~ \$0-thetape;
#X obj -11 126 wrap~;
#X obj -11 106 +~;
#X obj -11 86 r~ \$0-phase;
#X obj 85 205 throw~ \$0-feedback;
#X obj -11 280 throw~ \$0-output;
#X obj -11 145 *~ 88200;
#X obj 37 120 r mssample;
#X obj 213 -87 loadbang;
#X obj 215 -37 * 0.01;
#X obj 214 -63 random 30;
#X obj -11 218 *~;
#X msg 278 -62 1;
#X obj 32 32 cnv 15 338 48 empty empty Head-1 6 23 0 18 -233017 -66577
0;
#X obj 122 41 hsl 128 30 0 1 0 0 \$0Position1 \$0Position1_r Position
20 14 0 18 -99865 -260097 -262144 2667 1;
#X obj 342 43 vsl 20 25 0 1 0 0 \$0vol1 \$0vol1_r Vol 2 12 0 10 -99865
-260097 -262144 2400 1;
#X obj 265 41 hsl 65 30 0 0.33 0 0 \$0FB1 \$0FB1_r Feedback 2 14 0
13 -99865 -260097 -262144 0 1;
#X connect 0 0 5 0;
#X connect 1 0 0 0;
#X connect 1 0 12 0;
#X connect 2 0 7 0;
#X connect 3 0 2 0;
#X connect 4 0 3 0;
#X connect 7 0 1 0;
#X connect 8 0 7 1;
#X connect 9 0 11 0;
#X connect 9 0 13 0;
#X connect 10 0 15 0;
#X connect 11 0 10 0;
#X connect 12 0 6 0;
#X connect 13 0 16 0;
#X connect 15 0 3 1;
#X connect 16 0 12 1;
#X connect 17 0 0 1;
#X coords 0 -1 1 1 340 50 1 30 30;
#X restore 131 172 pd h1;
#X obj 476 138 vsl 30 140 0.125 1 0 0 \$0-tapespeed \$0-tapespeed_r
Tape-Speed -42 -14 0 14 -99865 -260097 -1 5957 1;
#N canvas 111 191 558 503 h2 0;
#X obj 85 185 *~ 0;
#X obj -11 164 tabread4~ \$0-thetape;
#X obj -11 126 wrap~;
#X obj -11 106 +~;
#X obj -11 86 r~ \$0-phase;
#X obj 85 205 throw~ \$0-feedback;
#X obj -11 280 throw~ \$0-output;
#X obj -11 145 *~ 88200;
#X obj 37 120 r mssample;
#X obj 213 -87 loadbang;
#X obj 215 -12 * 0.01;
#X obj 214 -63 random 30;
#X obj -11 218 *~;
#X msg 278 -62 1;
#X obj 214 -38 + 30;
#X obj 32 32 cnv 15 338 48 empty empty Head-2 6 23 0 18 -233017 -66577
0;
#X obj 122 41 hsl 128 30 0 1 0 0 \$0Position2 \$0Position2_r Position
20 14 0 18 -99865 -260097 -262144 5334 1;
#X obj 342 43 vsl 20 25 0 1 0 0 \$0vol2 \$0vol2_r Vol 2 12 0 10 -99865
-260097 -262144 0 1;
#X obj 265 41 hsl 65 30 0 0.33 0 0 \$0FB2 \$0FB2_r Feedback 2 14 0
13 -99865 -260097 -262144 0 1;
#X connect 0 0 5 0;
#X connect 1 0 0 0;
#X connect 1 0 12 0;
#X connect 2 0 7 0;
#X connect 3 0 2 0;
#X connect 4 0 3 0;
#X connect 7 0 1 0;
#X connect 8 0 7 1;
#X connect 9 0 11 0;
#X connect 9 0 13 0;
#X connect 10 0 16 0;
#X connect 11 0 14 0;
#X connect 12 0 6 0;
#X connect 14 0 10 0;
#X connect 16 0 3 1;
#X connect 17 0 12 1;
#X connect 18 0 0 1;
#X coords 0 -1 1 1 340 50 1 30 30;
#X restore 131 224 pd h2;
#N canvas 101 157 558 503 h3 0;
#X obj 85 185 *~ 0;
#X obj -11 164 tabread4~ \$0-thetape;
#X obj -11 126 wrap~;
#X obj -11 106 +~;
#X obj -11 86 r~ \$0-phase;
#X obj 85 205 throw~ \$0-feedback;
#X obj -11 280 throw~ \$0-output;
#X obj -11 145 *~ 88200;
#X obj 37 120 r mssample;
#X obj 213 -87 loadbang;
#X obj 215 -17 * 0.01;
#X obj 214 -63 random 30;
#X obj -11 218 *~;
#X msg 278 -62 1;
#X obj 215 -40 + 60;
#X obj 32 31 cnv 15 338 48 empty empty Head-3 6 23 0 18 -233017 -66577
0;
#X obj 122 40 hsl 128 30 0 1 0 0 \$0Position3 \$0Position3_r Position
20 14 0 18 -99865 -260097 -262144 10541 1;
#X obj 342 42 vsl 20 25 0 1 0 0 \$0vol3 \$0vol3_r Vol 2 12 0 10 -99865
-260097 -262144 0 1;
#X obj 265 40 hsl 65 30 0 0.33 0 0 \$0FB3 \$0FB3_r Feedback 2 14 0
13 -99865 -260097 -262144 0 1;
#X connect 0 0 5 0;
#X connect 1 0 0 0;
#X connect 1 0 12 0;
#X connect 2 0 7 0;
#X connect 3 0 2 0;
#X connect 4 0 3 0;
#X connect 7 0 1 0;
#X connect 8 0 7 1;
#X connect 9 0 11 0;
#X connect 9 0 13 0;
#X connect 10 0 16 0;
#X connect 11 0 14 0;
#X connect 12 0 6 0;
#X connect 14 0 10 0;
#X connect 16 0 3 1;
#X connect 17 0 12 1;
#X connect 18 0 0 1;
#X coords 0 -1 1 1 340 50 1 30 30;
#X restore 131 277 pd h3;
#X obj 114 120 tgl 40 0 \$0-recorderase \$0-recorderase_r Rec 5 -8
0 16 -162280 -260097 -258113 1 1;
#X obj 183 -61 inlet~;
#X obj -13 342 outlet~;
#X obj -5 201 +~;
#X obj 672 98 r toolssavebank;
#X obj 883 -38 r toolssavebang;
#X obj 1047 146 f;
#X obj 937 371 s toolssavelists;
#X obj 912 66 f;
#X obj 675 163 route;
#X obj 1033 -93 loadbang;
#X obj 1034 -37 \$1;
#X obj 1033 -65 del 5;
#X obj 912 25 del;
#X obj 675 133 route tapedelay;
#X obj 904 166 symbol tapedelay;
#X obj 675 185 unpack f f f f f f f f f f f;
#X obj 673 232 s \$0-recorderase_r;
#X obj 689 265 s \$0-tapespeed_r;
#X obj 711 307 s \$0Position1_r;
#X obj 725 338 s \$0FB1_r;
#X obj 747 363 s \$0vol1_r;
#X obj 768 393 s \$0Position2_r;
#X obj 782 424 s \$0FB2_r;
#X obj 804 449 s \$0vol2_r;
#X obj 832 485 s \$0Position3_r;
#X obj 846 516 s \$0FB3_r;
#X obj 868 541 s \$0vol3_r;
#X obj 910 115 t b f b b b b b b b b b b b;
#X obj 1101 -21 r \$0-recorderase;
#X obj 1117 12 r \$0-tapespeed;
#X obj 1139 54 r \$0Position1;
#X obj 1153 85 r \$0FB1;
#X obj 1175 110 r \$0vol1;
#X obj 1196 140 r \$0Position2;
#X obj 1210 171 r \$0FB2;
#X obj 1232 196 r \$0vol2;
#X obj 1260 232 r \$0Position3;
#X obj 1274 263 r \$0FB3;
#X obj 1296 288 r \$0vol3;
#X obj 1083 188 f;
#X obj 1113 219 f;
#X obj 1149 261 f;
#X obj 1179 292 f;
#X obj 1215 334 f;
#X obj 1245 365 f;
#X obj 1281 407 f;
#X obj 1318 436 f;
#X obj 1348 467 f;
#X obj 1384 509 f;
#X obj 937 328 pack s f f f f f f f f f f f f;
#X obj 540 -5 inlet;
#X obj 554 7 inlet;
#X obj 525 54 / 127;
#X connect 0 0 4 0;
#X connect 0 0 12 0;
#X connect 1 0 2 0;
#X connect 3 0 15 1;
#X connect 4 0 9 0;
#X connect 13 0 2 0;
#X connect 13 0 15 0;
#X connect 15 0 14 0;
#X connect 16 0 26 0;
#X connect 17 0 25 0;
#X connect 18 0 62 2;
#X connect 20 0 40 0;
#X connect 21 0 28 0;
#X connect 22 0 24 0;
#X connect 23 0 20 1;
#X connect 23 0 21 1;
#X connect 23 0 25 1;
#X connect 24 0 23 0;
#X connect 25 0 20 0;
#X connect 26 0 21 0;
#X connect 27 0 62 0;
#X connect 28 0 29 0;
#X connect 28 1 30 0;
#X connect 28 2 31 0;
#X connect 28 3 32 0;
#X connect 28 4 33 0;
#X connect 28 5 34 0;
#X connect 28 6 35 0;
#X connect 28 7 36 0;
#X connect 28 8 37 0;
#X connect 28 9 38 0;
#X connect 28 10 39 0;
#X connect 40 0 27 0;
#X connect 40 1 62 1;
#X connect 40 2 18 0;
#X connect 40 3 52 0;
#X connect 40 4 53 0;
#X connect 40 5 54 0;
#X connect 40 6 55 0;
#X connect 40 7 56 0;
#X connect 40 8 57 0;
#X connect 40 9 58 0;
#X connect 40 10 59 0;
#X connect 40 11 60 0;
#X connect 40 12 61 0;
#X connect 41 0 18 1;
#X connect 42 0 52 1;
#X connect 43 0 53 1;
#X connect 44 0 54 1;
#X connect 45 0 55 1;
#X connect 46 0 56 1;
#X connect 47 0 57 1;
#X connect 48 0 58 1;
#X connect 49 0 59 1;
#X connect 50 0 60 1;
#X connect 51 0 61 1;
#X connect 52 0 62 3;
#X connect 53 0 62 4;
#X connect 54 0 62 5;
#X connect 55 0 62 6;
#X connect 56 0 62 7;
#X connect 57 0 62 8;
#X connect 58 0 62 9;
#X connect 59 0 62 10;
#X connect 60 0 62 11;
#X connect 61 0 62 12;
#X connect 62 0 19 0;
#X connect 63 0 65 0;
#X connect 64 0 12 0;
#X connect 65 0 9 0;
#X coords 0 -1 1 1 422 244 1 100 100;
