#N canvas 170 0 1143 802 10;
#X obj -137 283 f;
#X obj -19 499 s \$0activectl;
#X obj -62 114 key;
#X obj -187 314 sel 1;
#X obj -137 131 bng 15 250 50 0 empty \$0hitit empty 17 7 0 10 -262144
-1 -1;
#X obj -187 247 key;
#X obj -187 385 outlet;
#X obj 101 102 cnv 15 68 66 empty empty Taste 25 10 0 12 -99865 -260097
0;
#X obj 23 240 keyname;
#X symbolatom 104 148 2 0 0 0 - #0activectl #0activectl_s;
#X obj 29 314 symbol;
#X symbolatom 104 106 2 0 0 0 - #0input #0input_s;
#X obj 104 125 bng 20 250 50 0 \$0hitit \$0hitit_r zuweisen 22 10 0
9 -228856 -260097 -262144;
#X obj 140 471 s \$0input;
#X obj 30 372 s \$0taste;
#X obj 159 235 - 48;
#X obj 122 414 allow ß ´ q w e r t z u i o p ü + a s d f g h j k
l ö ä # < y x c v b n m \, . -;
#X obj 158 263 allow 1 2 3 4 5 6 7 8 9 0;
#X obj 175 356 ftos;
#X obj -20 427 symbol;
#X obj 431 540 r toolssavebank;
#X obj 641 457 r toolssavebang;
#X obj 805 641 f;
#X obj 715 749 s toolssavelists;
#X obj 670 561 f;
#X obj 433 658 route;
#X obj 791 402 loadbang;
#X obj 792 458 \$1;
#X obj 791 430 del 5;
#X obj 670 520 del;
#X obj 668 610 t b f b b;
#X obj 433 628 route taste;
#X obj 662 661 symbol taste;
#X obj -128 248 r \$0save_r;
#X obj -122 320 s \$0save;
#X obj 820 601 r \$0save;
#X obj 426 745 s \$0save_r;
#X obj 883 622 r \$0activectl;
#X obj 877 654 symbol;
#X obj 715 706 pack s f f s;
#X obj -80 389 r \$0activectl_r;
#X obj 522 750 s \$0activectl_r;
#X obj 434 679 list split 1;
#X obj 505 708 list2symbol;
#X connect 0 0 3 1;
#X connect 0 0 34 0;
#X connect 2 0 0 1;
#X connect 2 0 15 0;
#X connect 3 0 6 0;
#X connect 4 0 0 0;
#X connect 4 0 10 0;
#X connect 4 0 19 0;
#X connect 5 0 3 0;
#X connect 8 1 10 1;
#X connect 8 1 16 0;
#X connect 10 0 14 0;
#X connect 15 0 17 0;
#X connect 16 0 13 0;
#X connect 16 0 19 1;
#X connect 17 0 18 0;
#X connect 18 0 13 0;
#X connect 18 0 19 1;
#X connect 19 0 1 0;
#X connect 20 0 31 0;
#X connect 21 0 29 0;
#X connect 22 0 39 2;
#X connect 24 0 30 0;
#X connect 25 0 42 0;
#X connect 26 0 28 0;
#X connect 27 0 24 1;
#X connect 27 0 25 1;
#X connect 27 0 29 1;
#X connect 28 0 27 0;
#X connect 29 0 24 0;
#X connect 30 0 32 0;
#X connect 30 1 39 1;
#X connect 30 2 22 0;
#X connect 30 3 38 0;
#X connect 31 0 25 0;
#X connect 32 0 39 0;
#X connect 33 0 0 0;
#X connect 35 0 22 1;
#X connect 37 0 38 1;
#X connect 38 0 39 3;
#X connect 39 0 23 0;
#X connect 40 0 19 0;
#X connect 42 0 36 0;
#X connect 42 1 43 0;
#X connect 43 0 41 0;
#X coords 0 -1 1 1 70 70 1 100 100;
