#N canvas 0 0 1423 798 10;
#X obj -836 121 osc~;
#X obj -836 73 vline~;
#X msg -778 71 0;
#X obj -833 -22 pack f f f;
#X obj -834 -126 r \$0start;
#X obj -743 -155 r \$0length;
#X obj -584 -38 r \$0decay;
#X obj -836 163 *~;
#X obj -676 -109 r \$0attack;
#X obj -579 -112 r \$0length;
#X obj -734 135 vline~;
#X msg -732 113 1 \$1 \, 0 \$3 \$2;
#X obj -674 -12 +;
#X obj -675 -37 f;
#X obj -636 -38 t b f;
#X obj -713 59 pack f f f;
#X obj -677 10 t b f;
#X obj -714 34 f;
#X obj -607 17 t b f;
#X obj -973 85 *;
#X obj -929 -11 r \$0kick;
#X obj -976 8 f;
#X obj -930 52 + 2;
#X obj -975 -108 / 127;
#X obj -933 9 / 127;
#X obj -931 76 t b f;
#X obj -974 -156 r \$0end;
#X obj -972 153 s \$0start;
#X obj 48 -44 inlet;
#X obj -884 -97 bng 15 250 50 0 empty \$0kickit empty 17 7 0 10 -262144
-1 -1;
#X obj -678 -72 / 1.27;
#X obj -592 -10 * 2.3622;
#X obj -392 226 loadbang;
#X obj -412 330 s \$0attack_r;
#X obj -495 324 s \$0decay_r;
#X obj -562 322 s \$0end_r;
#X obj -579 60 s \$0decayshow;
#X obj -560 29 s \$0lengthshow;
#X obj -592 106 s \$0attackshow;
#X obj -952 -34 s \$0endshow;
#X obj -818 -71 t b f;
#X obj -770 -60 t b f;
#X obj -930 32 * 28;
#X msg -836 44 \$1 \, \$3 \$2;
#X obj -571 -77 / 1.27;
#X obj -757 -122 / 1.27;
#X obj -886 -75 t b b b;
#X obj -323 334 s \$0kick_r;
#X msg -404 300 0.0127;
#X msg -231 292 20;
#X obj -216 331 s \$0length_r;
#X obj -975 -66 + 80;
#X obj -975 -87 * 120;
#X msg -535 249 70;
#X msg -468 258 24;
#X msg -321 307 19;
#X obj 102 102 cnv 15 125 200 empty empty toms 41 12 0 16 -33289 -260097
0;
#X obj 125 138 vsl 15 60 0 127 0 0 \$0end \$0end_r tune -6 -9 0 11
-228856 -260097 -262144 3252 1;
#X obj 187 138 vsl 15 60 0 127 0 0 \$0kick \$0kick_r kick -6 -9 0 11
-228856 -260097 -262144 883 1;
#X obj 151 165 bng 25 250 50 0 \$0kickit \$0kickit_r empty 17 7 0 10
-228856 -260097 -1;
#X obj 128 227 hsl 75 15 1 127 0 0 \$0length \$0length_r dauer 18 8
0 11 -228856 -260097 -1 1116 1;
#X obj 125 201 nbx 3 14 -1e+037 1e+037 0 0 \$0endshow_s \$0endshow
empty 0 -8 0 10 -262144 -1 -1 146.142 256;
#X obj 169 201 nbx 3 14 -1e+037 1e+037 0 0 \$0kickshow_s \$0kickshow
empty 0 -8 0 10 -262144 -1 -1 0.149661 256;
#X obj 109 262 hsl 50 15 0.0127 127 1 0 \$0attack \$0attack_r attack
7 7 0 10 -228856 -260097 -1 0 1;
#X obj 173 263 hsl 50 15 0.0127 127 1 0 \$0decay \$0decay_r decay 9
7 0 10 -228856 -260097 -1 4014 1;
#X obj 148 242 nbx 3 14 -1e+037 1e+037 0 0 \$0length_s \$0length empty
0 -8 0 10 -262144 -1 -1 20.0022 256;
#X obj 119 277 nbx 4 14 -1e+037 1e+037 0 0 \$0attackshow_s \$0attackshow
empty 0 -8 0 10 -262144 -1 -1 0.01 256;
#X obj 179 278 nbx 4 14 -1e+037 1e+037 0 0 \$0decayshow_s \$0decayshow
empty 0 -8 0 10 -262144 -1 -1 56.7355 256;
#X obj 154 -49 inlet;
#X obj 221 -27 inlet;
#X obj 297 -18 inlet;
#X obj 364 4 inlet;
#X obj 401 18 inlet;
#X obj -131 591 r toolssavebank;
#X obj 79 508 r toolssavebang;
#X obj 298 698 f;
#X obj 243 692 f;
#X obj 153 800 s toolssavelists;
#X obj 108 612 f;
#X obj -129 709 route;
#X obj 229 453 loadbang;
#X obj 230 509 \$1;
#X obj 229 481 del 5;
#X obj 108 571 del;
#X obj 370 726 f;
#X obj 155 757 pack s f f f f f f f f f;
#X obj 471 753 f;
#X obj 416 747 f;
#X obj 106 661 t b f b b b b b;
#X obj 483 725 r \$0decay;
#X obj 448 696 r \$0attack;
#X obj 270 569 r \$0end;
#X obj 350 624 r \$0kick;
#X obj 429 636 r \$0length;
#X obj -128 735 unpack f f f f f;
#X obj 18 905 s \$0decay_r;
#X obj -17 876 s \$0attack_r;
#X obj -71 838 s \$0length_r;
#X obj -115 804 s \$0kick_r;
#X obj -162 778 s \$0end_r;
#X obj -128 680 route toms;
#X obj 100 712 symbol toms;
#X obj -829 241 outlet~;
#X obj -916 138 s \$0kickshow;
#X obj -836 192 *~ 0.6;
#X obj -126 -84 route bang;
#X obj -298 -26 r \$0decay;
#X obj -390 -97 r \$0attack;
#X obj -293 -100 r \$0length;
#X obj -448 147 vline~;
#X obj -388 0 +;
#X obj -389 -25 f;
#X obj -350 -26 t b f;
#X obj -391 22 t b f;
#X obj -406 48 f;
#X obj -321 29 t b f;
#X obj -392 -60 / 1.27;
#X obj -306 2 * 2.3622;
#X obj -293 72 s \$0decayshow;
#X obj -274 41 s \$0lengthshow;
#X obj -306 118 s \$0attackshow;
#X obj -285 -65 / 1.27;
#X obj -463 177 *~;
#X obj -73 -49 unpack 0 0;
#X floatatom -22 6 5 0 0 0 - - -;
#X obj -22 30 / 127;
#X obj -419 80 pack f f f f;
#X msg -449 120 \$1 \$2 \, 0 \$4 \$3;
#X obj -481 78 t l b b;
#X obj -70 -19 moses 0.1;
#X obj -731 82 list;
#X obj -848 12 list;
#X connect 0 0 7 0;
#X connect 0 0 122 0;
#X connect 1 0 0 0;
#X connect 2 0 0 1;
#X connect 3 0 131 1;
#X connect 4 0 3 0;
#X connect 5 0 45 0;
#X connect 6 0 31 0;
#X connect 7 0 104 0;
#X connect 8 0 30 0;
#X connect 9 0 44 0;
#X connect 10 0 7 1;
#X connect 11 0 10 0;
#X connect 12 0 16 0;
#X connect 13 0 12 0;
#X connect 13 0 17 0;
#X connect 14 0 13 0;
#X connect 14 1 12 1;
#X connect 15 0 130 1;
#X connect 16 0 17 0;
#X connect 16 1 15 1;
#X connect 17 0 15 0;
#X connect 18 0 17 0;
#X connect 18 1 15 2;
#X connect 19 0 27 0;
#X connect 20 0 24 0;
#X connect 21 0 19 0;
#X connect 22 0 25 0;
#X connect 23 0 52 0;
#X connect 24 0 42 0;
#X connect 24 0 103 0;
#X connect 25 0 21 0;
#X connect 25 1 19 1;
#X connect 26 0 23 0;
#X connect 28 0 105 0;
#X connect 29 0 46 0;
#X connect 30 0 13 0;
#X connect 30 0 38 0;
#X connect 31 0 18 0;
#X connect 31 0 36 0;
#X connect 32 0 55 0;
#X connect 32 0 54 0;
#X connect 32 0 53 0;
#X connect 32 0 48 0;
#X connect 32 0 49 0;
#X connect 40 0 3 0;
#X connect 40 1 3 1;
#X connect 41 0 3 0;
#X connect 41 1 3 2;
#X connect 42 0 22 0;
#X connect 43 0 1 0;
#X connect 44 0 37 0;
#X connect 44 0 14 0;
#X connect 45 0 40 0;
#X connect 46 0 130 0;
#X connect 46 1 131 0;
#X connect 46 2 2 0;
#X connect 48 0 33 0;
#X connect 49 0 50 0;
#X connect 51 0 21 0;
#X connect 51 0 39 0;
#X connect 51 0 41 0;
#X connect 52 0 51 0;
#X connect 53 0 35 0;
#X connect 54 0 34 0;
#X connect 55 0 47 0;
#X connect 68 0 57 0;
#X connect 69 0 58 0;
#X connect 70 0 60 0;
#X connect 71 0 63 0;
#X connect 72 0 64 0;
#X connect 73 0 100 0;
#X connect 74 0 83 0;
#X connect 75 0 85 3;
#X connect 76 0 85 2;
#X connect 78 0 88 0;
#X connect 79 0 94 0;
#X connect 80 0 82 0;
#X connect 81 0 78 1;
#X connect 81 0 79 1;
#X connect 81 0 83 1;
#X connect 82 0 81 0;
#X connect 83 0 78 0;
#X connect 84 0 85 4;
#X connect 85 0 77 0;
#X connect 86 0 85 6;
#X connect 87 0 85 5;
#X connect 88 0 101 0;
#X connect 88 1 85 1;
#X connect 88 2 76 0;
#X connect 88 3 75 0;
#X connect 88 4 84 0;
#X connect 88 5 87 0;
#X connect 88 6 86 0;
#X connect 89 0 86 1;
#X connect 90 0 87 1;
#X connect 91 0 76 1;
#X connect 92 0 75 1;
#X connect 93 0 84 1;
#X connect 94 0 99 0;
#X connect 94 1 98 0;
#X connect 94 2 97 0;
#X connect 94 3 96 0;
#X connect 94 4 95 0;
#X connect 100 0 79 0;
#X connect 101 0 85 0;
#X connect 104 0 102 0;
#X connect 105 0 59 0;
#X connect 105 1 123 0;
#X connect 106 0 117 0;
#X connect 107 0 116 0;
#X connect 108 0 121 0;
#X connect 109 0 122 1;
#X connect 110 0 113 0;
#X connect 111 0 110 0;
#X connect 111 0 114 0;
#X connect 112 0 111 0;
#X connect 112 1 110 1;
#X connect 113 0 114 0;
#X connect 113 1 126 2;
#X connect 114 0 126 1;
#X connect 115 0 114 0;
#X connect 115 1 126 3;
#X connect 116 0 111 0;
#X connect 116 0 120 0;
#X connect 117 0 115 0;
#X connect 117 0 118 0;
#X connect 121 0 119 0;
#X connect 121 0 112 0;
#X connect 122 0 104 0;
#X connect 123 1 129 0;
#X connect 124 0 125 0;
#X connect 125 0 126 0;
#X connect 126 0 128 0;
#X connect 127 0 109 0;
#X connect 128 0 127 0;
#X connect 128 1 131 0;
#X connect 128 2 2 0;
#X connect 129 1 124 0;
#X connect 130 0 11 0;
#X connect 131 0 43 0;
#X coords 0 -1 1 1 129 204 1 100 100;
