#N canvas 153 284 1280 683 10;
#X floatatom 357 37 5 0 0 0 threshold - -;
#X obj 240 429 *~;
#X obj 276 156 >;
#X obj 216 2 inlet~;
#X obj 242 471 outlet~;
#X obj 279 365 line~;
#X obj 380 -58 r \$0gate_ts;
#X obj 471 -10 r \$0gate_at;
#X obj 519 28 r \$0gate_de;
#X obj 280 45 pvu~;
#X floatatom 277 181 5 0 0 0 - - -;
#X obj 275 219 sel 1;
#X obj 276 261 f;
#X msg 278 303 1 \$1;
#X obj 343 211 sel 0;
#X obj 358 264 f;
#X msg 365 285 0 \$1;
#X floatatom 299 84 5 0 0 0 - - -;
#X obj 102 102 cnv 15 64 100 empty empty tor 10 15 0 20 -233017 -1
0;
#X obj 117 133 vsl 25 45 0 127 0 0 \$0gate_ts \$0gate_ts_r empty 0
-9 0 10 -99865 -260097 -1 4400 1;
#X obj 108 182 nbx 4 16 -1e+037 1e+037 0 0 \$0show_s \$0show empty
0 -8 0 10 -262144 -1 -1 0 256;
#X obj 345 236 del;
#X obj 551 100 loadbang;
#X msg 550 161 10;
#X msg 600 154 25;
#X obj 381 -29 - 127;
#X obj 396 7 / 1.27;
#X obj 371 72 s \$0show;
#X obj 671 87 s \$0gate_ts_r;
#X msg 645 21 127;
#X msg 517 144 10;
#X obj 785 235 r toolssavebank;
#X obj 996 99 r toolssavebang;
#X obj 1160 283 f;
#X obj 1070 391 s toolssavelists;
#X obj 1025 203 f;
#X obj 788 300 route;
#X obj 1146 44 loadbang;
#X obj 1147 100 \$1;
#X obj 1146 72 del 5;
#X obj 1025 162 del;
#X obj 1070 348 pack s f f;
#X obj 788 270 route tor;
#X obj 1017 303 symbol tor;
#X obj 1023 252 t b f b;
#X obj 1175 243 r \$0gate_ts;
#X obj 785 396 s \$0gate_ts_r;
#X obj 731 6 inlet;
#X connect 0 0 2 1;
#X connect 0 0 27 0;
#X connect 1 0 4 0;
#X connect 2 0 10 0;
#X connect 3 0 1 0;
#X connect 3 0 9 0;
#X connect 5 0 1 1;
#X connect 6 0 25 0;
#X connect 9 0 2 0;
#X connect 9 0 17 0;
#X connect 10 0 11 0;
#X connect 10 0 14 0;
#X connect 11 0 12 0;
#X connect 12 0 13 0;
#X connect 13 0 5 0;
#X connect 14 0 21 0;
#X connect 15 0 16 0;
#X connect 16 0 5 0;
#X connect 21 0 15 0;
#X connect 22 0 30 0;
#X connect 22 0 23 0;
#X connect 22 0 24 0;
#X connect 22 0 29 0;
#X connect 23 0 21 1;
#X connect 24 0 15 1;
#X connect 25 0 26 0;
#X connect 26 0 0 0;
#X connect 29 0 28 0;
#X connect 30 0 12 1;
#X connect 31 0 42 0;
#X connect 32 0 40 0;
#X connect 33 0 41 2;
#X connect 35 0 44 0;
#X connect 36 0 46 0;
#X connect 37 0 39 0;
#X connect 38 0 35 1;
#X connect 38 0 36 1;
#X connect 38 0 40 1;
#X connect 39 0 38 0;
#X connect 40 0 35 0;
#X connect 41 0 34 0;
#X connect 42 0 36 0;
#X connect 43 0 41 0;
#X connect 44 0 43 0;
#X connect 44 1 41 1;
#X connect 44 2 33 0;
#X connect 45 0 33 1;
#X connect 47 0 19 0;
#X coords 0 -1 1 1 68 104 1 100 100;
