#N canvas 295 92 974 689 10;
#X obj 101 102 cnv 15 126 136 empty empty verb 5 12 0 20 -233017 -1
0;
#X obj 113 152 vsl 20 60 0 0.995 0 0 \$0size \$0size_r size -5 -11
0 14 -99865 -260097 -1 5900 1;
#X obj 159 132 hsl 60 20 0 1 0 0 \$0wet \$0wet_r volume 4 -10 0 14
-99865 -260097 -1 5900 1;
#X obj 445 148 r \$0wet;
#X obj 153 189 vsl 20 40 0 1 0 0 \$0damp \$0damp_r damp -4 -11 0 14
-99865 -260097 -1 3900 1;
#X obj 439 77 inlet~;
#X obj 427 411 outlet~;
#X obj 151 326 loadbang;
#X msg 149 403 0.5;
#X obj 149 435 s \$0damp_r;
#X obj 87 428 s \$0wet_r;
#X msg 221 398 0.85;
#X obj 226 433 s \$0size_r;
#X obj 776 184 r \$0damp;
#X obj 179 153 nbx 4 14 -1e+037 1e+037 0 0 \$0wetshow_s \$0wet empty
0 -8 0 10 -262144 -1 -1 1 256;
#X obj 103 216 nbx 4 14 -1e+037 1e+037 0 0 \$0sizeshow_s \$0size empty
0 -8 0 10 -262144 -1 -1 0.995 256;
#X obj 174 218 nbx 4 14 -1e+037 1e+037 0 0 \$0dampshow_s \$0damp empty
0 -8 0 10 -262144 -1 -1 1 256;
#X obj 494 271 rev3~;
#X floatatom 617 230 0 0 120 0 - - -;
#X text 658 230 level \, dB;
#X floatatom 652 252 0 0 100 0 - - -;
#X text 693 252 liveness \, 0-100;
#X floatatom 687 276 4 0 5000 0 - - -;
#X floatatom 722 299 0 0 100 0 - - -;
#X text 735 274 crossover frequency \, Hz.;
#X text 758 301 HF damping \, percent;
#X obj 751 90 loadbang;
#X floatatom 445 170 5 0 0 0 - - -;
#X obj 777 218 * 100;
#X obj 730 150 r \$0size;
#X obj 719 179 * 100;
#X msg 751 123 800;
#X msg 94 395 0.9;
#X obj 843 388 r toolssavebank;
#X obj 1053 305 r toolssavebang;
#X obj 1272 495 f;
#X obj 1217 489 f;
#X obj 1127 597 s toolssavelists;
#X obj 1082 409 f;
#X obj 845 506 route;
#X obj 1203 250 loadbang;
#X obj 1204 306 \$1;
#X obj 1203 278 del 5;
#X obj 1082 368 del;
#X obj 1127 554 pack s f f f f;
#X obj 1344 523 f;
#X obj 1080 458 t b f b b b;
#X obj 846 532 unpack f f f;
#X obj 783 601 s \$0wet_r;
#X obj 844 626 s \$0damp_r;
#X obj 913 599 s \$0size_r;
#X obj 1255 432 r \$0wet;
#X obj 1345 435 r \$0damp;
#X obj 1456 439 r \$0size;
#X obj 845 476 route verb;
#X obj 1074 509 symbol verb;
#X obj 505 70 inlet;
#X obj 506 97 / 127;
#X obj 556 68 inlet;
#X obj 557 95 / 127;
#X obj 600 71 inlet;
#X obj 601 98 / 127;
#X obj 385 270 *~;
#X obj 479 340 *~;
#X msg 616 184 120;
#X msg 563 174 expr;
#X obj 444 196 expr 1-$f1;
#X obj 401 244 line~;
#X obj 495 318 line~;
#X msg 420 220 \$1 25;
#X msg 480 217 \$1 25;
#X connect 3 0 27 0;
#X connect 5 0 62 0;
#X connect 5 0 17 0;
#X connect 7 0 8 0;
#X connect 7 0 11 0;
#X connect 7 0 32 0;
#X connect 8 0 9 0;
#X connect 11 0 12 0;
#X connect 13 0 28 0;
#X connect 17 0 63 0;
#X connect 18 0 17 2;
#X connect 20 0 17 3;
#X connect 22 0 17 4;
#X connect 23 0 17 5;
#X connect 26 0 31 0;
#X connect 26 0 64 0;
#X connect 27 0 66 0;
#X connect 27 0 70 0;
#X connect 28 0 23 0;
#X connect 29 0 30 0;
#X connect 30 0 20 0;
#X connect 31 0 22 0;
#X connect 32 0 10 0;
#X connect 33 0 54 0;
#X connect 34 0 43 0;
#X connect 35 0 44 3;
#X connect 36 0 44 2;
#X connect 38 0 46 0;
#X connect 39 0 47 0;
#X connect 40 0 42 0;
#X connect 41 0 38 1;
#X connect 41 0 39 1;
#X connect 41 0 43 1;
#X connect 42 0 41 0;
#X connect 43 0 38 0;
#X connect 44 0 37 0;
#X connect 45 0 44 4;
#X connect 46 0 55 0;
#X connect 46 1 44 1;
#X connect 46 2 36 0;
#X connect 46 3 35 0;
#X connect 46 4 45 0;
#X connect 47 0 48 0;
#X connect 47 1 49 0;
#X connect 47 2 50 0;
#X connect 51 0 36 1;
#X connect 52 0 35 1;
#X connect 53 0 45 1;
#X connect 54 0 39 0;
#X connect 55 0 44 0;
#X connect 56 0 57 0;
#X connect 57 0 2 0;
#X connect 58 0 59 0;
#X connect 59 0 1 0;
#X connect 60 0 61 0;
#X connect 61 0 4 0;
#X connect 62 0 6 0;
#X connect 63 0 6 0;
#X connect 64 0 18 0;
#X connect 66 0 69 0;
#X connect 67 0 62 1;
#X connect 68 0 63 1;
#X connect 69 0 67 0;
#X connect 70 0 68 0;
#X coords 0 -1 1 1 128 140 2 100 100;
