#N canvas 0 0 1440 818 10;
#X floatatom -129 70 5 0 100 0 - - -;
#X floatatom -90 71 5 0 100 0 - - -;
#X floatatom -51 71 5 0 100 0 - - -;
#X obj -324 -52 pack 0 0 0;
#N canvas 65 24 1301 744 voice 0;
#N canvas 0 0 596 343 out 0;
#X obj 56 418 outlet~;
#X obj 7 179 r~ \$0voice1_1;
#X obj 126 184 r~ \$0voice1_2;
#X obj 255 183 r~ \$0voice1_3;
#X obj 350 184 r~ \$0voice1_4;
#X obj 34 243 r~ \$0voice1_5;
#X obj 133 249 r~ \$0voice1_6;
#X obj 249 242 r~ \$0voice1_7;
#X obj 358 242 r~ \$0voice1_8;
#X obj 204 299 r~ \$0voice1_9;
#X obj 293 303 r~ \$0voice1_10;
#X obj 380 303 r~ \$0voice1_11;
#X obj 467 307 r~ \$0voice1_12;
#X obj 167 346 r~ \$0voice1_13;
#X obj 263 346 r~ \$0voice1_14;
#X obj 368 347 r~ \$0voice1_15;
#X obj 476 347 r~ \$0voice1_16;
#X connect 1 0 0 0;
#X connect 2 0 0 0;
#X connect 3 0 0 0;
#X connect 4 0 0 0;
#X connect 5 0 0 0;
#X connect 6 0 0 0;
#X connect 7 0 0 0;
#X connect 8 0 0 0;
#X connect 9 0 0 0;
#X connect 10 0 0 0;
#X connect 11 0 0 0;
#X connect 12 0 0 0;
#X connect 13 0 0 0;
#X connect 14 0 0 0;
#X connect 15 0 0 0;
#X connect 16 0 0 0;
#X restore 122 508 pd out;
#X obj 346 68 phasor~;
#X obj 344 155 -~ 1;
#X obj 345 98 expr~ $v1 < 0.5;
#X obj 345 129 *~ 2;
#X obj 271 91 noise~;
#X obj 122 594 outlet~;
#X obj 272 273 *~;
#X obj 344 272 *~;
#X obj 537 206 phasor~;
#X obj 537 231 *~ 2;
#X obj 536 281 *~;
#X obj 613 114 inlet;
#X obj 712 126 inlet;
#X obj 651 120 inlet;
#X obj 418 344 s~ \$0carrier1;
#N canvas 704 0 450 300 ot 0;
#X obj 58 186 avg~;
#X obj 58 213 * 100;
#X msg 58 247 \$1 20;
#X obj 58 276 line~;
#X obj 58 309 *~;
#X obj 322 73 sig~;
#X obj 60 119 reson~ 1 100 40;
#X obj 60 22 r~ \$0modulator;
#X obj 57 342 s~ \$0voice1_1;
#X obj 196 197 r~ \$0carrier1;
#X obj 322 49 r \$0q;
#X obj 0 142 r \$0tick;
#X obj -28 254 s \$0voice1_1;
#X obj 58 143 reson~ 1 100 40;
#X obj 195 241 reson~ 1 100 40;
#X obj 195 265 reson~ 1 100 40;
#X connect 0 0 1 0;
#X connect 1 0 2 0;
#X connect 1 0 12 0;
#X connect 2 0 3 0;
#X connect 3 0 4 0;
#X connect 4 0 8 0;
#X connect 5 0 6 3;
#X connect 5 0 13 3;
#X connect 5 0 14 3;
#X connect 5 0 15 3;
#X connect 6 0 13 0;
#X connect 7 0 6 0;
#X connect 9 0 14 0;
#X connect 10 0 5 0;
#X connect 11 0 0 0;
#X connect 13 0 0 0;
#X connect 14 0 15 0;
#X connect 15 0 4 1;
#X restore -135 34 pd ot 1;
#N canvas 704 0 450 300 ot 0;
#X obj 58 186 avg~;
#X obj 58 213 * 100;
#X msg 58 247 \$1 20;
#X obj 58 276 line~;
#X obj 58 309 *~;
#X obj 322 73 sig~;
#X obj 60 22 r~ \$0modulator;
#X obj 196 197 r~ \$0carrier1;
#X obj 322 49 r \$0q;
#X obj 0 142 r \$0tick;
#X obj 60 119 reson~ 1 200 40;
#X obj 58 143 reson~ 1 200 40;
#X obj 195 241 reson~ 1 200 40;
#X obj 195 265 reson~ 1 200 40;
#X obj -28 254 s \$0voice1_2;
#X obj 57 342 s~ \$0voice1_2;
#X connect 0 0 1 0;
#X connect 1 0 2 0;
#X connect 1 0 14 0;
#X connect 2 0 3 0;
#X connect 3 0 4 0;
#X connect 4 0 15 0;
#X connect 5 0 10 3;
#X connect 5 0 11 3;
#X connect 5 0 12 3;
#X connect 5 0 13 3;
#X connect 6 0 10 0;
#X connect 7 0 12 0;
#X connect 8 0 5 0;
#X connect 9 0 0 0;
#X connect 10 0 11 0;
#X connect 11 0 0 0;
#X connect 12 0 13 0;
#X connect 13 0 4 1;
#X restore -135 57 pd ot 2;
#N canvas 704 0 450 300 ot 0;
#X obj 58 186 avg~;
#X obj 58 213 * 100;
#X msg 58 247 \$1 20;
#X obj 58 276 line~;
#X obj 58 309 *~;
#X obj 322 73 sig~;
#X obj 60 22 r~ \$0modulator;
#X obj 196 197 r~ \$0carrier1;
#X obj 322 49 r \$0q;
#X obj 0 142 r \$0tick;
#X obj 60 119 reson~ 1 250 40;
#X obj 58 143 reson~ 1 250 40;
#X obj 195 241 reson~ 1 250 40;
#X obj 195 265 reson~ 1 250 40;
#X obj -28 254 s \$0voice1_3;
#X obj 57 342 s~ \$0voice1_3;
#X connect 0 0 1 0;
#X connect 1 0 2 0;
#X connect 1 0 14 0;
#X connect 2 0 3 0;
#X connect 3 0 4 0;
#X connect 4 0 15 0;
#X connect 5 0 10 3;
#X connect 5 0 11 3;
#X connect 5 0 12 3;
#X connect 5 0 13 3;
#X connect 6 0 10 0;
#X connect 7 0 12 0;
#X connect 8 0 5 0;
#X connect 9 0 0 0;
#X connect 10 0 11 0;
#X connect 11 0 0 0;
#X connect 12 0 13 0;
#X connect 13 0 4 1;
#X restore -135 80 pd ot 3;
#N canvas 704 0 450 300 ot 0;
#X obj 58 186 avg~;
#X obj 58 213 * 100;
#X msg 58 247 \$1 20;
#X obj 58 276 line~;
#X obj 58 309 *~;
#X obj 322 73 sig~;
#X obj 60 22 r~ \$0modulator;
#X obj 196 197 r~ \$0carrier1;
#X obj 322 49 r \$0q;
#X obj 0 142 r \$0tick;
#X obj 60 119 reson~ 1 400 40;
#X obj 55 143 reson~ 1 400 40;
#X obj 195 241 reson~ 1 400 40;
#X obj 195 265 reson~ 1 400 40;
#X obj -28 254 s \$0voice1_4;
#X obj 57 342 s~ \$0voice1_4;
#X connect 0 0 1 0;
#X connect 1 0 2 0;
#X connect 1 0 14 0;
#X connect 2 0 3 0;
#X connect 3 0 4 0;
#X connect 4 0 15 0;
#X connect 5 0 10 3;
#X connect 5 0 11 3;
#X connect 5 0 12 3;
#X connect 5 0 13 3;
#X connect 6 0 10 0;
#X connect 7 0 12 0;
#X connect 8 0 5 0;
#X connect 9 0 0 0;
#X connect 10 0 11 0;
#X connect 11 0 0 0;
#X connect 12 0 13 0;
#X connect 13 0 4 1;
#X restore -135 103 pd ot 4;
#N canvas 704 0 450 300 ot 0;
#X obj 58 186 avg~;
#X obj 58 213 * 100;
#X msg 58 247 \$1 20;
#X obj 58 276 line~;
#X obj 58 309 *~;
#X obj 322 73 sig~;
#X obj 60 22 r~ \$0modulator;
#X obj 196 197 r~ \$0carrier1;
#X obj 322 49 r \$0q;
#X obj 0 142 r \$0tick;
#X obj 60 119 reson~ 1 650 40;
#X obj 58 143 reson~ 1 650 40;
#X obj 196 241 reson~ 1 650 40;
#X obj 195 265 reson~ 1 650 40;
#X obj -28 254 s \$0voice1_5;
#X obj 57 342 s~ \$0voice1_5;
#X connect 0 0 1 0;
#X connect 1 0 2 0;
#X connect 1 0 14 0;
#X connect 2 0 3 0;
#X connect 3 0 4 0;
#X connect 4 0 15 0;
#X connect 5 0 10 3;
#X connect 5 0 11 3;
#X connect 5 0 12 3;
#X connect 5 0 13 3;
#X connect 6 0 10 0;
#X connect 7 0 12 0;
#X connect 8 0 5 0;
#X connect 9 0 0 0;
#X connect 10 0 11 0;
#X connect 11 0 0 0;
#X connect 12 0 13 0;
#X connect 13 0 4 1;
#X restore -135 126 pd ot 5;
#N canvas 704 0 450 300 ot 0;
#X obj 58 186 avg~;
#X obj 58 213 * 100;
#X msg 58 247 \$1 20;
#X obj 58 276 line~;
#X obj 58 309 *~;
#X obj 322 73 sig~;
#X obj 60 22 r~ \$0modulator;
#X obj 196 197 r~ \$0carrier1;
#X obj 322 49 r \$0q;
#X obj 0 142 r \$0tick;
#X obj 61 119 reson~ 1 800 40;
#X obj 55 143 reson~ 1 800 40;
#X obj 195 241 reson~ 1 800 40;
#X obj 195 265 reson~ 1 800 40;
#X obj -28 254 s \$0voice1_6;
#X obj 57 342 s~ \$0voice1_6;
#X connect 0 0 1 0;
#X connect 1 0 2 0;
#X connect 1 0 14 0;
#X connect 2 0 3 0;
#X connect 3 0 4 0;
#X connect 4 0 15 0;
#X connect 5 0 10 3;
#X connect 5 0 11 3;
#X connect 5 0 12 3;
#X connect 5 0 13 3;
#X connect 6 0 10 0;
#X connect 7 0 12 0;
#X connect 8 0 5 0;
#X connect 9 0 0 0;
#X connect 10 0 11 0;
#X connect 11 0 0 0;
#X connect 12 0 13 0;
#X connect 13 0 4 1;
#X restore -135 149 pd ot 6;
#N canvas 129 157 450 300 ot 0;
#X obj 58 186 avg~;
#X obj 58 213 * 100;
#X msg 58 247 \$1 20;
#X obj 58 276 line~;
#X obj 58 309 *~;
#X obj 322 73 sig~;
#X obj 60 22 r~ \$0modulator;
#X obj 196 197 r~ \$0carrier1;
#X obj 322 49 r \$0q;
#X obj 0 142 r \$0tick;
#X obj 59 119 reson~ 1 1100 40;
#X obj 69 142 reson~ 1 1100 40;
#X obj 196 241 reson~ 1 1100 40;
#X obj 194 265 reson~ 1 1100 40;
#X obj 57 342 s~ \$0voice1_7;
#X obj -28 254 s \$0voice1_7;
#X connect 0 0 1 0;
#X connect 1 0 2 0;
#X connect 1 0 15 0;
#X connect 2 0 3 0;
#X connect 3 0 4 0;
#X connect 4 0 14 0;
#X connect 5 0 10 3;
#X connect 5 0 11 3;
#X connect 5 0 12 3;
#X connect 5 0 13 3;
#X connect 6 0 10 0;
#X connect 7 0 12 0;
#X connect 8 0 5 0;
#X connect 9 0 0 0;
#X connect 10 0 11 0;
#X connect 11 0 0 0;
#X connect 12 0 13 0;
#X connect 13 0 4 1;
#X restore -136 172 pd ot 7;
#N canvas 704 0 450 300 ot 0;
#X obj 58 186 avg~;
#X obj 58 213 * 100;
#X msg 58 247 \$1 20;
#X obj 58 276 line~;
#X obj 58 309 *~;
#X obj 322 73 sig~;
#X obj 60 22 r~ \$0modulator;
#X obj 196 197 r~ \$0carrier1;
#X obj 322 49 r \$0q;
#X obj 0 142 r \$0tick;
#X obj 61 119 reson~ 1 1200 40;
#X obj 55 143 reson~ 1 1200 40;
#X obj 195 241 reson~ 1 1200 40;
#X obj 194 265 reson~ 1 1200 40;
#X obj -28 254 s \$0voice1_8;
#X obj 57 341 s~ \$0voice1_8;
#X connect 0 0 1 0;
#X connect 1 0 2 0;
#X connect 1 0 14 0;
#X connect 2 0 3 0;
#X connect 3 0 4 0;
#X connect 4 0 15 0;
#X connect 5 0 10 3;
#X connect 5 0 11 3;
#X connect 5 0 12 3;
#X connect 5 0 13 3;
#X connect 6 0 10 0;
#X connect 7 0 12 0;
#X connect 8 0 5 0;
#X connect 9 0 0 0;
#X connect 10 0 11 0;
#X connect 11 0 0 0;
#X connect 12 0 13 0;
#X connect 13 0 4 1;
#X restore -136 195 pd ot 8;
#N canvas 113 109 450 300 ot 0;
#X obj 58 186 avg~;
#X obj 58 213 * 100;
#X msg 58 247 \$1 20;
#X obj 58 276 line~;
#X obj 58 309 *~;
#X obj 322 73 sig~;
#X obj 60 22 r~ \$0modulator;
#X obj 196 197 r~ \$0carrier1;
#X obj 322 49 r \$0q;
#X obj 0 142 r \$0tick;
#X obj 195 241 reson~ 1 1300 40;
#X obj 195 265 reson~ 1 1300 40;
#X obj 58 143 reson~ 1 1300 40;
#X obj 60 119 reson~ 1 1300 40;
#X obj 57 342 s~ \$0voice1_9;
#X obj -28 254 s \$0voice1_9;
#X connect 0 0 1 0;
#X connect 1 0 2 0;
#X connect 1 0 15 0;
#X connect 2 0 3 0;
#X connect 3 0 4 0;
#X connect 4 0 14 0;
#X connect 5 0 10 3;
#X connect 5 0 11 3;
#X connect 5 0 12 3;
#X connect 5 0 13 3;
#X connect 6 0 13 0;
#X connect 7 0 10 0;
#X connect 8 0 5 0;
#X connect 9 0 0 0;
#X connect 10 0 11 0;
#X connect 11 0 4 1;
#X connect 12 0 0 0;
#X connect 13 0 12 0;
#X restore -73 34 pd ot 9;
#N canvas 704 0 450 300 ot 0;
#X obj 58 186 avg~;
#X obj 58 213 * 100;
#X msg 58 247 \$1 20;
#X obj 58 276 line~;
#X obj 58 309 *~;
#X obj 322 73 sig~;
#X obj 60 22 r~ \$0modulator;
#X obj 196 197 r~ \$0carrier1;
#X obj 322 49 r \$0q;
#X obj 0 142 r \$0tick;
#X obj 60 119 reson~ 1 1500 40;
#X obj 58 143 reson~ 1 1500 40;
#X obj 195 241 reson~ 1 1500 40;
#X obj 192 265 reson~ 1 1500 40;
#X obj -28 254 s \$0voice1_10;
#X obj 57 342 s~ \$0voice1_10;
#X connect 0 0 1 0;
#X connect 1 0 2 0;
#X connect 1 0 14 0;
#X connect 2 0 3 0;
#X connect 3 0 4 0;
#X connect 4 0 15 0;
#X connect 5 0 10 3;
#X connect 5 0 11 3;
#X connect 5 0 12 3;
#X connect 5 0 13 3;
#X connect 6 0 10 0;
#X connect 7 0 12 0;
#X connect 8 0 5 0;
#X connect 9 0 0 0;
#X connect 10 0 11 0;
#X connect 11 0 0 0;
#X connect 12 0 13 0;
#X connect 13 0 4 1;
#X restore -73 57 pd ot 10;
#N canvas 687 180 450 300 ot 0;
#X obj 58 186 avg~;
#X obj 58 213 * 100;
#X msg 58 247 \$1 20;
#X obj 58 276 line~;
#X obj 58 309 *~;
#X obj 322 73 sig~;
#X obj 60 22 r~ \$0modulator;
#X obj 196 197 r~ \$0carrier1;
#X obj 322 49 r \$0q;
#X obj 0 142 r \$0tick;
#X obj 60 119 reson~ 1 1700 40;
#X obj 58 142 reson~ 1 1700 40;
#X obj 195 241 reson~ 1 1700 40;
#X obj 193 265 reson~ 1 1700 40;
#X obj -27 254 s \$0voice1_11;
#X obj 57 342 s~ \$0voice1_11;
#X connect 0 0 1 0;
#X connect 1 0 2 0;
#X connect 1 0 14 0;
#X connect 2 0 3 0;
#X connect 3 0 4 0;
#X connect 4 0 15 0;
#X connect 5 0 10 3;
#X connect 5 0 11 3;
#X connect 5 0 12 3;
#X connect 5 0 13 3;
#X connect 6 0 10 0;
#X connect 7 0 12 0;
#X connect 8 0 5 0;
#X connect 9 0 0 0;
#X connect 10 0 11 0;
#X connect 11 0 0 0;
#X connect 12 0 13 0;
#X connect 13 0 4 1;
#X restore -73 80 pd ot 11;
#N canvas 704 0 450 300 ot 0;
#X obj 58 186 avg~;
#X obj 58 213 * 100;
#X msg 58 247 \$1 20;
#X obj 58 276 line~;
#X obj 58 309 *~;
#X obj 322 73 sig~;
#X obj 60 22 r~ \$0modulator;
#X obj 196 197 r~ \$0carrier1;
#X obj 322 49 r \$0q;
#X obj 0 142 r \$0tick;
#X obj 60 119 reson~ 1 2000 40;
#X obj 55 143 reson~ 1 2000 40;
#X obj 195 241 reson~ 1 2000 40;
#X obj 195 265 reson~ 1 2000 40;
#X obj -28 254 s \$0voice1_12;
#X obj 57 342 s~ \$0voice1_12;
#X connect 0 0 1 0;
#X connect 1 0 2 0;
#X connect 1 0 14 0;
#X connect 2 0 3 0;
#X connect 3 0 4 0;
#X connect 4 0 15 0;
#X connect 5 0 10 3;
#X connect 5 0 11 3;
#X connect 5 0 12 3;
#X connect 5 0 13 3;
#X connect 6 0 10 0;
#X connect 7 0 12 0;
#X connect 8 0 5 0;
#X connect 9 0 0 0;
#X connect 10 0 11 0;
#X connect 11 0 0 0;
#X connect 12 0 13 0;
#X connect 13 0 4 1;
#X restore -73 103 pd ot 12;
#N canvas 704 0 450 300 ot 0;
#X obj 58 186 avg~;
#X obj 58 213 * 100;
#X msg 58 247 \$1 20;
#X obj 58 276 line~;
#X obj 58 309 *~;
#X obj 322 73 sig~;
#X obj 60 22 r~ \$0modulator;
#X obj 196 197 r~ \$0carrier1;
#X obj 322 49 r \$0q;
#X obj 0 142 r \$0tick;
#X obj 60 119 reson~ 1 2200 40;
#X obj 58 143 reson~ 1 2200 40;
#X obj 196 241 reson~ 1 2200 40;
#X obj 195 265 reson~ 1 2200 40;
#X obj -28 254 s \$0voice1_13;
#X obj 57 342 s~ \$0voice1_13;
#X connect 0 0 1 0;
#X connect 1 0 2 0;
#X connect 1 0 14 0;
#X connect 2 0 3 0;
#X connect 3 0 4 0;
#X connect 4 0 15 0;
#X connect 5 0 10 3;
#X connect 5 0 11 3;
#X connect 5 0 12 3;
#X connect 5 0 13 3;
#X connect 6 0 10 0;
#X connect 7 0 12 0;
#X connect 8 0 5 0;
#X connect 9 0 0 0;
#X connect 10 0 11 0;
#X connect 11 0 0 0;
#X connect 12 0 13 0;
#X connect 13 0 4 1;
#X restore -73 126 pd ot 13;
#N canvas 718 114 450 300 ot 0;
#X obj 58 186 avg~;
#X obj 58 213 * 100;
#X msg 58 247 \$1 20;
#X obj 58 276 line~;
#X obj 58 309 *~;
#X obj 322 73 sig~;
#X obj 60 22 r~ \$0modulator;
#X obj 196 197 r~ \$0carrier1;
#X obj 322 49 r \$0q;
#X obj 0 142 r \$0tick;
#X obj 61 119 reson~ 1 2500 40;
#X obj 55 143 reson~ 1 2500 40;
#X obj 195 241 reson~ 1 2500 40;
#X obj 195 265 reson~ 1 2500 40;
#X obj -28 254 s \$0voice1_14;
#X obj 57 342 s~ \$0voice1_14;
#X connect 0 0 1 0;
#X connect 1 0 2 0;
#X connect 1 0 14 0;
#X connect 2 0 3 0;
#X connect 3 0 4 0;
#X connect 4 0 15 0;
#X connect 5 0 10 3;
#X connect 5 0 11 3;
#X connect 5 0 12 3;
#X connect 5 0 13 3;
#X connect 6 0 10 0;
#X connect 7 0 12 0;
#X connect 8 0 5 0;
#X connect 9 0 0 0;
#X connect 10 0 11 0;
#X connect 11 0 0 0;
#X connect 12 0 13 0;
#X connect 13 0 4 1;
#X restore -73 149 pd ot 14;
#N canvas 129 157 450 300 ot 0;
#X obj 58 186 avg~;
#X obj 58 213 * 100;
#X msg 58 247 \$1 20;
#X obj 58 276 line~;
#X obj 58 309 *~;
#X obj 322 73 sig~;
#X obj 60 22 r~ \$0modulator;
#X obj 196 197 r~ \$0carrier1;
#X obj 322 49 r \$0q;
#X obj 0 142 r \$0tick;
#X obj 59 119 reson~ 1 2800 40;
#X obj 69 142 reson~ 1 2800 40;
#X obj 196 241 reson~ 1 2800 40;
#X obj 194 265 reson~ 1 2800 40;
#X obj -28 254 s \$0voice1_15;
#X obj 57 342 s~ \$0voice1_15;
#X connect 0 0 1 0;
#X connect 1 0 2 0;
#X connect 1 0 14 0;
#X connect 2 0 3 0;
#X connect 3 0 4 0;
#X connect 4 0 15 0;
#X connect 5 0 10 3;
#X connect 5 0 11 3;
#X connect 5 0 12 3;
#X connect 5 0 13 3;
#X connect 6 0 10 0;
#X connect 7 0 12 0;
#X connect 8 0 5 0;
#X connect 9 0 0 0;
#X connect 10 0 11 0;
#X connect 11 0 0 0;
#X connect 12 0 13 0;
#X connect 13 0 4 1;
#X restore -74 172 pd ot 15;
#N canvas 500 146 450 515 ot 0;
#X obj 58 186 avg~;
#X obj 58 213 * 100;
#X msg 58 247 \$1 20;
#X obj 58 276 line~;
#X obj 58 309 *~;
#X obj 322 73 sig~;
#X obj 54 22 r~ \$0modulator;
#X obj 196 197 r~ \$0carrier1;
#X obj 322 49 r \$0q;
#X obj 159 155 r \$0tick;
#X obj 61 119 reson~ 1 3000 40;
#X obj 61 143 reson~ 1 3000 40;
#X obj 195 241 reson~ 1 3000 40;
#X obj 196 265 reson~ 1 3000 40;
#X obj -27 254 s \$0voice1_16;
#X obj 57 341 s~ \$0voice1_16;
#X connect 0 0 1 0;
#X connect 1 0 2 0;
#X connect 1 0 14 0;
#X connect 2 0 3 0;
#X connect 3 0 4 0;
#X connect 4 0 15 0;
#X connect 5 0 10 3;
#X connect 5 0 11 3;
#X connect 5 0 12 3;
#X connect 5 0 13 3;
#X connect 6 0 10 0;
#X connect 7 0 12 0;
#X connect 8 0 5 0;
#X connect 9 0 0 0;
#X connect 10 0 11 0;
#X connect 11 0 0 0;
#X connect 12 0 13 0;
#X connect 13 0 4 1;
#X restore -74 195 pd ot 16;
#X text 399 123 rec;
#X obj 536 254 -~ 1;
#X obj 346 18 sig~;
#X obj 346 -44 inlet;
#X text 590 205 saw;
#X obj 346 -16 unpack f f;
#X obj 121 555 *~;
#X obj 1082 207 r \$0stop;
#X msg 1090 254 0;
#X obj 803 141 r \$0att;
#X obj 937 142 r \$0rel;
#X obj 867 -40 r \$0sus;
#X obj 867 -7 / 127;
#X obj 867 410 vline~;
#X obj 1113 -32 moses 1;
#X floatatom 1104 4 5 0 0 0 - - -;
#X floatatom 1157 29 5 0 0 0 - - -;
#X obj 911 310 pack f f;
#X obj 1156 5 / 127;
#X obj 799 258 pack f f f f;
#X msg 781 304 \$1 \$2 \, \$3 \$4 \$2;
#X obj 937 175 * 4;
#X obj 803 174 * 4;
#X obj 801 210 s \$0attshow;
#X obj 779 40 s \$0susshow;
#X obj 970 209 s \$0relshow;
#X obj 884 74 *;
#X obj 900 15 t b f;
#X obj 870 45 f;
#X obj 765 228 f;
#X obj 852 168 t b f;
#X obj 1136 60 t f f;
#X obj 1051 101 spigot;
#X obj 1030 18 r \$0hold;
#X obj 1030 39 - 1;
#X obj 1031 62 abs;
#X connect 0 0 38 0;
#X connect 1 0 3 0;
#X connect 2 0 8 0;
#X connect 3 0 4 0;
#X connect 4 0 2 0;
#X connect 5 0 7 0;
#X connect 7 0 15 0;
#X connect 8 0 15 0;
#X connect 9 0 10 0;
#X connect 10 0 33 0;
#X connect 11 0 15 0;
#X connect 12 0 7 1;
#X connect 13 0 11 1;
#X connect 14 0 8 1;
#X connect 33 0 11 0;
#X connect 34 0 1 0;
#X connect 34 0 9 0;
#X connect 35 0 37 0;
#X connect 37 0 34 0;
#X connect 37 1 46 0;
#X connect 38 0 6 0;
#X connect 39 0 40 0;
#X connect 40 0 49 0;
#X connect 41 0 54 0;
#X connect 42 0 53 0;
#X connect 43 0 44 0;
#X connect 44 0 56 0;
#X connect 44 0 60 1;
#X connect 45 0 38 1;
#X connect 46 0 47 0;
#X connect 46 1 50 0;
#X connect 47 0 64 0;
#X connect 48 0 63 0;
#X connect 49 0 45 0;
#X connect 50 0 48 0;
#X connect 51 0 52 0;
#X connect 52 0 45 0;
#X connect 53 0 49 1;
#X connect 53 0 51 3;
#X connect 53 0 57 0;
#X connect 54 0 51 1;
#X connect 54 0 55 0;
#X connect 58 0 62 0;
#X connect 59 0 60 0;
#X connect 59 1 58 1;
#X connect 60 0 58 0;
#X connect 61 0 51 0;
#X connect 62 0 61 0;
#X connect 62 1 51 2;
#X connect 63 0 59 0;
#X connect 63 1 61 1;
#X connect 64 0 49 0;
#X connect 65 0 66 0;
#X connect 66 0 67 0;
#X connect 67 0 64 1;
#X restore -363 183 pd voice 1;
#X obj -324 -20 route 1 2 3 4;
#N canvas 0 0 1440 818 voice 0;
#N canvas 0 0 596 343 out 0;
#X obj 56 418 outlet~;
#X obj 7 179 r~ \$0voice2_1;
#X obj 126 184 r~ \$0voice2_2;
#X obj 255 183 r~ \$0voice2_3;
#X obj 350 184 r~ \$0voice2_4;
#X obj 34 243 r~ \$0voice2_5;
#X obj 133 249 r~ \$0voice2_6;
#X obj 249 242 r~ \$0voice2_7;
#X obj 358 242 r~ \$0voice2_8;
#X obj 204 299 r~ \$0voice2_9;
#X obj 293 303 r~ \$0voice2_10;
#X obj 380 303 r~ \$0voice2_11;
#X obj 467 307 r~ \$0voice2_12;
#X obj 167 346 r~ \$0voice2_13;
#X obj 263 346 r~ \$0voice2_14;
#X obj 368 347 r~ \$0voice2_15;
#X obj 476 347 r~ \$0voice2_16;
#X connect 1 0 0 0;
#X connect 2 0 0 0;
#X connect 3 0 0 0;
#X connect 4 0 0 0;
#X connect 5 0 0 0;
#X connect 6 0 0 0;
#X connect 7 0 0 0;
#X connect 8 0 0 0;
#X connect 9 0 0 0;
#X connect 10 0 0 0;
#X connect 11 0 0 0;
#X connect 12 0 0 0;
#X connect 13 0 0 0;
#X connect 14 0 0 0;
#X connect 15 0 0 0;
#X connect 16 0 0 0;
#X restore -61 498 pd out;
#X obj 147 173 phasor~;
#X obj 145 260 -~ 1;
#X obj 146 203 expr~ $v1 < 0.5;
#X obj 146 234 *~ 2;
#X obj 72 196 noise~;
#X obj -77 644 outlet~;
#X obj 73 378 *~;
#X obj 145 377 *~;
#X obj 338 311 phasor~;
#X obj 338 336 *~ 2;
#X obj 337 386 *~;
#X obj 414 219 inlet;
#X obj 513 231 inlet;
#X obj 452 225 inlet;
#X obj 184 565 s~ \$0carrier2;
#N canvas 704 0 450 300 ot 0;
#X obj 58 186 avg~;
#X obj 58 213 * 100;
#X msg 58 247 \$1 20;
#X obj 58 276 line~;
#X obj 58 309 *~;
#X obj 322 73 sig~;
#X obj 60 119 reson~ 1 100 40;
#X obj 60 22 r~ \$0modulator;
#X obj 57 342 s~ \$0voice2_1;
#X obj 196 197 r~ \$0carrier2;
#X obj 322 49 r \$0q;
#X obj 0 142 r \$0tick;
#X obj -28 254 s \$0voice2_1;
#X obj 58 143 reson~ 1 100 40;
#X obj 195 241 reson~ 1 100 40;
#X obj 195 265 reson~ 1 100 40;
#X connect 0 0 1 0;
#X connect 1 0 2 0;
#X connect 1 0 12 0;
#X connect 2 0 3 0;
#X connect 3 0 4 0;
#X connect 4 0 8 0;
#X connect 5 0 6 3;
#X connect 5 0 13 3;
#X connect 5 0 14 3;
#X connect 5 0 15 3;
#X connect 6 0 13 0;
#X connect 7 0 6 0;
#X connect 9 0 14 0;
#X connect 10 0 5 0;
#X connect 11 0 0 0;
#X connect 13 0 0 0;
#X connect 14 0 15 0;
#X connect 15 0 4 1;
#X restore -334 139 pd ot 1;
#N canvas 704 0 450 300 ot 0;
#X obj 58 186 avg~;
#X obj 58 213 * 100;
#X msg 58 247 \$1 20;
#X obj 58 276 line~;
#X obj 58 309 *~;
#X obj 322 73 sig~;
#X obj 60 22 r~ \$0modulator;
#X obj 196 197 r~ \$0carrier2;
#X obj 322 49 r \$0q;
#X obj 0 142 r \$0tick;
#X obj 60 119 reson~ 1 200 40;
#X obj 58 143 reson~ 1 200 40;
#X obj 195 241 reson~ 1 200 40;
#X obj 195 265 reson~ 1 200 40;
#X obj -28 254 s \$0voice2_2;
#X obj 57 342 s~ \$0voice2_2;
#X connect 0 0 1 0;
#X connect 1 0 2 0;
#X connect 1 0 14 0;
#X connect 2 0 3 0;
#X connect 3 0 4 0;
#X connect 4 0 15 0;
#X connect 5 0 10 3;
#X connect 5 0 11 3;
#X connect 5 0 12 3;
#X connect 5 0 13 3;
#X connect 6 0 10 0;
#X connect 7 0 12 0;
#X connect 8 0 5 0;
#X connect 9 0 0 0;
#X connect 10 0 11 0;
#X connect 11 0 0 0;
#X connect 12 0 13 0;
#X connect 13 0 4 1;
#X restore -334 162 pd ot 2;
#N canvas 704 0 450 300 ot 0;
#X obj 58 186 avg~;
#X obj 58 213 * 100;
#X msg 58 247 \$1 20;
#X obj 58 276 line~;
#X obj 58 309 *~;
#X obj 322 73 sig~;
#X obj 60 22 r~ \$0modulator;
#X obj 196 197 r~ \$0carrier2;
#X obj 322 49 r \$0q;
#X obj 0 142 r \$0tick;
#X obj 60 119 reson~ 1 250 40;
#X obj 58 143 reson~ 1 250 40;
#X obj 195 241 reson~ 1 250 40;
#X obj 195 265 reson~ 1 250 40;
#X obj -28 254 s \$0voice2_3;
#X obj 57 342 s~ \$0voice2_3;
#X connect 0 0 1 0;
#X connect 1 0 2 0;
#X connect 1 0 14 0;
#X connect 2 0 3 0;
#X connect 3 0 4 0;
#X connect 4 0 15 0;
#X connect 5 0 10 3;
#X connect 5 0 11 3;
#X connect 5 0 12 3;
#X connect 5 0 13 3;
#X connect 6 0 10 0;
#X connect 7 0 12 0;
#X connect 8 0 5 0;
#X connect 9 0 0 0;
#X connect 10 0 11 0;
#X connect 11 0 0 0;
#X connect 12 0 13 0;
#X connect 13 0 4 1;
#X restore -334 185 pd ot 3;
#N canvas 704 0 450 300 ot 0;
#X obj 58 186 avg~;
#X obj 58 213 * 100;
#X msg 58 247 \$1 20;
#X obj 58 276 line~;
#X obj 58 309 *~;
#X obj 322 73 sig~;
#X obj 60 22 r~ \$0modulator;
#X obj 196 197 r~ \$0carrier2;
#X obj 322 49 r \$0q;
#X obj 0 142 r \$0tick;
#X obj 60 119 reson~ 1 400 40;
#X obj 55 143 reson~ 1 400 40;
#X obj 195 241 reson~ 1 400 40;
#X obj 195 265 reson~ 1 400 40;
#X obj -28 254 s \$0voice2_4;
#X obj 57 342 s~ \$0voice2_4;
#X connect 0 0 1 0;
#X connect 1 0 2 0;
#X connect 1 0 14 0;
#X connect 2 0 3 0;
#X connect 3 0 4 0;
#X connect 4 0 15 0;
#X connect 5 0 10 3;
#X connect 5 0 11 3;
#X connect 5 0 12 3;
#X connect 5 0 13 3;
#X connect 6 0 10 0;
#X connect 7 0 12 0;
#X connect 8 0 5 0;
#X connect 9 0 0 0;
#X connect 10 0 11 0;
#X connect 11 0 0 0;
#X connect 12 0 13 0;
#X connect 13 0 4 1;
#X restore -334 208 pd ot 4;
#N canvas 704 0 450 300 ot 0;
#X obj 58 186 avg~;
#X obj 58 213 * 100;
#X msg 58 247 \$1 20;
#X obj 58 276 line~;
#X obj 58 309 *~;
#X obj 322 73 sig~;
#X obj 60 22 r~ \$0modulator;
#X obj 196 197 r~ \$0carrier2;
#X obj 322 49 r \$0q;
#X obj 0 142 r \$0tick;
#X obj 60 119 reson~ 1 650 40;
#X obj 58 143 reson~ 1 650 40;
#X obj 196 241 reson~ 1 650 40;
#X obj 195 265 reson~ 1 650 40;
#X obj -28 254 s \$0voice2_5;
#X obj 57 342 s~ \$0voice2_5;
#X connect 0 0 1 0;
#X connect 1 0 2 0;
#X connect 1 0 14 0;
#X connect 2 0 3 0;
#X connect 3 0 4 0;
#X connect 4 0 15 0;
#X connect 5 0 10 3;
#X connect 5 0 11 3;
#X connect 5 0 12 3;
#X connect 5 0 13 3;
#X connect 6 0 10 0;
#X connect 7 0 12 0;
#X connect 8 0 5 0;
#X connect 9 0 0 0;
#X connect 10 0 11 0;
#X connect 11 0 0 0;
#X connect 12 0 13 0;
#X connect 13 0 4 1;
#X restore -334 231 pd ot 5;
#N canvas 704 0 450 300 ot 0;
#X obj 58 186 avg~;
#X obj 58 213 * 100;
#X msg 58 247 \$1 20;
#X obj 58 276 line~;
#X obj 58 309 *~;
#X obj 322 73 sig~;
#X obj 60 22 r~ \$0modulator;
#X obj 196 197 r~ \$0carrier2;
#X obj 322 49 r \$0q;
#X obj 0 142 r \$0tick;
#X obj 61 119 reson~ 1 800 40;
#X obj 55 143 reson~ 1 800 40;
#X obj 195 241 reson~ 1 800 40;
#X obj 195 265 reson~ 1 800 40;
#X obj -28 254 s \$0voice2_6;
#X obj 57 342 s~ \$0voice2_6;
#X connect 0 0 1 0;
#X connect 1 0 2 0;
#X connect 1 0 14 0;
#X connect 2 0 3 0;
#X connect 3 0 4 0;
#X connect 4 0 15 0;
#X connect 5 0 10 3;
#X connect 5 0 11 3;
#X connect 5 0 12 3;
#X connect 5 0 13 3;
#X connect 6 0 10 0;
#X connect 7 0 12 0;
#X connect 8 0 5 0;
#X connect 9 0 0 0;
#X connect 10 0 11 0;
#X connect 11 0 0 0;
#X connect 12 0 13 0;
#X connect 13 0 4 1;
#X restore -334 254 pd ot 6;
#N canvas 129 157 450 300 ot 0;
#X obj 58 186 avg~;
#X obj 58 213 * 100;
#X msg 58 247 \$1 20;
#X obj 58 276 line~;
#X obj 58 309 *~;
#X obj 322 73 sig~;
#X obj 60 22 r~ \$0modulator;
#X obj 196 197 r~ \$0carrier2;
#X obj 322 49 r \$0q;
#X obj 0 142 r \$0tick;
#X obj 59 119 reson~ 1 1100 40;
#X obj 69 142 reson~ 1 1100 40;
#X obj 196 241 reson~ 1 1100 40;
#X obj 194 265 reson~ 1 1100 40;
#X obj 57 342 s~ \$0voice2_7;
#X obj -28 254 s \$0voice2_7;
#X connect 0 0 1 0;
#X connect 1 0 2 0;
#X connect 1 0 15 0;
#X connect 2 0 3 0;
#X connect 3 0 4 0;
#X connect 4 0 14 0;
#X connect 5 0 10 3;
#X connect 5 0 11 3;
#X connect 5 0 12 3;
#X connect 5 0 13 3;
#X connect 6 0 10 0;
#X connect 7 0 12 0;
#X connect 8 0 5 0;
#X connect 9 0 0 0;
#X connect 10 0 11 0;
#X connect 11 0 0 0;
#X connect 12 0 13 0;
#X connect 13 0 4 1;
#X restore -335 277 pd ot 7;
#N canvas 704 0 450 300 ot 0;
#X obj 58 186 avg~;
#X obj 58 213 * 100;
#X msg 58 247 \$1 20;
#X obj 58 276 line~;
#X obj 58 309 *~;
#X obj 322 73 sig~;
#X obj 60 22 r~ \$0modulator;
#X obj 196 197 r~ \$0carrier2;
#X obj 322 49 r \$0q;
#X obj 0 142 r \$0tick;
#X obj 61 119 reson~ 1 1200 40;
#X obj 55 143 reson~ 1 1200 40;
#X obj 195 241 reson~ 1 1200 40;
#X obj 194 265 reson~ 1 1200 40;
#X obj -28 254 s \$0voice2_8;
#X obj 57 341 s~ \$0voice2_8;
#X connect 0 0 1 0;
#X connect 1 0 2 0;
#X connect 1 0 14 0;
#X connect 2 0 3 0;
#X connect 3 0 4 0;
#X connect 4 0 15 0;
#X connect 5 0 10 3;
#X connect 5 0 11 3;
#X connect 5 0 12 3;
#X connect 5 0 13 3;
#X connect 6 0 10 0;
#X connect 7 0 12 0;
#X connect 8 0 5 0;
#X connect 9 0 0 0;
#X connect 10 0 11 0;
#X connect 11 0 0 0;
#X connect 12 0 13 0;
#X connect 13 0 4 1;
#X restore -335 300 pd ot 8;
#N canvas 113 109 450 300 ot 0;
#X obj 58 186 avg~;
#X obj 58 213 * 100;
#X msg 58 247 \$1 20;
#X obj 58 276 line~;
#X obj 58 309 *~;
#X obj 322 73 sig~;
#X obj 60 22 r~ \$0modulator;
#X obj 196 197 r~ \$0carrier2;
#X obj 322 49 r \$0q;
#X obj 0 142 r \$0tick;
#X obj 195 241 reson~ 1 1300 40;
#X obj 195 265 reson~ 1 1300 40;
#X obj 58 143 reson~ 1 1300 40;
#X obj 60 119 reson~ 1 1300 40;
#X obj 57 342 s~ \$0voice2_9;
#X obj -28 254 s \$0voice2_9;
#X connect 0 0 1 0;
#X connect 1 0 2 0;
#X connect 1 0 15 0;
#X connect 2 0 3 0;
#X connect 3 0 4 0;
#X connect 4 0 14 0;
#X connect 5 0 10 3;
#X connect 5 0 11 3;
#X connect 5 0 12 3;
#X connect 5 0 13 3;
#X connect 6 0 13 0;
#X connect 7 0 10 0;
#X connect 8 0 5 0;
#X connect 9 0 0 0;
#X connect 10 0 11 0;
#X connect 11 0 4 1;
#X connect 12 0 0 0;
#X connect 13 0 12 0;
#X restore -272 139 pd ot 9;
#N canvas 704 0 450 300 ot 0;
#X obj 58 186 avg~;
#X obj 58 213 * 100;
#X msg 58 247 \$1 20;
#X obj 58 276 line~;
#X obj 58 309 *~;
#X obj 322 73 sig~;
#X obj 60 22 r~ \$0modulator;
#X obj 196 197 r~ \$0carrier2;
#X obj 322 49 r \$0q;
#X obj 0 142 r \$0tick;
#X obj 60 119 reson~ 1 1500 40;
#X obj 58 143 reson~ 1 1500 40;
#X obj 195 241 reson~ 1 1500 40;
#X obj 192 265 reson~ 1 1500 40;
#X obj -28 254 s \$0voice2_10;
#X obj 57 342 s~ \$0voice2_10;
#X connect 0 0 1 0;
#X connect 1 0 2 0;
#X connect 1 0 14 0;
#X connect 2 0 3 0;
#X connect 3 0 4 0;
#X connect 4 0 15 0;
#X connect 5 0 10 3;
#X connect 5 0 11 3;
#X connect 5 0 12 3;
#X connect 5 0 13 3;
#X connect 6 0 10 0;
#X connect 7 0 12 0;
#X connect 8 0 5 0;
#X connect 9 0 0 0;
#X connect 10 0 11 0;
#X connect 11 0 0 0;
#X connect 12 0 13 0;
#X connect 13 0 4 1;
#X restore -272 162 pd ot 10;
#N canvas 687 180 450 300 ot 0;
#X obj 58 186 avg~;
#X obj 58 213 * 100;
#X msg 58 247 \$1 20;
#X obj 58 276 line~;
#X obj 58 309 *~;
#X obj 322 73 sig~;
#X obj 60 22 r~ \$0modulator;
#X obj 196 197 r~ \$0carrier2;
#X obj 322 49 r \$0q;
#X obj 0 142 r \$0tick;
#X obj 60 119 reson~ 1 1700 40;
#X obj 58 142 reson~ 1 1700 40;
#X obj 195 241 reson~ 1 1700 40;
#X obj 193 265 reson~ 1 1700 40;
#X obj -27 254 s \$0voice2_11;
#X obj 57 342 s~ \$0voice2_11;
#X connect 0 0 1 0;
#X connect 1 0 2 0;
#X connect 1 0 14 0;
#X connect 2 0 3 0;
#X connect 3 0 4 0;
#X connect 4 0 15 0;
#X connect 5 0 10 3;
#X connect 5 0 11 3;
#X connect 5 0 12 3;
#X connect 5 0 13 3;
#X connect 6 0 10 0;
#X connect 7 0 12 0;
#X connect 8 0 5 0;
#X connect 9 0 0 0;
#X connect 10 0 11 0;
#X connect 11 0 0 0;
#X connect 12 0 13 0;
#X connect 13 0 4 1;
#X restore -272 185 pd ot 11;
#N canvas 704 0 450 300 ot 0;
#X obj 58 186 avg~;
#X obj 58 213 * 100;
#X msg 58 247 \$1 20;
#X obj 58 276 line~;
#X obj 58 309 *~;
#X obj 322 73 sig~;
#X obj 60 22 r~ \$0modulator;
#X obj 196 197 r~ \$0carrier2;
#X obj 322 49 r \$0q;
#X obj 0 142 r \$0tick;
#X obj 60 119 reson~ 1 2000 40;
#X obj 55 143 reson~ 1 2000 40;
#X obj 195 241 reson~ 1 2000 40;
#X obj 195 265 reson~ 1 2000 40;
#X obj -28 254 s \$0voice2_12;
#X obj 57 342 s~ \$0voice2_12;
#X connect 0 0 1 0;
#X connect 1 0 2 0;
#X connect 1 0 14 0;
#X connect 2 0 3 0;
#X connect 3 0 4 0;
#X connect 4 0 15 0;
#X connect 5 0 10 3;
#X connect 5 0 11 3;
#X connect 5 0 12 3;
#X connect 5 0 13 3;
#X connect 6 0 10 0;
#X connect 7 0 12 0;
#X connect 8 0 5 0;
#X connect 9 0 0 0;
#X connect 10 0 11 0;
#X connect 11 0 0 0;
#X connect 12 0 13 0;
#X connect 13 0 4 1;
#X restore -272 208 pd ot 12;
#N canvas 704 0 450 300 ot 0;
#X obj 58 186 avg~;
#X obj 58 213 * 100;
#X msg 58 247 \$1 20;
#X obj 58 276 line~;
#X obj 58 309 *~;
#X obj 322 73 sig~;
#X obj 60 22 r~ \$0modulator;
#X obj 196 197 r~ \$0carrier2;
#X obj 322 49 r \$0q;
#X obj 0 142 r \$0tick;
#X obj 60 119 reson~ 1 2200 40;
#X obj 58 143 reson~ 1 2200 40;
#X obj 196 241 reson~ 1 2200 40;
#X obj 195 265 reson~ 1 2200 40;
#X obj -28 254 s \$0voice2_13;
#X obj 57 342 s~ \$0voice2_13;
#X connect 0 0 1 0;
#X connect 1 0 2 0;
#X connect 1 0 14 0;
#X connect 2 0 3 0;
#X connect 3 0 4 0;
#X connect 4 0 15 0;
#X connect 5 0 10 3;
#X connect 5 0 11 3;
#X connect 5 0 12 3;
#X connect 5 0 13 3;
#X connect 6 0 10 0;
#X connect 7 0 12 0;
#X connect 8 0 5 0;
#X connect 9 0 0 0;
#X connect 10 0 11 0;
#X connect 11 0 0 0;
#X connect 12 0 13 0;
#X connect 13 0 4 1;
#X restore -272 231 pd ot 13;
#N canvas 718 114 450 300 ot 0;
#X obj 58 186 avg~;
#X obj 58 213 * 100;
#X msg 58 247 \$1 20;
#X obj 58 276 line~;
#X obj 58 309 *~;
#X obj 322 73 sig~;
#X obj 60 22 r~ \$0modulator;
#X obj 196 197 r~ \$0carrier2;
#X obj 322 49 r \$0q;
#X obj 0 142 r \$0tick;
#X obj 61 119 reson~ 1 2500 40;
#X obj 55 143 reson~ 1 2500 40;
#X obj 195 241 reson~ 1 2500 40;
#X obj 195 265 reson~ 1 2500 40;
#X obj -28 254 s \$0voice2_14;
#X obj 57 342 s~ \$0voice2_14;
#X connect 0 0 1 0;
#X connect 1 0 2 0;
#X connect 1 0 14 0;
#X connect 2 0 3 0;
#X connect 3 0 4 0;
#X connect 4 0 15 0;
#X connect 5 0 10 3;
#X connect 5 0 11 3;
#X connect 5 0 12 3;
#X connect 5 0 13 3;
#X connect 6 0 10 0;
#X connect 7 0 12 0;
#X connect 8 0 5 0;
#X connect 9 0 0 0;
#X connect 10 0 11 0;
#X connect 11 0 0 0;
#X connect 12 0 13 0;
#X connect 13 0 4 1;
#X restore -272 254 pd ot 14;
#N canvas 129 157 450 300 ot 0;
#X obj 58 186 avg~;
#X obj 58 213 * 100;
#X msg 58 247 \$1 20;
#X obj 58 276 line~;
#X obj 58 309 *~;
#X obj 322 73 sig~;
#X obj 60 22 r~ \$0modulator;
#X obj 196 197 r~ \$0carrier2;
#X obj 322 49 r \$0q;
#X obj 0 142 r \$0tick;
#X obj 59 119 reson~ 1 2800 40;
#X obj 69 142 reson~ 1 2800 40;
#X obj 196 241 reson~ 1 2800 40;
#X obj 194 265 reson~ 1 2800 40;
#X obj -28 254 s \$0voice2_15;
#X obj 57 342 s~ \$0voice2_15;
#X connect 0 0 1 0;
#X connect 1 0 2 0;
#X connect 1 0 14 0;
#X connect 2 0 3 0;
#X connect 3 0 4 0;
#X connect 4 0 15 0;
#X connect 5 0 10 3;
#X connect 5 0 11 3;
#X connect 5 0 12 3;
#X connect 5 0 13 3;
#X connect 6 0 10 0;
#X connect 7 0 12 0;
#X connect 8 0 5 0;
#X connect 9 0 0 0;
#X connect 10 0 11 0;
#X connect 11 0 0 0;
#X connect 12 0 13 0;
#X connect 13 0 4 1;
#X restore -273 277 pd ot 15;
#N canvas 89 120 450 300 ot 0;
#X obj 58 186 avg~;
#X obj 58 213 * 100;
#X msg 58 247 \$1 20;
#X obj 58 276 line~;
#X obj 58 309 *~;
#X obj 322 73 sig~;
#X obj 60 22 r~ \$0modulator;
#X obj 196 197 r~ \$0carrier2;
#X obj 322 49 r \$0q;
#X obj 0 142 r \$0tick;
#X obj 61 119 reson~ 1 3000 40;
#X obj 55 143 reson~ 1 3000 40;
#X obj 195 241 reson~ 1 3000 40;
#X obj 194 265 reson~ 1 3000 40;
#X obj -27 254 s \$0voice2_16;
#X obj 57 341 s~ \$0voice2_16;
#X connect 0 0 1 0;
#X connect 1 0 2 0;
#X connect 1 0 14 0;
#X connect 2 0 3 0;
#X connect 3 0 4 0;
#X connect 4 0 15 0;
#X connect 5 0 10 3;
#X connect 5 0 11 3;
#X connect 5 0 12 3;
#X connect 5 0 13 3;
#X connect 6 0 10 0;
#X connect 7 0 12 0;
#X connect 8 0 5 0;
#X connect 9 0 0 0;
#X connect 10 0 11 0;
#X connect 11 0 0 0;
#X connect 12 0 13 0;
#X connect 13 0 4 1;
#X restore -273 300 pd ot 16;
#X text 200 228 rec;
#X obj 337 359 -~ 1;
#X obj 147 123 sig~;
#X obj 148 61 inlet;
#X text 391 310 saw;
#X obj 148 89 unpack f f;
#X obj -73 572 *~;
#X obj 910 410 r \$0stop;
#X msg 918 457 0;
#X obj 631 344 r \$0att;
#X obj 765 345 r \$0rel;
#X obj 695 163 r \$0sus;
#X obj 695 196 / 127;
#X obj 695 613 vline~;
#X obj 941 171 moses 1;
#X floatatom 932 207 5 0 0 0 - - -;
#X floatatom 985 232 5 0 0 0 - - -;
#X obj 739 513 pack f f;
#X obj 984 208 / 127;
#X obj 627 461 pack f f f f;
#X msg 609 507 \$1 \$2 \, \$3 \$4 \$2;
#X obj 765 378 * 4;
#X obj 631 377 * 4;
#X obj 629 413 s \$0attshow;
#X obj 607 243 s \$0susshow;
#X obj 798 412 s \$0relshow;
#X obj 712 277 *;
#X obj 728 218 t b f;
#X obj 698 248 f;
#X obj 593 431 f;
#X obj 680 371 t b f;
#X obj 964 263 t f f;
#X obj 879 304 spigot;
#X obj 858 221 r \$0hold;
#X obj 858 242 - 1;
#X obj 859 265 abs;
#X connect 0 0 38 0;
#X connect 1 0 3 0;
#X connect 2 0 8 0;
#X connect 3 0 4 0;
#X connect 4 0 2 0;
#X connect 5 0 7 0;
#X connect 7 0 15 0;
#X connect 8 0 15 0;
#X connect 9 0 10 0;
#X connect 10 0 33 0;
#X connect 11 0 15 0;
#X connect 12 0 7 1;
#X connect 13 0 11 1;
#X connect 14 0 8 1;
#X connect 33 0 11 0;
#X connect 34 0 1 0;
#X connect 34 0 9 0;
#X connect 35 0 37 0;
#X connect 37 0 34 0;
#X connect 37 1 46 0;
#X connect 38 0 6 0;
#X connect 39 0 40 0;
#X connect 40 0 49 0;
#X connect 41 0 54 0;
#X connect 42 0 53 0;
#X connect 43 0 44 0;
#X connect 44 0 56 0;
#X connect 44 0 60 1;
#X connect 45 0 38 1;
#X connect 46 0 47 0;
#X connect 46 1 50 0;
#X connect 47 0 64 0;
#X connect 48 0 63 0;
#X connect 49 0 45 0;
#X connect 50 0 48 0;
#X connect 51 0 52 0;
#X connect 52 0 45 0;
#X connect 53 0 49 1;
#X connect 53 0 51 3;
#X connect 53 0 57 0;
#X connect 54 0 51 1;
#X connect 54 0 55 0;
#X connect 58 0 62 0;
#X connect 59 0 60 0;
#X connect 59 1 58 1;
#X connect 60 0 58 0;
#X connect 61 0 51 0;
#X connect 62 0 61 0;
#X connect 62 1 51 2;
#X connect 63 0 59 0;
#X connect 63 1 61 1;
#X connect 64 0 49 0;
#X connect 65 0 66 0;
#X connect 66 0 67 0;
#X connect 67 0 64 1;
#X restore -290 219 pd voice 2;
#N canvas 0 0 1440 818 voice 0;
#N canvas 0 0 596 343 out 0;
#X obj 56 418 outlet~;
#X obj 7 179 r~ \$0voice3_1;
#X obj 126 184 r~ \$0voice3_2;
#X obj 255 183 r~ \$0voice3_3;
#X obj 350 184 r~ \$0voice3_4;
#X obj 34 243 r~ \$0voice3_5;
#X obj 133 249 r~ \$0voice3_6;
#X obj 249 242 r~ \$0voice3_7;
#X obj 358 242 r~ \$0voice3_8;
#X obj 204 299 r~ \$0voice3_9;
#X obj 293 303 r~ \$0voice3_10;
#X obj 380 303 r~ \$0voice3_11;
#X obj 467 307 r~ \$0voice3_12;
#X obj 167 346 r~ \$0voice3_13;
#X obj 263 346 r~ \$0voice3_14;
#X obj 368 347 r~ \$0voice3_15;
#X obj 476 347 r~ \$0voice3_16;
#X connect 1 0 0 0;
#X connect 2 0 0 0;
#X connect 3 0 0 0;
#X connect 4 0 0 0;
#X connect 5 0 0 0;
#X connect 6 0 0 0;
#X connect 7 0 0 0;
#X connect 8 0 0 0;
#X connect 9 0 0 0;
#X connect 10 0 0 0;
#X connect 11 0 0 0;
#X connect 12 0 0 0;
#X connect 13 0 0 0;
#X connect 14 0 0 0;
#X connect 15 0 0 0;
#X connect 16 0 0 0;
#X restore 148 477 pd out;
#X obj 366 88 phasor~;
#X obj 364 175 -~ 1;
#X obj 365 118 expr~ $v1 < 0.5;
#X obj 365 149 *~ 2;
#X obj 291 111 noise~;
#X obj 142 559 outlet~;
#X obj 292 293 *~;
#X obj 364 292 *~;
#X obj 557 226 phasor~;
#X obj 557 251 *~ 2;
#X obj 556 301 *~;
#X obj 633 134 inlet;
#X obj 732 146 inlet;
#X obj 671 140 inlet;
#X obj 400 375 s~ \$0carrier3;
#N canvas 704 0 450 300 ot 0;
#X obj 58 186 avg~;
#X obj 58 213 * 100;
#X msg 58 247 \$1 20;
#X obj 58 276 line~;
#X obj 58 309 *~;
#X obj 322 73 sig~;
#X obj 60 119 reson~ 1 100 40;
#X obj 60 22 r~ \$0modulator;
#X obj 57 342 s~ \$0voice3_1;
#X obj 196 197 r~ \$0carrier3;
#X obj 322 49 r \$0q;
#X obj 0 142 r \$0tick;
#X obj -28 254 s \$0voice3_1;
#X obj 58 143 reson~ 1 100 40;
#X obj 195 241 reson~ 1 100 40;
#X obj 195 265 reson~ 1 100 40;
#X connect 0 0 1 0;
#X connect 1 0 2 0;
#X connect 1 0 12 0;
#X connect 2 0 3 0;
#X connect 3 0 4 0;
#X connect 4 0 8 0;
#X connect 5 0 6 3;
#X connect 5 0 13 3;
#X connect 5 0 14 3;
#X connect 5 0 15 3;
#X connect 6 0 13 0;
#X connect 7 0 6 0;
#X connect 9 0 14 0;
#X connect 10 0 5 0;
#X connect 11 0 0 0;
#X connect 13 0 0 0;
#X connect 14 0 15 0;
#X connect 15 0 4 1;
#X restore -115 54 pd ot 1;
#N canvas 704 0 450 300 ot 0;
#X obj 58 186 avg~;
#X obj 58 213 * 100;
#X msg 58 247 \$1 20;
#X obj 58 276 line~;
#X obj 58 309 *~;
#X obj 322 73 sig~;
#X obj 60 22 r~ \$0modulator;
#X obj 196 197 r~ \$0carrier3;
#X obj 322 49 r \$0q;
#X obj 0 142 r \$0tick;
#X obj 60 119 reson~ 1 200 40;
#X obj 58 143 reson~ 1 200 40;
#X obj 195 241 reson~ 1 200 40;
#X obj 195 265 reson~ 1 200 40;
#X obj -28 254 s \$0voice3_2;
#X obj 57 342 s~ \$0voice3_2;
#X connect 0 0 1 0;
#X connect 1 0 2 0;
#X connect 1 0 14 0;
#X connect 2 0 3 0;
#X connect 3 0 4 0;
#X connect 4 0 15 0;
#X connect 5 0 10 3;
#X connect 5 0 11 3;
#X connect 5 0 12 3;
#X connect 5 0 13 3;
#X connect 6 0 10 0;
#X connect 7 0 12 0;
#X connect 8 0 5 0;
#X connect 9 0 0 0;
#X connect 10 0 11 0;
#X connect 11 0 0 0;
#X connect 12 0 13 0;
#X connect 13 0 4 1;
#X restore -115 77 pd ot 2;
#N canvas 704 0 450 300 ot 0;
#X obj 58 186 avg~;
#X obj 58 213 * 100;
#X msg 58 247 \$1 20;
#X obj 58 276 line~;
#X obj 58 309 *~;
#X obj 322 73 sig~;
#X obj 60 22 r~ \$0modulator;
#X obj 196 197 r~ \$0carrier3;
#X obj 322 49 r \$0q;
#X obj 0 142 r \$0tick;
#X obj 60 119 reson~ 1 250 40;
#X obj 58 143 reson~ 1 250 40;
#X obj 195 241 reson~ 1 250 40;
#X obj 195 265 reson~ 1 250 40;
#X obj -28 254 s \$0voice3_3;
#X obj 57 342 s~ \$0voice3_3;
#X connect 0 0 1 0;
#X connect 1 0 2 0;
#X connect 1 0 14 0;
#X connect 2 0 3 0;
#X connect 3 0 4 0;
#X connect 4 0 15 0;
#X connect 5 0 10 3;
#X connect 5 0 11 3;
#X connect 5 0 12 3;
#X connect 5 0 13 3;
#X connect 6 0 10 0;
#X connect 7 0 12 0;
#X connect 8 0 5 0;
#X connect 9 0 0 0;
#X connect 10 0 11 0;
#X connect 11 0 0 0;
#X connect 12 0 13 0;
#X connect 13 0 4 1;
#X restore -115 100 pd ot 3;
#N canvas 704 0 450 300 ot 0;
#X obj 58 186 avg~;
#X obj 58 213 * 100;
#X msg 58 247 \$1 20;
#X obj 58 276 line~;
#X obj 58 309 *~;
#X obj 322 73 sig~;
#X obj 60 22 r~ \$0modulator;
#X obj 196 197 r~ \$0carrier3;
#X obj 322 49 r \$0q;
#X obj 0 142 r \$0tick;
#X obj 60 119 reson~ 1 400 40;
#X obj 55 143 reson~ 1 400 40;
#X obj 195 241 reson~ 1 400 40;
#X obj 195 265 reson~ 1 400 40;
#X obj -28 254 s \$0voice3_4;
#X obj 57 342 s~ \$0voice3_4;
#X connect 0 0 1 0;
#X connect 1 0 2 0;
#X connect 1 0 14 0;
#X connect 2 0 3 0;
#X connect 3 0 4 0;
#X connect 4 0 15 0;
#X connect 5 0 10 3;
#X connect 5 0 11 3;
#X connect 5 0 12 3;
#X connect 5 0 13 3;
#X connect 6 0 10 0;
#X connect 7 0 12 0;
#X connect 8 0 5 0;
#X connect 9 0 0 0;
#X connect 10 0 11 0;
#X connect 11 0 0 0;
#X connect 12 0 13 0;
#X connect 13 0 4 1;
#X restore -115 123 pd ot 4;
#N canvas 704 0 450 300 ot 0;
#X obj 58 186 avg~;
#X obj 58 213 * 100;
#X msg 58 247 \$1 20;
#X obj 58 276 line~;
#X obj 58 309 *~;
#X obj 322 73 sig~;
#X obj 60 22 r~ \$0modulator;
#X obj 196 197 r~ \$0carrier3;
#X obj 322 49 r \$0q;
#X obj 0 142 r \$0tick;
#X obj 60 119 reson~ 1 650 40;
#X obj 58 143 reson~ 1 650 40;
#X obj 196 241 reson~ 1 650 40;
#X obj 195 265 reson~ 1 650 40;
#X obj -28 254 s \$0voice3_5;
#X obj 57 342 s~ \$0voice3_5;
#X connect 0 0 1 0;
#X connect 1 0 2 0;
#X connect 1 0 14 0;
#X connect 2 0 3 0;
#X connect 3 0 4 0;
#X connect 4 0 15 0;
#X connect 5 0 10 3;
#X connect 5 0 11 3;
#X connect 5 0 12 3;
#X connect 5 0 13 3;
#X connect 6 0 10 0;
#X connect 7 0 12 0;
#X connect 8 0 5 0;
#X connect 9 0 0 0;
#X connect 10 0 11 0;
#X connect 11 0 0 0;
#X connect 12 0 13 0;
#X connect 13 0 4 1;
#X restore -115 146 pd ot 5;
#N canvas 704 0 450 300 ot 0;
#X obj 58 186 avg~;
#X obj 58 213 * 100;
#X msg 58 247 \$1 20;
#X obj 58 276 line~;
#X obj 58 309 *~;
#X obj 322 73 sig~;
#X obj 60 22 r~ \$0modulator;
#X obj 196 197 r~ \$0carrier3;
#X obj 322 49 r \$0q;
#X obj 0 142 r \$0tick;
#X obj 61 119 reson~ 1 800 40;
#X obj 55 143 reson~ 1 800 40;
#X obj 195 241 reson~ 1 800 40;
#X obj 195 265 reson~ 1 800 40;
#X obj -28 254 s \$0voice3_6;
#X obj 57 342 s~ \$0voice3_6;
#X connect 0 0 1 0;
#X connect 1 0 2 0;
#X connect 1 0 14 0;
#X connect 2 0 3 0;
#X connect 3 0 4 0;
#X connect 4 0 15 0;
#X connect 5 0 10 3;
#X connect 5 0 11 3;
#X connect 5 0 12 3;
#X connect 5 0 13 3;
#X connect 6 0 10 0;
#X connect 7 0 12 0;
#X connect 8 0 5 0;
#X connect 9 0 0 0;
#X connect 10 0 11 0;
#X connect 11 0 0 0;
#X connect 12 0 13 0;
#X connect 13 0 4 1;
#X restore -115 169 pd ot 6;
#N canvas 129 157 450 300 ot 0;
#X obj 58 186 avg~;
#X obj 58 213 * 100;
#X msg 58 247 \$1 20;
#X obj 58 276 line~;
#X obj 58 309 *~;
#X obj 322 73 sig~;
#X obj 60 22 r~ \$0modulator;
#X obj 196 197 r~ \$0carrier3;
#X obj 322 49 r \$0q;
#X obj 0 142 r \$0tick;
#X obj 59 119 reson~ 1 1100 40;
#X obj 69 142 reson~ 1 1100 40;
#X obj 196 241 reson~ 1 1100 40;
#X obj 194 265 reson~ 1 1100 40;
#X obj 57 342 s~ \$0voice3_7;
#X obj -28 254 s \$0voice3_7;
#X connect 0 0 1 0;
#X connect 1 0 2 0;
#X connect 1 0 15 0;
#X connect 2 0 3 0;
#X connect 3 0 4 0;
#X connect 4 0 14 0;
#X connect 5 0 10 3;
#X connect 5 0 11 3;
#X connect 5 0 12 3;
#X connect 5 0 13 3;
#X connect 6 0 10 0;
#X connect 7 0 12 0;
#X connect 8 0 5 0;
#X connect 9 0 0 0;
#X connect 10 0 11 0;
#X connect 11 0 0 0;
#X connect 12 0 13 0;
#X connect 13 0 4 1;
#X restore -116 192 pd ot 7;
#N canvas 704 0 450 300 ot 0;
#X obj 58 186 avg~;
#X obj 58 213 * 100;
#X msg 58 247 \$1 20;
#X obj 58 276 line~;
#X obj 58 309 *~;
#X obj 322 73 sig~;
#X obj 60 22 r~ \$0modulator;
#X obj 196 197 r~ \$0carrier3;
#X obj 322 49 r \$0q;
#X obj 0 142 r \$0tick;
#X obj 61 119 reson~ 1 1200 40;
#X obj 55 143 reson~ 1 1200 40;
#X obj 195 241 reson~ 1 1200 40;
#X obj 194 265 reson~ 1 1200 40;
#X obj -28 254 s \$0voice3_8;
#X obj 57 341 s~ \$0voice3_8;
#X connect 0 0 1 0;
#X connect 1 0 2 0;
#X connect 1 0 14 0;
#X connect 2 0 3 0;
#X connect 3 0 4 0;
#X connect 4 0 15 0;
#X connect 5 0 10 3;
#X connect 5 0 11 3;
#X connect 5 0 12 3;
#X connect 5 0 13 3;
#X connect 6 0 10 0;
#X connect 7 0 12 0;
#X connect 8 0 5 0;
#X connect 9 0 0 0;
#X connect 10 0 11 0;
#X connect 11 0 0 0;
#X connect 12 0 13 0;
#X connect 13 0 4 1;
#X restore -116 215 pd ot 8;
#N canvas 113 109 450 300 ot 0;
#X obj 58 186 avg~;
#X obj 58 213 * 100;
#X msg 58 247 \$1 20;
#X obj 58 276 line~;
#X obj 58 309 *~;
#X obj 322 73 sig~;
#X obj 60 22 r~ \$0modulator;
#X obj 196 197 r~ \$0carrier3;
#X obj 322 49 r \$0q;
#X obj 0 142 r \$0tick;
#X obj 195 241 reson~ 1 1300 40;
#X obj 195 265 reson~ 1 1300 40;
#X obj 58 143 reson~ 1 1300 40;
#X obj 60 119 reson~ 1 1300 40;
#X obj 57 342 s~ \$0voice3_9;
#X obj -28 254 s \$0voice3_9;
#X connect 0 0 1 0;
#X connect 1 0 2 0;
#X connect 1 0 15 0;
#X connect 2 0 3 0;
#X connect 3 0 4 0;
#X connect 4 0 14 0;
#X connect 5 0 10 3;
#X connect 5 0 11 3;
#X connect 5 0 12 3;
#X connect 5 0 13 3;
#X connect 6 0 13 0;
#X connect 7 0 10 0;
#X connect 8 0 5 0;
#X connect 9 0 0 0;
#X connect 10 0 11 0;
#X connect 11 0 4 1;
#X connect 12 0 0 0;
#X connect 13 0 12 0;
#X restore -53 54 pd ot 9;
#N canvas 704 0 450 300 ot 0;
#X obj 58 186 avg~;
#X obj 58 213 * 100;
#X msg 58 247 \$1 20;
#X obj 58 276 line~;
#X obj 58 309 *~;
#X obj 322 73 sig~;
#X obj 60 22 r~ \$0modulator;
#X obj 196 197 r~ \$0carrier3;
#X obj 322 49 r \$0q;
#X obj 0 142 r \$0tick;
#X obj 60 119 reson~ 1 1500 40;
#X obj 58 143 reson~ 1 1500 40;
#X obj 195 241 reson~ 1 1500 40;
#X obj 192 265 reson~ 1 1500 40;
#X obj -28 254 s \$0voice3_10;
#X obj 57 342 s~ \$0voice3_10;
#X connect 0 0 1 0;
#X connect 1 0 2 0;
#X connect 1 0 14 0;
#X connect 2 0 3 0;
#X connect 3 0 4 0;
#X connect 4 0 15 0;
#X connect 5 0 10 3;
#X connect 5 0 11 3;
#X connect 5 0 12 3;
#X connect 5 0 13 3;
#X connect 6 0 10 0;
#X connect 7 0 12 0;
#X connect 8 0 5 0;
#X connect 9 0 0 0;
#X connect 10 0 11 0;
#X connect 11 0 0 0;
#X connect 12 0 13 0;
#X connect 13 0 4 1;
#X restore -53 77 pd ot 10;
#N canvas 687 180 450 300 ot 0;
#X obj 58 186 avg~;
#X obj 58 213 * 100;
#X msg 58 247 \$1 20;
#X obj 58 276 line~;
#X obj 58 309 *~;
#X obj 322 73 sig~;
#X obj 60 22 r~ \$0modulator;
#X obj 196 197 r~ \$0carrier3;
#X obj 322 49 r \$0q;
#X obj 0 142 r \$0tick;
#X obj 60 119 reson~ 1 1700 40;
#X obj 58 142 reson~ 1 1700 40;
#X obj 195 241 reson~ 1 1700 40;
#X obj 193 265 reson~ 1 1700 40;
#X obj -27 254 s \$0voice3_11;
#X obj 57 342 s~ \$0voice3_11;
#X connect 0 0 1 0;
#X connect 1 0 2 0;
#X connect 1 0 14 0;
#X connect 2 0 3 0;
#X connect 3 0 4 0;
#X connect 4 0 15 0;
#X connect 5 0 10 3;
#X connect 5 0 11 3;
#X connect 5 0 12 3;
#X connect 5 0 13 3;
#X connect 6 0 10 0;
#X connect 7 0 12 0;
#X connect 8 0 5 0;
#X connect 9 0 0 0;
#X connect 10 0 11 0;
#X connect 11 0 0 0;
#X connect 12 0 13 0;
#X connect 13 0 4 1;
#X restore -53 100 pd ot 11;
#N canvas 704 0 450 300 ot 0;
#X obj 58 186 avg~;
#X obj 58 213 * 100;
#X msg 58 247 \$1 20;
#X obj 58 276 line~;
#X obj 58 309 *~;
#X obj 322 73 sig~;
#X obj 60 22 r~ \$0modulator;
#X obj 196 197 r~ \$0carrier3;
#X obj 322 49 r \$0q;
#X obj 0 142 r \$0tick;
#X obj 60 119 reson~ 1 2000 40;
#X obj 55 143 reson~ 1 2000 40;
#X obj 195 241 reson~ 1 2000 40;
#X obj 195 265 reson~ 1 2000 40;
#X obj -28 254 s \$0voice3_12;
#X obj 57 342 s~ \$0voice3_12;
#X connect 0 0 1 0;
#X connect 1 0 2 0;
#X connect 1 0 14 0;
#X connect 2 0 3 0;
#X connect 3 0 4 0;
#X connect 4 0 15 0;
#X connect 5 0 10 3;
#X connect 5 0 11 3;
#X connect 5 0 12 3;
#X connect 5 0 13 3;
#X connect 6 0 10 0;
#X connect 7 0 12 0;
#X connect 8 0 5 0;
#X connect 9 0 0 0;
#X connect 10 0 11 0;
#X connect 11 0 0 0;
#X connect 12 0 13 0;
#X connect 13 0 4 1;
#X restore -53 123 pd ot 12;
#N canvas 704 0 450 300 ot 0;
#X obj 58 186 avg~;
#X obj 58 213 * 100;
#X msg 58 247 \$1 20;
#X obj 58 276 line~;
#X obj 58 309 *~;
#X obj 322 73 sig~;
#X obj 60 22 r~ \$0modulator;
#X obj 196 197 r~ \$0carrier3;
#X obj 322 49 r \$0q;
#X obj 0 142 r \$0tick;
#X obj 60 119 reson~ 1 2200 40;
#X obj 58 143 reson~ 1 2200 40;
#X obj 196 241 reson~ 1 2200 40;
#X obj 195 265 reson~ 1 2200 40;
#X obj -28 254 s \$0voice3_13;
#X obj 57 342 s~ \$0voice3_13;
#X connect 0 0 1 0;
#X connect 1 0 2 0;
#X connect 1 0 14 0;
#X connect 2 0 3 0;
#X connect 3 0 4 0;
#X connect 4 0 15 0;
#X connect 5 0 10 3;
#X connect 5 0 11 3;
#X connect 5 0 12 3;
#X connect 5 0 13 3;
#X connect 6 0 10 0;
#X connect 7 0 12 0;
#X connect 8 0 5 0;
#X connect 9 0 0 0;
#X connect 10 0 11 0;
#X connect 11 0 0 0;
#X connect 12 0 13 0;
#X connect 13 0 4 1;
#X restore -53 146 pd ot 13;
#N canvas 718 114 450 300 ot 0;
#X obj 58 186 avg~;
#X obj 58 213 * 100;
#X msg 58 247 \$1 20;
#X obj 58 276 line~;
#X obj 58 309 *~;
#X obj 322 73 sig~;
#X obj 60 22 r~ \$0modulator;
#X obj 196 197 r~ \$0carrier3;
#X obj 322 49 r \$0q;
#X obj 0 142 r \$0tick;
#X obj 61 119 reson~ 1 2500 40;
#X obj 55 143 reson~ 1 2500 40;
#X obj 195 241 reson~ 1 2500 40;
#X obj 195 265 reson~ 1 2500 40;
#X obj -28 254 s \$0voice3_14;
#X obj 57 342 s~ \$0voice3_14;
#X connect 0 0 1 0;
#X connect 1 0 2 0;
#X connect 1 0 14 0;
#X connect 2 0 3 0;
#X connect 3 0 4 0;
#X connect 4 0 15 0;
#X connect 5 0 10 3;
#X connect 5 0 11 3;
#X connect 5 0 12 3;
#X connect 5 0 13 3;
#X connect 6 0 10 0;
#X connect 7 0 12 0;
#X connect 8 0 5 0;
#X connect 9 0 0 0;
#X connect 10 0 11 0;
#X connect 11 0 0 0;
#X connect 12 0 13 0;
#X connect 13 0 4 1;
#X restore -53 169 pd ot 14;
#N canvas 129 157 450 300 ot 0;
#X obj 58 186 avg~;
#X obj 58 213 * 100;
#X msg 58 247 \$1 20;
#X obj 58 276 line~;
#X obj 58 309 *~;
#X obj 322 73 sig~;
#X obj 60 22 r~ \$0modulator;
#X obj 196 197 r~ \$0carrier3;
#X obj 322 49 r \$0q;
#X obj 0 142 r \$0tick;
#X obj 59 119 reson~ 1 2800 40;
#X obj 69 142 reson~ 1 2800 40;
#X obj 196 241 reson~ 1 2800 40;
#X obj 194 265 reson~ 1 2800 40;
#X obj -28 254 s \$0voice3_15;
#X obj 57 342 s~ \$0voice3_15;
#X connect 0 0 1 0;
#X connect 1 0 2 0;
#X connect 1 0 14 0;
#X connect 2 0 3 0;
#X connect 3 0 4 0;
#X connect 4 0 15 0;
#X connect 5 0 10 3;
#X connect 5 0 11 3;
#X connect 5 0 12 3;
#X connect 5 0 13 3;
#X connect 6 0 10 0;
#X connect 7 0 12 0;
#X connect 8 0 5 0;
#X connect 9 0 0 0;
#X connect 10 0 11 0;
#X connect 11 0 0 0;
#X connect 12 0 13 0;
#X connect 13 0 4 1;
#X restore -54 192 pd ot 15;
#N canvas 89 120 450 300 ot 0;
#X obj 58 186 avg~;
#X obj 58 213 * 100;
#X msg 58 247 \$1 20;
#X obj 58 276 line~;
#X obj 58 309 *~;
#X obj 322 73 sig~;
#X obj 60 22 r~ \$0modulator;
#X obj 196 197 r~ \$0carrier3;
#X obj 322 49 r \$0q;
#X obj 0 142 r \$0tick;
#X obj 61 119 reson~ 1 3000 40;
#X obj 55 143 reson~ 1 3000 40;
#X obj 195 241 reson~ 1 3000 40;
#X obj 194 265 reson~ 1 3000 40;
#X obj -27 254 s \$0voice3_16;
#X obj 57 341 s~ \$0voice3_16;
#X connect 0 0 1 0;
#X connect 1 0 2 0;
#X connect 1 0 14 0;
#X connect 2 0 3 0;
#X connect 3 0 4 0;
#X connect 4 0 15 0;
#X connect 5 0 10 3;
#X connect 5 0 11 3;
#X connect 5 0 12 3;
#X connect 5 0 13 3;
#X connect 6 0 10 0;
#X connect 7 0 12 0;
#X connect 8 0 5 0;
#X connect 9 0 0 0;
#X connect 10 0 11 0;
#X connect 11 0 0 0;
#X connect 12 0 13 0;
#X connect 13 0 4 1;
#X restore -54 215 pd ot 16;
#X text 419 143 rec;
#X obj 556 274 -~ 1;
#X obj 366 38 sig~;
#X obj 367 -24 inlet;
#X text 610 225 saw;
#X obj 367 4 unpack f f;
#X obj 144 531 *~;
#X obj 1079 273 r \$0stop;
#X msg 1087 320 0;
#X obj 800 207 r \$0att;
#X obj 934 208 r \$0rel;
#X obj 864 26 r \$0sus;
#X obj 864 59 / 127;
#X obj 864 476 vline~;
#X obj 1110 34 moses 1;
#X floatatom 1101 70 5 0 0 0 - - -;
#X floatatom 1154 95 5 0 0 0 - - -;
#X obj 908 376 pack f f;
#X obj 1153 71 / 127;
#X obj 796 324 pack f f f f;
#X msg 778 370 \$1 \$2 \, \$3 \$4 \$2;
#X obj 934 241 * 4;
#X obj 800 240 * 4;
#X obj 798 276 s \$0attshow;
#X obj 776 106 s \$0susshow;
#X obj 967 275 s \$0relshow;
#X obj 881 140 *;
#X obj 897 81 t b f;
#X obj 867 111 f;
#X obj 762 294 f;
#X obj 849 234 t b f;
#X obj 1133 126 t f f;
#X obj 1048 167 spigot;
#X obj 1027 84 r \$0hold;
#X obj 1027 105 - 1;
#X obj 1028 128 abs;
#X connect 0 0 38 0;
#X connect 1 0 3 0;
#X connect 2 0 8 0;
#X connect 3 0 4 0;
#X connect 4 0 2 0;
#X connect 5 0 7 0;
#X connect 7 0 15 0;
#X connect 8 0 15 0;
#X connect 9 0 10 0;
#X connect 10 0 33 0;
#X connect 11 0 15 0;
#X connect 12 0 7 1;
#X connect 13 0 11 1;
#X connect 14 0 8 1;
#X connect 33 0 11 0;
#X connect 34 0 1 0;
#X connect 34 0 9 0;
#X connect 35 0 37 0;
#X connect 37 0 34 0;
#X connect 37 1 46 0;
#X connect 38 0 6 0;
#X connect 39 0 40 0;
#X connect 40 0 49 0;
#X connect 41 0 54 0;
#X connect 42 0 53 0;
#X connect 43 0 44 0;
#X connect 44 0 56 0;
#X connect 44 0 60 1;
#X connect 45 0 38 1;
#X connect 46 0 47 0;
#X connect 46 1 50 0;
#X connect 47 0 64 0;
#X connect 48 0 63 0;
#X connect 49 0 45 0;
#X connect 50 0 48 0;
#X connect 51 0 52 0;
#X connect 52 0 45 0;
#X connect 53 0 49 1;
#X connect 53 0 51 3;
#X connect 53 0 57 0;
#X connect 54 0 51 1;
#X connect 54 0 55 0;
#X connect 58 0 62 0;
#X connect 59 0 60 0;
#X connect 59 1 58 1;
#X connect 60 0 58 0;
#X connect 61 0 51 0;
#X connect 62 0 61 0;
#X connect 62 1 51 2;
#X connect 63 0 59 0;
#X connect 63 1 61 1;
#X connect 64 0 49 0;
#X connect 65 0 66 0;
#X connect 66 0 67 0;
#X connect 67 0 64 1;
#X restore -248 244 pd voice 3;
#N canvas 0 0 1440 818 voice 0;
#N canvas 0 0 596 343 out 0;
#X obj 56 418 outlet~;
#X obj 7 179 r~ \$0voice4_1;
#X obj 126 184 r~ \$0voice4_2;
#X obj 255 183 r~ \$0voice4_3;
#X obj 350 184 r~ \$0voice4_4;
#X obj 34 243 r~ \$0voice4_5;
#X obj 133 249 r~ \$0voice4_6;
#X obj 249 242 r~ \$0voice4_7;
#X obj 358 242 r~ \$0voice4_8;
#X obj 204 299 r~ \$0voice4_9;
#X obj 293 303 r~ \$0voice4_10;
#X obj 380 303 r~ \$0voice4_11;
#X obj 467 307 r~ \$0voice4_12;
#X obj 167 346 r~ \$0voice4_13;
#X obj 263 346 r~ \$0voice4_14;
#X obj 368 347 r~ \$0voice4_15;
#X obj 476 347 r~ \$0voice4_16;
#X connect 1 0 0 0;
#X connect 2 0 0 0;
#X connect 3 0 0 0;
#X connect 4 0 0 0;
#X connect 5 0 0 0;
#X connect 6 0 0 0;
#X connect 7 0 0 0;
#X connect 8 0 0 0;
#X connect 9 0 0 0;
#X connect 10 0 0 0;
#X connect 11 0 0 0;
#X connect 12 0 0 0;
#X connect 13 0 0 0;
#X connect 14 0 0 0;
#X connect 15 0 0 0;
#X connect 16 0 0 0;
#X restore 150 446 pd out;
#X obj 366 88 phasor~;
#X obj 364 175 -~ 1;
#X obj 365 118 expr~ $v1 < 0.5;
#X obj 365 149 *~ 2;
#X obj 291 111 noise~;
#X obj 142 559 outlet~;
#X obj 292 293 *~;
#X obj 364 292 *~;
#X obj 557 226 phasor~;
#X obj 557 251 *~ 2;
#X obj 556 301 *~;
#X obj 633 134 inlet;
#X obj 732 146 inlet;
#X obj 671 140 inlet;
#X obj 403 480 s~ \$0carrier4;
#N canvas 704 0 450 300 ot 0;
#X obj 58 186 avg~;
#X obj 58 213 * 100;
#X msg 58 247 \$1 20;
#X obj 58 276 line~;
#X obj 58 309 *~;
#X obj 322 73 sig~;
#X obj 60 119 reson~ 1 100 40;
#X obj 60 22 r~ \$0modulator;
#X obj 57 342 s~ \$0voice4_1;
#X obj 196 197 r~ \$0carrier4;
#X obj 322 49 r \$0q;
#X obj 0 142 r \$0tick;
#X obj -28 254 s \$0voice4_1;
#X obj 58 143 reson~ 1 100 40;
#X obj 195 241 reson~ 1 100 40;
#X obj 195 265 reson~ 1 100 40;
#X connect 0 0 1 0;
#X connect 1 0 2 0;
#X connect 1 0 12 0;
#X connect 2 0 3 0;
#X connect 3 0 4 0;
#X connect 4 0 8 0;
#X connect 5 0 6 3;
#X connect 5 0 13 3;
#X connect 5 0 14 3;
#X connect 5 0 15 3;
#X connect 6 0 13 0;
#X connect 7 0 6 0;
#X connect 9 0 14 0;
#X connect 10 0 5 0;
#X connect 11 0 0 0;
#X connect 13 0 0 0;
#X connect 14 0 15 0;
#X connect 15 0 4 1;
#X restore -115 54 pd ot 1;
#N canvas 704 0 450 300 ot 0;
#X obj 58 186 avg~;
#X obj 58 213 * 100;
#X msg 58 247 \$1 20;
#X obj 58 276 line~;
#X obj 58 309 *~;
#X obj 322 73 sig~;
#X obj 60 22 r~ \$0modulator;
#X obj 196 197 r~ \$0carrier4;
#X obj 322 49 r \$0q;
#X obj 0 142 r \$0tick;
#X obj 60 119 reson~ 1 200 40;
#X obj 58 143 reson~ 1 200 40;
#X obj 195 241 reson~ 1 200 40;
#X obj 195 265 reson~ 1 200 40;
#X obj -28 254 s \$0voice4_2;
#X obj 57 342 s~ \$0voice4_2;
#X connect 0 0 1 0;
#X connect 1 0 2 0;
#X connect 1 0 14 0;
#X connect 2 0 3 0;
#X connect 3 0 4 0;
#X connect 4 0 15 0;
#X connect 5 0 10 3;
#X connect 5 0 11 3;
#X connect 5 0 12 3;
#X connect 5 0 13 3;
#X connect 6 0 10 0;
#X connect 7 0 12 0;
#X connect 8 0 5 0;
#X connect 9 0 0 0;
#X connect 10 0 11 0;
#X connect 11 0 0 0;
#X connect 12 0 13 0;
#X connect 13 0 4 1;
#X restore -115 77 pd ot 2;
#N canvas 704 0 450 300 ot 0;
#X obj 58 186 avg~;
#X obj 58 213 * 100;
#X msg 58 247 \$1 20;
#X obj 58 276 line~;
#X obj 58 309 *~;
#X obj 322 73 sig~;
#X obj 60 22 r~ \$0modulator;
#X obj 196 197 r~ \$0carrier4;
#X obj 322 49 r \$0q;
#X obj 0 142 r \$0tick;
#X obj 60 119 reson~ 1 250 40;
#X obj 58 143 reson~ 1 250 40;
#X obj 195 241 reson~ 1 250 40;
#X obj 195 265 reson~ 1 250 40;
#X obj -28 254 s \$0voice4_3;
#X obj 57 342 s~ \$0voice4_3;
#X connect 0 0 1 0;
#X connect 1 0 2 0;
#X connect 1 0 14 0;
#X connect 2 0 3 0;
#X connect 3 0 4 0;
#X connect 4 0 15 0;
#X connect 5 0 10 3;
#X connect 5 0 11 3;
#X connect 5 0 12 3;
#X connect 5 0 13 3;
#X connect 6 0 10 0;
#X connect 7 0 12 0;
#X connect 8 0 5 0;
#X connect 9 0 0 0;
#X connect 10 0 11 0;
#X connect 11 0 0 0;
#X connect 12 0 13 0;
#X connect 13 0 4 1;
#X restore -115 100 pd ot 3;
#N canvas 704 0 450 300 ot 0;
#X obj 58 186 avg~;
#X obj 58 213 * 100;
#X msg 58 247 \$1 20;
#X obj 58 276 line~;
#X obj 58 309 *~;
#X obj 322 73 sig~;
#X obj 60 22 r~ \$0modulator;
#X obj 196 197 r~ \$0carrier4;
#X obj 322 49 r \$0q;
#X obj 0 142 r \$0tick;
#X obj 60 119 reson~ 1 400 40;
#X obj 55 143 reson~ 1 400 40;
#X obj 195 241 reson~ 1 400 40;
#X obj 195 265 reson~ 1 400 40;
#X obj -28 254 s \$0voice4_4;
#X obj 57 342 s~ \$0voice4_4;
#X connect 0 0 1 0;
#X connect 1 0 2 0;
#X connect 1 0 14 0;
#X connect 2 0 3 0;
#X connect 3 0 4 0;
#X connect 4 0 15 0;
#X connect 5 0 10 3;
#X connect 5 0 11 3;
#X connect 5 0 12 3;
#X connect 5 0 13 3;
#X connect 6 0 10 0;
#X connect 7 0 12 0;
#X connect 8 0 5 0;
#X connect 9 0 0 0;
#X connect 10 0 11 0;
#X connect 11 0 0 0;
#X connect 12 0 13 0;
#X connect 13 0 4 1;
#X restore -115 123 pd ot 4;
#N canvas 704 0 450 300 ot 0;
#X obj 58 186 avg~;
#X obj 58 213 * 100;
#X msg 58 247 \$1 20;
#X obj 58 276 line~;
#X obj 58 309 *~;
#X obj 322 73 sig~;
#X obj 60 22 r~ \$0modulator;
#X obj 196 197 r~ \$0carrier4;
#X obj 322 49 r \$0q;
#X obj 0 142 r \$0tick;
#X obj 60 119 reson~ 1 650 40;
#X obj 58 143 reson~ 1 650 40;
#X obj 196 241 reson~ 1 650 40;
#X obj 195 265 reson~ 1 650 40;
#X obj -28 254 s \$0voice4_5;
#X obj 57 342 s~ \$0voice4_5;
#X connect 0 0 1 0;
#X connect 1 0 2 0;
#X connect 1 0 14 0;
#X connect 2 0 3 0;
#X connect 3 0 4 0;
#X connect 4 0 15 0;
#X connect 5 0 10 3;
#X connect 5 0 11 3;
#X connect 5 0 12 3;
#X connect 5 0 13 3;
#X connect 6 0 10 0;
#X connect 7 0 12 0;
#X connect 8 0 5 0;
#X connect 9 0 0 0;
#X connect 10 0 11 0;
#X connect 11 0 0 0;
#X connect 12 0 13 0;
#X connect 13 0 4 1;
#X restore -115 146 pd ot 5;
#N canvas 704 0 450 300 ot 0;
#X obj 58 186 avg~;
#X obj 58 213 * 100;
#X msg 58 247 \$1 20;
#X obj 58 276 line~;
#X obj 58 309 *~;
#X obj 322 73 sig~;
#X obj 60 22 r~ \$0modulator;
#X obj 196 197 r~ \$0carrier4;
#X obj 322 49 r \$0q;
#X obj 0 142 r \$0tick;
#X obj 61 119 reson~ 1 800 40;
#X obj 55 143 reson~ 1 800 40;
#X obj 195 241 reson~ 1 800 40;
#X obj 195 265 reson~ 1 800 40;
#X obj -28 254 s \$0voice4_6;
#X obj 57 342 s~ \$0voice4_6;
#X connect 0 0 1 0;
#X connect 1 0 2 0;
#X connect 1 0 14 0;
#X connect 2 0 3 0;
#X connect 3 0 4 0;
#X connect 4 0 15 0;
#X connect 5 0 10 3;
#X connect 5 0 11 3;
#X connect 5 0 12 3;
#X connect 5 0 13 3;
#X connect 6 0 10 0;
#X connect 7 0 12 0;
#X connect 8 0 5 0;
#X connect 9 0 0 0;
#X connect 10 0 11 0;
#X connect 11 0 0 0;
#X connect 12 0 13 0;
#X connect 13 0 4 1;
#X restore -115 169 pd ot 6;
#N canvas 129 157 450 300 ot 0;
#X obj 58 186 avg~;
#X obj 58 213 * 100;
#X msg 58 247 \$1 20;
#X obj 58 276 line~;
#X obj 58 309 *~;
#X obj 322 73 sig~;
#X obj 60 22 r~ \$0modulator;
#X obj 196 197 r~ \$0carrier4;
#X obj 322 49 r \$0q;
#X obj 0 142 r \$0tick;
#X obj 59 119 reson~ 1 1100 40;
#X obj 69 142 reson~ 1 1100 40;
#X obj 196 241 reson~ 1 1100 40;
#X obj 194 265 reson~ 1 1100 40;
#X obj 57 342 s~ \$0voice4_7;
#X obj -28 254 s \$0voice4_7;
#X connect 0 0 1 0;
#X connect 1 0 2 0;
#X connect 1 0 15 0;
#X connect 2 0 3 0;
#X connect 3 0 4 0;
#X connect 4 0 14 0;
#X connect 5 0 10 3;
#X connect 5 0 11 3;
#X connect 5 0 12 3;
#X connect 5 0 13 3;
#X connect 6 0 10 0;
#X connect 7 0 12 0;
#X connect 8 0 5 0;
#X connect 9 0 0 0;
#X connect 10 0 11 0;
#X connect 11 0 0 0;
#X connect 12 0 13 0;
#X connect 13 0 4 1;
#X restore -116 192 pd ot 7;
#N canvas 704 0 450 300 ot 0;
#X obj 58 186 avg~;
#X obj 58 213 * 100;
#X msg 58 247 \$1 20;
#X obj 58 276 line~;
#X obj 58 309 *~;
#X obj 322 73 sig~;
#X obj 60 22 r~ \$0modulator;
#X obj 196 197 r~ \$0carrier4;
#X obj 322 49 r \$0q;
#X obj 0 142 r \$0tick;
#X obj 61 119 reson~ 1 1200 40;
#X obj 55 143 reson~ 1 1200 40;
#X obj 195 241 reson~ 1 1200 40;
#X obj 194 265 reson~ 1 1200 40;
#X obj -28 254 s \$0voice4_8;
#X obj 57 341 s~ \$0voice4_8;
#X connect 0 0 1 0;
#X connect 1 0 2 0;
#X connect 1 0 14 0;
#X connect 2 0 3 0;
#X connect 3 0 4 0;
#X connect 4 0 15 0;
#X connect 5 0 10 3;
#X connect 5 0 11 3;
#X connect 5 0 12 3;
#X connect 5 0 13 3;
#X connect 6 0 10 0;
#X connect 7 0 12 0;
#X connect 8 0 5 0;
#X connect 9 0 0 0;
#X connect 10 0 11 0;
#X connect 11 0 0 0;
#X connect 12 0 13 0;
#X connect 13 0 4 1;
#X restore -116 215 pd ot 8;
#N canvas 113 109 450 300 ot 0;
#X obj 58 186 avg~;
#X obj 58 213 * 100;
#X msg 58 247 \$1 20;
#X obj 58 276 line~;
#X obj 58 309 *~;
#X obj 322 73 sig~;
#X obj 60 22 r~ \$0modulator;
#X obj 196 197 r~ \$0carrier4;
#X obj 322 49 r \$0q;
#X obj 0 142 r \$0tick;
#X obj 195 241 reson~ 1 1300 40;
#X obj 195 265 reson~ 1 1300 40;
#X obj 58 143 reson~ 1 1300 40;
#X obj 60 119 reson~ 1 1300 40;
#X obj 57 342 s~ \$0voice4_9;
#X obj -28 254 s \$0voice4_9;
#X connect 0 0 1 0;
#X connect 1 0 2 0;
#X connect 1 0 15 0;
#X connect 2 0 3 0;
#X connect 3 0 4 0;
#X connect 4 0 14 0;
#X connect 5 0 10 3;
#X connect 5 0 11 3;
#X connect 5 0 12 3;
#X connect 5 0 13 3;
#X connect 6 0 13 0;
#X connect 7 0 10 0;
#X connect 8 0 5 0;
#X connect 9 0 0 0;
#X connect 10 0 11 0;
#X connect 11 0 4 1;
#X connect 12 0 0 0;
#X connect 13 0 12 0;
#X restore -53 54 pd ot 9;
#N canvas 704 0 450 300 ot 0;
#X obj 58 186 avg~;
#X obj 58 213 * 100;
#X msg 58 247 \$1 20;
#X obj 58 276 line~;
#X obj 58 309 *~;
#X obj 322 73 sig~;
#X obj 60 22 r~ \$0modulator;
#X obj 196 197 r~ \$0carrier4;
#X obj 322 49 r \$0q;
#X obj 0 142 r \$0tick;
#X obj 60 119 reson~ 1 1500 40;
#X obj 58 143 reson~ 1 1500 40;
#X obj 195 241 reson~ 1 1500 40;
#X obj 192 265 reson~ 1 1500 40;
#X obj -28 254 s \$0voice4_10;
#X obj 57 342 s~ \$0voice4_10;
#X connect 0 0 1 0;
#X connect 1 0 2 0;
#X connect 1 0 14 0;
#X connect 2 0 3 0;
#X connect 3 0 4 0;
#X connect 4 0 15 0;
#X connect 5 0 10 3;
#X connect 5 0 11 3;
#X connect 5 0 12 3;
#X connect 5 0 13 3;
#X connect 6 0 10 0;
#X connect 7 0 12 0;
#X connect 8 0 5 0;
#X connect 9 0 0 0;
#X connect 10 0 11 0;
#X connect 11 0 0 0;
#X connect 12 0 13 0;
#X connect 13 0 4 1;
#X restore -53 77 pd ot 10;
#N canvas 687 180 450 300 ot 0;
#X obj 58 186 avg~;
#X obj 58 213 * 100;
#X msg 58 247 \$1 20;
#X obj 58 276 line~;
#X obj 58 309 *~;
#X obj 322 73 sig~;
#X obj 60 22 r~ \$0modulator;
#X obj 196 197 r~ \$0carrier4;
#X obj 322 49 r \$0q;
#X obj 0 142 r \$0tick;
#X obj 60 119 reson~ 1 1700 40;
#X obj 58 142 reson~ 1 1700 40;
#X obj 195 241 reson~ 1 1700 40;
#X obj 193 265 reson~ 1 1700 40;
#X obj -27 254 s \$0voice4_11;
#X obj 57 342 s~ \$0voice4_11;
#X connect 0 0 1 0;
#X connect 1 0 2 0;
#X connect 1 0 14 0;
#X connect 2 0 3 0;
#X connect 3 0 4 0;
#X connect 4 0 15 0;
#X connect 5 0 10 3;
#X connect 5 0 11 3;
#X connect 5 0 12 3;
#X connect 5 0 13 3;
#X connect 6 0 10 0;
#X connect 7 0 12 0;
#X connect 8 0 5 0;
#X connect 9 0 0 0;
#X connect 10 0 11 0;
#X connect 11 0 0 0;
#X connect 12 0 13 0;
#X connect 13 0 4 1;
#X restore -53 100 pd ot 11;
#N canvas 704 0 450 300 ot 0;
#X obj 58 186 avg~;
#X obj 58 213 * 100;
#X msg 58 247 \$1 20;
#X obj 58 276 line~;
#X obj 58 309 *~;
#X obj 322 73 sig~;
#X obj 60 22 r~ \$0modulator;
#X obj 196 197 r~ \$0carrier4;
#X obj 322 49 r \$0q;
#X obj 0 142 r \$0tick;
#X obj 60 119 reson~ 1 2000 40;
#X obj 55 143 reson~ 1 2000 40;
#X obj 195 241 reson~ 1 2000 40;
#X obj 195 265 reson~ 1 2000 40;
#X obj -28 254 s \$0voice4_12;
#X obj 57 342 s~ \$0voice4_12;
#X connect 0 0 1 0;
#X connect 1 0 2 0;
#X connect 1 0 14 0;
#X connect 2 0 3 0;
#X connect 3 0 4 0;
#X connect 4 0 15 0;
#X connect 5 0 10 3;
#X connect 5 0 11 3;
#X connect 5 0 12 3;
#X connect 5 0 13 3;
#X connect 6 0 10 0;
#X connect 7 0 12 0;
#X connect 8 0 5 0;
#X connect 9 0 0 0;
#X connect 10 0 11 0;
#X connect 11 0 0 0;
#X connect 12 0 13 0;
#X connect 13 0 4 1;
#X restore -53 123 pd ot 12;
#N canvas 704 0 450 300 ot 0;
#X obj 58 186 avg~;
#X obj 58 213 * 100;
#X msg 58 247 \$1 20;
#X obj 58 276 line~;
#X obj 58 309 *~;
#X obj 322 73 sig~;
#X obj 60 22 r~ \$0modulator;
#X obj 196 197 r~ \$0carrier4;
#X obj 322 49 r \$0q;
#X obj 0 142 r \$0tick;
#X obj 60 119 reson~ 1 2200 40;
#X obj 58 143 reson~ 1 2200 40;
#X obj 196 241 reson~ 1 2200 40;
#X obj 195 265 reson~ 1 2200 40;
#X obj -28 254 s \$0voice4_13;
#X obj 57 342 s~ \$0voice4_13;
#X connect 0 0 1 0;
#X connect 1 0 2 0;
#X connect 1 0 14 0;
#X connect 2 0 3 0;
#X connect 3 0 4 0;
#X connect 4 0 15 0;
#X connect 5 0 10 3;
#X connect 5 0 11 3;
#X connect 5 0 12 3;
#X connect 5 0 13 3;
#X connect 6 0 10 0;
#X connect 7 0 12 0;
#X connect 8 0 5 0;
#X connect 9 0 0 0;
#X connect 10 0 11 0;
#X connect 11 0 0 0;
#X connect 12 0 13 0;
#X connect 13 0 4 1;
#X restore -53 146 pd ot 13;
#N canvas 718 114 450 300 ot 0;
#X obj 58 186 avg~;
#X obj 58 213 * 100;
#X msg 58 247 \$1 20;
#X obj 58 276 line~;
#X obj 58 309 *~;
#X obj 322 73 sig~;
#X obj 60 22 r~ \$0modulator;
#X obj 196 197 r~ \$0carrier4;
#X obj 322 49 r \$0q;
#X obj 0 142 r \$0tick;
#X obj 61 119 reson~ 1 2500 40;
#X obj 55 143 reson~ 1 2500 40;
#X obj 195 241 reson~ 1 2500 40;
#X obj 195 265 reson~ 1 2500 40;
#X obj -28 254 s \$0voice4_14;
#X obj 57 342 s~ \$0voice4_14;
#X connect 0 0 1 0;
#X connect 1 0 2 0;
#X connect 1 0 14 0;
#X connect 2 0 3 0;
#X connect 3 0 4 0;
#X connect 4 0 15 0;
#X connect 5 0 10 3;
#X connect 5 0 11 3;
#X connect 5 0 12 3;
#X connect 5 0 13 3;
#X connect 6 0 10 0;
#X connect 7 0 12 0;
#X connect 8 0 5 0;
#X connect 9 0 0 0;
#X connect 10 0 11 0;
#X connect 11 0 0 0;
#X connect 12 0 13 0;
#X connect 13 0 4 1;
#X restore -53 169 pd ot 14;
#N canvas 129 157 450 300 ot 0;
#X obj 58 186 avg~;
#X obj 58 213 * 100;
#X msg 58 247 \$1 20;
#X obj 58 276 line~;
#X obj 58 309 *~;
#X obj 322 73 sig~;
#X obj 60 22 r~ \$0modulator;
#X obj 196 197 r~ \$0carrier4;
#X obj 322 49 r \$0q;
#X obj 0 142 r \$0tick;
#X obj 59 119 reson~ 1 2800 40;
#X obj 69 142 reson~ 1 2800 40;
#X obj 196 241 reson~ 1 2800 40;
#X obj 194 265 reson~ 1 2800 40;
#X obj -28 254 s \$0voice4_15;
#X obj 57 342 s~ \$0voice4_15;
#X connect 0 0 1 0;
#X connect 1 0 2 0;
#X connect 1 0 14 0;
#X connect 2 0 3 0;
#X connect 3 0 4 0;
#X connect 4 0 15 0;
#X connect 5 0 10 3;
#X connect 5 0 11 3;
#X connect 5 0 12 3;
#X connect 5 0 13 3;
#X connect 6 0 10 0;
#X connect 7 0 12 0;
#X connect 8 0 5 0;
#X connect 9 0 0 0;
#X connect 10 0 11 0;
#X connect 11 0 0 0;
#X connect 12 0 13 0;
#X connect 13 0 4 1;
#X restore -54 192 pd ot 15;
#N canvas 89 120 450 300 ot 0;
#X obj 58 186 avg~;
#X obj 58 213 * 100;
#X msg 58 247 \$1 20;
#X obj 58 276 line~;
#X obj 58 309 *~;
#X obj 322 73 sig~;
#X obj 60 22 r~ \$0modulator;
#X obj 196 197 r~ \$0carrier4;
#X obj 322 49 r \$0q;
#X obj 0 142 r \$0tick;
#X obj 61 119 reson~ 1 3000 40;
#X obj 55 143 reson~ 1 3000 40;
#X obj 195 241 reson~ 1 3000 40;
#X obj 194 265 reson~ 1 3000 40;
#X obj -27 254 s \$0voice4_16;
#X obj 57 341 s~ \$0voice4_16;
#X connect 0 0 1 0;
#X connect 1 0 2 0;
#X connect 1 0 14 0;
#X connect 2 0 3 0;
#X connect 3 0 4 0;
#X connect 4 0 15 0;
#X connect 5 0 10 3;
#X connect 5 0 11 3;
#X connect 5 0 12 3;
#X connect 5 0 13 3;
#X connect 6 0 10 0;
#X connect 7 0 12 0;
#X connect 8 0 5 0;
#X connect 9 0 0 0;
#X connect 10 0 11 0;
#X connect 11 0 0 0;
#X connect 12 0 13 0;
#X connect 13 0 4 1;
#X restore -54 215 pd ot 16;
#X text 419 143 rec;
#X obj 556 274 -~ 1;
#X obj 366 38 sig~;
#X obj 367 -24 inlet;
#X text 610 225 saw;
#X obj 367 4 unpack f f;
#X obj 150 499 *~;
#X obj 1130 259 r \$0stop;
#X msg 1138 306 0;
#X obj 851 193 r \$0att;
#X obj 985 194 r \$0rel;
#X obj 915 12 r \$0sus;
#X obj 915 45 / 127;
#X obj 915 462 vline~;
#X obj 1161 20 moses 1;
#X floatatom 1152 56 5 0 0 0 - - -;
#X floatatom 1205 81 5 0 0 0 - - -;
#X obj 959 362 pack f f;
#X obj 1204 57 / 127;
#X obj 847 310 pack f f f f;
#X msg 829 356 \$1 \$2 \, \$3 \$4 \$2;
#X obj 985 227 * 4;
#X obj 851 226 * 4;
#X obj 849 262 s \$0attshow;
#X obj 827 92 s \$0susshow;
#X obj 1018 261 s \$0relshow;
#X obj 932 126 *;
#X obj 948 67 t b f;
#X obj 918 97 f;
#X obj 813 280 f;
#X obj 900 220 t b f;
#X obj 1184 112 t f f;
#X obj 1099 153 spigot;
#X obj 1078 70 r \$0hold;
#X obj 1078 91 - 1;
#X obj 1079 114 abs;
#X connect 0 0 38 0;
#X connect 1 0 3 0;
#X connect 2 0 8 0;
#X connect 3 0 4 0;
#X connect 4 0 2 0;
#X connect 5 0 7 0;
#X connect 7 0 15 0;
#X connect 8 0 15 0;
#X connect 9 0 10 0;
#X connect 10 0 33 0;
#X connect 11 0 15 0;
#X connect 12 0 7 1;
#X connect 13 0 11 1;
#X connect 14 0 8 1;
#X connect 33 0 11 0;
#X connect 34 0 1 0;
#X connect 34 0 9 0;
#X connect 35 0 37 0;
#X connect 37 0 34 0;
#X connect 37 1 46 0;
#X connect 38 0 6 0;
#X connect 39 0 40 0;
#X connect 40 0 49 0;
#X connect 41 0 54 0;
#X connect 42 0 53 0;
#X connect 43 0 44 0;
#X connect 44 0 56 0;
#X connect 44 0 60 1;
#X connect 45 0 38 1;
#X connect 46 0 47 0;
#X connect 46 1 50 0;
#X connect 47 0 64 0;
#X connect 48 0 63 0;
#X connect 49 0 45 0;
#X connect 50 0 48 0;
#X connect 51 0 52 0;
#X connect 52 0 45 0;
#X connect 53 0 49 1;
#X connect 53 0 51 3;
#X connect 53 0 57 0;
#X connect 54 0 51 1;
#X connect 54 0 55 0;
#X connect 58 0 62 0;
#X connect 59 0 60 0;
#X connect 59 1 58 1;
#X connect 60 0 58 0;
#X connect 61 0 51 0;
#X connect 62 0 61 0;
#X connect 62 1 51 2;
#X connect 63 0 59 0;
#X connect 63 1 61 1;
#X connect 64 0 49 0;
#X connect 65 0 66 0;
#X connect 66 0 67 0;
#X connect 67 0 64 1;
#X restore -180 273 pd voice 4;
#X obj -322 374 *~ 0.25;
#X obj -312 379 *~ 0.25;
#X obj -302 395 *~ 0.25;
#X obj -320 -198 inlet;
#X obj -319 -82 poly 4 1;
#X obj -292 405 *~ 0.25;
#X obj -321 463 outlet~;
#X obj -455 -31 s~ \$0modulator;
#X obj -518 41 loadbang;
#X obj -540 108 tgl 15 0 empty empty empty 17 7 0 10 -262144 -1 -1
1 1;
#X floatatom -443 144 5 0 0 0 - - -;
#X msg -443 99 22;
#X obj -538 206 s \$0tick;
#X obj -443 172 s \$0q;
#X obj -540 134 metro 10;
#X obj -129 97 / 127;
#X obj -90 93 / 127;
#X obj -51 93 / 127;
#X obj 102 102 cnv 15 200 210 empty empty vocodo 20 12 0 14 -66577
-260097 0;
#X obj 176 238 vsl 15 50 0 127 0 0 \$0sus \$0sus_r Sustain -12 -9 0
10 -162280 -260097 -262144 2450 1;
#X obj 114 254 hsl 50 15 0 127 0 0 \$0att \$0att_r Attack 5 -8 0 10
-162280 -260097 -262144 386 1;
#X obj 115 271 nbx 4 14 -1e+037 1e+037 0 0 empty \$0attshow empty 0
-8 0 11 -99865 -260097 -260097 40.018 256;
#X obj 206 255 hsl 50 15 0 127 0 0 \$0rel \$0rel_r Release/Decay -10
-8 0 10 -162280 -260097 -262144 1933 1;
#X obj 207 272 nbx 4 14 -1e+037 1e+037 0 0 empty \$0relshow empty 0
-8 0 11 -99865 -260097 -260097 200.401 256;
#X obj 162 294 nbx 4 14 -1e+037 1e+037 0 0 empty \$0susshow empty 0
-8 0 11 -99865 -260097 -260097 0.5 256;
#X obj 271 279 tgl 20 0 \$0hold \$0hold_r hold -2 -7 0 10 -191407 -260097
-262144 0 1;
#X msg -222 -120 stop;
#X obj -221 -219 r \$0hold;
#X obj -213 -190 sel 0;
#X obj -164 -108 s \$0stop;
#X obj 252 140 vsl 18 60 0 127 0 0 \$0noise \$0noise_r Flstern -13
-9 0 10 -191407 -260097 -262144 1626 1;
#X obj 127 140 vsl 18 60 0 127 0 0 \$0square \$0square_r Square -9
-9 0 10 -191407 -260097 -262144 5900 1;
#X obj 187 140 vsl 18 60 0 127 0 0 \$0saw \$0saw_r Saw 0 -9 0 10 -191407
-260097 -262144 0 1;
#X obj 126 205 nbx 3 14 -1e+037 1e+037 0 0 \$0squareshow_s \$0squareshow
empty 0 -8 0 10 -99865 -260097 -1 1 256;
#X obj 188 204 nbx 3 14 -1e+037 1e+037 0 0 \$0sawshow_s \$0sawshow
empty 0 -8 0 10 -99865 -260097 -1 0 256;
#X obj 252 205 nbx 3 14 -1e+037 1e+037 0 0 \$0noiseshow_s \$0noiseshow
empty 0 -8 0 10 -99865 -260097 -1 0.275593 256;
#X obj -12 -36 r \$0square;
#X obj -164 -156 route stop;
#X obj 8 -5 r \$0saw;
#X obj -22 -67 r \$0noise;
#X obj -809 -163 loadbang;
#X msg -758 -105 0;
#X obj -839 -67 s \$0noise_r;
#X obj -828 -37 s \$0square_r;
#X obj -808 -6 s \$0saw_r;
#X obj -72 170 s \$0noiseshow;
#X obj -61 188 s \$0squareshow;
#X obj -40 215 s \$0sawshow;
#X obj -700 -40 s \$0att_r;
#X obj -690 -12 s \$0rel_r;
#X obj -677 6 s \$0sus_r;
#X msg -690 -132 10;
#X msg -602 -103 63.5;
#X msg -638 -121 50.1;
#X msg -793 -110 127;
#X msg -833 -112 35;
#X msg -569 -68 0;
#X obj -585 -29 s \$0hold_r;
#X obj -455 -100 hip~ 15;
#X obj -456 -78 hip~ 15;
#X obj 348 45 inlet;
#X obj 358 55 inlet;
#X obj 368 65 inlet;
#X obj 378 75 inlet;
#X obj 388 85 inlet;
#X obj 398 95 inlet;
#X obj 408 105 inlet;
#X obj -271 -130 spigot;
#X obj -246 -189 - 1;
#X obj -243 -151 abs;
#X obj -1117 -462 r toolssavebank;
#X obj -907 -545 r toolssavebang;
#X obj -688 -355 f;
#X obj -743 -361 f;
#X obj -831 -223 s toolssavelists;
#X obj -878 -441 f;
#X obj -1115 -344 route;
#X obj -757 -600 loadbang;
#X obj -756 -544 \$1;
#X obj -757 -572 del 5;
#X obj -878 -482 del;
#X obj -616 -327 f;
#X obj -554 -307 f;
#X obj -461 -302 f;
#X obj -411 -283 f;
#X obj -715 -514 r \$0square;
#X obj -640 -515 r \$0saw;
#X obj -528 -508 r \$0noise;
#X obj -407 -502 r \$0att;
#X obj -342 -494 r \$0rel;
#X obj -221 -488 r \$0sus;
#X obj -137 -486 r \$0hold;
#X obj -223 -277 f;
#X obj -889 -411 t b f b b b b b b b;
#X obj -828 -259 pack s f f f f f f f f;
#X obj -886 -341 symbol vocodo;
#X obj -1115 -374 route vocodo;
#X obj -1114 -318 unpack f f f f f f f;
#X obj -1339 -248 s \$0square_r;
#X obj -1256 -250 s \$0saw_r;
#X obj -1198 -253 s \$0noise_r;
#X obj -1130 -254 s \$0att_r;
#X obj -1065 -244 s \$0rel_r;
#X obj -1007 -245 s \$0sus_r;
#X obj -940 -247 s \$0hold_r;
#X obj -456 -129 inlet~;
#X connect 0 0 24 0;
#X connect 1 0 25 0;
#X connect 2 0 26 0;
#X connect 3 0 5 0;
#X connect 4 0 9 0;
#X connect 5 0 4 0;
#X connect 5 1 6 0;
#X connect 5 2 7 0;
#X connect 5 3 8 0;
#X connect 6 0 10 0;
#X connect 7 0 11 0;
#X connect 8 0 14 0;
#X connect 9 0 15 0;
#X connect 10 0 15 0;
#X connect 11 0 15 0;
#X connect 12 0 13 0;
#X connect 12 0 76 0;
#X connect 13 0 3 0;
#X connect 13 1 3 1;
#X connect 13 2 3 2;
#X connect 14 0 15 0;
#X connect 17 0 18 0;
#X connect 17 0 20 0;
#X connect 18 0 23 0;
#X connect 19 0 22 0;
#X connect 20 0 19 0;
#X connect 23 0 21 0;
#X connect 24 0 4 1;
#X connect 24 0 6 1;
#X connect 24 0 7 1;
#X connect 24 0 8 1;
#X connect 24 0 54 0;
#X connect 25 0 4 2;
#X connect 25 0 6 2;
#X connect 25 0 7 2;
#X connect 25 0 8 2;
#X connect 25 0 55 0;
#X connect 26 0 4 3;
#X connect 26 0 6 3;
#X connect 26 0 7 3;
#X connect 26 0 8 3;
#X connect 26 0 56 0;
#X connect 35 0 13 0;
#X connect 36 0 37 0;
#X connect 36 0 77 0;
#X connect 37 0 35 0;
#X connect 37 0 38 0;
#X connect 37 1 35 0;
#X connect 45 0 1 0;
#X connect 46 0 38 0;
#X connect 47 0 2 0;
#X connect 48 0 0 0;
#X connect 49 0 64 0;
#X connect 49 0 63 0;
#X connect 49 0 50 0;
#X connect 49 0 60 0;
#X connect 49 0 62 0;
#X connect 49 0 61 0;
#X connect 49 0 65 0;
#X connect 50 0 53 0;
#X connect 60 0 57 0;
#X connect 61 0 59 0;
#X connect 62 0 58 0;
#X connect 63 0 52 0;
#X connect 64 0 51 0;
#X connect 65 0 66 0;
#X connect 67 0 68 0;
#X connect 68 0 16 0;
#X connect 69 0 40 0;
#X connect 70 0 41 0;
#X connect 71 0 39 0;
#X connect 72 0 29 0;
#X connect 73 0 28 0;
#X connect 74 0 31 0;
#X connect 75 0 34 0;
#X connect 76 0 46 0;
#X connect 77 0 78 0;
#X connect 78 0 76 1;
#X connect 79 0 105 0;
#X connect 80 0 89 0;
#X connect 81 0 103 3;
#X connect 82 0 103 2;
#X connect 84 0 102 0;
#X connect 85 0 106 0;
#X connect 86 0 88 0;
#X connect 87 0 84 1;
#X connect 87 0 85 1;
#X connect 87 0 89 1;
#X connect 88 0 87 0;
#X connect 89 0 84 0;
#X connect 90 0 103 4;
#X connect 91 0 103 5;
#X connect 92 0 103 6;
#X connect 93 0 103 7;
#X connect 94 0 82 1;
#X connect 95 0 81 1;
#X connect 96 0 90 1;
#X connect 97 0 91 1;
#X connect 98 0 92 1;
#X connect 99 0 93 1;
#X connect 100 0 101 1;
#X connect 101 0 103 8;
#X connect 102 0 104 0;
#X connect 102 1 103 1;
#X connect 102 2 82 0;
#X connect 102 3 81 0;
#X connect 102 4 90 0;
#X connect 102 5 91 0;
#X connect 102 6 92 0;
#X connect 102 7 93 0;
#X connect 102 8 101 0;
#X connect 103 0 83 0;
#X connect 104 0 103 0;
#X connect 105 0 85 0;
#X connect 106 0 107 0;
#X connect 106 1 108 0;
#X connect 106 2 109 0;
#X connect 106 3 110 0;
#X connect 106 4 111 0;
#X connect 106 5 112 0;
#X connect 106 6 113 0;
#X connect 114 0 67 0;
#X coords 0 -1 1 1 204 214 1 100 100;
