#N canvas 214 19 945 572 10;
#X declare -path sub;
#X obj 6 16 cnv 15 930 524 empty empty empty 20 12 0 14 -203628 -66577
0;
#X obj 890 511 image sub/minizorglogo.gif;
#X obj 564 278 VCLF;
#X obj 99 16 VCO2;
#X obj 378 16 ENV1;
#X obj 843 16 VOLUME;
#X obj 6 16 VCO1;
#X obj 5 545 declare -path sub;
#N canvas 562 292 450 300 C 0;
#X obj 233 217 s C;
#X obj 233 192 pack f f;
#X floatatom 233 169 5 0 0 0 - - -;
#X floatatom 278 169 5 30 100 0 - - -;
#X msg 278 144 90;
#X obj 278 115 bng 15 250 50 0 empty empty empty 17 7 0 10 -262144
-1 -1;
#X obj 233 46 ZRGPCKEY;
#X obj 45 181 loadbang;
#X msg 45 204 \; pd dsp 1;
#X connect 1 0 0 0;
#X connect 2 0 1 0;
#X connect 3 0 1 1;
#X connect 4 0 3 0;
#X connect 5 0 4 0;
#X connect 6 0 2 0;
#X connect 6 0 5 0;
#X connect 7 0 8 0;
#X coords 0 300 1 299 9 18 0;
#X restore 115 545 pd C;
#X obj 471 278 PULS;
#X obj 750 16 ZDLY;
#X obj 192 16 VCO3;
#X obj 750 185 MIXER3X;
#X obj 564 16 ENV3;
#X obj 657 371 PORTAMENTO3X;
#X obj 51 76 image sub/envshape.gif;
#X obj 144 76 image sub/envshape.gif;
#X obj 237 76 image sub/envshape.gif;
#X obj 53 226 image sub/env8.gif;
#X obj 145 226 image sub/env8.gif;
#X obj 238 226 image sub/env8.gif;
#X obj 471 16 ENV2;
#X obj 285 16 VCO4;
#X obj 330 76 image sub/envshape.gif;
#X obj 331 226 image sub/env8.gif;
#X obj 657 16 ENV4;
#X obj 657 464 SELETTOREVCO;
#X obj 564 371 DRCONTROL;
#X obj 6 371 DRUM-MACHINE;
#X obj 6 278 SEQUENCER;
#X coords 0 0 2 2 0 0 0;
