#N canvas 1951 50 975 500 10;
#X obj 367 10 inlet;
#X obj 20 103 vsl 30 167 0 1 0 0 empty empty empty 0 -9 0 10 -262130
-1 -1 16600 1;
#X obj 52 159 bng 40 250 50 0 empty empty stop 5 50 0 14 -261234 -1
-1;
#X obj 52 101 bng 40 250 50 0 empty empty start 1 50 0 14 -204786 -1
-1;
#X msg 20 67 1;
#X obj 20 47 loadbang;
#X floatatom 485 215 7 0 0 0 - - -, f 7;
#X obj 485 190 soundfiler;
#X obj 725 302 bng 15 250 50 0 empty empty empty 17 7 0 10 -262144
-1 -1;
#X msg 725 358 \; \$1 normalize;
#X obj 485 238 value wave_len;
#X obj 246 403 outlet~;
#X obj 247 296 phasor~;
#X obj 247 201 bng 15 250 50 0 empty empty empty 17 7 0 10 -262144
-1 -1;
#X msg 293 275 0;
#X obj 321 301 value wave_len;
#X obj 246 327 *~;
#N canvas 3060 283 287 271 wave_storage 0;
#N canvas 799 249 1081 451 (subpatch) 0;
#X array \$0-wave1 44100 float 2;
#X coords 0 1 44100 -1 128 60 1 0 0;
#X restore 65 40 graph;
#N canvas 799 249 1081 451 (subpatch) 0;
#X array \$0-wave2 44100 float 2;
#X coords 0 1 44100 -1 128 60 1 0 0;
#X restore 66 124 graph;
#X restore 790 223 pd wave_storage;
#X obj 725 331 symbol \$0-wave1;
#X msg 839 357 \; \$1 normalize;
#X obj 839 330 symbol \$0-wave2;
#X obj 247 382 tabread4~ \$0-wave1;
#X obj 801 13 bng 15 250 50 0 empty empty empty 17 7 0 10 -262144 -1
-1;
#X obj 485 137 pack s s s;
#X obj 552 116 symbol \$0-wave2;
#X obj 844 55 symbol \$0-wave1;
#X obj 845 75 symbol \$0-wave2;
#X obj 518 35 loadbang;
#X obj 518 96 symbol \$0-wave1;
#X msg 485 163 read -resize \$1 \$2 \$3;
#X msg 485 76 symbol \$1;
#X obj 801 33 t b b;
#X obj 801 97 pack s s s;
#X msg 801 120 \; \$2 const 0 \; \$3 const 0 \;;
#X obj 116 142 s start;
#X obj 247 175 r start;
#X obj 116 196 s stop;
#X obj 585 370 switch~ 64;
#X obj 301 247 value wave_len;
#X msg 247 247 44100;
#X obj 247 275 /;
#X obj 247 223 t b b;
#X obj 29 339 r start;
#X obj 29 384 value an_aus;
#X msg 29 361 1;
#X obj 125 383 value an_aus;
#X obj 125 338 r stop;
#X msg 125 360 0;
#X obj 79 435 tgl 25 0 \$0-an_aus empty An_Aus 0 -5 0 10 -262130 -1
-1 1 1;
#X obj 405 84 tgl 25 0 empty \$0-an_aus An_Aus 0 -5 0 10 -262130 -1
-1 1 1;
#X obj 366 114 spigot;
#X obj 367 32 t b a;
#X obj 585 333 tgl 25 0 empty \$0-an_aus An_Aus 0 -5 0 10 -262130 -1
-1 1 1;
#X obj 52 216 bng 40 250 50 0 empty empty cont 5 50 0 14 -204800 -1
-1;
#X obj 113 258 s cont;
#X obj 630 319 r cont;
#X msg 630 341 1;
#X obj 385 402 outlet~;
#X obj 386 381 tabread4~ \$0-wave2;
#X obj 726 265 inlet;
#X connect 0 0 51 0;
#X connect 2 0 36 0;
#X connect 3 0 34 0;
#X connect 4 0 1 0;
#X connect 5 0 4 0;
#X connect 6 0 10 0;
#X connect 7 0 6 0;
#X connect 8 0 18 0;
#X connect 8 0 20 0;
#X connect 12 0 16 0;
#X connect 13 0 41 0;
#X connect 14 0 12 1;
#X connect 15 0 16 1;
#X connect 16 0 21 0;
#X connect 16 0 58 0;
#X connect 18 0 9 0;
#X connect 20 0 19 0;
#X connect 21 0 11 0;
#X connect 22 0 31 0;
#X connect 23 0 29 0;
#X connect 24 0 23 2;
#X connect 25 0 32 2;
#X connect 26 0 32 1;
#X connect 27 0 28 0;
#X connect 27 0 24 0;
#X connect 28 0 23 1;
#X connect 29 0 7 0;
#X connect 30 0 23 0;
#X connect 31 0 32 0;
#X connect 31 1 25 0;
#X connect 31 1 26 0;
#X connect 32 0 33 0;
#X connect 35 0 13 0;
#X connect 38 0 40 1;
#X connect 39 0 40 0;
#X connect 40 0 12 0;
#X connect 41 0 39 0;
#X connect 41 1 38 0;
#X connect 41 1 14 0;
#X connect 41 1 15 0;
#X connect 42 0 44 0;
#X connect 42 0 43 0;
#X connect 43 0 48 0;
#X connect 44 0 43 0;
#X connect 45 0 48 0;
#X connect 46 0 47 0;
#X connect 46 0 45 0;
#X connect 47 0 45 0;
#X connect 49 0 50 1;
#X connect 50 0 13 0;
#X connect 51 0 50 0;
#X connect 51 1 30 0;
#X connect 52 0 37 0;
#X connect 53 0 54 0;
#X connect 55 0 56 0;
#X connect 56 0 37 0;
#X connect 58 0 57 0;
#X connect 59 0 8 0;
#X coords 0 -1 1 1 73 174 2 20 100;
