#N canvas 1121 97 827 478 10;
#X floatatom 235 103 0 0 0 0 - - -;
#X obj 425 223 cputime;
#X obj 424 13 loadbang;
#X msg 424 111 1;
#X floatatom 424 139 0 0 0 0 - - -;
#X obj 425 195 t b b;
#X obj 425 252 int;
#X text 469 139 <-- on/off;
#N canvas 0 50 450 250 (subpatch) 0;
#X array \$0-leistung 100 float 0;
#X coords 0 150 100 0 200 140 2 0 0;
#X restore 100 100 graph;
#X obj 581 227 f;
#X obj 612 226 + 1;
#X obj 424 35 t b b;
#X msg 454 62 0;
#X floatatom 654 301 5 0 0 0 - - -, f 5;
#X obj 581 299 mod 100;
#X floatatom 581 321 5 0 0 0 - - -, f 5;
#X obj 424 412 tabwrite \$0-leistung;
#X obj 44 275 loadbang;
#X obj 44 345 s \$0-leistung;
#X msg 44 297 xticks 0 1000 1 \, xlabel -0.04 \, yticks 0 50 1 \, ylabel
-0.1 50 100 150, f 37;
#X obj 654 345 array sum \$0-leistung;
#X floatatom 124 103 5 0 0 0 Ø #0-durchschnitt -, f 5;
#X obj 654 320 bang;
#X obj 655 368 / 100;
#X obj 333 12 inlet;
#X obj 655 390 s \$0-durchschnitt;
#X obj 424 383 spigot;
#X msg 356 358 0;
#X msg 463 359 1;
#X obj 425 305 t b f;
#X obj 581 154 f;
#X obj 581 176 - 1;
#X obj 333 34 t f f b;
#X msg 140 264 const 0;
#X obj 100 228 bng 12 250 50 0 \$0-ertert243 \$0-sdfsdf345 empty 17
7 0 10 -262144 -1 -1;
#X obj 424 168 metro 500;
#X obj 425 283 * 0.2;
#X connect 1 0 6 0;
#X connect 2 0 11 0;
#X connect 3 0 4 0;
#X connect 4 0 35 0;
#X connect 5 0 1 0;
#X connect 5 1 1 1;
#X connect 5 1 9 0;
#X connect 6 0 36 0;
#X connect 9 0 10 0;
#X connect 9 0 13 0;
#X connect 9 0 14 0;
#X connect 9 0 30 1;
#X connect 10 0 9 1;
#X connect 11 0 3 0;
#X connect 11 1 12 0;
#X connect 12 0 9 0;
#X connect 13 0 22 0;
#X connect 14 0 15 0;
#X connect 15 0 16 1;
#X connect 17 0 19 0;
#X connect 19 0 18 0;
#X connect 20 0 23 0;
#X connect 22 0 20 0;
#X connect 23 0 25 0;
#X connect 24 0 32 0;
#X connect 26 0 16 0;
#X connect 27 0 26 1;
#X connect 28 0 26 1;
#X connect 29 0 28 0;
#X connect 29 1 26 0;
#X connect 30 0 31 0;
#X connect 31 0 9 0;
#X connect 32 1 27 0;
#X connect 32 1 35 0;
#X connect 32 2 30 0;
#X connect 33 0 18 0;
#X connect 34 0 33 0;
#X connect 35 0 5 0;
#X connect 36 0 0 0;
#X connect 36 0 29 0;
#X coords 0 -1 1 1 200 140 2 100 100;
